<?xml version="1.0" encoding="UTF-8" standalone="no"?>
<!DOCTYPE svg PUBLIC "-//W3C//DTD SVG 1.1//EN"
 "http://www.w3.org/Graphics/SVG/1.1/DTD/svg11.dtd">
<!-- Generated by graphviz version 2.38.0 (20140413.2041)
 -->
<!-- Title: PROV Pages: 1 -->
<svg width="531pt" height="491pt"
 viewBox="0.00 0.00 530.50 491.00" xmlns="http://www.w3.org/2000/svg" xmlns:xlink="http://www.w3.org/1999/xlink">
<g id="graph0" class="graph" transform="scale(1 1) rotate(0) translate(4 487)">
<title>PROV</title>
<polygon fill="white" stroke="none" points="-4,4 -4,-487 526.5,-487 526.5,4 -4,4"/>
<!-- http://example.org/vlist -->
<g id="node1" class="node"><title>http://example.org/vlist</title>
<g id="a_node1"><a xlink:href="http://example.org/vlist" xlink:title="vlist">
<ellipse fill="#32cd32" stroke="#808080" cx="331.5" cy="-348" rx="27" ry="18"/>
<text text-anchor="middle" x="331.5" y="-344.3" font-family="Times New Roman,serif" font-size="14.00">vlist</text>
</a>
</g>
</g>
<!-- http://example.org/v10000 -->
<g id="node3" class="node"><title>http://example.org/v10000</title>
<g id="a_node3"><a xlink:href="http://example.org/v10000" xlink:title="v10000">
<ellipse fill="#32cd32" stroke="#808080" cx="124.5" cy="-465" rx="37.0935" ry="18"/>
<text text-anchor="middle" x="124.5" y="-461.3" font-family="Times New Roman,serif" font-size="14.00">v10000</text>
</a>
</g>
</g>
<!-- http://example.org/vlist&#45;&gt;http://example.org/v10000 -->
<g id="edge4" class="edge"><title>http://example.org/vlist&#45;&gt;http://example.org/v10000</title>
<path fill="none" stroke="darkgreen" d="M312.201,-360.8C301.35,-367.499 287.595,-376.101 275.5,-384 245.774,-403.412 240.75,-412.15 209.5,-429 194.751,-436.953 177.801,-444.27 162.937,-450.135"/>
<polygon fill="darkgreen" stroke="darkgreen" points="161.584,-446.905 153.515,-453.771 164.104,-453.436 161.584,-446.905"/>
<text text-anchor="middle" x="300.5" y="-417.8" font-family="Times New Roman,serif" font-size="14.00">der&#45;ins&#45;v</text>
<text text-anchor="middle" x="300.5" y="-402.8" font-family="Times New Roman,serif" font-size="14.00">[0]</text>
<text text-anchor="middle" x="300.5" y="-387.8" font-family="Times New Roman,serif" font-size="14.00">T5</text>
</g>
<!-- http://example.org/vlist&#45;&gt;http://example.org/v10000 -->
<g id="edge6" class="edge"><title>http://example.org/vlist&#45;&gt;http://example.org/v10000</title>
<path fill="none" stroke="darkgreen" d="M306.223,-354.933C291.464,-358.327 272.464,-362.577 255.5,-366 211.233,-374.931 190.34,-355.269 155.5,-384 139.798,-396.949 132.026,-418.866 128.193,-436.489"/>
<polygon fill="darkgreen" stroke="darkgreen" points="124.665,-436.317 126.279,-446.788 131.547,-437.596 124.665,-436.317"/>
<text text-anchor="middle" x="180.5" y="-417.8" font-family="Times New Roman,serif" font-size="14.00">der&#45;ins&#45;v</text>
<text text-anchor="middle" x="180.5" y="-402.8" font-family="Times New Roman,serif" font-size="14.00">[2]</text>
<text text-anchor="middle" x="180.5" y="-387.8" font-family="Times New Roman,serif" font-size="14.00">T5</text>
</g>
<!-- http://example.org/v10001 -->
<g id="node5" class="node"><title>http://example.org/v10001</title>
<g id="a_node5"><a xlink:href="http://example.org/v10001" xlink:title="v10001">
<ellipse fill="#32cd32" stroke="#808080" cx="380.5" cy="-465" rx="37.0935" ry="18"/>
<text text-anchor="middle" x="380.5" y="-461.3" font-family="Times New Roman,serif" font-size="14.00">v10001</text>
</a>
</g>
</g>
<!-- http://example.org/vlist&#45;&gt;http://example.org/v10001 -->
<g id="edge5" class="edge"><title>http://example.org/vlist&#45;&gt;http://example.org/v10001</title>
<path fill="none" stroke="darkgreen" d="M329.664,-365.964C328.612,-382.908 329.149,-409.211 339.5,-429 342.334,-434.419 346.393,-439.352 350.866,-443.694"/>
<polygon fill="darkgreen" stroke="darkgreen" points="348.791,-446.527 358.643,-450.424 353.372,-441.234 348.791,-446.527"/>
<text text-anchor="middle" x="364.5" y="-417.8" font-family="Times New Roman,serif" font-size="14.00">der&#45;ins&#45;v</text>
<text text-anchor="middle" x="364.5" y="-402.8" font-family="Times New Roman,serif" font-size="14.00">[1]</text>
<text text-anchor="middle" x="364.5" y="-387.8" font-family="Times New Roman,serif" font-size="14.00">T5</text>
</g>
<!-- &#45;attrs0 -->
<g id="node2" class="node"><title>&#45;attrs0</title>
<polygon fill="none" stroke="gray" points="432,-259.5 305,-259.5 305,-223.5 438,-223.5 438,-253.5 432,-259.5"/>
<polyline fill="none" stroke="gray" points="432,-259.5 432,-253.5 "/>
<polyline fill="none" stroke="gray" points="438,-253.5 432,-253.5 "/>
<text text-anchor="start" x="315.5" y="-238.5" font-family="Times New Roman,serif" font-size="10.00">repr:</text>
<text text-anchor="start" x="336.5" y="-238.5" font-family="Times New Roman,serif" font-size="10.00">&quot;[10000, 10001, 10000]&quot;</text>
</g>
<!-- &#45;attrs0&#45;&gt;http://example.org/vlist -->
<g id="edge1" class="edge"><title>&#45;attrs0&#45;&gt;http://example.org/vlist</title>
<path fill="none" stroke="gray" stroke-dasharray="5,2" d="M364.895,-259.756C357.395,-279.35 345.243,-311.095 337.851,-330.409"/>
</g>
<!-- &#45;attrs1 -->
<g id="node4" class="node"><title>&#45;attrs1</title>
<polygon fill="none" stroke="gray" points="67,-366 0,-366 0,-330 73,-330 73,-360 67,-366"/>
<polyline fill="none" stroke="gray" points="67,-366 67,-360 "/>
<polyline fill="none" stroke="gray" points="73,-360 67,-360 "/>
<text text-anchor="start" x="10.5" y="-345" font-family="Times New Roman,serif" font-size="10.00">repr:</text>
<text text-anchor="start" x="31.5" y="-345" font-family="Times New Roman,serif" font-size="10.00">&quot;10000&quot;</text>
</g>
<!-- &#45;attrs1&#45;&gt;http://example.org/v10000 -->
<g id="edge2" class="edge"><title>&#45;attrs1&#45;&gt;http://example.org/v10000</title>
<path fill="none" stroke="gray" stroke-dasharray="5,2" d="M45.7343,-366.056C55.188,-382.837 70.8226,-408.808 87.5,-429 93.2434,-435.954 100.284,-442.923 106.676,-448.791"/>
</g>
<!-- &#45;attrs2 -->
<g id="node6" class="node"><title>&#45;attrs2</title>
<polygon fill="none" stroke="gray" points="444,-366 377,-366 377,-330 450,-330 450,-360 444,-366"/>
<polyline fill="none" stroke="gray" points="444,-366 444,-360 "/>
<polyline fill="none" stroke="gray" points="450,-360 444,-360 "/>
<text text-anchor="start" x="387.5" y="-345" font-family="Times New Roman,serif" font-size="10.00">repr:</text>
<text text-anchor="start" x="408.5" y="-345" font-family="Times New Roman,serif" font-size="10.00">&quot;10001&quot;</text>
</g>
<!-- &#45;attrs2&#45;&gt;http://example.org/v10001 -->
<g id="edge3" class="edge"><title>&#45;attrs2&#45;&gt;http://example.org/v10001</title>
<path fill="none" stroke="gray" stroke-dasharray="5,2" d="M409.823,-366.006C406.165,-382.305 400.149,-407.529 393.5,-429 391.659,-434.944 389.371,-441.352 387.23,-447.04"/>
</g>
<!-- http://example.org/d -->
<g id="node7" class="node"><title>http://example.org/d</title>
<g id="a_node7"><a xlink:href="http://example.org/d" xlink:title="d">
<ellipse fill="#fffc87" stroke="#808080" cx="483.5" cy="-241.5" rx="27" ry="18"/>
<text text-anchor="middle" x="483.5" y="-237.8" font-family="Times New Roman,serif" font-size="14.00">d</text>
</a>
</g>
</g>
<!-- http://example.org/d&#45;&gt;http://example.org/vlist -->
<g id="edge8" class="edge"><title>http://example.org/d&#45;&gt;http://example.org/vlist</title>
<path fill="none" stroke="darkgreen" d="M465.467,-254.898C438.984,-273.104 389.383,-307.205 358.532,-328.416"/>
<polygon fill="darkgreen" stroke="darkgreen" points="356.241,-325.743 349.984,-334.292 360.207,-331.511 356.241,-325.743"/>
<text text-anchor="middle" x="445.5" y="-300.8" font-family="Times New Roman,serif" font-size="14.00">access</text>
<text text-anchor="middle" x="445.5" y="-285.8" font-family="Times New Roman,serif" font-size="14.00">T6</text>
</g>
<!-- &#45;attrs3 -->
<g id="node8" class="node"><title>&#45;attrs3</title>
<polygon fill="none" stroke="gray" points="516.5,-182 444.5,-182 444.5,-146 522.5,-146 522.5,-176 516.5,-182"/>
<polyline fill="none" stroke="gray" points="516.5,-182 516.5,-176 "/>
<polyline fill="none" stroke="gray" points="522.5,-176 516.5,-176 "/>
<text text-anchor="start" x="454.5" y="-168" font-family="Times New Roman,serif" font-size="10.00">value:</text>
<text text-anchor="start" x="481.5" y="-168" font-family="Times New Roman,serif" font-size="10.00">&quot;d&quot;</text>
<text text-anchor="start" x="454.5" y="-155" font-family="Times New Roman,serif" font-size="10.00">type:</text>
<text text-anchor="start" x="481.5" y="-155" font-family="Times New Roman,serif" font-size="10.00">&quot;name&quot;</text>
</g>
<!-- &#45;attrs3&#45;&gt;http://example.org/d -->
<g id="edge7" class="edge"><title>&#45;attrs3&#45;&gt;http://example.org/d</title>
<path fill="none" stroke="gray" stroke-dasharray="5,2" d="M483.5,-182.132C483.5,-194.488 483.5,-211.095 483.5,-223.436"/>
</g>
<!-- http://example.org/0 -->
<g id="node9" class="node"><title>http://example.org/0</title>
<g id="a_node9"><a xlink:href="http://example.org/0" xlink:title="0">
<ellipse fill="#fffc87" stroke="#808080" cx="259.5" cy="-241.5" rx="27" ry="18"/>
<text text-anchor="middle" x="259.5" y="-237.8" font-family="Times New Roman,serif" font-size="14.00">0</text>
</a>
</g>
</g>
<!-- http://example.org/v0 -->
<g id="node11" class="node"><title>http://example.org/v0</title>
<g id="a_node11"><a xlink:href="http://example.org/v0" xlink:title="v0">
<ellipse fill="#32cd32" stroke="#808080" cx="219.5" cy="-348" rx="27" ry="18"/>
<text text-anchor="middle" x="219.5" y="-344.3" font-family="Times New Roman,serif" font-size="14.00">v0</text>
</a>
</g>
</g>
<!-- http://example.org/0&#45;&gt;http://example.org/v0 -->
<g id="edge11" class="edge"><title>http://example.org/0&#45;&gt;http://example.org/v0</title>
<path fill="none" stroke="darkgreen" d="M241.554,-255.418C233.529,-262.302 224.899,-271.514 220.5,-282 215.536,-293.833 214.784,-307.976 215.482,-320.044"/>
<polygon fill="darkgreen" stroke="darkgreen" points="211.997,-320.367 216.399,-330.004 218.967,-319.725 211.997,-320.367"/>
<text text-anchor="middle" x="241.5" y="-300.8" font-family="Times New Roman,serif" font-size="14.00">defined</text>
<text text-anchor="middle" x="241.5" y="-285.8" font-family="Times New Roman,serif" font-size="14.00">T9</text>
</g>
<!-- &#45;attrs4 -->
<g id="node10" class="node"><title>&#45;attrs4</title>
<polygon fill="none" stroke="gray" points="263.5,-182 191.5,-182 191.5,-146 269.5,-146 269.5,-176 263.5,-182"/>
<polyline fill="none" stroke="gray" points="263.5,-182 263.5,-176 "/>
<polyline fill="none" stroke="gray" points="269.5,-176 263.5,-176 "/>
<text text-anchor="start" x="201.5" y="-168" font-family="Times New Roman,serif" font-size="10.00">value:</text>
<text text-anchor="start" x="228.5" y="-168" font-family="Times New Roman,serif" font-size="10.00">&quot;0&quot;</text>
<text text-anchor="start" x="201.5" y="-155" font-family="Times New Roman,serif" font-size="10.00">type:</text>
<text text-anchor="start" x="228.5" y="-155" font-family="Times New Roman,serif" font-size="10.00">&quot;literal&quot;</text>
</g>
<!-- &#45;attrs4&#45;&gt;http://example.org/0 -->
<g id="edge9" class="edge"><title>&#45;attrs4&#45;&gt;http://example.org/0</title>
<path fill="none" stroke="gray" stroke-dasharray="5,2" d="M237.081,-182.132C241.893,-194.662 248.385,-211.564 253.145,-223.955"/>
</g>
<!-- http://example.org/v0&#45;&gt;http://example.org/0 -->
<g id="edge12" class="edge"><title>http://example.org/v0&#45;&gt;http://example.org/0</title>
<path fill="none" stroke="darkgreen" d="M240.164,-335.788C248.746,-329.935 257.788,-321.91 262.5,-312 268.72,-298.918 268.453,-282.839 266.412,-269.443"/>
<polygon fill="darkgreen" stroke="darkgreen" points="269.804,-268.546 264.486,-259.383 262.929,-269.862 269.804,-268.546"/>
<text text-anchor="middle" x="287" y="-300.8" font-family="Times New Roman,serif" font-size="14.00">def by</text>
<text text-anchor="middle" x="287" y="-285.8" font-family="Times New Roman,serif" font-size="14.00">T9</text>
</g>
<!-- &#45;attrs5 -->
<g id="node12" class="node"><title>&#45;attrs5</title>
<polygon fill="none" stroke="gray" points="208,-259.5 159,-259.5 159,-223.5 214,-223.5 214,-253.5 208,-259.5"/>
<polyline fill="none" stroke="gray" points="208,-259.5 208,-253.5 "/>
<polyline fill="none" stroke="gray" points="214,-253.5 208,-253.5 "/>
<text text-anchor="start" x="169.5" y="-238.5" font-family="Times New Roman,serif" font-size="10.00">repr:</text>
<text text-anchor="start" x="190.5" y="-238.5" font-family="Times New Roman,serif" font-size="10.00">&quot;0&quot;</text>
</g>
<!-- &#45;attrs5&#45;&gt;http://example.org/v0 -->
<g id="edge10" class="edge"><title>&#45;attrs5&#45;&gt;http://example.org/v0</title>
<path fill="none" stroke="gray" stroke-dasharray="5,2" d="M188.515,-259.74C190.528,-274.045 194.245,-294.76 200.5,-312 202.858,-318.499 206.273,-325.262 209.56,-331.09"/>
</g>
<!-- http://example.org/d_ac0 -->
<g id="node13" class="node"><title>http://example.org/d_ac0</title>
<g id="a_node13"><a xlink:href="http://example.org/d_ac0" xlink:title="d_ac0">
<ellipse fill="#fffc87" stroke="#808080" cx="164.5" cy="-91" rx="33.2948" ry="18"/>
<text text-anchor="middle" x="164.5" y="-87.3" font-family="Times New Roman,serif" font-size="14.00">d_ac0</text>
</a>
</g>
</g>
<!-- http://example.org/d_ac0&#45;&gt;http://example.org/v10000 -->
<g id="edge14" class="edge"><title>http://example.org/d_ac0&#45;&gt;http://example.org/v10000</title>
<path fill="none" stroke="darkgreen" d="M142.466,-104.746C124.298,-117.083 101.5,-137.622 101.5,-163 101.5,-163 101.5,-163 101.5,-349 101.5,-379.722 109.49,-414.181 116.052,-437.297"/>
<polygon fill="darkgreen" stroke="darkgreen" points="112.747,-438.464 118.932,-447.066 119.461,-436.485 112.747,-438.464"/>
<text text-anchor="middle" x="121" y="-252.8" font-family="Times New Roman,serif" font-size="14.00">part</text>
<text text-anchor="middle" x="121" y="-237.8" font-family="Times New Roman,serif" font-size="14.00">vlist[0]</text>
<text text-anchor="middle" x="121" y="-222.8" font-family="Times New Roman,serif" font-size="14.00">T10</text>
</g>
<!-- http://example.org/access1 -->
<g id="node15" class="node"><title>http://example.org/access1</title>
<g id="a_node15"><a xlink:href="http://example.org/access1" xlink:title="access1">
<polygon fill="#9fb1fc" stroke="#0000ff" points="349,-182 288,-182 288,-146 349,-146 349,-182"/>
<text text-anchor="middle" x="318.5" y="-160.3" font-family="Times New Roman,serif" font-size="14.00">access1</text>
</a>
</g>
</g>
<!-- http://example.org/d_ac0&#45;&gt;http://example.org/access1 -->
<g id="edge18" class="edge"><title>http://example.org/d_ac0&#45;&gt;http://example.org/access1</title>
<path fill="none" stroke="black" d="M188.902,-103.25C212.98,-114.351 250.204,-131.513 278.591,-144.6"/>
<polygon fill="black" stroke="black" points="277.3,-147.859 287.847,-148.868 280.231,-141.503 277.3,-147.859"/>
<text text-anchor="middle" x="201.152" y="-92.6933" font-family="Times New Roman,serif" font-size="8.00">gen</text>
</g>
<!-- &#45;attrs6 -->
<g id="node14" class="node"><title>&#45;attrs6</title>
<polygon fill="none" stroke="gray" points="199,-36 124,-36 124,-0 205,-0 205,-30 199,-36"/>
<polyline fill="none" stroke="gray" points="199,-36 199,-30 "/>
<polyline fill="none" stroke="gray" points="205,-30 199,-30 "/>
<text text-anchor="start" x="134.5" y="-22" font-family="Times New Roman,serif" font-size="10.00">label:</text>
<text text-anchor="start" x="158.5" y="-22" font-family="Times New Roman,serif" font-size="10.00">&quot;d[0]&quot;</text>
<text text-anchor="start" x="134.5" y="-9" font-family="Times New Roman,serif" font-size="10.00">type:</text>
<text text-anchor="start" x="158.5" y="-9" font-family="Times New Roman,serif" font-size="10.00">&quot;access&quot;</text>
</g>
<!-- &#45;attrs6&#45;&gt;http://example.org/d_ac0 -->
<g id="edge13" class="edge"><title>&#45;attrs6&#45;&gt;http://example.org/d_ac0</title>
<path fill="none" stroke="gray" stroke-dasharray="5,2" d="M164.5,-36.1871C164.5,-47.3501 164.5,-61.8398 164.5,-72.9712"/>
</g>
<!-- http://example.org/access1&#45;&gt;http://example.org/d -->
<g id="edge16" class="edge"><title>http://example.org/access1&#45;&gt;http://example.org/d</title>
<path fill="none" stroke="black" d="M349.25,-176.697C375.49,-186.979 414.02,-202.794 446.5,-219 449.425,-220.459 452.438,-222.052 455.421,-223.69"/>
<polygon fill="black" stroke="black" points="453.743,-226.761 464.169,-228.646 457.194,-220.671 453.743,-226.761"/>
<text text-anchor="middle" x="360.996" y="-165.468" font-family="Times New Roman,serif" font-size="8.00">use</text>
</g>
<!-- http://example.org/access1&#45;&gt;http://example.org/0 -->
<g id="edge17" class="edge"><title>http://example.org/access1&#45;&gt;http://example.org/0</title>
<path fill="none" stroke="black" d="M305.112,-182.132C297.038,-192.464 286.642,-205.767 277.814,-217.064"/>
<polygon fill="black" stroke="black" points="274.834,-215.194 271.434,-225.229 280.349,-219.504 274.834,-215.194"/>
<text text-anchor="middle" x="310.73" y="-194.14" font-family="Times New Roman,serif" font-size="8.00">use</text>
</g>
<!-- &#45;attrs7 -->
<g id="node16" class="node"><title>&#45;attrs7</title>
<polygon fill="none" stroke="gray" points="352.5,-109 278.5,-109 278.5,-73 358.5,-73 358.5,-103 352.5,-109"/>
<polyline fill="none" stroke="gray" points="352.5,-109 352.5,-103 "/>
<polyline fill="none" stroke="gray" points="358.5,-103 352.5,-103 "/>
<text text-anchor="start" x="288.5" y="-88" font-family="Times New Roman,serif" font-size="10.00">type:</text>
<text text-anchor="start" x="311.5" y="-88" font-family="Times New Roman,serif" font-size="10.00">&quot;access&quot;</text>
</g>
<!-- &#45;attrs7&#45;&gt;http://example.org/access1 -->
<g id="edge15" class="edge"><title>&#45;attrs7&#45;&gt;http://example.org/access1</title>
<path fill="none" stroke="gray" stroke-dasharray="5,2" d="M318.5,-109.187C318.5,-120.35 318.5,-134.84 318.5,-145.971"/>
</g>
</g>
</svg>
