<?xml version="1.0" encoding="UTF-8" standalone="no"?>
<!DOCTYPE svg PUBLIC "-//W3C//DTD SVG 1.1//EN"
 "http://www.w3.org/Graphics/SVG/1.1/DTD/svg11.dtd">
<!-- Generated by graphviz version 2.38.0 (20140413.2041)
 -->
<!-- Title: PROV Pages: 1 -->
<svg width="494pt" height="675pt"
 viewBox="0.00 0.00 494.00 675.00" xmlns="http://www.w3.org/2000/svg" xmlns:xlink="http://www.w3.org/1999/xlink">
<g id="graph0" class="graph" transform="scale(1 1) rotate(0) translate(4 671)">
<title>PROV</title>
<polygon fill="white" stroke="none" points="-4,4 -4,-671 490,-671 490,4 -4,4"/>
<!-- http://example.org/m -->
<g id="node1" class="node"><title>http://example.org/m</title>
<g id="a_node1"><a xlink:href="http://example.org/m" xlink:title="m">
<ellipse fill="#fffc87" stroke="#808080" cx="391" cy="-91" rx="27" ry="18"/>
<text text-anchor="middle" x="391" y="-87.3" font-family="Times New Roman,serif" font-size="14.00">m</text>
</a>
</g>
</g>
<!-- http://example.org/v10000 -->
<g id="node3" class="node"><title>http://example.org/v10000</title>
<g id="a_node3"><a xlink:href="http://example.org/v10000" xlink:title="v10000">
<ellipse fill="#32cd32" stroke="#808080" cx="338" cy="-193" rx="37.0935" ry="18"/>
<text text-anchor="middle" x="338" y="-189.3" font-family="Times New Roman,serif" font-size="14.00">v10000</text>
</a>
</g>
</g>
<!-- http://example.org/m&#45;&gt;http://example.org/v10000 -->
<g id="edge3" class="edge"><title>http://example.org/m&#45;&gt;http://example.org/v10000</title>
<path fill="none" stroke="darkgreen" d="M382.248,-108.513C373.886,-124.291 361.159,-148.303 351.498,-166.531"/>
<polygon fill="darkgreen" stroke="darkgreen" points="348.355,-164.988 346.765,-175.463 354.54,-168.266 348.355,-164.988"/>
<text text-anchor="middle" x="391" y="-145.8" font-family="Times New Roman,serif" font-size="14.00">access</text>
<text text-anchor="middle" x="391" y="-130.8" font-family="Times New Roman,serif" font-size="14.00">T2</text>
</g>
<!-- &#45;attrs0 -->
<g id="node2" class="node"><title>&#45;attrs0</title>
<polygon fill="none" stroke="gray" points="423,-36 353,-36 353,-0 429,-0 429,-30 423,-36"/>
<polyline fill="none" stroke="gray" points="423,-36 423,-30 "/>
<polyline fill="none" stroke="gray" points="429,-30 423,-30 "/>
<text text-anchor="start" x="363" y="-22" font-family="Times New Roman,serif" font-size="10.00">label:</text>
<text text-anchor="start" x="387" y="-22" font-family="Times New Roman,serif" font-size="10.00">&quot;10000&quot;</text>
<text text-anchor="start" x="363" y="-9" font-family="Times New Roman,serif" font-size="10.00">type:</text>
<text text-anchor="start" x="387" y="-9" font-family="Times New Roman,serif" font-size="10.00">&quot;name&quot;</text>
</g>
<!-- &#45;attrs0&#45;&gt;http://example.org/m -->
<g id="edge1" class="edge"><title>&#45;attrs0&#45;&gt;http://example.org/m</title>
<path fill="none" stroke="gray" stroke-dasharray="5,2" d="M391,-36.1871C391,-47.3501 391,-61.8398 391,-72.9712"/>
</g>
<!-- http://example.org/list -->
<g id="node9" class="node"><title>http://example.org/list</title>
<g id="a_node9"><a xlink:href="http://example.org/list" xlink:title="list">
<ellipse fill="#fffc87" stroke="#808080" cx="166" cy="-314.5" rx="27" ry="18"/>
<text text-anchor="middle" x="166" y="-310.8" font-family="Times New Roman,serif" font-size="14.00">list</text>
</a>
</g>
</g>
<!-- http://example.org/v10000&#45;&gt;http://example.org/list -->
<g id="edge11" class="edge"><title>http://example.org/v10000&#45;&gt;http://example.org/list</title>
<path fill="none" stroke="darkgreen" stroke-dasharray="5,2" d="M303.806,-200.555C282.629,-205.789 255.634,-214.676 235,-229 212.27,-244.778 193.011,-270.068 180.665,-288.874"/>
<polygon fill="darkgreen" stroke="darkgreen" points="177.583,-287.197 175.174,-297.515 183.491,-290.952 177.583,-287.197"/>
<text text-anchor="middle" x="259.5" y="-262.8" font-family="Times New Roman,serif" font-size="14.00">der&#45;ins&#45;e</text>
<text text-anchor="middle" x="259.5" y="-247.8" font-family="Times New Roman,serif" font-size="14.00">[0]</text>
<text text-anchor="middle" x="259.5" y="-232.8" font-family="Times New Roman,serif" font-size="14.00">T5</text>
</g>
<!-- http://example.org/v10000&#45;&gt;http://example.org/list -->
<g id="edge15" class="edge"><title>http://example.org/v10000&#45;&gt;http://example.org/list</title>
<path fill="none" stroke="darkgreen" stroke-dasharray="5,2" d="M328.846,-210.485C316.91,-231.403 296.13,-265.763 284,-274 253.133,-294.962 236.689,-278.256 202,-292 199.115,-293.143 196.193,-294.501 193.326,-295.972"/>
<polygon fill="darkgreen" stroke="darkgreen" points="191.489,-292.989 184.468,-300.924 194.905,-299.099 191.489,-292.989"/>
<text text-anchor="middle" x="342.5" y="-262.8" font-family="Times New Roman,serif" font-size="14.00">der&#45;ins&#45;e</text>
<text text-anchor="middle" x="342.5" y="-247.8" font-family="Times New Roman,serif" font-size="14.00">[2]</text>
<text text-anchor="middle" x="342.5" y="-232.8" font-family="Times New Roman,serif" font-size="14.00">T5</text>
</g>
<!-- &#45;attrs1 -->
<g id="node4" class="node"><title>&#45;attrs1</title>
<polygon fill="none" stroke="gray" points="339.5,-109 272.5,-109 272.5,-73 345.5,-73 345.5,-103 339.5,-109"/>
<polyline fill="none" stroke="gray" points="339.5,-109 339.5,-103 "/>
<polyline fill="none" stroke="gray" points="345.5,-103 339.5,-103 "/>
<text text-anchor="start" x="283" y="-88" font-family="Times New Roman,serif" font-size="10.00">repr:</text>
<text text-anchor="start" x="304" y="-88" font-family="Times New Roman,serif" font-size="10.00">&quot;10000&quot;</text>
</g>
<!-- &#45;attrs1&#45;&gt;http://example.org/v10000 -->
<g id="edge2" class="edge"><title>&#45;attrs1&#45;&gt;http://example.org/v10000</title>
<path fill="none" stroke="gray" stroke-dasharray="5,2" d="M314.051,-109.419C319.407,-127.885 327.807,-156.853 333.103,-175.114"/>
</g>
<!-- http://example.org/sum -->
<g id="node5" class="node"><title>http://example.org/sum</title>
<g id="a_node5"><a xlink:href="http://example.org/sum" xlink:title="sum">
<ellipse fill="#fffc87" stroke="#808080" cx="71" cy="-649" rx="27" ry="18"/>
<text text-anchor="middle" x="71" y="-645.3" font-family="Times New Roman,serif" font-size="14.00">sum</text>
</a>
</g>
</g>
<!-- http://example.org/v10001 -->
<g id="node7" class="node"><title>http://example.org/v10001</title>
<g id="a_node7"><a xlink:href="http://example.org/v10001" xlink:title="v10001">
<ellipse fill="#32cd32" stroke="#808080" cx="133" cy="-547" rx="37.0935" ry="18"/>
<text text-anchor="middle" x="133" y="-543.3" font-family="Times New Roman,serif" font-size="14.00">v10001</text>
</a>
</g>
</g>
<!-- http://example.org/sum&#45;&gt;http://example.org/v10001 -->
<g id="edge6" class="edge"><title>http://example.org/sum&#45;&gt;http://example.org/v10001</title>
<path fill="none" stroke="darkgreen" d="M66.9026,-631.019C64.5229,-617.129 63.4606,-597.487 72,-583 77.1616,-574.244 85.417,-567.481 94.2082,-562.341"/>
<polygon fill="darkgreen" stroke="darkgreen" points="95.824,-565.446 103.083,-557.729 92.596,-559.235 95.824,-565.446"/>
<text text-anchor="middle" x="93" y="-601.8" font-family="Times New Roman,serif" font-size="14.00">defined</text>
<text text-anchor="middle" x="93" y="-586.8" font-family="Times New Roman,serif" font-size="14.00">T4</text>
</g>
<!-- &#45;attrs2 -->
<g id="node6" class="node"><title>&#45;attrs2</title>
<polygon fill="none" stroke="gray" points="70,-565 0,-565 0,-529 76,-529 76,-559 70,-565"/>
<polyline fill="none" stroke="gray" points="70,-565 70,-559 "/>
<polyline fill="none" stroke="gray" points="76,-559 70,-559 "/>
<text text-anchor="start" x="10" y="-551" font-family="Times New Roman,serif" font-size="10.00">label:</text>
<text text-anchor="start" x="34" y="-551" font-family="Times New Roman,serif" font-size="10.00">&quot;10001&quot;</text>
<text text-anchor="start" x="10" y="-538" font-family="Times New Roman,serif" font-size="10.00">type:</text>
<text text-anchor="start" x="34" y="-538" font-family="Times New Roman,serif" font-size="10.00">&quot;sum&quot;</text>
</g>
<!-- &#45;attrs2&#45;&gt;http://example.org/sum -->
<g id="edge4" class="edge"><title>&#45;attrs2&#45;&gt;http://example.org/sum</title>
<path fill="none" stroke="gray" stroke-dasharray="5,2" d="M40.3345,-565.211C42.4668,-578.536 46.186,-597.304 52,-613 54.4016,-619.484 57.8261,-626.242 61.1079,-632.072"/>
</g>
<!-- http://example.org/v10001&#45;&gt;http://example.org/sum -->
<g id="edge7" class="edge"><title>http://example.org/v10001&#45;&gt;http://example.org/sum</title>
<path fill="none" stroke="darkgreen" d="M130.846,-565.204C128.47,-579.043 123.623,-598.503 114,-613 109.828,-619.285 104.18,-625.003 98.3511,-629.911"/>
<polygon fill="darkgreen" stroke="darkgreen" points="96.1612,-627.18 90.4118,-636.079 100.456,-632.708 96.1612,-627.18"/>
<text text-anchor="middle" x="145.5" y="-601.8" font-family="Times New Roman,serif" font-size="14.00">def by</text>
<text text-anchor="middle" x="145.5" y="-586.8" font-family="Times New Roman,serif" font-size="14.00">T4</text>
</g>
<!-- http://example.org/v10001&#45;&gt;http://example.org/list -->
<g id="edge13" class="edge"><title>http://example.org/v10001&#45;&gt;http://example.org/list</title>
<path fill="none" stroke="darkgreen" stroke-dasharray="5,2" d="M134.33,-528.767C137.089,-495.147 144.182,-418.538 156,-355 156.786,-350.775 157.762,-346.331 158.794,-342.009"/>
<polygon fill="darkgreen" stroke="darkgreen" points="162.188,-342.862 161.238,-332.31 155.4,-341.151 162.188,-342.862"/>
<text text-anchor="middle" x="173.5" y="-436.8" font-family="Times New Roman,serif" font-size="14.00">der&#45;ins&#45;e</text>
<text text-anchor="middle" x="173.5" y="-421.8" font-family="Times New Roman,serif" font-size="14.00">[1]</text>
<text text-anchor="middle" x="173.5" y="-406.8" font-family="Times New Roman,serif" font-size="14.00">T5</text>
</g>
<!-- &#45;attrs3 -->
<g id="node8" class="node"><title>&#45;attrs3</title>
<polygon fill="none" stroke="gray" points="90.5,-443.5 23.5,-443.5 23.5,-407.5 96.5,-407.5 96.5,-437.5 90.5,-443.5"/>
<polyline fill="none" stroke="gray" points="90.5,-443.5 90.5,-437.5 "/>
<polyline fill="none" stroke="gray" points="96.5,-437.5 90.5,-437.5 "/>
<text text-anchor="start" x="34" y="-422.5" font-family="Times New Roman,serif" font-size="10.00">repr:</text>
<text text-anchor="start" x="55" y="-422.5" font-family="Times New Roman,serif" font-size="10.00">&quot;10001&quot;</text>
</g>
<!-- &#45;attrs3&#45;&gt;http://example.org/v10001 -->
<g id="edge5" class="edge"><title>&#45;attrs3&#45;&gt;http://example.org/v10001</title>
<path fill="none" stroke="gray" stroke-dasharray="5,2" d="M70.4591,-443.621C84.4153,-466.467 108.97,-506.663 122.796,-529.296"/>
</g>
<!-- http://example.org/vlist -->
<g id="node11" class="node"><title>http://example.org/vlist</title>
<g id="a_node11"><a xlink:href="http://example.org/vlist" xlink:title="vlist">
<ellipse fill="#32cd32" stroke="#808080" cx="257" cy="-425.5" rx="27" ry="18"/>
<text text-anchor="middle" x="257" y="-421.8" font-family="Times New Roman,serif" font-size="14.00">vlist</text>
</a>
</g>
</g>
<!-- http://example.org/list&#45;&gt;http://example.org/vlist -->
<g id="edge16" class="edge"><title>http://example.org/list&#45;&gt;http://example.org/vlist</title>
<path fill="none" stroke="darkgreen" d="M161.457,-332.433C158.451,-347.51 156.726,-369.515 167,-385 173.656,-395.032 200.322,-406.007 222.915,-413.836"/>
<polygon fill="darkgreen" stroke="darkgreen" points="222.005,-417.223 232.599,-417.092 224.236,-410.588 222.005,-417.223"/>
<text text-anchor="middle" x="188" y="-373.8" font-family="Times New Roman,serif" font-size="14.00">defined</text>
<text text-anchor="middle" x="188" y="-358.8" font-family="Times New Roman,serif" font-size="14.00">T5</text>
</g>
<!-- &#45;attrs4 -->
<g id="node10" class="node"><title>&#45;attrs4</title>
<polygon fill="none" stroke="gray" points="211.5,-211 114.5,-211 114.5,-175 217.5,-175 217.5,-205 211.5,-211"/>
<polyline fill="none" stroke="gray" points="211.5,-211 211.5,-205 "/>
<polyline fill="none" stroke="gray" points="217.5,-205 211.5,-205 "/>
<text text-anchor="start" x="125" y="-197" font-family="Times New Roman,serif" font-size="10.00">label:</text>
<text text-anchor="start" x="149" y="-197" font-family="Times New Roman,serif" font-size="10.00">&quot;[m, m + 1, m]&quot;</text>
<text text-anchor="start" x="125" y="-184" font-family="Times New Roman,serif" font-size="10.00">type:</text>
<text text-anchor="start" x="149" y="-184" font-family="Times New Roman,serif" font-size="10.00">&quot;list&quot;</text>
</g>
<!-- &#45;attrs4&#45;&gt;http://example.org/list -->
<g id="edge8" class="edge"><title>&#45;attrs4&#45;&gt;http://example.org/list</title>
<path fill="none" stroke="gray" stroke-dasharray="5,2" d="M166,-211.121C166,-233.838 166,-273.709 166,-296.41"/>
</g>
<!-- http://example.org/vlist&#45;&gt;http://example.org/v10000 -->
<g id="edge10" class="edge"><title>http://example.org/vlist&#45;&gt;http://example.org/v10000</title>
<path fill="none" stroke="darkgreen" d="M276.394,-412.575C298.779,-397.739 334.95,-370.259 354,-337 378.029,-295.048 383.394,-274.482 367,-229 365.525,-224.908 363.34,-220.955 360.82,-217.271"/>
<polygon fill="darkgreen" stroke="darkgreen" points="363.434,-214.933 354.508,-209.226 357.927,-219.254 363.434,-214.933"/>
<text text-anchor="middle" x="398" y="-325.8" font-family="Times New Roman,serif" font-size="14.00">der&#45;ins&#45;v</text>
<text text-anchor="middle" x="398" y="-310.8" font-family="Times New Roman,serif" font-size="14.00">[0]</text>
<text text-anchor="middle" x="398" y="-295.8" font-family="Times New Roman,serif" font-size="14.00">T5</text>
</g>
<!-- http://example.org/vlist&#45;&gt;http://example.org/v10000 -->
<g id="edge14" class="edge"><title>http://example.org/vlist&#45;&gt;http://example.org/v10000</title>
<path fill="none" stroke="darkgreen" d="M282.73,-420.042C322.115,-411.666 396.033,-389.452 427,-337 453.183,-292.65 420.457,-266.353 385,-229 379.896,-223.623 373.889,-218.471 367.907,-213.851"/>
<polygon fill="darkgreen" stroke="darkgreen" points="369.978,-211.03 359.852,-207.911 365.823,-216.663 369.978,-211.03"/>
<text text-anchor="middle" x="461" y="-325.8" font-family="Times New Roman,serif" font-size="14.00">der&#45;ins&#45;v</text>
<text text-anchor="middle" x="461" y="-310.8" font-family="Times New Roman,serif" font-size="14.00">[2]</text>
<text text-anchor="middle" x="461" y="-295.8" font-family="Times New Roman,serif" font-size="14.00">T5</text>
</g>
<!-- http://example.org/vlist&#45;&gt;http://example.org/v10001 -->
<g id="edge12" class="edge"><title>http://example.org/vlist&#45;&gt;http://example.org/v10001</title>
<path fill="none" stroke="darkgreen" d="M242.289,-440.677C221.01,-461.184 181.435,-499.323 156.199,-523.643"/>
<polygon fill="darkgreen" stroke="darkgreen" points="153.636,-521.252 148.864,-530.712 158.493,-526.293 153.636,-521.252"/>
<text text-anchor="middle" x="239" y="-499.8" font-family="Times New Roman,serif" font-size="14.00">der&#45;ins&#45;v</text>
<text text-anchor="middle" x="239" y="-484.8" font-family="Times New Roman,serif" font-size="14.00">[1]</text>
<text text-anchor="middle" x="239" y="-469.8" font-family="Times New Roman,serif" font-size="14.00">T5</text>
</g>
<!-- http://example.org/vlist&#45;&gt;http://example.org/list -->
<g id="edge17" class="edge"><title>http://example.org/vlist&#45;&gt;http://example.org/list</title>
<path fill="none" stroke="darkgreen" d="M245.177,-408.916C239.816,-401.719 233.468,-393.01 228,-385 219.102,-371.965 219.121,-367.11 209,-355 203.424,-348.328 196.756,-341.692 190.355,-335.818"/>
<polygon fill="darkgreen" stroke="darkgreen" points="192.294,-332.859 182.492,-328.838 187.647,-338.094 192.294,-332.859"/>
<text text-anchor="middle" x="246.5" y="-373.8" font-family="Times New Roman,serif" font-size="14.00">def by</text>
<text text-anchor="middle" x="246.5" y="-358.8" font-family="Times New Roman,serif" font-size="14.00">T5</text>
</g>
<!-- &#45;attrs5 -->
<g id="node12" class="node"><title>&#45;attrs5</title>
<polygon fill="none" stroke="gray" points="338.5,-332.5 211.5,-332.5 211.5,-296.5 344.5,-296.5 344.5,-326.5 338.5,-332.5"/>
<polyline fill="none" stroke="gray" points="338.5,-332.5 338.5,-326.5 "/>
<polyline fill="none" stroke="gray" points="344.5,-326.5 338.5,-326.5 "/>
<text text-anchor="start" x="222" y="-311.5" font-family="Times New Roman,serif" font-size="10.00">repr:</text>
<text text-anchor="start" x="243" y="-311.5" font-family="Times New Roman,serif" font-size="10.00">&quot;[10000, 10001, 10000]&quot;</text>
</g>
<!-- &#45;attrs5&#45;&gt;http://example.org/vlist -->
<g id="edge9" class="edge"><title>&#45;attrs5&#45;&gt;http://example.org/vlist</title>
<path fill="none" stroke="gray" stroke-dasharray="5,2" d="M276.568,-332.772C275.203,-346.918 272.786,-367.396 269,-385 267.372,-392.567 264.982,-400.78 262.763,-407.747"/>
</g>
</g>
</svg>
