<?xml version="1.0" encoding="UTF-8" standalone="no"?>
<!DOCTYPE svg PUBLIC "-//W3C//DTD SVG 1.1//EN"
 "http://www.w3.org/Graphics/SVG/1.1/DTD/svg11.dtd">
<!-- Generated by graphviz version 2.38.0 (20140413.2041)
 -->
<!-- Title: PROV Pages: 1 -->
<svg width="1152pt" height="136pt"
 viewBox="0.00 0.00 1152.00 135.82" xmlns="http://www.w3.org/2000/svg" xmlns:xlink="http://www.w3.org/1999/xlink">
<g id="graph0" class="graph" transform="scale(0.620188 0.620188) rotate(0) translate(4 215)">
<title>PROV</title>
<polygon fill="white" stroke="none" points="-4,4 -4,-215 1853.5,-215 1853.5,4 -4,4"/>
<!-- http://example.org/1 -->
<g id="node1" class="node"><title>http://example.org/1</title>
<g id="a_node1"><a xlink:href="http://example.org/1" xlink:title="1">
<ellipse fill="#fffc87" stroke="#808080" cx="151.5" cy="-91" rx="27" ry="18"/>
<text text-anchor="middle" x="151.5" y="-87.3" font-family="Times New Roman,serif" font-size="14.00">1</text>
</a>
</g>
</g>
<!-- http://example.org/v1 -->
<g id="node3" class="node"><title>http://example.org/v1</title>
<g id="a_node3"><a xlink:href="http://example.org/v1" xlink:title="v1">
<ellipse fill="#32cd32" stroke="#808080" cx="60.5" cy="-193" rx="27" ry="18"/>
<text text-anchor="middle" x="60.5" y="-189.3" font-family="Times New Roman,serif" font-size="14.00">v1</text>
</a>
</g>
</g>
<!-- http://example.org/1&#45;&gt;http://example.org/v1 -->
<g id="edge3" class="edge"><title>http://example.org/1&#45;&gt;http://example.org/v1</title>
<path fill="none" stroke="darkgreen" d="M124.949,-94.4837C103.91,-97.9998 75.7618,-106.492 61.5,-127 53.8986,-137.931 53.0905,-152.59 54.429,-165.221"/>
<polygon fill="darkgreen" stroke="darkgreen" points="50.9874,-165.869 55.9562,-175.227 57.9072,-164.813 50.9874,-165.869"/>
<text text-anchor="middle" x="121" y="-145.8" font-family="Times New Roman,serif" font-size="14.00">defined</text>
<text text-anchor="middle" x="121" y="-130.8" font-family="Times New Roman,serif" font-size="14.00">2018&#45;02&#45;22T16:00:00</text>
</g>
<!-- &#45;attrs0 -->
<g id="node2" class="node"><title>&#45;attrs0</title>
<polygon fill="none" stroke="gray" points="183,-36 114,-36 114,-0 189,-0 189,-30 183,-36"/>
<polyline fill="none" stroke="gray" points="183,-36 183,-30 "/>
<polyline fill="none" stroke="gray" points="189,-30 183,-30 "/>
<text text-anchor="start" x="124.5" y="-22" font-family="Times New Roman,serif" font-size="10.00">label:</text>
<text text-anchor="start" x="148.5" y="-22" font-family="Times New Roman,serif" font-size="10.00">&quot;1&quot;</text>
<text text-anchor="start" x="124.5" y="-9" font-family="Times New Roman,serif" font-size="10.00">type:</text>
<text text-anchor="start" x="148.5" y="-9" font-family="Times New Roman,serif" font-size="10.00">&quot;literal&quot;</text>
</g>
<!-- &#45;attrs0&#45;&gt;http://example.org/1 -->
<g id="edge1" class="edge"><title>&#45;attrs0&#45;&gt;http://example.org/1</title>
<path fill="none" stroke="gray" stroke-dasharray="5,2" d="M151.5,-36.1871C151.5,-47.3501 151.5,-61.8398 151.5,-72.9712"/>
</g>
<!-- http://example.org/v1&#45;&gt;http://example.org/1 -->
<g id="edge4" class="edge"><title>http://example.org/v1&#45;&gt;http://example.org/1</title>
<path fill="none" stroke="darkgreen" d="M87.5812,-192.72C115.904,-191.828 159.146,-185.472 180.5,-157 190.109,-144.187 182.555,-127.687 172.754,-114.518"/>
<polygon fill="darkgreen" stroke="darkgreen" points="175.179,-111.954 166.146,-106.417 169.754,-116.378 175.179,-111.954"/>
<text text-anchor="middle" x="245" y="-145.8" font-family="Times New Roman,serif" font-size="14.00">def by</text>
<text text-anchor="middle" x="245" y="-130.8" font-family="Times New Roman,serif" font-size="14.00">2018&#45;02&#45;22T16:00:00</text>
</g>
<!-- &#45;attrs1 -->
<g id="node4" class="node"><title>&#45;attrs1</title>
<polygon fill="none" stroke="gray" points="49,-109 0,-109 0,-73 55,-73 55,-103 49,-109"/>
<polyline fill="none" stroke="gray" points="49,-109 49,-103 "/>
<polyline fill="none" stroke="gray" points="55,-103 49,-103 "/>
<text text-anchor="start" x="10.5" y="-88" font-family="Times New Roman,serif" font-size="10.00">repr:</text>
<text text-anchor="start" x="31.5" y="-88" font-family="Times New Roman,serif" font-size="10.00">&quot;1&quot;</text>
</g>
<!-- &#45;attrs1&#45;&gt;http://example.org/v1 -->
<g id="edge2" class="edge"><title>&#45;attrs1&#45;&gt;http://example.org/v1</title>
<path fill="none" stroke="gray" stroke-dasharray="5,2" d="M29.8345,-109.211C31.9668,-122.536 35.686,-141.304 41.5,-157 43.9016,-163.484 47.3261,-170.242 50.6079,-176.072"/>
</g>
<!-- http://example.org/a -->
<g id="node5" class="node"><title>http://example.org/a</title>
<g id="a_node5"><a xlink:href="http://example.org/a" xlink:title="a">
<ellipse fill="#fffc87" stroke="#808080" cx="461.5" cy="-91" rx="27" ry="18"/>
<text text-anchor="middle" x="461.5" y="-87.3" font-family="Times New Roman,serif" font-size="14.00">a</text>
</a>
</g>
</g>
<!-- http://example.org/va -->
<g id="node7" class="node"><title>http://example.org/va</title>
<g id="a_node7"><a xlink:href="http://example.org/va" xlink:title="va">
<ellipse fill="#32cd32" stroke="#808080" cx="369.5" cy="-193" rx="27" ry="18"/>
<text text-anchor="middle" x="369.5" y="-189.3" font-family="Times New Roman,serif" font-size="14.00">va</text>
</a>
</g>
</g>
<!-- http://example.org/a&#45;&gt;http://example.org/va -->
<g id="edge7" class="edge"><title>http://example.org/a&#45;&gt;http://example.org/va</title>
<path fill="none" stroke="darkgreen" d="M434.664,-94.394C413.396,-97.8566 384.938,-106.32 370.5,-127 362.878,-137.917 362.069,-152.575 363.411,-165.208"/>
<polygon fill="darkgreen" stroke="darkgreen" points="359.97,-165.862 364.943,-175.218 366.89,-164.803 359.97,-165.862"/>
<text text-anchor="middle" x="430" y="-145.8" font-family="Times New Roman,serif" font-size="14.00">defined</text>
<text text-anchor="middle" x="430" y="-130.8" font-family="Times New Roman,serif" font-size="14.00">2018&#45;02&#45;22T16:00:01</text>
</g>
<!-- &#45;attrs2 -->
<g id="node6" class="node"><title>&#45;attrs2</title>
<polygon fill="none" stroke="gray" points="493,-36 424,-36 424,-0 499,-0 499,-30 493,-36"/>
<polyline fill="none" stroke="gray" points="493,-36 493,-30 "/>
<polyline fill="none" stroke="gray" points="499,-30 493,-30 "/>
<text text-anchor="start" x="434.5" y="-22" font-family="Times New Roman,serif" font-size="10.00">label:</text>
<text text-anchor="start" x="458.5" y="-22" font-family="Times New Roman,serif" font-size="10.00">&quot;&#39;a&#39;&quot;</text>
<text text-anchor="start" x="434.5" y="-9" font-family="Times New Roman,serif" font-size="10.00">type:</text>
<text text-anchor="start" x="458.5" y="-9" font-family="Times New Roman,serif" font-size="10.00">&quot;literal&quot;</text>
</g>
<!-- &#45;attrs2&#45;&gt;http://example.org/a -->
<g id="edge5" class="edge"><title>&#45;attrs2&#45;&gt;http://example.org/a</title>
<path fill="none" stroke="gray" stroke-dasharray="5,2" d="M461.5,-36.1871C461.5,-47.3501 461.5,-61.8398 461.5,-72.9712"/>
</g>
<!-- http://example.org/va&#45;&gt;http://example.org/a -->
<g id="edge8" class="edge"><title>http://example.org/va&#45;&gt;http://example.org/a</title>
<path fill="none" stroke="darkgreen" d="M396.581,-192.72C424.904,-191.828 468.146,-185.472 489.5,-157 499.055,-144.26 491.758,-127.759 482.223,-114.571"/>
<polygon fill="darkgreen" stroke="darkgreen" points="484.745,-112.117 475.789,-106.455 479.259,-116.466 484.745,-112.117"/>
<text text-anchor="middle" x="554" y="-145.8" font-family="Times New Roman,serif" font-size="14.00">def by</text>
<text text-anchor="middle" x="554" y="-130.8" font-family="Times New Roman,serif" font-size="14.00">2018&#45;02&#45;22T16:00:01</text>
</g>
<!-- &#45;attrs3 -->
<g id="node8" class="node"><title>&#45;attrs3</title>
<polygon fill="none" stroke="gray" points="359.5,-109 307.5,-109 307.5,-73 365.5,-73 365.5,-103 359.5,-109"/>
<polyline fill="none" stroke="gray" points="359.5,-109 359.5,-103 "/>
<polyline fill="none" stroke="gray" points="365.5,-103 359.5,-103 "/>
<text text-anchor="start" x="317.5" y="-88" font-family="Times New Roman,serif" font-size="10.00">repr:</text>
<text text-anchor="start" x="338.5" y="-88" font-family="Times New Roman,serif" font-size="10.00">&quot;&#39;a&#39;&quot;</text>
</g>
<!-- &#45;attrs3&#45;&gt;http://example.org/va -->
<g id="edge6" class="edge"><title>&#45;attrs3&#45;&gt;http://example.org/va</title>
<path fill="none" stroke="gray" stroke-dasharray="5,2" d="M338.835,-109.211C340.967,-122.536 344.686,-141.304 350.5,-157 352.902,-163.484 356.326,-170.242 359.608,-176.072"/>
</g>
<!-- http://example.org/a#2 -->
<g id="node9" class="node"><title>http://example.org/a#2</title>
<g id="a_node9"><a xlink:href="http://example.org/a#2" xlink:title="a#2">
<ellipse fill="#fffc87" stroke="#808080" cx="771.5" cy="-91" rx="27" ry="18"/>
<text text-anchor="middle" x="771.5" y="-87.3" font-family="Times New Roman,serif" font-size="14.00">a#2</text>
</a>
</g>
</g>
<!-- http://example.org/vba -->
<g id="node11" class="node"><title>http://example.org/vba</title>
<g id="a_node11"><a xlink:href="http://example.org/vba" xlink:title="vba">
<ellipse fill="#32cd32" stroke="#808080" cx="678.5" cy="-193" rx="27" ry="18"/>
<text text-anchor="middle" x="678.5" y="-189.3" font-family="Times New Roman,serif" font-size="14.00">vba</text>
</a>
</g>
</g>
<!-- http://example.org/a#2&#45;&gt;http://example.org/vba -->
<g id="edge11" class="edge"><title>http://example.org/a#2&#45;&gt;http://example.org/vba</title>
<path fill="none" stroke="darkgreen" d="M744.81,-94.2361C723.269,-97.6006 694.212,-106.009 679.5,-127 671.858,-137.903 671.047,-152.56 672.394,-165.196"/>
<polygon fill="darkgreen" stroke="darkgreen" points="668.954,-165.855 673.93,-175.209 675.873,-164.793 668.954,-165.855"/>
<text text-anchor="middle" x="739" y="-145.8" font-family="Times New Roman,serif" font-size="14.00">defined</text>
<text text-anchor="middle" x="739" y="-130.8" font-family="Times New Roman,serif" font-size="14.00">2018&#45;02&#45;22T16:00:02</text>
</g>
<!-- &#45;attrs4 -->
<g id="node10" class="node"><title>&#45;attrs4</title>
<polygon fill="none" stroke="gray" points="803,-36 734,-36 734,-0 809,-0 809,-30 803,-36"/>
<polyline fill="none" stroke="gray" points="803,-36 803,-30 "/>
<polyline fill="none" stroke="gray" points="809,-30 803,-30 "/>
<text text-anchor="start" x="744.5" y="-22" font-family="Times New Roman,serif" font-size="10.00">label:</text>
<text text-anchor="start" x="768.5" y="-22" font-family="Times New Roman,serif" font-size="10.00">&quot;b&#39;a&#39;&quot;</text>
<text text-anchor="start" x="744.5" y="-9" font-family="Times New Roman,serif" font-size="10.00">type:</text>
<text text-anchor="start" x="768.5" y="-9" font-family="Times New Roman,serif" font-size="10.00">&quot;literal&quot;</text>
</g>
<!-- &#45;attrs4&#45;&gt;http://example.org/a#2 -->
<g id="edge9" class="edge"><title>&#45;attrs4&#45;&gt;http://example.org/a#2</title>
<path fill="none" stroke="gray" stroke-dasharray="5,2" d="M771.5,-36.1871C771.5,-47.3501 771.5,-61.8398 771.5,-72.9712"/>
</g>
<!-- http://example.org/vba&#45;&gt;http://example.org/a#2 -->
<g id="edge12" class="edge"><title>http://example.org/vba&#45;&gt;http://example.org/a#2</title>
<path fill="none" stroke="darkgreen" d="M705.581,-192.72C733.904,-191.828 777.146,-185.472 798.5,-157 808.003,-144.33 800.962,-127.828 791.694,-114.622"/>
<polygon fill="darkgreen" stroke="darkgreen" points="794.308,-112.28 785.434,-106.493 788.763,-116.551 794.308,-112.28"/>
<text text-anchor="middle" x="863" y="-145.8" font-family="Times New Roman,serif" font-size="14.00">def by</text>
<text text-anchor="middle" x="863" y="-130.8" font-family="Times New Roman,serif" font-size="14.00">2018&#45;02&#45;22T16:00:02</text>
</g>
<!-- &#45;attrs5 -->
<g id="node12" class="node"><title>&#45;attrs5</title>
<polygon fill="none" stroke="gray" points="671,-109 614,-109 614,-73 677,-73 677,-103 671,-109"/>
<polyline fill="none" stroke="gray" points="671,-109 671,-103 "/>
<polyline fill="none" stroke="gray" points="677,-103 671,-103 "/>
<text text-anchor="start" x="624.5" y="-88" font-family="Times New Roman,serif" font-size="10.00">repr:</text>
<text text-anchor="start" x="645.5" y="-88" font-family="Times New Roman,serif" font-size="10.00">&quot;b&#39;a&#39;&quot;</text>
</g>
<!-- &#45;attrs5&#45;&gt;http://example.org/vba -->
<g id="edge10" class="edge"><title>&#45;attrs5&#45;&gt;http://example.org/vba</title>
<path fill="none" stroke="gray" stroke-dasharray="5,2" d="M647.835,-109.211C649.967,-122.536 653.686,-141.304 659.5,-157 661.902,-163.484 665.326,-170.242 668.608,-176.072"/>
</g>
<!-- http://example.org/True -->
<g id="node13" class="node"><title>http://example.org/True</title>
<g id="a_node13"><a xlink:href="http://example.org/True" xlink:title="True">
<ellipse fill="#fffc87" stroke="#808080" cx="1082.5" cy="-91" rx="27.8951" ry="18"/>
<text text-anchor="middle" x="1082.5" y="-87.3" font-family="Times New Roman,serif" font-size="14.00">True</text>
</a>
</g>
</g>
<!-- http://example.org/vtrue -->
<g id="node15" class="node"><title>http://example.org/vtrue</title>
<g id="a_node15"><a xlink:href="http://example.org/vtrue" xlink:title="vtrue">
<ellipse fill="#32cd32" stroke="#808080" cx="987.5" cy="-193" rx="28.6953" ry="18"/>
<text text-anchor="middle" x="987.5" y="-189.3" font-family="Times New Roman,serif" font-size="14.00">vtrue</text>
</a>
</g>
</g>
<!-- http://example.org/True&#45;&gt;http://example.org/vtrue -->
<g id="edge15" class="edge"><title>http://example.org/True&#45;&gt;http://example.org/vtrue</title>
<path fill="none" stroke="darkgreen" d="M1054.81,-94.124C1032.86,-97.426 1003.47,-105.805 988.5,-127 980.82,-137.876 980.006,-152.531 981.36,-165.173"/>
<polygon fill="darkgreen" stroke="darkgreen" points="977.922,-165.841 982.905,-175.191 984.84,-164.774 977.922,-165.841"/>
<text text-anchor="middle" x="1048" y="-145.8" font-family="Times New Roman,serif" font-size="14.00">defined</text>
<text text-anchor="middle" x="1048" y="-130.8" font-family="Times New Roman,serif" font-size="14.00">2018&#45;02&#45;22T16:00:03</text>
</g>
<!-- &#45;attrs6 -->
<g id="node14" class="node"><title>&#45;attrs6</title>
<polygon fill="none" stroke="gray" points="1121,-36 1038,-36 1038,-0 1127,-0 1127,-30 1121,-36"/>
<polyline fill="none" stroke="gray" points="1121,-36 1121,-30 "/>
<polyline fill="none" stroke="gray" points="1127,-30 1121,-30 "/>
<text text-anchor="start" x="1048.5" y="-22" font-family="Times New Roman,serif" font-size="10.00">label:</text>
<text text-anchor="start" x="1072.5" y="-22" font-family="Times New Roman,serif" font-size="10.00">&quot;True&quot;</text>
<text text-anchor="start" x="1048.5" y="-9" font-family="Times New Roman,serif" font-size="10.00">type:</text>
<text text-anchor="start" x="1072.5" y="-9" font-family="Times New Roman,serif" font-size="10.00">&quot;constant&quot;</text>
</g>
<!-- &#45;attrs6&#45;&gt;http://example.org/True -->
<g id="edge13" class="edge"><title>&#45;attrs6&#45;&gt;http://example.org/True</title>
<path fill="none" stroke="gray" stroke-dasharray="5,2" d="M1082.5,-36.1871C1082.5,-47.3501 1082.5,-61.8398 1082.5,-72.9712"/>
</g>
<!-- http://example.org/vtrue&#45;&gt;http://example.org/True -->
<g id="edge16" class="edge"><title>http://example.org/vtrue&#45;&gt;http://example.org/True</title>
<path fill="none" stroke="darkgreen" d="M1016.15,-192.665C1044.48,-191.588 1086.54,-184.951 1107.5,-157 1116.84,-144.543 1110.46,-128.169 1101.81,-114.971"/>
<polygon fill="darkgreen" stroke="darkgreen" points="1104.62,-112.894 1095.93,-106.831 1098.95,-116.989 1104.62,-112.894"/>
<text text-anchor="middle" x="1172" y="-145.8" font-family="Times New Roman,serif" font-size="14.00">def by</text>
<text text-anchor="middle" x="1172" y="-130.8" font-family="Times New Roman,serif" font-size="14.00">2018&#45;02&#45;22T16:00:03</text>
</g>
<!-- &#45;attrs7 -->
<g id="node16" class="node"><title>&#45;attrs7</title>
<polygon fill="none" stroke="gray" points="983,-109 920,-109 920,-73 989,-73 989,-103 983,-109"/>
<polyline fill="none" stroke="gray" points="983,-109 983,-103 "/>
<polyline fill="none" stroke="gray" points="989,-103 983,-103 "/>
<text text-anchor="start" x="930.5" y="-88" font-family="Times New Roman,serif" font-size="10.00">repr:</text>
<text text-anchor="start" x="951.5" y="-88" font-family="Times New Roman,serif" font-size="10.00">&quot;True&quot;</text>
</g>
<!-- &#45;attrs7&#45;&gt;http://example.org/vtrue -->
<g id="edge14" class="edge"><title>&#45;attrs7&#45;&gt;http://example.org/vtrue</title>
<path fill="none" stroke="gray" stroke-dasharray="5,2" d="M956.835,-109.211C958.967,-122.536 962.686,-141.304 968.5,-157 970.902,-163.484 974.326,-170.242 977.608,-176.072"/>
</g>
<!-- http://example.org/int -->
<g id="node17" class="node"><title>http://example.org/int</title>
<g id="a_node17"><a xlink:href="http://example.org/int" xlink:title="int">
<ellipse fill="#fffc87" stroke="#808080" cx="1398.5" cy="-91" rx="27" ry="18"/>
<text text-anchor="middle" x="1398.5" y="-87.3" font-family="Times New Roman,serif" font-size="14.00">int</text>
</a>
</g>
</g>
<!-- http://example.org/vint -->
<g id="node19" class="node"><title>http://example.org/vint</title>
<g id="a_node19"><a xlink:href="http://example.org/vint" xlink:title="vint">
<ellipse fill="#32cd32" stroke="#808080" cx="1296.5" cy="-193" rx="27" ry="18"/>
<text text-anchor="middle" x="1296.5" y="-189.3" font-family="Times New Roman,serif" font-size="14.00">vint</text>
</a>
</g>
</g>
<!-- http://example.org/int&#45;&gt;http://example.org/vint -->
<g id="edge19" class="edge"><title>http://example.org/int&#45;&gt;http://example.org/vint</title>
<path fill="none" stroke="darkgreen" d="M1373.18,-97.3087C1346.32,-103.509 1306.53,-114.521 1297.5,-127 1289.7,-137.787 1288.87,-152.435 1290.25,-165.095"/>
<polygon fill="darkgreen" stroke="darkgreen" points="1286.82,-165.796 1291.83,-175.134 1293.73,-164.713 1286.82,-165.796"/>
<text text-anchor="middle" x="1357" y="-145.8" font-family="Times New Roman,serif" font-size="14.00">defined</text>
<text text-anchor="middle" x="1357" y="-130.8" font-family="Times New Roman,serif" font-size="14.00">2018&#45;02&#45;22T16:00:04</text>
</g>
<!-- &#45;attrs8 -->
<g id="node18" class="node"><title>&#45;attrs8</title>
<polygon fill="none" stroke="gray" points="1430,-36 1361,-36 1361,-0 1436,-0 1436,-30 1430,-36"/>
<polyline fill="none" stroke="gray" points="1430,-36 1430,-30 "/>
<polyline fill="none" stroke="gray" points="1436,-30 1430,-30 "/>
<text text-anchor="start" x="1371.5" y="-22" font-family="Times New Roman,serif" font-size="10.00">label:</text>
<text text-anchor="start" x="1395.5" y="-22" font-family="Times New Roman,serif" font-size="10.00">&quot;int&quot;</text>
<text text-anchor="start" x="1371.5" y="-9" font-family="Times New Roman,serif" font-size="10.00">type:</text>
<text text-anchor="start" x="1395.5" y="-9" font-family="Times New Roman,serif" font-size="10.00">&quot;name&quot;</text>
</g>
<!-- &#45;attrs8&#45;&gt;http://example.org/int -->
<g id="edge17" class="edge"><title>&#45;attrs8&#45;&gt;http://example.org/int</title>
<path fill="none" stroke="gray" stroke-dasharray="5,2" d="M1398.5,-36.1871C1398.5,-47.3501 1398.5,-61.8398 1398.5,-72.9712"/>
</g>
<!-- http://example.org/vint&#45;&gt;http://example.org/int -->
<g id="edge20" class="edge"><title>http://example.org/vint&#45;&gt;http://example.org/int</title>
<path fill="none" stroke="darkgreen" d="M1323.58,-192.72C1351.9,-191.828 1395.15,-185.472 1416.5,-157 1425.26,-145.316 1421.21,-129.588 1414.76,-116.53"/>
<polygon fill="darkgreen" stroke="darkgreen" points="1417.7,-114.623 1409.78,-107.589 1411.59,-118.029 1417.7,-114.623"/>
<text text-anchor="middle" x="1482" y="-145.8" font-family="Times New Roman,serif" font-size="14.00">def by</text>
<text text-anchor="middle" x="1482" y="-130.8" font-family="Times New Roman,serif" font-size="14.00">2018&#45;02&#45;22T16:00:04</text>
</g>
<!-- &#45;attrs9 -->
<g id="node20" class="node"><title>&#45;attrs9</title>
<polygon fill="none" stroke="gray" points="1306,-109 1215,-109 1215,-73 1312,-73 1312,-103 1306,-109"/>
<polyline fill="none" stroke="gray" points="1306,-109 1306,-103 "/>
<polyline fill="none" stroke="gray" points="1312,-103 1306,-103 "/>
<text text-anchor="start" x="1225.5" y="-88" font-family="Times New Roman,serif" font-size="10.00">repr:</text>
<text text-anchor="start" x="1246.5" y="-88" font-family="Times New Roman,serif" font-size="10.00">&quot;&lt;class &#39;int&#39;&gt;&quot;</text>
</g>
<!-- &#45;attrs9&#45;&gt;http://example.org/vint -->
<g id="edge18" class="edge"><title>&#45;attrs9&#45;&gt;http://example.org/vint</title>
<path fill="none" stroke="gray" stroke-dasharray="5,2" d="M1265.83,-109.211C1267.97,-122.536 1271.69,-141.304 1277.5,-157 1279.9,-163.484 1283.33,-170.242 1286.61,-176.072"/>
</g>
<!-- http://example.org/ellipsis -->
<g id="node21" class="node"><title>http://example.org/ellipsis</title>
<g id="a_node21"><a xlink:href="http://example.org/ellipsis" xlink:title="ellipsis">
<ellipse fill="#fffc87" stroke="#808080" cx="1706.5" cy="-91" rx="35.194" ry="18"/>
<text text-anchor="middle" x="1706.5" y="-87.3" font-family="Times New Roman,serif" font-size="14.00">ellipsis</text>
</a>
</g>
</g>
<!-- http://example.org/vellipsis -->
<g id="node23" class="node"><title>http://example.org/vellipsis</title>
<g id="a_node23"><a xlink:href="http://example.org/vellipsis" xlink:title="vellipsis">
<ellipse fill="#32cd32" stroke="#808080" cx="1605.5" cy="-193" rx="39.7935" ry="18"/>
<text text-anchor="middle" x="1605.5" y="-189.3" font-family="Times New Roman,serif" font-size="14.00">vellipsis</text>
</a>
</g>
</g>
<!-- http://example.org/ellipsis&#45;&gt;http://example.org/vellipsis -->
<g id="edge23" class="edge"><title>http://example.org/ellipsis&#45;&gt;http://example.org/vellipsis</title>
<path fill="none" stroke="darkgreen" d="M1671.81,-94.3304C1649.25,-97.8492 1621.35,-106.411 1606.5,-127 1598.76,-137.728 1597.9,-152.254 1599.24,-164.854"/>
<polygon fill="darkgreen" stroke="darkgreen" points="1595.8,-165.508 1600.78,-174.859 1602.72,-164.443 1595.8,-165.508"/>
<text text-anchor="middle" x="1666" y="-145.8" font-family="Times New Roman,serif" font-size="14.00">defined</text>
<text text-anchor="middle" x="1666" y="-130.8" font-family="Times New Roman,serif" font-size="14.00">2018&#45;02&#45;22T16:00:05</text>
</g>
<!-- &#45;attrs10 -->
<g id="node22" class="node"><title>&#45;attrs10</title>
<polygon fill="none" stroke="gray" points="1745,-36 1662,-36 1662,-0 1751,-0 1751,-30 1745,-36"/>
<polyline fill="none" stroke="gray" points="1745,-36 1745,-30 "/>
<polyline fill="none" stroke="gray" points="1751,-30 1745,-30 "/>
<text text-anchor="start" x="1672.5" y="-22" font-family="Times New Roman,serif" font-size="10.00">label:</text>
<text text-anchor="start" x="1696.5" y="-22" font-family="Times New Roman,serif" font-size="10.00">&quot;...&quot;</text>
<text text-anchor="start" x="1672.5" y="-9" font-family="Times New Roman,serif" font-size="10.00">type:</text>
<text text-anchor="start" x="1696.5" y="-9" font-family="Times New Roman,serif" font-size="10.00">&quot;constant&quot;</text>
</g>
<!-- &#45;attrs10&#45;&gt;http://example.org/ellipsis -->
<g id="edge21" class="edge"><title>&#45;attrs10&#45;&gt;http://example.org/ellipsis</title>
<path fill="none" stroke="gray" stroke-dasharray="5,2" d="M1706.5,-36.1871C1706.5,-47.3501 1706.5,-61.8398 1706.5,-72.9712"/>
</g>
<!-- http://example.org/vellipsis&#45;&gt;http://example.org/ellipsis -->
<g id="edge24" class="edge"><title>http://example.org/vellipsis&#45;&gt;http://example.org/ellipsis</title>
<path fill="none" stroke="darkgreen" d="M1645.28,-191.976C1672.6,-189.611 1707.14,-181.479 1725.5,-157 1734.18,-145.42 1730.12,-129.945 1723.56,-116.999"/>
<polygon fill="darkgreen" stroke="darkgreen" points="1726.49,-115.063 1718.49,-108.111 1720.41,-118.531 1726.49,-115.063"/>
<text text-anchor="middle" x="1790" y="-145.8" font-family="Times New Roman,serif" font-size="14.00">def by</text>
<text text-anchor="middle" x="1790" y="-130.8" font-family="Times New Roman,serif" font-size="14.00">2018&#45;02&#45;22T16:00:05</text>
</g>
<!-- &#45;attrs11 -->
<g id="node24" class="node"><title>&#45;attrs11</title>
<polygon fill="none" stroke="gray" points="1606,-109 1533,-109 1533,-73 1612,-73 1612,-103 1606,-109"/>
<polyline fill="none" stroke="gray" points="1606,-109 1606,-103 "/>
<polyline fill="none" stroke="gray" points="1612,-103 1606,-103 "/>
<text text-anchor="start" x="1543.5" y="-88" font-family="Times New Roman,serif" font-size="10.00">repr:</text>
<text text-anchor="start" x="1564.5" y="-88" font-family="Times New Roman,serif" font-size="10.00">&quot;Ellipsis&quot;</text>
</g>
<!-- &#45;attrs11&#45;&gt;http://example.org/vellipsis -->
<g id="edge22" class="edge"><title>&#45;attrs11&#45;&gt;http://example.org/vellipsis</title>
<path fill="none" stroke="gray" stroke-dasharray="5,2" d="M1574.83,-109.211C1576.97,-122.536 1580.69,-141.304 1586.5,-157 1588.81,-163.224 1592.05,-169.702 1595.21,-175.368"/>
</g>
</g>
</svg>
