<?xml version="1.0" encoding="UTF-8" standalone="no"?>
<!DOCTYPE svg PUBLIC "-//W3C//DTD SVG 1.1//EN"
 "http://www.w3.org/Graphics/SVG/1.1/DTD/svg11.dtd">
<!-- Generated by graphviz version 2.38.0 (20140413.2041)
 -->
<!-- Title: PROV Pages: 1 -->
<svg width="1152pt" height="136pt"
 viewBox="0.00 0.00 1152.00 135.86" xmlns="http://www.w3.org/2000/svg" xmlns:xlink="http://www.w3.org/1999/xlink">
<g id="graph0" class="graph" transform="scale(0.620355 0.620355) rotate(0) translate(4 215)">
<title>PROV</title>
<polygon fill="white" stroke="none" points="-4,4 -4,-215 1853,-215 1853,4 -4,4"/>
<!-- http://example.org/1 -->
<g id="node1" class="node"><title>http://example.org/1</title>
<g id="a_node1"><a xlink:href="http://example.org/1" xlink:title="1">
<ellipse fill="#fffc87" stroke="#808080" cx="151" cy="-91" rx="27" ry="18"/>
<text text-anchor="middle" x="151" y="-87.3" font-family="Times New Roman,serif" font-size="14.00">1</text>
</a>
</g>
</g>
<!-- http://example.org/v1 -->
<g id="node3" class="node"><title>http://example.org/v1</title>
<g id="a_node3"><a xlink:href="http://example.org/v1" xlink:title="v1">
<ellipse fill="#32cd32" stroke="#808080" cx="60" cy="-193" rx="27" ry="18"/>
<text text-anchor="middle" x="60" y="-189.3" font-family="Times New Roman,serif" font-size="14.00">v1</text>
</a>
</g>
</g>
<!-- http://example.org/1&#45;&gt;http://example.org/v1 -->
<g id="edge3" class="edge"><title>http://example.org/1&#45;&gt;http://example.org/v1</title>
<path fill="none" stroke="darkgreen" d="M124.449,-94.4837C103.41,-97.9998 75.2618,-106.492 61,-127 53.3986,-137.931 52.5905,-152.59 53.929,-165.221"/>
<polygon fill="darkgreen" stroke="darkgreen" points="50.4874,-165.869 55.4562,-175.227 57.4072,-164.813 50.4874,-165.869"/>
<text text-anchor="middle" x="120.5" y="-145.8" font-family="Times New Roman,serif" font-size="14.00">defined</text>
<text text-anchor="middle" x="120.5" y="-130.8" font-family="Times New Roman,serif" font-size="14.00">2018&#45;02&#45;22T16:00:00</text>
</g>
<!-- &#45;attrs0 -->
<g id="node2" class="node"><title>&#45;attrs0</title>
<polygon fill="none" stroke="gray" points="190.5,-36 105.5,-36 105.5,-0 196.5,-0 196.5,-30 190.5,-36"/>
<polyline fill="none" stroke="gray" points="190.5,-36 190.5,-30 "/>
<polyline fill="none" stroke="gray" points="196.5,-30 190.5,-30 "/>
<text text-anchor="start" x="116" y="-22" font-family="Times New Roman,serif" font-size="10.00">label:</text>
<text text-anchor="start" x="140" y="-22" font-family="Times New Roman,serif" font-size="10.00">1</text>
<text text-anchor="start" x="116" y="-9" font-family="Times New Roman,serif" font-size="10.00">type:</text>
<text text-anchor="start" x="140" y="-9" font-family="Times New Roman,serif" font-size="10.00">script:literal</text>
</g>
<!-- &#45;attrs0&#45;&gt;http://example.org/1 -->
<g id="edge1" class="edge"><title>&#45;attrs0&#45;&gt;http://example.org/1</title>
<path fill="none" stroke="gray" stroke-dasharray="5,2" d="M151,-36.1871C151,-47.3501 151,-61.8398 151,-72.9712"/>
</g>
<!-- http://example.org/v1&#45;&gt;http://example.org/1 -->
<g id="edge4" class="edge"><title>http://example.org/v1&#45;&gt;http://example.org/1</title>
<path fill="none" stroke="darkgreen" d="M87.0812,-192.72C115.404,-191.828 158.646,-185.472 180,-157 189.609,-144.187 182.055,-127.687 172.254,-114.518"/>
<polygon fill="darkgreen" stroke="darkgreen" points="174.679,-111.954 165.646,-106.417 169.254,-116.378 174.679,-111.954"/>
<text text-anchor="middle" x="244.5" y="-145.8" font-family="Times New Roman,serif" font-size="14.00">def by</text>
<text text-anchor="middle" x="244.5" y="-130.8" font-family="Times New Roman,serif" font-size="14.00">2018&#45;02&#45;22T16:00:00</text>
</g>
<!-- &#45;attrs1 -->
<g id="node4" class="node"><title>&#45;attrs1</title>
<polygon fill="none" stroke="gray" points="48,-109 0,-109 0,-73 54,-73 54,-103 48,-109"/>
<polyline fill="none" stroke="gray" points="48,-109 48,-103 "/>
<polyline fill="none" stroke="gray" points="54,-103 48,-103 "/>
<text text-anchor="start" x="14" y="-88" font-family="Times New Roman,serif" font-size="10.00">repr:</text>
<text text-anchor="start" x="35" y="-88" font-family="Times New Roman,serif" font-size="10.00">1</text>
</g>
<!-- &#45;attrs1&#45;&gt;http://example.org/v1 -->
<g id="edge2" class="edge"><title>&#45;attrs1&#45;&gt;http://example.org/v1</title>
<path fill="none" stroke="gray" stroke-dasharray="5,2" d="M29.3345,-109.211C31.4668,-122.536 35.186,-141.304 41,-157 43.4016,-163.484 46.8261,-170.242 50.1079,-176.072"/>
</g>
<!-- http://example.org/a -->
<g id="node5" class="node"><title>http://example.org/a</title>
<g id="a_node5"><a xlink:href="http://example.org/a" xlink:title="a">
<ellipse fill="#fffc87" stroke="#808080" cx="460" cy="-91" rx="27" ry="18"/>
<text text-anchor="middle" x="460" y="-87.3" font-family="Times New Roman,serif" font-size="14.00">a</text>
</a>
</g>
</g>
<!-- http://example.org/va -->
<g id="node7" class="node"><title>http://example.org/va</title>
<g id="a_node7"><a xlink:href="http://example.org/va" xlink:title="va">
<ellipse fill="#32cd32" stroke="#808080" cx="369" cy="-193" rx="27" ry="18"/>
<text text-anchor="middle" x="369" y="-189.3" font-family="Times New Roman,serif" font-size="14.00">va</text>
</a>
</g>
</g>
<!-- http://example.org/a&#45;&gt;http://example.org/va -->
<g id="edge7" class="edge"><title>http://example.org/a&#45;&gt;http://example.org/va</title>
<path fill="none" stroke="darkgreen" d="M433.449,-94.4837C412.41,-97.9998 384.262,-106.492 370,-127 362.399,-137.931 361.59,-152.59 362.929,-165.221"/>
<polygon fill="darkgreen" stroke="darkgreen" points="359.487,-165.869 364.456,-175.227 366.407,-164.813 359.487,-165.869"/>
<text text-anchor="middle" x="429.5" y="-145.8" font-family="Times New Roman,serif" font-size="14.00">defined</text>
<text text-anchor="middle" x="429.5" y="-130.8" font-family="Times New Roman,serif" font-size="14.00">2018&#45;02&#45;22T16:00:01</text>
</g>
<!-- &#45;attrs2 -->
<g id="node6" class="node"><title>&#45;attrs2</title>
<polygon fill="none" stroke="gray" points="499.5,-36 414.5,-36 414.5,-0 505.5,-0 505.5,-30 499.5,-36"/>
<polyline fill="none" stroke="gray" points="499.5,-36 499.5,-30 "/>
<polyline fill="none" stroke="gray" points="505.5,-30 499.5,-30 "/>
<text text-anchor="start" x="425" y="-22" font-family="Times New Roman,serif" font-size="10.00">label:</text>
<text text-anchor="start" x="449" y="-22" font-family="Times New Roman,serif" font-size="10.00">&#39;a&#39;</text>
<text text-anchor="start" x="425" y="-9" font-family="Times New Roman,serif" font-size="10.00">type:</text>
<text text-anchor="start" x="449" y="-9" font-family="Times New Roman,serif" font-size="10.00">script:literal</text>
</g>
<!-- &#45;attrs2&#45;&gt;http://example.org/a -->
<g id="edge5" class="edge"><title>&#45;attrs2&#45;&gt;http://example.org/a</title>
<path fill="none" stroke="gray" stroke-dasharray="5,2" d="M460,-36.1871C460,-47.3501 460,-61.8398 460,-72.9712"/>
</g>
<!-- http://example.org/va&#45;&gt;http://example.org/a -->
<g id="edge8" class="edge"><title>http://example.org/va&#45;&gt;http://example.org/a</title>
<path fill="none" stroke="darkgreen" d="M396.081,-192.72C424.404,-191.828 467.646,-185.472 489,-157 498.609,-144.187 491.055,-127.687 481.254,-114.518"/>
<polygon fill="darkgreen" stroke="darkgreen" points="483.679,-111.954 474.646,-106.417 478.254,-116.378 483.679,-111.954"/>
<text text-anchor="middle" x="553.5" y="-145.8" font-family="Times New Roman,serif" font-size="14.00">def by</text>
<text text-anchor="middle" x="553.5" y="-130.8" font-family="Times New Roman,serif" font-size="14.00">2018&#45;02&#45;22T16:00:01</text>
</g>
<!-- &#45;attrs3 -->
<g id="node8" class="node"><title>&#45;attrs3</title>
<polygon fill="none" stroke="gray" points="357,-109 309,-109 309,-73 363,-73 363,-103 357,-109"/>
<polyline fill="none" stroke="gray" points="357,-109 357,-103 "/>
<polyline fill="none" stroke="gray" points="363,-103 357,-103 "/>
<text text-anchor="start" x="322" y="-88" font-family="Times New Roman,serif" font-size="10.00">repr:</text>
<text text-anchor="start" x="343" y="-88" font-family="Times New Roman,serif" font-size="10.00">&#39;a&#39;</text>
</g>
<!-- &#45;attrs3&#45;&gt;http://example.org/va -->
<g id="edge6" class="edge"><title>&#45;attrs3&#45;&gt;http://example.org/va</title>
<path fill="none" stroke="gray" stroke-dasharray="5,2" d="M338.335,-109.211C340.467,-122.536 344.186,-141.304 350,-157 352.402,-163.484 355.826,-170.242 359.108,-176.072"/>
</g>
<!-- http://example.org/a#2 -->
<g id="node9" class="node"><title>http://example.org/a#2</title>
<g id="a_node9"><a xlink:href="http://example.org/a#2" xlink:title="a#2">
<ellipse fill="#fffc87" stroke="#808080" cx="769" cy="-91" rx="27" ry="18"/>
<text text-anchor="middle" x="769" y="-87.3" font-family="Times New Roman,serif" font-size="14.00">a#2</text>
</a>
</g>
</g>
<!-- http://example.org/vba -->
<g id="node11" class="node"><title>http://example.org/vba</title>
<g id="a_node11"><a xlink:href="http://example.org/vba" xlink:title="vba">
<ellipse fill="#32cd32" stroke="#808080" cx="678" cy="-193" rx="27" ry="18"/>
<text text-anchor="middle" x="678" y="-189.3" font-family="Times New Roman,serif" font-size="14.00">vba</text>
</a>
</g>
</g>
<!-- http://example.org/a#2&#45;&gt;http://example.org/vba -->
<g id="edge11" class="edge"><title>http://example.org/a#2&#45;&gt;http://example.org/vba</title>
<path fill="none" stroke="darkgreen" d="M742.449,-94.4837C721.41,-97.9998 693.262,-106.492 679,-127 671.399,-137.931 670.59,-152.59 671.929,-165.221"/>
<polygon fill="darkgreen" stroke="darkgreen" points="668.487,-165.869 673.456,-175.227 675.407,-164.813 668.487,-165.869"/>
<text text-anchor="middle" x="738.5" y="-145.8" font-family="Times New Roman,serif" font-size="14.00">defined</text>
<text text-anchor="middle" x="738.5" y="-130.8" font-family="Times New Roman,serif" font-size="14.00">2018&#45;02&#45;22T16:00:02</text>
</g>
<!-- &#45;attrs4 -->
<g id="node10" class="node"><title>&#45;attrs4</title>
<polygon fill="none" stroke="gray" points="808.5,-36 723.5,-36 723.5,-0 814.5,-0 814.5,-30 808.5,-36"/>
<polyline fill="none" stroke="gray" points="808.5,-36 808.5,-30 "/>
<polyline fill="none" stroke="gray" points="814.5,-30 808.5,-30 "/>
<text text-anchor="start" x="734" y="-22" font-family="Times New Roman,serif" font-size="10.00">label:</text>
<text text-anchor="start" x="758" y="-22" font-family="Times New Roman,serif" font-size="10.00">b&#39;a&#39;</text>
<text text-anchor="start" x="734" y="-9" font-family="Times New Roman,serif" font-size="10.00">type:</text>
<text text-anchor="start" x="758" y="-9" font-family="Times New Roman,serif" font-size="10.00">script:literal</text>
</g>
<!-- &#45;attrs4&#45;&gt;http://example.org/a#2 -->
<g id="edge9" class="edge"><title>&#45;attrs4&#45;&gt;http://example.org/a#2</title>
<path fill="none" stroke="gray" stroke-dasharray="5,2" d="M769,-36.1871C769,-47.3501 769,-61.8398 769,-72.9712"/>
</g>
<!-- http://example.org/vba&#45;&gt;http://example.org/a#2 -->
<g id="edge12" class="edge"><title>http://example.org/vba&#45;&gt;http://example.org/a#2</title>
<path fill="none" stroke="darkgreen" d="M705.081,-192.72C733.404,-191.828 776.646,-185.472 798,-157 807.609,-144.187 800.055,-127.687 790.254,-114.518"/>
<polygon fill="darkgreen" stroke="darkgreen" points="792.679,-111.954 783.646,-106.417 787.254,-116.378 792.679,-111.954"/>
<text text-anchor="middle" x="862.5" y="-145.8" font-family="Times New Roman,serif" font-size="14.00">def by</text>
<text text-anchor="middle" x="862.5" y="-130.8" font-family="Times New Roman,serif" font-size="14.00">2018&#45;02&#45;22T16:00:02</text>
</g>
<!-- &#45;attrs5 -->
<g id="node12" class="node"><title>&#45;attrs5</title>
<polygon fill="none" stroke="gray" points="666,-109 618,-109 618,-73 672,-73 672,-103 666,-109"/>
<polyline fill="none" stroke="gray" points="666,-109 666,-103 "/>
<polyline fill="none" stroke="gray" points="672,-103 666,-103 "/>
<text text-anchor="start" x="628" y="-88" font-family="Times New Roman,serif" font-size="10.00">repr:</text>
<text text-anchor="start" x="649" y="-88" font-family="Times New Roman,serif" font-size="10.00">b&#39;a&#39;</text>
</g>
<!-- &#45;attrs5&#45;&gt;http://example.org/vba -->
<g id="edge10" class="edge"><title>&#45;attrs5&#45;&gt;http://example.org/vba</title>
<path fill="none" stroke="gray" stroke-dasharray="5,2" d="M647.335,-109.211C649.467,-122.536 653.186,-141.304 659,-157 661.402,-163.484 664.826,-170.242 668.108,-176.072"/>
</g>
<!-- http://example.org/True -->
<g id="node13" class="node"><title>http://example.org/True</title>
<g id="a_node13"><a xlink:href="http://example.org/True" xlink:title="True">
<ellipse fill="#fffc87" stroke="#808080" cx="1080" cy="-91" rx="27.8951" ry="18"/>
<text text-anchor="middle" x="1080" y="-87.3" font-family="Times New Roman,serif" font-size="14.00">True</text>
</a>
</g>
</g>
<!-- http://example.org/vtrue -->
<g id="node15" class="node"><title>http://example.org/vtrue</title>
<g id="a_node15"><a xlink:href="http://example.org/vtrue" xlink:title="vtrue">
<ellipse fill="#32cd32" stroke="#808080" cx="987" cy="-193" rx="28.6953" ry="18"/>
<text text-anchor="middle" x="987" y="-189.3" font-family="Times New Roman,serif" font-size="14.00">vtrue</text>
</a>
</g>
</g>
<!-- http://example.org/True&#45;&gt;http://example.org/vtrue -->
<g id="edge15" class="edge"><title>http://example.org/True&#45;&gt;http://example.org/vtrue</title>
<path fill="none" stroke="darkgreen" d="M1052.44,-94.3734C1031,-97.827 1002.52,-106.289 988,-127 980.358,-137.903 979.547,-152.56 980.894,-165.196"/>
<polygon fill="darkgreen" stroke="darkgreen" points="977.454,-165.855 982.43,-175.209 984.373,-164.793 977.454,-165.855"/>
<text text-anchor="middle" x="1047.5" y="-145.8" font-family="Times New Roman,serif" font-size="14.00">defined</text>
<text text-anchor="middle" x="1047.5" y="-130.8" font-family="Times New Roman,serif" font-size="14.00">2018&#45;02&#45;22T16:00:03</text>
</g>
<!-- &#45;attrs6 -->
<g id="node14" class="node"><title>&#45;attrs6</title>
<polygon fill="none" stroke="gray" points="1126.5,-36 1027.5,-36 1027.5,-0 1132.5,-0 1132.5,-30 1126.5,-36"/>
<polyline fill="none" stroke="gray" points="1126.5,-36 1126.5,-30 "/>
<polyline fill="none" stroke="gray" points="1132.5,-30 1126.5,-30 "/>
<text text-anchor="start" x="1038" y="-22" font-family="Times New Roman,serif" font-size="10.00">label:</text>
<text text-anchor="start" x="1062" y="-22" font-family="Times New Roman,serif" font-size="10.00">True</text>
<text text-anchor="start" x="1038" y="-9" font-family="Times New Roman,serif" font-size="10.00">type:</text>
<text text-anchor="start" x="1062" y="-9" font-family="Times New Roman,serif" font-size="10.00">script:constant</text>
</g>
<!-- &#45;attrs6&#45;&gt;http://example.org/True -->
<g id="edge13" class="edge"><title>&#45;attrs6&#45;&gt;http://example.org/True</title>
<path fill="none" stroke="gray" stroke-dasharray="5,2" d="M1080,-36.1871C1080,-47.3501 1080,-61.8398 1080,-72.9712"/>
</g>
<!-- http://example.org/vtrue&#45;&gt;http://example.org/True -->
<g id="edge16" class="edge"><title>http://example.org/vtrue&#45;&gt;http://example.org/True</title>
<path fill="none" stroke="darkgreen" d="M1015.65,-192.665C1043.98,-191.588 1086.04,-184.951 1107,-157 1116.44,-144.41 1109.55,-128.037 1100.37,-114.873"/>
<polygon fill="darkgreen" stroke="darkgreen" points="1103.01,-112.569 1094.15,-106.758 1097.46,-116.825 1103.01,-112.569"/>
<text text-anchor="middle" x="1171.5" y="-145.8" font-family="Times New Roman,serif" font-size="14.00">def by</text>
<text text-anchor="middle" x="1171.5" y="-130.8" font-family="Times New Roman,serif" font-size="14.00">2018&#45;02&#45;22T16:00:03</text>
</g>
<!-- &#45;attrs7 -->
<g id="node16" class="node"><title>&#45;attrs7</title>
<polygon fill="none" stroke="gray" points="978,-109 924,-109 924,-73 984,-73 984,-103 978,-109"/>
<polyline fill="none" stroke="gray" points="978,-109 978,-103 "/>
<polyline fill="none" stroke="gray" points="984,-103 978,-103 "/>
<text text-anchor="start" x="934" y="-88" font-family="Times New Roman,serif" font-size="10.00">repr:</text>
<text text-anchor="start" x="955" y="-88" font-family="Times New Roman,serif" font-size="10.00">True</text>
</g>
<!-- &#45;attrs7&#45;&gt;http://example.org/vtrue -->
<g id="edge14" class="edge"><title>&#45;attrs7&#45;&gt;http://example.org/vtrue</title>
<path fill="none" stroke="gray" stroke-dasharray="5,2" d="M956.335,-109.211C958.467,-122.536 962.186,-141.304 968,-157 970.402,-163.484 973.826,-170.242 977.108,-176.072"/>
</g>
<!-- http://example.org/int -->
<g id="node17" class="node"><title>http://example.org/int</title>
<g id="a_node17"><a xlink:href="http://example.org/int" xlink:title="int">
<ellipse fill="#fffc87" stroke="#808080" cx="1395" cy="-91" rx="27" ry="18"/>
<text text-anchor="middle" x="1395" y="-87.3" font-family="Times New Roman,serif" font-size="14.00">int</text>
</a>
</g>
</g>
<!-- http://example.org/vint -->
<g id="node19" class="node"><title>http://example.org/vint</title>
<g id="a_node19"><a xlink:href="http://example.org/vint" xlink:title="vint">
<ellipse fill="#32cd32" stroke="#808080" cx="1296" cy="-193" rx="27" ry="18"/>
<text text-anchor="middle" x="1296" y="-189.3" font-family="Times New Roman,serif" font-size="14.00">vint</text>
</a>
</g>
</g>
<!-- http://example.org/int&#45;&gt;http://example.org/vint -->
<g id="edge19" class="edge"><title>http://example.org/int&#45;&gt;http://example.org/vint</title>
<path fill="none" stroke="darkgreen" d="M1367.99,-93.5251C1344.96,-96.4157 1313.1,-104.528 1297,-127 1289.25,-137.824 1288.43,-152.475 1289.8,-165.127"/>
<polygon fill="darkgreen" stroke="darkgreen" points="1286.36,-165.815 1291.36,-175.158 1293.28,-164.738 1286.36,-165.815"/>
<text text-anchor="middle" x="1356.5" y="-145.8" font-family="Times New Roman,serif" font-size="14.00">defined</text>
<text text-anchor="middle" x="1356.5" y="-130.8" font-family="Times New Roman,serif" font-size="14.00">2018&#45;02&#45;22T16:00:04</text>
</g>
<!-- &#45;attrs8 -->
<g id="node18" class="node"><title>&#45;attrs8</title>
<polygon fill="none" stroke="gray" points="1434,-36 1350,-36 1350,-0 1440,-0 1440,-30 1434,-36"/>
<polyline fill="none" stroke="gray" points="1434,-36 1434,-30 "/>
<polyline fill="none" stroke="gray" points="1440,-30 1434,-30 "/>
<text text-anchor="start" x="1360" y="-22" font-family="Times New Roman,serif" font-size="10.00">label:</text>
<text text-anchor="start" x="1384" y="-22" font-family="Times New Roman,serif" font-size="10.00">int</text>
<text text-anchor="start" x="1360" y="-9" font-family="Times New Roman,serif" font-size="10.00">type:</text>
<text text-anchor="start" x="1384" y="-9" font-family="Times New Roman,serif" font-size="10.00">script:name</text>
</g>
<!-- &#45;attrs8&#45;&gt;http://example.org/int -->
<g id="edge17" class="edge"><title>&#45;attrs8&#45;&gt;http://example.org/int</title>
<path fill="none" stroke="gray" stroke-dasharray="5,2" d="M1395,-36.1871C1395,-47.3501 1395,-61.8398 1395,-72.9712"/>
</g>
<!-- http://example.org/vint&#45;&gt;http://example.org/int -->
<g id="edge20" class="edge"><title>http://example.org/vint&#45;&gt;http://example.org/int</title>
<path fill="none" stroke="darkgreen" d="M1323.08,-192.72C1351.4,-191.828 1394.65,-185.472 1416,-157 1425.02,-144.975 1419.96,-128.923 1412.55,-115.78"/>
<polygon fill="darkgreen" stroke="darkgreen" points="1415.47,-113.845 1407.19,-107.231 1409.54,-117.563 1415.47,-113.845"/>
<text text-anchor="middle" x="1480.5" y="-145.8" font-family="Times New Roman,serif" font-size="14.00">def by</text>
<text text-anchor="middle" x="1480.5" y="-130.8" font-family="Times New Roman,serif" font-size="14.00">2018&#45;02&#45;22T16:00:04</text>
</g>
<!-- &#45;attrs9 -->
<g id="node20" class="node"><title>&#45;attrs9</title>
<polygon fill="none" stroke="gray" points="1301,-109 1219,-109 1219,-73 1307,-73 1307,-103 1301,-109"/>
<polyline fill="none" stroke="gray" points="1301,-109 1301,-103 "/>
<polyline fill="none" stroke="gray" points="1307,-103 1301,-103 "/>
<text text-anchor="start" x="1229" y="-88" font-family="Times New Roman,serif" font-size="10.00">repr:</text>
<text text-anchor="start" x="1250" y="-88" font-family="Times New Roman,serif" font-size="10.00">&lt;class &#39;int&#39;&gt;</text>
</g>
<!-- &#45;attrs9&#45;&gt;http://example.org/vint -->
<g id="edge18" class="edge"><title>&#45;attrs9&#45;&gt;http://example.org/vint</title>
<path fill="none" stroke="gray" stroke-dasharray="5,2" d="M1265.33,-109.211C1267.47,-122.536 1271.19,-141.304 1277,-157 1279.4,-163.484 1282.83,-170.242 1286.11,-176.072"/>
</g>
<!-- http://example.org/ellipsis -->
<g id="node21" class="node"><title>http://example.org/ellipsis</title>
<g id="a_node21"><a xlink:href="http://example.org/ellipsis" xlink:title="ellipsis">
<ellipse fill="#fffc87" stroke="#808080" cx="1703" cy="-91" rx="35.194" ry="18"/>
<text text-anchor="middle" x="1703" y="-87.3" font-family="Times New Roman,serif" font-size="14.00">ellipsis</text>
</a>
</g>
</g>
<!-- http://example.org/vellipsis -->
<g id="node23" class="node"><title>http://example.org/vellipsis</title>
<g id="a_node23"><a xlink:href="http://example.org/vellipsis" xlink:title="vellipsis">
<ellipse fill="#32cd32" stroke="#808080" cx="1605" cy="-193" rx="39.7935" ry="18"/>
<text text-anchor="middle" x="1605" y="-189.3" font-family="Times New Roman,serif" font-size="14.00">vellipsis</text>
</a>
</g>
</g>
<!-- http://example.org/ellipsis&#45;&gt;http://example.org/vellipsis -->
<g id="edge23" class="edge"><title>http://example.org/ellipsis&#45;&gt;http://example.org/vellipsis</title>
<path fill="none" stroke="darkgreen" d="M1668.37,-94.7985C1646.64,-98.5435 1620.15,-107.183 1606,-127 1598.32,-137.765 1597.46,-152.295 1598.79,-164.887"/>
<polygon fill="darkgreen" stroke="darkgreen" points="1595.34,-165.527 1600.31,-174.883 1602.26,-164.469 1595.34,-165.527"/>
<text text-anchor="middle" x="1665.5" y="-145.8" font-family="Times New Roman,serif" font-size="14.00">defined</text>
<text text-anchor="middle" x="1665.5" y="-130.8" font-family="Times New Roman,serif" font-size="14.00">2018&#45;02&#45;22T16:00:05</text>
</g>
<!-- &#45;attrs10 -->
<g id="node22" class="node"><title>&#45;attrs10</title>
<polygon fill="none" stroke="gray" points="1749.5,-36 1650.5,-36 1650.5,-0 1755.5,-0 1755.5,-30 1749.5,-36"/>
<polyline fill="none" stroke="gray" points="1749.5,-36 1749.5,-30 "/>
<polyline fill="none" stroke="gray" points="1755.5,-30 1749.5,-30 "/>
<text text-anchor="start" x="1661" y="-22" font-family="Times New Roman,serif" font-size="10.00">label:</text>
<text text-anchor="start" x="1685" y="-22" font-family="Times New Roman,serif" font-size="10.00">...</text>
<text text-anchor="start" x="1661" y="-9" font-family="Times New Roman,serif" font-size="10.00">type:</text>
<text text-anchor="start" x="1685" y="-9" font-family="Times New Roman,serif" font-size="10.00">script:constant</text>
</g>
<!-- &#45;attrs10&#45;&gt;http://example.org/ellipsis -->
<g id="edge21" class="edge"><title>&#45;attrs10&#45;&gt;http://example.org/ellipsis</title>
<path fill="none" stroke="gray" stroke-dasharray="5,2" d="M1703,-36.1871C1703,-47.3501 1703,-61.8398 1703,-72.9712"/>
</g>
<!-- http://example.org/vellipsis&#45;&gt;http://example.org/ellipsis -->
<g id="edge24" class="edge"><title>http://example.org/vellipsis&#45;&gt;http://example.org/ellipsis</title>
<path fill="none" stroke="darkgreen" d="M1644.78,-191.976C1672.1,-189.611 1706.64,-181.479 1725,-157 1733.94,-145.075 1728.89,-129.278 1721.38,-116.244"/>
<polygon fill="darkgreen" stroke="darkgreen" points="1724.28,-114.276 1715.94,-107.744 1718.38,-118.052 1724.28,-114.276"/>
<text text-anchor="middle" x="1789.5" y="-145.8" font-family="Times New Roman,serif" font-size="14.00">def by</text>
<text text-anchor="middle" x="1789.5" y="-130.8" font-family="Times New Roman,serif" font-size="14.00">2018&#45;02&#45;22T16:00:05</text>
</g>
<!-- &#45;attrs11 -->
<g id="node24" class="node"><title>&#45;attrs11</title>
<polygon fill="none" stroke="gray" points="1601,-109 1537,-109 1537,-73 1607,-73 1607,-103 1601,-109"/>
<polyline fill="none" stroke="gray" points="1601,-109 1601,-103 "/>
<polyline fill="none" stroke="gray" points="1607,-103 1601,-103 "/>
<text text-anchor="start" x="1547" y="-88" font-family="Times New Roman,serif" font-size="10.00">repr:</text>
<text text-anchor="start" x="1568" y="-88" font-family="Times New Roman,serif" font-size="10.00">Ellipsis</text>
</g>
<!-- &#45;attrs11&#45;&gt;http://example.org/vellipsis -->
<g id="edge22" class="edge"><title>&#45;attrs11&#45;&gt;http://example.org/vellipsis</title>
<path fill="none" stroke="gray" stroke-dasharray="5,2" d="M1574.33,-109.211C1576.47,-122.536 1580.19,-141.304 1586,-157 1588.31,-163.224 1591.55,-169.702 1594.71,-175.368"/>
</g>
</g>
</svg>
