<?xml version="1.0" encoding="UTF-8" standalone="no"?>
<!DOCTYPE svg PUBLIC "-//W3C//DTD SVG 1.1//EN"
 "http://www.w3.org/Graphics/SVG/1.1/DTD/svg11.dtd">
<!-- Generated by graphviz version 2.38.0 (20140413.2041)
 -->
<!-- Title: PROV Pages: 1 -->
<svg width="374pt" height="394pt"
 viewBox="0.00 0.00 374.00 394.00" xmlns="http://www.w3.org/2000/svg" xmlns:xlink="http://www.w3.org/1999/xlink">
<g id="graph0" class="graph" transform="scale(1 1) rotate(0) translate(4 390)">
<title>PROV</title>
<polygon fill="white" stroke="none" points="-4,4 -4,-390 370,-390 370,4 -4,4"/>
<!-- http://example.org/vlist1 -->
<g id="node1" class="node"><title>http://example.org/vlist1</title>
<g id="a_node1"><a xlink:href="http://example.org/vlist1" xlink:title="vlist1">
<ellipse fill="#32cd32" stroke="#808080" cx="102.5" cy="-368" rx="29.795" ry="18"/>
<text text-anchor="middle" x="102.5" y="-364.3" font-family="Times New Roman,serif" font-size="14.00">vlist1</text>
</a>
</g>
</g>
<!-- &#45;attrs0 -->
<g id="node2" class="node"><title>&#45;attrs0</title>
<polygon fill="none" stroke="gray" points="127,-284 0,-284 0,-248 133,-248 133,-278 127,-284"/>
<polyline fill="none" stroke="gray" points="127,-284 127,-278 "/>
<polyline fill="none" stroke="gray" points="133,-278 127,-278 "/>
<text text-anchor="start" x="10.5" y="-263" font-family="Times New Roman,serif" font-size="10.00">repr:</text>
<text text-anchor="start" x="31.5" y="-263" font-family="Times New Roman,serif" font-size="10.00">&quot;[10000, 10001, 10000]&quot;</text>
</g>
<!-- &#45;attrs0&#45;&gt;http://example.org/vlist1 -->
<g id="edge1" class="edge"><title>&#45;attrs0&#45;&gt;http://example.org/vlist1</title>
<path fill="none" stroke="gray" stroke-dasharray="5,2" d="M72.7707,-284.419C79.4186,-302.885 89.8471,-331.853 96.4211,-350.114"/>
</g>
<!-- http://example.org/d1 -->
<g id="node3" class="node"><title>http://example.org/d1</title>
<g id="a_node3"><a xlink:href="http://example.org/d1" xlink:title="d1">
<ellipse fill="#fffc87" stroke="#808080" cx="178.5" cy="-266" rx="27" ry="18"/>
<text text-anchor="middle" x="178.5" y="-262.3" font-family="Times New Roman,serif" font-size="14.00">d1</text>
</a>
</g>
</g>
<!-- http://example.org/d1&#45;&gt;http://example.org/vlist1 -->
<g id="edge3" class="edge"><title>http://example.org/d1&#45;&gt;http://example.org/vlist1</title>
<path fill="none" stroke="darkgreen" d="M166.625,-282.625C154.316,-298.821 134.918,-324.344 120.678,-343.081"/>
<polygon fill="darkgreen" stroke="darkgreen" points="117.807,-341.075 114.542,-351.155 123.38,-345.311 117.807,-341.075"/>
<text text-anchor="middle" x="170.5" y="-320.8" font-family="Times New Roman,serif" font-size="14.00">access</text>
<text text-anchor="middle" x="170.5" y="-305.8" font-family="Times New Roman,serif" font-size="14.00">T6</text>
</g>
<!-- &#45;attrs1 -->
<g id="node4" class="node"><title>&#45;attrs1</title>
<polygon fill="none" stroke="gray" points="166.5,-211 94.5,-211 94.5,-175 172.5,-175 172.5,-205 166.5,-211"/>
<polyline fill="none" stroke="gray" points="166.5,-211 166.5,-205 "/>
<polyline fill="none" stroke="gray" points="172.5,-205 166.5,-205 "/>
<text text-anchor="start" x="104.5" y="-197" font-family="Times New Roman,serif" font-size="10.00">value:</text>
<text text-anchor="start" x="131.5" y="-197" font-family="Times New Roman,serif" font-size="10.00">&quot;d&quot;</text>
<text text-anchor="start" x="104.5" y="-184" font-family="Times New Roman,serif" font-size="10.00">type:</text>
<text text-anchor="start" x="131.5" y="-184" font-family="Times New Roman,serif" font-size="10.00">&quot;name&quot;</text>
</g>
<!-- &#45;attrs1&#45;&gt;http://example.org/d1 -->
<g id="edge2" class="edge"><title>&#45;attrs1&#45;&gt;http://example.org/d1</title>
<path fill="none" stroke="gray" stroke-dasharray="5,2" d="M144.393,-211.187C151.676,-222.678 161.194,-237.695 168.324,-248.944"/>
</g>
<!-- http://example.org/len_d1 -->
<g id="node5" class="node"><title>http://example.org/len_d1</title>
<g id="a_node5"><a xlink:href="http://example.org/len_d1" xlink:title="len_d1">
<ellipse fill="#fffc87" stroke="#808080" cx="247.5" cy="-91" rx="35.194" ry="18"/>
<text text-anchor="middle" x="247.5" y="-87.3" font-family="Times New Roman,serif" font-size="14.00">len_d1</text>
</a>
</g>
</g>
<!-- http://example.org/v3 -->
<g id="node7" class="node"><title>http://example.org/v3</title>
<g id="a_node7"><a xlink:href="http://example.org/v3" xlink:title="v3">
<ellipse fill="#32cd32" stroke="#808080" cx="217.5" cy="-193" rx="27" ry="18"/>
<text text-anchor="middle" x="217.5" y="-189.3" font-family="Times New Roman,serif" font-size="14.00">v3</text>
</a>
</g>
</g>
<!-- http://example.org/len_d1&#45;&gt;http://example.org/v3 -->
<g id="edge6" class="edge"><title>http://example.org/len_d1&#45;&gt;http://example.org/v3</title>
<path fill="none" stroke="darkgreen" d="M233.258,-117.622C231.854,-120.725 230.559,-123.896 229.5,-127 225.386,-139.057 222.584,-152.881 220.729,-164.671"/>
<polygon fill="darkgreen" stroke="darkgreen" points="236.399,-119.168 237.677,-108.651 230.119,-116.075 236.399,-119.168"/>
<polygon fill="darkgreen" stroke="darkgreen" points="217.229,-164.425 219.281,-174.819 224.159,-165.413 217.229,-164.425"/>
<text text-anchor="middle" x="250.5" y="-145.8" font-family="Times New Roman,serif" font-size="14.00">defined</text>
<text text-anchor="middle" x="250.5" y="-130.8" font-family="Times New Roman,serif" font-size="14.00">T8</text>
</g>
<!-- http://example.org/len1 -->
<g id="node9" class="node"><title>http://example.org/len1</title>
<g id="a_node9"><a xlink:href="http://example.org/len1" xlink:title="len1">
<polygon fill="#9fb1fc" stroke="#0000ff" points="316.5,-211 262.5,-211 262.5,-175 316.5,-175 316.5,-211"/>
<text text-anchor="middle" x="289.5" y="-189.3" font-family="Times New Roman,serif" font-size="14.00">len1</text>
</a>
</g>
</g>
<!-- http://example.org/len_d1&#45;&gt;http://example.org/len1 -->
<g id="edge9" class="edge"><title>http://example.org/len_d1&#45;&gt;http://example.org/len1</title>
<path fill="none" stroke="black" d="M260.16,-108.059C264.222,-113.791 268.453,-120.454 271.5,-127 277.079,-138.988 281.239,-153.047 284.146,-165.018"/>
<polygon fill="black" stroke="black" points="280.76,-165.915 286.382,-174.895 287.587,-164.369 280.76,-165.915"/>
<text text-anchor="middle" x="275.103" y="-104.854" font-family="Times New Roman,serif" font-size="8.00">gen</text>
</g>
<!-- &#45;attrs2 -->
<g id="node6" class="node"><title>&#45;attrs2</title>
<polygon fill="none" stroke="gray" points="281.5,-36 207.5,-36 207.5,-0 287.5,-0 287.5,-30 281.5,-36"/>
<polyline fill="none" stroke="gray" points="281.5,-36 281.5,-30 "/>
<polyline fill="none" stroke="gray" points="287.5,-30 281.5,-30 "/>
<text text-anchor="start" x="217.5" y="-22" font-family="Times New Roman,serif" font-size="10.00">value:</text>
<text text-anchor="start" x="244.5" y="-22" font-family="Times New Roman,serif" font-size="10.00">&quot;len(d)&quot;</text>
<text text-anchor="start" x="217.5" y="-9" font-family="Times New Roman,serif" font-size="10.00">type:</text>
<text text-anchor="start" x="244.5" y="-9" font-family="Times New Roman,serif" font-size="10.00">&quot;eval&quot;</text>
</g>
<!-- &#45;attrs2&#45;&gt;http://example.org/len_d1 -->
<g id="edge4" class="edge"><title>&#45;attrs2&#45;&gt;http://example.org/len_d1</title>
<path fill="none" stroke="gray" stroke-dasharray="5,2" d="M247.5,-36.1871C247.5,-47.3501 247.5,-61.8398 247.5,-72.9712"/>
</g>
<!-- &#45;attrs3 -->
<g id="node8" class="node"><title>&#45;attrs3</title>
<polygon fill="none" stroke="gray" points="188,-109 139,-109 139,-73 194,-73 194,-103 188,-109"/>
<polyline fill="none" stroke="gray" points="188,-109 188,-103 "/>
<polyline fill="none" stroke="gray" points="194,-103 188,-103 "/>
<text text-anchor="start" x="149.5" y="-88" font-family="Times New Roman,serif" font-size="10.00">repr:</text>
<text text-anchor="start" x="170.5" y="-88" font-family="Times New Roman,serif" font-size="10.00">&quot;3&quot;</text>
</g>
<!-- &#45;attrs3&#45;&gt;http://example.org/v3 -->
<g id="edge5" class="edge"><title>&#45;attrs3&#45;&gt;http://example.org/v3</title>
<path fill="none" stroke="gray" stroke-dasharray="5,2" d="M175.384,-109.419C184.915,-128.109 199.934,-157.557 209.224,-175.773"/>
</g>
<!-- http://example.org/len1&#45;&gt;http://example.org/d1 -->
<g id="edge8" class="edge"><title>http://example.org/len1&#45;&gt;http://example.org/d1</title>
<path fill="none" stroke="black" d="M262.913,-211.006C245.654,-222.046 223.219,-236.396 205.817,-247.527"/>
<polygon fill="black" stroke="black" points="203.768,-244.683 197.23,-253.02 207.54,-250.58 203.768,-244.683"/>
<text text-anchor="middle" x="263.594" y="-224.091" font-family="Times New Roman,serif" font-size="8.00">use</text>
</g>
<!-- &#45;attrs4 -->
<g id="node10" class="node"><title>&#45;attrs4</title>
<polygon fill="none" stroke="gray" points="360,-109 301,-109 301,-73 366,-73 366,-103 360,-109"/>
<polyline fill="none" stroke="gray" points="360,-109 360,-103 "/>
<polyline fill="none" stroke="gray" points="366,-103 360,-103 "/>
<text text-anchor="start" x="311.5" y="-88" font-family="Times New Roman,serif" font-size="10.00">type:</text>
<text text-anchor="start" x="334.5" y="-88" font-family="Times New Roman,serif" font-size="10.00">&quot;len&quot;</text>
</g>
<!-- &#45;attrs4&#45;&gt;http://example.org/len1 -->
<g id="edge7" class="edge"><title>&#45;attrs4&#45;&gt;http://example.org/len1</title>
<path fill="none" stroke="gray" stroke-dasharray="5,2" d="M325.836,-109.419C317.76,-127.773 305.119,-156.502 297.076,-174.781"/>
</g>
</g>
</svg>
