<?xml version="1.0" encoding="UTF-8" standalone="no"?>
<!DOCTYPE svg PUBLIC "-//W3C//DTD SVG 1.1//EN"
 "http://www.w3.org/Graphics/SVG/1.1/DTD/svg11.dtd">
<!-- Generated by graphviz version 2.38.0 (20140413.2041)
 -->
<!-- Title: PROV Pages: 1 -->
<svg width="375pt" height="394pt"
 viewBox="0.00 0.00 375.00 394.00" xmlns="http://www.w3.org/2000/svg" xmlns:xlink="http://www.w3.org/1999/xlink">
<g id="graph0" class="graph" transform="scale(1 1) rotate(0) translate(4 390)">
<title>PROV</title>
<polygon fill="white" stroke="none" points="-4,4 -4,-390 371,-390 371,4 -4,4"/>
<!-- http://example.org/vlist1 -->
<g id="node1" class="node"><title>http://example.org/vlist1</title>
<g id="a_node1"><a xlink:href="http://example.org/vlist1" xlink:title="vlist1">
<ellipse fill="#32cd32" stroke="#808080" cx="102.5" cy="-368" rx="29.795" ry="18"/>
<text text-anchor="middle" x="102.5" y="-364.3" font-family="Times New Roman,serif" font-size="14.00">vlist1</text>
</a>
</g>
</g>
<!-- &#45;attrs0 -->
<g id="node2" class="node"><title>&#45;attrs0</title>
<polygon fill="none" stroke="gray" points="127,-284 0,-284 0,-248 133,-248 133,-278 127,-284"/>
<polyline fill="none" stroke="gray" points="127,-284 127,-278 "/>
<polyline fill="none" stroke="gray" points="133,-278 127,-278 "/>
<text text-anchor="start" x="10.5" y="-263" font-family="Times New Roman,serif" font-size="10.00">repr:</text>
<text text-anchor="start" x="31.5" y="-263" font-family="Times New Roman,serif" font-size="10.00">&quot;[10000, 10001, 10000]&quot;</text>
</g>
<!-- &#45;attrs0&#45;&gt;http://example.org/vlist1 -->
<g id="edge1" class="edge"><title>&#45;attrs0&#45;&gt;http://example.org/vlist1</title>
<path fill="none" stroke="gray" stroke-dasharray="5,2" d="M72.7707,-284.419C79.4186,-302.885 89.8471,-331.853 96.4211,-350.114"/>
</g>
<!-- http://example.org/d1 -->
<g id="node3" class="node"><title>http://example.org/d1</title>
<g id="a_node3"><a xlink:href="http://example.org/d1" xlink:title="d1">
<ellipse fill="#fffc87" stroke="#808080" cx="178.5" cy="-266" rx="27" ry="18"/>
<text text-anchor="middle" x="178.5" y="-262.3" font-family="Times New Roman,serif" font-size="14.00">d1</text>
</a>
</g>
</g>
<!-- http://example.org/d1&#45;&gt;http://example.org/vlist1 -->
<g id="edge3" class="edge"><title>http://example.org/d1&#45;&gt;http://example.org/vlist1</title>
<path fill="none" stroke="darkgreen" d="M166.625,-282.625C154.316,-298.821 134.918,-324.344 120.678,-343.081"/>
<polygon fill="darkgreen" stroke="darkgreen" points="117.807,-341.075 114.542,-351.155 123.38,-345.311 117.807,-341.075"/>
<text text-anchor="middle" x="170.5" y="-320.8" font-family="Times New Roman,serif" font-size="14.00">access</text>
<text text-anchor="middle" x="170.5" y="-305.8" font-family="Times New Roman,serif" font-size="14.00">T6</text>
</g>
<!-- &#45;attrs1 -->
<g id="node4" class="node"><title>&#45;attrs1</title>
<polygon fill="none" stroke="gray" points="160.5,-211 88.5,-211 88.5,-175 166.5,-175 166.5,-205 160.5,-211"/>
<polyline fill="none" stroke="gray" points="160.5,-211 160.5,-205 "/>
<polyline fill="none" stroke="gray" points="166.5,-205 160.5,-205 "/>
<text text-anchor="start" x="98.5" y="-197" font-family="Times New Roman,serif" font-size="10.00">value:</text>
<text text-anchor="start" x="125.5" y="-197" font-family="Times New Roman,serif" font-size="10.00">&quot;d&quot;</text>
<text text-anchor="start" x="98.5" y="-184" font-family="Times New Roman,serif" font-size="10.00">type:</text>
<text text-anchor="start" x="125.5" y="-184" font-family="Times New Roman,serif" font-size="10.00">&quot;name&quot;</text>
</g>
<!-- &#45;attrs1&#45;&gt;http://example.org/d1 -->
<g id="edge2" class="edge"><title>&#45;attrs1&#45;&gt;http://example.org/d1</title>
<path fill="none" stroke="gray" stroke-dasharray="5,2" d="M139.846,-211.187C148.218,-222.843 159.195,-238.125 167.312,-249.424"/>
</g>
<!-- http://example.org/len_d1 -->
<g id="node5" class="node"><title>http://example.org/len_d1</title>
<g id="a_node5"><a xlink:href="http://example.org/len_d1" xlink:title="len_d1">
<ellipse fill="#fffc87" stroke="#808080" cx="248.5" cy="-91" rx="35.194" ry="18"/>
<text text-anchor="middle" x="248.5" y="-87.3" font-family="Times New Roman,serif" font-size="14.00">len_d1</text>
</a>
</g>
</g>
<!-- http://example.org/v3 -->
<g id="node7" class="node"><title>http://example.org/v3</title>
<g id="a_node7"><a xlink:href="http://example.org/v3" xlink:title="v3">
<ellipse fill="#32cd32" stroke="#808080" cx="211.5" cy="-193" rx="27" ry="18"/>
<text text-anchor="middle" x="211.5" y="-189.3" font-family="Times New Roman,serif" font-size="14.00">v3</text>
</a>
</g>
</g>
<!-- http://example.org/len_d1&#45;&gt;http://example.org/v3 -->
<g id="edge6" class="edge"><title>http://example.org/len_d1&#45;&gt;http://example.org/v3</title>
<path fill="none" stroke="darkgreen" d="M220.073,-101.615C208.436,-107.116 196.16,-115.305 189.5,-127 182.194,-139.829 187.116,-155.469 194.14,-168.192"/>
<polygon fill="darkgreen" stroke="darkgreen" points="191.255,-170.182 199.481,-176.859 197.215,-166.51 191.255,-170.182"/>
<text text-anchor="middle" x="210.5" y="-145.8" font-family="Times New Roman,serif" font-size="14.00">defined</text>
<text text-anchor="middle" x="210.5" y="-130.8" font-family="Times New Roman,serif" font-size="14.00">T8</text>
</g>
<!-- http://example.org/len1 -->
<g id="node9" class="node"><title>http://example.org/len1</title>
<g id="a_node9"><a xlink:href="http://example.org/len1" xlink:title="len1">
<polygon fill="#9fb1fc" stroke="#0000ff" points="332.5,-211 278.5,-211 278.5,-175 332.5,-175 332.5,-211"/>
<text text-anchor="middle" x="305.5" y="-189.3" font-family="Times New Roman,serif" font-size="14.00">len1</text>
</a>
</g>
</g>
<!-- http://example.org/len_d1&#45;&gt;http://example.org/len1 -->
<g id="edge10" class="edge"><title>http://example.org/len_d1&#45;&gt;http://example.org/len1</title>
<path fill="none" stroke="black" d="M265.086,-106.898C270.862,-112.732 277.012,-119.76 281.5,-127 288.778,-138.742 294.356,-153.031 298.295,-165.217"/>
<polygon fill="black" stroke="black" points="294.967,-166.304 301.219,-174.858 301.665,-164.272 294.967,-166.304"/>
<text text-anchor="middle" x="279.622" y="-101.294" font-family="Times New Roman,serif" font-size="8.00">gen</text>
</g>
<!-- &#45;attrs2 -->
<g id="node6" class="node"><title>&#45;attrs2</title>
<polygon fill="none" stroke="gray" points="282.5,-36 208.5,-36 208.5,-0 288.5,-0 288.5,-30 282.5,-36"/>
<polyline fill="none" stroke="gray" points="282.5,-36 282.5,-30 "/>
<polyline fill="none" stroke="gray" points="288.5,-30 282.5,-30 "/>
<text text-anchor="start" x="218.5" y="-22" font-family="Times New Roman,serif" font-size="10.00">value:</text>
<text text-anchor="start" x="245.5" y="-22" font-family="Times New Roman,serif" font-size="10.00">&quot;len(d)&quot;</text>
<text text-anchor="start" x="218.5" y="-9" font-family="Times New Roman,serif" font-size="10.00">type:</text>
<text text-anchor="start" x="245.5" y="-9" font-family="Times New Roman,serif" font-size="10.00">&quot;eval&quot;</text>
</g>
<!-- &#45;attrs2&#45;&gt;http://example.org/len_d1 -->
<g id="edge4" class="edge"><title>&#45;attrs2&#45;&gt;http://example.org/len_d1</title>
<path fill="none" stroke="gray" stroke-dasharray="5,2" d="M248.5,-36.1871C248.5,-47.3501 248.5,-61.8398 248.5,-72.9712"/>
</g>
<!-- http://example.org/v3&#45;&gt;http://example.org/len_d1 -->
<g id="edge7" class="edge"><title>http://example.org/v3&#45;&gt;http://example.org/len_d1</title>
<path fill="none" stroke="darkgreen" d="M221.783,-176.068C225.225,-170.238 228.856,-163.48 231.5,-157 236.477,-144.805 240.371,-130.721 243.169,-118.788"/>
<polygon fill="darkgreen" stroke="darkgreen" points="246.601,-119.476 245.345,-108.956 239.767,-117.963 246.601,-119.476"/>
<text text-anchor="middle" x="259" y="-145.8" font-family="Times New Roman,serif" font-size="14.00">def by</text>
<text text-anchor="middle" x="259" y="-130.8" font-family="Times New Roman,serif" font-size="14.00">T8</text>
</g>
<!-- &#45;attrs3 -->
<g id="node8" class="node"><title>&#45;attrs3</title>
<polygon fill="none" stroke="gray" points="177,-109 128,-109 128,-73 183,-73 183,-103 177,-109"/>
<polyline fill="none" stroke="gray" points="177,-109 177,-103 "/>
<polyline fill="none" stroke="gray" points="183,-103 177,-103 "/>
<text text-anchor="start" x="138.5" y="-88" font-family="Times New Roman,serif" font-size="10.00">repr:</text>
<text text-anchor="start" x="159.5" y="-88" font-family="Times New Roman,serif" font-size="10.00">&quot;3&quot;</text>
</g>
<!-- &#45;attrs3&#45;&gt;http://example.org/v3 -->
<g id="edge5" class="edge"><title>&#45;attrs3&#45;&gt;http://example.org/v3</title>
<path fill="none" stroke="gray" stroke-dasharray="5,2" d="M160.593,-109.005C165.045,-122.554 172.244,-141.718 181.5,-157 185.895,-164.256 191.794,-171.504 197.197,-177.506"/>
</g>
<!-- http://example.org/len1&#45;&gt;http://example.org/d1 -->
<g id="edge9" class="edge"><title>http://example.org/len1&#45;&gt;http://example.org/d1</title>
<path fill="none" stroke="black" d="M278.255,-209.231C257.431,-220.873 228.783,-236.889 207.529,-248.771"/>
<polygon fill="black" stroke="black" points="205.649,-245.813 198.628,-253.747 209.064,-251.923 205.649,-245.813"/>
<text text-anchor="middle" x="278.048" y="-222.33" font-family="Times New Roman,serif" font-size="8.00">use</text>
</g>
<!-- &#45;attrs4 -->
<g id="node10" class="node"><title>&#45;attrs4</title>
<polygon fill="none" stroke="gray" points="361,-109 302,-109 302,-73 367,-73 367,-103 361,-109"/>
<polyline fill="none" stroke="gray" points="361,-109 361,-103 "/>
<polyline fill="none" stroke="gray" points="367,-103 361,-103 "/>
<text text-anchor="start" x="312.5" y="-88" font-family="Times New Roman,serif" font-size="10.00">type:</text>
<text text-anchor="start" x="335.5" y="-88" font-family="Times New Roman,serif" font-size="10.00">&quot;len&quot;</text>
</g>
<!-- &#45;attrs4&#45;&gt;http://example.org/len1 -->
<g id="edge8" class="edge"><title>&#45;attrs4&#45;&gt;http://example.org/len1</title>
<path fill="none" stroke="gray" stroke-dasharray="5,2" d="M331.317,-109.025C328.667,-122.251 324.521,-140.975 319.5,-157 317.661,-162.87 315.284,-169.149 313.014,-174.744"/>
</g>
</g>
</svg>
