<?xml version="1.0" encoding="UTF-8" standalone="no"?>
<!DOCTYPE svg PUBLIC "-//W3C//DTD SVG 1.1//EN"
 "http://www.w3.org/Graphics/SVG/1.1/DTD/svg11.dtd">
<!-- Generated by graphviz version 2.38.0 (20140413.2041)
 -->
<!-- Title: PROV Pages: 1 -->
<svg width="342pt" height="394pt"
 viewBox="0.00 0.00 341.50 394.00" xmlns="http://www.w3.org/2000/svg" xmlns:xlink="http://www.w3.org/1999/xlink">
<g id="graph0" class="graph" transform="scale(1 1) rotate(0) translate(4 390)">
<title>PROV</title>
<polygon fill="white" stroke="none" points="-4,4 -4,-390 337.5,-390 337.5,4 -4,4"/>
<!-- http://example.org/list1 -->
<g id="node1" class="node"><title>http://example.org/list1</title>
<g id="a_node1"><a xlink:href="http://example.org/list1" xlink:title="list1">
<ellipse fill="#fffc87" stroke="#808080" cx="178.5" cy="-266" rx="27" ry="18"/>
<text text-anchor="middle" x="178.5" y="-262.3" font-family="Times New Roman,serif" font-size="14.00">list1</text>
</a>
</g>
</g>
<!-- http://example.org/vlist1 -->
<g id="node3" class="node"><title>http://example.org/vlist1</title>
<g id="a_node3"><a xlink:href="http://example.org/vlist1" xlink:title="vlist1">
<ellipse fill="#32cd32" stroke="#808080" cx="178.5" cy="-368" rx="29.795" ry="18"/>
<text text-anchor="middle" x="178.5" y="-364.3" font-family="Times New Roman,serif" font-size="14.00">vlist1</text>
</a>
</g>
</g>
<!-- http://example.org/list1&#45;&gt;http://example.org/vlist1 -->
<g id="edge3" class="edge"><title>http://example.org/list1&#45;&gt;http://example.org/vlist1</title>
<path fill="none" stroke="darkgreen" d="M178.5,-294.696C178.5,-308.756 178.5,-325.775 178.5,-339.769"/>
<polygon fill="darkgreen" stroke="darkgreen" points="182,-294.419 178.5,-284.419 175,-294.419 182,-294.419"/>
<polygon fill="darkgreen" stroke="darkgreen" points="175,-339.781 178.5,-349.781 182,-339.781 175,-339.781"/>
<text text-anchor="middle" x="199.5" y="-320.8" font-family="Times New Roman,serif" font-size="14.00">defined</text>
<text text-anchor="middle" x="199.5" y="-305.8" font-family="Times New Roman,serif" font-size="14.00">T5</text>
</g>
<!-- &#45;attrs0 -->
<g id="node2" class="node"><title>&#45;attrs0</title>
<polygon fill="none" stroke="gray" points="265.5,-182 165.5,-182 165.5,-146 271.5,-146 271.5,-176 265.5,-182"/>
<polyline fill="none" stroke="gray" points="265.5,-182 265.5,-176 "/>
<polyline fill="none" stroke="gray" points="271.5,-176 265.5,-176 "/>
<text text-anchor="start" x="175.5" y="-168" font-family="Times New Roman,serif" font-size="10.00">value:</text>
<text text-anchor="start" x="202.5" y="-168" font-family="Times New Roman,serif" font-size="10.00">&quot;[m, m + 1, m]&quot;</text>
<text text-anchor="start" x="175.5" y="-155" font-family="Times New Roman,serif" font-size="10.00">type:</text>
<text text-anchor="start" x="202.5" y="-155" font-family="Times New Roman,serif" font-size="10.00">&quot;list&quot;</text>
</g>
<!-- &#45;attrs0&#45;&gt;http://example.org/list1 -->
<g id="edge1" class="edge"><title>&#45;attrs0&#45;&gt;http://example.org/list1</title>
<path fill="none" stroke="gray" stroke-dasharray="5,2" d="M211.533,-182.419C204.101,-200.997 192.418,-230.205 185.122,-248.445"/>
</g>
<!-- &#45;attrs1 -->
<g id="node4" class="node"><title>&#45;attrs1</title>
<polygon fill="none" stroke="gray" points="127,-284 0,-284 0,-248 133,-248 133,-278 127,-284"/>
<polyline fill="none" stroke="gray" points="127,-284 127,-278 "/>
<polyline fill="none" stroke="gray" points="133,-278 127,-278 "/>
<text text-anchor="start" x="10.5" y="-263" font-family="Times New Roman,serif" font-size="10.00">repr:</text>
<text text-anchor="start" x="31.5" y="-263" font-family="Times New Roman,serif" font-size="10.00">&quot;[10000, 10001, 10000]&quot;</text>
</g>
<!-- &#45;attrs1&#45;&gt;http://example.org/vlist1 -->
<g id="edge2" class="edge"><title>&#45;attrs1&#45;&gt;http://example.org/vlist1</title>
<path fill="none" stroke="gray" stroke-dasharray="5,2" d="M85.7535,-284.191C107.394,-303.512 142.141,-334.537 162.398,-352.623"/>
</g>
<!-- http://example.org/d1 -->
<g id="node5" class="node"><title>http://example.org/d1</title>
<g id="a_node5"><a xlink:href="http://example.org/d1" xlink:title="d1">
<ellipse fill="#fffc87" stroke="#808080" cx="151.5" cy="-91" rx="27" ry="18"/>
<text text-anchor="middle" x="151.5" y="-87.3" font-family="Times New Roman,serif" font-size="14.00">d1</text>
</a>
</g>
</g>
<!-- http://example.org/d1&#45;&gt;http://example.org/list1 -->
<g id="edge9" class="edge"><title>http://example.org/d1&#45;&gt;http://example.org/list1</title>
<path fill="none" stroke="black" d="M151.418,-109.029C151.57,-127.209 152.504,-156.807 156.5,-182 159.546,-201.204 165.199,-222.384 170.012,-238.543"/>
<polygon fill="black" stroke="black" points="166.744,-239.826 173.017,-248.364 173.438,-237.778 166.744,-239.826"/>
<text text-anchor="middle" x="164.5" y="-114.468" font-family="Times New Roman,serif" font-size="8.00">der</text>
</g>
<!-- http://example.org/d1&#45;&gt;http://example.org/vlist1 -->
<g id="edge5" class="edge"><title>http://example.org/d1&#45;&gt;http://example.org/vlist1</title>
<path fill="none" stroke="darkgreen" d="M178.193,-94.6356C208.83,-99.2491 257.768,-111.841 280.5,-146 313.886,-196.169 292.726,-240.144 224.5,-332 219.893,-338.203 213.895,-343.841 207.761,-348.693"/>
<polygon fill="darkgreen" stroke="darkgreen" points="205.425,-346.065 199.429,-354.8 209.563,-351.711 205.425,-346.065"/>
<text text-anchor="middle" x="314.5" y="-218.8" font-family="Times New Roman,serif" font-size="14.00">access</text>
<text text-anchor="middle" x="314.5" y="-203.8" font-family="Times New Roman,serif" font-size="14.00">T6</text>
</g>
<!-- http://example.org/assign2 -->
<g id="node7" class="node"><title>http://example.org/assign2</title>
<g id="a_node7"><a xlink:href="http://example.org/assign2" xlink:title="assign2">
<polygon fill="#9fb1fc" stroke="#0000ff" points="109.5,-182 51.5,-182 51.5,-146 109.5,-146 109.5,-182"/>
<text text-anchor="middle" x="80.5" y="-160.3" font-family="Times New Roman,serif" font-size="14.00">assign2</text>
</a>
</g>
</g>
<!-- http://example.org/d1&#45;&gt;http://example.org/assign2 -->
<g id="edge8" class="edge"><title>http://example.org/d1&#45;&gt;http://example.org/assign2</title>
<path fill="none" stroke="black" d="M137.132,-106.368C127.848,-115.652 115.532,-127.968 104.757,-138.743"/>
<polygon fill="black" stroke="black" points="102.196,-136.355 97.5994,-145.901 107.145,-141.304 102.196,-136.355"/>
<text text-anchor="middle" x="141.014" y="-118.957" font-family="Times New Roman,serif" font-size="8.00">gen</text>
</g>
<!-- &#45;attrs2 -->
<g id="node6" class="node"><title>&#45;attrs2</title>
<polygon fill="none" stroke="gray" points="184.5,-36 112.5,-36 112.5,-0 190.5,-0 190.5,-30 184.5,-36"/>
<polyline fill="none" stroke="gray" points="184.5,-36 184.5,-30 "/>
<polyline fill="none" stroke="gray" points="190.5,-30 184.5,-30 "/>
<text text-anchor="start" x="122.5" y="-22" font-family="Times New Roman,serif" font-size="10.00">value:</text>
<text text-anchor="start" x="149.5" y="-22" font-family="Times New Roman,serif" font-size="10.00">&quot;d&quot;</text>
<text text-anchor="start" x="122.5" y="-9" font-family="Times New Roman,serif" font-size="10.00">type:</text>
<text text-anchor="start" x="149.5" y="-9" font-family="Times New Roman,serif" font-size="10.00">&quot;name&quot;</text>
</g>
<!-- &#45;attrs2&#45;&gt;http://example.org/d1 -->
<g id="edge4" class="edge"><title>&#45;attrs2&#45;&gt;http://example.org/d1</title>
<path fill="none" stroke="gray" stroke-dasharray="5,2" d="M151.5,-36.1871C151.5,-47.3501 151.5,-61.8398 151.5,-72.9712"/>
</g>
<!-- http://example.org/assign2&#45;&gt;http://example.org/list1 -->
<g id="edge7" class="edge"><title>http://example.org/assign2&#45;&gt;http://example.org/list1</title>
<path fill="none" stroke="black" d="M89.2193,-182.169C96.9114,-196.17 109.119,-215.871 123.5,-230 130.93,-237.3 140.126,-243.874 148.858,-249.302"/>
<polygon fill="black" stroke="black" points="147.307,-252.45 157.696,-254.525 150.868,-246.424 147.307,-252.45"/>
<text text-anchor="middle" x="104.218" y="-180.468" font-family="Times New Roman,serif" font-size="8.00">use</text>
</g>
<!-- &#45;attrs3 -->
<g id="node8" class="node"><title>&#45;attrs3</title>
<polygon fill="none" stroke="gray" points="100,-109 27,-109 27,-73 106,-73 106,-103 100,-109"/>
<polyline fill="none" stroke="gray" points="100,-109 100,-103 "/>
<polyline fill="none" stroke="gray" points="106,-103 100,-103 "/>
<text text-anchor="start" x="37.5" y="-88" font-family="Times New Roman,serif" font-size="10.00">type:</text>
<text text-anchor="start" x="60.5" y="-88" font-family="Times New Roman,serif" font-size="10.00">&quot;assign&quot;</text>
</g>
<!-- &#45;attrs3&#45;&gt;http://example.org/assign2 -->
<g id="edge6" class="edge"><title>&#45;attrs3&#45;&gt;http://example.org/assign2</title>
<path fill="none" stroke="gray" stroke-dasharray="5,2" d="M69.889,-109.187C72.0902,-120.35 74.9473,-134.84 77.1422,-145.971"/>
</g>
</g>
</svg>
