<?xml version="1.0" encoding="UTF-8" standalone="no"?>
<!DOCTYPE svg PUBLIC "-//W3C//DTD SVG 1.1//EN"
 "http://www.w3.org/Graphics/SVG/1.1/DTD/svg11.dtd">
<!-- Generated by graphviz version 2.38.0 (20140413.2041)
 -->
<!-- Title: PROV Pages: 1 -->
<svg width="343pt" height="394pt"
 viewBox="0.00 0.00 342.50 394.00" xmlns="http://www.w3.org/2000/svg" xmlns:xlink="http://www.w3.org/1999/xlink">
<g id="graph0" class="graph" transform="scale(1 1) rotate(0) translate(4 390)">
<title>PROV</title>
<polygon fill="white" stroke="none" points="-4,4 -4,-390 338.5,-390 338.5,4 -4,4"/>
<!-- http://example.org/list -->
<g id="node1" class="node"><title>http://example.org/list</title>
<g id="a_node1"><a xlink:href="http://example.org/list" xlink:title="list">
<ellipse fill="#fffc87" stroke="#808080" cx="178.5" cy="-266" rx="27" ry="18"/>
<text text-anchor="middle" x="178.5" y="-262.3" font-family="Times New Roman,serif" font-size="14.00">list</text>
</a>
</g>
</g>
<!-- http://example.org/vlist -->
<g id="node3" class="node"><title>http://example.org/vlist</title>
<g id="a_node3"><a xlink:href="http://example.org/vlist" xlink:title="vlist">
<ellipse fill="#32cd32" stroke="#808080" cx="177.5" cy="-368" rx="27" ry="18"/>
<text text-anchor="middle" x="177.5" y="-364.3" font-family="Times New Roman,serif" font-size="14.00">vlist</text>
</a>
</g>
</g>
<!-- http://example.org/list&#45;&gt;http://example.org/vlist -->
<g id="edge3" class="edge"><title>http://example.org/list&#45;&gt;http://example.org/vlist</title>
<path fill="none" stroke="darkgreen" d="M162.007,-280.257C155.916,-286.186 149.718,-293.711 146.5,-302 141.674,-314.429 141.773,-319.533 146.5,-332 148.359,-336.903 151.253,-341.559 154.543,-345.782"/>
<polygon fill="darkgreen" stroke="darkgreen" points="151.947,-348.131 161.185,-353.319 157.199,-343.503 151.947,-348.131"/>
<text text-anchor="middle" x="167.5" y="-320.8" font-family="Times New Roman,serif" font-size="14.00">defined</text>
<text text-anchor="middle" x="167.5" y="-305.8" font-family="Times New Roman,serif" font-size="14.00">T5</text>
</g>
<!-- &#45;attrs0 -->
<g id="node2" class="node"><title>&#45;attrs0</title>
<polygon fill="none" stroke="gray" points="264,-182 167,-182 167,-146 270,-146 270,-176 264,-182"/>
<polyline fill="none" stroke="gray" points="264,-182 264,-176 "/>
<polyline fill="none" stroke="gray" points="270,-176 264,-176 "/>
<text text-anchor="start" x="177.5" y="-168" font-family="Times New Roman,serif" font-size="10.00">label:</text>
<text text-anchor="start" x="201.5" y="-168" font-family="Times New Roman,serif" font-size="10.00">&quot;[m, m + 1, m]&quot;</text>
<text text-anchor="start" x="177.5" y="-155" font-family="Times New Roman,serif" font-size="10.00">type:</text>
<text text-anchor="start" x="201.5" y="-155" font-family="Times New Roman,serif" font-size="10.00">&quot;list&quot;</text>
</g>
<!-- &#45;attrs0&#45;&gt;http://example.org/list -->
<g id="edge1" class="edge"><title>&#45;attrs0&#45;&gt;http://example.org/list</title>
<path fill="none" stroke="gray" stroke-dasharray="5,2" d="M211.533,-182.419C204.101,-200.997 192.418,-230.205 185.122,-248.445"/>
</g>
<!-- http://example.org/vlist&#45;&gt;http://example.org/list -->
<g id="edge4" class="edge"><title>http://example.org/vlist&#45;&gt;http://example.org/list</title>
<path fill="none" stroke="darkgreen" d="M183.933,-350.157C185.794,-344.477 187.573,-338.044 188.5,-332 190.522,-318.821 190.349,-315.204 188.5,-302 188.119,-299.278 187.578,-296.47 186.944,-293.684"/>
<polygon fill="darkgreen" stroke="darkgreen" points="190.292,-292.656 184.35,-283.885 183.525,-294.448 190.292,-292.656"/>
<text text-anchor="middle" x="209" y="-320.8" font-family="Times New Roman,serif" font-size="14.00">def by</text>
<text text-anchor="middle" x="209" y="-305.8" font-family="Times New Roman,serif" font-size="14.00">T5</text>
</g>
<!-- &#45;attrs1 -->
<g id="node4" class="node"><title>&#45;attrs1</title>
<polygon fill="none" stroke="gray" points="127,-284 0,-284 0,-248 133,-248 133,-278 127,-284"/>
<polyline fill="none" stroke="gray" points="127,-284 127,-278 "/>
<polyline fill="none" stroke="gray" points="133,-278 127,-278 "/>
<text text-anchor="start" x="10.5" y="-263" font-family="Times New Roman,serif" font-size="10.00">repr:</text>
<text text-anchor="start" x="31.5" y="-263" font-family="Times New Roman,serif" font-size="10.00">&quot;[10000, 10001, 10000]&quot;</text>
</g>
<!-- &#45;attrs1&#45;&gt;http://example.org/vlist -->
<g id="edge2" class="edge"><title>&#45;attrs1&#45;&gt;http://example.org/vlist</title>
<path fill="none" stroke="gray" stroke-dasharray="5,2" d="M85.5816,-284.191C107.153,-303.624 141.864,-334.896 161.889,-352.936"/>
</g>
<!-- http://example.org/d -->
<g id="node5" class="node"><title>http://example.org/d</title>
<g id="a_node5"><a xlink:href="http://example.org/d" xlink:title="d">
<ellipse fill="#fffc87" stroke="#808080" cx="152.5" cy="-91" rx="27" ry="18"/>
<text text-anchor="middle" x="152.5" y="-87.3" font-family="Times New Roman,serif" font-size="14.00">d</text>
</a>
</g>
</g>
<!-- http://example.org/d&#45;&gt;http://example.org/list -->
<g id="edge10" class="edge"><title>http://example.org/d&#45;&gt;http://example.org/list</title>
<path fill="none" stroke="black" d="M152.474,-109.02C152.673,-127.193 153.646,-156.785 157.5,-182 160.41,-201.044 165.757,-222.079 170.326,-238.209"/>
<polygon fill="black" stroke="black" points="167.029,-239.405 173.184,-248.029 173.75,-237.449 167.029,-239.405"/>
<text text-anchor="middle" x="165.574" y="-114.428" font-family="Times New Roman,serif" font-size="8.00">der</text>
</g>
<!-- http://example.org/d&#45;&gt;http://example.org/vlist -->
<g id="edge6" class="edge"><title>http://example.org/d&#45;&gt;http://example.org/vlist</title>
<path fill="none" stroke="darkgreen" d="M179.062,-94.8122C209.255,-99.5879 257.228,-112.329 279.5,-146 311.2,-193.926 301.305,-240.691 231.5,-332 225.306,-340.102 216.663,-346.877 208.105,-352.24"/>
<polygon fill="darkgreen" stroke="darkgreen" points="206.23,-349.281 199.323,-357.315 209.733,-355.342 206.23,-349.281"/>
<text text-anchor="middle" x="315.5" y="-218.8" font-family="Times New Roman,serif" font-size="14.00">access</text>
<text text-anchor="middle" x="315.5" y="-203.8" font-family="Times New Roman,serif" font-size="14.00">T6</text>
</g>
<!-- http://example.org/assign2 -->
<g id="node7" class="node"><title>http://example.org/assign2</title>
<g id="a_node7"><a xlink:href="http://example.org/assign2" xlink:title="assign2">
<polygon fill="#9fb1fc" stroke="#0000ff" points="110.5,-182 52.5,-182 52.5,-146 110.5,-146 110.5,-182"/>
<text text-anchor="middle" x="81.5" y="-160.3" font-family="Times New Roman,serif" font-size="14.00">assign2</text>
</a>
</g>
</g>
<!-- http://example.org/d&#45;&gt;http://example.org/assign2 -->
<g id="edge9" class="edge"><title>http://example.org/d&#45;&gt;http://example.org/assign2</title>
<path fill="none" stroke="black" d="M138.132,-106.368C128.848,-115.652 116.532,-127.968 105.757,-138.743"/>
<polygon fill="black" stroke="black" points="103.196,-136.355 98.5994,-145.901 108.145,-141.304 103.196,-136.355"/>
<text text-anchor="middle" x="142.014" y="-118.957" font-family="Times New Roman,serif" font-size="8.00">gen</text>
</g>
<!-- &#45;attrs2 -->
<g id="node6" class="node"><title>&#45;attrs2</title>
<polygon fill="none" stroke="gray" points="184,-36 115,-36 115,-0 190,-0 190,-30 184,-36"/>
<polyline fill="none" stroke="gray" points="184,-36 184,-30 "/>
<polyline fill="none" stroke="gray" points="190,-30 184,-30 "/>
<text text-anchor="start" x="125.5" y="-22" font-family="Times New Roman,serif" font-size="10.00">label:</text>
<text text-anchor="start" x="149.5" y="-22" font-family="Times New Roman,serif" font-size="10.00">&quot;d&quot;</text>
<text text-anchor="start" x="125.5" y="-9" font-family="Times New Roman,serif" font-size="10.00">type:</text>
<text text-anchor="start" x="149.5" y="-9" font-family="Times New Roman,serif" font-size="10.00">&quot;name&quot;</text>
</g>
<!-- &#45;attrs2&#45;&gt;http://example.org/d -->
<g id="edge5" class="edge"><title>&#45;attrs2&#45;&gt;http://example.org/d</title>
<path fill="none" stroke="gray" stroke-dasharray="5,2" d="M152.5,-36.1871C152.5,-47.3501 152.5,-61.8398 152.5,-72.9712"/>
</g>
<!-- http://example.org/assign2&#45;&gt;http://example.org/list -->
<g id="edge8" class="edge"><title>http://example.org/assign2&#45;&gt;http://example.org/list</title>
<path fill="none" stroke="black" d="M90.2502,-182.138C97.9608,-196.12 110.178,-215.811 124.5,-230 131.745,-237.178 140.69,-243.687 149.201,-249.092"/>
<polygon fill="black" stroke="black" points="147.455,-252.126 157.824,-254.306 151.078,-246.137 147.455,-252.126"/>
<text text-anchor="middle" x="105.249" y="-180.415" font-family="Times New Roman,serif" font-size="8.00">use</text>
</g>
<!-- &#45;attrs3 -->
<g id="node8" class="node"><title>&#45;attrs3</title>
<polygon fill="none" stroke="gray" points="101,-109 28,-109 28,-73 107,-73 107,-103 101,-109"/>
<polyline fill="none" stroke="gray" points="101,-109 101,-103 "/>
<polyline fill="none" stroke="gray" points="107,-103 101,-103 "/>
<text text-anchor="start" x="38.5" y="-88" font-family="Times New Roman,serif" font-size="10.00">type:</text>
<text text-anchor="start" x="61.5" y="-88" font-family="Times New Roman,serif" font-size="10.00">&quot;assign&quot;</text>
</g>
<!-- &#45;attrs3&#45;&gt;http://example.org/assign2 -->
<g id="edge7" class="edge"><title>&#45;attrs3&#45;&gt;http://example.org/assign2</title>
<path fill="none" stroke="gray" stroke-dasharray="5,2" d="M70.889,-109.187C73.0902,-120.35 75.9473,-134.84 78.1422,-145.971"/>
</g>
</g>
</svg>
