<?xml version="1.0" encoding="UTF-8" standalone="no"?>
<!DOCTYPE svg PUBLIC "-//W3C//DTD SVG 1.1//EN"
 "http://www.w3.org/Graphics/SVG/1.1/DTD/svg11.dtd">
<!-- Generated by graphviz version 2.38.0 (20140413.2041)
 -->
<!-- Title: PROV Pages: 1 -->
<svg width="497pt" height="675pt"
 viewBox="0.00 0.00 496.50 675.00" xmlns="http://www.w3.org/2000/svg" xmlns:xlink="http://www.w3.org/1999/xlink">
<g id="graph0" class="graph" transform="scale(1 1) rotate(0) translate(4 671)">
<title>PROV</title>
<polygon fill="white" stroke="none" points="-4,4 -4,-671 492.5,-671 492.5,4 -4,4"/>
<!-- http://example.org/m1 -->
<g id="node1" class="node"><title>http://example.org/m1</title>
<g id="a_node1"><a xlink:href="http://example.org/m1" xlink:title="m1">
<ellipse fill="#fffc87" stroke="#808080" cx="393.5" cy="-91" rx="27" ry="18"/>
<text text-anchor="middle" x="393.5" y="-87.3" font-family="Times New Roman,serif" font-size="14.00">m1</text>
</a>
</g>
</g>
<!-- http://example.org/v10000 -->
<g id="node3" class="node"><title>http://example.org/v10000</title>
<g id="a_node3"><a xlink:href="http://example.org/v10000" xlink:title="v10000">
<ellipse fill="#32cd32" stroke="#808080" cx="340.5" cy="-193" rx="37.0935" ry="18"/>
<text text-anchor="middle" x="340.5" y="-189.3" font-family="Times New Roman,serif" font-size="14.00">v10000</text>
</a>
</g>
</g>
<!-- http://example.org/m1&#45;&gt;http://example.org/v10000 -->
<g id="edge3" class="edge"><title>http://example.org/m1&#45;&gt;http://example.org/v10000</title>
<path fill="none" stroke="darkgreen" d="M384.748,-108.513C376.386,-124.291 363.659,-148.303 353.998,-166.531"/>
<polygon fill="darkgreen" stroke="darkgreen" points="350.855,-164.988 349.265,-175.463 357.04,-168.266 350.855,-164.988"/>
<text text-anchor="middle" x="393.5" y="-145.8" font-family="Times New Roman,serif" font-size="14.00">access</text>
<text text-anchor="middle" x="393.5" y="-130.8" font-family="Times New Roman,serif" font-size="14.00">T2</text>
</g>
<!-- &#45;attrs0 -->
<g id="node2" class="node"><title>&#45;attrs0</title>
<polygon fill="none" stroke="gray" points="427,-36 354,-36 354,-0 433,-0 433,-30 427,-36"/>
<polyline fill="none" stroke="gray" points="427,-36 427,-30 "/>
<polyline fill="none" stroke="gray" points="433,-30 427,-30 "/>
<text text-anchor="start" x="364.5" y="-22" font-family="Times New Roman,serif" font-size="10.00">value:</text>
<text text-anchor="start" x="391.5" y="-22" font-family="Times New Roman,serif" font-size="10.00">&quot;10000&quot;</text>
<text text-anchor="start" x="364.5" y="-9" font-family="Times New Roman,serif" font-size="10.00">type:</text>
<text text-anchor="start" x="391.5" y="-9" font-family="Times New Roman,serif" font-size="10.00">&quot;name&quot;</text>
</g>
<!-- &#45;attrs0&#45;&gt;http://example.org/m1 -->
<g id="edge1" class="edge"><title>&#45;attrs0&#45;&gt;http://example.org/m1</title>
<path fill="none" stroke="gray" stroke-dasharray="5,2" d="M393.5,-36.1871C393.5,-47.3501 393.5,-61.8398 393.5,-72.9712"/>
</g>
<!-- http://example.org/list1 -->
<g id="node9" class="node"><title>http://example.org/list1</title>
<g id="a_node9"><a xlink:href="http://example.org/list1" xlink:title="list1">
<ellipse fill="#fffc87" stroke="#808080" cx="168.5" cy="-314.5" rx="27" ry="18"/>
<text text-anchor="middle" x="168.5" y="-310.8" font-family="Times New Roman,serif" font-size="14.00">list1</text>
</a>
</g>
</g>
<!-- http://example.org/v10000&#45;&gt;http://example.org/list1 -->
<g id="edge11" class="edge"><title>http://example.org/v10000&#45;&gt;http://example.org/list1</title>
<path fill="none" stroke="darkgreen" stroke-dasharray="5,2" d="M306.306,-200.555C285.129,-205.789 258.134,-214.676 237.5,-229 214.77,-244.778 195.511,-270.068 183.165,-288.874"/>
<polygon fill="darkgreen" stroke="darkgreen" points="180.083,-287.197 177.674,-297.515 185.991,-290.952 180.083,-287.197"/>
<text text-anchor="middle" x="262" y="-262.8" font-family="Times New Roman,serif" font-size="14.00">der&#45;ins&#45;e</text>
<text text-anchor="middle" x="262" y="-247.8" font-family="Times New Roman,serif" font-size="14.00">[0]</text>
<text text-anchor="middle" x="262" y="-232.8" font-family="Times New Roman,serif" font-size="14.00">T5</text>
</g>
<!-- http://example.org/v10000&#45;&gt;http://example.org/list1 -->
<g id="edge15" class="edge"><title>http://example.org/v10000&#45;&gt;http://example.org/list1</title>
<path fill="none" stroke="darkgreen" stroke-dasharray="5,2" d="M331.346,-210.485C319.41,-231.403 298.63,-265.763 286.5,-274 255.633,-294.962 239.189,-278.256 204.5,-292 201.615,-293.143 198.693,-294.501 195.826,-295.972"/>
<polygon fill="darkgreen" stroke="darkgreen" points="193.989,-292.989 186.968,-300.924 197.405,-299.099 193.989,-292.989"/>
<text text-anchor="middle" x="345" y="-262.8" font-family="Times New Roman,serif" font-size="14.00">der&#45;ins&#45;e</text>
<text text-anchor="middle" x="345" y="-247.8" font-family="Times New Roman,serif" font-size="14.00">[2]</text>
<text text-anchor="middle" x="345" y="-232.8" font-family="Times New Roman,serif" font-size="14.00">T5</text>
</g>
<!-- &#45;attrs1 -->
<g id="node4" class="node"><title>&#45;attrs1</title>
<polygon fill="none" stroke="gray" points="342,-109 275,-109 275,-73 348,-73 348,-103 342,-109"/>
<polyline fill="none" stroke="gray" points="342,-109 342,-103 "/>
<polyline fill="none" stroke="gray" points="348,-103 342,-103 "/>
<text text-anchor="start" x="285.5" y="-88" font-family="Times New Roman,serif" font-size="10.00">repr:</text>
<text text-anchor="start" x="306.5" y="-88" font-family="Times New Roman,serif" font-size="10.00">&quot;10000&quot;</text>
</g>
<!-- &#45;attrs1&#45;&gt;http://example.org/v10000 -->
<g id="edge2" class="edge"><title>&#45;attrs1&#45;&gt;http://example.org/v10000</title>
<path fill="none" stroke="gray" stroke-dasharray="5,2" d="M316.551,-109.419C321.907,-127.885 330.307,-156.853 335.603,-175.114"/>
</g>
<!-- http://example.org/sum1 -->
<g id="node5" class="node"><title>http://example.org/sum1</title>
<g id="a_node5"><a xlink:href="http://example.org/sum1" xlink:title="sum1">
<ellipse fill="#fffc87" stroke="#808080" cx="72.5" cy="-649" rx="30.5947" ry="18"/>
<text text-anchor="middle" x="72.5" y="-645.3" font-family="Times New Roman,serif" font-size="14.00">sum1</text>
</a>
</g>
</g>
<!-- http://example.org/v10001 -->
<g id="node7" class="node"><title>http://example.org/v10001</title>
<g id="a_node7"><a xlink:href="http://example.org/v10001" xlink:title="v10001">
<ellipse fill="#32cd32" stroke="#808080" cx="135.5" cy="-547" rx="37.0935" ry="18"/>
<text text-anchor="middle" x="135.5" y="-543.3" font-family="Times New Roman,serif" font-size="14.00">v10001</text>
</a>
</g>
</g>
<!-- http://example.org/sum1&#45;&gt;http://example.org/v10001 -->
<g id="edge6" class="edge"><title>http://example.org/sum1&#45;&gt;http://example.org/v10001</title>
<path fill="none" stroke="darkgreen" d="M68.3761,-631.003C65.9806,-617.104 64.9101,-597.457 73.5,-583 78.7564,-574.154 87.1506,-567.36 96.0861,-562.218"/>
<polygon fill="darkgreen" stroke="darkgreen" points="97.7909,-565.278 105.106,-557.614 94.6079,-559.043 97.7909,-565.278"/>
<text text-anchor="middle" x="94.5" y="-601.8" font-family="Times New Roman,serif" font-size="14.00">defined</text>
<text text-anchor="middle" x="94.5" y="-586.8" font-family="Times New Roman,serif" font-size="14.00">T4</text>
</g>
<!-- &#45;attrs2 -->
<g id="node6" class="node"><title>&#45;attrs2</title>
<polygon fill="none" stroke="gray" points="73,-565 0,-565 0,-529 79,-529 79,-559 73,-565"/>
<polyline fill="none" stroke="gray" points="73,-565 73,-559 "/>
<polyline fill="none" stroke="gray" points="79,-559 73,-559 "/>
<text text-anchor="start" x="10.5" y="-551" font-family="Times New Roman,serif" font-size="10.00">value:</text>
<text text-anchor="start" x="37.5" y="-551" font-family="Times New Roman,serif" font-size="10.00">&quot;10001&quot;</text>
<text text-anchor="start" x="10.5" y="-538" font-family="Times New Roman,serif" font-size="10.00">type:</text>
<text text-anchor="start" x="37.5" y="-538" font-family="Times New Roman,serif" font-size="10.00">&quot;sum&quot;</text>
</g>
<!-- &#45;attrs2&#45;&gt;http://example.org/sum1 -->
<g id="edge4" class="edge"><title>&#45;attrs2&#45;&gt;http://example.org/sum1</title>
<path fill="none" stroke="gray" stroke-dasharray="5,2" d="M41.8345,-565.211C43.9668,-578.536 47.686,-597.304 53.5,-613 55.8535,-619.354 59.1895,-625.972 62.4108,-631.721"/>
</g>
<!-- http://example.org/v10001&#45;&gt;http://example.org/sum1 -->
<g id="edge7" class="edge"><title>http://example.org/v10001&#45;&gt;http://example.org/sum1</title>
<path fill="none" stroke="darkgreen" d="M133.039,-565.208C130.425,-579.049 125.266,-598.51 115.5,-613 111.524,-618.899 106.26,-624.309 100.783,-629.021"/>
<polygon fill="darkgreen" stroke="darkgreen" points="98.3956,-626.447 92.731,-635.4 102.743,-631.934 98.3956,-626.447"/>
<text text-anchor="middle" x="147" y="-601.8" font-family="Times New Roman,serif" font-size="14.00">def by</text>
<text text-anchor="middle" x="147" y="-586.8" font-family="Times New Roman,serif" font-size="14.00">T4</text>
</g>
<!-- http://example.org/v10001&#45;&gt;http://example.org/list1 -->
<g id="edge13" class="edge"><title>http://example.org/v10001&#45;&gt;http://example.org/list1</title>
<path fill="none" stroke="darkgreen" stroke-dasharray="5,2" d="M136.83,-528.767C139.589,-495.147 146.682,-418.538 158.5,-355 159.286,-350.775 160.262,-346.331 161.294,-342.009"/>
<polygon fill="darkgreen" stroke="darkgreen" points="164.688,-342.862 163.738,-332.31 157.9,-341.151 164.688,-342.862"/>
<text text-anchor="middle" x="176" y="-436.8" font-family="Times New Roman,serif" font-size="14.00">der&#45;ins&#45;e</text>
<text text-anchor="middle" x="176" y="-421.8" font-family="Times New Roman,serif" font-size="14.00">[1]</text>
<text text-anchor="middle" x="176" y="-406.8" font-family="Times New Roman,serif" font-size="14.00">T5</text>
</g>
<!-- &#45;attrs3 -->
<g id="node8" class="node"><title>&#45;attrs3</title>
<polygon fill="none" stroke="gray" points="93,-443.5 26,-443.5 26,-407.5 99,-407.5 99,-437.5 93,-443.5"/>
<polyline fill="none" stroke="gray" points="93,-443.5 93,-437.5 "/>
<polyline fill="none" stroke="gray" points="99,-437.5 93,-437.5 "/>
<text text-anchor="start" x="36.5" y="-422.5" font-family="Times New Roman,serif" font-size="10.00">repr:</text>
<text text-anchor="start" x="57.5" y="-422.5" font-family="Times New Roman,serif" font-size="10.00">&quot;10001&quot;</text>
</g>
<!-- &#45;attrs3&#45;&gt;http://example.org/v10001 -->
<g id="edge5" class="edge"><title>&#45;attrs3&#45;&gt;http://example.org/v10001</title>
<path fill="none" stroke="gray" stroke-dasharray="5,2" d="M72.9591,-443.621C86.9153,-466.467 111.47,-506.663 125.296,-529.296"/>
</g>
<!-- http://example.org/vlist1 -->
<g id="node11" class="node"><title>http://example.org/vlist1</title>
<g id="a_node11"><a xlink:href="http://example.org/vlist1" xlink:title="vlist1">
<ellipse fill="#32cd32" stroke="#808080" cx="259.5" cy="-425.5" rx="29.795" ry="18"/>
<text text-anchor="middle" x="259.5" y="-421.8" font-family="Times New Roman,serif" font-size="14.00">vlist1</text>
</a>
</g>
</g>
<!-- http://example.org/list1&#45;&gt;http://example.org/vlist1 -->
<g id="edge16" class="edge"><title>http://example.org/list1&#45;&gt;http://example.org/vlist1</title>
<path fill="none" stroke="darkgreen" d="M163.957,-332.433C160.951,-347.51 159.226,-369.515 169.5,-385 175.992,-394.785 201.518,-405.466 223.734,-413.251"/>
<polygon fill="darkgreen" stroke="darkgreen" points="222.713,-416.6 233.307,-416.505 224.965,-409.973 222.713,-416.6"/>
<text text-anchor="middle" x="190.5" y="-373.8" font-family="Times New Roman,serif" font-size="14.00">defined</text>
<text text-anchor="middle" x="190.5" y="-358.8" font-family="Times New Roman,serif" font-size="14.00">T5</text>
</g>
<!-- &#45;attrs4 -->
<g id="node10" class="node"><title>&#45;attrs4</title>
<polygon fill="none" stroke="gray" points="215.5,-211 115.5,-211 115.5,-175 221.5,-175 221.5,-205 215.5,-211"/>
<polyline fill="none" stroke="gray" points="215.5,-211 215.5,-205 "/>
<polyline fill="none" stroke="gray" points="221.5,-205 215.5,-205 "/>
<text text-anchor="start" x="125.5" y="-197" font-family="Times New Roman,serif" font-size="10.00">value:</text>
<text text-anchor="start" x="152.5" y="-197" font-family="Times New Roman,serif" font-size="10.00">&quot;[m, m + 1, m]&quot;</text>
<text text-anchor="start" x="125.5" y="-184" font-family="Times New Roman,serif" font-size="10.00">type:</text>
<text text-anchor="start" x="152.5" y="-184" font-family="Times New Roman,serif" font-size="10.00">&quot;list&quot;</text>
</g>
<!-- &#45;attrs4&#45;&gt;http://example.org/list1 -->
<g id="edge8" class="edge"><title>&#45;attrs4&#45;&gt;http://example.org/list1</title>
<path fill="none" stroke="gray" stroke-dasharray="5,2" d="M168.5,-211.121C168.5,-233.838 168.5,-273.709 168.5,-296.41"/>
</g>
<!-- http://example.org/vlist1&#45;&gt;http://example.org/v10000 -->
<g id="edge10" class="edge"><title>http://example.org/vlist1&#45;&gt;http://example.org/v10000</title>
<path fill="none" stroke="darkgreen" d="M279.694,-412.043C302.132,-397.087 337.675,-369.865 356.5,-337 380.529,-295.048 385.894,-274.482 369.5,-229 368.025,-224.908 365.84,-220.955 363.32,-217.271"/>
<polygon fill="darkgreen" stroke="darkgreen" points="365.934,-214.933 357.008,-209.226 360.427,-219.254 365.934,-214.933"/>
<text text-anchor="middle" x="400.5" y="-325.8" font-family="Times New Roman,serif" font-size="14.00">der&#45;ins&#45;v</text>
<text text-anchor="middle" x="400.5" y="-310.8" font-family="Times New Roman,serif" font-size="14.00">[0]</text>
<text text-anchor="middle" x="400.5" y="-295.8" font-family="Times New Roman,serif" font-size="14.00">T5</text>
</g>
<!-- http://example.org/vlist1&#45;&gt;http://example.org/v10000 -->
<g id="edge14" class="edge"><title>http://example.org/vlist1&#45;&gt;http://example.org/v10000</title>
<path fill="none" stroke="darkgreen" d="M287.854,-419.474C327.817,-410.684 399.209,-388.309 429.5,-337 455.683,-292.65 422.957,-266.353 387.5,-229 382.396,-223.623 376.389,-218.471 370.407,-213.851"/>
<polygon fill="darkgreen" stroke="darkgreen" points="372.478,-211.03 362.352,-207.911 368.323,-216.663 372.478,-211.03"/>
<text text-anchor="middle" x="463.5" y="-325.8" font-family="Times New Roman,serif" font-size="14.00">der&#45;ins&#45;v</text>
<text text-anchor="middle" x="463.5" y="-310.8" font-family="Times New Roman,serif" font-size="14.00">[2]</text>
<text text-anchor="middle" x="463.5" y="-295.8" font-family="Times New Roman,serif" font-size="14.00">T5</text>
</g>
<!-- http://example.org/vlist1&#45;&gt;http://example.org/v10001 -->
<g id="edge12" class="edge"><title>http://example.org/vlist1&#45;&gt;http://example.org/v10001</title>
<path fill="none" stroke="darkgreen" d="M244.295,-441.153C222.962,-461.712 183.957,-499.302 158.907,-523.443"/>
<polygon fill="darkgreen" stroke="darkgreen" points="156.387,-521.01 151.615,-530.469 161.245,-526.05 156.387,-521.01"/>
<text text-anchor="middle" x="241.5" y="-499.8" font-family="Times New Roman,serif" font-size="14.00">der&#45;ins&#45;v</text>
<text text-anchor="middle" x="241.5" y="-484.8" font-family="Times New Roman,serif" font-size="14.00">[1]</text>
<text text-anchor="middle" x="241.5" y="-469.8" font-family="Times New Roman,serif" font-size="14.00">T5</text>
</g>
<!-- http://example.org/vlist1&#45;&gt;http://example.org/list1 -->
<g id="edge17" class="edge"><title>http://example.org/vlist1&#45;&gt;http://example.org/list1</title>
<path fill="none" stroke="darkgreen" d="M247.677,-408.916C242.316,-401.719 235.968,-393.01 230.5,-385 221.602,-371.965 221.621,-367.11 211.5,-355 205.924,-348.328 199.256,-341.692 192.855,-335.818"/>
<polygon fill="darkgreen" stroke="darkgreen" points="194.794,-332.859 184.992,-328.838 190.147,-338.094 194.794,-332.859"/>
<text text-anchor="middle" x="249" y="-373.8" font-family="Times New Roman,serif" font-size="14.00">def by</text>
<text text-anchor="middle" x="249" y="-358.8" font-family="Times New Roman,serif" font-size="14.00">T5</text>
</g>
<!-- &#45;attrs5 -->
<g id="node12" class="node"><title>&#45;attrs5</title>
<polygon fill="none" stroke="gray" points="341,-332.5 214,-332.5 214,-296.5 347,-296.5 347,-326.5 341,-332.5"/>
<polyline fill="none" stroke="gray" points="341,-332.5 341,-326.5 "/>
<polyline fill="none" stroke="gray" points="347,-326.5 341,-326.5 "/>
<text text-anchor="start" x="224.5" y="-311.5" font-family="Times New Roman,serif" font-size="10.00">repr:</text>
<text text-anchor="start" x="245.5" y="-311.5" font-family="Times New Roman,serif" font-size="10.00">&quot;[10000, 10001, 10000]&quot;</text>
</g>
<!-- &#45;attrs5&#45;&gt;http://example.org/vlist1 -->
<g id="edge9" class="edge"><title>&#45;attrs5&#45;&gt;http://example.org/vlist1</title>
<path fill="none" stroke="gray" stroke-dasharray="5,2" d="M279.068,-332.772C277.703,-346.918 275.286,-367.396 271.5,-385 269.872,-392.567 267.482,-400.78 265.263,-407.747"/>
</g>
</g>
</svg>
