<?xml version="1.0" encoding="UTF-8" standalone="no"?>
<!DOCTYPE svg PUBLIC "-//W3C//DTD SVG 1.1//EN"
 "http://www.w3.org/Graphics/SVG/1.1/DTD/svg11.dtd">
<!-- Generated by graphviz version 2.38.0 (20140413.2041)
 -->
<!-- Title: PROV Pages: 1 -->
<svg width="1152pt" height="212pt"
 viewBox="0.00 0.00 1152.00 211.92" xmlns="http://www.w3.org/2000/svg" xmlns:xlink="http://www.w3.org/1999/xlink">
<g id="graph0" class="graph" transform="scale(0.967661 0.967661) rotate(0) translate(4 215)">
<title>PROV</title>
<polygon fill="white" stroke="none" points="-4,4 -4,-215 1186.5,-215 1186.5,4 -4,4"/>
<!-- http://example.org/n1 -->
<g id="node1" class="node"><title>http://example.org/n1</title>
<g id="a_node1"><a xlink:href="http://example.org/n1" xlink:title="n1">
<ellipse fill="#fffc87" stroke="#808080" cx="100.5" cy="-91" rx="27" ry="18"/>
<text text-anchor="middle" x="100.5" y="-87.3" font-family="Times New Roman,serif" font-size="14.00">n1</text>
</a>
</g>
</g>
<!-- http://example.org/v1 -->
<g id="node3" class="node"><title>http://example.org/v1</title>
<g id="a_node3"><a xlink:href="http://example.org/v1" xlink:title="v1">
<ellipse fill="#32cd32" stroke="#808080" cx="54.5" cy="-193" rx="27" ry="18"/>
<text text-anchor="middle" x="54.5" y="-189.3" font-family="Times New Roman,serif" font-size="14.00">v1</text>
</a>
</g>
</g>
<!-- http://example.org/n1&#45;&gt;http://example.org/v1 -->
<g id="edge3" class="edge"><title>http://example.org/n1&#45;&gt;http://example.org/v1</title>
<path fill="none" stroke="darkgreen" d="M88.682,-117.691C81.8175,-132.614 73.1968,-151.355 66.3302,-166.282"/>
<polygon fill="darkgreen" stroke="darkgreen" points="91.9046,-119.061 92.904,-108.513 85.5452,-116.135 91.9046,-119.061"/>
<polygon fill="darkgreen" stroke="darkgreen" points="63.1066,-164.915 62.1072,-175.463 69.4661,-167.84 63.1066,-164.915"/>
<text text-anchor="middle" x="144" y="-145.8" font-family="Times New Roman,serif" font-size="14.00">defined</text>
<text text-anchor="middle" x="144" y="-130.8" font-family="Times New Roman,serif" font-size="14.00">2018&#45;02&#45;22T16:00:00</text>
</g>
<!-- &#45;attrs0 -->
<g id="node2" class="node"><title>&#45;attrs0</title>
<polygon fill="none" stroke="gray" points="133.5,-36 61.5,-36 61.5,-0 139.5,-0 139.5,-30 133.5,-36"/>
<polyline fill="none" stroke="gray" points="133.5,-36 133.5,-30 "/>
<polyline fill="none" stroke="gray" points="139.5,-30 133.5,-30 "/>
<text text-anchor="start" x="71.5" y="-22" font-family="Times New Roman,serif" font-size="10.00">value:</text>
<text text-anchor="start" x="98.5" y="-22" font-family="Times New Roman,serif" font-size="10.00">&quot;1&quot;</text>
<text text-anchor="start" x="71.5" y="-9" font-family="Times New Roman,serif" font-size="10.00">type:</text>
<text text-anchor="start" x="98.5" y="-9" font-family="Times New Roman,serif" font-size="10.00">&quot;literal&quot;</text>
</g>
<!-- &#45;attrs0&#45;&gt;http://example.org/n1 -->
<g id="edge1" class="edge"><title>&#45;attrs0&#45;&gt;http://example.org/n1</title>
<path fill="none" stroke="gray" stroke-dasharray="5,2" d="M100.5,-36.1871C100.5,-47.3501 100.5,-61.8398 100.5,-72.9712"/>
</g>
<!-- &#45;attrs1 -->
<g id="node4" class="node"><title>&#45;attrs1</title>
<polygon fill="none" stroke="gray" points="49,-109 0,-109 0,-73 55,-73 55,-103 49,-109"/>
<polyline fill="none" stroke="gray" points="49,-109 49,-103 "/>
<polyline fill="none" stroke="gray" points="55,-103 49,-103 "/>
<text text-anchor="start" x="10.5" y="-88" font-family="Times New Roman,serif" font-size="10.00">repr:</text>
<text text-anchor="start" x="31.5" y="-88" font-family="Times New Roman,serif" font-size="10.00">&quot;1&quot;</text>
</g>
<!-- &#45;attrs1&#45;&gt;http://example.org/v1 -->
<g id="edge2" class="edge"><title>&#45;attrs1&#45;&gt;http://example.org/v1</title>
<path fill="none" stroke="gray" stroke-dasharray="5,2" d="M32.203,-109.419C37.1889,-127.885 45.0103,-156.853 49.9408,-175.114"/>
</g>
<!-- http://example.org/a1 -->
<g id="node5" class="node"><title>http://example.org/a1</title>
<g id="a_node5"><a xlink:href="http://example.org/a1" xlink:title="a1">
<ellipse fill="#fffc87" stroke="#808080" cx="288.5" cy="-91" rx="27" ry="18"/>
<text text-anchor="middle" x="288.5" y="-87.3" font-family="Times New Roman,serif" font-size="14.00">a1</text>
</a>
</g>
</g>
<!-- http://example.org/va -->
<g id="node7" class="node"><title>http://example.org/va</title>
<g id="a_node7"><a xlink:href="http://example.org/va" xlink:title="va">
<ellipse fill="#32cd32" stroke="#808080" cx="240.5" cy="-193" rx="27" ry="18"/>
<text text-anchor="middle" x="240.5" y="-189.3" font-family="Times New Roman,serif" font-size="14.00">va</text>
</a>
</g>
</g>
<!-- http://example.org/a1&#45;&gt;http://example.org/va -->
<g id="edge6" class="edge"><title>http://example.org/a1&#45;&gt;http://example.org/va</title>
<path fill="none" stroke="darkgreen" d="M276.168,-117.691C269.005,-132.614 260.01,-151.355 252.845,-166.282"/>
<polygon fill="darkgreen" stroke="darkgreen" points="279.402,-119.043 280.574,-108.513 273.091,-116.014 279.402,-119.043"/>
<polygon fill="darkgreen" stroke="darkgreen" points="249.61,-164.933 248.438,-175.463 255.921,-167.962 249.61,-164.933"/>
<text text-anchor="middle" x="332" y="-145.8" font-family="Times New Roman,serif" font-size="14.00">defined</text>
<text text-anchor="middle" x="332" y="-130.8" font-family="Times New Roman,serif" font-size="14.00">2018&#45;02&#45;22T16:00:01</text>
</g>
<!-- &#45;attrs2 -->
<g id="node6" class="node"><title>&#45;attrs2</title>
<polygon fill="none" stroke="gray" points="321.5,-36 249.5,-36 249.5,-0 327.5,-0 327.5,-30 321.5,-36"/>
<polyline fill="none" stroke="gray" points="321.5,-36 321.5,-30 "/>
<polyline fill="none" stroke="gray" points="327.5,-30 321.5,-30 "/>
<text text-anchor="start" x="259.5" y="-22" font-family="Times New Roman,serif" font-size="10.00">value:</text>
<text text-anchor="start" x="286.5" y="-22" font-family="Times New Roman,serif" font-size="10.00">&quot;&#39;a&#39;&quot;</text>
<text text-anchor="start" x="259.5" y="-9" font-family="Times New Roman,serif" font-size="10.00">type:</text>
<text text-anchor="start" x="286.5" y="-9" font-family="Times New Roman,serif" font-size="10.00">&quot;literal&quot;</text>
</g>
<!-- &#45;attrs2&#45;&gt;http://example.org/a1 -->
<g id="edge4" class="edge"><title>&#45;attrs2&#45;&gt;http://example.org/a1</title>
<path fill="none" stroke="gray" stroke-dasharray="5,2" d="M288.5,-36.1871C288.5,-47.3501 288.5,-61.8398 288.5,-72.9712"/>
</g>
<!-- &#45;attrs3 -->
<g id="node8" class="node"><title>&#45;attrs3</title>
<polygon fill="none" stroke="gray" points="237.5,-109 185.5,-109 185.5,-73 243.5,-73 243.5,-103 237.5,-109"/>
<polyline fill="none" stroke="gray" points="237.5,-109 237.5,-103 "/>
<polyline fill="none" stroke="gray" points="243.5,-103 237.5,-103 "/>
<text text-anchor="start" x="195.5" y="-88" font-family="Times New Roman,serif" font-size="10.00">repr:</text>
<text text-anchor="start" x="216.5" y="-88" font-family="Times New Roman,serif" font-size="10.00">&quot;&#39;a&#39;&quot;</text>
</g>
<!-- &#45;attrs3&#45;&gt;http://example.org/va -->
<g id="edge5" class="edge"><title>&#45;attrs3&#45;&gt;http://example.org/va</title>
<path fill="none" stroke="gray" stroke-dasharray="5,2" d="M219.029,-109.419C223.83,-127.885 231.362,-156.853 236.11,-175.114"/>
</g>
<!-- http://example.org/a2 -->
<g id="node9" class="node"><title>http://example.org/a2</title>
<g id="a_node9"><a xlink:href="http://example.org/a2" xlink:title="a2">
<ellipse fill="#fffc87" stroke="#808080" cx="478.5" cy="-91" rx="27" ry="18"/>
<text text-anchor="middle" x="478.5" y="-87.3" font-family="Times New Roman,serif" font-size="14.00">a2</text>
</a>
</g>
</g>
<!-- http://example.org/vba -->
<g id="node11" class="node"><title>http://example.org/vba</title>
<g id="a_node11"><a xlink:href="http://example.org/vba" xlink:title="vba">
<ellipse fill="#32cd32" stroke="#808080" cx="428.5" cy="-193" rx="27" ry="18"/>
<text text-anchor="middle" x="428.5" y="-189.3" font-family="Times New Roman,serif" font-size="14.00">vba</text>
</a>
</g>
</g>
<!-- http://example.org/a2&#45;&gt;http://example.org/vba -->
<g id="edge9" class="edge"><title>http://example.org/a2&#45;&gt;http://example.org/vba</title>
<path fill="none" stroke="darkgreen" d="M465.751,-117.497C458.227,-132.545 448.737,-151.526 441.218,-166.563"/>
<polygon fill="darkgreen" stroke="darkgreen" points="468.902,-119.023 470.244,-108.513 462.641,-115.892 468.902,-119.023"/>
<polygon fill="darkgreen" stroke="darkgreen" points="437.945,-165.285 436.603,-175.794 444.206,-168.415 437.945,-165.285"/>
<text text-anchor="middle" x="521" y="-145.8" font-family="Times New Roman,serif" font-size="14.00">defined</text>
<text text-anchor="middle" x="521" y="-130.8" font-family="Times New Roman,serif" font-size="14.00">2018&#45;02&#45;22T16:00:02</text>
</g>
<!-- &#45;attrs4 -->
<g id="node10" class="node"><title>&#45;attrs4</title>
<polygon fill="none" stroke="gray" points="511.5,-36 439.5,-36 439.5,-0 517.5,-0 517.5,-30 511.5,-36"/>
<polyline fill="none" stroke="gray" points="511.5,-36 511.5,-30 "/>
<polyline fill="none" stroke="gray" points="517.5,-30 511.5,-30 "/>
<text text-anchor="start" x="449.5" y="-22" font-family="Times New Roman,serif" font-size="10.00">value:</text>
<text text-anchor="start" x="476.5" y="-22" font-family="Times New Roman,serif" font-size="10.00">&quot;b&#39;a&#39;&quot;</text>
<text text-anchor="start" x="449.5" y="-9" font-family="Times New Roman,serif" font-size="10.00">type:</text>
<text text-anchor="start" x="476.5" y="-9" font-family="Times New Roman,serif" font-size="10.00">&quot;literal&quot;</text>
</g>
<!-- &#45;attrs4&#45;&gt;http://example.org/a2 -->
<g id="edge7" class="edge"><title>&#45;attrs4&#45;&gt;http://example.org/a2</title>
<path fill="none" stroke="gray" stroke-dasharray="5,2" d="M478.5,-36.1871C478.5,-47.3501 478.5,-61.8398 478.5,-72.9712"/>
</g>
<!-- &#45;attrs5 -->
<g id="node12" class="node"><title>&#45;attrs5</title>
<polygon fill="none" stroke="gray" points="427,-109 370,-109 370,-73 433,-73 433,-103 427,-109"/>
<polyline fill="none" stroke="gray" points="427,-109 427,-103 "/>
<polyline fill="none" stroke="gray" points="433,-103 427,-103 "/>
<text text-anchor="start" x="380.5" y="-88" font-family="Times New Roman,serif" font-size="10.00">repr:</text>
<text text-anchor="start" x="401.5" y="-88" font-family="Times New Roman,serif" font-size="10.00">&quot;b&#39;a&#39;&quot;</text>
</g>
<!-- &#45;attrs5&#45;&gt;http://example.org/vba -->
<g id="edge8" class="edge"><title>&#45;attrs5&#45;&gt;http://example.org/vba</title>
<path fill="none" stroke="gray" stroke-dasharray="5,2" d="M406.203,-109.419C411.189,-127.885 419.01,-156.853 423.941,-175.114"/>
</g>
<!-- http://example.org/true1 -->
<g id="node13" class="node"><title>http://example.org/true1</title>
<g id="a_node13"><a xlink:href="http://example.org/true1" xlink:title="true1">
<ellipse fill="#fffc87" stroke="#808080" cx="671.5" cy="-91" rx="28.6953" ry="18"/>
<text text-anchor="middle" x="671.5" y="-87.3" font-family="Times New Roman,serif" font-size="14.00">true1</text>
</a>
</g>
</g>
<!-- http://example.org/vtrue -->
<g id="node15" class="node"><title>http://example.org/vtrue</title>
<g id="a_node15"><a xlink:href="http://example.org/vtrue" xlink:title="vtrue">
<ellipse fill="#32cd32" stroke="#808080" cx="613.5" cy="-193" rx="28.6953" ry="18"/>
<text text-anchor="middle" x="613.5" y="-189.3" font-family="Times New Roman,serif" font-size="14.00">vtrue</text>
</a>
</g>
</g>
<!-- http://example.org/true1&#45;&gt;http://example.org/vtrue -->
<g id="edge12" class="edge"><title>http://example.org/true1&#45;&gt;http://example.org/vtrue</title>
<path fill="none" stroke="darkgreen" d="M657.096,-116.834C648.215,-132.146 636.864,-151.717 627.971,-167.05"/>
<polygon fill="darkgreen" stroke="darkgreen" points="660.192,-118.473 662.181,-108.067 654.136,-114.961 660.192,-118.473"/>
<polygon fill="darkgreen" stroke="darkgreen" points="624.785,-165.567 622.796,-175.973 630.84,-169.079 624.785,-165.567"/>
<text text-anchor="middle" x="711" y="-145.8" font-family="Times New Roman,serif" font-size="14.00">defined</text>
<text text-anchor="middle" x="711" y="-130.8" font-family="Times New Roman,serif" font-size="14.00">2018&#45;02&#45;22T16:00:03</text>
</g>
<!-- &#45;attrs6 -->
<g id="node14" class="node"><title>&#45;attrs6</title>
<polygon fill="none" stroke="gray" points="711.5,-36 625.5,-36 625.5,-0 717.5,-0 717.5,-30 711.5,-36"/>
<polyline fill="none" stroke="gray" points="711.5,-36 711.5,-30 "/>
<polyline fill="none" stroke="gray" points="717.5,-30 711.5,-30 "/>
<text text-anchor="start" x="635.5" y="-22" font-family="Times New Roman,serif" font-size="10.00">value:</text>
<text text-anchor="start" x="662.5" y="-22" font-family="Times New Roman,serif" font-size="10.00">&quot;True&quot;</text>
<text text-anchor="start" x="635.5" y="-9" font-family="Times New Roman,serif" font-size="10.00">type:</text>
<text text-anchor="start" x="662.5" y="-9" font-family="Times New Roman,serif" font-size="10.00">&quot;constant&quot;</text>
</g>
<!-- &#45;attrs6&#45;&gt;http://example.org/true1 -->
<g id="edge10" class="edge"><title>&#45;attrs6&#45;&gt;http://example.org/true1</title>
<path fill="none" stroke="gray" stroke-dasharray="5,2" d="M671.5,-36.1871C671.5,-47.3501 671.5,-61.8398 671.5,-72.9712"/>
</g>
<!-- &#45;attrs7 -->
<g id="node16" class="node"><title>&#45;attrs7</title>
<polygon fill="none" stroke="gray" points="619,-109 556,-109 556,-73 625,-73 625,-103 619,-109"/>
<polyline fill="none" stroke="gray" points="619,-109 619,-103 "/>
<polyline fill="none" stroke="gray" points="625,-103 619,-103 "/>
<text text-anchor="start" x="566.5" y="-88" font-family="Times New Roman,serif" font-size="10.00">repr:</text>
<text text-anchor="start" x="587.5" y="-88" font-family="Times New Roman,serif" font-size="10.00">&quot;True&quot;</text>
</g>
<!-- &#45;attrs7&#45;&gt;http://example.org/vtrue -->
<g id="edge11" class="edge"><title>&#45;attrs7&#45;&gt;http://example.org/vtrue</title>
<path fill="none" stroke="gray" stroke-dasharray="5,2" d="M594.506,-109.419C598.754,-127.885 605.416,-156.853 609.616,-175.114"/>
</g>
<!-- http://example.org/int1 -->
<g id="node17" class="node"><title>http://example.org/int1</title>
<g id="a_node17"><a xlink:href="http://example.org/int1" xlink:title="int1">
<ellipse fill="#fffc87" stroke="#808080" cx="879.5" cy="-91" rx="27" ry="18"/>
<text text-anchor="middle" x="879.5" y="-87.3" font-family="Times New Roman,serif" font-size="14.00">int1</text>
</a>
</g>
</g>
<!-- http://example.org/vint -->
<g id="node19" class="node"><title>http://example.org/vint</title>
<g id="a_node19"><a xlink:href="http://example.org/vint" xlink:title="vint">
<ellipse fill="#32cd32" stroke="#808080" cx="810.5" cy="-193" rx="27" ry="18"/>
<text text-anchor="middle" x="810.5" y="-189.3" font-family="Times New Roman,serif" font-size="14.00">vint</text>
</a>
</g>
</g>
<!-- http://example.org/int1&#45;&gt;http://example.org/vint -->
<g id="edge15" class="edge"><title>http://example.org/int1&#45;&gt;http://example.org/vint</title>
<path fill="none" stroke="darkgreen" d="M862.997,-115.918C852.238,-131.51 838.237,-151.802 827.4,-167.508"/>
<polygon fill="darkgreen" stroke="darkgreen" points="865.92,-117.844 868.719,-107.625 860.159,-113.868 865.92,-117.844"/>
<polygon fill="darkgreen" stroke="darkgreen" points="824.232,-165.936 821.433,-176.155 829.993,-169.912 824.232,-165.936"/>
<text text-anchor="middle" x="915" y="-145.8" font-family="Times New Roman,serif" font-size="14.00">defined</text>
<text text-anchor="middle" x="915" y="-130.8" font-family="Times New Roman,serif" font-size="14.00">2018&#45;02&#45;22T16:00:04</text>
</g>
<!-- &#45;attrs8 -->
<g id="node18" class="node"><title>&#45;attrs8</title>
<polygon fill="none" stroke="gray" points="912.5,-36 840.5,-36 840.5,-0 918.5,-0 918.5,-30 912.5,-36"/>
<polyline fill="none" stroke="gray" points="912.5,-36 912.5,-30 "/>
<polyline fill="none" stroke="gray" points="918.5,-30 912.5,-30 "/>
<text text-anchor="start" x="850.5" y="-22" font-family="Times New Roman,serif" font-size="10.00">value:</text>
<text text-anchor="start" x="877.5" y="-22" font-family="Times New Roman,serif" font-size="10.00">&quot;int&quot;</text>
<text text-anchor="start" x="850.5" y="-9" font-family="Times New Roman,serif" font-size="10.00">type:</text>
<text text-anchor="start" x="877.5" y="-9" font-family="Times New Roman,serif" font-size="10.00">&quot;name&quot;</text>
</g>
<!-- &#45;attrs8&#45;&gt;http://example.org/int1 -->
<g id="edge13" class="edge"><title>&#45;attrs8&#45;&gt;http://example.org/int1</title>
<path fill="none" stroke="gray" stroke-dasharray="5,2" d="M879.5,-36.1871C879.5,-47.3501 879.5,-61.8398 879.5,-72.9712"/>
</g>
<!-- &#45;attrs9 -->
<g id="node20" class="node"><title>&#45;attrs9</title>
<polygon fill="none" stroke="gray" points="828,-109 737,-109 737,-73 834,-73 834,-103 828,-109"/>
<polyline fill="none" stroke="gray" points="828,-109 828,-103 "/>
<polyline fill="none" stroke="gray" points="834,-103 828,-103 "/>
<text text-anchor="start" x="747.5" y="-88" font-family="Times New Roman,serif" font-size="10.00">repr:</text>
<text text-anchor="start" x="768.5" y="-88" font-family="Times New Roman,serif" font-size="10.00">&quot;&lt;class &#39;int&#39;&gt;&quot;</text>
</g>
<!-- &#45;attrs9&#45;&gt;http://example.org/vint -->
<g id="edge14" class="edge"><title>&#45;attrs9&#45;&gt;http://example.org/vint</title>
<path fill="none" stroke="gray" stroke-dasharray="5,2" d="M789.855,-109.419C794.471,-127.885 801.713,-156.853 806.279,-175.114"/>
</g>
<!-- http://example.org/ellipsis1 -->
<g id="node21" class="node"><title>http://example.org/ellipsis1</title>
<g id="a_node21"><a xlink:href="http://example.org/ellipsis1" xlink:title="ellipsis1">
<ellipse fill="#fffc87" stroke="#808080" cx="1085.5" cy="-91" rx="39.7935" ry="18"/>
<text text-anchor="middle" x="1085.5" y="-87.3" font-family="Times New Roman,serif" font-size="14.00">ellipsis1</text>
</a>
</g>
</g>
<!-- http://example.org/vellipsis -->
<g id="node23" class="node"><title>http://example.org/vellipsis</title>
<g id="a_node23"><a xlink:href="http://example.org/vellipsis" xlink:title="vellipsis">
<ellipse fill="#32cd32" stroke="#808080" cx="1020.5" cy="-193" rx="39.7935" ry="18"/>
<text text-anchor="middle" x="1020.5" y="-189.3" font-family="Times New Roman,serif" font-size="14.00">vellipsis</text>
</a>
</g>
</g>
<!-- http://example.org/ellipsis1&#45;&gt;http://example.org/vellipsis -->
<g id="edge18" class="edge"><title>http://example.org/ellipsis1&#45;&gt;http://example.org/vellipsis</title>
<path fill="none" stroke="darkgreen" d="M1069.29,-116.94C1059.36,-132.222 1046.68,-151.717 1036.74,-167.008"/>
<polygon fill="darkgreen" stroke="darkgreen" points="1072.25,-118.805 1074.77,-108.513 1066.38,-114.99 1072.25,-118.805"/>
<polygon fill="darkgreen" stroke="darkgreen" points="1033.76,-165.171 1031.25,-175.463 1039.63,-168.986 1033.76,-165.171"/>
<text text-anchor="middle" x="1123" y="-145.8" font-family="Times New Roman,serif" font-size="14.00">defined</text>
<text text-anchor="middle" x="1123" y="-130.8" font-family="Times New Roman,serif" font-size="14.00">2018&#45;02&#45;22T16:00:05</text>
</g>
<!-- &#45;attrs10 -->
<g id="node22" class="node"><title>&#45;attrs10</title>
<polygon fill="none" stroke="gray" points="1125.5,-36 1039.5,-36 1039.5,-0 1131.5,-0 1131.5,-30 1125.5,-36"/>
<polyline fill="none" stroke="gray" points="1125.5,-36 1125.5,-30 "/>
<polyline fill="none" stroke="gray" points="1131.5,-30 1125.5,-30 "/>
<text text-anchor="start" x="1049.5" y="-22" font-family="Times New Roman,serif" font-size="10.00">value:</text>
<text text-anchor="start" x="1076.5" y="-22" font-family="Times New Roman,serif" font-size="10.00">&quot;...&quot;</text>
<text text-anchor="start" x="1049.5" y="-9" font-family="Times New Roman,serif" font-size="10.00">type:</text>
<text text-anchor="start" x="1076.5" y="-9" font-family="Times New Roman,serif" font-size="10.00">&quot;constant&quot;</text>
</g>
<!-- &#45;attrs10&#45;&gt;http://example.org/ellipsis1 -->
<g id="edge16" class="edge"><title>&#45;attrs10&#45;&gt;http://example.org/ellipsis1</title>
<path fill="none" stroke="gray" stroke-dasharray="5,2" d="M1085.5,-36.1871C1085.5,-47.3501 1085.5,-61.8398 1085.5,-72.9712"/>
</g>
<!-- &#45;attrs11 -->
<g id="node24" class="node"><title>&#45;attrs11</title>
<polygon fill="none" stroke="gray" points="1022,-109 949,-109 949,-73 1028,-73 1028,-103 1022,-109"/>
<polyline fill="none" stroke="gray" points="1022,-109 1022,-103 "/>
<polyline fill="none" stroke="gray" points="1028,-103 1022,-103 "/>
<text text-anchor="start" x="959.5" y="-88" font-family="Times New Roman,serif" font-size="10.00">repr:</text>
<text text-anchor="start" x="980.5" y="-88" font-family="Times New Roman,serif" font-size="10.00">&quot;Ellipsis&quot;</text>
</g>
<!-- &#45;attrs11&#45;&gt;http://example.org/vellipsis -->
<g id="edge17" class="edge"><title>&#45;attrs11&#45;&gt;http://example.org/vellipsis</title>
<path fill="none" stroke="gray" stroke-dasharray="5,2" d="M994.074,-109.419C999.983,-127.885 1009.25,-156.853 1015.1,-175.114"/>
</g>
</g>
</svg>
