<?xml version="1.0" encoding="UTF-8" standalone="no"?>
<!DOCTYPE svg PUBLIC "-//W3C//DTD SVG 1.1//EN"
 "http://www.w3.org/Graphics/SVG/1.1/DTD/svg11.dtd">
<!-- Generated by graphviz version 2.38.0 (20140413.2041)
 -->
<!-- Title: PROV Pages: 1 -->
<svg width="401pt" height="394pt"
 viewBox="0.00 0.00 400.76 394.00" xmlns="http://www.w3.org/2000/svg" xmlns:xlink="http://www.w3.org/1999/xlink">
<g id="graph0" class="graph" transform="scale(1 1) rotate(0) translate(4 390)">
<title>PROV</title>
<polygon fill="white" stroke="none" points="-4,4 -4,-390 396.763,-390 396.763,4 -4,4"/>
<!-- http://example.org/m1 -->
<g id="node1" class="node"><title>http://example.org/m1</title>
<g id="a_node1"><a xlink:href="http://example.org/m1" xlink:title="m1">
<ellipse fill="#fffc87" stroke="#808080" cx="42.7159" cy="-266" rx="27" ry="18"/>
<text text-anchor="middle" x="42.7159" y="-262.3" font-family="Times New Roman,serif" font-size="14.00">m1</text>
</a>
</g>
</g>
<!-- http://example.org/v10000 -->
<g id="node3" class="node"><title>http://example.org/v10000</title>
<g id="a_node3"><a xlink:href="http://example.org/v10000" xlink:title="v10000">
<ellipse fill="#32cd32" stroke="#808080" cx="107.716" cy="-368" rx="37.0935" ry="18"/>
<text text-anchor="middle" x="107.716" y="-364.3" font-family="Times New Roman,serif" font-size="14.00">v10000</text>
</a>
</g>
</g>
<!-- http://example.org/m1&#45;&gt;http://example.org/v10000 -->
<g id="edge3" class="edge"><title>http://example.org/m1&#45;&gt;http://example.org/v10000</title>
<path fill="none" stroke="darkgreen" d="M48.1551,-283.662C53.0802,-297.361 61.1749,-316.904 71.7159,-332 74.8973,-336.556 78.7268,-341.014 82.6841,-345.139"/>
<polygon fill="darkgreen" stroke="darkgreen" points="80.2446,-347.649 89.8332,-352.155 85.1478,-342.653 80.2446,-347.649"/>
<text text-anchor="middle" x="90.7159" y="-320.8" font-family="Times New Roman,serif" font-size="14.00">access</text>
<text text-anchor="middle" x="90.7159" y="-305.8" font-family="Times New Roman,serif" font-size="14.00">T2</text>
</g>
<!-- &#45;attrs0 -->
<g id="node2" class="node"><title>&#45;attrs0</title>
<polygon fill="none" stroke="gray" points="88.2159,-211 15.2159,-211 15.2159,-175 94.2159,-175 94.2159,-205 88.2159,-211"/>
<polyline fill="none" stroke="gray" points="88.2159,-211 88.2159,-205 "/>
<polyline fill="none" stroke="gray" points="94.2159,-205 88.2159,-205 "/>
<text text-anchor="start" x="25.7159" y="-197" font-family="Times New Roman,serif" font-size="10.00">value:</text>
<text text-anchor="start" x="52.7159" y="-197" font-family="Times New Roman,serif" font-size="10.00">&quot;10000&quot;</text>
<text text-anchor="start" x="25.7159" y="-184" font-family="Times New Roman,serif" font-size="10.00">type:</text>
<text text-anchor="start" x="52.7159" y="-184" font-family="Times New Roman,serif" font-size="10.00">&quot;name&quot;</text>
</g>
<!-- &#45;attrs0&#45;&gt;http://example.org/m1 -->
<g id="edge1" class="edge"><title>&#45;attrs0&#45;&gt;http://example.org/m1</title>
<path fill="none" stroke="gray" stroke-dasharray="5,2" d="M51.811,-211.187C49.9243,-222.35 47.4753,-236.84 45.594,-247.971"/>
</g>
<!-- &#45;attrs1 -->
<g id="node4" class="node"><title>&#45;attrs1</title>
<polygon fill="none" stroke="gray" points="155.216,-284 88.2159,-284 88.2159,-248 161.216,-248 161.216,-278 155.216,-284"/>
<polyline fill="none" stroke="gray" points="155.216,-284 155.216,-278 "/>
<polyline fill="none" stroke="gray" points="161.216,-278 155.216,-278 "/>
<text text-anchor="start" x="98.7159" y="-263" font-family="Times New Roman,serif" font-size="10.00">repr:</text>
<text text-anchor="start" x="119.716" y="-263" font-family="Times New Roman,serif" font-size="10.00">&quot;10000&quot;</text>
</g>
<!-- &#45;attrs1&#45;&gt;http://example.org/v10000 -->
<g id="edge2" class="edge"><title>&#45;attrs1&#45;&gt;http://example.org/v10000</title>
<path fill="none" stroke="gray" stroke-dasharray="5,2" d="M121.755,-284.419C118.634,-302.773 113.75,-331.502 110.643,-349.781"/>
</g>
<!-- http://example.org/n1 -->
<g id="node5" class="node"><title>http://example.org/n1</title>
<g id="a_node5"><a xlink:href="http://example.org/n1" xlink:title="n1">
<ellipse fill="#fffc87" stroke="#808080" cx="206.716" cy="-266" rx="27" ry="18"/>
<text text-anchor="middle" x="206.716" y="-262.3" font-family="Times New Roman,serif" font-size="14.00">n1</text>
</a>
</g>
</g>
<!-- http://example.org/v1 -->
<g id="node7" class="node"><title>http://example.org/v1</title>
<g id="a_node7"><a xlink:href="http://example.org/v1" xlink:title="v1">
<ellipse fill="#32cd32" stroke="#808080" cx="222.716" cy="-368" rx="27" ry="18"/>
<text text-anchor="middle" x="222.716" y="-364.3" font-family="Times New Roman,serif" font-size="14.00">v1</text>
</a>
</g>
</g>
<!-- http://example.org/n1&#45;&gt;http://example.org/v1 -->
<g id="edge6" class="edge"><title>http://example.org/n1&#45;&gt;http://example.org/v1</title>
<path fill="none" stroke="darkgreen" d="M211.042,-294.041C213.313,-308.234 216.088,-325.579 218.363,-339.795"/>
<polygon fill="darkgreen" stroke="darkgreen" points="214.466,-293.285 209.43,-283.964 207.554,-294.391 214.466,-293.285"/>
<polygon fill="darkgreen" stroke="darkgreen" points="214.952,-340.632 219.988,-349.953 221.864,-339.526 214.952,-340.632"/>
<text text-anchor="middle" x="238.716" y="-320.8" font-family="Times New Roman,serif" font-size="14.00">defined</text>
<text text-anchor="middle" x="238.716" y="-305.8" font-family="Times New Roman,serif" font-size="14.00">T3</text>
</g>
<!-- &#45;attrs2 -->
<g id="node6" class="node"><title>&#45;attrs2</title>
<polygon fill="none" stroke="gray" points="294.716,-211 222.716,-211 222.716,-175 300.716,-175 300.716,-205 294.716,-211"/>
<polyline fill="none" stroke="gray" points="294.716,-211 294.716,-205 "/>
<polyline fill="none" stroke="gray" points="300.716,-205 294.716,-205 "/>
<text text-anchor="start" x="232.716" y="-197" font-family="Times New Roman,serif" font-size="10.00">value:</text>
<text text-anchor="start" x="259.716" y="-197" font-family="Times New Roman,serif" font-size="10.00">&quot;1&quot;</text>
<text text-anchor="start" x="232.716" y="-184" font-family="Times New Roman,serif" font-size="10.00">type:</text>
<text text-anchor="start" x="259.716" y="-184" font-family="Times New Roman,serif" font-size="10.00">&quot;literal&quot;</text>
</g>
<!-- &#45;attrs2&#45;&gt;http://example.org/n1 -->
<g id="edge4" class="edge"><title>&#45;attrs2&#45;&gt;http://example.org/n1</title>
<path fill="none" stroke="gray" stroke-dasharray="5,2" d="M248.402,-211.187C239.373,-222.843 227.535,-238.125 218.782,-249.424"/>
</g>
<!-- &#45;attrs3 -->
<g id="node8" class="node"><title>&#45;attrs3</title>
<polygon fill="none" stroke="gray" points="301.216,-284 252.216,-284 252.216,-248 307.216,-248 307.216,-278 301.216,-284"/>
<polyline fill="none" stroke="gray" points="301.216,-284 301.216,-278 "/>
<polyline fill="none" stroke="gray" points="307.216,-278 301.216,-278 "/>
<text text-anchor="start" x="262.716" y="-263" font-family="Times New Roman,serif" font-size="10.00">repr:</text>
<text text-anchor="start" x="283.716" y="-263" font-family="Times New Roman,serif" font-size="10.00">&quot;1&quot;</text>
</g>
<!-- &#45;attrs3&#45;&gt;http://example.org/v1 -->
<g id="edge5" class="edge"><title>&#45;attrs3&#45;&gt;http://example.org/v1</title>
<path fill="none" stroke="gray" stroke-dasharray="5,2" d="M278.397,-284.129C276.683,-297.924 272.747,-317.362 263.716,-332 258.212,-340.921 249.677,-348.735 241.816,-354.704"/>
</g>
<!-- http://example.org/sum1 -->
<g id="node9" class="node"><title>http://example.org/sum1</title>
<g id="a_node9"><a xlink:href="http://example.org/sum1" xlink:title="sum1">
<ellipse fill="#fffc87" stroke="#808080" cx="194.716" cy="-91" rx="30.5947" ry="18"/>
<text text-anchor="middle" x="194.716" y="-87.3" font-family="Times New Roman,serif" font-size="14.00">sum1</text>
</a>
</g>
</g>
<!-- http://example.org/sum1&#45;&gt;http://example.org/m1 -->
<g id="edge14" class="edge"><title>http://example.org/sum1&#45;&gt;http://example.org/m1</title>
<path fill="none" stroke="black" d="M170.578,-102.399C119.894,-124.262 6.93135,-173.139 5.71587,-175 -8.20428,-196.316 7.08593,-223.724 22.0198,-242.665"/>
<polygon fill="black" stroke="black" points="19.4372,-245.033 28.5304,-250.47 24.8126,-240.549 19.4372,-245.033"/>
<text text-anchor="middle" x="168.841" y="-115.398" font-family="Times New Roman,serif" font-size="8.00">der</text>
</g>
<!-- http://example.org/sum1&#45;&gt;http://example.org/n1 -->
<g id="edge15" class="edge"><title>http://example.org/sum1&#45;&gt;http://example.org/n1</title>
<path fill="none" stroke="black" d="M195.91,-109.22C197.995,-139.272 202.313,-201.52 204.813,-237.568"/>
<polygon fill="black" stroke="black" points="201.343,-238.115 205.526,-247.849 208.326,-237.631 201.343,-238.115"/>
<text text-anchor="middle" x="209.389" y="-113.903" font-family="Times New Roman,serif" font-size="8.00">der</text>
</g>
<!-- http://example.org/v10001 -->
<g id="node11" class="node"><title>http://example.org/v10001</title>
<g id="a_node11"><a xlink:href="http://example.org/v10001" xlink:title="v10001">
<ellipse fill="#32cd32" stroke="#808080" cx="355.716" cy="-193" rx="37.0935" ry="18"/>
<text text-anchor="middle" x="355.716" y="-189.3" font-family="Times New Roman,serif" font-size="14.00">v10001</text>
</a>
</g>
</g>
<!-- http://example.org/sum1&#45;&gt;http://example.org/v10001 -->
<g id="edge9" class="edge"><title>http://example.org/sum1&#45;&gt;http://example.org/v10001</title>
<path fill="none" stroke="darkgreen" d="M223.899,-110.126C252.539,-127.915 296.043,-154.936 325.151,-173.015"/>
<polygon fill="darkgreen" stroke="darkgreen" points="225.448,-106.968 215.107,-104.665 221.755,-112.915 225.448,-106.968"/>
<polygon fill="darkgreen" stroke="darkgreen" points="323.348,-176.016 333.689,-178.319 327.041,-170.07 323.348,-176.016"/>
<text text-anchor="middle" x="319.716" y="-145.8" font-family="Times New Roman,serif" font-size="14.00">defined</text>
<text text-anchor="middle" x="319.716" y="-130.8" font-family="Times New Roman,serif" font-size="14.00">T4</text>
</g>
<!-- http://example.org/add1 -->
<g id="node13" class="node"><title>http://example.org/add1</title>
<g id="a_node13"><a xlink:href="http://example.org/add1" xlink:title="add1">
<polygon fill="#9fb1fc" stroke="#0000ff" points="166.716,-211 112.716,-211 112.716,-175 166.716,-175 166.716,-211"/>
<text text-anchor="middle" x="139.716" y="-189.3" font-family="Times New Roman,serif" font-size="14.00">add1</text>
</a>
</g>
</g>
<!-- http://example.org/sum1&#45;&gt;http://example.org/add1 -->
<g id="edge13" class="edge"><title>http://example.org/sum1&#45;&gt;http://example.org/add1</title>
<path fill="none" stroke="black" d="M185.634,-108.513C177.06,-124.102 164.065,-147.729 154.085,-165.874"/>
<polygon fill="black" stroke="black" points="150.933,-164.343 149.18,-174.792 157.066,-167.716 150.933,-164.343"/>
<text text-anchor="middle" x="193.402" y="-119.445" font-family="Times New Roman,serif" font-size="8.00">gen</text>
</g>
<!-- &#45;attrs4 -->
<g id="node10" class="node"><title>&#45;attrs4</title>
<polygon fill="none" stroke="gray" points="227.716,-36 155.716,-36 155.716,-0 233.716,-0 233.716,-30 227.716,-36"/>
<polyline fill="none" stroke="gray" points="227.716,-36 227.716,-30 "/>
<polyline fill="none" stroke="gray" points="233.716,-30 227.716,-30 "/>
<text text-anchor="start" x="165.716" y="-22" font-family="Times New Roman,serif" font-size="10.00">value:</text>
<text text-anchor="start" x="192.716" y="-22" font-family="Times New Roman,serif" font-size="10.00">&quot;m + 1&quot;</text>
<text text-anchor="start" x="165.716" y="-9" font-family="Times New Roman,serif" font-size="10.00">type:</text>
<text text-anchor="start" x="192.716" y="-9" font-family="Times New Roman,serif" font-size="10.00">&quot;sum&quot;</text>
</g>
<!-- &#45;attrs4&#45;&gt;http://example.org/sum1 -->
<g id="edge7" class="edge"><title>&#45;attrs4&#45;&gt;http://example.org/sum1</title>
<path fill="none" stroke="gray" stroke-dasharray="5,2" d="M194.716,-36.1871C194.716,-47.3501 194.716,-61.8398 194.716,-72.9712"/>
</g>
<!-- &#45;attrs5 -->
<g id="node12" class="node"><title>&#45;attrs5</title>
<polygon fill="none" stroke="gray" points="386.216,-109 319.216,-109 319.216,-73 392.216,-73 392.216,-103 386.216,-109"/>
<polyline fill="none" stroke="gray" points="386.216,-109 386.216,-103 "/>
<polyline fill="none" stroke="gray" points="392.216,-103 386.216,-103 "/>
<text text-anchor="start" x="329.716" y="-88" font-family="Times New Roman,serif" font-size="10.00">repr:</text>
<text text-anchor="start" x="350.716" y="-88" font-family="Times New Roman,serif" font-size="10.00">&quot;10001&quot;</text>
</g>
<!-- &#45;attrs5&#45;&gt;http://example.org/v10001 -->
<g id="edge8" class="edge"><title>&#45;attrs5&#45;&gt;http://example.org/v10001</title>
<path fill="none" stroke="gray" stroke-dasharray="5,2" d="M355.716,-109.419C355.716,-127.773 355.716,-156.502 355.716,-174.781"/>
</g>
<!-- http://example.org/add1&#45;&gt;http://example.org/m1 -->
<g id="edge11" class="edge"><title>http://example.org/add1&#45;&gt;http://example.org/m1</title>
<path fill="none" stroke="black" d="M116.235,-211.187C101.799,-221.754 83.2904,-235.301 68.4559,-246.159"/>
<polygon fill="black" stroke="black" points="66.2067,-243.468 60.2046,-252.199 70.3412,-249.117 66.2067,-243.468"/>
<text text-anchor="middle" x="117.856" y="-224.199" font-family="Times New Roman,serif" font-size="8.00">use</text>
</g>
<!-- http://example.org/add1&#45;&gt;http://example.org/n1 -->
<g id="edge12" class="edge"><title>http://example.org/add1&#45;&gt;http://example.org/n1</title>
<path fill="none" stroke="black" d="M155.935,-211.187C164.946,-220.737 176.255,-232.721 185.912,-242.954"/>
<polygon fill="black" stroke="black" points="183.501,-245.499 192.91,-250.369 188.592,-240.694 183.501,-245.499"/>
<text text-anchor="middle" x="170.53" y="-205.826" font-family="Times New Roman,serif" font-size="8.00">use</text>
</g>
<!-- &#45;attrs6 -->
<g id="node14" class="node"><title>&#45;attrs6</title>
<polygon fill="none" stroke="gray" points="139.716,-109 77.7159,-109 77.7159,-73 145.716,-73 145.716,-103 139.716,-109"/>
<polyline fill="none" stroke="gray" points="139.716,-109 139.716,-103 "/>
<polyline fill="none" stroke="gray" points="145.716,-103 139.716,-103 "/>
<text text-anchor="start" x="87.7159" y="-88" font-family="Times New Roman,serif" font-size="10.00">type:</text>
<text text-anchor="start" x="110.716" y="-88" font-family="Times New Roman,serif" font-size="10.00">&quot;add&quot;</text>
</g>
<!-- &#45;attrs6&#45;&gt;http://example.org/add1 -->
<g id="edge10" class="edge"><title>&#45;attrs6&#45;&gt;http://example.org/add1</title>
<path fill="none" stroke="gray" stroke-dasharray="5,2" d="M116.593,-109.419C121.732,-127.773 129.777,-156.502 134.895,-174.781"/>
</g>
</g>
</svg>
