<?xml version="1.0" encoding="UTF-8" standalone="no"?>
<!DOCTYPE svg PUBLIC "-//W3C//DTD SVG 1.1//EN"
 "http://www.w3.org/Graphics/SVG/1.1/DTD/svg11.dtd">
<!-- Generated by graphviz version 2.38.0 (20140413.2041)
 -->
<!-- Title: PROV Pages: 1 -->
<svg width="922pt" height="643pt"
 viewBox="0.00 0.00 921.69 643.00" xmlns="http://www.w3.org/2000/svg" xmlns:xlink="http://www.w3.org/1999/xlink">
<g id="graph0" class="graph" transform="scale(1 1) rotate(0) translate(4 639)">
<title>PROV</title>
<polygon fill="white" stroke="none" points="-4,4 -4,-639 917.687,-639 917.687,4 -4,4"/>
<!-- http://example.org/vlist1 -->
<g id="node1" class="node"><title>http://example.org/vlist1</title>
<g id="a_node1"><a xlink:href="http://example.org/vlist1" xlink:title="vlist1">
<ellipse fill="#32cd32" stroke="#808080" cx="240.187" cy="-91" rx="29.795" ry="18"/>
<text text-anchor="middle" x="240.187" y="-87.3" font-family="Times New Roman,serif" font-size="14.00">vlist1</text>
</a>
</g>
</g>
<!-- http://example.org/v3 -->
<g id="node7" class="node"><title>http://example.org/v3</title>
<g id="a_node7"><a xlink:href="http://example.org/v3" xlink:title="v3">
<ellipse fill="#32cd32" stroke="#808080" cx="165.187" cy="-208" rx="27" ry="18"/>
<text text-anchor="middle" x="165.187" y="-204.3" font-family="Times New Roman,serif" font-size="14.00">v3</text>
</a>
</g>
</g>
<!-- http://example.org/vlist1&#45;&gt;http://example.org/v3 -->
<g id="edge27" class="edge"><title>http://example.org/vlist1&#45;&gt;http://example.org/v3</title>
<path fill="none" stroke="darkgreen" d="M221.967,-105.614C214.831,-111.599 206.984,-119.067 201.187,-127 189.205,-143.395 179.939,-164.412 173.81,-180.79"/>
<polygon fill="darkgreen" stroke="darkgreen" points="170.479,-179.71 170.403,-190.305 177.069,-182.07 170.479,-179.71"/>
<text text-anchor="middle" x="226.187" y="-160.8" font-family="Times New Roman,serif" font-size="14.00">der&#45;ins&#45;v</text>
<text text-anchor="middle" x="226.187" y="-145.8" font-family="Times New Roman,serif" font-size="14.00">[1]</text>
<text text-anchor="middle" x="226.187" y="-130.8" font-family="Times New Roman,serif" font-size="14.00">T12</text>
</g>
<!-- &#45;attrs0 -->
<g id="node2" class="node"><title>&#45;attrs0</title>
<polygon fill="none" stroke="gray" points="297.687,-36 170.687,-36 170.687,-0 303.687,-0 303.687,-30 297.687,-36"/>
<polyline fill="none" stroke="gray" points="297.687,-36 297.687,-30 "/>
<polyline fill="none" stroke="gray" points="303.687,-30 297.687,-30 "/>
<text text-anchor="start" x="181.187" y="-15" font-family="Times New Roman,serif" font-size="10.00">repr:</text>
<text text-anchor="start" x="202.187" y="-15" font-family="Times New Roman,serif" font-size="10.00">&quot;[10000, 10001, 10000]&quot;</text>
</g>
<!-- &#45;attrs0&#45;&gt;http://example.org/vlist1 -->
<g id="edge1" class="edge"><title>&#45;attrs0&#45;&gt;http://example.org/vlist1</title>
<path fill="none" stroke="gray" stroke-dasharray="5,2" d="M237.913,-36.1871C238.385,-47.3501 238.997,-61.8398 239.467,-72.9712"/>
</g>
<!-- http://example.org/d1 -->
<g id="node3" class="node"><title>http://example.org/d1</title>
<g id="a_node3"><a xlink:href="http://example.org/d1" xlink:title="d1">
<ellipse fill="#fffc87" stroke="#808080" cx="330.187" cy="-515" rx="27" ry="18"/>
<text text-anchor="middle" x="330.187" y="-511.3" font-family="Times New Roman,serif" font-size="14.00">d1</text>
</a>
</g>
</g>
<!-- http://example.org/d1&#45;&gt;http://example.org/vlist1 -->
<g id="edge3" class="edge"><title>http://example.org/d1&#45;&gt;http://example.org/vlist1</title>
<path fill="none" stroke="darkgreen" d="M330.187,-496.784C330.187,-482.405 330.187,-461.366 330.187,-443 330.187,-207 330.187,-207 330.187,-207 330.187,-170.904 338.21,-155.599 316.187,-127 306.681,-114.656 291.801,-106.512 277.718,-101.216"/>
<polygon fill="darkgreen" stroke="darkgreen" points="278.766,-97.8752 268.172,-97.9869 276.523,-104.506 278.766,-97.8752"/>
<text text-anchor="middle" x="349.187" y="-328.8" font-family="Times New Roman,serif" font-size="14.00">access</text>
<text text-anchor="middle" x="349.187" y="-313.8" font-family="Times New Roman,serif" font-size="14.00">T6</text>
</g>
<!-- &#45;attrs1 -->
<g id="node4" class="node"><title>&#45;attrs1</title>
<polygon fill="none" stroke="gray" points="220.187,-460 148.187,-460 148.187,-424 226.187,-424 226.187,-454 220.187,-460"/>
<polyline fill="none" stroke="gray" points="220.187,-460 220.187,-454 "/>
<polyline fill="none" stroke="gray" points="226.187,-454 220.187,-454 "/>
<text text-anchor="start" x="158.187" y="-446" font-family="Times New Roman,serif" font-size="10.00">value:</text>
<text text-anchor="start" x="185.187" y="-446" font-family="Times New Roman,serif" font-size="10.00">&quot;d&quot;</text>
<text text-anchor="start" x="158.187" y="-433" font-family="Times New Roman,serif" font-size="10.00">type:</text>
<text text-anchor="start" x="185.187" y="-433" font-family="Times New Roman,serif" font-size="10.00">&quot;name&quot;</text>
</g>
<!-- &#45;attrs1&#45;&gt;http://example.org/d1 -->
<g id="edge2" class="edge"><title>&#45;attrs1&#45;&gt;http://example.org/d1</title>
<path fill="none" stroke="gray" stroke-dasharray="5,2" d="M221.439,-460.006C248.706,-473.544 286,-492.061 309.069,-503.515"/>
</g>
<!-- http://example.org/len_d1 -->
<g id="node5" class="node"><title>http://example.org/len_d1</title>
<g id="a_node5"><a xlink:href="http://example.org/len_d1" xlink:title="len_d1">
<ellipse fill="#fffc87" stroke="#808080" cx="342.187" cy="-91" rx="35.194" ry="18"/>
<text text-anchor="middle" x="342.187" y="-87.3" font-family="Times New Roman,serif" font-size="14.00">len_d1</text>
</a>
</g>
</g>
<!-- http://example.org/len_d1&#45;&gt;http://example.org/v3 -->
<g id="edge6" class="edge"><title>http://example.org/len_d1&#45;&gt;http://example.org/v3</title>
<path fill="none" stroke="darkgreen" d="M320.265,-115.095C302.814,-132.481 277.097,-155.978 251.187,-172 234.951,-182.04 215.334,-190.281 198.937,-196.238"/>
<polygon fill="darkgreen" stroke="darkgreen" points="323.141,-117.162 327.672,-107.585 318.158,-112.247 323.141,-117.162"/>
<polygon fill="darkgreen" stroke="darkgreen" points="197.484,-193.039 189.203,-199.649 199.798,-199.645 197.484,-193.039"/>
<text text-anchor="middle" x="329.187" y="-153.3" font-family="Times New Roman,serif" font-size="14.00">defined</text>
<text text-anchor="middle" x="329.187" y="-138.3" font-family="Times New Roman,serif" font-size="14.00">T8</text>
</g>
<!-- http://example.org/len1 -->
<g id="node9" class="node"><title>http://example.org/len1</title>
<g id="a_node9"><a xlink:href="http://example.org/len1" xlink:title="len1">
<polygon fill="#9fb1fc" stroke="#0000ff" points="423.187,-226 369.187,-226 369.187,-190 423.187,-190 423.187,-226"/>
<text text-anchor="middle" x="396.187" y="-204.3" font-family="Times New Roman,serif" font-size="14.00">len1</text>
</a>
</g>
</g>
<!-- http://example.org/len_d1&#45;&gt;http://example.org/len1 -->
<g id="edge9" class="edge"><title>http://example.org/len_d1&#45;&gt;http://example.org/len1</title>
<path fill="none" stroke="black" d="M350.155,-108.969C359.048,-127.909 373.547,-158.786 383.896,-180.825"/>
<polygon fill="black" stroke="black" points="380.768,-182.398 388.186,-189.962 387.104,-179.422 380.768,-182.398"/>
<text text-anchor="middle" x="365.101" y="-108.336" font-family="Times New Roman,serif" font-size="8.00">gen</text>
</g>
<!-- &#45;attrs2 -->
<g id="node6" class="node"><title>&#45;attrs2</title>
<polygon fill="none" stroke="gray" points="396.187,-36 322.187,-36 322.187,-0 402.187,-0 402.187,-30 396.187,-36"/>
<polyline fill="none" stroke="gray" points="396.187,-36 396.187,-30 "/>
<polyline fill="none" stroke="gray" points="402.187,-30 396.187,-30 "/>
<text text-anchor="start" x="332.187" y="-22" font-family="Times New Roman,serif" font-size="10.00">value:</text>
<text text-anchor="start" x="359.187" y="-22" font-family="Times New Roman,serif" font-size="10.00">&quot;len(d)&quot;</text>
<text text-anchor="start" x="332.187" y="-9" font-family="Times New Roman,serif" font-size="10.00">type:</text>
<text text-anchor="start" x="359.187" y="-9" font-family="Times New Roman,serif" font-size="10.00">&quot;eval&quot;</text>
</g>
<!-- &#45;attrs2&#45;&gt;http://example.org/len_d1 -->
<g id="edge4" class="edge"><title>&#45;attrs2&#45;&gt;http://example.org/len_d1</title>
<path fill="none" stroke="gray" stroke-dasharray="5,2" d="M357.345,-36.1871C354.201,-47.3501 350.119,-61.8398 346.984,-72.9712"/>
</g>
<!-- http://example.org/d_ac1_1 -->
<g id="node27" class="node"><title>http://example.org/d_ac1_1</title>
<g id="a_node27"><a xlink:href="http://example.org/d_ac1_1" xlink:title="d_ac1_1">
<ellipse fill="#fffc87" stroke="#808080" cx="102.187" cy="-325" rx="42.4939" ry="18"/>
<text text-anchor="middle" x="102.187" y="-321.3" font-family="Times New Roman,serif" font-size="14.00">d_ac1_1</text>
</a>
</g>
</g>
<!-- http://example.org/v3&#45;&gt;http://example.org/d_ac1_1 -->
<g id="edge28" class="edge"><title>http://example.org/v3&#45;&gt;http://example.org/d_ac1_1</title>
<path fill="none" stroke="darkgreen" stroke-dasharray="5,2" d="M142.5,-218.041C125.421,-225.363 104.135,-235.776 99.1868,-244 89.7242,-259.729 90.8235,-280.521 94.1056,-296.966"/>
<polygon fill="darkgreen" stroke="darkgreen" points="90.782,-298.121 96.4884,-307.048 97.5944,-296.511 90.782,-298.121"/>
<text text-anchor="middle" x="123.687" y="-277.8" font-family="Times New Roman,serif" font-size="14.00">der&#45;ins&#45;e</text>
<text text-anchor="middle" x="123.687" y="-262.8" font-family="Times New Roman,serif" font-size="14.00">[1]</text>
<text text-anchor="middle" x="123.687" y="-247.8" font-family="Times New Roman,serif" font-size="14.00">T12</text>
</g>
<!-- &#45;attrs3 -->
<g id="node8" class="node"><title>&#45;attrs3</title>
<polygon fill="none" stroke="gray" points="113.687,-109 64.6868,-109 64.6868,-73 119.687,-73 119.687,-103 113.687,-109"/>
<polyline fill="none" stroke="gray" points="113.687,-109 113.687,-103 "/>
<polyline fill="none" stroke="gray" points="119.687,-103 113.687,-103 "/>
<text text-anchor="start" x="75.1868" y="-88" font-family="Times New Roman,serif" font-size="10.00">repr:</text>
<text text-anchor="start" x="96.1868" y="-88" font-family="Times New Roman,serif" font-size="10.00">&quot;3&quot;</text>
</g>
<!-- &#45;attrs3&#45;&gt;http://example.org/v3 -->
<g id="edge5" class="edge"><title>&#45;attrs3&#45;&gt;http://example.org/v3</title>
<path fill="none" stroke="gray" stroke-dasharray="5,2" d="M103.274,-109.466C117.394,-131.709 141.585,-169.82 155.172,-191.223"/>
</g>
<!-- http://example.org/len1&#45;&gt;http://example.org/d1 -->
<g id="edge8" class="edge"><title>http://example.org/len1&#45;&gt;http://example.org/d1</title>
<path fill="none" stroke="black" d="M394.13,-226.033C388.668,-269.089 372.268,-385.505 344.187,-479 343.293,-481.975 342.25,-485.051 341.142,-488.086"/>
<polygon fill="black" stroke="black" points="337.852,-486.891 337.494,-497.48 344.377,-489.425 337.852,-486.891"/>
<text text-anchor="middle" x="406.036" y="-233.257" font-family="Times New Roman,serif" font-size="8.00">use</text>
</g>
<!-- &#45;attrs4 -->
<g id="node10" class="node"><title>&#45;attrs4</title>
<polygon fill="none" stroke="gray" points="454.687,-109 395.687,-109 395.687,-73 460.687,-73 460.687,-103 454.687,-109"/>
<polyline fill="none" stroke="gray" points="454.687,-109 454.687,-103 "/>
<polyline fill="none" stroke="gray" points="460.687,-103 454.687,-103 "/>
<text text-anchor="start" x="406.187" y="-88" font-family="Times New Roman,serif" font-size="10.00">type:</text>
<text text-anchor="start" x="429.187" y="-88" font-family="Times New Roman,serif" font-size="10.00">&quot;len&quot;</text>
</g>
<!-- &#45;attrs4&#45;&gt;http://example.org/len1 -->
<g id="edge7" class="edge"><title>&#45;attrs4&#45;&gt;http://example.org/len1</title>
<path fill="none" stroke="gray" stroke-dasharray="5,2" d="M423.327,-109.466C417.277,-131.207 407.01,-168.105 400.988,-189.746"/>
</g>
<!-- http://example.org/n0 -->
<g id="node11" class="node"><title>http://example.org/n0</title>
<g id="a_node11"><a xlink:href="http://example.org/n0" xlink:title="n0">
<ellipse fill="#fffc87" stroke="#808080" cx="741.187" cy="-515" rx="27" ry="18"/>
<text text-anchor="middle" x="741.187" y="-511.3" font-family="Times New Roman,serif" font-size="14.00">n0</text>
</a>
</g>
</g>
<!-- http://example.org/v0 -->
<g id="node13" class="node"><title>http://example.org/v0</title>
<g id="a_node13"><a xlink:href="http://example.org/v0" xlink:title="v0">
<ellipse fill="#32cd32" stroke="#808080" cx="731.187" cy="-617" rx="27" ry="18"/>
<text text-anchor="middle" x="731.187" y="-613.3" font-family="Times New Roman,serif" font-size="14.00">v0</text>
</a>
</g>
</g>
<!-- http://example.org/n0&#45;&gt;http://example.org/v0 -->
<g id="edge12" class="edge"><title>http://example.org/n0&#45;&gt;http://example.org/v0</title>
<path fill="none" stroke="darkgreen" d="M738.417,-543.696C737.011,-557.756 735.309,-574.775 733.91,-588.769"/>
<polygon fill="darkgreen" stroke="darkgreen" points="741.932,-543.717 739.445,-533.419 734.967,-543.021 741.932,-543.717"/>
<polygon fill="darkgreen" stroke="darkgreen" points="730.421,-588.482 732.909,-598.781 737.387,-589.179 730.421,-588.482"/>
<text text-anchor="middle" x="758.187" y="-569.8" font-family="Times New Roman,serif" font-size="14.00">defined</text>
<text text-anchor="middle" x="758.187" y="-554.8" font-family="Times New Roman,serif" font-size="14.00">T9</text>
</g>
<!-- &#45;attrs5 -->
<g id="node12" class="node"><title>&#45;attrs5</title>
<polygon fill="none" stroke="gray" points="803.187,-460 731.187,-460 731.187,-424 809.187,-424 809.187,-454 803.187,-460"/>
<polyline fill="none" stroke="gray" points="803.187,-460 803.187,-454 "/>
<polyline fill="none" stroke="gray" points="809.187,-454 803.187,-454 "/>
<text text-anchor="start" x="741.187" y="-446" font-family="Times New Roman,serif" font-size="10.00">value:</text>
<text text-anchor="start" x="768.187" y="-446" font-family="Times New Roman,serif" font-size="10.00">&quot;0&quot;</text>
<text text-anchor="start" x="741.187" y="-433" font-family="Times New Roman,serif" font-size="10.00">type:</text>
<text text-anchor="start" x="768.187" y="-433" font-family="Times New Roman,serif" font-size="10.00">&quot;literal&quot;</text>
</g>
<!-- &#45;attrs5&#45;&gt;http://example.org/n0 -->
<g id="edge10" class="edge"><title>&#45;attrs5&#45;&gt;http://example.org/n0</title>
<path fill="none" stroke="gray" stroke-dasharray="5,2" d="M763.167,-460.187C758.54,-471.514 752.515,-486.267 747.943,-497.46"/>
</g>
<!-- &#45;attrs6 -->
<g id="node14" class="node"><title>&#45;attrs6</title>
<polygon fill="none" stroke="gray" points="689.687,-533 640.687,-533 640.687,-497 695.687,-497 695.687,-527 689.687,-533"/>
<polyline fill="none" stroke="gray" points="689.687,-533 689.687,-527 "/>
<polyline fill="none" stroke="gray" points="695.687,-527 689.687,-527 "/>
<text text-anchor="start" x="651.187" y="-512" font-family="Times New Roman,serif" font-size="10.00">repr:</text>
<text text-anchor="start" x="672.187" y="-512" font-family="Times New Roman,serif" font-size="10.00">&quot;0&quot;</text>
</g>
<!-- &#45;attrs6&#45;&gt;http://example.org/v0 -->
<g id="edge11" class="edge"><title>&#45;attrs6&#45;&gt;http://example.org/v0</title>
<path fill="none" stroke="gray" stroke-dasharray="5,2" d="M679.161,-533.419C691.006,-552.221 709.71,-581.91 721.169,-600.099"/>
</g>
<!-- http://example.org/d_ac0_1 -->
<g id="node15" class="node"><title>http://example.org/d_ac0_1</title>
<g id="a_node15"><a xlink:href="http://example.org/d_ac0_1" xlink:title="d_ac0_1">
<ellipse fill="#fffc87" stroke="#808080" cx="555.187" cy="-325" rx="42.4939" ry="18"/>
<text text-anchor="middle" x="555.187" y="-321.3" font-family="Times New Roman,serif" font-size="14.00">d_ac0_1</text>
</a>
</g>
</g>
<!-- http://example.org/v10000 -->
<g id="node17" class="node"><title>http://example.org/v10000</title>
<ellipse fill="none" stroke="black" cx="529.187" cy="-442" rx="104.782" ry="18"/>
<text text-anchor="middle" x="529.187" y="-438.3" font-family="Times New Roman,serif" font-size="14.00">http://example.org/v10000</text>
</g>
<!-- http://example.org/d_ac0_1&#45;&gt;http://example.org/v10000 -->
<g id="edge14" class="edge"><title>http://example.org/d_ac0_1&#45;&gt;http://example.org/v10000</title>
<path fill="none" stroke="darkgreen" d="M551.35,-342.969C547.126,-361.654 540.275,-391.957 535.307,-413.931"/>
<polygon fill="darkgreen" stroke="darkgreen" points="531.83,-413.436 533.039,-423.962 538.658,-414.98 531.83,-413.436"/>
<text text-anchor="middle" x="569.187" y="-394.8" font-family="Times New Roman,serif" font-size="14.00">part</text>
<text text-anchor="middle" x="569.187" y="-379.8" font-family="Times New Roman,serif" font-size="14.00">vlist1[0]</text>
<text text-anchor="middle" x="569.187" y="-364.8" font-family="Times New Roman,serif" font-size="14.00">T10</text>
</g>
<!-- http://example.org/access1 -->
<g id="node18" class="node"><title>http://example.org/access1</title>
<g id="a_node18"><a xlink:href="http://example.org/access1" xlink:title="access1">
<polygon fill="#9fb1fc" stroke="#0000ff" points="712.687,-460 651.687,-460 651.687,-424 712.687,-424 712.687,-460"/>
<text text-anchor="middle" x="682.187" y="-438.3" font-family="Times New Roman,serif" font-size="14.00">access1</text>
</a>
</g>
</g>
<!-- http://example.org/d_ac0_1&#45;&gt;http://example.org/access1 -->
<g id="edge18" class="edge"><title>http://example.org/d_ac0_1&#45;&gt;http://example.org/access1</title>
<path fill="none" stroke="black" d="M573.7,-341.515C580.791,-347.534 588.921,-354.524 596.187,-361 616.913,-379.472 639.918,-400.923 656.916,-416.96"/>
<polygon fill="black" stroke="black" points="654.603,-419.59 664.273,-423.918 659.412,-414.504 654.603,-419.59"/>
<text text-anchor="middle" x="587.828" y="-334.575" font-family="Times New Roman,serif" font-size="8.00">gen</text>
</g>
<!-- &#45;attrs7 -->
<g id="node16" class="node"><title>&#45;attrs7</title>
<polygon fill="none" stroke="gray" points="591.187,-226 513.187,-226 513.187,-190 597.187,-190 597.187,-220 591.187,-226"/>
<polyline fill="none" stroke="gray" points="591.187,-226 591.187,-220 "/>
<polyline fill="none" stroke="gray" points="597.187,-220 591.187,-220 "/>
<text text-anchor="start" x="523.187" y="-212" font-family="Times New Roman,serif" font-size="10.00">value:</text>
<text text-anchor="start" x="550.187" y="-212" font-family="Times New Roman,serif" font-size="10.00">&quot;d[0]&quot;</text>
<text text-anchor="start" x="523.187" y="-199" font-family="Times New Roman,serif" font-size="10.00">type:</text>
<text text-anchor="start" x="550.187" y="-199" font-family="Times New Roman,serif" font-size="10.00">&quot;access&quot;</text>
</g>
<!-- &#45;attrs7&#45;&gt;http://example.org/d_ac0_1 -->
<g id="edge13" class="edge"><title>&#45;attrs7&#45;&gt;http://example.org/d_ac0_1</title>
<path fill="none" stroke="gray" stroke-dasharray="5,2" d="M555.187,-226.466C555.187,-248.207 555.187,-285.105 555.187,-306.746"/>
</g>
<!-- http://example.org/access1&#45;&gt;http://example.org/d1 -->
<g id="edge16" class="edge"><title>http://example.org/access1&#45;&gt;http://example.org/d1</title>
<path fill="none" stroke="black" d="M651.359,-457.236C648.625,-458.254 645.876,-459.195 643.187,-460 545.763,-489.174 426.263,-504.339 367.059,-510.539"/>
<polygon fill="black" stroke="black" points="366.657,-507.061 357.064,-511.559 367.368,-514.025 366.657,-507.061"/>
<text text-anchor="middle" x="648.825" y="-470.12" font-family="Times New Roman,serif" font-size="8.00">use</text>
</g>
<!-- http://example.org/access1&#45;&gt;http://example.org/n0 -->
<g id="edge17" class="edge"><title>http://example.org/access1&#45;&gt;http://example.org/n0</title>
<path fill="none" stroke="black" d="M696.469,-460.187C704.142,-469.421 713.708,-480.932 722.02,-490.935"/>
<polygon fill="black" stroke="black" points="719.555,-493.445 728.638,-498.899 724.939,-488.971 719.555,-493.445"/>
<text text-anchor="middle" x="711.253" y="-455.753" font-family="Times New Roman,serif" font-size="8.00">use</text>
</g>
<!-- &#45;attrs8 -->
<g id="node19" class="node"><title>&#45;attrs8</title>
<polygon fill="none" stroke="gray" points="716.187,-343 642.187,-343 642.187,-307 722.187,-307 722.187,-337 716.187,-343"/>
<polyline fill="none" stroke="gray" points="716.187,-343 716.187,-337 "/>
<polyline fill="none" stroke="gray" points="722.187,-337 716.187,-337 "/>
<text text-anchor="start" x="652.187" y="-322" font-family="Times New Roman,serif" font-size="10.00">type:</text>
<text text-anchor="start" x="675.187" y="-322" font-family="Times New Roman,serif" font-size="10.00">&quot;access&quot;</text>
</g>
<!-- &#45;attrs8&#45;&gt;http://example.org/access1 -->
<g id="edge15" class="edge"><title>&#45;attrs8&#45;&gt;http://example.org/access1</title>
<path fill="none" stroke="gray" stroke-dasharray="5,2" d="M682.187,-343.466C682.187,-365.207 682.187,-402.105 682.187,-423.746"/>
</g>
<!-- http://example.org/n3 -->
<g id="node20" class="node"><title>http://example.org/n3</title>
<g id="a_node20"><a xlink:href="http://example.org/n3" xlink:title="n3">
<ellipse fill="#fffc87" stroke="#808080" cx="57.1868" cy="-515" rx="27" ry="18"/>
<text text-anchor="middle" x="57.1868" y="-511.3" font-family="Times New Roman,serif" font-size="14.00">n3</text>
</a>
</g>
</g>
<!-- http://example.org/n3&#45;&gt;http://example.org/v3 -->
<g id="edge21" class="edge"><title>http://example.org/n3&#45;&gt;http://example.org/v3</title>
<path fill="none" stroke="darkgreen" d="M39.0961,-490.356C18.4552,-460.388 -10.6407,-407.077 4.18685,-361 23.7962,-300.064 38.7097,-284.618 88.1868,-244 95.5606,-237.947 115.286,-229.021 132.925,-221.699"/>
<polygon fill="darkgreen" stroke="darkgreen" points="36.5155,-492.765 45.1725,-498.873 42.214,-488.7 36.5155,-492.765"/>
<polygon fill="darkgreen" stroke="darkgreen" points="134.482,-224.844 142.418,-217.824 131.837,-218.363 134.482,-224.844"/>
<text text-anchor="middle" x="25.1868" y="-387.3" font-family="Times New Roman,serif" font-size="14.00">defined</text>
<text text-anchor="middle" x="25.1868" y="-372.3" font-family="Times New Roman,serif" font-size="14.00">T10</text>
</g>
<!-- &#45;attrs9 -->
<g id="node21" class="node"><title>&#45;attrs9</title>
<polygon fill="none" stroke="gray" points="124.187,-460 52.1868,-460 52.1868,-424 130.187,-424 130.187,-454 124.187,-460"/>
<polyline fill="none" stroke="gray" points="124.187,-460 124.187,-454 "/>
<polyline fill="none" stroke="gray" points="130.187,-454 124.187,-454 "/>
<text text-anchor="start" x="62.1868" y="-446" font-family="Times New Roman,serif" font-size="10.00">value:</text>
<text text-anchor="start" x="89.1868" y="-446" font-family="Times New Roman,serif" font-size="10.00">&quot;3&quot;</text>
<text text-anchor="start" x="62.1868" y="-433" font-family="Times New Roman,serif" font-size="10.00">type:</text>
<text text-anchor="start" x="89.1868" y="-433" font-family="Times New Roman,serif" font-size="10.00">&quot;literal&quot;</text>
</g>
<!-- &#45;attrs9&#45;&gt;http://example.org/n3 -->
<g id="edge19" class="edge"><title>&#45;attrs9&#45;&gt;http://example.org/n3</title>
<path fill="none" stroke="gray" stroke-dasharray="5,2" d="M82.9564,-460.187C77.5321,-471.514 70.4676,-486.267 65.1074,-497.46"/>
</g>
<!-- &#45;attrs10 -->
<g id="node22" class="node"><title>&#45;attrs10</title>
<polygon fill="none" stroke="gray" points="186.687,-109 137.687,-109 137.687,-73 192.687,-73 192.687,-103 186.687,-109"/>
<polyline fill="none" stroke="gray" points="186.687,-109 186.687,-103 "/>
<polyline fill="none" stroke="gray" points="192.687,-103 186.687,-103 "/>
<text text-anchor="start" x="148.187" y="-88" font-family="Times New Roman,serif" font-size="10.00">repr:</text>
<text text-anchor="start" x="169.187" y="-88" font-family="Times New Roman,serif" font-size="10.00">&quot;3&quot;</text>
</g>
<!-- &#45;attrs10&#45;&gt;http://example.org/v3 -->
<g id="edge20" class="edge"><title>&#45;attrs10&#45;&gt;http://example.org/v3</title>
<path fill="none" stroke="gray" stroke-dasharray="5,2" d="M165.187,-109.466C165.187,-131.207 165.187,-168.105 165.187,-189.746"/>
</g>
<!-- http://example.org/n1 -->
<g id="node23" class="node"><title>http://example.org/n1</title>
<g id="a_node23"><a xlink:href="http://example.org/n1" xlink:title="n1">
<ellipse fill="#fffc87" stroke="#808080" cx="813.187" cy="-515" rx="27" ry="18"/>
<text text-anchor="middle" x="813.187" y="-511.3" font-family="Times New Roman,serif" font-size="14.00">n1</text>
</a>
</g>
</g>
<!-- http://example.org/v1 -->
<g id="node25" class="node"><title>http://example.org/v1</title>
<g id="a_node25"><a xlink:href="http://example.org/v1" xlink:title="v1">
<ellipse fill="#32cd32" stroke="#808080" cx="823.187" cy="-617" rx="27" ry="18"/>
<text text-anchor="middle" x="823.187" y="-613.3" font-family="Times New Roman,serif" font-size="14.00">v1</text>
</a>
</g>
</g>
<!-- http://example.org/n1&#45;&gt;http://example.org/v1 -->
<g id="edge24" class="edge"><title>http://example.org/n1&#45;&gt;http://example.org/v1</title>
<path fill="none" stroke="darkgreen" d="M815.956,-543.696C817.362,-557.756 819.064,-574.775 820.464,-588.769"/>
<polygon fill="darkgreen" stroke="darkgreen" points="819.406,-543.021 814.929,-533.419 812.441,-543.717 819.406,-543.021"/>
<polygon fill="darkgreen" stroke="darkgreen" points="816.987,-589.179 821.465,-598.781 823.952,-588.482 816.987,-589.179"/>
<text text-anchor="middle" x="840.187" y="-569.8" font-family="Times New Roman,serif" font-size="14.00">defined</text>
<text text-anchor="middle" x="840.187" y="-554.8" font-family="Times New Roman,serif" font-size="14.00">T11</text>
</g>
<!-- &#45;attrs11 -->
<g id="node24" class="node"><title>&#45;attrs11</title>
<polygon fill="none" stroke="gray" points="899.187,-460 827.187,-460 827.187,-424 905.187,-424 905.187,-454 899.187,-460"/>
<polyline fill="none" stroke="gray" points="899.187,-460 899.187,-454 "/>
<polyline fill="none" stroke="gray" points="905.187,-454 899.187,-454 "/>
<text text-anchor="start" x="837.187" y="-446" font-family="Times New Roman,serif" font-size="10.00">value:</text>
<text text-anchor="start" x="864.187" y="-446" font-family="Times New Roman,serif" font-size="10.00">&quot;1&quot;</text>
<text text-anchor="start" x="837.187" y="-433" font-family="Times New Roman,serif" font-size="10.00">type:</text>
<text text-anchor="start" x="864.187" y="-433" font-family="Times New Roman,serif" font-size="10.00">&quot;literal&quot;</text>
</g>
<!-- &#45;attrs11&#45;&gt;http://example.org/n1 -->
<g id="edge22" class="edge"><title>&#45;attrs11&#45;&gt;http://example.org/n1</title>
<path fill="none" stroke="gray" stroke-dasharray="5,2" d="M853.357,-460.187C844.656,-471.843 833.249,-487.125 824.814,-498.424"/>
</g>
<!-- &#45;attrs12 -->
<g id="node26" class="node"><title>&#45;attrs12</title>
<polygon fill="none" stroke="gray" points="907.687,-533 858.687,-533 858.687,-497 913.687,-497 913.687,-527 907.687,-533"/>
<polyline fill="none" stroke="gray" points="907.687,-533 907.687,-527 "/>
<polyline fill="none" stroke="gray" points="913.687,-527 907.687,-527 "/>
<text text-anchor="start" x="869.187" y="-512" font-family="Times New Roman,serif" font-size="10.00">repr:</text>
<text text-anchor="start" x="890.187" y="-512" font-family="Times New Roman,serif" font-size="10.00">&quot;1&quot;</text>
</g>
<!-- &#45;attrs12&#45;&gt;http://example.org/v1 -->
<g id="edge23" class="edge"><title>&#45;attrs12&#45;&gt;http://example.org/v1</title>
<path fill="none" stroke="gray" stroke-dasharray="5,2" d="M883.375,-533.18C880.497,-547.005 875.014,-566.458 865.187,-581 859.128,-589.965 850.137,-597.887 842.026,-603.916"/>
</g>
<!-- http://example.org/d_ac1_1&#45;&gt;http://example.org/v3 -->
<g id="edge26" class="edge"><title>http://example.org/d_ac1_1&#45;&gt;http://example.org/v3</title>
<path fill="none" stroke="darkgreen" d="M128.983,-310.847C137.691,-305.278 146.553,-297.974 152.187,-289 162.006,-273.358 165.174,-252.727 165.93,-236.334"/>
<polygon fill="darkgreen" stroke="darkgreen" points="169.43,-236.334 166.123,-226.268 162.431,-236.199 169.43,-236.334"/>
<text text-anchor="middle" x="185.187" y="-270.3" font-family="Times New Roman,serif" font-size="14.00">access</text>
<text text-anchor="middle" x="185.187" y="-255.3" font-family="Times New Roman,serif" font-size="14.00">T12</text>
</g>
<!-- http://example.org/d_ac1_1&#45;&gt;http://example.org/n3 -->
<g id="edge34" class="edge"><title>http://example.org/d_ac1_1&#45;&gt;http://example.org/n3</title>
<path fill="none" stroke="black" d="M88.4463,-342.377C73.9319,-360.843 51.9574,-392.428 43.1868,-424 37.3218,-445.113 41.9085,-469.74 47.3503,-487.89"/>
<polygon fill="black" stroke="black" points="44.0568,-489.08 50.4902,-497.498 50.7105,-486.905 44.0568,-489.08"/>
<text text-anchor="middle" x="94.1647" y="-354.345" font-family="Times New Roman,serif" font-size="8.00">der</text>
</g>
<!-- http://example.org/assign4 -->
<g id="node29" class="node"><title>http://example.org/assign4</title>
<g id="a_node29"><a xlink:href="http://example.org/assign4" xlink:title="assign4">
<polygon fill="#9fb1fc" stroke="#0000ff" points="302.187,-460 244.187,-460 244.187,-424 302.187,-424 302.187,-460"/>
<text text-anchor="middle" x="273.187" y="-438.3" font-family="Times New Roman,serif" font-size="14.00">assign4</text>
</a>
</g>
</g>
<!-- http://example.org/d_ac1_1&#45;&gt;http://example.org/assign4 -->
<g id="edge33" class="edge"><title>http://example.org/d_ac1_1&#45;&gt;http://example.org/assign4</title>
<path fill="none" stroke="black" d="M123.844,-340.565C153.007,-360.177 205.193,-395.273 239.504,-418.348"/>
<polygon fill="black" stroke="black" points="237.566,-421.262 247.817,-423.939 241.472,-415.454 237.566,-421.262"/>
<text text-anchor="middle" x="137.317" y="-332.071" font-family="Times New Roman,serif" font-size="8.00">gen</text>
</g>
<!-- &#45;attrs13 -->
<g id="node28" class="node"><title>&#45;attrs13</title>
<polygon fill="none" stroke="gray" points="105.187,-226 27.1868,-226 27.1868,-190 111.187,-190 111.187,-220 105.187,-226"/>
<polyline fill="none" stroke="gray" points="105.187,-226 105.187,-220 "/>
<polyline fill="none" stroke="gray" points="111.187,-220 105.187,-220 "/>
<text text-anchor="start" x="37.1868" y="-212" font-family="Times New Roman,serif" font-size="10.00">value:</text>
<text text-anchor="start" x="64.1868" y="-212" font-family="Times New Roman,serif" font-size="10.00">&quot;d[1]&quot;</text>
<text text-anchor="start" x="37.1868" y="-199" font-family="Times New Roman,serif" font-size="10.00">type:</text>
<text text-anchor="start" x="64.1868" y="-199" font-family="Times New Roman,serif" font-size="10.00">&quot;access&quot;</text>
</g>
<!-- &#45;attrs13&#45;&gt;http://example.org/d_ac1_1 -->
<g id="edge25" class="edge"><title>&#45;attrs13&#45;&gt;http://example.org/d_ac1_1</title>
<path fill="none" stroke="gray" stroke-dasharray="5,2" d="M70.5806,-226.26C72.2875,-242.743 75.9028,-268.096 83.1868,-289 85.3709,-295.268 88.5888,-301.757 91.758,-307.419"/>
</g>
<!-- http://example.org/assign4&#45;&gt;http://example.org/d1 -->
<g id="edge30" class="edge"><title>http://example.org/assign4&#45;&gt;http://example.org/d1</title>
<path fill="none" stroke="black" d="M286.985,-460.187C294.398,-469.421 303.639,-480.932 311.67,-490.935"/>
<polygon fill="black" stroke="black" points="309.074,-493.292 318.064,-498.899 314.533,-488.91 309.074,-493.292"/>
<text text-anchor="middle" x="301.81" y="-456.003" font-family="Times New Roman,serif" font-size="8.00">use</text>
</g>
<!-- http://example.org/assign4&#45;&gt;http://example.org/n3 -->
<g id="edge32" class="edge"><title>http://example.org/assign4&#45;&gt;http://example.org/n3</title>
<path fill="none" stroke="black" d="M243.881,-456.55C240.964,-457.766 238.03,-458.937 235.187,-460 186.316,-478.262 128.239,-494.98 92.0382,-504.83"/>
<polygon fill="black" stroke="black" points="90.7304,-501.558 81.987,-507.541 92.5535,-508.316 90.7304,-501.558"/>
<text text-anchor="middle" x="241.934" y="-469.523" font-family="Times New Roman,serif" font-size="8.00">use</text>
</g>
<!-- http://example.org/assign4&#45;&gt;http://example.org/n1 -->
<g id="edge31" class="edge"><title>http://example.org/assign4&#45;&gt;http://example.org/n1</title>
<path fill="none" stroke="black" d="M302.269,-446.631C330.96,-450.178 376.073,-455.66 415.187,-460 575.928,-477.835 621.385,-453.626 777.187,-497 779.134,-497.542 781.107,-498.182 783.073,-498.891"/>
<polygon fill="black" stroke="black" points="782.13,-502.288 792.709,-502.87 784.802,-495.818 782.13,-502.288"/>
<text text-anchor="middle" x="311.302" y="-432.756" font-family="Times New Roman,serif" font-size="8.00">use</text>
</g>
<!-- &#45;attrs14 -->
<g id="node30" class="node"><title>&#45;attrs14</title>
<polygon fill="none" stroke="gray" points="287.687,-343 214.687,-343 214.687,-307 293.687,-307 293.687,-337 287.687,-343"/>
<polyline fill="none" stroke="gray" points="287.687,-343 287.687,-337 "/>
<polyline fill="none" stroke="gray" points="293.687,-337 287.687,-337 "/>
<text text-anchor="start" x="225.187" y="-322" font-family="Times New Roman,serif" font-size="10.00">type:</text>
<text text-anchor="start" x="248.187" y="-322" font-family="Times New Roman,serif" font-size="10.00">&quot;assign&quot;</text>
</g>
<!-- &#45;attrs14&#45;&gt;http://example.org/assign4 -->
<g id="edge29" class="edge"><title>&#45;attrs14&#45;&gt;http://example.org/assign4</title>
<path fill="none" stroke="gray" stroke-dasharray="5,2" d="M257.073,-343.466C260.664,-365.207 266.761,-402.105 270.336,-423.746"/>
</g>
</g>
</svg>
