<?xml version="1.0" encoding="UTF-8" standalone="no"?>
<!DOCTYPE svg PUBLIC "-//W3C//DTD SVG 1.1//EN"
 "http://www.w3.org/Graphics/SVG/1.1/DTD/svg11.dtd">
<!-- Generated by graphviz version 2.38.0 (20140413.2041)
 -->
<!-- Title: PROV Pages: 1 -->
<svg width="1152pt" height="608pt"
 viewBox="0.00 0.00 1152.00 607.96" xmlns="http://www.w3.org/2000/svg" xmlns:xlink="http://www.w3.org/1999/xlink">
<g id="graph0" class="graph" transform="scale(0.899345 0.899345) rotate(0) translate(4 672)">
<title>PROV</title>
<polygon fill="white" stroke="none" points="-4,4 -4,-672 1276.93,-672 1276.93,4 -4,4"/>
<!-- http://example.org/disti_ak#23 -->
<g id="node1" class="node"><title>http://example.org/disti_ak#23</title>
<g id="a_node1"><a xlink:href="http://example.org/disti_ak#23" xlink:title="disti_ak#23">
<ellipse fill="#fffc87" stroke="#808080" cx="395.691" cy="-461" rx="52.7911" ry="18"/>
<text text-anchor="middle" x="395.691" y="-457.3" font-family="Times New Roman,serif" font-size="14.00">disti_ak#23</text>
</a>
</g>
</g>
<!-- http://example.org/access112 -->
<g id="node3" class="node"><title>http://example.org/access112</title>
<g id="a_node3"><a xlink:href="http://example.org/access112" xlink:title="access112">
<polygon fill="#9fb1fc" stroke="#0000ff" points="475.691,-581 401.691,-581 401.691,-545 475.691,-545 475.691,-581"/>
<text text-anchor="middle" x="438.691" y="-559.3" font-family="Times New Roman,serif" font-size="14.00">access112</text>
</a>
</g>
</g>
<!-- http://example.org/disti_ak#23&#45;&gt;http://example.org/access112 -->
<g id="edge7" class="edge"><title>http://example.org/disti_ak#23&#45;&gt;http://example.org/access112</title>
<path fill="none" stroke="black" d="M411.94,-478.292C416.68,-483.836 421.451,-490.327 424.691,-497 430.424,-508.806 433.826,-522.947 435.837,-535.019"/>
<polygon fill="black" stroke="black" points="432.382,-535.585 437.269,-544.985 439.311,-534.589 432.382,-535.585"/>
<text text-anchor="middle" x="426.71" y="-473.774" font-family="Times New Roman,serif" font-size="8.00">gen</text>
</g>
<!-- bn0 -->
<g id="node6" class="node"><title>bn0</title>
<ellipse fill="black" stroke="black" cx="260.691" cy="-563" rx="1.8" ry="1.8"/>
</g>
<!-- http://example.org/disti_ak#23&#45;&gt;bn0 -->
<g id="edge4" class="edge"><title>http://example.org/disti_ak#23&#45;&gt;bn0</title>
<path fill="none" stroke="darkgreen" d="M346.925,-468.001C311.802,-473.442 268.733,-482.808 257.691,-497 241.597,-517.685 257.137,-554.262 260.192,-560.939"/>
<text text-anchor="middle" x="339.191" y="-515.8" font-family="Times New Roman,serif" font-size="14.00">der ac&#45;w</text>
<text text-anchor="middle" x="339.191" y="-500.8" font-family="Times New Roman,serif" font-size="14.00">2018&#45;03&#45;04T03:57:44.743132</text>
</g>
<!-- &#45;attrs0 -->
<g id="node2" class="node"><title>&#45;attrs0</title>
<polygon fill="none" stroke="gray" points="453.191,-406 246.191,-406 246.191,-344 459.191,-344 459.191,-400 453.191,-406"/>
<polyline fill="none" stroke="gray" points="453.191,-406 453.191,-400 "/>
<polyline fill="none" stroke="gray" points="459.191,-400 453.191,-400 "/>
<text text-anchor="start" x="256.691" y="-392" font-family="Times New Roman,serif" font-size="10.00">value:</text>
<text text-anchor="start" x="331.691" y="-392" font-family="Times New Roman,serif" font-size="10.00">&quot;2&quot;</text>
<text text-anchor="start" x="256.691" y="-379" font-family="Times New Roman,serif" font-size="10.00">type:</text>
<text text-anchor="start" x="331.691" y="-379" font-family="Times New Roman,serif" font-size="10.00">&quot;access&quot;</text>
<text text-anchor="start" x="256.691" y="-366" font-family="Times New Roman,serif" font-size="10.00">label:</text>
<text text-anchor="start" x="331.691" y="-366" font-family="Times New Roman,serif" font-size="10.00">&quot;disti[k]&quot;</text>
<text text-anchor="start" x="256.691" y="-353" font-family="Times New Roman,serif" font-size="10.00">generatedAtTime:</text>
<text text-anchor="start" x="331.691" y="-353" font-family="Times New Roman,serif" font-size="10.00">&quot;2018&#45;03&#45;04T03:57:44.743132&quot;</text>
</g>
<!-- &#45;attrs0&#45;&gt;http://example.org/disti_ak#23 -->
<g id="edge1" class="edge"><title>&#45;attrs0&#45;&gt;http://example.org/disti_ak#23</title>
<path fill="none" stroke="gray" stroke-dasharray="5,2" d="M368.215,-406.326C374.566,-418.732 381.672,-432.615 387.067,-443.153"/>
</g>
<!-- http://example.org/2 -->
<g id="node5" class="node"><title>http://example.org/2</title>
<ellipse fill="none" stroke="black" cx="306.691" cy="-650" rx="83.3857" ry="18"/>
<text text-anchor="middle" x="306.691" y="-646.3" font-family="Times New Roman,serif" font-size="14.00">http://example.org/2</text>
</g>
<!-- http://example.org/access112&#45;&gt;http://example.org/2 -->
<g id="edge3" class="edge"><title>http://example.org/access112&#45;&gt;http://example.org/2</title>
<path fill="none" stroke="black" d="M411.979,-581.201C391.362,-594.477 362.704,-612.931 340.491,-627.235"/>
<polygon fill="black" stroke="black" points="338.533,-624.333 332.02,-632.69 342.322,-630.218 338.533,-624.333"/>
<text text-anchor="middle" x="412.706" y="-594.283" font-family="Times New Roman,serif" font-size="8.00">use</text>
</g>
<!-- http://example.org/disti#8 -->
<g id="node7" class="node"><title>http://example.org/disti#8</title>
<ellipse fill="none" stroke="black" cx="102.691" cy="-650" rx="102.882" ry="18"/>
<text text-anchor="middle" x="102.691" y="-646.3" font-family="Times New Roman,serif" font-size="14.00">http://example.org/disti#8</text>
</g>
<!-- http://example.org/access112&#45;&gt;http://example.org/disti#8 -->
<g id="edge8" class="edge"><title>http://example.org/access112&#45;&gt;http://example.org/disti#8</title>
<path fill="none" stroke="black" d="M401.449,-573.421C345.265,-587.635 238.018,-614.765 168.472,-632.359"/>
<polygon fill="black" stroke="black" points="167.332,-629.037 158.496,-634.883 169.049,-635.823 167.332,-629.037"/>
<text text-anchor="middle" x="397.364" y="-585.954" font-family="Times New Roman,serif" font-size="8.00">use</text>
</g>
<!-- http://example.org/k#3 -->
<g id="node8" class="node"><title>http://example.org/k#3</title>
<ellipse fill="none" stroke="black" cx="499.691" cy="-650" rx="92.0841" ry="18"/>
<text text-anchor="middle" x="499.691" y="-646.3" font-family="Times New Roman,serif" font-size="14.00">http://example.org/k#3</text>
</g>
<!-- http://example.org/access112&#45;&gt;http://example.org/k#3 -->
<g id="edge9" class="edge"><title>http://example.org/access112&#45;&gt;http://example.org/k#3</title>
<path fill="none" stroke="black" d="M451.035,-581.201C459.774,-593.378 471.639,-609.911 481.464,-623.602"/>
<polygon fill="black" stroke="black" points="478.899,-626.031 487.573,-632.115 484.586,-621.95 478.899,-626.031"/>
<text text-anchor="middle" x="465.962" y="-577.82" font-family="Times New Roman,serif" font-size="8.00">use</text>
</g>
<!-- &#45;attrs1 -->
<g id="node4" class="node"><title>&#45;attrs1</title>
<polygon fill="none" stroke="gray" points="540.691,-479 466.691,-479 466.691,-443 546.691,-443 546.691,-473 540.691,-479"/>
<polyline fill="none" stroke="gray" points="540.691,-479 540.691,-473 "/>
<polyline fill="none" stroke="gray" points="546.691,-473 540.691,-473 "/>
<text text-anchor="start" x="476.691" y="-458" font-family="Times New Roman,serif" font-size="10.00">type:</text>
<text text-anchor="start" x="499.691" y="-458" font-family="Times New Roman,serif" font-size="10.00">&quot;access&quot;</text>
</g>
<!-- &#45;attrs1&#45;&gt;http://example.org/access112 -->
<g id="edge2" class="edge"><title>&#45;attrs1&#45;&gt;http://example.org/access112</title>
<path fill="none" stroke="gray" stroke-dasharray="5,2" d="M494.846,-479.419C482.365,-497.773 462.829,-526.502 450.4,-544.781"/>
</g>
<!-- bn0&#45;&gt;http://example.org/2 -->
<g id="edge6" class="edge"><title>bn0&#45;&gt;http://example.org/2</title>
<path fill="none" stroke="darkgreen" d="M261.207,-564.955C264.279,-570.629 280.413,-600.443 292.6,-622.963"/>
<polygon fill="darkgreen" stroke="darkgreen" points="289.531,-624.644 297.368,-631.773 295.687,-621.313 289.531,-624.644"/>
</g>
<!-- bn0&#45;&gt;http://example.org/disti#8 -->
<g id="edge5" class="edge"><title>bn0&#45;&gt;http://example.org/disti#8</title>
<path fill="none" stroke="darkgreen" d="M259.176,-564.294C249.619,-566.196 196.907,-577.353 159.691,-599 147.66,-605.998 135.843,-615.745 126.117,-624.776"/>
<polygon fill="darkgreen" stroke="darkgreen" points="123.59,-622.349 118.8,-631.799 128.438,-627.399 123.59,-622.349"/>
<text text-anchor="middle" x="167.691" y="-602.8" font-family="Times New Roman,serif" font-size="14.00">[2]</text>
</g>
<!-- http://example.org/distk_aj#23 -->
<g id="node9" class="node"><title>http://example.org/distk_aj#23</title>
<g id="a_node9"><a xlink:href="http://example.org/distk_aj#23" xlink:title="distk_aj#23">
<ellipse fill="#fffc87" stroke="#808080" cx="718.691" cy="-461" rx="52.7911" ry="18"/>
<text text-anchor="middle" x="718.691" y="-457.3" font-family="Times New Roman,serif" font-size="14.00">distk_aj#23</text>
</a>
</g>
</g>
<!-- http://example.org/access113 -->
<g id="node11" class="node"><title>http://example.org/access113</title>
<g id="a_node11"><a xlink:href="http://example.org/access113" xlink:title="access113">
<polygon fill="#9fb1fc" stroke="#0000ff" points="983.691,-581 909.691,-581 909.691,-545 983.691,-545 983.691,-581"/>
<text text-anchor="middle" x="946.691" y="-559.3" font-family="Times New Roman,serif" font-size="14.00">access113</text>
</a>
</g>
</g>
<!-- http://example.org/distk_aj#23&#45;&gt;http://example.org/access113 -->
<g id="edge16" class="edge"><title>http://example.org/distk_aj#23&#45;&gt;http://example.org/access113</title>
<path fill="none" stroke="black" d="M770.463,-464.772C804.969,-468.496 850.309,-477.122 885.691,-497 902.898,-506.667 918.099,-522.834 929.023,-536.625"/>
<polygon fill="black" stroke="black" points="926.416,-538.979 935.252,-544.826 931.991,-534.745 926.416,-538.979"/>
<text text-anchor="middle" x="779.448" y="-450.861" font-family="Times New Roman,serif" font-size="8.00">gen</text>
</g>
<!-- bn1 -->
<g id="node14" class="node"><title>bn1</title>
<ellipse fill="black" stroke="black" cx="718.691" cy="-563" rx="1.8" ry="1.8"/>
</g>
<!-- http://example.org/distk_aj#23&#45;&gt;bn1 -->
<g id="edge13" class="edge"><title>http://example.org/distk_aj#23&#45;&gt;bn1</title>
<path fill="none" stroke="darkgreen" d="M718.691,-479.419C718.691,-505.831 718.691,-553.728 718.691,-561.05"/>
<text text-anchor="middle" x="800.191" y="-515.8" font-family="Times New Roman,serif" font-size="14.00">der ac&#45;w</text>
<text text-anchor="middle" x="800.191" y="-500.8" font-family="Times New Roman,serif" font-size="14.00">2018&#45;03&#45;04T03:57:44.743132</text>
</g>
<!-- &#45;attrs2 -->
<g id="node10" class="node"><title>&#45;attrs2</title>
<polygon fill="none" stroke="gray" points="834.191,-406 627.191,-406 627.191,-344 840.191,-344 840.191,-400 834.191,-406"/>
<polyline fill="none" stroke="gray" points="834.191,-406 834.191,-400 "/>
<polyline fill="none" stroke="gray" points="840.191,-400 834.191,-400 "/>
<text text-anchor="start" x="637.691" y="-392" font-family="Times New Roman,serif" font-size="10.00">value:</text>
<text text-anchor="start" x="712.691" y="-392" font-family="Times New Roman,serif" font-size="10.00">&quot;3&quot;</text>
<text text-anchor="start" x="637.691" y="-379" font-family="Times New Roman,serif" font-size="10.00">type:</text>
<text text-anchor="start" x="712.691" y="-379" font-family="Times New Roman,serif" font-size="10.00">&quot;access&quot;</text>
<text text-anchor="start" x="637.691" y="-366" font-family="Times New Roman,serif" font-size="10.00">label:</text>
<text text-anchor="start" x="712.691" y="-366" font-family="Times New Roman,serif" font-size="10.00">&quot;distk[j]&quot;</text>
<text text-anchor="start" x="637.691" y="-353" font-family="Times New Roman,serif" font-size="10.00">generatedAtTime:</text>
<text text-anchor="start" x="712.691" y="-353" font-family="Times New Roman,serif" font-size="10.00">&quot;2018&#45;03&#45;04T03:57:44.743132&quot;</text>
</g>
<!-- &#45;attrs2&#45;&gt;http://example.org/distk_aj#23 -->
<g id="edge10" class="edge"><title>&#45;attrs2&#45;&gt;http://example.org/distk_aj#23</title>
<path fill="none" stroke="gray" stroke-dasharray="5,2" d="M728.276,-406.326C726.094,-418.544 723.656,-432.195 721.785,-442.672"/>
</g>
<!-- http://example.org/disti_aj#9 -->
<g id="node13" class="node"><title>http://example.org/disti_aj#9</title>
<ellipse fill="none" stroke="black" cx="952.691" cy="-650" rx="113.98" ry="18"/>
<text text-anchor="middle" x="952.691" y="-646.3" font-family="Times New Roman,serif" font-size="14.00">http://example.org/disti_aj#9</text>
</g>
<!-- http://example.org/access113&#45;&gt;http://example.org/disti_aj#9 -->
<g id="edge12" class="edge"><title>http://example.org/access113&#45;&gt;http://example.org/disti_aj#9</title>
<path fill="none" stroke="black" d="M947.905,-581.201C948.726,-592.837 949.829,-608.452 950.768,-621.763"/>
<polygon fill="black" stroke="black" points="947.283,-622.096 951.479,-631.825 954.266,-621.603 947.283,-622.096"/>
<text text-anchor="middle" x="961.391" y="-585.868" font-family="Times New Roman,serif" font-size="8.00">use</text>
</g>
<!-- http://example.org/distk#3 -->
<g id="node15" class="node"><title>http://example.org/distk#3</title>
<ellipse fill="none" stroke="black" cx="715.691" cy="-650" rx="105.082" ry="18"/>
<text text-anchor="middle" x="715.691" y="-646.3" font-family="Times New Roman,serif" font-size="14.00">http://example.org/distk#3</text>
</g>
<!-- http://example.org/access113&#45;&gt;http://example.org/distk#3 -->
<g id="edge17" class="edge"><title>http://example.org/access113&#45;&gt;http://example.org/distk#3</title>
<path fill="none" stroke="black" d="M909.577,-577.657C871.161,-591.793 810.839,-613.989 767.683,-629.869"/>
<polygon fill="black" stroke="black" points="766.379,-626.619 758.203,-633.357 768.796,-633.188 766.379,-626.619"/>
<text text-anchor="middle" x="907.024" y="-590.538" font-family="Times New Roman,serif" font-size="8.00">use</text>
</g>
<!-- http://example.org/j#23 -->
<g id="node16" class="node"><title>http://example.org/j#23</title>
<ellipse fill="none" stroke="black" cx="1178.69" cy="-650" rx="94.4839" ry="18"/>
<text text-anchor="middle" x="1178.69" y="-646.3" font-family="Times New Roman,serif" font-size="14.00">http://example.org/j#23</text>
</g>
<!-- http://example.org/access113&#45;&gt;http://example.org/j#23 -->
<g id="edge18" class="edge"><title>http://example.org/access113&#45;&gt;http://example.org/j#23</title>
<path fill="none" stroke="black" d="M983.709,-577.562C1022.6,-591.812 1084.05,-614.325 1127.56,-630.265"/>
<polygon fill="black" stroke="black" points="1126.51,-633.609 1137.1,-633.763 1128.92,-627.036 1126.51,-633.609"/>
<text text-anchor="middle" x="995.22" y="-566.045" font-family="Times New Roman,serif" font-size="8.00">use</text>
</g>
<!-- &#45;attrs3 -->
<g id="node12" class="node"><title>&#45;attrs3</title>
<polygon fill="none" stroke="gray" points="980.691,-479 906.691,-479 906.691,-443 986.691,-443 986.691,-473 980.691,-479"/>
<polyline fill="none" stroke="gray" points="980.691,-479 980.691,-473 "/>
<polyline fill="none" stroke="gray" points="986.691,-473 980.691,-473 "/>
<text text-anchor="start" x="916.691" y="-458" font-family="Times New Roman,serif" font-size="10.00">type:</text>
<text text-anchor="start" x="939.691" y="-458" font-family="Times New Roman,serif" font-size="10.00">&quot;access&quot;</text>
</g>
<!-- &#45;attrs3&#45;&gt;http://example.org/access113 -->
<g id="edge11" class="edge"><title>&#45;attrs3&#45;&gt;http://example.org/access113</title>
<path fill="none" stroke="gray" stroke-dasharray="5,2" d="M946.691,-479.419C946.691,-497.773 946.691,-526.502 946.691,-544.781"/>
</g>
<!-- bn1&#45;&gt;http://example.org/disti_aj#9 -->
<g id="edge15" class="edge"><title>bn1&#45;&gt;http://example.org/disti_aj#9</title>
<path fill="none" stroke="darkgreen" d="M720.185,-564.543C733.68,-569.445 835.511,-606.435 899.856,-629.808"/>
<polygon fill="darkgreen" stroke="darkgreen" points="898.858,-633.169 909.452,-633.294 901.248,-626.59 898.858,-633.169"/>
</g>
<!-- bn1&#45;&gt;http://example.org/distk#3 -->
<g id="edge14" class="edge"><title>bn1&#45;&gt;http://example.org/distk#3</title>
<path fill="none" stroke="darkgreen" d="M718.657,-564.955C718.46,-570.528 717.442,-599.391 716.652,-621.755"/>
<polygon fill="darkgreen" stroke="darkgreen" points="713.154,-621.656 716.299,-631.773 720.15,-621.903 713.154,-621.656"/>
<text text-anchor="middle" x="724.691" y="-602.8" font-family="Times New Roman,serif" font-size="14.00">[1]</text>
</g>
<!-- http://example.org/sum#23 -->
<g id="node17" class="node"><title>http://example.org/sum#23</title>
<g id="a_node17"><a xlink:href="http://example.org/sum#23" xlink:title="sum#23">
<ellipse fill="#fffc87" stroke="#808080" cx="598.691" cy="-289" rx="39.7935" ry="18"/>
<text text-anchor="middle" x="598.691" y="-285.3" font-family="Times New Roman,serif" font-size="14.00">sum#23</text>
</a>
</g>
</g>
<!-- http://example.org/sum#23&#45;&gt;http://example.org/disti_ak#23 -->
<g id="edge22" class="edge"><title>http://example.org/sum#23&#45;&gt;http://example.org/disti_ak#23</title>
<path fill="none" stroke="black" d="M570.98,-302.224C551.693,-311.68 526.214,-326.157 507.691,-344 484.073,-366.75 490.047,-382.009 467.691,-406 456.157,-418.378 441.499,-429.946 428.423,-439.174"/>
<polygon fill="black" stroke="black" points="426.368,-436.339 420.107,-444.886 430.332,-442.109 426.368,-436.339"/>
<text text-anchor="middle" x="570.095" y="-315.297" font-family="Times New Roman,serif" font-size="8.00">der</text>
</g>
<!-- http://example.org/sum#23&#45;&gt;http://example.org/distk_aj#23 -->
<g id="edge24" class="edge"><title>http://example.org/sum#23&#45;&gt;http://example.org/distk_aj#23</title>
<path fill="none" stroke="black" d="M597.236,-307.108C596.07,-331.418 597.341,-376.296 618.691,-406 631.399,-423.681 651.733,-436.153 670.758,-444.621"/>
<polygon fill="black" stroke="black" points="669.668,-447.959 680.245,-448.576 672.361,-441.498 669.668,-447.959"/>
<text text-anchor="middle" x="609.973" y="-313.132" font-family="Times New Roman,serif" font-size="8.00">der</text>
</g>
<!-- http://example.org/+23 -->
<g id="node19" class="node"><title>http://example.org/+23</title>
<g id="a_node19"><a xlink:href="http://example.org/+23" xlink:title="+23">
<polygon fill="#9fb1fc" stroke="#0000ff" points="570.691,-393 516.691,-393 516.691,-357 570.691,-357 570.691,-393"/>
<text text-anchor="middle" x="543.691" y="-371.3" font-family="Times New Roman,serif" font-size="14.00">+23</text>
</a>
</g>
</g>
<!-- http://example.org/sum#23&#45;&gt;http://example.org/+23 -->
<g id="edge25" class="edge"><title>http://example.org/sum#23&#45;&gt;http://example.org/+23</title>
<path fill="none" stroke="black" d="M587.825,-306.596C580.018,-318.519 569.346,-334.818 560.452,-348.401"/>
<polygon fill="black" stroke="black" points="557.462,-346.579 554.912,-356.862 563.318,-350.413 557.462,-346.579"/>
<text text-anchor="middle" x="594.584" y="-318.086" font-family="Times New Roman,serif" font-size="8.00">gen</text>
</g>
<!-- &#45;attrs4 -->
<g id="node18" class="node"><title>&#45;attrs4</title>
<polygon fill="none" stroke="gray" points="542.191,-234 335.191,-234 335.191,-172 548.191,-172 548.191,-228 542.191,-234"/>
<polyline fill="none" stroke="gray" points="542.191,-234 542.191,-228 "/>
<polyline fill="none" stroke="gray" points="548.191,-228 542.191,-228 "/>
<text text-anchor="start" x="345.691" y="-220" font-family="Times New Roman,serif" font-size="10.00">value:</text>
<text text-anchor="start" x="420.691" y="-220" font-family="Times New Roman,serif" font-size="10.00">&quot;5&quot;</text>
<text text-anchor="start" x="345.691" y="-207" font-family="Times New Roman,serif" font-size="10.00">type:</text>
<text text-anchor="start" x="420.691" y="-207" font-family="Times New Roman,serif" font-size="10.00">&quot;operation&quot;</text>
<text text-anchor="start" x="345.691" y="-194" font-family="Times New Roman,serif" font-size="10.00">label:</text>
<text text-anchor="start" x="420.691" y="-194" font-family="Times New Roman,serif" font-size="10.00">&quot;disti[k] + distk[j]&quot;</text>
<text text-anchor="start" x="345.691" y="-181" font-family="Times New Roman,serif" font-size="10.00">generatedAtTime:</text>
<text text-anchor="start" x="420.691" y="-181" font-family="Times New Roman,serif" font-size="10.00">&quot;2018&#45;03&#45;04T03:57:44.743132&quot;</text>
</g>
<!-- &#45;attrs4&#45;&gt;http://example.org/sum#23 -->
<g id="edge19" class="edge"><title>&#45;attrs4&#45;&gt;http://example.org/sum#23</title>
<path fill="none" stroke="gray" stroke-dasharray="5,2" d="M497.928,-234.089C523.972,-248.023 553.581,-263.865 573.927,-274.751"/>
</g>
<!-- http://example.org/+23&#45;&gt;http://example.org/disti_ak#23 -->
<g id="edge21" class="edge"><title>http://example.org/+23&#45;&gt;http://example.org/disti_ak#23</title>
<path fill="none" stroke="black" d="M532.663,-393.083C525.085,-403.607 514.162,-416.64 501.691,-425 492.007,-431.491 468.013,-439.612 445.298,-446.396"/>
<polygon fill="black" stroke="black" points="444.299,-443.042 435.687,-449.214 446.268,-449.759 444.299,-443.042"/>
<text text-anchor="middle" x="538.685" y="-404.921" font-family="Times New Roman,serif" font-size="8.00">use</text>
</g>
<!-- http://example.org/+23&#45;&gt;http://example.org/distk_aj#23 -->
<g id="edge23" class="edge"><title>http://example.org/+23&#45;&gt;http://example.org/distk_aj#23</title>
<path fill="none" stroke="black" d="M554.196,-393.358C561.491,-403.992 572.136,-417.045 584.691,-425 607.005,-439.138 634.846,-447.588 659.36,-452.627"/>
<polygon fill="black" stroke="black" points="658.801,-456.083 669.28,-454.522 660.114,-449.208 658.801,-456.083"/>
<text text-anchor="middle" x="569.137" y="-390.126" font-family="Times New Roman,serif" font-size="8.00">use</text>
</g>
<!-- &#45;attrs5 -->
<g id="node20" class="node"><title>&#45;attrs5</title>
<polygon fill="none" stroke="gray" points="534.691,-307 482.691,-307 482.691,-271 540.691,-271 540.691,-301 534.691,-307"/>
<polyline fill="none" stroke="gray" points="534.691,-307 534.691,-301 "/>
<polyline fill="none" stroke="gray" points="540.691,-301 534.691,-301 "/>
<text text-anchor="start" x="492.691" y="-286" font-family="Times New Roman,serif" font-size="10.00">type:</text>
<text text-anchor="start" x="515.691" y="-286" font-family="Times New Roman,serif" font-size="10.00">&quot;+&quot;</text>
</g>
<!-- &#45;attrs5&#45;&gt;http://example.org/+23 -->
<g id="edge20" class="edge"><title>&#45;attrs5&#45;&gt;http://example.org/+23</title>
<path fill="none" stroke="gray" stroke-dasharray="5,2" d="M518.321,-307.405C523.85,-321.917 531.683,-342.479 537.178,-356.905"/>
</g>
<!-- http://example.org/ikj#23 -->
<g id="node21" class="node"><title>http://example.org/ikj#23</title>
<g id="a_node21"><a xlink:href="http://example.org/ikj#23" xlink:title="ikj#23">
<ellipse fill="#fffc87" stroke="#808080" cx="667.691" cy="-117" rx="32.4942" ry="18"/>
<text text-anchor="middle" x="667.691" y="-113.3" font-family="Times New Roman,serif" font-size="14.00">ikj#23</text>
</a>
</g>
</g>
<!-- http://example.org/ikj#23&#45;&gt;http://example.org/sum#23 -->
<g id="edge29" class="edge"><title>http://example.org/ikj#23&#45;&gt;http://example.org/sum#23</title>
<path fill="none" stroke="darkgreen" d="M666.017,-135.28C663.241,-158.641 656.352,-201.15 640.691,-234 635.526,-244.835 627.893,-255.531 620.546,-264.509"/>
<polygon fill="darkgreen" stroke="darkgreen" points="617.789,-262.348 613.958,-272.226 623.113,-266.893 617.789,-262.348"/>
<text text-anchor="middle" x="741.191" y="-206.8" font-family="Times New Roman,serif" font-size="14.00">der ref</text>
<text text-anchor="middle" x="741.191" y="-191.8" font-family="Times New Roman,serif" font-size="14.00">2018&#45;03&#45;04T03:57:44.743132</text>
</g>
<!-- http://example.org/assign42 -->
<g id="node23" class="node"><title>http://example.org/assign42</title>
<g id="a_node23"><a xlink:href="http://example.org/assign42" xlink:title="assign42">
<polygon fill="#9fb1fc" stroke="#0000ff" points="631.191,-221 566.191,-221 566.191,-185 631.191,-185 631.191,-221"/>
<text text-anchor="middle" x="598.691" y="-199.3" font-family="Times New Roman,serif" font-size="14.00">assign42</text>
</a>
</g>
</g>
<!-- http://example.org/ikj#23&#45;&gt;http://example.org/assign42 -->
<g id="edge30" class="edge"><title>http://example.org/ikj#23&#45;&gt;http://example.org/assign42</title>
<path fill="none" stroke="black" d="M654.713,-133.8C644.727,-145.956 630.736,-162.989 619.234,-176.991"/>
<polygon fill="black" stroke="black" points="616.441,-174.877 612.798,-184.826 621.85,-179.32 616.441,-174.877"/>
<text text-anchor="middle" x="659.99" y="-145.941" font-family="Times New Roman,serif" font-size="8.00">gen</text>
</g>
<!-- &#45;attrs6 -->
<g id="node22" class="node"><title>&#45;attrs6</title>
<polygon fill="none" stroke="gray" points="768.191,-62 561.191,-62 561.191,-0 774.191,-0 774.191,-56 768.191,-62"/>
<polyline fill="none" stroke="gray" points="768.191,-62 768.191,-56 "/>
<polyline fill="none" stroke="gray" points="774.191,-56 768.191,-56 "/>
<text text-anchor="start" x="571.691" y="-48" font-family="Times New Roman,serif" font-size="10.00">value:</text>
<text text-anchor="start" x="646.691" y="-48" font-family="Times New Roman,serif" font-size="10.00">&quot;5&quot;</text>
<text text-anchor="start" x="571.691" y="-35" font-family="Times New Roman,serif" font-size="10.00">type:</text>
<text text-anchor="start" x="646.691" y="-35" font-family="Times New Roman,serif" font-size="10.00">&quot;name&quot;</text>
<text text-anchor="start" x="571.691" y="-22" font-family="Times New Roman,serif" font-size="10.00">label:</text>
<text text-anchor="start" x="646.691" y="-22" font-family="Times New Roman,serif" font-size="10.00">&quot;ikj&quot;</text>
<text text-anchor="start" x="571.691" y="-9" font-family="Times New Roman,serif" font-size="10.00">generatedAtTime:</text>
<text text-anchor="start" x="646.691" y="-9" font-family="Times New Roman,serif" font-size="10.00">&quot;2018&#45;03&#45;04T03:57:44.743132&quot;</text>
</g>
<!-- &#45;attrs6&#45;&gt;http://example.org/ikj#23 -->
<g id="edge26" class="edge"><title>&#45;attrs6&#45;&gt;http://example.org/ikj#23</title>
<path fill="none" stroke="gray" stroke-dasharray="5,2" d="M667.691,-62.3259C667.691,-74.5443 667.691,-88.1945 667.691,-98.6716"/>
</g>
<!-- http://example.org/assign42&#45;&gt;http://example.org/sum#23 -->
<g id="edge28" class="edge"><title>http://example.org/assign42&#45;&gt;http://example.org/sum#23</title>
<path fill="none" stroke="black" d="M598.691,-221.405C598.691,-232.743 598.691,-247.773 598.691,-260.685"/>
<polygon fill="black" stroke="black" points="595.191,-260.905 598.691,-270.905 602.191,-260.905 595.191,-260.905"/>
<text text-anchor="middle" x="611.681" y="-227.005" font-family="Times New Roman,serif" font-size="8.00">use</text>
</g>
<!-- &#45;attrs7 -->
<g id="node24" class="node"><title>&#45;attrs7</title>
<polygon fill="none" stroke="gray" points="611.191,-135 538.191,-135 538.191,-99 617.191,-99 617.191,-129 611.191,-135"/>
<polyline fill="none" stroke="gray" points="611.191,-135 611.191,-129 "/>
<polyline fill="none" stroke="gray" points="617.191,-129 611.191,-129 "/>
<text text-anchor="start" x="548.691" y="-114" font-family="Times New Roman,serif" font-size="10.00">type:</text>
<text text-anchor="start" x="571.691" y="-114" font-family="Times New Roman,serif" font-size="10.00">&quot;assign&quot;</text>
</g>
<!-- &#45;attrs7&#45;&gt;http://example.org/assign42 -->
<g id="edge27" class="edge"><title>&#45;attrs7&#45;&gt;http://example.org/assign42</title>
<path fill="none" stroke="gray" stroke-dasharray="5,2" d="M582.042,-135.405C585.67,-149.917 590.811,-170.479 594.417,-184.905"/>
</g>
</g>
</svg>
