<?xml version="1.0" encoding="UTF-8" standalone="no"?>
<!DOCTYPE svg PUBLIC "-//W3C//DTD SVG 1.1//EN"
 "http://www.w3.org/Graphics/SVG/1.1/DTD/svg11.dtd">
<!-- Generated by graphviz version 2.38.0 (20140413.2041)
 -->
<!-- Title: PROV Pages: 1 -->
<svg width="1152pt" height="607pt"
 viewBox="0.00 0.00 1152.00 606.91" xmlns="http://www.w3.org/2000/svg" xmlns:xlink="http://www.w3.org/1999/xlink">
<g id="graph0" class="graph" transform="scale(0.896477 0.896477) rotate(0) translate(4 673)">
<title>PROV</title>
<polygon fill="white" stroke="none" points="-4,4 -4,-673 1281.03,-673 1281.03,4 -4,4"/>
<!-- http://example.org/disti_ak#16 -->
<g id="node1" class="node"><title>http://example.org/disti_ak#16</title>
<g id="a_node1"><a xlink:href="http://example.org/disti_ak#16" xlink:title="disti_ak#16">
<ellipse fill="#fffc87" stroke="#808080" cx="338.74" cy="-461" rx="52.7911" ry="18"/>
<text text-anchor="middle" x="338.74" y="-457.3" font-family="Times New Roman,serif" font-size="14.00">disti_ak#16</text>
</a>
</g>
</g>
<!-- http://example.org/access78 -->
<g id="node3" class="node"><title>http://example.org/access78</title>
<g id="a_node3"><a xlink:href="http://example.org/access78" xlink:title="access78">
<polygon fill="#9fb1fc" stroke="#0000ff" points="372.74,-552 304.74,-552 304.74,-516 372.74,-516 372.74,-552"/>
<text text-anchor="middle" x="338.74" y="-530.3" font-family="Times New Roman,serif" font-size="14.00">access78</text>
</a>
</g>
</g>
<!-- http://example.org/disti_ak#16&#45;&gt;http://example.org/access78 -->
<g id="edge5" class="edge"><title>http://example.org/disti_ak#16&#45;&gt;http://example.org/access78</title>
<path fill="none" stroke="black" d="M338.74,-479.187C338.74,-487.211 338.74,-496.953 338.74,-505.931"/>
<polygon fill="black" stroke="black" points="335.24,-505.971 338.74,-515.971 342.24,-505.971 335.24,-505.971"/>
<text text-anchor="middle" x="351.73" y="-484.787" font-family="Times New Roman,serif" font-size="8.00">gen</text>
</g>
<!-- http://example.org/disti_aj#9 -->
<g id="node5" class="node"><title>http://example.org/disti_aj#9</title>
<ellipse fill="none" stroke="black" cx="113.74" cy="-651" rx="113.98" ry="18"/>
<text text-anchor="middle" x="113.74" y="-647.3" font-family="Times New Roman,serif" font-size="14.00">http://example.org/disti_aj#9</text>
</g>
<!-- http://example.org/disti_ak#16&#45;&gt;http://example.org/disti_aj#9 -->
<g id="edge4" class="edge"><title>http://example.org/disti_ak#16&#45;&gt;http://example.org/disti_aj#9</title>
<path fill="none" stroke="darkgreen" d="M290.254,-468.461C236.148,-476.705 153.457,-492.74 132.74,-516 106.851,-545.066 106.512,-592.625 109.496,-622.573"/>
<polygon fill="darkgreen" stroke="darkgreen" points="106.049,-623.226 110.705,-632.743 113,-622.399 106.049,-623.226"/>
<text text-anchor="middle" x="214.24" y="-537.8" font-family="Times New Roman,serif" font-size="14.00">der ref</text>
<text text-anchor="middle" x="214.24" y="-522.8" font-family="Times New Roman,serif" font-size="14.00">2018&#45;03&#45;03T20:04:25.850542</text>
</g>
<!-- &#45;attrs0 -->
<g id="node2" class="node"><title>&#45;attrs0</title>
<polygon fill="none" stroke="gray" points="439.24,-406 232.24,-406 232.24,-344 445.24,-344 445.24,-400 439.24,-406"/>
<polyline fill="none" stroke="gray" points="439.24,-406 439.24,-400 "/>
<polyline fill="none" stroke="gray" points="445.24,-400 439.24,-400 "/>
<text text-anchor="start" x="242.74" y="-392" font-family="Times New Roman,serif" font-size="10.00">value:</text>
<text text-anchor="start" x="317.74" y="-392" font-family="Times New Roman,serif" font-size="10.00">&quot;3&quot;</text>
<text text-anchor="start" x="242.74" y="-379" font-family="Times New Roman,serif" font-size="10.00">type:</text>
<text text-anchor="start" x="317.74" y="-379" font-family="Times New Roman,serif" font-size="10.00">&quot;access&quot;</text>
<text text-anchor="start" x="242.74" y="-366" font-family="Times New Roman,serif" font-size="10.00">label:</text>
<text text-anchor="start" x="317.74" y="-366" font-family="Times New Roman,serif" font-size="10.00">&quot;disti[k]&quot;</text>
<text text-anchor="start" x="242.74" y="-353" font-family="Times New Roman,serif" font-size="10.00">generatedAtTime:</text>
<text text-anchor="start" x="317.74" y="-353" font-family="Times New Roman,serif" font-size="10.00">&quot;2018&#45;03&#45;03T20:04:25.850542&quot;</text>
</g>
<!-- &#45;attrs0&#45;&gt;http://example.org/disti_ak#16 -->
<g id="edge1" class="edge"><title>&#45;attrs0&#45;&gt;http://example.org/disti_ak#16</title>
<path fill="none" stroke="gray" stroke-dasharray="5,2" d="M338.74,-406.326C338.74,-418.544 338.74,-432.195 338.74,-442.672"/>
</g>
<!-- http://example.org/access78&#45;&gt;http://example.org/disti_aj#9 -->
<g id="edge3" class="edge"><title>http://example.org/access78&#45;&gt;http://example.org/disti_aj#9</title>
<path fill="none" stroke="darkgreen" d="M304.559,-547.036C298.662,-548.864 292.558,-550.603 286.74,-552 236.436,-564.077 215.861,-542.987 171.74,-570 160.652,-576.789 142.362,-603.582 129.285,-624.313"/>
<polygon fill="darkgreen" stroke="darkgreen" points="126.171,-622.693 123.862,-633.033 132.115,-626.389 126.171,-622.693"/>
<text text-anchor="middle" x="253.24" y="-603.8" font-family="Times New Roman,serif" font-size="14.00">use</text>
<text text-anchor="middle" x="253.24" y="-588.8" font-family="Times New Roman,serif" font-size="14.00">disti#6[1]</text>
<text text-anchor="middle" x="253.24" y="-573.8" font-family="Times New Roman,serif" font-size="14.00">2018&#45;03&#45;03T20:04:25.850542</text>
</g>
<!-- http://example.org/disti#6 -->
<g id="node6" class="node"><title>http://example.org/disti#6</title>
<ellipse fill="none" stroke="black" cx="550.74" cy="-651" rx="102.882" ry="18"/>
<text text-anchor="middle" x="550.74" y="-647.3" font-family="Times New Roman,serif" font-size="14.00">http://example.org/disti#6</text>
</g>
<!-- http://example.org/access78&#45;&gt;http://example.org/disti#6 -->
<g id="edge6" class="edge"><title>http://example.org/access78&#45;&gt;http://example.org/disti#6</title>
<path fill="none" stroke="black" d="M370.478,-552.217C408.172,-572.663 471.041,-606.767 511.684,-628.814"/>
<polygon fill="black" stroke="black" points="510.045,-631.907 520.504,-633.598 513.382,-625.754 510.045,-631.907"/>
<text text-anchor="middle" x="383.265" y="-542.474" font-family="Times New Roman,serif" font-size="8.00">use</text>
</g>
<!-- http://example.org/k#2 -->
<g id="node7" class="node"><title>http://example.org/k#2</title>
<ellipse fill="none" stroke="black" cx="337.74" cy="-651" rx="92.0841" ry="18"/>
<text text-anchor="middle" x="337.74" y="-647.3" font-family="Times New Roman,serif" font-size="14.00">http://example.org/k#2</text>
</g>
<!-- http://example.org/access78&#45;&gt;http://example.org/k#2 -->
<g id="edge7" class="edge"><title>http://example.org/access78&#45;&gt;http://example.org/k#2</title>
<path fill="none" stroke="black" d="M338.588,-552.466C338.426,-571.064 338.168,-600.756 337.979,-622.499"/>
<polygon fill="black" stroke="black" points="334.477,-622.716 337.89,-632.746 341.477,-622.777 334.477,-622.716"/>
<text text-anchor="middle" x="351.513" y="-558.179" font-family="Times New Roman,serif" font-size="8.00">use</text>
</g>
<!-- &#45;attrs1 -->
<g id="node4" class="node"><title>&#45;attrs1</title>
<polygon fill="none" stroke="gray" points="483.74,-479 409.74,-479 409.74,-443 489.74,-443 489.74,-473 483.74,-479"/>
<polyline fill="none" stroke="gray" points="483.74,-479 483.74,-473 "/>
<polyline fill="none" stroke="gray" points="489.74,-473 483.74,-473 "/>
<text text-anchor="start" x="419.74" y="-458" font-family="Times New Roman,serif" font-size="10.00">type:</text>
<text text-anchor="start" x="442.74" y="-458" font-family="Times New Roman,serif" font-size="10.00">&quot;access&quot;</text>
</g>
<!-- &#45;attrs1&#45;&gt;http://example.org/access78 -->
<g id="edge2" class="edge"><title>&#45;attrs1&#45;&gt;http://example.org/access78</title>
<path fill="none" stroke="gray" stroke-dasharray="5,2" d="M423.153,-479.006C405.707,-490.165 382.974,-504.706 365.495,-515.886"/>
</g>
<!-- http://example.org/distk_aj#16 -->
<g id="node8" class="node"><title>http://example.org/distk_aj#16</title>
<g id="a_node8"><a xlink:href="http://example.org/distk_aj#16" xlink:title="distk_aj#16">
<ellipse fill="#fffc87" stroke="#808080" cx="736.74" cy="-461" rx="52.7911" ry="18"/>
<text text-anchor="middle" x="736.74" y="-457.3" font-family="Times New Roman,serif" font-size="14.00">distk_aj#16</text>
</a>
</g>
</g>
<!-- http://example.org/access79 -->
<g id="node10" class="node"><title>http://example.org/access79</title>
<g id="a_node10"><a xlink:href="http://example.org/access79" xlink:title="access79">
<polygon fill="#9fb1fc" stroke="#0000ff" points="987.74,-552 919.74,-552 919.74,-516 987.74,-516 987.74,-552"/>
<text text-anchor="middle" x="953.74" y="-530.3" font-family="Times New Roman,serif" font-size="14.00">access79</text>
</a>
</g>
</g>
<!-- http://example.org/distk_aj#16&#45;&gt;http://example.org/access79 -->
<g id="edge12" class="edge"><title>http://example.org/distk_aj#16&#45;&gt;http://example.org/access79</title>
<path fill="none" stroke="black" d="M774.187,-473.766C808.286,-484.544 859.992,-501.048 904.74,-516 906.384,-516.549 908.058,-517.112 909.748,-517.683"/>
<polygon fill="black" stroke="black" points="908.911,-521.096 919.505,-521.011 911.17,-514.47 908.911,-521.096"/>
<text text-anchor="middle" x="785.257" y="-461.745" font-family="Times New Roman,serif" font-size="8.00">gen</text>
</g>
<!-- http://example.org/m -->
<g id="node12" class="node"><title>http://example.org/m</title>
<ellipse fill="none" stroke="black" cx="756.74" cy="-651" rx="85.2851" ry="18"/>
<text text-anchor="middle" x="756.74" y="-647.3" font-family="Times New Roman,serif" font-size="14.00">http://example.org/m</text>
</g>
<!-- http://example.org/distk_aj#16&#45;&gt;http://example.org/m -->
<g id="edge11" class="edge"><title>http://example.org/distk_aj#16&#45;&gt;http://example.org/m</title>
<path fill="none" stroke="darkgreen" d="M738.55,-479.015C742.029,-511.72 749.675,-583.592 753.861,-622.94"/>
<polygon fill="darkgreen" stroke="darkgreen" points="750.381,-623.314 754.919,-632.888 757.342,-622.573 750.381,-623.314"/>
<text text-anchor="middle" x="827.24" y="-537.8" font-family="Times New Roman,serif" font-size="14.00">der ref</text>
<text text-anchor="middle" x="827.24" y="-522.8" font-family="Times New Roman,serif" font-size="14.00">2018&#45;03&#45;03T20:04:25.851044</text>
</g>
<!-- &#45;attrs2 -->
<g id="node9" class="node"><title>&#45;attrs2</title>
<polygon fill="none" stroke="gray" points="837.24,-406 630.24,-406 630.24,-344 843.24,-344 843.24,-400 837.24,-406"/>
<polyline fill="none" stroke="gray" points="837.24,-406 837.24,-400 "/>
<polyline fill="none" stroke="gray" points="843.24,-400 837.24,-400 "/>
<text text-anchor="start" x="640.74" y="-392" font-family="Times New Roman,serif" font-size="10.00">value:</text>
<text text-anchor="start" x="715.74" y="-392" font-family="Times New Roman,serif" font-size="10.00">&quot;10000&quot;</text>
<text text-anchor="start" x="640.74" y="-379" font-family="Times New Roman,serif" font-size="10.00">type:</text>
<text text-anchor="start" x="715.74" y="-379" font-family="Times New Roman,serif" font-size="10.00">&quot;access&quot;</text>
<text text-anchor="start" x="640.74" y="-366" font-family="Times New Roman,serif" font-size="10.00">label:</text>
<text text-anchor="start" x="715.74" y="-366" font-family="Times New Roman,serif" font-size="10.00">&quot;distk[j]&quot;</text>
<text text-anchor="start" x="640.74" y="-353" font-family="Times New Roman,serif" font-size="10.00">generatedAtTime:</text>
<text text-anchor="start" x="715.74" y="-353" font-family="Times New Roman,serif" font-size="10.00">&quot;2018&#45;03&#45;03T20:04:25.851044&quot;</text>
</g>
<!-- &#45;attrs2&#45;&gt;http://example.org/distk_aj#16 -->
<g id="edge8" class="edge"><title>&#45;attrs2&#45;&gt;http://example.org/distk_aj#16</title>
<path fill="none" stroke="gray" stroke-dasharray="5,2" d="M736.74,-406.326C736.74,-418.544 736.74,-432.195 736.74,-442.672"/>
</g>
<!-- http://example.org/access79&#45;&gt;http://example.org/m -->
<g id="edge10" class="edge"><title>http://example.org/access79&#45;&gt;http://example.org/m</title>
<path fill="none" stroke="darkgreen" d="M919.711,-547.697C914.733,-549.293 909.635,-550.788 904.74,-552 853.243,-564.747 827.934,-536.572 786.74,-570 771.001,-582.771 763.517,-604.701 759.959,-622.373"/>
<polygon fill="darkgreen" stroke="darkgreen" points="756.428,-622.263 758.213,-632.707 763.33,-623.43 756.428,-622.263"/>
<text text-anchor="middle" x="868.24" y="-603.8" font-family="Times New Roman,serif" font-size="14.00">use</text>
<text text-anchor="middle" x="868.24" y="-588.8" font-family="Times New Roman,serif" font-size="14.00">distk#2[0]</text>
<text text-anchor="middle" x="868.24" y="-573.8" font-family="Times New Roman,serif" font-size="14.00">2018&#45;03&#45;03T20:04:25.851044</text>
</g>
<!-- http://example.org/distk#2 -->
<g id="node13" class="node"><title>http://example.org/distk#2</title>
<ellipse fill="none" stroke="black" cx="1171.74" cy="-651" rx="105.082" ry="18"/>
<text text-anchor="middle" x="1171.74" y="-647.3" font-family="Times New Roman,serif" font-size="14.00">http://example.org/distk#2</text>
</g>
<!-- http://example.org/access79&#45;&gt;http://example.org/distk#2 -->
<g id="edge13" class="edge"><title>http://example.org/access79&#45;&gt;http://example.org/distk#2</title>
<path fill="none" stroke="black" d="M986.377,-552.217C1025.25,-572.722 1090.15,-606.962 1131.94,-629.002"/>
<polygon fill="black" stroke="black" points="1130.52,-632.212 1141,-633.782 1133.79,-626.021 1130.52,-632.212"/>
<text text-anchor="middle" x="999.071" y="-542.326" font-family="Times New Roman,serif" font-size="8.00">use</text>
</g>
<!-- http://example.org/j#16 -->
<g id="node14" class="node"><title>http://example.org/j#16</title>
<ellipse fill="none" stroke="black" cx="953.74" cy="-651" rx="94.4839" ry="18"/>
<text text-anchor="middle" x="953.74" y="-647.3" font-family="Times New Roman,serif" font-size="14.00">http://example.org/j#16</text>
</g>
<!-- http://example.org/access79&#45;&gt;http://example.org/j#16 -->
<g id="edge14" class="edge"><title>http://example.org/access79&#45;&gt;http://example.org/j#16</title>
<path fill="none" stroke="black" d="M953.74,-552.466C953.74,-571.064 953.74,-600.756 953.74,-622.499"/>
<polygon fill="black" stroke="black" points="950.24,-622.746 953.74,-632.746 957.24,-622.746 950.24,-622.746"/>
<text text-anchor="middle" x="966.73" y="-558.066" font-family="Times New Roman,serif" font-size="8.00">use</text>
</g>
<!-- &#45;attrs3 -->
<g id="node11" class="node"><title>&#45;attrs3</title>
<polygon fill="none" stroke="gray" points="987.74,-479 913.74,-479 913.74,-443 993.74,-443 993.74,-473 987.74,-479"/>
<polyline fill="none" stroke="gray" points="987.74,-479 987.74,-473 "/>
<polyline fill="none" stroke="gray" points="993.74,-473 987.74,-473 "/>
<text text-anchor="start" x="923.74" y="-458" font-family="Times New Roman,serif" font-size="10.00">type:</text>
<text text-anchor="start" x="946.74" y="-458" font-family="Times New Roman,serif" font-size="10.00">&quot;access&quot;</text>
</g>
<!-- &#45;attrs3&#45;&gt;http://example.org/access79 -->
<g id="edge9" class="edge"><title>&#45;attrs3&#45;&gt;http://example.org/access79</title>
<path fill="none" stroke="gray" stroke-dasharray="5,2" d="M953.74,-479.187C953.74,-490.35 953.74,-504.84 953.74,-515.971"/>
</g>
<!-- http://example.org/sum#16 -->
<g id="node15" class="node"><title>http://example.org/sum#16</title>
<g id="a_node15"><a xlink:href="http://example.org/sum#16" xlink:title="sum#16">
<ellipse fill="#fffc87" stroke="#808080" cx="534.74" cy="-289" rx="39.7935" ry="18"/>
<text text-anchor="middle" x="534.74" y="-285.3" font-family="Times New Roman,serif" font-size="14.00">sum#16</text>
</a>
</g>
</g>
<!-- http://example.org/sum#16&#45;&gt;http://example.org/disti_ak#16 -->
<g id="edge18" class="edge"><title>http://example.org/sum#16&#45;&gt;http://example.org/disti_ak#16</title>
<path fill="none" stroke="black" d="M522.662,-306.452C514.892,-317.102 504.623,-331.302 495.74,-344 476.661,-371.272 479.041,-384.376 453.74,-406 433.949,-422.915 407.961,-435.711 385.697,-444.591"/>
<polygon fill="black" stroke="black" points="384.173,-441.427 376.091,-448.277 386.681,-447.963 384.173,-441.427"/>
<text text-anchor="middle" x="528.744" y="-318.263" font-family="Times New Roman,serif" font-size="8.00">der</text>
</g>
<!-- http://example.org/sum#16&#45;&gt;http://example.org/distk_aj#16 -->
<g id="edge20" class="edge"><title>http://example.org/sum#16&#45;&gt;http://example.org/distk_aj#16</title>
<path fill="none" stroke="black" d="M545.556,-306.601C564.256,-334.935 602.382,-391.025 620.74,-406 641.224,-422.709 667.729,-435.553 690.232,-444.513"/>
<polygon fill="black" stroke="black" points="689.012,-447.794 699.602,-448.116 691.524,-441.26 689.012,-447.794"/>
<text text-anchor="middle" x="560.527" y="-303.761" font-family="Times New Roman,serif" font-size="8.00">der</text>
</g>
<!-- http://example.org/+16 -->
<g id="node17" class="node"><title>http://example.org/+16</title>
<g id="a_node17"><a xlink:href="http://example.org/+16" xlink:title="+16">
<polygon fill="#9fb1fc" stroke="#0000ff" points="558.74,-393 504.74,-393 504.74,-357 558.74,-357 558.74,-393"/>
<text text-anchor="middle" x="531.74" y="-371.3" font-family="Times New Roman,serif" font-size="14.00">+16</text>
</a>
</g>
</g>
<!-- http://example.org/sum#16&#45;&gt;http://example.org/+16 -->
<g id="edge21" class="edge"><title>http://example.org/sum#16&#45;&gt;http://example.org/+16</title>
<path fill="none" stroke="black" d="M534.133,-306.999C533.729,-318.309 533.189,-333.424 532.724,-346.434"/>
<polygon fill="black" stroke="black" points="529.216,-346.62 532.356,-356.738 536.211,-346.87 529.216,-346.62"/>
<text text-anchor="middle" x="546.847" y="-313.058" font-family="Times New Roman,serif" font-size="8.00">gen</text>
</g>
<!-- &#45;attrs4 -->
<g id="node16" class="node"><title>&#45;attrs4</title>
<polygon fill="none" stroke="gray" points="478.24,-234 271.24,-234 271.24,-172 484.24,-172 484.24,-228 478.24,-234"/>
<polyline fill="none" stroke="gray" points="478.24,-234 478.24,-228 "/>
<polyline fill="none" stroke="gray" points="484.24,-228 478.24,-228 "/>
<text text-anchor="start" x="281.74" y="-220" font-family="Times New Roman,serif" font-size="10.00">value:</text>
<text text-anchor="start" x="356.74" y="-220" font-family="Times New Roman,serif" font-size="10.00">&quot;10003&quot;</text>
<text text-anchor="start" x="281.74" y="-207" font-family="Times New Roman,serif" font-size="10.00">type:</text>
<text text-anchor="start" x="356.74" y="-207" font-family="Times New Roman,serif" font-size="10.00">&quot;operation&quot;</text>
<text text-anchor="start" x="281.74" y="-194" font-family="Times New Roman,serif" font-size="10.00">label:</text>
<text text-anchor="start" x="356.74" y="-194" font-family="Times New Roman,serif" font-size="10.00">&quot;disti[k] + distk[j]&quot;</text>
<text text-anchor="start" x="281.74" y="-181" font-family="Times New Roman,serif" font-size="10.00">generatedAtTime:</text>
<text text-anchor="start" x="356.74" y="-181" font-family="Times New Roman,serif" font-size="10.00">&quot;2018&#45;03&#45;03T20:04:25.851044&quot;</text>
</g>
<!-- &#45;attrs4&#45;&gt;http://example.org/sum#16 -->
<g id="edge15" class="edge"><title>&#45;attrs4&#45;&gt;http://example.org/sum#16</title>
<path fill="none" stroke="gray" stroke-dasharray="5,2" d="M433.977,-234.089C460.021,-248.023 489.63,-263.865 509.976,-274.751"/>
</g>
<!-- http://example.org/+16&#45;&gt;http://example.org/disti_ak#16 -->
<g id="edge17" class="edge"><title>http://example.org/+16&#45;&gt;http://example.org/disti_ak#16</title>
<path fill="none" stroke="black" d="M521.368,-393.121C513.913,-403.938 502.881,-417.285 489.74,-425 454.938,-445.432 440,-433.659 400.74,-443 396.587,-443.988 392.29,-445.061 387.987,-446.17"/>
<polygon fill="black" stroke="black" points="386.772,-442.87 377.994,-448.803 388.556,-449.639 386.772,-442.87"/>
<text text-anchor="middle" x="527.645" y="-404.844" font-family="Times New Roman,serif" font-size="8.00">use</text>
</g>
<!-- http://example.org/+16&#45;&gt;http://example.org/distk_aj#16 -->
<g id="edge19" class="edge"><title>http://example.org/+16&#45;&gt;http://example.org/distk_aj#16</title>
<path fill="none" stroke="black" d="M545.581,-393.459C554.963,-404.133 568.257,-417.192 582.74,-425 611.453,-440.479 646.739,-449.13 676.287,-453.957"/>
<polygon fill="black" stroke="black" points="676.066,-457.463 686.479,-455.509 677.12,-450.543 676.066,-457.463"/>
<text text-anchor="middle" x="560.259" y="-388.469" font-family="Times New Roman,serif" font-size="8.00">use</text>
</g>
<!-- &#45;attrs5 -->
<g id="node18" class="node"><title>&#45;attrs5</title>
<polygon fill="none" stroke="gray" points="470.74,-307 418.74,-307 418.74,-271 476.74,-271 476.74,-301 470.74,-307"/>
<polyline fill="none" stroke="gray" points="470.74,-307 470.74,-301 "/>
<polyline fill="none" stroke="gray" points="476.74,-301 470.74,-301 "/>
<text text-anchor="start" x="428.74" y="-286" font-family="Times New Roman,serif" font-size="10.00">type:</text>
<text text-anchor="start" x="451.74" y="-286" font-family="Times New Roman,serif" font-size="10.00">&quot;+&quot;</text>
</g>
<!-- &#45;attrs5&#45;&gt;http://example.org/+16 -->
<g id="edge16" class="edge"><title>&#45;attrs5&#45;&gt;http://example.org/+16</title>
<path fill="none" stroke="gray" stroke-dasharray="5,2" d="M465.145,-307.405C479.657,-321.917 500.219,-342.479 514.645,-356.905"/>
</g>
<!-- http://example.org/ikj#16 -->
<g id="node19" class="node"><title>http://example.org/ikj#16</title>
<g id="a_node19"><a xlink:href="http://example.org/ikj#16" xlink:title="ikj#16">
<ellipse fill="#fffc87" stroke="#808080" cx="603.74" cy="-117" rx="32.4942" ry="18"/>
<text text-anchor="middle" x="603.74" y="-113.3" font-family="Times New Roman,serif" font-size="14.00">ikj#16</text>
</a>
</g>
</g>
<!-- http://example.org/ikj#16&#45;&gt;http://example.org/sum#16 -->
<g id="edge25" class="edge"><title>http://example.org/ikj#16&#45;&gt;http://example.org/sum#16</title>
<path fill="none" stroke="darkgreen" d="M601.826,-135.254C598.745,-158.584 591.374,-201.059 575.74,-234 570.639,-244.747 563.176,-255.425 556.011,-264.413"/>
<polygon fill="darkgreen" stroke="darkgreen" points="553.285,-262.216 549.59,-272.145 558.671,-266.687 553.285,-262.216"/>
<text text-anchor="middle" x="677.24" y="-206.8" font-family="Times New Roman,serif" font-size="14.00">der ref</text>
<text text-anchor="middle" x="677.24" y="-191.8" font-family="Times New Roman,serif" font-size="14.00">2018&#45;03&#45;03T20:04:25.851044</text>
</g>
<!-- http://example.org/assign31 -->
<g id="node21" class="node"><title>http://example.org/assign31</title>
<g id="a_node21"><a xlink:href="http://example.org/assign31" xlink:title="assign31">
<polygon fill="#9fb1fc" stroke="#0000ff" points="567.24,-221 502.24,-221 502.24,-185 567.24,-185 567.24,-221"/>
<text text-anchor="middle" x="534.74" y="-199.3" font-family="Times New Roman,serif" font-size="14.00">assign31</text>
</a>
</g>
</g>
<!-- http://example.org/ikj#16&#45;&gt;http://example.org/assign31 -->
<g id="edge26" class="edge"><title>http://example.org/ikj#16&#45;&gt;http://example.org/assign31</title>
<path fill="none" stroke="black" d="M590.762,-133.8C580.776,-145.956 566.785,-162.989 555.283,-176.991"/>
<polygon fill="black" stroke="black" points="552.49,-174.877 548.847,-184.826 557.899,-179.32 552.49,-174.877"/>
<text text-anchor="middle" x="596.039" y="-145.941" font-family="Times New Roman,serif" font-size="8.00">gen</text>
</g>
<!-- &#45;attrs6 -->
<g id="node20" class="node"><title>&#45;attrs6</title>
<polygon fill="none" stroke="gray" points="704.24,-62 497.24,-62 497.24,-0 710.24,-0 710.24,-56 704.24,-62"/>
<polyline fill="none" stroke="gray" points="704.24,-62 704.24,-56 "/>
<polyline fill="none" stroke="gray" points="710.24,-56 704.24,-56 "/>
<text text-anchor="start" x="507.74" y="-48" font-family="Times New Roman,serif" font-size="10.00">value:</text>
<text text-anchor="start" x="582.74" y="-48" font-family="Times New Roman,serif" font-size="10.00">&quot;10003&quot;</text>
<text text-anchor="start" x="507.74" y="-35" font-family="Times New Roman,serif" font-size="10.00">type:</text>
<text text-anchor="start" x="582.74" y="-35" font-family="Times New Roman,serif" font-size="10.00">&quot;name&quot;</text>
<text text-anchor="start" x="507.74" y="-22" font-family="Times New Roman,serif" font-size="10.00">label:</text>
<text text-anchor="start" x="582.74" y="-22" font-family="Times New Roman,serif" font-size="10.00">&quot;ikj&quot;</text>
<text text-anchor="start" x="507.74" y="-9" font-family="Times New Roman,serif" font-size="10.00">generatedAtTime:</text>
<text text-anchor="start" x="582.74" y="-9" font-family="Times New Roman,serif" font-size="10.00">&quot;2018&#45;03&#45;03T20:04:25.851044&quot;</text>
</g>
<!-- &#45;attrs6&#45;&gt;http://example.org/ikj#16 -->
<g id="edge22" class="edge"><title>&#45;attrs6&#45;&gt;http://example.org/ikj#16</title>
<path fill="none" stroke="gray" stroke-dasharray="5,2" d="M603.74,-62.3259C603.74,-74.5443 603.74,-88.1945 603.74,-98.6716"/>
</g>
<!-- http://example.org/assign31&#45;&gt;http://example.org/sum#16 -->
<g id="edge24" class="edge"><title>http://example.org/assign31&#45;&gt;http://example.org/sum#16</title>
<path fill="none" stroke="black" d="M534.74,-221.405C534.74,-232.743 534.74,-247.773 534.74,-260.685"/>
<polygon fill="black" stroke="black" points="531.24,-260.905 534.74,-270.905 538.24,-260.905 531.24,-260.905"/>
<text text-anchor="middle" x="547.73" y="-227.005" font-family="Times New Roman,serif" font-size="8.00">use</text>
</g>
<!-- &#45;attrs7 -->
<g id="node22" class="node"><title>&#45;attrs7</title>
<polygon fill="none" stroke="gray" points="547.24,-135 474.24,-135 474.24,-99 553.24,-99 553.24,-129 547.24,-135"/>
<polyline fill="none" stroke="gray" points="547.24,-135 547.24,-129 "/>
<polyline fill="none" stroke="gray" points="553.24,-129 547.24,-129 "/>
<text text-anchor="start" x="484.74" y="-114" font-family="Times New Roman,serif" font-size="10.00">type:</text>
<text text-anchor="start" x="507.74" y="-114" font-family="Times New Roman,serif" font-size="10.00">&quot;assign&quot;</text>
</g>
<!-- &#45;attrs7&#45;&gt;http://example.org/assign31 -->
<g id="edge23" class="edge"><title>&#45;attrs7&#45;&gt;http://example.org/assign31</title>
<path fill="none" stroke="gray" stroke-dasharray="5,2" d="M518.091,-135.405C521.719,-149.917 526.86,-170.479 530.466,-184.905"/>
</g>
</g>
</svg>
