<?xml version="1.0" encoding="UTF-8" standalone="no"?>
<!DOCTYPE svg PUBLIC "-//W3C//DTD SVG 1.1//EN"
 "http://www.w3.org/Graphics/SVG/1.1/DTD/svg11.dtd">
<!-- Generated by graphviz version 2.38.0 (20140413.2041)
 -->
<!-- Title: PROV Pages: 1 -->
<svg width="692pt" height="333pt"
 viewBox="0.00 0.00 691.69 333.00" xmlns="http://www.w3.org/2000/svg" xmlns:xlink="http://www.w3.org/1999/xlink">
<g id="graph0" class="graph" transform="scale(1 1) rotate(0) translate(4 329)">
<title>PROV</title>
<polygon fill="white" stroke="none" points="-4,4 -4,-329 687.691,-329 687.691,4 -4,4"/>
<!-- http://example.org/disti_aj#29 -->
<g id="node1" class="node"><title>http://example.org/disti_aj#29</title>
<g id="a_node1"><a xlink:href="http://example.org/disti_aj#29" xlink:title="disti_aj#29">
<ellipse fill="#fffc87" stroke="#808080" cx="488.691" cy="-117" rx="50.0912" ry="18"/>
<text text-anchor="middle" x="488.691" y="-113.3" font-family="Times New Roman,serif" font-size="14.00">disti_aj#29</text>
</a>
</g>
</g>
<!-- http://example.org/access128 -->
<g id="node3" class="node"><title>http://example.org/access128</title>
<g id="a_node3"><a xlink:href="http://example.org/access128" xlink:title="access128">
<polygon fill="#9fb1fc" stroke="#0000ff" points="374.691,-208 300.691,-208 300.691,-172 374.691,-172 374.691,-208"/>
<text text-anchor="middle" x="337.691" y="-186.3" font-family="Times New Roman,serif" font-size="14.00">access128</text>
</a>
</g>
</g>
<!-- http://example.org/disti_aj#29&#45;&gt;http://example.org/access128 -->
<g id="edge5" class="edge"><title>http://example.org/disti_aj#29&#45;&gt;http://example.org/access128</title>
<path fill="none" stroke="black" d="M459.577,-131.69C437.919,-141.873 407.946,-155.966 383.144,-167.628"/>
<polygon fill="black" stroke="black" points="381.479,-164.543 373.919,-171.966 384.458,-170.878 381.479,-164.543"/>
<text text-anchor="middle" x="458.317" y="-144.737" font-family="Times New Roman,serif" font-size="8.00">gen</text>
</g>
<!-- http://example.org/disti_aj#9 -->
<g id="node5" class="node"><title>http://example.org/disti_aj#9</title>
<ellipse fill="none" stroke="black" cx="543.691" cy="-307" rx="113.98" ry="18"/>
<text text-anchor="middle" x="543.691" y="-303.3" font-family="Times New Roman,serif" font-size="14.00">http://example.org/disti_aj#9</text>
</g>
<!-- http://example.org/disti_aj#29&#45;&gt;http://example.org/disti_aj#9 -->
<g id="edge4" class="edge"><title>http://example.org/disti_aj#29&#45;&gt;http://example.org/disti_aj#9</title>
<path fill="none" stroke="darkgreen" d="M495.168,-135.027C503.056,-156.156 516.465,-193.388 525.691,-226 530.603,-243.363 535.063,-263.144 538.315,-278.692"/>
<polygon fill="darkgreen" stroke="darkgreen" points="534.929,-279.603 540.364,-288.698 541.787,-278.199 534.929,-279.603"/>
<text text-anchor="middle" x="602.191" y="-193.8" font-family="Times New Roman,serif" font-size="14.00">der ref</text>
<text text-anchor="middle" x="602.191" y="-178.8" font-family="Times New Roman,serif" font-size="14.00">2018&#45;03&#45;03T20:04:30.301875</text>
</g>
<!-- &#45;attrs0 -->
<g id="node2" class="node"><title>&#45;attrs0</title>
<polygon fill="none" stroke="gray" points="589.191,-62 382.191,-62 382.191,-0 595.191,-0 595.191,-56 589.191,-62"/>
<polyline fill="none" stroke="gray" points="589.191,-62 589.191,-56 "/>
<polyline fill="none" stroke="gray" points="595.191,-56 589.191,-56 "/>
<text text-anchor="start" x="392.691" y="-48" font-family="Times New Roman,serif" font-size="10.00">value:</text>
<text text-anchor="start" x="467.691" y="-48" font-family="Times New Roman,serif" font-size="10.00">&quot;3&quot;</text>
<text text-anchor="start" x="392.691" y="-35" font-family="Times New Roman,serif" font-size="10.00">type:</text>
<text text-anchor="start" x="467.691" y="-35" font-family="Times New Roman,serif" font-size="10.00">&quot;access&quot;</text>
<text text-anchor="start" x="392.691" y="-22" font-family="Times New Roman,serif" font-size="10.00">label:</text>
<text text-anchor="start" x="467.691" y="-22" font-family="Times New Roman,serif" font-size="10.00">&quot;disti[j]&quot;</text>
<text text-anchor="start" x="392.691" y="-9" font-family="Times New Roman,serif" font-size="10.00">generatedAtTime:</text>
<text text-anchor="start" x="467.691" y="-9" font-family="Times New Roman,serif" font-size="10.00">&quot;2018&#45;03&#45;03T20:04:30.301875&quot;</text>
</g>
<!-- &#45;attrs0&#45;&gt;http://example.org/disti_aj#29 -->
<g id="edge1" class="edge"><title>&#45;attrs0&#45;&gt;http://example.org/disti_aj#29</title>
<path fill="none" stroke="gray" stroke-dasharray="5,2" d="M488.691,-62.3259C488.691,-74.5443 488.691,-88.1945 488.691,-98.6716"/>
</g>
<!-- http://example.org/access128&#45;&gt;http://example.org/disti_aj#9 -->
<g id="edge3" class="edge"><title>http://example.org/access128&#45;&gt;http://example.org/disti_aj#9</title>
<path fill="none" stroke="darkgreen" d="M338.137,-208.074C339.58,-226.39 344.791,-254.998 362.691,-271 369.981,-277.517 411.555,-285.787 453.021,-292.652"/>
<polygon fill="darkgreen" stroke="darkgreen" points="452.541,-296.12 462.974,-294.275 453.667,-289.211 452.541,-296.12"/>
<text text-anchor="middle" x="444.191" y="-259.8" font-family="Times New Roman,serif" font-size="14.00">use</text>
<text text-anchor="middle" x="444.191" y="-244.8" font-family="Times New Roman,serif" font-size="14.00">disti#9[2]</text>
<text text-anchor="middle" x="444.191" y="-229.8" font-family="Times New Roman,serif" font-size="14.00">2018&#45;03&#45;03T20:04:30.301875</text>
</g>
<!-- http://example.org/disti#9 -->
<g id="node6" class="node"><title>http://example.org/disti#9</title>
<ellipse fill="none" stroke="black" cx="102.691" cy="-307" rx="102.882" ry="18"/>
<text text-anchor="middle" x="102.691" y="-303.3" font-family="Times New Roman,serif" font-size="14.00">http://example.org/disti#9</text>
</g>
<!-- http://example.org/access128&#45;&gt;http://example.org/disti#9 -->
<g id="edge6" class="edge"><title>http://example.org/access128&#45;&gt;http://example.org/disti#9</title>
<path fill="none" stroke="black" d="M302.763,-208.092C260.626,-228.713 189.842,-263.352 144.747,-285.42"/>
<polygon fill="black" stroke="black" points="142.977,-282.389 135.533,-289.928 146.054,-288.676 142.977,-282.389"/>
<text text-anchor="middle" x="301.736" y="-221.157" font-family="Times New Roman,serif" font-size="8.00">use</text>
</g>
<!-- http://example.org/j#26 -->
<g id="node7" class="node"><title>http://example.org/j#26</title>
<ellipse fill="none" stroke="black" cx="317.691" cy="-307" rx="94.4839" ry="18"/>
<text text-anchor="middle" x="317.691" y="-303.3" font-family="Times New Roman,serif" font-size="14.00">http://example.org/j#26</text>
</g>
<!-- http://example.org/access128&#45;&gt;http://example.org/j#26 -->
<g id="edge7" class="edge"><title>http://example.org/access128&#45;&gt;http://example.org/j#26</title>
<path fill="none" stroke="black" d="M334.653,-208.466C331.404,-227.149 326.208,-257.027 322.422,-278.796"/>
<polygon fill="black" stroke="black" points="318.957,-278.295 320.692,-288.746 325.853,-279.494 318.957,-278.295"/>
<text text-anchor="middle" x="346.167" y="-216.181" font-family="Times New Roman,serif" font-size="8.00">use</text>
</g>
<!-- &#45;attrs1 -->
<g id="node4" class="node"><title>&#45;attrs1</title>
<polygon fill="none" stroke="gray" points="371.691,-135 297.691,-135 297.691,-99 377.691,-99 377.691,-129 371.691,-135"/>
<polyline fill="none" stroke="gray" points="371.691,-135 371.691,-129 "/>
<polyline fill="none" stroke="gray" points="377.691,-129 371.691,-129 "/>
<text text-anchor="start" x="307.691" y="-114" font-family="Times New Roman,serif" font-size="10.00">type:</text>
<text text-anchor="start" x="330.691" y="-114" font-family="Times New Roman,serif" font-size="10.00">&quot;access&quot;</text>
</g>
<!-- &#45;attrs1&#45;&gt;http://example.org/access128 -->
<g id="edge2" class="edge"><title>&#45;attrs1&#45;&gt;http://example.org/access128</title>
<path fill="none" stroke="gray" stroke-dasharray="5,2" d="M337.691,-135.187C337.691,-146.35 337.691,-160.84 337.691,-171.971"/>
</g>
</g>
</svg>
