<?xml version="1.0" encoding="UTF-8" standalone="no"?>
<!DOCTYPE svg PUBLIC "-//W3C//DTD SVG 1.1//EN"
 "http://www.w3.org/Graphics/SVG/1.1/DTD/svg11.dtd">
<!-- Generated by graphviz version 2.38.0 (20140413.2041)
 -->
<!-- Title: PROV Pages: 1 -->
<svg width="696pt" height="333pt"
 viewBox="0.00 0.00 695.69 333.00" xmlns="http://www.w3.org/2000/svg" xmlns:xlink="http://www.w3.org/1999/xlink">
<g id="graph0" class="graph" transform="scale(1 1) rotate(0) translate(4 329)">
<title>PROV</title>
<polygon fill="white" stroke="none" points="-4,4 -4,-329 691.691,-329 691.691,4 -4,4"/>
<!-- http://example.org/disti_aj#22 -->
<g id="node1" class="node"><title>http://example.org/disti_aj#22</title>
<g id="a_node1"><a xlink:href="http://example.org/disti_aj#22" xlink:title="disti_aj#22">
<ellipse fill="#fffc87" stroke="#808080" cx="492.691" cy="-117" rx="50.0912" ry="18"/>
<text text-anchor="middle" x="492.691" y="-113.3" font-family="Times New Roman,serif" font-size="14.00">disti_aj#22</text>
</a>
</g>
</g>
<!-- http://example.org/access100 -->
<g id="node3" class="node"><title>http://example.org/access100</title>
<g id="a_node3"><a xlink:href="http://example.org/access100" xlink:title="access100">
<polygon fill="#9fb1fc" stroke="#0000ff" points="375.691,-208 301.691,-208 301.691,-172 375.691,-172 375.691,-208"/>
<text text-anchor="middle" x="338.691" y="-186.3" font-family="Times New Roman,serif" font-size="14.00">access100</text>
</a>
</g>
</g>
<!-- http://example.org/disti_aj#22&#45;&gt;http://example.org/access100 -->
<g id="edge5" class="edge"><title>http://example.org/disti_aj#22&#45;&gt;http://example.org/access100</title>
<path fill="none" stroke="black" d="M462.998,-131.69C440.91,-141.873 410.342,-155.966 385.047,-167.628"/>
<polygon fill="black" stroke="black" points="383.255,-164.6 375.639,-171.966 386.186,-170.957 383.255,-164.6"/>
<text text-anchor="middle" x="461.626" y="-144.727" font-family="Times New Roman,serif" font-size="8.00">gen</text>
</g>
<!-- http://example.org/disti_aj#14 -->
<g id="node5" class="node"><title>http://example.org/disti_aj#14</title>
<ellipse fill="none" stroke="black" cx="548.691" cy="-307" rx="118.079" ry="18"/>
<text text-anchor="middle" x="548.691" y="-303.3" font-family="Times New Roman,serif" font-size="14.00">http://example.org/disti_aj#14</text>
</g>
<!-- http://example.org/disti_aj#22&#45;&gt;http://example.org/disti_aj#14 -->
<g id="edge4" class="edge"><title>http://example.org/disti_aj#22&#45;&gt;http://example.org/disti_aj#14</title>
<path fill="none" stroke="darkgreen" d="M499.104,-135.045C506.927,-156.193 520.272,-193.443 529.691,-226 534.719,-243.381 539.426,-263.162 542.897,-278.706"/>
<polygon fill="darkgreen" stroke="darkgreen" points="539.53,-279.69 545.091,-288.708 546.367,-278.19 539.53,-279.69"/>
<text text-anchor="middle" x="606.191" y="-193.8" font-family="Times New Roman,serif" font-size="14.00">der ref</text>
<text text-anchor="middle" x="606.191" y="-178.8" font-family="Times New Roman,serif" font-size="14.00">2018&#45;03&#45;03T20:04:27.675394</text>
</g>
<!-- &#45;attrs0 -->
<g id="node2" class="node"><title>&#45;attrs0</title>
<polygon fill="none" stroke="gray" points="593.191,-62 386.191,-62 386.191,-0 599.191,-0 599.191,-56 593.191,-62"/>
<polyline fill="none" stroke="gray" points="593.191,-62 593.191,-56 "/>
<polyline fill="none" stroke="gray" points="599.191,-56 593.191,-56 "/>
<text text-anchor="start" x="396.691" y="-48" font-family="Times New Roman,serif" font-size="10.00">value:</text>
<text text-anchor="start" x="471.691" y="-48" font-family="Times New Roman,serif" font-size="10.00">&quot;1&quot;</text>
<text text-anchor="start" x="396.691" y="-35" font-family="Times New Roman,serif" font-size="10.00">type:</text>
<text text-anchor="start" x="471.691" y="-35" font-family="Times New Roman,serif" font-size="10.00">&quot;access&quot;</text>
<text text-anchor="start" x="396.691" y="-22" font-family="Times New Roman,serif" font-size="10.00">label:</text>
<text text-anchor="start" x="471.691" y="-22" font-family="Times New Roman,serif" font-size="10.00">&quot;disti[j]&quot;</text>
<text text-anchor="start" x="396.691" y="-9" font-family="Times New Roman,serif" font-size="10.00">generatedAtTime:</text>
<text text-anchor="start" x="471.691" y="-9" font-family="Times New Roman,serif" font-size="10.00">&quot;2018&#45;03&#45;03T20:04:27.675394&quot;</text>
</g>
<!-- &#45;attrs0&#45;&gt;http://example.org/disti_aj#22 -->
<g id="edge1" class="edge"><title>&#45;attrs0&#45;&gt;http://example.org/disti_aj#22</title>
<path fill="none" stroke="gray" stroke-dasharray="5,2" d="M492.691,-62.3259C492.691,-74.5443 492.691,-88.1945 492.691,-98.6716"/>
</g>
<!-- http://example.org/access100&#45;&gt;http://example.org/disti_aj#14 -->
<g id="edge3" class="edge"><title>http://example.org/access100&#45;&gt;http://example.org/disti_aj#14</title>
<path fill="none" stroke="darkgreen" d="M339.822,-208.126C341.992,-226.488 348.311,-255.136 366.691,-271 374.076,-277.374 415.31,-285.564 456.664,-292.419"/>
<polygon fill="darkgreen" stroke="darkgreen" points="456.162,-295.883 466.595,-294.04 457.29,-288.974 456.162,-295.883"/>
<text text-anchor="middle" x="448.191" y="-259.8" font-family="Times New Roman,serif" font-size="14.00">use</text>
<text text-anchor="middle" x="448.191" y="-244.8" font-family="Times New Roman,serif" font-size="14.00">disti#7[2]</text>
<text text-anchor="middle" x="448.191" y="-229.8" font-family="Times New Roman,serif" font-size="14.00">2018&#45;03&#45;03T20:04:27.675394</text>
</g>
<!-- http://example.org/disti#7 -->
<g id="node6" class="node"><title>http://example.org/disti#7</title>
<ellipse fill="none" stroke="black" cx="102.691" cy="-307" rx="102.882" ry="18"/>
<text text-anchor="middle" x="102.691" y="-303.3" font-family="Times New Roman,serif" font-size="14.00">http://example.org/disti#7</text>
</g>
<!-- http://example.org/access100&#45;&gt;http://example.org/disti#7 -->
<g id="edge6" class="edge"><title>http://example.org/access100&#45;&gt;http://example.org/disti#7</title>
<path fill="none" stroke="black" d="M303.614,-208.092C261.298,-228.713 190.212,-263.352 144.926,-285.42"/>
<polygon fill="black" stroke="black" points="143.129,-282.401 135.673,-289.928 146.196,-288.694 143.129,-282.401"/>
<text text-anchor="middle" x="302.562" y="-221.156" font-family="Times New Roman,serif" font-size="8.00">use</text>
</g>
<!-- http://example.org/j#20 -->
<g id="node7" class="node"><title>http://example.org/j#20</title>
<ellipse fill="none" stroke="black" cx="317.691" cy="-307" rx="94.4839" ry="18"/>
<text text-anchor="middle" x="317.691" y="-303.3" font-family="Times New Roman,serif" font-size="14.00">http://example.org/j#20</text>
</g>
<!-- http://example.org/access100&#45;&gt;http://example.org/j#20 -->
<g id="edge7" class="edge"><title>http://example.org/access100&#45;&gt;http://example.org/j#20</title>
<path fill="none" stroke="black" d="M335.501,-208.466C332.09,-227.149 326.634,-257.027 322.659,-278.796"/>
<polygon fill="black" stroke="black" points="319.195,-278.28 320.842,-288.746 326.081,-279.538 319.195,-278.28"/>
<text text-anchor="middle" x="346.933" y="-216.278" font-family="Times New Roman,serif" font-size="8.00">use</text>
</g>
<!-- &#45;attrs1 -->
<g id="node4" class="node"><title>&#45;attrs1</title>
<polygon fill="none" stroke="gray" points="372.691,-135 298.691,-135 298.691,-99 378.691,-99 378.691,-129 372.691,-135"/>
<polyline fill="none" stroke="gray" points="372.691,-135 372.691,-129 "/>
<polyline fill="none" stroke="gray" points="378.691,-129 372.691,-129 "/>
<text text-anchor="start" x="308.691" y="-114" font-family="Times New Roman,serif" font-size="10.00">type:</text>
<text text-anchor="start" x="331.691" y="-114" font-family="Times New Roman,serif" font-size="10.00">&quot;access&quot;</text>
</g>
<!-- &#45;attrs1&#45;&gt;http://example.org/access100 -->
<g id="edge2" class="edge"><title>&#45;attrs1&#45;&gt;http://example.org/access100</title>
<path fill="none" stroke="gray" stroke-dasharray="5,2" d="M338.691,-135.187C338.691,-146.35 338.691,-160.84 338.691,-171.971"/>
</g>
</g>
</svg>
