<?xml version="1.0" encoding="UTF-8" standalone="no"?>
<!DOCTYPE svg PUBLIC "-//W3C//DTD SVG 1.1//EN"
 "http://www.w3.org/Graphics/SVG/1.1/DTD/svg11.dtd">
<!-- Generated by graphviz version 2.38.0 (20140413.2041)
 -->
<!-- Title: PROV Pages: 1 -->
<svg width="586pt" height="795pt"
 viewBox="0.00 0.00 586.00 795.00" xmlns="http://www.w3.org/2000/svg" xmlns:xlink="http://www.w3.org/1999/xlink">
<g id="graph0" class="graph" transform="scale(1 1) rotate(0) translate(4 791)">
<title>PROV</title>
<polygon fill="white" stroke="none" points="-4,4 -4,-791 582,-791 582,4 -4,4"/>
<!-- http://example.org/10000 -->
<g id="node1" class="node"><title>http://example.org/10000</title>
<g id="a_node1"><a xlink:href="http://example.org/10000" xlink:title="10000">
<ellipse fill="#fffc87" stroke="#808080" cx="78" cy="-696" rx="32.4942" ry="18"/>
<text text-anchor="middle" x="78" y="-692.3" font-family="Times New Roman,serif" font-size="14.00">10000</text>
</a>
</g>
</g>
<!-- http://example.org/10000_v1 -->
<g id="node3" class="node"><title>http://example.org/10000_v1</title>
<g id="a_node3"><a xlink:href="http://example.org/10000_v1" xlink:title="10000_v1">
<ellipse fill="#32cd32" stroke="#808080" cx="174" cy="-769" rx="46.2923" ry="18"/>
<text text-anchor="middle" x="174" y="-765.3" font-family="Times New Roman,serif" font-size="14.00">10000_v1</text>
</a>
</g>
</g>
<!-- http://example.org/10000&#45;&gt;http://example.org/10000_v1 -->
<g id="edge3" class="edge"><title>http://example.org/10000&#45;&gt;http://example.org/10000_v1</title>
<path fill="none" stroke="black" d="M96.9665,-711.027C110.706,-721.189 129.529,-735.11 145.129,-746.647"/>
<polygon fill="black" stroke="black" points="143.29,-749.641 153.411,-752.773 147.452,-744.012 143.29,-749.641"/>
<text text-anchor="middle" x="110.721" y="-703.143" font-family="Times New Roman,serif" font-size="8.00">spe</text>
</g>
<!-- &#45;attrs0 -->
<g id="node2" class="node"><title>&#45;attrs0</title>
<polygon fill="none" stroke="gray" points="88,-612 -7.10543e-015,-612 -7.10543e-015,-576 94,-576 94,-606 88,-612"/>
<polyline fill="none" stroke="gray" points="88,-612 88,-606 "/>
<polyline fill="none" stroke="gray" points="94,-606 88,-606 "/>
<text text-anchor="start" x="10" y="-598" font-family="Times New Roman,serif" font-size="10.00">value:</text>
<text text-anchor="start" x="37" y="-598" font-family="Times New Roman,serif" font-size="10.00">10000</text>
<text text-anchor="start" x="10" y="-585" font-family="Times New Roman,serif" font-size="10.00">type:</text>
<text text-anchor="start" x="37" y="-585" font-family="Times New Roman,serif" font-size="10.00">script:literal</text>
</g>
<!-- &#45;attrs0&#45;&gt;http://example.org/10000 -->
<g id="edge1" class="edge"><title>&#45;attrs0&#45;&gt;http://example.org/10000</title>
<path fill="none" stroke="gray" stroke-dasharray="5,2" d="M52.3998,-612.419C58.1243,-630.885 67.1044,-659.853 72.7654,-678.114"/>
</g>
<!-- &#45;attrs1 -->
<g id="node4" class="node"><title>&#45;attrs1</title>
<polygon fill="none" stroke="gray" points="296,-714 128,-714 128,-678 302,-678 302,-708 296,-714"/>
<polyline fill="none" stroke="gray" points="296,-714 296,-708 "/>
<polyline fill="none" stroke="gray" points="302,-708 296,-708 "/>
<text text-anchor="start" x="138" y="-700" font-family="Times New Roman,serif" font-size="10.00">generatedAtTime:</text>
<text text-anchor="start" x="213" y="-700" font-family="Times New Roman,serif" font-size="10.00">T1</text>
<text text-anchor="start" x="138" y="-687" font-family="Times New Roman,serif" font-size="10.00">type:</text>
<text text-anchor="start" x="213" y="-687" font-family="Times New Roman,serif" font-size="10.00">intertwined:Version</text>
</g>
<!-- &#45;attrs1&#45;&gt;http://example.org/10000_v1 -->
<g id="edge2" class="edge"><title>&#45;attrs1&#45;&gt;http://example.org/10000_v1</title>
<path fill="none" stroke="gray" stroke-dasharray="5,2" d="M205.075,-714.187C198.629,-725.35 190.262,-739.84 183.834,-750.971"/>
</g>
<!-- http://example.org/m -->
<g id="node5" class="node"><title>http://example.org/m</title>
<g id="a_node5"><a xlink:href="http://example.org/m" xlink:title="m">
<ellipse fill="#fffc87" stroke="#808080" cx="139" cy="-594" rx="27" ry="18"/>
<text text-anchor="middle" x="139" y="-590.3" font-family="Times New Roman,serif" font-size="14.00">m</text>
</a>
</g>
</g>
<!-- http://example.org/m&#45;&gt;http://example.org/10000 -->
<g id="edge5" class="edge"><title>http://example.org/m&#45;&gt;http://example.org/10000</title>
<path fill="none" stroke="darkgreen" d="M129.199,-611.067C119.519,-626.936 104.571,-651.441 93.3212,-669.883"/>
<polygon fill="darkgreen" stroke="darkgreen" points="90.1987,-668.281 87.979,-678.641 96.1746,-671.927 90.1987,-668.281"/>
<text text-anchor="middle" x="136.5" y="-648.8" font-family="Times New Roman,serif" font-size="14.00">der ref</text>
<text text-anchor="middle" x="136.5" y="-633.8" font-family="Times New Roman,serif" font-size="14.00">T2</text>
</g>
<!-- &#45;attrs2 -->
<g id="node6" class="node"><title>&#45;attrs2</title>
<polygon fill="none" stroke="gray" points="179.5,-525 92.5,-525 92.5,-476 185.5,-476 185.5,-519 179.5,-525"/>
<polyline fill="none" stroke="gray" points="179.5,-525 179.5,-519 "/>
<polyline fill="none" stroke="gray" points="185.5,-519 179.5,-519 "/>
<text text-anchor="start" x="103" y="-510.5" font-family="Times New Roman,serif" font-size="10.00">value:</text>
<text text-anchor="start" x="130" y="-510.5" font-family="Times New Roman,serif" font-size="10.00">10000</text>
<text text-anchor="start" x="103" y="-497.5" font-family="Times New Roman,serif" font-size="10.00">type:</text>
<text text-anchor="start" x="130" y="-497.5" font-family="Times New Roman,serif" font-size="10.00">script:name</text>
<text text-anchor="start" x="103" y="-484.5" font-family="Times New Roman,serif" font-size="10.00">label:</text>
<text text-anchor="start" x="130" y="-484.5" font-family="Times New Roman,serif" font-size="10.00">m</text>
</g>
<!-- &#45;attrs2&#45;&gt;http://example.org/m -->
<g id="edge4" class="edge"><title>&#45;attrs2&#45;&gt;http://example.org/m</title>
<path fill="none" stroke="gray" stroke-dasharray="5,2" d="M139,-525.064C139,-540.949 139,-561.543 139,-575.873"/>
</g>
<!-- http://example.org/sum -->
<g id="node7" class="node"><title>http://example.org/sum</title>
<g id="a_node7"><a xlink:href="http://example.org/sum" xlink:title="sum">
<ellipse fill="#fffc87" stroke="#808080" cx="310" cy="-594" rx="27" ry="18"/>
<text text-anchor="middle" x="310" y="-590.3" font-family="Times New Roman,serif" font-size="14.00">sum</text>
</a>
</g>
</g>
<!-- http://example.org/sum_v1 -->
<g id="node9" class="node"><title>http://example.org/sum_v1</title>
<g id="a_node9"><a xlink:href="http://example.org/sum_v1" xlink:title="sum_v1">
<ellipse fill="#32cd32" stroke="#808080" cx="401" cy="-696" rx="39.7935" ry="18"/>
<text text-anchor="middle" x="401" y="-692.3" font-family="Times New Roman,serif" font-size="14.00">sum_v1</text>
</a>
</g>
</g>
<!-- http://example.org/sum&#45;&gt;http://example.org/sum_v1 -->
<g id="edge8" class="edge"><title>http://example.org/sum&#45;&gt;http://example.org/sum_v1</title>
<path fill="none" stroke="black" d="M323.427,-609.755C338.288,-626.086 362.437,-652.623 379.845,-671.753"/>
<polygon fill="black" stroke="black" points="377.296,-674.152 386.615,-679.193 382.473,-669.441 377.296,-674.152"/>
<text text-anchor="middle" x="338.083" y="-604.659" font-family="Times New Roman,serif" font-size="8.00">spe</text>
</g>
<!-- &#45;attrs3 -->
<g id="node8" class="node"><title>&#45;attrs3</title>
<polygon fill="none" stroke="gray" points="395.5,-525 290.5,-525 290.5,-476 401.5,-476 401.5,-519 395.5,-525"/>
<polyline fill="none" stroke="gray" points="395.5,-525 395.5,-519 "/>
<polyline fill="none" stroke="gray" points="401.5,-519 395.5,-519 "/>
<text text-anchor="start" x="301" y="-510.5" font-family="Times New Roman,serif" font-size="10.00">value:</text>
<text text-anchor="start" x="328" y="-510.5" font-family="Times New Roman,serif" font-size="10.00">10001</text>
<text text-anchor="start" x="301" y="-497.5" font-family="Times New Roman,serif" font-size="10.00">type:</text>
<text text-anchor="start" x="328" y="-497.5" font-family="Times New Roman,serif" font-size="10.00">script:operation</text>
<text text-anchor="start" x="301" y="-484.5" font-family="Times New Roman,serif" font-size="10.00">label:</text>
<text text-anchor="start" x="328" y="-484.5" font-family="Times New Roman,serif" font-size="10.00">m + 1</text>
</g>
<!-- &#45;attrs3&#45;&gt;http://example.org/sum -->
<g id="edge6" class="edge"><title>&#45;attrs3&#45;&gt;http://example.org/sum</title>
<path fill="none" stroke="gray" stroke-dasharray="5,2" d="M336.729,-525.064C330.396,-541.161 322.16,-562.093 316.514,-576.443"/>
</g>
<!-- &#45;attrs4 -->
<g id="node10" class="node"><title>&#45;attrs4</title>
<polygon fill="none" stroke="gray" points="523,-612 355,-612 355,-576 529,-576 529,-606 523,-612"/>
<polyline fill="none" stroke="gray" points="523,-612 523,-606 "/>
<polyline fill="none" stroke="gray" points="529,-606 523,-606 "/>
<text text-anchor="start" x="365" y="-598" font-family="Times New Roman,serif" font-size="10.00">generatedAtTime:</text>
<text text-anchor="start" x="440" y="-598" font-family="Times New Roman,serif" font-size="10.00">T4</text>
<text text-anchor="start" x="365" y="-585" font-family="Times New Roman,serif" font-size="10.00">type:</text>
<text text-anchor="start" x="440" y="-585" font-family="Times New Roman,serif" font-size="10.00">intertwined:Version</text>
</g>
<!-- &#45;attrs4&#45;&gt;http://example.org/sum_v1 -->
<g id="edge7" class="edge"><title>&#45;attrs4&#45;&gt;http://example.org/sum_v1</title>
<path fill="none" stroke="gray" stroke-dasharray="5,2" d="M434.858,-612.419C427.287,-630.885 415.41,-659.853 407.923,-678.114"/>
</g>
<!-- http://example.org/list -->
<g id="node11" class="node"><title>http://example.org/list</title>
<g id="a_node11"><a xlink:href="http://example.org/list" xlink:title="list">
<ellipse fill="#fffc87" stroke="#808080" cx="311" cy="-421" rx="27" ry="18"/>
<text text-anchor="middle" x="311" y="-417.3" font-family="Times New Roman,serif" font-size="14.00">list</text>
</a>
</g>
</g>
<!-- http://example.org/list_v1 -->
<g id="node13" class="node"><title>http://example.org/list_v1</title>
<g id="a_node13"><a xlink:href="http://example.org/list_v1" xlink:title="list_v1">
<ellipse fill="#32cd32" stroke="#808080" cx="238" cy="-500.5" rx="34.394" ry="18"/>
<text text-anchor="middle" x="238" y="-496.8" font-family="Times New Roman,serif" font-size="14.00">list_v1</text>
</a>
</g>
</g>
<!-- http://example.org/list&#45;&gt;http://example.org/list_v1 -->
<g id="edge11" class="edge"><title>http://example.org/list&#45;&gt;http://example.org/list_v1</title>
<path fill="none" stroke="black" d="M297.269,-436.577C286.735,-447.761 271.987,-463.418 259.839,-476.315"/>
<polygon fill="black" stroke="black" points="256.98,-474.245 252.671,-483.924 262.075,-479.045 256.98,-474.245"/>
<text text-anchor="middle" x="301.583" y="-449.044" font-family="Times New Roman,serif" font-size="8.00">spe</text>
</g>
<!-- &#45;attrs5 -->
<g id="node12" class="node"><title>&#45;attrs5</title>
<polygon fill="none" stroke="gray" points="216,-337 92,-337 92,-288 222,-288 222,-331 216,-337"/>
<polyline fill="none" stroke="gray" points="216,-337 216,-331 "/>
<polyline fill="none" stroke="gray" points="222,-331 216,-331 "/>
<text text-anchor="start" x="102" y="-322.5" font-family="Times New Roman,serif" font-size="10.00">value:</text>
<text text-anchor="start" x="129" y="-322.5" font-family="Times New Roman,serif" font-size="10.00">[10000, 10001, 10000]</text>
<text text-anchor="start" x="102" y="-309.5" font-family="Times New Roman,serif" font-size="10.00">type:</text>
<text text-anchor="start" x="129" y="-309.5" font-family="Times New Roman,serif" font-size="10.00">script:list</text>
<text text-anchor="start" x="102" y="-296.5" font-family="Times New Roman,serif" font-size="10.00">label:</text>
<text text-anchor="start" x="129" y="-296.5" font-family="Times New Roman,serif" font-size="10.00">[m, m + 1, m]</text>
</g>
<!-- &#45;attrs5&#45;&gt;http://example.org/list -->
<g id="edge9" class="edge"><title>&#45;attrs5&#45;&gt;http://example.org/list</title>
<path fill="none" stroke="gray" stroke-dasharray="5,2" d="M191.178,-337.136C222.546,-358.829 267.818,-390.137 292.772,-407.394"/>
</g>
<!-- http://example.org/list_v1&#45;&gt;http://example.org/m -->
<g id="edge12" class="edge"><title>http://example.org/list_v1&#45;&gt;http://example.org/m</title>
<path fill="none" stroke="darkgreen" d="M221.746,-516.475C213.189,-524.363 202.522,-534.201 193,-543 182.634,-552.579 171.159,-563.201 161.462,-572.183"/>
<polygon fill="darkgreen" stroke="darkgreen" points="159.079,-569.619 154.122,-578.983 163.837,-574.754 159.079,-569.619"/>
<text text-anchor="middle" x="201" y="-546.8" font-family="Times New Roman,serif" font-size="14.00">[0]</text>
</g>
<!-- http://example.org/list_v1&#45;&gt;http://example.org/m -->
<g id="edge14" class="edge"><title>http://example.org/list_v1&#45;&gt;http://example.org/m</title>
<path fill="none" stroke="darkgreen" d="M232.588,-518.325C227.943,-530.58 220.207,-546.91 209,-558 198.764,-568.129 185.005,-575.87 172.396,-581.464"/>
<polygon fill="darkgreen" stroke="darkgreen" points="170.957,-578.271 163.054,-585.328 173.633,-584.74 170.957,-578.271"/>
<text text-anchor="middle" x="229" y="-546.8" font-family="Times New Roman,serif" font-size="14.00">[2]</text>
</g>
<!-- http://example.org/list_v1&#45;&gt;http://example.org/sum -->
<g id="edge13" class="edge"><title>http://example.org/list_v1&#45;&gt;http://example.org/sum</title>
<path fill="none" stroke="darkgreen" d="M250.541,-517.438C261.864,-531.827 278.669,-553.183 291.528,-569.525"/>
<polygon fill="darkgreen" stroke="darkgreen" points="288.908,-571.855 297.842,-577.549 294.409,-567.526 288.908,-571.855"/>
<text text-anchor="middle" x="288" y="-546.8" font-family="Times New Roman,serif" font-size="14.00">[1]</text>
</g>
<!-- &#45;attrs6 -->
<g id="node14" class="node"><title>&#45;attrs6</title>
<polygon fill="none" stroke="gray" points="260,-439 92,-439 92,-403 266,-403 266,-433 260,-439"/>
<polyline fill="none" stroke="gray" points="260,-439 260,-433 "/>
<polyline fill="none" stroke="gray" points="266,-433 260,-433 "/>
<text text-anchor="start" x="102" y="-425" font-family="Times New Roman,serif" font-size="10.00">generatedAtTime:</text>
<text text-anchor="start" x="177" y="-425" font-family="Times New Roman,serif" font-size="10.00">T5</text>
<text text-anchor="start" x="102" y="-412" font-family="Times New Roman,serif" font-size="10.00">type:</text>
<text text-anchor="start" x="177" y="-412" font-family="Times New Roman,serif" font-size="10.00">intertwined:Version</text>
</g>
<!-- &#45;attrs6&#45;&gt;http://example.org/list_v1 -->
<g id="edge10" class="edge"><title>&#45;attrs6&#45;&gt;http://example.org/list_v1</title>
<path fill="none" stroke="gray" stroke-dasharray="5,2" d="M192.094,-439.2C202.143,-452.4 215.916,-470.491 225.748,-483.407"/>
</g>
<!-- http://example.org/d -->
<g id="node15" class="node"><title>http://example.org/d</title>
<g id="a_node15"><a xlink:href="http://example.org/d" xlink:title="d">
<ellipse fill="#fffc87" stroke="#808080" cx="267" cy="-312.5" rx="27" ry="18"/>
<text text-anchor="middle" x="267" y="-308.8" font-family="Times New Roman,serif" font-size="14.00">d</text>
</a>
</g>
</g>
<!-- http://example.org/d&#45;&gt;http://example.org/list -->
<g id="edge16" class="edge"><title>http://example.org/d&#45;&gt;http://example.org/list</title>
<path fill="none" stroke="darkgreen" d="M273.875,-330.141C280.946,-347.257 292.059,-374.153 300.285,-394.064"/>
<polygon fill="darkgreen" stroke="darkgreen" points="297.12,-395.57 304.173,-403.476 303.59,-392.897 297.12,-395.57"/>
<text text-anchor="middle" x="313.5" y="-373.8" font-family="Times New Roman,serif" font-size="14.00">der ref</text>
<text text-anchor="middle" x="313.5" y="-358.8" font-family="Times New Roman,serif" font-size="14.00">T6</text>
</g>
<!-- &#45;attrs7 -->
<g id="node16" class="node"><title>&#45;attrs7</title>
<polygon fill="none" stroke="gray" points="326,-237 202,-237 202,-188 332,-188 332,-231 326,-237"/>
<polyline fill="none" stroke="gray" points="326,-237 326,-231 "/>
<polyline fill="none" stroke="gray" points="332,-231 326,-231 "/>
<text text-anchor="start" x="212" y="-222.5" font-family="Times New Roman,serif" font-size="10.00">value:</text>
<text text-anchor="start" x="239" y="-222.5" font-family="Times New Roman,serif" font-size="10.00">[10000, 10001, 10000]</text>
<text text-anchor="start" x="212" y="-209.5" font-family="Times New Roman,serif" font-size="10.00">type:</text>
<text text-anchor="start" x="239" y="-209.5" font-family="Times New Roman,serif" font-size="10.00">script:name</text>
<text text-anchor="start" x="212" y="-196.5" font-family="Times New Roman,serif" font-size="10.00">label:</text>
<text text-anchor="start" x="239" y="-196.5" font-family="Times New Roman,serif" font-size="10.00">d</text>
</g>
<!-- &#45;attrs7&#45;&gt;http://example.org/d -->
<g id="edge15" class="edge"><title>&#45;attrs7&#45;&gt;http://example.org/d</title>
<path fill="none" stroke="gray" stroke-dasharray="5,2" d="M267,-237.223C267,-254.897 267,-278.613 267,-294.444"/>
</g>
<!-- http://example.org/0 -->
<g id="node17" class="node"><title>http://example.org/0</title>
<g id="a_node17"><a xlink:href="http://example.org/0" xlink:title="0">
<ellipse fill="#fffc87" stroke="#808080" cx="531" cy="-312.5" rx="27" ry="18"/>
<text text-anchor="middle" x="531" y="-308.8" font-family="Times New Roman,serif" font-size="14.00">0</text>
</a>
</g>
</g>
<!-- http://example.org/0_v1 -->
<g id="node19" class="node"><title>http://example.org/0_v1</title>
<g id="a_node19"><a xlink:href="http://example.org/0_v1" xlink:title="0_v1">
<ellipse fill="#32cd32" stroke="#808080" cx="438" cy="-421" rx="28.6953" ry="18"/>
<text text-anchor="middle" x="438" y="-417.3" font-family="Times New Roman,serif" font-size="14.00">0_v1</text>
</a>
</g>
</g>
<!-- http://example.org/0&#45;&gt;http://example.org/0_v1 -->
<g id="edge19" class="edge"><title>http://example.org/0&#45;&gt;http://example.org/0_v1</title>
<path fill="none" stroke="black" d="M518.069,-328.308C502.471,-346.17 476.084,-376.388 457.889,-397.224"/>
<polygon fill="black" stroke="black" points="455.062,-395.14 451.121,-404.974 460.335,-399.744 455.062,-395.14"/>
<text text-anchor="middle" x="522.92" y="-340.602" font-family="Times New Roman,serif" font-size="8.00">spe</text>
</g>
<!-- &#45;attrs8 -->
<g id="node18" class="node"><title>&#45;attrs8</title>
<polygon fill="none" stroke="gray" points="572,-230.5 484,-230.5 484,-194.5 578,-194.5 578,-224.5 572,-230.5"/>
<polyline fill="none" stroke="gray" points="572,-230.5 572,-224.5 "/>
<polyline fill="none" stroke="gray" points="578,-224.5 572,-224.5 "/>
<text text-anchor="start" x="494" y="-216.5" font-family="Times New Roman,serif" font-size="10.00">value:</text>
<text text-anchor="start" x="521" y="-216.5" font-family="Times New Roman,serif" font-size="10.00">0</text>
<text text-anchor="start" x="494" y="-203.5" font-family="Times New Roman,serif" font-size="10.00">type:</text>
<text text-anchor="start" x="521" y="-203.5" font-family="Times New Roman,serif" font-size="10.00">script:literal</text>
</g>
<!-- &#45;attrs8&#45;&gt;http://example.org/0 -->
<g id="edge17" class="edge"><title>&#45;attrs8&#45;&gt;http://example.org/0</title>
<path fill="none" stroke="gray" stroke-dasharray="5,2" d="M531,-230.57C531,-248.448 531,-276.369 531,-294.297"/>
</g>
<!-- &#45;attrs9 -->
<g id="node20" class="node"><title>&#45;attrs9</title>
<polygon fill="none" stroke="gray" points="480,-330.5 312,-330.5 312,-294.5 486,-294.5 486,-324.5 480,-330.5"/>
<polyline fill="none" stroke="gray" points="480,-330.5 480,-324.5 "/>
<polyline fill="none" stroke="gray" points="486,-324.5 480,-324.5 "/>
<text text-anchor="start" x="322" y="-316.5" font-family="Times New Roman,serif" font-size="10.00">generatedAtTime:</text>
<text text-anchor="start" x="397" y="-316.5" font-family="Times New Roman,serif" font-size="10.00">T9</text>
<text text-anchor="start" x="322" y="-303.5" font-family="Times New Roman,serif" font-size="10.00">type:</text>
<text text-anchor="start" x="397" y="-303.5" font-family="Times New Roman,serif" font-size="10.00">intertwined:Version</text>
</g>
<!-- &#45;attrs9&#45;&gt;http://example.org/0_v1 -->
<g id="edge18" class="edge"><title>&#45;attrs9&#45;&gt;http://example.org/0_v1</title>
<path fill="none" stroke="gray" stroke-dasharray="5,2" d="M405.266,-330.611C412.587,-350.603 424.62,-383.462 431.878,-403.283"/>
</g>
<!-- http://example.org/d_ac0 -->
<g id="node21" class="node"><title>http://example.org/d_ac0</title>
<g id="a_node21"><a xlink:href="http://example.org/d_ac0" xlink:title="d_ac0">
<ellipse fill="#fffc87" stroke="#808080" cx="51" cy="-104" rx="33.2948" ry="18"/>
<text text-anchor="middle" x="51" y="-100.3" font-family="Times New Roman,serif" font-size="14.00">d_ac0</text>
</a>
</g>
</g>
<!-- http://example.org/access1 -->
<g id="node23" class="node"><title>http://example.org/access1</title>
<g id="a_node23"><a xlink:href="http://example.org/access1" xlink:title="access1">
<polygon fill="#9fb1fc" stroke="#0000ff" points="169.5,-230.5 108.5,-230.5 108.5,-194.5 169.5,-194.5 169.5,-230.5"/>
<text text-anchor="middle" x="139" y="-208.8" font-family="Times New Roman,serif" font-size="14.00">access1</text>
</a>
</g>
</g>
<!-- http://example.org/d_ac0&#45;&gt;http://example.org/access1 -->
<g id="edge25" class="edge"><title>http://example.org/d_ac0&#45;&gt;http://example.org/access1</title>
<path fill="none" stroke="black" d="M72.1775,-117.998C80.8511,-123.989 90.5731,-131.629 98,-140 109.882,-153.393 119.944,-170.775 127.126,-185.047"/>
<polygon fill="black" stroke="black" points="124.118,-186.867 131.625,-194.343 130.419,-183.817 124.118,-186.867"/>
<text text-anchor="middle" x="85.7787" y="-109.773" font-family="Times New Roman,serif" font-size="8.00">gen</text>
</g>
<!-- bn0 -->
<g id="node25" class="node"><title>bn0</title>
<ellipse fill="black" stroke="black" cx="46" cy="-212.5" rx="1.8" ry="1.8"/>
</g>
<!-- http://example.org/d_ac0&#45;&gt;bn0 -->
<g id="edge26" class="edge"><title>http://example.org/d_ac0&#45;&gt;bn0</title>
<path fill="none" stroke="darkgreen" d="M50.1967,-122.111C48.8937,-149.864 46.4265,-202.415 46.049,-210.457"/>
<text text-anchor="middle" x="72" y="-158.8" font-family="Times New Roman,serif" font-size="14.00">der ac&#45;r</text>
<text text-anchor="middle" x="72" y="-143.8" font-family="Times New Roman,serif" font-size="14.00">T10</text>
</g>
<!-- &#45;attrs10 -->
<g id="node22" class="node"><title>&#45;attrs10</title>
<polygon fill="none" stroke="gray" points="94.5,-49 1.5,-49 1.5,-0 100.5,-0 100.5,-43 94.5,-49"/>
<polyline fill="none" stroke="gray" points="94.5,-49 94.5,-43 "/>
<polyline fill="none" stroke="gray" points="100.5,-43 94.5,-43 "/>
<text text-anchor="start" x="12" y="-34.5" font-family="Times New Roman,serif" font-size="10.00">value:</text>
<text text-anchor="start" x="39" y="-34.5" font-family="Times New Roman,serif" font-size="10.00">10000</text>
<text text-anchor="start" x="12" y="-21.5" font-family="Times New Roman,serif" font-size="10.00">type:</text>
<text text-anchor="start" x="39" y="-21.5" font-family="Times New Roman,serif" font-size="10.00">script:access</text>
<text text-anchor="start" x="12" y="-8.5" font-family="Times New Roman,serif" font-size="10.00">label:</text>
<text text-anchor="start" x="39" y="-8.5" font-family="Times New Roman,serif" font-size="10.00">d[0]</text>
</g>
<!-- &#45;attrs10&#45;&gt;http://example.org/d_ac0 -->
<g id="edge20" class="edge"><title>&#45;attrs10&#45;&gt;http://example.org/d_ac0</title>
<path fill="none" stroke="gray" stroke-dasharray="5,2" d="M51,-49.1737C51,-60.9254 51,-74.869 51,-85.6196"/>
</g>
<!-- http://example.org/access1&#45;&gt;http://example.org/m -->
<g id="edge24" class="edge"><title>http://example.org/access1&#45;&gt;http://example.org/m</title>
<path fill="none" stroke="black" d="M122.926,-230.509C110.277,-244.797 93.1456,-266.308 83,-288 67.3341,-321.495 64,-332.023 64,-369 64,-369 64,-369 64,-501.5 64,-532.507 90.0802,-558.763 111.482,-575.089"/>
<polygon fill="black" stroke="black" points="109.539,-578.003 119.686,-581.053 113.656,-572.342 109.539,-578.003"/>
<text text-anchor="middle" x="127.793" y="-242.797" font-family="Times New Roman,serif" font-size="8.00">use</text>
</g>
<!-- http://example.org/access1&#45;&gt;http://example.org/d -->
<g id="edge22" class="edge"><title>http://example.org/access1&#45;&gt;http://example.org/d</title>
<path fill="none" stroke="black" d="M159.94,-230.55C173.981,-241.887 192.954,-257.022 210,-270 220.018,-277.628 231.189,-285.826 240.968,-292.905"/>
<polygon fill="black" stroke="black" points="238.981,-295.787 249.14,-298.795 243.074,-290.109 238.981,-295.787"/>
<text text-anchor="middle" x="173.931" y="-223.243" font-family="Times New Roman,serif" font-size="8.00">use</text>
</g>
<!-- http://example.org/access1&#45;&gt;http://example.org/0 -->
<g id="edge23" class="edge"><title>http://example.org/access1&#45;&gt;http://example.org/0</title>
<path fill="none" stroke="black" d="M169.643,-228.368C177.151,-231.58 185.258,-234.699 193,-237 323.482,-275.779 368.228,-238.419 495,-288 498.471,-289.358 501.958,-291.08 505.322,-292.973"/>
<polygon fill="black" stroke="black" points="503.501,-295.962 513.846,-298.248 507.185,-290.009 503.501,-295.962"/>
<text text-anchor="middle" x="181.612" y="-217.427" font-family="Times New Roman,serif" font-size="8.00">use</text>
</g>
<!-- &#45;attrs11 -->
<g id="node24" class="node"><title>&#45;attrs11</title>
<polygon fill="none" stroke="gray" points="168.5,-122 103.5,-122 103.5,-86 174.5,-86 174.5,-116 168.5,-122"/>
<polyline fill="none" stroke="gray" points="168.5,-122 168.5,-116 "/>
<polyline fill="none" stroke="gray" points="174.5,-116 168.5,-116 "/>
<text text-anchor="start" x="114" y="-101" font-family="Times New Roman,serif" font-size="10.00">type:</text>
<text text-anchor="start" x="137" y="-101" font-family="Times New Roman,serif" font-size="10.00">access</text>
</g>
<!-- &#45;attrs11&#45;&gt;http://example.org/access1 -->
<g id="edge21" class="edge"><title>&#45;attrs11&#45;&gt;http://example.org/access1</title>
<path fill="none" stroke="gray" stroke-dasharray="5,2" d="M139,-122.111C139,-141.985 139,-174.575 139,-194.431"/>
</g>
<!-- bn0&#45;&gt;http://example.org/m -->
<g id="edge28" class="edge"><title>bn0&#45;&gt;http://example.org/m</title>
<path fill="none" stroke="darkgreen" d="M45.4272,-214.425C41.0452,-221.594 13,-269.132 13,-311.5 13,-311.5 13,-311.5 13,-501.5 13,-525.052 71.3658,-558.929 108.649,-578.168"/>
<polygon fill="darkgreen" stroke="darkgreen" points="107.125,-581.319 117.626,-582.728 110.296,-575.078 107.125,-581.319"/>
</g>
<!-- bn0&#45;&gt;http://example.org/d -->
<g id="edge27" class="edge"><title>bn0&#45;&gt;http://example.org/d</title>
<path fill="none" stroke="darkgreen" d="M46.998,-213.999C55.6718,-218.323 119.242,-249.781 173,-270 198.263,-279.502 206.576,-276.513 231,-288 234.204,-289.507 237.457,-291.262 240.63,-293.122"/>
<polygon fill="darkgreen" stroke="darkgreen" points="238.923,-296.183 249.257,-298.522 242.637,-290.249 238.923,-296.183"/>
<text text-anchor="middle" x="181" y="-258.8" font-family="Times New Roman,serif" font-size="14.00">[0]</text>
</g>
</g>
</svg>
