<?xml version="1.0" encoding="UTF-8" standalone="no"?>
<!DOCTYPE svg PUBLIC "-//W3C//DTD SVG 1.1//EN"
 "http://www.w3.org/Graphics/SVG/1.1/DTD/svg11.dtd">
<!-- Generated by graphviz version 2.38.0 (20140413.2041)
 -->
<!-- Title: PROV Pages: 1 -->
<svg width="344pt" height="349pt"
 viewBox="0.00 0.00 343.50 349.00" xmlns="http://www.w3.org/2000/svg" xmlns:xlink="http://www.w3.org/1999/xlink">
<g id="graph0" class="graph" transform="scale(1 1) rotate(0) translate(4 345)">
<title>PROV</title>
<polygon fill="white" stroke="none" points="-4,4 -4,-345 339.5,-345 339.5,4 -4,4"/>
<!-- http://example.org/10000 -->
<g id="node1" class="node"><title>http://example.org/10000</title>
<g id="a_node1"><a xlink:href="http://example.org/10000" xlink:title="10000">
<ellipse fill="#fffc87" stroke="#808080" cx="224" cy="-250" rx="32.4942" ry="18"/>
<text text-anchor="middle" x="224" y="-246.3" font-family="Times New Roman,serif" font-size="14.00">10000</text>
</a>
</g>
</g>
<!-- http://example.org/10000_v1 -->
<g id="node3" class="node"><title>http://example.org/10000_v1</title>
<g id="a_node3"><a xlink:href="http://example.org/10000_v1" xlink:title="10000_v1">
<ellipse fill="#32cd32" stroke="#808080" cx="127" cy="-323" rx="46.2923" ry="18"/>
<text text-anchor="middle" x="127" y="-319.3" font-family="Times New Roman,serif" font-size="14.00">10000_v1</text>
</a>
</g>
</g>
<!-- http://example.org/10000&#45;&gt;http://example.org/10000_v1 -->
<g id="edge3" class="edge"><title>http://example.org/10000&#45;&gt;http://example.org/10000_v1</title>
<path fill="none" stroke="black" d="M204.836,-265.027C190.953,-275.189 171.934,-289.11 156.172,-300.647"/>
<polygon fill="black" stroke="black" points="153.805,-298.042 147.803,-306.773 157.94,-303.691 153.805,-298.042"/>
<text text-anchor="middle" x="206.457" y="-278.04" font-family="Times New Roman,serif" font-size="8.00">spe</text>
</g>
<!-- &#45;attrs0 -->
<g id="node2" class="node"><title>&#45;attrs0</title>
<polygon fill="none" stroke="gray" points="171,-195 83,-195 83,-159 177,-159 177,-189 171,-195"/>
<polyline fill="none" stroke="gray" points="171,-195 171,-189 "/>
<polyline fill="none" stroke="gray" points="177,-189 171,-189 "/>
<text text-anchor="start" x="93" y="-181" font-family="Times New Roman,serif" font-size="10.00">value:</text>
<text text-anchor="start" x="120" y="-181" font-family="Times New Roman,serif" font-size="10.00">10000</text>
<text text-anchor="start" x="93" y="-168" font-family="Times New Roman,serif" font-size="10.00">type:</text>
<text text-anchor="start" x="120" y="-168" font-family="Times New Roman,serif" font-size="10.00">script:literal</text>
</g>
<!-- &#45;attrs0&#45;&gt;http://example.org/10000 -->
<g id="edge1" class="edge"><title>&#45;attrs0&#45;&gt;http://example.org/10000</title>
<path fill="none" stroke="gray" stroke-dasharray="5,2" d="M152.755,-195.187C168.947,-207.417 190.425,-223.64 205.551,-235.065"/>
</g>
<!-- &#45;attrs1 -->
<g id="node4" class="node"><title>&#45;attrs1</title>
<polygon fill="none" stroke="gray" points="168,-268 0,-268 0,-232 174,-232 174,-262 168,-268"/>
<polyline fill="none" stroke="gray" points="168,-268 168,-262 "/>
<polyline fill="none" stroke="gray" points="174,-262 168,-262 "/>
<text text-anchor="start" x="10" y="-254" font-family="Times New Roman,serif" font-size="10.00">generatedAtTime:</text>
<text text-anchor="start" x="85" y="-254" font-family="Times New Roman,serif" font-size="10.00">T1</text>
<text text-anchor="start" x="10" y="-241" font-family="Times New Roman,serif" font-size="10.00">type:</text>
<text text-anchor="start" x="85" y="-241" font-family="Times New Roman,serif" font-size="10.00">intertwined:Version</text>
</g>
<!-- &#45;attrs1&#45;&gt;http://example.org/10000_v1 -->
<g id="edge2" class="edge"><title>&#45;attrs1&#45;&gt;http://example.org/10000_v1</title>
<path fill="none" stroke="gray" stroke-dasharray="5,2" d="M96.6829,-268.187C102.972,-279.35 111.135,-293.84 117.406,-304.971"/>
</g>
<!-- http://example.org/m -->
<g id="node5" class="node"><title>http://example.org/m</title>
<g id="a_node5"><a xlink:href="http://example.org/m" xlink:title="m">
<ellipse fill="#fffc87" stroke="#808080" cx="289" cy="-104" rx="27" ry="18"/>
<text text-anchor="middle" x="289" y="-100.3" font-family="Times New Roman,serif" font-size="14.00">m</text>
</a>
</g>
</g>
<!-- http://example.org/m&#45;&gt;http://example.org/10000 -->
<g id="edge8" class="edge"><title>http://example.org/m&#45;&gt;http://example.org/10000</title>
<path fill="none" stroke="darkgreen" d="M285.576,-122.193C281.485,-140.769 273.693,-170.937 262,-195 256.912,-205.47 249.882,-216.131 243.25,-225.183"/>
<polygon fill="darkgreen" stroke="darkgreen" points="240.341,-223.227 237.091,-233.311 245.92,-227.455 240.341,-223.227"/>
<text text-anchor="middle" x="293.5" y="-180.8" font-family="Times New Roman,serif" font-size="14.00">der ref</text>
<text text-anchor="middle" x="293.5" y="-165.8" font-family="Times New Roman,serif" font-size="14.00">T2</text>
</g>
<!-- http://example.org/assign1 -->
<g id="node7" class="node"><title>http://example.org/assign1</title>
<g id="a_node7"><a xlink:href="http://example.org/assign1" xlink:title="assign1">
<polygon fill="#9fb1fc" stroke="#0000ff" points="253,-195 195,-195 195,-159 253,-159 253,-195"/>
<text text-anchor="middle" x="224" y="-173.3" font-family="Times New Roman,serif" font-size="14.00">assign1</text>
</a>
</g>
</g>
<!-- http://example.org/m&#45;&gt;http://example.org/assign1 -->
<g id="edge7" class="edge"><title>http://example.org/m&#45;&gt;http://example.org/assign1</title>
<path fill="none" stroke="black" d="M275.532,-119.711C267.154,-128.863 256.17,-140.861 246.496,-151.427"/>
<polygon fill="black" stroke="black" points="243.911,-149.068 239.74,-158.807 249.074,-153.795 243.911,-149.068"/>
<text text-anchor="middle" x="280.049" y="-132.115" font-family="Times New Roman,serif" font-size="8.00">gen</text>
</g>
<!-- &#45;attrs2 -->
<g id="node6" class="node"><title>&#45;attrs2</title>
<polygon fill="none" stroke="gray" points="329.5,-49 242.5,-49 242.5,-0 335.5,-0 335.5,-43 329.5,-49"/>
<polyline fill="none" stroke="gray" points="329.5,-49 329.5,-43 "/>
<polyline fill="none" stroke="gray" points="335.5,-43 329.5,-43 "/>
<text text-anchor="start" x="253" y="-34.5" font-family="Times New Roman,serif" font-size="10.00">value:</text>
<text text-anchor="start" x="280" y="-34.5" font-family="Times New Roman,serif" font-size="10.00">10000</text>
<text text-anchor="start" x="253" y="-21.5" font-family="Times New Roman,serif" font-size="10.00">type:</text>
<text text-anchor="start" x="280" y="-21.5" font-family="Times New Roman,serif" font-size="10.00">script:name</text>
<text text-anchor="start" x="253" y="-8.5" font-family="Times New Roman,serif" font-size="10.00">label:</text>
<text text-anchor="start" x="280" y="-8.5" font-family="Times New Roman,serif" font-size="10.00">m</text>
</g>
<!-- &#45;attrs2&#45;&gt;http://example.org/m -->
<g id="edge4" class="edge"><title>&#45;attrs2&#45;&gt;http://example.org/m</title>
<path fill="none" stroke="gray" stroke-dasharray="5,2" d="M289,-49.1737C289,-60.9254 289,-74.869 289,-85.6196"/>
</g>
<!-- http://example.org/assign1&#45;&gt;http://example.org/10000 -->
<g id="edge6" class="edge"><title>http://example.org/assign1&#45;&gt;http://example.org/10000</title>
<path fill="none" stroke="black" d="M224,-195.187C224,-203.211 224,-212.953 224,-221.931"/>
<polygon fill="black" stroke="black" points="220.5,-221.971 224,-231.971 227.5,-221.971 220.5,-221.971"/>
<text text-anchor="middle" x="236.99" y="-200.787" font-family="Times New Roman,serif" font-size="8.00">use</text>
</g>
<!-- &#45;attrs3 -->
<g id="node8" class="node"><title>&#45;attrs3</title>
<polygon fill="none" stroke="gray" points="237.5,-122 148.5,-122 148.5,-86 243.5,-86 243.5,-116 237.5,-122"/>
<polyline fill="none" stroke="gray" points="237.5,-122 237.5,-116 "/>
<polyline fill="none" stroke="gray" points="243.5,-116 237.5,-116 "/>
<text text-anchor="start" x="159" y="-101" font-family="Times New Roman,serif" font-size="10.00">type:</text>
<text text-anchor="start" x="182" y="-101" font-family="Times New Roman,serif" font-size="10.00">script:assign</text>
</g>
<!-- &#45;attrs3&#45;&gt;http://example.org/assign1 -->
<g id="edge5" class="edge"><title>&#45;attrs3&#45;&gt;http://example.org/assign1</title>
<path fill="none" stroke="gray" stroke-dasharray="5,2" d="M202.778,-122.187C207.18,-133.35 212.895,-147.84 217.284,-158.971"/>
</g>
</g>
</svg>
