<?xml version="1.0" encoding="UTF-8" standalone="no"?>
<!DOCTYPE svg PUBLIC "-//W3C//DTD SVG 1.1//EN"
 "http://www.w3.org/Graphics/SVG/1.1/DTD/svg11.dtd">
<!-- Generated by graphviz version 2.38.0 (20140413.2041)
 -->
<!-- Title: PROV Pages: 1 -->
<svg width="1152pt" height="139pt"
 viewBox="0.00 0.00 1152.00 139.24" xmlns="http://www.w3.org/2000/svg" xmlns:xlink="http://www.w3.org/1999/xlink">
<g id="graph0" class="graph" transform="scale(0.692724 0.692724) rotate(0) translate(4 197)">
<title>PROV</title>
<polygon fill="white" stroke="none" points="-4,4 -4,-197 1659,-197 1659,4 -4,4"/>
<!-- http://example.org/1 -->
<g id="node1" class="node"><title>http://example.org/1</title>
<g id="a_node1"><a xlink:href="http://example.org/1" xlink:title="1">
<ellipse fill="#fffc87" stroke="#808080" cx="229" cy="-103" rx="27" ry="18"/>
<text text-anchor="middle" x="229" y="-99.3" font-family="Times New Roman,serif" font-size="14.00">1</text>
</a>
</g>
</g>
<!-- http://example.org/1_v1 -->
<g id="node3" class="node"><title>http://example.org/1_v1</title>
<g id="a_node3"><a xlink:href="http://example.org/1_v1" xlink:title="1_v1">
<ellipse fill="#32cd32" stroke="#808080" cx="161" cy="-175" rx="28.6953" ry="18"/>
<text text-anchor="middle" x="161" y="-171.3" font-family="Times New Roman,serif" font-size="14.00">1_v1</text>
</a>
</g>
</g>
<!-- http://example.org/1&#45;&gt;http://example.org/1_v1 -->
<g id="edge3" class="edge"><title>http://example.org/1&#45;&gt;http://example.org/1_v1</title>
<path fill="none" stroke="black" d="M214.91,-118.504C205.644,-128.042 193.332,-140.717 182.814,-151.545"/>
<polygon fill="black" stroke="black" points="179.998,-149.42 175.541,-159.032 185.019,-154.297 179.998,-149.42"/>
<text text-anchor="middle" x="219.002" y="-131.035" font-family="Times New Roman,serif" font-size="8.00">spe</text>
</g>
<!-- &#45;attrs0 -->
<g id="node2" class="node"><title>&#45;attrs0</title>
<polygon fill="none" stroke="gray" points="262,-42.5 190,-42.5 190,-6.5 268,-6.5 268,-36.5 262,-42.5"/>
<polyline fill="none" stroke="gray" points="262,-42.5 262,-36.5 "/>
<polyline fill="none" stroke="gray" points="268,-36.5 262,-36.5 "/>
<text text-anchor="start" x="200" y="-28.5" font-family="Times New Roman,serif" font-size="10.00">value:</text>
<text text-anchor="start" x="227" y="-28.5" font-family="Times New Roman,serif" font-size="10.00">&quot;1&quot;</text>
<text text-anchor="start" x="200" y="-15.5" font-family="Times New Roman,serif" font-size="10.00">type:</text>
<text text-anchor="start" x="227" y="-15.5" font-family="Times New Roman,serif" font-size="10.00">&quot;literal&quot;</text>
</g>
<!-- &#45;attrs0&#45;&gt;http://example.org/1 -->
<g id="edge1" class="edge"><title>&#45;attrs0&#45;&gt;http://example.org/1</title>
<path fill="none" stroke="gray" stroke-dasharray="5,2" d="M229,-42.859C229,-55.4669 229,-72.443 229,-84.9732"/>
</g>
<!-- &#45;attrs1 -->
<g id="node4" class="node"><title>&#45;attrs1</title>
<polygon fill="none" stroke="gray" points="178,-121 0,-121 0,-85 184,-85 184,-115 178,-121"/>
<polyline fill="none" stroke="gray" points="178,-121 178,-115 "/>
<polyline fill="none" stroke="gray" points="184,-115 178,-115 "/>
<text text-anchor="start" x="10" y="-107" font-family="Times New Roman,serif" font-size="10.00">generatedAtTime:</text>
<text text-anchor="start" x="85" y="-107" font-family="Times New Roman,serif" font-size="10.00">&quot;2018&#45;02&#45;22T16:00:00&quot;</text>
<text text-anchor="start" x="10" y="-94" font-family="Times New Roman,serif" font-size="10.00">type:</text>
<text text-anchor="start" x="85" y="-94" font-family="Times New Roman,serif" font-size="10.00">&quot;Version&quot;</text>
</g>
<!-- &#45;attrs1&#45;&gt;http://example.org/1_v1 -->
<g id="edge2" class="edge"><title>&#45;attrs1&#45;&gt;http://example.org/1_v1</title>
<path fill="none" stroke="gray" stroke-dasharray="5,2" d="M109.056,-121.303C120.55,-132.963 135.548,-148.179 146.472,-159.262"/>
</g>
<!-- http://example.org/a -->
<g id="node5" class="node"><title>http://example.org/a</title>
<g id="a_node5"><a xlink:href="http://example.org/a" xlink:title="a">
<ellipse fill="#fffc87" stroke="#808080" cx="503" cy="-103" rx="27" ry="18"/>
<text text-anchor="middle" x="503" y="-99.3" font-family="Times New Roman,serif" font-size="14.00">a</text>
</a>
</g>
</g>
<!-- http://example.org/a_v1 -->
<g id="node7" class="node"><title>http://example.org/a_v1</title>
<g id="a_node7"><a xlink:href="http://example.org/a_v1" xlink:title="a_v1">
<ellipse fill="#32cd32" stroke="#808080" cx="434" cy="-175" rx="28.6953" ry="18"/>
<text text-anchor="middle" x="434" y="-171.3" font-family="Times New Roman,serif" font-size="14.00">a_v1</text>
</a>
</g>
</g>
<!-- http://example.org/a&#45;&gt;http://example.org/a_v1 -->
<g id="edge6" class="edge"><title>http://example.org/a&#45;&gt;http://example.org/a_v1</title>
<path fill="none" stroke="black" d="M488.703,-118.504C479.21,-128.135 466.565,-140.963 455.824,-151.859"/>
<polygon fill="black" stroke="black" points="453.282,-149.453 448.755,-159.032 458.267,-154.367 453.282,-149.453"/>
<text text-anchor="middle" x="492.69" y="-131.065" font-family="Times New Roman,serif" font-size="8.00">spe</text>
</g>
<!-- &#45;attrs2 -->
<g id="node6" class="node"><title>&#45;attrs2</title>
<polygon fill="none" stroke="gray" points="536,-42.5 464,-42.5 464,-6.5 542,-6.5 542,-36.5 536,-42.5"/>
<polyline fill="none" stroke="gray" points="536,-42.5 536,-36.5 "/>
<polyline fill="none" stroke="gray" points="542,-36.5 536,-36.5 "/>
<text text-anchor="start" x="474" y="-28.5" font-family="Times New Roman,serif" font-size="10.00">value:</text>
<text text-anchor="start" x="501" y="-28.5" font-family="Times New Roman,serif" font-size="10.00">&quot;&#39;a&#39;&quot;</text>
<text text-anchor="start" x="474" y="-15.5" font-family="Times New Roman,serif" font-size="10.00">type:</text>
<text text-anchor="start" x="501" y="-15.5" font-family="Times New Roman,serif" font-size="10.00">&quot;literal&quot;</text>
</g>
<!-- &#45;attrs2&#45;&gt;http://example.org/a -->
<g id="edge4" class="edge"><title>&#45;attrs2&#45;&gt;http://example.org/a</title>
<path fill="none" stroke="gray" stroke-dasharray="5,2" d="M503,-42.859C503,-55.4669 503,-72.443 503,-84.9732"/>
</g>
<!-- &#45;attrs3 -->
<g id="node8" class="node"><title>&#45;attrs3</title>
<polygon fill="none" stroke="gray" points="452,-121 274,-121 274,-85 458,-85 458,-115 452,-121"/>
<polyline fill="none" stroke="gray" points="452,-121 452,-115 "/>
<polyline fill="none" stroke="gray" points="458,-115 452,-115 "/>
<text text-anchor="start" x="284" y="-107" font-family="Times New Roman,serif" font-size="10.00">generatedAtTime:</text>
<text text-anchor="start" x="359" y="-107" font-family="Times New Roman,serif" font-size="10.00">&quot;2018&#45;02&#45;22T16:00:01&quot;</text>
<text text-anchor="start" x="284" y="-94" font-family="Times New Roman,serif" font-size="10.00">type:</text>
<text text-anchor="start" x="359" y="-94" font-family="Times New Roman,serif" font-size="10.00">&quot;Version&quot;</text>
</g>
<!-- &#45;attrs3&#45;&gt;http://example.org/a_v1 -->
<g id="edge5" class="edge"><title>&#45;attrs3&#45;&gt;http://example.org/a_v1</title>
<path fill="none" stroke="gray" stroke-dasharray="5,2" d="M382.809,-121.303C394.136,-132.963 408.917,-148.179 419.683,-159.262"/>
</g>
<!-- http://example.org/a#2 -->
<g id="node9" class="node"><title>http://example.org/a#2</title>
<g id="a_node9"><a xlink:href="http://example.org/a#2" xlink:title="a#2">
<ellipse fill="#fffc87" stroke="#808080" cx="777" cy="-103" rx="27" ry="18"/>
<text text-anchor="middle" x="777" y="-99.3" font-family="Times New Roman,serif" font-size="14.00">a#2</text>
</a>
</g>
</g>
<!-- http://example.org/a#2_v1 -->
<g id="node11" class="node"><title>http://example.org/a#2_v1</title>
<g id="a_node11"><a xlink:href="http://example.org/a#2_v1" xlink:title="a#2_v1">
<ellipse fill="#32cd32" stroke="#808080" cx="708" cy="-175" rx="37.8943" ry="18"/>
<text text-anchor="middle" x="708" y="-171.3" font-family="Times New Roman,serif" font-size="14.00">a#2_v1</text>
</a>
</g>
</g>
<!-- http://example.org/a#2&#45;&gt;http://example.org/a#2_v1 -->
<g id="edge9" class="edge"><title>http://example.org/a#2&#45;&gt;http://example.org/a#2_v1</title>
<path fill="none" stroke="black" d="M762.703,-118.504C753.555,-127.785 741.481,-140.034 731.004,-150.663"/>
<polygon fill="black" stroke="black" points="728.249,-148.471 723.722,-158.05 733.235,-153.385 728.249,-148.471"/>
<text text-anchor="middle" x="766.69" y="-131.065" font-family="Times New Roman,serif" font-size="8.00">spe</text>
</g>
<!-- &#45;attrs4 -->
<g id="node10" class="node"><title>&#45;attrs4</title>
<polygon fill="none" stroke="gray" points="810,-42.5 738,-42.5 738,-6.5 816,-6.5 816,-36.5 810,-42.5"/>
<polyline fill="none" stroke="gray" points="810,-42.5 810,-36.5 "/>
<polyline fill="none" stroke="gray" points="816,-36.5 810,-36.5 "/>
<text text-anchor="start" x="748" y="-28.5" font-family="Times New Roman,serif" font-size="10.00">value:</text>
<text text-anchor="start" x="775" y="-28.5" font-family="Times New Roman,serif" font-size="10.00">&quot;b&#39;a&#39;&quot;</text>
<text text-anchor="start" x="748" y="-15.5" font-family="Times New Roman,serif" font-size="10.00">type:</text>
<text text-anchor="start" x="775" y="-15.5" font-family="Times New Roman,serif" font-size="10.00">&quot;literal&quot;</text>
</g>
<!-- &#45;attrs4&#45;&gt;http://example.org/a#2 -->
<g id="edge7" class="edge"><title>&#45;attrs4&#45;&gt;http://example.org/a#2</title>
<path fill="none" stroke="gray" stroke-dasharray="5,2" d="M777,-42.859C777,-55.4669 777,-72.443 777,-84.9732"/>
</g>
<!-- &#45;attrs5 -->
<g id="node12" class="node"><title>&#45;attrs5</title>
<polygon fill="none" stroke="gray" points="726,-121 548,-121 548,-85 732,-85 732,-115 726,-121"/>
<polyline fill="none" stroke="gray" points="726,-121 726,-115 "/>
<polyline fill="none" stroke="gray" points="732,-115 726,-115 "/>
<text text-anchor="start" x="558" y="-107" font-family="Times New Roman,serif" font-size="10.00">generatedAtTime:</text>
<text text-anchor="start" x="633" y="-107" font-family="Times New Roman,serif" font-size="10.00">&quot;2018&#45;02&#45;22T16:00:02&quot;</text>
<text text-anchor="start" x="558" y="-94" font-family="Times New Roman,serif" font-size="10.00">type:</text>
<text text-anchor="start" x="633" y="-94" font-family="Times New Roman,serif" font-size="10.00">&quot;Version&quot;</text>
</g>
<!-- &#45;attrs5&#45;&gt;http://example.org/a#2_v1 -->
<g id="edge8" class="edge"><title>&#45;attrs5&#45;&gt;http://example.org/a#2_v1</title>
<path fill="none" stroke="gray" stroke-dasharray="5,2" d="M656.809,-121.303C667.821,-132.64 682.099,-147.337 692.777,-158.329"/>
</g>
<!-- http://example.org/True -->
<g id="node13" class="node"><title>http://example.org/True</title>
<g id="a_node13"><a xlink:href="http://example.org/True" xlink:title="True">
<ellipse fill="#fffc87" stroke="#808080" cx="1052" cy="-103" rx="27.8951" ry="18"/>
<text text-anchor="middle" x="1052" y="-99.3" font-family="Times New Roman,serif" font-size="14.00">True</text>
</a>
</g>
</g>
<!-- http://example.org/True_v1 -->
<g id="node15" class="node"><title>http://example.org/True_v1</title>
<g id="a_node15"><a xlink:href="http://example.org/True_v1" xlink:title="True_v1">
<ellipse fill="#32cd32" stroke="#808080" cx="983" cy="-175" rx="41.6928" ry="18"/>
<text text-anchor="middle" x="983" y="-171.3" font-family="Times New Roman,serif" font-size="14.00">True_v1</text>
</a>
</g>
</g>
<!-- http://example.org/True&#45;&gt;http://example.org/True_v1 -->
<g id="edge12" class="edge"><title>http://example.org/True&#45;&gt;http://example.org/True_v1</title>
<path fill="none" stroke="black" d="M1037.7,-118.504C1028.56,-127.785 1016.48,-140.034 1006,-150.663"/>
<polygon fill="black" stroke="black" points="1003.25,-148.471 998.722,-158.05 1008.23,-153.385 1003.25,-148.471"/>
<text text-anchor="middle" x="1041.69" y="-131.065" font-family="Times New Roman,serif" font-size="8.00">spe</text>
</g>
<!-- &#45;attrs6 -->
<g id="node14" class="node"><title>&#45;attrs6</title>
<polygon fill="none" stroke="gray" points="1092,-42.5 1006,-42.5 1006,-6.5 1098,-6.5 1098,-36.5 1092,-42.5"/>
<polyline fill="none" stroke="gray" points="1092,-42.5 1092,-36.5 "/>
<polyline fill="none" stroke="gray" points="1098,-36.5 1092,-36.5 "/>
<text text-anchor="start" x="1016" y="-28.5" font-family="Times New Roman,serif" font-size="10.00">value:</text>
<text text-anchor="start" x="1043" y="-28.5" font-family="Times New Roman,serif" font-size="10.00">&quot;True&quot;</text>
<text text-anchor="start" x="1016" y="-15.5" font-family="Times New Roman,serif" font-size="10.00">type:</text>
<text text-anchor="start" x="1043" y="-15.5" font-family="Times New Roman,serif" font-size="10.00">&quot;constant&quot;</text>
</g>
<!-- &#45;attrs6&#45;&gt;http://example.org/True -->
<g id="edge10" class="edge"><title>&#45;attrs6&#45;&gt;http://example.org/True</title>
<path fill="none" stroke="gray" stroke-dasharray="5,2" d="M1052,-42.859C1052,-55.4669 1052,-72.443 1052,-84.9732"/>
</g>
<!-- &#45;attrs7 -->
<g id="node16" class="node"><title>&#45;attrs7</title>
<polygon fill="none" stroke="gray" points="1000,-121 822,-121 822,-85 1006,-85 1006,-115 1000,-121"/>
<polyline fill="none" stroke="gray" points="1000,-121 1000,-115 "/>
<polyline fill="none" stroke="gray" points="1006,-115 1000,-115 "/>
<text text-anchor="start" x="832" y="-107" font-family="Times New Roman,serif" font-size="10.00">generatedAtTime:</text>
<text text-anchor="start" x="907" y="-107" font-family="Times New Roman,serif" font-size="10.00">&quot;2018&#45;02&#45;22T16:00:03&quot;</text>
<text text-anchor="start" x="832" y="-94" font-family="Times New Roman,serif" font-size="10.00">type:</text>
<text text-anchor="start" x="907" y="-94" font-family="Times New Roman,serif" font-size="10.00">&quot;Version&quot;</text>
</g>
<!-- &#45;attrs7&#45;&gt;http://example.org/True_v1 -->
<g id="edge11" class="edge"><title>&#45;attrs7&#45;&gt;http://example.org/True_v1</title>
<path fill="none" stroke="gray" stroke-dasharray="5,2" d="M931.056,-121.303C942.071,-132.478 956.305,-146.918 967.086,-157.855"/>
</g>
<!-- http://example.org/int -->
<g id="node17" class="node"><title>http://example.org/int</title>
<g id="a_node17"><a xlink:href="http://example.org/int" xlink:title="int">
<ellipse fill="#fffc87" stroke="#808080" cx="1327" cy="-103" rx="27" ry="18"/>
<text text-anchor="middle" x="1327" y="-99.3" font-family="Times New Roman,serif" font-size="14.00">int</text>
</a>
</g>
</g>
<!-- http://example.org/int_v1 -->
<g id="node19" class="node"><title>http://example.org/int_v1</title>
<g id="a_node19"><a xlink:href="http://example.org/int_v1" xlink:title="int_v1">
<ellipse fill="#32cd32" stroke="#808080" cx="1258" cy="-175" rx="33.2948" ry="18"/>
<text text-anchor="middle" x="1258" y="-171.3" font-family="Times New Roman,serif" font-size="14.00">int_v1</text>
</a>
</g>
</g>
<!-- http://example.org/int&#45;&gt;http://example.org/int_v1 -->
<g id="edge15" class="edge"><title>http://example.org/int&#45;&gt;http://example.org/int_v1</title>
<path fill="none" stroke="black" d="M1312.7,-118.504C1303.34,-128.005 1290.91,-140.617 1280.26,-151.417"/>
<polygon fill="black" stroke="black" points="1277.76,-148.965 1273.24,-158.543 1282.75,-153.879 1277.76,-148.965"/>
<text text-anchor="middle" x="1316.69" y="-131.065" font-family="Times New Roman,serif" font-size="8.00">spe</text>
</g>
<!-- &#45;attrs8 -->
<g id="node18" class="node"><title>&#45;attrs8</title>
<polygon fill="none" stroke="gray" points="1372.5,-49 1275.5,-49 1275.5,-0 1378.5,-0 1378.5,-43 1372.5,-49"/>
<polyline fill="none" stroke="gray" points="1372.5,-49 1372.5,-43 "/>
<polyline fill="none" stroke="gray" points="1378.5,-43 1372.5,-43 "/>
<text text-anchor="start" x="1286" y="-34.5" font-family="Times New Roman,serif" font-size="10.00">value:</text>
<text text-anchor="start" x="1313" y="-34.5" font-family="Times New Roman,serif" font-size="10.00">&quot;&lt;class &#39;int&#39;&gt;&quot;</text>
<text text-anchor="start" x="1286" y="-21.5" font-family="Times New Roman,serif" font-size="10.00">type:</text>
<text text-anchor="start" x="1313" y="-21.5" font-family="Times New Roman,serif" font-size="10.00">&quot;name&quot;</text>
<text text-anchor="start" x="1286" y="-8.5" font-family="Times New Roman,serif" font-size="10.00">label:</text>
<text text-anchor="start" x="1313" y="-8.5" font-family="Times New Roman,serif" font-size="10.00">&quot;int&quot;</text>
</g>
<!-- &#45;attrs8&#45;&gt;http://example.org/int -->
<g id="edge13" class="edge"><title>&#45;attrs8&#45;&gt;http://example.org/int</title>
<path fill="none" stroke="gray" stroke-dasharray="5,2" d="M1327,-49.2857C1327,-60.6896 1327,-74.105 1327,-84.5482"/>
</g>
<!-- &#45;attrs9 -->
<g id="node20" class="node"><title>&#45;attrs9</title>
<polygon fill="none" stroke="gray" points="1276,-121 1098,-121 1098,-85 1282,-85 1282,-115 1276,-121"/>
<polyline fill="none" stroke="gray" points="1276,-121 1276,-115 "/>
<polyline fill="none" stroke="gray" points="1282,-115 1276,-115 "/>
<text text-anchor="start" x="1108" y="-107" font-family="Times New Roman,serif" font-size="10.00">generatedAtTime:</text>
<text text-anchor="start" x="1183" y="-107" font-family="Times New Roman,serif" font-size="10.00">&quot;2018&#45;02&#45;22T16:00:04&quot;</text>
<text text-anchor="start" x="1108" y="-94" font-family="Times New Roman,serif" font-size="10.00">type:</text>
<text text-anchor="start" x="1183" y="-94" font-family="Times New Roman,serif" font-size="10.00">&quot;Version&quot;</text>
</g>
<!-- &#45;attrs9&#45;&gt;http://example.org/int_v1 -->
<g id="edge14" class="edge"><title>&#45;attrs9&#45;&gt;http://example.org/int_v1</title>
<path fill="none" stroke="gray" stroke-dasharray="5,2" d="M1206.81,-121.303C1217.98,-132.801 1232.51,-147.757 1243.23,-158.798"/>
</g>
<!-- http://example.org/ellipsis -->
<g id="node21" class="node"><title>http://example.org/ellipsis</title>
<g id="a_node21"><a xlink:href="http://example.org/ellipsis" xlink:title="ellipsis">
<ellipse fill="#fffc87" stroke="#808080" cx="1609" cy="-103" rx="35.194" ry="18"/>
<text text-anchor="middle" x="1609" y="-99.3" font-family="Times New Roman,serif" font-size="14.00">ellipsis</text>
</a>
</g>
</g>
<!-- http://example.org/ellipsis_v1 -->
<g id="node23" class="node"><title>http://example.org/ellipsis_v1</title>
<g id="a_node23"><a xlink:href="http://example.org/ellipsis_v1" xlink:title="ellipsis_v1">
<ellipse fill="#32cd32" stroke="#808080" cx="1536" cy="-175" rx="48.9926" ry="18"/>
<text text-anchor="middle" x="1536" y="-171.3" font-family="Times New Roman,serif" font-size="14.00">ellipsis_v1</text>
</a>
</g>
</g>
<!-- http://example.org/ellipsis&#45;&gt;http://example.org/ellipsis_v1 -->
<g id="edge18" class="edge"><title>http://example.org/ellipsis&#45;&gt;http://example.org/ellipsis_v1</title>
<path fill="none" stroke="black" d="M1593.16,-119.189C1583.58,-128.378 1571.16,-140.284 1560.35,-150.651"/>
<polygon fill="black" stroke="black" points="1557.62,-148.419 1552.83,-157.866 1562.47,-153.471 1557.62,-148.419"/>
<text text-anchor="middle" x="1596.74" y="-131.856" font-family="Times New Roman,serif" font-size="8.00">spe</text>
</g>
<!-- &#45;attrs10 -->
<g id="node22" class="node"><title>&#45;attrs10</title>
<polygon fill="none" stroke="gray" points="1649,-49 1563,-49 1563,-0 1655,-0 1655,-43 1649,-49"/>
<polyline fill="none" stroke="gray" points="1649,-49 1649,-43 "/>
<polyline fill="none" stroke="gray" points="1655,-43 1649,-43 "/>
<text text-anchor="start" x="1573" y="-34.5" font-family="Times New Roman,serif" font-size="10.00">value:</text>
<text text-anchor="start" x="1600" y="-34.5" font-family="Times New Roman,serif" font-size="10.00">&quot;Ellipsis&quot;</text>
<text text-anchor="start" x="1573" y="-21.5" font-family="Times New Roman,serif" font-size="10.00">type:</text>
<text text-anchor="start" x="1600" y="-21.5" font-family="Times New Roman,serif" font-size="10.00">&quot;constant&quot;</text>
<text text-anchor="start" x="1573" y="-8.5" font-family="Times New Roman,serif" font-size="10.00">label:</text>
<text text-anchor="start" x="1600" y="-8.5" font-family="Times New Roman,serif" font-size="10.00">&quot;...&quot;</text>
</g>
<!-- &#45;attrs10&#45;&gt;http://example.org/ellipsis -->
<g id="edge16" class="edge"><title>&#45;attrs10&#45;&gt;http://example.org/ellipsis</title>
<path fill="none" stroke="gray" stroke-dasharray="5,2" d="M1609,-49.2857C1609,-60.6896 1609,-74.105 1609,-84.5482"/>
</g>
<!-- &#45;attrs11 -->
<g id="node24" class="node"><title>&#45;attrs11</title>
<polygon fill="none" stroke="gray" points="1550,-121 1372,-121 1372,-85 1556,-85 1556,-115 1550,-121"/>
<polyline fill="none" stroke="gray" points="1550,-121 1550,-115 "/>
<polyline fill="none" stroke="gray" points="1556,-115 1550,-115 "/>
<text text-anchor="start" x="1382" y="-107" font-family="Times New Roman,serif" font-size="10.00">generatedAtTime:</text>
<text text-anchor="start" x="1457" y="-107" font-family="Times New Roman,serif" font-size="10.00">&quot;2018&#45;02&#45;22T16:00:05&quot;</text>
<text text-anchor="start" x="1382" y="-94" font-family="Times New Roman,serif" font-size="10.00">type:</text>
<text text-anchor="start" x="1457" y="-94" font-family="Times New Roman,serif" font-size="10.00">&quot;Version&quot;</text>
</g>
<!-- &#45;attrs11&#45;&gt;http://example.org/ellipsis_v1 -->
<g id="edge17" class="edge"><title>&#45;attrs11&#45;&gt;http://example.org/ellipsis_v1</title>
<path fill="none" stroke="gray" stroke-dasharray="5,2" d="M1481.8,-121.303C1493.29,-132.478 1508.14,-146.918 1519.39,-157.855"/>
</g>
</g>
</svg>
