<?xml version="1.0" encoding="UTF-8" standalone="no"?>
<!DOCTYPE svg PUBLIC "-//W3C//DTD SVG 1.1//EN"
 "http://www.w3.org/Graphics/SVG/1.1/DTD/svg11.dtd">
<!-- Generated by graphviz version 2.38.0 (20140413.2041)
 -->
<!-- Title: PROV Pages: 1 -->
<svg width="1038pt" height="708pt"
 viewBox="0.00 0.00 1038.00 708.00" xmlns="http://www.w3.org/2000/svg" xmlns:xlink="http://www.w3.org/1999/xlink">
<g id="graph0" class="graph" transform="scale(1 1) rotate(0) translate(4 704)">
<title>PROV</title>
<polygon fill="white" stroke="none" points="-4,4 -4,-704 1034,-704 1034,4 -4,4"/>
<!-- http://example.org/10000 -->
<g id="node1" class="node"><title>http://example.org/10000</title>
<g id="a_node1"><a xlink:href="http://example.org/10000" xlink:title="10000">
<ellipse fill="#fffc87" stroke="#808080" cx="56" cy="-609" rx="32.4942" ry="18"/>
<text text-anchor="middle" x="56" y="-605.3" font-family="Times New Roman,serif" font-size="14.00">10000</text>
</a>
</g>
</g>
<!-- http://example.org/10000_v1 -->
<g id="node3" class="node"><title>http://example.org/10000_v1</title>
<g id="a_node3"><a xlink:href="http://example.org/10000_v1" xlink:title="10000_v1">
<ellipse fill="#32cd32" stroke="#808080" cx="135" cy="-682" rx="46.2923" ry="18"/>
<text text-anchor="middle" x="135" y="-678.3" font-family="Times New Roman,serif" font-size="14.00">10000_v1</text>
</a>
</g>
</g>
<!-- http://example.org/10000&#45;&gt;http://example.org/10000_v1 -->
<g id="edge3" class="edge"><title>http://example.org/10000&#45;&gt;http://example.org/10000_v1</title>
<path fill="none" stroke="black" d="M72.3689,-624.711C83.1943,-634.44 97.5988,-647.386 109.864,-658.41"/>
<polygon fill="black" stroke="black" points="107.779,-661.241 117.556,-665.323 112.458,-656.035 107.779,-661.241"/>
<text text-anchor="middle" x="86.6304" y="-618.163" font-family="Times New Roman,serif" font-size="8.00">spe</text>
</g>
<!-- &#45;attrs0 -->
<g id="node2" class="node"><title>&#45;attrs0</title>
<polygon fill="none" stroke="gray" points="144,-518.5 80,-518.5 80,-482.5 150,-482.5 150,-512.5 144,-518.5"/>
<polyline fill="none" stroke="gray" points="144,-518.5 144,-512.5 "/>
<polyline fill="none" stroke="gray" points="150,-512.5 144,-512.5 "/>
<text text-anchor="start" x="90" y="-504.5" font-family="Times New Roman,serif" font-size="10.00">value:</text>
<text text-anchor="start" x="117" y="-504.5" font-family="Times New Roman,serif" font-size="10.00">10000</text>
<text text-anchor="start" x="90" y="-491.5" font-family="Times New Roman,serif" font-size="10.00">type:</text>
<text text-anchor="start" x="117" y="-491.5" font-family="Times New Roman,serif" font-size="10.00">literal</text>
</g>
<!-- &#45;attrs0&#45;&gt;http://example.org/10000 -->
<g id="edge1" class="edge"><title>&#45;attrs0&#45;&gt;http://example.org/10000</title>
<path fill="none" stroke="gray" stroke-dasharray="5,2" d="M111.253,-518.598C107.442,-533.689 100.579,-555.886 90,-573 85.3677,-580.494 78.8878,-587.676 72.826,-593.562"/>
</g>
<!-- &#45;attrs1 -->
<g id="node4" class="node"><title>&#45;attrs1</title>
<polygon fill="none" stroke="gray" points="226,-627 106,-627 106,-591 232,-591 232,-621 226,-627"/>
<polyline fill="none" stroke="gray" points="226,-627 226,-621 "/>
<polyline fill="none" stroke="gray" points="232,-621 226,-621 "/>
<text text-anchor="start" x="116" y="-613" font-family="Times New Roman,serif" font-size="10.00">generatedAtTime:</text>
<text text-anchor="start" x="191" y="-613" font-family="Times New Roman,serif" font-size="10.00">T1</text>
<text text-anchor="start" x="116" y="-600" font-family="Times New Roman,serif" font-size="10.00">type:</text>
<text text-anchor="start" x="191" y="-600" font-family="Times New Roman,serif" font-size="10.00">Version</text>
</g>
<!-- &#45;attrs1&#45;&gt;http://example.org/10000_v1 -->
<g id="edge2" class="edge"><title>&#45;attrs1&#45;&gt;http://example.org/10000_v1</title>
<path fill="none" stroke="gray" stroke-dasharray="5,2" d="M160.77,-627.187C155.424,-638.35 148.485,-652.84 143.155,-663.971"/>
</g>
<!-- http://example.org/m -->
<g id="node5" class="node"><title>http://example.org/m</title>
<g id="a_node5"><a xlink:href="http://example.org/m" xlink:title="m">
<ellipse fill="#fffc87" stroke="#808080" cx="35" cy="-500.5" rx="27" ry="18"/>
<text text-anchor="middle" x="35" y="-496.8" font-family="Times New Roman,serif" font-size="14.00">m</text>
</a>
</g>
</g>
<!-- http://example.org/m&#45;&gt;http://example.org/10000 -->
<g id="edge5" class="edge"><title>http://example.org/m&#45;&gt;http://example.org/10000</title>
<path fill="none" stroke="darkgreen" d="M38.374,-518.611C41.6958,-535.457 46.8193,-561.441 50.6879,-581.06"/>
<polygon fill="darkgreen" stroke="darkgreen" points="47.2658,-581.797 52.6344,-590.931 54.1336,-580.443 47.2658,-581.797"/>
<text text-anchor="middle" x="67.5" y="-561.8" font-family="Times New Roman,serif" font-size="14.00">der ref</text>
<text text-anchor="middle" x="67.5" y="-546.8" font-family="Times New Roman,serif" font-size="14.00">T2</text>
</g>
<!-- &#45;attrs2 -->
<g id="node6" class="node"><title>&#45;attrs2</title>
<polygon fill="none" stroke="gray" points="64,-410 0,-410 0,-361 70,-361 70,-404 64,-410"/>
<polyline fill="none" stroke="gray" points="64,-410 64,-404 "/>
<polyline fill="none" stroke="gray" points="70,-404 64,-404 "/>
<text text-anchor="start" x="10" y="-395.5" font-family="Times New Roman,serif" font-size="10.00">value:</text>
<text text-anchor="start" x="37" y="-395.5" font-family="Times New Roman,serif" font-size="10.00">10000</text>
<text text-anchor="start" x="10" y="-382.5" font-family="Times New Roman,serif" font-size="10.00">type:</text>
<text text-anchor="start" x="37" y="-382.5" font-family="Times New Roman,serif" font-size="10.00">name</text>
<text text-anchor="start" x="10" y="-369.5" font-family="Times New Roman,serif" font-size="10.00">label:</text>
<text text-anchor="start" x="37" y="-369.5" font-family="Times New Roman,serif" font-size="10.00">m</text>
</g>
<!-- &#45;attrs2&#45;&gt;http://example.org/m -->
<g id="edge4" class="edge"><title>&#45;attrs2&#45;&gt;http://example.org/m</title>
<path fill="none" stroke="gray" stroke-dasharray="5,2" d="M35,-410.189C35,-431.804 35,-463.225 35,-482.459"/>
</g>
<!-- http://example.org/sum -->
<g id="node7" class="node"><title>http://example.org/sum</title>
<g id="a_node7"><a xlink:href="http://example.org/sum" xlink:title="sum">
<ellipse fill="#fffc87" stroke="#808080" cx="339" cy="-500.5" rx="27" ry="18"/>
<text text-anchor="middle" x="339" y="-496.8" font-family="Times New Roman,serif" font-size="14.00">sum</text>
</a>
</g>
</g>
<!-- http://example.org/sum_v1 -->
<g id="node9" class="node"><title>http://example.org/sum_v1</title>
<g id="a_node9"><a xlink:href="http://example.org/sum_v1" xlink:title="sum_v1">
<ellipse fill="#32cd32" stroke="#808080" cx="297" cy="-609" rx="39.7935" ry="18"/>
<text text-anchor="middle" x="297" y="-605.3" font-family="Times New Roman,serif" font-size="14.00">sum_v1</text>
</a>
</g>
</g>
<!-- http://example.org/sum&#45;&gt;http://example.org/sum_v1 -->
<g id="edge8" class="edge"><title>http://example.org/sum&#45;&gt;http://example.org/sum_v1</title>
<path fill="none" stroke="black" d="M332.438,-518.141C325.727,-535.157 315.204,-561.839 307.366,-581.714"/>
<polygon fill="black" stroke="black" points="304.068,-580.538 303.655,-591.125 310.58,-583.106 304.068,-580.538"/>
<text text-anchor="middle" x="341.771" y="-527.983" font-family="Times New Roman,serif" font-size="8.00">spe</text>
</g>
<!-- &#45;attrs3 -->
<g id="node8" class="node"><title>&#45;attrs3</title>
<polygon fill="none" stroke="gray" points="407,-410 327,-410 327,-361 413,-361 413,-404 407,-410"/>
<polyline fill="none" stroke="gray" points="407,-410 407,-404 "/>
<polyline fill="none" stroke="gray" points="413,-404 407,-404 "/>
<text text-anchor="start" x="337" y="-395.5" font-family="Times New Roman,serif" font-size="10.00">value:</text>
<text text-anchor="start" x="364" y="-395.5" font-family="Times New Roman,serif" font-size="10.00">10001</text>
<text text-anchor="start" x="337" y="-382.5" font-family="Times New Roman,serif" font-size="10.00">type:</text>
<text text-anchor="start" x="364" y="-382.5" font-family="Times New Roman,serif" font-size="10.00">operation</text>
<text text-anchor="start" x="337" y="-369.5" font-family="Times New Roman,serif" font-size="10.00">label:</text>
<text text-anchor="start" x="364" y="-369.5" font-family="Times New Roman,serif" font-size="10.00">m + 1</text>
</g>
<!-- &#45;attrs3&#45;&gt;http://example.org/sum -->
<g id="edge6" class="edge"><title>&#45;attrs3&#45;&gt;http://example.org/sum</title>
<path fill="none" stroke="gray" stroke-dasharray="5,2" d="M363.501,-410.189C357.571,-431.804 348.952,-463.225 343.675,-482.459"/>
</g>
<!-- &#45;attrs4 -->
<g id="node10" class="node"><title>&#45;attrs4</title>
<polygon fill="none" stroke="gray" points="288,-518.5 168,-518.5 168,-482.5 294,-482.5 294,-512.5 288,-518.5"/>
<polyline fill="none" stroke="gray" points="288,-518.5 288,-512.5 "/>
<polyline fill="none" stroke="gray" points="294,-512.5 288,-512.5 "/>
<text text-anchor="start" x="178" y="-504.5" font-family="Times New Roman,serif" font-size="10.00">generatedAtTime:</text>
<text text-anchor="start" x="253" y="-504.5" font-family="Times New Roman,serif" font-size="10.00">T4</text>
<text text-anchor="start" x="178" y="-491.5" font-family="Times New Roman,serif" font-size="10.00">type:</text>
<text text-anchor="start" x="253" y="-491.5" font-family="Times New Roman,serif" font-size="10.00">Version</text>
</g>
<!-- &#45;attrs4&#45;&gt;http://example.org/sum_v1 -->
<g id="edge7" class="edge"><title>&#45;attrs4&#45;&gt;http://example.org/sum_v1</title>
<path fill="none" stroke="gray" stroke-dasharray="5,2" d="M241.604,-518.611C253.993,-538.603 274.356,-571.462 286.64,-591.283"/>
</g>
<!-- http://example.org/list -->
<g id="node11" class="node"><title>http://example.org/list</title>
<g id="a_node11"><a xlink:href="http://example.org/list" xlink:title="list">
<ellipse fill="#fffc87" stroke="#808080" cx="520" cy="-104" rx="27" ry="18"/>
<text text-anchor="middle" x="520" y="-100.3" font-family="Times New Roman,serif" font-size="14.00">list</text>
</a>
</g>
</g>
<!-- http://example.org/list_v1 -->
<g id="node13" class="node"><title>http://example.org/list_v1</title>
<g id="a_node13"><a xlink:href="http://example.org/list_v1" xlink:title="list_v1">
<ellipse fill="#32cd32" stroke="#808080" cx="275" cy="-385.5" rx="34.394" ry="18"/>
<text text-anchor="middle" x="275" y="-381.8" font-family="Times New Roman,serif" font-size="14.00">list_v1</text>
</a>
</g>
</g>
<!-- http://example.org/list&#45;&gt;http://example.org/list_v1 -->
<g id="edge11" class="edge"><title>http://example.org/list&#45;&gt;http://example.org/list_v1</title>
<path fill="none" stroke="black" d="M495.969,-112.308C448.489,-128.116 343.017,-170.305 294,-246 272.264,-279.566 270.637,-327.297 272.237,-357.055"/>
<polygon fill="black" stroke="black" points="268.754,-357.414 272.942,-367.146 275.737,-356.927 268.754,-357.414"/>
<text text-anchor="middle" x="493.17" y="-125.145" font-family="Times New Roman,serif" font-size="8.00">spe</text>
</g>
<!-- http://example.org/list_v2 -->
<g id="node27" class="node"><title>http://example.org/list_v2</title>
<g id="a_node27"><a xlink:href="http://example.org/list_v2" xlink:title="list_v2">
<ellipse fill="#32cd32" stroke="#808080" cx="611" cy="-177" rx="34.394" ry="18"/>
<text text-anchor="middle" x="611" y="-173.3" font-family="Times New Roman,serif" font-size="14.00">list_v2</text>
</a>
</g>
</g>
<!-- http://example.org/list&#45;&gt;http://example.org/list_v2 -->
<g id="edge28" class="edge"><title>http://example.org/list&#45;&gt;http://example.org/list_v2</title>
<path fill="none" stroke="black" d="M537.116,-118.355C550.496,-128.794 569.328,-143.487 584.63,-155.426"/>
<polygon fill="black" stroke="black" points="582.674,-158.339 592.711,-161.731 586.98,-152.82 582.674,-158.339"/>
<text text-anchor="middle" x="551.02" y="-110.826" font-family="Times New Roman,serif" font-size="8.00">spe</text>
</g>
<!-- &#45;attrs5 -->
<g id="node12" class="node"><title>&#45;attrs5</title>
<polygon fill="none" stroke="gray" points="579,-49 455,-49 455,-0 585,-0 585,-43 579,-49"/>
<polyline fill="none" stroke="gray" points="579,-49 579,-43 "/>
<polyline fill="none" stroke="gray" points="585,-43 579,-43 "/>
<text text-anchor="start" x="465" y="-34.5" font-family="Times New Roman,serif" font-size="10.00">value:</text>
<text text-anchor="start" x="492" y="-34.5" font-family="Times New Roman,serif" font-size="10.00">[10000, 10001, 10000]</text>
<text text-anchor="start" x="465" y="-21.5" font-family="Times New Roman,serif" font-size="10.00">type:</text>
<text text-anchor="start" x="492" y="-21.5" font-family="Times New Roman,serif" font-size="10.00">list</text>
<text text-anchor="start" x="465" y="-8.5" font-family="Times New Roman,serif" font-size="10.00">label:</text>
<text text-anchor="start" x="492" y="-8.5" font-family="Times New Roman,serif" font-size="10.00">[m, m + 1, m]</text>
</g>
<!-- &#45;attrs5&#45;&gt;http://example.org/list -->
<g id="edge9" class="edge"><title>&#45;attrs5&#45;&gt;http://example.org/list</title>
<path fill="none" stroke="gray" stroke-dasharray="5,2" d="M520,-49.1737C520,-60.9254 520,-74.869 520,-85.6196"/>
</g>
<!-- http://example.org/list_v1&#45;&gt;http://example.org/m -->
<g id="edge12" class="edge"><title>http://example.org/list_v1&#45;&gt;http://example.org/m</title>
<path fill="none" stroke="darkgreen" d="M247.291,-396.634C225.754,-404.682 195.232,-416.464 169,-428 124.604,-447.524 113.164,-452.033 71,-476 67.9219,-477.75 64.7485,-479.658 61.6207,-481.606"/>
<polygon fill="darkgreen" stroke="darkgreen" points="59.5752,-478.759 53.0437,-487.102 63.3518,-484.653 59.5752,-478.759"/>
<text text-anchor="middle" x="177" y="-439.3" font-family="Times New Roman,serif" font-size="14.00">[0]</text>
</g>
<!-- http://example.org/list_v1&#45;&gt;http://example.org/m -->
<g id="edge14" class="edge"><title>http://example.org/list_v1&#45;&gt;http://example.org/m</title>
<path fill="none" stroke="darkgreen" d="M260.396,-402.16C243.819,-418.881 215.145,-444.755 185,-458 138.038,-478.633 118.87,-457.573 71,-476 67.5216,-477.339 64.0304,-479.05 60.6637,-480.936"/>
<polygon fill="darkgreen" stroke="darkgreen" points="58.8035,-477.972 52.1373,-486.206 62.4838,-483.926 58.8035,-477.972"/>
<text text-anchor="middle" x="238" y="-439.3" font-family="Times New Roman,serif" font-size="14.00">[2]</text>
</g>
<!-- http://example.org/list_v1&#45;&gt;http://example.org/sum -->
<g id="edge13" class="edge"><title>http://example.org/list_v1&#45;&gt;http://example.org/sum</title>
<path fill="none" stroke="darkgreen" d="M284.443,-403.174C295.105,-421.998 312.564,-452.823 324.854,-474.524"/>
<polygon fill="darkgreen" stroke="darkgreen" points="321.959,-476.513 329.932,-483.49 328.049,-473.064 321.959,-476.513"/>
<text text-anchor="middle" x="323" y="-439.3" font-family="Times New Roman,serif" font-size="14.00">[1]</text>
</g>
<!-- &#45;attrs6 -->
<g id="node14" class="node"><title>&#45;attrs6</title>
<polygon fill="none" stroke="gray" points="423,-288.5 303,-288.5 303,-252.5 429,-252.5 429,-282.5 423,-288.5"/>
<polyline fill="none" stroke="gray" points="423,-288.5 423,-282.5 "/>
<polyline fill="none" stroke="gray" points="429,-282.5 423,-282.5 "/>
<text text-anchor="start" x="313" y="-274.5" font-family="Times New Roman,serif" font-size="10.00">generatedAtTime:</text>
<text text-anchor="start" x="388" y="-274.5" font-family="Times New Roman,serif" font-size="10.00">T5</text>
<text text-anchor="start" x="313" y="-261.5" font-family="Times New Roman,serif" font-size="10.00">type:</text>
<text text-anchor="start" x="388" y="-261.5" font-family="Times New Roman,serif" font-size="10.00">Version</text>
</g>
<!-- &#45;attrs6&#45;&gt;http://example.org/list_v1 -->
<g id="edge10" class="edge"><title>&#45;attrs6&#45;&gt;http://example.org/list_v1</title>
<path fill="none" stroke="gray" stroke-dasharray="5,2" d="M352.179,-288.662C334.677,-310.395 304.761,-347.544 287.773,-368.639"/>
</g>
<!-- http://example.org/d -->
<g id="node15" class="node"><title>http://example.org/d</title>
<g id="a_node15"><a xlink:href="http://example.org/d" xlink:title="d">
<ellipse fill="#fffc87" stroke="#808080" cx="558" cy="-609" rx="27" ry="18"/>
<text text-anchor="middle" x="558" y="-605.3" font-family="Times New Roman,serif" font-size="14.00">d</text>
</a>
</g>
</g>
<!-- http://example.org/d&#45;&gt;http://example.org/list -->
<g id="edge16" class="edge"><title>http://example.org/d&#45;&gt;http://example.org/list</title>
<path fill="none" stroke="darkgreen" d="M553.88,-591.148C549.139,-570.25 542,-533.472 542,-501.5 542,-176 542,-176 542,-176 542,-160.472 537.14,-143.855 531.988,-130.604"/>
<polygon fill="darkgreen" stroke="darkgreen" points="535.146,-129.083 528.067,-121.2 528.685,-131.777 535.146,-129.083"/>
<text text-anchor="middle" x="560.5" y="-331.8" font-family="Times New Roman,serif" font-size="14.00">der ref</text>
<text text-anchor="middle" x="560.5" y="-316.8" font-family="Times New Roman,serif" font-size="14.00">T6</text>
</g>
<!-- &#45;attrs7 -->
<g id="node16" class="node"><title>&#45;attrs7</title>
<polygon fill="none" stroke="gray" points="508,-525 384,-525 384,-476 514,-476 514,-519 508,-525"/>
<polyline fill="none" stroke="gray" points="508,-525 508,-519 "/>
<polyline fill="none" stroke="gray" points="514,-519 508,-519 "/>
<text text-anchor="start" x="394" y="-510.5" font-family="Times New Roman,serif" font-size="10.00">value:</text>
<text text-anchor="start" x="421" y="-510.5" font-family="Times New Roman,serif" font-size="10.00">[10000, 10001, 10000]</text>
<text text-anchor="start" x="394" y="-497.5" font-family="Times New Roman,serif" font-size="10.00">type:</text>
<text text-anchor="start" x="421" y="-497.5" font-family="Times New Roman,serif" font-size="10.00">name</text>
<text text-anchor="start" x="394" y="-484.5" font-family="Times New Roman,serif" font-size="10.00">label:</text>
<text text-anchor="start" x="421" y="-484.5" font-family="Times New Roman,serif" font-size="10.00">d</text>
</g>
<!-- &#45;attrs7&#45;&gt;http://example.org/d -->
<g id="edge15" class="edge"><title>&#45;attrs7&#45;&gt;http://example.org/d</title>
<path fill="none" stroke="gray" stroke-dasharray="5,2" d="M473.191,-525.136C494.641,-546.094 525.275,-576.026 543.254,-593.592"/>
</g>
<!-- http://example.org/1 -->
<g id="node17" class="node"><title>http://example.org/1</title>
<g id="a_node17"><a xlink:href="http://example.org/1" xlink:title="1">
<ellipse fill="#fffc87" stroke="#808080" cx="859" cy="-609" rx="27" ry="18"/>
<text text-anchor="middle" x="859" y="-605.3" font-family="Times New Roman,serif" font-size="14.00">1</text>
</a>
</g>
</g>
<!-- http://example.org/1_v1 -->
<g id="node19" class="node"><title>http://example.org/1_v1</title>
<g id="a_node19"><a xlink:href="http://example.org/1_v1" xlink:title="1_v1">
<ellipse fill="#32cd32" stroke="#808080" cx="940" cy="-682" rx="28.6953" ry="18"/>
<text text-anchor="middle" x="940" y="-678.3" font-family="Times New Roman,serif" font-size="14.00">1_v1</text>
</a>
</g>
</g>
<!-- http://example.org/1&#45;&gt;http://example.org/1_v1 -->
<g id="edge19" class="edge"><title>http://example.org/1&#45;&gt;http://example.org/1_v1</title>
<path fill="none" stroke="black" d="M874.618,-623.69C886.343,-633.968 902.612,-648.228 915.988,-659.952"/>
<polygon fill="black" stroke="black" points="914.049,-662.907 923.876,-666.867 918.663,-657.643 914.049,-662.907"/>
<text text-anchor="middle" x="888.82" y="-616.964" font-family="Times New Roman,serif" font-size="8.00">spe</text>
</g>
<!-- &#45;attrs8 -->
<g id="node18" class="node"><title>&#45;attrs8</title>
<polygon fill="none" stroke="gray" points="887.5,-518.5 824.5,-518.5 824.5,-482.5 893.5,-482.5 893.5,-512.5 887.5,-518.5"/>
<polyline fill="none" stroke="gray" points="887.5,-518.5 887.5,-512.5 "/>
<polyline fill="none" stroke="gray" points="893.5,-512.5 887.5,-512.5 "/>
<text text-anchor="start" x="835" y="-504.5" font-family="Times New Roman,serif" font-size="10.00">value:</text>
<text text-anchor="start" x="862" y="-504.5" font-family="Times New Roman,serif" font-size="10.00">1</text>
<text text-anchor="start" x="835" y="-491.5" font-family="Times New Roman,serif" font-size="10.00">type:</text>
<text text-anchor="start" x="862" y="-491.5" font-family="Times New Roman,serif" font-size="10.00">literal</text>
</g>
<!-- &#45;attrs8&#45;&gt;http://example.org/1 -->
<g id="edge17" class="edge"><title>&#45;attrs8&#45;&gt;http://example.org/1</title>
<path fill="none" stroke="gray" stroke-dasharray="5,2" d="M859,-518.611C859,-538.485 859,-571.075 859,-590.931"/>
</g>
<!-- &#45;attrs9 -->
<g id="node20" class="node"><title>&#45;attrs9</title>
<polygon fill="none" stroke="gray" points="1024,-627 904,-627 904,-591 1030,-591 1030,-621 1024,-627"/>
<polyline fill="none" stroke="gray" points="1024,-627 1024,-621 "/>
<polyline fill="none" stroke="gray" points="1030,-621 1024,-621 "/>
<text text-anchor="start" x="914" y="-613" font-family="Times New Roman,serif" font-size="10.00">generatedAtTime:</text>
<text text-anchor="start" x="989" y="-613" font-family="Times New Roman,serif" font-size="10.00">00:00</text>
<text text-anchor="start" x="914" y="-600" font-family="Times New Roman,serif" font-size="10.00">type:</text>
<text text-anchor="start" x="989" y="-600" font-family="Times New Roman,serif" font-size="10.00">Version</text>
</g>
<!-- &#45;attrs9&#45;&gt;http://example.org/1_v1 -->
<g id="edge18" class="edge"><title>&#45;attrs9&#45;&gt;http://example.org/1_v1</title>
<path fill="none" stroke="gray" stroke-dasharray="5,2" d="M960.464,-627.187C956.219,-638.35 950.709,-652.84 946.476,-663.971"/>
</g>
<!-- http://example.org/3 -->
<g id="node21" class="node"><title>http://example.org/3</title>
<g id="a_node21"><a xlink:href="http://example.org/3" xlink:title="3">
<ellipse fill="#fffc87" stroke="#808080" cx="643" cy="-609" rx="27" ry="18"/>
<text text-anchor="middle" x="643" y="-605.3" font-family="Times New Roman,serif" font-size="14.00">3</text>
</a>
</g>
</g>
<!-- http://example.org/3_v1 -->
<g id="node23" class="node"><title>http://example.org/3_v1</title>
<g id="a_node23"><a xlink:href="http://example.org/3_v1" xlink:title="3_v1">
<ellipse fill="#32cd32" stroke="#808080" cx="718" cy="-682" rx="28.6953" ry="18"/>
<text text-anchor="middle" x="718" y="-678.3" font-family="Times New Roman,serif" font-size="14.00">3_v1</text>
</a>
</g>
</g>
<!-- http://example.org/3&#45;&gt;http://example.org/3_v1 -->
<g id="edge22" class="edge"><title>http://example.org/3&#45;&gt;http://example.org/3_v1</title>
<path fill="none" stroke="black" d="M658.177,-624.368C668.851,-634.473 683.319,-648.169 695.353,-659.561"/>
<polygon fill="black" stroke="black" points="693.177,-662.32 702.845,-666.653 697.989,-657.237 693.177,-662.32"/>
<text text-anchor="middle" x="672.554" y="-618.19" font-family="Times New Roman,serif" font-size="8.00">spe</text>
</g>
<!-- &#45;attrs10 -->
<g id="node22" class="node"><title>&#45;attrs10</title>
<polygon fill="none" stroke="gray" points="766.5,-518.5 703.5,-518.5 703.5,-482.5 772.5,-482.5 772.5,-512.5 766.5,-518.5"/>
<polyline fill="none" stroke="gray" points="766.5,-518.5 766.5,-512.5 "/>
<polyline fill="none" stroke="gray" points="772.5,-512.5 766.5,-512.5 "/>
<text text-anchor="start" x="714" y="-504.5" font-family="Times New Roman,serif" font-size="10.00">value:</text>
<text text-anchor="start" x="741" y="-504.5" font-family="Times New Roman,serif" font-size="10.00">3</text>
<text text-anchor="start" x="714" y="-491.5" font-family="Times New Roman,serif" font-size="10.00">type:</text>
<text text-anchor="start" x="741" y="-491.5" font-family="Times New Roman,serif" font-size="10.00">literal</text>
</g>
<!-- &#45;attrs10&#45;&gt;http://example.org/3 -->
<g id="edge20" class="edge"><title>&#45;attrs10&#45;&gt;http://example.org/3</title>
<path fill="none" stroke="gray" stroke-dasharray="5,2" d="M722.737,-518.611C704.379,-539.191 673.859,-573.406 656.383,-592.997"/>
</g>
<!-- &#45;attrs11 -->
<g id="node24" class="node"><title>&#45;attrs11</title>
<polygon fill="none" stroke="gray" points="808,-627 688,-627 688,-591 814,-591 814,-621 808,-627"/>
<polyline fill="none" stroke="gray" points="808,-627 808,-621 "/>
<polyline fill="none" stroke="gray" points="814,-621 808,-621 "/>
<text text-anchor="start" x="698" y="-613" font-family="Times New Roman,serif" font-size="10.00">generatedAtTime:</text>
<text text-anchor="start" x="773" y="-613" font-family="Times New Roman,serif" font-size="10.00">T10</text>
<text text-anchor="start" x="698" y="-600" font-family="Times New Roman,serif" font-size="10.00">type:</text>
<text text-anchor="start" x="773" y="-600" font-family="Times New Roman,serif" font-size="10.00">Version</text>
</g>
<!-- &#45;attrs11&#45;&gt;http://example.org/3_v1 -->
<g id="edge21" class="edge"><title>&#45;attrs11&#45;&gt;http://example.org/3_v1</title>
<path fill="none" stroke="gray" stroke-dasharray="5,2" d="M743.012,-627.187C737.747,-638.514 730.89,-653.267 725.688,-664.46"/>
</g>
<!-- http://example.org/d_ac1 -->
<g id="node25" class="node"><title>http://example.org/d_ac1</title>
<g id="a_node25"><a xlink:href="http://example.org/d_ac1" xlink:title="d_ac1">
<ellipse fill="#fffc87" stroke="#808080" cx="644" cy="-385.5" rx="33.2948" ry="18"/>
<text text-anchor="middle" x="644" y="-381.8" font-family="Times New Roman,serif" font-size="14.00">d_ac1</text>
</a>
</g>
</g>
<!-- http://example.org/assign4 -->
<g id="node30" class="node"><title>http://example.org/assign4</title>
<g id="a_node30"><a xlink:href="http://example.org/assign4" xlink:title="assign4">
<polygon fill="#9fb1fc" stroke="#0000ff" points="685,-518.5 627,-518.5 627,-482.5 685,-482.5 685,-518.5"/>
<text text-anchor="middle" x="656" y="-496.8" font-family="Times New Roman,serif" font-size="14.00">assign4</text>
</a>
</g>
</g>
<!-- http://example.org/d_ac1&#45;&gt;http://example.org/assign4 -->
<g id="edge33" class="edge"><title>http://example.org/d_ac1&#45;&gt;http://example.org/assign4</title>
<path fill="none" stroke="black" d="M645.823,-403.662C647.752,-421.831 650.826,-450.775 653.091,-472.106"/>
<polygon fill="black" stroke="black" points="649.624,-472.602 654.16,-482.176 656.585,-471.862 649.624,-472.602"/>
<text text-anchor="middle" x="659.532" y="-407.849" font-family="Times New Roman,serif" font-size="8.00">gen</text>
</g>
<!-- bn1 -->
<g id="node32" class="node"><title>bn1</title>
<ellipse fill="black" stroke="black" cx="592" cy="-500.5" rx="1.8" ry="1.8"/>
</g>
<!-- http://example.org/d_ac1&#45;&gt;bn1 -->
<g id="edge34" class="edge"><title>http://example.org/d_ac1&#45;&gt;bn1</title>
<path fill="none" stroke="darkgreen" d="M622.192,-399.507C612.381,-406.606 601.735,-416.334 596,-428 583.275,-453.885 590.329,-491.576 591.763,-498.415"/>
<text text-anchor="middle" x="620.5" y="-446.8" font-family="Times New Roman,serif" font-size="14.00">der ac&#45;w</text>
<text text-anchor="middle" x="620.5" y="-431.8" font-family="Times New Roman,serif" font-size="14.00">T12</text>
</g>
<!-- &#45;attrs12 -->
<g id="node26" class="node"><title>&#45;attrs12</title>
<polygon fill="none" stroke="gray" points="706.5,-295 637.5,-295 637.5,-246 712.5,-246 712.5,-289 706.5,-295"/>
<polyline fill="none" stroke="gray" points="706.5,-295 706.5,-289 "/>
<polyline fill="none" stroke="gray" points="712.5,-289 706.5,-289 "/>
<text text-anchor="start" x="648" y="-280.5" font-family="Times New Roman,serif" font-size="10.00">value:</text>
<text text-anchor="start" x="675" y="-280.5" font-family="Times New Roman,serif" font-size="10.00">3</text>
<text text-anchor="start" x="648" y="-267.5" font-family="Times New Roman,serif" font-size="10.00">type:</text>
<text text-anchor="start" x="675" y="-267.5" font-family="Times New Roman,serif" font-size="10.00">access</text>
<text text-anchor="start" x="648" y="-254.5" font-family="Times New Roman,serif" font-size="10.00">label:</text>
<text text-anchor="start" x="675" y="-254.5" font-family="Times New Roman,serif" font-size="10.00">d[1]</text>
</g>
<!-- &#45;attrs12&#45;&gt;http://example.org/d_ac1 -->
<g id="edge23" class="edge"><title>&#45;attrs12&#45;&gt;http://example.org/d_ac1</title>
<path fill="none" stroke="gray" stroke-dasharray="5,2" d="M671.539,-295.29C669.201,-309.336 665.683,-327.369 661,-343 658.497,-351.353 654.931,-360.341 651.71,-367.809"/>
</g>
<!-- bn0 -->
<g id="node29" class="node"><title>bn0</title>
<ellipse fill="black" stroke="black" cx="611" cy="-270.5" rx="1.8" ry="1.8"/>
</g>
<!-- http://example.org/list_v2&#45;&gt;bn0 -->
<g id="edge25" class="edge"><title>http://example.org/list_v2&#45;&gt;bn0</title>
<path fill="none" stroke="darkgreen" d="M611,-195.21C611,-219.645 611,-262.164 611,-268.658"/>
<text text-anchor="middle" x="630.5" y="-216.8" font-family="Times New Roman,serif" font-size="14.00">der&#45;ins</text>
</g>
<!-- &#45;attrs13 -->
<g id="node28" class="node"><title>&#45;attrs13</title>
<polygon fill="none" stroke="gray" points="685,-122 565,-122 565,-86 691,-86 691,-116 685,-122"/>
<polyline fill="none" stroke="gray" points="685,-122 685,-116 "/>
<polyline fill="none" stroke="gray" points="691,-116 685,-116 "/>
<text text-anchor="start" x="575" y="-108" font-family="Times New Roman,serif" font-size="10.00">generatedAtTime:</text>
<text text-anchor="start" x="650" y="-108" font-family="Times New Roman,serif" font-size="10.00">T12</text>
<text text-anchor="start" x="575" y="-95" font-family="Times New Roman,serif" font-size="10.00">type:</text>
<text text-anchor="start" x="650" y="-95" font-family="Times New Roman,serif" font-size="10.00">Version</text>
</g>
<!-- &#45;attrs13&#45;&gt;http://example.org/list_v2 -->
<g id="edge24" class="edge"><title>&#45;attrs13&#45;&gt;http://example.org/list_v2</title>
<path fill="none" stroke="gray" stroke-dasharray="5,2" d="M623.885,-122.187C621.212,-133.35 617.743,-147.84 615.077,-158.971"/>
</g>
<!-- bn0&#45;&gt;http://example.org/list_v1 -->
<g id="edge26" class="edge"><title>bn0&#45;&gt;http://example.org/list_v1</title>
<path fill="none" stroke="darkgreen" d="M610.701,-272.572C608.383,-280.796 593.039,-333.787 580,-343 532.338,-376.678 374.016,-344.627 318,-361 313.562,-362.297 309.071,-364.102 304.749,-366.142"/>
<polygon fill="darkgreen" stroke="darkgreen" points="302.903,-363.157 295.644,-370.874 306.131,-369.368 302.903,-363.157"/>
<text text-anchor="middle" x="607.5" y="-324.3" font-family="Times New Roman,serif" font-size="14.00">der</text>
</g>
<!-- bn0&#45;&gt;http://example.org/d_ac1 -->
<g id="edge27" class="edge"><title>bn0&#45;&gt;http://example.org/d_ac1</title>
<path fill="none" stroke="darkgreen" d="M611.371,-272.769C613.775,-281.004 627.346,-327.472 636.212,-357.83"/>
<polygon fill="darkgreen" stroke="darkgreen" points="632.852,-358.812 639.015,-367.43 639.571,-356.85 632.852,-358.812"/>
<text text-anchor="middle" x="640" y="-324.3" font-family="Times New Roman,serif" font-size="14.00">[1]</text>
</g>
<!-- http://example.org/assign4&#45;&gt;http://example.org/d -->
<g id="edge30" class="edge"><title>http://example.org/assign4&#45;&gt;http://example.org/d</title>
<path fill="none" stroke="black" d="M642.527,-518.787C630.737,-533.607 612.898,-555.303 596,-573 591.447,-577.768 586.376,-582.683 581.46,-587.268"/>
<polygon fill="black" stroke="black" points="578.973,-584.799 573.959,-594.132 583.699,-589.963 578.973,-584.799"/>
<text text-anchor="middle" x="647.989" y="-530.857" font-family="Times New Roman,serif" font-size="8.00">use</text>
</g>
<!-- http://example.org/assign4&#45;&gt;http://example.org/1 -->
<g id="edge31" class="edge"><title>http://example.org/assign4&#45;&gt;http://example.org/1</title>
<path fill="none" stroke="black" d="M683.227,-518.734C686.822,-520.892 690.48,-523.031 694,-525 718.808,-538.875 788.389,-573.339 828.832,-593.22"/>
<polygon fill="black" stroke="black" points="827.44,-596.436 837.958,-597.703 830.525,-590.153 827.44,-596.436"/>
<text text-anchor="middle" x="696.335" y="-509.542" font-family="Times New Roman,serif" font-size="8.00">use</text>
</g>
<!-- http://example.org/assign4&#45;&gt;http://example.org/3 -->
<g id="edge32" class="edge"><title>http://example.org/assign4&#45;&gt;http://example.org/3</title>
<path fill="none" stroke="black" d="M653.911,-518.611C651.864,-535.38 648.712,-561.201 646.322,-580.788"/>
<polygon fill="black" stroke="black" points="642.821,-580.581 645.083,-590.931 649.769,-581.429 642.821,-580.581"/>
<text text-anchor="middle" x="665.897" y="-525.73" font-family="Times New Roman,serif" font-size="8.00">use</text>
</g>
<!-- &#45;attrs14 -->
<g id="node31" class="node"><title>&#45;attrs14</title>
<polygon fill="none" stroke="gray" points="759,-403.5 695,-403.5 695,-367.5 765,-367.5 765,-397.5 759,-403.5"/>
<polyline fill="none" stroke="gray" points="759,-403.5 759,-397.5 "/>
<polyline fill="none" stroke="gray" points="765,-397.5 759,-397.5 "/>
<text text-anchor="start" x="705" y="-382.5" font-family="Times New Roman,serif" font-size="10.00">type:</text>
<text text-anchor="start" x="728" y="-382.5" font-family="Times New Roman,serif" font-size="10.00">assign</text>
</g>
<!-- &#45;attrs14&#45;&gt;http://example.org/assign4 -->
<g id="edge29" class="edge"><title>&#45;attrs14&#45;&gt;http://example.org/assign4</title>
<path fill="none" stroke="gray" stroke-dasharray="5,2" d="M718.761,-403.662C704.852,-424.901 681.302,-460.863 667.345,-482.176"/>
</g>
<!-- bn1&#45;&gt;http://example.org/d -->
<g id="edge35" class="edge"><title>bn1&#45;&gt;http://example.org/d</title>
<path fill="none" stroke="darkgreen" d="M591.567,-502.513C589.606,-507.121 581.426,-526.576 576,-543 571.881,-555.469 567.916,-569.488 564.761,-581.305"/>
<polygon fill="darkgreen" stroke="darkgreen" points="561.362,-580.469 562.214,-591.029 568.134,-582.243 561.362,-580.469"/>
<text text-anchor="middle" x="584" y="-554.3" font-family="Times New Roman,serif" font-size="14.00">[1]</text>
</g>
<!-- bn1&#45;&gt;http://example.org/3 -->
<g id="edge36" class="edge"><title>bn1&#45;&gt;http://example.org/3</title>
<path fill="none" stroke="darkgreen" d="M592.573,-502.696C596.27,-510.416 617.04,-553.79 630.745,-582.409"/>
<polygon fill="darkgreen" stroke="darkgreen" points="627.611,-583.969 635.087,-591.476 633.925,-580.945 627.611,-583.969"/>
</g>
</g>
</svg>
