<?xml version="1.0" encoding="UTF-8" standalone="no"?>
<!DOCTYPE svg PUBLIC "-//W3C//DTD SVG 1.1//EN"
 "http://www.w3.org/Graphics/SVG/1.1/DTD/svg11.dtd">
<!-- Generated by graphviz version 2.38.0 (20140413.2041)
 -->
<!-- Title: PROV Pages: 1 -->
<svg width="1152pt" height="656pt"
 viewBox="0.00 0.00 1152.00 655.86" xmlns="http://www.w3.org/2000/svg" xmlns:xlink="http://www.w3.org/1999/xlink">
<g id="graph0" class="graph" transform="scale(0.945037 0.945037) rotate(0) translate(4 690)">
<title>PROV</title>
<polygon fill="white" stroke="none" points="-4,4 -4,-690 1215,-690 1215,4 -4,4"/>
<!-- http://example.org/10000 -->
<g id="node1" class="node"><title>http://example.org/10000</title>
<g id="a_node1"><a xlink:href="http://example.org/10000" xlink:title="10000">
<ellipse fill="#fffc87" stroke="#808080" cx="102.5" cy="-595" rx="32.4942" ry="18"/>
<text text-anchor="middle" x="102.5" y="-591.3" font-family="Times New Roman,serif" font-size="14.00">10000</text>
</a>
</g>
</g>
<!-- http://example.org/10000_v1 -->
<g id="node3" class="node"><title>http://example.org/10000_v1</title>
<g id="a_node3"><a xlink:href="http://example.org/10000_v1" xlink:title="10000_v1">
<ellipse fill="#32cd32" stroke="#808080" cx="199.5" cy="-668" rx="46.2923" ry="18"/>
<text text-anchor="middle" x="199.5" y="-664.3" font-family="Times New Roman,serif" font-size="14.00">10000_v1</text>
</a>
</g>
</g>
<!-- http://example.org/10000&#45;&gt;http://example.org/10000_v1 -->
<g id="edge3" class="edge"><title>http://example.org/10000&#45;&gt;http://example.org/10000_v1</title>
<path fill="none" stroke="black" d="M121.664,-610.027C135.547,-620.189 154.566,-634.11 170.328,-645.647"/>
<polygon fill="black" stroke="black" points="168.56,-648.691 178.697,-651.773 172.695,-643.042 168.56,-648.691"/>
<text text-anchor="middle" x="135.389" y="-602.075" font-family="Times New Roman,serif" font-size="8.00">spe</text>
</g>
<!-- &#45;attrs0 -->
<g id="node2" class="node"><title>&#45;attrs0</title>
<polygon fill="none" stroke="gray" points="179.5,-504.5 91.5,-504.5 91.5,-468.5 185.5,-468.5 185.5,-498.5 179.5,-504.5"/>
<polyline fill="none" stroke="gray" points="179.5,-504.5 179.5,-498.5 "/>
<polyline fill="none" stroke="gray" points="185.5,-498.5 179.5,-498.5 "/>
<text text-anchor="start" x="101.5" y="-490.5" font-family="Times New Roman,serif" font-size="10.00">value:</text>
<text text-anchor="start" x="128.5" y="-490.5" font-family="Times New Roman,serif" font-size="10.00">10000</text>
<text text-anchor="start" x="101.5" y="-477.5" font-family="Times New Roman,serif" font-size="10.00">type:</text>
<text text-anchor="start" x="128.5" y="-477.5" font-family="Times New Roman,serif" font-size="10.00">script:literal</text>
</g>
<!-- &#45;attrs0&#45;&gt;http://example.org/10000 -->
<g id="edge1" class="edge"><title>&#45;attrs0&#45;&gt;http://example.org/10000</title>
<path fill="none" stroke="gray" stroke-dasharray="5,2" d="M132.716,-504.611C125.998,-524.485 114.982,-557.075 108.27,-576.931"/>
</g>
<!-- &#45;attrs1 -->
<g id="node4" class="node"><title>&#45;attrs1</title>
<polygon fill="none" stroke="gray" points="320.5,-613 152.5,-613 152.5,-577 326.5,-577 326.5,-607 320.5,-613"/>
<polyline fill="none" stroke="gray" points="320.5,-613 320.5,-607 "/>
<polyline fill="none" stroke="gray" points="326.5,-607 320.5,-607 "/>
<text text-anchor="start" x="162.5" y="-599" font-family="Times New Roman,serif" font-size="10.00">generatedAtTime:</text>
<text text-anchor="start" x="237.5" y="-599" font-family="Times New Roman,serif" font-size="10.00">T1</text>
<text text-anchor="start" x="162.5" y="-586" font-family="Times New Roman,serif" font-size="10.00">type:</text>
<text text-anchor="start" x="237.5" y="-586" font-family="Times New Roman,serif" font-size="10.00">intertwined:Version</text>
</g>
<!-- &#45;attrs1&#45;&gt;http://example.org/10000_v1 -->
<g id="edge2" class="edge"><title>&#45;attrs1&#45;&gt;http://example.org/10000_v1</title>
<path fill="none" stroke="gray" stroke-dasharray="5,2" d="M229.817,-613.187C223.528,-624.35 215.365,-638.84 209.094,-649.971"/>
</g>
<!-- http://example.org/m -->
<g id="node5" class="node"><title>http://example.org/m</title>
<g id="a_node5"><a xlink:href="http://example.org/m" xlink:title="m">
<ellipse fill="#fffc87" stroke="#808080" cx="46.5" cy="-486.5" rx="27" ry="18"/>
<text text-anchor="middle" x="46.5" y="-482.8" font-family="Times New Roman,serif" font-size="14.00">m</text>
</a>
</g>
</g>
<!-- http://example.org/m&#45;&gt;http://example.org/10000 -->
<g id="edge5" class="edge"><title>http://example.org/m&#45;&gt;http://example.org/10000</title>
<path fill="none" stroke="darkgreen" d="M51.4945,-504.333C56.2865,-519.25 64.2947,-541.34 74.5,-559 76.7959,-562.973 79.5198,-566.973 82.3527,-570.776"/>
<polygon fill="darkgreen" stroke="darkgreen" points="79.6633,-573.018 88.6045,-578.702 85.1593,-568.683 79.6633,-573.018"/>
<text text-anchor="middle" x="93" y="-547.8" font-family="Times New Roman,serif" font-size="14.00">der ref</text>
<text text-anchor="middle" x="93" y="-532.8" font-family="Times New Roman,serif" font-size="14.00">T2</text>
</g>
<!-- &#45;attrs2 -->
<g id="node6" class="node"><title>&#45;attrs2</title>
<polygon fill="none" stroke="gray" points="87,-396 0,-396 0,-347 93,-347 93,-390 87,-396"/>
<polyline fill="none" stroke="gray" points="87,-396 87,-390 "/>
<polyline fill="none" stroke="gray" points="93,-390 87,-390 "/>
<text text-anchor="start" x="10.5" y="-381.5" font-family="Times New Roman,serif" font-size="10.00">value:</text>
<text text-anchor="start" x="37.5" y="-381.5" font-family="Times New Roman,serif" font-size="10.00">10000</text>
<text text-anchor="start" x="10.5" y="-368.5" font-family="Times New Roman,serif" font-size="10.00">type:</text>
<text text-anchor="start" x="37.5" y="-368.5" font-family="Times New Roman,serif" font-size="10.00">script:name</text>
<text text-anchor="start" x="10.5" y="-355.5" font-family="Times New Roman,serif" font-size="10.00">label:</text>
<text text-anchor="start" x="37.5" y="-355.5" font-family="Times New Roman,serif" font-size="10.00">m</text>
</g>
<!-- &#45;attrs2&#45;&gt;http://example.org/m -->
<g id="edge4" class="edge"><title>&#45;attrs2&#45;&gt;http://example.org/m</title>
<path fill="none" stroke="gray" stroke-dasharray="5,2" d="M46.5,-396.189C46.5,-417.804 46.5,-449.225 46.5,-468.459"/>
</g>
<!-- http://example.org/sum -->
<g id="node7" class="node"><title>http://example.org/sum</title>
<g id="a_node7"><a xlink:href="http://example.org/sum" xlink:title="sum">
<ellipse fill="#fffc87" stroke="#808080" cx="422.5" cy="-486.5" rx="27" ry="18"/>
<text text-anchor="middle" x="422.5" y="-482.8" font-family="Times New Roman,serif" font-size="14.00">sum</text>
</a>
</g>
</g>
<!-- http://example.org/sum_v1 -->
<g id="node9" class="node"><title>http://example.org/sum_v1</title>
<g id="a_node9"><a xlink:href="http://example.org/sum_v1" xlink:title="sum_v1">
<ellipse fill="#32cd32" stroke="#808080" cx="403.5" cy="-595" rx="39.7935" ry="18"/>
<text text-anchor="middle" x="403.5" y="-591.3" font-family="Times New Roman,serif" font-size="14.00">sum_v1</text>
</a>
</g>
</g>
<!-- http://example.org/sum&#45;&gt;http://example.org/sum_v1 -->
<g id="edge8" class="edge"><title>http://example.org/sum&#45;&gt;http://example.org/sum_v1</title>
<path fill="none" stroke="black" d="M419.447,-504.611C416.442,-521.457 411.806,-547.441 408.306,-567.06"/>
<polygon fill="black" stroke="black" points="404.856,-566.472 406.545,-576.931 411.747,-567.702 404.856,-566.472"/>
<text text-anchor="middle" x="430.919" y="-512.376" font-family="Times New Roman,serif" font-size="8.00">spe</text>
</g>
<!-- &#45;attrs3 -->
<g id="node8" class="node"><title>&#45;attrs3</title>
<polygon fill="none" stroke="gray" points="522,-396 417,-396 417,-347 528,-347 528,-390 522,-396"/>
<polyline fill="none" stroke="gray" points="522,-396 522,-390 "/>
<polyline fill="none" stroke="gray" points="528,-390 522,-390 "/>
<text text-anchor="start" x="427.5" y="-381.5" font-family="Times New Roman,serif" font-size="10.00">value:</text>
<text text-anchor="start" x="454.5" y="-381.5" font-family="Times New Roman,serif" font-size="10.00">10001</text>
<text text-anchor="start" x="427.5" y="-368.5" font-family="Times New Roman,serif" font-size="10.00">type:</text>
<text text-anchor="start" x="454.5" y="-368.5" font-family="Times New Roman,serif" font-size="10.00">script:operation</text>
<text text-anchor="start" x="427.5" y="-355.5" font-family="Times New Roman,serif" font-size="10.00">label:</text>
<text text-anchor="start" x="454.5" y="-355.5" font-family="Times New Roman,serif" font-size="10.00">m + 1</text>
</g>
<!-- &#45;attrs3&#45;&gt;http://example.org/sum -->
<g id="edge6" class="edge"><title>&#45;attrs3&#45;&gt;http://example.org/sum</title>
<path fill="none" stroke="gray" stroke-dasharray="5,2" d="M462.018,-396.189C452.339,-418.063 438.217,-449.979 429.737,-469.145"/>
</g>
<!-- &#45;attrs4 -->
<g id="node10" class="node"><title>&#45;attrs4</title>
<polygon fill="none" stroke="gray" points="371.5,-504.5 203.5,-504.5 203.5,-468.5 377.5,-468.5 377.5,-498.5 371.5,-504.5"/>
<polyline fill="none" stroke="gray" points="371.5,-504.5 371.5,-498.5 "/>
<polyline fill="none" stroke="gray" points="377.5,-498.5 371.5,-498.5 "/>
<text text-anchor="start" x="213.5" y="-490.5" font-family="Times New Roman,serif" font-size="10.00">generatedAtTime:</text>
<text text-anchor="start" x="288.5" y="-490.5" font-family="Times New Roman,serif" font-size="10.00">T4</text>
<text text-anchor="start" x="213.5" y="-477.5" font-family="Times New Roman,serif" font-size="10.00">type:</text>
<text text-anchor="start" x="288.5" y="-477.5" font-family="Times New Roman,serif" font-size="10.00">intertwined:Version</text>
</g>
<!-- &#45;attrs4&#45;&gt;http://example.org/sum_v1 -->
<g id="edge7" class="edge"><title>&#45;attrs4&#45;&gt;http://example.org/sum_v1</title>
<path fill="none" stroke="gray" stroke-dasharray="5,2" d="M308.655,-504.611C330.242,-524.956 365.966,-558.625 386.863,-578.32"/>
</g>
<!-- http://example.org/list -->
<g id="node11" class="node"><title>http://example.org/list</title>
<g id="a_node11"><a xlink:href="http://example.org/list" xlink:title="list">
<ellipse fill="#fffc87" stroke="#808080" cx="571.5" cy="-104" rx="27" ry="18"/>
<text text-anchor="middle" x="571.5" y="-100.3" font-family="Times New Roman,serif" font-size="14.00">list</text>
</a>
</g>
</g>
<!-- http://example.org/list_v1 -->
<g id="node13" class="node"><title>http://example.org/list_v1</title>
<g id="a_node13"><a xlink:href="http://example.org/list_v1" xlink:title="list_v1">
<ellipse fill="#32cd32" stroke="#808080" cx="364.5" cy="-371.5" rx="34.394" ry="18"/>
<text text-anchor="middle" x="364.5" y="-367.8" font-family="Times New Roman,serif" font-size="14.00">list_v1</text>
</a>
</g>
</g>
<!-- http://example.org/list&#45;&gt;http://example.org/list_v1 -->
<g id="edge11" class="edge"><title>http://example.org/list&#45;&gt;http://example.org/list_v1</title>
<path fill="none" stroke="black" d="M548.338,-113.3C507.442,-129.278 423.031,-168.455 383.5,-232 362.377,-265.955 360.573,-313.574 361.971,-343.204"/>
<polygon fill="black" stroke="black" points="358.482,-343.486 362.601,-353.247 365.468,-343.047 358.482,-343.486"/>
<text text-anchor="middle" x="546.29" y="-126.26" font-family="Times New Roman,serif" font-size="8.00">spe</text>
</g>
<!-- http://example.org/list_v2 -->
<g id="node27" class="node"><title>http://example.org/list_v2</title>
<g id="a_node27"><a xlink:href="http://example.org/list_v2" xlink:title="list_v2">
<ellipse fill="#32cd32" stroke="#808080" cx="688.5" cy="-177" rx="34.394" ry="18"/>
<text text-anchor="middle" x="688.5" y="-173.3" font-family="Times New Roman,serif" font-size="14.00">list_v2</text>
</a>
</g>
</g>
<!-- http://example.org/list&#45;&gt;http://example.org/list_v2 -->
<g id="edge28" class="edge"><title>http://example.org/list&#45;&gt;http://example.org/list_v2</title>
<path fill="none" stroke="black" d="M593.111,-115.036C606.719,-121.619 624.487,-130.702 639.5,-140 647.111,-144.714 655.058,-150.256 662.282,-155.559"/>
<polygon fill="black" stroke="black" points="660.264,-158.421 670.367,-161.612 664.459,-152.817 660.264,-158.421"/>
<text text-anchor="middle" x="605.545" y="-104.746" font-family="Times New Roman,serif" font-size="8.00">spe</text>
</g>
<!-- &#45;attrs5 -->
<g id="node12" class="node"><title>&#45;attrs5</title>
<polygon fill="none" stroke="gray" points="630.5,-49 506.5,-49 506.5,-0 636.5,-0 636.5,-43 630.5,-49"/>
<polyline fill="none" stroke="gray" points="630.5,-49 630.5,-43 "/>
<polyline fill="none" stroke="gray" points="636.5,-43 630.5,-43 "/>
<text text-anchor="start" x="516.5" y="-34.5" font-family="Times New Roman,serif" font-size="10.00">value:</text>
<text text-anchor="start" x="543.5" y="-34.5" font-family="Times New Roman,serif" font-size="10.00">[10000, 10001, 10000]</text>
<text text-anchor="start" x="516.5" y="-21.5" font-family="Times New Roman,serif" font-size="10.00">type:</text>
<text text-anchor="start" x="543.5" y="-21.5" font-family="Times New Roman,serif" font-size="10.00">list</text>
<text text-anchor="start" x="516.5" y="-8.5" font-family="Times New Roman,serif" font-size="10.00">label:</text>
<text text-anchor="start" x="543.5" y="-8.5" font-family="Times New Roman,serif" font-size="10.00">[m, m + 1, m]</text>
</g>
<!-- &#45;attrs5&#45;&gt;http://example.org/list -->
<g id="edge9" class="edge"><title>&#45;attrs5&#45;&gt;http://example.org/list</title>
<path fill="none" stroke="gray" stroke-dasharray="5,2" d="M571.5,-49.1737C571.5,-60.9254 571.5,-74.869 571.5,-85.6196"/>
</g>
<!-- http://example.org/list_v1&#45;&gt;http://example.org/m -->
<g id="edge12" class="edge"><title>http://example.org/list_v1&#45;&gt;http://example.org/m</title>
<path fill="none" stroke="darkgreen" d="M333.425,-379.431C280.346,-391.904 169.52,-420.732 82.5,-462 79.3009,-463.517 76.0512,-465.279 72.8797,-467.143"/>
<polygon fill="darkgreen" stroke="darkgreen" points="70.8707,-464.271 64.2547,-472.546 74.5872,-470.203 70.8707,-464.271"/>
<text text-anchor="middle" x="211.5" y="-425.3" font-family="Times New Roman,serif" font-size="14.00">[0]</text>
</g>
<!-- http://example.org/list_v1&#45;&gt;http://example.org/m -->
<g id="edge14" class="edge"><title>http://example.org/list_v1&#45;&gt;http://example.org/m</title>
<path fill="none" stroke="darkgreen" d="M343.495,-386.063C316.763,-402.624 268.626,-430.133 223.5,-444 163.112,-462.557 141.788,-440.18 82.5,-462 78.9277,-463.315 75.35,-465.038 71.9108,-466.956"/>
<polygon fill="darkgreen" stroke="darkgreen" points="69.8858,-464.093 63.2294,-472.336 73.5732,-470.043 69.8858,-464.093"/>
<text text-anchor="middle" x="299.5" y="-425.3" font-family="Times New Roman,serif" font-size="14.00">[2]</text>
</g>
<!-- http://example.org/list_v1&#45;&gt;http://example.org/sum -->
<g id="edge13" class="edge"><title>http://example.org/list_v1&#45;&gt;http://example.org/sum</title>
<path fill="none" stroke="darkgreen" d="M373.058,-389.174C382.665,-407.891 398.362,-438.473 409.49,-460.153"/>
<polygon fill="darkgreen" stroke="darkgreen" points="406.415,-461.827 414.095,-469.125 412.643,-458.631 406.415,-461.827"/>
<text text-anchor="middle" x="408.5" y="-425.3" font-family="Times New Roman,serif" font-size="14.00">[1]</text>
</g>
<!-- &#45;attrs6 -->
<g id="node14" class="node"><title>&#45;attrs6</title>
<polygon fill="none" stroke="gray" points="560.5,-274.5 392.5,-274.5 392.5,-238.5 566.5,-238.5 566.5,-268.5 560.5,-274.5"/>
<polyline fill="none" stroke="gray" points="560.5,-274.5 560.5,-268.5 "/>
<polyline fill="none" stroke="gray" points="566.5,-268.5 560.5,-268.5 "/>
<text text-anchor="start" x="402.5" y="-260.5" font-family="Times New Roman,serif" font-size="10.00">generatedAtTime:</text>
<text text-anchor="start" x="477.5" y="-260.5" font-family="Times New Roman,serif" font-size="10.00">T5</text>
<text text-anchor="start" x="402.5" y="-247.5" font-family="Times New Roman,serif" font-size="10.00">type:</text>
<text text-anchor="start" x="477.5" y="-247.5" font-family="Times New Roman,serif" font-size="10.00">intertwined:Version</text>
</g>
<!-- &#45;attrs6&#45;&gt;http://example.org/list_v1 -->
<g id="edge10" class="edge"><title>&#45;attrs6&#45;&gt;http://example.org/list_v1</title>
<path fill="none" stroke="gray" stroke-dasharray="5,2" d="M462.034,-274.662C439.665,-296.642 401.249,-334.39 379.916,-355.352"/>
</g>
<!-- http://example.org/d -->
<g id="node15" class="node"><title>http://example.org/d</title>
<g id="a_node15"><a xlink:href="http://example.org/d" xlink:title="d">
<ellipse fill="#fffc87" stroke="#808080" cx="641.5" cy="-595" rx="27" ry="18"/>
<text text-anchor="middle" x="641.5" y="-591.3" font-family="Times New Roman,serif" font-size="14.00">d</text>
</a>
</g>
</g>
<!-- http://example.org/d&#45;&gt;http://example.org/list -->
<g id="edge16" class="edge"><title>http://example.org/d&#45;&gt;http://example.org/list</title>
<path fill="none" stroke="darkgreen" d="M637.38,-577.148C632.639,-556.25 625.5,-519.472 625.5,-487.5 625.5,-176 625.5,-176 625.5,-176 625.5,-155.485 611.041,-137.19 597.087,-124.311"/>
<polygon fill="darkgreen" stroke="darkgreen" points="599.334,-121.628 589.481,-117.734 594.755,-126.922 599.334,-121.628"/>
<text text-anchor="middle" x="644" y="-317.8" font-family="Times New Roman,serif" font-size="14.00">der ref</text>
<text text-anchor="middle" x="644" y="-302.8" font-family="Times New Roman,serif" font-size="14.00">T6</text>
</g>
<!-- &#45;attrs7 -->
<g id="node16" class="node"><title>&#45;attrs7</title>
<polygon fill="none" stroke="gray" points="591.5,-511 467.5,-511 467.5,-462 597.5,-462 597.5,-505 591.5,-511"/>
<polyline fill="none" stroke="gray" points="591.5,-511 591.5,-505 "/>
<polyline fill="none" stroke="gray" points="597.5,-505 591.5,-505 "/>
<text text-anchor="start" x="477.5" y="-496.5" font-family="Times New Roman,serif" font-size="10.00">value:</text>
<text text-anchor="start" x="504.5" y="-496.5" font-family="Times New Roman,serif" font-size="10.00">[10000, 10001, 10000]</text>
<text text-anchor="start" x="477.5" y="-483.5" font-family="Times New Roman,serif" font-size="10.00">type:</text>
<text text-anchor="start" x="504.5" y="-483.5" font-family="Times New Roman,serif" font-size="10.00">script:name</text>
<text text-anchor="start" x="477.5" y="-470.5" font-family="Times New Roman,serif" font-size="10.00">label:</text>
<text text-anchor="start" x="504.5" y="-470.5" font-family="Times New Roman,serif" font-size="10.00">d</text>
</g>
<!-- &#45;attrs7&#45;&gt;http://example.org/d -->
<g id="edge15" class="edge"><title>&#45;attrs7&#45;&gt;http://example.org/d</title>
<path fill="none" stroke="gray" stroke-dasharray="5,2" d="M556.691,-511.136C578.141,-532.094 608.775,-562.026 626.754,-579.592"/>
</g>
<!-- http://example.org/1 -->
<g id="node17" class="node"><title>http://example.org/1</title>
<g id="a_node17"><a xlink:href="http://example.org/1" xlink:title="1">
<ellipse fill="#fffc87" stroke="#808080" cx="990.5" cy="-595" rx="27" ry="18"/>
<text text-anchor="middle" x="990.5" y="-591.3" font-family="Times New Roman,serif" font-size="14.00">1</text>
</a>
</g>
</g>
<!-- http://example.org/1_v1 -->
<g id="node19" class="node"><title>http://example.org/1_v1</title>
<g id="a_node19"><a xlink:href="http://example.org/1_v1" xlink:title="1_v1">
<ellipse fill="#32cd32" stroke="#808080" cx="1089.5" cy="-668" rx="28.6953" ry="18"/>
<text text-anchor="middle" x="1089.5" y="-664.3" font-family="Times New Roman,serif" font-size="14.00">1_v1</text>
</a>
</g>
</g>
<!-- http://example.org/1&#45;&gt;http://example.org/1_v1 -->
<g id="edge19" class="edge"><title>http://example.org/1&#45;&gt;http://example.org/1_v1</title>
<path fill="none" stroke="black" d="M1008.2,-608.693C1023.35,-619.563 1045.41,-635.378 1062.72,-647.796"/>
<polygon fill="black" stroke="black" points="1061.12,-650.952 1071.28,-653.936 1065.2,-645.264 1061.12,-650.952"/>
<text text-anchor="middle" x="1021.86" y="-600.608" font-family="Times New Roman,serif" font-size="8.00">spe</text>
</g>
<!-- &#45;attrs8 -->
<g id="node18" class="node"><title>&#45;attrs8</title>
<polygon fill="none" stroke="gray" points="1031.5,-504.5 943.5,-504.5 943.5,-468.5 1037.5,-468.5 1037.5,-498.5 1031.5,-504.5"/>
<polyline fill="none" stroke="gray" points="1031.5,-504.5 1031.5,-498.5 "/>
<polyline fill="none" stroke="gray" points="1037.5,-498.5 1031.5,-498.5 "/>
<text text-anchor="start" x="953.5" y="-490.5" font-family="Times New Roman,serif" font-size="10.00">value:</text>
<text text-anchor="start" x="980.5" y="-490.5" font-family="Times New Roman,serif" font-size="10.00">1</text>
<text text-anchor="start" x="953.5" y="-477.5" font-family="Times New Roman,serif" font-size="10.00">type:</text>
<text text-anchor="start" x="980.5" y="-477.5" font-family="Times New Roman,serif" font-size="10.00">script:literal</text>
</g>
<!-- &#45;attrs8&#45;&gt;http://example.org/1 -->
<g id="edge17" class="edge"><title>&#45;attrs8&#45;&gt;http://example.org/1</title>
<path fill="none" stroke="gray" stroke-dasharray="5,2" d="M990.5,-504.611C990.5,-524.485 990.5,-557.075 990.5,-576.931"/>
</g>
<!-- &#45;attrs9 -->
<g id="node20" class="node"><title>&#45;attrs9</title>
<polygon fill="none" stroke="gray" points="1205,-613 1036,-613 1036,-577 1211,-577 1211,-607 1205,-613"/>
<polyline fill="none" stroke="gray" points="1205,-613 1205,-607 "/>
<polyline fill="none" stroke="gray" points="1211,-607 1205,-607 "/>
<text text-anchor="start" x="1046.5" y="-599" font-family="Times New Roman,serif" font-size="10.00">generatedAtTime:</text>
<text text-anchor="start" x="1121.5" y="-599" font-family="Times New Roman,serif" font-size="10.00">2018&#45;02&#45;22T16:00:00</text>
<text text-anchor="start" x="1046.5" y="-586" font-family="Times New Roman,serif" font-size="10.00">type:</text>
<text text-anchor="start" x="1121.5" y="-586" font-family="Times New Roman,serif" font-size="10.00">intertwined:Version</text>
</g>
<!-- &#45;attrs9&#45;&gt;http://example.org/1_v1 -->
<g id="edge18" class="edge"><title>&#45;attrs9&#45;&gt;http://example.org/1_v1</title>
<path fill="none" stroke="gray" stroke-dasharray="5,2" d="M1115.27,-613.187C1109.85,-624.514 1102.78,-639.267 1097.42,-650.46"/>
</g>
<!-- http://example.org/3 -->
<g id="node21" class="node"><title>http://example.org/3</title>
<g id="a_node21"><a xlink:href="http://example.org/3" xlink:title="3">
<ellipse fill="#fffc87" stroke="#808080" cx="726.5" cy="-595" rx="27" ry="18"/>
<text text-anchor="middle" x="726.5" y="-591.3" font-family="Times New Roman,serif" font-size="14.00">3</text>
</a>
</g>
</g>
<!-- http://example.org/3_v1 -->
<g id="node23" class="node"><title>http://example.org/3_v1</title>
<g id="a_node23"><a xlink:href="http://example.org/3_v1" xlink:title="3_v1">
<ellipse fill="#32cd32" stroke="#808080" cx="792.5" cy="-668" rx="28.6953" ry="18"/>
<text text-anchor="middle" x="792.5" y="-664.3" font-family="Times New Roman,serif" font-size="14.00">3_v1</text>
</a>
</g>
</g>
<!-- http://example.org/3&#45;&gt;http://example.org/3_v1 -->
<g id="edge22" class="edge"><title>http://example.org/3&#45;&gt;http://example.org/3_v1</title>
<path fill="none" stroke="black" d="M740.175,-610.711C749.169,-620.386 761.118,-633.241 771.328,-644.224"/>
<polygon fill="black" stroke="black" points="769.015,-646.876 778.387,-651.818 774.142,-642.11 769.015,-646.876"/>
<text text-anchor="middle" x="754.796" y="-605.46" font-family="Times New Roman,serif" font-size="8.00">spe</text>
</g>
<!-- &#45;attrs10 -->
<g id="node22" class="node"><title>&#45;attrs10</title>
<polygon fill="none" stroke="gray" points="874.5,-504.5 786.5,-504.5 786.5,-468.5 880.5,-468.5 880.5,-498.5 874.5,-504.5"/>
<polyline fill="none" stroke="gray" points="874.5,-504.5 874.5,-498.5 "/>
<polyline fill="none" stroke="gray" points="880.5,-498.5 874.5,-498.5 "/>
<text text-anchor="start" x="796.5" y="-490.5" font-family="Times New Roman,serif" font-size="10.00">value:</text>
<text text-anchor="start" x="823.5" y="-490.5" font-family="Times New Roman,serif" font-size="10.00">3</text>
<text text-anchor="start" x="796.5" y="-477.5" font-family="Times New Roman,serif" font-size="10.00">type:</text>
<text text-anchor="start" x="823.5" y="-477.5" font-family="Times New Roman,serif" font-size="10.00">script:literal</text>
</g>
<!-- &#45;attrs10&#45;&gt;http://example.org/3 -->
<g id="edge20" class="edge"><title>&#45;attrs10&#45;&gt;http://example.org/3</title>
<path fill="none" stroke="gray" stroke-dasharray="5,2" d="M816.309,-504.611C795.396,-525.426 760.469,-560.189 740.904,-579.663"/>
</g>
<!-- &#45;attrs11 -->
<g id="node24" class="node"><title>&#45;attrs11</title>
<polygon fill="none" stroke="gray" points="939.5,-613 771.5,-613 771.5,-577 945.5,-577 945.5,-607 939.5,-613"/>
<polyline fill="none" stroke="gray" points="939.5,-613 939.5,-607 "/>
<polyline fill="none" stroke="gray" points="945.5,-607 939.5,-607 "/>
<text text-anchor="start" x="781.5" y="-599" font-family="Times New Roman,serif" font-size="10.00">generatedAtTime:</text>
<text text-anchor="start" x="856.5" y="-599" font-family="Times New Roman,serif" font-size="10.00">T10</text>
<text text-anchor="start" x="781.5" y="-586" font-family="Times New Roman,serif" font-size="10.00">type:</text>
<text text-anchor="start" x="856.5" y="-586" font-family="Times New Roman,serif" font-size="10.00">intertwined:Version</text>
</g>
<!-- &#45;attrs11&#45;&gt;http://example.org/3_v1 -->
<g id="edge21" class="edge"><title>&#45;attrs11&#45;&gt;http://example.org/3_v1</title>
<path fill="none" stroke="gray" stroke-dasharray="5,2" d="M842.523,-613.187C831.536,-625.007 817.082,-640.556 806.537,-651.899"/>
</g>
<!-- http://example.org/d_ac1 -->
<g id="node25" class="node"><title>http://example.org/d_ac1</title>
<g id="a_node25"><a xlink:href="http://example.org/d_ac1" xlink:title="d_ac1">
<ellipse fill="#fffc87" stroke="#808080" cx="727.5" cy="-371.5" rx="33.2948" ry="18"/>
<text text-anchor="middle" x="727.5" y="-367.8" font-family="Times New Roman,serif" font-size="14.00">d_ac1</text>
</a>
</g>
</g>
<!-- http://example.org/assign4 -->
<g id="node30" class="node"><title>http://example.org/assign4</title>
<g id="a_node30"><a xlink:href="http://example.org/assign4" xlink:title="assign4">
<polygon fill="#9fb1fc" stroke="#0000ff" points="768.5,-504.5 710.5,-504.5 710.5,-468.5 768.5,-468.5 768.5,-504.5"/>
<text text-anchor="middle" x="739.5" y="-482.8" font-family="Times New Roman,serif" font-size="14.00">assign4</text>
</a>
</g>
</g>
<!-- http://example.org/d_ac1&#45;&gt;http://example.org/assign4 -->
<g id="edge33" class="edge"><title>http://example.org/d_ac1&#45;&gt;http://example.org/assign4</title>
<path fill="none" stroke="black" d="M729.323,-389.662C731.252,-407.831 734.326,-436.775 736.591,-458.106"/>
<polygon fill="black" stroke="black" points="733.124,-458.602 737.66,-468.176 740.085,-457.862 733.124,-458.602"/>
<text text-anchor="middle" x="743.032" y="-393.849" font-family="Times New Roman,serif" font-size="8.00">gen</text>
</g>
<!-- bn1 -->
<g id="node32" class="node"><title>bn1</title>
<ellipse fill="black" stroke="black" cx="675.5" cy="-486.5" rx="1.8" ry="1.8"/>
</g>
<!-- http://example.org/d_ac1&#45;&gt;bn1 -->
<g id="edge34" class="edge"><title>http://example.org/d_ac1&#45;&gt;bn1</title>
<path fill="none" stroke="darkgreen" d="M705.692,-385.507C695.881,-392.606 685.235,-402.334 679.5,-414 666.775,-439.885 673.829,-477.576 675.263,-484.415"/>
<text text-anchor="middle" x="704" y="-432.8" font-family="Times New Roman,serif" font-size="14.00">der ac&#45;w</text>
<text text-anchor="middle" x="704" y="-417.8" font-family="Times New Roman,serif" font-size="14.00">T12</text>
</g>
<!-- &#45;attrs12 -->
<g id="node26" class="node"><title>&#45;attrs12</title>
<polygon fill="none" stroke="gray" points="802,-281 709,-281 709,-232 808,-232 808,-275 802,-281"/>
<polyline fill="none" stroke="gray" points="802,-281 802,-275 "/>
<polyline fill="none" stroke="gray" points="808,-275 802,-275 "/>
<text text-anchor="start" x="719.5" y="-266.5" font-family="Times New Roman,serif" font-size="10.00">value:</text>
<text text-anchor="start" x="746.5" y="-266.5" font-family="Times New Roman,serif" font-size="10.00">3</text>
<text text-anchor="start" x="719.5" y="-253.5" font-family="Times New Roman,serif" font-size="10.00">type:</text>
<text text-anchor="start" x="746.5" y="-253.5" font-family="Times New Roman,serif" font-size="10.00">script:access</text>
<text text-anchor="start" x="719.5" y="-240.5" font-family="Times New Roman,serif" font-size="10.00">label:</text>
<text text-anchor="start" x="746.5" y="-240.5" font-family="Times New Roman,serif" font-size="10.00">d[1]</text>
</g>
<!-- &#45;attrs12&#45;&gt;http://example.org/d_ac1 -->
<g id="edge23" class="edge"><title>&#45;attrs12&#45;&gt;http://example.org/d_ac1</title>
<path fill="none" stroke="gray" stroke-dasharray="5,2" d="M755.039,-281.29C752.701,-295.336 749.183,-313.369 744.5,-329 741.997,-337.353 738.431,-346.341 735.21,-353.809"/>
</g>
<!-- bn0 -->
<g id="node29" class="node"><title>bn0</title>
<ellipse fill="black" stroke="black" cx="688.5" cy="-256.5" rx="1.8" ry="1.8"/>
</g>
<!-- http://example.org/list_v2&#45;&gt;bn0 -->
<g id="edge25" class="edge"><title>http://example.org/list_v2&#45;&gt;bn0</title>
<path fill="none" stroke="darkgreen" d="M688.5,-195.2C688.5,-215.891 688.5,-248.603 688.5,-254.555"/>
<text text-anchor="middle" x="701.49" y="-200.8" font-family="Times New Roman,serif" font-size="8.00">der&#45;ins</text>
</g>
<!-- &#45;attrs13 -->
<g id="node28" class="node"><title>&#45;attrs13</title>
<polygon fill="none" stroke="gray" points="784.5,-122 616.5,-122 616.5,-86 790.5,-86 790.5,-116 784.5,-122"/>
<polyline fill="none" stroke="gray" points="784.5,-122 784.5,-116 "/>
<polyline fill="none" stroke="gray" points="790.5,-116 784.5,-116 "/>
<text text-anchor="start" x="626.5" y="-108" font-family="Times New Roman,serif" font-size="10.00">generatedAtTime:</text>
<text text-anchor="start" x="701.5" y="-108" font-family="Times New Roman,serif" font-size="10.00">T12</text>
<text text-anchor="start" x="626.5" y="-95" font-family="Times New Roman,serif" font-size="10.00">type:</text>
<text text-anchor="start" x="701.5" y="-95" font-family="Times New Roman,serif" font-size="10.00">intertwined:Version</text>
</g>
<!-- &#45;attrs13&#45;&gt;http://example.org/list_v2 -->
<g id="edge24" class="edge"><title>&#45;attrs13&#45;&gt;http://example.org/list_v2</title>
<path fill="none" stroke="gray" stroke-dasharray="5,2" d="M699.869,-122.187C697.511,-133.35 694.449,-147.84 692.098,-158.971"/>
</g>
<!-- bn0&#45;&gt;http://example.org/list_v1 -->
<g id="edge26" class="edge"><title>bn0&#45;&gt;http://example.org/list_v1</title>
<path fill="none" stroke="darkgreen" d="M688.292,-258.569C686.673,-266.764 675.831,-319.581 663.5,-329 618.18,-363.618 462.226,-330.956 407.5,-347 403.063,-348.301 398.573,-350.108 394.251,-352.149"/>
<polygon fill="darkgreen" stroke="darkgreen" points="392.405,-349.164 385.146,-356.881 395.633,-355.375 392.405,-349.164"/>
<text text-anchor="middle" x="688" y="-310.3" font-family="Times New Roman,serif" font-size="14.00">der</text>
</g>
<!-- bn0&#45;&gt;http://example.org/d_ac1 -->
<g id="edge27" class="edge"><title>bn0&#45;&gt;http://example.org/d_ac1</title>
<path fill="none" stroke="darkgreen" d="M688.955,-258.513C691.015,-263.121 699.624,-282.579 705.5,-299 710.765,-313.714 715.941,-330.392 719.949,-343.938"/>
<polygon fill="darkgreen" stroke="darkgreen" points="716.607,-344.981 722.768,-353.601 723.327,-343.021 716.607,-344.981"/>
<text text-anchor="middle" x="723.5" y="-310.3" font-family="Times New Roman,serif" font-size="14.00">[1]</text>
</g>
<!-- http://example.org/assign4&#45;&gt;http://example.org/d -->
<g id="edge30" class="edge"><title>http://example.org/assign4&#45;&gt;http://example.org/d</title>
<path fill="none" stroke="black" d="M726.027,-504.787C714.237,-519.607 696.398,-541.303 679.5,-559 674.947,-563.768 669.876,-568.683 664.96,-573.268"/>
<polygon fill="black" stroke="black" points="662.473,-570.799 657.459,-580.132 667.199,-575.963 662.473,-570.799"/>
<text text-anchor="middle" x="731.489" y="-516.857" font-family="Times New Roman,serif" font-size="8.00">use</text>
</g>
<!-- http://example.org/assign4&#45;&gt;http://example.org/1 -->
<g id="edge31" class="edge"><title>http://example.org/assign4&#45;&gt;http://example.org/1</title>
<path fill="none" stroke="black" d="M765.697,-504.62C769.586,-506.89 773.599,-509.09 777.5,-511 852.902,-547.925 877.139,-544.379 954.5,-577 956.315,-577.765 958.172,-578.571 960.04,-579.399"/>
<polygon fill="black" stroke="black" points="958.763,-582.663 969.314,-583.632 961.67,-576.295 958.763,-582.663"/>
<text text-anchor="middle" x="778.702" y="-495.246" font-family="Times New Roman,serif" font-size="8.00">use</text>
</g>
<!-- http://example.org/assign4&#45;&gt;http://example.org/3 -->
<g id="edge32" class="edge"><title>http://example.org/assign4&#45;&gt;http://example.org/3</title>
<path fill="none" stroke="black" d="M737.411,-504.611C735.364,-521.38 732.212,-547.201 729.822,-566.788"/>
<polygon fill="black" stroke="black" points="726.321,-566.581 728.583,-576.931 733.269,-567.429 726.321,-566.581"/>
<text text-anchor="middle" x="749.397" y="-511.73" font-family="Times New Roman,serif" font-size="8.00">use</text>
</g>
<!-- &#45;attrs14 -->
<g id="node31" class="node"><title>&#45;attrs14</title>
<polygon fill="none" stroke="gray" points="868,-389.5 779,-389.5 779,-353.5 874,-353.5 874,-383.5 868,-389.5"/>
<polyline fill="none" stroke="gray" points="868,-389.5 868,-383.5 "/>
<polyline fill="none" stroke="gray" points="874,-383.5 868,-383.5 "/>
<text text-anchor="start" x="789.5" y="-368.5" font-family="Times New Roman,serif" font-size="10.00">type:</text>
<text text-anchor="start" x="812.5" y="-368.5" font-family="Times New Roman,serif" font-size="10.00">script:assign</text>
</g>
<!-- &#45;attrs14&#45;&gt;http://example.org/assign4 -->
<g id="edge29" class="edge"><title>&#45;attrs14&#45;&gt;http://example.org/assign4</title>
<path fill="none" stroke="gray" stroke-dasharray="5,2" d="M813.287,-389.662C796.934,-410.901 769.247,-446.863 752.838,-468.176"/>
</g>
<!-- bn1&#45;&gt;http://example.org/d -->
<g id="edge35" class="edge"><title>bn1&#45;&gt;http://example.org/d</title>
<path fill="none" stroke="darkgreen" d="M675.067,-488.513C673.106,-493.121 664.926,-512.576 659.5,-529 655.381,-541.469 651.416,-555.488 648.261,-567.305"/>
<polygon fill="darkgreen" stroke="darkgreen" points="644.862,-566.469 645.714,-577.029 651.634,-568.243 644.862,-566.469"/>
<text text-anchor="middle" x="667.5" y="-540.3" font-family="Times New Roman,serif" font-size="14.00">[1]</text>
</g>
<!-- bn1&#45;&gt;http://example.org/3 -->
<g id="edge36" class="edge"><title>bn1&#45;&gt;http://example.org/3</title>
<path fill="none" stroke="darkgreen" d="M676.073,-488.696C679.77,-496.416 700.54,-539.79 714.245,-568.409"/>
<polygon fill="darkgreen" stroke="darkgreen" points="711.111,-569.969 718.587,-577.476 717.425,-566.945 711.111,-569.969"/>
</g>
</g>
</svg>
