<?xml version="1.0" encoding="UTF-8" standalone="no"?>
<!DOCTYPE svg PUBLIC "-//W3C//DTD SVG 1.1//EN"
 "http://www.w3.org/Graphics/SVG/1.1/DTD/svg11.dtd">
<!-- Generated by graphviz version 2.38.0 (20140413.2041)
 -->
<!-- Title: PROV Pages: 1 -->
<svg width="1152pt" height="471pt"
 viewBox="0.00 0.00 1152.00 471.23" xmlns="http://www.w3.org/2000/svg" xmlns:xlink="http://www.w3.org/1999/xlink">
<g id="graph0" class="graph" transform="scale(0.859907 0.859907) rotate(0) translate(4 544)">
<title>PROV</title>
<polygon fill="white" stroke="none" points="-4,4 -4,-544 1335.68,-544 1335.68,4 -4,4"/>
<!-- http://example.org/dist_ai_2 -->
<g id="node1" class="node"><title>http://example.org/dist_ai_2</title>
<g id="a_node1"><a xlink:href="http://example.org/dist_ai_2" xlink:title="dist_ai_2">
<ellipse fill="#fffc87" stroke="#808080" cx="548.84" cy="-306" rx="44.393" ry="18"/>
<text text-anchor="middle" x="548.84" y="-302.3" font-family="Times New Roman,serif" font-size="14.00">dist_ai_2</text>
</a>
</g>
</g>
<!-- http://example.org/dist_ai0_2 -->
<g id="node3" class="node"><title>http://example.org/dist_ai0_2</title>
<g id="a_node3"><a xlink:href="http://example.org/dist_ai0_2" xlink:title="dist_ai0_2">
<ellipse fill="#fffc87" stroke="#808080" cx="438.84" cy="-378" rx="48.1917" ry="18"/>
<text text-anchor="middle" x="438.84" y="-374.3" font-family="Times New Roman,serif" font-size="14.00">dist_ai0_2</text>
</a>
</g>
</g>
<!-- http://example.org/dist_ai_2&#45;&gt;http://example.org/dist_ai0_2 -->
<g id="edge3" class="edge"><title>http://example.org/dist_ai_2&#45;&gt;http://example.org/dist_ai0_2</title>
<path fill="none" stroke="black" d="M526.048,-321.504C510.186,-331.598 488.806,-345.204 471.185,-356.417"/>
<polygon fill="black" stroke="black" points="468.92,-353.71 462.362,-362.032 472.678,-359.616 468.92,-353.71"/>
<text text-anchor="middle" x="526.695" y="-334.59" font-family="Times New Roman,serif" font-size="8.00">[ ]</text>
</g>
<!-- http://example.org/dist_ai1_2 -->
<g id="node5" class="node"><title>http://example.org/dist_ai1_2</title>
<g id="a_node5"><a xlink:href="http://example.org/dist_ai1_2" xlink:title="dist_ai1_2">
<ellipse fill="#fffc87" stroke="#808080" cx="726.84" cy="-378" rx="48.1917" ry="18"/>
<text text-anchor="middle" x="726.84" y="-374.3" font-family="Times New Roman,serif" font-size="14.00">dist_ai1_2</text>
</a>
</g>
</g>
<!-- http://example.org/dist_ai_2&#45;&gt;http://example.org/dist_ai1_2 -->
<g id="edge5" class="edge"><title>http://example.org/dist_ai_2&#45;&gt;http://example.org/dist_ai1_2</title>
<path fill="none" stroke="black" d="M579.44,-319.033C608.626,-330.511 652.814,-347.889 685.199,-360.624"/>
<polygon fill="black" stroke="black" points="684.254,-364.013 694.841,-364.416 686.815,-357.499 684.254,-364.013"/>
<text text-anchor="middle" x="591.173" y="-307.789" font-family="Times New Roman,serif" font-size="8.00">[ ]</text>
</g>
<!-- http://example.org/dist_ai2_2 -->
<g id="node7" class="node"><title>http://example.org/dist_ai2_2</title>
<g id="a_node7"><a xlink:href="http://example.org/dist_ai2_2" xlink:title="dist_ai2_2">
<ellipse fill="#fffc87" stroke="#808080" cx="857.84" cy="-378" rx="48.1917" ry="18"/>
<text text-anchor="middle" x="857.84" y="-374.3" font-family="Times New Roman,serif" font-size="14.00">dist_ai2_2</text>
</a>
</g>
</g>
<!-- http://example.org/dist_ai_2&#45;&gt;http://example.org/dist_ai2_2 -->
<g id="edge7" class="edge"><title>http://example.org/dist_ai_2&#45;&gt;http://example.org/dist_ai2_2</title>
<path fill="none" stroke="black" d="M581.747,-318.202C588.361,-320.27 595.291,-322.308 601.84,-324 681.675,-344.626 703.205,-342.767 783.84,-360 791.813,-361.704 800.253,-363.577 808.469,-365.438"/>
<polygon fill="black" stroke="black" points="807.805,-368.876 818.334,-367.689 809.363,-362.052 807.805,-368.876"/>
<text text-anchor="middle" x="592.764" y="-306.122" font-family="Times New Roman,serif" font-size="8.00">[ ]</text>
</g>
<!-- http://example.org/access31 -->
<g id="node9" class="node"><title>http://example.org/access31</title>
<g id="a_node9"><a xlink:href="http://example.org/access31" xlink:title="access31">
<polygon fill="#9fb1fc" stroke="#0000ff" points="654.84,-468 586.84,-468 586.84,-432 654.84,-432 654.84,-468"/>
<text text-anchor="middle" x="620.84" y="-446.3" font-family="Times New Roman,serif" font-size="14.00">access31</text>
</a>
</g>
</g>
<!-- http://example.org/dist_ai_2&#45;&gt;http://example.org/access31 -->
<g id="edge11" class="edge"><title>http://example.org/dist_ai_2&#45;&gt;http://example.org/access31</title>
<path fill="none" stroke="black" d="M550.759,-324.32C553.39,-342.961 559.303,-373.026 571.84,-396 577.447,-406.275 585.486,-416.107 593.435,-424.453"/>
<polygon fill="black" stroke="black" points="591.097,-427.064 600.638,-431.669 596.051,-422.119 591.097,-427.064"/>
<text text-anchor="middle" x="564.721" y="-327.902" font-family="Times New Roman,serif" font-size="8.00">gen</text>
</g>
<!-- http://example.org/dist2_0 -->
<g id="node11" class="node"><title>http://example.org/dist2_0</title>
<ellipse fill="none" stroke="black" cx="342.84" cy="-522" rx="105.082" ry="18"/>
<text text-anchor="middle" x="342.84" y="-518.3" font-family="Times New Roman,serif" font-size="14.00">http://example.org/dist2_0</text>
</g>
<!-- http://example.org/dist_ai_2&#45;&gt;http://example.org/dist2_0 -->
<g id="edge10" class="edge"><title>http://example.org/dist_ai_2&#45;&gt;http://example.org/dist2_0</title>
<path fill="none" stroke="black" d="M541.022,-323.882C531.83,-342.68 515.332,-373.389 495.84,-396 460.171,-437.377 409.665,-475.652 376.589,-498.669"/>
<polygon fill="black" stroke="black" points="374.417,-495.914 368.162,-504.465 378.385,-501.682 374.417,-495.914"/>
<text text-anchor="middle" x="549.313" y="-334.482" font-family="Times New Roman,serif" font-size="8.00">der</text>
</g>
<!-- &#45;attrs0 -->
<g id="node2" class="node"><title>&#45;attrs0</title>
<polygon fill="none" stroke="gray" points="565.34,-252 468.34,-252 468.34,-216 571.34,-216 571.34,-246 565.34,-252"/>
<polyline fill="none" stroke="gray" points="565.34,-252 565.34,-246 "/>
<polyline fill="none" stroke="gray" points="571.34,-246 565.34,-246 "/>
<text text-anchor="start" x="478.84" y="-238" font-family="Times New Roman,serif" font-size="10.00">value:</text>
<text text-anchor="start" x="505.84" y="-238" font-family="Times New Roman,serif" font-size="10.00">&quot;[2, 10000, 0]&quot;</text>
<text text-anchor="start" x="478.84" y="-225" font-family="Times New Roman,serif" font-size="10.00">type:</text>
<text text-anchor="start" x="505.84" y="-225" font-family="Times New Roman,serif" font-size="10.00">&quot;list&quot;</text>
</g>
<!-- &#45;attrs0&#45;&gt;http://example.org/dist_ai_2 -->
<g id="edge1" class="edge"><title>&#45;attrs0&#45;&gt;http://example.org/dist_ai_2</title>
<path fill="none" stroke="gray" stroke-dasharray="5,2" d="M527.009,-252.303C531.504,-263.154 537.275,-277.083 541.754,-287.896"/>
</g>
<!-- http://example.org/dist_ai0_2&#45;&gt;http://example.org/access31 -->
<g id="edge14" class="edge"><title>http://example.org/dist_ai0_2&#45;&gt;http://example.org/access31</title>
<path fill="none" stroke="black" d="M471.378,-391.515C500.844,-402.848 544.492,-419.635 577.021,-432.146"/>
<polygon fill="black" stroke="black" points="576.141,-435.558 586.731,-435.881 578.654,-429.024 576.141,-435.558"/>
<text text-anchor="middle" x="483.042" y="-380.182" font-family="Times New Roman,serif" font-size="8.00">gen</text>
</g>
<!-- http://example.org/dist20_0 -->
<g id="node12" class="node"><title>http://example.org/dist20_0</title>
<ellipse fill="none" stroke="black" cx="109.84" cy="-522" rx="109.681" ry="18"/>
<text text-anchor="middle" x="109.84" y="-518.3" font-family="Times New Roman,serif" font-size="14.00">http://example.org/dist20_0</text>
</g>
<!-- http://example.org/dist_ai0_2&#45;&gt;http://example.org/dist20_0 -->
<g id="edge13" class="edge"><title>http://example.org/dist_ai0_2&#45;&gt;http://example.org/dist20_0</title>
<path fill="none" stroke="black" d="M408.478,-392.104C350.669,-417.056 224.473,-471.523 156.094,-501.037"/>
<polygon fill="black" stroke="black" points="154.636,-497.854 146.842,-505.03 157.41,-504.28 154.636,-497.854"/>
<text text-anchor="middle" x="406.74" y="-405.103" font-family="Times New Roman,serif" font-size="8.00">der</text>
</g>
<!-- &#45;attrs1 -->
<g id="node4" class="node"><title>&#45;attrs1</title>
<polygon fill="none" stroke="gray" points="404.34,-324 323.34,-324 323.34,-288 410.34,-288 410.34,-318 404.34,-324"/>
<polyline fill="none" stroke="gray" points="404.34,-324 404.34,-318 "/>
<polyline fill="none" stroke="gray" points="410.34,-318 404.34,-318 "/>
<text text-anchor="start" x="333.84" y="-310" font-family="Times New Roman,serif" font-size="10.00">value:</text>
<text text-anchor="start" x="360.84" y="-310" font-family="Times New Roman,serif" font-size="10.00">&quot;2&quot;</text>
<text text-anchor="start" x="333.84" y="-297" font-family="Times New Roman,serif" font-size="10.00">type:</text>
<text text-anchor="start" x="360.84" y="-297" font-family="Times New Roman,serif" font-size="10.00">&quot;number&quot;</text>
</g>
<!-- &#45;attrs1&#45;&gt;http://example.org/dist_ai0_2 -->
<g id="edge2" class="edge"><title>&#45;attrs1&#45;&gt;http://example.org/dist_ai0_2</title>
<path fill="none" stroke="gray" stroke-dasharray="5,2" d="M384.638,-324.303C396.132,-335.478 410.984,-349.918 422.234,-360.855"/>
</g>
<!-- http://example.org/dist_ai1_2&#45;&gt;http://example.org/access31 -->
<g id="edge17" class="edge"><title>http://example.org/dist_ai1_2&#45;&gt;http://example.org/access31</title>
<path fill="none" stroke="black" d="M704.101,-394.017C689.934,-403.372 671.43,-415.592 655.465,-426.135"/>
<polygon fill="black" stroke="black" points="653.316,-423.359 646.9,-431.791 657.174,-429.201 653.316,-423.359"/>
<text text-anchor="middle" x="705.001" y="-407.09" font-family="Times New Roman,serif" font-size="8.00">gen</text>
</g>
<!-- http://example.org/dist21_0 -->
<g id="node13" class="node"><title>http://example.org/dist21_0</title>
<ellipse fill="none" stroke="black" cx="983.84" cy="-522" rx="109.681" ry="18"/>
<text text-anchor="middle" x="983.84" y="-518.3" font-family="Times New Roman,serif" font-size="14.00">http://example.org/dist21_0</text>
</g>
<!-- http://example.org/dist_ai1_2&#45;&gt;http://example.org/dist21_0 -->
<g id="edge16" class="edge"><title>http://example.org/dist_ai1_2&#45;&gt;http://example.org/dist21_0</title>
<path fill="none" stroke="black" d="M752.897,-393.397C798.375,-418.525 892.434,-470.496 945.41,-499.766"/>
<polygon fill="black" stroke="black" points="943.728,-502.836 954.174,-504.608 947.114,-496.709 943.728,-502.836"/>
<text text-anchor="middle" x="765.744" y="-383.754" font-family="Times New Roman,serif" font-size="8.00">der</text>
</g>
<!-- &#45;attrs2 -->
<g id="node6" class="node"><title>&#45;attrs2</title>
<polygon fill="none" stroke="gray" points="692.34,-324 611.34,-324 611.34,-288 698.34,-288 698.34,-318 692.34,-324"/>
<polyline fill="none" stroke="gray" points="692.34,-324 692.34,-318 "/>
<polyline fill="none" stroke="gray" points="698.34,-318 692.34,-318 "/>
<text text-anchor="start" x="621.84" y="-310" font-family="Times New Roman,serif" font-size="10.00">value:</text>
<text text-anchor="start" x="648.84" y="-310" font-family="Times New Roman,serif" font-size="10.00">&quot;10000&quot;</text>
<text text-anchor="start" x="621.84" y="-297" font-family="Times New Roman,serif" font-size="10.00">type:</text>
<text text-anchor="start" x="648.84" y="-297" font-family="Times New Roman,serif" font-size="10.00">&quot;number&quot;</text>
</g>
<!-- &#45;attrs2&#45;&gt;http://example.org/dist_ai1_2 -->
<g id="edge4" class="edge"><title>&#45;attrs2&#45;&gt;http://example.org/dist_ai1_2</title>
<path fill="none" stroke="gray" stroke-dasharray="5,2" d="M672.638,-324.303C684.132,-335.478 698.984,-349.918 710.234,-360.855"/>
</g>
<!-- http://example.org/dist_ai2_2&#45;&gt;http://example.org/access31 -->
<g id="edge20" class="edge"><title>http://example.org/dist_ai2_2&#45;&gt;http://example.org/access31</title>
<path fill="none" stroke="black" d="M821.328,-389.784C779.199,-402.227 709.951,-422.68 664.874,-435.994"/>
<polygon fill="black" stroke="black" points="663.683,-432.697 655.084,-438.886 665.665,-439.41 663.683,-432.697"/>
<text text-anchor="middle" x="817.815" y="-402.467" font-family="Times New Roman,serif" font-size="8.00">gen</text>
</g>
<!-- http://example.org/dist22_0 -->
<g id="node14" class="node"><title>http://example.org/dist22_0</title>
<ellipse fill="none" stroke="black" cx="1221.84" cy="-522" rx="109.681" ry="18"/>
<text text-anchor="middle" x="1221.84" y="-518.3" font-family="Times New Roman,serif" font-size="14.00">http://example.org/dist22_0</text>
</g>
<!-- http://example.org/dist_ai2_2&#45;&gt;http://example.org/dist22_0 -->
<g id="edge19" class="edge"><title>http://example.org/dist_ai2_2&#45;&gt;http://example.org/dist22_0</title>
<path fill="none" stroke="black" d="M889.824,-391.477C953.376,-416.269 1095.95,-471.891 1171.94,-501.534"/>
<polygon fill="black" stroke="black" points="1170.72,-504.816 1181.31,-505.19 1173.27,-498.295 1170.72,-504.816"/>
<text text-anchor="middle" x="901.532" y="-380.201" font-family="Times New Roman,serif" font-size="8.00">der</text>
</g>
<!-- &#45;attrs3 -->
<g id="node8" class="node"><title>&#45;attrs3</title>
<polygon fill="none" stroke="gray" points="912.34,-324 831.34,-324 831.34,-288 918.34,-288 918.34,-318 912.34,-324"/>
<polyline fill="none" stroke="gray" points="912.34,-324 912.34,-318 "/>
<polyline fill="none" stroke="gray" points="918.34,-318 912.34,-318 "/>
<text text-anchor="start" x="841.84" y="-310" font-family="Times New Roman,serif" font-size="10.00">value:</text>
<text text-anchor="start" x="868.84" y="-310" font-family="Times New Roman,serif" font-size="10.00">&quot;0&quot;</text>
<text text-anchor="start" x="841.84" y="-297" font-family="Times New Roman,serif" font-size="10.00">type:</text>
<text text-anchor="start" x="868.84" y="-297" font-family="Times New Roman,serif" font-size="10.00">&quot;number&quot;</text>
</g>
<!-- &#45;attrs3&#45;&gt;http://example.org/dist_ai2_2 -->
<g id="edge6" class="edge"><title>&#45;attrs3&#45;&gt;http://example.org/dist_ai2_2</title>
<path fill="none" stroke="gray" stroke-dasharray="5,2" d="M870.638,-324.303C868.003,-335.154 864.62,-349.083 861.994,-359.896"/>
</g>
<!-- http://example.org/access31&#45;&gt;http://example.org/dist2_0 -->
<g id="edge9" class="edge"><title>http://example.org/access31&#45;&gt;http://example.org/dist2_0</title>
<path fill="none" stroke="black" d="M586.752,-459.583C542.71,-470.673 465.073,-490.222 409.206,-504.289"/>
<polygon fill="black" stroke="black" points="408.234,-500.925 399.391,-506.761 409.943,-507.713 408.234,-500.925"/>
<text text-anchor="middle" x="582.651" y="-472.112" font-family="Times New Roman,serif" font-size="8.00">use</text>
</g>
<!-- http://example.org/access31&#45;&gt;http://example.org/dist20_0 -->
<g id="edge12" class="edge"><title>http://example.org/access31&#45;&gt;http://example.org/dist20_0</title>
<path fill="none" stroke="black" d="M586.746,-455.522C518.686,-464.569 361.14,-485.607 228.84,-504 219.405,-505.312 209.552,-506.696 199.729,-508.086"/>
<polygon fill="black" stroke="black" points="198.932,-504.664 189.522,-509.533 199.914,-511.594 198.932,-504.664"/>
<text text-anchor="middle" x="581.025" y="-467.488" font-family="Times New Roman,serif" font-size="8.00">use</text>
</g>
<!-- http://example.org/access31&#45;&gt;http://example.org/dist21_0 -->
<g id="edge15" class="edge"><title>http://example.org/access31&#45;&gt;http://example.org/dist21_0</title>
<path fill="none" stroke="black" d="M654.99,-457.585C711.912,-468.562 827.609,-490.873 905.448,-505.883"/>
<polygon fill="black" stroke="black" points="905.212,-509.402 915.694,-507.859 906.538,-502.529 905.212,-509.402"/>
<text text-anchor="middle" x="664.814" y="-444.35" font-family="Times New Roman,serif" font-size="8.00">use</text>
</g>
<!-- http://example.org/access31&#45;&gt;http://example.org/dist22_0 -->
<g id="edge18" class="edge"><title>http://example.org/access31&#45;&gt;http://example.org/dist22_0</title>
<path fill="none" stroke="black" d="M655.073,-454.38C734.068,-462.262 935.173,-482.811 1102.84,-504 1112.62,-505.236 1122.85,-506.595 1133.02,-507.99"/>
<polygon fill="black" stroke="black" points="1132.77,-511.488 1143.16,-509.393 1133.73,-504.555 1132.77,-511.488"/>
<text text-anchor="middle" x="663.834" y="-440.304" font-family="Times New Roman,serif" font-size="8.00">use</text>
</g>
<!-- http://example.org/dist_0 -->
<g id="node15" class="node"><title>http://example.org/dist_0</title>
<ellipse fill="none" stroke="black" cx="754.84" cy="-522" rx="100.983" ry="18"/>
<text text-anchor="middle" x="754.84" y="-518.3" font-family="Times New Roman,serif" font-size="14.00">http://example.org/dist_0</text>
</g>
<!-- http://example.org/access31&#45;&gt;http://example.org/dist_0 -->
<g id="edge21" class="edge"><title>http://example.org/access31&#45;&gt;http://example.org/dist_0</title>
<path fill="none" stroke="black" d="M653.62,-468.124C672.082,-477.768 695.281,-489.887 714.81,-500.089"/>
<polygon fill="black" stroke="black" points="713.296,-503.246 723.78,-504.774 716.537,-497.042 713.296,-503.246"/>
<text text-anchor="middle" x="666.283" y="-458.183" font-family="Times New Roman,serif" font-size="8.00">use</text>
</g>
<!-- http://example.org/i2 -->
<g id="node16" class="node"><title>http://example.org/i2</title>
<ellipse fill="none" stroke="black" cx="550.84" cy="-522" rx="85.2851" ry="18"/>
<text text-anchor="middle" x="550.84" y="-518.3" font-family="Times New Roman,serif" font-size="14.00">http://example.org/i2</text>
</g>
<!-- http://example.org/access31&#45;&gt;http://example.org/i2 -->
<g id="edge22" class="edge"><title>http://example.org/access31&#45;&gt;http://example.org/i2</title>
<path fill="none" stroke="black" d="M603.537,-468.303C594.975,-476.865 584.496,-487.344 575.145,-496.696"/>
<polygon fill="black" stroke="black" points="572.541,-494.35 567.945,-503.896 577.491,-499.299 572.541,-494.35"/>
<text text-anchor="middle" x="607.419" y="-480.892" font-family="Times New Roman,serif" font-size="8.00">use</text>
</g>
<!-- &#45;attrs4 -->
<g id="node10" class="node"><title>&#45;attrs4</title>
<polygon fill="none" stroke="gray" points="654.84,-396 580.84,-396 580.84,-360 660.84,-360 660.84,-390 654.84,-396"/>
<polyline fill="none" stroke="gray" points="654.84,-396 654.84,-390 "/>
<polyline fill="none" stroke="gray" points="660.84,-390 654.84,-390 "/>
<text text-anchor="start" x="590.84" y="-375" font-family="Times New Roman,serif" font-size="10.00">type:</text>
<text text-anchor="start" x="613.84" y="-375" font-family="Times New Roman,serif" font-size="10.00">&quot;access&quot;</text>
</g>
<!-- &#45;attrs4&#45;&gt;http://example.org/access31 -->
<g id="edge8" class="edge"><title>&#45;attrs4&#45;&gt;http://example.org/access31</title>
<path fill="none" stroke="gray" stroke-dasharray="5,2" d="M620.84,-396.303C620.84,-407.154 620.84,-421.083 620.84,-431.896"/>
</g>
<!-- http://example.org/disti_2 -->
<g id="node17" class="node"><title>http://example.org/disti_2</title>
<g id="a_node17"><a xlink:href="http://example.org/disti_2" xlink:title="disti_2">
<ellipse fill="#fffc87" stroke="#808080" cx="637.84" cy="-90" rx="35.194" ry="18"/>
<text text-anchor="middle" x="637.84" y="-86.3" font-family="Times New Roman,serif" font-size="14.00">disti_2</text>
</a>
</g>
</g>
<!-- http://example.org/disti_2&#45;&gt;http://example.org/dist_ai_2 -->
<g id="edge32" class="edge"><title>http://example.org/disti_2&#45;&gt;http://example.org/dist_ai_2</title>
<path fill="none" stroke="black" d="M632.89,-107.86C623.907,-137.622 603.631,-201.137 579.84,-252 575.529,-261.218 570.121,-270.932 565.036,-279.489"/>
<polygon fill="black" stroke="black" points="561.917,-277.881 559.71,-288.243 567.898,-281.519 561.917,-277.881"/>
<text text-anchor="middle" x="643.119" y="-116.931" font-family="Times New Roman,serif" font-size="8.00">der</text>
</g>
<!-- http://example.org/disti0_2 -->
<g id="node19" class="node"><title>http://example.org/disti0_2</title>
<g id="a_node19"><a xlink:href="http://example.org/disti0_2" xlink:title="disti0_2">
<ellipse fill="#fffc87" stroke="#808080" cx="531.84" cy="-162" rx="39.7935" ry="18"/>
<text text-anchor="middle" x="531.84" y="-158.3" font-family="Times New Roman,serif" font-size="14.00">disti0_2</text>
</a>
</g>
</g>
<!-- http://example.org/disti_2&#45;&gt;http://example.org/disti0_2 -->
<g id="edge25" class="edge"><title>http://example.org/disti_2&#45;&gt;http://example.org/disti0_2</title>
<path fill="none" stroke="black" d="M617.151,-104.663C601.554,-114.963 579.919,-129.25 562.34,-140.858"/>
<polygon fill="black" stroke="black" points="559.987,-138.218 553.571,-146.65 563.844,-144.06 559.987,-138.218"/>
<text text-anchor="middle" x="618.051" y="-117.736" font-family="Times New Roman,serif" font-size="8.00">[ ]</text>
</g>
<!-- http://example.org/disti1_2 -->
<g id="node21" class="node"><title>http://example.org/disti1_2</title>
<g id="a_node21"><a xlink:href="http://example.org/disti1_2" xlink:title="disti1_2">
<ellipse fill="#fffc87" stroke="#808080" cx="802.84" cy="-162" rx="39.7935" ry="18"/>
<text text-anchor="middle" x="802.84" y="-158.3" font-family="Times New Roman,serif" font-size="14.00">disti1_2</text>
</a>
</g>
</g>
<!-- http://example.org/disti_2&#45;&gt;http://example.org/disti1_2 -->
<g id="edge27" class="edge"><title>http://example.org/disti_2&#45;&gt;http://example.org/disti1_2</title>
<path fill="none" stroke="black" d="M663.985,-102.092C691.29,-113.676 734.37,-131.952 765.306,-145.076"/>
<polygon fill="black" stroke="black" points="764.315,-148.458 774.887,-149.141 767.049,-142.014 764.315,-148.458"/>
<text text-anchor="middle" x="675.963" y="-91.1621" font-family="Times New Roman,serif" font-size="8.00">[ ]</text>
</g>
<!-- http://example.org/disti2_2 -->
<g id="node23" class="node"><title>http://example.org/disti2_2</title>
<g id="a_node23"><a xlink:href="http://example.org/disti2_2" xlink:title="disti2_2">
<ellipse fill="#fffc87" stroke="#808080" cx="903.84" cy="-162" rx="39.7935" ry="18"/>
<text text-anchor="middle" x="903.84" y="-158.3" font-family="Times New Roman,serif" font-size="14.00">disti2_2</text>
</a>
</g>
</g>
<!-- http://example.org/disti_2&#45;&gt;http://example.org/disti2_2 -->
<g id="edge29" class="edge"><title>http://example.org/disti_2&#45;&gt;http://example.org/disti2_2</title>
<path fill="none" stroke="black" d="M669.578,-98.0948C711.531,-107.647 787.64,-125.582 851.84,-144 855.635,-145.089 859.568,-146.272 863.494,-147.49"/>
<polygon fill="black" stroke="black" points="862.569,-150.868 873.159,-150.558 864.686,-144.196 862.569,-150.868"/>
<text text-anchor="middle" x="679.791" y="-85.2086" font-family="Times New Roman,serif" font-size="8.00">[ ]</text>
</g>
<!-- http://example.org/assign14 -->
<g id="node25" class="node"><title>http://example.org/assign14</title>
<g id="a_node25"><a xlink:href="http://example.org/assign14" xlink:title="assign14">
<polygon fill="#9fb1fc" stroke="#0000ff" points="738.34,-252 673.34,-252 673.34,-216 738.34,-216 738.34,-252"/>
<text text-anchor="middle" x="705.84" y="-230.3" font-family="Times New Roman,serif" font-size="14.00">assign14</text>
</a>
</g>
</g>
<!-- http://example.org/disti_2&#45;&gt;http://example.org/assign14 -->
<g id="edge33" class="edge"><title>http://example.org/disti_2&#45;&gt;http://example.org/assign14</title>
<path fill="none" stroke="black" d="M638.818,-108.309C640.471,-126.94 644.915,-156.996 656.84,-180 662.227,-190.392 670.207,-200.256 678.169,-208.594"/>
<polygon fill="black" stroke="black" points="675.846,-211.22 685.402,-215.794 680.784,-206.259 675.846,-211.22"/>
<text text-anchor="middle" x="652.483" y="-112.595" font-family="Times New Roman,serif" font-size="8.00">gen</text>
</g>
<!-- &#45;attrs5 -->
<g id="node18" class="node"><title>&#45;attrs5</title>
<polygon fill="none" stroke="gray" points="683.34,-36 586.34,-36 586.34,-0 689.34,-0 689.34,-30 683.34,-36"/>
<polyline fill="none" stroke="gray" points="683.34,-36 683.34,-30 "/>
<polyline fill="none" stroke="gray" points="689.34,-30 683.34,-30 "/>
<text text-anchor="start" x="596.84" y="-22" font-family="Times New Roman,serif" font-size="10.00">value:</text>
<text text-anchor="start" x="623.84" y="-22" font-family="Times New Roman,serif" font-size="10.00">&quot;[2, 10000, 0]&quot;</text>
<text text-anchor="start" x="596.84" y="-9" font-family="Times New Roman,serif" font-size="10.00">type:</text>
<text text-anchor="start" x="623.84" y="-9" font-family="Times New Roman,serif" font-size="10.00">&quot;list&quot;</text>
</g>
<!-- &#45;attrs5&#45;&gt;http://example.org/disti_2 -->
<g id="edge23" class="edge"><title>&#45;attrs5&#45;&gt;http://example.org/disti_2</title>
<path fill="none" stroke="gray" stroke-dasharray="5,2" d="M637.84,-36.3034C637.84,-47.1537 637.84,-61.0833 637.84,-71.8957"/>
</g>
<!-- http://example.org/disti0_2&#45;&gt;http://example.org/dist_ai0_2 -->
<g id="edge35" class="edge"><title>http://example.org/disti0_2&#45;&gt;http://example.org/dist_ai0_2</title>
<path fill="none" stroke="black" d="M505.173,-175.324C489.009,-184.253 469.508,-197.927 458.84,-216 434.295,-257.586 433.656,-315.681 435.911,-349.521"/>
<polygon fill="black" stroke="black" points="432.432,-349.915 436.719,-359.604 439.409,-349.356 432.432,-349.915"/>
<text text-anchor="middle" x="505.104" y="-188.424" font-family="Times New Roman,serif" font-size="8.00">der</text>
</g>
<!-- http://example.org/disti0_2&#45;&gt;http://example.org/assign14 -->
<g id="edge36" class="edge"><title>http://example.org/disti0_2&#45;&gt;http://example.org/assign14</title>
<path fill="none" stroke="black" d="M560.573,-174.559C588.653,-185.856 631.72,-203.181 663.678,-216.038"/>
<polygon fill="black" stroke="black" points="662.627,-219.388 673.211,-219.873 665.24,-212.894 662.627,-219.388"/>
<text text-anchor="middle" x="572.379" y="-163.407" font-family="Times New Roman,serif" font-size="8.00">gen</text>
</g>
<!-- &#45;attrs6 -->
<g id="node20" class="node"><title>&#45;attrs6</title>
<polygon fill="none" stroke="gray" points="569.34,-108 488.34,-108 488.34,-72 575.34,-72 575.34,-102 569.34,-108"/>
<polyline fill="none" stroke="gray" points="569.34,-108 569.34,-102 "/>
<polyline fill="none" stroke="gray" points="575.34,-102 569.34,-102 "/>
<text text-anchor="start" x="498.84" y="-94" font-family="Times New Roman,serif" font-size="10.00">value:</text>
<text text-anchor="start" x="525.84" y="-94" font-family="Times New Roman,serif" font-size="10.00">&quot;2&quot;</text>
<text text-anchor="start" x="498.84" y="-81" font-family="Times New Roman,serif" font-size="10.00">type:</text>
<text text-anchor="start" x="525.84" y="-81" font-family="Times New Roman,serif" font-size="10.00">&quot;number&quot;</text>
</g>
<!-- &#45;attrs6&#45;&gt;http://example.org/disti0_2 -->
<g id="edge24" class="edge"><title>&#45;attrs6&#45;&gt;http://example.org/disti0_2</title>
<path fill="none" stroke="gray" stroke-dasharray="5,2" d="M531.84,-108.303C531.84,-119.154 531.84,-133.083 531.84,-143.896"/>
</g>
<!-- http://example.org/disti1_2&#45;&gt;http://example.org/dist_ai1_2 -->
<g id="edge38" class="edge"><title>http://example.org/disti1_2&#45;&gt;http://example.org/dist_ai1_2</title>
<path fill="none" stroke="black" d="M796.749,-180.151C783.515,-217.417 752.056,-305.998 736.248,-350.51"/>
<polygon fill="black" stroke="black" points="732.903,-349.47 732.855,-360.065 739.5,-351.813 732.903,-349.47"/>
<text text-anchor="middle" x="806.481" y="-189.666" font-family="Times New Roman,serif" font-size="8.00">der</text>
</g>
<!-- http://example.org/disti1_2&#45;&gt;http://example.org/assign14 -->
<g id="edge39" class="edge"><title>http://example.org/disti1_2&#45;&gt;http://example.org/assign14</title>
<path fill="none" stroke="black" d="M782.269,-177.845C769.345,-187.172 752.408,-199.394 737.763,-209.963"/>
<polygon fill="black" stroke="black" points="735.514,-207.27 729.453,-215.96 739.61,-212.946 735.514,-207.27"/>
<text text-anchor="middle" x="783.789" y="-190.868" font-family="Times New Roman,serif" font-size="8.00">gen</text>
</g>
<!-- &#45;attrs7 -->
<g id="node22" class="node"><title>&#45;attrs7</title>
<polygon fill="none" stroke="gray" points="838.34,-108 757.34,-108 757.34,-72 844.34,-72 844.34,-102 838.34,-108"/>
<polyline fill="none" stroke="gray" points="838.34,-108 838.34,-102 "/>
<polyline fill="none" stroke="gray" points="844.34,-102 838.34,-102 "/>
<text text-anchor="start" x="767.84" y="-94" font-family="Times New Roman,serif" font-size="10.00">value:</text>
<text text-anchor="start" x="794.84" y="-94" font-family="Times New Roman,serif" font-size="10.00">&quot;10000&quot;</text>
<text text-anchor="start" x="767.84" y="-81" font-family="Times New Roman,serif" font-size="10.00">type:</text>
<text text-anchor="start" x="794.84" y="-81" font-family="Times New Roman,serif" font-size="10.00">&quot;number&quot;</text>
</g>
<!-- &#45;attrs7&#45;&gt;http://example.org/disti1_2 -->
<g id="edge26" class="edge"><title>&#45;attrs7&#45;&gt;http://example.org/disti1_2</title>
<path fill="none" stroke="gray" stroke-dasharray="5,2" d="M801.335,-108.303C801.645,-119.154 802.043,-133.083 802.352,-143.896"/>
</g>
<!-- http://example.org/disti2_2&#45;&gt;http://example.org/dist_ai2_2 -->
<g id="edge41" class="edge"><title>http://example.org/disti2_2&#45;&gt;http://example.org/dist_ai2_2</title>
<path fill="none" stroke="black" d="M912.57,-179.999C926.945,-210.523 951.744,-275.92 927.84,-324 920.838,-338.085 908.108,-349.426 895.405,-357.947"/>
<polygon fill="black" stroke="black" points="893.312,-355.127 886.685,-363.394 897.021,-361.064 893.312,-355.127"/>
<text text-anchor="middle" x="927.493" y="-179.609" font-family="Times New Roman,serif" font-size="8.00">der</text>
</g>
<!-- http://example.org/disti2_2&#45;&gt;http://example.org/assign14 -->
<g id="edge42" class="edge"><title>http://example.org/disti2_2&#45;&gt;http://example.org/assign14</title>
<path fill="none" stroke="black" d="M873.337,-173.784C839.779,-185.648 785.625,-204.793 748.015,-218.09"/>
<polygon fill="black" stroke="black" points="746.616,-214.872 738.355,-221.505 748.95,-221.472 746.616,-214.872"/>
<text text-anchor="middle" x="870.595" y="-186.631" font-family="Times New Roman,serif" font-size="8.00">gen</text>
</g>
<!-- &#45;attrs8 -->
<g id="node24" class="node"><title>&#45;attrs8</title>
<polygon fill="none" stroke="gray" points="943.34,-108 862.34,-108 862.34,-72 949.34,-72 949.34,-102 943.34,-108"/>
<polyline fill="none" stroke="gray" points="943.34,-108 943.34,-102 "/>
<polyline fill="none" stroke="gray" points="949.34,-102 943.34,-102 "/>
<text text-anchor="start" x="872.84" y="-94" font-family="Times New Roman,serif" font-size="10.00">value:</text>
<text text-anchor="start" x="899.84" y="-94" font-family="Times New Roman,serif" font-size="10.00">&quot;0&quot;</text>
<text text-anchor="start" x="872.84" y="-81" font-family="Times New Roman,serif" font-size="10.00">type:</text>
<text text-anchor="start" x="899.84" y="-81" font-family="Times New Roman,serif" font-size="10.00">&quot;number&quot;</text>
</g>
<!-- &#45;attrs8&#45;&gt;http://example.org/disti2_2 -->
<g id="edge28" class="edge"><title>&#45;attrs8&#45;&gt;http://example.org/disti2_2</title>
<path fill="none" stroke="gray" stroke-dasharray="5,2" d="M905.346,-108.303C905.036,-119.154 904.638,-133.083 904.329,-143.896"/>
</g>
<!-- http://example.org/assign14&#45;&gt;http://example.org/dist_ai_2 -->
<g id="edge31" class="edge"><title>http://example.org/assign14&#45;&gt;http://example.org/dist_ai_2</title>
<path fill="none" stroke="black" d="M673.31,-249.504C648.192,-260.703 613.379,-276.225 586.955,-288.006"/>
<polygon fill="black" stroke="black" points="585.342,-284.893 577.634,-292.162 588.192,-291.287 585.342,-284.893"/>
<text text-anchor="middle" x="671.75" y="-262.523" font-family="Times New Roman,serif" font-size="8.00">use</text>
</g>
<!-- http://example.org/assign14&#45;&gt;http://example.org/dist_ai0_2 -->
<g id="edge34" class="edge"><title>http://example.org/assign14&#45;&gt;http://example.org/dist_ai0_2</title>
<path fill="none" stroke="black" d="M673.272,-240.207C621.689,-248.946 524.139,-267.617 495.84,-288 473.961,-303.759 458.418,-330.752 449.147,-350.89"/>
<polygon fill="black" stroke="black" points="445.899,-349.581 445.099,-360.145 452.313,-352.386 445.899,-349.581"/>
<text text-anchor="middle" x="668.109" y="-252.391" font-family="Times New Roman,serif" font-size="8.00">use</text>
</g>
<!-- http://example.org/assign14&#45;&gt;http://example.org/dist_ai1_2 -->
<g id="edge37" class="edge"><title>http://example.org/assign14&#45;&gt;http://example.org/dist_ai1_2</title>
<path fill="none" stroke="black" d="M708.373,-252.129C711.952,-276.33 718.527,-320.789 722.789,-349.607"/>
<polygon fill="black" stroke="black" points="719.373,-350.43 724.298,-359.811 726.297,-349.406 719.373,-350.43"/>
<text text-anchor="middle" x="722.321" y="-255.747" font-family="Times New Roman,serif" font-size="8.00">use</text>
</g>
<!-- http://example.org/assign14&#45;&gt;http://example.org/dist_ai2_2 -->
<g id="edge40" class="edge"><title>http://example.org/assign14&#45;&gt;http://example.org/dist_ai2_2</title>
<path fill="none" stroke="black" d="M724.175,-252.129C751.428,-277.589 802.682,-325.47 833.191,-353.973"/>
<polygon fill="black" stroke="black" points="831.145,-356.851 840.842,-361.12 835.924,-351.736 831.145,-356.851"/>
<text text-anchor="middle" x="738.524" y="-245.856" font-family="Times New Roman,serif" font-size="8.00">use</text>
</g>
<!-- &#45;attrs9 -->
<g id="node26" class="node"><title>&#45;attrs9</title>
<polygon fill="none" stroke="gray" points="739.34,-180 666.34,-180 666.34,-144 745.34,-144 745.34,-174 739.34,-180"/>
<polyline fill="none" stroke="gray" points="739.34,-180 739.34,-174 "/>
<polyline fill="none" stroke="gray" points="745.34,-174 739.34,-174 "/>
<text text-anchor="start" x="676.84" y="-159" font-family="Times New Roman,serif" font-size="10.00">type:</text>
<text text-anchor="start" x="699.84" y="-159" font-family="Times New Roman,serif" font-size="10.00">&quot;assign&quot;</text>
</g>
<!-- &#45;attrs9&#45;&gt;http://example.org/assign14 -->
<g id="edge30" class="edge"><title>&#45;attrs9&#45;&gt;http://example.org/assign14</title>
<path fill="none" stroke="gray" stroke-dasharray="5,2" d="M705.84,-180.303C705.84,-191.154 705.84,-205.083 705.84,-215.896"/>
</g>
</g>
</svg>
