<?xml version="1.0" encoding="UTF-8" standalone="no"?>
<!DOCTYPE svg PUBLIC "-//W3C//DTD SVG 1.1//EN"
 "http://www.w3.org/Graphics/SVG/1.1/DTD/svg11.dtd">
<!-- Generated by graphviz version 2.38.0 (20140413.2041)
 -->
<!-- Title: PROV Pages: 1 -->
<svg width="1152pt" height="140pt"
 viewBox="0.00 0.00 1152.00 139.97" xmlns="http://www.w3.org/2000/svg" xmlns:xlink="http://www.w3.org/1999/xlink">
<g id="graph0" class="graph" transform="scale(0.346463 0.346463) rotate(0) translate(4 400)">
<title>PROV</title>
<polygon fill="white" stroke="none" points="-4,4 -4,-400 3321.03,-400 3321.03,4 -4,4"/>
<!-- http://example.org/disti_aj24 -->
<g id="node1" class="node"><title>http://example.org/disti_aj24</title>
<g id="a_node1"><a xlink:href="http://example.org/disti_aj24" xlink:title="disti_aj24">
<ellipse fill="#fffc87" stroke="#808080" cx="779.24" cy="-234" rx="45.4919" ry="18"/>
<text text-anchor="middle" x="779.24" y="-230.3" font-family="Times New Roman,serif" font-size="14.00">disti_aj24</text>
</a>
</g>
</g>
<!-- http://example.org/assign40 -->
<g id="node32" class="node"><title>http://example.org/assign40</title>
<g id="a_node32"><a xlink:href="http://example.org/assign40" xlink:title="assign40">
<polygon fill="#9fb1fc" stroke="#0000ff" points="1830.74,-324 1765.74,-324 1765.74,-288 1830.74,-288 1830.74,-324"/>
<text text-anchor="middle" x="1798.24" y="-302.3" font-family="Times New Roman,serif" font-size="14.00">assign40</text>
</a>
</g>
</g>
<!-- http://example.org/disti_aj24&#45;&gt;http://example.org/assign40 -->
<g id="edge32" class="edge"><title>http://example.org/disti_aj24&#45;&gt;http://example.org/assign40</title>
<path fill="none" stroke="black" d="M812.072,-246.581C819.294,-248.724 826.961,-250.695 834.24,-252 1015.05,-284.408 1592.93,-300.174 1755.39,-304.038"/>
<polygon fill="black" stroke="black" points="1755.4,-307.539 1765.48,-304.275 1755.57,-300.541 1755.4,-307.539"/>
<text text-anchor="middle" x="822.917" y="-234.318" font-family="Times New Roman,serif" font-size="8.00">gen</text>
</g>
<!-- http://example.org/ikj21 -->
<g id="node34" class="node"><title>http://example.org/ikj21</title>
<ellipse fill="none" stroke="black" cx="1427.24" cy="-378" rx="95.5831" ry="18"/>
<text text-anchor="middle" x="1427.24" y="-374.3" font-family="Times New Roman,serif" font-size="14.00">http://example.org/ikj21</text>
</g>
<!-- http://example.org/disti_aj24&#45;&gt;http://example.org/ikj21 -->
<g id="edge31" class="edge"><title>http://example.org/disti_aj24&#45;&gt;http://example.org/ikj21</title>
<path fill="none" stroke="black" d="M813.861,-245.701C820.619,-247.79 827.652,-249.964 834.24,-252 937.795,-284.004 961.536,-300.036 1067.24,-324 1157.42,-344.444 1262.16,-358.835 1335.33,-367.413"/>
<polygon fill="black" stroke="black" points="1335.11,-370.91 1345.44,-368.584 1335.91,-363.956 1335.11,-370.91"/>
<text text-anchor="middle" x="824.862" y="-233.605" font-family="Times New Roman,serif" font-size="8.00">der</text>
</g>
<!-- &#45;attrs0 -->
<g id="node2" class="node"><title>&#45;attrs0</title>
<polygon fill="none" stroke="gray" points="815.24,-180 737.24,-180 737.24,-144 821.24,-144 821.24,-174 815.24,-180"/>
<polyline fill="none" stroke="gray" points="815.24,-180 815.24,-174 "/>
<polyline fill="none" stroke="gray" points="821.24,-174 815.24,-174 "/>
<text text-anchor="start" x="747.24" y="-166" font-family="Times New Roman,serif" font-size="10.00">value:</text>
<text text-anchor="start" x="774.24" y="-166" font-family="Times New Roman,serif" font-size="10.00">&quot;4&quot;</text>
<text text-anchor="start" x="747.24" y="-153" font-family="Times New Roman,serif" font-size="10.00">type:</text>
<text text-anchor="start" x="774.24" y="-153" font-family="Times New Roman,serif" font-size="10.00">&quot;access&quot;</text>
</g>
<!-- &#45;attrs0&#45;&gt;http://example.org/disti_aj24 -->
<g id="edge1" class="edge"><title>&#45;attrs0&#45;&gt;http://example.org/disti_aj24</title>
<path fill="none" stroke="gray" stroke-dasharray="5,2" d="M779.24,-180.303C779.24,-191.154 779.24,-205.083 779.24,-215.896"/>
</g>
<!-- http://example.org/disti_10 -->
<g id="node3" class="node"><title>http://example.org/disti_10</title>
<g id="a_node3"><a xlink:href="http://example.org/disti_10" xlink:title="disti_10">
<ellipse fill="#fffc87" stroke="#808080" cx="571.24" cy="-162" rx="39.7935" ry="18"/>
<text text-anchor="middle" x="571.24" y="-158.3" font-family="Times New Roman,serif" font-size="14.00">disti_10</text>
</a>
</g>
</g>
<!-- http://example.org/disti_10&#45;&gt;http://example.org/disti_aj24 -->
<g id="edge6" class="edge"><title>http://example.org/disti_10&#45;&gt;http://example.org/disti_aj24</title>
<path fill="none" stroke="black" d="M602.38,-173.48C637.902,-185.434 696.214,-205.058 736.1,-218.481"/>
<polygon fill="black" stroke="black" points="735.224,-221.88 745.818,-221.752 737.457,-215.245 735.224,-221.88"/>
<text text-anchor="middle" x="613.632" y="-161.66" font-family="Times New Roman,serif" font-size="8.00">[ ]</text>
</g>
<!-- http://example.org/disti0_7 -->
<g id="node5" class="node"><title>http://example.org/disti0_7</title>
<ellipse fill="none" stroke="black" cx="571.24" cy="-234" rx="107.482" ry="18"/>
<text text-anchor="middle" x="571.24" y="-230.3" font-family="Times New Roman,serif" font-size="14.00">http://example.org/disti0_7</text>
</g>
<!-- http://example.org/disti_10&#45;&gt;http://example.org/disti0_7 -->
<g id="edge3" class="edge"><title>http://example.org/disti_10&#45;&gt;http://example.org/disti0_7</title>
<path fill="none" stroke="black" d="M571.24,-180.303C571.24,-188.017 571.24,-197.288 571.24,-205.888"/>
<polygon fill="black" stroke="black" points="567.741,-205.896 571.24,-215.896 574.741,-205.896 567.741,-205.896"/>
<text text-anchor="middle" x="584.231" y="-185.903" font-family="Times New Roman,serif" font-size="8.00">[ ]</text>
</g>
<!-- http://example.org/disti1_7 -->
<g id="node6" class="node"><title>http://example.org/disti1_7</title>
<ellipse fill="none" stroke="black" cx="107.24" cy="-234" rx="107.482" ry="18"/>
<text text-anchor="middle" x="107.24" y="-230.3" font-family="Times New Roman,serif" font-size="14.00">http://example.org/disti1_7</text>
</g>
<!-- http://example.org/disti_10&#45;&gt;http://example.org/disti1_7 -->
<g id="edge4" class="edge"><title>http://example.org/disti_10&#45;&gt;http://example.org/disti1_7</title>
<path fill="none" stroke="black" d="M534.054,-168.61C460.796,-179.662 296.078,-204.512 194.036,-219.906"/>
<polygon fill="black" stroke="black" points="193.422,-216.459 184.056,-221.411 194.466,-223.38 193.422,-216.459"/>
<text text-anchor="middle" x="528.576" y="-180.674" font-family="Times New Roman,serif" font-size="8.00">[ ]</text>
</g>
<!-- http://example.org/disti2_7 -->
<g id="node7" class="node"><title>http://example.org/disti2_7</title>
<ellipse fill="none" stroke="black" cx="339.24" cy="-234" rx="107.482" ry="18"/>
<text text-anchor="middle" x="339.24" y="-230.3" font-family="Times New Roman,serif" font-size="14.00">http://example.org/disti2_7</text>
</g>
<!-- http://example.org/disti_10&#45;&gt;http://example.org/disti2_7 -->
<g id="edge5" class="edge"><title>http://example.org/disti_10&#45;&gt;http://example.org/disti2_7</title>
<path fill="none" stroke="black" d="M538.982,-172.733C502.791,-183.653 443.315,-201.598 398.657,-215.072"/>
<polygon fill="black" stroke="black" points="397.644,-211.722 389.082,-217.962 399.666,-218.424 397.644,-211.722"/>
<text text-anchor="middle" x="535.554" y="-185.436" font-family="Times New Roman,serif" font-size="8.00">[ ]</text>
</g>
<!-- http://example.org/disti_10&#45;&gt;http://example.org/assign40 -->
<g id="edge45" class="edge"><title>http://example.org/disti_10&#45;&gt;http://example.org/assign40</title>
<path fill="none" stroke="black" d="M601.746,-173.743C626.015,-183.024 660.258,-197.798 687.24,-216 706.527,-229.011 703.848,-242.858 725.24,-252 821.08,-292.958 1567.59,-302.798 1755.44,-304.635"/>
<polygon fill="black" stroke="black" points="1755.46,-308.135 1765.49,-304.731 1755.53,-301.136 1755.46,-308.135"/>
<text text-anchor="middle" x="613.451" y="-162.463" font-family="Times New Roman,serif" font-size="8.00">gen</text>
</g>
<!-- &#45;attrs1 -->
<g id="node4" class="node"><title>&#45;attrs1</title>
<polygon fill="none" stroke="gray" points="607.74,-108 528.74,-108 528.74,-72 613.74,-72 613.74,-102 607.74,-108"/>
<polyline fill="none" stroke="gray" points="607.74,-108 607.74,-102 "/>
<polyline fill="none" stroke="gray" points="613.74,-102 607.74,-102 "/>
<text text-anchor="start" x="539.24" y="-94" font-family="Times New Roman,serif" font-size="10.00">value:</text>
<text text-anchor="start" x="566.24" y="-94" font-family="Times New Roman,serif" font-size="10.00">&quot;[4, 0, 2]&quot;</text>
<text text-anchor="start" x="539.24" y="-81" font-family="Times New Roman,serif" font-size="10.00">type:</text>
<text text-anchor="start" x="566.24" y="-81" font-family="Times New Roman,serif" font-size="10.00">&quot;list&quot;</text>
</g>
<!-- &#45;attrs1&#45;&gt;http://example.org/disti_10 -->
<g id="edge2" class="edge"><title>&#45;attrs1&#45;&gt;http://example.org/disti_10</title>
<path fill="none" stroke="gray" stroke-dasharray="5,2" d="M571.24,-108.303C571.24,-119.154 571.24,-133.083 571.24,-143.896"/>
</g>
<!-- http://example.org/dist10_1 -->
<g id="node8" class="node"><title>http://example.org/dist10_1</title>
<g id="a_node8"><a xlink:href="http://example.org/dist10_1" xlink:title="dist10_1">
<ellipse fill="#fffc87" stroke="#808080" cx="885.24" cy="-234" rx="42.4939" ry="18"/>
<text text-anchor="middle" x="885.24" y="-230.3" font-family="Times New Roman,serif" font-size="14.00">dist10_1</text>
</a>
</g>
</g>
<!-- http://example.org/dist10_1&#45;&gt;http://example.org/assign40 -->
<g id="edge35" class="edge"><title>http://example.org/dist10_1&#45;&gt;http://example.org/assign40</title>
<path fill="none" stroke="black" d="M915.639,-246.566C922.339,-248.71 929.46,-250.685 936.24,-252 1095.79,-282.947 1603.31,-299.489 1755.01,-303.829"/>
<polygon fill="black" stroke="black" points="1755.22,-307.336 1765.31,-304.121 1755.41,-300.339 1755.22,-307.336"/>
<text text-anchor="middle" x="926.699" y="-234.533" font-family="Times New Roman,serif" font-size="8.00">gen</text>
</g>
<!-- http://example.org/dist10_1&#45;&gt;http://example.org/ikj21 -->
<g id="edge34" class="edge"><title>http://example.org/dist10_1&#45;&gt;http://example.org/ikj21</title>
<path fill="none" stroke="black" d="M916.959,-245.968C923.318,-248.055 929.972,-250.16 936.24,-252 1086.03,-295.968 1264.1,-339.048 1359.26,-361.341"/>
<polygon fill="black" stroke="black" points="1358.51,-364.76 1369.05,-363.629 1360.11,-357.944 1358.51,-364.76"/>
<text text-anchor="middle" x="928.124" y="-234.051" font-family="Times New Roman,serif" font-size="8.00">der</text>
</g>
<!-- &#45;attrs2 -->
<g id="node9" class="node"><title>&#45;attrs2</title>
<polygon fill="none" stroke="gray" points="921.24,-180 843.24,-180 843.24,-144 927.24,-144 927.24,-174 921.24,-180"/>
<polyline fill="none" stroke="gray" points="921.24,-180 921.24,-174 "/>
<polyline fill="none" stroke="gray" points="927.24,-174 921.24,-174 "/>
<text text-anchor="start" x="853.24" y="-166" font-family="Times New Roman,serif" font-size="10.00">value:</text>
<text text-anchor="start" x="880.24" y="-166" font-family="Times New Roman,serif" font-size="10.00">&quot;4&quot;</text>
<text text-anchor="start" x="853.24" y="-153" font-family="Times New Roman,serif" font-size="10.00">type:</text>
<text text-anchor="start" x="880.24" y="-153" font-family="Times New Roman,serif" font-size="10.00">&quot;access&quot;</text>
</g>
<!-- &#45;attrs2&#45;&gt;http://example.org/dist10_1 -->
<g id="edge7" class="edge"><title>&#45;attrs2&#45;&gt;http://example.org/dist10_1</title>
<path fill="none" stroke="gray" stroke-dasharray="5,2" d="M885.24,-180.303C885.24,-191.154 885.24,-205.083 885.24,-215.896"/>
</g>
<!-- http://example.org/dist1_1 -->
<g id="node10" class="node"><title>http://example.org/dist1_1</title>
<g id="a_node10"><a xlink:href="http://example.org/dist1_1" xlink:title="dist1_1">
<ellipse fill="#fffc87" stroke="#808080" cx="1408.24" cy="-162" rx="37.8943" ry="18"/>
<text text-anchor="middle" x="1408.24" y="-158.3" font-family="Times New Roman,serif" font-size="14.00">dist1_1</text>
</a>
</g>
</g>
<!-- http://example.org/dist1_1&#45;&gt;http://example.org/dist10_1 -->
<g id="edge12" class="edge"><title>http://example.org/dist1_1&#45;&gt;http://example.org/dist10_1</title>
<path fill="none" stroke="black" d="M1370.78,-164.536C1290.35,-168.414 1095.49,-180.926 936.24,-216 932.81,-216.756 929.285,-217.657 925.769,-218.644"/>
<polygon fill="black" stroke="black" points="924.525,-215.363 915.964,-221.605 926.549,-222.064 924.525,-215.363"/>
<text text-anchor="middle" x="1363.97" y="-176.001" font-family="Times New Roman,serif" font-size="8.00">[ ]</text>
</g>
<!-- http://example.org/dist10_0 -->
<g id="node12" class="node"><title>http://example.org/dist10_0</title>
<ellipse fill="none" stroke="black" cx="1293.24" cy="-234" rx="109.681" ry="18"/>
<text text-anchor="middle" x="1293.24" y="-230.3" font-family="Times New Roman,serif" font-size="14.00">http://example.org/dist10_0</text>
</g>
<!-- http://example.org/dist1_1&#45;&gt;http://example.org/dist10_0 -->
<g id="edge9" class="edge"><title>http://example.org/dist1_1&#45;&gt;http://example.org/dist10_0</title>
<path fill="none" stroke="black" d="M1385.79,-176.663C1369.73,-186.442 1347.76,-199.815 1329.26,-211.077"/>
<polygon fill="black" stroke="black" points="1327.21,-208.222 1320.49,-216.412 1330.85,-214.202 1327.21,-208.222"/>
<text text-anchor="middle" x="1386.14" y="-189.759" font-family="Times New Roman,serif" font-size="8.00">[ ]</text>
</g>
<!-- http://example.org/dist11_0 -->
<g id="node13" class="node"><title>http://example.org/dist11_0</title>
<ellipse fill="none" stroke="black" cx="1531.24" cy="-234" rx="109.681" ry="18"/>
<text text-anchor="middle" x="1531.24" y="-230.3" font-family="Times New Roman,serif" font-size="14.00">http://example.org/dist11_0</text>
</g>
<!-- http://example.org/dist1_1&#45;&gt;http://example.org/dist11_0 -->
<g id="edge10" class="edge"><title>http://example.org/dist1_1&#45;&gt;http://example.org/dist11_0</title>
<path fill="none" stroke="black" d="M1431.67,-176.331C1449.07,-186.238 1473.19,-199.964 1493.33,-211.426"/>
<polygon fill="black" stroke="black" points="1491.84,-214.606 1502.27,-216.511 1495.31,-208.523 1491.84,-214.606"/>
<text text-anchor="middle" x="1444.61" y="-166.851" font-family="Times New Roman,serif" font-size="8.00">[ ]</text>
</g>
<!-- http://example.org/dist12_0 -->
<g id="node14" class="node"><title>http://example.org/dist12_0</title>
<ellipse fill="none" stroke="black" cx="1055.24" cy="-234" rx="109.681" ry="18"/>
<text text-anchor="middle" x="1055.24" y="-230.3" font-family="Times New Roman,serif" font-size="14.00">http://example.org/dist12_0</text>
</g>
<!-- http://example.org/dist1_1&#45;&gt;http://example.org/dist12_0 -->
<g id="edge11" class="edge"><title>http://example.org/dist1_1&#45;&gt;http://example.org/dist12_0</title>
<path fill="none" stroke="black" d="M1374.07,-169.775C1318.6,-180.776 1207.58,-202.79 1132.34,-217.712"/>
<polygon fill="black" stroke="black" points="1131.55,-214.299 1122.42,-219.677 1132.91,-221.165 1131.55,-214.299"/>
<text text-anchor="middle" x="1369.24" y="-182.077" font-family="Times New Roman,serif" font-size="8.00">[ ]</text>
</g>
<!-- http://example.org/dist1_1&#45;&gt;http://example.org/assign40 -->
<g id="edge46" class="edge"><title>http://example.org/dist1_1&#45;&gt;http://example.org/assign40</title>
<path fill="none" stroke="black" d="M1445.61,-164.982C1495.06,-168.944 1583.72,-180.777 1650.24,-216 1670.8,-226.887 1669.09,-238.793 1688.24,-252 1709.28,-266.506 1734.89,-279.101 1756.11,-288.37"/>
<polygon fill="black" stroke="black" points="1754.94,-291.679 1765.51,-292.389 1757.69,-285.242 1754.94,-291.679"/>
<text text-anchor="middle" x="1454.25" y="-150.818" font-family="Times New Roman,serif" font-size="8.00">gen</text>
</g>
<!-- &#45;attrs3 -->
<g id="node11" class="node"><title>&#45;attrs3</title>
<polygon fill="none" stroke="gray" points="1444.74,-108 1365.74,-108 1365.74,-72 1450.74,-72 1450.74,-102 1444.74,-108"/>
<polyline fill="none" stroke="gray" points="1444.74,-108 1444.74,-102 "/>
<polyline fill="none" stroke="gray" points="1450.74,-102 1444.74,-102 "/>
<text text-anchor="start" x="1376.24" y="-94" font-family="Times New Roman,serif" font-size="10.00">value:</text>
<text text-anchor="start" x="1403.24" y="-94" font-family="Times New Roman,serif" font-size="10.00">&quot;[4, 0, 2]&quot;</text>
<text text-anchor="start" x="1376.24" y="-81" font-family="Times New Roman,serif" font-size="10.00">type:</text>
<text text-anchor="start" x="1403.24" y="-81" font-family="Times New Roman,serif" font-size="10.00">&quot;list&quot;</text>
</g>
<!-- &#45;attrs3&#45;&gt;http://example.org/dist1_1 -->
<g id="edge8" class="edge"><title>&#45;attrs3&#45;&gt;http://example.org/dist1_1</title>
<path fill="none" stroke="gray" stroke-dasharray="5,2" d="M1408.24,-108.303C1408.24,-119.154 1408.24,-133.083 1408.24,-143.896"/>
</g>
<!-- http://example.org/dist_3 -->
<g id="node15" class="node"><title>http://example.org/dist_3</title>
<g id="a_node15"><a xlink:href="http://example.org/dist_3" xlink:title="dist_3">
<ellipse fill="#fffc87" stroke="#808080" cx="1919.24" cy="-90" rx="33.2948" ry="18"/>
<text text-anchor="middle" x="1919.24" y="-86.3" font-family="Times New Roman,serif" font-size="14.00">dist_3</text>
</a>
</g>
</g>
<!-- http://example.org/dist_3&#45;&gt;http://example.org/dist1_1 -->
<g id="edge17" class="edge"><title>http://example.org/dist_3&#45;&gt;http://example.org/dist1_1</title>
<path fill="none" stroke="black" d="M1887.28,-95.3788C1799.72,-107.373 1555.76,-140.792 1453.87,-154.749"/>
<polygon fill="black" stroke="black" points="1453.32,-151.292 1443.89,-156.117 1454.27,-158.227 1453.32,-151.292"/>
<text text-anchor="middle" x="1881.61" y="-107.367" font-family="Times New Roman,serif" font-size="8.00">[ ]</text>
</g>
<!-- http://example.org/dist0_1 -->
<g id="node17" class="node"><title>http://example.org/dist0_1</title>
<ellipse fill="none" stroke="black" cx="2052.24" cy="-162" rx="105.082" ry="18"/>
<text text-anchor="middle" x="2052.24" y="-158.3" font-family="Times New Roman,serif" font-size="14.00">http://example.org/dist0_1</text>
</g>
<!-- http://example.org/dist_3&#45;&gt;http://example.org/dist0_1 -->
<g id="edge14" class="edge"><title>http://example.org/dist_3&#45;&gt;http://example.org/dist0_1</title>
<path fill="none" stroke="black" d="M1942.1,-103.033C1961.3,-113.134 1989.17,-127.804 2012.07,-139.858"/>
<polygon fill="black" stroke="black" points="2010.74,-143.113 2021.22,-144.673 2014,-136.918 2010.74,-143.113"/>
<text text-anchor="middle" x="1954.79" y="-93.1311" font-family="Times New Roman,serif" font-size="8.00">[ ]</text>
</g>
<!-- http://example.org/dist1_0 -->
<g id="node18" class="node"><title>http://example.org/dist1_0</title>
<ellipse fill="none" stroke="black" cx="2675.24" cy="-378" rx="105.082" ry="18"/>
<text text-anchor="middle" x="2675.24" y="-374.3" font-family="Times New Roman,serif" font-size="14.00">http://example.org/dist1_0</text>
</g>
<!-- http://example.org/dist_3&#45;&gt;http://example.org/dist1_0 -->
<g id="edge15" class="edge"><title>http://example.org/dist_3&#45;&gt;http://example.org/dist1_0</title>
<path fill="none" stroke="black" d="M1952.1,-93.5418C2097.42,-105.112 2677.4,-154.885 2728.24,-216 2761.55,-256.042 2723.46,-317.678 2696.78,-351.906"/>
<polygon fill="black" stroke="black" points="2693.83,-349.998 2690.3,-359.988 2699.29,-354.38 2693.83,-349.998"/>
<text text-anchor="middle" x="1960.64" y="-79.3116" font-family="Times New Roman,serif" font-size="8.00">[ ]</text>
</g>
<!-- http://example.org/dist2_1 -->
<g id="node19" class="node"><title>http://example.org/dist2_1</title>
<ellipse fill="none" stroke="black" cx="1786.24" cy="-162" rx="105.082" ry="18"/>
<text text-anchor="middle" x="1786.24" y="-158.3" font-family="Times New Roman,serif" font-size="14.00">http://example.org/dist2_1</text>
</g>
<!-- http://example.org/dist_3&#45;&gt;http://example.org/dist2_1 -->
<g id="edge16" class="edge"><title>http://example.org/dist_3&#45;&gt;http://example.org/dist2_1</title>
<path fill="none" stroke="black" d="M1896.38,-103.033C1877.19,-113.134 1849.31,-127.804 1826.41,-139.858"/>
<polygon fill="black" stroke="black" points="1824.48,-136.918 1817.26,-144.673 1827.74,-143.113 1824.48,-136.918"/>
<text text-anchor="middle" x="1895.79" y="-116.122" font-family="Times New Roman,serif" font-size="8.00">[ ]</text>
</g>
<!-- http://example.org/dist_3&#45;&gt;http://example.org/assign40 -->
<g id="edge47" class="edge"><title>http://example.org/dist_3&#45;&gt;http://example.org/assign40</title>
<path fill="none" stroke="black" d="M1921.95,-108.313C1925.92,-139.917 1929.86,-207.769 1899.24,-252 1885.36,-272.049 1861.46,-285.073 1840.4,-293.191"/>
<polygon fill="black" stroke="black" points="1839.19,-289.906 1830.97,-296.584 1841.56,-296.493 1839.19,-289.906"/>
<text text-anchor="middle" x="1935.68" y="-112.447" font-family="Times New Roman,serif" font-size="8.00">gen</text>
</g>
<!-- &#45;attrs4 -->
<g id="node16" class="node"><title>&#45;attrs4</title>
<polygon fill="none" stroke="gray" points="1991.74,-36 1840.74,-36 1840.74,-0 1997.74,-0 1997.74,-30 1991.74,-36"/>
<polyline fill="none" stroke="gray" points="1991.74,-36 1991.74,-30 "/>
<polyline fill="none" stroke="gray" points="1997.74,-30 1991.74,-30 "/>
<text text-anchor="start" x="1851.24" y="-22" font-family="Times New Roman,serif" font-size="10.00">value:</text>
<text text-anchor="start" x="1878.24" y="-22" font-family="Times New Roman,serif" font-size="10.00">&quot;[[0, 1, 3], [4, 0, 2], [2, 3, 0]]&quot;</text>
<text text-anchor="start" x="1851.24" y="-9" font-family="Times New Roman,serif" font-size="10.00">type:</text>
<text text-anchor="start" x="1878.24" y="-9" font-family="Times New Roman,serif" font-size="10.00">&quot;list&quot;</text>
</g>
<!-- &#45;attrs4&#45;&gt;http://example.org/dist_3 -->
<g id="edge13" class="edge"><title>&#45;attrs4&#45;&gt;http://example.org/dist_3</title>
<path fill="none" stroke="gray" stroke-dasharray="5,2" d="M1919.24,-36.3034C1919.24,-47.1537 1919.24,-61.0833 1919.24,-71.8957"/>
</g>
<!-- http://example.org/result10_1 -->
<g id="node20" class="node"><title>http://example.org/result10_1</title>
<g id="a_node20"><a xlink:href="http://example.org/result10_1" xlink:title="result10_1">
<ellipse fill="#fffc87" stroke="#808080" cx="1745.24" cy="-234" rx="48.1917" ry="18"/>
<text text-anchor="middle" x="1745.24" y="-230.3" font-family="Times New Roman,serif" font-size="14.00">result10_1</text>
</a>
</g>
</g>
<!-- http://example.org/result10_1&#45;&gt;http://example.org/assign40 -->
<g id="edge38" class="edge"><title>http://example.org/result10_1&#45;&gt;http://example.org/assign40</title>
<path fill="none" stroke="black" d="M1757.8,-251.589C1764.08,-259.885 1771.82,-270.109 1778.85,-279.385"/>
<polygon fill="black" stroke="black" points="1776.2,-281.693 1785.03,-287.553 1781.78,-277.468 1776.2,-281.693"/>
<text text-anchor="middle" x="1772.68" y="-247.827" font-family="Times New Roman,serif" font-size="8.00">gen</text>
</g>
<!-- http://example.org/result10_1&#45;&gt;http://example.org/ikj21 -->
<g id="edge37" class="edge"><title>http://example.org/result10_1&#45;&gt;http://example.org/ikj21</title>
<path fill="none" stroke="black" d="M1715.61,-248.232C1659.62,-273.234 1537.99,-327.547 1472,-357.015"/>
<polygon fill="black" stroke="black" points="1470.38,-353.903 1462.68,-361.176 1473.23,-360.295 1470.38,-353.903"/>
<text text-anchor="middle" x="1714.06" y="-261.251" font-family="Times New Roman,serif" font-size="8.00">der</text>
</g>
<!-- &#45;attrs5 -->
<g id="node21" class="node"><title>&#45;attrs5</title>
<polygon fill="none" stroke="gray" points="1657.24,-180 1579.24,-180 1579.24,-144 1663.24,-144 1663.24,-174 1657.24,-180"/>
<polyline fill="none" stroke="gray" points="1657.24,-180 1657.24,-174 "/>
<polyline fill="none" stroke="gray" points="1663.24,-174 1657.24,-174 "/>
<text text-anchor="start" x="1589.24" y="-166" font-family="Times New Roman,serif" font-size="10.00">value:</text>
<text text-anchor="start" x="1616.24" y="-166" font-family="Times New Roman,serif" font-size="10.00">&quot;4&quot;</text>
<text text-anchor="start" x="1589.24" y="-153" font-family="Times New Roman,serif" font-size="10.00">type:</text>
<text text-anchor="start" x="1616.24" y="-153" font-family="Times New Roman,serif" font-size="10.00">&quot;access&quot;</text>
</g>
<!-- &#45;attrs5&#45;&gt;http://example.org/result10_1 -->
<g id="edge18" class="edge"><title>&#45;attrs5&#45;&gt;http://example.org/result10_1</title>
<path fill="none" stroke="gray" stroke-dasharray="5,2" d="M1651.57,-180.124C1672.51,-191.943 1700.03,-207.479 1719.82,-218.648"/>
</g>
<!-- http://example.org/result1_1 -->
<g id="node22" class="node"><title>http://example.org/result1_1</title>
<g id="a_node22"><a xlink:href="http://example.org/result1_1" xlink:title="result1_1">
<ellipse fill="#fffc87" stroke="#808080" cx="2286.24" cy="-162" rx="44.393" ry="18"/>
<text text-anchor="middle" x="2286.24" y="-158.3" font-family="Times New Roman,serif" font-size="14.00">result1_1</text>
</a>
</g>
</g>
<!-- http://example.org/result1_1&#45;&gt;http://example.org/result10_1 -->
<g id="edge23" class="edge"><title>http://example.org/result1_1&#45;&gt;http://example.org/result10_1</title>
<path fill="none" stroke="black" d="M2245.47,-169.21C2222.28,-172.634 2192.67,-176.823 2166.24,-180 2004.84,-199.406 1961.75,-184.625 1802.24,-216 1798.14,-216.807 1793.91,-217.784 1789.69,-218.858"/>
<polygon fill="black" stroke="black" points="1788.68,-215.505 1779.94,-221.502 1790.51,-222.261 1788.68,-215.505"/>
<text text-anchor="middle" x="2239.94" y="-181.252" font-family="Times New Roman,serif" font-size="8.00">[ ]</text>
</g>
<!-- http://example.org/result10_0 -->
<g id="node24" class="node"><title>http://example.org/result10_0</title>
<ellipse fill="none" stroke="black" cx="2352.24" cy="-234" rx="116.18" ry="18"/>
<text text-anchor="middle" x="2352.24" y="-230.3" font-family="Times New Roman,serif" font-size="14.00">http://example.org/result10_0</text>
</g>
<!-- http://example.org/result1_1&#45;&gt;http://example.org/result10_0 -->
<g id="edge20" class="edge"><title>http://example.org/result1_1&#45;&gt;http://example.org/result10_0</title>
<path fill="none" stroke="black" d="M2301.55,-179.235C2309.72,-187.904 2319.95,-198.752 2329.07,-208.43"/>
<polygon fill="black" stroke="black" points="2326.69,-211.001 2336.1,-215.876 2331.78,-206.199 2326.69,-211.001"/>
<text text-anchor="middle" x="2316.14" y="-173.881" font-family="Times New Roman,serif" font-size="8.00">[ ]</text>
</g>
<!-- http://example.org/result11_0 -->
<g id="node25" class="node"><title>http://example.org/result11_0</title>
<ellipse fill="none" stroke="black" cx="2603.24" cy="-234" rx="116.18" ry="18"/>
<text text-anchor="middle" x="2603.24" y="-230.3" font-family="Times New Roman,serif" font-size="14.00">http://example.org/result11_0</text>
</g>
<!-- http://example.org/result1_1&#45;&gt;http://example.org/result11_0 -->
<g id="edge21" class="edge"><title>http://example.org/result1_1&#45;&gt;http://example.org/result11_0</title>
<path fill="none" stroke="black" d="M2324.16,-171.374C2374.71,-182.535 2465.22,-202.523 2529.46,-216.707"/>
<polygon fill="black" stroke="black" points="2529.01,-220.192 2539.53,-218.931 2530.52,-213.357 2529.01,-220.192"/>
<text text-anchor="middle" x="2334.29" y="-158.407" font-family="Times New Roman,serif" font-size="8.00">[ ]</text>
</g>
<!-- http://example.org/result12_0 -->
<g id="node26" class="node"><title>http://example.org/result12_0</title>
<ellipse fill="none" stroke="black" cx="2101.24" cy="-234" rx="116.18" ry="18"/>
<text text-anchor="middle" x="2101.24" y="-230.3" font-family="Times New Roman,serif" font-size="14.00">http://example.org/result12_0</text>
</g>
<!-- http://example.org/result1_1&#45;&gt;http://example.org/result12_0 -->
<g id="edge22" class="edge"><title>http://example.org/result1_1&#45;&gt;http://example.org/result12_0</title>
<path fill="none" stroke="black" d="M2254.86,-174.875C2226.9,-185.454 2185.45,-201.136 2152.65,-213.546"/>
<polygon fill="black" stroke="black" points="2151.33,-210.305 2143.22,-217.117 2153.81,-216.852 2151.33,-210.305"/>
<text text-anchor="middle" x="2252.44" y="-187.778" font-family="Times New Roman,serif" font-size="8.00">[ ]</text>
</g>
<!-- http://example.org/result1_1&#45;&gt;http://example.org/assign40 -->
<g id="edge48" class="edge"><title>http://example.org/result1_1&#45;&gt;http://example.org/assign40</title>
<path fill="none" stroke="black" d="M2245.03,-168.821C2166.34,-180.115 2000.31,-204.87 1976.24,-216 1953.62,-226.462 1954.68,-239.28 1933.24,-252 1904.02,-269.338 1868.1,-283.123 1840.66,-292.283"/>
<polygon fill="black" stroke="black" points="1839.38,-289.018 1830.96,-295.447 1841.55,-295.673 1839.38,-289.018"/>
<text text-anchor="middle" x="2239.47" y="-180.852" font-family="Times New Roman,serif" font-size="8.00">gen</text>
</g>
<!-- &#45;attrs6 -->
<g id="node23" class="node"><title>&#45;attrs6</title>
<polygon fill="none" stroke="gray" points="2322.74,-108 2243.74,-108 2243.74,-72 2328.74,-72 2328.74,-102 2322.74,-108"/>
<polyline fill="none" stroke="gray" points="2322.74,-108 2322.74,-102 "/>
<polyline fill="none" stroke="gray" points="2328.74,-102 2322.74,-102 "/>
<text text-anchor="start" x="2254.24" y="-94" font-family="Times New Roman,serif" font-size="10.00">value:</text>
<text text-anchor="start" x="2281.24" y="-94" font-family="Times New Roman,serif" font-size="10.00">&quot;[4, 0, 2]&quot;</text>
<text text-anchor="start" x="2254.24" y="-81" font-family="Times New Roman,serif" font-size="10.00">type:</text>
<text text-anchor="start" x="2281.24" y="-81" font-family="Times New Roman,serif" font-size="10.00">&quot;list&quot;</text>
</g>
<!-- &#45;attrs6&#45;&gt;http://example.org/result1_1 -->
<g id="edge19" class="edge"><title>&#45;attrs6&#45;&gt;http://example.org/result1_1</title>
<path fill="none" stroke="gray" stroke-dasharray="5,2" d="M2286.24,-108.303C2286.24,-119.154 2286.24,-133.083 2286.24,-143.896"/>
</g>
<!-- http://example.org/result_3 -->
<g id="node27" class="node"><title>http://example.org/result_3</title>
<g id="a_node27"><a xlink:href="http://example.org/result_3" xlink:title="result_3">
<ellipse fill="#fffc87" stroke="#808080" cx="2925.24" cy="-90" rx="39.7935" ry="18"/>
<text text-anchor="middle" x="2925.24" y="-86.3" font-family="Times New Roman,serif" font-size="14.00">result_3</text>
</a>
</g>
</g>
<!-- http://example.org/result_3&#45;&gt;http://example.org/result1_1 -->
<g id="edge28" class="edge"><title>http://example.org/result_3&#45;&gt;http://example.org/result1_1</title>
<path fill="none" stroke="black" d="M2887.18,-95.1692C2778.07,-107.121 2464.01,-141.526 2338.74,-155.249"/>
<polygon fill="black" stroke="black" points="2338.19,-151.788 2328.63,-156.356 2338.96,-158.746 2338.19,-151.788"/>
<text text-anchor="middle" x="2881.14" y="-106.999" font-family="Times New Roman,serif" font-size="8.00">[ ]</text>
</g>
<!-- http://example.org/result0_1 -->
<g id="node29" class="node"><title>http://example.org/result0_1</title>
<ellipse fill="none" stroke="black" cx="3205.24" cy="-162" rx="111.581" ry="18"/>
<text text-anchor="middle" x="3205.24" y="-158.3" font-family="Times New Roman,serif" font-size="14.00">http://example.org/result0_1</text>
</g>
<!-- http://example.org/result_3&#45;&gt;http://example.org/result0_1 -->
<g id="edge25" class="edge"><title>http://example.org/result_3&#45;&gt;http://example.org/result0_1</title>
<path fill="none" stroke="black" d="M2959.02,-99.4436C3003.06,-110.455 3081.14,-129.974 3137.58,-144.085"/>
<polygon fill="black" stroke="black" points="3136.95,-147.535 3147.5,-146.565 3138.65,-140.744 3136.95,-147.535"/>
<text text-anchor="middle" x="2969.44" y="-86.7601" font-family="Times New Roman,serif" font-size="8.00">[ ]</text>
</g>
<!-- http://example.org/result1_0 -->
<g id="node30" class="node"><title>http://example.org/result1_0</title>
<ellipse fill="none" stroke="black" cx="2987.24" cy="-378" rx="111.581" ry="18"/>
<text text-anchor="middle" x="2987.24" y="-374.3" font-family="Times New Roman,serif" font-size="14.00">http://example.org/result1_0</text>
</g>
<!-- http://example.org/result_3&#45;&gt;http://example.org/result1_0 -->
<g id="edge26" class="edge"><title>http://example.org/result_3&#45;&gt;http://example.org/result1_0</title>
<path fill="none" stroke="black" d="M2962.63,-96.3594C2990.89,-102.585 3027.86,-115.878 3046.24,-144 3089.59,-210.307 3036.2,-306.406 3005.71,-351.646"/>
<polygon fill="black" stroke="black" points="3002.75,-349.773 2999.95,-359.992 3008.51,-353.748 3002.75,-349.773"/>
<text text-anchor="middle" x="2972.95" y="-83.5741" font-family="Times New Roman,serif" font-size="8.00">[ ]</text>
</g>
<!-- http://example.org/result2_1 -->
<g id="node31" class="node"><title>http://example.org/result2_1</title>
<ellipse fill="none" stroke="black" cx="2925.24" cy="-162" rx="111.581" ry="18"/>
<text text-anchor="middle" x="2925.24" y="-158.3" font-family="Times New Roman,serif" font-size="14.00">http://example.org/result2_1</text>
</g>
<!-- http://example.org/result_3&#45;&gt;http://example.org/result2_1 -->
<g id="edge27" class="edge"><title>http://example.org/result_3&#45;&gt;http://example.org/result2_1</title>
<path fill="none" stroke="black" d="M2925.24,-108.303C2925.24,-116.017 2925.24,-125.288 2925.24,-133.888"/>
<polygon fill="black" stroke="black" points="2921.74,-133.896 2925.24,-143.896 2928.74,-133.896 2921.74,-133.896"/>
<text text-anchor="middle" x="2938.23" y="-113.903" font-family="Times New Roman,serif" font-size="8.00">[ ]</text>
</g>
<!-- http://example.org/result_3&#45;&gt;http://example.org/assign40 -->
<g id="edge49" class="edge"><title>http://example.org/result_3&#45;&gt;http://example.org/assign40</title>
<path fill="none" stroke="black" d="M2892.31,-100.04C2866.37,-108.357 2830.34,-122.665 2804.24,-144 2758.8,-181.144 2779.54,-223.488 2728.24,-252 2650.1,-295.429 2013.11,-303.376 1840.98,-304.735"/>
<polygon fill="black" stroke="black" points="1840.76,-301.237 1830.79,-304.812 1840.81,-308.236 1840.76,-301.237"/>
<text text-anchor="middle" x="2889.28" y="-112.831" font-family="Times New Roman,serif" font-size="8.00">gen</text>
</g>
<!-- &#45;attrs7 -->
<g id="node28" class="node"><title>&#45;attrs7</title>
<polygon fill="none" stroke="gray" points="2997.74,-36 2846.74,-36 2846.74,-0 3003.74,-0 3003.74,-30 2997.74,-36"/>
<polyline fill="none" stroke="gray" points="2997.74,-36 2997.74,-30 "/>
<polyline fill="none" stroke="gray" points="3003.74,-30 2997.74,-30 "/>
<text text-anchor="start" x="2857.24" y="-22" font-family="Times New Roman,serif" font-size="10.00">value:</text>
<text text-anchor="start" x="2884.24" y="-22" font-family="Times New Roman,serif" font-size="10.00">&quot;[[0, 1, 3], [4, 0, 2], [2, 3, 0]]&quot;</text>
<text text-anchor="start" x="2857.24" y="-9" font-family="Times New Roman,serif" font-size="10.00">type:</text>
<text text-anchor="start" x="2884.24" y="-9" font-family="Times New Roman,serif" font-size="10.00">&quot;list&quot;</text>
</g>
<!-- &#45;attrs7&#45;&gt;http://example.org/result_3 -->
<g id="edge24" class="edge"><title>&#45;attrs7&#45;&gt;http://example.org/result_3</title>
<path fill="none" stroke="gray" stroke-dasharray="5,2" d="M2925.24,-36.3034C2925.24,-47.1537 2925.24,-61.0833 2925.24,-71.8957"/>
</g>
<!-- http://example.org/assign40&#45;&gt;http://example.org/dist1_0 -->
<g id="edge41" class="edge"><title>http://example.org/assign40&#45;&gt;http://example.org/dist1_0</title>
<path fill="none" stroke="black" d="M1830.76,-309.595C1951.04,-319.196 2373.99,-352.955 2571.8,-368.744"/>
<polygon fill="black" stroke="black" points="2571.67,-372.244 2581.92,-369.551 2572.23,-365.266 2571.67,-372.244"/>
<text text-anchor="middle" x="1839.27" y="-295.343" font-family="Times New Roman,serif" font-size="8.00">use</text>
</g>
<!-- http://example.org/assign40&#45;&gt;http://example.org/result1_0 -->
<g id="edge43" class="edge"><title>http://example.org/assign40&#45;&gt;http://example.org/result1_0</title>
<path fill="none" stroke="black" d="M1830.77,-308.358C1955.19,-313.635 2412.83,-333.782 2789.24,-360 2819.54,-362.111 2852.42,-364.78 2882.52,-367.375"/>
<polygon fill="black" stroke="black" points="2882.35,-370.873 2892.62,-368.251 2882.96,-363.899 2882.35,-370.873"/>
<text text-anchor="middle" x="1838.82" y="-293.803" font-family="Times New Roman,serif" font-size="8.00">use</text>
</g>
<!-- http://example.org/assign40&#45;&gt;http://example.org/ikj21 -->
<g id="edge30" class="edge"><title>http://example.org/assign40&#45;&gt;http://example.org/ikj21</title>
<path fill="none" stroke="black" d="M1765.48,-311.811C1705.11,-321.957 1576.78,-345.913 1496.52,-361.785"/>
<polygon fill="black" stroke="black" points="1495.62,-358.395 1486.49,-363.775 1496.98,-365.261 1495.62,-358.395"/>
<text text-anchor="middle" x="1760.28" y="-323.983" font-family="Times New Roman,serif" font-size="8.00">use</text>
</g>
<!-- http://example.org/assign40&#45;&gt;http://example.org/ikj21 -->
<g id="edge33" class="edge"><title>http://example.org/assign40&#45;&gt;http://example.org/ikj21</title>
<path fill="none" stroke="black" d="M1765.64,-313.151C1707.14,-324.188 1582.94,-347.622 1502.38,-362.823"/>
<polygon fill="black" stroke="black" points="1501.47,-359.433 1492.29,-364.726 1502.77,-366.312 1501.47,-359.433"/>
<text text-anchor="middle" x="1760.68" y="-325.406" font-family="Times New Roman,serif" font-size="8.00">use</text>
</g>
<!-- http://example.org/assign40&#45;&gt;http://example.org/ikj21 -->
<g id="edge36" class="edge"><title>http://example.org/assign40&#45;&gt;http://example.org/ikj21</title>
<path fill="none" stroke="black" d="M1765.66,-314.826C1708.06,-326.715 1588.12,-349.467 1507.45,-363.904"/>
<polygon fill="black" stroke="black" points="1506.56,-360.508 1497.33,-365.709 1507.78,-367.4 1506.56,-360.508"/>
<text text-anchor="middle" x="1760.9" y="-327.151" font-family="Times New Roman,serif" font-size="8.00">use</text>
</g>
<!-- http://example.org/disti_aj23 -->
<g id="node35" class="node"><title>http://example.org/disti_aj23</title>
<ellipse fill="none" stroke="black" cx="1654.24" cy="-378" rx="113.18" ry="18"/>
<text text-anchor="middle" x="1654.24" y="-374.3" font-family="Times New Roman,serif" font-size="14.00">http://example.org/disti_aj23</text>
</g>
<!-- http://example.org/assign40&#45;&gt;http://example.org/disti_aj23 -->
<g id="edge39" class="edge"><title>http://example.org/assign40&#45;&gt;http://example.org/disti_aj23</title>
<path fill="none" stroke="black" d="M1765.56,-322.884C1745.23,-332.767 1718.87,-345.583 1696.9,-356.262"/>
<polygon fill="black" stroke="black" points="1695.25,-353.173 1687.79,-360.693 1698.31,-359.469 1695.25,-353.173"/>
<text text-anchor="middle" x="1764.5" y="-335.946" font-family="Times New Roman,serif" font-size="8.00">use</text>
</g>
<!-- http://example.org/disti_9 -->
<g id="node36" class="node"><title>http://example.org/disti_9</title>
<ellipse fill="none" stroke="black" cx="1888.24" cy="-378" rx="102.882" ry="18"/>
<text text-anchor="middle" x="1888.24" y="-374.3" font-family="Times New Roman,serif" font-size="14.00">http://example.org/disti_9</text>
</g>
<!-- http://example.org/assign40&#45;&gt;http://example.org/disti_9 -->
<g id="edge40" class="edge"><title>http://example.org/assign40&#45;&gt;http://example.org/disti_9</title>
<path fill="none" stroke="black" d="M1820.49,-324.303C1832.1,-333.337 1846.46,-344.505 1858.97,-354.231"/>
<polygon fill="black" stroke="black" points="1856.83,-357.001 1866.87,-360.378 1861.12,-351.476 1856.83,-357.001"/>
<text text-anchor="middle" x="1834.38" y="-316.754" font-family="Times New Roman,serif" font-size="8.00">use</text>
</g>
<!-- http://example.org/dist_2 -->
<g id="node37" class="node"><title>http://example.org/dist_2</title>
<ellipse fill="none" stroke="black" cx="2109.24" cy="-378" rx="100.983" ry="18"/>
<text text-anchor="middle" x="2109.24" y="-374.3" font-family="Times New Roman,serif" font-size="14.00">http://example.org/dist_2</text>
</g>
<!-- http://example.org/assign40&#45;&gt;http://example.org/dist_2 -->
<g id="edge42" class="edge"><title>http://example.org/assign40&#45;&gt;http://example.org/dist_2</title>
<path fill="none" stroke="black" d="M1830.94,-314.359C1880.11,-325.427 1974.27,-346.62 2039.35,-361.27"/>
<polygon fill="black" stroke="black" points="2038.61,-364.691 2049.14,-363.472 2040.15,-357.862 2038.61,-364.691"/>
<text text-anchor="middle" x="1841.1" y="-301.432" font-family="Times New Roman,serif" font-size="8.00">use</text>
</g>
<!-- http://example.org/result_2 -->
<g id="node38" class="node"><title>http://example.org/result_2</title>
<ellipse fill="none" stroke="black" cx="2335.24" cy="-378" rx="107.482" ry="18"/>
<text text-anchor="middle" x="2335.24" y="-374.3" font-family="Times New Roman,serif" font-size="14.00">http://example.org/result_2</text>
</g>
<!-- http://example.org/assign40&#45;&gt;http://example.org/result_2 -->
<g id="edge44" class="edge"><title>http://example.org/assign40&#45;&gt;http://example.org/result_2</title>
<path fill="none" stroke="black" d="M1830.75,-310.865C1901.47,-319.322 2074.53,-340.29 2219.24,-360 2228.52,-361.264 2238.21,-362.623 2247.87,-364.002"/>
<polygon fill="black" stroke="black" points="2247.5,-367.485 2257.9,-365.443 2248.5,-360.556 2247.5,-367.485"/>
<text text-anchor="middle" x="1839.75" y="-296.961" font-family="Times New Roman,serif" font-size="8.00">use</text>
</g>
<!-- &#45;attrs8 -->
<g id="node33" class="node"><title>&#45;attrs8</title>
<polygon fill="none" stroke="gray" points="1884.74,-252 1811.74,-252 1811.74,-216 1890.74,-216 1890.74,-246 1884.74,-252"/>
<polyline fill="none" stroke="gray" points="1884.74,-252 1884.74,-246 "/>
<polyline fill="none" stroke="gray" points="1890.74,-246 1884.74,-246 "/>
<text text-anchor="start" x="1822.24" y="-231" font-family="Times New Roman,serif" font-size="10.00">type:</text>
<text text-anchor="start" x="1845.24" y="-231" font-family="Times New Roman,serif" font-size="10.00">&quot;assign&quot;</text>
</g>
<!-- &#45;attrs8&#45;&gt;http://example.org/assign40 -->
<g id="edge29" class="edge"><title>&#45;attrs8&#45;&gt;http://example.org/assign40</title>
<path fill="none" stroke="gray" stroke-dasharray="5,2" d="M1838.14,-252.303C1829.92,-263.154 1819.38,-277.083 1811.19,-287.896"/>
</g>
</g>
</svg>
