<?xml version="1.0" encoding="UTF-8" standalone="no"?>
<!DOCTYPE svg PUBLIC "-//W3C//DTD SVG 1.1//EN"
 "http://www.w3.org/Graphics/SVG/1.1/DTD/svg11.dtd">
<!-- Generated by graphviz version 2.38.0 (20140413.2041)
 -->
<!-- Title: PROV Pages: 1 -->
<svg width="231pt" height="260pt"
 viewBox="0.00 0.00 231.00 260.00" xmlns="http://www.w3.org/2000/svg" xmlns:xlink="http://www.w3.org/1999/xlink">
<g id="graph0" class="graph" transform="scale(1 1) rotate(0) translate(4 256)">
<title>PROV</title>
<polygon fill="white" stroke="none" points="-4,4 -4,-256 227,-256 227,4 -4,4"/>
<!-- http://example.org/n10000 -->
<g id="node1" class="node"><title>http://example.org/n10000</title>
<g id="a_node1"><a xlink:href="http://example.org/n10000" xlink:title="n10000">
<ellipse fill="#fffc87" stroke="#808080" cx="126.5" cy="-234" rx="37.0935" ry="18"/>
<text text-anchor="middle" x="126.5" y="-230.3" font-family="Times New Roman,serif" font-size="14.00">n10000</text>
</a>
</g>
</g>
<!-- &#45;attrs0 -->
<g id="node2" class="node"><title>&#45;attrs0</title>
<polygon fill="none" stroke="gray" points="73,-180 0,-180 0,-144 79,-144 79,-174 73,-180"/>
<polyline fill="none" stroke="gray" points="73,-180 73,-174 "/>
<polyline fill="none" stroke="gray" points="79,-174 73,-174 "/>
<text text-anchor="start" x="10.5" y="-166" font-family="Times New Roman,serif" font-size="10.00">value:</text>
<text text-anchor="start" x="37.5" y="-166" font-family="Times New Roman,serif" font-size="10.00">&quot;10000&quot;</text>
<text text-anchor="start" x="10.5" y="-153" font-family="Times New Roman,serif" font-size="10.00">type:</text>
<text text-anchor="start" x="37.5" y="-153" font-family="Times New Roman,serif" font-size="10.00">&quot;literal&quot;</text>
</g>
<!-- &#45;attrs0&#45;&gt;http://example.org/n10000 -->
<g id="edge1" class="edge"><title>&#45;attrs0&#45;&gt;http://example.org/n10000</title>
<path fill="none" stroke="gray" stroke-dasharray="5,2" d="M61.0056,-180.303C75.4974,-191.963 94.4088,-207.179 108.182,-218.262"/>
</g>
<!-- http://example.org/m0 -->
<g id="node3" class="node"><title>http://example.org/m0</title>
<g id="a_node3"><a xlink:href="http://example.org/m0" xlink:title="m0">
<ellipse fill="#fffc87" stroke="#808080" cx="183.5" cy="-90" rx="27" ry="18"/>
<text text-anchor="middle" x="183.5" y="-86.3" font-family="Times New Roman,serif" font-size="14.00">m0</text>
</a>
</g>
</g>
<!-- http://example.org/m0&#45;&gt;http://example.org/n10000 -->
<g id="edge5" class="edge"><title>http://example.org/m0&#45;&gt;http://example.org/n10000</title>
<path fill="none" stroke="black" d="M181.961,-108.039C179.827,-126.44 174.975,-156.3 164.5,-180 160.037,-190.097 153.462,-200.19 147.03,-208.819"/>
<polygon fill="black" stroke="black" points="144.116,-206.865 140.73,-216.905 149.637,-211.167 144.116,-206.865"/>
<text text-anchor="middle" x="193.93" y="-115.18" font-family="Times New Roman,serif" font-size="8.00">der</text>
</g>
<!-- http://example.org/assign0 -->
<g id="node5" class="node"><title>http://example.org/assign0</title>
<g id="a_node5"><a xlink:href="http://example.org/assign0" xlink:title="assign0">
<polygon fill="#9fb1fc" stroke="#0000ff" points="155.5,-180 97.5,-180 97.5,-144 155.5,-144 155.5,-180"/>
<text text-anchor="middle" x="126.5" y="-158.3" font-family="Times New Roman,serif" font-size="14.00">assign0</text>
</a>
</g>
</g>
<!-- http://example.org/m0&#45;&gt;http://example.org/assign0 -->
<g id="edge6" class="edge"><title>http://example.org/m0&#45;&gt;http://example.org/assign0</title>
<path fill="none" stroke="black" d="M171.132,-106.189C164.072,-114.859 155.042,-125.948 146.954,-135.88"/>
<polygon fill="black" stroke="black" points="144.046,-133.909 140.446,-143.873 149.474,-138.329 144.046,-133.909"/>
<text text-anchor="middle" x="176.469" y="-118.307" font-family="Times New Roman,serif" font-size="8.00">gen</text>
</g>
<!-- &#45;attrs1 -->
<g id="node4" class="node"><title>&#45;attrs1</title>
<polygon fill="none" stroke="gray" points="217,-36 144,-36 144,-0 223,-0 223,-30 217,-36"/>
<polyline fill="none" stroke="gray" points="217,-36 217,-30 "/>
<polyline fill="none" stroke="gray" points="223,-30 217,-30 "/>
<text text-anchor="start" x="154.5" y="-22" font-family="Times New Roman,serif" font-size="10.00">value:</text>
<text text-anchor="start" x="181.5" y="-22" font-family="Times New Roman,serif" font-size="10.00">&quot;10000&quot;</text>
<text text-anchor="start" x="154.5" y="-9" font-family="Times New Roman,serif" font-size="10.00">type:</text>
<text text-anchor="start" x="181.5" y="-9" font-family="Times New Roman,serif" font-size="10.00">&quot;name&quot;</text>
</g>
<!-- &#45;attrs1&#45;&gt;http://example.org/m0 -->
<g id="edge2" class="edge"><title>&#45;attrs1&#45;&gt;http://example.org/m0</title>
<path fill="none" stroke="gray" stroke-dasharray="5,2" d="M183.5,-36.3034C183.5,-47.1537 183.5,-61.0833 183.5,-71.8957"/>
</g>
<!-- http://example.org/assign0&#45;&gt;http://example.org/n10000 -->
<g id="edge4" class="edge"><title>http://example.org/assign0&#45;&gt;http://example.org/n10000</title>
<path fill="none" stroke="black" d="M126.5,-180.303C126.5,-188.017 126.5,-197.288 126.5,-205.888"/>
<polygon fill="black" stroke="black" points="123,-205.896 126.5,-215.896 130,-205.896 123,-205.896"/>
<text text-anchor="middle" x="139.49" y="-185.903" font-family="Times New Roman,serif" font-size="8.00">use</text>
</g>
<!-- &#45;attrs2 -->
<g id="node6" class="node"><title>&#45;attrs2</title>
<polygon fill="none" stroke="gray" points="132,-108 59,-108 59,-72 138,-72 138,-102 132,-108"/>
<polyline fill="none" stroke="gray" points="132,-108 132,-102 "/>
<polyline fill="none" stroke="gray" points="138,-102 132,-102 "/>
<text text-anchor="start" x="69.5" y="-87" font-family="Times New Roman,serif" font-size="10.00">type:</text>
<text text-anchor="start" x="92.5" y="-87" font-family="Times New Roman,serif" font-size="10.00">&quot;assign&quot;</text>
</g>
<!-- &#45;attrs2&#45;&gt;http://example.org/assign0 -->
<g id="edge3" class="edge"><title>&#45;attrs2&#45;&gt;http://example.org/assign0</title>
<path fill="none" stroke="gray" stroke-dasharray="5,2" d="M105.421,-108.303C109.761,-119.154 115.333,-133.083 119.658,-143.896"/>
</g>
</g>
</svg>
