<?xml version="1.0" encoding="UTF-8" standalone="no"?>
<!DOCTYPE svg PUBLIC "-//W3C//DTD SVG 1.1//EN"
 "http://www.w3.org/Graphics/SVG/1.1/DTD/svg11.dtd">
<!-- Generated by graphviz version 2.38.0 (20140413.2041)
 -->
<!-- Title: PROV Pages: 1 -->
<svg width="1152pt" height="337pt"
 viewBox="0.00 0.00 1152.00 337.04" xmlns="http://www.w3.org/2000/svg" xmlns:xlink="http://www.w3.org/1999/xlink">
<g id="graph0" class="graph" transform="scale(0.750639 0.750639) rotate(0) translate(4 445)">
<title>PROV</title>
<polygon fill="white" stroke="none" points="-4,4 -4,-445 1530.69,-445 1530.69,4 -4,4"/>
<!-- http://example.org/dist_ai#7 -->
<g id="node1" class="node"><title>http://example.org/dist_ai#7</title>
<g id="a_node1"><a xlink:href="http://example.org/dist_ai#7" xlink:title="dist_ai#7">
<ellipse fill="#fffc87" stroke="#808080" cx="696" cy="-263" rx="44.393" ry="18"/>
<text text-anchor="middle" x="696" y="-259.3" font-family="Times New Roman,serif" font-size="14.00">dist_ai#7</text>
</a>
</g>
</g>
<!-- bn0 -->
<g id="node5" class="node"><title>bn0</title>
<ellipse fill="black" stroke="black" cx="439" cy="-336" rx="1.8" ry="1.8"/>
</g>
<!-- http://example.org/dist_ai#7&#45;&gt;bn0 -->
<g id="edge3" class="edge"><title>http://example.org/dist_ai#7&#45;&gt;bn0</title>
<path fill="none" stroke="darkgreen" d="M660.535,-273.798C593.889,-292.21 455.278,-330.503 440.317,-334.636"/>
<text text-anchor="middle" x="641.035" y="-277.598" font-family="Times New Roman,serif" font-size="14.00">der&#45;ins</text>
</g>
<!-- http://example.org/access92 -->
<g id="node9" class="node"><title>http://example.org/access92</title>
<g id="a_node9"><a xlink:href="http://example.org/access92" xlink:title="access92">
<polygon fill="#9fb1fc" stroke="#0000ff" points="1085,-354 1017,-354 1017,-318 1085,-318 1085,-354"/>
<text text-anchor="middle" x="1051" y="-332.3" font-family="Times New Roman,serif" font-size="14.00">access92</text>
</a>
</g>
</g>
<!-- http://example.org/dist_ai#7&#45;&gt;http://example.org/access92 -->
<g id="edge11" class="edge"><title>http://example.org/dist_ai#7&#45;&gt;http://example.org/access92</title>
<path fill="none" stroke="black" d="M739.494,-266.418C811.596,-270.859 952.543,-281.499 999,-299 1007.27,-302.116 1015.48,-306.832 1022.85,-311.834"/>
<polygon fill="black" stroke="black" points="1020.92,-314.751 1031.07,-317.758 1025.01,-309.072 1020.92,-314.751"/>
<text text-anchor="middle" x="747.815" y="-252.037" font-family="Times New Roman,serif" font-size="8.00">gen</text>
</g>
<!-- http://example.org/disti#6 -->
<g id="node11" class="node"><title>http://example.org/disti#6</title>
<ellipse fill="none" stroke="black" cx="1008" cy="-423" rx="102.882" ry="18"/>
<text text-anchor="middle" x="1008" y="-419.3" font-family="Times New Roman,serif" font-size="14.00">http://example.org/disti#6</text>
</g>
<!-- http://example.org/dist_ai#7&#45;&gt;http://example.org/disti#6 -->
<g id="edge10" class="edge"><title>http://example.org/dist_ai#7&#45;&gt;http://example.org/disti#6</title>
<path fill="none" stroke="black" d="M739.694,-266.632C786.995,-271.209 863.146,-283.735 919,-318 950.972,-337.614 977.351,-372.576 992.88,-396.504"/>
<polygon fill="black" stroke="black" points="989.994,-398.489 998.29,-405.079 995.915,-394.754 989.994,-398.489"/>
<text text-anchor="middle" x="748.549" y="-252.625" font-family="Times New Roman,serif" font-size="8.00">der</text>
</g>
<!-- &#45;attrs0 -->
<g id="node2" class="node"><title>&#45;attrs0</title>
<polygon fill="none" stroke="gray" points="640.5,-208 547.5,-208 547.5,-159 646.5,-159 646.5,-202 640.5,-208"/>
<polyline fill="none" stroke="gray" points="640.5,-208 640.5,-202 "/>
<polyline fill="none" stroke="gray" points="646.5,-202 640.5,-202 "/>
<text text-anchor="start" x="558" y="-193.5" font-family="Times New Roman,serif" font-size="10.00">value:</text>
<text text-anchor="start" x="585" y="-193.5" font-family="Times New Roman,serif" font-size="10.00">&quot;[0, 1, 3]&quot;</text>
<text text-anchor="start" x="558" y="-180.5" font-family="Times New Roman,serif" font-size="10.00">type:</text>
<text text-anchor="start" x="585" y="-180.5" font-family="Times New Roman,serif" font-size="10.00">&quot;Dictionary&quot;</text>
<text text-anchor="start" x="558" y="-167.5" font-family="Times New Roman,serif" font-size="10.00">label:</text>
<text text-anchor="start" x="585" y="-167.5" font-family="Times New Roman,serif" font-size="10.00">&quot;dist[i]&quot;</text>
</g>
<!-- &#45;attrs0&#45;&gt;http://example.org/dist_ai#7 -->
<g id="edge1" class="edge"><title>&#45;attrs0&#45;&gt;http://example.org/dist_ai#7</title>
<path fill="none" stroke="gray" stroke-dasharray="5,2" d="M627.241,-208.174C643.277,-220.727 662.507,-235.781 676.548,-246.772"/>
</g>
<!-- http://example.org/edist_ai#7 -->
<g id="node3" class="node"><title>http://example.org/edist_ai#7</title>
<g id="a_node3"><a xlink:href="http://example.org/edist_ai#7" xlink:title="edist_ai#7">
<ellipse fill="#fffc87" stroke="#808080" cx="62" cy="-423" rx="48.1917" ry="18"/>
<text text-anchor="middle" x="62" y="-419.3" font-family="Times New Roman,serif" font-size="14.00">edist_ai#7</text>
</a>
</g>
</g>
<!-- &#45;attrs1 -->
<g id="node4" class="node"><title>&#45;attrs1</title>
<polygon fill="none" stroke="gray" points="118,-354 0,-354 0,-318 124,-318 124,-348 118,-354"/>
<polyline fill="none" stroke="gray" points="118,-354 118,-348 "/>
<polyline fill="none" stroke="gray" points="124,-348 118,-348 "/>
<text text-anchor="start" x="10" y="-340" font-family="Times New Roman,serif" font-size="10.00">value:</text>
<text text-anchor="start" x="37" y="-340" font-family="Times New Roman,serif" font-size="10.00">&quot;[]&quot;</text>
<text text-anchor="start" x="10" y="-327" font-family="Times New Roman,serif" font-size="10.00">type:</text>
<text text-anchor="start" x="37" y="-327" font-family="Times New Roman,serif" font-size="10.00">&quot;EmptyDictionary&quot;</text>
</g>
<!-- &#45;attrs1&#45;&gt;http://example.org/edist_ai#7 -->
<g id="edge2" class="edge"><title>&#45;attrs1&#45;&gt;http://example.org/edist_ai#7</title>
<path fill="none" stroke="gray" stroke-dasharray="5,2" d="M62,-354.201C62,-368.948 62,-390.085 62,-404.825"/>
</g>
<!-- bn0&#45;&gt;http://example.org/edist_ai#7 -->
<g id="edge4" class="edge"><title>bn0&#45;&gt;http://example.org/edist_ai#7</title>
<path fill="none" stroke="darkgreen" d="M437.434,-337.286C419.593,-340.553 252.839,-371.348 120,-405 116.106,-405.986 112.08,-407.058 108.048,-408.167"/>
<polygon fill="darkgreen" stroke="darkgreen" points="106.761,-404.893 98.0857,-410.975 108.66,-411.631 106.761,-404.893"/>
<text text-anchor="middle" x="269.5" y="-375.8" font-family="Times New Roman,serif" font-size="14.00">der</text>
</g>
<!-- http://example.org/list00 -->
<g id="node6" class="node"><title>http://example.org/list00</title>
<ellipse fill="none" stroke="black" cx="226" cy="-423" rx="97.4827" ry="18"/>
<text text-anchor="middle" x="226" y="-419.3" font-family="Times New Roman,serif" font-size="14.00">http://example.org/list00</text>
</g>
<!-- bn0&#45;&gt;http://example.org/list00 -->
<g id="edge5" class="edge"><title>bn0&#45;&gt;http://example.org/list00</title>
<path fill="none" stroke="darkgreen" d="M437.404,-337.406C427.324,-339.99 371.524,-354.585 328,-372 306.854,-380.461 284.028,-391.464 265.342,-400.993"/>
<polygon fill="darkgreen" stroke="darkgreen" points="263.539,-397.985 256.254,-405.677 266.746,-404.207 263.539,-397.985"/>
<text text-anchor="middle" x="336" y="-375.8" font-family="Times New Roman,serif" font-size="14.00">[0]</text>
</g>
<!-- http://example.org/list01 -->
<g id="node7" class="node"><title>http://example.org/list01</title>
<ellipse fill="none" stroke="black" cx="439" cy="-423" rx="97.4827" ry="18"/>
<text text-anchor="middle" x="439" y="-419.3" font-family="Times New Roman,serif" font-size="14.00">http://example.org/list01</text>
</g>
<!-- bn0&#45;&gt;http://example.org/list01 -->
<g id="edge6" class="edge"><title>bn0&#45;&gt;http://example.org/list01</title>
<path fill="none" stroke="darkgreen" d="M439,-337.955C439,-343.528 439,-372.391 439,-394.755"/>
<polygon fill="darkgreen" stroke="darkgreen" points="435.5,-394.773 439,-404.773 442.5,-394.773 435.5,-394.773"/>
<text text-anchor="middle" x="447" y="-375.8" font-family="Times New Roman,serif" font-size="14.00">[1]</text>
</g>
<!-- http://example.org/disti_aj#14 -->
<g id="node8" class="node"><title>http://example.org/disti_aj#14</title>
<ellipse fill="none" stroke="black" cx="673" cy="-423" rx="118.079" ry="18"/>
<text text-anchor="middle" x="673" y="-419.3" font-family="Times New Roman,serif" font-size="14.00">http://example.org/disti_aj#14</text>
</g>
<!-- bn0&#45;&gt;http://example.org/disti_aj#14 -->
<g id="edge7" class="edge"><title>bn0&#45;&gt;http://example.org/disti_aj#14</title>
<path fill="none" stroke="darkgreen" d="M440.41,-337.357C450.227,-339.855 509.349,-355.115 556,-372 580.336,-380.808 606.903,-392.027 628.561,-401.604"/>
<polygon fill="darkgreen" stroke="darkgreen" points="627.272,-404.862 637.831,-405.736 630.122,-398.468 627.272,-404.862"/>
<text text-anchor="middle" x="600" y="-375.8" font-family="Times New Roman,serif" font-size="14.00">[2]</text>
</g>
<!-- http://example.org/access92&#45;&gt;http://example.org/disti#6 -->
<g id="edge9" class="edge"><title>http://example.org/access92&#45;&gt;http://example.org/disti#6</title>
<path fill="none" stroke="black" d="M1042.3,-354.201C1036.3,-366.068 1028.2,-382.072 1021.38,-395.551"/>
<polygon fill="black" stroke="black" points="1018.08,-394.321 1016.69,-404.825 1024.33,-397.481 1018.08,-394.321"/>
<text text-anchor="middle" x="1050.5" y="-364.857" font-family="Times New Roman,serif" font-size="8.00">use</text>
</g>
<!-- http://example.org/dist#3 -->
<g id="node12" class="node"><title>http://example.org/dist#3</title>
<ellipse fill="none" stroke="black" cx="1229" cy="-423" rx="100.983" ry="18"/>
<text text-anchor="middle" x="1229" y="-419.3" font-family="Times New Roman,serif" font-size="14.00">http://example.org/dist#3</text>
</g>
<!-- http://example.org/access92&#45;&gt;http://example.org/dist#3 -->
<g id="edge12" class="edge"><title>http://example.org/access92&#45;&gt;http://example.org/dist#3</title>
<path fill="none" stroke="black" d="M1085.32,-353.389C1114.07,-367.117 1155.24,-386.779 1186.15,-401.539"/>
<polygon fill="black" stroke="black" points="1184.86,-404.799 1195.39,-405.95 1187.87,-398.482 1184.86,-404.799"/>
<text text-anchor="middle" x="1097.69" y="-342.998" font-family="Times New Roman,serif" font-size="8.00">use</text>
</g>
<!-- http://example.org/i#7 -->
<g id="node13" class="node"><title>http://example.org/i#7</title>
<ellipse fill="none" stroke="black" cx="1437" cy="-423" rx="89.8845" ry="18"/>
<text text-anchor="middle" x="1437" y="-419.3" font-family="Times New Roman,serif" font-size="14.00">http://example.org/i#7</text>
</g>
<!-- http://example.org/access92&#45;&gt;http://example.org/i#7 -->
<g id="edge13" class="edge"><title>http://example.org/access92&#45;&gt;http://example.org/i#7</title>
<path fill="none" stroke="black" d="M1085.25,-344.543C1148.82,-358.54 1286.09,-388.768 1369.1,-407.048"/>
<polygon fill="black" stroke="black" points="1368.43,-410.484 1378.95,-409.216 1369.93,-403.647 1368.43,-410.484"/>
<text text-anchor="middle" x="1095.37" y="-331.57" font-family="Times New Roman,serif" font-size="8.00">use</text>
</g>
<!-- &#45;attrs2 -->
<g id="node10" class="node"><title>&#45;attrs2</title>
<polygon fill="none" stroke="gray" points="1085,-281 1011,-281 1011,-245 1091,-245 1091,-275 1085,-281"/>
<polyline fill="none" stroke="gray" points="1085,-281 1085,-275 "/>
<polyline fill="none" stroke="gray" points="1091,-275 1085,-275 "/>
<text text-anchor="start" x="1021" y="-260" font-family="Times New Roman,serif" font-size="10.00">type:</text>
<text text-anchor="start" x="1044" y="-260" font-family="Times New Roman,serif" font-size="10.00">&quot;access&quot;</text>
</g>
<!-- &#45;attrs2&#45;&gt;http://example.org/access92 -->
<g id="edge8" class="edge"><title>&#45;attrs2&#45;&gt;http://example.org/access92</title>
<path fill="none" stroke="gray" stroke-dasharray="5,2" d="M1051,-281.187C1051,-292.35 1051,-306.84 1051,-317.971"/>
</g>
<!-- http://example.org/disti#9 -->
<g id="node14" class="node"><title>http://example.org/disti#9</title>
<g id="a_node14"><a xlink:href="http://example.org/disti#9" xlink:title="disti#9">
<ellipse fill="#fffc87" stroke="#808080" cx="677" cy="-104" rx="35.194" ry="18"/>
<text text-anchor="middle" x="677" y="-100.3" font-family="Times New Roman,serif" font-size="14.00">disti#9</text>
</a>
</g>
</g>
<!-- http://example.org/disti#9&#45;&gt;http://example.org/dist_ai#7 -->
<g id="edge23" class="edge"><title>http://example.org/disti#9&#45;&gt;http://example.org/dist_ai#7</title>
<path fill="none" stroke="black" d="M679.07,-122.101C682.353,-149.234 688.786,-202.386 692.707,-234.793"/>
<polygon fill="black" stroke="black" points="689.257,-235.413 693.933,-244.92 696.206,-234.572 689.257,-235.413"/>
<text text-anchor="middle" x="692.867" y="-126.086" font-family="Times New Roman,serif" font-size="8.00">der</text>
</g>
<!-- bn1 -->
<g id="node18" class="node"><title>bn1</title>
<ellipse fill="black" stroke="black" cx="673" cy="-336" rx="1.8" ry="1.8"/>
</g>
<!-- http://example.org/disti#9&#45;&gt;bn1 -->
<g id="edge16" class="edge"><title>http://example.org/disti#9&#45;&gt;bn1</title>
<path fill="none" stroke="darkgreen" d="M703.742,-115.734C730.474,-127.074 768.762,-145.19 777,-159 788.156,-177.703 780.966,-186.586 777,-208 770.672,-242.168 770.296,-253.541 749,-281 725.987,-310.673 682.267,-330.913 674.272,-334.448"/>
<text text-anchor="middle" x="723.242" y="-119.534" font-family="Times New Roman,serif" font-size="14.00">der&#45;ins</text>
</g>
<!-- http://example.org/assign35 -->
<g id="node19" class="node"><title>http://example.org/assign35</title>
<g id="a_node19"><a xlink:href="http://example.org/assign35" xlink:title="assign35">
<polygon fill="#9fb1fc" stroke="#0000ff" points="768.5,-201.5 703.5,-201.5 703.5,-165.5 768.5,-165.5 768.5,-201.5"/>
<text text-anchor="middle" x="736" y="-179.8" font-family="Times New Roman,serif" font-size="14.00">assign35</text>
</a>
</g>
</g>
<!-- http://example.org/disti#9&#45;&gt;http://example.org/assign35 -->
<g id="edge24" class="edge"><title>http://example.org/disti#9&#45;&gt;http://example.org/assign35</title>
<path fill="none" stroke="black" d="M689.225,-121.058C697.156,-131.476 707.659,-145.272 716.702,-157.152"/>
<polygon fill="black" stroke="black" points="714.13,-159.551 722.972,-165.387 719.7,-155.311 714.13,-159.551"/>
<text text-anchor="middle" x="704.104" y="-117.257" font-family="Times New Roman,serif" font-size="8.00">gen</text>
</g>
<!-- &#45;attrs3 -->
<g id="node15" class="node"><title>&#45;attrs3</title>
<polygon fill="none" stroke="gray" points="720.5,-49 627.5,-49 627.5,-0 726.5,-0 726.5,-43 720.5,-49"/>
<polyline fill="none" stroke="gray" points="720.5,-49 720.5,-43 "/>
<polyline fill="none" stroke="gray" points="726.5,-43 720.5,-43 "/>
<text text-anchor="start" x="638" y="-34.5" font-family="Times New Roman,serif" font-size="10.00">value:</text>
<text text-anchor="start" x="665" y="-34.5" font-family="Times New Roman,serif" font-size="10.00">&quot;[0, 1, 3]&quot;</text>
<text text-anchor="start" x="638" y="-21.5" font-family="Times New Roman,serif" font-size="10.00">type:</text>
<text text-anchor="start" x="665" y="-21.5" font-family="Times New Roman,serif" font-size="10.00">&quot;Dictionary&quot;</text>
<text text-anchor="start" x="638" y="-8.5" font-family="Times New Roman,serif" font-size="10.00">label:</text>
<text text-anchor="start" x="665" y="-8.5" font-family="Times New Roman,serif" font-size="10.00">&quot;disti&quot;</text>
</g>
<!-- &#45;attrs3&#45;&gt;http://example.org/disti#9 -->
<g id="edge14" class="edge"><title>&#45;attrs3&#45;&gt;http://example.org/disti#9</title>
<path fill="none" stroke="gray" stroke-dasharray="5,2" d="M677,-49.1737C677,-60.9254 677,-74.869 677,-85.6196"/>
</g>
<!-- http://example.org/edisti#7 -->
<g id="node16" class="node"><title>http://example.org/edisti#7</title>
<g id="a_node16"><a xlink:href="http://example.org/edisti#7" xlink:title="edisti#7">
<ellipse fill="#fffc87" stroke="#808080" cx="848" cy="-423" rx="38.9931" ry="18"/>
<text text-anchor="middle" x="848" y="-419.3" font-family="Times New Roman,serif" font-size="14.00">edisti#7</text>
</a>
</g>
</g>
<!-- &#45;attrs4 -->
<g id="node17" class="node"><title>&#45;attrs4</title>
<polygon fill="none" stroke="gray" points="904,-354 786,-354 786,-318 910,-318 910,-348 904,-354"/>
<polyline fill="none" stroke="gray" points="904,-354 904,-348 "/>
<polyline fill="none" stroke="gray" points="910,-348 904,-348 "/>
<text text-anchor="start" x="796" y="-340" font-family="Times New Roman,serif" font-size="10.00">value:</text>
<text text-anchor="start" x="823" y="-340" font-family="Times New Roman,serif" font-size="10.00">&quot;[]&quot;</text>
<text text-anchor="start" x="796" y="-327" font-family="Times New Roman,serif" font-size="10.00">type:</text>
<text text-anchor="start" x="823" y="-327" font-family="Times New Roman,serif" font-size="10.00">&quot;EmptyDictionary&quot;</text>
</g>
<!-- &#45;attrs4&#45;&gt;http://example.org/edisti#7 -->
<g id="edge15" class="edge"><title>&#45;attrs4&#45;&gt;http://example.org/edisti#7</title>
<path fill="none" stroke="gray" stroke-dasharray="5,2" d="M848,-354.201C848,-368.948 848,-390.085 848,-404.825"/>
</g>
<!-- bn1&#45;&gt;http://example.org/list00 -->
<g id="edge18" class="edge"><title>bn1&#45;&gt;http://example.org/list00</title>
<path fill="none" stroke="darkgreen" d="M671.376,-337.15C655.343,-338.648 523.804,-351.277 419,-372 373.803,-380.937 323.43,-394.097 285.482,-404.674"/>
<polygon fill="darkgreen" stroke="darkgreen" points="284.301,-401.37 275.619,-407.442 286.193,-408.109 284.301,-401.37"/>
<text text-anchor="middle" x="427" y="-375.8" font-family="Times New Roman,serif" font-size="14.00">[0]</text>
</g>
<!-- bn1&#45;&gt;http://example.org/list01 -->
<g id="edge19" class="edge"><title>bn1&#45;&gt;http://example.org/list01</title>
<path fill="none" stroke="darkgreen" d="M671.614,-337.231C660.892,-339.041 590.159,-351.427 536,-372 515.338,-379.849 493.363,-390.928 475.563,-400.663"/>
<polygon fill="darkgreen" stroke="darkgreen" points="473.706,-397.691 466.664,-405.607 477.105,-403.81 473.706,-397.691"/>
<text text-anchor="middle" x="544" y="-375.8" font-family="Times New Roman,serif" font-size="14.00">[1]</text>
</g>
<!-- bn1&#45;&gt;http://example.org/disti_aj#14 -->
<g id="edge20" class="edge"><title>bn1&#45;&gt;http://example.org/disti_aj#14</title>
<path fill="none" stroke="darkgreen" d="M673,-337.955C673,-343.528 673,-372.391 673,-394.755"/>
<polygon fill="darkgreen" stroke="darkgreen" points="669.5,-394.773 673,-404.773 676.5,-394.773 669.5,-394.773"/>
<text text-anchor="middle" x="681" y="-375.8" font-family="Times New Roman,serif" font-size="14.00">[2]</text>
</g>
<!-- bn1&#45;&gt;http://example.org/edisti#7 -->
<g id="edge17" class="edge"><title>bn1&#45;&gt;http://example.org/edisti#7</title>
<path fill="none" stroke="darkgreen" d="M674.118,-337.543C684.542,-342.606 765.455,-381.907 813.148,-405.072"/>
<polygon fill="darkgreen" stroke="darkgreen" points="811.689,-408.254 822.213,-409.475 814.748,-401.958 811.689,-408.254"/>
<text text-anchor="middle" x="780.5" y="-375.8" font-family="Times New Roman,serif" font-size="14.00">der</text>
</g>
<!-- http://example.org/assign35&#45;&gt;http://example.org/dist_ai#7 -->
<g id="edge22" class="edge"><title>http://example.org/assign35&#45;&gt;http://example.org/dist_ai#7</title>
<path fill="none" stroke="black" d="M727.123,-201.7C721.908,-211.803 715.214,-224.772 709.372,-236.093"/>
<polygon fill="black" stroke="black" points="706.191,-234.623 704.715,-245.115 712.412,-237.834 706.191,-234.623"/>
<text text-anchor="middle" x="735.226" y="-212.422" font-family="Times New Roman,serif" font-size="8.00">use</text>
</g>
<!-- &#45;attrs5 -->
<g id="node20" class="node"><title>&#45;attrs5</title>
<polygon fill="none" stroke="gray" points="803.5,-122 730.5,-122 730.5,-86 809.5,-86 809.5,-116 803.5,-122"/>
<polyline fill="none" stroke="gray" points="803.5,-122 803.5,-116 "/>
<polyline fill="none" stroke="gray" points="809.5,-116 803.5,-116 "/>
<text text-anchor="start" x="741" y="-101" font-family="Times New Roman,serif" font-size="10.00">type:</text>
<text text-anchor="start" x="764" y="-101" font-family="Times New Roman,serif" font-size="10.00">&quot;assign&quot;</text>
</g>
<!-- &#45;attrs5&#45;&gt;http://example.org/assign35 -->
<g id="edge21" class="edge"><title>&#45;attrs5&#45;&gt;http://example.org/assign35</title>
<path fill="none" stroke="gray" stroke-dasharray="5,2" d="M762.454,-122.2C756.82,-135.043 749.154,-152.517 743.525,-165.348"/>
</g>
</g>
</svg>
