<?xml version="1.0" encoding="UTF-8" standalone="no"?>
<!DOCTYPE svg PUBLIC "-//W3C//DTD SVG 1.1//EN"
 "http://www.w3.org/Graphics/SVG/1.1/DTD/svg11.dtd">
<!-- Generated by graphviz version 2.38.0 (20140413.2041)
 -->
<!-- Title: PROV Pages: 1 -->
<svg width="1152pt" height="357pt"
 viewBox="0.00 0.00 1152.00 356.62" xmlns="http://www.w3.org/2000/svg" xmlns:xlink="http://www.w3.org/1999/xlink">
<g id="graph0" class="graph" transform="scale(0.794246 0.794246) rotate(0) translate(4 445)">
<title>PROV</title>
<polygon fill="white" stroke="none" points="-4,4 -4,-445 1446.43,-445 1446.43,4 -4,4"/>
<!-- http://example.org/dist_ai -->
<g id="node1" class="node"><title>http://example.org/dist_ai</title>
<g id="a_node1"><a xlink:href="http://example.org/dist_ai" xlink:title="dist_ai">
<ellipse fill="#fffc87" stroke="#808080" cx="815.491" cy="-263" rx="34.394" ry="18"/>
<text text-anchor="middle" x="815.491" y="-259.3" font-family="Times New Roman,serif" font-size="14.00">dist_ai</text>
</a>
</g>
</g>
<!-- bn0 -->
<g id="node3" class="node"><title>bn0</title>
<ellipse fill="black" stroke="black" cx="569.491" cy="-336" rx="1.8" ry="1.8"/>
</g>
<!-- http://example.org/dist_ai&#45;&gt;bn0 -->
<g id="edge2" class="edge"><title>http://example.org/dist_ai&#45;&gt;bn0</title>
<path fill="none" stroke="#000000" d="M785.818,-272.564C723.968,-290.415 585.74,-330.31 570.807,-334.62"/>
<text text-anchor="middle" x="766.318" y="-276.364" font-family="Times New Roman,serif" font-size="14.00">der&#45;ins</text>
</g>
<!-- http://example.org/access5 -->
<g id="node8" class="node"><title>http://example.org/access5</title>
<g id="a_node8"><a xlink:href="http://example.org/access5" xlink:title="access5">
<polygon fill="#f0f0f0" stroke="gray" points="1175.99,-354 1114.99,-354 1114.99,-318 1175.99,-318 1175.99,-354"/>
<text text-anchor="middle" x="1145.49" y="-332.3" font-family="Times New Roman,serif" font-size="14.00" fill="gray">access5</text>
</a>
</g>
</g>
<!-- http://example.org/dist_ai&#45;&gt;http://example.org/access5 -->
<g id="edge10" class="edge"><title>http://example.org/dist_ai&#45;&gt;http://example.org/access5</title>
<path fill="none" stroke="gray" d="M846.834,-270.744C906.852,-283.656 1037.96,-311.864 1104.7,-326.223"/>
<polygon fill="gray" stroke="gray" points="1104.32,-329.723 1114.84,-328.405 1105.8,-322.88 1104.32,-329.723"/>
<text text-anchor="middle" x="856.899" y="-257.721" font-family="Times New Roman,serif" font-size="8.00" fill="gray">gen</text>
</g>
<!-- http://example.org/list1 -->
<g id="node10" class="node"><title>http://example.org/list1</title>
<ellipse fill="none" stroke="black" cx="1349.49" cy="-423" rx="92.8835" ry="18"/>
<text text-anchor="middle" x="1349.49" y="-419.3" font-family="Times New Roman,serif" font-size="14.00">http://example.org/list1</text>
</g>
<!-- http://example.org/dist_ai&#45;&gt;http://example.org/list1 -->
<g id="edge9" class="edge"><title>http://example.org/dist_ai&#45;&gt;http://example.org/list1</title>
<path fill="none" stroke="gray" d="M850.083,-264.282C916.983,-265.849 1067.86,-274.39 1185.49,-318 1237.21,-337.176 1289.81,-374.323 1321.04,-398.636"/>
<polygon fill="gray" stroke="gray" points="1319.25,-401.678 1329.26,-405.127 1323.58,-396.184 1319.25,-401.678"/>
<text text-anchor="middle" x="857.988" y="-249.634" font-family="Times New Roman,serif" font-size="8.00" fill="gray">der</text>
</g>
<!-- &#45;attrs0 -->
<g id="node2" class="node"><title>&#45;attrs0</title>
<polygon fill="none" stroke="gray" points="760.491,-208 672.491,-208 672.491,-159 766.491,-159 766.491,-202 760.491,-208"/>
<polyline fill="none" stroke="gray" points="760.491,-208 760.491,-202 "/>
<polyline fill="none" stroke="gray" points="766.491,-202 760.491,-202 "/>
<text text-anchor="start" x="682.491" y="-193.5" font-family="Times New Roman,serif" font-size="10.00">value:</text>
<text text-anchor="start" x="709.491" y="-193.5" font-family="Times New Roman,serif" font-size="10.00">[10000, 0, 2]</text>
<text text-anchor="start" x="682.491" y="-180.5" font-family="Times New Roman,serif" font-size="10.00">type:</text>
<text text-anchor="start" x="709.491" y="-180.5" font-family="Times New Roman,serif" font-size="10.00">Dictionary</text>
<text text-anchor="start" x="682.491" y="-167.5" font-family="Times New Roman,serif" font-size="10.00">label:</text>
<text text-anchor="start" x="709.491" y="-167.5" font-family="Times New Roman,serif" font-size="10.00">dist[i]</text>
</g>
<!-- &#45;attrs0&#45;&gt;http://example.org/dist_ai -->
<g id="edge1" class="edge"><title>&#45;attrs0&#45;&gt;http://example.org/dist_ai</title>
<path fill="none" stroke="gray" stroke-dasharray="5,2" d="M748.816,-208.174C764.697,-220.994 783.808,-236.422 797.491,-247.468"/>
</g>
<!-- http://example.org/empty -->
<g id="node4" class="node"><title>http://example.org/empty</title>
<ellipse fill="none" stroke="black" cx="526.491" cy="-423" rx="100.983" ry="18"/>
<text text-anchor="middle" x="526.491" y="-419.3" font-family="Times New Roman,serif" font-size="14.00">http://example.org/empty</text>
</g>
<!-- bn0&#45;&gt;http://example.org/empty -->
<g id="edge3" class="edge"><title>bn0&#45;&gt;http://example.org/empty</title>
<path fill="none" stroke="#000000" d="M569.004,-338.264C566.776,-344.002 557.253,-368.132 547.491,-387 545.961,-389.958 544.285,-393.01 542.567,-396.021"/>
<polygon fill="#000000" stroke="#000000" points="539.457,-394.406 537.399,-404.799 545.489,-397.957 539.457,-394.406"/>
<text text-anchor="middle" x="564.991" y="-375.8" font-family="Times New Roman,serif" font-size="14.00">der</text>
</g>
<!-- http://example.org/list10 -->
<g id="node5" class="node"><title>http://example.org/list10</title>
<ellipse fill="none" stroke="black" cx="97.4913" cy="-423" rx="97.4827" ry="18"/>
<text text-anchor="middle" x="97.4913" y="-419.3" font-family="Times New Roman,serif" font-size="14.00">http://example.org/list10</text>
</g>
<!-- bn0&#45;&gt;http://example.org/list10 -->
<g id="edge4" class="edge"><title>bn0&#45;&gt;http://example.org/list10</title>
<path fill="none" stroke="#000000" d="M568.061,-337.304C556.996,-339.662 483.897,-355.406 425.491,-372 404.806,-377.877 400.528,-382.541 379.491,-387 303.002,-403.212 282.019,-394.862 204.491,-405 195.589,-406.164 186.286,-407.485 177.041,-408.864"/>
<polygon fill="#000000" stroke="#000000" points="176.417,-405.419 167.055,-410.379 177.467,-412.34 176.417,-405.419"/>
<text text-anchor="middle" x="433.491" y="-375.8" font-family="Times New Roman,serif" font-size="14.00">[0]</text>
</g>
<!-- http://example.org/list11 -->
<g id="node6" class="node"><title>http://example.org/list11</title>
<ellipse fill="none" stroke="black" cx="310.491" cy="-423" rx="97.4827" ry="18"/>
<text text-anchor="middle" x="310.491" y="-419.3" font-family="Times New Roman,serif" font-size="14.00">http://example.org/list11</text>
</g>
<!-- bn0&#45;&gt;http://example.org/list11 -->
<g id="edge5" class="edge"><title>bn0&#45;&gt;http://example.org/list11</title>
<path fill="none" stroke="#000000" d="M568.375,-337.433C561.329,-340.18 522.351,-355.6 492.491,-372 481.795,-377.875 480.745,-382.278 469.491,-387 446.126,-396.804 419.626,-404.034 395.053,-409.29"/>
<polygon fill="#000000" stroke="#000000" points="394.11,-405.91 385.019,-411.351 395.519,-412.767 394.11,-405.91"/>
<text text-anchor="middle" x="500.491" y="-375.8" font-family="Times New Roman,serif" font-size="14.00">[1]</text>
</g>
<!-- http://example.org/list12 -->
<g id="node7" class="node"><title>http://example.org/list12</title>
<ellipse fill="none" stroke="black" cx="742.491" cy="-423" rx="97.4827" ry="18"/>
<text text-anchor="middle" x="742.491" y="-419.3" font-family="Times New Roman,serif" font-size="14.00">http://example.org/list12</text>
</g>
<!-- bn0&#45;&gt;http://example.org/list12 -->
<g id="edge6" class="edge"><title>bn0&#45;&gt;http://example.org/list12</title>
<path fill="none" stroke="#000000" d="M570.596,-337.543C580.389,-342.354 653.106,-378.082 700.772,-401.502"/>
<polygon fill="#000000" stroke="#000000" points="699.426,-404.741 709.945,-406.009 702.513,-398.458 699.426,-404.741"/>
<text text-anchor="middle" x="674.491" y="-375.8" font-family="Times New Roman,serif" font-size="14.00">[2]</text>
</g>
<!-- http://example.org/access5&#45;&gt;http://example.org/list1 -->
<g id="edge8" class="edge"><title>http://example.org/access5&#45;&gt;http://example.org/list1</title>
<path fill="none" stroke="gray" d="M1157.17,-354.382C1165.48,-365.383 1177.59,-378.994 1191.49,-387 1205.39,-395.005 1238.33,-402.833 1270.55,-409.048"/>
<polygon fill="gray" stroke="gray" points="1270.03,-412.512 1280.51,-410.924 1271.33,-405.633 1270.03,-412.512"/>
<text text-anchor="middle" x="1172.04" y="-350.478" font-family="Times New Roman,serif" font-size="8.00" fill="gray">use</text>
</g>
<!-- http://example.org/dist -->
<g id="node11" class="node"><title>http://example.org/dist</title>
<ellipse fill="none" stroke="black" cx="949.491" cy="-423" rx="91.784" ry="18"/>
<text text-anchor="middle" x="949.491" y="-419.3" font-family="Times New Roman,serif" font-size="14.00">http://example.org/dist</text>
</g>
<!-- http://example.org/access5&#45;&gt;http://example.org/dist -->
<g id="edge11" class="edge"><title>http://example.org/access5&#45;&gt;http://example.org/dist</title>
<path fill="none" stroke="gray" d="M1114.87,-350.281C1082.75,-364.211 1031.91,-386.258 995.071,-402.233"/>
<polygon fill="gray" stroke="gray" points="993.337,-399.17 985.555,-406.36 996.122,-405.592 993.337,-399.17"/>
<text text-anchor="middle" x="1113.15" y="-363.283" font-family="Times New Roman,serif" font-size="8.00" fill="gray">use</text>
</g>
<!-- http://example.org/i#2 -->
<g id="node12" class="node"><title>http://example.org/i#2</title>
<ellipse fill="none" stroke="black" cx="1148.49" cy="-423" rx="89.8845" ry="18"/>
<text text-anchor="middle" x="1148.49" y="-419.3" font-family="Times New Roman,serif" font-size="14.00">http://example.org/i#2</text>
</g>
<!-- http://example.org/access5&#45;&gt;http://example.org/i#2 -->
<g id="edge12" class="edge"><title>http://example.org/access5&#45;&gt;http://example.org/i#2</title>
<path fill="none" stroke="gray" d="M1146.1,-354.201C1146.51,-365.837 1147.06,-381.452 1147.53,-394.763"/>
<polygon fill="gray" stroke="gray" points="1144.03,-394.954 1147.89,-404.825 1151.03,-394.707 1144.03,-394.954"/>
<text text-anchor="middle" x="1159.35" y="-359.338" font-family="Times New Roman,serif" font-size="8.00" fill="gray">use</text>
</g>
<!-- &#45;attrs1 -->
<g id="node9" class="node"><title>&#45;attrs1</title>
<polygon fill="none" stroke="#f0f0f0" points="1258.99,-281 1193.99,-281 1193.99,-245 1264.99,-245 1264.99,-275 1258.99,-281"/>
<polyline fill="none" stroke="#f0f0f0" points="1258.99,-281 1258.99,-275 "/>
<polyline fill="none" stroke="#f0f0f0" points="1264.99,-275 1258.99,-275 "/>
<text text-anchor="start" x="1204.49" y="-260" font-family="Times New Roman,serif" font-size="10.00" fill="#f0f0f0">type:</text>
<text text-anchor="start" x="1227.49" y="-260" font-family="Times New Roman,serif" font-size="10.00" fill="#f0f0f0">access</text>
</g>
<!-- &#45;attrs1&#45;&gt;http://example.org/access5 -->
<g id="edge7" class="edge"><title>&#45;attrs1&#45;&gt;http://example.org/access5</title>
<path fill="none" stroke="#f0f0f0" stroke-dasharray="5,2" d="M1209.16,-281.187C1195.95,-292.35 1178.81,-306.84 1165.64,-317.971"/>
</g>
<!-- http://example.org/disti -->
<g id="node13" class="node"><title>http://example.org/disti</title>
<g id="a_node13"><a xlink:href="http://example.org/disti" xlink:title="disti">
<ellipse fill="#fffc87" stroke="#808080" cx="782.491" cy="-104" rx="27" ry="18"/>
<text text-anchor="middle" x="782.491" y="-100.3" font-family="Times New Roman,serif" font-size="14.00">disti</text>
</a>
</g>
</g>
<!-- http://example.org/disti&#45;&gt;http://example.org/dist_ai -->
<g id="edge21" class="edge"><title>http://example.org/disti&#45;&gt;http://example.org/dist_ai</title>
<path fill="none" stroke="gray" d="M786.086,-122.101C791.789,-149.234 802.961,-202.386 809.773,-234.793"/>
<polygon fill="gray" stroke="gray" points="806.419,-235.854 811.901,-244.92 813.269,-234.414 806.419,-235.854"/>
<text text-anchor="middle" x="800.341" y="-124.868" font-family="Times New Roman,serif" font-size="8.00" fill="gray">der</text>
</g>
<!-- bn1 -->
<g id="node15" class="node"><title>bn1</title>
<ellipse fill="black" stroke="black" cx="449.491" cy="-336" rx="1.8" ry="1.8"/>
</g>
<!-- http://example.org/disti&#45;&gt;bn1 -->
<g id="edge14" class="edge"><title>http://example.org/disti&#45;&gt;bn1</title>
<path fill="none" stroke="#000000" d="M759.215,-113.46C734.541,-122.901 694.879,-139.447 663.491,-159 563.868,-221.061 459.744,-324.705 450.201,-334.285"/>
<text text-anchor="middle" x="739.715" y="-117.26" font-family="Times New Roman,serif" font-size="14.00">der&#45;ins</text>
</g>
<!-- http://example.org/assign7 -->
<g id="node16" class="node"><title>http://example.org/assign7</title>
<g id="a_node16"><a xlink:href="http://example.org/assign7" xlink:title="assign7">
<polygon fill="#f0f0f0" stroke="gray" points="880.491,-201.5 822.491,-201.5 822.491,-165.5 880.491,-165.5 880.491,-201.5"/>
<text text-anchor="middle" x="851.491" y="-179.8" font-family="Times New Roman,serif" font-size="14.00" fill="gray">assign7</text>
</a>
</g>
</g>
<!-- http://example.org/disti&#45;&gt;http://example.org/assign7 -->
<g id="edge22" class="edge"><title>http://example.org/disti&#45;&gt;http://example.org/assign7</title>
<path fill="none" stroke="gray" d="M795.795,-119.943C805.304,-130.623 818.32,-145.243 829.379,-157.663"/>
<polygon fill="gray" stroke="gray" points="827.043,-160.303 836.306,-165.444 832.271,-155.648 827.043,-160.303"/>
<text text-anchor="middle" x="810.485" y="-115.006" font-family="Times New Roman,serif" font-size="8.00" fill="gray">gen</text>
</g>
<!-- &#45;attrs2 -->
<g id="node14" class="node"><title>&#45;attrs2</title>
<polygon fill="none" stroke="gray" points="823.491,-49 735.491,-49 735.491,-0 829.491,-0 829.491,-43 823.491,-49"/>
<polyline fill="none" stroke="gray" points="823.491,-49 823.491,-43 "/>
<polyline fill="none" stroke="gray" points="829.491,-43 823.491,-43 "/>
<text text-anchor="start" x="745.491" y="-34.5" font-family="Times New Roman,serif" font-size="10.00">value:</text>
<text text-anchor="start" x="772.491" y="-34.5" font-family="Times New Roman,serif" font-size="10.00">[10000, 0, 2]</text>
<text text-anchor="start" x="745.491" y="-21.5" font-family="Times New Roman,serif" font-size="10.00">type:</text>
<text text-anchor="start" x="772.491" y="-21.5" font-family="Times New Roman,serif" font-size="10.00">Dictionary</text>
<text text-anchor="start" x="745.491" y="-8.5" font-family="Times New Roman,serif" font-size="10.00">label:</text>
<text text-anchor="start" x="772.491" y="-8.5" font-family="Times New Roman,serif" font-size="10.00">disti</text>
</g>
<!-- &#45;attrs2&#45;&gt;http://example.org/disti -->
<g id="edge13" class="edge"><title>&#45;attrs2&#45;&gt;http://example.org/disti</title>
<path fill="none" stroke="gray" stroke-dasharray="5,2" d="M782.491,-49.1737C782.491,-60.9254 782.491,-74.869 782.491,-85.6196"/>
</g>
<!-- bn1&#45;&gt;http://example.org/empty -->
<g id="edge15" class="edge"><title>bn1&#45;&gt;http://example.org/empty</title>
<path fill="none" stroke="#000000" d="M449.225,-337.792C447.602,-342.776 439.459,-370.147 450.491,-387 454.484,-393.1 459.833,-398.153 465.851,-402.336"/>
<polygon fill="#000000" stroke="#000000" points="464.043,-405.332 474.41,-407.516 467.668,-399.344 464.043,-405.332"/>
<text text-anchor="middle" x="459.991" y="-375.8" font-family="Times New Roman,serif" font-size="14.00">der</text>
</g>
<!-- bn1&#45;&gt;http://example.org/list10 -->
<g id="edge16" class="edge"><title>bn1&#45;&gt;http://example.org/list10</title>
<path fill="none" stroke="#000000" d="M448.217,-337.308C431.815,-341.268 261.027,-382.51 163.974,-405.946"/>
<polygon fill="#000000" stroke="#000000" points="163.144,-402.546 154.245,-408.295 164.787,-409.35 163.144,-402.546"/>
<text text-anchor="middle" x="303.491" y="-375.8" font-family="Times New Roman,serif" font-size="14.00">[0]</text>
</g>
<!-- bn1&#45;&gt;http://example.org/list11 -->
<g id="edge17" class="edge"><title>bn1&#45;&gt;http://example.org/list11</title>
<path fill="none" stroke="#000000" d="M448.195,-337.332C440.02,-339.463 394.948,-351.775 363.491,-372 352.352,-379.162 341.46,-388.828 332.476,-397.752"/>
<polygon fill="#000000" stroke="#000000" points="329.885,-395.396 325.415,-405.002 334.899,-400.28 329.885,-395.396"/>
<text text-anchor="middle" x="371.491" y="-375.8" font-family="Times New Roman,serif" font-size="14.00">[1]</text>
</g>
<!-- bn1&#45;&gt;http://example.org/list12 -->
<g id="edge18" class="edge"><title>bn1&#45;&gt;http://example.org/list12</title>
<path fill="none" stroke="#000000" d="M450.996,-337.796C457.822,-341.427 486.501,-356.896 508.491,-372 517.36,-378.091 517.645,-382.664 527.491,-387 528.297,-387.355 600.957,-399.147 661.58,-408.946"/>
<polygon fill="#000000" stroke="#000000" points="661.147,-412.421 671.578,-410.561 662.264,-405.511 661.147,-412.421"/>
<text text-anchor="middle" x="535.491" y="-375.8" font-family="Times New Roman,serif" font-size="14.00">[2]</text>
</g>
<!-- http://example.org/assign7&#45;&gt;http://example.org/dist_ai -->
<g id="edge20" class="edge"><title>http://example.org/assign7&#45;&gt;http://example.org/dist_ai</title>
<path fill="none" stroke="gray" d="M843.502,-201.7C838.824,-211.771 832.822,-224.69 827.576,-235.985"/>
<polygon fill="gray" stroke="gray" points="824.25,-234.836 823.211,-245.38 830.599,-237.785 824.25,-234.836"/>
<text text-anchor="middle" x="852.124" y="-212.074" font-family="Times New Roman,serif" font-size="8.00" fill="gray">use</text>
</g>
<!-- &#45;attrs3 -->
<g id="node17" class="node"><title>&#45;attrs3</title>
<polygon fill="none" stroke="#f0f0f0" points="891.491,-122 827.491,-122 827.491,-86 897.491,-86 897.491,-116 891.491,-122"/>
<polyline fill="none" stroke="#f0f0f0" points="891.491,-122 891.491,-116 "/>
<polyline fill="none" stroke="#f0f0f0" points="897.491,-116 891.491,-116 "/>
<text text-anchor="start" x="837.491" y="-101" font-family="Times New Roman,serif" font-size="10.00" fill="#f0f0f0">type:</text>
<text text-anchor="start" x="860.491" y="-101" font-family="Times New Roman,serif" font-size="10.00" fill="#f0f0f0">assign</text>
</g>
<!-- &#45;attrs3&#45;&gt;http://example.org/assign7 -->
<g id="edge19" class="edge"><title>&#45;attrs3&#45;&gt;http://example.org/assign7</title>
<path fill="none" stroke="#f0f0f0" stroke-dasharray="5,2" d="M860.05,-122.2C858.227,-135.043 855.747,-152.517 853.926,-165.348"/>
</g>
</g>
</svg>
