<?xml version="1.0" encoding="UTF-8" standalone="no"?>
<!DOCTYPE svg PUBLIC "-//W3C//DTD SVG 1.1//EN"
 "http://www.w3.org/Graphics/SVG/1.1/DTD/svg11.dtd">
<!-- Generated by graphviz version 2.38.0 (20140413.2041)
 -->
<!-- Title: PROV Pages: 1 -->
<svg width="496pt" height="273pt"
 viewBox="0.00 0.00 496.28 273.00" xmlns="http://www.w3.org/2000/svg" xmlns:xlink="http://www.w3.org/1999/xlink">
<g id="graph0" class="graph" transform="scale(1 1) rotate(0) translate(4 269)">
<title>PROV</title>
<polygon fill="white" stroke="none" points="-4,4 -4,-269 492.279,-269 492.279,4 -4,4"/>
<!-- http://example.org/i#9 -->
<g id="node1" class="node"><title>http://example.org/i#9</title>
<g id="a_node1"><a xlink:href="http://example.org/i#9" xlink:title="i#9">
<ellipse fill="#fffc87" stroke="#808080" cx="160.339" cy="-103" rx="27" ry="18"/>
<text text-anchor="middle" x="160.339" y="-99.3" font-family="Times New Roman,serif" font-size="14.00">i#9</text>
</a>
</g>
</g>
<!-- http://example.org/access57 -->
<g id="node3" class="node"><title>http://example.org/access57</title>
<g id="a_node3"><a xlink:href="http://example.org/access57" xlink:title="access57">
<polygon fill="#fafafa" stroke="#f0f0f0" points="225.339,-193 157.339,-193 157.339,-157 225.339,-157 225.339,-193"/>
<text text-anchor="middle" x="191.339" y="-171.3" font-family="Times New Roman,serif" font-size="14.00" fill="#f0f0f0">access57</text>
</a>
</g>
</g>
<!-- http://example.org/i#9&#45;&gt;http://example.org/access57 -->
<g id="edge5" class="edge"><title>http://example.org/i#9&#45;&gt;http://example.org/access57</title>
<path fill="none" stroke="#f0f0f0" d="M167.685,-120.589C171.209,-128.546 175.519,-138.278 179.49,-147.244"/>
<polygon fill="#f0f0f0" stroke="#f0f0f0" points="176.363,-148.827 183.612,-156.553 182.763,-145.992 176.363,-148.827"/>
<text text-anchor="middle" x="182.6" y="-120.286" font-family="Times New Roman,serif" font-size="8.00" fill="#f0f0f0">gen</text>
</g>
<!-- http://example.org/range_nodes2 -->
<g id="node4" class="node"><title>http://example.org/range_nodes2</title>
<ellipse fill="none" stroke="black" cx="129.339" cy="-247" rx="129.177" ry="18"/>
<text text-anchor="middle" x="129.339" y="-243.3" font-family="Times New Roman,serif" font-size="14.00">http://example.org/range_nodes2</text>
</g>
<!-- http://example.org/i#9&#45;&gt;http://example.org/range_nodes2 -->
<g id="edge2" class="edge"><title>http://example.org/i#9&#45;&gt;http://example.org/range_nodes2</title>
<path fill="none" stroke="#f0f0f0" d="M156.394,-121.174C154.026,-131.542 150.973,-145.022 148.339,-157 143.785,-177.701 138.787,-201.147 135.059,-218.776"/>
<polygon fill="#f0f0f0" stroke="#f0f0f0" points="131.558,-218.417 132.919,-228.925 138.407,-219.862 131.558,-218.417"/>
<text text-anchor="middle" x="167.391" y="-129.475" font-family="Times New Roman,serif" font-size="8.00" fill="#f0f0f0">der</text>
</g>
<!-- &#45;attrs0 -->
<g id="node2" class="node"><title>&#45;attrs0</title>
<polygon fill="none" stroke="gray" points="203.839,-49 110.839,-49 110.839,-0 209.839,-0 209.839,-43 203.839,-49"/>
<polyline fill="none" stroke="gray" points="203.839,-49 203.839,-43 "/>
<polyline fill="none" stroke="gray" points="209.839,-43 203.839,-43 "/>
<text text-anchor="start" x="121.339" y="-34.5" font-family="Times New Roman,serif" font-size="10.00">value:</text>
<text text-anchor="start" x="148.339" y="-34.5" font-family="Times New Roman,serif" font-size="10.00">2</text>
<text text-anchor="start" x="121.339" y="-21.5" font-family="Times New Roman,serif" font-size="10.00">type:</text>
<text text-anchor="start" x="148.339" y="-21.5" font-family="Times New Roman,serif" font-size="10.00">name</text>
<text text-anchor="start" x="121.339" y="-8.5" font-family="Times New Roman,serif" font-size="10.00">label:</text>
<text text-anchor="start" x="148.339" y="-8.5" font-family="Times New Roman,serif" font-size="10.00">i, attrs=HIDE</text>
</g>
<!-- &#45;attrs0&#45;&gt;http://example.org/i#9 -->
<g id="edge1" class="edge"><title>&#45;attrs0&#45;&gt;http://example.org/i#9</title>
<path fill="none" stroke="gray" stroke-dasharray="5,2" d="M160.339,-49.2857C160.339,-60.6896 160.339,-74.105 160.339,-84.5482"/>
</g>
<!-- http://example.org/access57&#45;&gt;http://example.org/range_nodes2 -->
<g id="edge4" class="edge"><title>http://example.org/access57&#45;&gt;http://example.org/range_nodes2</title>
<path fill="none" stroke="#f0f0f0" d="M176.013,-193.303C168.58,-201.695 159.515,-211.93 151.359,-221.139"/>
<polygon fill="#f0f0f0" stroke="#f0f0f0" points="148.498,-219.089 144.488,-228.896 153.739,-223.73 148.498,-219.089"/>
<text text-anchor="middle" x="180.764" y="-205.631" font-family="Times New Roman,serif" font-size="8.00" fill="#f0f0f0">use</text>
</g>
<!-- http://example.org/indexes -->
<g id="node5" class="node"><title>http://example.org/indexes</title>
<ellipse fill="none" stroke="black" cx="382.339" cy="-247" rx="105.881" ry="18"/>
<text text-anchor="middle" x="382.339" y="-243.3" font-family="Times New Roman,serif" font-size="14.00">http://example.org/indexes</text>
</g>
<!-- http://example.org/access57&#45;&gt;http://example.org/indexes -->
<g id="edge3" class="edge"><title>http://example.org/access57&#45;&gt;http://example.org/indexes</title>
<path fill="none" stroke="#f0f0f0" d="M225.485,-188.515C254.589,-199.181 296.874,-214.678 330.209,-226.895"/>
<polygon fill="#f0f0f0" stroke="#f0f0f0" points="329.204,-230.254 339.797,-230.409 331.613,-223.682 329.204,-230.254"/>
<text text-anchor="middle" x="236.998" y="-176.998" font-family="Times New Roman,serif" font-size="8.00" fill="#f0f0f0">use</text>
</g>
</g>
</svg>
