<?xml version="1.0" encoding="UTF-8" standalone="no"?>
<!DOCTYPE svg PUBLIC "-//W3C//DTD SVG 1.1//EN"
 "http://www.w3.org/Graphics/SVG/1.1/DTD/svg11.dtd">
<!-- Generated by graphviz version 2.38.0 (20140413.2041)
 -->
<!-- Title: PROV Pages: 1 -->
<svg width="633pt" height="273pt"
 viewBox="0.00 0.00 632.73 273.00" xmlns="http://www.w3.org/2000/svg" xmlns:xlink="http://www.w3.org/1999/xlink">
<g id="graph0" class="graph" transform="scale(1 1) rotate(0) translate(4 269)">
<title>PROV</title>
<polygon fill="white" stroke="none" points="-4,4 -4,-269 628.733,-269 628.733,4 -4,4"/>
<!-- http://example.org/disti_aj#11 -->
<g id="node1" class="node"><title>http://example.org/disti_aj#11</title>
<g id="a_node1"><a xlink:href="http://example.org/disti_aj#11" xlink:title="disti_aj#11">
<ellipse fill="#fffc87" stroke="#808080" cx="138.491" cy="-103" rx="50.0912" ry="18"/>
<text text-anchor="middle" x="138.491" y="-99.3" font-family="Times New Roman,serif" font-size="14.00">disti_aj#11</text>
</a>
</g>
</g>
<!-- http://example.org/access52 -->
<g id="node3" class="node"><title>http://example.org/access52</title>
<g id="a_node3"><a xlink:href="http://example.org/access52" xlink:title="access52">
<polygon fill="#9fb1fc" stroke="#0000ff" points="335.491,-193 267.491,-193 267.491,-157 335.491,-157 335.491,-193"/>
<text text-anchor="middle" x="301.491" y="-171.3" font-family="Times New Roman,serif" font-size="14.00">access52</text>
</a>
</g>
</g>
<!-- http://example.org/disti_aj#11&#45;&gt;http://example.org/access52 -->
<g id="edge5" class="edge"><title>http://example.org/disti_aj#11&#45;&gt;http://example.org/access52</title>
<path fill="none" stroke="black" d="M169.534,-117.331C194.57,-128.083 230.079,-143.332 257.957,-155.304"/>
<polygon fill="black" stroke="black" points="256.9,-158.659 267.469,-159.389 259.662,-152.227 256.9,-158.659"/>
<text text-anchor="middle" x="181.551" y="-106.454" font-family="Times New Roman,serif" font-size="8.00">gen</text>
</g>
<!-- http://example.org/list00 -->
<g id="node5" class="node"><title>http://example.org/list00</title>
<ellipse fill="none" stroke="black" cx="97.4913" cy="-247" rx="97.4827" ry="18"/>
<text text-anchor="middle" x="97.4913" y="-243.3" font-family="Times New Roman,serif" font-size="14.00">http://example.org/list00</text>
</g>
<!-- http://example.org/disti_aj#11&#45;&gt;http://example.org/list00 -->
<g id="edge4" class="edge"><title>http://example.org/disti_aj#11&#45;&gt;http://example.org/list00</title>
<path fill="none" stroke="black" d="M133.546,-121.129C126.527,-145.436 113.608,-190.181 105.291,-218.987"/>
<polygon fill="black" stroke="black" points="101.866,-218.232 102.454,-228.811 108.591,-220.174 101.866,-218.232"/>
<text text-anchor="middle" x="143.946" y="-130.038" font-family="Times New Roman,serif" font-size="8.00">der</text>
</g>
<!-- &#45;attrs0 -->
<g id="node2" class="node"><title>&#45;attrs0</title>
<polygon fill="none" stroke="gray" points="174.491,-49 96.4913,-49 96.4913,-0 180.491,-0 180.491,-43 174.491,-49"/>
<polyline fill="none" stroke="gray" points="174.491,-49 174.491,-43 "/>
<polyline fill="none" stroke="gray" points="180.491,-43 174.491,-43 "/>
<text text-anchor="start" x="106.491" y="-34.5" font-family="Times New Roman,serif" font-size="10.00">value:</text>
<text text-anchor="start" x="133.491" y="-34.5" font-family="Times New Roman,serif" font-size="10.00">&quot;0&quot;</text>
<text text-anchor="start" x="106.491" y="-21.5" font-family="Times New Roman,serif" font-size="10.00">type:</text>
<text text-anchor="start" x="133.491" y="-21.5" font-family="Times New Roman,serif" font-size="10.00">&quot;access&quot;</text>
<text text-anchor="start" x="106.491" y="-8.5" font-family="Times New Roman,serif" font-size="10.00">label:</text>
<text text-anchor="start" x="133.491" y="-8.5" font-family="Times New Roman,serif" font-size="10.00">&quot;disti[j]&quot;</text>
</g>
<!-- &#45;attrs0&#45;&gt;http://example.org/disti_aj#11 -->
<g id="edge1" class="edge"><title>&#45;attrs0&#45;&gt;http://example.org/disti_aj#11</title>
<path fill="none" stroke="gray" stroke-dasharray="5,2" d="M138.491,-49.2857C138.491,-60.6896 138.491,-74.105 138.491,-84.5482"/>
</g>
<!-- http://example.org/access52&#45;&gt;http://example.org/list00 -->
<g id="edge3" class="edge"><title>http://example.org/access52&#45;&gt;http://example.org/list00</title>
<path fill="none" stroke="black" d="M267.346,-187.716C235.694,-198.578 188.086,-214.914 151.319,-227.53"/>
<polygon fill="black" stroke="black" points="150.063,-224.26 141.741,-230.816 152.335,-230.881 150.063,-224.26"/>
<text text-anchor="middle" x="264.469" y="-200.538" font-family="Times New Roman,serif" font-size="8.00">use</text>
</g>
<!-- http://example.org/disti#5 -->
<g id="node6" class="node"><title>http://example.org/disti#5</title>
<ellipse fill="none" stroke="black" cx="315.491" cy="-247" rx="102.882" ry="18"/>
<text text-anchor="middle" x="315.491" y="-243.3" font-family="Times New Roman,serif" font-size="14.00">http://example.org/disti#5</text>
</g>
<!-- http://example.org/access52&#45;&gt;http://example.org/disti#5 -->
<g id="edge6" class="edge"><title>http://example.org/access52&#45;&gt;http://example.org/disti#5</title>
<path fill="none" stroke="black" d="M304.952,-193.303C306.495,-201.017 308.349,-210.288 310.069,-218.888"/>
<polygon fill="black" stroke="black" points="306.677,-219.776 312.07,-228.896 313.541,-218.403 306.677,-219.776"/>
<text text-anchor="middle" x="319.161" y="-196.21" font-family="Times New Roman,serif" font-size="8.00">use</text>
</g>
<!-- http://example.org/j#10 -->
<g id="node7" class="node"><title>http://example.org/j#10</title>
<ellipse fill="none" stroke="black" cx="530.491" cy="-247" rx="94.4839" ry="18"/>
<text text-anchor="middle" x="530.491" y="-243.3" font-family="Times New Roman,serif" font-size="14.00">http://example.org/j#10</text>
</g>
<!-- http://example.org/access52&#45;&gt;http://example.org/j#10 -->
<g id="edge7" class="edge"><title>http://example.org/access52&#45;&gt;http://example.org/j#10</title>
<path fill="none" stroke="black" d="M335.775,-186.48C372.006,-197.555 429.773,-215.213 472.993,-228.424"/>
<polygon fill="black" stroke="black" points="472.225,-231.849 482.811,-231.425 474.271,-225.155 472.225,-231.849"/>
<text text-anchor="middle" x="346.745" y="-174.349" font-family="Times New Roman,serif" font-size="8.00">use</text>
</g>
<!-- &#45;attrs1 -->
<g id="node4" class="node"><title>&#45;attrs1</title>
<polygon fill="none" stroke="gray" points="335.491,-121 261.491,-121 261.491,-85 341.491,-85 341.491,-115 335.491,-121"/>
<polyline fill="none" stroke="gray" points="335.491,-121 335.491,-115 "/>
<polyline fill="none" stroke="gray" points="341.491,-115 335.491,-115 "/>
<text text-anchor="start" x="271.491" y="-100" font-family="Times New Roman,serif" font-size="10.00">type:</text>
<text text-anchor="start" x="294.491" y="-100" font-family="Times New Roman,serif" font-size="10.00">&quot;access&quot;</text>
</g>
<!-- &#45;attrs1&#45;&gt;http://example.org/access52 -->
<g id="edge2" class="edge"><title>&#45;attrs1&#45;&gt;http://example.org/access52</title>
<path fill="none" stroke="gray" stroke-dasharray="5,2" d="M301.491,-121.303C301.491,-132.154 301.491,-146.083 301.491,-156.896"/>
</g>
</g>
</svg>
