<?xml version="1.0" encoding="UTF-8" standalone="no"?>
<!DOCTYPE svg PUBLIC "-//W3C//DTD SVG 1.1//EN"
 "http://www.w3.org/Graphics/SVG/1.1/DTD/svg11.dtd">
<!-- Generated by graphviz version 2.38.0 (20140413.2041)
 -->
<!-- Title: PROV Pages: 1 -->
<svg width="1152pt" height="529pt"
 viewBox="0.00 0.00 1152.00 529.24" xmlns="http://www.w3.org/2000/svg" xmlns:xlink="http://www.w3.org/1999/xlink">
<g id="graph0" class="graph" transform="scale(0.901597 0.901597) rotate(0) translate(4 583)">
<title>PROV</title>
<polygon fill="white" stroke="none" points="-4,4 -4,-583 1273.73,-583 1273.73,4 -4,4"/>
<!-- http://example.org/disti_ak#6 -->
<g id="node1" class="node"><title>http://example.org/disti_ak#6</title>
<g id="a_node1"><a xlink:href="http://example.org/disti_ak#6" xlink:title="disti_ak#6">
<ellipse fill="#f0f0f0" stroke="gray" cx="345.491" cy="-417" rx="48.1917" ry="18"/>
<text text-anchor="middle" x="345.491" y="-413.3" font-family="Times New Roman,serif" font-size="14.00" fill="gray">disti_ak#6</text>
</a>
</g>
</g>
<!-- http://example.org/access52 -->
<g id="node3" class="node"><title>http://example.org/access52</title>
<g id="a_node3"><a xlink:href="http://example.org/access52" xlink:title="access52">
<polygon fill="#f0f0f0" stroke="gray" points="379.491,-507 311.491,-507 311.491,-471 379.491,-471 379.491,-507"/>
<text text-anchor="middle" x="345.491" y="-485.3" font-family="Times New Roman,serif" font-size="14.00" fill="gray">access52</text>
</a>
</g>
</g>
<!-- http://example.org/disti_ak#6&#45;&gt;http://example.org/access52 -->
<g id="edge5" class="edge"><title>http://example.org/disti_ak#6&#45;&gt;http://example.org/access52</title>
<path fill="none" stroke="gray" d="M345.491,-435.303C345.491,-443.017 345.491,-452.288 345.491,-460.888"/>
<polygon fill="gray" stroke="gray" points="341.991,-460.896 345.491,-470.896 348.991,-460.896 341.991,-460.896"/>
<text text-anchor="middle" x="358.482" y="-440.903" font-family="Times New Roman,serif" font-size="8.00" fill="gray">gen</text>
</g>
<!-- http://example.org/list12 -->
<g id="node5" class="node"><title>http://example.org/list12</title>
<ellipse fill="none" stroke="black" cx="97.4913" cy="-561" rx="97.4827" ry="18"/>
<text text-anchor="middle" x="97.4913" y="-557.3" font-family="Times New Roman,serif" font-size="14.00">http://example.org/list12</text>
</g>
<!-- http://example.org/disti_ak#6&#45;&gt;http://example.org/list12 -->
<g id="edge4" class="edge"><title>http://example.org/disti_ak#6&#45;&gt;http://example.org/list12</title>
<path fill="none" stroke="gray" d="M320.347,-432.397C276.552,-457.473 186.071,-509.281 134.894,-538.584"/>
<polygon fill="gray" stroke="gray" points="133.058,-535.602 126.119,-543.608 136.536,-541.677 133.058,-535.602"/>
<text text-anchor="middle" x="320.293" y="-445.497" font-family="Times New Roman,serif" font-size="8.00" fill="gray">der</text>
</g>
<!-- &#45;attrs0 -->
<g id="node2" class="node"><title>&#45;attrs0</title>
<polygon fill="none" stroke="#f0f0f0" points="442.991,-363 373.991,-363 373.991,-314 448.991,-314 448.991,-357 442.991,-363"/>
<polyline fill="none" stroke="#f0f0f0" points="442.991,-363 442.991,-357 "/>
<polyline fill="none" stroke="#f0f0f0" points="448.991,-357 442.991,-357 "/>
<text text-anchor="start" x="384.491" y="-348.5" font-family="Times New Roman,serif" font-size="10.00" fill="#f0f0f0">value:</text>
<text text-anchor="start" x="411.491" y="-348.5" font-family="Times New Roman,serif" font-size="10.00" fill="#f0f0f0">2</text>
<text text-anchor="start" x="384.491" y="-335.5" font-family="Times New Roman,serif" font-size="10.00" fill="#f0f0f0">type:</text>
<text text-anchor="start" x="411.491" y="-335.5" font-family="Times New Roman,serif" font-size="10.00" fill="#f0f0f0">access</text>
<text text-anchor="start" x="384.491" y="-322.5" font-family="Times New Roman,serif" font-size="10.00" fill="#f0f0f0">label:</text>
<text text-anchor="start" x="411.491" y="-322.5" font-family="Times New Roman,serif" font-size="10.00" fill="#f0f0f0">disti[k]</text>
</g>
<!-- &#45;attrs0&#45;&gt;http://example.org/disti_ak#6 -->
<g id="edge1" class="edge"><title>&#45;attrs0&#45;&gt;http://example.org/disti_ak#6</title>
<path fill="none" stroke="#f0f0f0" stroke-dasharray="5,2" d="M390.97,-363.286C380.829,-375.04 368.844,-388.932 359.724,-399.504"/>
</g>
<!-- http://example.org/access52&#45;&gt;http://example.org/list12 -->
<g id="edge3" class="edge"><title>http://example.org/access52&#45;&gt;http://example.org/list12</title>
<path fill="none" stroke="gray" d="M311.268,-499.66C271.861,-510.783 206.381,-529.265 158.254,-542.849"/>
<polygon fill="gray" stroke="gray" points="157.242,-539.498 148.569,-545.583 159.144,-546.235 157.242,-539.498"/>
<text text-anchor="middle" x="307.579" y="-512.299" font-family="Times New Roman,serif" font-size="8.00" fill="gray">use</text>
</g>
<!-- http://example.org/disti#8 -->
<g id="node6" class="node"><title>http://example.org/disti#8</title>
<ellipse fill="none" stroke="black" cx="315.491" cy="-561" rx="102.882" ry="18"/>
<text text-anchor="middle" x="315.491" y="-557.3" font-family="Times New Roman,serif" font-size="14.00">http://example.org/disti#8</text>
</g>
<!-- http://example.org/access52&#45;&gt;http://example.org/disti#8 -->
<g id="edge6" class="edge"><title>http://example.org/access52&#45;&gt;http://example.org/disti#8</title>
<path fill="none" stroke="gray" d="M338.076,-507.303C334.697,-515.187 330.622,-524.696 326.868,-533.454"/>
<polygon fill="gray" stroke="gray" points="323.544,-532.325 322.822,-542.896 329.978,-535.083 323.544,-532.325"/>
<text text-anchor="middle" x="347.061" y="-517.414" font-family="Times New Roman,serif" font-size="8.00" fill="gray">use</text>
</g>
<!-- http://example.org/k#3 -->
<g id="node7" class="node"><title>http://example.org/k#3</title>
<ellipse fill="none" stroke="black" cx="528.491" cy="-561" rx="92.0841" ry="18"/>
<text text-anchor="middle" x="528.491" y="-557.3" font-family="Times New Roman,serif" font-size="14.00">http://example.org/k#3</text>
</g>
<!-- http://example.org/access52&#45;&gt;http://example.org/k#3 -->
<g id="edge7" class="edge"><title>http://example.org/access52&#45;&gt;http://example.org/k#3</title>
<path fill="none" stroke="gray" d="M379.912,-503.166C407.874,-513.862 447.675,-529.087 479.047,-541.087"/>
<polygon fill="gray" stroke="gray" points="477.9,-544.395 488.49,-544.699 480.401,-537.857 477.9,-544.395"/>
<text text-anchor="middle" x="391.558" y="-491.813" font-family="Times New Roman,serif" font-size="8.00" fill="gray">use</text>
</g>
<!-- &#45;attrs1 -->
<g id="node4" class="node"><title>&#45;attrs1</title>
<polygon fill="none" stroke="#f0f0f0" points="476.991,-435 411.991,-435 411.991,-399 482.991,-399 482.991,-429 476.991,-435"/>
<polyline fill="none" stroke="#f0f0f0" points="476.991,-435 476.991,-429 "/>
<polyline fill="none" stroke="#f0f0f0" points="482.991,-429 476.991,-429 "/>
<text text-anchor="start" x="422.491" y="-414" font-family="Times New Roman,serif" font-size="10.00" fill="#f0f0f0">type:</text>
<text text-anchor="start" x="445.491" y="-414" font-family="Times New Roman,serif" font-size="10.00" fill="#f0f0f0">access</text>
</g>
<!-- &#45;attrs1&#45;&gt;http://example.org/access52 -->
<g id="edge2" class="edge"><title>&#45;attrs1&#45;&gt;http://example.org/access52</title>
<path fill="none" stroke="#f0f0f0" stroke-dasharray="5,2" d="M422.539,-435.124C406.733,-445.971 386.364,-459.95 370.539,-470.81"/>
</g>
<!-- http://example.org/distk_aj#6 -->
<g id="node8" class="node"><title>http://example.org/distk_aj#6</title>
<g id="a_node8"><a xlink:href="http://example.org/distk_aj#6" xlink:title="distk_aj#6">
<ellipse fill="#f0f0f0" stroke="gray" cx="682.491" cy="-417" rx="48.1917" ry="18"/>
<text text-anchor="middle" x="682.491" y="-413.3" font-family="Times New Roman,serif" font-size="14.00" fill="gray">distk_aj#6</text>
</a>
</g>
</g>
<!-- http://example.org/access53 -->
<g id="node10" class="node"><title>http://example.org/access53</title>
<g id="a_node10"><a xlink:href="http://example.org/access53" xlink:title="access53">
<polygon fill="#f0f0f0" stroke="gray" points="824.491,-507 756.491,-507 756.491,-471 824.491,-471 824.491,-507"/>
<text text-anchor="middle" x="790.491" y="-485.3" font-family="Times New Roman,serif" font-size="14.00" fill="gray">access53</text>
</a>
</g>
</g>
<!-- http://example.org/distk_aj#6&#45;&gt;http://example.org/access53 -->
<g id="edge12" class="edge"><title>http://example.org/distk_aj#6&#45;&gt;http://example.org/access53</title>
<path fill="none" stroke="gray" d="M705.395,-432.845C719.919,-442.259 738.996,-454.623 755.405,-465.259"/>
<polygon fill="gray" stroke="gray" points="753.906,-468.458 764.201,-470.96 757.713,-462.584 753.906,-468.458"/>
<text text-anchor="middle" x="718.754" y="-424.123" font-family="Times New Roman,serif" font-size="8.00" fill="gray">gen</text>
</g>
<!-- http://example.org/list20 -->
<g id="node12" class="node"><title>http://example.org/list20</title>
<ellipse fill="none" stroke="black" cx="736.491" cy="-561" rx="97.4827" ry="18"/>
<text text-anchor="middle" x="736.491" y="-557.3" font-family="Times New Roman,serif" font-size="14.00">http://example.org/list20</text>
</g>
<!-- http://example.org/distk_aj#6&#45;&gt;http://example.org/list20 -->
<g id="edge11" class="edge"><title>http://example.org/distk_aj#6&#45;&gt;http://example.org/list20</title>
<path fill="none" stroke="gray" d="M688.898,-434.847C698.145,-459.162 715.325,-504.34 726.318,-533.247"/>
<polygon fill="gray" stroke="gray" points="723.099,-534.629 729.925,-542.732 729.642,-532.141 723.099,-534.629"/>
<text text-anchor="middle" x="703.706" y="-435.34" font-family="Times New Roman,serif" font-size="8.00" fill="gray">der</text>
</g>
<!-- &#45;attrs2 -->
<g id="node9" class="node"><title>&#45;attrs2</title>
<polygon fill="none" stroke="#f0f0f0" points="713.991,-363 644.991,-363 644.991,-314 719.991,-314 719.991,-357 713.991,-363"/>
<polyline fill="none" stroke="#f0f0f0" points="713.991,-363 713.991,-357 "/>
<polyline fill="none" stroke="#f0f0f0" points="719.991,-357 713.991,-357 "/>
<text text-anchor="start" x="655.491" y="-348.5" font-family="Times New Roman,serif" font-size="10.00" fill="#f0f0f0">value:</text>
<text text-anchor="start" x="682.491" y="-348.5" font-family="Times New Roman,serif" font-size="10.00" fill="#f0f0f0">2</text>
<text text-anchor="start" x="655.491" y="-335.5" font-family="Times New Roman,serif" font-size="10.00" fill="#f0f0f0">type:</text>
<text text-anchor="start" x="682.491" y="-335.5" font-family="Times New Roman,serif" font-size="10.00" fill="#f0f0f0">access</text>
<text text-anchor="start" x="655.491" y="-322.5" font-family="Times New Roman,serif" font-size="10.00" fill="#f0f0f0">label:</text>
<text text-anchor="start" x="682.491" y="-322.5" font-family="Times New Roman,serif" font-size="10.00" fill="#f0f0f0">distk[j]</text>
</g>
<!-- &#45;attrs2&#45;&gt;http://example.org/distk_aj#6 -->
<g id="edge8" class="edge"><title>&#45;attrs2&#45;&gt;http://example.org/distk_aj#6</title>
<path fill="none" stroke="#f0f0f0" stroke-dasharray="5,2" d="M682.491,-363.286C682.491,-374.69 682.491,-388.105 682.491,-398.548"/>
</g>
<!-- http://example.org/access53&#45;&gt;http://example.org/list20 -->
<g id="edge10" class="edge"><title>http://example.org/access53&#45;&gt;http://example.org/list20</title>
<path fill="none" stroke="gray" d="M777.143,-507.303C770.735,-515.611 762.934,-525.723 755.886,-534.859"/>
<polygon fill="gray" stroke="gray" points="753.023,-532.84 749.686,-542.896 758.565,-537.116 753.023,-532.84"/>
<text text-anchor="middle" x="782.848" y="-519.276" font-family="Times New Roman,serif" font-size="8.00" fill="gray">use</text>
</g>
<!-- http://example.org/distk#3 -->
<g id="node13" class="node"><title>http://example.org/distk#3</title>
<ellipse fill="none" stroke="black" cx="957.491" cy="-561" rx="105.082" ry="18"/>
<text text-anchor="middle" x="957.491" y="-557.3" font-family="Times New Roman,serif" font-size="14.00">http://example.org/distk#3</text>
</g>
<!-- http://example.org/access53&#45;&gt;http://example.org/distk#3 -->
<g id="edge13" class="edge"><title>http://example.org/access53&#45;&gt;http://example.org/distk#3</title>
<path fill="none" stroke="gray" d="M824.689,-504.334C849.359,-514.675 882.973,-528.765 910.21,-540.182"/>
<polygon fill="gray" stroke="gray" points="908.978,-543.46 919.553,-544.098 911.684,-537.004 908.978,-543.46"/>
<text text-anchor="middle" x="836.628" y="-493.353" font-family="Times New Roman,serif" font-size="8.00" fill="gray">use</text>
</g>
<!-- http://example.org/j#16 -->
<g id="node14" class="node"><title>http://example.org/j#16</title>
<ellipse fill="none" stroke="black" cx="1175.49" cy="-561" rx="94.4839" ry="18"/>
<text text-anchor="middle" x="1175.49" y="-557.3" font-family="Times New Roman,serif" font-size="14.00">http://example.org/j#16</text>
</g>
<!-- http://example.org/access53&#45;&gt;http://example.org/j#16 -->
<g id="edge14" class="edge"><title>http://example.org/access53&#45;&gt;http://example.org/j#16</title>
<path fill="none" stroke="gray" d="M824.658,-496.212C886.022,-507.369 1016.26,-531.049 1099.64,-546.208"/>
<polygon fill="gray" stroke="gray" points="1099.1,-549.668 1109.56,-548.013 1100.35,-542.781 1099.1,-549.668"/>
<text text-anchor="middle" x="834.36" y="-482.873" font-family="Times New Roman,serif" font-size="8.00" fill="gray">use</text>
</g>
<!-- &#45;attrs3 -->
<g id="node11" class="node"><title>&#45;attrs3</title>
<polygon fill="none" stroke="#f0f0f0" points="819.991,-435 754.991,-435 754.991,-399 825.991,-399 825.991,-429 819.991,-435"/>
<polyline fill="none" stroke="#f0f0f0" points="819.991,-435 819.991,-429 "/>
<polyline fill="none" stroke="#f0f0f0" points="825.991,-429 819.991,-429 "/>
<text text-anchor="start" x="765.491" y="-414" font-family="Times New Roman,serif" font-size="10.00" fill="#f0f0f0">type:</text>
<text text-anchor="start" x="788.491" y="-414" font-family="Times New Roman,serif" font-size="10.00" fill="#f0f0f0">access</text>
</g>
<!-- &#45;attrs3&#45;&gt;http://example.org/access53 -->
<g id="edge9" class="edge"><title>&#45;attrs3&#45;&gt;http://example.org/access53</title>
<path fill="none" stroke="#f0f0f0" stroke-dasharray="5,2" d="M790.491,-435.303C790.491,-446.154 790.491,-460.083 790.491,-470.896"/>
</g>
<!-- http://example.org/sum#6 -->
<g id="node15" class="node"><title>http://example.org/sum#6</title>
<g id="a_node15"><a xlink:href="http://example.org/sum#6" xlink:title="sum#6">
<ellipse fill="#f0f0f0" stroke="gray" cx="564.491" cy="-260" rx="35.194" ry="18"/>
<text text-anchor="middle" x="564.491" y="-256.3" font-family="Times New Roman,serif" font-size="14.00" fill="gray">sum#6</text>
</a>
</g>
</g>
<!-- http://example.org/sum#6&#45;&gt;http://example.org/disti_ak#6 -->
<g id="edge18" class="edge"><title>http://example.org/sum#6&#45;&gt;http://example.org/disti_ak#6</title>
<path fill="none" stroke="gray" d="M537.711,-272.041C532.075,-274.169 526.128,-276.27 520.491,-278 452.467,-298.875 413.722,-262.624 364.491,-314 345.663,-333.648 342.441,-365.629 342.962,-388.543"/>
<polygon fill="gray" stroke="gray" points="339.472,-388.841 343.444,-398.663 346.464,-388.508 339.472,-388.841"/>
<text text-anchor="middle" x="535.248" y="-284.938" font-family="Times New Roman,serif" font-size="8.00" fill="gray">der</text>
</g>
<!-- http://example.org/sum#6&#45;&gt;http://example.org/distk_aj#6 -->
<g id="edge20" class="edge"><title>http://example.org/sum#6&#45;&gt;http://example.org/distk_aj#6</title>
<path fill="none" stroke="gray" d="M574.994,-277.32C588.379,-297.818 612.54,-333.838 635.491,-363 643.257,-372.867 652.303,-383.293 660.374,-392.263"/>
<polygon fill="gray" stroke="gray" points="657.841,-394.679 667.159,-399.721 663.018,-389.968 657.841,-394.679"/>
<text text-anchor="middle" x="589.97" y="-274.562" font-family="Times New Roman,serif" font-size="8.00" fill="gray">der</text>
</g>
<!-- http://example.org/+6 -->
<g id="node17" class="node"><title>http://example.org/+6</title>
<g id="a_node17"><a xlink:href="http://example.org/+6" xlink:title="+6">
<polygon fill="#f0f0f0" stroke="gray" points="552.491,-356.5 498.491,-356.5 498.491,-320.5 552.491,-320.5 552.491,-356.5"/>
<text text-anchor="middle" x="525.491" y="-334.8" font-family="Times New Roman,serif" font-size="14.00" fill="gray">+6</text>
</a>
</g>
</g>
<!-- http://example.org/sum#6&#45;&gt;http://example.org/+6 -->
<g id="edge21" class="edge"><title>http://example.org/sum#6&#45;&gt;http://example.org/+6</title>
<path fill="none" stroke="gray" d="M556.029,-277.599C550.988,-287.487 544.481,-300.252 538.769,-311.456"/>
<polygon fill="gray" stroke="gray" points="535.631,-309.905 534.207,-320.403 541.867,-313.084 535.631,-309.905"/>
<text text-anchor="middle" x="564.196" y="-288.281" font-family="Times New Roman,serif" font-size="8.00" fill="gray">gen</text>
</g>
<!-- &#45;attrs4 -->
<g id="node16" class="node"><title>&#45;attrs4</title>
<polygon fill="none" stroke="#f0f0f0" points="529.991,-206 422.991,-206 422.991,-157 535.991,-157 535.991,-200 529.991,-206"/>
<polyline fill="none" stroke="#f0f0f0" points="529.991,-206 529.991,-200 "/>
<polyline fill="none" stroke="#f0f0f0" points="535.991,-200 529.991,-200 "/>
<text text-anchor="start" x="433.491" y="-191.5" font-family="Times New Roman,serif" font-size="10.00" fill="#f0f0f0">value:</text>
<text text-anchor="start" x="460.491" y="-191.5" font-family="Times New Roman,serif" font-size="10.00" fill="#f0f0f0">4</text>
<text text-anchor="start" x="433.491" y="-178.5" font-family="Times New Roman,serif" font-size="10.00" fill="#f0f0f0">type:</text>
<text text-anchor="start" x="460.491" y="-178.5" font-family="Times New Roman,serif" font-size="10.00" fill="#f0f0f0">operation</text>
<text text-anchor="start" x="433.491" y="-165.5" font-family="Times New Roman,serif" font-size="10.00" fill="#f0f0f0">label:</text>
<text text-anchor="start" x="460.491" y="-165.5" font-family="Times New Roman,serif" font-size="10.00" fill="#f0f0f0">disti[k] + distk[j]</text>
</g>
<!-- &#45;attrs4&#45;&gt;http://example.org/sum#6 -->
<g id="edge15" class="edge"><title>&#45;attrs4&#45;&gt;http://example.org/sum#6</title>
<path fill="none" stroke="#f0f0f0" stroke-dasharray="5,2" d="M505.92,-206.286C519.566,-218.567 535.803,-233.181 547.717,-243.903"/>
</g>
<!-- http://example.org/+6&#45;&gt;http://example.org/disti_ak#6 -->
<g id="edge17" class="edge"><title>http://example.org/+6&#45;&gt;http://example.org/disti_ak#6</title>
<path fill="none" stroke="gray" d="M498.153,-351.119C468.128,-363.88 419.63,-384.491 385.365,-399.054"/>
<polygon fill="gray" stroke="gray" points="383.94,-395.856 376.106,-402.989 386.678,-402.299 383.94,-395.856"/>
<text text-anchor="middle" x="496.332" y="-364.108" font-family="Times New Roman,serif" font-size="8.00" fill="gray">use</text>
</g>
<!-- http://example.org/+6&#45;&gt;http://example.org/distk_aj#6 -->
<g id="edge19" class="edge"><title>http://example.org/+6&#45;&gt;http://example.org/distk_aj#6</title>
<path fill="none" stroke="gray" d="M552.839,-352.825C578.413,-365.286 616.816,-383.999 645.194,-397.826"/>
<polygon fill="gray" stroke="gray" points="643.878,-401.078 654.4,-402.312 646.944,-394.786 643.878,-401.078"/>
<text text-anchor="middle" x="565.271" y="-342.533" font-family="Times New Roman,serif" font-size="8.00" fill="gray">use</text>
</g>
<!-- &#45;attrs5 -->
<g id="node18" class="node"><title>&#45;attrs5</title>
<polygon fill="none" stroke="#f0f0f0" points="505.491,-278 457.491,-278 457.491,-242 511.491,-242 511.491,-272 505.491,-278"/>
<polyline fill="none" stroke="#f0f0f0" points="505.491,-278 505.491,-272 "/>
<polyline fill="none" stroke="#f0f0f0" points="511.491,-272 505.491,-272 "/>
<text text-anchor="start" x="470.491" y="-257" font-family="Times New Roman,serif" font-size="10.00" fill="#f0f0f0">type:</text>
<text text-anchor="start" x="493.491" y="-257" font-family="Times New Roman,serif" font-size="10.00" fill="#f0f0f0">+</text>
</g>
<!-- &#45;attrs5&#45;&gt;http://example.org/+6 -->
<g id="edge16" class="edge"><title>&#45;attrs5&#45;&gt;http://example.org/+6</title>
<path fill="none" stroke="#f0f0f0" stroke-dasharray="5,2" d="M493.795,-278.359C500.552,-290.967 509.65,-307.943 516.366,-320.473"/>
</g>
<!-- http://example.org/ikj#6 -->
<g id="node19" class="node"><title>http://example.org/ikj#6</title>
<g id="a_node19"><a xlink:href="http://example.org/ikj#6" xlink:title="ikj#6">
<ellipse fill="#f0f0f0" stroke="gray" cx="564.491" cy="-103" rx="28.6953" ry="18"/>
<text text-anchor="middle" x="564.491" y="-99.3" font-family="Times New Roman,serif" font-size="14.00" fill="gray">ikj#6</text>
</a>
</g>
</g>
<!-- http://example.org/ikj#6&#45;&gt;http://example.org/sum#6 -->
<g id="edge25" class="edge"><title>http://example.org/ikj#6&#45;&gt;http://example.org/sum#6</title>
<path fill="none" stroke="gray" d="M564.491,-121.18C564.491,-147.832 564.491,-199.391 564.491,-231.335"/>
<polygon fill="gray" stroke="gray" points="560.991,-231.743 564.491,-241.743 567.991,-231.743 560.991,-231.743"/>
<text text-anchor="middle" x="577.482" y="-126.78" font-family="Times New Roman,serif" font-size="8.00" fill="gray">der</text>
</g>
<!-- http://example.org/assign22 -->
<g id="node21" class="node"><title>http://example.org/assign22</title>
<g id="a_node21"><a xlink:href="http://example.org/assign22" xlink:title="assign22">
<polygon fill="#f0f0f0" stroke="gray" points="657.991,-199.5 592.991,-199.5 592.991,-163.5 657.991,-163.5 657.991,-199.5"/>
<text text-anchor="middle" x="625.491" y="-177.8" font-family="Times New Roman,serif" font-size="14.00" fill="gray">assign22</text>
</a>
</g>
</g>
<!-- http://example.org/ikj#6&#45;&gt;http://example.org/assign22 -->
<g id="edge26" class="edge"><title>http://example.org/ikj#6&#45;&gt;http://example.org/assign22</title>
<path fill="none" stroke="gray" d="M576.836,-119.481C585.095,-129.839 596.147,-143.7 605.631,-155.593"/>
<polygon fill="gray" stroke="gray" points="602.921,-157.808 611.892,-163.445 608.394,-153.444 602.921,-157.808"/>
<text text-anchor="middle" x="591.668" y="-115.346" font-family="Times New Roman,serif" font-size="8.00" fill="gray">gen</text>
</g>
<!-- &#45;attrs6 -->
<g id="node20" class="node"><title>&#45;attrs6</title>
<polygon fill="none" stroke="#f0f0f0" points="592.991,-49 529.991,-49 529.991,-0 598.991,-0 598.991,-43 592.991,-49"/>
<polyline fill="none" stroke="#f0f0f0" points="592.991,-49 592.991,-43 "/>
<polyline fill="none" stroke="#f0f0f0" points="598.991,-43 592.991,-43 "/>
<text text-anchor="start" x="540.491" y="-34.5" font-family="Times New Roman,serif" font-size="10.00" fill="#f0f0f0">value:</text>
<text text-anchor="start" x="567.491" y="-34.5" font-family="Times New Roman,serif" font-size="10.00" fill="#f0f0f0">4</text>
<text text-anchor="start" x="540.491" y="-21.5" font-family="Times New Roman,serif" font-size="10.00" fill="#f0f0f0">type:</text>
<text text-anchor="start" x="567.491" y="-21.5" font-family="Times New Roman,serif" font-size="10.00" fill="#f0f0f0">name</text>
<text text-anchor="start" x="540.491" y="-8.5" font-family="Times New Roman,serif" font-size="10.00" fill="#f0f0f0">label:</text>
<text text-anchor="start" x="567.491" y="-8.5" font-family="Times New Roman,serif" font-size="10.00" fill="#f0f0f0">ikj</text>
</g>
<!-- &#45;attrs6&#45;&gt;http://example.org/ikj#6 -->
<g id="edge22" class="edge"><title>&#45;attrs6&#45;&gt;http://example.org/ikj#6</title>
<path fill="none" stroke="#f0f0f0" stroke-dasharray="5,2" d="M564.491,-49.2857C564.491,-60.6896 564.491,-74.105 564.491,-84.5482"/>
</g>
<!-- http://example.org/assign22&#45;&gt;http://example.org/sum#6 -->
<g id="edge24" class="edge"><title>http://example.org/assign22&#45;&gt;http://example.org/sum#6</title>
<path fill="none" stroke="gray" d="M611.65,-199.859C603.333,-210.288 592.634,-223.706 583.529,-235.125"/>
<polygon fill="gray" stroke="gray" points="580.736,-233.013 577.238,-243.014 586.209,-237.377 580.736,-233.013"/>
<text text-anchor="middle" x="617.13" y="-211.922" font-family="Times New Roman,serif" font-size="8.00" fill="gray">use</text>
</g>
<!-- &#45;attrs7 -->
<g id="node22" class="node"><title>&#45;attrs7</title>
<polygon fill="none" stroke="#f0f0f0" points="675.491,-121 611.491,-121 611.491,-85 681.491,-85 681.491,-115 675.491,-121"/>
<polyline fill="none" stroke="#f0f0f0" points="675.491,-121 675.491,-115 "/>
<polyline fill="none" stroke="#f0f0f0" points="681.491,-115 675.491,-115 "/>
<text text-anchor="start" x="621.491" y="-100" font-family="Times New Roman,serif" font-size="10.00" fill="#f0f0f0">type:</text>
<text text-anchor="start" x="644.491" y="-100" font-family="Times New Roman,serif" font-size="10.00" fill="#f0f0f0">assign</text>
</g>
<!-- &#45;attrs7&#45;&gt;http://example.org/assign22 -->
<g id="edge23" class="edge"><title>&#45;attrs7&#45;&gt;http://example.org/assign22</title>
<path fill="none" stroke="#f0f0f0" stroke-dasharray="5,2" d="M641.726,-121.359C638.265,-133.967 633.605,-150.943 630.165,-163.473"/>
</g>
</g>
</svg>
