<?xml version="1.0" encoding="UTF-8" standalone="no"?>
<!DOCTYPE svg PUBLIC "-//W3C//DTD SVG 1.1//EN"
 "http://www.w3.org/Graphics/SVG/1.1/DTD/svg11.dtd">
<!-- Generated by graphviz version 2.38.0 (20140413.2041)
 -->
<!-- Title: PROV Pages: 1 -->
<svg width="1152pt" height="516pt"
 viewBox="0.00 0.00 1152.00 516.21" xmlns="http://www.w3.org/2000/svg" xmlns:xlink="http://www.w3.org/1999/xlink">
<g id="graph0" class="graph" transform="scale(0.879402 0.879402) rotate(0) translate(4 583)">
<title>PROV</title>
<polygon fill="white" stroke="none" points="-4,4 -4,-583 1305.98,-583 1305.98,4 -4,4"/>
<!-- http://example.org/disti_ak#4 -->
<g id="node1" class="node"><title>http://example.org/disti_ak#4</title>
<g id="a_node1"><a xlink:href="http://example.org/disti_ak#4" xlink:title="disti_ak#4">
<ellipse fill="#f0f0f0" stroke="gray" cx="377.74" cy="-417" rx="48.1917" ry="18"/>
<text text-anchor="middle" x="377.74" y="-413.3" font-family="Times New Roman,serif" font-size="14.00" fill="gray">disti_ak#4</text>
</a>
</g>
</g>
<!-- http://example.org/access34 -->
<g id="node3" class="node"><title>http://example.org/access34</title>
<g id="a_node3"><a xlink:href="http://example.org/access34" xlink:title="access34">
<polygon fill="#f0f0f0" stroke="gray" points="411.74,-507 343.74,-507 343.74,-471 411.74,-471 411.74,-507"/>
<text text-anchor="middle" x="377.74" y="-485.3" font-family="Times New Roman,serif" font-size="14.00" fill="gray">access34</text>
</a>
</g>
</g>
<!-- http://example.org/disti_ak#4&#45;&gt;http://example.org/access34 -->
<g id="edge5" class="edge"><title>http://example.org/disti_ak#4&#45;&gt;http://example.org/access34</title>
<path fill="none" stroke="gray" d="M377.74,-435.303C377.74,-443.017 377.74,-452.288 377.74,-460.888"/>
<polygon fill="gray" stroke="gray" points="374.24,-460.896 377.74,-470.896 381.24,-460.896 374.24,-460.896"/>
<text text-anchor="middle" x="390.73" y="-440.903" font-family="Times New Roman,serif" font-size="8.00" fill="gray">gen</text>
</g>
<!-- http://example.org/disti_aj#3 -->
<g id="node5" class="node"><title>http://example.org/disti_aj#3</title>
<ellipse fill="none" stroke="black" cx="113.74" cy="-561" rx="113.98" ry="18"/>
<text text-anchor="middle" x="113.74" y="-557.3" font-family="Times New Roman,serif" font-size="14.00">http://example.org/disti_aj#3</text>
</g>
<!-- http://example.org/disti_ak#4&#45;&gt;http://example.org/disti_aj#3 -->
<g id="edge4" class="edge"><title>http://example.org/disti_ak#4&#45;&gt;http://example.org/disti_aj#3</title>
<path fill="none" stroke="gray" d="M351.461,-432.135C304.982,-457.135 208.031,-509.283 153.391,-538.673"/>
<polygon fill="gray" stroke="gray" points="151.5,-535.716 144.351,-543.535 154.815,-541.88 151.5,-535.716"/>
<text text-anchor="middle" x="351.01" y="-445.228" font-family="Times New Roman,serif" font-size="8.00" fill="gray">der</text>
</g>
<!-- &#45;attrs0 -->
<g id="node2" class="node"><title>&#45;attrs0</title>
<polygon fill="none" stroke="#f0f0f0" points="475.24,-363 406.24,-363 406.24,-314 481.24,-314 481.24,-357 475.24,-363"/>
<polyline fill="none" stroke="#f0f0f0" points="475.24,-363 475.24,-357 "/>
<polyline fill="none" stroke="#f0f0f0" points="481.24,-357 475.24,-357 "/>
<text text-anchor="start" x="416.74" y="-348.5" font-family="Times New Roman,serif" font-size="10.00" fill="#f0f0f0">value:</text>
<text text-anchor="start" x="443.74" y="-348.5" font-family="Times New Roman,serif" font-size="10.00" fill="#f0f0f0">3</text>
<text text-anchor="start" x="416.74" y="-335.5" font-family="Times New Roman,serif" font-size="10.00" fill="#f0f0f0">type:</text>
<text text-anchor="start" x="443.74" y="-335.5" font-family="Times New Roman,serif" font-size="10.00" fill="#f0f0f0">access</text>
<text text-anchor="start" x="416.74" y="-322.5" font-family="Times New Roman,serif" font-size="10.00" fill="#f0f0f0">label:</text>
<text text-anchor="start" x="443.74" y="-322.5" font-family="Times New Roman,serif" font-size="10.00" fill="#f0f0f0">disti[k]</text>
</g>
<!-- &#45;attrs0&#45;&gt;http://example.org/disti_ak#4 -->
<g id="edge1" class="edge"><title>&#45;attrs0&#45;&gt;http://example.org/disti_ak#4</title>
<path fill="none" stroke="#f0f0f0" stroke-dasharray="5,2" d="M423.219,-363.286C413.078,-375.04 401.092,-388.932 391.972,-399.504"/>
</g>
<!-- http://example.org/access34&#45;&gt;http://example.org/disti_aj#3 -->
<g id="edge3" class="edge"><title>http://example.org/access34&#45;&gt;http://example.org/disti_aj#3</title>
<path fill="none" stroke="gray" d="M343.497,-499.08C302.08,-510.061 231.449,-528.789 179.407,-542.588"/>
<polygon fill="gray" stroke="gray" points="178.358,-539.245 169.589,-545.192 180.152,-546.012 178.358,-539.245"/>
<text text-anchor="middle" x="339.577" y="-511.658" font-family="Times New Roman,serif" font-size="8.00" fill="gray">use</text>
</g>
<!-- http://example.org/disti#6 -->
<g id="node6" class="node"><title>http://example.org/disti#6</title>
<ellipse fill="none" stroke="black" cx="347.74" cy="-561" rx="102.882" ry="18"/>
<text text-anchor="middle" x="347.74" y="-557.3" font-family="Times New Roman,serif" font-size="14.00">http://example.org/disti#6</text>
</g>
<!-- http://example.org/access34&#45;&gt;http://example.org/disti#6 -->
<g id="edge6" class="edge"><title>http://example.org/access34&#45;&gt;http://example.org/disti#6</title>
<path fill="none" stroke="gray" d="M370.324,-507.303C366.946,-515.187 362.87,-524.696 359.117,-533.454"/>
<polygon fill="gray" stroke="gray" points="355.793,-532.325 355.07,-542.896 362.227,-535.083 355.793,-532.325"/>
<text text-anchor="middle" x="379.31" y="-517.414" font-family="Times New Roman,serif" font-size="8.00" fill="gray">use</text>
</g>
<!-- http://example.org/k#2 -->
<g id="node7" class="node"><title>http://example.org/k#2</title>
<ellipse fill="none" stroke="black" cx="560.74" cy="-561" rx="92.0841" ry="18"/>
<text text-anchor="middle" x="560.74" y="-557.3" font-family="Times New Roman,serif" font-size="14.00">http://example.org/k#2</text>
</g>
<!-- http://example.org/access34&#45;&gt;http://example.org/k#2 -->
<g id="edge7" class="edge"><title>http://example.org/access34&#45;&gt;http://example.org/k#2</title>
<path fill="none" stroke="gray" d="M412.161,-503.166C440.122,-513.862 479.924,-529.087 511.296,-541.087"/>
<polygon fill="gray" stroke="gray" points="510.148,-544.395 520.739,-544.699 512.649,-537.857 510.148,-544.395"/>
<text text-anchor="middle" x="423.807" y="-491.813" font-family="Times New Roman,serif" font-size="8.00" fill="gray">use</text>
</g>
<!-- &#45;attrs1 -->
<g id="node4" class="node"><title>&#45;attrs1</title>
<polygon fill="none" stroke="#f0f0f0" points="509.24,-435 444.24,-435 444.24,-399 515.24,-399 515.24,-429 509.24,-435"/>
<polyline fill="none" stroke="#f0f0f0" points="509.24,-435 509.24,-429 "/>
<polyline fill="none" stroke="#f0f0f0" points="515.24,-429 509.24,-429 "/>
<text text-anchor="start" x="454.74" y="-414" font-family="Times New Roman,serif" font-size="10.00" fill="#f0f0f0">type:</text>
<text text-anchor="start" x="477.74" y="-414" font-family="Times New Roman,serif" font-size="10.00" fill="#f0f0f0">access</text>
</g>
<!-- &#45;attrs1&#45;&gt;http://example.org/access34 -->
<g id="edge2" class="edge"><title>&#45;attrs1&#45;&gt;http://example.org/access34</title>
<path fill="none" stroke="#f0f0f0" stroke-dasharray="5,2" d="M454.788,-435.124C438.982,-445.971 418.612,-459.95 402.788,-470.81"/>
</g>
<!-- http://example.org/distk_aj#4 -->
<g id="node8" class="node"><title>http://example.org/distk_aj#4</title>
<g id="a_node8"><a xlink:href="http://example.org/distk_aj#4" xlink:title="distk_aj#4">
<ellipse fill="#f0f0f0" stroke="gray" cx="714.74" cy="-417" rx="48.1917" ry="18"/>
<text text-anchor="middle" x="714.74" y="-413.3" font-family="Times New Roman,serif" font-size="14.00" fill="gray">distk_aj#4</text>
</a>
</g>
</g>
<!-- http://example.org/access35 -->
<g id="node10" class="node"><title>http://example.org/access35</title>
<g id="a_node10"><a xlink:href="http://example.org/access35" xlink:title="access35">
<polygon fill="#f0f0f0" stroke="gray" points="856.74,-507 788.74,-507 788.74,-471 856.74,-471 856.74,-507"/>
<text text-anchor="middle" x="822.74" y="-485.3" font-family="Times New Roman,serif" font-size="14.00" fill="gray">access35</text>
</a>
</g>
</g>
<!-- http://example.org/distk_aj#4&#45;&gt;http://example.org/access35 -->
<g id="edge12" class="edge"><title>http://example.org/distk_aj#4&#45;&gt;http://example.org/access35</title>
<path fill="none" stroke="gray" d="M737.644,-432.845C752.168,-442.259 771.244,-454.623 787.654,-465.259"/>
<polygon fill="gray" stroke="gray" points="786.154,-468.458 796.45,-470.96 789.962,-462.584 786.154,-468.458"/>
<text text-anchor="middle" x="751.003" y="-424.123" font-family="Times New Roman,serif" font-size="8.00" fill="gray">gen</text>
</g>
<!-- http://example.org/list10 -->
<g id="node12" class="node"><title>http://example.org/list10</title>
<ellipse fill="none" stroke="black" cx="768.74" cy="-561" rx="97.4827" ry="18"/>
<text text-anchor="middle" x="768.74" y="-557.3" font-family="Times New Roman,serif" font-size="14.00">http://example.org/list10</text>
</g>
<!-- http://example.org/distk_aj#4&#45;&gt;http://example.org/list10 -->
<g id="edge11" class="edge"><title>http://example.org/distk_aj#4&#45;&gt;http://example.org/list10</title>
<path fill="none" stroke="gray" d="M721.146,-434.847C730.393,-459.162 747.573,-504.34 758.566,-533.247"/>
<polygon fill="gray" stroke="gray" points="755.347,-534.629 762.173,-542.732 761.89,-532.141 755.347,-534.629"/>
<text text-anchor="middle" x="735.954" y="-435.34" font-family="Times New Roman,serif" font-size="8.00" fill="gray">der</text>
</g>
<!-- &#45;attrs2 -->
<g id="node9" class="node"><title>&#45;attrs2</title>
<polygon fill="none" stroke="#f0f0f0" points="746.24,-363 677.24,-363 677.24,-314 752.24,-314 752.24,-357 746.24,-363"/>
<polyline fill="none" stroke="#f0f0f0" points="746.24,-363 746.24,-357 "/>
<polyline fill="none" stroke="#f0f0f0" points="752.24,-357 746.24,-357 "/>
<text text-anchor="start" x="687.74" y="-348.5" font-family="Times New Roman,serif" font-size="10.00" fill="#f0f0f0">value:</text>
<text text-anchor="start" x="714.74" y="-348.5" font-family="Times New Roman,serif" font-size="10.00" fill="#f0f0f0">10000</text>
<text text-anchor="start" x="687.74" y="-335.5" font-family="Times New Roman,serif" font-size="10.00" fill="#f0f0f0">type:</text>
<text text-anchor="start" x="714.74" y="-335.5" font-family="Times New Roman,serif" font-size="10.00" fill="#f0f0f0">access</text>
<text text-anchor="start" x="687.74" y="-322.5" font-family="Times New Roman,serif" font-size="10.00" fill="#f0f0f0">label:</text>
<text text-anchor="start" x="714.74" y="-322.5" font-family="Times New Roman,serif" font-size="10.00" fill="#f0f0f0">distk[j]</text>
</g>
<!-- &#45;attrs2&#45;&gt;http://example.org/distk_aj#4 -->
<g id="edge8" class="edge"><title>&#45;attrs2&#45;&gt;http://example.org/distk_aj#4</title>
<path fill="none" stroke="#f0f0f0" stroke-dasharray="5,2" d="M714.74,-363.286C714.74,-374.69 714.74,-388.105 714.74,-398.548"/>
</g>
<!-- http://example.org/access35&#45;&gt;http://example.org/list10 -->
<g id="edge10" class="edge"><title>http://example.org/access35&#45;&gt;http://example.org/list10</title>
<path fill="none" stroke="gray" d="M809.392,-507.303C802.983,-515.611 795.182,-525.723 788.134,-534.859"/>
<polygon fill="gray" stroke="gray" points="785.272,-532.84 781.935,-542.896 790.814,-537.116 785.272,-532.84"/>
<text text-anchor="middle" x="815.096" y="-519.276" font-family="Times New Roman,serif" font-size="8.00" fill="gray">use</text>
</g>
<!-- http://example.org/distk#2 -->
<g id="node13" class="node"><title>http://example.org/distk#2</title>
<ellipse fill="none" stroke="black" cx="989.74" cy="-561" rx="105.082" ry="18"/>
<text text-anchor="middle" x="989.74" y="-557.3" font-family="Times New Roman,serif" font-size="14.00">http://example.org/distk#2</text>
</g>
<!-- http://example.org/access35&#45;&gt;http://example.org/distk#2 -->
<g id="edge13" class="edge"><title>http://example.org/access35&#45;&gt;http://example.org/distk#2</title>
<path fill="none" stroke="gray" d="M856.938,-504.334C881.607,-514.675 915.222,-528.765 942.459,-540.182"/>
<polygon fill="gray" stroke="gray" points="941.226,-543.46 951.802,-544.098 943.932,-537.004 941.226,-543.46"/>
<text text-anchor="middle" x="868.877" y="-493.353" font-family="Times New Roman,serif" font-size="8.00" fill="gray">use</text>
</g>
<!-- http://example.org/j#10 -->
<g id="node14" class="node"><title>http://example.org/j#10</title>
<ellipse fill="none" stroke="black" cx="1207.74" cy="-561" rx="94.4839" ry="18"/>
<text text-anchor="middle" x="1207.74" y="-557.3" font-family="Times New Roman,serif" font-size="14.00">http://example.org/j#10</text>
</g>
<!-- http://example.org/access35&#45;&gt;http://example.org/j#10 -->
<g id="edge14" class="edge"><title>http://example.org/access35&#45;&gt;http://example.org/j#10</title>
<path fill="none" stroke="gray" d="M856.906,-496.212C918.27,-507.369 1048.51,-531.049 1131.88,-546.208"/>
<polygon fill="gray" stroke="gray" points="1131.35,-549.668 1141.81,-548.013 1132.6,-542.781 1131.35,-549.668"/>
<text text-anchor="middle" x="866.609" y="-482.873" font-family="Times New Roman,serif" font-size="8.00" fill="gray">use</text>
</g>
<!-- &#45;attrs3 -->
<g id="node11" class="node"><title>&#45;attrs3</title>
<polygon fill="none" stroke="#f0f0f0" points="852.24,-435 787.24,-435 787.24,-399 858.24,-399 858.24,-429 852.24,-435"/>
<polyline fill="none" stroke="#f0f0f0" points="852.24,-435 852.24,-429 "/>
<polyline fill="none" stroke="#f0f0f0" points="858.24,-429 852.24,-429 "/>
<text text-anchor="start" x="797.74" y="-414" font-family="Times New Roman,serif" font-size="10.00" fill="#f0f0f0">type:</text>
<text text-anchor="start" x="820.74" y="-414" font-family="Times New Roman,serif" font-size="10.00" fill="#f0f0f0">access</text>
</g>
<!-- &#45;attrs3&#45;&gt;http://example.org/access35 -->
<g id="edge9" class="edge"><title>&#45;attrs3&#45;&gt;http://example.org/access35</title>
<path fill="none" stroke="#f0f0f0" stroke-dasharray="5,2" d="M822.74,-435.303C822.74,-446.154 822.74,-460.083 822.74,-470.896"/>
</g>
<!-- http://example.org/sum#4 -->
<g id="node15" class="node"><title>http://example.org/sum#4</title>
<g id="a_node15"><a xlink:href="http://example.org/sum#4" xlink:title="sum#4">
<ellipse fill="#f0f0f0" stroke="gray" cx="596.74" cy="-260" rx="35.194" ry="18"/>
<text text-anchor="middle" x="596.74" y="-256.3" font-family="Times New Roman,serif" font-size="14.00" fill="gray">sum#4</text>
</a>
</g>
</g>
<!-- http://example.org/sum#4&#45;&gt;http://example.org/disti_ak#4 -->
<g id="edge18" class="edge"><title>http://example.org/sum#4&#45;&gt;http://example.org/disti_ak#4</title>
<path fill="none" stroke="gray" d="M569.959,-272.041C564.323,-274.169 558.377,-276.27 552.74,-278 484.715,-298.875 445.971,-262.624 396.74,-314 377.912,-333.648 374.689,-365.629 375.21,-388.543"/>
<polygon fill="gray" stroke="gray" points="371.72,-388.841 375.692,-398.663 378.712,-388.508 371.72,-388.841"/>
<text text-anchor="middle" x="567.496" y="-284.938" font-family="Times New Roman,serif" font-size="8.00" fill="gray">der</text>
</g>
<!-- http://example.org/sum#4&#45;&gt;http://example.org/distk_aj#4 -->
<g id="edge20" class="edge"><title>http://example.org/sum#4&#45;&gt;http://example.org/distk_aj#4</title>
<path fill="none" stroke="gray" d="M607.243,-277.32C620.627,-297.818 644.788,-333.838 667.74,-363 675.505,-372.867 684.552,-383.293 692.623,-392.263"/>
<polygon fill="gray" stroke="gray" points="690.089,-394.679 699.408,-399.721 695.267,-389.968 690.089,-394.679"/>
<text text-anchor="middle" x="622.218" y="-274.562" font-family="Times New Roman,serif" font-size="8.00" fill="gray">der</text>
</g>
<!-- http://example.org/+4 -->
<g id="node17" class="node"><title>http://example.org/+4</title>
<g id="a_node17"><a xlink:href="http://example.org/+4" xlink:title="+4">
<polygon fill="#f0f0f0" stroke="gray" points="584.74,-356.5 530.74,-356.5 530.74,-320.5 584.74,-320.5 584.74,-356.5"/>
<text text-anchor="middle" x="557.74" y="-334.8" font-family="Times New Roman,serif" font-size="14.00" fill="gray">+4</text>
</a>
</g>
</g>
<!-- http://example.org/sum#4&#45;&gt;http://example.org/+4 -->
<g id="edge21" class="edge"><title>http://example.org/sum#4&#45;&gt;http://example.org/+4</title>
<path fill="none" stroke="gray" d="M588.277,-277.599C583.237,-287.487 576.729,-300.252 571.017,-311.456"/>
<polygon fill="gray" stroke="gray" points="567.88,-309.905 566.456,-320.403 574.116,-313.084 567.88,-309.905"/>
<text text-anchor="middle" x="596.444" y="-288.281" font-family="Times New Roman,serif" font-size="8.00" fill="gray">gen</text>
</g>
<!-- &#45;attrs4 -->
<g id="node16" class="node"><title>&#45;attrs4</title>
<polygon fill="none" stroke="#f0f0f0" points="562.24,-206 455.24,-206 455.24,-157 568.24,-157 568.24,-200 562.24,-206"/>
<polyline fill="none" stroke="#f0f0f0" points="562.24,-206 562.24,-200 "/>
<polyline fill="none" stroke="#f0f0f0" points="568.24,-200 562.24,-200 "/>
<text text-anchor="start" x="465.74" y="-191.5" font-family="Times New Roman,serif" font-size="10.00" fill="#f0f0f0">value:</text>
<text text-anchor="start" x="492.74" y="-191.5" font-family="Times New Roman,serif" font-size="10.00" fill="#f0f0f0">10003</text>
<text text-anchor="start" x="465.74" y="-178.5" font-family="Times New Roman,serif" font-size="10.00" fill="#f0f0f0">type:</text>
<text text-anchor="start" x="492.74" y="-178.5" font-family="Times New Roman,serif" font-size="10.00" fill="#f0f0f0">operation</text>
<text text-anchor="start" x="465.74" y="-165.5" font-family="Times New Roman,serif" font-size="10.00" fill="#f0f0f0">label:</text>
<text text-anchor="start" x="492.74" y="-165.5" font-family="Times New Roman,serif" font-size="10.00" fill="#f0f0f0">disti[k] + distk[j]</text>
</g>
<!-- &#45;attrs4&#45;&gt;http://example.org/sum#4 -->
<g id="edge15" class="edge"><title>&#45;attrs4&#45;&gt;http://example.org/sum#4</title>
<path fill="none" stroke="#f0f0f0" stroke-dasharray="5,2" d="M538.169,-206.286C551.814,-218.567 568.052,-233.181 579.966,-243.903"/>
</g>
<!-- http://example.org/+4&#45;&gt;http://example.org/disti_ak#4 -->
<g id="edge17" class="edge"><title>http://example.org/+4&#45;&gt;http://example.org/disti_ak#4</title>
<path fill="none" stroke="gray" d="M530.402,-351.119C500.376,-363.88 451.879,-384.491 417.614,-399.054"/>
<polygon fill="gray" stroke="gray" points="416.188,-395.856 408.354,-402.989 418.926,-402.299 416.188,-395.856"/>
<text text-anchor="middle" x="528.58" y="-364.108" font-family="Times New Roman,serif" font-size="8.00" fill="gray">use</text>
</g>
<!-- http://example.org/+4&#45;&gt;http://example.org/distk_aj#4 -->
<g id="edge19" class="edge"><title>http://example.org/+4&#45;&gt;http://example.org/distk_aj#4</title>
<path fill="none" stroke="gray" d="M585.087,-352.825C610.661,-365.286 649.064,-383.999 677.442,-397.826"/>
<polygon fill="gray" stroke="gray" points="676.126,-401.078 686.649,-402.312 679.192,-394.786 676.126,-401.078"/>
<text text-anchor="middle" x="597.52" y="-342.533" font-family="Times New Roman,serif" font-size="8.00" fill="gray">use</text>
</g>
<!-- &#45;attrs5 -->
<g id="node18" class="node"><title>&#45;attrs5</title>
<polygon fill="none" stroke="#f0f0f0" points="537.74,-278 489.74,-278 489.74,-242 543.74,-242 543.74,-272 537.74,-278"/>
<polyline fill="none" stroke="#f0f0f0" points="537.74,-278 537.74,-272 "/>
<polyline fill="none" stroke="#f0f0f0" points="543.74,-272 537.74,-272 "/>
<text text-anchor="start" x="502.74" y="-257" font-family="Times New Roman,serif" font-size="10.00" fill="#f0f0f0">type:</text>
<text text-anchor="start" x="525.74" y="-257" font-family="Times New Roman,serif" font-size="10.00" fill="#f0f0f0">+</text>
</g>
<!-- &#45;attrs5&#45;&gt;http://example.org/+4 -->
<g id="edge16" class="edge"><title>&#45;attrs5&#45;&gt;http://example.org/+4</title>
<path fill="none" stroke="#f0f0f0" stroke-dasharray="5,2" d="M526.043,-278.359C532.801,-290.967 541.899,-307.943 548.614,-320.473"/>
</g>
<!-- http://example.org/ikj#4 -->
<g id="node19" class="node"><title>http://example.org/ikj#4</title>
<g id="a_node19"><a xlink:href="http://example.org/ikj#4" xlink:title="ikj#4">
<ellipse fill="#f0f0f0" stroke="gray" cx="596.74" cy="-103" rx="28.6953" ry="18"/>
<text text-anchor="middle" x="596.74" y="-99.3" font-family="Times New Roman,serif" font-size="14.00" fill="gray">ikj#4</text>
</a>
</g>
</g>
<!-- http://example.org/ikj#4&#45;&gt;http://example.org/sum#4 -->
<g id="edge25" class="edge"><title>http://example.org/ikj#4&#45;&gt;http://example.org/sum#4</title>
<path fill="none" stroke="gray" d="M596.74,-121.18C596.74,-147.832 596.74,-199.391 596.74,-231.335"/>
<polygon fill="gray" stroke="gray" points="593.24,-231.743 596.74,-241.743 600.24,-231.743 593.24,-231.743"/>
<text text-anchor="middle" x="609.73" y="-126.78" font-family="Times New Roman,serif" font-size="8.00" fill="gray">der</text>
</g>
<!-- http://example.org/assign17 -->
<g id="node21" class="node"><title>http://example.org/assign17</title>
<g id="a_node21"><a xlink:href="http://example.org/assign17" xlink:title="assign17">
<polygon fill="#f0f0f0" stroke="gray" points="690.24,-199.5 625.24,-199.5 625.24,-163.5 690.24,-163.5 690.24,-199.5"/>
<text text-anchor="middle" x="657.74" y="-177.8" font-family="Times New Roman,serif" font-size="14.00" fill="gray">assign17</text>
</a>
</g>
</g>
<!-- http://example.org/ikj#4&#45;&gt;http://example.org/assign17 -->
<g id="edge26" class="edge"><title>http://example.org/ikj#4&#45;&gt;http://example.org/assign17</title>
<path fill="none" stroke="gray" d="M609.084,-119.481C617.344,-129.839 628.396,-143.7 637.879,-155.593"/>
<polygon fill="gray" stroke="gray" points="635.169,-157.808 644.14,-163.445 640.642,-153.444 635.169,-157.808"/>
<text text-anchor="middle" x="623.917" y="-115.346" font-family="Times New Roman,serif" font-size="8.00" fill="gray">gen</text>
</g>
<!-- &#45;attrs6 -->
<g id="node20" class="node"><title>&#45;attrs6</title>
<polygon fill="none" stroke="#f0f0f0" points="625.74,-49 561.74,-49 561.74,-0 631.74,-0 631.74,-43 625.74,-49"/>
<polyline fill="none" stroke="#f0f0f0" points="625.74,-49 625.74,-43 "/>
<polyline fill="none" stroke="#f0f0f0" points="631.74,-43 625.74,-43 "/>
<text text-anchor="start" x="571.74" y="-34.5" font-family="Times New Roman,serif" font-size="10.00" fill="#f0f0f0">value:</text>
<text text-anchor="start" x="598.74" y="-34.5" font-family="Times New Roman,serif" font-size="10.00" fill="#f0f0f0">10003</text>
<text text-anchor="start" x="571.74" y="-21.5" font-family="Times New Roman,serif" font-size="10.00" fill="#f0f0f0">type:</text>
<text text-anchor="start" x="598.74" y="-21.5" font-family="Times New Roman,serif" font-size="10.00" fill="#f0f0f0">name</text>
<text text-anchor="start" x="571.74" y="-8.5" font-family="Times New Roman,serif" font-size="10.00" fill="#f0f0f0">label:</text>
<text text-anchor="start" x="598.74" y="-8.5" font-family="Times New Roman,serif" font-size="10.00" fill="#f0f0f0">ikj</text>
</g>
<!-- &#45;attrs6&#45;&gt;http://example.org/ikj#4 -->
<g id="edge22" class="edge"><title>&#45;attrs6&#45;&gt;http://example.org/ikj#4</title>
<path fill="none" stroke="#f0f0f0" stroke-dasharray="5,2" d="M596.74,-49.2857C596.74,-60.6896 596.74,-74.105 596.74,-84.5482"/>
</g>
<!-- http://example.org/assign17&#45;&gt;http://example.org/sum#4 -->
<g id="edge24" class="edge"><title>http://example.org/assign17&#45;&gt;http://example.org/sum#4</title>
<path fill="none" stroke="gray" d="M643.898,-199.859C635.582,-210.288 624.883,-223.706 615.778,-235.125"/>
<polygon fill="gray" stroke="gray" points="612.985,-233.013 609.487,-243.014 618.458,-237.377 612.985,-233.013"/>
<text text-anchor="middle" x="649.379" y="-211.922" font-family="Times New Roman,serif" font-size="8.00" fill="gray">use</text>
</g>
<!-- &#45;attrs7 -->
<g id="node22" class="node"><title>&#45;attrs7</title>
<polygon fill="none" stroke="#f0f0f0" points="707.74,-121 643.74,-121 643.74,-85 713.74,-85 713.74,-115 707.74,-121"/>
<polyline fill="none" stroke="#f0f0f0" points="707.74,-121 707.74,-115 "/>
<polyline fill="none" stroke="#f0f0f0" points="713.74,-115 707.74,-115 "/>
<text text-anchor="start" x="653.74" y="-100" font-family="Times New Roman,serif" font-size="10.00" fill="#f0f0f0">type:</text>
<text text-anchor="start" x="676.74" y="-100" font-family="Times New Roman,serif" font-size="10.00" fill="#f0f0f0">assign</text>
</g>
<!-- &#45;attrs7&#45;&gt;http://example.org/assign17 -->
<g id="edge23" class="edge"><title>&#45;attrs7&#45;&gt;http://example.org/assign17</title>
<path fill="none" stroke="#f0f0f0" stroke-dasharray="5,2" d="M673.975,-121.359C670.514,-133.967 665.854,-150.943 662.414,-163.473"/>
</g>
</g>
</svg>
