<?xml version="1.0" encoding="UTF-8" standalone="no"?>
<!DOCTYPE svg PUBLIC "-//W3C//DTD SVG 1.1//EN"
 "http://www.w3.org/Graphics/SVG/1.1/DTD/svg11.dtd">
<!-- Generated by graphviz version 2.38.0 (20140413.2041)
 -->
<!-- Title: PROV Pages: 1 -->
<svg width="1139pt" height="636pt"
 viewBox="0.00 0.00 1138.98 636.00" xmlns="http://www.w3.org/2000/svg" xmlns:xlink="http://www.w3.org/1999/xlink">
<g id="graph0" class="graph" transform="scale(1 1) rotate(0) translate(4 632)">
<title>PROV</title>
<polygon fill="white" stroke="none" points="-4,4 -4,-632 1134.98,-632 1134.98,4 -4,4"/>
<!-- http://example.org/disti_aj#14 -->
<g id="node1" class="node"><title>http://example.org/disti_aj#14</title>
<g id="a_node1"><a xlink:href="http://example.org/disti_aj#14" xlink:title="disti_aj#14">
<ellipse fill="#fffc87" stroke="#808080" cx="668.741" cy="-450" rx="50.0912" ry="18"/>
<text text-anchor="middle" x="668.741" y="-446.3" font-family="Times New Roman,serif" font-size="14.00">disti_aj#14</text>
</a>
</g>
</g>
<!-- http://example.org/assign25 -->
<g id="node15" class="node"><title>http://example.org/assign25</title>
<g id="a_node15"><a xlink:href="http://example.org/assign25" xlink:title="assign25">
<polygon fill="#9fb1fc" stroke="#0000ff" points="593.241,-555 528.241,-555 528.241,-519 593.241,-519 593.241,-555"/>
<text text-anchor="middle" x="560.741" y="-533.3" font-family="Times New Roman,serif" font-size="14.00">assign25</text>
</a>
</g>
</g>
<!-- http://example.org/disti_aj#14&#45;&gt;http://example.org/assign25 -->
<g id="edge17" class="edge"><title>http://example.org/disti_aj#14&#45;&gt;http://example.org/assign25</title>
<path fill="none" stroke="black" d="M648.932,-466.59C632.594,-479.449 609.162,-497.891 590.557,-512.534"/>
<polygon fill="black" stroke="black" points="588.347,-509.819 582.653,-518.754 592.676,-515.32 588.347,-509.819"/>
<text text-anchor="middle" x="651.073" y="-479.537" font-family="Times New Roman,serif" font-size="8.00">gen</text>
</g>
<!-- http://example.org/ikj#12 -->
<g id="node17" class="node"><title>http://example.org/ikj#12</title>
<ellipse fill="none" stroke="black" cx="797.741" cy="-610" rx="100.983" ry="18"/>
<text text-anchor="middle" x="797.741" y="-606.3" font-family="Times New Roman,serif" font-size="14.00">http://example.org/ikj#12</text>
</g>
<!-- http://example.org/disti_aj#14&#45;&gt;http://example.org/ikj#12 -->
<g id="edge16" class="edge"><title>http://example.org/disti_aj#14&#45;&gt;http://example.org/ikj#12</title>
<path fill="none" stroke="black" d="M673.982,-468.071C682.611,-493.796 701.982,-542.802 732.741,-574 737.938,-579.271 744.097,-583.945 750.521,-588.023"/>
<polygon fill="black" stroke="black" points="748.982,-591.177 759.38,-593.214 752.522,-585.138 748.982,-591.177"/>
<text text-anchor="middle" x="688.715" y="-468.989" font-family="Times New Roman,serif" font-size="8.00">der</text>
</g>
<!-- &#45;attrs0 -->
<g id="node2" class="node"><title>&#45;attrs0</title>
<polygon fill="none" stroke="gray" points="704.741,-381 626.741,-381 626.741,-332 710.741,-332 710.741,-375 704.741,-381"/>
<polyline fill="none" stroke="gray" points="704.741,-381 704.741,-375 "/>
<polyline fill="none" stroke="gray" points="710.741,-375 704.741,-375 "/>
<text text-anchor="start" x="636.741" y="-366.5" font-family="Times New Roman,serif" font-size="10.00">value:</text>
<text text-anchor="start" x="663.741" y="-366.5" font-family="Times New Roman,serif" font-size="10.00">&quot;3&quot;</text>
<text text-anchor="start" x="636.741" y="-353.5" font-family="Times New Roman,serif" font-size="10.00">type:</text>
<text text-anchor="start" x="663.741" y="-353.5" font-family="Times New Roman,serif" font-size="10.00">&quot;access&quot;</text>
<text text-anchor="start" x="636.741" y="-340.5" font-family="Times New Roman,serif" font-size="10.00">label:</text>
<text text-anchor="start" x="663.741" y="-340.5" font-family="Times New Roman,serif" font-size="10.00">&quot;disti[j]&quot;</text>
</g>
<!-- &#45;attrs0&#45;&gt;http://example.org/disti_aj#14 -->
<g id="edge1" class="edge"><title>&#45;attrs0&#45;&gt;http://example.org/disti_aj#14</title>
<path fill="none" stroke="gray" stroke-dasharray="5,2" d="M668.741,-381.064C668.741,-396.949 668.741,-417.543 668.741,-431.873"/>
</g>
<!-- http://example.org/disti#6 -->
<g id="node3" class="node"><title>http://example.org/disti#6</title>
<g id="a_node3"><a xlink:href="http://example.org/disti#6" xlink:title="disti#6">
<ellipse fill="#fffc87" stroke="#808080" cx="492.741" cy="-277" rx="35.194" ry="18"/>
<text text-anchor="middle" x="492.741" y="-273.3" font-family="Times New Roman,serif" font-size="14.00">disti#6</text>
</a>
</g>
</g>
<!-- bn0 -->
<g id="node5" class="node"><title>bn0</title>
<ellipse fill="black" stroke="black" cx="461.741" cy="-356.5" rx="1.8" ry="1.8"/>
</g>
<!-- http://example.org/disti#6&#45;&gt;bn0 -->
<g id="edge3" class="edge"><title>http://example.org/disti#6&#45;&gt;bn0</title>
<path fill="none" stroke="darkgreen" d="M486.015,-294.816C477.752,-315.473 464.53,-348.528 462.123,-354.545"/>
<text text-anchor="middle" x="466.515" y="-298.616" font-family="Times New Roman,serif" font-size="14.00">der&#45;ins</text>
</g>
<!-- http://example.org/disti#6&#45;&gt;http://example.org/assign25 -->
<g id="edge22" class="edge"><title>http://example.org/disti#6&#45;&gt;http://example.org/assign25</title>
<path fill="none" stroke="black" d="M491.55,-295.188C489.801,-329.352 488.904,-407.702 511.741,-468 517.645,-483.59 528.078,-498.844 537.804,-510.942"/>
<polygon fill="black" stroke="black" points="535.259,-513.354 544.36,-518.778 540.628,-508.862 535.259,-513.354"/>
<text text-anchor="middle" x="504.219" y="-301.318" font-family="Times New Roman,serif" font-size="8.00">gen</text>
</g>
<!-- &#45;attrs1 -->
<g id="node4" class="node"><title>&#45;attrs1</title>
<polygon fill="none" stroke="gray" points="537.241,-208 444.241,-208 444.241,-159 543.241,-159 543.241,-202 537.241,-208"/>
<polyline fill="none" stroke="gray" points="537.241,-208 537.241,-202 "/>
<polyline fill="none" stroke="gray" points="543.241,-202 537.241,-202 "/>
<text text-anchor="start" x="454.741" y="-193.5" font-family="Times New Roman,serif" font-size="10.00">value:</text>
<text text-anchor="start" x="481.741" y="-193.5" font-family="Times New Roman,serif" font-size="10.00">&quot;[0, 1, 3]&quot;</text>
<text text-anchor="start" x="454.741" y="-180.5" font-family="Times New Roman,serif" font-size="10.00">type:</text>
<text text-anchor="start" x="481.741" y="-180.5" font-family="Times New Roman,serif" font-size="10.00">&quot;Dictionary&quot;</text>
<text text-anchor="start" x="454.741" y="-167.5" font-family="Times New Roman,serif" font-size="10.00">label:</text>
<text text-anchor="start" x="481.741" y="-167.5" font-family="Times New Roman,serif" font-size="10.00">&quot;disti&quot;</text>
</g>
<!-- &#45;attrs1&#45;&gt;http://example.org/disti#6 -->
<g id="edge2" class="edge"><title>&#45;attrs1&#45;&gt;http://example.org/disti#6</title>
<path fill="none" stroke="gray" stroke-dasharray="5,2" d="M493.484,-208.064C493.31,-223.949 493.085,-244.543 492.928,-258.873"/>
</g>
<!-- bn0&#45;&gt;http://example.org/disti_aj#14 -->
<g id="edge5" class="edge"><title>bn0&#45;&gt;http://example.org/disti_aj#14</title>
<path fill="none" stroke="darkgreen" d="M463.063,-358.084C475.497,-363.58 572.704,-406.549 628.919,-431.397"/>
<polygon fill="darkgreen" stroke="darkgreen" points="627.678,-434.676 638.239,-435.517 630.508,-428.273 627.678,-434.676"/>
<text text-anchor="middle" x="592.741" y="-402.8" font-family="Times New Roman,serif" font-size="14.00">[2]</text>
</g>
<!-- http://example.org/disti#5 -->
<g id="node6" class="node"><title>http://example.org/disti#5</title>
<ellipse fill="none" stroke="black" cx="321.741" cy="-610" rx="102.882" ry="18"/>
<text text-anchor="middle" x="321.741" y="-606.3" font-family="Times New Roman,serif" font-size="14.00">http://example.org/disti#5</text>
</g>
<!-- bn0&#45;&gt;http://example.org/disti#5 -->
<g id="edge4" class="edge"><title>bn0&#45;&gt;http://example.org/disti#5</title>
<path fill="none" stroke="darkgreen" d="M461.54,-358.362C458.812,-369.913 428.275,-494.98 366.741,-574 363.48,-578.188 359.611,-582.157 355.531,-585.815"/>
<polygon fill="darkgreen" stroke="darkgreen" points="352.999,-583.367 347.531,-592.442 357.464,-588.758 352.999,-583.367"/>
<text text-anchor="middle" x="428.241" y="-489.8" font-family="Times New Roman,serif" font-size="14.00">der</text>
</g>
<!-- http://example.org/dist#3 -->
<g id="node7" class="node"><title>http://example.org/dist#3</title>
<g id="a_node7"><a xlink:href="http://example.org/dist#3" xlink:title="dist#3">
<ellipse fill="#fffc87" stroke="#808080" cx="403.741" cy="-104" rx="33.2948" ry="18"/>
<text text-anchor="middle" x="403.741" y="-100.3" font-family="Times New Roman,serif" font-size="14.00">dist#3</text>
</a>
</g>
</g>
<!-- bn1 -->
<g id="node9" class="node"><title>bn1</title>
<ellipse fill="black" stroke="black" cx="424.741" cy="-183.5" rx="1.8" ry="1.8"/>
</g>
<!-- http://example.org/dist#3&#45;&gt;bn1 -->
<g id="edge7" class="edge"><title>http://example.org/dist#3&#45;&gt;bn1</title>
<path fill="none" stroke="darkgreen" d="M408.402,-122.2C414.008,-142.891 422.872,-175.603 424.485,-181.555"/>
<text text-anchor="middle" x="388.902" y="-126" font-family="Times New Roman,serif" font-size="14.00">der&#45;ins</text>
</g>
<!-- http://example.org/dist#3&#45;&gt;http://example.org/assign25 -->
<g id="edge23" class="edge"><title>http://example.org/dist#3&#45;&gt;http://example.org/assign25</title>
<path fill="none" stroke="black" d="M398.145,-122.029C393.531,-137.595 387.741,-161.343 387.741,-182.5 387.741,-182.5 387.741,-182.5 387.741,-314 387.741,-397.585 352.236,-438.505 407.741,-501 422.181,-517.259 478.087,-526.849 518.142,-531.766"/>
<polygon fill="black" stroke="black" points="517.864,-535.257 528.204,-532.945 518.679,-528.304 517.864,-535.257"/>
<text text-anchor="middle" x="408.552" y="-130.932" font-family="Times New Roman,serif" font-size="8.00">gen</text>
</g>
<!-- &#45;attrs2 -->
<g id="node8" class="node"><title>&#45;attrs2</title>
<polygon fill="none" stroke="gray" points="485.241,-49 316.241,-49 316.241,-0 491.241,-0 491.241,-43 485.241,-49"/>
<polyline fill="none" stroke="gray" points="485.241,-49 485.241,-43 "/>
<polyline fill="none" stroke="gray" points="491.241,-43 485.241,-43 "/>
<text text-anchor="start" x="326.741" y="-34.5" font-family="Times New Roman,serif" font-size="10.00">value:</text>
<text text-anchor="start" x="353.741" y="-34.5" font-family="Times New Roman,serif" font-size="10.00">&quot;[[0, 1, 3], [10000, 0, 2], [2, 3, 0]]&quot;</text>
<text text-anchor="start" x="326.741" y="-21.5" font-family="Times New Roman,serif" font-size="10.00">type:</text>
<text text-anchor="start" x="353.741" y="-21.5" font-family="Times New Roman,serif" font-size="10.00">&quot;Dictionary&quot;</text>
<text text-anchor="start" x="326.741" y="-8.5" font-family="Times New Roman,serif" font-size="10.00">label:</text>
<text text-anchor="start" x="353.741" y="-8.5" font-family="Times New Roman,serif" font-size="10.00">&quot;dist&quot;</text>
</g>
<!-- &#45;attrs2&#45;&gt;http://example.org/dist#3 -->
<g id="edge6" class="edge"><title>&#45;attrs2&#45;&gt;http://example.org/dist#3</title>
<path fill="none" stroke="gray" stroke-dasharray="5,2" d="M403.741,-49.1737C403.741,-60.9254 403.741,-74.869 403.741,-85.6196"/>
</g>
<!-- bn1&#45;&gt;http://example.org/disti#6 -->
<g id="edge9" class="edge"><title>bn1&#45;&gt;http://example.org/disti#6</title>
<path fill="none" stroke="darkgreen" d="M425.028,-185.445C426.047,-188.725 429.7,-199.857 434.741,-208 444.818,-224.28 458.655,-240.664 470.287,-253.269"/>
<polygon fill="darkgreen" stroke="darkgreen" points="467.785,-255.718 477.191,-260.595 472.88,-250.917 467.785,-255.718"/>
<text text-anchor="middle" x="466.741" y="-229.8" font-family="Times New Roman,serif" font-size="14.00">[0]</text>
</g>
<!-- http://example.org/dist#2 -->
<g id="node10" class="node"><title>http://example.org/dist#2</title>
<ellipse fill="none" stroke="black" cx="100.741" cy="-610" rx="100.983" ry="18"/>
<text text-anchor="middle" x="100.741" y="-606.3" font-family="Times New Roman,serif" font-size="14.00">http://example.org/dist#2</text>
</g>
<!-- bn1&#45;&gt;http://example.org/dist#2 -->
<g id="edge8" class="edge"><title>bn1&#45;&gt;http://example.org/dist#2</title>
<path fill="none" stroke="darkgreen" d="M424.738,-185.45C424.676,-193.69 423.473,-253.736 401.741,-295 333.181,-425.181 194.629,-539.087 132.336,-586.086"/>
<polygon fill="darkgreen" stroke="darkgreen" points="129.981,-583.477 124.068,-592.268 134.173,-589.083 129.981,-583.477"/>
<text text-anchor="middle" x="340.241" y="-402.8" font-family="Times New Roman,serif" font-size="14.00">der</text>
</g>
<!-- http://example.org/result#3 -->
<g id="node11" class="node"><title>http://example.org/result#3</title>
<g id="a_node11"><a xlink:href="http://example.org/result#3" xlink:title="result#3">
<ellipse fill="#fffc87" stroke="#808080" cx="771.741" cy="-104" rx="39.7935" ry="18"/>
<text text-anchor="middle" x="771.741" y="-100.3" font-family="Times New Roman,serif" font-size="14.00">result#3</text>
</a>
</g>
</g>
<!-- bn2 -->
<g id="node13" class="node"><title>bn2</title>
<ellipse fill="black" stroke="black" cx="746.741" cy="-183.5" rx="1.8" ry="1.8"/>
</g>
<!-- http://example.org/result#3&#45;&gt;bn2 -->
<g id="edge11" class="edge"><title>http://example.org/result#3&#45;&gt;bn2</title>
<path fill="none" stroke="darkgreen" d="M766.193,-122.2C759.518,-142.891 748.966,-175.603 747.046,-181.555"/>
<text text-anchor="middle" x="746.693" y="-126" font-family="Times New Roman,serif" font-size="14.00">der&#45;ins</text>
</g>
<!-- http://example.org/result#3&#45;&gt;http://example.org/assign25 -->
<g id="edge24" class="edge"><title>http://example.org/result#3&#45;&gt;http://example.org/assign25</title>
<path fill="none" stroke="black" d="M776.288,-122.1C780.037,-137.712 784.741,-161.49 784.741,-182.5 784.741,-182.5 784.741,-182.5 784.741,-451 784.741,-489.397 668.237,-516.62 603.271,-528.816"/>
<polygon fill="black" stroke="black" points="602.516,-525.396 593.313,-530.644 603.78,-532.281 602.516,-525.396"/>
<text text-anchor="middle" x="790.643" y="-124.551" font-family="Times New Roman,serif" font-size="8.00">gen</text>
</g>
<!-- &#45;attrs3 -->
<g id="node12" class="node"><title>&#45;attrs3</title>
<polygon fill="none" stroke="gray" points="853.241,-49 684.241,-49 684.241,-0 859.241,-0 859.241,-43 853.241,-49"/>
<polyline fill="none" stroke="gray" points="853.241,-49 853.241,-43 "/>
<polyline fill="none" stroke="gray" points="859.241,-43 853.241,-43 "/>
<text text-anchor="start" x="694.741" y="-34.5" font-family="Times New Roman,serif" font-size="10.00">value:</text>
<text text-anchor="start" x="721.741" y="-34.5" font-family="Times New Roman,serif" font-size="10.00">&quot;[[0, 1, 3], [10000, 0, 2], [2, 3, 0]]&quot;</text>
<text text-anchor="start" x="694.741" y="-21.5" font-family="Times New Roman,serif" font-size="10.00">type:</text>
<text text-anchor="start" x="721.741" y="-21.5" font-family="Times New Roman,serif" font-size="10.00">&quot;Dictionary&quot;</text>
<text text-anchor="start" x="694.741" y="-8.5" font-family="Times New Roman,serif" font-size="10.00">label:</text>
<text text-anchor="start" x="721.741" y="-8.5" font-family="Times New Roman,serif" font-size="10.00">&quot;result&quot;</text>
</g>
<!-- &#45;attrs3&#45;&gt;http://example.org/result#3 -->
<g id="edge10" class="edge"><title>&#45;attrs3&#45;&gt;http://example.org/result#3</title>
<path fill="none" stroke="gray" stroke-dasharray="5,2" d="M771.741,-49.1737C771.741,-60.9254 771.741,-74.869 771.741,-85.6196"/>
</g>
<!-- bn2&#45;&gt;http://example.org/disti#6 -->
<g id="edge13" class="edge"><title>bn2&#45;&gt;http://example.org/disti#6</title>
<path fill="none" stroke="darkgreen" d="M745.609,-184.908C731.924,-189.838 597.645,-238.21 530.529,-262.387"/>
<polygon fill="darkgreen" stroke="darkgreen" points="528.971,-259.228 520.749,-265.911 531.343,-265.814 528.971,-259.228"/>
<text text-anchor="middle" x="635.741" y="-229.8" font-family="Times New Roman,serif" font-size="14.00">[0]</text>
</g>
<!-- http://example.org/result#2 -->
<g id="node14" class="node"><title>http://example.org/result#2</title>
<ellipse fill="none" stroke="black" cx="1023.74" cy="-610" rx="107.482" ry="18"/>
<text text-anchor="middle" x="1023.74" y="-606.3" font-family="Times New Roman,serif" font-size="14.00">http://example.org/result#2</text>
</g>
<!-- bn2&#45;&gt;http://example.org/result#2 -->
<g id="edge12" class="edge"><title>bn2&#45;&gt;http://example.org/result#2</title>
<path fill="none" stroke="darkgreen" d="M746.741,-185.402C746.741,-192.381 746.741,-238.51 746.741,-276 746.741,-276 746.741,-276 746.741,-538 746.741,-558.055 857.104,-581.08 938.506,-595.336"/>
<polygon fill="darkgreen" stroke="darkgreen" points="938.33,-598.857 948.781,-597.116 939.525,-591.96 938.33,-598.857"/>
<text text-anchor="middle" x="756.241" y="-402.8" font-family="Times New Roman,serif" font-size="14.00">der</text>
</g>
<!-- http://example.org/assign25&#45;&gt;http://example.org/disti#5 -->
<g id="edge19" class="edge"><title>http://example.org/assign25&#45;&gt;http://example.org/disti#5</title>
<path fill="none" stroke="black" d="M534.113,-555.181C522.682,-561.904 508.939,-569.15 495.741,-574 468.823,-583.891 438.479,-591.217 410.758,-596.534"/>
<polygon fill="black" stroke="black" points="409.87,-593.139 400.675,-598.404 411.146,-600.022 409.87,-593.139"/>
<text text-anchor="middle" x="534.15" y="-568.281" font-family="Times New Roman,serif" font-size="8.00">use</text>
</g>
<!-- http://example.org/assign25&#45;&gt;http://example.org/dist#2 -->
<g id="edge20" class="edge"><title>http://example.org/assign25&#45;&gt;http://example.org/dist#2</title>
<path fill="none" stroke="black" d="M527.905,-544.812C489.418,-552.63 423.654,-565.467 366.741,-574 297.282,-584.414 279.342,-582.586 209.741,-592 201.053,-593.175 191.988,-594.473 182.957,-595.813"/>
<polygon fill="black" stroke="black" points="182.167,-592.393 172.798,-597.339 183.207,-599.315 182.167,-592.393"/>
<text text-anchor="middle" x="523.121" y="-557.129" font-family="Times New Roman,serif" font-size="8.00">use</text>
</g>
<!-- http://example.org/assign25&#45;&gt;http://example.org/result#2 -->
<g id="edge21" class="edge"><title>http://example.org/assign25&#45;&gt;http://example.org/result#2</title>
<path fill="none" stroke="black" d="M593.528,-545.922C628,-554.002 683.906,-566.399 732.741,-574 809.999,-586.025 830.153,-582.329 907.741,-592 917.36,-593.199 927.415,-594.54 937.41,-595.929"/>
<polygon fill="black" stroke="black" points="936.978,-599.403 947.368,-597.331 937.953,-592.471 936.978,-599.403"/>
<text text-anchor="middle" x="603.773" y="-533.065" font-family="Times New Roman,serif" font-size="8.00">use</text>
</g>
<!-- http://example.org/assign25&#45;&gt;http://example.org/ikj#12 -->
<g id="edge15" class="edge"><title>http://example.org/assign25&#45;&gt;http://example.org/ikj#12</title>
<path fill="none" stroke="black" d="M589.59,-555.053C601.928,-561.756 616.702,-569.021 630.741,-574 656.983,-583.306 686.467,-590.497 713.276,-595.871"/>
<polygon fill="black" stroke="black" points="712.923,-599.368 723.407,-597.843 714.26,-592.497 712.923,-599.368"/>
<text text-anchor="middle" x="602.342" y="-545.256" font-family="Times New Roman,serif" font-size="8.00">use</text>
</g>
<!-- http://example.org/disti_aj#13 -->
<g id="node18" class="node"><title>http://example.org/disti_aj#13</title>
<ellipse fill="none" stroke="black" cx="560.741" cy="-610" rx="118.079" ry="18"/>
<text text-anchor="middle" x="560.741" y="-606.3" font-family="Times New Roman,serif" font-size="14.00">http://example.org/disti_aj#13</text>
</g>
<!-- http://example.org/assign25&#45;&gt;http://example.org/disti_aj#13 -->
<g id="edge18" class="edge"><title>http://example.org/assign25&#45;&gt;http://example.org/disti_aj#13</title>
<path fill="none" stroke="black" d="M560.741,-555.187C560.741,-563.211 560.741,-572.953 560.741,-581.931"/>
<polygon fill="black" stroke="black" points="557.241,-581.971 560.741,-591.971 564.241,-581.971 557.241,-581.971"/>
<text text-anchor="middle" x="573.731" y="-560.787" font-family="Times New Roman,serif" font-size="8.00">use</text>
</g>
<!-- &#45;attrs4 -->
<g id="node16" class="node"><title>&#45;attrs4</title>
<polygon fill="none" stroke="gray" points="594.241,-468 521.241,-468 521.241,-432 600.241,-432 600.241,-462 594.241,-468"/>
<polyline fill="none" stroke="gray" points="594.241,-468 594.241,-462 "/>
<polyline fill="none" stroke="gray" points="600.241,-462 594.241,-462 "/>
<text text-anchor="start" x="531.741" y="-447" font-family="Times New Roman,serif" font-size="10.00">type:</text>
<text text-anchor="start" x="554.741" y="-447" font-family="Times New Roman,serif" font-size="10.00">&quot;assign&quot;</text>
</g>
<!-- &#45;attrs4&#45;&gt;http://example.org/assign25 -->
<g id="edge14" class="edge"><title>&#45;attrs4&#45;&gt;http://example.org/assign25</title>
<path fill="none" stroke="gray" stroke-dasharray="5,2" d="M560.741,-468.201C560.741,-482.948 560.741,-504.085 560.741,-518.825"/>
</g>
</g>
</svg>
