<?xml version="1.0" encoding="UTF-8" standalone="no"?>
<!DOCTYPE svg PUBLIC "-//W3C//DTD SVG 1.1//EN"
 "http://www.w3.org/Graphics/SVG/1.1/DTD/svg11.dtd">
<!-- Generated by graphviz version 2.38.0 (20140413.2041)
 -->
<!-- Title: PROV Pages: 1 -->
<svg width="1152pt" height="504pt"
 viewBox="0.00 0.00 1152.00 503.90" xmlns="http://www.w3.org/2000/svg" xmlns:xlink="http://www.w3.org/1999/xlink">
<g id="graph0" class="graph" transform="scale(0.858432 0.858432) rotate(0) translate(4 583)">
<title>PROV</title>
<polygon fill="white" stroke="none" points="-4,4 -4,-583 1337.98,-583 1337.98,4 -4,4"/>
<!-- http://example.org/disti_ak#5 -->
<g id="node1" class="node"><title>http://example.org/disti_ak#5</title>
<g id="a_node1"><a xlink:href="http://example.org/disti_ak#5" xlink:title="disti_ak#5">
<ellipse fill="#f0f0f0" stroke="gray" cx="379.74" cy="-417" rx="48.1917" ry="18"/>
<text text-anchor="middle" x="379.74" y="-413.3" font-family="Times New Roman,serif" font-size="14.00" fill="gray">disti_ak#5</text>
</a>
</g>
</g>
<!-- http://example.org/access45 -->
<g id="node3" class="node"><title>http://example.org/access45</title>
<g id="a_node3"><a xlink:href="http://example.org/access45" xlink:title="access45">
<polygon fill="#f0f0f0" stroke="gray" points="413.74,-507 345.74,-507 345.74,-471 413.74,-471 413.74,-507"/>
<text text-anchor="middle" x="379.74" y="-485.3" font-family="Times New Roman,serif" font-size="14.00" fill="gray">access45</text>
</a>
</g>
</g>
<!-- http://example.org/disti_ak#5&#45;&gt;http://example.org/access45 -->
<g id="edge5" class="edge"><title>http://example.org/disti_ak#5&#45;&gt;http://example.org/access45</title>
<path fill="none" stroke="gray" d="M379.74,-435.303C379.74,-443.017 379.74,-452.288 379.74,-460.888"/>
<polygon fill="gray" stroke="gray" points="376.24,-460.896 379.74,-470.896 383.24,-460.896 376.24,-460.896"/>
<text text-anchor="middle" x="392.73" y="-440.903" font-family="Times New Roman,serif" font-size="8.00" fill="gray">gen</text>
</g>
<!-- http://example.org/disti_aj#5 -->
<g id="node5" class="node"><title>http://example.org/disti_aj#5</title>
<ellipse fill="none" stroke="black" cx="113.74" cy="-561" rx="113.98" ry="18"/>
<text text-anchor="middle" x="113.74" y="-557.3" font-family="Times New Roman,serif" font-size="14.00">http://example.org/disti_aj#5</text>
</g>
<!-- http://example.org/disti_ak#5&#45;&gt;http://example.org/disti_aj#5 -->
<g id="edge4" class="edge"><title>http://example.org/disti_ak#5&#45;&gt;http://example.org/disti_aj#5</title>
<path fill="none" stroke="gray" d="M353.262,-432.135C306.43,-457.135 208.746,-509.283 153.691,-538.673"/>
<polygon fill="gray" stroke="gray" points="151.756,-535.738 144.583,-543.535 155.053,-541.913 151.756,-535.738"/>
<text text-anchor="middle" x="352.764" y="-445.226" font-family="Times New Roman,serif" font-size="8.00" fill="gray">der</text>
</g>
<!-- &#45;attrs0 -->
<g id="node2" class="node"><title>&#45;attrs0</title>
<polygon fill="none" stroke="#f0f0f0" points="477.24,-363 408.24,-363 408.24,-314 483.24,-314 483.24,-357 477.24,-363"/>
<polyline fill="none" stroke="#f0f0f0" points="477.24,-363 477.24,-357 "/>
<polyline fill="none" stroke="#f0f0f0" points="483.24,-357 477.24,-357 "/>
<text text-anchor="start" x="418.74" y="-348.5" font-family="Times New Roman,serif" font-size="10.00" fill="#f0f0f0">value:</text>
<text text-anchor="start" x="445.74" y="-348.5" font-family="Times New Roman,serif" font-size="10.00" fill="#f0f0f0">3</text>
<text text-anchor="start" x="418.74" y="-335.5" font-family="Times New Roman,serif" font-size="10.00" fill="#f0f0f0">type:</text>
<text text-anchor="start" x="445.74" y="-335.5" font-family="Times New Roman,serif" font-size="10.00" fill="#f0f0f0">access</text>
<text text-anchor="start" x="418.74" y="-322.5" font-family="Times New Roman,serif" font-size="10.00" fill="#f0f0f0">label:</text>
<text text-anchor="start" x="445.74" y="-322.5" font-family="Times New Roman,serif" font-size="10.00" fill="#f0f0f0">disti[k]</text>
</g>
<!-- &#45;attrs0&#45;&gt;http://example.org/disti_ak#5 -->
<g id="edge1" class="edge"><title>&#45;attrs0&#45;&gt;http://example.org/disti_ak#5</title>
<path fill="none" stroke="#f0f0f0" stroke-dasharray="5,2" d="M425.219,-363.286C415.078,-375.04 403.092,-388.932 393.972,-399.504"/>
</g>
<!-- http://example.org/access45&#45;&gt;http://example.org/disti_aj#5 -->
<g id="edge3" class="edge"><title>http://example.org/access45&#45;&gt;http://example.org/disti_aj#5</title>
<path fill="none" stroke="gray" d="M345.51,-499.008C303.722,-510.005 232.134,-528.844 179.55,-542.682"/>
<polygon fill="gray" stroke="gray" points="178.413,-539.362 169.633,-545.291 180.194,-546.131 178.413,-539.362"/>
<text text-anchor="middle" x="341.563" y="-511.579" font-family="Times New Roman,serif" font-size="8.00" fill="gray">use</text>
</g>
<!-- http://example.org/disti#7 -->
<g id="node6" class="node"><title>http://example.org/disti#7</title>
<ellipse fill="none" stroke="black" cx="347.74" cy="-561" rx="102.882" ry="18"/>
<text text-anchor="middle" x="347.74" y="-557.3" font-family="Times New Roman,serif" font-size="14.00">http://example.org/disti#7</text>
</g>
<!-- http://example.org/access45&#45;&gt;http://example.org/disti#7 -->
<g id="edge6" class="edge"><title>http://example.org/access45&#45;&gt;http://example.org/disti#7</title>
<path fill="none" stroke="gray" d="M371.83,-507.303C368.187,-515.272 363.785,-524.9 359.746,-533.736"/>
<polygon fill="gray" stroke="gray" points="356.534,-532.346 355.559,-542.896 362.9,-535.256 356.534,-532.346"/>
<text text-anchor="middle" x="380.526" y="-517.625" font-family="Times New Roman,serif" font-size="8.00" fill="gray">use</text>
</g>
<!-- http://example.org/k#3 -->
<g id="node7" class="node"><title>http://example.org/k#3</title>
<ellipse fill="none" stroke="black" cx="560.74" cy="-561" rx="92.0841" ry="18"/>
<text text-anchor="middle" x="560.74" y="-557.3" font-family="Times New Roman,serif" font-size="14.00">http://example.org/k#3</text>
</g>
<!-- http://example.org/access45&#45;&gt;http://example.org/k#3 -->
<g id="edge7" class="edge"><title>http://example.org/access45&#45;&gt;http://example.org/k#3</title>
<path fill="none" stroke="gray" d="M413.785,-503.166C441.44,-513.862 480.807,-529.087 511.836,-541.087"/>
<polygon fill="gray" stroke="gray" points="510.587,-544.356 521.176,-544.699 513.112,-537.828 510.587,-544.356"/>
<text text-anchor="middle" x="425.465" y="-491.856" font-family="Times New Roman,serif" font-size="8.00" fill="gray">use</text>
</g>
<!-- &#45;attrs1 -->
<g id="node4" class="node"><title>&#45;attrs1</title>
<polygon fill="none" stroke="#f0f0f0" points="511.24,-435 446.24,-435 446.24,-399 517.24,-399 517.24,-429 511.24,-435"/>
<polyline fill="none" stroke="#f0f0f0" points="511.24,-435 511.24,-429 "/>
<polyline fill="none" stroke="#f0f0f0" points="517.24,-429 511.24,-429 "/>
<text text-anchor="start" x="456.74" y="-414" font-family="Times New Roman,serif" font-size="10.00" fill="#f0f0f0">type:</text>
<text text-anchor="start" x="479.74" y="-414" font-family="Times New Roman,serif" font-size="10.00" fill="#f0f0f0">access</text>
</g>
<!-- &#45;attrs1&#45;&gt;http://example.org/access45 -->
<g id="edge2" class="edge"><title>&#45;attrs1&#45;&gt;http://example.org/access45</title>
<path fill="none" stroke="#f0f0f0" stroke-dasharray="5,2" d="M456.788,-435.124C440.982,-445.971 420.612,-459.95 404.788,-470.81"/>
</g>
<!-- http://example.org/distk_aj#5 -->
<g id="node8" class="node"><title>http://example.org/distk_aj#5</title>
<g id="a_node8"><a xlink:href="http://example.org/distk_aj#5" xlink:title="distk_aj#5">
<ellipse fill="#f0f0f0" stroke="gray" cx="729.74" cy="-417" rx="48.1917" ry="18"/>
<text text-anchor="middle" x="729.74" y="-413.3" font-family="Times New Roman,serif" font-size="14.00" fill="gray">distk_aj#5</text>
</a>
</g>
</g>
<!-- http://example.org/access46 -->
<g id="node10" class="node"><title>http://example.org/access46</title>
<g id="a_node10"><a xlink:href="http://example.org/access46" xlink:title="access46">
<polygon fill="#f0f0f0" stroke="gray" points="873.74,-507 805.74,-507 805.74,-471 873.74,-471 873.74,-507"/>
<text text-anchor="middle" x="839.74" y="-485.3" font-family="Times New Roman,serif" font-size="14.00" fill="gray">access46</text>
</a>
</g>
</g>
<!-- http://example.org/distk_aj#5&#45;&gt;http://example.org/access46 -->
<g id="edge12" class="edge"><title>http://example.org/distk_aj#5&#45;&gt;http://example.org/access46</title>
<path fill="none" stroke="gray" d="M753.068,-432.845C767.998,-442.346 787.651,-454.852 804.467,-465.554"/>
<polygon fill="gray" stroke="gray" points="802.647,-468.544 812.963,-470.96 806.405,-462.638 802.647,-468.544"/>
<text text-anchor="middle" x="766.37" y="-424.012" font-family="Times New Roman,serif" font-size="8.00" fill="gray">gen</text>
</g>
<!-- http://example.org/disti_aj#3 -->
<g id="node12" class="node"><title>http://example.org/disti_aj#3</title>
<ellipse fill="none" stroke="black" cx="784.74" cy="-561" rx="113.98" ry="18"/>
<text text-anchor="middle" x="784.74" y="-557.3" font-family="Times New Roman,serif" font-size="14.00">http://example.org/disti_aj#3</text>
</g>
<!-- http://example.org/distk_aj#5&#45;&gt;http://example.org/disti_aj#3 -->
<g id="edge11" class="edge"><title>http://example.org/distk_aj#5&#45;&gt;http://example.org/disti_aj#3</title>
<path fill="none" stroke="gray" d="M736.265,-434.847C745.683,-459.162 763.182,-504.34 774.378,-533.247"/>
<polygon fill="gray" stroke="gray" points="771.176,-534.671 778.052,-542.732 777.704,-532.143 771.176,-534.671"/>
<text text-anchor="middle" x="751.087" y="-435.249" font-family="Times New Roman,serif" font-size="8.00" fill="gray">der</text>
</g>
<!-- &#45;attrs2 -->
<g id="node9" class="node"><title>&#45;attrs2</title>
<polygon fill="none" stroke="#f0f0f0" points="761.24,-363 692.24,-363 692.24,-314 767.24,-314 767.24,-357 761.24,-363"/>
<polyline fill="none" stroke="#f0f0f0" points="761.24,-363 761.24,-357 "/>
<polyline fill="none" stroke="#f0f0f0" points="767.24,-357 761.24,-357 "/>
<text text-anchor="start" x="702.74" y="-348.5" font-family="Times New Roman,serif" font-size="10.00" fill="#f0f0f0">value:</text>
<text text-anchor="start" x="729.74" y="-348.5" font-family="Times New Roman,serif" font-size="10.00" fill="#f0f0f0">3</text>
<text text-anchor="start" x="702.74" y="-335.5" font-family="Times New Roman,serif" font-size="10.00" fill="#f0f0f0">type:</text>
<text text-anchor="start" x="729.74" y="-335.5" font-family="Times New Roman,serif" font-size="10.00" fill="#f0f0f0">access</text>
<text text-anchor="start" x="702.74" y="-322.5" font-family="Times New Roman,serif" font-size="10.00" fill="#f0f0f0">label:</text>
<text text-anchor="start" x="729.74" y="-322.5" font-family="Times New Roman,serif" font-size="10.00" fill="#f0f0f0">distk[j]</text>
</g>
<!-- &#45;attrs2&#45;&gt;http://example.org/distk_aj#5 -->
<g id="edge8" class="edge"><title>&#45;attrs2&#45;&gt;http://example.org/distk_aj#5</title>
<path fill="none" stroke="#f0f0f0" stroke-dasharray="5,2" d="M729.74,-363.286C729.74,-374.69 729.74,-388.105 729.74,-398.548"/>
</g>
<!-- http://example.org/access46&#45;&gt;http://example.org/disti_aj#3 -->
<g id="edge10" class="edge"><title>http://example.org/access46&#45;&gt;http://example.org/disti_aj#3</title>
<path fill="none" stroke="gray" d="M826.144,-507.303C819.617,-515.611 811.672,-525.723 804.493,-534.859"/>
<polygon fill="gray" stroke="gray" points="801.605,-532.87 798.179,-542.896 807.109,-537.195 801.605,-532.87"/>
<text text-anchor="middle" x="831.725" y="-519.326" font-family="Times New Roman,serif" font-size="8.00" fill="gray">use</text>
</g>
<!-- http://example.org/distk#3 -->
<g id="node13" class="node"><title>http://example.org/distk#3</title>
<ellipse fill="none" stroke="black" cx="1021.74" cy="-561" rx="105.082" ry="18"/>
<text text-anchor="middle" x="1021.74" y="-557.3" font-family="Times New Roman,serif" font-size="14.00">http://example.org/distk#3</text>
</g>
<!-- http://example.org/access46&#45;&gt;http://example.org/distk#3 -->
<g id="edge13" class="edge"><title>http://example.org/access46&#45;&gt;http://example.org/distk#3</title>
<path fill="none" stroke="gray" d="M873.973,-503.166C901.501,-513.754 940.57,-528.781 971.621,-540.724"/>
<polygon fill="gray" stroke="gray" points="970.389,-544 980.979,-544.323 972.902,-537.466 970.389,-544"/>
<text text-anchor="middle" x="885.636" y="-491.834" font-family="Times New Roman,serif" font-size="8.00" fill="gray">use</text>
</g>
<!-- http://example.org/j#14 -->
<g id="node14" class="node"><title>http://example.org/j#14</title>
<ellipse fill="none" stroke="black" cx="1239.74" cy="-561" rx="94.4839" ry="18"/>
<text text-anchor="middle" x="1239.74" y="-557.3" font-family="Times New Roman,serif" font-size="14.00">http://example.org/j#14</text>
</g>
<!-- http://example.org/access46&#45;&gt;http://example.org/j#14 -->
<g id="edge14" class="edge"><title>http://example.org/access46&#45;&gt;http://example.org/j#14</title>
<path fill="none" stroke="gray" d="M873.844,-495.968C937.45,-507.099 1075.61,-531.278 1162.78,-546.532"/>
<polygon fill="gray" stroke="gray" points="1162.43,-550.025 1172.89,-548.301 1163.64,-543.129 1162.43,-550.025"/>
<text text-anchor="middle" x="883.471" y="-482.565" font-family="Times New Roman,serif" font-size="8.00" fill="gray">use</text>
</g>
<!-- &#45;attrs3 -->
<g id="node11" class="node"><title>&#45;attrs3</title>
<polygon fill="none" stroke="#f0f0f0" points="869.24,-435 804.24,-435 804.24,-399 875.24,-399 875.24,-429 869.24,-435"/>
<polyline fill="none" stroke="#f0f0f0" points="869.24,-435 869.24,-429 "/>
<polyline fill="none" stroke="#f0f0f0" points="875.24,-429 869.24,-429 "/>
<text text-anchor="start" x="814.74" y="-414" font-family="Times New Roman,serif" font-size="10.00" fill="#f0f0f0">type:</text>
<text text-anchor="start" x="837.74" y="-414" font-family="Times New Roman,serif" font-size="10.00" fill="#f0f0f0">access</text>
</g>
<!-- &#45;attrs3&#45;&gt;http://example.org/access46 -->
<g id="edge9" class="edge"><title>&#45;attrs3&#45;&gt;http://example.org/access46</title>
<path fill="none" stroke="#f0f0f0" stroke-dasharray="5,2" d="M839.74,-435.303C839.74,-446.154 839.74,-460.083 839.74,-470.896"/>
</g>
<!-- http://example.org/sum#5 -->
<g id="node15" class="node"><title>http://example.org/sum#5</title>
<g id="a_node15"><a xlink:href="http://example.org/sum#5" xlink:title="sum#5">
<ellipse fill="#f0f0f0" stroke="gray" cx="600.74" cy="-260" rx="35.194" ry="18"/>
<text text-anchor="middle" x="600.74" y="-256.3" font-family="Times New Roman,serif" font-size="14.00" fill="gray">sum#5</text>
</a>
</g>
</g>
<!-- http://example.org/sum#5&#45;&gt;http://example.org/disti_ak#5 -->
<g id="edge18" class="edge"><title>http://example.org/sum#5&#45;&gt;http://example.org/disti_ak#5</title>
<path fill="none" stroke="gray" d="M573.963,-272.054C568.327,-274.18 562.379,-276.278 556.74,-278 487.858,-299.033 448.642,-262.068 398.74,-314 379.885,-333.622 376.667,-365.607 377.196,-388.53"/>
<polygon fill="gray" stroke="gray" points="373.707,-388.834 377.683,-398.654 380.699,-388.498 373.707,-388.834"/>
<text text-anchor="middle" x="571.497" y="-284.949" font-family="Times New Roman,serif" font-size="8.00" fill="gray">der</text>
</g>
<!-- http://example.org/sum#5&#45;&gt;http://example.org/distk_aj#5 -->
<g id="edge20" class="edge"><title>http://example.org/sum#5&#45;&gt;http://example.org/distk_aj#5</title>
<path fill="none" stroke="gray" d="M613.288,-277.095C629.176,-297.361 657.525,-333.142 682.74,-363 690.841,-372.593 699.956,-382.963 707.987,-391.966"/>
<polygon fill="gray" stroke="gray" points="705.433,-394.36 714.713,-399.471 710.646,-389.689 705.433,-394.36"/>
<text text-anchor="middle" x="628.136" y="-273.068" font-family="Times New Roman,serif" font-size="8.00" fill="gray">der</text>
</g>
<!-- http://example.org/+5 -->
<g id="node17" class="node"><title>http://example.org/+5</title>
<g id="a_node17"><a xlink:href="http://example.org/+5" xlink:title="+5">
<polygon fill="#f0f0f0" stroke="gray" points="587.74,-356.5 533.74,-356.5 533.74,-320.5 587.74,-320.5 587.74,-356.5"/>
<text text-anchor="middle" x="560.74" y="-334.8" font-family="Times New Roman,serif" font-size="14.00" fill="gray">+5</text>
</a>
</g>
</g>
<!-- http://example.org/sum#5&#45;&gt;http://example.org/+5 -->
<g id="edge21" class="edge"><title>http://example.org/sum#5&#45;&gt;http://example.org/+5</title>
<path fill="none" stroke="gray" d="M592.061,-277.599C586.891,-287.487 580.216,-300.252 574.358,-311.456"/>
<polygon fill="gray" stroke="gray" points="571.211,-309.92 569.679,-320.403 577.415,-313.163 571.211,-309.92"/>
<text text-anchor="middle" x="600.097" y="-288.365" font-family="Times New Roman,serif" font-size="8.00" fill="gray">gen</text>
</g>
<!-- &#45;attrs4 -->
<g id="node16" class="node"><title>&#45;attrs4</title>
<polygon fill="none" stroke="#f0f0f0" points="566.24,-206 459.24,-206 459.24,-157 572.24,-157 572.24,-200 566.24,-206"/>
<polyline fill="none" stroke="#f0f0f0" points="566.24,-206 566.24,-200 "/>
<polyline fill="none" stroke="#f0f0f0" points="572.24,-200 566.24,-200 "/>
<text text-anchor="start" x="469.74" y="-191.5" font-family="Times New Roman,serif" font-size="10.00" fill="#f0f0f0">value:</text>
<text text-anchor="start" x="496.74" y="-191.5" font-family="Times New Roman,serif" font-size="10.00" fill="#f0f0f0">6</text>
<text text-anchor="start" x="469.74" y="-178.5" font-family="Times New Roman,serif" font-size="10.00" fill="#f0f0f0">type:</text>
<text text-anchor="start" x="496.74" y="-178.5" font-family="Times New Roman,serif" font-size="10.00" fill="#f0f0f0">operation</text>
<text text-anchor="start" x="469.74" y="-165.5" font-family="Times New Roman,serif" font-size="10.00" fill="#f0f0f0">label:</text>
<text text-anchor="start" x="496.74" y="-165.5" font-family="Times New Roman,serif" font-size="10.00" fill="#f0f0f0">disti[k] + distk[j]</text>
</g>
<!-- &#45;attrs4&#45;&gt;http://example.org/sum#5 -->
<g id="edge15" class="edge"><title>&#45;attrs4&#45;&gt;http://example.org/sum#5</title>
<path fill="none" stroke="#f0f0f0" stroke-dasharray="5,2" d="M542.169,-206.286C555.814,-218.567 572.052,-233.181 583.966,-243.903"/>
</g>
<!-- http://example.org/+5&#45;&gt;http://example.org/disti_ak#5 -->
<g id="edge17" class="edge"><title>http://example.org/+5&#45;&gt;http://example.org/disti_ak#5</title>
<path fill="none" stroke="gray" d="M533.642,-350.953C503.444,-363.716 454.318,-384.479 419.707,-399.108"/>
<polygon fill="gray" stroke="gray" points="418.205,-395.943 410.357,-403.06 420.931,-402.39 418.205,-395.943"/>
<text text-anchor="middle" x="531.791" y="-363.938" font-family="Times New Roman,serif" font-size="8.00" fill="gray">use</text>
</g>
<!-- http://example.org/+5&#45;&gt;http://example.org/distk_aj#5 -->
<g id="edge19" class="edge"><title>http://example.org/+5&#45;&gt;http://example.org/distk_aj#5</title>
<path fill="none" stroke="gray" d="M587.893,-351.791C615.797,-364.422 659.498,-384.204 691.022,-398.474"/>
<polygon fill="gray" stroke="gray" points="689.83,-401.776 700.384,-402.712 692.717,-395.399 689.83,-401.776"/>
<text text-anchor="middle" x="600.082" y="-341.15" font-family="Times New Roman,serif" font-size="8.00" fill="gray">use</text>
</g>
<!-- &#45;attrs5 -->
<g id="node18" class="node"><title>&#45;attrs5</title>
<polygon fill="none" stroke="#f0f0f0" points="541.74,-278 493.74,-278 493.74,-242 547.74,-242 547.74,-272 541.74,-278"/>
<polyline fill="none" stroke="#f0f0f0" points="541.74,-278 541.74,-272 "/>
<polyline fill="none" stroke="#f0f0f0" points="547.74,-272 541.74,-272 "/>
<text text-anchor="start" x="506.74" y="-257" font-family="Times New Roman,serif" font-size="10.00" fill="#f0f0f0">type:</text>
<text text-anchor="start" x="529.74" y="-257" font-family="Times New Roman,serif" font-size="10.00" fill="#f0f0f0">+</text>
</g>
<!-- &#45;attrs5&#45;&gt;http://example.org/+5 -->
<g id="edge16" class="edge"><title>&#45;attrs5&#45;&gt;http://example.org/+5</title>
<path fill="none" stroke="#f0f0f0" stroke-dasharray="5,2" d="M529.817,-278.359C536.409,-290.967 545.285,-307.943 551.837,-320.473"/>
</g>
<!-- http://example.org/ikj#5 -->
<g id="node19" class="node"><title>http://example.org/ikj#5</title>
<g id="a_node19"><a xlink:href="http://example.org/ikj#5" xlink:title="ikj#5">
<ellipse fill="#f0f0f0" stroke="gray" cx="600.74" cy="-103" rx="28.6953" ry="18"/>
<text text-anchor="middle" x="600.74" y="-99.3" font-family="Times New Roman,serif" font-size="14.00" fill="gray">ikj#5</text>
</a>
</g>
</g>
<!-- http://example.org/ikj#5&#45;&gt;http://example.org/sum#5 -->
<g id="edge25" class="edge"><title>http://example.org/ikj#5&#45;&gt;http://example.org/sum#5</title>
<path fill="none" stroke="gray" d="M600.74,-121.18C600.74,-147.832 600.74,-199.391 600.74,-231.335"/>
<polygon fill="gray" stroke="gray" points="597.24,-231.743 600.74,-241.743 604.24,-231.743 597.24,-231.743"/>
<text text-anchor="middle" x="613.73" y="-126.78" font-family="Times New Roman,serif" font-size="8.00" fill="gray">der</text>
</g>
<!-- http://example.org/assign20 -->
<g id="node21" class="node"><title>http://example.org/assign20</title>
<g id="a_node21"><a xlink:href="http://example.org/assign20" xlink:title="assign20">
<polygon fill="#f0f0f0" stroke="gray" points="694.24,-199.5 629.24,-199.5 629.24,-163.5 694.24,-163.5 694.24,-199.5"/>
<text text-anchor="middle" x="661.74" y="-177.8" font-family="Times New Roman,serif" font-size="14.00" fill="gray">assign20</text>
</a>
</g>
</g>
<!-- http://example.org/ikj#5&#45;&gt;http://example.org/assign20 -->
<g id="edge26" class="edge"><title>http://example.org/ikj#5&#45;&gt;http://example.org/assign20</title>
<path fill="none" stroke="gray" d="M613.084,-119.481C621.344,-129.839 632.396,-143.7 641.879,-155.593"/>
<polygon fill="gray" stroke="gray" points="639.169,-157.808 648.14,-163.445 644.642,-153.444 639.169,-157.808"/>
<text text-anchor="middle" x="627.917" y="-115.346" font-family="Times New Roman,serif" font-size="8.00" fill="gray">gen</text>
</g>
<!-- &#45;attrs6 -->
<g id="node20" class="node"><title>&#45;attrs6</title>
<polygon fill="none" stroke="#f0f0f0" points="629.24,-49 566.24,-49 566.24,-0 635.24,-0 635.24,-43 629.24,-49"/>
<polyline fill="none" stroke="#f0f0f0" points="629.24,-49 629.24,-43 "/>
<polyline fill="none" stroke="#f0f0f0" points="635.24,-43 629.24,-43 "/>
<text text-anchor="start" x="576.74" y="-34.5" font-family="Times New Roman,serif" font-size="10.00" fill="#f0f0f0">value:</text>
<text text-anchor="start" x="603.74" y="-34.5" font-family="Times New Roman,serif" font-size="10.00" fill="#f0f0f0">6</text>
<text text-anchor="start" x="576.74" y="-21.5" font-family="Times New Roman,serif" font-size="10.00" fill="#f0f0f0">type:</text>
<text text-anchor="start" x="603.74" y="-21.5" font-family="Times New Roman,serif" font-size="10.00" fill="#f0f0f0">name</text>
<text text-anchor="start" x="576.74" y="-8.5" font-family="Times New Roman,serif" font-size="10.00" fill="#f0f0f0">label:</text>
<text text-anchor="start" x="603.74" y="-8.5" font-family="Times New Roman,serif" font-size="10.00" fill="#f0f0f0">ikj</text>
</g>
<!-- &#45;attrs6&#45;&gt;http://example.org/ikj#5 -->
<g id="edge22" class="edge"><title>&#45;attrs6&#45;&gt;http://example.org/ikj#5</title>
<path fill="none" stroke="#f0f0f0" stroke-dasharray="5,2" d="M600.74,-49.2857C600.74,-60.6896 600.74,-74.105 600.74,-84.5482"/>
</g>
<!-- http://example.org/assign20&#45;&gt;http://example.org/sum#5 -->
<g id="edge24" class="edge"><title>http://example.org/assign20&#45;&gt;http://example.org/sum#5</title>
<path fill="none" stroke="gray" d="M647.898,-199.859C639.582,-210.288 628.883,-223.706 619.778,-235.125"/>
<polygon fill="gray" stroke="gray" points="616.985,-233.013 613.487,-243.014 622.458,-237.377 616.985,-233.013"/>
<text text-anchor="middle" x="653.379" y="-211.922" font-family="Times New Roman,serif" font-size="8.00" fill="gray">use</text>
</g>
<!-- &#45;attrs7 -->
<g id="node22" class="node"><title>&#45;attrs7</title>
<polygon fill="none" stroke="#f0f0f0" points="711.74,-121 647.74,-121 647.74,-85 717.74,-85 717.74,-115 711.74,-121"/>
<polyline fill="none" stroke="#f0f0f0" points="711.74,-121 711.74,-115 "/>
<polyline fill="none" stroke="#f0f0f0" points="717.74,-115 711.74,-115 "/>
<text text-anchor="start" x="657.74" y="-100" font-family="Times New Roman,serif" font-size="10.00" fill="#f0f0f0">type:</text>
<text text-anchor="start" x="680.74" y="-100" font-family="Times New Roman,serif" font-size="10.00" fill="#f0f0f0">assign</text>
</g>
<!-- &#45;attrs7&#45;&gt;http://example.org/assign20 -->
<g id="edge23" class="edge"><title>&#45;attrs7&#45;&gt;http://example.org/assign20</title>
<path fill="none" stroke="#f0f0f0" stroke-dasharray="5,2" d="M677.975,-121.359C674.514,-133.967 669.854,-150.943 666.414,-163.473"/>
</g>
</g>
</svg>
