<?xml version="1.0" encoding="UTF-8" standalone="no"?>
<!DOCTYPE svg PUBLIC "-//W3C//DTD SVG 1.1//EN"
 "http://www.w3.org/Graphics/SVG/1.1/DTD/svg11.dtd">
<!-- Generated by graphviz version 2.38.0 (20140413.2041)
 -->
<!-- Title: PROV Pages: 1 -->
<svg width="623pt" height="273pt"
 viewBox="0.00 0.00 623.18 273.00" xmlns="http://www.w3.org/2000/svg" xmlns:xlink="http://www.w3.org/1999/xlink">
<g id="graph0" class="graph" transform="scale(1 1) rotate(0) translate(4 269)">
<title>PROV</title>
<polygon fill="white" stroke="none" points="-4,4 -4,-269 619.183,-269 619.183,4 -4,4"/>
<!-- http://example.org/disti_aj#4 -->
<g id="node1" class="node"><title>http://example.org/disti_aj#4</title>
<g id="a_node1"><a xlink:href="http://example.org/disti_aj#4" xlink:title="disti_aj#4">
<ellipse fill="#f0f0f0" stroke="gray" cx="141.491" cy="-103" rx="46.2923" ry="18"/>
<text text-anchor="middle" x="141.491" y="-99.3" font-family="Times New Roman,serif" font-size="14.00" fill="gray">disti_aj#4</text>
</a>
</g>
</g>
<!-- http://example.org/access29 -->
<g id="node3" class="node"><title>http://example.org/access29</title>
<g id="a_node3"><a xlink:href="http://example.org/access29" xlink:title="access29">
<polygon fill="#f0f0f0" stroke="gray" points="334.491,-193 266.491,-193 266.491,-157 334.491,-157 334.491,-193"/>
<text text-anchor="middle" x="300.491" y="-171.3" font-family="Times New Roman,serif" font-size="14.00" fill="gray">access29</text>
</a>
</g>
</g>
<!-- http://example.org/disti_aj#4&#45;&gt;http://example.org/access29 -->
<g id="edge5" class="edge"><title>http://example.org/disti_aj#4&#45;&gt;http://example.org/access29</title>
<path fill="none" stroke="gray" d="M171.025,-117.002C195.207,-127.648 229.759,-142.86 257.088,-154.891"/>
<polygon fill="gray" stroke="gray" points="255.861,-158.176 266.424,-159.002 258.682,-151.769 255.861,-158.176"/>
<text text-anchor="middle" x="183.124" y="-106.235" font-family="Times New Roman,serif" font-size="8.00" fill="gray">gen</text>
</g>
<!-- http://example.org/list02 -->
<g id="node5" class="node"><title>http://example.org/list02</title>
<ellipse fill="none" stroke="black" cx="97.4913" cy="-247" rx="97.4827" ry="18"/>
<text text-anchor="middle" x="97.4913" y="-243.3" font-family="Times New Roman,serif" font-size="14.00">http://example.org/list02</text>
</g>
<!-- http://example.org/disti_aj#4&#45;&gt;http://example.org/list02 -->
<g id="edge4" class="edge"><title>http://example.org/disti_aj#4&#45;&gt;http://example.org/list02</title>
<path fill="none" stroke="gray" d="M136.184,-121.129C128.652,-145.436 114.787,-190.181 105.862,-218.987"/>
<polygon fill="gray" stroke="gray" points="102.434,-218.223 102.818,-228.811 109.121,-220.295 102.434,-218.223"/>
<text text-anchor="middle" x="146.372" y="-130.237" font-family="Times New Roman,serif" font-size="8.00" fill="gray">der</text>
</g>
<!-- &#45;attrs0 -->
<g id="node2" class="node"><title>&#45;attrs0</title>
<polygon fill="none" stroke="#f0f0f0" points="172.991,-49 103.991,-49 103.991,-0 178.991,-0 178.991,-43 172.991,-49"/>
<polyline fill="none" stroke="#f0f0f0" points="172.991,-49 172.991,-43 "/>
<polyline fill="none" stroke="#f0f0f0" points="178.991,-43 172.991,-43 "/>
<text text-anchor="start" x="114.491" y="-34.5" font-family="Times New Roman,serif" font-size="10.00" fill="#f0f0f0">value:</text>
<text text-anchor="start" x="141.491" y="-34.5" font-family="Times New Roman,serif" font-size="10.00" fill="#f0f0f0">4</text>
<text text-anchor="start" x="114.491" y="-21.5" font-family="Times New Roman,serif" font-size="10.00" fill="#f0f0f0">type:</text>
<text text-anchor="start" x="141.491" y="-21.5" font-family="Times New Roman,serif" font-size="10.00" fill="#f0f0f0">access</text>
<text text-anchor="start" x="114.491" y="-8.5" font-family="Times New Roman,serif" font-size="10.00" fill="#f0f0f0">label:</text>
<text text-anchor="start" x="141.491" y="-8.5" font-family="Times New Roman,serif" font-size="10.00" fill="#f0f0f0">disti[j]</text>
</g>
<!-- &#45;attrs0&#45;&gt;http://example.org/disti_aj#4 -->
<g id="edge1" class="edge"><title>&#45;attrs0&#45;&gt;http://example.org/disti_aj#4</title>
<path fill="none" stroke="#f0f0f0" stroke-dasharray="5,2" d="M141.491,-49.2857C141.491,-60.6896 141.491,-74.105 141.491,-84.5482"/>
</g>
<!-- http://example.org/access29&#45;&gt;http://example.org/list02 -->
<g id="edge3" class="edge"><title>http://example.org/access29&#45;&gt;http://example.org/list02</title>
<path fill="none" stroke="gray" d="M266.055,-187.875C234.488,-198.76 187.256,-215.047 150.813,-227.613"/>
<polygon fill="gray" stroke="gray" points="149.633,-224.318 141.321,-230.886 151.915,-230.935 149.633,-224.318"/>
<text text-anchor="middle" x="263.2" y="-200.7" font-family="Times New Roman,serif" font-size="8.00" fill="gray">use</text>
</g>
<!-- http://example.org/disti#4 -->
<g id="node6" class="node"><title>http://example.org/disti#4</title>
<ellipse fill="none" stroke="black" cx="315.491" cy="-247" rx="102.882" ry="18"/>
<text text-anchor="middle" x="315.491" y="-243.3" font-family="Times New Roman,serif" font-size="14.00">http://example.org/disti#4</text>
</g>
<!-- http://example.org/access29&#45;&gt;http://example.org/disti#4 -->
<g id="edge6" class="edge"><title>http://example.org/access29&#45;&gt;http://example.org/disti#4</title>
<path fill="none" stroke="gray" d="M304.199,-193.303C305.852,-201.017 307.839,-210.288 309.682,-218.888"/>
<polygon fill="gray" stroke="gray" points="306.308,-219.851 311.826,-228.896 313.153,-218.384 306.308,-219.851"/>
<text text-anchor="middle" x="318.473" y="-196.015" font-family="Times New Roman,serif" font-size="8.00" fill="gray">use</text>
</g>
<!-- http://example.org/j#9 -->
<g id="node7" class="node"><title>http://example.org/j#9</title>
<ellipse fill="none" stroke="black" cx="525.491" cy="-247" rx="89.8845" ry="18"/>
<text text-anchor="middle" x="525.491" y="-243.3" font-family="Times New Roman,serif" font-size="14.00">http://example.org/j#9</text>
</g>
<!-- http://example.org/access29&#45;&gt;http://example.org/j#9 -->
<g id="edge7" class="edge"><title>http://example.org/access29&#45;&gt;http://example.org/j#9</title>
<path fill="none" stroke="gray" d="M334.664,-186.631C370.362,-197.738 426.949,-215.342 469.248,-228.502"/>
<polygon fill="gray" stroke="gray" points="468.268,-231.863 478.856,-231.491 470.347,-225.179 468.268,-231.863"/>
<text text-anchor="middle" x="345.684" y="-174.556" font-family="Times New Roman,serif" font-size="8.00" fill="gray">use</text>
</g>
<!-- &#45;attrs1 -->
<g id="node4" class="node"><title>&#45;attrs1</title>
<polygon fill="none" stroke="#f0f0f0" points="329.991,-121 264.991,-121 264.991,-85 335.991,-85 335.991,-115 329.991,-121"/>
<polyline fill="none" stroke="#f0f0f0" points="329.991,-121 329.991,-115 "/>
<polyline fill="none" stroke="#f0f0f0" points="335.991,-115 329.991,-115 "/>
<text text-anchor="start" x="275.491" y="-100" font-family="Times New Roman,serif" font-size="10.00" fill="#f0f0f0">type:</text>
<text text-anchor="start" x="298.491" y="-100" font-family="Times New Roman,serif" font-size="10.00" fill="#f0f0f0">access</text>
</g>
<!-- &#45;attrs1&#45;&gt;http://example.org/access29 -->
<g id="edge2" class="edge"><title>&#45;attrs1&#45;&gt;http://example.org/access29</title>
<path fill="none" stroke="#f0f0f0" stroke-dasharray="5,2" d="M300.491,-121.303C300.491,-132.154 300.491,-146.083 300.491,-156.896"/>
</g>
</g>
</svg>
