<?xml version="1.0" encoding="UTF-8" standalone="no"?>
<!DOCTYPE svg PUBLIC "-//W3C//DTD SVG 1.1//EN"
 "http://www.w3.org/Graphics/SVG/1.1/DTD/svg11.dtd">
<!-- Generated by graphviz version 2.38.0 (20140413.2041)
 -->
<!-- Title: PROV Pages: 1 -->
<svg width="1152pt" height="396pt"
 viewBox="0.00 0.00 1152.00 395.64" xmlns="http://www.w3.org/2000/svg" xmlns:xlink="http://www.w3.org/1999/xlink">
<g id="graph0" class="graph" transform="scale(0.757928 0.757928) rotate(0) translate(4 518)">
<title>PROV</title>
<polygon fill="white" stroke="none" points="-4,4 -4,-518 1515.93,-518 1515.93,4 -4,4"/>
<!-- http://example.org/result_a0 -->
<g id="node1" class="node"><title>http://example.org/result_a0</title>
<g id="a_node1"><a xlink:href="http://example.org/result_a0" xlink:title="result_a0">
<ellipse fill="#fffc87" stroke="#808080" cx="810.74" cy="-336" rx="43.5923" ry="18"/>
<text text-anchor="middle" x="810.74" y="-332.3" font-family="Times New Roman,serif" font-size="14.00">result_a0</text>
</a>
</g>
</g>
<!-- bn0 -->
<g id="node3" class="node"><title>bn0</title>
<ellipse fill="black" stroke="black" cx="558.74" cy="-409" rx="1.8" ry="1.8"/>
</g>
<!-- http://example.org/result_a0&#45;&gt;bn0 -->
<g id="edge2" class="edge"><title>http://example.org/result_a0&#45;&gt;bn0</title>
<path fill="none" stroke="#000000" d="M775.7,-346.872C710.244,-365.314 574.662,-403.514 560.028,-407.637"/>
<text text-anchor="middle" x="756.2" y="-350.672" font-family="Times New Roman,serif" font-size="14.00">der&#45;ins</text>
</g>
<!-- http://example.org/access58 -->
<g id="node8" class="node"><title>http://example.org/access58</title>
<g id="a_node8"><a xlink:href="http://example.org/access58" xlink:title="access58">
<polygon fill="#f0f0f0" stroke="gray" points="1111.74,-427 1043.74,-427 1043.74,-391 1111.74,-391 1111.74,-427"/>
<text text-anchor="middle" x="1077.74" y="-405.3" font-family="Times New Roman,serif" font-size="14.00" fill="gray">access58</text>
</a>
</g>
</g>
<!-- http://example.org/result_a0&#45;&gt;http://example.org/access58 -->
<g id="edge10" class="edge"><title>http://example.org/result_a0&#45;&gt;http://example.org/access58</title>
<path fill="none" stroke="gray" d="M849.574,-344.361C881.94,-350.78 929.142,-360.799 969.74,-372 991.091,-377.891 1014.45,-385.523 1033.96,-392.243"/>
<polygon fill="gray" stroke="gray" points="1032.89,-395.579 1043.49,-395.558 1035.19,-388.968 1032.89,-395.579"/>
<text text-anchor="middle" x="859.481" y="-331.198" font-family="Times New Roman,serif" font-size="8.00" fill="gray">gen</text>
</g>
<!-- http://example.org/disti#5 -->
<g id="node10" class="node"><title>http://example.org/disti#5</title>
<ellipse fill="none" stroke="black" cx="992.74" cy="-496" rx="102.882" ry="18"/>
<text text-anchor="middle" x="992.74" y="-492.3" font-family="Times New Roman,serif" font-size="14.00">http://example.org/disti#5</text>
</g>
<!-- http://example.org/result_a0&#45;&gt;http://example.org/disti#5 -->
<g id="edge9" class="edge"><title>http://example.org/result_a0&#45;&gt;http://example.org/disti#5</title>
<path fill="none" stroke="gray" d="M828.522,-352.437C860.588,-380.275 928.261,-439.024 965.956,-471.748"/>
<polygon fill="gray" stroke="gray" points="963.675,-474.403 973.521,-478.315 968.264,-469.117 963.675,-474.403"/>
<text text-anchor="middle" x="842.702" y="-345.645" font-family="Times New Roman,serif" font-size="8.00" fill="gray">der</text>
</g>
<!-- &#45;attrs0 -->
<g id="node2" class="node"><title>&#45;attrs0</title>
<polygon fill="none" stroke="gray" points="849.74,-281 765.74,-281 765.74,-232 855.74,-232 855.74,-275 849.74,-281"/>
<polyline fill="none" stroke="gray" points="849.74,-281 849.74,-275 "/>
<polyline fill="none" stroke="gray" points="855.74,-275 849.74,-275 "/>
<text text-anchor="start" x="775.74" y="-266.5" font-family="Times New Roman,serif" font-size="10.00">value:</text>
<text text-anchor="start" x="802.74" y="-266.5" font-family="Times New Roman,serif" font-size="10.00">[0, 1, 3]</text>
<text text-anchor="start" x="775.74" y="-253.5" font-family="Times New Roman,serif" font-size="10.00">type:</text>
<text text-anchor="start" x="802.74" y="-253.5" font-family="Times New Roman,serif" font-size="10.00">Dictionary</text>
<text text-anchor="start" x="775.74" y="-240.5" font-family="Times New Roman,serif" font-size="10.00">label:</text>
<text text-anchor="start" x="802.74" y="-240.5" font-family="Times New Roman,serif" font-size="10.00">result[0]</text>
</g>
<!-- &#45;attrs0&#45;&gt;http://example.org/result_a0 -->
<g id="edge1" class="edge"><title>&#45;attrs0&#45;&gt;http://example.org/result_a0</title>
<path fill="none" stroke="gray" stroke-dasharray="5,2" d="M810.74,-281.174C810.74,-292.925 810.74,-306.869 810.74,-317.62"/>
</g>
<!-- http://example.org/empty -->
<g id="node4" class="node"><title>http://example.org/empty</title>
<ellipse fill="none" stroke="black" cx="558.74" cy="-496" rx="100.983" ry="18"/>
<text text-anchor="middle" x="558.74" y="-492.3" font-family="Times New Roman,serif" font-size="14.00">http://example.org/empty</text>
</g>
<!-- bn0&#45;&gt;http://example.org/empty -->
<g id="edge3" class="edge"><title>bn0&#45;&gt;http://example.org/empty</title>
<path fill="none" stroke="#000000" d="M558.74,-410.955C558.74,-416.528 558.74,-445.391 558.74,-467.755"/>
<polygon fill="#000000" stroke="#000000" points="555.24,-467.773 558.74,-477.773 562.24,-467.773 555.24,-467.773"/>
<text text-anchor="middle" x="568.24" y="-448.8" font-family="Times New Roman,serif" font-size="14.00">der</text>
</g>
<!-- http://example.org/list00 -->
<g id="node5" class="node"><title>http://example.org/list00</title>
<ellipse fill="none" stroke="black" cx="774.74" cy="-496" rx="97.4827" ry="18"/>
<text text-anchor="middle" x="774.74" y="-492.3" font-family="Times New Roman,serif" font-size="14.00">http://example.org/list00</text>
</g>
<!-- bn0&#45;&gt;http://example.org/list00 -->
<g id="edge4" class="edge"><title>bn0&#45;&gt;http://example.org/list00</title>
<path fill="none" stroke="#000000" d="M560.119,-410.543C572.542,-415.431 666.059,-452.232 725.48,-475.615"/>
<polygon fill="#000000" stroke="#000000" points="724.48,-478.983 735.067,-479.388 727.043,-472.469 724.48,-478.983"/>
<text text-anchor="middle" x="687.74" y="-448.8" font-family="Times New Roman,serif" font-size="14.00">[0]</text>
</g>
<!-- http://example.org/list01 -->
<g id="node6" class="node"><title>http://example.org/list01</title>
<ellipse fill="none" stroke="black" cx="342.74" cy="-496" rx="97.4827" ry="18"/>
<text text-anchor="middle" x="342.74" y="-492.3" font-family="Times New Roman,serif" font-size="14.00">http://example.org/list01</text>
</g>
<!-- bn0&#45;&gt;http://example.org/list01 -->
<g id="edge5" class="edge"><title>bn0&#45;&gt;http://example.org/list01</title>
<path fill="none" stroke="#000000" d="M557.361,-410.543C544.938,-415.431 451.421,-452.232 392,-475.615"/>
<polygon fill="#000000" stroke="#000000" points="390.436,-472.469 382.413,-479.388 393,-478.983 390.436,-472.469"/>
<text text-anchor="middle" x="471.74" y="-448.8" font-family="Times New Roman,serif" font-size="14.00">[1]</text>
</g>
<!-- http://example.org/disti_aj#5 -->
<g id="node7" class="node"><title>http://example.org/disti_aj#5</title>
<ellipse fill="none" stroke="black" cx="113.74" cy="-496" rx="113.98" ry="18"/>
<text text-anchor="middle" x="113.74" y="-492.3" font-family="Times New Roman,serif" font-size="14.00">http://example.org/disti_aj#5</text>
</g>
<!-- bn0&#45;&gt;http://example.org/disti_aj#5 -->
<g id="edge6" class="edge"><title>bn0&#45;&gt;http://example.org/disti_aj#5</title>
<path fill="none" stroke="#000000" d="M557.129,-410.308C536.157,-414.314 315.536,-456.455 193.629,-479.74"/>
<polygon fill="#000000" stroke="#000000" points="192.754,-476.344 183.588,-481.658 194.068,-483.22 192.754,-476.344"/>
<text text-anchor="middle" x="371.74" y="-448.8" font-family="Times New Roman,serif" font-size="14.00">[2]</text>
</g>
<!-- http://example.org/access58&#45;&gt;http://example.org/disti#5 -->
<g id="edge8" class="edge"><title>http://example.org/access58&#45;&gt;http://example.org/disti#5</title>
<path fill="none" stroke="gray" d="M1060.54,-427.201C1048.01,-439.726 1030.88,-456.859 1016.97,-470.769"/>
<polygon fill="gray" stroke="gray" points="1014.22,-468.569 1009.63,-478.115 1019.17,-473.518 1014.22,-468.569"/>
<text text-anchor="middle" x="1064.42" y="-439.79" font-family="Times New Roman,serif" font-size="8.00" fill="gray">use</text>
</g>
<!-- http://example.org/result#4 -->
<g id="node11" class="node"><title>http://example.org/result#4</title>
<ellipse fill="none" stroke="black" cx="1220.74" cy="-496" rx="107.482" ry="18"/>
<text text-anchor="middle" x="1220.74" y="-492.3" font-family="Times New Roman,serif" font-size="14.00">http://example.org/result#4</text>
</g>
<!-- http://example.org/access58&#45;&gt;http://example.org/result#4 -->
<g id="edge11" class="edge"><title>http://example.org/access58&#45;&gt;http://example.org/result#4</title>
<path fill="none" stroke="gray" d="M1106.68,-427.201C1128.97,-440.45 1159.93,-458.855 1183.97,-473.147"/>
<polygon fill="gray" stroke="gray" points="1182.43,-476.302 1192.82,-478.403 1186.01,-470.285 1182.43,-476.302"/>
<text text-anchor="middle" x="1119.76" y="-417.967" font-family="Times New Roman,serif" font-size="8.00" fill="gray">use</text>
</g>
<!-- http://example.org/0 -->
<g id="node12" class="node"><title>http://example.org/0</title>
<ellipse fill="none" stroke="black" cx="1428.74" cy="-496" rx="83.3857" ry="18"/>
<text text-anchor="middle" x="1428.74" y="-492.3" font-family="Times New Roman,serif" font-size="14.00">http://example.org/0</text>
</g>
<!-- http://example.org/access58&#45;&gt;http://example.org/0 -->
<g id="edge12" class="edge"><title>http://example.org/access58&#45;&gt;http://example.org/0</title>
<path fill="none" stroke="gray" d="M1112.03,-418.305C1170.69,-432.508 1291.11,-461.67 1365.39,-479.659"/>
<polygon fill="gray" stroke="gray" points="1365.01,-483.169 1375.56,-482.121 1366.66,-476.365 1365.01,-483.169"/>
<text text-anchor="middle" x="1122.38" y="-405.545" font-family="Times New Roman,serif" font-size="8.00" fill="gray">use</text>
</g>
<!-- &#45;attrs1 -->
<g id="node9" class="node"><title>&#45;attrs1</title>
<polygon fill="none" stroke="#f0f0f0" points="1107.24,-354 1042.24,-354 1042.24,-318 1113.24,-318 1113.24,-348 1107.24,-354"/>
<polyline fill="none" stroke="#f0f0f0" points="1107.24,-354 1107.24,-348 "/>
<polyline fill="none" stroke="#f0f0f0" points="1113.24,-348 1107.24,-348 "/>
<text text-anchor="start" x="1052.74" y="-333" font-family="Times New Roman,serif" font-size="10.00" fill="#f0f0f0">type:</text>
<text text-anchor="start" x="1075.74" y="-333" font-family="Times New Roman,serif" font-size="10.00" fill="#f0f0f0">access</text>
</g>
<!-- &#45;attrs1&#45;&gt;http://example.org/access58 -->
<g id="edge7" class="edge"><title>&#45;attrs1&#45;&gt;http://example.org/access58</title>
<path fill="none" stroke="#f0f0f0" stroke-dasharray="5,2" d="M1077.74,-354.187C1077.74,-365.35 1077.74,-379.84 1077.74,-390.971"/>
</g>
<!-- http://example.org/result_a02 -->
<g id="node13" class="node"><title>http://example.org/result_a02</title>
<g id="a_node13"><a xlink:href="http://example.org/result_a02" xlink:title="result_a02">
<ellipse fill="#f0f0f0" stroke="gray" cx="136.74" cy="-177" rx="48.1917" ry="18"/>
<text text-anchor="middle" x="136.74" y="-173.3" font-family="Times New Roman,serif" font-size="14.00" fill="gray">result_a02</text>
</a>
</g>
</g>
<!-- http://example.org/result_a02&#45;&gt;http://example.org/disti_aj#5 -->
<g id="edge16" class="edge"><title>http://example.org/result_a02&#45;&gt;http://example.org/disti_aj#5</title>
<path fill="none" stroke="gray" d="M128.696,-194.812C122.063,-210.231 113.74,-233.886 113.74,-255.5 113.74,-255.5 113.74,-255.5 113.74,-410 113.74,-429.247 113.74,-450.946 113.74,-467.603"/>
<polygon fill="gray" stroke="gray" points="110.24,-467.744 113.74,-477.744 117.24,-467.744 110.24,-467.744"/>
<text text-anchor="middle" x="137.793" y="-204.838" font-family="Times New Roman,serif" font-size="8.00" fill="gray">der</text>
</g>
<!-- http://example.org/access59 -->
<g id="node15" class="node"><title>http://example.org/access59</title>
<g id="a_node15"><a xlink:href="http://example.org/access59" xlink:title="access59">
<polygon fill="#f0f0f0" stroke="gray" points="284.74,-274.5 216.74,-274.5 216.74,-238.5 284.74,-238.5 284.74,-274.5"/>
<text text-anchor="middle" x="250.74" y="-252.8" font-family="Times New Roman,serif" font-size="14.00" fill="gray">access59</text>
</a>
</g>
</g>
<!-- http://example.org/result_a02&#45;&gt;http://example.org/access59 -->
<g id="edge17" class="edge"><title>http://example.org/result_a02&#45;&gt;http://example.org/access59</title>
<path fill="none" stroke="gray" d="M158.991,-193.127C175.511,-204.358 198.329,-219.87 217.076,-232.614"/>
<polygon fill="gray" stroke="gray" points="215.128,-235.522 225.366,-238.25 219.063,-229.733 215.128,-235.522"/>
<text text-anchor="middle" x="172.497" y="-184.7" font-family="Times New Roman,serif" font-size="8.00" fill="gray">gen</text>
</g>
<!-- &#45;attrs2 -->
<g id="node14" class="node"><title>&#45;attrs2</title>
<polygon fill="none" stroke="#f0f0f0" points="164.24,-122 79.2399,-122 79.2399,-73 170.24,-73 170.24,-116 164.24,-122"/>
<polyline fill="none" stroke="#f0f0f0" points="164.24,-122 164.24,-116 "/>
<polyline fill="none" stroke="#f0f0f0" points="170.24,-116 164.24,-116 "/>
<text text-anchor="start" x="89.7399" y="-107.5" font-family="Times New Roman,serif" font-size="10.00" fill="#f0f0f0">value:</text>
<text text-anchor="start" x="116.74" y="-107.5" font-family="Times New Roman,serif" font-size="10.00" fill="#f0f0f0">3</text>
<text text-anchor="start" x="89.7399" y="-94.5" font-family="Times New Roman,serif" font-size="10.00" fill="#f0f0f0">type:</text>
<text text-anchor="start" x="116.74" y="-94.5" font-family="Times New Roman,serif" font-size="10.00" fill="#f0f0f0">access</text>
<text text-anchor="start" x="89.7399" y="-81.5" font-family="Times New Roman,serif" font-size="10.00" fill="#f0f0f0">label:</text>
<text text-anchor="start" x="116.74" y="-81.5" font-family="Times New Roman,serif" font-size="10.00" fill="#f0f0f0">result[0][2]</text>
</g>
<!-- &#45;attrs2&#45;&gt;http://example.org/result_a02 -->
<g id="edge13" class="edge"><title>&#45;attrs2&#45;&gt;http://example.org/result_a02</title>
<path fill="none" stroke="#f0f0f0" stroke-dasharray="5,2" d="M128.406,-122.174C130.225,-133.925 132.384,-147.869 134.049,-158.62"/>
</g>
<!-- http://example.org/access59&#45;&gt;http://example.org/result_a0 -->
<g id="edge18" class="edge"><title>http://example.org/access59&#45;&gt;http://example.org/result_a0</title>
<path fill="none" stroke="gray" d="M284.927,-262.231C379.918,-275.377 647.431,-312.399 759.911,-327.966"/>
<polygon fill="gray" stroke="gray" points="759.597,-331.455 769.982,-329.359 760.557,-324.522 759.597,-331.455"/>
<text text-anchor="middle" x="294.137" y="-248.492" font-family="Times New Roman,serif" font-size="8.00" fill="gray">use</text>
</g>
<!-- http://example.org/access59&#45;&gt;http://example.org/disti_aj#5 -->
<g id="edge15" class="edge"><title>http://example.org/access59&#45;&gt;http://example.org/disti_aj#5</title>
<path fill="none" stroke="gray" d="M219.508,-274.533C202.861,-285.062 183.285,-300 170.74,-318 133.036,-372.099 149.561,-397.774 127.74,-460 126.765,-462.779 125.701,-465.663 124.608,-468.528"/>
<polygon fill="gray" stroke="gray" points="121.277,-467.435 120.874,-478.022 127.791,-469.997 121.277,-467.435"/>
<text text-anchor="middle" x="220.284" y="-287.613" font-family="Times New Roman,serif" font-size="8.00" fill="gray">use</text>
</g>
<!-- http://example.org/2 -->
<g id="node17" class="node"><title>http://example.org/2</title>
<ellipse fill="none" stroke="black" cx="262.74" cy="-336" rx="83.3857" ry="18"/>
<text text-anchor="middle" x="262.74" y="-332.3" font-family="Times New Roman,serif" font-size="14.00">http://example.org/2</text>
</g>
<!-- http://example.org/access59&#45;&gt;http://example.org/2 -->
<g id="edge19" class="edge"><title>http://example.org/access59&#45;&gt;http://example.org/2</title>
<path fill="none" stroke="gray" d="M253.403,-274.7C254.91,-284.432 256.829,-296.824 258.535,-307.84"/>
<polygon fill="gray" stroke="gray" points="255.095,-308.502 260.084,-317.848 262.013,-307.43 255.095,-308.502"/>
<text text-anchor="middle" x="267.388" y="-278.224" font-family="Times New Roman,serif" font-size="8.00" fill="gray">use</text>
</g>
<!-- &#45;attrs3 -->
<g id="node16" class="node"><title>&#45;attrs3</title>
<polygon fill="none" stroke="#f0f0f0" points="280.24,-195 215.24,-195 215.24,-159 286.24,-159 286.24,-189 280.24,-195"/>
<polyline fill="none" stroke="#f0f0f0" points="280.24,-195 280.24,-189 "/>
<polyline fill="none" stroke="#f0f0f0" points="286.24,-189 280.24,-189 "/>
<text text-anchor="start" x="225.74" y="-174" font-family="Times New Roman,serif" font-size="10.00" fill="#f0f0f0">type:</text>
<text text-anchor="start" x="248.74" y="-174" font-family="Times New Roman,serif" font-size="10.00" fill="#f0f0f0">access</text>
</g>
<!-- &#45;attrs3&#45;&gt;http://example.org/access59 -->
<g id="edge14" class="edge"><title>&#45;attrs3&#45;&gt;http://example.org/access59</title>
<path fill="none" stroke="#f0f0f0" stroke-dasharray="5,2" d="M250.74,-195.2C250.74,-208.043 250.74,-225.517 250.74,-238.348"/>
</g>
<!-- http://example.org/print1 -->
<g id="node18" class="node"><title>http://example.org/print1</title>
<g id="a_node18"><a xlink:href="http://example.org/print1" xlink:title="print1">
<polygon fill="#f0f0f0" stroke="gray" points="242.74,-115.5 188.74,-115.5 188.74,-79.5 242.74,-79.5 242.74,-115.5"/>
<text text-anchor="middle" x="215.74" y="-93.8" font-family="Times New Roman,serif" font-size="14.00" fill="gray">print1</text>
</a>
</g>
</g>
<!-- http://example.org/print1&#45;&gt;http://example.org/result_a02 -->
<g id="edge21" class="edge"><title>http://example.org/print1&#45;&gt;http://example.org/result_a02</title>
<path fill="none" stroke="gray" d="M198.207,-115.7C187.065,-126.631 172.502,-140.917 160.349,-152.84"/>
<polygon fill="gray" stroke="gray" points="157.832,-150.405 153.145,-159.907 162.734,-155.402 157.832,-150.405"/>
<text text-anchor="middle" x="201.95" y="-128.325" font-family="Times New Roman,serif" font-size="8.00" fill="gray">use</text>
</g>
<!-- &#45;attrs4 -->
<g id="node19" class="node"><title>&#45;attrs4</title>
<polygon fill="none" stroke="#f0f0f0" points="240.74,-36 184.74,-36 184.74,-0 246.74,-0 246.74,-30 240.74,-36"/>
<polyline fill="none" stroke="#f0f0f0" points="240.74,-36 240.74,-30 "/>
<polyline fill="none" stroke="#f0f0f0" points="246.74,-30 240.74,-30 "/>
<text text-anchor="start" x="194.74" y="-15" font-family="Times New Roman,serif" font-size="10.00" fill="#f0f0f0">type:</text>
<text text-anchor="start" x="217.74" y="-15" font-family="Times New Roman,serif" font-size="10.00" fill="#f0f0f0">print</text>
</g>
<!-- &#45;attrs4&#45;&gt;http://example.org/print1 -->
<g id="edge20" class="edge"><title>&#45;attrs4&#45;&gt;http://example.org/print1</title>
<path fill="none" stroke="#f0f0f0" stroke-dasharray="5,2" d="M215.74,-36.1998C215.74,-49.0428 215.74,-66.5168 215.74,-79.3483"/>
</g>
</g>
</svg>
