<?xml version="1.0" encoding="UTF-8" standalone="no"?>
<!DOCTYPE svg PUBLIC "-//W3C//DTD SVG 1.1//EN"
 "http://www.w3.org/Graphics/SVG/1.1/DTD/svg11.dtd">
<!-- Generated by graphviz version 2.38.0 (20140413.2041)
 -->
<!-- Title: PROV Pages: 1 -->
<svg width="755pt" height="626pt"
 viewBox="0.00 0.00 754.93 626.00" xmlns="http://www.w3.org/2000/svg" xmlns:xlink="http://www.w3.org/1999/xlink">
<g id="graph0" class="graph" transform="scale(1 1) rotate(0) translate(4 622)">
<title>PROV</title>
<polygon fill="white" stroke="none" points="-4,4 -4,-622 750.933,-622 750.933,4 -4,4"/>
<!-- http://example.org/disti_aj#5 -->
<g id="node1" class="node"><title>http://example.org/disti_aj#5</title>
<g id="a_node1"><a xlink:href="http://example.org/disti_aj#5" xlink:title="disti_aj#5">
<ellipse fill="#fffc87" stroke="#808080" cx="379.24" cy="-454" rx="46.2923" ry="18"/>
<text text-anchor="middle" x="379.24" y="-450.3" font-family="Times New Roman,serif" font-size="14.00">disti_aj#5</text>
</a>
</g>
</g>
<!-- http://example.org/assign16 -->
<g id="node15" class="node"><title>http://example.org/assign16</title>
<g id="a_node15"><a xlink:href="http://example.org/assign16" xlink:title="assign16">
<polygon fill="#9fb1fc" stroke="#0000ff" points="411.74,-545 346.74,-545 346.74,-509 411.74,-509 411.74,-545"/>
<text text-anchor="middle" x="379.24" y="-523.3" font-family="Times New Roman,serif" font-size="14.00">assign16</text>
</a>
</g>
</g>
<!-- http://example.org/disti_aj#5&#45;&gt;http://example.org/assign16 -->
<g id="edge19" class="edge"><title>http://example.org/disti_aj#5&#45;&gt;http://example.org/assign16</title>
<path fill="none" stroke="black" d="M379.24,-472.187C379.24,-480.211 379.24,-489.953 379.24,-498.931"/>
<polygon fill="black" stroke="black" points="375.741,-498.971 379.24,-508.971 382.741,-498.971 375.741,-498.971"/>
<text text-anchor="middle" x="392.231" y="-477.787" font-family="Times New Roman,serif" font-size="8.00">gen</text>
</g>
<!-- http://example.org/ikj#3 -->
<g id="node17" class="node"><title>http://example.org/ikj#3</title>
<ellipse fill="none" stroke="black" cx="208.24" cy="-600" rx="96.3833" ry="18"/>
<text text-anchor="middle" x="208.24" y="-596.3" font-family="Times New Roman,serif" font-size="14.00">http://example.org/ikj#3</text>
</g>
<!-- http://example.org/disti_aj#5&#45;&gt;http://example.org/ikj#3 -->
<g id="edge15" class="edge"><title>http://example.org/disti_aj#5&#45;&gt;http://example.org/ikj#3</title>
<path fill="none" stroke="black" d="M360.615,-470.685C330.564,-495.991 271.209,-545.974 236.106,-575.534"/>
<polygon fill="black" stroke="black" points="233.554,-573.108 228.159,-582.227 238.063,-578.462 233.554,-573.108"/>
<text text-anchor="middle" x="363.246" y="-483.552" font-family="Times New Roman,serif" font-size="8.00">der</text>
</g>
<!-- &#45;attrs0 -->
<g id="node2" class="node"><title>&#45;attrs0</title>
<polygon fill="none" stroke="gray" points="410.74,-391 341.74,-391 341.74,-342 416.74,-342 416.74,-385 410.74,-391"/>
<polyline fill="none" stroke="gray" points="410.74,-391 410.74,-385 "/>
<polyline fill="none" stroke="gray" points="416.74,-385 410.74,-385 "/>
<text text-anchor="start" x="352.24" y="-376.5" font-family="Times New Roman,serif" font-size="10.00">value:</text>
<text text-anchor="start" x="379.24" y="-376.5" font-family="Times New Roman,serif" font-size="10.00">3</text>
<text text-anchor="start" x="352.24" y="-363.5" font-family="Times New Roman,serif" font-size="10.00">type:</text>
<text text-anchor="start" x="379.24" y="-363.5" font-family="Times New Roman,serif" font-size="10.00">access</text>
<text text-anchor="start" x="352.24" y="-350.5" font-family="Times New Roman,serif" font-size="10.00">label:</text>
<text text-anchor="start" x="379.24" y="-350.5" font-family="Times New Roman,serif" font-size="10.00">disti[j]</text>
</g>
<!-- &#45;attrs0&#45;&gt;http://example.org/disti_aj#5 -->
<g id="edge1" class="edge"><title>&#45;attrs0&#45;&gt;http://example.org/disti_aj#5</title>
<path fill="none" stroke="gray" stroke-dasharray="5,2" d="M379.24,-391.317C379.24,-405.448 379.24,-423.039 379.24,-435.815"/>
</g>
<!-- http://example.org/disti#5 -->
<g id="node3" class="node"><title>http://example.org/disti#5</title>
<g id="a_node3"><a xlink:href="http://example.org/disti#5" xlink:title="disti#5">
<ellipse fill="darkgreen" stroke="green" cx="267.24" cy="-279" rx="35.194" ry="18"/>
<text text-anchor="middle" x="267.24" y="-275.3" font-family="Times New Roman,serif" font-size="14.00" fill="green">disti#5</text>
</a>
</g>
</g>
<!-- bn0 -->
<g id="node5" class="node"><title>bn0</title>
<ellipse fill="green" stroke="green" cx="267.24" cy="-366.5" rx="1.8" ry="1.8"/>
</g>
<!-- http://example.org/disti#5&#45;&gt;bn0 -->
<g id="edge3" class="edge"><title>http://example.org/disti#5&#45;&gt;bn0</title>
<path fill="none" stroke="green" d="M267.24,-297.302C267.24,-319.943 267.24,-357.558 267.24,-364.411"/>
<text text-anchor="middle" x="279.24" y="-317.6" font-family="Times New Roman,serif" font-size="8.00" fill="green">der&#45;ins</text>
</g>
<!-- &#45;attrs1 -->
<g id="node4" class="node"><title>&#45;attrs1</title>
<polygon fill="none" stroke="green" points="306.24,-216 222.24,-216 222.24,-167 312.24,-167 312.24,-210 306.24,-216"/>
<polyline fill="none" stroke="green" points="306.24,-216 306.24,-210 "/>
<polyline fill="none" stroke="green" points="312.24,-210 306.24,-210 "/>
<text text-anchor="start" x="232.24" y="-201.5" font-family="Times New Roman,serif" font-size="10.00" fill="green">value:</text>
<text text-anchor="start" x="259.24" y="-201.5" font-family="Times New Roman,serif" font-size="10.00" fill="green">[0, 1, 3]</text>
<text text-anchor="start" x="232.24" y="-188.5" font-family="Times New Roman,serif" font-size="10.00" fill="green">type:</text>
<text text-anchor="start" x="259.24" y="-188.5" font-family="Times New Roman,serif" font-size="10.00" fill="green">Dictionary</text>
<text text-anchor="start" x="232.24" y="-175.5" font-family="Times New Roman,serif" font-size="10.00" fill="green">label:</text>
<text text-anchor="start" x="259.24" y="-175.5" font-family="Times New Roman,serif" font-size="10.00" fill="green">disti</text>
</g>
<!-- &#45;attrs1&#45;&gt;http://example.org/disti#5 -->
<g id="edge2" class="edge"><title>&#45;attrs1&#45;&gt;http://example.org/disti#5</title>
<path fill="none" stroke="green" stroke-dasharray="5,2" d="M267.24,-216.317C267.24,-230.448 267.24,-248.039 267.24,-260.815"/>
</g>
<!-- bn0&#45;&gt;http://example.org/disti_aj#5 -->
<g id="edge5" class="edge"><title>bn0&#45;&gt;http://example.org/disti_aj#5</title>
<path fill="none" stroke="green" d="M268.498,-368.46C276.494,-374.564 320.864,-408.436 350.956,-431.408"/>
<polygon fill="green" stroke="green" points="348.951,-434.28 359.023,-437.566 353.198,-428.716 348.951,-434.28"/>
<text text-anchor="middle" x="338.74" y="-411.6" font-family="Times New Roman,serif" font-size="8.00" fill="green">[2]</text>
</g>
<!-- http://example.org/disti#4 -->
<g id="node6" class="node"><title>http://example.org/disti#4</title>
<ellipse fill="none" stroke="black" cx="212.24" cy="-454" rx="102.882" ry="18"/>
<text text-anchor="middle" x="212.24" y="-450.3" font-family="Times New Roman,serif" font-size="14.00">http://example.org/disti#4</text>
</g>
<!-- bn0&#45;&gt;http://example.org/disti#4 -->
<g id="edge4" class="edge"><title>bn0&#45;&gt;http://example.org/disti#4</title>
<path fill="none" stroke="green" d="M266.623,-368.46C262.914,-374.226 243.268,-404.767 228.647,-427.495"/>
<polygon fill="green" stroke="green" points="225.606,-425.753 223.14,-436.057 231.493,-429.54 225.606,-425.753"/>
<text text-anchor="middle" x="245.74" y="-411.6" font-family="Times New Roman,serif" font-size="8.00" fill="green">der</text>
</g>
<!-- http://example.org/dist#3 -->
<g id="node7" class="node"><title>http://example.org/dist#3</title>
<g id="a_node7"><a xlink:href="http://example.org/dist#3" xlink:title="dist#3">
<ellipse fill="darkgreen" stroke="green" cx="372.24" cy="-104" rx="33.2948" ry="18"/>
<text text-anchor="middle" x="372.24" y="-100.3" font-family="Times New Roman,serif" font-size="14.00" fill="green">dist#3</text>
</a>
</g>
</g>
<!-- bn1 -->
<g id="node9" class="node"><title>bn1</title>
<ellipse fill="green" stroke="green" cx="372.24" cy="-191.5" rx="1.8" ry="1.8"/>
</g>
<!-- http://example.org/dist#3&#45;&gt;bn1 -->
<g id="edge7" class="edge"><title>http://example.org/dist#3&#45;&gt;bn1</title>
<path fill="none" stroke="green" d="M372.24,-122.302C372.24,-144.943 372.24,-182.558 372.24,-189.411"/>
<text text-anchor="middle" x="384.24" y="-142.6" font-family="Times New Roman,serif" font-size="8.00" fill="green">der&#45;ins</text>
</g>
<!-- &#45;attrs2 -->
<g id="node8" class="node"><title>&#45;attrs2</title>
<polygon fill="none" stroke="green" points="449.24,-49 289.24,-49 289.24,-0 455.24,-0 455.24,-43 449.24,-49"/>
<polyline fill="none" stroke="green" points="449.24,-49 449.24,-43 "/>
<polyline fill="none" stroke="green" points="455.24,-43 449.24,-43 "/>
<text text-anchor="start" x="299.24" y="-34.5" font-family="Times New Roman,serif" font-size="10.00" fill="green">value:</text>
<text text-anchor="start" x="326.24" y="-34.5" font-family="Times New Roman,serif" font-size="10.00" fill="green">[[0, 1, 3], [10000, 0, 2], [2, 3, 0]]</text>
<text text-anchor="start" x="299.24" y="-21.5" font-family="Times New Roman,serif" font-size="10.00" fill="green">type:</text>
<text text-anchor="start" x="326.24" y="-21.5" font-family="Times New Roman,serif" font-size="10.00" fill="green">Dictionary</text>
<text text-anchor="start" x="299.24" y="-8.5" font-family="Times New Roman,serif" font-size="10.00" fill="green">label:</text>
<text text-anchor="start" x="326.24" y="-8.5" font-family="Times New Roman,serif" font-size="10.00" fill="green">dist</text>
</g>
<!-- &#45;attrs2&#45;&gt;http://example.org/dist#3 -->
<g id="edge6" class="edge"><title>&#45;attrs2&#45;&gt;http://example.org/dist#3</title>
<path fill="none" stroke="green" stroke-dasharray="5,2" d="M372.24,-49.1737C372.24,-60.9254 372.24,-74.869 372.24,-85.6196"/>
</g>
<!-- bn1&#45;&gt;http://example.org/disti#5 -->
<g id="edge9" class="edge"><title>bn1&#45;&gt;http://example.org/disti#5</title>
<path fill="none" stroke="green" d="M371.061,-193.46C363.515,-199.605 321.412,-233.889 293.194,-256.866"/>
<polygon fill="green" stroke="green" points="290.835,-254.274 285.291,-263.302 295.255,-259.702 290.835,-254.274"/>
<text text-anchor="middle" x="324.74" y="-236.6" font-family="Times New Roman,serif" font-size="8.00" fill="green">[0]</text>
</g>
<!-- http://example.org/dist#2 -->
<g id="node10" class="node"><title>http://example.org/dist#2</title>
<ellipse fill="none" stroke="black" cx="421.24" cy="-279" rx="100.983" ry="18"/>
<text text-anchor="middle" x="421.24" y="-275.3" font-family="Times New Roman,serif" font-size="14.00">http://example.org/dist#2</text>
</g>
<!-- bn1&#45;&gt;http://example.org/dist#2 -->
<g id="edge8" class="edge"><title>bn1&#45;&gt;http://example.org/dist#2</title>
<path fill="none" stroke="green" d="M372.791,-193.46C376.081,-199.201 393.444,-229.497 406.45,-252.193"/>
<polygon fill="green" stroke="green" points="403.521,-254.121 411.53,-261.057 409.595,-250.64 403.521,-254.121"/>
<text text-anchor="middle" x="405.74" y="-236.6" font-family="Times New Roman,serif" font-size="8.00" fill="green">der</text>
</g>
<!-- http://example.org/result#3 -->
<g id="node11" class="node"><title>http://example.org/result#3</title>
<g id="a_node11"><a xlink:href="http://example.org/result#3" xlink:title="result#3">
<ellipse fill="darkgreen" stroke="green" cx="155.24" cy="-104" rx="39.7935" ry="18"/>
<text text-anchor="middle" x="155.24" y="-100.3" font-family="Times New Roman,serif" font-size="14.00" fill="green">result#3</text>
</a>
</g>
</g>
<!-- bn2 -->
<g id="node13" class="node"><title>bn2</title>
<ellipse fill="green" stroke="green" cx="155.24" cy="-191.5" rx="1.8" ry="1.8"/>
</g>
<!-- http://example.org/result#3&#45;&gt;bn2 -->
<g id="edge11" class="edge"><title>http://example.org/result#3&#45;&gt;bn2</title>
<path fill="none" stroke="green" d="M155.24,-122.302C155.24,-144.943 155.24,-182.558 155.24,-189.411"/>
<text text-anchor="middle" x="167.24" y="-142.6" font-family="Times New Roman,serif" font-size="8.00" fill="green">der&#45;ins</text>
</g>
<!-- &#45;attrs3 -->
<g id="node12" class="node"><title>&#45;attrs3</title>
<polygon fill="none" stroke="green" points="232.24,-49 72.2405,-49 72.2405,-0 238.24,-0 238.24,-43 232.24,-49"/>
<polyline fill="none" stroke="green" points="232.24,-49 232.24,-43 "/>
<polyline fill="none" stroke="green" points="238.24,-43 232.24,-43 "/>
<text text-anchor="start" x="82.2405" y="-34.5" font-family="Times New Roman,serif" font-size="10.00" fill="green">value:</text>
<text text-anchor="start" x="109.24" y="-34.5" font-family="Times New Roman,serif" font-size="10.00" fill="green">[[0, 1, 3], [10000, 0, 2], [2, 3, 0]]</text>
<text text-anchor="start" x="82.2405" y="-21.5" font-family="Times New Roman,serif" font-size="10.00" fill="green">type:</text>
<text text-anchor="start" x="109.24" y="-21.5" font-family="Times New Roman,serif" font-size="10.00" fill="green">Dictionary</text>
<text text-anchor="start" x="82.2405" y="-8.5" font-family="Times New Roman,serif" font-size="10.00" fill="green">label:</text>
<text text-anchor="start" x="109.24" y="-8.5" font-family="Times New Roman,serif" font-size="10.00" fill="green">result</text>
</g>
<!-- &#45;attrs3&#45;&gt;http://example.org/result#3 -->
<g id="edge10" class="edge"><title>&#45;attrs3&#45;&gt;http://example.org/result#3</title>
<path fill="none" stroke="green" stroke-dasharray="5,2" d="M155.24,-49.1737C155.24,-60.9254 155.24,-74.869 155.24,-85.6196"/>
</g>
<!-- bn2&#45;&gt;http://example.org/disti#5 -->
<g id="edge13" class="edge"><title>bn2&#45;&gt;http://example.org/disti#5</title>
<path fill="none" stroke="green" d="M156.498,-193.46C164.626,-199.665 210.336,-234.56 240.432,-257.535"/>
<polygon fill="green" stroke="green" points="238.39,-260.379 248.463,-263.665 242.638,-254.815 238.39,-260.379"/>
<text text-anchor="middle" x="227.74" y="-236.6" font-family="Times New Roman,serif" font-size="8.00" fill="green">[0]</text>
</g>
<!-- http://example.org/result#2 -->
<g id="node14" class="node"><title>http://example.org/result#2</title>
<ellipse fill="none" stroke="black" cx="107.24" cy="-279" rx="107.482" ry="18"/>
<text text-anchor="middle" x="107.24" y="-275.3" font-family="Times New Roman,serif" font-size="14.00">http://example.org/result#2</text>
</g>
<!-- bn2&#45;&gt;http://example.org/result#2 -->
<g id="edge12" class="edge"><title>bn2&#45;&gt;http://example.org/result#2</title>
<path fill="none" stroke="green" d="M154.701,-193.46C151.479,-199.201 134.47,-229.497 121.729,-252.193"/>
<polygon fill="green" stroke="green" points="118.596,-250.624 116.752,-261.057 124.7,-254.05 118.596,-250.624"/>
<text text-anchor="middle" x="136.74" y="-236.6" font-family="Times New Roman,serif" font-size="8.00" fill="green">der</text>
</g>
<!-- http://example.org/assign16&#45;&gt;http://example.org/ikj#3 -->
<g id="edge18" class="edge"><title>http://example.org/assign16&#45;&gt;http://example.org/ikj#3</title>
<path fill="none" stroke="black" d="M346.674,-541.522C320.904,-552.222 284.557,-567.313 255.573,-579.347"/>
<polygon fill="black" stroke="black" points="253.945,-576.233 246.052,-583.301 256.629,-582.698 253.945,-576.233"/>
<text text-anchor="middle" x="344.729" y="-554.495" font-family="Times New Roman,serif" font-size="8.00">use</text>
</g>
<!-- http://example.org/j#9 -->
<g id="node18" class="node"><title>http://example.org/j#9</title>
<ellipse fill="none" stroke="black" cx="657.24" cy="-600" rx="89.8845" ry="18"/>
<text text-anchor="middle" x="657.24" y="-596.3" font-family="Times New Roman,serif" font-size="14.00">http://example.org/j#9</text>
</g>
<!-- http://example.org/assign16&#45;&gt;http://example.org/j#9 -->
<g id="edge16" class="edge"><title>http://example.org/assign16&#45;&gt;http://example.org/j#9</title>
<path fill="none" stroke="black" d="M411.948,-536.353C456.63,-547.765 537.66,-568.46 594.318,-582.93"/>
<polygon fill="black" stroke="black" points="593.691,-586.382 604.246,-585.466 595.424,-579.6 593.691,-586.382"/>
<text text-anchor="middle" x="422.429" y="-523.723" font-family="Times New Roman,serif" font-size="8.00">use</text>
</g>
<!-- http://example.org/disti_aj#4 -->
<g id="node19" class="node"><title>http://example.org/disti_aj#4</title>
<ellipse fill="none" stroke="black" cx="436.24" cy="-600" rx="113.98" ry="18"/>
<text text-anchor="middle" x="436.24" y="-596.3" font-family="Times New Roman,serif" font-size="14.00">http://example.org/disti_aj#4</text>
</g>
<!-- http://example.org/assign16&#45;&gt;http://example.org/disti_aj#4 -->
<g id="edge17" class="edge"><title>http://example.org/assign16&#45;&gt;http://example.org/disti_aj#4</title>
<path fill="none" stroke="black" d="M393.039,-545.187C399.97,-553.821 408.499,-564.445 416.143,-573.966"/>
<polygon fill="black" stroke="black" points="413.58,-576.364 422.569,-581.971 419.038,-571.982 413.58,-576.364"/>
<text text-anchor="middle" x="407.864" y="-541.003" font-family="Times New Roman,serif" font-size="8.00">use</text>
</g>
<!-- &#45;attrs4 -->
<g id="node16" class="node"><title>&#45;attrs4</title>
<polygon fill="none" stroke="gray" points="85.2405,-472 21.2405,-472 21.2405,-436 91.2405,-436 91.2405,-466 85.2405,-472"/>
<polyline fill="none" stroke="gray" points="85.2405,-472 85.2405,-466 "/>
<polyline fill="none" stroke="gray" points="91.2405,-466 85.2405,-466 "/>
<text text-anchor="start" x="31.2405" y="-451" font-family="Times New Roman,serif" font-size="10.00">type:</text>
<text text-anchor="start" x="54.2405" y="-451" font-family="Times New Roman,serif" font-size="10.00">assign</text>
</g>
<!-- &#45;attrs4&#45;&gt;http://example.org/assign16 -->
<g id="edge14" class="edge"><title>&#45;attrs4&#45;&gt;http://example.org/assign16</title>
<path fill="none" stroke="gray" stroke-dasharray="5,2" d="M91.5973,-469.281C94.5005,-470.264 97.4071,-471.185 100.24,-472 187.723,-497.15 294.024,-514.097 346.579,-521.602"/>
</g>
</g>
</svg>
