<?xml version="1.0" encoding="UTF-8" standalone="no"?>
<!DOCTYPE svg PUBLIC "-//W3C//DTD SVG 1.1//EN"
 "http://www.w3.org/Graphics/SVG/1.1/DTD/svg11.dtd">
<!-- Generated by graphviz version 2.38.0 (20140413.2041)
 -->
<!-- Title: PROV Pages: 1 -->
<svg width="1027pt" height="290pt"
 viewBox="0.00 0.00 1026.94 290.00" xmlns="http://www.w3.org/2000/svg" xmlns:xlink="http://www.w3.org/1999/xlink">
<g id="graph0" class="graph" transform="scale(1 1) rotate(0) translate(4 286)">
<title>PROV</title>
<polygon fill="white" stroke="none" points="-4,4 -4,-286 1022.94,-286 1022.94,4 -4,4"/>
<!-- http://example.org/dist -->
<g id="node1" class="node"><title>http://example.org/dist</title>
<g id="a_node1"><a xlink:href="http://example.org/dist" xlink:title="dist">
<ellipse fill="#fffc87" stroke="#808080" cx="725.942" cy="-104" rx="27" ry="18"/>
<text text-anchor="middle" x="725.942" y="-100.3" font-family="Times New Roman,serif" font-size="14.00">dist</text>
</a>
</g>
</g>
<!-- bn0 -->
<g id="node3" class="node"><title>bn0</title>
<ellipse fill="black" stroke="black" cx="431.942" cy="-177" rx="1.8" ry="1.8"/>
</g>
<!-- http://example.org/dist&#45;&gt;bn0 -->
<g id="edge2" class="edge"><title>http://example.org/dist&#45;&gt;bn0</title>
<path fill="none" stroke="#000000" d="M700.875,-111.053C633.111,-127.418 450.21,-171.588 433.212,-175.693"/>
<text text-anchor="middle" x="681.375" y="-114.853" font-family="Times New Roman,serif" font-size="14.00">der&#45;ins</text>
</g>
<!-- http://example.org/assign2 -->
<g id="node11" class="node"><title>http://example.org/assign2</title>
<g id="a_node11"><a xlink:href="http://example.org/assign2" xlink:title="assign2">
<polygon fill="#f0f0f0" stroke="gray" points="839.942,-195 781.942,-195 781.942,-159 839.942,-159 839.942,-195"/>
<text text-anchor="middle" x="810.942" y="-173.3" font-family="Times New Roman,serif" font-size="14.00" fill="gray">assign2</text>
</a>
</g>
</g>
<!-- http://example.org/dist&#45;&gt;http://example.org/assign2 -->
<g id="edge16" class="edge"><title>http://example.org/dist&#45;&gt;http://example.org/assign2</title>
<path fill="none" stroke="gray" d="M742.331,-118.69C753.677,-128.167 769.076,-141.03 782.411,-152.169"/>
<polygon fill="gray" stroke="gray" points="780.474,-155.111 790.393,-158.836 784.962,-149.739 780.474,-155.111"/>
<text text-anchor="middle" x="756.414" y="-111.628" font-family="Times New Roman,serif" font-size="8.00" fill="gray">gen</text>
</g>
<!-- http://example.org/list -->
<g id="node13" class="node"><title>http://example.org/list</title>
<ellipse fill="none" stroke="black" cx="920.942" cy="-264" rx="89.0842" ry="18"/>
<text text-anchor="middle" x="920.942" y="-260.3" font-family="Times New Roman,serif" font-size="14.00">http://example.org/list</text>
</g>
<!-- http://example.org/dist&#45;&gt;http://example.org/list -->
<g id="edge15" class="edge"><title>http://example.org/dist&#45;&gt;http://example.org/list</title>
<path fill="none" stroke="gray" d="M731.056,-122.007C737.784,-141.827 751.351,-174.475 772.942,-195 797.522,-218.368 831.558,-234.766 860.793,-245.596"/>
<polygon fill="gray" stroke="gray" points="859.908,-248.996 870.502,-249.057 862.258,-242.402 859.908,-248.996"/>
<text text-anchor="middle" x="745.802" y="-122.857" font-family="Times New Roman,serif" font-size="8.00" fill="gray">der</text>
</g>
<!-- &#45;attrs0 -->
<g id="node2" class="node"><title>&#45;attrs0</title>
<polygon fill="none" stroke="gray" points="802.942,-49 624.942,-49 624.942,-0 808.942,-0 808.942,-43 802.942,-49"/>
<polyline fill="none" stroke="gray" points="802.942,-49 802.942,-43 "/>
<polyline fill="none" stroke="gray" points="808.942,-43 802.942,-43 "/>
<text text-anchor="start" x="634.942" y="-34.5" font-family="Times New Roman,serif" font-size="10.00">value:</text>
<text text-anchor="start" x="661.942" y="-34.5" font-family="Times New Roman,serif" font-size="10.00">[[0, 1, 4], [10000, 0, 2], [2, 10000, 0]]</text>
<text text-anchor="start" x="634.942" y="-21.5" font-family="Times New Roman,serif" font-size="10.00">type:</text>
<text text-anchor="start" x="661.942" y="-21.5" font-family="Times New Roman,serif" font-size="10.00">Dictionary</text>
<text text-anchor="start" x="634.942" y="-8.5" font-family="Times New Roman,serif" font-size="10.00">label:</text>
<text text-anchor="start" x="661.942" y="-8.5" font-family="Times New Roman,serif" font-size="10.00">dist</text>
</g>
<!-- &#45;attrs0&#45;&gt;http://example.org/dist -->
<g id="edge1" class="edge"><title>&#45;attrs0&#45;&gt;http://example.org/dist</title>
<path fill="none" stroke="gray" stroke-dasharray="5,2" d="M719.691,-49.1737C721.056,-60.9254 722.675,-74.869 723.923,-85.6196"/>
</g>
<!-- http://example.org/empty -->
<g id="node4" class="node"><title>http://example.org/empty</title>
<ellipse fill="none" stroke="black" cx="508.942" cy="-264" rx="100.983" ry="18"/>
<text text-anchor="middle" x="508.942" y="-260.3" font-family="Times New Roman,serif" font-size="14.00">http://example.org/empty</text>
</g>
<!-- bn0&#45;&gt;http://example.org/empty -->
<g id="edge3" class="edge"><title>bn0&#45;&gt;http://example.org/empty</title>
<path fill="none" stroke="#000000" d="M431.676,-178.792C430.052,-183.776 421.91,-211.147 432.942,-228 436.935,-234.1 442.283,-239.153 448.302,-243.336"/>
<polygon fill="#000000" stroke="#000000" points="446.493,-246.332 456.86,-248.516 450.118,-240.344 446.493,-246.332"/>
<text text-anchor="middle" x="442.442" y="-216.8" font-family="Times New Roman,serif" font-size="14.00">der</text>
</g>
<!-- http://example.org/list0 -->
<g id="node5" class="node"><title>http://example.org/list0</title>
<ellipse fill="none" stroke="black" cx="92.9418" cy="-264" rx="92.8835" ry="18"/>
<text text-anchor="middle" x="92.9418" y="-260.3" font-family="Times New Roman,serif" font-size="14.00">http://example.org/list0</text>
</g>
<!-- bn0&#45;&gt;http://example.org/list0 -->
<g id="edge4" class="edge"><title>bn0&#45;&gt;http://example.org/list0</title>
<path fill="none" stroke="#000000" d="M430.43,-178.379C413.079,-182.73 250.461,-223.504 157.444,-246.827"/>
<polygon fill="#000000" stroke="#000000" points="156.412,-243.477 147.564,-249.304 158.115,-250.267 156.412,-243.477"/>
<text text-anchor="middle" x="290.942" y="-216.8" font-family="Times New Roman,serif" font-size="14.00">[0]</text>
</g>
<!-- http://example.org/list1 -->
<g id="node6" class="node"><title>http://example.org/list1</title>
<ellipse fill="none" stroke="black" cx="296.942" cy="-264" rx="92.8835" ry="18"/>
<text text-anchor="middle" x="296.942" y="-260.3" font-family="Times New Roman,serif" font-size="14.00">http://example.org/list1</text>
</g>
<!-- bn0&#45;&gt;http://example.org/list1 -->
<g id="edge5" class="edge"><title>bn0&#45;&gt;http://example.org/list1</title>
<path fill="none" stroke="#000000" d="M430.671,-178.331C422.659,-180.459 378.497,-192.756 347.942,-213 337.229,-220.098 326.831,-229.644 318.249,-238.492"/>
<polygon fill="#000000" stroke="#000000" points="315.491,-236.317 311.213,-246.009 320.602,-241.1 315.491,-236.317"/>
<text text-anchor="middle" x="355.942" y="-216.8" font-family="Times New Roman,serif" font-size="14.00">[1]</text>
</g>
<!-- http://example.org/list2 -->
<g id="node7" class="node"><title>http://example.org/list2</title>
<ellipse fill="none" stroke="black" cx="720.942" cy="-264" rx="92.8835" ry="18"/>
<text text-anchor="middle" x="720.942" y="-260.3" font-family="Times New Roman,serif" font-size="14.00">http://example.org/list2</text>
</g>
<!-- bn0&#45;&gt;http://example.org/list2 -->
<g id="edge6" class="edge"><title>bn0&#45;&gt;http://example.org/list2</title>
<path fill="none" stroke="#000000" d="M433.446,-178.796C440.272,-182.427 468.952,-197.896 490.942,-213 499.81,-219.091 500.1,-223.653 509.942,-228 554.855,-247.841 570.503,-237.964 618.942,-246 626.748,-247.295 634.89,-248.648 643.021,-250.001"/>
<polygon fill="#000000" stroke="#000000" points="642.471,-253.457 652.91,-251.647 643.62,-246.552 642.471,-253.457"/>
<text text-anchor="middle" x="517.942" y="-216.8" font-family="Times New Roman,serif" font-size="14.00">[2]</text>
</g>
<!-- http://example.org/result -->
<g id="node8" class="node"><title>http://example.org/result</title>
<g id="a_node8"><a xlink:href="http://example.org/result" xlink:title="result">
<ellipse fill="#fffc87" stroke="#808080" cx="899.942" cy="-104" rx="30.5947" ry="18"/>
<text text-anchor="middle" x="899.942" y="-100.3" font-family="Times New Roman,serif" font-size="14.00">result</text>
</a>
</g>
</g>
<!-- bn1 -->
<g id="node10" class="node"><title>bn1</title>
<ellipse fill="black" stroke="black" cx="551.942" cy="-177" rx="1.8" ry="1.8"/>
</g>
<!-- http://example.org/result&#45;&gt;bn1 -->
<g id="edge8" class="edge"><title>http://example.org/result&#45;&gt;bn1</title>
<path fill="none" stroke="#000000" d="M875.456,-115.187C868.875,-117.666 861.705,-120.137 854.942,-122 730.277,-156.339 570.541,-174.011 553.443,-175.841"/>
<text text-anchor="middle" x="855.956" y="-118.987" font-family="Times New Roman,serif" font-size="14.00">der&#45;ins</text>
</g>
<!-- http://example.org/result&#45;&gt;http://example.org/list -->
<g id="edge19" class="edge"><title>http://example.org/result&#45;&gt;http://example.org/list</title>
<path fill="none" stroke="gray" d="M902.229,-122.21C905.858,-149.515 912.968,-203.006 917.303,-235.62"/>
<polygon fill="gray" stroke="gray" points="913.87,-236.36 918.657,-245.812 920.809,-235.438 913.87,-236.36"/>
<text text-anchor="middle" x="916.094" y="-126.033" font-family="Times New Roman,serif" font-size="8.00" fill="gray">der</text>
</g>
<!-- http://example.org/assign3 -->
<g id="node14" class="node"><title>http://example.org/assign3</title>
<g id="a_node14"><a xlink:href="http://example.org/assign3" xlink:title="assign3">
<polygon fill="#f0f0f0" stroke="gray" points="985.942,-195 927.942,-195 927.942,-159 985.942,-159 985.942,-195"/>
<text text-anchor="middle" x="956.942" y="-173.3" font-family="Times New Roman,serif" font-size="14.00" fill="gray">assign3</text>
</a>
</g>
</g>
<!-- http://example.org/result&#45;&gt;http://example.org/assign3 -->
<g id="edge20" class="edge"><title>http://example.org/result&#45;&gt;http://example.org/assign3</title>
<path fill="none" stroke="gray" d="M912.592,-120.757C919.664,-129.566 928.645,-140.754 936.673,-150.753"/>
<polygon fill="gray" stroke="gray" points="934.14,-153.189 943.13,-158.796 939.599,-148.807 934.14,-153.189"/>
<text text-anchor="middle" x="927.417" y="-116.573" font-family="Times New Roman,serif" font-size="8.00" fill="gray">gen</text>
</g>
<!-- &#45;attrs1 -->
<g id="node9" class="node"><title>&#45;attrs1</title>
<polygon fill="none" stroke="gray" points="1004.94,-49 826.942,-49 826.942,-0 1010.94,-0 1010.94,-43 1004.94,-49"/>
<polyline fill="none" stroke="gray" points="1004.94,-49 1004.94,-43 "/>
<polyline fill="none" stroke="gray" points="1010.94,-43 1004.94,-43 "/>
<text text-anchor="start" x="836.942" y="-34.5" font-family="Times New Roman,serif" font-size="10.00">value:</text>
<text text-anchor="start" x="863.942" y="-34.5" font-family="Times New Roman,serif" font-size="10.00">[[0, 1, 4], [10000, 0, 2], [2, 10000, 0]]</text>
<text text-anchor="start" x="836.942" y="-21.5" font-family="Times New Roman,serif" font-size="10.00">type:</text>
<text text-anchor="start" x="863.942" y="-21.5" font-family="Times New Roman,serif" font-size="10.00">Dictionary</text>
<text text-anchor="start" x="836.942" y="-8.5" font-family="Times New Roman,serif" font-size="10.00">label:</text>
<text text-anchor="start" x="863.942" y="-8.5" font-family="Times New Roman,serif" font-size="10.00">result</text>
</g>
<!-- &#45;attrs1&#45;&gt;http://example.org/result -->
<g id="edge7" class="edge"><title>&#45;attrs1&#45;&gt;http://example.org/result</title>
<path fill="none" stroke="gray" stroke-dasharray="5,2" d="M913.138,-49.1737C910.213,-61.1035 906.735,-75.292 904.084,-86.106"/>
</g>
<!-- bn1&#45;&gt;http://example.org/empty -->
<g id="edge9" class="edge"><title>bn1&#45;&gt;http://example.org/empty</title>
<path fill="none" stroke="#000000" d="M551.454,-179.264C549.226,-185.002 539.704,-209.132 529.942,-228 528.411,-230.958 526.735,-234.01 525.018,-237.021"/>
<polygon fill="#000000" stroke="#000000" points="521.907,-235.406 519.85,-245.799 527.939,-238.957 521.907,-235.406"/>
<text text-anchor="middle" x="547.442" y="-216.8" font-family="Times New Roman,serif" font-size="14.00">der</text>
</g>
<!-- bn1&#45;&gt;http://example.org/list0 -->
<g id="edge10" class="edge"><title>bn1&#45;&gt;http://example.org/list0</title>
<path fill="none" stroke="#000000" d="M550.51,-178.297C539.429,-180.601 466.236,-196.017 407.942,-213 388.106,-218.779 384.116,-223.545 363.942,-228 290.183,-244.287 269.784,-235.787 194.942,-246 186.632,-247.134 177.957,-248.42 169.329,-249.766"/>
<polygon fill="#000000" stroke="#000000" points="168.573,-246.342 159.245,-251.366 169.671,-253.255 168.573,-246.342"/>
<text text-anchor="middle" x="415.942" y="-216.8" font-family="Times New Roman,serif" font-size="14.00">[0]</text>
</g>
<!-- bn1&#45;&gt;http://example.org/list1 -->
<g id="edge11" class="edge"><title>bn1&#45;&gt;http://example.org/list1</title>
<path fill="none" stroke="#000000" d="M550.826,-178.433C543.78,-181.18 504.802,-196.6 474.942,-213 464.245,-218.875 463.182,-223.248 451.942,-228 428.827,-237.772 402.569,-245.019 378.319,-250.301"/>
<polygon fill="#000000" stroke="#000000" points="377.493,-246.898 368.423,-252.374 378.929,-253.749 377.493,-246.898"/>
<text text-anchor="middle" x="482.942" y="-216.8" font-family="Times New Roman,serif" font-size="14.00">[1]</text>
</g>
<!-- bn1&#45;&gt;http://example.org/list2 -->
<g id="edge12" class="edge"><title>bn1&#45;&gt;http://example.org/list2</title>
<path fill="none" stroke="#000000" d="M553.021,-178.543C562.588,-183.354 633.623,-219.082 680.187,-242.502"/>
<polygon fill="#000000" stroke="#000000" points="678.642,-245.642 689.148,-247.009 681.787,-239.389 678.642,-245.642"/>
<text text-anchor="middle" x="654.942" y="-216.8" font-family="Times New Roman,serif" font-size="14.00">[2]</text>
</g>
<!-- http://example.org/assign2&#45;&gt;http://example.org/list -->
<g id="edge14" class="edge"><title>http://example.org/assign2&#45;&gt;http://example.org/list</title>
<path fill="none" stroke="gray" d="M833.202,-195.201C849.97,-208.158 873.12,-226.047 891.431,-240.196"/>
<polygon fill="gray" stroke="gray" points="889.41,-243.058 899.463,-246.403 893.691,-237.519 889.41,-243.058"/>
<text text-anchor="middle" x="847.079" y="-187.608" font-family="Times New Roman,serif" font-size="8.00" fill="gray">use</text>
</g>
<!-- &#45;attrs2 -->
<g id="node12" class="node"><title>&#45;attrs2</title>
<polygon fill="none" stroke="#f0f0f0" points="839.942,-122 775.942,-122 775.942,-86 845.942,-86 845.942,-116 839.942,-122"/>
<polyline fill="none" stroke="#f0f0f0" points="839.942,-122 839.942,-116 "/>
<polyline fill="none" stroke="#f0f0f0" points="845.942,-116 839.942,-116 "/>
<text text-anchor="start" x="785.942" y="-101" font-family="Times New Roman,serif" font-size="10.00" fill="#f0f0f0">type:</text>
<text text-anchor="start" x="808.942" y="-101" font-family="Times New Roman,serif" font-size="10.00" fill="#f0f0f0">assign</text>
</g>
<!-- &#45;attrs2&#45;&gt;http://example.org/assign2 -->
<g id="edge13" class="edge"><title>&#45;attrs2&#45;&gt;http://example.org/assign2</title>
<path fill="none" stroke="#f0f0f0" stroke-dasharray="5,2" d="M810.942,-122.187C810.942,-133.35 810.942,-147.84 810.942,-158.971"/>
</g>
<!-- http://example.org/assign3&#45;&gt;http://example.org/list -->
<g id="edge18" class="edge"><title>http://example.org/assign3&#45;&gt;http://example.org/list</title>
<path fill="none" stroke="gray" d="M949.657,-195.201C944.631,-207.068 937.852,-223.072 932.144,-236.551"/>
<polygon fill="gray" stroke="gray" points="928.893,-235.251 928.216,-245.825 935.339,-237.981 928.893,-235.251"/>
<text text-anchor="middle" x="958.693" y="-205.273" font-family="Times New Roman,serif" font-size="8.00" fill="gray">use</text>
</g>
<!-- &#45;attrs3 -->
<g id="node15" class="node"><title>&#45;attrs3</title>
<polygon fill="none" stroke="#f0f0f0" points="1012.94,-122 948.942,-122 948.942,-86 1018.94,-86 1018.94,-116 1012.94,-122"/>
<polyline fill="none" stroke="#f0f0f0" points="1012.94,-122 1012.94,-116 "/>
<polyline fill="none" stroke="#f0f0f0" points="1018.94,-116 1012.94,-116 "/>
<text text-anchor="start" x="958.942" y="-101" font-family="Times New Roman,serif" font-size="10.00" fill="#f0f0f0">type:</text>
<text text-anchor="start" x="981.942" y="-101" font-family="Times New Roman,serif" font-size="10.00" fill="#f0f0f0">assign</text>
</g>
<!-- &#45;attrs3&#45;&gt;http://example.org/assign3 -->
<g id="edge17" class="edge"><title>&#45;attrs3&#45;&gt;http://example.org/assign3</title>
<path fill="none" stroke="#f0f0f0" stroke-dasharray="5,2" d="M977.406,-122.187C973.161,-133.35 967.651,-147.84 963.418,-158.971"/>
</g>
</g>
</svg>
