<?xml version="1.0" encoding="UTF-8" standalone="no"?>
<!DOCTYPE svg PUBLIC "-//W3C//DTD SVG 1.1//EN"
 "http://www.w3.org/Graphics/SVG/1.1/DTD/svg11.dtd">
<!-- Generated by graphviz version 2.38.0 (20140413.2041)
 -->
<!-- Title: PROV Pages: 1 -->
<svg width="247pt" height="347pt"
 viewBox="0.00 0.00 247.00 347.00" xmlns="http://www.w3.org/2000/svg" xmlns:xlink="http://www.w3.org/1999/xlink">
<g id="graph0" class="graph" transform="scale(1 1) rotate(0) translate(4 343)">
<title>PROV</title>
<polygon fill="white" stroke="none" points="-4,4 -4,-343 243,-343 243,4 -4,4"/>
<!-- http://example.org/10000 -->
<g id="node1" class="node"><title>http://example.org/10000</title>
<g id="a_node1"><a xlink:href="http://example.org/10000" xlink:title="10000">
<ellipse fill="#fffc87" stroke="#808080" cx="139" cy="-321" rx="32.4942" ry="18"/>
<text text-anchor="middle" x="139" y="-317.3" font-family="Times New Roman,serif" font-size="14.00">10000</text>
</a>
</g>
</g>
<!-- &#45;attrs0 -->
<g id="node2" class="node"><title>&#45;attrs0</title>
<polygon fill="none" stroke="gray" points="86,-237 0,-237 0,-188 92,-188 92,-231 86,-237"/>
<polyline fill="none" stroke="gray" points="86,-237 86,-231 "/>
<polyline fill="none" stroke="gray" points="92,-231 86,-231 "/>
<text text-anchor="start" x="10" y="-222.5" font-family="Times New Roman,serif" font-size="10.00">value:</text>
<text text-anchor="start" x="59" y="-222.5" font-family="Times New Roman,serif" font-size="10.00">10000</text>
<text text-anchor="start" x="10" y="-209.5" font-family="Times New Roman,serif" font-size="10.00">type:</text>
<text text-anchor="start" x="59" y="-209.5" font-family="Times New Roman,serif" font-size="10.00">literal</text>
<text text-anchor="start" x="10" y="-196.5" font-family="Times New Roman,serif" font-size="10.00">checkpoint:</text>
<text text-anchor="start" x="59" y="-196.5" font-family="Times New Roman,serif" font-size="10.00">1</text>
</g>
<!-- &#45;attrs0&#45;&gt;http://example.org/10000 -->
<g id="edge1" class="edge"><title>&#45;attrs0&#45;&gt;http://example.org/10000</title>
<path fill="none" stroke="gray" stroke-dasharray="5,2" d="M66.6397,-237.136C84.513,-257.604 109.86,-286.63 125.324,-304.339"/>
</g>
<!-- http://example.org/m -->
<g id="node3" class="node"><title>http://example.org/m</title>
<g id="a_node3"><a xlink:href="http://example.org/m" xlink:title="m">
<ellipse fill="#fffc87" stroke="#808080" cx="204" cy="-104" rx="27" ry="18"/>
<text text-anchor="middle" x="204" y="-100.3" font-family="Times New Roman,serif" font-size="14.00">m</text>
</a>
</g>
</g>
<!-- http://example.org/m&#45;&gt;http://example.org/10000 -->
<g id="edge4" class="edge"><title>http://example.org/m&#45;&gt;http://example.org/10000</title>
<path fill="none" stroke="darkgreen" d="M202.436,-122.168C198.914,-155.141 188.499,-229.023 162,-285 160.347,-288.491 158.39,-292.041 156.326,-295.474"/>
<polygon fill="darkgreen" stroke="darkgreen" points="153.201,-293.864 150.748,-304.17 159.093,-297.643 153.201,-293.864"/>
<text text-anchor="middle" x="209.5" y="-216.3" font-family="Times New Roman,serif" font-size="14.00">der ref</text>
<text text-anchor="middle" x="209.5" y="-201.3" font-family="Times New Roman,serif" font-size="14.00">2</text>
</g>
<!-- http://example.org/assign1 -->
<g id="node5" class="node"><title>http://example.org/assign1</title>
<g id="a_node5"><a xlink:href="http://example.org/assign1" xlink:title="assign1">
<polygon fill="#9fb1fc" stroke="#0000ff" points="168,-230.5 110,-230.5 110,-194.5 168,-194.5 168,-230.5"/>
<text text-anchor="middle" x="139" y="-208.8" font-family="Times New Roman,serif" font-size="14.00">assign1</text>
</a>
</g>
</g>
<!-- http://example.org/m&#45;&gt;http://example.org/assign1 -->
<g id="edge6" class="edge"><title>http://example.org/m&#45;&gt;http://example.org/assign1</title>
<path fill="none" stroke="darkgreen" d="M188.152,-118.945C181.937,-124.981 175.09,-132.398 170,-140 160.732,-153.841 153.209,-170.907 147.895,-184.893"/>
<polygon fill="darkgreen" stroke="darkgreen" points="144.551,-183.85 144.424,-194.444 151.13,-186.241 144.551,-183.85"/>
<text text-anchor="middle" x="180" y="-158.8" font-family="Times New Roman,serif" font-size="14.00">gen</text>
<text text-anchor="middle" x="180" y="-143.8" font-family="Times New Roman,serif" font-size="14.00">2</text>
</g>
<!-- &#45;attrs1 -->
<g id="node4" class="node"><title>&#45;attrs1</title>
<polygon fill="none" stroke="gray" points="233,-49 169,-49 169,-0 239,-0 239,-43 233,-49"/>
<polyline fill="none" stroke="gray" points="233,-49 233,-43 "/>
<polyline fill="none" stroke="gray" points="239,-43 233,-43 "/>
<text text-anchor="start" x="179" y="-34.5" font-family="Times New Roman,serif" font-size="10.00">value:</text>
<text text-anchor="start" x="206" y="-34.5" font-family="Times New Roman,serif" font-size="10.00">10000</text>
<text text-anchor="start" x="179" y="-21.5" font-family="Times New Roman,serif" font-size="10.00">type:</text>
<text text-anchor="start" x="206" y="-21.5" font-family="Times New Roman,serif" font-size="10.00">name</text>
<text text-anchor="start" x="179" y="-8.5" font-family="Times New Roman,serif" font-size="10.00">label:</text>
<text text-anchor="start" x="206" y="-8.5" font-family="Times New Roman,serif" font-size="10.00">m</text>
</g>
<!-- &#45;attrs1&#45;&gt;http://example.org/m -->
<g id="edge2" class="edge"><title>&#45;attrs1&#45;&gt;http://example.org/m</title>
<path fill="none" stroke="gray" stroke-dasharray="5,2" d="M204,-49.1737C204,-60.9254 204,-74.869 204,-85.6196"/>
</g>
<!-- http://example.org/assign1&#45;&gt;http://example.org/10000 -->
<g id="edge5" class="edge"><title>http://example.org/assign1&#45;&gt;http://example.org/10000</title>
<path fill="none" stroke="darkgreen" d="M139,-230.611C139,-247.38 139,-273.201 139,-292.788"/>
<polygon fill="darkgreen" stroke="darkgreen" points="135.5,-292.931 139,-302.931 142.5,-292.931 135.5,-292.931"/>
<text text-anchor="middle" x="148.5" y="-273.8" font-family="Times New Roman,serif" font-size="14.00">use</text>
<text text-anchor="middle" x="148.5" y="-258.8" font-family="Times New Roman,serif" font-size="14.00">2</text>
</g>
<!-- &#45;attrs2 -->
<g id="node6" class="node"><title>&#45;attrs2</title>
<polygon fill="none" stroke="gray" points="153,-122 89,-122 89,-86 159,-86 159,-116 153,-122"/>
<polyline fill="none" stroke="gray" points="153,-122 153,-116 "/>
<polyline fill="none" stroke="gray" points="159,-116 153,-116 "/>
<text text-anchor="start" x="99" y="-101" font-family="Times New Roman,serif" font-size="10.00">type:</text>
<text text-anchor="start" x="122" y="-101" font-family="Times New Roman,serif" font-size="10.00">assign</text>
</g>
<!-- &#45;attrs2&#45;&gt;http://example.org/assign1 -->
<g id="edge3" class="edge"><title>&#45;attrs2&#45;&gt;http://example.org/assign1</title>
<path fill="none" stroke="gray" stroke-dasharray="5,2" d="M126.41,-122.111C129.209,-141.985 133.799,-174.575 136.596,-194.431"/>
</g>
</g>
</svg>
