<?xml version="1.0" encoding="UTF-8" standalone="no"?>
<!DOCTYPE svg PUBLIC "-//W3C//DTD SVG 1.1//EN"
 "http://www.w3.org/Graphics/SVG/1.1/DTD/svg11.dtd">
<!-- Generated by graphviz version 2.38.0 (20140413.2041)
 -->
<!-- Title: PROV Pages: 1 -->
<svg width="228pt" height="334pt"
 viewBox="0.00 0.00 228.00 334.00" xmlns="http://www.w3.org/2000/svg" xmlns:xlink="http://www.w3.org/1999/xlink">
<g id="graph0" class="graph" transform="scale(1 1) rotate(0) translate(4 330)">
<title>PROV</title>
<polygon fill="white" stroke="none" points="-4,4 -4,-330 224,-330 224,4 -4,4"/>
<!-- http://example.org/10000 -->
<g id="node1" class="node"><title>http://example.org/10000</title>
<g id="a_node1"><a xlink:href="http://example.org/10000" xlink:title="10000">
<ellipse fill="#fffc87" stroke="#808080" cx="117" cy="-308" rx="32.4942" ry="18"/>
<text text-anchor="middle" x="117" y="-304.3" font-family="Times New Roman,serif" font-size="14.00">10000</text>
</a>
</g>
</g>
<!-- http://example.org/10000&#45;attrs -->
<g id="node2" class="node"><title>http://example.org/10000&#45;attrs</title>
<polygon fill="none" stroke="gray" points="64,-224 0,-224 0,-188 70,-188 70,-218 64,-224"/>
<polyline fill="none" stroke="gray" points="64,-224 64,-218 "/>
<polyline fill="none" stroke="gray" points="70,-218 64,-218 "/>
<text text-anchor="start" x="10" y="-210" font-family="Times New Roman,serif" font-size="10.00">value:</text>
<text text-anchor="start" x="37" y="-210" font-family="Times New Roman,serif" font-size="10.00">10000</text>
<text text-anchor="start" x="10" y="-197" font-family="Times New Roman,serif" font-size="10.00">type:</text>
<text text-anchor="start" x="37" y="-197" font-family="Times New Roman,serif" font-size="10.00">literal</text>
</g>
<!-- http://example.org/10000&#45;attrs&#45;&gt;http://example.org/10000 -->
<g id="edge1" class="edge"><title>http://example.org/10000&#45;attrs&#45;&gt;http://example.org/10000</title>
<path fill="none" stroke="gray" stroke-dasharray="5,2" d="M49.2833,-224.419C64.7927,-243.333 89.3362,-273.264 104.227,-291.423"/>
</g>
<!-- http://example.org/m -->
<g id="node3" class="node"><title>http://example.org/m</title>
<g id="a_node3"><a xlink:href="http://example.org/m" xlink:title="m">
<ellipse fill="#fffc87" stroke="#808080" cx="178" cy="-104" rx="27" ry="18"/>
<text text-anchor="middle" x="178" y="-100.3" font-family="Times New Roman,serif" font-size="14.00">m</text>
</a>
</g>
</g>
<!-- http://example.org/m&#45;&gt;http://example.org/10000 -->
<g id="edge4" class="edge"><title>http://example.org/m&#45;&gt;http://example.org/10000</title>
<path fill="none" stroke="darkgreen" d="M180.223,-122.116C183.501,-153.822 186.649,-222.926 160,-272 156.805,-277.884 152.171,-283.155 147.116,-287.711"/>
<polygon fill="darkgreen" stroke="darkgreen" points="144.567,-285.27 138.973,-294.268 148.957,-290.722 144.567,-285.27"/>
<text text-anchor="middle" x="200.5" y="-209.8" font-family="Times New Roman,serif" font-size="14.00">der ref</text>
<text text-anchor="middle" x="200.5" y="-194.8" font-family="Times New Roman,serif" font-size="14.00">ckpt: 1</text>
</g>
<!-- http://example.org/assign1 -->
<g id="node5" class="node"><title>http://example.org/assign1</title>
<g id="a_node5"><a xlink:href="http://example.org/assign1" xlink:title="assign1">
<polygon fill="#9fb1fc" stroke="#0000ff" points="146,-224 88,-224 88,-188 146,-188 146,-224"/>
<text text-anchor="middle" x="117" y="-202.3" font-family="Times New Roman,serif" font-size="14.00">assign1</text>
</a>
</g>
</g>
<!-- http://example.org/m&#45;&gt;http://example.org/assign1 -->
<g id="edge6" class="edge"><title>http://example.org/m&#45;&gt;http://example.org/assign1</title>
<path fill="none" stroke="darkgreen" d="M156.657,-115.324C146.735,-121.202 135.677,-129.503 129,-140 121.902,-151.158 118.763,-165.443 117.457,-177.777"/>
<polygon fill="darkgreen" stroke="darkgreen" points="113.949,-177.763 116.727,-187.987 120.931,-178.262 113.949,-177.763"/>
<text text-anchor="middle" x="148.5" y="-158.8" font-family="Times New Roman,serif" font-size="14.00">gen</text>
<text text-anchor="middle" x="148.5" y="-143.8" font-family="Times New Roman,serif" font-size="14.00">ckpt: 1</text>
</g>
<!-- http://example.org/m&#45;attrs -->
<g id="node4" class="node"><title>http://example.org/m&#45;attrs</title>
<polygon fill="none" stroke="gray" points="207,-49 143,-49 143,-0 213,-0 213,-43 207,-49"/>
<polyline fill="none" stroke="gray" points="207,-49 207,-43 "/>
<polyline fill="none" stroke="gray" points="213,-43 207,-43 "/>
<text text-anchor="start" x="153" y="-34.5" font-family="Times New Roman,serif" font-size="10.00">value:</text>
<text text-anchor="start" x="180" y="-34.5" font-family="Times New Roman,serif" font-size="10.00">10000</text>
<text text-anchor="start" x="153" y="-21.5" font-family="Times New Roman,serif" font-size="10.00">type:</text>
<text text-anchor="start" x="180" y="-21.5" font-family="Times New Roman,serif" font-size="10.00">name</text>
<text text-anchor="start" x="153" y="-8.5" font-family="Times New Roman,serif" font-size="10.00">label:</text>
<text text-anchor="start" x="180" y="-8.5" font-family="Times New Roman,serif" font-size="10.00">m</text>
</g>
<!-- http://example.org/m&#45;attrs&#45;&gt;http://example.org/m -->
<g id="edge2" class="edge"><title>http://example.org/m&#45;attrs&#45;&gt;http://example.org/m</title>
<path fill="none" stroke="gray" stroke-dasharray="5,2" d="M178,-49.1737C178,-60.9254 178,-74.869 178,-85.6196"/>
</g>
<!-- http://example.org/assign1&#45;&gt;http://example.org/10000 -->
<g id="edge5" class="edge"><title>http://example.org/assign1&#45;&gt;http://example.org/10000</title>
<path fill="none" stroke="darkgreen" d="M117,-224.419C117,-239.618 117,-261.933 117,-279.536"/>
<polygon fill="darkgreen" stroke="darkgreen" points="113.5,-279.781 117,-289.781 120.5,-279.781 113.5,-279.781"/>
<text text-anchor="middle" x="136.5" y="-260.8" font-family="Times New Roman,serif" font-size="14.00">use</text>
<text text-anchor="middle" x="136.5" y="-245.8" font-family="Times New Roman,serif" font-size="14.00">ckpt: 1</text>
</g>
<!-- http://example.org/assign1&#45;attrs -->
<g id="node6" class="node"><title>http://example.org/assign1&#45;attrs</title>
<polygon fill="none" stroke="gray" points="124,-122 60,-122 60,-86 130,-86 130,-116 124,-122"/>
<polyline fill="none" stroke="gray" points="124,-122 124,-116 "/>
<polyline fill="none" stroke="gray" points="130,-116 124,-116 "/>
<text text-anchor="start" x="70" y="-101" font-family="Times New Roman,serif" font-size="10.00">type:</text>
<text text-anchor="start" x="93" y="-101" font-family="Times New Roman,serif" font-size="10.00">assign</text>
</g>
<!-- http://example.org/assign1&#45;attrs&#45;&gt;http://example.org/assign1 -->
<g id="edge3" class="edge"><title>http://example.org/assign1&#45;attrs&#45;&gt;http://example.org/assign1</title>
<path fill="none" stroke="gray" stroke-dasharray="5,2" d="M98.626,-122.12C101.419,-135.234 105.398,-153.772 109,-170 110.297,-175.842 111.746,-182.224 113.051,-187.92"/>
</g>
</g>
</svg>
