<?xml version="1.0" encoding="UTF-8" standalone="no"?>
<!DOCTYPE svg PUBLIC "-//W3C//DTD SVG 1.1//EN"
 "http://www.w3.org/Graphics/SVG/1.1/DTD/svg11.dtd">
<!-- Generated by graphviz version 2.38.0 (20140413.2041)
 -->
<!-- Title: PROV Pages: 1 -->
<svg width="273pt" height="312pt"
 viewBox="0.00 0.00 273.00 312.00" xmlns="http://www.w3.org/2000/svg" xmlns:xlink="http://www.w3.org/1999/xlink">
<g id="graph0" class="graph" transform="scale(1 1) rotate(0) translate(4 308)">
<title>PROV</title>
<polygon fill="white" stroke="none" points="-4,4 -4,-308 269,-308 269,4 -4,4"/>
<!-- http://example.org/d -->
<g id="node1" class="node"><title>http://example.org/d</title>
<g id="a_node1"><a xlink:href="http://example.org/d" xlink:title="d">
<ellipse fill="#fffc87" stroke="#808080" cx="136" cy="-286" rx="27" ry="18"/>
<text text-anchor="middle" x="136" y="-282.3" font-family="Times New Roman,serif" font-size="14.00">d</text>
</a>
</g>
</g>
<!-- &#45;attrs0 -->
<g id="node2" class="node"><title>&#45;attrs0</title>
<polygon fill="none" stroke="gray" points="146,-232 0,-232 0,-170 152,-170 152,-226 146,-232"/>
<polyline fill="none" stroke="gray" points="146,-232 146,-226 "/>
<polyline fill="none" stroke="gray" points="152,-226 146,-226 "/>
<text text-anchor="start" x="10" y="-218" font-family="Times New Roman,serif" font-size="10.00">value:</text>
<text text-anchor="start" x="59" y="-218" font-family="Times New Roman,serif" font-size="10.00">[10000, 10001, 10000]</text>
<text text-anchor="start" x="10" y="-205" font-family="Times New Roman,serif" font-size="10.00">type:</text>
<text text-anchor="start" x="59" y="-205" font-family="Times New Roman,serif" font-size="10.00">name</text>
<text text-anchor="start" x="10" y="-192" font-family="Times New Roman,serif" font-size="10.00">label:</text>
<text text-anchor="start" x="59" y="-192" font-family="Times New Roman,serif" font-size="10.00">d</text>
<text text-anchor="start" x="10" y="-179" font-family="Times New Roman,serif" font-size="10.00">checkpoint:</text>
<text text-anchor="start" x="59" y="-179" font-family="Times New Roman,serif" font-size="10.00">6</text>
</g>
<!-- &#45;attrs0&#45;&gt;http://example.org/d -->
<g id="edge1" class="edge"><title>&#45;attrs0&#45;&gt;http://example.org/d</title>
<path fill="none" stroke="gray" stroke-dasharray="5,2" d="M98.0011,-232.435C107.098,-245.019 117.254,-259.068 124.776,-269.474"/>
</g>
<!-- http://example.org/len_d -->
<g id="node3" class="node"><title>http://example.org/len_d</title>
<g id="a_node3"><a xlink:href="http://example.org/len_d" xlink:title="len_d">
<ellipse fill="#fffc87" stroke="#808080" cx="158" cy="-116" rx="30.5947" ry="18"/>
<text text-anchor="middle" x="158" y="-112.3" font-family="Times New Roman,serif" font-size="14.00">len_d</text>
</a>
</g>
</g>
<!-- http://example.org/call1 -->
<g id="node5" class="node"><title>http://example.org/call1</title>
<g id="a_node5"><a xlink:href="http://example.org/call1" xlink:title="call1">
<polygon fill="#9fb1fc" stroke="#0000ff" points="224,-219 170,-219 170,-183 224,-183 224,-219"/>
<text text-anchor="middle" x="197" y="-197.3" font-family="Times New Roman,serif" font-size="14.00">call1</text>
</a>
</g>
</g>
<!-- http://example.org/len_d&#45;&gt;http://example.org/call1 -->
<g id="edge5" class="edge"><title>http://example.org/len_d&#45;&gt;http://example.org/call1</title>
<path fill="none" stroke="black" d="M165.892,-133.796C171.249,-145.196 178.442,-160.506 184.563,-173.531"/>
<polygon fill="black" stroke="black" points="181.565,-175.382 188.986,-182.944 187.901,-172.405 181.565,-175.382"/>
<text text-anchor="middle" x="180.839" y="-133.16" font-family="Times New Roman,serif" font-size="8.00">gen</text>
</g>
<!-- &#45;attrs1 -->
<g id="node4" class="node"><title>&#45;attrs1</title>
<polygon fill="none" stroke="gray" points="198.5,-62 111.5,-62 111.5,-0 204.5,-0 204.5,-56 198.5,-62"/>
<polyline fill="none" stroke="gray" points="198.5,-62 198.5,-56 "/>
<polyline fill="none" stroke="gray" points="204.5,-56 198.5,-56 "/>
<text text-anchor="start" x="122" y="-48" font-family="Times New Roman,serif" font-size="10.00">value:</text>
<text text-anchor="start" x="171" y="-48" font-family="Times New Roman,serif" font-size="10.00">3</text>
<text text-anchor="start" x="122" y="-35" font-family="Times New Roman,serif" font-size="10.00">type:</text>
<text text-anchor="start" x="171" y="-35" font-family="Times New Roman,serif" font-size="10.00">eval</text>
<text text-anchor="start" x="122" y="-22" font-family="Times New Roman,serif" font-size="10.00">label:</text>
<text text-anchor="start" x="171" y="-22" font-family="Times New Roman,serif" font-size="10.00">len(d)</text>
<text text-anchor="start" x="122" y="-9" font-family="Times New Roman,serif" font-size="10.00">checkpoint:</text>
<text text-anchor="start" x="171" y="-9" font-family="Times New Roman,serif" font-size="10.00">8</text>
</g>
<!-- &#45;attrs1&#45;&gt;http://example.org/len_d -->
<g id="edge2" class="edge"><title>&#45;attrs1&#45;&gt;http://example.org/len_d</title>
<path fill="none" stroke="gray" stroke-dasharray="5,2" d="M158,-62.4348C158,-74.2789 158,-87.4202 158,-97.6005"/>
</g>
<!-- http://example.org/call1&#45;&gt;http://example.org/d -->
<g id="edge4" class="edge"><title>http://example.org/call1&#45;&gt;http://example.org/d</title>
<path fill="none" stroke="black" d="M184.361,-219.198C175.429,-231.35 163.343,-247.796 153.487,-261.206"/>
<polygon fill="black" stroke="black" points="150.491,-259.373 147.389,-269.504 156.131,-263.519 150.491,-259.373"/>
<text text-anchor="middle" x="190.387" y="-231.034" font-family="Times New Roman,serif" font-size="8.00">use</text>
</g>
<!-- &#45;attrs2 -->
<g id="node6" class="node"><title>&#45;attrs2</title>
<polygon fill="none" stroke="gray" points="259,-134 207,-134 207,-98 265,-98 265,-128 259,-134"/>
<polyline fill="none" stroke="gray" points="259,-134 259,-128 "/>
<polyline fill="none" stroke="gray" points="265,-128 259,-128 "/>
<text text-anchor="start" x="217" y="-120" font-family="Times New Roman,serif" font-size="10.00">type:</text>
<text text-anchor="start" x="241" y="-120" font-family="Times New Roman,serif" font-size="10.00">call</text>
<text text-anchor="start" x="217" y="-107" font-family="Times New Roman,serif" font-size="10.00">label:</text>
<text text-anchor="start" x="241" y="-107" font-family="Times New Roman,serif" font-size="10.00">len</text>
</g>
<!-- &#45;attrs2&#45;&gt;http://example.org/call1 -->
<g id="edge3" class="edge"><title>&#45;attrs2&#45;&gt;http://example.org/call1</title>
<path fill="none" stroke="gray" stroke-dasharray="5,2" d="M227.919,-134.198C221.226,-148.443 211.761,-168.586 205.07,-182.824"/>
</g>
</g>
</svg>
