<?xml version="1.0" encoding="UTF-8" standalone="no"?>
<!DOCTYPE svg PUBLIC "-//W3C//DTD SVG 1.1//EN"
 "http://www.w3.org/Graphics/SVG/1.1/DTD/svg11.dtd">
<!-- Generated by graphviz version 2.38.0 (20140413.2041)
 -->
<!-- Title: PROV Pages: 1 -->
<svg width="311pt" height="347pt"
 viewBox="0.00 0.00 311.00 347.00" xmlns="http://www.w3.org/2000/svg" xmlns:xlink="http://www.w3.org/1999/xlink">
<g id="graph0" class="graph" transform="scale(1 1) rotate(0) translate(4 343)">
<title>PROV</title>
<polygon fill="white" stroke="none" points="-4,4 -4,-343 307,-343 307,4 -4,4"/>
<!-- http://example.org/d -->
<g id="node1" class="node"><title>http://example.org/d</title>
<g id="a_node1"><a xlink:href="http://example.org/d" xlink:title="d">
<ellipse fill="#fffc87" stroke="#808080" cx="177" cy="-321" rx="27" ry="18"/>
<text text-anchor="middle" x="177" y="-317.3" font-family="Times New Roman,serif" font-size="14.00">d</text>
</a>
</g>
</g>
<!-- http://example.org/d&#45;attrs -->
<g id="node2" class="node"><title>http://example.org/d&#45;attrs</title>
<polygon fill="none" stroke="gray" points="124,-237 0,-237 0,-188 130,-188 130,-231 124,-237"/>
<polyline fill="none" stroke="gray" points="124,-237 124,-231 "/>
<polyline fill="none" stroke="gray" points="130,-231 124,-231 "/>
<text text-anchor="start" x="10" y="-222.5" font-family="Times New Roman,serif" font-size="10.00">value:</text>
<text text-anchor="start" x="37" y="-222.5" font-family="Times New Roman,serif" font-size="10.00">[10000, 10001, 10000]</text>
<text text-anchor="start" x="10" y="-209.5" font-family="Times New Roman,serif" font-size="10.00">type:</text>
<text text-anchor="start" x="37" y="-209.5" font-family="Times New Roman,serif" font-size="10.00">name</text>
<text text-anchor="start" x="10" y="-196.5" font-family="Times New Roman,serif" font-size="10.00">label:</text>
<text text-anchor="start" x="37" y="-196.5" font-family="Times New Roman,serif" font-size="10.00">d</text>
</g>
<!-- http://example.org/d&#45;attrs&#45;&gt;http://example.org/d -->
<g id="edge1" class="edge"><title>http://example.org/d&#45;attrs&#45;&gt;http://example.org/d</title>
<path fill="none" stroke="gray" stroke-dasharray="5,2" d="M89.8564,-237.136C112.026,-258.216 143.743,-288.376 162.171,-305.899"/>
</g>
<!-- http://example.org/x -->
<g id="node3" class="node"><title>http://example.org/x</title>
<g id="a_node3"><a xlink:href="http://example.org/x" xlink:title="x">
<ellipse fill="#fffc87" stroke="#808080" cx="238" cy="-104" rx="27" ry="18"/>
<text text-anchor="middle" x="238" y="-100.3" font-family="Times New Roman,serif" font-size="14.00">x</text>
</a>
</g>
</g>
<!-- http://example.org/x&#45;&gt;http://example.org/d -->
<g id="edge4" class="edge"><title>http://example.org/x&#45;&gt;http://example.org/d</title>
<path fill="none" stroke="darkgreen" d="M240.424,-122.119C244.321,-155.641 248.869,-231.346 220,-285 216.425,-291.643 211.009,-297.5 205.214,-302.428"/>
<polygon fill="darkgreen" stroke="darkgreen" points="203.022,-299.698 197.214,-308.56 207.28,-305.254 203.022,-299.698"/>
<text text-anchor="middle" x="261.5" y="-216.3" font-family="Times New Roman,serif" font-size="14.00">der ref</text>
<text text-anchor="middle" x="261.5" y="-201.3" font-family="Times New Roman,serif" font-size="14.00">ckpt: 5</text>
</g>
<!-- http://example.org/assign3 -->
<g id="node5" class="node"><title>http://example.org/assign3</title>
<g id="a_node5"><a xlink:href="http://example.org/assign3" xlink:title="assign3">
<polygon fill="#9fb1fc" stroke="#0000ff" points="206,-230.5 148,-230.5 148,-194.5 206,-194.5 206,-230.5"/>
<text text-anchor="middle" x="177" y="-208.8" font-family="Times New Roman,serif" font-size="14.00">assign3</text>
</a>
</g>
</g>
<!-- http://example.org/x&#45;&gt;http://example.org/assign3 -->
<g id="edge6" class="edge"><title>http://example.org/x&#45;&gt;http://example.org/assign3</title>
<path fill="none" stroke="darkgreen" d="M216.584,-115.278C206.643,-121.145 195.592,-129.449 189,-140 180.816,-153.1 177.721,-170.071 176.716,-184.191"/>
<polygon fill="darkgreen" stroke="darkgreen" points="173.213,-184.189 176.306,-194.322 180.208,-184.472 173.213,-184.189"/>
<text text-anchor="middle" x="208.5" y="-158.8" font-family="Times New Roman,serif" font-size="14.00">gen</text>
<text text-anchor="middle" x="208.5" y="-143.8" font-family="Times New Roman,serif" font-size="14.00">ckpt: 5</text>
</g>
<!-- http://example.org/x&#45;attrs -->
<g id="node4" class="node"><title>http://example.org/x&#45;attrs</title>
<polygon fill="none" stroke="gray" points="297,-49 173,-49 173,-0 303,-0 303,-43 297,-49"/>
<polyline fill="none" stroke="gray" points="297,-49 297,-43 "/>
<polyline fill="none" stroke="gray" points="303,-43 297,-43 "/>
<text text-anchor="start" x="183" y="-34.5" font-family="Times New Roman,serif" font-size="10.00">value:</text>
<text text-anchor="start" x="210" y="-34.5" font-family="Times New Roman,serif" font-size="10.00">[10000, 10001, 10000]</text>
<text text-anchor="start" x="183" y="-21.5" font-family="Times New Roman,serif" font-size="10.00">type:</text>
<text text-anchor="start" x="210" y="-21.5" font-family="Times New Roman,serif" font-size="10.00">name</text>
<text text-anchor="start" x="183" y="-8.5" font-family="Times New Roman,serif" font-size="10.00">label:</text>
<text text-anchor="start" x="210" y="-8.5" font-family="Times New Roman,serif" font-size="10.00">x</text>
</g>
<!-- http://example.org/x&#45;attrs&#45;&gt;http://example.org/x -->
<g id="edge2" class="edge"><title>http://example.org/x&#45;attrs&#45;&gt;http://example.org/x</title>
<path fill="none" stroke="gray" stroke-dasharray="5,2" d="M238,-49.1737C238,-60.9254 238,-74.869 238,-85.6196"/>
</g>
<!-- http://example.org/assign3&#45;&gt;http://example.org/d -->
<g id="edge5" class="edge"><title>http://example.org/assign3&#45;&gt;http://example.org/d</title>
<path fill="none" stroke="darkgreen" d="M177,-230.611C177,-247.38 177,-273.201 177,-292.788"/>
<polygon fill="darkgreen" stroke="darkgreen" points="173.5,-292.931 177,-302.931 180.5,-292.931 173.5,-292.931"/>
<text text-anchor="middle" x="196.5" y="-273.8" font-family="Times New Roman,serif" font-size="14.00">use</text>
<text text-anchor="middle" x="196.5" y="-258.8" font-family="Times New Roman,serif" font-size="14.00">ckpt: 5</text>
</g>
<!-- http://example.org/assign3&#45;attrs -->
<g id="node6" class="node"><title>http://example.org/assign3&#45;attrs</title>
<polygon fill="none" stroke="gray" points="184,-122 120,-122 120,-86 190,-86 190,-116 184,-122"/>
<polyline fill="none" stroke="gray" points="184,-122 184,-116 "/>
<polyline fill="none" stroke="gray" points="190,-116 184,-116 "/>
<text text-anchor="start" x="130" y="-101" font-family="Times New Roman,serif" font-size="10.00">type:</text>
<text text-anchor="start" x="153" y="-101" font-family="Times New Roman,serif" font-size="10.00">assign</text>
</g>
<!-- http://example.org/assign3&#45;attrs&#45;&gt;http://example.org/assign3 -->
<g id="edge3" class="edge"><title>http://example.org/assign3&#45;attrs&#45;&gt;http://example.org/assign3</title>
<path fill="none" stroke="gray" stroke-dasharray="5,2" d="M158.535,-122.111C162.64,-141.985 169.372,-174.575 173.474,-194.431"/>
</g>
</g>
</svg>
