<?xml version="1.0" encoding="UTF-8" standalone="no"?>
<!DOCTYPE svg PUBLIC "-//W3C//DTD SVG 1.1//EN"
 "http://www.w3.org/Graphics/SVG/1.1/DTD/svg11.dtd">
<!-- Generated by graphviz version 2.38.0 (20140413.2041)
 -->
<!-- Title: PROV Pages: 1 -->
<svg width="289pt" height="245pt"
 viewBox="0.00 0.00 289.00 245.00" xmlns="http://www.w3.org/2000/svg" xmlns:xlink="http://www.w3.org/1999/xlink">
<g id="graph0" class="graph" transform="scale(1 1) rotate(0) translate(4 241)">
<title>PROV</title>
<polygon fill="white" stroke="none" points="-4,4 -4,-241 285,-241 285,4 -4,4"/>
<!-- http://example.org/m -->
<g id="node1" class="node"><title>http://example.org/m</title>
<g id="a_node1"><a xlink:href="http://example.org/m" xlink:title="m">
<ellipse fill="#fffc87" stroke="#808080" cx="192" cy="-219" rx="27" ry="18"/>
<text text-anchor="middle" x="192" y="-215.3" font-family="Times New Roman,serif" font-size="14.00">m</text>
</a>
</g>
</g>
<!-- http://example.org/m&#45;attrs -->
<g id="node2" class="node"><title>http://example.org/m&#45;attrs</title>
<polygon fill="none" stroke="gray" points="275,-135 211,-135 211,-86 281,-86 281,-129 275,-135"/>
<polyline fill="none" stroke="gray" points="275,-135 275,-129 "/>
<polyline fill="none" stroke="gray" points="281,-129 275,-129 "/>
<text text-anchor="start" x="221" y="-120.5" font-family="Times New Roman,serif" font-size="10.00">value:</text>
<text text-anchor="start" x="248" y="-120.5" font-family="Times New Roman,serif" font-size="10.00">10000</text>
<text text-anchor="start" x="221" y="-107.5" font-family="Times New Roman,serif" font-size="10.00">type:</text>
<text text-anchor="start" x="248" y="-107.5" font-family="Times New Roman,serif" font-size="10.00">name</text>
<text text-anchor="start" x="221" y="-94.5" font-family="Times New Roman,serif" font-size="10.00">label:</text>
<text text-anchor="start" x="248" y="-94.5" font-family="Times New Roman,serif" font-size="10.00">m</text>
</g>
<!-- http://example.org/m&#45;attrs&#45;&gt;http://example.org/m -->
<g id="edge1" class="edge"><title>http://example.org/m&#45;attrs&#45;&gt;http://example.org/m</title>
<path fill="none" stroke="gray" stroke-dasharray="5,2" d="M245.226,-135.061C243.849,-149.694 240.398,-168.423 232,-183 226.841,-191.955 218.54,-199.774 210.833,-205.736"/>
</g>
<!-- http://example.org/sum -->
<g id="node3" class="node"><title>http://example.org/sum</title>
<g id="a_node3"><a xlink:href="http://example.org/sum" xlink:title="sum">
<ellipse fill="#fffc87" stroke="#808080" cx="52" cy="-219" rx="27" ry="18"/>
<text text-anchor="middle" x="52" y="-215.3" font-family="Times New Roman,serif" font-size="14.00">sum</text>
</a>
</g>
</g>
<!-- http://example.org/sum&#45;attrs -->
<g id="node4" class="node"><title>http://example.org/sum&#45;attrs</title>
<polygon fill="none" stroke="gray" points="64,-135 0,-135 0,-86 70,-86 70,-129 64,-135"/>
<polyline fill="none" stroke="gray" points="64,-135 64,-129 "/>
<polyline fill="none" stroke="gray" points="70,-129 64,-129 "/>
<text text-anchor="start" x="10" y="-120.5" font-family="Times New Roman,serif" font-size="10.00">value:</text>
<text text-anchor="start" x="37" y="-120.5" font-family="Times New Roman,serif" font-size="10.00">10001</text>
<text text-anchor="start" x="10" y="-107.5" font-family="Times New Roman,serif" font-size="10.00">type:</text>
<text text-anchor="start" x="37" y="-107.5" font-family="Times New Roman,serif" font-size="10.00">eval</text>
<text text-anchor="start" x="10" y="-94.5" font-family="Times New Roman,serif" font-size="10.00">label:</text>
<text text-anchor="start" x="37" y="-94.5" font-family="Times New Roman,serif" font-size="10.00">m + 1</text>
</g>
<!-- http://example.org/sum&#45;attrs&#45;&gt;http://example.org/sum -->
<g id="edge2" class="edge"><title>http://example.org/sum&#45;attrs&#45;&gt;http://example.org/sum</title>
<path fill="none" stroke="gray" stroke-dasharray="5,2" d="M38.7729,-135.136C41.9618,-155.113 46.4522,-183.245 49.294,-201.048"/>
</g>
<!-- http://example.org/list -->
<g id="node5" class="node"><title>http://example.org/list</title>
<g id="a_node5"><a xlink:href="http://example.org/list" xlink:title="list">
<ellipse fill="#fffc87" stroke="#808080" cx="130" cy="-110.5" rx="27" ry="18"/>
<text text-anchor="middle" x="130" y="-106.8" font-family="Times New Roman,serif" font-size="14.00">list</text>
</a>
</g>
</g>
<!-- http://example.org/list&#45;&gt;http://example.org/m -->
<g id="edge4" class="edge"><title>http://example.org/list&#45;&gt;http://example.org/m</title>
<path fill="none" stroke="darkgreen" d="M146.189,-125.136C154.272,-132.657 163.654,-142.571 170,-153 177.161,-164.767 182.341,-179.165 185.869,-191.416"/>
<polygon fill="darkgreen" stroke="darkgreen" points="182.492,-192.337 188.451,-201.098 189.256,-190.533 182.492,-192.337"/>
<text text-anchor="middle" x="201.5" y="-171.8" font-family="Times New Roman,serif" font-size="14.00">put [0]</text>
<text text-anchor="middle" x="201.5" y="-156.8" font-family="Times New Roman,serif" font-size="14.00">ckpt: 3</text>
</g>
<!-- http://example.org/list&#45;&gt;http://example.org/m -->
<g id="edge6" class="edge"><title>http://example.org/list&#45;&gt;http://example.org/m</title>
<path fill="none" stroke="darkgreen" d="M124.356,-128.386C120.308,-143.743 117.125,-166.467 127,-183 133.845,-194.461 145.88,-202.389 157.749,-207.763"/>
<polygon fill="darkgreen" stroke="darkgreen" points="156.546,-211.051 167.129,-211.543 159.162,-204.559 156.546,-211.051"/>
<text text-anchor="middle" x="146.5" y="-171.8" font-family="Times New Roman,serif" font-size="14.00">put [2]</text>
<text text-anchor="middle" x="146.5" y="-156.8" font-family="Times New Roman,serif" font-size="14.00">ckpt: 3</text>
</g>
<!-- http://example.org/list&#45;&gt;http://example.org/sum -->
<g id="edge5" class="edge"><title>http://example.org/list&#45;&gt;http://example.org/sum</title>
<path fill="none" stroke="darkgreen" d="M110.429,-123.058C99.3526,-130.436 85.9648,-140.879 77,-153 68.6307,-164.315 62.7036,-178.78 58.7281,-191.19"/>
<polygon fill="darkgreen" stroke="darkgreen" points="55.3017,-190.436 55.837,-201.017 62.0171,-192.412 55.3017,-190.436"/>
<text text-anchor="middle" x="96.5" y="-171.8" font-family="Times New Roman,serif" font-size="14.00">put [1]</text>
<text text-anchor="middle" x="96.5" y="-156.8" font-family="Times New Roman,serif" font-size="14.00">ckpt: 3</text>
</g>
<!-- http://example.org/list&#45;attrs -->
<g id="node6" class="node"><title>http://example.org/list&#45;attrs</title>
<polygon fill="none" stroke="gray" points="189,-49 65,-49 65,-0 195,-0 195,-43 189,-49"/>
<polyline fill="none" stroke="gray" points="189,-49 189,-43 "/>
<polyline fill="none" stroke="gray" points="195,-43 189,-43 "/>
<text text-anchor="start" x="75" y="-34.5" font-family="Times New Roman,serif" font-size="10.00">value:</text>
<text text-anchor="start" x="102" y="-34.5" font-family="Times New Roman,serif" font-size="10.00">[10000, 10001, 10000]</text>
<text text-anchor="start" x="75" y="-21.5" font-family="Times New Roman,serif" font-size="10.00">type:</text>
<text text-anchor="start" x="102" y="-21.5" font-family="Times New Roman,serif" font-size="10.00">list</text>
<text text-anchor="start" x="75" y="-8.5" font-family="Times New Roman,serif" font-size="10.00">label:</text>
<text text-anchor="start" x="102" y="-8.5" font-family="Times New Roman,serif" font-size="10.00">[m, m + 1, m]</text>
</g>
<!-- http://example.org/list&#45;attrs&#45;&gt;http://example.org/list -->
<g id="edge3" class="edge"><title>http://example.org/list&#45;attrs&#45;&gt;http://example.org/list</title>
<path fill="none" stroke="gray" stroke-dasharray="5,2" d="M130,-49.3463C130,-63.0245 130,-79.8835 130,-92.2701"/>
</g>
</g>
</svg>
