<?xml version="1.0" encoding="UTF-8" standalone="no"?>
<!DOCTYPE svg PUBLIC "-//W3C//DTD SVG 1.1//EN"
 "http://www.w3.org/Graphics/SVG/1.1/DTD/svg11.dtd">
<!-- Generated by graphviz version 2.38.0 (20140413.2041)
 -->
<!-- Title: PROV Pages: 1 -->
<svg width="390pt" height="347pt"
 viewBox="0.00 0.00 389.50 347.00" xmlns="http://www.w3.org/2000/svg" xmlns:xlink="http://www.w3.org/1999/xlink">
<g id="graph0" class="graph" transform="scale(1 1) rotate(0) translate(4 343)">
<title>PROV</title>
<polygon fill="white" stroke="none" points="-4,4 -4,-343 385.5,-343 385.5,4 -4,4"/>
<!-- http://example.org/m -->
<g id="node1" class="node"><title>http://example.org/m</title>
<g id="a_node1"><a xlink:href="http://example.org/m" xlink:title="m">
<ellipse fill="#fffc87" stroke="#808080" cx="106" cy="-321" rx="27" ry="18"/>
<text text-anchor="middle" x="106" y="-317.3" font-family="Times New Roman,serif" font-size="14.00">m</text>
</a>
</g>
</g>
<!-- http://example.org/m&#45;attrs -->
<g id="node2" class="node"><title>http://example.org/m&#45;attrs</title>
<polygon fill="none" stroke="gray" points="64,-237 0,-237 0,-188 70,-188 70,-231 64,-237"/>
<polyline fill="none" stroke="gray" points="64,-237 64,-231 "/>
<polyline fill="none" stroke="gray" points="70,-231 64,-231 "/>
<text text-anchor="start" x="10" y="-222.5" font-family="Times New Roman,serif" font-size="10.00">value:</text>
<text text-anchor="start" x="37" y="-222.5" font-family="Times New Roman,serif" font-size="10.00">10000</text>
<text text-anchor="start" x="10" y="-209.5" font-family="Times New Roman,serif" font-size="10.00">type:</text>
<text text-anchor="start" x="37" y="-209.5" font-family="Times New Roman,serif" font-size="10.00">name</text>
<text text-anchor="start" x="10" y="-196.5" font-family="Times New Roman,serif" font-size="10.00">label:</text>
<text text-anchor="start" x="37" y="-196.5" font-family="Times New Roman,serif" font-size="10.00">m</text>
</g>
<!-- http://example.org/m&#45;attrs&#45;&gt;http://example.org/m -->
<g id="edge1" class="edge"><title>http://example.org/m&#45;attrs&#45;&gt;http://example.org/m</title>
<path fill="none" stroke="gray" stroke-dasharray="5,2" d="M50.7572,-237.136C64.4024,-257.604 83.7536,-286.63 95.5595,-304.339"/>
</g>
<!-- http://example.org/1 -->
<g id="node3" class="node"><title>http://example.org/1</title>
<g id="a_node3"><a xlink:href="http://example.org/1" xlink:title="1">
<ellipse fill="#fffc87" stroke="#808080" cx="255" cy="-321" rx="27" ry="18"/>
<text text-anchor="middle" x="255" y="-317.3" font-family="Times New Roman,serif" font-size="14.00">1</text>
</a>
</g>
</g>
<!-- http://example.org/1&#45;attrs -->
<g id="node4" class="node"><title>http://example.org/1&#45;attrs</title>
<polygon fill="none" stroke="gray" points="375.5,-230.5 312.5,-230.5 312.5,-194.5 381.5,-194.5 381.5,-224.5 375.5,-230.5"/>
<polyline fill="none" stroke="gray" points="375.5,-230.5 375.5,-224.5 "/>
<polyline fill="none" stroke="gray" points="381.5,-224.5 375.5,-224.5 "/>
<text text-anchor="start" x="323" y="-216.5" font-family="Times New Roman,serif" font-size="10.00">value:</text>
<text text-anchor="start" x="350" y="-216.5" font-family="Times New Roman,serif" font-size="10.00">1</text>
<text text-anchor="start" x="323" y="-203.5" font-family="Times New Roman,serif" font-size="10.00">type:</text>
<text text-anchor="start" x="350" y="-203.5" font-family="Times New Roman,serif" font-size="10.00">literal</text>
</g>
<!-- http://example.org/1&#45;attrs&#45;&gt;http://example.org/1 -->
<g id="edge2" class="edge"><title>http://example.org/1&#45;attrs&#45;&gt;http://example.org/1</title>
<path fill="none" stroke="gray" stroke-dasharray="5,2" d="M332.219,-230.611C314.441,-251.191 284.884,-285.406 267.96,-304.997"/>
</g>
<!-- http://example.org/sum -->
<g id="node5" class="node"><title>http://example.org/sum</title>
<g id="a_node5"><a xlink:href="http://example.org/sum" xlink:title="sum">
<ellipse fill="#fffc87" stroke="#808080" cx="190" cy="-104" rx="27" ry="18"/>
<text text-anchor="middle" x="190" y="-100.3" font-family="Times New Roman,serif" font-size="14.00">sum</text>
</a>
</g>
</g>
<!-- http://example.org/sum&#45;&gt;http://example.org/m -->
<g id="edge5" class="edge"><title>http://example.org/sum&#45;&gt;http://example.org/m</title>
<path fill="none" stroke="darkgreen" d="M172.725,-118.094C154.725,-132.864 127.446,-158.681 115,-188 100.579,-221.972 100.715,-265.297 102.816,-292.853"/>
<polygon fill="darkgreen" stroke="darkgreen" points="99.3406,-293.29 103.727,-302.934 106.312,-292.66 99.3406,-293.29"/>
<text text-anchor="middle" x="134.5" y="-216.3" font-family="Times New Roman,serif" font-size="14.00">der</text>
<text text-anchor="middle" x="134.5" y="-201.3" font-family="Times New Roman,serif" font-size="14.00">ckpt: 2</text>
</g>
<!-- http://example.org/sum&#45;&gt;http://example.org/1 -->
<g id="edge6" class="edge"><title>http://example.org/sum&#45;&gt;http://example.org/1</title>
<path fill="none" stroke="darkgreen" d="M210.116,-116.493C218.588,-122.403 227.695,-130.394 233,-140 259.875,-188.66 260.143,-255.826 257.722,-292.821"/>
<polygon fill="darkgreen" stroke="darkgreen" points="254.228,-292.609 256.95,-302.848 261.208,-293.147 254.228,-292.609"/>
<text text-anchor="middle" x="276.5" y="-216.3" font-family="Times New Roman,serif" font-size="14.00">der</text>
<text text-anchor="middle" x="276.5" y="-201.3" font-family="Times New Roman,serif" font-size="14.00">ckpt: 2</text>
</g>
<!-- http://example.org/+ -->
<g id="node7" class="node"><title>http://example.org/+</title>
<g id="a_node7"><a xlink:href="http://example.org/+" xlink:title="+">
<polygon fill="#9fb1fc" stroke="#0000ff" points="217,-230.5 163,-230.5 163,-194.5 217,-194.5 217,-230.5"/>
<text text-anchor="middle" x="190" y="-208.8" font-family="Times New Roman,serif" font-size="14.00">+</text>
</a>
</g>
</g>
<!-- http://example.org/sum&#45;&gt;http://example.org/+ -->
<g id="edge9" class="edge"><title>http://example.org/sum&#45;&gt;http://example.org/+</title>
<path fill="none" stroke="darkgreen" d="M190,-122.111C190,-138.88 190,-164.701 190,-184.288"/>
<polygon fill="darkgreen" stroke="darkgreen" points="186.5,-184.431 190,-194.431 193.5,-184.431 186.5,-184.431"/>
<text text-anchor="middle" x="209.5" y="-158.8" font-family="Times New Roman,serif" font-size="14.00">gen</text>
<text text-anchor="middle" x="209.5" y="-143.8" font-family="Times New Roman,serif" font-size="14.00">ckpt: 2</text>
</g>
<!-- http://example.org/sum&#45;attrs -->
<g id="node6" class="node"><title>http://example.org/sum&#45;attrs</title>
<polygon fill="none" stroke="gray" points="219,-49 155,-49 155,-0 225,-0 225,-43 219,-49"/>
<polyline fill="none" stroke="gray" points="219,-49 219,-43 "/>
<polyline fill="none" stroke="gray" points="225,-43 219,-43 "/>
<text text-anchor="start" x="165" y="-34.5" font-family="Times New Roman,serif" font-size="10.00">value:</text>
<text text-anchor="start" x="192" y="-34.5" font-family="Times New Roman,serif" font-size="10.00">10001</text>
<text text-anchor="start" x="165" y="-21.5" font-family="Times New Roman,serif" font-size="10.00">type:</text>
<text text-anchor="start" x="192" y="-21.5" font-family="Times New Roman,serif" font-size="10.00">eval</text>
<text text-anchor="start" x="165" y="-8.5" font-family="Times New Roman,serif" font-size="10.00">label:</text>
<text text-anchor="start" x="192" y="-8.5" font-family="Times New Roman,serif" font-size="10.00">m + 1</text>
</g>
<!-- http://example.org/sum&#45;attrs&#45;&gt;http://example.org/sum -->
<g id="edge3" class="edge"><title>http://example.org/sum&#45;attrs&#45;&gt;http://example.org/sum</title>
<path fill="none" stroke="gray" stroke-dasharray="5,2" d="M190,-49.1737C190,-60.9254 190,-74.869 190,-85.6196"/>
</g>
<!-- http://example.org/+&#45;&gt;http://example.org/m -->
<g id="edge8" class="edge"><title>http://example.org/+&#45;&gt;http://example.org/m</title>
<path fill="none" stroke="darkgreen" d="M171.647,-230.559C164.268,-237.795 155.894,-246.508 149,-255 138.707,-267.68 128.561,-282.853 120.711,-295.349"/>
<polygon fill="darkgreen" stroke="darkgreen" points="117.707,-293.553 115.432,-303.901 123.663,-297.23 117.707,-293.553"/>
<text text-anchor="middle" x="168.5" y="-273.8" font-family="Times New Roman,serif" font-size="14.00">use</text>
<text text-anchor="middle" x="168.5" y="-258.8" font-family="Times New Roman,serif" font-size="14.00">ckpt: 2</text>
</g>
<!-- http://example.org/+&#45;&gt;http://example.org/1 -->
<g id="edge7" class="edge"><title>http://example.org/+&#45;&gt;http://example.org/1</title>
<path fill="none" stroke="darkgreen" d="M189.163,-230.769C189.235,-246.178 191.43,-268.752 202,-285 207.387,-293.281 215.495,-300.053 223.759,-305.357"/>
<polygon fill="darkgreen" stroke="darkgreen" points="222.264,-308.536 232.667,-310.539 225.784,-302.486 222.264,-308.536"/>
<text text-anchor="middle" x="221.5" y="-273.8" font-family="Times New Roman,serif" font-size="14.00">use</text>
<text text-anchor="middle" x="221.5" y="-258.8" font-family="Times New Roman,serif" font-size="14.00">ckpt: 2</text>
</g>
<!-- http://example.org/+&#45;attrs -->
<g id="node8" class="node"><title>http://example.org/+&#45;attrs</title>
<polygon fill="none" stroke="gray" points="116,-122 40,-122 40,-86 122,-86 122,-116 116,-122"/>
<polyline fill="none" stroke="gray" points="116,-122 116,-116 "/>
<polyline fill="none" stroke="gray" points="122,-116 116,-116 "/>
<text text-anchor="start" x="50" y="-101" font-family="Times New Roman,serif" font-size="10.00">type:</text>
<text text-anchor="start" x="73" y="-101" font-family="Times New Roman,serif" font-size="10.00">operation</text>
</g>
<!-- http://example.org/+&#45;attrs&#45;&gt;http://example.org/+ -->
<g id="edge4" class="edge"><title>http://example.org/+&#45;attrs&#45;&gt;http://example.org/+</title>
<path fill="none" stroke="gray" stroke-dasharray="5,2" d="M98.5127,-122.111C118.853,-141.985 152.209,-174.575 172.531,-194.431"/>
</g>
</g>
</svg>
