<?xml version="1.0" encoding="UTF-8" standalone="no"?>
<!DOCTYPE svg PUBLIC "-//W3C//DTD SVG 1.1//EN"
 "http://www.w3.org/Graphics/SVG/1.1/DTD/svg11.dtd">
<!-- Generated by graphviz version 2.38.0 (20140413.2041)
 -->
<!-- Title: PROV Pages: 1 -->
<svg width="348pt" height="347pt"
 viewBox="0.00 0.00 347.50 347.00" xmlns="http://www.w3.org/2000/svg" xmlns:xlink="http://www.w3.org/1999/xlink">
<g id="graph0" class="graph" transform="scale(1 1) rotate(0) translate(4 343)">
<title>PROV</title>
<polygon fill="white" stroke="none" points="-4,4 -4,-343 343.5,-343 343.5,4 -4,4"/>
<!-- http://example.org/m -->
<g id="node1" class="node"><title>http://example.org/m</title>
<g id="a_node1"><a xlink:href="http://example.org/m" xlink:title="m">
<ellipse fill="#fffc87" stroke="#808080" cx="106" cy="-321" rx="27" ry="18"/>
<text text-anchor="middle" x="106" y="-317.3" font-family="Times New Roman,serif" font-size="14.00">m</text>
</a>
</g>
</g>
<!-- &#45;attrs0 -->
<g id="node2" class="node"><title>&#45;attrs0</title>
<polygon fill="none" stroke="gray" points="64,-237 0,-237 0,-188 70,-188 70,-231 64,-237"/>
<polyline fill="none" stroke="gray" points="64,-237 64,-231 "/>
<polyline fill="none" stroke="gray" points="70,-231 64,-231 "/>
<text text-anchor="start" x="10" y="-222.5" font-family="Times New Roman,serif" font-size="10.00">value:</text>
<text text-anchor="start" x="37" y="-222.5" font-family="Times New Roman,serif" font-size="10.00">10000</text>
<text text-anchor="start" x="10" y="-209.5" font-family="Times New Roman,serif" font-size="10.00">type:</text>
<text text-anchor="start" x="37" y="-209.5" font-family="Times New Roman,serif" font-size="10.00">name</text>
<text text-anchor="start" x="10" y="-196.5" font-family="Times New Roman,serif" font-size="10.00">label:</text>
<text text-anchor="start" x="37" y="-196.5" font-family="Times New Roman,serif" font-size="10.00">m</text>
</g>
<!-- &#45;attrs0&#45;&gt;http://example.org/m -->
<g id="edge1" class="edge"><title>&#45;attrs0&#45;&gt;http://example.org/m</title>
<path fill="none" stroke="gray" stroke-dasharray="5,2" d="M50.7572,-237.136C64.4024,-257.604 83.7536,-286.63 95.5595,-304.339"/>
</g>
<!-- http://example.org/1 -->
<g id="node3" class="node"><title>http://example.org/1</title>
<g id="a_node3"><a xlink:href="http://example.org/1" xlink:title="1">
<ellipse fill="#fffc87" stroke="#808080" cx="233" cy="-321" rx="27" ry="18"/>
<text text-anchor="middle" x="233" y="-317.3" font-family="Times New Roman,serif" font-size="14.00">1</text>
</a>
</g>
</g>
<!-- &#45;attrs1 -->
<g id="node4" class="node"><title>&#45;attrs1</title>
<polygon fill="none" stroke="gray" points="333.5,-230.5 270.5,-230.5 270.5,-194.5 339.5,-194.5 339.5,-224.5 333.5,-230.5"/>
<polyline fill="none" stroke="gray" points="333.5,-230.5 333.5,-224.5 "/>
<polyline fill="none" stroke="gray" points="339.5,-224.5 333.5,-224.5 "/>
<text text-anchor="start" x="281" y="-216.5" font-family="Times New Roman,serif" font-size="10.00">value:</text>
<text text-anchor="start" x="308" y="-216.5" font-family="Times New Roman,serif" font-size="10.00">1</text>
<text text-anchor="start" x="281" y="-203.5" font-family="Times New Roman,serif" font-size="10.00">type:</text>
<text text-anchor="start" x="308" y="-203.5" font-family="Times New Roman,serif" font-size="10.00">literal</text>
</g>
<!-- &#45;attrs1&#45;&gt;http://example.org/1 -->
<g id="edge2" class="edge"><title>&#45;attrs1&#45;&gt;http://example.org/1</title>
<path fill="none" stroke="gray" stroke-dasharray="5,2" d="M293.432,-230.611C279.678,-250.956 256.915,-284.625 243.601,-304.32"/>
</g>
<!-- http://example.org/sum -->
<g id="node5" class="node"><title>http://example.org/sum</title>
<g id="a_node5"><a xlink:href="http://example.org/sum" xlink:title="sum">
<ellipse fill="#fffc87" stroke="#808080" cx="170" cy="-104" rx="27" ry="18"/>
<text text-anchor="middle" x="170" y="-100.3" font-family="Times New Roman,serif" font-size="14.00">sum</text>
</a>
</g>
</g>
<!-- http://example.org/sum&#45;&gt;http://example.org/m -->
<g id="edge5" class="edge"><title>http://example.org/sum&#45;&gt;http://example.org/m</title>
<path fill="none" stroke="darkgreen" d="M156.588,-119.917C143.382,-135.608 123.93,-161.641 115,-188 103.275,-222.609 102.647,-265.177 103.852,-292.449"/>
<polygon fill="darkgreen" stroke="darkgreen" points="100.377,-293 104.43,-302.789 107.366,-292.609 100.377,-293"/>
<text text-anchor="middle" x="124.5" y="-216.3" font-family="Times New Roman,serif" font-size="14.00">der</text>
<text text-anchor="middle" x="124.5" y="-201.3" font-family="Times New Roman,serif" font-size="14.00">2</text>
</g>
<!-- http://example.org/sum&#45;&gt;http://example.org/1 -->
<g id="edge6" class="edge"><title>http://example.org/sum&#45;&gt;http://example.org/1</title>
<path fill="none" stroke="darkgreen" d="M182.257,-120.319C186.478,-126.199 190.915,-133.147 194,-140 216.959,-190.997 226.751,-256.333 230.65,-292.609"/>
<polygon fill="darkgreen" stroke="darkgreen" points="227.201,-293.284 231.68,-302.886 234.166,-292.587 227.201,-293.284"/>
<text text-anchor="middle" x="231.5" y="-216.3" font-family="Times New Roman,serif" font-size="14.00">der</text>
<text text-anchor="middle" x="231.5" y="-201.3" font-family="Times New Roman,serif" font-size="14.00">2</text>
</g>
<!-- http://example.org/+ -->
<g id="node7" class="node"><title>http://example.org/+</title>
<g id="a_node7"><a xlink:href="http://example.org/+" xlink:title="+">
<polygon fill="#9fb1fc" stroke="#0000ff" points="197,-230.5 143,-230.5 143,-194.5 197,-194.5 197,-230.5"/>
<text text-anchor="middle" x="170" y="-208.8" font-family="Times New Roman,serif" font-size="14.00">+</text>
</a>
</g>
</g>
<!-- http://example.org/sum&#45;&gt;http://example.org/+ -->
<g id="edge9" class="edge"><title>http://example.org/sum&#45;&gt;http://example.org/+</title>
<path fill="none" stroke="darkgreen" d="M170,-122.111C170,-138.88 170,-164.701 170,-184.288"/>
<polygon fill="darkgreen" stroke="darkgreen" points="166.5,-184.431 170,-194.431 173.5,-184.431 166.5,-184.431"/>
<text text-anchor="middle" x="180" y="-158.8" font-family="Times New Roman,serif" font-size="14.00">gen</text>
<text text-anchor="middle" x="180" y="-143.8" font-family="Times New Roman,serif" font-size="14.00">2</text>
</g>
<!-- &#45;attrs2 -->
<g id="node6" class="node"><title>&#45;attrs2</title>
<polygon fill="none" stroke="gray" points="199,-49 135,-49 135,-0 205,-0 205,-43 199,-49"/>
<polyline fill="none" stroke="gray" points="199,-49 199,-43 "/>
<polyline fill="none" stroke="gray" points="205,-43 199,-43 "/>
<text text-anchor="start" x="145" y="-34.5" font-family="Times New Roman,serif" font-size="10.00">value:</text>
<text text-anchor="start" x="172" y="-34.5" font-family="Times New Roman,serif" font-size="10.00">10001</text>
<text text-anchor="start" x="145" y="-21.5" font-family="Times New Roman,serif" font-size="10.00">type:</text>
<text text-anchor="start" x="172" y="-21.5" font-family="Times New Roman,serif" font-size="10.00">eval</text>
<text text-anchor="start" x="145" y="-8.5" font-family="Times New Roman,serif" font-size="10.00">label:</text>
<text text-anchor="start" x="172" y="-8.5" font-family="Times New Roman,serif" font-size="10.00">m + 1</text>
</g>
<!-- &#45;attrs2&#45;&gt;http://example.org/sum -->
<g id="edge3" class="edge"><title>&#45;attrs2&#45;&gt;http://example.org/sum</title>
<path fill="none" stroke="gray" stroke-dasharray="5,2" d="M170,-49.1737C170,-60.9254 170,-74.869 170,-85.6196"/>
</g>
<!-- http://example.org/+&#45;&gt;http://example.org/m -->
<g id="edge7" class="edge"><title>http://example.org/+&#45;&gt;http://example.org/m</title>
<path fill="none" stroke="darkgreen" d="M159.717,-230.611C149.224,-248.073 132.832,-275.35 120.914,-295.183"/>
<polygon fill="darkgreen" stroke="darkgreen" points="117.78,-293.602 115.629,-303.977 123.78,-297.208 117.78,-293.602"/>
<text text-anchor="middle" x="153.5" y="-273.8" font-family="Times New Roman,serif" font-size="14.00">use</text>
<text text-anchor="middle" x="153.5" y="-258.8" font-family="Times New Roman,serif" font-size="14.00">2</text>
</g>
<!-- http://example.org/+&#45;&gt;http://example.org/1 -->
<g id="edge8" class="edge"><title>http://example.org/+&#45;&gt;http://example.org/1</title>
<path fill="none" stroke="darkgreen" d="M175.208,-230.525C180.248,-245.567 188.771,-267.734 200,-285 203.073,-289.726 206.82,-294.393 210.672,-298.703"/>
<polygon fill="darkgreen" stroke="darkgreen" points="208.177,-301.159 217.595,-306.013 213.26,-296.346 208.177,-301.159"/>
<text text-anchor="middle" x="209.5" y="-273.8" font-family="Times New Roman,serif" font-size="14.00">use</text>
<text text-anchor="middle" x="209.5" y="-258.8" font-family="Times New Roman,serif" font-size="14.00">2</text>
</g>
<!-- &#45;attrs3 -->
<g id="node8" class="node"><title>&#45;attrs3</title>
<polygon fill="none" stroke="gray" points="116,-122 40,-122 40,-86 122,-86 122,-116 116,-122"/>
<polyline fill="none" stroke="gray" points="116,-122 116,-116 "/>
<polyline fill="none" stroke="gray" points="122,-116 116,-116 "/>
<text text-anchor="start" x="50" y="-101" font-family="Times New Roman,serif" font-size="10.00">type:</text>
<text text-anchor="start" x="73" y="-101" font-family="Times New Roman,serif" font-size="10.00">operation</text>
</g>
<!-- &#45;attrs3&#45;&gt;http://example.org/+ -->
<g id="edge4" class="edge"><title>&#45;attrs3&#45;&gt;http://example.org/+</title>
<path fill="none" stroke="gray" stroke-dasharray="5,2" d="M95.2994,-122.111C111.908,-141.985 139.143,-174.575 155.736,-194.431"/>
</g>
</g>
</svg>
