<?xml version="1.0" encoding="UTF-8" standalone="no"?>
<!DOCTYPE svg PUBLIC "-//W3C//DTD SVG 1.1//EN"
 "http://www.w3.org/Graphics/SVG/1.1/DTD/svg11.dtd">
<!-- Generated by graphviz version 2.38.0 (20140413.2041)
 -->
<!-- Title: PROV Pages: 1 -->
<svg width="496pt" height="477pt"
 viewBox="0.00 0.00 495.50 477.00" xmlns="http://www.w3.org/2000/svg" xmlns:xlink="http://www.w3.org/1999/xlink">
<g id="graph0" class="graph" transform="scale(1 1) rotate(0) translate(4 473)">
<title>PROV</title>
<polygon fill="white" stroke="none" points="-4,4 -4,-473 491.5,-473 491.5,4 -4,4"/>
<!-- http://example.org/m -->
<g id="node1" class="node"><title>http://example.org/m</title>
<g id="a_node1"><a xlink:href="http://example.org/m" xlink:title="m">
<ellipse fill="#fffc87" stroke="#808080" cx="230" cy="-234" rx="27" ry="18"/>
<text text-anchor="middle" x="230" y="-230.3" font-family="Times New Roman,serif" font-size="14.00">m</text>
</a>
</g>
</g>
<!-- &#45;attrs0 -->
<g id="node2" class="node"><title>&#45;attrs0</title>
<polygon fill="none" stroke="gray" points="296,-135 232,-135 232,-86 302,-86 302,-129 296,-135"/>
<polyline fill="none" stroke="gray" points="296,-135 296,-129 "/>
<polyline fill="none" stroke="gray" points="302,-129 296,-129 "/>
<text text-anchor="start" x="242" y="-120.5" font-family="Times New Roman,serif" font-size="10.00">value:</text>
<text text-anchor="start" x="269" y="-120.5" font-family="Times New Roman,serif" font-size="10.00">10000</text>
<text text-anchor="start" x="242" y="-107.5" font-family="Times New Roman,serif" font-size="10.00">type:</text>
<text text-anchor="start" x="269" y="-107.5" font-family="Times New Roman,serif" font-size="10.00">name</text>
<text text-anchor="start" x="242" y="-94.5" font-family="Times New Roman,serif" font-size="10.00">label:</text>
<text text-anchor="start" x="269" y="-94.5" font-family="Times New Roman,serif" font-size="10.00">m</text>
</g>
<!-- &#45;attrs0&#45;&gt;http://example.org/m -->
<g id="edge1" class="edge"><title>&#45;attrs0&#45;&gt;http://example.org/m</title>
<path fill="none" stroke="gray" stroke-dasharray="5,2" d="M265.834,-135.331C264.33,-153.111 260.885,-177.725 253,-198 250.312,-204.912 246.114,-211.872 242.037,-217.745"/>
</g>
<!-- http://example.org/sum -->
<g id="node3" class="node"><title>http://example.org/sum</title>
<g id="a_node3"><a xlink:href="http://example.org/sum" xlink:title="sum">
<ellipse fill="#fffc87" stroke="#808080" cx="97" cy="-234" rx="27" ry="18"/>
<text text-anchor="middle" x="97" y="-230.3" font-family="Times New Roman,serif" font-size="14.00">sum</text>
</a>
</g>
</g>
<!-- &#45;attrs1 -->
<g id="node4" class="node"><title>&#45;attrs1</title>
<polygon fill="none" stroke="gray" points="120,-135 56,-135 56,-86 126,-86 126,-129 120,-135"/>
<polyline fill="none" stroke="gray" points="120,-135 120,-129 "/>
<polyline fill="none" stroke="gray" points="126,-129 120,-129 "/>
<text text-anchor="start" x="66" y="-120.5" font-family="Times New Roman,serif" font-size="10.00">value:</text>
<text text-anchor="start" x="93" y="-120.5" font-family="Times New Roman,serif" font-size="10.00">10001</text>
<text text-anchor="start" x="66" y="-107.5" font-family="Times New Roman,serif" font-size="10.00">type:</text>
<text text-anchor="start" x="93" y="-107.5" font-family="Times New Roman,serif" font-size="10.00">eval</text>
<text text-anchor="start" x="66" y="-94.5" font-family="Times New Roman,serif" font-size="10.00">label:</text>
<text text-anchor="start" x="93" y="-94.5" font-family="Times New Roman,serif" font-size="10.00">m + 1</text>
</g>
<!-- &#45;attrs1&#45;&gt;http://example.org/sum -->
<g id="edge2" class="edge"><title>&#45;attrs1&#45;&gt;http://example.org/sum</title>
<path fill="none" stroke="gray" stroke-dasharray="5,2" d="M92.1711,-135.215C93.3443,-158.971 95.1208,-194.947 96.1604,-215.998"/>
</g>
<!-- http://example.org/list -->
<g id="node5" class="node"><title>http://example.org/list</title>
<g id="a_node5"><a xlink:href="http://example.org/list" xlink:title="list">
<ellipse fill="#fffc87" stroke="#808080" cx="187" cy="-110.5" rx="27" ry="18"/>
<text text-anchor="middle" x="187" y="-106.8" font-family="Times New Roman,serif" font-size="14.00">list</text>
</a>
</g>
</g>
<!-- http://example.org/list&#45;&gt;http://example.org/m -->
<g id="edge4" class="edge"><title>http://example.org/list&#45;&gt;http://example.org/m</title>
<path fill="none" stroke="darkgreen" d="M197.48,-127.111C202.168,-134.668 207.43,-144.03 211,-153 217.776,-170.027 222.534,-190.094 225.594,-205.871"/>
<polygon fill="darkgreen" stroke="darkgreen" points="222.207,-206.809 227.445,-216.018 229.094,-205.552 222.207,-206.809"/>
<text text-anchor="middle" x="233.5" y="-186.8" font-family="Times New Roman,serif" font-size="14.00">put</text>
<text text-anchor="middle" x="233.5" y="-171.8" font-family="Times New Roman,serif" font-size="14.00">[0]</text>
<text text-anchor="middle" x="233.5" y="-156.8" font-family="Times New Roman,serif" font-size="14.00">3</text>
</g>
<!-- http://example.org/list&#45;&gt;http://example.org/m -->
<g id="edge6" class="edge"><title>http://example.org/list&#45;&gt;http://example.org/m</title>
<path fill="none" stroke="darkgreen" d="M183.197,-128.367C179.988,-146.512 177.424,-175.756 188,-198 191.122,-204.566 196.135,-210.336 201.629,-215.198"/>
<polygon fill="darkgreen" stroke="darkgreen" points="199.831,-218.236 209.857,-221.66 204.154,-212.731 199.831,-218.236"/>
<text text-anchor="middle" x="197.5" y="-186.8" font-family="Times New Roman,serif" font-size="14.00">put</text>
<text text-anchor="middle" x="197.5" y="-171.8" font-family="Times New Roman,serif" font-size="14.00">[2]</text>
<text text-anchor="middle" x="197.5" y="-156.8" font-family="Times New Roman,serif" font-size="14.00">3</text>
</g>
<!-- http://example.org/list&#45;&gt;http://example.org/sum -->
<g id="edge5" class="edge"><title>http://example.org/list&#45;&gt;http://example.org/sum</title>
<path fill="none" stroke="darkgreen" d="M165.417,-121.441C152.114,-128.549 135.625,-139.276 125,-153 113.103,-168.367 106.029,-189.171 101.968,-205.711"/>
<polygon fill="darkgreen" stroke="darkgreen" points="98.4644,-205.344 99.7142,-215.865 105.298,-206.861 98.4644,-205.344"/>
<text text-anchor="middle" x="134.5" y="-186.8" font-family="Times New Roman,serif" font-size="14.00">put</text>
<text text-anchor="middle" x="134.5" y="-171.8" font-family="Times New Roman,serif" font-size="14.00">[1]</text>
<text text-anchor="middle" x="134.5" y="-156.8" font-family="Times New Roman,serif" font-size="14.00">3</text>
</g>
<!-- http://example.org/d@1 -->
<g id="node13" class="node"><title>http://example.org/d@1</title>
<g id="a_node13"><a xlink:href="http://example.org/d@1" xlink:title="d@1">
<ellipse fill="#fffc87" stroke="#808080" cx="304" cy="-234" rx="28.6953" ry="18"/>
<text text-anchor="middle" x="304" y="-230.3" font-family="Times New Roman,serif" font-size="14.00">d@1</text>
</a>
</g>
</g>
<!-- http://example.org/list&#45;&gt;http://example.org/d@1 -->
<g id="edge12" class="edge"><title>http://example.org/list&#45;&gt;http://example.org/d@1</title>
<path fill="none" stroke="darkgreen" d="M205.391,-123.753C221.695,-134.692 243.46,-149.509 247,-153 263.7,-169.468 278.908,-191.332 289.407,-208.04"/>
<polygon fill="darkgreen" stroke="darkgreen" points="286.522,-210.031 294.734,-216.725 292.489,-206.371 286.522,-210.031"/>
<text text-anchor="middle" x="291.5" y="-186.8" font-family="Times New Roman,serif" font-size="14.00">put</text>
<text text-anchor="middle" x="291.5" y="-171.8" font-family="Times New Roman,serif" font-size="14.00">[1]</text>
<text text-anchor="middle" x="291.5" y="-156.8" font-family="Times New Roman,serif" font-size="14.00">11</text>
</g>
<!-- &#45;attrs2 -->
<g id="node6" class="node"><title>&#45;attrs2</title>
<polygon fill="none" stroke="gray" points="246,-49 122,-49 122,-0 252,-0 252,-43 246,-49"/>
<polyline fill="none" stroke="gray" points="246,-49 246,-43 "/>
<polyline fill="none" stroke="gray" points="252,-43 246,-43 "/>
<text text-anchor="start" x="132" y="-34.5" font-family="Times New Roman,serif" font-size="10.00">value:</text>
<text text-anchor="start" x="159" y="-34.5" font-family="Times New Roman,serif" font-size="10.00">[10000, 10001, 10000]</text>
<text text-anchor="start" x="132" y="-21.5" font-family="Times New Roman,serif" font-size="10.00">type:</text>
<text text-anchor="start" x="159" y="-21.5" font-family="Times New Roman,serif" font-size="10.00">list</text>
<text text-anchor="start" x="132" y="-8.5" font-family="Times New Roman,serif" font-size="10.00">label:</text>
<text text-anchor="start" x="159" y="-8.5" font-family="Times New Roman,serif" font-size="10.00">[m, m + 1, m]</text>
</g>
<!-- &#45;attrs2&#45;&gt;http://example.org/list -->
<g id="edge3" class="edge"><title>&#45;attrs2&#45;&gt;http://example.org/list</title>
<path fill="none" stroke="gray" stroke-dasharray="5,2" d="M187,-49.3463C187,-63.0245 187,-79.8835 187,-92.2701"/>
</g>
<!-- http://example.org/d -->
<g id="node7" class="node"><title>http://example.org/d</title>
<g id="a_node7"><a xlink:href="http://example.org/d" xlink:title="d">
<ellipse fill="#fffc87" stroke="#808080" cx="170" cy="-451" rx="27" ry="18"/>
<text text-anchor="middle" x="170" y="-447.3" font-family="Times New Roman,serif" font-size="14.00">d</text>
</a>
</g>
</g>
<!-- http://example.org/d&#45;&gt;http://example.org/list -->
<g id="edge8" class="edge"><title>http://example.org/d&#45;&gt;http://example.org/list</title>
<path fill="none" stroke="darkgreen" d="M169.135,-432.827C167.106,-387.089 163.192,-258.607 177,-153 177.622,-148.242 178.569,-143.236 179.637,-138.411"/>
<polygon fill="darkgreen" stroke="darkgreen" points="183.132,-138.851 182.089,-128.308 176.329,-137.201 183.132,-138.851"/>
<text text-anchor="middle" x="187.5" y="-288.8" font-family="Times New Roman,serif" font-size="14.00">der ref</text>
<text text-anchor="middle" x="187.5" y="-273.8" font-family="Times New Roman,serif" font-size="14.00">4</text>
</g>
<!-- &#45;attrs3 -->
<g id="node8" class="node"><title>&#45;attrs3</title>
<polygon fill="none" stroke="gray" points="124,-367 0,-367 0,-318 130,-318 130,-361 124,-367"/>
<polyline fill="none" stroke="gray" points="124,-367 124,-361 "/>
<polyline fill="none" stroke="gray" points="130,-361 124,-361 "/>
<text text-anchor="start" x="10" y="-352.5" font-family="Times New Roman,serif" font-size="10.00">value:</text>
<text text-anchor="start" x="37" y="-352.5" font-family="Times New Roman,serif" font-size="10.00">[10000, 10001, 10000]</text>
<text text-anchor="start" x="10" y="-339.5" font-family="Times New Roman,serif" font-size="10.00">type:</text>
<text text-anchor="start" x="37" y="-339.5" font-family="Times New Roman,serif" font-size="10.00">name</text>
<text text-anchor="start" x="10" y="-326.5" font-family="Times New Roman,serif" font-size="10.00">label:</text>
<text text-anchor="start" x="37" y="-326.5" font-family="Times New Roman,serif" font-size="10.00">d</text>
</g>
<!-- &#45;attrs3&#45;&gt;http://example.org/d -->
<g id="edge7" class="edge"><title>&#45;attrs3&#45;&gt;http://example.org/d</title>
<path fill="none" stroke="gray" stroke-dasharray="5,2" d="M88.3029,-367.136C108.966,-388.094 138.476,-418.026 155.795,-435.592"/>
</g>
<!-- http://example.org/1 -->
<g id="node9" class="node"><title>http://example.org/1</title>
<g id="a_node9"><a xlink:href="http://example.org/1" xlink:title="1">
<ellipse fill="#fffc87" stroke="#808080" cx="422" cy="-451" rx="27" ry="18"/>
<text text-anchor="middle" x="422" y="-447.3" font-family="Times New Roman,serif" font-size="14.00">1</text>
</a>
</g>
</g>
<!-- &#45;attrs4 -->
<g id="node10" class="node"><title>&#45;attrs4</title>
<polygon fill="none" stroke="gray" points="481.5,-360.5 418.5,-360.5 418.5,-324.5 487.5,-324.5 487.5,-354.5 481.5,-360.5"/>
<polyline fill="none" stroke="gray" points="481.5,-360.5 481.5,-354.5 "/>
<polyline fill="none" stroke="gray" points="487.5,-354.5 481.5,-354.5 "/>
<text text-anchor="start" x="429" y="-346.5" font-family="Times New Roman,serif" font-size="10.00">value:</text>
<text text-anchor="start" x="456" y="-346.5" font-family="Times New Roman,serif" font-size="10.00">1</text>
<text text-anchor="start" x="429" y="-333.5" font-family="Times New Roman,serif" font-size="10.00">type:</text>
<text text-anchor="start" x="456" y="-333.5" font-family="Times New Roman,serif" font-size="10.00">literal</text>
</g>
<!-- &#45;attrs4&#45;&gt;http://example.org/1 -->
<g id="edge9" class="edge"><title>&#45;attrs4&#45;&gt;http://example.org/1</title>
<path fill="none" stroke="gray" stroke-dasharray="5,2" d="M448.019,-360.611C442.2,-380.603 432.636,-413.462 426.866,-433.283"/>
</g>
<!-- http://example.org/3 -->
<g id="node11" class="node"><title>http://example.org/3</title>
<g id="a_node11"><a xlink:href="http://example.org/3" xlink:title="3">
<ellipse fill="#fffc87" stroke="#808080" cx="289" cy="-451" rx="27" ry="18"/>
<text text-anchor="middle" x="289" y="-447.3" font-family="Times New Roman,serif" font-size="14.00">3</text>
</a>
</g>
</g>
<!-- &#45;attrs5 -->
<g id="node12" class="node"><title>&#45;attrs5</title>
<polygon fill="none" stroke="gray" points="317.5,-360.5 254.5,-360.5 254.5,-324.5 323.5,-324.5 323.5,-354.5 317.5,-360.5"/>
<polyline fill="none" stroke="gray" points="317.5,-360.5 317.5,-354.5 "/>
<polyline fill="none" stroke="gray" points="323.5,-354.5 317.5,-354.5 "/>
<text text-anchor="start" x="265" y="-346.5" font-family="Times New Roman,serif" font-size="10.00">value:</text>
<text text-anchor="start" x="292" y="-346.5" font-family="Times New Roman,serif" font-size="10.00">3</text>
<text text-anchor="start" x="265" y="-333.5" font-family="Times New Roman,serif" font-size="10.00">type:</text>
<text text-anchor="start" x="292" y="-333.5" font-family="Times New Roman,serif" font-size="10.00">literal</text>
</g>
<!-- &#45;attrs5&#45;&gt;http://example.org/3 -->
<g id="edge10" class="edge"><title>&#45;attrs5&#45;&gt;http://example.org/3</title>
<path fill="none" stroke="gray" stroke-dasharray="5,2" d="M289,-360.611C289,-380.485 289,-413.075 289,-432.931"/>
</g>
<!-- http://example.org/assign4 -->
<g id="node15" class="node"><title>http://example.org/assign4</title>
<g id="a_node15"><a xlink:href="http://example.org/assign4" xlink:title="assign4">
<polygon fill="#9fb1fc" stroke="#0000ff" points="400,-360.5 342,-360.5 342,-324.5 400,-324.5 400,-360.5"/>
<text text-anchor="middle" x="371" y="-338.8" font-family="Times New Roman,serif" font-size="14.00">assign4</text>
</a>
</g>
</g>
<!-- http://example.org/d@1&#45;&gt;http://example.org/assign4 -->
<g id="edge20" class="edge"><title>http://example.org/d@1&#45;&gt;http://example.org/assign4</title>
<path fill="none" stroke="darkgreen" d="M314.176,-251.175C324.969,-268.332 342.176,-295.682 354.83,-315.797"/>
<polygon fill="darkgreen" stroke="darkgreen" points="351.997,-317.866 360.284,-324.466 357.922,-314.138 351.997,-317.866"/>
<text text-anchor="middle" x="354" y="-288.8" font-family="Times New Roman,serif" font-size="14.00">gen</text>
<text text-anchor="middle" x="354" y="-273.8" font-family="Times New Roman,serif" font-size="14.00">11</text>
</g>
<!-- bn0 -->
<g id="node17" class="node"><title>bn0</title>
<ellipse fill="black" stroke="black" cx="235" cy="-342.5" rx="1.8" ry="1.8"/>
</g>
<!-- http://example.org/d@1&#45;&gt;bn0 -->
<g id="edge16" class="edge"><title>http://example.org/d@1&#45;&gt;bn0</title>
<path fill="none" stroke="darkgreen" d="M290.841,-249.982C285.709,-256.051 279.896,-263.218 275,-270 260.275,-290.398 256.627,-295.691 245,-318 240.574,-326.493 236.498,-337.384 235.332,-340.58"/>
<text text-anchor="middle" x="299.5" y="-288.8" font-family="Times New Roman,serif" font-size="14.00">der ac&#45;w</text>
<text text-anchor="middle" x="299.5" y="-273.8" font-family="Times New Roman,serif" font-size="14.00">11</text>
</g>
<!-- &#45;attrs6 -->
<g id="node14" class="node"><title>&#45;attrs6</title>
<polygon fill="none" stroke="gray" points="389.5,-135 320.5,-135 320.5,-86 395.5,-86 395.5,-129 389.5,-135"/>
<polyline fill="none" stroke="gray" points="389.5,-135 389.5,-129 "/>
<polyline fill="none" stroke="gray" points="395.5,-129 389.5,-129 "/>
<text text-anchor="start" x="331" y="-120.5" font-family="Times New Roman,serif" font-size="10.00">value:</text>
<text text-anchor="start" x="358" y="-120.5" font-family="Times New Roman,serif" font-size="10.00">3</text>
<text text-anchor="start" x="331" y="-107.5" font-family="Times New Roman,serif" font-size="10.00">type:</text>
<text text-anchor="start" x="358" y="-107.5" font-family="Times New Roman,serif" font-size="10.00">access</text>
<text text-anchor="start" x="331" y="-94.5" font-family="Times New Roman,serif" font-size="10.00">label:</text>
<text text-anchor="start" x="358" y="-94.5" font-family="Times New Roman,serif" font-size="10.00">d[1]</text>
</g>
<!-- &#45;attrs6&#45;&gt;http://example.org/d@1 -->
<g id="edge11" class="edge"><title>&#45;attrs6&#45;&gt;http://example.org/d@1</title>
<path fill="none" stroke="gray" stroke-dasharray="5,2" d="M350.26,-135.099C344.167,-152.76 335.048,-177.328 325,-198 321.902,-204.373 318.02,-211.108 314.439,-216.949"/>
</g>
<!-- http://example.org/assign4&#45;&gt;http://example.org/d -->
<g id="edge14" class="edge"><title>http://example.org/assign4&#45;&gt;http://example.org/d</title>
<path fill="none" stroke="darkgreen" d="M345.659,-360.563C341.241,-363.009 336.588,-365.277 332,-367 289.316,-383.034 271.085,-363.27 231,-385 213.086,-394.711 197.462,-411.628 186.512,-425.77"/>
<polygon fill="darkgreen" stroke="darkgreen" points="183.461,-424.008 180.319,-434.127 189.085,-428.176 183.461,-424.008"/>
<text text-anchor="middle" x="240.5" y="-403.8" font-family="Times New Roman,serif" font-size="14.00">use</text>
<text text-anchor="middle" x="240.5" y="-388.8" font-family="Times New Roman,serif" font-size="14.00">10</text>
</g>
<!-- http://example.org/assign4&#45;&gt;http://example.org/1 -->
<g id="edge15" class="edge"><title>http://example.org/assign4&#45;&gt;http://example.org/1</title>
<path fill="none" stroke="black" d="M379.194,-360.611C387.47,-377.892 400.35,-404.789 409.821,-424.567"/>
<polygon fill="black" stroke="black" points="406.685,-426.123 414.161,-433.631 412.999,-423.1 406.685,-426.123"/>
<text text-anchor="middle" x="394.15" y="-359.865" font-family="Times New Roman,serif" font-size="8.00">use</text>
</g>
<!-- http://example.org/assign4&#45;&gt;http://example.org/3 -->
<g id="edge19" class="edge"><title>http://example.org/assign4&#45;&gt;http://example.org/3</title>
<path fill="none" stroke="darkgreen" d="M357.825,-360.611C344.04,-378.515 322.308,-406.74 306.958,-426.677"/>
<polygon fill="darkgreen" stroke="darkgreen" points="304.139,-424.601 300.811,-434.66 309.685,-428.871 304.139,-424.601"/>
<text text-anchor="middle" x="347.5" y="-403.8" font-family="Times New Roman,serif" font-size="14.00">use</text>
<text text-anchor="middle" x="347.5" y="-388.8" font-family="Times New Roman,serif" font-size="14.00">11</text>
</g>
<!-- &#45;attrs7 -->
<g id="node16" class="node"><title>&#45;attrs7</title>
<polygon fill="none" stroke="gray" points="415,-252 351,-252 351,-216 421,-216 421,-246 415,-252"/>
<polyline fill="none" stroke="gray" points="415,-252 415,-246 "/>
<polyline fill="none" stroke="gray" points="421,-246 415,-246 "/>
<text text-anchor="start" x="361" y="-231" font-family="Times New Roman,serif" font-size="10.00">type:</text>
<text text-anchor="start" x="384" y="-231" font-family="Times New Roman,serif" font-size="10.00">assign</text>
</g>
<!-- &#45;attrs7&#45;&gt;http://example.org/assign4 -->
<g id="edge13" class="edge"><title>&#45;attrs7&#45;&gt;http://example.org/assign4</title>
<path fill="none" stroke="gray" stroke-dasharray="5,2" d="M383.59,-252.111C380.791,-271.985 376.201,-304.575 373.404,-324.431"/>
</g>
<!-- bn0&#45;&gt;http://example.org/d -->
<g id="edge17" class="edge"><title>bn0&#45;&gt;http://example.org/d</title>
<path fill="none" stroke="darkgreen" stroke-dasharray="5,2" d="M233.919,-344.418C229.035,-348.614 208.763,-366.548 197,-385 189.405,-396.914 183.163,-411.325 178.601,-423.548"/>
<polygon fill="darkgreen" stroke="darkgreen" points="175.222,-422.603 175.171,-433.198 181.818,-424.947 175.222,-422.603"/>
</g>
<!-- bn0&#45;&gt;http://example.org/3 -->
<g id="edge18" class="edge"><title>bn0&#45;&gt;http://example.org/3</title>
<path fill="none" stroke="darkgreen" d="M235.362,-344.405C236.625,-347.553 240.982,-358.307 245,-367 255.008,-388.65 257.746,-393.971 269,-415 270.789,-418.344 272.717,-421.84 274.645,-425.274"/>
<polygon fill="darkgreen" stroke="darkgreen" points="271.664,-427.113 279.652,-434.074 277.749,-423.652 271.664,-427.113"/>
<text text-anchor="middle" x="277" y="-396.3" font-family="Times New Roman,serif" font-size="14.00">[1]</text>
</g>
</g>
</svg>
