<?xml version="1.0" encoding="UTF-8" standalone="no"?>
<!DOCTYPE svg PUBLIC "-//W3C//DTD SVG 1.1//EN"
 "http://www.w3.org/Graphics/SVG/1.1/DTD/svg11.dtd">
<!-- Generated by graphviz version 2.38.0 (20140413.2041)
 -->
<!-- Title: PROV Pages: 1 -->
<svg width="1152pt" height="201pt"
 viewBox="0.00 0.00 1152.00 201.09" xmlns="http://www.w3.org/2000/svg" xmlns:xlink="http://www.w3.org/1999/xlink">
<g id="graph0" class="graph" transform="scale(0.362645 0.362645) rotate(0) translate(4 550.5)">
<title>PROV</title>
<polygon fill="white" stroke="none" points="-4,4 -4,-550.5 3172.66,-550.5 3172.66,4 -4,4"/>
<!-- http://example.org/dist -->
<g id="node1" class="node"><title>http://example.org/dist</title>
<g id="a_node1"><a xlink:href="http://example.org/dist" xlink:title="dist">
<ellipse fill="#fffc87" stroke="#808080" cx="37.6967" cy="-342" rx="27" ry="18"/>
<text text-anchor="middle" x="37.6967" y="-338.3" font-family="Times New Roman,serif" font-size="14.00">dist</text>
</a>
</g>
</g>
<!-- &#45;attrs0 -->
<g id="node2" class="node"><title>&#45;attrs0</title>
<polygon fill="none" stroke="gray" points="305.393,-396.5 127.393,-396.5 127.393,-347.5 311.393,-347.5 311.393,-390.5 305.393,-396.5"/>
<polyline fill="none" stroke="gray" points="305.393,-396.5 305.393,-390.5 "/>
<polyline fill="none" stroke="gray" points="311.393,-390.5 305.393,-390.5 "/>
<text text-anchor="start" x="137.393" y="-382" font-family="Times New Roman,serif" font-size="10.00">value:</text>
<text text-anchor="start" x="164.393" y="-382" font-family="Times New Roman,serif" font-size="10.00">[[0, 1, 4], [10000, 0, 2], [2, 10000, 0]]</text>
<text text-anchor="start" x="137.393" y="-369" font-family="Times New Roman,serif" font-size="10.00">type:</text>
<text text-anchor="start" x="164.393" y="-369" font-family="Times New Roman,serif" font-size="10.00">name</text>
<text text-anchor="start" x="137.393" y="-356" font-family="Times New Roman,serif" font-size="10.00">label:</text>
<text text-anchor="start" x="164.393" y="-356" font-family="Times New Roman,serif" font-size="10.00">dist</text>
</g>
<!-- &#45;attrs0&#45;&gt;http://example.org/dist -->
<g id="edge1" class="edge"><title>&#45;attrs0&#45;&gt;http://example.org/dist</title>
<path fill="none" stroke="gray" stroke-dasharray="5,2" d="M127.214,-357.652C115.82,-355.788 104.332,-353.875 93.3933,-352 83.7836,-350.353 73.2427,-348.449 64.0012,-346.747"/>
</g>
<!-- http://example.org/ikj#3 -->
<g id="node3" class="node"><title>http://example.org/ikj#3</title>
<g id="a_node3"><a xlink:href="http://example.org/ikj#3" xlink:title="ikj#3">
<ellipse fill="#fffc87" stroke="#808080" cx="1983.48" cy="-231" rx="28.6953" ry="18"/>
<text text-anchor="middle" x="1983.48" y="-227.3" font-family="Times New Roman,serif" font-size="14.00">ikj#3</text>
</a>
</g>
</g>
<!-- http://example.org/sum#3 -->
<g id="node4" class="node"><title>http://example.org/sum#3</title>
<g id="a_node4"><a xlink:href="http://example.org/sum#3" xlink:title="sum#3">
<ellipse fill="#fffc87" stroke="#808080" cx="1643.98" cy="-292" rx="35.194" ry="18"/>
<text text-anchor="middle" x="1643.98" y="-288.3" font-family="Times New Roman,serif" font-size="14.00">sum#3</text>
</a>
</g>
</g>
<!-- http://example.org/ikj#3&#45;&gt;http://example.org/sum#3 -->
<g id="edge2" class="edge"><title>http://example.org/ikj#3&#45;&gt;http://example.org/sum#3</title>
<path fill="none" stroke="darkgreen" d="M1954.68,-229.506C1902.95,-227.619 1789,-227.691 1699.48,-258 1690.17,-261.152 1680.81,-266.162 1672.54,-271.379"/>
<polygon fill="darkgreen" stroke="darkgreen" points="1670.43,-268.582 1664.05,-277.042 1674.31,-274.406 1670.43,-268.582"/>
<text text-anchor="middle" x="1780.98" y="-276.8" font-family="Times New Roman,serif" font-size="14.00">der ref</text>
<text text-anchor="middle" x="1780.98" y="-261.8" font-family="Times New Roman,serif" font-size="14.00">2018&#45;03&#45;19T12:16:43.078424</text>
</g>
<!-- http://example.org/disti\[k\]#3 -->
<g id="node13" class="node"><title>http://example.org/disti\[k\]#3</title>
<g id="a_node13"><a xlink:href="http://example.org/disti\[k\]#3" xlink:title="disti\[k\]#3">
<ellipse fill="#fffc87" stroke="#808080" cx="1361.98" cy="-248" rx="45.4919" ry="18"/>
<text text-anchor="middle" x="1361.98" y="-244.3" font-family="Times New Roman,serif" font-size="14.00">disti[k]#3</text>
</a>
</g>
</g>
<!-- http://example.org/sum#3&#45;&gt;http://example.org/disti\[k\]#3 -->
<g id="edge32" class="edge"><title>http://example.org/sum#3&#45;&gt;http://example.org/disti\[k\]#3</title>
<path fill="none" stroke="darkgreen" d="M1610.31,-286.867C1562.14,-279.296 1471.59,-265.067 1414.43,-256.085"/>
<polygon fill="darkgreen" stroke="darkgreen" points="1414.94,-252.622 1404.51,-254.527 1413.85,-259.537 1414.94,-252.622"/>
<text text-anchor="middle" x="1506.98" y="-301.8" font-family="Times New Roman,serif" font-size="14.00">der</text>
<text text-anchor="middle" x="1506.98" y="-286.8" font-family="Times New Roman,serif" font-size="14.00">2018&#45;03&#45;19T12:16:43.077420</text>
</g>
<!-- http://example.org/distk\[j\]#3 -->
<g id="node21" class="node"><title>http://example.org/distk\[j\]#3</title>
<g id="a_node21"><a xlink:href="http://example.org/distk\[j\]#3" xlink:title="distk\[j\]#3">
<ellipse fill="#fffc87" stroke="#808080" cx="1361.98" cy="-430" rx="45.4919" ry="18"/>
<text text-anchor="middle" x="1361.98" y="-426.3" font-family="Times New Roman,serif" font-size="14.00">distk[j]#3</text>
</a>
</g>
</g>
<!-- http://example.org/sum#3&#45;&gt;http://example.org/distk\[j\]#3 -->
<g id="edge38" class="edge"><title>http://example.org/sum#3&#45;&gt;http://example.org/distk\[j\]#3</title>
<path fill="none" stroke="darkgreen" d="M1617.32,-303.741C1576.42,-322.572 1494.07,-360.975 1425.48,-396 1416.5,-400.586 1406.89,-405.705 1397.97,-410.55"/>
<polygon fill="darkgreen" stroke="darkgreen" points="1396.07,-407.6 1388.97,-415.467 1399.42,-413.742 1396.07,-407.6"/>
<text text-anchor="middle" x="1506.98" y="-414.8" font-family="Times New Roman,serif" font-size="14.00">der</text>
<text text-anchor="middle" x="1506.98" y="-399.8" font-family="Times New Roman,serif" font-size="14.00">2018&#45;03&#45;19T12:16:43.077420</text>
</g>
<!-- http://example.org/result\[0\] -->
<g id="node5" class="node"><title>http://example.org/result\[0\]</title>
<g id="a_node5"><a xlink:href="http://example.org/result\[0\]" xlink:title="result\[0\]">
<ellipse fill="#fffc87" stroke="#808080" cx="2564.37" cy="-171" rx="40.0939" ry="18"/>
<text text-anchor="middle" x="2564.37" y="-167.3" font-family="Times New Roman,serif" font-size="14.00">result[0]</text>
</a>
</g>
</g>
<!-- bn1 -->
<g id="node15" class="node"><title>bn1</title>
<ellipse fill="black" stroke="black" cx="2230.48" cy="-146" rx="1.8" ry="1.8"/>
</g>
<!-- http://example.org/result\[0\]&#45;&gt;bn1 -->
<g id="edge11" class="edge"><title>http://example.org/result\[0\]&#45;&gt;bn1</title>
<path fill="none" stroke="darkgreen" d="M2524.33,-168.059C2440.02,-161.708 2247.32,-147.194 2232.4,-146.069"/>
<text text-anchor="middle" x="2421.98" y="-185.8" font-family="Times New Roman,serif" font-size="14.00">der ac&#45;r</text>
<text text-anchor="middle" x="2421.98" y="-170.8" font-family="Times New Roman,serif" font-size="14.00">2018&#45;03&#45;19T12:16:46.641341</text>
</g>
<!-- &#45;attrs1 -->
<g id="node6" class="node"><title>&#45;attrs1</title>
<polygon fill="none" stroke="gray" points="2734.27,-195.5 2659.27,-195.5 2659.27,-146.5 2740.27,-146.5 2740.27,-189.5 2734.27,-195.5"/>
<polyline fill="none" stroke="gray" points="2734.27,-195.5 2734.27,-189.5 "/>
<polyline fill="none" stroke="gray" points="2740.27,-189.5 2734.27,-189.5 "/>
<text text-anchor="start" x="2669.77" y="-181" font-family="Times New Roman,serif" font-size="10.00">value:</text>
<text text-anchor="start" x="2696.77" y="-181" font-family="Times New Roman,serif" font-size="10.00">[0, 1, 3]</text>
<text text-anchor="start" x="2669.77" y="-168" font-family="Times New Roman,serif" font-size="10.00">type:</text>
<text text-anchor="start" x="2696.77" y="-168" font-family="Times New Roman,serif" font-size="10.00">access</text>
<text text-anchor="start" x="2669.77" y="-155" font-family="Times New Roman,serif" font-size="10.00">label:</text>
<text text-anchor="start" x="2696.77" y="-155" font-family="Times New Roman,serif" font-size="10.00">result[0]</text>
</g>
<!-- &#45;attrs1&#45;&gt;http://example.org/result\[0\] -->
<g id="edge3" class="edge"><title>&#45;attrs1&#45;&gt;http://example.org/result\[0\]</title>
<path fill="none" stroke="gray" stroke-dasharray="5,2" d="M2659.11,-171C2642.06,-171 2622.17,-171 2605.11,-171"/>
</g>
<!-- http://example.org/distk#2 -->
<g id="node7" class="node"><title>http://example.org/distk#2</title>
<g id="a_node7"><a xlink:href="http://example.org/distk#2" xlink:title="distk#2">
<ellipse fill="#fffc87" stroke="#808080" cx="843.486" cy="-461" rx="37.8943" ry="18"/>
<text text-anchor="middle" x="843.486" y="-457.3" font-family="Times New Roman,serif" font-size="14.00">distk#2</text>
</a>
</g>
</g>
<!-- http://example.org/dist\[k\]#2 -->
<g id="node8" class="node"><title>http://example.org/dist\[k\]#2</title>
<g id="a_node8"><a xlink:href="http://example.org/dist\[k\]#2" xlink:title="dist\[k\]#2">
<ellipse fill="#fffc87" stroke="#808080" cx="553.939" cy="-461" rx="43.5923" ry="18"/>
<text text-anchor="middle" x="553.939" y="-457.3" font-family="Times New Roman,serif" font-size="14.00">dist[k]#2</text>
</a>
</g>
</g>
<!-- http://example.org/distk#2&#45;&gt;http://example.org/dist\[k\]#2 -->
<g id="edge4" class="edge"><title>http://example.org/distk#2&#45;&gt;http://example.org/dist\[k\]#2</title>
<path fill="none" stroke="darkgreen" d="M805.776,-461C755.604,-461 665.304,-461 607.835,-461"/>
<polygon fill="darkgreen" stroke="darkgreen" points="607.503,-457.5 597.503,-461 607.503,-464.5 607.503,-457.5"/>
<text text-anchor="middle" x="696.986" y="-479.8" font-family="Times New Roman,serif" font-size="14.00">der ref</text>
<text text-anchor="middle" x="696.986" y="-464.8" font-family="Times New Roman,serif" font-size="14.00">2018&#45;03&#45;19T12:16:42.318403</text>
</g>
<!-- bn0 -->
<g id="node11" class="node"><title>bn0</title>
<ellipse fill="black" stroke="black" cx="219.393" cy="-328" rx="1.8" ry="1.8"/>
</g>
<!-- http://example.org/dist\[k\]#2&#45;&gt;bn0 -->
<g id="edge7" class="edge"><title>http://example.org/dist\[k\]#2&#45;&gt;bn0</title>
<path fill="none" stroke="darkgreen" d="M530.136,-445.791C488.622,-418.947 397.066,-363.587 311.393,-338 275.453,-327.266 228.441,-327.824 221.315,-327.977"/>
<text text-anchor="middle" x="410.893" y="-440.8" font-family="Times New Roman,serif" font-size="14.00">der ac&#45;r</text>
<text text-anchor="middle" x="410.893" y="-425.8" font-family="Times New Roman,serif" font-size="14.00">2018&#45;03&#45;19T12:16:42.317402</text>
</g>
<!-- &#45;attrs2 -->
<g id="node9" class="node"><title>&#45;attrs2</title>
<polygon fill="none" stroke="gray" points="2258.98,-254.5 2195.98,-254.5 2195.98,-205.5 2264.98,-205.5 2264.98,-248.5 2258.98,-254.5"/>
<polyline fill="none" stroke="gray" points="2258.98,-254.5 2258.98,-248.5 "/>
<polyline fill="none" stroke="gray" points="2264.98,-248.5 2258.98,-248.5 "/>
<text text-anchor="start" x="2206.48" y="-240" font-family="Times New Roman,serif" font-size="10.00">value:</text>
<text text-anchor="start" x="2233.48" y="-240" font-family="Times New Roman,serif" font-size="10.00">3</text>
<text text-anchor="start" x="2206.48" y="-227" font-family="Times New Roman,serif" font-size="10.00">type:</text>
<text text-anchor="start" x="2233.48" y="-227" font-family="Times New Roman,serif" font-size="10.00">name</text>
<text text-anchor="start" x="2206.48" y="-214" font-family="Times New Roman,serif" font-size="10.00">label:</text>
<text text-anchor="start" x="2233.48" y="-214" font-family="Times New Roman,serif" font-size="10.00">ikj</text>
</g>
<!-- &#45;attrs2&#45;&gt;http://example.org/ikj#3 -->
<g id="edge5" class="edge"><title>&#45;attrs2&#45;&gt;http://example.org/ikj#3</title>
<path fill="none" stroke="gray" stroke-dasharray="5,2" d="M2195.93,-230.137C2147.17,-230.336 2057.64,-230.701 2012.32,-230.886"/>
</g>
<!-- &#45;attrs3 -->
<g id="node10" class="node"><title>&#45;attrs3</title>
<polygon fill="none" stroke="gray" points="884.486,-546.5 796.486,-546.5 796.486,-497.5 890.486,-497.5 890.486,-540.5 884.486,-546.5"/>
<polyline fill="none" stroke="gray" points="884.486,-546.5 884.486,-540.5 "/>
<polyline fill="none" stroke="gray" points="890.486,-540.5 884.486,-540.5 "/>
<text text-anchor="start" x="806.486" y="-532" font-family="Times New Roman,serif" font-size="10.00">value:</text>
<text text-anchor="start" x="833.486" y="-532" font-family="Times New Roman,serif" font-size="10.00">[10000, 0, 2]</text>
<text text-anchor="start" x="806.486" y="-519" font-family="Times New Roman,serif" font-size="10.00">type:</text>
<text text-anchor="start" x="833.486" y="-519" font-family="Times New Roman,serif" font-size="10.00">access</text>
<text text-anchor="start" x="806.486" y="-506" font-family="Times New Roman,serif" font-size="10.00">label:</text>
<text text-anchor="start" x="833.486" y="-506" font-family="Times New Roman,serif" font-size="10.00">dist[k]</text>
</g>
<!-- &#45;attrs3&#45;&gt;http://example.org/dist\[k\]#2 -->
<g id="edge6" class="edge"><title>&#45;attrs3&#45;&gt;http://example.org/dist\[k\]#2</title>
<path fill="none" stroke="gray" stroke-dasharray="5,2" d="M796.132,-521.757C749.439,-520.303 675.861,-514.675 615.486,-495 602.075,-490.63 588.276,-483.152 577.244,-476.321"/>
</g>
<!-- bn0&#45;&gt;http://example.org/dist -->
<g id="edge8" class="edge"><title>bn0&#45;&gt;http://example.org/dist</title>
<path fill="none" stroke="darkgreen" stroke-dasharray="5,2" d="M217.592,-328.062C208.515,-328.77 124.442,-335.32 74.8465,-339.184"/>
<polygon fill="darkgreen" stroke="darkgreen" points="74.524,-335.698 64.8261,-339.964 75.0678,-342.677 74.524,-335.698"/>
</g>
<!-- http://example.org/matrix1 -->
<g id="node12" class="node"><title>http://example.org/matrix1</title>
<g id="a_node12"><a xlink:href="http://example.org/matrix1" xlink:title="matrix1">
<ellipse fill="#fffc87" stroke="#808080" cx="37.6967" cy="-252" rx="37.8943" ry="18"/>
<text text-anchor="middle" x="37.6967" y="-248.3" font-family="Times New Roman,serif" font-size="14.00">matrix1</text>
</a>
</g>
</g>
<!-- bn0&#45;&gt;http://example.org/matrix1 -->
<g id="edge9" class="edge"><title>bn0&#45;&gt;http://example.org/matrix1</title>
<path fill="none" stroke="darkgreen" d="M217.476,-327.758C210.384,-325.876 163.577,-313.232 127.393,-298 108.549,-290.067 88.255,-279.688 71.8408,-270.797"/>
<polygon fill="darkgreen" stroke="darkgreen" points="73.1158,-267.504 62.6649,-265.763 69.7491,-273.641 73.1158,-267.504"/>
<text text-anchor="middle" x="101.393" y="-293.8" font-family="Times New Roman,serif" font-size="14.00">[1]</text>
</g>
<!-- bn3 -->
<g id="node24" class="node"><title>bn3</title>
<ellipse fill="black" stroke="black" cx="1029.99" cy="-248" rx="1.8" ry="1.8"/>
</g>
<!-- http://example.org/disti\[k\]#3&#45;&gt;bn3 -->
<g id="edge19" class="edge"><title>http://example.org/disti\[k\]#3&#45;&gt;bn3</title>
<path fill="none" stroke="darkgreen" d="M1316.48,-248C1229.92,-248 1046.09,-248 1031.86,-248"/>
<text text-anchor="middle" x="1216.99" y="-266.8" font-family="Times New Roman,serif" font-size="14.00">der ac&#45;r</text>
<text text-anchor="middle" x="1216.99" y="-251.8" font-family="Times New Roman,serif" font-size="14.00">2018&#45;03&#45;19T12:16:43.075416</text>
</g>
<!-- &#45;attrs4 -->
<g id="node14" class="node"><title>&#45;attrs4</title>
<polygon fill="none" stroke="gray" points="1675.48,-255.5 1606.48,-255.5 1606.48,-206.5 1681.48,-206.5 1681.48,-249.5 1675.48,-255.5"/>
<polyline fill="none" stroke="gray" points="1675.48,-255.5 1675.48,-249.5 "/>
<polyline fill="none" stroke="gray" points="1681.48,-249.5 1675.48,-249.5 "/>
<text text-anchor="start" x="1616.98" y="-241" font-family="Times New Roman,serif" font-size="10.00">value:</text>
<text text-anchor="start" x="1643.98" y="-241" font-family="Times New Roman,serif" font-size="10.00">1</text>
<text text-anchor="start" x="1616.98" y="-228" font-family="Times New Roman,serif" font-size="10.00">type:</text>
<text text-anchor="start" x="1643.98" y="-228" font-family="Times New Roman,serif" font-size="10.00">access</text>
<text text-anchor="start" x="1616.98" y="-215" font-family="Times New Roman,serif" font-size="10.00">label:</text>
<text text-anchor="start" x="1643.98" y="-215" font-family="Times New Roman,serif" font-size="10.00">disti[k]</text>
</g>
<!-- &#45;attrs4&#45;&gt;http://example.org/disti\[k\]#3 -->
<g id="edge10" class="edge"><title>&#45;attrs4&#45;&gt;http://example.org/disti\[k\]#3</title>
<path fill="none" stroke="gray" stroke-dasharray="5,2" d="M1606.37,-233.222C1555.23,-236.327 1462.5,-241.958 1407.45,-245.3"/>
</g>
<!-- http://example.org/result -->
<g id="node16" class="node"><title>http://example.org/result</title>
<g id="a_node16"><a xlink:href="http://example.org/result" xlink:title="result">
<ellipse fill="#fffc87" stroke="#808080" cx="1983.48" cy="-98" rx="30.5947" ry="18"/>
<text text-anchor="middle" x="1983.48" y="-94.3" font-family="Times New Roman,serif" font-size="14.00">result</text>
</a>
</g>
</g>
<!-- bn1&#45;&gt;http://example.org/result -->
<g id="edge12" class="edge"><title>bn1&#45;&gt;http://example.org/result</title>
<path fill="none" stroke="darkgreen" stroke-dasharray="5,2" d="M2228.58,-145.837C2221.63,-144.576 2175.71,-136.225 2138.48,-129 2098.91,-121.322 2053.7,-112.177 2022.55,-105.818"/>
<polygon fill="darkgreen" stroke="darkgreen" points="2023.05,-102.348 2012.56,-103.775 2021.65,-109.207 2023.05,-102.348"/>
</g>
<!-- http://example.org/matrix0 -->
<g id="node17" class="node"><title>http://example.org/matrix0</title>
<g id="a_node17"><a xlink:href="http://example.org/matrix0" xlink:title="matrix0">
<ellipse fill="#fffc87" stroke="#808080" cx="37.6967" cy="-146" rx="37.8943" ry="18"/>
<text text-anchor="middle" x="37.6967" y="-142.3" font-family="Times New Roman,serif" font-size="14.00">matrix0</text>
</a>
</g>
</g>
<!-- bn1&#45;&gt;http://example.org/matrix0 -->
<g id="edge13" class="edge"><title>bn1&#45;&gt;http://example.org/matrix0</title>
<path fill="none" stroke="darkgreen" d="M2228.6,-146C2216.78,-146 2088.26,-146 1984.48,-146 1984.48,-146 1984.48,-146 218.393,-146 173.388,-146 122.043,-146 85.7939,-146"/>
<polygon fill="darkgreen" stroke="darkgreen" points="85.5213,-142.5 75.5212,-146 85.5212,-149.5 85.5213,-142.5"/>
<text text-anchor="middle" x="1029.99" y="-149.8" font-family="Times New Roman,serif" font-size="14.00">[0]</text>
</g>
<!-- http://example.org/matrix -->
<g id="node31" class="node"><title>http://example.org/matrix</title>
<g id="a_node31"><a xlink:href="http://example.org/matrix" xlink:title="matrix">
<ellipse fill="#fffc87" stroke="#808080" cx="1643.98" cy="-56" rx="33.2948" ry="18"/>
<text text-anchor="middle" x="1643.98" y="-52.3" font-family="Times New Roman,serif" font-size="14.00">matrix</text>
</a>
</g>
</g>
<!-- http://example.org/result&#45;&gt;http://example.org/matrix -->
<g id="edge44" class="edge"><title>http://example.org/result&#45;&gt;http://example.org/matrix</title>
<path fill="none" stroke="darkgreen" d="M1953.41,-94.3828C1893.49,-86.9258 1756.04,-69.8212 1686.66,-61.1874"/>
<polygon fill="darkgreen" stroke="darkgreen" points="1686.89,-57.689 1676.54,-59.9272 1686.03,-64.6354 1686.89,-57.689"/>
<text text-anchor="middle" x="1780.98" y="-100.8" font-family="Times New Roman,serif" font-size="14.00">der ref</text>
<text text-anchor="middle" x="1780.98" y="-85.8" font-family="Times New Roman,serif" font-size="14.00">2018&#45;03&#45;19T12:16:39.190092</text>
</g>
<!-- http://example.org/2 -->
<g id="node18" class="node"><title>http://example.org/2</title>
<g id="a_node18"><a xlink:href="http://example.org/2" xlink:title="2">
<ellipse fill="#fffc87" stroke="#808080" cx="843.486" cy="-402" rx="27" ry="18"/>
<text text-anchor="middle" x="843.486" y="-398.3" font-family="Times New Roman,serif" font-size="14.00">2</text>
</a>
</g>
</g>
<!-- &#45;attrs5 -->
<g id="node19" class="node"><title>&#45;attrs5</title>
<polygon fill="none" stroke="gray" points="1111.49,-422.5 942.486,-422.5 942.486,-373.5 1117.49,-373.5 1117.49,-416.5 1111.49,-422.5"/>
<polyline fill="none" stroke="gray" points="1111.49,-422.5 1111.49,-416.5 "/>
<polyline fill="none" stroke="gray" points="1117.49,-416.5 1111.49,-416.5 "/>
<text text-anchor="start" x="952.986" y="-408" font-family="Times New Roman,serif" font-size="10.00">value:</text>
<text text-anchor="start" x="1001.99" y="-408" font-family="Times New Roman,serif" font-size="10.00">2</text>
<text text-anchor="start" x="952.986" y="-395" font-family="Times New Roman,serif" font-size="10.00">type:</text>
<text text-anchor="start" x="1001.99" y="-395" font-family="Times New Roman,serif" font-size="10.00">literal</text>
<text text-anchor="start" x="952.986" y="-382" font-family="Times New Roman,serif" font-size="10.00">checkpoint:</text>
<text text-anchor="start" x="1001.99" y="-382" font-family="Times New Roman,serif" font-size="10.00">2018&#45;03&#45;19 12:16:38.689757</text>
</g>
<!-- &#45;attrs5&#45;&gt;http://example.org/2 -->
<g id="edge14" class="edge"><title>&#45;attrs5&#45;&gt;http://example.org/2</title>
<path fill="none" stroke="gray" stroke-dasharray="5,2" d="M942.408,-399.877C916.38,-400.441 889.748,-401.019 870.841,-401.429"/>
</g>
<!-- bn2 -->
<g id="node20" class="node"><title>bn2</title>
<ellipse fill="black" stroke="black" cx="1029.99" cy="-442" rx="1.8" ry="1.8"/>
</g>
<!-- bn2&#45;&gt;http://example.org/distk#2 -->
<g id="edge16" class="edge"><title>bn2&#45;&gt;http://example.org/distk#2</title>
<path fill="none" stroke="darkgreen" stroke-dasharray="5,2" d="M1028.16,-442.085C1019.38,-442.989 942.265,-450.931 890.786,-456.232"/>
<polygon fill="darkgreen" stroke="darkgreen" points="890.13,-452.781 880.542,-457.287 890.848,-459.744 890.13,-452.781"/>
</g>
<!-- bn2&#45;&gt;http://example.org/2 -->
<g id="edge17" class="edge"><title>bn2&#45;&gt;http://example.org/2</title>
<path fill="none" stroke="darkgreen" d="M1028.12,-441.944C1021.46,-441.496 977.449,-438.346 942.486,-431 920.555,-426.392 896.41,-419.272 877.573,-413.24"/>
<polygon fill="darkgreen" stroke="darkgreen" points="878.568,-409.883 867.976,-410.115 876.4,-416.539 878.568,-409.883"/>
<text text-anchor="middle" x="916.486" y="-430.8" font-family="Times New Roman,serif" font-size="14.00">[2]</text>
</g>
<!-- http://example.org/distk\[j\]#3&#45;&gt;bn2 -->
<g id="edge15" class="edge"><title>http://example.org/distk\[j\]#3&#45;&gt;bn2</title>
<path fill="none" stroke="darkgreen" d="M1316.48,-431.618C1229.92,-434.766 1046.09,-441.451 1031.86,-441.968"/>
<text text-anchor="middle" x="1216.99" y="-457.8" font-family="Times New Roman,serif" font-size="14.00">der ac&#45;r</text>
<text text-anchor="middle" x="1216.99" y="-442.8" font-family="Times New Roman,serif" font-size="14.00">2018&#45;03&#45;19T12:16:43.076419</text>
</g>
<!-- http://example.org/disti#3 -->
<g id="node22" class="node"><title>http://example.org/disti#3</title>
<g id="a_node22"><a xlink:href="http://example.org/disti#3" xlink:title="disti#3">
<ellipse fill="#fffc87" stroke="#808080" cx="843.486" cy="-326" rx="35.194" ry="18"/>
<text text-anchor="middle" x="843.486" y="-322.3" font-family="Times New Roman,serif" font-size="14.00">disti#3</text>
</a>
</g>
</g>
<!-- http://example.org/dist\[i\]#3 -->
<g id="node26" class="node"><title>http://example.org/dist\[i\]#3</title>
<g id="a_node26"><a xlink:href="http://example.org/dist\[i\]#3" xlink:title="dist\[i\]#3">
<ellipse fill="#fffc87" stroke="#808080" cx="553.939" cy="-287" rx="40.8928" ry="18"/>
<text text-anchor="middle" x="553.939" y="-283.3" font-family="Times New Roman,serif" font-size="14.00">dist[i]#3</text>
</a>
</g>
</g>
<!-- http://example.org/disti#3&#45;&gt;http://example.org/dist\[i\]#3 -->
<g id="edge23" class="edge"><title>http://example.org/disti#3&#45;&gt;http://example.org/dist\[i\]#3</title>
<path fill="none" stroke="darkgreen" d="M809.219,-321.488C758.595,-314.622 661.942,-301.513 603.476,-293.583"/>
<polygon fill="darkgreen" stroke="darkgreen" points="603.756,-290.089 593.376,-292.213 602.815,-297.025 603.756,-290.089"/>
<text text-anchor="middle" x="696.986" y="-335.8" font-family="Times New Roman,serif" font-size="14.00">der ref</text>
<text text-anchor="middle" x="696.986" y="-320.8" font-family="Times New Roman,serif" font-size="14.00">2018&#45;03&#45;19T12:16:42.563053</text>
</g>
<!-- &#45;attrs6 -->
<g id="node23" class="node"><title>&#45;attrs6</title>
<polygon fill="none" stroke="gray" points="1061.99,-316.5 991.986,-316.5 991.986,-267.5 1067.99,-267.5 1067.99,-310.5 1061.99,-316.5"/>
<polyline fill="none" stroke="gray" points="1061.99,-316.5 1061.99,-310.5 "/>
<polyline fill="none" stroke="gray" points="1067.99,-310.5 1061.99,-310.5 "/>
<text text-anchor="start" x="1001.99" y="-302" font-family="Times New Roman,serif" font-size="10.00">value:</text>
<text text-anchor="start" x="1028.99" y="-302" font-family="Times New Roman,serif" font-size="10.00">[0, 1, 4]</text>
<text text-anchor="start" x="1001.99" y="-289" font-family="Times New Roman,serif" font-size="10.00">type:</text>
<text text-anchor="start" x="1028.99" y="-289" font-family="Times New Roman,serif" font-size="10.00">name</text>
<text text-anchor="start" x="1001.99" y="-276" font-family="Times New Roman,serif" font-size="10.00">label:</text>
<text text-anchor="start" x="1028.99" y="-276" font-family="Times New Roman,serif" font-size="10.00">disti</text>
</g>
<!-- &#45;attrs6&#45;&gt;http://example.org/disti#3 -->
<g id="edge18" class="edge"><title>&#45;attrs6&#45;&gt;http://example.org/disti#3</title>
<path fill="none" stroke="gray" stroke-dasharray="5,2" d="M991.649,-298.88C957.955,-305.09 908.892,-314.131 876.834,-320.039"/>
</g>
<!-- bn3&#45;&gt;http://example.org/disti#3 -->
<g id="edge20" class="edge"><title>bn3&#45;&gt;http://example.org/disti#3</title>
<path fill="none" stroke="darkgreen" stroke-dasharray="5,2" d="M1028.09,-247.928C1021.16,-247.406 975.546,-244.588 942.486,-258 915.467,-268.961 914.53,-281.506 890.486,-298 885.956,-301.107 881.083,-304.263 876.262,-307.281"/>
<polygon fill="darkgreen" stroke="darkgreen" points="874.415,-304.308 867.728,-312.525 878.08,-310.272 874.415,-304.308"/>
</g>
<!-- http://example.org/1 -->
<g id="node25" class="node"><title>http://example.org/1</title>
<g id="a_node25"><a xlink:href="http://example.org/1" xlink:title="1">
<ellipse fill="#fffc87" stroke="#808080" cx="843.486" cy="-204" rx="27" ry="18"/>
<text text-anchor="middle" x="843.486" y="-200.3" font-family="Times New Roman,serif" font-size="14.00">1</text>
</a>
</g>
</g>
<!-- bn3&#45;&gt;http://example.org/1 -->
<g id="edge21" class="edge"><title>bn3&#45;&gt;http://example.org/1</title>
<path fill="none" stroke="darkgreen" d="M1028.12,-247.955C1021.44,-247.597 977.306,-244.993 942.486,-237 920.089,-231.859 895.59,-223.609 876.69,-216.645"/>
<polygon fill="darkgreen" stroke="darkgreen" points="877.678,-213.277 867.086,-213.04 875.218,-219.831 877.678,-213.277"/>
<text text-anchor="middle" x="916.486" y="-236.8" font-family="Times New Roman,serif" font-size="14.00">[1]</text>
</g>
<!-- bn4 -->
<g id="node36" class="node"><title>bn4</title>
<ellipse fill="black" stroke="black" cx="219.393" cy="-287" rx="1.8" ry="1.8"/>
</g>
<!-- http://example.org/dist\[i\]#3&#45;&gt;bn4 -->
<g id="edge29" class="edge"><title>http://example.org/dist\[i\]#3&#45;&gt;bn4</title>
<path fill="none" stroke="darkgreen" d="M512.827,-287C427.834,-287 236.153,-287 221.308,-287"/>
<text text-anchor="middle" x="410.893" y="-305.8" font-family="Times New Roman,serif" font-size="14.00">der ac&#45;r</text>
<text text-anchor="middle" x="410.893" y="-290.8" font-family="Times New Roman,serif" font-size="14.00">2018&#45;03&#45;19T12:16:42.562050</text>
</g>
<!-- &#45;attrs7 -->
<g id="node27" class="node"><title>&#45;attrs7</title>
<polygon fill="none" stroke="gray" points="875.486,-289.5 805.486,-289.5 805.486,-240.5 881.486,-240.5 881.486,-283.5 875.486,-289.5"/>
<polyline fill="none" stroke="gray" points="875.486,-289.5 875.486,-283.5 "/>
<polyline fill="none" stroke="gray" points="881.486,-283.5 875.486,-283.5 "/>
<text text-anchor="start" x="815.486" y="-275" font-family="Times New Roman,serif" font-size="10.00">value:</text>
<text text-anchor="start" x="842.486" y="-275" font-family="Times New Roman,serif" font-size="10.00">[0, 1, 4]</text>
<text text-anchor="start" x="815.486" y="-262" font-family="Times New Roman,serif" font-size="10.00">type:</text>
<text text-anchor="start" x="842.486" y="-262" font-family="Times New Roman,serif" font-size="10.00">access</text>
<text text-anchor="start" x="815.486" y="-249" font-family="Times New Roman,serif" font-size="10.00">label:</text>
<text text-anchor="start" x="842.486" y="-249" font-family="Times New Roman,serif" font-size="10.00">dist[i]</text>
</g>
<!-- &#45;attrs7&#45;&gt;http://example.org/dist\[i\]#3 -->
<g id="edge22" class="edge"><title>&#45;attrs7&#45;&gt;http://example.org/dist\[i\]#3</title>
<path fill="none" stroke="gray" stroke-dasharray="5,2" d="M805.483,-267.831C751.18,-271.986 650.324,-279.702 594.565,-283.968"/>
</g>
<!-- &#45;attrs8 -->
<g id="node28" class="node"><title>&#45;attrs8</title>
<polygon fill="none" stroke="gray" points="2316.48,-120.5 2138.48,-120.5 2138.48,-71.5 2322.48,-71.5 2322.48,-114.5 2316.48,-120.5"/>
<polyline fill="none" stroke="gray" points="2316.48,-120.5 2316.48,-114.5 "/>
<polyline fill="none" stroke="gray" points="2322.48,-114.5 2316.48,-114.5 "/>
<text text-anchor="start" x="2148.48" y="-106" font-family="Times New Roman,serif" font-size="10.00">value:</text>
<text text-anchor="start" x="2175.48" y="-106" font-family="Times New Roman,serif" font-size="10.00">[[0, 1, 4], [10000, 0, 2], [2, 10000, 0]]</text>
<text text-anchor="start" x="2148.48" y="-93" font-family="Times New Roman,serif" font-size="10.00">type:</text>
<text text-anchor="start" x="2175.48" y="-93" font-family="Times New Roman,serif" font-size="10.00">name</text>
<text text-anchor="start" x="2148.48" y="-80" font-family="Times New Roman,serif" font-size="10.00">label:</text>
<text text-anchor="start" x="2175.48" y="-80" font-family="Times New Roman,serif" font-size="10.00">result</text>
</g>
<!-- &#45;attrs8&#45;&gt;http://example.org/result -->
<g id="edge24" class="edge"><title>&#45;attrs8&#45;&gt;http://example.org/result</title>
<path fill="none" stroke="gray" stroke-dasharray="5,2" d="M2138.25,-96.7447C2094.44,-97.1023 2044.92,-97.5066 2014.19,-97.7574"/>
</g>
<!-- http://example.org/result\[0\]\[2\] -->
<g id="node29" class="node"><title>http://example.org/result\[0\]\[2\]</title>
<g id="a_node29"><a xlink:href="http://example.org/result\[0\]\[2\]" xlink:title="result\[0\]\[2\]">
<ellipse fill="#fffc87" stroke="#808080" cx="2989.97" cy="-216" rx="50.8918" ry="18"/>
<text text-anchor="middle" x="2989.97" y="-212.3" font-family="Times New Roman,serif" font-size="14.00">result[0][2]</text>
</a>
</g>
</g>
<!-- bn6 -->
<g id="node42" class="node"><title>bn6</title>
<ellipse fill="black" stroke="black" cx="2699.77" cy="-216" rx="1.8" ry="1.8"/>
</g>
<!-- http://example.org/result\[0\]\[2\]&#45;&gt;bn6 -->
<g id="edge41" class="edge"><title>http://example.org/result\[0\]\[2\]&#45;&gt;bn6</title>
<path fill="none" stroke="darkgreen" d="M2939.09,-216C2860.48,-216 2715.22,-216 2701.77,-216"/>
<text text-anchor="middle" x="2839.77" y="-234.8" font-family="Times New Roman,serif" font-size="14.00">der ac&#45;r</text>
<text text-anchor="middle" x="2839.77" y="-219.8" font-family="Times New Roman,serif" font-size="14.00">2018&#45;03&#45;19T12:16:46.642346</text>
</g>
<!-- &#45;attrs9 -->
<g id="node30" class="node"><title>&#45;attrs9</title>
<polygon fill="none" stroke="gray" points="3162.66,-240.5 3077.66,-240.5 3077.66,-191.5 3168.66,-191.5 3168.66,-234.5 3162.66,-240.5"/>
<polyline fill="none" stroke="gray" points="3162.66,-240.5 3162.66,-234.5 "/>
<polyline fill="none" stroke="gray" points="3168.66,-234.5 3162.66,-234.5 "/>
<text text-anchor="start" x="3088.16" y="-226" font-family="Times New Roman,serif" font-size="10.00">value:</text>
<text text-anchor="start" x="3115.16" y="-226" font-family="Times New Roman,serif" font-size="10.00">3</text>
<text text-anchor="start" x="3088.16" y="-213" font-family="Times New Roman,serif" font-size="10.00">type:</text>
<text text-anchor="start" x="3115.16" y="-213" font-family="Times New Roman,serif" font-size="10.00">access</text>
<text text-anchor="start" x="3088.16" y="-200" font-family="Times New Roman,serif" font-size="10.00">label:</text>
<text text-anchor="start" x="3115.16" y="-200" font-family="Times New Roman,serif" font-size="10.00">result[0][2]</text>
</g>
<!-- &#45;attrs9&#45;&gt;http://example.org/result\[0\]\[2\] -->
<g id="edge25" class="edge"><title>&#45;attrs9&#45;&gt;http://example.org/result\[0\]\[2\]</title>
<path fill="none" stroke="gray" stroke-dasharray="5,2" d="M3077.38,-216C3065.65,-216 3052.93,-216 3040.95,-216"/>
</g>
<!-- &#45;attrs10 -->
<g id="node32" class="node"><title>&#45;attrs10</title>
<polygon fill="none" stroke="gray" points="2080.48,-62 1880.48,-62 1880.48,-0 2086.48,-0 2086.48,-56 2080.48,-62"/>
<polyline fill="none" stroke="gray" points="2080.48,-62 2080.48,-56 "/>
<polyline fill="none" stroke="gray" points="2086.48,-56 2080.48,-56 "/>
<text text-anchor="start" x="1890.48" y="-48" font-family="Times New Roman,serif" font-size="10.00">value:</text>
<text text-anchor="start" x="1939.48" y="-48" font-family="Times New Roman,serif" font-size="10.00">[[0, 1, 4], [10000, 0, 2], [2, 10000, 0]]</text>
<text text-anchor="start" x="1890.48" y="-35" font-family="Times New Roman,serif" font-size="10.00">type:</text>
<text text-anchor="start" x="1939.48" y="-35" font-family="Times New Roman,serif" font-size="10.00">list</text>
<text text-anchor="start" x="1890.48" y="-22" font-family="Times New Roman,serif" font-size="10.00">label:</text>
<text text-anchor="start" x="1939.48" y="-22" font-family="Times New Roman,serif" font-size="10.00">[[0, 1, 4], [m, 0, 2], lastrow]</text>
<text text-anchor="start" x="1890.48" y="-9" font-family="Times New Roman,serif" font-size="10.00">checkpoint:</text>
<text text-anchor="start" x="1939.48" y="-9" font-family="Times New Roman,serif" font-size="10.00">2018&#45;03&#45;19 12:16:39.049712</text>
</g>
<!-- &#45;attrs10&#45;&gt;http://example.org/matrix -->
<g id="edge26" class="edge"><title>&#45;attrs10&#45;&gt;http://example.org/matrix</title>
<path fill="none" stroke="gray" stroke-dasharray="5,2" d="M1880.3,-38.5687C1810.84,-43.7136 1723.47,-50.186 1677.19,-53.614"/>
</g>
<!-- http://example.org/disti\[j\]#5 -->
<g id="node33" class="node"><title>http://example.org/disti\[j\]#5</title>
<g id="a_node33"><a xlink:href="http://example.org/disti\[j\]#5" xlink:title="disti\[j\]#5">
<ellipse fill="#fffc87" stroke="#808080" cx="2564.37" cy="-261" rx="42.7926" ry="18"/>
<text text-anchor="middle" x="2564.37" y="-257.3" font-family="Times New Roman,serif" font-size="14.00">disti[j]#5</text>
</a>
</g>
</g>
<!-- bn5 -->
<g id="node39" class="node"><title>bn5</title>
<ellipse fill="black" stroke="black" cx="2230.48" cy="-274" rx="1.8" ry="1.8"/>
</g>
<!-- http://example.org/disti\[j\]#5&#45;&gt;bn5 -->
<g id="edge35" class="edge"><title>http://example.org/disti\[j\]#5&#45;&gt;bn5</title>
<path fill="none" stroke="darkgreen" d="M2521.34,-262.646C2435.52,-266.008 2246.98,-273.393 2232.38,-273.965"/>
<text text-anchor="middle" x="2421.98" y="-288.8" font-family="Times New Roman,serif" font-size="14.00">der ac&#45;w</text>
<text text-anchor="middle" x="2421.98" y="-273.8" font-family="Times New Roman,serif" font-size="14.00">2018&#45;03&#45;19T12:16:43.349143</text>
</g>
<!-- &#45;attrs11 -->
<g id="node34" class="node"><title>&#45;attrs11</title>
<polygon fill="none" stroke="gray" points="2731.27,-285.5 2662.27,-285.5 2662.27,-236.5 2737.27,-236.5 2737.27,-279.5 2731.27,-285.5"/>
<polyline fill="none" stroke="gray" points="2731.27,-285.5 2731.27,-279.5 "/>
<polyline fill="none" stroke="gray" points="2737.27,-279.5 2731.27,-279.5 "/>
<text text-anchor="start" x="2672.77" y="-271" font-family="Times New Roman,serif" font-size="10.00">value:</text>
<text text-anchor="start" x="2699.77" y="-271" font-family="Times New Roman,serif" font-size="10.00">3</text>
<text text-anchor="start" x="2672.77" y="-258" font-family="Times New Roman,serif" font-size="10.00">type:</text>
<text text-anchor="start" x="2699.77" y="-258" font-family="Times New Roman,serif" font-size="10.00">access</text>
<text text-anchor="start" x="2672.77" y="-245" font-family="Times New Roman,serif" font-size="10.00">label:</text>
<text text-anchor="start" x="2699.77" y="-245" font-family="Times New Roman,serif" font-size="10.00">disti[j]</text>
</g>
<!-- &#45;attrs11&#45;&gt;http://example.org/disti\[j\]#5 -->
<g id="edge27" class="edge"><title>&#45;attrs11&#45;&gt;http://example.org/disti\[j\]#5</title>
<path fill="none" stroke="gray" stroke-dasharray="5,2" d="M2661.97,-261C2645.15,-261 2625.15,-261 2607.71,-261"/>
</g>
<!-- &#45;attrs12 -->
<g id="node35" class="node"><title>&#45;attrs12</title>
<polygon fill="none" stroke="gray" points="300.893,-118 131.893,-118 131.893,-56 306.893,-56 306.893,-112 300.893,-118"/>
<polyline fill="none" stroke="gray" points="300.893,-118 300.893,-112 "/>
<polyline fill="none" stroke="gray" points="306.893,-112 300.893,-112 "/>
<text text-anchor="start" x="142.393" y="-104" font-family="Times New Roman,serif" font-size="10.00">value:</text>
<text text-anchor="start" x="191.393" y="-104" font-family="Times New Roman,serif" font-size="10.00">[0, 1, 4]</text>
<text text-anchor="start" x="142.393" y="-91" font-family="Times New Roman,serif" font-size="10.00">type:</text>
<text text-anchor="start" x="191.393" y="-91" font-family="Times New Roman,serif" font-size="10.00">list</text>
<text text-anchor="start" x="142.393" y="-78" font-family="Times New Roman,serif" font-size="10.00">label:</text>
<text text-anchor="start" x="191.393" y="-78" font-family="Times New Roman,serif" font-size="10.00">[0, 1, 4]</text>
<text text-anchor="start" x="142.393" y="-65" font-family="Times New Roman,serif" font-size="10.00">checkpoint:</text>
<text text-anchor="start" x="191.393" y="-65" font-family="Times New Roman,serif" font-size="10.00">2018&#45;03&#45;19 12:16:39.049712</text>
</g>
<!-- &#45;attrs12&#45;&gt;http://example.org/matrix0 -->
<g id="edge28" class="edge"><title>&#45;attrs12&#45;&gt;http://example.org/matrix0</title>
<path fill="none" stroke="gray" stroke-dasharray="5,2" d="M131.703,-115.463C109.266,-122.83 86.5654,-130.283 69.2084,-135.982"/>
</g>
<!-- bn4&#45;&gt;http://example.org/dist -->
<g id="edge30" class="edge"><title>bn4&#45;&gt;http://example.org/dist</title>
<path fill="none" stroke="darkgreen" stroke-dasharray="5,2" d="M217.592,-287.245C208.354,-290.073 121.434,-316.677 72.2388,-331.734"/>
<polygon fill="darkgreen" stroke="darkgreen" points="71.1838,-328.396 62.6461,-334.67 73.2326,-335.09 71.1838,-328.396"/>
</g>
<!-- bn4&#45;&gt;http://example.org/matrix0 -->
<g id="edge31" class="edge"><title>bn4&#45;&gt;http://example.org/matrix0</title>
<path fill="none" stroke="darkgreen" d="M217.405,-286.875C209.774,-285.873 159.672,-278.573 127.393,-256 95.5223,-233.712 69.1104,-196.845 53.6184,-172.002"/>
<polygon fill="darkgreen" stroke="darkgreen" points="56.6005,-170.17 48.4151,-163.443 50.6191,-173.806 56.6005,-170.17"/>
<text text-anchor="middle" x="101.393" y="-242.8" font-family="Times New Roman,serif" font-size="14.00">[0]</text>
</g>
<!-- &#45;attrs13 -->
<g id="node37" class="node"><title>&#45;attrs13</title>
<polygon fill="none" stroke="gray" points="1675.48,-454.5 1606.48,-454.5 1606.48,-405.5 1681.48,-405.5 1681.48,-448.5 1675.48,-454.5"/>
<polyline fill="none" stroke="gray" points="1675.48,-454.5 1675.48,-448.5 "/>
<polyline fill="none" stroke="gray" points="1681.48,-448.5 1675.48,-448.5 "/>
<text text-anchor="start" x="1616.98" y="-440" font-family="Times New Roman,serif" font-size="10.00">value:</text>
<text text-anchor="start" x="1643.98" y="-440" font-family="Times New Roman,serif" font-size="10.00">2</text>
<text text-anchor="start" x="1616.98" y="-427" font-family="Times New Roman,serif" font-size="10.00">type:</text>
<text text-anchor="start" x="1643.98" y="-427" font-family="Times New Roman,serif" font-size="10.00">access</text>
<text text-anchor="start" x="1616.98" y="-414" font-family="Times New Roman,serif" font-size="10.00">label:</text>
<text text-anchor="start" x="1643.98" y="-414" font-family="Times New Roman,serif" font-size="10.00">distk[j]</text>
</g>
<!-- &#45;attrs13&#45;&gt;http://example.org/distk\[j\]#3 -->
<g id="edge33" class="edge"><title>&#45;attrs13&#45;&gt;http://example.org/distk\[j\]#3</title>
<path fill="none" stroke="gray" stroke-dasharray="5,2" d="M1606.37,-430C1555.38,-430 1463.04,-430 1407.93,-430"/>
</g>
<!-- &#45;attrs14 -->
<g id="node38" class="node"><title>&#45;attrs14</title>
<polygon fill="none" stroke="gray" points="300.893,-247 131.893,-247 131.893,-185 306.893,-185 306.893,-241 300.893,-247"/>
<polyline fill="none" stroke="gray" points="300.893,-247 300.893,-241 "/>
<polyline fill="none" stroke="gray" points="306.893,-241 300.893,-241 "/>
<text text-anchor="start" x="142.393" y="-233" font-family="Times New Roman,serif" font-size="10.00">value:</text>
<text text-anchor="start" x="191.393" y="-233" font-family="Times New Roman,serif" font-size="10.00">[10000, 0, 2]</text>
<text text-anchor="start" x="142.393" y="-220" font-family="Times New Roman,serif" font-size="10.00">type:</text>
<text text-anchor="start" x="191.393" y="-220" font-family="Times New Roman,serif" font-size="10.00">list</text>
<text text-anchor="start" x="142.393" y="-207" font-family="Times New Roman,serif" font-size="10.00">label:</text>
<text text-anchor="start" x="191.393" y="-207" font-family="Times New Roman,serif" font-size="10.00">[m, 0, 2]</text>
<text text-anchor="start" x="142.393" y="-194" font-family="Times New Roman,serif" font-size="10.00">checkpoint:</text>
<text text-anchor="start" x="191.393" y="-194" font-family="Times New Roman,serif" font-size="10.00">2018&#45;03&#45;19 12:16:39.049712</text>
</g>
<!-- &#45;attrs14&#45;&gt;http://example.org/matrix1 -->
<g id="edge34" class="edge"><title>&#45;attrs14&#45;&gt;http://example.org/matrix1</title>
<path fill="none" stroke="gray" stroke-dasharray="5,2" d="M131.775,-222.613C118.807,-224.492 105.674,-226.904 93.3933,-230 83.9648,-232.377 74.0017,-236.02 65.1992,-239.661"/>
</g>
<!-- bn5&#45;&gt;http://example.org/ikj#3 -->
<g id="edge37" class="edge"><title>bn5&#45;&gt;http://example.org/ikj#3</title>
<path fill="none" stroke="darkgreen" d="M2228.58,-273.92C2221.6,-273.298 2175.54,-269.079 2138.48,-263 2097.8,-256.328 2051.56,-246.4 2020.45,-239.374"/>
<polygon fill="darkgreen" stroke="darkgreen" points="2021.04,-235.918 2010.51,-237.112 2019.48,-242.744 2021.04,-235.918"/>
<text text-anchor="middle" x="2112.48" y="-263.8" font-family="Times New Roman,serif" font-size="14.00">[2]</text>
</g>
<!-- bn5&#45;&gt;http://example.org/disti#3 -->
<g id="edge36" class="edge"><title>bn5&#45;&gt;http://example.org/disti#3</title>
<path fill="none" stroke="darkgreen" stroke-dasharray="5,2" d="M2228.63,-274.453C2217.18,-280.5 2092.53,-345 1984.48,-345 1984.48,-345 1984.48,-345 1028.99,-345 980.126,-345 924.37,-338.325 887.057,-332.888"/>
<polygon fill="darkgreen" stroke="darkgreen" points="887.45,-329.408 877.043,-331.394 886.417,-336.331 887.45,-329.408"/>
</g>
<!-- &#45;attrs15 -->
<g id="node40" class="node"><title>&#45;attrs15</title>
<polygon fill="none" stroke="gray" points="2033.98,-316.5 1926.98,-316.5 1926.98,-267.5 2039.98,-267.5 2039.98,-310.5 2033.98,-316.5"/>
<polyline fill="none" stroke="gray" points="2033.98,-316.5 2033.98,-310.5 "/>
<polyline fill="none" stroke="gray" points="2039.98,-310.5 2033.98,-310.5 "/>
<text text-anchor="start" x="1937.48" y="-302" font-family="Times New Roman,serif" font-size="10.00">value:</text>
<text text-anchor="start" x="1964.48" y="-302" font-family="Times New Roman,serif" font-size="10.00">3</text>
<text text-anchor="start" x="1937.48" y="-289" font-family="Times New Roman,serif" font-size="10.00">type:</text>
<text text-anchor="start" x="1964.48" y="-289" font-family="Times New Roman,serif" font-size="10.00">operation</text>
<text text-anchor="start" x="1937.48" y="-276" font-family="Times New Roman,serif" font-size="10.00">label:</text>
<text text-anchor="start" x="1964.48" y="-276" font-family="Times New Roman,serif" font-size="10.00">disti[k] + distk[j]</text>
</g>
<!-- &#45;attrs15&#45;&gt;http://example.org/sum#3 -->
<g id="edge39" class="edge"><title>&#45;attrs15&#45;&gt;http://example.org/sum#3</title>
<path fill="none" stroke="gray" stroke-dasharray="5,2" d="M1926.75,-292C1856.35,-292 1737.39,-292 1679.16,-292"/>
</g>
<!-- &#45;attrs16 -->
<g id="node41" class="node"><title>&#45;attrs16</title>
<polygon fill="none" stroke="gray" points="1070.99,-510.5 982.986,-510.5 982.986,-461.5 1076.99,-461.5 1076.99,-504.5 1070.99,-510.5"/>
<polyline fill="none" stroke="gray" points="1070.99,-510.5 1070.99,-504.5 "/>
<polyline fill="none" stroke="gray" points="1076.99,-504.5 1070.99,-504.5 "/>
<text text-anchor="start" x="992.986" y="-496" font-family="Times New Roman,serif" font-size="10.00">value:</text>
<text text-anchor="start" x="1019.99" y="-496" font-family="Times New Roman,serif" font-size="10.00">[10000, 0, 2]</text>
<text text-anchor="start" x="992.986" y="-483" font-family="Times New Roman,serif" font-size="10.00">type:</text>
<text text-anchor="start" x="1019.99" y="-483" font-family="Times New Roman,serif" font-size="10.00">name</text>
<text text-anchor="start" x="992.986" y="-470" font-family="Times New Roman,serif" font-size="10.00">label:</text>
<text text-anchor="start" x="1019.99" y="-470" font-family="Times New Roman,serif" font-size="10.00">distk</text>
</g>
<!-- &#45;attrs16&#45;&gt;http://example.org/distk#2 -->
<g id="edge40" class="edge"><title>&#45;attrs16&#45;&gt;http://example.org/distk#2</title>
<path fill="none" stroke="gray" stroke-dasharray="5,2" d="M982.904,-479.756C950.991,-475.432 909.145,-469.761 879.852,-465.792"/>
</g>
<!-- bn6&#45;&gt;http://example.org/result\[0\] -->
<g id="edge42" class="edge"><title>bn6&#45;&gt;http://example.org/result\[0\]</title>
<path fill="none" stroke="darkgreen" stroke-dasharray="5,2" d="M2697.79,-215.719C2693.33,-214.437 2674.53,-208.996 2659.27,-204 2641.73,-198.256 2622.48,-191.559 2605.99,-185.705"/>
<polygon fill="darkgreen" stroke="darkgreen" points="2606.73,-182.25 2596.13,-182.185 2604.37,-188.843 2606.73,-182.25"/>
</g>
<!-- bn6&#45;&gt;http://example.org/disti\[j\]#5 -->
<g id="edge43" class="edge"><title>bn6&#45;&gt;http://example.org/disti\[j\]#5</title>
<path fill="none" stroke="darkgreen" d="M2697.78,-216.245C2693.31,-217.364 2674.46,-222.143 2659.27,-227 2641.9,-232.554 2622.96,-239.283 2606.66,-245.284"/>
<polygon fill="darkgreen" stroke="darkgreen" points="2605.05,-242.148 2596.9,-248.91 2607.49,-248.71 2605.05,-242.148"/>
<text text-anchor="middle" x="2633.27" y="-242.8" font-family="Times New Roman,serif" font-size="14.00">[2]</text>
</g>
<!-- &#45;attrs17 -->
<g id="node43" class="node"><title>&#45;attrs17</title>
<polygon fill="none" stroke="gray" points="1111.49,-228.5 942.486,-228.5 942.486,-179.5 1117.49,-179.5 1117.49,-222.5 1111.49,-228.5"/>
<polyline fill="none" stroke="gray" points="1111.49,-228.5 1111.49,-222.5 "/>
<polyline fill="none" stroke="gray" points="1117.49,-222.5 1111.49,-222.5 "/>
<text text-anchor="start" x="952.986" y="-214" font-family="Times New Roman,serif" font-size="10.00">value:</text>
<text text-anchor="start" x="1001.99" y="-214" font-family="Times New Roman,serif" font-size="10.00">1</text>
<text text-anchor="start" x="952.986" y="-201" font-family="Times New Roman,serif" font-size="10.00">type:</text>
<text text-anchor="start" x="1001.99" y="-201" font-family="Times New Roman,serif" font-size="10.00">literal</text>
<text text-anchor="start" x="952.986" y="-188" font-family="Times New Roman,serif" font-size="10.00">checkpoint:</text>
<text text-anchor="start" x="1001.99" y="-188" font-family="Times New Roman,serif" font-size="10.00">2018&#45;03&#45;19 12:16:39.047708</text>
</g>
<!-- &#45;attrs17&#45;&gt;http://example.org/1 -->
<g id="edge45" class="edge"><title>&#45;attrs17&#45;&gt;http://example.org/1</title>
<path fill="none" stroke="gray" stroke-dasharray="5,2" d="M942.408,-204C916.38,-204 889.748,-204 870.841,-204"/>
</g>
</g>
</svg>
