<?xml version="1.0" encoding="UTF-8" standalone="no"?>
<!DOCTYPE svg PUBLIC "-//W3C//DTD SVG 1.1//EN"
 "http://www.w3.org/Graphics/SVG/1.1/DTD/svg11.dtd">
<!-- Generated by graphviz version 2.38.0 (20140413.2041)
 -->
<!-- Title: PROV Pages: 1 -->
<svg width="1152pt" height="302pt"
 viewBox="0.00 0.00 1152.00 302.36" xmlns="http://www.w3.org/2000/svg" xmlns:xlink="http://www.w3.org/1999/xlink">
<g id="graph0" class="graph" transform="scale(0.515977 0.515977) rotate(0) translate(4 582)">
<title>PROV</title>
<polygon fill="white" stroke="none" points="-4,4 -4,-582 2228.66,-582 2228.66,4 -4,4"/>
<!-- bn0 -->
<g id="node1" class="node"><title>bn0</title>
<ellipse fill="black" stroke="black" cx="219.393" cy="-413.5" rx="1.8" ry="1.8"/>
</g>
<!-- http://example.org/dist -->
<g id="node3" class="node"><title>http://example.org/dist</title>
<g id="a_node3"><a xlink:href="http://example.org/dist" xlink:title="dist">
<ellipse fill="#fffc87" stroke="#808080" cx="37.6967" cy="-422.5" rx="27" ry="18"/>
<text text-anchor="middle" x="37.6967" y="-418.8" font-family="Times New Roman,serif" font-size="14.00">dist</text>
</a>
</g>
</g>
<!-- bn0&#45;&gt;http://example.org/dist -->
<g id="edge2" class="edge"><title>bn0&#45;&gt;http://example.org/dist</title>
<path fill="none" stroke="darkgreen" stroke-dasharray="5,2" d="M217.592,-413.54C208.515,-413.995 124.442,-418.206 74.8465,-420.689"/>
<polygon fill="darkgreen" stroke="darkgreen" points="74.6385,-417.195 64.8261,-421.191 74.9887,-424.187 74.6385,-417.195"/>
</g>
<!-- http://example.org/matrix1 -->
<g id="node4" class="node"><title>http://example.org/matrix1</title>
<g id="a_node4"><a xlink:href="http://example.org/matrix1" xlink:title="matrix1">
<ellipse fill="#fffc87" stroke="#808080" cx="37.6967" cy="-351.5" rx="37.8943" ry="18"/>
<text text-anchor="middle" x="37.6967" y="-347.8" font-family="Times New Roman,serif" font-size="14.00">matrix1</text>
</a>
</g>
</g>
<!-- bn0&#45;&gt;http://example.org/matrix1 -->
<g id="edge3" class="edge"><title>bn0&#45;&gt;http://example.org/matrix1</title>
<path fill="none" stroke="darkgreen" d="M217.592,-413.224C208.715,-410.161 128.099,-382.346 78.1635,-365.117"/>
<polygon fill="darkgreen" stroke="darkgreen" points="79.2105,-361.776 68.6158,-361.823 76.9274,-368.393 79.2105,-361.776"/>
<text text-anchor="middle" x="101.393" y="-379.3" font-family="Times New Roman,serif" font-size="14.00">[1]</text>
</g>
<!-- http://example.org/dist@k#2 -->
<g id="node2" class="node"><title>http://example.org/dist@k#2</title>
<g id="a_node2"><a xlink:href="http://example.org/dist@k#2" xlink:title="dist@k#2">
<ellipse fill="#fffc87" stroke="#808080" cx="437.539" cy="-492.5" rx="46.2923" ry="18"/>
<text text-anchor="middle" x="437.539" y="-488.8" font-family="Times New Roman,serif" font-size="14.00">dist@k#2</text>
</a>
</g>
</g>
<!-- http://example.org/dist@k#2&#45;&gt;bn0 -->
<g id="edge1" class="edge"><title>http://example.org/dist@k#2&#45;&gt;bn0</title>
<path fill="none" stroke="darkgreen" d="M414.256,-476.631C390.141,-460.344 349.947,-435.708 311.393,-423.5 275.634,-412.177 228.469,-413.232 221.318,-413.466"/>
<text text-anchor="middle" x="351.393" y="-469.3" font-family="Times New Roman,serif" font-size="14.00">der ac&#45;r</text>
<text text-anchor="middle" x="351.393" y="-454.3" font-family="Times New Roman,serif" font-size="14.00">41</text>
</g>
<!-- bn1 -->
<g id="node5" class="node"><title>bn1</title>
<ellipse fill="black" stroke="black" cx="1503.88" cy="-231.5" rx="1.8" ry="1.8"/>
</g>
<!-- http://example.org/disti#3 -->
<g id="node7" class="node"><title>http://example.org/disti#3</title>
<g id="a_node7"><a xlink:href="http://example.org/disti#3" xlink:title="disti#3">
<ellipse fill="#fffc87" stroke="#808080" cx="603.685" cy="-315.5" rx="35.194" ry="18"/>
<text text-anchor="middle" x="603.685" y="-311.8" font-family="Times New Roman,serif" font-size="14.00">disti#3</text>
</a>
</g>
</g>
<!-- bn1&#45;&gt;http://example.org/disti#3 -->
<g id="edge5" class="edge"><title>bn1&#45;&gt;http://example.org/disti#3</title>
<path fill="none" stroke="darkgreen" stroke-dasharray="5,2" d="M1502.08,-232.036C1491.33,-239.19 1374.19,-315.5 1268.88,-315.5 1268.88,-315.5 1268.88,-315.5 748.685,-315.5 715.287,-315.5 677.531,-315.5 649.061,-315.5"/>
<polygon fill="darkgreen" stroke="darkgreen" points="649.018,-312 639.018,-315.5 649.017,-319 649.018,-312"/>
</g>
<!-- http://example.org/ikj#3 -->
<g id="node8" class="node"><title>http://example.org/ikj#3</title>
<g id="a_node8"><a xlink:href="http://example.org/ikj#3" xlink:title="ikj#3">
<ellipse fill="#fffc87" stroke="#808080" cx="1267.88" cy="-197.5" rx="28.6953" ry="18"/>
<text text-anchor="middle" x="1267.88" y="-193.8" font-family="Times New Roman,serif" font-size="14.00">ikj#3</text>
</a>
</g>
</g>
<!-- bn1&#45;&gt;http://example.org/ikj#3 -->
<g id="edge6" class="edge"><title>bn1&#45;&gt;http://example.org/ikj#3</title>
<path fill="none" stroke="darkgreen" d="M1501.98,-231.405C1495.02,-230.667 1449.07,-225.736 1411.88,-220.5 1375.73,-215.41 1334.59,-208.697 1305.75,-203.838"/>
<polygon fill="darkgreen" stroke="darkgreen" points="1306.16,-200.357 1295.71,-202.138 1304.99,-207.259 1306.16,-200.357"/>
<text text-anchor="middle" x="1385.88" y="-222.3" font-family="Times New Roman,serif" font-size="14.00">[2]</text>
</g>
<!-- http://example.org/disti@j#5 -->
<g id="node6" class="node"><title>http://example.org/disti@j#5</title>
<g id="a_node6"><a xlink:href="http://example.org/disti@j#5" xlink:title="disti@j#5">
<ellipse fill="#fffc87" stroke="#808080" cx="1726.37" cy="-228.5" rx="45.4919" ry="18"/>
<text text-anchor="middle" x="1726.37" y="-224.8" font-family="Times New Roman,serif" font-size="14.00">disti@j#5</text>
</a>
</g>
</g>
<!-- http://example.org/disti@j#5&#45;&gt;bn1 -->
<g id="edge4" class="edge"><title>http://example.org/disti@j#5&#45;&gt;bn1</title>
<path fill="none" stroke="darkgreen" d="M1680.75,-229.107C1620.35,-229.929 1518.62,-231.313 1506.14,-231.483"/>
<text text-anchor="middle" x="1638.38" y="-249.3" font-family="Times New Roman,serif" font-size="14.00">der ac&#45;w</text>
<text text-anchor="middle" x="1638.38" y="-234.3" font-family="Times New Roman,serif" font-size="14.00">55</text>
</g>
<!-- http://example.org/dist@i#3 -->
<g id="node37" class="node"><title>http://example.org/dist@i#3</title>
<g id="a_node37"><a xlink:href="http://example.org/dist@i#3" xlink:title="dist@i#3">
<ellipse fill="#fffc87" stroke="#808080" cx="437.539" cy="-267.5" rx="43.5923" ry="18"/>
<text text-anchor="middle" x="437.539" y="-263.8" font-family="Times New Roman,serif" font-size="14.00">dist@i#3</text>
</a>
</g>
</g>
<!-- http://example.org/disti#3&#45;&gt;http://example.org/dist@i#3 -->
<g id="edge35" class="edge"><title>http://example.org/disti#3&#45;&gt;http://example.org/dist@i#3</title>
<path fill="none" stroke="darkgreen" d="M572.578,-306.696C547.575,-299.385 511.641,-288.877 483.271,-280.581"/>
<polygon fill="darkgreen" stroke="darkgreen" points="484.163,-277.195 473.583,-277.748 482.198,-283.914 484.163,-277.195"/>
<text text-anchor="middle" x="520.185" y="-315.3" font-family="Times New Roman,serif" font-size="14.00">der ref</text>
<text text-anchor="middle" x="520.185" y="-300.3" font-family="Times New Roman,serif" font-size="14.00">45</text>
</g>
<!-- http://example.org/sum#3 -->
<g id="node9" class="node"><title>http://example.org/sum#3</title>
<g id="a_node9"><a xlink:href="http://example.org/sum#3" xlink:title="sum#3">
<ellipse fill="#fffc87" stroke="#808080" cx="1065.38" cy="-251.5" rx="35.194" ry="18"/>
<text text-anchor="middle" x="1065.38" y="-247.8" font-family="Times New Roman,serif" font-size="14.00">sum#3</text>
</a>
</g>
</g>
<!-- http://example.org/ikj#3&#45;&gt;http://example.org/sum#3 -->
<g id="edge32" class="edge"><title>http://example.org/ikj#3&#45;&gt;http://example.org/sum#3</title>
<path fill="none" stroke="darkgreen" d="M1239.22,-198.546C1209.28,-200.388 1160.51,-205.471 1120.88,-219.5 1112.16,-222.586 1103.27,-227.108 1095.28,-231.787"/>
<polygon fill="darkgreen" stroke="darkgreen" points="1093.37,-228.851 1086.68,-237.067 1097.04,-234.815 1093.37,-228.851"/>
<text text-anchor="middle" x="1139.38" y="-238.3" font-family="Times New Roman,serif" font-size="14.00">der ref</text>
<text text-anchor="middle" x="1139.38" y="-223.3" font-family="Times New Roman,serif" font-size="14.00">52</text>
</g>
<!-- http://example.org/disti@k#3 -->
<g id="node10" class="node"><title>http://example.org/disti@k#3</title>
<g id="a_node10"><a xlink:href="http://example.org/disti@k#3" xlink:title="disti@k#3">
<ellipse fill="#fffc87" stroke="#808080" cx="924.781" cy="-217.5" rx="48.1917" ry="18"/>
<text text-anchor="middle" x="924.781" y="-213.8" font-family="Times New Roman,serif" font-size="14.00">disti@k#3</text>
</a>
</g>
</g>
<!-- http://example.org/sum#3&#45;&gt;http://example.org/disti@k#3 -->
<g id="edge7" class="edge"><title>http://example.org/sum#3&#45;&gt;http://example.org/disti@k#3</title>
<path fill="none" stroke="darkgreen" d="M1045.38,-236.541C1035.41,-229.624 1022.64,-222.145 1009.88,-218.5 1001.01,-215.968 991.399,-214.624 981.952,-214.037"/>
<polygon fill="darkgreen" stroke="darkgreen" points="981.926,-210.534 971.808,-213.676 981.677,-217.529 981.926,-210.534"/>
<text text-anchor="middle" x="1000.38" y="-237.3" font-family="Times New Roman,serif" font-size="14.00">der</text>
<text text-anchor="middle" x="1000.38" y="-222.3" font-family="Times New Roman,serif" font-size="14.00">51</text>
</g>
<!-- http://example.org/distk@j#3 -->
<g id="node17" class="node"><title>http://example.org/distk@j#3</title>
<g id="a_node17"><a xlink:href="http://example.org/distk@j#3" xlink:title="distk@j#3">
<ellipse fill="#fffc87" stroke="#808080" cx="924.781" cy="-393.5" rx="48.1917" ry="18"/>
<text text-anchor="middle" x="924.781" y="-389.8" font-family="Times New Roman,serif" font-size="14.00">distk@j#3</text>
</a>
</g>
</g>
<!-- http://example.org/sum#3&#45;&gt;http://example.org/distk@j#3 -->
<g id="edge22" class="edge"><title>http://example.org/sum#3&#45;&gt;http://example.org/distk@j#3</title>
<path fill="none" stroke="darkgreen" d="M1048.75,-267.513C1024.57,-292.282 977.945,-340.055 949.569,-369.128"/>
<polygon fill="darkgreen" stroke="darkgreen" points="946.908,-366.843 942.428,-376.444 951.917,-371.733 946.908,-366.843"/>
<text text-anchor="middle" x="1000.38" y="-346.3" font-family="Times New Roman,serif" font-size="14.00">der</text>
<text text-anchor="middle" x="1000.38" y="-331.3" font-family="Times New Roman,serif" font-size="14.00">51</text>
</g>
<!-- bn3 -->
<g id="node23" class="node"><title>bn3</title>
<ellipse fill="black" stroke="black" cx="749.685" cy="-225.5" rx="1.8" ry="1.8"/>
</g>
<!-- http://example.org/disti@k#3&#45;&gt;bn3 -->
<g id="edge17" class="edge"><title>http://example.org/disti@k#3&#45;&gt;bn3</title>
<path fill="none" stroke="darkgreen" d="M876.939,-219.665C828.88,-221.886 759.966,-225.071 751.54,-225.46"/>
<text text-anchor="middle" x="836.685" y="-241.3" font-family="Times New Roman,serif" font-size="14.00">der ac&#45;r</text>
<text text-anchor="middle" x="836.685" y="-226.3" font-family="Times New Roman,serif" font-size="14.00">49</text>
</g>
<!-- &#45;attrs0 -->
<g id="node11" class="node"><title>&#45;attrs0</title>
<polygon fill="none" stroke="gray" points="305.393,-482 127.393,-482 127.393,-433 311.393,-433 311.393,-476 305.393,-482"/>
<polyline fill="none" stroke="gray" points="305.393,-482 305.393,-476 "/>
<polyline fill="none" stroke="gray" points="311.393,-476 305.393,-476 "/>
<text text-anchor="start" x="137.393" y="-467.5" font-family="Times New Roman,serif" font-size="10.00">value:</text>
<text text-anchor="start" x="164.393" y="-467.5" font-family="Times New Roman,serif" font-size="10.00">[[0, 1, 4], [10000, 0, 2], [2, 10000, 0]]</text>
<text text-anchor="start" x="137.393" y="-454.5" font-family="Times New Roman,serif" font-size="10.00">type:</text>
<text text-anchor="start" x="164.393" y="-454.5" font-family="Times New Roman,serif" font-size="10.00">name</text>
<text text-anchor="start" x="137.393" y="-441.5" font-family="Times New Roman,serif" font-size="10.00">label:</text>
<text text-anchor="start" x="164.393" y="-441.5" font-family="Times New Roman,serif" font-size="10.00">dist</text>
</g>
<!-- &#45;attrs0&#45;&gt;http://example.org/dist -->
<g id="edge8" class="edge"><title>&#45;attrs0&#45;&gt;http://example.org/dist</title>
<path fill="none" stroke="gray" stroke-dasharray="5,2" d="M127.235,-440.094C115.837,-437.889 104.343,-435.652 93.3933,-433.5 83.699,-431.595 73.0466,-429.461 63.7386,-427.584"/>
</g>
<!-- http://example.org/result@0@2 -->
<g id="node12" class="node"><title>http://example.org/result@0@2</title>
<g id="a_node12"><a xlink:href="http://example.org/result@0@2" xlink:title="result@0@2">
<ellipse fill="#fffc87" stroke="#808080" cx="2040.76" cy="-183.5" rx="55.7903" ry="18"/>
<text text-anchor="middle" x="2040.76" y="-179.8" font-family="Times New Roman,serif" font-size="14.00">result@0@2</text>
</a>
</g>
</g>
<!-- bn5 -->
<g id="node42" class="node"><title>bn5</title>
<ellipse fill="black" stroke="black" cx="1864.37" cy="-183.5" rx="1.8" ry="1.8"/>
</g>
<!-- http://example.org/result@0@2&#45;&gt;bn5 -->
<g id="edge40" class="edge"><title>http://example.org/result@0@2&#45;&gt;bn5</title>
<path fill="none" stroke="darkgreen" d="M1984.58,-183.5C1937.08,-183.5 1874.86,-183.5 1866.35,-183.5"/>
<text text-anchor="middle" x="1944.87" y="-202.3" font-family="Times New Roman,serif" font-size="14.00">der ac&#45;r</text>
<text text-anchor="middle" x="1944.87" y="-187.3" font-family="Times New Roman,serif" font-size="14.00">97</text>
</g>
<!-- &#45;attrs1 -->
<g id="node13" class="node"><title>&#45;attrs1</title>
<polygon fill="none" stroke="gray" points="2218.66,-208 2133.66,-208 2133.66,-159 2224.66,-159 2224.66,-202 2218.66,-208"/>
<polyline fill="none" stroke="gray" points="2218.66,-208 2218.66,-202 "/>
<polyline fill="none" stroke="gray" points="2224.66,-202 2218.66,-202 "/>
<text text-anchor="start" x="2144.16" y="-193.5" font-family="Times New Roman,serif" font-size="10.00">value:</text>
<text text-anchor="start" x="2171.16" y="-193.5" font-family="Times New Roman,serif" font-size="10.00">3</text>
<text text-anchor="start" x="2144.16" y="-180.5" font-family="Times New Roman,serif" font-size="10.00">type:</text>
<text text-anchor="start" x="2171.16" y="-180.5" font-family="Times New Roman,serif" font-size="10.00">access</text>
<text text-anchor="start" x="2144.16" y="-167.5" font-family="Times New Roman,serif" font-size="10.00">label:</text>
<text text-anchor="start" x="2171.16" y="-167.5" font-family="Times New Roman,serif" font-size="10.00">result[0][2]</text>
</g>
<!-- &#45;attrs1&#45;&gt;http://example.org/result@0@2 -->
<g id="edge9" class="edge"><title>&#45;attrs1&#45;&gt;http://example.org/result@0@2</title>
<path fill="none" stroke="gray" stroke-dasharray="5,2" d="M2133.5,-183.5C2121.84,-183.5 2109.14,-183.5 2097.01,-183.5"/>
</g>
<!-- http://example.org/distk#2 -->
<g id="node14" class="node"><title>http://example.org/distk#2</title>
<g id="a_node14"><a xlink:href="http://example.org/distk#2" xlink:title="distk#2">
<ellipse fill="#fffc87" stroke="#808080" cx="603.685" cy="-492.5" rx="37.8943" ry="18"/>
<text text-anchor="middle" x="603.685" y="-488.8" font-family="Times New Roman,serif" font-size="14.00">distk#2</text>
</a>
</g>
</g>
<!-- http://example.org/distk#2&#45;&gt;http://example.org/dist@k#2 -->
<g id="edge10" class="edge"><title>http://example.org/distk#2&#45;&gt;http://example.org/dist@k#2</title>
<path fill="none" stroke="darkgreen" d="M565.848,-492.5C544.687,-492.5 517.691,-492.5 494.009,-492.5"/>
<polygon fill="darkgreen" stroke="darkgreen" points="493.743,-489 483.743,-492.5 493.743,-496 493.743,-489"/>
<text text-anchor="middle" x="520.185" y="-511.3" font-family="Times New Roman,serif" font-size="14.00">der ref</text>
<text text-anchor="middle" x="520.185" y="-496.3" font-family="Times New Roman,serif" font-size="14.00">42</text>
</g>
<!-- &#45;attrs2 -->
<g id="node15" class="node"><title>&#45;attrs2</title>
<polygon fill="none" stroke="gray" points="260.393,-359 172.393,-359 172.393,-310 266.393,-310 266.393,-353 260.393,-359"/>
<polyline fill="none" stroke="gray" points="260.393,-359 260.393,-353 "/>
<polyline fill="none" stroke="gray" points="266.393,-353 260.393,-353 "/>
<text text-anchor="start" x="182.393" y="-344.5" font-family="Times New Roman,serif" font-size="10.00">value:</text>
<text text-anchor="start" x="209.393" y="-344.5" font-family="Times New Roman,serif" font-size="10.00">[10000, 0, 2]</text>
<text text-anchor="start" x="182.393" y="-331.5" font-family="Times New Roman,serif" font-size="10.00">type:</text>
<text text-anchor="start" x="209.393" y="-331.5" font-family="Times New Roman,serif" font-size="10.00">list</text>
<text text-anchor="start" x="182.393" y="-318.5" font-family="Times New Roman,serif" font-size="10.00">label:</text>
<text text-anchor="start" x="209.393" y="-318.5" font-family="Times New Roman,serif" font-size="10.00">[m, 0, 2]</text>
</g>
<!-- &#45;attrs2&#45;&gt;http://example.org/matrix1 -->
<g id="edge11" class="edge"><title>&#45;attrs2&#45;&gt;http://example.org/matrix1</title>
<path fill="none" stroke="gray" stroke-dasharray="5,2" d="M172.117,-338.878C141.856,-341.741 102.894,-345.427 74.8971,-348.075"/>
</g>
<!-- bn2 -->
<g id="node16" class="node"><title>bn2</title>
<ellipse fill="black" stroke="black" cx="749.685" cy="-467.5" rx="1.8" ry="1.8"/>
</g>
<!-- bn2&#45;&gt;http://example.org/distk#2 -->
<g id="edge13" class="edge"><title>bn2&#45;&gt;http://example.org/distk#2</title>
<path fill="none" stroke="darkgreen" stroke-dasharray="5,2" d="M747.766,-467.66C740.29,-468.958 688.76,-477.904 649.663,-484.691"/>
<polygon fill="darkgreen" stroke="darkgreen" points="648.774,-481.293 639.521,-486.452 649.972,-488.19 648.774,-481.293"/>
</g>
<!-- http://example.org/2 -->
<g id="node18" class="node"><title>http://example.org/2</title>
<g id="a_node18"><a xlink:href="http://example.org/2" xlink:title="2">
<ellipse fill="#fffc87" stroke="#808080" cx="603.685" cy="-433.5" rx="27" ry="18"/>
<text text-anchor="middle" x="603.685" y="-429.8" font-family="Times New Roman,serif" font-size="14.00">2</text>
</a>
</g>
</g>
<!-- bn2&#45;&gt;http://example.org/2 -->
<g id="edge14" class="edge"><title>bn2&#45;&gt;http://example.org/2</title>
<path fill="none" stroke="darkgreen" d="M747.766,-467.283C739.613,-465.358 679.066,-451.062 639.391,-441.694"/>
<polygon fill="darkgreen" stroke="darkgreen" points="640.089,-438.263 629.552,-439.371 638.48,-445.076 640.089,-438.263"/>
<text text-anchor="middle" x="676.685" y="-455.3" font-family="Times New Roman,serif" font-size="14.00">[2]</text>
</g>
<!-- http://example.org/distk@j#3&#45;&gt;bn2 -->
<g id="edge12" class="edge"><title>http://example.org/distk@j#3&#45;&gt;bn2</title>
<path fill="none" stroke="darkgreen" d="M897.77,-408.571C872.605,-422.622 833.039,-443.334 796.685,-456.5 779.391,-462.763 757.143,-466.488 751.851,-467.321"/>
<text text-anchor="middle" x="836.685" y="-468.3" font-family="Times New Roman,serif" font-size="14.00">der ac&#45;r</text>
<text text-anchor="middle" x="836.685" y="-453.3" font-family="Times New Roman,serif" font-size="14.00">50</text>
</g>
<!-- http://example.org/result@0 -->
<g id="node19" class="node"><title>http://example.org/result@0</title>
<g id="a_node19"><a xlink:href="http://example.org/result@0" xlink:title="result@0">
<ellipse fill="#fffc87" stroke="#808080" cx="1726.37" cy="-139.5" rx="42.7926" ry="18"/>
<text text-anchor="middle" x="1726.37" y="-135.8" font-family="Times New Roman,serif" font-size="14.00">result@0</text>
</a>
</g>
</g>
<!-- bn4 -->
<g id="node35" class="node"><title>bn4</title>
<ellipse fill="black" stroke="black" cx="1503.88" cy="-133.5" rx="1.8" ry="1.8"/>
</g>
<!-- http://example.org/result@0&#45;&gt;bn4 -->
<g id="edge29" class="edge"><title>http://example.org/result@0&#45;&gt;bn4</title>
<path fill="none" stroke="darkgreen" d="M1683.38,-138.357C1623.4,-136.725 1519,-133.884 1506.18,-133.535"/>
<text text-anchor="middle" x="1638.38" y="-157.3" font-family="Times New Roman,serif" font-size="14.00">der ac&#45;r</text>
<text text-anchor="middle" x="1638.38" y="-142.3" font-family="Times New Roman,serif" font-size="14.00">96</text>
</g>
<!-- &#45;attrs3 -->
<g id="node20" class="node"><title>&#45;attrs3</title>
<polygon fill="none" stroke="gray" points="1898.87,-164 1823.87,-164 1823.87,-115 1904.87,-115 1904.87,-158 1898.87,-164"/>
<polyline fill="none" stroke="gray" points="1898.87,-164 1898.87,-158 "/>
<polyline fill="none" stroke="gray" points="1904.87,-158 1898.87,-158 "/>
<text text-anchor="start" x="1834.37" y="-149.5" font-family="Times New Roman,serif" font-size="10.00">value:</text>
<text text-anchor="start" x="1861.37" y="-149.5" font-family="Times New Roman,serif" font-size="10.00">[0, 1, 3]</text>
<text text-anchor="start" x="1834.37" y="-136.5" font-family="Times New Roman,serif" font-size="10.00">type:</text>
<text text-anchor="start" x="1861.37" y="-136.5" font-family="Times New Roman,serif" font-size="10.00">access</text>
<text text-anchor="start" x="1834.37" y="-123.5" font-family="Times New Roman,serif" font-size="10.00">label:</text>
<text text-anchor="start" x="1861.37" y="-123.5" font-family="Times New Roman,serif" font-size="10.00">result[0]</text>
</g>
<!-- &#45;attrs3&#45;&gt;http://example.org/result@0 -->
<g id="edge15" class="edge"><title>&#45;attrs3&#45;&gt;http://example.org/result@0</title>
<path fill="none" stroke="gray" stroke-dasharray="5,2" d="M1823.67,-139.5C1806.73,-139.5 1786.95,-139.5 1769.73,-139.5"/>
</g>
<!-- http://example.org/1 -->
<g id="node21" class="node"><title>http://example.org/1</title>
<g id="a_node21"><a xlink:href="http://example.org/1" xlink:title="1">
<ellipse fill="#fffc87" stroke="#808080" cx="603.685" cy="-188.5" rx="27" ry="18"/>
<text text-anchor="middle" x="603.685" y="-184.8" font-family="Times New Roman,serif" font-size="14.00">1</text>
</a>
</g>
</g>
<!-- &#45;attrs4 -->
<g id="node22" class="node"><title>&#45;attrs4</title>
<polygon fill="none" stroke="gray" points="778.185,-205.5 715.185,-205.5 715.185,-169.5 784.185,-169.5 784.185,-199.5 778.185,-205.5"/>
<polyline fill="none" stroke="gray" points="778.185,-205.5 778.185,-199.5 "/>
<polyline fill="none" stroke="gray" points="784.185,-199.5 778.185,-199.5 "/>
<text text-anchor="start" x="725.685" y="-191.5" font-family="Times New Roman,serif" font-size="10.00">value:</text>
<text text-anchor="start" x="752.685" y="-191.5" font-family="Times New Roman,serif" font-size="10.00">1</text>
<text text-anchor="start" x="725.685" y="-178.5" font-family="Times New Roman,serif" font-size="10.00">type:</text>
<text text-anchor="start" x="752.685" y="-178.5" font-family="Times New Roman,serif" font-size="10.00">literal</text>
</g>
<!-- &#45;attrs4&#45;&gt;http://example.org/1 -->
<g id="edge16" class="edge"><title>&#45;attrs4&#45;&gt;http://example.org/1</title>
<path fill="none" stroke="gray" stroke-dasharray="5,2" d="M714.924,-187.734C689.32,-187.912 654.628,-188.153 631.047,-188.317"/>
</g>
<!-- bn3&#45;&gt;http://example.org/disti#3 -->
<g id="edge18" class="edge"><title>bn3&#45;&gt;http://example.org/disti#3</title>
<path fill="none" stroke="darkgreen" stroke-dasharray="5,2" d="M747.723,-226.117C740.279,-230.894 691.056,-262.445 650.685,-287.5 645.919,-290.458 640.86,-293.568 635.907,-296.595"/>
<polygon fill="darkgreen" stroke="darkgreen" points="633.911,-293.713 627.194,-301.906 637.554,-299.69 633.911,-293.713"/>
</g>
<!-- bn3&#45;&gt;http://example.org/1 -->
<g id="edge19" class="edge"><title>bn3&#45;&gt;http://example.org/1</title>
<path fill="none" stroke="darkgreen" d="M747.545,-225.238C742.363,-224.046 720.52,-218.998 702.685,-214.5 681.515,-209.161 657.855,-202.893 639.086,-197.848"/>
<polygon fill="darkgreen" stroke="darkgreen" points="639.776,-194.409 629.209,-195.186 637.953,-201.168 639.776,-194.409"/>
<text text-anchor="middle" x="676.685" y="-214.3" font-family="Times New Roman,serif" font-size="14.00">[1]</text>
</g>
<!-- &#45;attrs5 -->
<g id="node24" class="node"><title>&#45;attrs5</title>
<polygon fill="none" stroke="gray" points="1895.87,-253 1826.87,-253 1826.87,-204 1901.87,-204 1901.87,-247 1895.87,-253"/>
<polyline fill="none" stroke="gray" points="1895.87,-253 1895.87,-247 "/>
<polyline fill="none" stroke="gray" points="1901.87,-247 1895.87,-247 "/>
<text text-anchor="start" x="1837.37" y="-238.5" font-family="Times New Roman,serif" font-size="10.00">value:</text>
<text text-anchor="start" x="1864.37" y="-238.5" font-family="Times New Roman,serif" font-size="10.00">3</text>
<text text-anchor="start" x="1837.37" y="-225.5" font-family="Times New Roman,serif" font-size="10.00">type:</text>
<text text-anchor="start" x="1864.37" y="-225.5" font-family="Times New Roman,serif" font-size="10.00">access</text>
<text text-anchor="start" x="1837.37" y="-212.5" font-family="Times New Roman,serif" font-size="10.00">label:</text>
<text text-anchor="start" x="1864.37" y="-212.5" font-family="Times New Roman,serif" font-size="10.00">disti[j]</text>
</g>
<!-- &#45;attrs5&#45;&gt;http://example.org/disti@j#5 -->
<g id="edge20" class="edge"><title>&#45;attrs5&#45;&gt;http://example.org/disti@j#5</title>
<path fill="none" stroke="gray" stroke-dasharray="5,2" d="M1826.57,-228.5C1809.73,-228.5 1789.64,-228.5 1771.96,-228.5"/>
</g>
<!-- http://example.org/result -->
<g id="node25" class="node"><title>http://example.org/result</title>
<g id="a_node25"><a xlink:href="http://example.org/result" xlink:title="result">
<ellipse fill="#fffc87" stroke="#808080" cx="1267.88" cy="-85.5" rx="30.5947" ry="18"/>
<text text-anchor="middle" x="1267.88" y="-81.8" font-family="Times New Roman,serif" font-size="14.00">result</text>
</a>
</g>
</g>
<!-- http://example.org/matrix -->
<g id="node28" class="node"><title>http://example.org/matrix</title>
<g id="a_node28"><a xlink:href="http://example.org/matrix" xlink:title="matrix">
<ellipse fill="#fffc87" stroke="#808080" cx="1065.38" cy="-47.5" rx="33.2948" ry="18"/>
<text text-anchor="middle" x="1065.38" y="-43.8" font-family="Times New Roman,serif" font-size="14.00">matrix</text>
</a>
</g>
</g>
<!-- http://example.org/result&#45;&gt;http://example.org/matrix -->
<g id="edge37" class="edge"><title>http://example.org/result&#45;&gt;http://example.org/matrix</title>
<path fill="none" stroke="darkgreen" d="M1238.58,-80.1361C1204.19,-73.6194 1145.94,-62.5792 1106.83,-55.1664"/>
<polygon fill="darkgreen" stroke="darkgreen" points="1107.31,-51.6953 1096.83,-53.2719 1106,-58.5728 1107.31,-51.6953"/>
<text text-anchor="middle" x="1139.38" y="-83.3" font-family="Times New Roman,serif" font-size="14.00">der ref</text>
<text text-anchor="middle" x="1139.38" y="-68.3" font-family="Times New Roman,serif" font-size="14.00">6</text>
</g>
<!-- &#45;attrs6 -->
<g id="node26" class="node"><title>&#45;attrs6</title>
<polygon fill="none" stroke="gray" points="1589.88,-108 1411.88,-108 1411.88,-59 1595.88,-59 1595.88,-102 1589.88,-108"/>
<polyline fill="none" stroke="gray" points="1589.88,-108 1589.88,-102 "/>
<polyline fill="none" stroke="gray" points="1595.88,-102 1589.88,-102 "/>
<text text-anchor="start" x="1421.88" y="-93.5" font-family="Times New Roman,serif" font-size="10.00">value:</text>
<text text-anchor="start" x="1448.88" y="-93.5" font-family="Times New Roman,serif" font-size="10.00">[[0, 1, 4], [10000, 0, 2], [2, 10000, 0]]</text>
<text text-anchor="start" x="1421.88" y="-80.5" font-family="Times New Roman,serif" font-size="10.00">type:</text>
<text text-anchor="start" x="1448.88" y="-80.5" font-family="Times New Roman,serif" font-size="10.00">name</text>
<text text-anchor="start" x="1421.88" y="-67.5" font-family="Times New Roman,serif" font-size="10.00">label:</text>
<text text-anchor="start" x="1448.88" y="-67.5" font-family="Times New Roman,serif" font-size="10.00">result</text>
</g>
<!-- &#45;attrs6&#45;&gt;http://example.org/result -->
<g id="edge21" class="edge"><title>&#45;attrs6&#45;&gt;http://example.org/result</title>
<path fill="none" stroke="gray" stroke-dasharray="5,2" d="M1411.74,-84.279C1371.57,-84.6223 1327.12,-85.0022 1298.64,-85.2456"/>
</g>
<!-- &#45;attrs7 -->
<g id="node27" class="node"><title>&#45;attrs7</title>
<polygon fill="none" stroke="gray" points="790.685,-542 702.685,-542 702.685,-493 796.685,-493 796.685,-536 790.685,-542"/>
<polyline fill="none" stroke="gray" points="790.685,-542 790.685,-536 "/>
<polyline fill="none" stroke="gray" points="796.685,-536 790.685,-536 "/>
<text text-anchor="start" x="712.685" y="-527.5" font-family="Times New Roman,serif" font-size="10.00">value:</text>
<text text-anchor="start" x="739.685" y="-527.5" font-family="Times New Roman,serif" font-size="10.00">[10000, 0, 2]</text>
<text text-anchor="start" x="712.685" y="-514.5" font-family="Times New Roman,serif" font-size="10.00">type:</text>
<text text-anchor="start" x="739.685" y="-514.5" font-family="Times New Roman,serif" font-size="10.00">name</text>
<text text-anchor="start" x="712.685" y="-501.5" font-family="Times New Roman,serif" font-size="10.00">label:</text>
<text text-anchor="start" x="739.685" y="-501.5" font-family="Times New Roman,serif" font-size="10.00">distk</text>
</g>
<!-- &#45;attrs7&#45;&gt;http://example.org/distk#2 -->
<g id="edge23" class="edge"><title>&#45;attrs7&#45;&gt;http://example.org/distk#2</title>
<path fill="none" stroke="gray" stroke-dasharray="5,2" d="M702.33,-509.452C681.94,-505.912 658.393,-501.824 639.532,-498.55"/>
</g>
<!-- &#45;attrs8 -->
<g id="node29" class="node"><title>&#45;attrs8</title>
<polygon fill="none" stroke="gray" points="1353.88,-49 1175.88,-49 1175.88,-0 1359.88,-0 1359.88,-43 1353.88,-49"/>
<polyline fill="none" stroke="gray" points="1353.88,-49 1353.88,-43 "/>
<polyline fill="none" stroke="gray" points="1359.88,-43 1353.88,-43 "/>
<text text-anchor="start" x="1185.88" y="-34.5" font-family="Times New Roman,serif" font-size="10.00">value:</text>
<text text-anchor="start" x="1212.88" y="-34.5" font-family="Times New Roman,serif" font-size="10.00">[[0, 1, 4], [10000, 0, 2], [2, 10000, 0]]</text>
<text text-anchor="start" x="1185.88" y="-21.5" font-family="Times New Roman,serif" font-size="10.00">type:</text>
<text text-anchor="start" x="1212.88" y="-21.5" font-family="Times New Roman,serif" font-size="10.00">list</text>
<text text-anchor="start" x="1185.88" y="-8.5" font-family="Times New Roman,serif" font-size="10.00">label:</text>
<text text-anchor="start" x="1212.88" y="-8.5" font-family="Times New Roman,serif" font-size="10.00">[[0, 1, 4], [m, 0, 2], lastrow]</text>
</g>
<!-- &#45;attrs8&#45;&gt;http://example.org/matrix -->
<g id="edge24" class="edge"><title>&#45;attrs8&#45;&gt;http://example.org/matrix</title>
<path fill="none" stroke="gray" stroke-dasharray="5,2" d="M1175.72,-34.9568C1148,-38.1371 1119.34,-41.4247 1098.32,-43.8359"/>
</g>
<!-- http://example.org/matrix0 -->
<g id="node30" class="node"><title>http://example.org/matrix0</title>
<g id="a_node30"><a xlink:href="http://example.org/matrix0" xlink:title="matrix0">
<ellipse fill="#fffc87" stroke="#808080" cx="37.6967" cy="-133.5" rx="37.8943" ry="18"/>
<text text-anchor="middle" x="37.6967" y="-129.8" font-family="Times New Roman,serif" font-size="14.00">matrix0</text>
</a>
</g>
</g>
<!-- &#45;attrs9 -->
<g id="node31" class="node"><title>&#45;attrs9</title>
<polygon fill="none" stroke="gray" points="251.393,-105 181.393,-105 181.393,-56 257.393,-56 257.393,-99 251.393,-105"/>
<polyline fill="none" stroke="gray" points="251.393,-105 251.393,-99 "/>
<polyline fill="none" stroke="gray" points="257.393,-99 251.393,-99 "/>
<text text-anchor="start" x="191.393" y="-90.5" font-family="Times New Roman,serif" font-size="10.00">value:</text>
<text text-anchor="start" x="218.393" y="-90.5" font-family="Times New Roman,serif" font-size="10.00">[0, 1, 4]</text>
<text text-anchor="start" x="191.393" y="-77.5" font-family="Times New Roman,serif" font-size="10.00">type:</text>
<text text-anchor="start" x="218.393" y="-77.5" font-family="Times New Roman,serif" font-size="10.00">list</text>
<text text-anchor="start" x="191.393" y="-64.5" font-family="Times New Roman,serif" font-size="10.00">label:</text>
<text text-anchor="start" x="218.393" y="-64.5" font-family="Times New Roman,serif" font-size="10.00">[0, 1, 4]</text>
</g>
<!-- &#45;attrs9&#45;&gt;http://example.org/matrix0 -->
<g id="edge25" class="edge"><title>&#45;attrs9&#45;&gt;http://example.org/matrix0</title>
<path fill="none" stroke="gray" stroke-dasharray="5,2" d="M181.16,-91.4816C148.366,-101.154 101.134,-115.085 70.1854,-124.213"/>
</g>
<!-- &#45;attrs10 -->
<g id="node32" class="node"><title>&#45;attrs10</title>
<polygon fill="none" stroke="gray" points="781.685,-393 711.685,-393 711.685,-344 787.685,-344 787.685,-387 781.685,-393"/>
<polyline fill="none" stroke="gray" points="781.685,-393 781.685,-387 "/>
<polyline fill="none" stroke="gray" points="787.685,-387 781.685,-387 "/>
<text text-anchor="start" x="721.685" y="-378.5" font-family="Times New Roman,serif" font-size="10.00">value:</text>
<text text-anchor="start" x="748.685" y="-378.5" font-family="Times New Roman,serif" font-size="10.00">[0, 1, 4]</text>
<text text-anchor="start" x="721.685" y="-365.5" font-family="Times New Roman,serif" font-size="10.00">type:</text>
<text text-anchor="start" x="748.685" y="-365.5" font-family="Times New Roman,serif" font-size="10.00">name</text>
<text text-anchor="start" x="721.685" y="-352.5" font-family="Times New Roman,serif" font-size="10.00">label:</text>
<text text-anchor="start" x="748.685" y="-352.5" font-family="Times New Roman,serif" font-size="10.00">disti</text>
</g>
<!-- &#45;attrs10&#45;&gt;http://example.org/disti#3 -->
<g id="edge26" class="edge"><title>&#45;attrs10&#45;&gt;http://example.org/disti#3</title>
<path fill="none" stroke="gray" stroke-dasharray="5,2" d="M711.602,-354.851C686.935,-345.773 655.055,-334.039 632.546,-325.754"/>
</g>
<!-- &#45;attrs11 -->
<g id="node33" class="node"><title>&#45;attrs11</title>
<polygon fill="none" stroke="gray" points="1096.88,-418 1027.88,-418 1027.88,-369 1102.88,-369 1102.88,-412 1096.88,-418"/>
<polyline fill="none" stroke="gray" points="1096.88,-418 1096.88,-412 "/>
<polyline fill="none" stroke="gray" points="1102.88,-412 1096.88,-412 "/>
<text text-anchor="start" x="1038.38" y="-403.5" font-family="Times New Roman,serif" font-size="10.00">value:</text>
<text text-anchor="start" x="1065.38" y="-403.5" font-family="Times New Roman,serif" font-size="10.00">2</text>
<text text-anchor="start" x="1038.38" y="-390.5" font-family="Times New Roman,serif" font-size="10.00">type:</text>
<text text-anchor="start" x="1065.38" y="-390.5" font-family="Times New Roman,serif" font-size="10.00">access</text>
<text text-anchor="start" x="1038.38" y="-377.5" font-family="Times New Roman,serif" font-size="10.00">label:</text>
<text text-anchor="start" x="1065.38" y="-377.5" font-family="Times New Roman,serif" font-size="10.00">distk[j]</text>
</g>
<!-- &#45;attrs11&#45;&gt;http://example.org/distk@j#3 -->
<g id="edge27" class="edge"><title>&#45;attrs11&#45;&gt;http://example.org/distk@j#3</title>
<path fill="none" stroke="gray" stroke-dasharray="5,2" d="M1027.6,-393.5C1010.84,-393.5 990.796,-393.5 972.943,-393.5"/>
</g>
<!-- &#45;attrs12 -->
<g id="node34" class="node"><title>&#45;attrs12</title>
<polygon fill="none" stroke="gray" points="1532.38,-212 1469.38,-212 1469.38,-163 1538.38,-163 1538.38,-206 1532.38,-212"/>
<polyline fill="none" stroke="gray" points="1532.38,-212 1532.38,-206 "/>
<polyline fill="none" stroke="gray" points="1538.38,-206 1532.38,-206 "/>
<text text-anchor="start" x="1479.88" y="-197.5" font-family="Times New Roman,serif" font-size="10.00">value:</text>
<text text-anchor="start" x="1506.88" y="-197.5" font-family="Times New Roman,serif" font-size="10.00">3</text>
<text text-anchor="start" x="1479.88" y="-184.5" font-family="Times New Roman,serif" font-size="10.00">type:</text>
<text text-anchor="start" x="1506.88" y="-184.5" font-family="Times New Roman,serif" font-size="10.00">name</text>
<text text-anchor="start" x="1479.88" y="-171.5" font-family="Times New Roman,serif" font-size="10.00">label:</text>
<text text-anchor="start" x="1506.88" y="-171.5" font-family="Times New Roman,serif" font-size="10.00">ikj</text>
</g>
<!-- &#45;attrs12&#45;&gt;http://example.org/ikj#3 -->
<g id="edge28" class="edge"><title>&#45;attrs12&#45;&gt;http://example.org/ikj#3</title>
<path fill="none" stroke="gray" stroke-dasharray="5,2" d="M1469.35,-188.933C1422.84,-190.92 1339.63,-194.477 1296.49,-196.32"/>
</g>
<!-- bn4&#45;&gt;http://example.org/result -->
<g id="edge30" class="edge"><title>bn4&#45;&gt;http://example.org/result</title>
<path fill="none" stroke="darkgreen" stroke-dasharray="5,2" d="M1501.98,-133.342C1495.02,-132.12 1449.06,-124.001 1411.88,-116.5 1376.17,-109.296 1335.6,-100.437 1306.82,-94.0362"/>
<polygon fill="darkgreen" stroke="darkgreen" points="1307.3,-90.5577 1296.78,-91.797 1305.77,-97.3899 1307.3,-90.5577"/>
</g>
<!-- bn4&#45;&gt;http://example.org/matrix0 -->
<g id="edge31" class="edge"><title>bn4&#45;&gt;http://example.org/matrix0</title>
<path fill="none" stroke="darkgreen" d="M1502.04,-133.5C1490.75,-133.5 1368,-133.5 1268.88,-133.5 1268.88,-133.5 1268.88,-133.5 218.393,-133.5 173.388,-133.5 122.043,-133.5 85.7939,-133.5"/>
<polygon fill="darkgreen" stroke="darkgreen" points="85.5213,-130 75.5212,-133.5 85.5212,-137 85.5213,-130"/>
<text text-anchor="middle" x="749.685" y="-137.3" font-family="Times New Roman,serif" font-size="14.00">[0]</text>
</g>
<!-- &#45;attrs13 -->
<g id="node36" class="node"><title>&#45;attrs13</title>
<polygon fill="none" stroke="gray" points="644.685,-578 556.685,-578 556.685,-529 650.685,-529 650.685,-572 644.685,-578"/>
<polyline fill="none" stroke="gray" points="644.685,-578 644.685,-572 "/>
<polyline fill="none" stroke="gray" points="650.685,-572 644.685,-572 "/>
<text text-anchor="start" x="566.685" y="-563.5" font-family="Times New Roman,serif" font-size="10.00">value:</text>
<text text-anchor="start" x="593.685" y="-563.5" font-family="Times New Roman,serif" font-size="10.00">[10000, 0, 2]</text>
<text text-anchor="start" x="566.685" y="-550.5" font-family="Times New Roman,serif" font-size="10.00">type:</text>
<text text-anchor="start" x="593.685" y="-550.5" font-family="Times New Roman,serif" font-size="10.00">access</text>
<text text-anchor="start" x="566.685" y="-537.5" font-family="Times New Roman,serif" font-size="10.00">label:</text>
<text text-anchor="start" x="593.685" y="-537.5" font-family="Times New Roman,serif" font-size="10.00">dist[k]</text>
</g>
<!-- &#45;attrs13&#45;&gt;http://example.org/dist@k#2 -->
<g id="edge33" class="edge"><title>&#45;attrs13&#45;&gt;http://example.org/dist@k#2</title>
<path fill="none" stroke="gray" stroke-dasharray="5,2" d="M556.454,-543.544C538.999,-539.165 519.148,-533.426 501.685,-526.5 488.607,-521.313 474.771,-514.081 463.394,-507.619"/>
</g>
<!-- bn6 -->
<g id="node43" class="node"><title>bn6</title>
<ellipse fill="black" stroke="black" cx="219.393" cy="-267.5" rx="1.8" ry="1.8"/>
</g>
<!-- http://example.org/dist@i#3&#45;&gt;bn6 -->
<g id="edge43" class="edge"><title>http://example.org/dist@i#3&#45;&gt;bn6</title>
<path fill="none" stroke="darkgreen" d="M393.836,-267.5C334.781,-267.5 234.014,-267.5 221.649,-267.5"/>
<text text-anchor="middle" x="351.393" y="-286.3" font-family="Times New Roman,serif" font-size="14.00">der ac&#45;r</text>
<text text-anchor="middle" x="351.393" y="-271.3" font-family="Times New Roman,serif" font-size="14.00">44</text>
</g>
<!-- &#45;attrs14 -->
<g id="node38" class="node"><title>&#45;attrs14</title>
<polygon fill="none" stroke="gray" points="635.685,-279 565.685,-279 565.685,-230 641.685,-230 641.685,-273 635.685,-279"/>
<polyline fill="none" stroke="gray" points="635.685,-279 635.685,-273 "/>
<polyline fill="none" stroke="gray" points="641.685,-273 635.685,-273 "/>
<text text-anchor="start" x="575.685" y="-264.5" font-family="Times New Roman,serif" font-size="10.00">value:</text>
<text text-anchor="start" x="602.685" y="-264.5" font-family="Times New Roman,serif" font-size="10.00">[0, 1, 4]</text>
<text text-anchor="start" x="575.685" y="-251.5" font-family="Times New Roman,serif" font-size="10.00">type:</text>
<text text-anchor="start" x="602.685" y="-251.5" font-family="Times New Roman,serif" font-size="10.00">access</text>
<text text-anchor="start" x="575.685" y="-238.5" font-family="Times New Roman,serif" font-size="10.00">label:</text>
<text text-anchor="start" x="602.685" y="-238.5" font-family="Times New Roman,serif" font-size="10.00">dist[i]</text>
</g>
<!-- &#45;attrs14&#45;&gt;http://example.org/dist@i#3 -->
<g id="edge34" class="edge"><title>&#45;attrs14&#45;&gt;http://example.org/dist@i#3</title>
<path fill="none" stroke="gray" stroke-dasharray="5,2" d="M565.438,-257.45C540.182,-259.45 506.758,-262.097 480.553,-264.173"/>
</g>
<!-- &#45;attrs15 -->
<g id="node39" class="node"><title>&#45;attrs15</title>
<polygon fill="none" stroke="gray" points="1096.88,-211 1027.88,-211 1027.88,-162 1102.88,-162 1102.88,-205 1096.88,-211"/>
<polyline fill="none" stroke="gray" points="1096.88,-211 1096.88,-205 "/>
<polyline fill="none" stroke="gray" points="1102.88,-205 1096.88,-205 "/>
<text text-anchor="start" x="1038.38" y="-196.5" font-family="Times New Roman,serif" font-size="10.00">value:</text>
<text text-anchor="start" x="1065.38" y="-196.5" font-family="Times New Roman,serif" font-size="10.00">1</text>
<text text-anchor="start" x="1038.38" y="-183.5" font-family="Times New Roman,serif" font-size="10.00">type:</text>
<text text-anchor="start" x="1065.38" y="-183.5" font-family="Times New Roman,serif" font-size="10.00">access</text>
<text text-anchor="start" x="1038.38" y="-170.5" font-family="Times New Roman,serif" font-size="10.00">label:</text>
<text text-anchor="start" x="1065.38" y="-170.5" font-family="Times New Roman,serif" font-size="10.00">disti[k]</text>
</g>
<!-- &#45;attrs15&#45;&gt;http://example.org/disti@k#3 -->
<g id="edge36" class="edge"><title>&#45;attrs15&#45;&gt;http://example.org/disti@k#3</title>
<path fill="none" stroke="gray" stroke-dasharray="5,2" d="M1027.57,-191.607C1015.79,-193.482 1002.73,-195.813 990.877,-198.5 981.462,-200.634 971.399,-203.351 962.07,-206.057"/>
</g>
<!-- &#45;attrs16 -->
<g id="node40" class="node"><title>&#45;attrs16</title>
<polygon fill="none" stroke="gray" points="778.185,-447.5 715.185,-447.5 715.185,-411.5 784.185,-411.5 784.185,-441.5 778.185,-447.5"/>
<polyline fill="none" stroke="gray" points="778.185,-447.5 778.185,-441.5 "/>
<polyline fill="none" stroke="gray" points="784.185,-441.5 778.185,-441.5 "/>
<text text-anchor="start" x="725.685" y="-433.5" font-family="Times New Roman,serif" font-size="10.00">value:</text>
<text text-anchor="start" x="752.685" y="-433.5" font-family="Times New Roman,serif" font-size="10.00">2</text>
<text text-anchor="start" x="725.685" y="-420.5" font-family="Times New Roman,serif" font-size="10.00">type:</text>
<text text-anchor="start" x="752.685" y="-420.5" font-family="Times New Roman,serif" font-size="10.00">literal</text>
</g>
<!-- &#45;attrs16&#45;&gt;http://example.org/2 -->
<g id="edge38" class="edge"><title>&#45;attrs16&#45;&gt;http://example.org/2</title>
<path fill="none" stroke="gray" stroke-dasharray="5,2" d="M714.924,-430.438C689.32,-431.149 654.628,-432.113 631.047,-432.768"/>
</g>
<!-- &#45;attrs17 -->
<g id="node41" class="node"><title>&#45;attrs17</title>
<polygon fill="none" stroke="gray" points="1318.38,-283 1211.38,-283 1211.38,-234 1324.38,-234 1324.38,-277 1318.38,-283"/>
<polyline fill="none" stroke="gray" points="1318.38,-283 1318.38,-277 "/>
<polyline fill="none" stroke="gray" points="1324.38,-277 1318.38,-277 "/>
<text text-anchor="start" x="1221.88" y="-268.5" font-family="Times New Roman,serif" font-size="10.00">value:</text>
<text text-anchor="start" x="1248.88" y="-268.5" font-family="Times New Roman,serif" font-size="10.00">3</text>
<text text-anchor="start" x="1221.88" y="-255.5" font-family="Times New Roman,serif" font-size="10.00">type:</text>
<text text-anchor="start" x="1248.88" y="-255.5" font-family="Times New Roman,serif" font-size="10.00">operation</text>
<text text-anchor="start" x="1221.88" y="-242.5" font-family="Times New Roman,serif" font-size="10.00">label:</text>
<text text-anchor="start" x="1248.88" y="-242.5" font-family="Times New Roman,serif" font-size="10.00">disti[k] + distk[j]</text>
</g>
<!-- &#45;attrs17&#45;&gt;http://example.org/sum#3 -->
<g id="edge39" class="edge"><title>&#45;attrs17&#45;&gt;http://example.org/sum#3</title>
<path fill="none" stroke="gray" stroke-dasharray="5,2" d="M1211.29,-256.559C1175.83,-255.321 1130.99,-253.756 1100.65,-252.697"/>
</g>
<!-- bn5&#45;&gt;http://example.org/disti@j#5 -->
<g id="edge42" class="edge"><title>bn5&#45;&gt;http://example.org/disti@j#5</title>
<path fill="none" stroke="darkgreen" d="M1862.38,-183.748C1857.91,-184.88 1839.08,-189.709 1823.87,-194.5 1806.02,-200.121 1786.53,-206.873 1769.76,-212.872"/>
<polygon fill="darkgreen" stroke="darkgreen" points="1768.46,-209.621 1760.24,-216.304 1770.83,-216.207 1768.46,-209.621"/>
<text text-anchor="middle" x="1797.87" y="-210.3" font-family="Times New Roman,serif" font-size="14.00">[2]</text>
</g>
<!-- bn5&#45;&gt;http://example.org/result@0 -->
<g id="edge41" class="edge"><title>bn5&#45;&gt;http://example.org/result@0</title>
<path fill="none" stroke="darkgreen" stroke-dasharray="5,2" d="M1862.39,-183.249C1857.92,-182.102 1839.1,-177.221 1823.87,-172.5 1805.91,-166.935 1786.26,-160.311 1769.4,-154.462"/>
<polygon fill="darkgreen" stroke="darkgreen" points="1770.42,-151.113 1759.82,-151.122 1768.11,-157.722 1770.42,-151.113"/>
</g>
<!-- bn6&#45;&gt;http://example.org/dist -->
<g id="edge44" class="edge"><title>bn6&#45;&gt;http://example.org/dist</title>
<path fill="none" stroke="darkgreen" stroke-dasharray="5,2" d="M217.385,-267.624C209.605,-268.629 158.595,-276.016 127.393,-300.5 94.6159,-326.22 100.327,-345.121 75.3933,-378.5 70.2869,-385.336 64.4823,-392.531 59.0208,-399.077"/>
<polygon fill="darkgreen" stroke="darkgreen" points="56.1509,-397.05 52.3647,-406.946 61.4953,-401.571 56.1509,-397.05"/>
</g>
<!-- bn6&#45;&gt;http://example.org/matrix0 -->
<g id="edge45" class="edge"><title>bn6&#45;&gt;http://example.org/matrix0</title>
<path fill="none" stroke="darkgreen" d="M217.592,-266.903C208.014,-259.76 114.933,-190.349 66.9679,-154.582"/>
<polygon fill="darkgreen" stroke="darkgreen" points="68.9528,-151.696 58.844,-148.524 64.7683,-157.308 68.9528,-151.696"/>
<text text-anchor="middle" x="101.393" y="-189.3" font-family="Times New Roman,serif" font-size="14.00">[0]</text>
</g>
</g>
</svg>
