<?xml version="1.0" encoding="UTF-8" standalone="no"?>
<!DOCTYPE svg PUBLIC "-//W3C//DTD SVG 1.1//EN"
 "http://www.w3.org/Graphics/SVG/1.1/DTD/svg11.dtd">
<!-- Generated by graphviz version 2.38.0 (20140413.2041)
 -->
<!-- Title: PROV Pages: 1 -->
<svg width="270pt" height="286pt"
 viewBox="0.00 0.00 269.50 286.00" xmlns="http://www.w3.org/2000/svg" xmlns:xlink="http://www.w3.org/1999/xlink">
<g id="graph0" class="graph" transform="scale(1 1) rotate(0) translate(4 282)">
<title>PROV</title>
<polygon fill="white" stroke="none" points="-4,4 -4,-282 265.5,-282 265.5,4 -4,4"/>
<!-- http://example.org/d -->
<g id="node1" class="node"><title>http://example.org/d</title>
<g id="a_node1"><a xlink:href="http://example.org/d" xlink:title="d">
<ellipse fill="#fffc87" stroke="#808080" cx="120" cy="-260" rx="27" ry="18"/>
<text text-anchor="middle" x="120" y="-256.3" font-family="Times New Roman,serif" font-size="14.00">d</text>
</a>
</g>
</g>
<!-- &#45;attrs0 -->
<g id="node2" class="node"><title>&#45;attrs0</title>
<polygon fill="none" stroke="gray" points="124,-206 0,-206 0,-157 130,-157 130,-200 124,-206"/>
<polyline fill="none" stroke="gray" points="124,-206 124,-200 "/>
<polyline fill="none" stroke="gray" points="130,-200 124,-200 "/>
<text text-anchor="start" x="10" y="-191.5" font-family="Times New Roman,serif" font-size="10.00">value:</text>
<text text-anchor="start" x="37" y="-191.5" font-family="Times New Roman,serif" font-size="10.00">[10000, 10001, 10000]</text>
<text text-anchor="start" x="10" y="-178.5" font-family="Times New Roman,serif" font-size="10.00">type:</text>
<text text-anchor="start" x="37" y="-178.5" font-family="Times New Roman,serif" font-size="10.00">script:name</text>
<text text-anchor="start" x="10" y="-165.5" font-family="Times New Roman,serif" font-size="10.00">label:</text>
<text text-anchor="start" x="37" y="-165.5" font-family="Times New Roman,serif" font-size="10.00">d</text>
</g>
<!-- &#45;attrs0&#45;&gt;http://example.org/d -->
<g id="edge1" class="edge"><title>&#45;attrs0&#45;&gt;http://example.org/d</title>
<path fill="none" stroke="gray" stroke-dasharray="5,2" d="M82.1009,-206.286C90.8042,-218.391 101.137,-232.764 108.814,-243.441"/>
</g>
<!-- http://example.org/len_d -->
<g id="node3" class="node"><title>http://example.org/len_d</title>
<g id="a_node3"><a xlink:href="http://example.org/len_d" xlink:title="len_d">
<ellipse fill="#fffc87" stroke="#808080" cx="130" cy="-103" rx="30.5947" ry="18"/>
<text text-anchor="middle" x="130" y="-99.3" font-family="Times New Roman,serif" font-size="14.00">len_d</text>
</a>
</g>
</g>
<!-- http://example.org/call1 -->
<g id="node5" class="node"><title>http://example.org/call1</title>
<g id="a_node5"><a xlink:href="http://example.org/call1" xlink:title="call1">
<polygon fill="#9fb1fc" stroke="#0000ff" points="202,-199.5 148,-199.5 148,-163.5 202,-163.5 202,-199.5"/>
<text text-anchor="middle" x="175" y="-177.8" font-family="Times New Roman,serif" font-size="14.00">call1</text>
</a>
</g>
</g>
<!-- http://example.org/len_d&#45;&gt;http://example.org/call1 -->
<g id="edge5" class="edge"><title>http://example.org/len_d&#45;&gt;http://example.org/call1</title>
<path fill="none" stroke="black" d="M139.543,-120.224C145.406,-130.191 153.05,-143.184 159.738,-154.555"/>
<polygon fill="black" stroke="black" points="156.758,-156.392 164.845,-163.237 162.792,-152.843 156.758,-156.392"/>
<text text-anchor="middle" x="154.543" y="-118.202" font-family="Times New Roman,serif" font-size="8.00">gen</text>
</g>
<!-- &#45;attrs1 -->
<g id="node4" class="node"><title>&#45;attrs1</title>
<polygon fill="none" stroke="gray" points="168.5,-49 85.5,-49 85.5,-0 174.5,-0 174.5,-43 168.5,-49"/>
<polyline fill="none" stroke="gray" points="168.5,-49 168.5,-43 "/>
<polyline fill="none" stroke="gray" points="174.5,-43 168.5,-43 "/>
<text text-anchor="start" x="96" y="-34.5" font-family="Times New Roman,serif" font-size="10.00">value:</text>
<text text-anchor="start" x="123" y="-34.5" font-family="Times New Roman,serif" font-size="10.00">3</text>
<text text-anchor="start" x="96" y="-21.5" font-family="Times New Roman,serif" font-size="10.00">type:</text>
<text text-anchor="start" x="123" y="-21.5" font-family="Times New Roman,serif" font-size="10.00">script:eval</text>
<text text-anchor="start" x="96" y="-8.5" font-family="Times New Roman,serif" font-size="10.00">label:</text>
<text text-anchor="start" x="123" y="-8.5" font-family="Times New Roman,serif" font-size="10.00">len(d)</text>
</g>
<!-- &#45;attrs1&#45;&gt;http://example.org/len_d -->
<g id="edge2" class="edge"><title>&#45;attrs1&#45;&gt;http://example.org/len_d</title>
<path fill="none" stroke="gray" stroke-dasharray="5,2" d="M130,-49.2857C130,-60.6896 130,-74.105 130,-84.5482"/>
</g>
<!-- http://example.org/call1&#45;&gt;http://example.org/d -->
<g id="edge4" class="edge"><title>http://example.org/call1&#45;&gt;http://example.org/d</title>
<path fill="none" stroke="black" d="M162.52,-199.859C154.993,-210.327 145.302,-223.807 137.073,-235.253"/>
<polygon fill="black" stroke="black" points="134.121,-233.364 131.125,-243.526 139.804,-237.45 134.121,-233.364"/>
<text text-anchor="middle" x="168.689" y="-211.632" font-family="Times New Roman,serif" font-size="8.00">use</text>
</g>
<!-- &#45;attrs2 -->
<g id="node6" class="node"><title>&#45;attrs2</title>
<polygon fill="none" stroke="gray" points="255.5,-121 178.5,-121 178.5,-85 261.5,-85 261.5,-115 255.5,-121"/>
<polyline fill="none" stroke="gray" points="255.5,-121 255.5,-115 "/>
<polyline fill="none" stroke="gray" points="261.5,-115 255.5,-115 "/>
<text text-anchor="start" x="189" y="-107" font-family="Times New Roman,serif" font-size="10.00">type:</text>
<text text-anchor="start" x="213" y="-107" font-family="Times New Roman,serif" font-size="10.00">script:call</text>
<text text-anchor="start" x="189" y="-94" font-family="Times New Roman,serif" font-size="10.00">label:</text>
<text text-anchor="start" x="213" y="-94" font-family="Times New Roman,serif" font-size="10.00">len</text>
</g>
<!-- &#45;attrs2&#45;&gt;http://example.org/call1 -->
<g id="edge3" class="edge"><title>&#45;attrs2&#45;&gt;http://example.org/call1</title>
<path fill="none" stroke="gray" stroke-dasharray="5,2" d="M209.789,-121.359C202.372,-133.967 192.386,-150.943 185.016,-163.473"/>
</g>
</g>
</svg>
