<?xml version="1.0" encoding="UTF-8" standalone="no"?>
<!DOCTYPE svg PUBLIC "-//W3C//DTD SVG 1.1//EN"
 "http://www.w3.org/Graphics/SVG/1.1/DTD/svg11.dtd">
<!-- Generated by graphviz version 2.38.0 (20140413.2041)
 -->
<!-- Title: PROV Pages: 1 -->
<svg width="443pt" height="371pt"
 viewBox="0.00 0.00 443.14 371.00" xmlns="http://www.w3.org/2000/svg" xmlns:xlink="http://www.w3.org/1999/xlink">
<g id="graph0" class="graph" transform="scale(1 1) rotate(0) translate(4 367)">
<title>PROV</title>
<polygon fill="white" stroke="none" points="-4,4 -4,-367 439.14,-367 439.14,4 -4,4"/>
<!-- http://example.org/list -->
<g id="node1" class="node"><title>http://example.org/list</title>
<g id="a_node1"><a xlink:href="http://example.org/list" xlink:title="list">
<ellipse fill="#fffc87" stroke="#808080" cx="179" cy="-266.5" rx="27" ry="18"/>
<text text-anchor="middle" x="179" y="-262.8" font-family="Times New Roman,serif" font-size="14.00">list</text>
</a>
</g>
</g>
<!-- http://example.org/list0 -->
<g id="node3" class="node"><title>http://example.org/list0</title>
<g id="a_node3"><a xlink:href="http://example.org/list0" xlink:title="list0">
<ellipse fill="#fffc87" stroke="#808080" cx="98" cy="-345" rx="27" ry="18"/>
<text text-anchor="middle" x="98" y="-341.3" font-family="Times New Roman,serif" font-size="14.00">list0</text>
</a>
</g>
</g>
<!-- http://example.org/list&#45;&gt;http://example.org/list0 -->
<g id="edge5" class="edge"><title>http://example.org/list&#45;&gt;http://example.org/list0</title>
<path fill="none" stroke="black" d="M164.143,-281.531C151.889,-293.105 134.314,-309.704 120.36,-322.883"/>
<polygon fill="black" stroke="black" points="117.904,-320.388 113.037,-329.799 122.71,-325.477 117.904,-320.388"/>
<text text-anchor="middle" x="167.61" y="-294.225" font-family="Times New Roman,serif" font-size="8.00">[ ]</text>
</g>
<!-- http://example.org/list1 -->
<g id="node5" class="node"><title>http://example.org/list1</title>
<g id="a_node5"><a xlink:href="http://example.org/list1" xlink:title="list1">
<ellipse fill="#fffc87" stroke="#808080" cx="259" cy="-345" rx="27" ry="18"/>
<text text-anchor="middle" x="259" y="-341.3" font-family="Times New Roman,serif" font-size="14.00">list1</text>
</a>
</g>
</g>
<!-- http://example.org/list&#45;&gt;http://example.org/list1 -->
<g id="edge6" class="edge"><title>http://example.org/list&#45;&gt;http://example.org/list1</title>
<path fill="none" stroke="black" d="M194.047,-281.889C206.004,-293.322 222.912,-309.491 236.48,-322.465"/>
<polygon fill="black" stroke="black" points="234.374,-325.294 244.02,-329.675 239.212,-320.235 234.374,-325.294"/>
<text text-anchor="middle" x="208.446" y="-275.784" font-family="Times New Roman,serif" font-size="8.00">[ ]</text>
</g>
<!-- http://example.org/list2 -->
<g id="node7" class="node"><title>http://example.org/list2</title>
<g id="a_node7"><a xlink:href="http://example.org/list2" xlink:title="list2">
<ellipse fill="#fffc87" stroke="#808080" cx="385" cy="-345" rx="27" ry="18"/>
<text text-anchor="middle" x="385" y="-341.3" font-family="Times New Roman,serif" font-size="14.00">list2</text>
</a>
</g>
</g>
<!-- http://example.org/list&#45;&gt;http://example.org/list2 -->
<g id="edge7" class="edge"><title>http://example.org/list&#45;&gt;http://example.org/list2</title>
<path fill="none" stroke="black" d="M196.746,-280.473C202.392,-284.215 208.788,-288.074 215,-291 259.672,-312.045 314.782,-327.462 349.912,-336.081"/>
<polygon fill="black" stroke="black" points="349.161,-339.5 359.702,-338.433 350.797,-332.694 349.161,-339.5"/>
<text text-anchor="middle" x="210.141" y="-271.824" font-family="Times New Roman,serif" font-size="8.00">[ ]</text>
</g>
<!-- &#45;attrs0 -->
<g id="node2" class="node"><title>&#45;attrs0</title>
<polygon fill="none" stroke="gray" points="250,-206 126,-206 126,-157 256,-157 256,-200 250,-206"/>
<polyline fill="none" stroke="gray" points="250,-206 250,-200 "/>
<polyline fill="none" stroke="gray" points="256,-200 250,-200 "/>
<text text-anchor="start" x="136" y="-191.5" font-family="Times New Roman,serif" font-size="10.00">value:</text>
<text text-anchor="start" x="163" y="-191.5" font-family="Times New Roman,serif" font-size="10.00">[10000, 10001, 10000]</text>
<text text-anchor="start" x="136" y="-178.5" font-family="Times New Roman,serif" font-size="10.00">type:</text>
<text text-anchor="start" x="163" y="-178.5" font-family="Times New Roman,serif" font-size="10.00">list</text>
<text text-anchor="start" x="136" y="-165.5" font-family="Times New Roman,serif" font-size="10.00">label:</text>
<text text-anchor="start" x="163" y="-165.5" font-family="Times New Roman,serif" font-size="10.00">[m, m + 1, m]</text>
</g>
<!-- &#45;attrs0&#45;&gt;http://example.org/list -->
<g id="edge1" class="edge"><title>&#45;attrs0&#45;&gt;http://example.org/list</title>
<path fill="none" stroke="gray" stroke-dasharray="5,2" d="M187.593,-206.062C185.639,-219.578 183.231,-236.236 181.461,-248.475"/>
</g>
<!-- &#45;attrs1 -->
<g id="node4" class="node"><title>&#45;attrs1</title>
<polygon fill="none" stroke="gray" points="64,-291 0,-291 0,-242 70,-242 70,-285 64,-291"/>
<polyline fill="none" stroke="gray" points="64,-291 64,-285 "/>
<polyline fill="none" stroke="gray" points="70,-285 64,-285 "/>
<text text-anchor="start" x="10" y="-276.5" font-family="Times New Roman,serif" font-size="10.00">value:</text>
<text text-anchor="start" x="37" y="-276.5" font-family="Times New Roman,serif" font-size="10.00">10000</text>
<text text-anchor="start" x="10" y="-263.5" font-family="Times New Roman,serif" font-size="10.00">type:</text>
<text text-anchor="start" x="37" y="-263.5" font-family="Times New Roman,serif" font-size="10.00">item</text>
<text text-anchor="start" x="10" y="-250.5" font-family="Times New Roman,serif" font-size="10.00">label:</text>
<text text-anchor="start" x="37" y="-250.5" font-family="Times New Roman,serif" font-size="10.00">m</text>
</g>
<!-- &#45;attrs1&#45;&gt;http://example.org/list0 -->
<g id="edge2" class="edge"><title>&#45;attrs1&#45;&gt;http://example.org/list0</title>
<path fill="none" stroke="gray" stroke-dasharray="5,2" d="M54.5883,-291.286C64.702,-303.567 76.7371,-318.181 85.5673,-328.903"/>
</g>
<!-- &#45;attrs2 -->
<g id="node6" class="node"><title>&#45;attrs2</title>
<polygon fill="none" stroke="gray" points="288,-291 224,-291 224,-242 294,-242 294,-285 288,-291"/>
<polyline fill="none" stroke="gray" points="288,-291 288,-285 "/>
<polyline fill="none" stroke="gray" points="294,-285 288,-285 "/>
<text text-anchor="start" x="234" y="-276.5" font-family="Times New Roman,serif" font-size="10.00">value:</text>
<text text-anchor="start" x="261" y="-276.5" font-family="Times New Roman,serif" font-size="10.00">10001</text>
<text text-anchor="start" x="234" y="-263.5" font-family="Times New Roman,serif" font-size="10.00">type:</text>
<text text-anchor="start" x="261" y="-263.5" font-family="Times New Roman,serif" font-size="10.00">item</text>
<text text-anchor="start" x="234" y="-250.5" font-family="Times New Roman,serif" font-size="10.00">label:</text>
<text text-anchor="start" x="261" y="-250.5" font-family="Times New Roman,serif" font-size="10.00">m + 1</text>
</g>
<!-- &#45;attrs2&#45;&gt;http://example.org/list1 -->
<g id="edge3" class="edge"><title>&#45;attrs2&#45;&gt;http://example.org/list1</title>
<path fill="none" stroke="gray" stroke-dasharray="5,2" d="M259,-291.286C259,-302.69 259,-316.105 259,-326.548"/>
</g>
<!-- &#45;attrs3 -->
<g id="node8" class="node"><title>&#45;attrs3</title>
<polygon fill="none" stroke="gray" points="414,-291 350,-291 350,-242 420,-242 420,-285 414,-291"/>
<polyline fill="none" stroke="gray" points="414,-291 414,-285 "/>
<polyline fill="none" stroke="gray" points="420,-285 414,-285 "/>
<text text-anchor="start" x="360" y="-276.5" font-family="Times New Roman,serif" font-size="10.00">value:</text>
<text text-anchor="start" x="387" y="-276.5" font-family="Times New Roman,serif" font-size="10.00">10000</text>
<text text-anchor="start" x="360" y="-263.5" font-family="Times New Roman,serif" font-size="10.00">type:</text>
<text text-anchor="start" x="387" y="-263.5" font-family="Times New Roman,serif" font-size="10.00">item</text>
<text text-anchor="start" x="360" y="-250.5" font-family="Times New Roman,serif" font-size="10.00">label:</text>
<text text-anchor="start" x="387" y="-250.5" font-family="Times New Roman,serif" font-size="10.00">m</text>
</g>
<!-- &#45;attrs3&#45;&gt;http://example.org/list2 -->
<g id="edge4" class="edge"><title>&#45;attrs3&#45;&gt;http://example.org/list2</title>
<path fill="none" stroke="gray" stroke-dasharray="5,2" d="M385,-291.286C385,-302.69 385,-316.105 385,-326.548"/>
</g>
<!-- http://example.org/d -->
<g id="node9" class="node"><title>http://example.org/d</title>
<g id="a_node9"><a xlink:href="http://example.org/d" xlink:title="d">
<ellipse fill="#fffc87" stroke="#808080" cx="284" cy="-103" rx="27" ry="18"/>
<text text-anchor="middle" x="284" y="-99.3" font-family="Times New Roman,serif" font-size="14.00">d</text>
</a>
</g>
</g>
<!-- http://example.org/d&#45;&gt;http://example.org/list -->
<g id="edge15" class="edge"><title>http://example.org/d&#45;&gt;http://example.org/list</title>
<path fill="none" stroke="black" d="M284.647,-121.34C284.632,-142.891 281.846,-179.998 265,-206 263.044,-209.02 230.531,-231.117 206.056,-247.505"/>
<polygon fill="black" stroke="black" points="203.845,-244.774 197.474,-253.239 207.734,-250.594 203.845,-244.774"/>
<text text-anchor="middle" x="297.528" y="-127.125" font-family="Times New Roman,serif" font-size="8.00">der</text>
</g>
<!-- http://example.org/d&#45;&gt;http://example.org/list0 -->
<g id="edge9" class="edge"><title>http://example.org/d&#45;&gt;http://example.org/list0</title>
<path fill="none" stroke="black" d="M256.766,-104.045C218.924,-105.719 151.241,-114.862 117,-157 79.7696,-202.817 85.6712,-277.267 92.3361,-316.999"/>
<polygon fill="black" stroke="black" points="88.9226,-317.791 94.1559,-327.004 95.8096,-316.539 88.9226,-317.791"/>
<text text-anchor="middle" x="250.08" y="-115.573" font-family="Times New Roman,serif" font-size="8.00">[ ]</text>
</g>
<!-- http://example.org/d&#45;&gt;http://example.org/list1 -->
<g id="edge10" class="edge"><title>http://example.org/d&#45;&gt;http://example.org/list1</title>
<path fill="none" stroke="black" d="M290.403,-120.598C302.273,-153.976 324.607,-231.147 303,-291 298.729,-302.832 290.539,-313.889 282.372,-322.81"/>
<polygon fill="black" stroke="black" points="279.773,-320.461 275.3,-330.065 284.786,-325.347 279.773,-320.461"/>
<text text-anchor="middle" x="305.113" y="-121.628" font-family="Times New Roman,serif" font-size="8.00">[ ]</text>
</g>
<!-- http://example.org/d&#45;&gt;http://example.org/list2 -->
<g id="edge11" class="edge"><title>http://example.org/d&#45;&gt;http://example.org/list2</title>
<path fill="none" stroke="black" d="M303.807,-115.328C337.123,-135.676 403.253,-181.953 429,-242 437.582,-262.015 436.395,-270.516 429,-291 424.729,-302.832 416.539,-313.889 408.372,-322.81"/>
<polygon fill="black" stroke="black" points="405.773,-320.461 401.3,-330.065 410.786,-325.347 405.773,-320.461"/>
<text text-anchor="middle" x="317.077" y="-106.434" font-family="Times New Roman,serif" font-size="8.00">[ ]</text>
</g>
<!-- http://example.org/assign2 -->
<g id="node11" class="node"><title>http://example.org/assign2</title>
<g id="a_node11"><a xlink:href="http://example.org/assign2" xlink:title="assign2">
<polygon fill="#9fb1fc" stroke="#0000ff" points="70,-199.5 12,-199.5 12,-163.5 70,-163.5 70,-199.5"/>
<text text-anchor="middle" x="41" y="-177.8" font-family="Times New Roman,serif" font-size="14.00">assign2</text>
</a>
</g>
</g>
<!-- http://example.org/d&#45;&gt;http://example.org/assign2 -->
<g id="edge14" class="edge"><title>http://example.org/d&#45;&gt;http://example.org/assign2</title>
<path fill="none" stroke="black" d="M258.109,-108.778C219.362,-116.389 144.388,-132.908 84,-157 82.4246,-157.629 80.8337,-158.302 79.2394,-159.009"/>
<polygon fill="black" stroke="black" points="77.6653,-155.882 70.1537,-163.354 80.6853,-162.197 77.6653,-155.882"/>
<text text-anchor="middle" x="253.321" y="-121.093" font-family="Times New Roman,serif" font-size="8.00">gen</text>
</g>
<!-- &#45;attrs4 -->
<g id="node10" class="node"><title>&#45;attrs4</title>
<polygon fill="none" stroke="gray" points="343,-49 219,-49 219,-0 349,-0 349,-43 343,-49"/>
<polyline fill="none" stroke="gray" points="343,-49 343,-43 "/>
<polyline fill="none" stroke="gray" points="349,-43 343,-43 "/>
<text text-anchor="start" x="229" y="-34.5" font-family="Times New Roman,serif" font-size="10.00">value:</text>
<text text-anchor="start" x="256" y="-34.5" font-family="Times New Roman,serif" font-size="10.00">[10000, 10001, 10000]</text>
<text text-anchor="start" x="229" y="-21.5" font-family="Times New Roman,serif" font-size="10.00">type:</text>
<text text-anchor="start" x="256" y="-21.5" font-family="Times New Roman,serif" font-size="10.00">name</text>
<text text-anchor="start" x="229" y="-8.5" font-family="Times New Roman,serif" font-size="10.00">label:</text>
<text text-anchor="start" x="256" y="-8.5" font-family="Times New Roman,serif" font-size="10.00">d</text>
</g>
<!-- &#45;attrs4&#45;&gt;http://example.org/d -->
<g id="edge8" class="edge"><title>&#45;attrs4&#45;&gt;http://example.org/d</title>
<path fill="none" stroke="gray" stroke-dasharray="5,2" d="M284,-49.2857C284,-60.6896 284,-74.105 284,-84.5482"/>
</g>
<!-- http://example.org/assign2&#45;&gt;http://example.org/list -->
<g id="edge13" class="edge"><title>http://example.org/assign2&#45;&gt;http://example.org/list</title>
<path fill="none" stroke="black" d="M69.5937,-199.698C93.2902,-213.95 126.804,-234.107 150.48,-248.347"/>
<polygon fill="black" stroke="black" points="148.969,-251.522 159.342,-253.677 152.577,-245.524 148.969,-251.522"/>
<text text-anchor="middle" x="82.7161" y="-190.531" font-family="Times New Roman,serif" font-size="8.00">use</text>
</g>
<!-- &#45;attrs5 -->
<g id="node12" class="node"><title>&#45;attrs5</title>
<polygon fill="none" stroke="gray" points="70,-121 6,-121 6,-85 76,-85 76,-115 70,-121"/>
<polyline fill="none" stroke="gray" points="70,-121 70,-115 "/>
<polyline fill="none" stroke="gray" points="76,-115 70,-115 "/>
<text text-anchor="start" x="16" y="-100" font-family="Times New Roman,serif" font-size="10.00">type:</text>
<text text-anchor="start" x="39" y="-100" font-family="Times New Roman,serif" font-size="10.00">assign</text>
</g>
<!-- &#45;attrs5&#45;&gt;http://example.org/assign2 -->
<g id="edge12" class="edge"><title>&#45;attrs5&#45;&gt;http://example.org/assign2</title>
<path fill="none" stroke="gray" stroke-dasharray="5,2" d="M41,-121.359C41,-133.967 41,-150.943 41,-163.473"/>
</g>
</g>
</svg>
