<?xml version="1.0" encoding="UTF-8" standalone="no"?>
<!DOCTYPE svg PUBLIC "-//W3C//DTD SVG 1.1//EN"
 "http://www.w3.org/Graphics/SVG/1.1/DTD/svg11.dtd">
<!-- Generated by graphviz version 2.38.0 (20140413.2041)
 -->
<!-- Title: PROV Pages: 1 -->
<svg width="447pt" height="371pt"
 viewBox="0.00 0.00 447.00 371.00" xmlns="http://www.w3.org/2000/svg" xmlns:xlink="http://www.w3.org/1999/xlink">
<g id="graph0" class="graph" transform="scale(1 1) rotate(0) translate(4 367)">
<title>PROV</title>
<polygon fill="white" stroke="none" points="-4,4 -4,-367 443,-367 443,4 -4,4"/>
<!-- http://example.org/m -->
<g id="node1" class="node"><title>http://example.org/m</title>
<g id="a_node1"><a xlink:href="http://example.org/m" xlink:title="m">
<ellipse fill="#fffc87" stroke="#808080" cx="159.5" cy="-345" rx="27" ry="18"/>
<text text-anchor="middle" x="159.5" y="-341.3" font-family="Times New Roman,serif" font-size="14.00">m</text>
</a>
</g>
</g>
<!-- &#45;attrs0 -->
<g id="node2" class="node"><title>&#45;attrs0</title>
<polygon fill="none" stroke="gray" points="87,-291 0,-291 0,-242 93,-242 93,-285 87,-291"/>
<polyline fill="none" stroke="gray" points="87,-291 87,-285 "/>
<polyline fill="none" stroke="gray" points="93,-285 87,-285 "/>
<text text-anchor="start" x="10.5" y="-276.5" font-family="Times New Roman,serif" font-size="10.00">value:</text>
<text text-anchor="start" x="37.5" y="-276.5" font-family="Times New Roman,serif" font-size="10.00">10000</text>
<text text-anchor="start" x="10.5" y="-263.5" font-family="Times New Roman,serif" font-size="10.00">type:</text>
<text text-anchor="start" x="37.5" y="-263.5" font-family="Times New Roman,serif" font-size="10.00">script:name</text>
<text text-anchor="start" x="10.5" y="-250.5" font-family="Times New Roman,serif" font-size="10.00">label:</text>
<text text-anchor="start" x="37.5" y="-250.5" font-family="Times New Roman,serif" font-size="10.00">m</text>
</g>
<!-- &#45;attrs0&#45;&gt;http://example.org/m -->
<g id="edge1" class="edge"><title>&#45;attrs0&#45;&gt;http://example.org/m</title>
<path fill="none" stroke="gray" stroke-dasharray="5,2" d="M81.3258,-291.077C101.04,-304.423 124.903,-320.578 141.038,-331.501"/>
</g>
<!-- http://example.org/sum -->
<g id="node3" class="node"><title>http://example.org/sum</title>
<g id="a_node3"><a xlink:href="http://example.org/sum" xlink:title="sum">
<ellipse fill="#fffc87" stroke="#808080" cx="323.5" cy="-345" rx="27" ry="18"/>
<text text-anchor="middle" x="323.5" y="-341.3" font-family="Times New Roman,serif" font-size="14.00">sum</text>
</a>
</g>
</g>
<!-- &#45;attrs1 -->
<g id="node4" class="node"><title>&#45;attrs1</title>
<polygon fill="none" stroke="gray" points="362,-291 279,-291 279,-242 368,-242 368,-285 362,-291"/>
<polyline fill="none" stroke="gray" points="362,-291 362,-285 "/>
<polyline fill="none" stroke="gray" points="368,-285 362,-285 "/>
<text text-anchor="start" x="289.5" y="-276.5" font-family="Times New Roman,serif" font-size="10.00">value:</text>
<text text-anchor="start" x="316.5" y="-276.5" font-family="Times New Roman,serif" font-size="10.00">10001</text>
<text text-anchor="start" x="289.5" y="-263.5" font-family="Times New Roman,serif" font-size="10.00">type:</text>
<text text-anchor="start" x="316.5" y="-263.5" font-family="Times New Roman,serif" font-size="10.00">script:eval</text>
<text text-anchor="start" x="289.5" y="-250.5" font-family="Times New Roman,serif" font-size="10.00">label:</text>
<text text-anchor="start" x="316.5" y="-250.5" font-family="Times New Roman,serif" font-size="10.00">m + 1</text>
</g>
<!-- &#45;attrs1&#45;&gt;http://example.org/sum -->
<g id="edge2" class="edge"><title>&#45;attrs1&#45;&gt;http://example.org/sum</title>
<path fill="none" stroke="gray" stroke-dasharray="5,2" d="M323.5,-291.286C323.5,-302.69 323.5,-316.105 323.5,-326.548"/>
</g>
<!-- http://example.org/list -->
<g id="node5" class="node"><title>http://example.org/list</title>
<g id="a_node5"><a xlink:href="http://example.org/list" xlink:title="list">
<ellipse fill="#fffc87" stroke="#808080" cx="295.5" cy="-109.5" rx="27" ry="18"/>
<text text-anchor="middle" x="295.5" y="-105.8" font-family="Times New Roman,serif" font-size="14.00">list</text>
</a>
</g>
</g>
<!-- http://example.org/list0 -->
<g id="node7" class="node"><title>http://example.org/list0</title>
<g id="a_node7"><a xlink:href="http://example.org/list0" xlink:title="list0">
<ellipse fill="#fffc87" stroke="#808080" cx="88.5" cy="-188" rx="27" ry="18"/>
<text text-anchor="middle" x="88.5" y="-184.3" font-family="Times New Roman,serif" font-size="14.00">list0</text>
</a>
</g>
</g>
<!-- http://example.org/list&#45;&gt;http://example.org/list0 -->
<g id="edge7" class="edge"><title>http://example.org/list&#45;&gt;http://example.org/list0</title>
<path fill="none" stroke="black" d="M272.449,-119.137C260.296,-123.647 245.122,-129.208 231.5,-134 184.168,-150.649 171.042,-151.256 124.5,-170 122.673,-170.736 120.806,-171.519 118.932,-172.329"/>
<polygon fill="black" stroke="black" points="117.318,-169.217 109.638,-176.516 120.194,-175.599 117.318,-169.217"/>
<text text-anchor="middle" x="269.929" y="-132.024" font-family="Times New Roman,serif" font-size="8.00">[ ]</text>
</g>
<!-- http://example.org/list1 -->
<g id="node9" class="node"><title>http://example.org/list1</title>
<g id="a_node9"><a xlink:href="http://example.org/list1" xlink:title="list1">
<ellipse fill="#fffc87" stroke="#808080" cx="394.5" cy="-188" rx="27" ry="18"/>
<text text-anchor="middle" x="394.5" y="-184.3" font-family="Times New Roman,serif" font-size="14.00">list1</text>
</a>
</g>
</g>
<!-- http://example.org/list&#45;&gt;http://example.org/list1 -->
<g id="edge8" class="edge"><title>http://example.org/list&#45;&gt;http://example.org/list1</title>
<path fill="none" stroke="black" d="M312.744,-123.825C328.36,-135.892 351.561,-153.82 369.262,-167.498"/>
<polygon fill="black" stroke="black" points="367.4,-170.482 377.453,-173.827 371.68,-164.943 367.4,-170.482"/>
<text text-anchor="middle" x="326.622" y="-116.232" font-family="Times New Roman,serif" font-size="8.00">[ ]</text>
</g>
<!-- http://example.org/list2 -->
<g id="node11" class="node"><title>http://example.org/list2</title>
<g id="a_node11"><a xlink:href="http://example.org/list2" xlink:title="list2">
<ellipse fill="#fffc87" stroke="#808080" cx="160.5" cy="-188" rx="27" ry="18"/>
<text text-anchor="middle" x="160.5" y="-184.3" font-family="Times New Roman,serif" font-size="14.00">list2</text>
</a>
</g>
</g>
<!-- http://example.org/list&#45;&gt;http://example.org/list2 -->
<g id="edge9" class="edge"><title>http://example.org/list&#45;&gt;http://example.org/list2</title>
<path fill="none" stroke="black" d="M275.58,-121.788C252.848,-134.669 215.467,-155.852 189.502,-170.565"/>
<polygon fill="black" stroke="black" points="187.476,-167.691 180.501,-175.666 190.927,-173.781 187.476,-167.691"/>
<text text-anchor="middle" x="275.46" y="-134.887" font-family="Times New Roman,serif" font-size="8.00">[ ]</text>
</g>
<!-- http://example.org/definelist1 -->
<g id="node13" class="node"><title>http://example.org/definelist1</title>
<g id="a_node13"><a xlink:href="http://example.org/definelist1" xlink:title="definelist1">
<polygon fill="#9fb1fc" stroke="#0000ff" points="261,-284.5 188,-284.5 188,-248.5 261,-248.5 261,-284.5"/>
<text text-anchor="middle" x="224.5" y="-262.8" font-family="Times New Roman,serif" font-size="14.00">definelist1</text>
</a>
</g>
</g>
<!-- http://example.org/list&#45;&gt;http://example.org/definelist1 -->
<g id="edge20" class="edge"><title>http://example.org/list&#45;&gt;http://example.org/definelist1</title>
<path fill="none" stroke="black" d="M306.44,-126.28C318.624,-145.987 334.839,-180.244 320.5,-206 317.187,-211.951 289.193,-228.968 264.284,-243.287"/>
<polygon fill="black" stroke="black" points="262.249,-240.418 255.298,-248.415 265.719,-246.498 262.249,-240.418"/>
<text text-anchor="middle" x="321.439" y="-124.221" font-family="Times New Roman,serif" font-size="8.00">gen</text>
</g>
<!-- &#45;attrs2 -->
<g id="node6" class="node"><title>&#45;attrs2</title>
<polygon fill="none" stroke="gray" points="354.5,-49 230.5,-49 230.5,-0 360.5,-0 360.5,-43 354.5,-49"/>
<polyline fill="none" stroke="gray" points="354.5,-49 354.5,-43 "/>
<polyline fill="none" stroke="gray" points="360.5,-43 354.5,-43 "/>
<text text-anchor="start" x="240.5" y="-34.5" font-family="Times New Roman,serif" font-size="10.00">value:</text>
<text text-anchor="start" x="267.5" y="-34.5" font-family="Times New Roman,serif" font-size="10.00">[10000, 10001, 10000]</text>
<text text-anchor="start" x="240.5" y="-21.5" font-family="Times New Roman,serif" font-size="10.00">type:</text>
<text text-anchor="start" x="267.5" y="-21.5" font-family="Times New Roman,serif" font-size="10.00">script:list</text>
<text text-anchor="start" x="240.5" y="-8.5" font-family="Times New Roman,serif" font-size="10.00">label:</text>
<text text-anchor="start" x="267.5" y="-8.5" font-family="Times New Roman,serif" font-size="10.00">[m, m + 1, m]</text>
</g>
<!-- &#45;attrs2&#45;&gt;http://example.org/list -->
<g id="edge3" class="edge"><title>&#45;attrs2&#45;&gt;http://example.org/list</title>
<path fill="none" stroke="gray" stroke-dasharray="5,2" d="M295.5,-49.0625C295.5,-62.5778 295.5,-79.2361 295.5,-91.4752"/>
</g>
<!-- http://example.org/list0&#45;&gt;http://example.org/m -->
<g id="edge13" class="edge"><title>http://example.org/list0&#45;&gt;http://example.org/m</title>
<path fill="none" stroke="black" d="M96.0982,-205.588C108.483,-232.624 133.105,-286.378 147.755,-318.359"/>
<polygon fill="black" stroke="black" points="144.61,-319.898 151.956,-327.532 150.974,-316.982 144.61,-319.898"/>
<text text-anchor="middle" x="111.032" y="-205.097" font-family="Times New Roman,serif" font-size="8.00">der</text>
</g>
<!-- http://example.org/list0&#45;&gt;http://example.org/definelist1 -->
<g id="edge12" class="edge"><title>http://example.org/list0&#45;&gt;http://example.org/definelist1</title>
<path fill="none" stroke="black" d="M108.567,-200.288C128.638,-211.578 160.045,-229.244 185.109,-243.343"/>
<polygon fill="black" stroke="black" points="183.592,-246.505 194.024,-248.357 187.024,-240.404 183.592,-246.505"/>
<text text-anchor="middle" x="121.473" y="-190.743" font-family="Times New Roman,serif" font-size="8.00">gen</text>
</g>
<!-- &#45;attrs3 -->
<g id="node8" class="node"><title>&#45;attrs3</title>
<polygon fill="none" stroke="gray" points="110,-134 27,-134 27,-85 116,-85 116,-128 110,-134"/>
<polyline fill="none" stroke="gray" points="110,-134 110,-128 "/>
<polyline fill="none" stroke="gray" points="116,-128 110,-128 "/>
<text text-anchor="start" x="37.5" y="-119.5" font-family="Times New Roman,serif" font-size="10.00">value:</text>
<text text-anchor="start" x="64.5" y="-119.5" font-family="Times New Roman,serif" font-size="10.00">10000</text>
<text text-anchor="start" x="37.5" y="-106.5" font-family="Times New Roman,serif" font-size="10.00">type:</text>
<text text-anchor="start" x="64.5" y="-106.5" font-family="Times New Roman,serif" font-size="10.00">script:item</text>
<text text-anchor="start" x="37.5" y="-93.5" font-family="Times New Roman,serif" font-size="10.00">label:</text>
<text text-anchor="start" x="64.5" y="-93.5" font-family="Times New Roman,serif" font-size="10.00">m</text>
</g>
<!-- &#45;attrs3&#45;&gt;http://example.org/list0 -->
<g id="edge4" class="edge"><title>&#45;attrs3&#45;&gt;http://example.org/list0</title>
<path fill="none" stroke="gray" stroke-dasharray="5,2" d="M76.7857,-134.286C79.3589,-145.865 82.3929,-159.518 84.7285,-170.028"/>
</g>
<!-- http://example.org/list1&#45;&gt;http://example.org/sum -->
<g id="edge16" class="edge"><title>http://example.org/list1&#45;&gt;http://example.org/sum</title>
<path fill="none" stroke="black" d="M394.81,-206.261C394.498,-227.407 391.675,-263.769 377.5,-291 370.733,-303.999 359.609,-315.734 349.21,-324.838"/>
<polygon fill="black" stroke="black" points="346.934,-322.178 341.484,-331.264 351.41,-327.56 346.934,-322.178"/>
<text text-anchor="middle" x="407.599" y="-212.2" font-family="Times New Roman,serif" font-size="8.00">der</text>
</g>
<!-- http://example.org/list1&#45;&gt;http://example.org/definelist1 -->
<g id="edge15" class="edge"><title>http://example.org/list1&#45;&gt;http://example.org/definelist1</title>
<path fill="none" stroke="black" d="M372.183,-198.348C338.937,-212.291 279.252,-237.396 269.5,-242 268.155,-242.635 266.792,-243.288 265.419,-243.955"/>
<polygon fill="black" stroke="black" points="263.694,-240.904 256.299,-248.491 266.811,-247.171 263.694,-240.904"/>
<text text-anchor="middle" x="370.294" y="-211.328" font-family="Times New Roman,serif" font-size="8.00">gen</text>
</g>
<!-- &#45;attrs4 -->
<g id="node10" class="node"><title>&#45;attrs4</title>
<polygon fill="none" stroke="gray" points="433,-134 350,-134 350,-85 439,-85 439,-128 433,-134"/>
<polyline fill="none" stroke="gray" points="433,-134 433,-128 "/>
<polyline fill="none" stroke="gray" points="439,-128 433,-128 "/>
<text text-anchor="start" x="360.5" y="-119.5" font-family="Times New Roman,serif" font-size="10.00">value:</text>
<text text-anchor="start" x="387.5" y="-119.5" font-family="Times New Roman,serif" font-size="10.00">10001</text>
<text text-anchor="start" x="360.5" y="-106.5" font-family="Times New Roman,serif" font-size="10.00">type:</text>
<text text-anchor="start" x="387.5" y="-106.5" font-family="Times New Roman,serif" font-size="10.00">script:item</text>
<text text-anchor="start" x="360.5" y="-93.5" font-family="Times New Roman,serif" font-size="10.00">label:</text>
<text text-anchor="start" x="387.5" y="-93.5" font-family="Times New Roman,serif" font-size="10.00">m + 1</text>
</g>
<!-- &#45;attrs4&#45;&gt;http://example.org/list1 -->
<g id="edge5" class="edge"><title>&#45;attrs4&#45;&gt;http://example.org/list1</title>
<path fill="none" stroke="gray" stroke-dasharray="5,2" d="M394.5,-134.286C394.5,-145.69 394.5,-159.105 394.5,-169.548"/>
</g>
<!-- http://example.org/list2&#45;&gt;http://example.org/m -->
<g id="edge19" class="edge"><title>http://example.org/list2&#45;&gt;http://example.org/m</title>
<path fill="none" stroke="black" d="M160.389,-206.18C160.217,-232.832 159.885,-284.391 159.678,-316.335"/>
<polygon fill="black" stroke="black" points="156.176,-316.721 159.611,-326.743 163.176,-316.766 156.176,-316.721"/>
<text text-anchor="middle" x="173.331" y="-211.864" font-family="Times New Roman,serif" font-size="8.00">der</text>
</g>
<!-- http://example.org/list2&#45;&gt;http://example.org/definelist1 -->
<g id="edge18" class="edge"><title>http://example.org/list2&#45;&gt;http://example.org/definelist1</title>
<path fill="none" stroke="black" d="M173.144,-204.114C181.787,-214.445 193.447,-228.382 203.473,-240.366"/>
<polygon fill="black" stroke="black" points="200.994,-242.857 210.095,-248.281 206.363,-238.366 200.994,-242.857"/>
<text text-anchor="middle" x="187.92" y="-199.631" font-family="Times New Roman,serif" font-size="8.00">gen</text>
</g>
<!-- &#45;attrs5 -->
<g id="node12" class="node"><title>&#45;attrs5</title>
<polygon fill="none" stroke="gray" points="217,-134 134,-134 134,-85 223,-85 223,-128 217,-134"/>
<polyline fill="none" stroke="gray" points="217,-134 217,-128 "/>
<polyline fill="none" stroke="gray" points="223,-128 217,-128 "/>
<text text-anchor="start" x="144.5" y="-119.5" font-family="Times New Roman,serif" font-size="10.00">value:</text>
<text text-anchor="start" x="171.5" y="-119.5" font-family="Times New Roman,serif" font-size="10.00">10000</text>
<text text-anchor="start" x="144.5" y="-106.5" font-family="Times New Roman,serif" font-size="10.00">type:</text>
<text text-anchor="start" x="171.5" y="-106.5" font-family="Times New Roman,serif" font-size="10.00">script:item</text>
<text text-anchor="start" x="144.5" y="-93.5" font-family="Times New Roman,serif" font-size="10.00">label:</text>
<text text-anchor="start" x="171.5" y="-93.5" font-family="Times New Roman,serif" font-size="10.00">m</text>
</g>
<!-- &#45;attrs5&#45;&gt;http://example.org/list2 -->
<g id="edge6" class="edge"><title>&#45;attrs5&#45;&gt;http://example.org/list2</title>
<path fill="none" stroke="gray" stroke-dasharray="5,2" d="M172.903,-134.286C170.179,-145.865 166.966,-159.518 164.493,-170.028"/>
</g>
<!-- http://example.org/definelist1&#45;&gt;http://example.org/m -->
<g id="edge11" class="edge"><title>http://example.org/definelist1&#45;&gt;http://example.org/m</title>
<path fill="none" stroke="black" d="M203.99,-284.859C194.191,-295.117 182.825,-308.266 173.924,-319.56"/>
<polygon fill="black" stroke="black" points="170.952,-317.684 167.664,-327.756 176.515,-321.933 170.952,-317.684"/>
<text text-anchor="middle" x="208.287" y="-297.33" font-family="Times New Roman,serif" font-size="8.00">use</text>
</g>
<!-- http://example.org/definelist1&#45;&gt;http://example.org/m -->
<g id="edge17" class="edge"><title>http://example.org/definelist1&#45;&gt;http://example.org/m</title>
<path fill="none" stroke="black" d="M215.511,-284.859C207.116,-296.142 194.672,-310.922 183.549,-322.885"/>
<polygon fill="black" stroke="black" points="180.866,-320.627 176.486,-330.274 185.926,-325.464 180.866,-320.627"/>
<text text-anchor="middle" x="221.347" y="-296.777" font-family="Times New Roman,serif" font-size="8.00">use</text>
</g>
<!-- http://example.org/definelist1&#45;&gt;http://example.org/sum -->
<g id="edge14" class="edge"><title>http://example.org/definelist1&#45;&gt;http://example.org/sum</title>
<path fill="none" stroke="black" d="M246.965,-284.859C262.175,-296.613 282.299,-312.163 298.094,-324.368"/>
<polygon fill="black" stroke="black" points="296.312,-327.414 306.365,-330.759 300.592,-321.875 296.312,-327.414"/>
<text text-anchor="middle" x="260.842" y="-277.266" font-family="Times New Roman,serif" font-size="8.00">use</text>
</g>
<!-- &#45;attrs6 -->
<g id="node14" class="node"><title>&#45;attrs6</title>
<polygon fill="none" stroke="gray" points="305,-206 206,-206 206,-170 311,-170 311,-200 305,-206"/>
<polyline fill="none" stroke="gray" points="305,-206 305,-200 "/>
<polyline fill="none" stroke="gray" points="311,-200 305,-200 "/>
<text text-anchor="start" x="216.5" y="-185" font-family="Times New Roman,serif" font-size="10.00">type:</text>
<text text-anchor="start" x="239.5" y="-185" font-family="Times New Roman,serif" font-size="10.00">script:definelist</text>
</g>
<!-- &#45;attrs6&#45;&gt;http://example.org/definelist1 -->
<g id="edge10" class="edge"><title>&#45;attrs6&#45;&gt;http://example.org/definelist1</title>
<path fill="none" stroke="gray" stroke-dasharray="5,2" d="M250.785,-206.359C245.181,-218.967 237.636,-235.943 232.067,-248.473"/>
</g>
</g>
</svg>
