<?xml version="1.0" encoding="UTF-8" standalone="no"?>
<!DOCTYPE svg PUBLIC "-//W3C//DTD SVG 1.1//EN"
 "http://www.w3.org/Graphics/SVG/1.1/DTD/svg11.dtd">
<!-- Generated by graphviz version 2.38.0 (20140413.2041)
 -->
<!-- Title: PROV Pages: 1 -->
<svg width="1000pt" height="250pt"
 viewBox="0.00 0.00 999.57 249.50" xmlns="http://www.w3.org/2000/svg" xmlns:xlink="http://www.w3.org/1999/xlink">
<g id="graph0" class="graph" transform="scale(1 1) rotate(0) translate(4 245.5)">
<title>PROV</title>
<polygon fill="white" stroke="none" points="-4,4 -4,-245.5 995.573,-245.5 995.573,4 -4,4"/>
<!-- http://example.org/sum#12 -->
<g id="node1" class="node"><title>http://example.org/sum#12</title>
<g id="a_node1"><a xlink:href="http://example.org/sum#12" xlink:title="sum#12">
<ellipse fill="#fffc87" stroke="#808080" cx="387.291" cy="-85.5" rx="39.7935" ry="18"/>
<text text-anchor="middle" x="387.291" y="-81.8" font-family="Times New Roman,serif" font-size="14.00">sum#12</text>
</a>
</g>
</g>
<!-- http://example.org/distk_aj#12 -->
<g id="node2" class="node"><title>http://example.org/distk_aj#12</title>
<g id="a_node2"><a xlink:href="http://example.org/distk_aj#12" xlink:title="distk_aj#12">
<ellipse fill="#fffc87" stroke="#808080" cx="256.645" cy="-146.5" rx="52.7911" ry="18"/>
<text text-anchor="middle" x="256.645" y="-142.8" font-family="Times New Roman,serif" font-size="14.00">distk_aj#12</text>
</a>
</g>
</g>
<!-- http://example.org/sum#12&#45;&gt;http://example.org/distk_aj#12 -->
<g id="edge1" class="edge"><title>http://example.org/sum#12&#45;&gt;http://example.org/distk_aj#12</title>
<path fill="none" stroke="black" d="M359.322,-98.2876C341.386,-106.793 317.519,-118.11 297.417,-127.642"/>
<polygon fill="black" stroke="black" points="295.723,-124.571 288.187,-132.018 298.723,-130.896 295.723,-124.571"/>
<text text-anchor="middle" x="358.111" y="-111.339" font-family="Times New Roman,serif" font-size="8.00">der</text>
</g>
<!-- http://example.org/disti_ak#12 -->
<g id="node3" class="node"><title>http://example.org/disti_ak#12</title>
<g id="a_node3"><a xlink:href="http://example.org/disti_ak#12" xlink:title="disti_ak#12">
<ellipse fill="#fffc87" stroke="#808080" cx="256.645" cy="-24.5" rx="52.7911" ry="18"/>
<text text-anchor="middle" x="256.645" y="-20.8" font-family="Times New Roman,serif" font-size="14.00">disti_ak#12</text>
</a>
</g>
</g>
<!-- http://example.org/sum#12&#45;&gt;http://example.org/disti_ak#12 -->
<g id="edge6" class="edge"><title>http://example.org/sum#12&#45;&gt;http://example.org/disti_ak#12</title>
<path fill="none" stroke="black" d="M359.322,-72.7124C341.386,-64.2074 317.519,-52.8905 297.417,-43.3584"/>
<polygon fill="black" stroke="black" points="298.723,-40.1042 288.187,-38.9821 295.723,-46.4291 298.723,-40.1042"/>
<text text-anchor="middle" x="346.98" y="-79.3367" font-family="Times New Roman,serif" font-size="8.00">der</text>
</g>
<!-- http://example.org/list12 -->
<g id="node12" class="node"><title>http://example.org/list12</title>
<g id="a_node12"><a xlink:href="http://example.org/list12" xlink:title="list12">
<ellipse fill="#fffc87" stroke="#808080" cx="129" cy="-169.5" rx="29.795" ry="18"/>
<text text-anchor="middle" x="129" y="-165.8" font-family="Times New Roman,serif" font-size="14.00">list12</text>
</a>
</g>
</g>
<!-- http://example.org/distk_aj#12&#45;&gt;http://example.org/list12 -->
<g id="edge8" class="edge"><title>http://example.org/distk_aj#12&#45;&gt;http://example.org/list12</title>
<path fill="none" stroke="black" d="M209.929,-154.869C196.198,-157.382 181.288,-160.112 168.105,-162.525"/>
<polygon fill="black" stroke="black" points="167.164,-159.139 157.958,-164.382 168.425,-166.024 167.164,-159.139"/>
<text text-anchor="middle" x="204.891" y="-167.097" font-family="Times New Roman,serif" font-size="8.00">der</text>
</g>
<!-- http://example.org/list01 -->
<g id="node4" class="node"><title>http://example.org/list01</title>
<g id="a_node4"><a xlink:href="http://example.org/list01" xlink:title="list01">
<ellipse fill="#fffc87" stroke="#808080" cx="129" cy="-61.5" rx="29.795" ry="18"/>
<text text-anchor="middle" x="129" y="-57.8" font-family="Times New Roman,serif" font-size="14.00">list01</text>
</a>
</g>
</g>
<!-- http://example.org/disti_ak#12&#45;&gt;http://example.org/list01 -->
<g id="edge2" class="edge"><title>http://example.org/disti_ak#12&#45;&gt;http://example.org/list01</title>
<path fill="none" stroke="black" d="M216.235,-36.1055C200.177,-40.8342 181.738,-46.2642 166.042,-50.8863"/>
<polygon fill="black" stroke="black" points="164.781,-47.6091 156.177,-53.7914 166.758,-54.324 164.781,-47.6091"/>
<text text-anchor="middle" x="212.71" y="-48.7855" font-family="Times New Roman,serif" font-size="8.00">der</text>
</g>
<!-- http://example.org/1 -->
<g id="node10" class="node"><title>http://example.org/1</title>
<g id="a_node10"><a xlink:href="http://example.org/1" xlink:title="1">
<ellipse fill="#fffc87" stroke="#808080" cx="27" cy="-101.5" rx="27" ry="18"/>
<text text-anchor="middle" x="27" y="-97.8" font-family="Times New Roman,serif" font-size="14.00">1</text>
</a>
</g>
</g>
<!-- http://example.org/list01&#45;&gt;http://example.org/1 -->
<g id="edge11" class="edge"><title>http://example.org/list01&#45;&gt;http://example.org/1</title>
<path fill="none" stroke="black" d="M103.793,-71.1829C90.6425,-76.443 74.2144,-83.0142 60.0177,-88.6929"/>
<polygon fill="black" stroke="black" points="58.5983,-85.491 50.6135,-92.4546 61.1981,-91.9903 58.5983,-85.491"/>
<text text-anchor="middle" x="101.654" y="-84.1296" font-family="Times New Roman,serif" font-size="8.00">der</text>
</g>
<!-- http://example.org/result_a02 -->
<g id="node5" class="node"><title>http://example.org/result_a02</title>
<g id="a_node5"><a xlink:href="http://example.org/result_a02" xlink:title="result_a02">
<ellipse fill="#fffc87" stroke="#808080" cx="807.478" cy="-178.5" rx="48.1917" ry="18"/>
<text text-anchor="middle" x="807.478" y="-174.8" font-family="Times New Roman,serif" font-size="14.00">result_a02</text>
</a>
</g>
</g>
<!-- http://example.org/disti_aj#14 -->
<g id="node14" class="node"><title>http://example.org/disti_aj#14</title>
<g id="a_node14"><a xlink:href="http://example.org/disti_aj#14" xlink:title="disti_aj#14">
<ellipse fill="#fffc87" stroke="#808080" cx="673.336" cy="-147.5" rx="50.0912" ry="18"/>
<text text-anchor="middle" x="673.336" y="-143.8" font-family="Times New Roman,serif" font-size="14.00">disti_aj#14</text>
</a>
</g>
</g>
<!-- http://example.org/result_a02&#45;&gt;http://example.org/disti_aj#14 -->
<g id="edge19" class="edge"><title>http://example.org/result_a02&#45;&gt;http://example.org/disti_aj#14</title>
<path fill="none" stroke="black" d="M766.113,-169.031C753.412,-166.051 739.209,-162.719 725.843,-159.583"/>
<polygon fill="black" stroke="black" points="726.359,-156.109 715.824,-157.233 724.76,-162.924 726.359,-156.109"/>
<text text-anchor="middle" x="755.844" y="-178.065" font-family="Times New Roman,serif" font-size="8.00">der</text>
</g>
<!-- &#45;attrs0 -->
<g id="node6" class="node"><title>&#45;attrs0</title>
<polygon fill="none" stroke="gray" points="985.573,-203 891.573,-203 891.573,-154 991.573,-154 991.573,-197 985.573,-203"/>
<polyline fill="none" stroke="gray" points="985.573,-203 985.573,-197 "/>
<polyline fill="none" stroke="gray" points="991.573,-197 985.573,-197 "/>
<text text-anchor="start" x="901.573" y="-188.5" font-family="Times New Roman,serif" font-size="10.00">value:</text>
<text text-anchor="start" x="928.573" y="-188.5" font-family="Times New Roman,serif" font-size="10.00">&quot;3&quot;</text>
<text text-anchor="start" x="901.573" y="-175.5" font-family="Times New Roman,serif" font-size="10.00">type:</text>
<text text-anchor="start" x="928.573" y="-175.5" font-family="Times New Roman,serif" font-size="10.00">&quot;access&quot;</text>
<text text-anchor="start" x="901.573" y="-162.5" font-family="Times New Roman,serif" font-size="10.00">label:</text>
<text text-anchor="start" x="928.573" y="-162.5" font-family="Times New Roman,serif" font-size="10.00">&quot;result[0][2]&quot;</text>
</g>
<!-- &#45;attrs0&#45;&gt;http://example.org/result_a02 -->
<g id="edge3" class="edge"><title>&#45;attrs0&#45;&gt;http://example.org/result_a02</title>
<path fill="none" stroke="gray" stroke-dasharray="5,2" d="M891.386,-178.5C879.796,-178.5 867.464,-178.5 855.951,-178.5"/>
</g>
<!-- http://example.org/ikj#12 -->
<g id="node7" class="node"><title>http://example.org/ikj#12</title>
<g id="a_node7"><a xlink:href="http://example.org/ikj#12" xlink:title="ikj#12">
<ellipse fill="#fffc87" stroke="#808080" cx="526.291" cy="-116.5" rx="32.4942" ry="18"/>
<text text-anchor="middle" x="526.291" y="-112.8" font-family="Times New Roman,serif" font-size="14.00">ikj#12</text>
</a>
</g>
</g>
<!-- http://example.org/ikj#12&#45;&gt;http://example.org/sum#12 -->
<g id="edge4" class="edge"><title>http://example.org/ikj#12&#45;&gt;http://example.org/sum#12</title>
<path fill="none" stroke="black" d="M495.901,-109.85C477.658,-105.722 453.849,-100.334 433.266,-95.6768"/>
<polygon fill="black" stroke="black" points="433.985,-92.2511 423.459,-93.4578 432.44,-99.0785 433.985,-92.2511"/>
<text text-anchor="middle" x="485.719" y="-118.965" font-family="Times New Roman,serif" font-size="8.00">der</text>
</g>
<!-- http://example.org/2 -->
<g id="node8" class="node"><title>http://example.org/2</title>
<g id="a_node8"><a xlink:href="http://example.org/2" xlink:title="2">
<ellipse fill="#fffc87" stroke="#808080" cx="27" cy="-182.5" rx="27" ry="18"/>
<text text-anchor="middle" x="27" y="-178.8" font-family="Times New Roman,serif" font-size="14.00">2</text>
</a>
</g>
</g>
<!-- &#45;attrs1 -->
<g id="node9" class="node"><title>&#45;attrs1</title>
<polygon fill="none" stroke="gray" points="162,-241.5 90,-241.5 90,-205.5 168,-205.5 168,-235.5 162,-241.5"/>
<polyline fill="none" stroke="gray" points="162,-241.5 162,-235.5 "/>
<polyline fill="none" stroke="gray" points="168,-235.5 162,-235.5 "/>
<text text-anchor="start" x="100" y="-227.5" font-family="Times New Roman,serif" font-size="10.00">value:</text>
<text text-anchor="start" x="127" y="-227.5" font-family="Times New Roman,serif" font-size="10.00">&quot;2&quot;</text>
<text text-anchor="start" x="100" y="-214.5" font-family="Times New Roman,serif" font-size="10.00">type:</text>
<text text-anchor="start" x="127" y="-214.5" font-family="Times New Roman,serif" font-size="10.00">&quot;literal&quot;</text>
</g>
<!-- &#45;attrs1&#45;&gt;http://example.org/2 -->
<g id="edge5" class="edge"><title>&#45;attrs1&#45;&gt;http://example.org/2</title>
<path fill="none" stroke="gray" stroke-dasharray="5,2" d="M89.909,-207.883C76.5518,-202.406 61.9906,-196.436 50.3476,-191.663"/>
</g>
<!-- &#45;attrs2 -->
<g id="node11" class="node"><title>&#45;attrs2</title>
<polygon fill="none" stroke="gray" points="162,-133.5 90,-133.5 90,-97.5 168,-97.5 168,-127.5 162,-133.5"/>
<polyline fill="none" stroke="gray" points="162,-133.5 162,-127.5 "/>
<polyline fill="none" stroke="gray" points="168,-127.5 162,-127.5 "/>
<text text-anchor="start" x="100" y="-119.5" font-family="Times New Roman,serif" font-size="10.00">value:</text>
<text text-anchor="start" x="127" y="-119.5" font-family="Times New Roman,serif" font-size="10.00">&quot;1&quot;</text>
<text text-anchor="start" x="100" y="-106.5" font-family="Times New Roman,serif" font-size="10.00">type:</text>
<text text-anchor="start" x="127" y="-106.5" font-family="Times New Roman,serif" font-size="10.00">&quot;literal&quot;</text>
</g>
<!-- &#45;attrs2&#45;&gt;http://example.org/1 -->
<g id="edge7" class="edge"><title>&#45;attrs2&#45;&gt;http://example.org/1</title>
<path fill="none" stroke="gray" stroke-dasharray="5,2" d="M89.909,-110.167C77.7661,-108.467 64.6281,-106.628 53.5922,-105.083"/>
</g>
<!-- http://example.org/list12&#45;&gt;http://example.org/2 -->
<g id="edge17" class="edge"><title>http://example.org/list12&#45;&gt;http://example.org/2</title>
<path fill="none" stroke="black" d="M99.6115,-173.191C88.4464,-174.642 75.5009,-176.325 63.7122,-177.857"/>
<polygon fill="black" stroke="black" points="63.1894,-174.396 53.7241,-179.156 64.0919,-181.337 63.1894,-174.396"/>
<text text-anchor="middle" x="93.8487" y="-185.139" font-family="Times New Roman,serif" font-size="8.00">der</text>
</g>
<!-- &#45;attrs3 -->
<g id="node13" class="node"><title>&#45;attrs3</title>
<polygon fill="none" stroke="gray" points="287.145,-232 220.145,-232 220.145,-183 293.145,-183 293.145,-226 287.145,-232"/>
<polyline fill="none" stroke="gray" points="287.145,-232 287.145,-226 "/>
<polyline fill="none" stroke="gray" points="293.145,-226 287.145,-226 "/>
<text text-anchor="start" x="230.645" y="-217.5" font-family="Times New Roman,serif" font-size="10.00">value:</text>
<text text-anchor="start" x="257.645" y="-217.5" font-family="Times New Roman,serif" font-size="10.00">&quot;2&quot;</text>
<text text-anchor="start" x="230.645" y="-204.5" font-family="Times New Roman,serif" font-size="10.00">type:</text>
<text text-anchor="start" x="257.645" y="-204.5" font-family="Times New Roman,serif" font-size="10.00">&quot;item&quot;</text>
<text text-anchor="start" x="230.645" y="-191.5" font-family="Times New Roman,serif" font-size="10.00">label:</text>
<text text-anchor="start" x="257.645" y="-191.5" font-family="Times New Roman,serif" font-size="10.00">&quot;2&quot;</text>
</g>
<!-- &#45;attrs3&#45;&gt;http://example.org/list12 -->
<g id="edge9" class="edge"><title>&#45;attrs3&#45;&gt;http://example.org/list12</title>
<path fill="none" stroke="gray" stroke-dasharray="5,2" d="M219.977,-196.712C199.662,-190.569 174.657,-183.006 156.167,-177.414"/>
</g>
<!-- http://example.org/disti_aj#14&#45;&gt;http://example.org/ikj#12 -->
<g id="edge16" class="edge"><title>http://example.org/disti_aj#14&#45;&gt;http://example.org/ikj#12</title>
<path fill="none" stroke="black" d="M629.993,-138.45C610.056,-134.189 586.414,-129.136 566.843,-124.953"/>
<polygon fill="black" stroke="black" points="567.531,-121.521 557.02,-122.854 566.068,-128.367 567.531,-121.521"/>
<text text-anchor="middle" x="619.944" y="-147.686" font-family="Times New Roman,serif" font-size="8.00">der</text>
</g>
<!-- &#45;attrs4 -->
<g id="node15" class="node"><title>&#45;attrs4</title>
<polygon fill="none" stroke="gray" points="843.478,-142 765.478,-142 765.478,-93 849.478,-93 849.478,-136 843.478,-142"/>
<polyline fill="none" stroke="gray" points="843.478,-142 843.478,-136 "/>
<polyline fill="none" stroke="gray" points="849.478,-136 843.478,-136 "/>
<text text-anchor="start" x="775.478" y="-127.5" font-family="Times New Roman,serif" font-size="10.00">value:</text>
<text text-anchor="start" x="802.478" y="-127.5" font-family="Times New Roman,serif" font-size="10.00">&quot;3&quot;</text>
<text text-anchor="start" x="775.478" y="-114.5" font-family="Times New Roman,serif" font-size="10.00">type:</text>
<text text-anchor="start" x="802.478" y="-114.5" font-family="Times New Roman,serif" font-size="10.00">&quot;access&quot;</text>
<text text-anchor="start" x="775.478" y="-101.5" font-family="Times New Roman,serif" font-size="10.00">label:</text>
<text text-anchor="start" x="802.478" y="-101.5" font-family="Times New Roman,serif" font-size="10.00">&quot;disti[j]&quot;</text>
</g>
<!-- &#45;attrs4&#45;&gt;http://example.org/disti_aj#14 -->
<g id="edge10" class="edge"><title>&#45;attrs4&#45;&gt;http://example.org/disti_aj#14</title>
<path fill="none" stroke="gray" stroke-dasharray="5,2" d="M765.392,-126.828C749.784,-130.371 731.996,-134.409 716.308,-137.971"/>
</g>
<!-- &#45;attrs5 -->
<g id="node16" class="node"><title>&#45;attrs5</title>
<polygon fill="none" stroke="gray" points="287.145,-110 220.145,-110 220.145,-61 293.145,-61 293.145,-104 287.145,-110"/>
<polyline fill="none" stroke="gray" points="287.145,-110 287.145,-104 "/>
<polyline fill="none" stroke="gray" points="293.145,-104 287.145,-104 "/>
<text text-anchor="start" x="230.645" y="-95.5" font-family="Times New Roman,serif" font-size="10.00">value:</text>
<text text-anchor="start" x="257.645" y="-95.5" font-family="Times New Roman,serif" font-size="10.00">&quot;1&quot;</text>
<text text-anchor="start" x="230.645" y="-82.5" font-family="Times New Roman,serif" font-size="10.00">type:</text>
<text text-anchor="start" x="257.645" y="-82.5" font-family="Times New Roman,serif" font-size="10.00">&quot;item&quot;</text>
<text text-anchor="start" x="230.645" y="-69.5" font-family="Times New Roman,serif" font-size="10.00">label:</text>
<text text-anchor="start" x="257.645" y="-69.5" font-family="Times New Roman,serif" font-size="10.00">&quot;1&quot;</text>
</g>
<!-- &#45;attrs5&#45;&gt;http://example.org/list01 -->
<g id="edge12" class="edge"><title>&#45;attrs5&#45;&gt;http://example.org/list01</title>
<path fill="none" stroke="gray" stroke-dasharray="5,2" d="M219.977,-78.6868C200.243,-74.9173 176.082,-70.3023 157.768,-66.804"/>
</g>
<!-- &#45;attrs6 -->
<g id="node17" class="node"><title>&#45;attrs6</title>
<polygon fill="none" stroke="gray" points="423.291,-171 345.291,-171 345.291,-122 429.291,-122 429.291,-165 423.291,-171"/>
<polyline fill="none" stroke="gray" points="423.291,-171 423.291,-165 "/>
<polyline fill="none" stroke="gray" points="429.291,-165 423.291,-165 "/>
<text text-anchor="start" x="355.291" y="-156.5" font-family="Times New Roman,serif" font-size="10.00">value:</text>
<text text-anchor="start" x="382.291" y="-156.5" font-family="Times New Roman,serif" font-size="10.00">&quot;2&quot;</text>
<text text-anchor="start" x="355.291" y="-143.5" font-family="Times New Roman,serif" font-size="10.00">type:</text>
<text text-anchor="start" x="382.291" y="-143.5" font-family="Times New Roman,serif" font-size="10.00">&quot;access&quot;</text>
<text text-anchor="start" x="355.291" y="-130.5" font-family="Times New Roman,serif" font-size="10.00">label:</text>
<text text-anchor="start" x="382.291" y="-130.5" font-family="Times New Roman,serif" font-size="10.00">&quot;distk[j]&quot;</text>
</g>
<!-- &#45;attrs6&#45;&gt;http://example.org/distk_aj#12 -->
<g id="edge13" class="edge"><title>&#45;attrs6&#45;&gt;http://example.org/distk_aj#12</title>
<path fill="none" stroke="gray" stroke-dasharray="5,2" d="M345.233,-146.5C333.909,-146.5 321.473,-146.5 309.618,-146.5"/>
</g>
<!-- &#45;attrs7 -->
<g id="node18" class="node"><title>&#45;attrs7</title>
<polygon fill="none" stroke="gray" points="423.291,-49 345.291,-49 345.291,-0 429.291,-0 429.291,-43 423.291,-49"/>
<polyline fill="none" stroke="gray" points="423.291,-49 423.291,-43 "/>
<polyline fill="none" stroke="gray" points="429.291,-43 423.291,-43 "/>
<text text-anchor="start" x="355.291" y="-34.5" font-family="Times New Roman,serif" font-size="10.00">value:</text>
<text text-anchor="start" x="382.291" y="-34.5" font-family="Times New Roman,serif" font-size="10.00">&quot;1&quot;</text>
<text text-anchor="start" x="355.291" y="-21.5" font-family="Times New Roman,serif" font-size="10.00">type:</text>
<text text-anchor="start" x="382.291" y="-21.5" font-family="Times New Roman,serif" font-size="10.00">&quot;access&quot;</text>
<text text-anchor="start" x="355.291" y="-8.5" font-family="Times New Roman,serif" font-size="10.00">label:</text>
<text text-anchor="start" x="382.291" y="-8.5" font-family="Times New Roman,serif" font-size="10.00">&quot;disti[k]&quot;</text>
</g>
<!-- &#45;attrs7&#45;&gt;http://example.org/disti_ak#12 -->
<g id="edge14" class="edge"><title>&#45;attrs7&#45;&gt;http://example.org/disti_ak#12</title>
<path fill="none" stroke="gray" stroke-dasharray="5,2" d="M345.233,-24.5C333.909,-24.5 321.473,-24.5 309.618,-24.5"/>
</g>
<!-- &#45;attrs8 -->
<g id="node19" class="node"><title>&#45;attrs8</title>
<polygon fill="none" stroke="gray" points="706.336,-111 634.336,-111 634.336,-62 712.336,-62 712.336,-105 706.336,-111"/>
<polyline fill="none" stroke="gray" points="706.336,-111 706.336,-105 "/>
<polyline fill="none" stroke="gray" points="712.336,-105 706.336,-105 "/>
<text text-anchor="start" x="644.336" y="-96.5" font-family="Times New Roman,serif" font-size="10.00">value:</text>
<text text-anchor="start" x="671.336" y="-96.5" font-family="Times New Roman,serif" font-size="10.00">&quot;3&quot;</text>
<text text-anchor="start" x="644.336" y="-83.5" font-family="Times New Roman,serif" font-size="10.00">type:</text>
<text text-anchor="start" x="671.336" y="-83.5" font-family="Times New Roman,serif" font-size="10.00">&quot;name&quot;</text>
<text text-anchor="start" x="644.336" y="-70.5" font-family="Times New Roman,serif" font-size="10.00">label:</text>
<text text-anchor="start" x="671.336" y="-70.5" font-family="Times New Roman,serif" font-size="10.00">&quot;ikj&quot;</text>
</g>
<!-- &#45;attrs8&#45;&gt;http://example.org/ikj#12 -->
<g id="edge15" class="edge"><title>&#45;attrs8&#45;&gt;http://example.org/ikj#12</title>
<path fill="none" stroke="gray" stroke-dasharray="5,2" d="M634.227,-94.3821C610.054,-99.3819 579.24,-105.755 556.905,-110.375"/>
</g>
<!-- &#45;attrs9 -->
<g id="node20" class="node"><title>&#45;attrs9</title>
<polygon fill="none" stroke="gray" points="581.291,-80 465.291,-80 465.291,-31 587.291,-31 587.291,-74 581.291,-80"/>
<polyline fill="none" stroke="gray" points="581.291,-80 581.291,-74 "/>
<polyline fill="none" stroke="gray" points="587.291,-74 581.291,-74 "/>
<text text-anchor="start" x="475.291" y="-65.5" font-family="Times New Roman,serif" font-size="10.00">value:</text>
<text text-anchor="start" x="502.291" y="-65.5" font-family="Times New Roman,serif" font-size="10.00">&quot;3&quot;</text>
<text text-anchor="start" x="475.291" y="-52.5" font-family="Times New Roman,serif" font-size="10.00">type:</text>
<text text-anchor="start" x="502.291" y="-52.5" font-family="Times New Roman,serif" font-size="10.00">&quot;operation&quot;</text>
<text text-anchor="start" x="475.291" y="-39.5" font-family="Times New Roman,serif" font-size="10.00">label:</text>
<text text-anchor="start" x="502.291" y="-39.5" font-family="Times New Roman,serif" font-size="10.00">&quot;disti[k] + distk[j]&quot;</text>
</g>
<!-- &#45;attrs9&#45;&gt;http://example.org/sum#12 -->
<g id="edge18" class="edge"><title>&#45;attrs9&#45;&gt;http://example.org/sum#12</title>
<path fill="none" stroke="gray" stroke-dasharray="5,2" d="M465.2,-68.6584C450.965,-71.7756 436.238,-75.0006 423.528,-77.7837"/>
</g>
</g>
</svg>
