<?xml version="1.0" encoding="UTF-8" standalone="no"?>
<!DOCTYPE svg PUBLIC "-//W3C//DTD SVG 1.1//EN"
 "http://www.w3.org/Graphics/SVG/1.1/DTD/svg11.dtd">
<!-- Generated by graphviz version 2.38.0 (20140413.2041)
 -->
<!-- Title: PROV Pages: 1 -->
<svg width="543pt" height="482pt"
 viewBox="0.00 0.00 543.13 482.00" xmlns="http://www.w3.org/2000/svg" xmlns:xlink="http://www.w3.org/1999/xlink">
<g id="graph0" class="graph" transform="scale(1 1) rotate(0) translate(4 478)">
<title>PROV</title>
<polygon fill="white" stroke="none" points="-4,4 -4,-478 539.133,-478 539.133,4 -4,4"/>
<!-- http://example.org/dist_ak#3 -->
<g id="node1" class="node"><title>http://example.org/dist_ak#3</title>
<g id="a_node1"><a xlink:href="http://example.org/dist_ak#3" xlink:title="dist_ak#3">
<ellipse fill="#fffc87" stroke="#808080" cx="258.841" cy="-266" rx="46.2923" ry="18"/>
<text text-anchor="middle" x="258.841" y="-262.3" font-family="Times New Roman,serif" font-size="14.00">dist_ak#3</text>
</a>
</g>
</g>
<!-- http://example.org/row2 -->
<g id="node3" class="node"><title>http://example.org/row2</title>
<ellipse fill="none" stroke="black" cx="96.8414" cy="-383" rx="96.6831" ry="18"/>
<text text-anchor="middle" x="96.8414" y="-379.3" font-family="Times New Roman,serif" font-size="14.00">http://example.org/row2</text>
</g>
<!-- http://example.org/dist_ak#3&#45;&gt;http://example.org/row2 -->
<g id="edge2" class="edge"><title>http://example.org/dist_ak#3&#45;&gt;http://example.org/row2</title>
<path fill="none" stroke="darkgreen" d="M213.429,-269.212C186,-272.772 151.988,-281.425 128.841,-302 113.657,-315.497 105.578,-337.189 101.338,-354.582"/>
<polygon fill="darkgreen" stroke="darkgreen" points="97.8333,-354.234 99.1652,-364.745 104.679,-355.698 97.8333,-354.234"/>
<text text-anchor="middle" x="210.341" y="-335.8" font-family="Times New Roman,serif" font-size="14.00">part</text>
<text text-anchor="middle" x="210.341" y="-320.8" font-family="Times New Roman,serif" font-size="14.00">list#2[2]</text>
<text text-anchor="middle" x="210.341" y="-305.8" font-family="Times New Roman,serif" font-size="14.00">2018&#45;03&#45;04T18:41:39.124125</text>
</g>
<!-- http://example.org/access90 -->
<g id="node4" class="node"><title>http://example.org/access90</title>
<g id="a_node4"><a xlink:href="http://example.org/access90" xlink:title="access90">
<polygon fill="#9fb1fc" stroke="#0000ff" points="375.841,-401 307.841,-401 307.841,-365 375.841,-365 375.841,-401"/>
<text text-anchor="middle" x="341.841" y="-379.3" font-family="Times New Roman,serif" font-size="14.00">access90</text>
</a>
</g>
</g>
<!-- http://example.org/dist_ak#3&#45;&gt;http://example.org/access90 -->
<g id="edge6" class="edge"><title>http://example.org/dist_ak#3&#45;&gt;http://example.org/access90</title>
<path fill="none" stroke="black" d="M277.596,-282.763C283.798,-288.47 290.477,-295.194 295.841,-302 309.023,-318.724 320.917,-339.647 329.307,-355.901"/>
<polygon fill="black" stroke="black" points="326.199,-357.51 333.825,-364.864 332.449,-354.359 326.199,-357.51"/>
<text text-anchor="middle" x="291.935" y="-276.458" font-family="Times New Roman,serif" font-size="8.00">gen</text>
</g>
<!-- &#45;attrs0 -->
<g id="node2" class="node"><title>&#45;attrs0</title>
<polygon fill="none" stroke="gray" points="429.341,-182 354.341,-182 354.341,-146 435.341,-146 435.341,-176 429.341,-182"/>
<polyline fill="none" stroke="gray" points="429.341,-182 429.341,-176 "/>
<polyline fill="none" stroke="gray" points="435.341,-176 429.341,-176 "/>
<text text-anchor="start" x="364.841" y="-168" font-family="Times New Roman,serif" font-size="10.00">type:</text>
<text text-anchor="start" x="388.841" y="-168" font-family="Times New Roman,serif" font-size="10.00">&quot;access&quot;</text>
<text text-anchor="start" x="364.841" y="-155" font-family="Times New Roman,serif" font-size="10.00">label:</text>
<text text-anchor="start" x="388.841" y="-155" font-family="Times New Roman,serif" font-size="10.00">&quot;dist[k]&quot;</text>
</g>
<!-- &#45;attrs0&#45;&gt;http://example.org/dist_ak#3 -->
<g id="edge1" class="edge"><title>&#45;attrs0&#45;&gt;http://example.org/dist_ak#3</title>
<path fill="none" stroke="gray" stroke-dasharray="5,2" d="M371.462,-182.191C345.64,-201.177 304.45,-231.464 279.689,-249.671"/>
</g>
<!-- http://example.org/dist -->
<g id="node6" class="node"><title>http://example.org/dist</title>
<ellipse fill="none" stroke="black" cx="240.841" cy="-456" rx="91.784" ry="18"/>
<text text-anchor="middle" x="240.841" y="-452.3" font-family="Times New Roman,serif" font-size="14.00">http://example.org/dist</text>
</g>
<!-- http://example.org/access90&#45;&gt;http://example.org/dist -->
<g id="edge4" class="edge"><title>http://example.org/access90&#45;&gt;http://example.org/dist</title>
<path fill="none" stroke="black" d="M317.649,-401.006C304.185,-410.471 287.258,-422.37 272.724,-432.587"/>
<polygon fill="black" stroke="black" points="270.656,-429.763 264.488,-438.377 274.681,-435.49 270.656,-429.763"/>
<text text-anchor="middle" x="318.984" y="-414.047" font-family="Times New Roman,serif" font-size="8.00">use</text>
</g>
<!-- http://example.org/k#3 -->
<g id="node7" class="node"><title>http://example.org/k#3</title>
<ellipse fill="none" stroke="black" cx="442.841" cy="-456" rx="92.0841" ry="18"/>
<text text-anchor="middle" x="442.841" y="-452.3" font-family="Times New Roman,serif" font-size="14.00">http://example.org/k#3</text>
</g>
<!-- http://example.org/access90&#45;&gt;http://example.org/k#3 -->
<g id="edge5" class="edge"><title>http://example.org/access90&#45;&gt;http://example.org/k#3</title>
<path fill="none" stroke="black" d="M366.033,-401.006C379.498,-410.471 396.424,-422.37 410.958,-432.587"/>
<polygon fill="black" stroke="black" points="409.002,-435.49 419.195,-438.377 413.027,-429.763 409.002,-435.49"/>
<text text-anchor="middle" x="379.64" y="-392.792" font-family="Times New Roman,serif" font-size="8.00">use</text>
</g>
<!-- &#45;attrs1 -->
<g id="node5" class="node"><title>&#45;attrs1</title>
<polygon fill="none" stroke="gray" points="396.841,-284 322.841,-284 322.841,-248 402.841,-248 402.841,-278 396.841,-284"/>
<polyline fill="none" stroke="gray" points="396.841,-284 396.841,-278 "/>
<polyline fill="none" stroke="gray" points="402.841,-278 396.841,-278 "/>
<text text-anchor="start" x="332.841" y="-263" font-family="Times New Roman,serif" font-size="10.00">type:</text>
<text text-anchor="start" x="355.841" y="-263" font-family="Times New Roman,serif" font-size="10.00">&quot;access&quot;</text>
</g>
<!-- &#45;attrs1&#45;&gt;http://example.org/access90 -->
<g id="edge3" class="edge"><title>&#45;attrs1&#45;&gt;http://example.org/access90</title>
<path fill="none" stroke="gray" stroke-dasharray="5,2" d="M359.652,-284.466C355.682,-306.207 348.944,-343.105 344.992,-364.746"/>
</g>
<!-- http://example.org/distk#3 -->
<g id="node8" class="node"><title>http://example.org/distk#3</title>
<g id="a_node8"><a xlink:href="http://example.org/distk#3" xlink:title="distk#3">
<ellipse fill="#fffc87" stroke="#808080" cx="223.841" cy="-91" rx="37.8943" ry="18"/>
<text text-anchor="middle" x="223.841" y="-87.3" font-family="Times New Roman,serif" font-size="14.00">distk#3</text>
</a>
</g>
</g>
<!-- http://example.org/distk#3&#45;&gt;http://example.org/dist_ak#3 -->
<g id="edge11" class="edge"><title>http://example.org/distk#3&#45;&gt;http://example.org/dist_ak#3</title>
<path fill="none" stroke="black" d="M227.325,-109.22C233.431,-139.402 246.107,-202.057 253.386,-238.033"/>
<polygon fill="black" stroke="black" points="249.958,-238.742 255.372,-247.849 256.819,-237.354 249.958,-238.742"/>
<text text-anchor="middle" x="241.545" y="-112.096" font-family="Times New Roman,serif" font-size="8.00">der</text>
</g>
<!-- http://example.org/distk#3&#45;&gt;http://example.org/row2 -->
<g id="edge8" class="edge"><title>http://example.org/distk#3&#45;&gt;http://example.org/row2</title>
<path fill="none" stroke="darkgreen" d="M195.984,-103.256C161.193,-119.024 103.277,-151.33 78.8414,-200 53.5779,-250.318 71.9506,-318.253 85.6287,-355.256"/>
<polygon fill="darkgreen" stroke="darkgreen" points="82.458,-356.761 89.322,-364.832 88.989,-354.242 82.458,-356.761"/>
<text text-anchor="middle" x="160.341" y="-218.8" font-family="Times New Roman,serif" font-size="14.00">access</text>
<text text-anchor="middle" x="160.341" y="-203.8" font-family="Times New Roman,serif" font-size="14.00">2018&#45;03&#45;04T18:41:39.124125</text>
</g>
<!-- http://example.org/assign34 -->
<g id="node10" class="node"><title>http://example.org/assign34</title>
<g id="a_node10"><a xlink:href="http://example.org/assign34" xlink:title="assign34">
<polygon fill="#9fb1fc" stroke="#0000ff" points="336.341,-182 271.341,-182 271.341,-146 336.341,-146 336.341,-182"/>
<text text-anchor="middle" x="303.841" y="-160.3" font-family="Times New Roman,serif" font-size="14.00">assign34</text>
</a>
</g>
</g>
<!-- http://example.org/distk#3&#45;&gt;http://example.org/assign34 -->
<g id="edge12" class="edge"><title>http://example.org/distk#3&#45;&gt;http://example.org/assign34</title>
<path fill="none" stroke="black" d="M241.2,-107.406C251.58,-116.618 264.993,-128.522 276.743,-138.95"/>
<polygon fill="black" stroke="black" points="274.751,-141.862 284.554,-145.882 279.398,-136.627 274.751,-141.862"/>
<text text-anchor="middle" x="255.432" y="-100.768" font-family="Times New Roman,serif" font-size="8.00">gen</text>
</g>
<!-- &#45;attrs2 -->
<g id="node9" class="node"><title>&#45;attrs2</title>
<polygon fill="none" stroke="gray" points="255.341,-36 186.341,-36 186.341,-0 261.341,-0 261.341,-30 255.341,-36"/>
<polyline fill="none" stroke="gray" points="255.341,-36 255.341,-30 "/>
<polyline fill="none" stroke="gray" points="261.341,-30 255.341,-30 "/>
<text text-anchor="start" x="196.841" y="-22" font-family="Times New Roman,serif" font-size="10.00">type:</text>
<text text-anchor="start" x="220.841" y="-22" font-family="Times New Roman,serif" font-size="10.00">&quot;name&quot;</text>
<text text-anchor="start" x="196.841" y="-9" font-family="Times New Roman,serif" font-size="10.00">label:</text>
<text text-anchor="start" x="220.841" y="-9" font-family="Times New Roman,serif" font-size="10.00">&quot;distk&quot;</text>
</g>
<!-- &#45;attrs2&#45;&gt;http://example.org/distk#3 -->
<g id="edge7" class="edge"><title>&#45;attrs2&#45;&gt;http://example.org/distk#3</title>
<path fill="none" stroke="gray" stroke-dasharray="5,2" d="M223.841,-36.1871C223.841,-47.3501 223.841,-61.8398 223.841,-72.9712"/>
</g>
<!-- http://example.org/assign34&#45;&gt;http://example.org/dist_ak#3 -->
<g id="edge10" class="edge"><title>http://example.org/assign34&#45;&gt;http://example.org/dist_ak#3</title>
<path fill="none" stroke="black" d="M296.003,-182.419C288.992,-198 278.616,-221.057 270.608,-238.851"/>
<polygon fill="black" stroke="black" points="267.352,-237.559 266.44,-248.114 273.735,-240.431 267.352,-237.559"/>
<text text-anchor="middle" x="304.771" y="-192.689" font-family="Times New Roman,serif" font-size="8.00">use</text>
</g>
<!-- &#45;attrs3 -->
<g id="node11" class="node"><title>&#45;attrs3</title>
<polygon fill="none" stroke="gray" points="352.341,-109 279.341,-109 279.341,-73 358.341,-73 358.341,-103 352.341,-109"/>
<polyline fill="none" stroke="gray" points="352.341,-109 352.341,-103 "/>
<polyline fill="none" stroke="gray" points="358.341,-103 352.341,-103 "/>
<text text-anchor="start" x="289.841" y="-88" font-family="Times New Roman,serif" font-size="10.00">type:</text>
<text text-anchor="start" x="312.841" y="-88" font-family="Times New Roman,serif" font-size="10.00">&quot;assign&quot;</text>
</g>
<!-- &#45;attrs3&#45;&gt;http://example.org/assign34 -->
<g id="edge9" class="edge"><title>&#45;attrs3&#45;&gt;http://example.org/assign34</title>
<path fill="none" stroke="gray" stroke-dasharray="5,2" d="M315.21,-109.187C312.852,-120.35 309.791,-134.84 307.439,-145.971"/>
</g>
</g>
</svg>
