<?xml version="1.0" encoding="UTF-8" standalone="no"?>
<!DOCTYPE svg PUBLIC "-//W3C//DTD SVG 1.1//EN"
 "http://www.w3.org/Graphics/SVG/1.1/DTD/svg11.dtd">
<!-- Generated by graphviz version 2.38.0 (20140413.2041)
 -->
<!-- Title: PROV Pages: 1 -->
<svg width="412pt" height="307pt"
 viewBox="0.00 0.00 411.94 307.00" xmlns="http://www.w3.org/2000/svg" xmlns:xlink="http://www.w3.org/1999/xlink">
<g id="graph0" class="graph" transform="scale(1 1) rotate(0) translate(4 303)">
<title>PROV</title>
<polygon fill="white" stroke="none" points="-4,4 -4,-303 407.941,-303 407.941,4 -4,4"/>
<!-- http://example.org/j -->
<g id="node1" class="node"><title>http://example.org/j</title>
<g id="a_node1"><a xlink:href="http://example.org/j" xlink:title="j">
<ellipse fill="#fffc87" stroke="#808080" cx="220.941" cy="-91" rx="27" ry="18"/>
<text text-anchor="middle" x="220.941" y="-87.3" font-family="Times New Roman,serif" font-size="14.00">j</text>
</a>
</g>
</g>
<!-- http://example.org/v0#2 -->
<g id="node3" class="node"><title>http://example.org/v0#2</title>
<ellipse fill="none" stroke="black" cx="250.941" cy="-208" rx="96.6831" ry="18"/>
<text text-anchor="middle" x="250.941" y="-204.3" font-family="Times New Roman,serif" font-size="14.00">http://example.org/v0#2</text>
</g>
<!-- http://example.org/j&#45;&gt;http://example.org/v0#2 -->
<g id="edge2" class="edge"><title>http://example.org/j&#45;&gt;http://example.org/v0#2</title>
<path fill="none" stroke="darkgreen" d="M225.367,-108.969C230.264,-127.739 238.219,-158.233 243.957,-180.23"/>
<polygon fill="darkgreen" stroke="darkgreen" points="240.585,-181.169 246.496,-189.962 247.358,-179.402 240.585,-181.169"/>
<text text-anchor="middle" x="322.441" y="-160.8" font-family="Times New Roman,serif" font-size="14.00">part</text>
<text text-anchor="middle" x="322.441" y="-145.8" font-family="Times New Roman,serif" font-size="14.00">v_range[0]</text>
<text text-anchor="middle" x="322.441" y="-130.8" font-family="Times New Roman,serif" font-size="14.00">2018&#45;03&#45;04T18:41:30.329324</text>
</g>
<!-- http://example.org/access5 -->
<g id="node4" class="node"><title>http://example.org/access5</title>
<g id="a_node4"><a xlink:href="http://example.org/access5" xlink:title="access5">
<polygon fill="#9fb1fc" stroke="#0000ff" points="136.441,-226 75.4406,-226 75.4406,-190 136.441,-190 136.441,-226"/>
<text text-anchor="middle" x="105.941" y="-204.3" font-family="Times New Roman,serif" font-size="14.00">access5</text>
</a>
</g>
</g>
<!-- http://example.org/j&#45;&gt;http://example.org/access5 -->
<g id="edge5" class="edge"><title>http://example.org/j&#45;&gt;http://example.org/access5</title>
<path fill="none" stroke="black" d="M206.376,-106.565C187.179,-125.762 153.148,-159.793 130.075,-182.865"/>
<polygon fill="black" stroke="black" points="127.598,-180.393 123.002,-189.939 132.548,-185.342 127.598,-180.393"/>
<text text-anchor="middle" x="210.258" y="-119.154" font-family="Times New Roman,serif" font-size="8.00">gen</text>
</g>
<!-- &#45;attrs0 -->
<g id="node2" class="node"><title>&#45;attrs0</title>
<polygon fill="none" stroke="gray" points="252.441,-36 183.441,-36 183.441,-0 258.441,-0 258.441,-30 252.441,-36"/>
<polyline fill="none" stroke="gray" points="252.441,-36 252.441,-30 "/>
<polyline fill="none" stroke="gray" points="258.441,-30 252.441,-30 "/>
<text text-anchor="start" x="193.941" y="-22" font-family="Times New Roman,serif" font-size="10.00">type:</text>
<text text-anchor="start" x="217.941" y="-22" font-family="Times New Roman,serif" font-size="10.00">&quot;name&quot;</text>
<text text-anchor="start" x="193.941" y="-9" font-family="Times New Roman,serif" font-size="10.00">label:</text>
<text text-anchor="start" x="217.941" y="-9" font-family="Times New Roman,serif" font-size="10.00">&quot;j&quot;</text>
</g>
<!-- &#45;attrs0&#45;&gt;http://example.org/j -->
<g id="edge1" class="edge"><title>&#45;attrs0&#45;&gt;http://example.org/j</title>
<path fill="none" stroke="gray" stroke-dasharray="5,2" d="M220.941,-36.1871C220.941,-47.3501 220.941,-61.8398 220.941,-72.9712"/>
</g>
<!-- http://example.org/indexes -->
<g id="node6" class="node"><title>http://example.org/indexes</title>
<ellipse fill="none" stroke="black" cx="105.941" cy="-281" rx="105.881" ry="18"/>
<text text-anchor="middle" x="105.941" y="-277.3" font-family="Times New Roman,serif" font-size="14.00">http://example.org/indexes</text>
</g>
<!-- http://example.org/access5&#45;&gt;http://example.org/indexes -->
<g id="edge4" class="edge"><title>http://example.org/access5&#45;&gt;http://example.org/indexes</title>
<path fill="none" stroke="black" d="M105.941,-226.187C105.941,-234.211 105.941,-243.953 105.941,-252.931"/>
<polygon fill="black" stroke="black" points="102.441,-252.971 105.941,-262.971 109.441,-252.971 102.441,-252.971"/>
<text text-anchor="middle" x="118.931" y="-231.787" font-family="Times New Roman,serif" font-size="8.00">use</text>
</g>
<!-- &#45;attrs1 -->
<g id="node5" class="node"><title>&#45;attrs1</title>
<polygon fill="none" stroke="gray" points="139.941,-109 65.9406,-109 65.9406,-73 145.941,-73 145.941,-103 139.941,-109"/>
<polyline fill="none" stroke="gray" points="139.941,-109 139.941,-103 "/>
<polyline fill="none" stroke="gray" points="145.941,-103 139.941,-103 "/>
<text text-anchor="start" x="75.9406" y="-88" font-family="Times New Roman,serif" font-size="10.00">type:</text>
<text text-anchor="start" x="98.9406" y="-88" font-family="Times New Roman,serif" font-size="10.00">&quot;access&quot;</text>
</g>
<!-- &#45;attrs1&#45;&gt;http://example.org/access5 -->
<g id="edge3" class="edge"><title>&#45;attrs1&#45;&gt;http://example.org/access5</title>
<path fill="none" stroke="gray" stroke-dasharray="5,2" d="M105.941,-109.466C105.941,-131.207 105.941,-168.105 105.941,-189.746"/>
</g>
</g>
</svg>
