<?xml version="1.0" encoding="UTF-8" standalone="no"?>
<!DOCTYPE svg PUBLIC "-//W3C//DTD SVG 1.1//EN"
 "http://www.w3.org/Graphics/SVG/1.1/DTD/svg11.dtd">
<!-- Generated by graphviz version 2.38.0 (20140413.2041)
 -->
<!-- Title: PROV Pages: 1 -->
<svg width="415pt" height="307pt"
 viewBox="0.00 0.00 414.94 307.00" xmlns="http://www.w3.org/2000/svg" xmlns:xlink="http://www.w3.org/1999/xlink">
<g id="graph0" class="graph" transform="scale(1 1) rotate(0) translate(4 303)">
<title>PROV</title>
<polygon fill="white" stroke="none" points="-4,4 -4,-303 410.941,-303 410.941,4 -4,4"/>
<!-- http://example.org/j#5 -->
<g id="node1" class="node"><title>http://example.org/j#5</title>
<g id="a_node1"><a xlink:href="http://example.org/j#5" xlink:title="j#5">
<ellipse fill="#fffc87" stroke="#808080" cx="222.941" cy="-91" rx="27" ry="18"/>
<text text-anchor="middle" x="222.941" y="-87.3" font-family="Times New Roman,serif" font-size="14.00">j#5</text>
</a>
</g>
</g>
<!-- http://example.org/v1#2 -->
<g id="node3" class="node"><title>http://example.org/v1#2</title>
<ellipse fill="none" stroke="black" cx="254.941" cy="-208" rx="96.6831" ry="18"/>
<text text-anchor="middle" x="254.941" y="-204.3" font-family="Times New Roman,serif" font-size="14.00">http://example.org/v1#2</text>
</g>
<!-- http://example.org/j#5&#45;&gt;http://example.org/v1#2 -->
<g id="edge2" class="edge"><title>http://example.org/j#5&#45;&gt;http://example.org/v1#2</title>
<path fill="none" stroke="darkgreen" d="M227.662,-108.969C232.885,-127.739 241.371,-158.233 247.492,-180.23"/>
<polygon fill="darkgreen" stroke="darkgreen" points="244.147,-181.266 250.2,-189.962 250.891,-179.389 244.147,-181.266"/>
<text text-anchor="middle" x="325.441" y="-160.8" font-family="Times New Roman,serif" font-size="14.00">part</text>
<text text-anchor="middle" x="325.441" y="-145.8" font-family="Times New Roman,serif" font-size="14.00">v_range[1]</text>
<text text-anchor="middle" x="325.441" y="-130.8" font-family="Times New Roman,serif" font-size="14.00">2018&#45;03&#45;05T15:04:27.625748</text>
</g>
<!-- http://example.org/access23 -->
<g id="node4" class="node"><title>http://example.org/access23</title>
<g id="a_node4"><a xlink:href="http://example.org/access23" xlink:title="access23">
<polygon fill="#9fb1fc" stroke="#0000ff" points="139.941,-226 71.9406,-226 71.9406,-190 139.941,-190 139.941,-226"/>
<text text-anchor="middle" x="105.941" y="-204.3" font-family="Times New Roman,serif" font-size="14.00">access23</text>
</a>
</g>
</g>
<!-- http://example.org/j#5&#45;&gt;http://example.org/access23 -->
<g id="edge5" class="edge"><title>http://example.org/j#5&#45;&gt;http://example.org/access23</title>
<path fill="none" stroke="black" d="M208.122,-106.565C188.592,-125.762 153.969,-159.793 130.495,-182.865"/>
<polygon fill="black" stroke="black" points="127.977,-180.433 123.299,-189.939 132.884,-185.425 127.977,-180.433"/>
<text text-anchor="middle" x="211.88" y="-119.187" font-family="Times New Roman,serif" font-size="8.00">gen</text>
</g>
<!-- &#45;attrs0 -->
<g id="node2" class="node"><title>&#45;attrs0</title>
<polygon fill="none" stroke="gray" points="254.441,-36 185.441,-36 185.441,-0 260.441,-0 260.441,-30 254.441,-36"/>
<polyline fill="none" stroke="gray" points="254.441,-36 254.441,-30 "/>
<polyline fill="none" stroke="gray" points="260.441,-30 254.441,-30 "/>
<text text-anchor="start" x="195.941" y="-22" font-family="Times New Roman,serif" font-size="10.00">type:</text>
<text text-anchor="start" x="219.941" y="-22" font-family="Times New Roman,serif" font-size="10.00">&quot;name&quot;</text>
<text text-anchor="start" x="195.941" y="-9" font-family="Times New Roman,serif" font-size="10.00">label:</text>
<text text-anchor="start" x="219.941" y="-9" font-family="Times New Roman,serif" font-size="10.00">&quot;j&quot;</text>
</g>
<!-- &#45;attrs0&#45;&gt;http://example.org/j#5 -->
<g id="edge1" class="edge"><title>&#45;attrs0&#45;&gt;http://example.org/j#5</title>
<path fill="none" stroke="gray" stroke-dasharray="5,2" d="M222.941,-36.1871C222.941,-47.3501 222.941,-61.8398 222.941,-72.9712"/>
</g>
<!-- http://example.org/indexes -->
<g id="node6" class="node"><title>http://example.org/indexes</title>
<ellipse fill="none" stroke="black" cx="105.941" cy="-281" rx="105.881" ry="18"/>
<text text-anchor="middle" x="105.941" y="-277.3" font-family="Times New Roman,serif" font-size="14.00">http://example.org/indexes</text>
</g>
<!-- http://example.org/access23&#45;&gt;http://example.org/indexes -->
<g id="edge4" class="edge"><title>http://example.org/access23&#45;&gt;http://example.org/indexes</title>
<path fill="none" stroke="black" d="M105.941,-226.187C105.941,-234.211 105.941,-243.953 105.941,-252.931"/>
<polygon fill="black" stroke="black" points="102.441,-252.971 105.941,-262.971 109.441,-252.971 102.441,-252.971"/>
<text text-anchor="middle" x="118.931" y="-231.787" font-family="Times New Roman,serif" font-size="8.00">use</text>
</g>
<!-- &#45;attrs1 -->
<g id="node5" class="node"><title>&#45;attrs1</title>
<polygon fill="none" stroke="gray" points="139.941,-109 65.9406,-109 65.9406,-73 145.941,-73 145.941,-103 139.941,-109"/>
<polyline fill="none" stroke="gray" points="139.941,-109 139.941,-103 "/>
<polyline fill="none" stroke="gray" points="145.941,-103 139.941,-103 "/>
<text text-anchor="start" x="75.9406" y="-88" font-family="Times New Roman,serif" font-size="10.00">type:</text>
<text text-anchor="start" x="98.9406" y="-88" font-family="Times New Roman,serif" font-size="10.00">&quot;access&quot;</text>
</g>
<!-- &#45;attrs1&#45;&gt;http://example.org/access23 -->
<g id="edge3" class="edge"><title>&#45;attrs1&#45;&gt;http://example.org/access23</title>
<path fill="none" stroke="gray" stroke-dasharray="5,2" d="M105.941,-109.466C105.941,-131.207 105.941,-168.105 105.941,-189.746"/>
</g>
</g>
</svg>
