<?xml version="1.0" encoding="UTF-8" standalone="no"?>
<!DOCTYPE svg PUBLIC "-//W3C//DTD SVG 1.1//EN"
 "http://www.w3.org/Graphics/SVG/1.1/DTD/svg11.dtd">
<!-- Generated by graphviz version 2.38.0 (20140413.2041)
 -->
<!-- Title: PROV Pages: 1 -->
<svg width="876pt" height="542pt"
 viewBox="0.00 0.00 875.93 542.00" xmlns="http://www.w3.org/2000/svg" xmlns:xlink="http://www.w3.org/1999/xlink">
<g id="graph0" class="graph" transform="scale(1 1) rotate(0) translate(4 538)">
<title>PROV</title>
<polygon fill="white" stroke="none" points="-4,4 -4,-538 871.933,-538 871.933,4 -4,4"/>
<!-- http://example.org/disti_ak#5 -->
<g id="node1" class="node"><title>http://example.org/disti_ak#5</title>
<g id="a_node1"><a xlink:href="http://example.org/disti_ak#5" xlink:title="disti_ak#5">
<ellipse fill="#fafafa" stroke="#f0f0f0" cx="219.691" cy="-344" rx="48.1917" ry="18"/>
<text text-anchor="middle" x="219.691" y="-340.3" font-family="Times New Roman,serif" font-size="14.00" fill="#f0f0f0">disti_ak#5</text>
</a>
</g>
</g>
<!-- http://example.org/v4 -->
<g id="node2" class="node"><title>http://example.org/v4</title>
<ellipse fill="none" stroke="black" cx="127.691" cy="-443" rx="87.1846" ry="18"/>
<text text-anchor="middle" x="127.691" y="-439.3" font-family="Times New Roman,serif" font-size="14.00">http://example.org/v4</text>
</g>
<!-- http://example.org/disti_ak#5&#45;&gt;http://example.org/v4 -->
<g id="edge1" class="edge"><title>http://example.org/disti_ak#5&#45;&gt;http://example.org/v4</title>
<path fill="none" stroke="green" d="M174.944,-350.936C157.185,-355.729 138.458,-364.383 127.691,-380 120.814,-389.974 119.984,-403.161 121.213,-414.809"/>
<polygon fill="green" stroke="green" points="117.795,-415.602 122.806,-424.936 124.71,-414.514 117.795,-415.602"/>
<text text-anchor="middle" x="182.191" y="-400.6" font-family="Times New Roman,serif" font-size="8.00" fill="green">part</text>
<text text-anchor="middle" x="182.191" y="-391.6" font-family="Times New Roman,serif" font-size="8.00" fill="green">row0[2]</text>
<text text-anchor="middle" x="182.191" y="-382.6" font-family="Times New Roman,serif" font-size="8.00" fill="green">2018&#45;03&#45;10T01:40:17.385107</text>
</g>
<!-- http://example.org/access41 -->
<g id="node3" class="node"><title>http://example.org/access41</title>
<g id="a_node3"><a xlink:href="http://example.org/access41" xlink:title="access41">
<polygon fill="#9fb1fc" stroke="#0000ff" points="300.691,-461 232.691,-461 232.691,-425 300.691,-425 300.691,-461"/>
<text text-anchor="middle" x="266.691" y="-439.3" font-family="Times New Roman,serif" font-size="14.00">access41</text>
</a>
</g>
</g>
<!-- http://example.org/disti_ak#5&#45;&gt;http://example.org/access41 -->
<g id="edge5" class="edge"><title>http://example.org/disti_ak#5&#45;&gt;http://example.org/access41</title>
<path fill="none" stroke="black" d="M230.445,-361.814C233.896,-367.492 237.618,-373.931 240.691,-380 246.424,-391.321 251.977,-404.208 256.468,-415.29"/>
<polygon fill="black" stroke="black" points="253.326,-416.86 260.27,-424.862 259.832,-414.277 253.326,-416.86"/>
<text text-anchor="middle" x="245.442" y="-359.614" font-family="Times New Roman,serif" font-size="8.00">gen</text>
</g>
<!-- http://example.org/disti#5 -->
<g id="node5" class="node"><title>http://example.org/disti#5</title>
<ellipse fill="none" stroke="black" cx="102.691" cy="-516" rx="102.882" ry="18"/>
<text text-anchor="middle" x="102.691" y="-512.3" font-family="Times New Roman,serif" font-size="14.00">http://example.org/disti#5</text>
</g>
<!-- http://example.org/access41&#45;&gt;http://example.org/disti#5 -->
<g id="edge3" class="edge"><title>http://example.org/access41&#45;&gt;http://example.org/disti#5</title>
<path fill="none" stroke="black" d="M232.311,-458.884C208.052,-469.386 175.283,-483.573 148.763,-495.054"/>
<polygon fill="black" stroke="black" points="147.089,-491.965 139.303,-499.15 149.87,-498.389 147.089,-491.965"/>
<text text-anchor="middle" x="230.589" y="-471.885" font-family="Times New Roman,serif" font-size="8.00">use</text>
</g>
<!-- http://example.org/k#3 -->
<g id="node6" class="node"><title>http://example.org/k#3</title>
<ellipse fill="none" stroke="black" cx="315.691" cy="-516" rx="92.0841" ry="18"/>
<text text-anchor="middle" x="315.691" y="-512.3" font-family="Times New Roman,serif" font-size="14.00">http://example.org/k#3</text>
</g>
<!-- http://example.org/access41&#45;&gt;http://example.org/k#3 -->
<g id="edge4" class="edge"><title>http://example.org/access41&#45;&gt;http://example.org/k#3</title>
<path fill="none" stroke="black" d="M278.552,-461.187C284.451,-469.734 291.695,-480.231 298.214,-489.677"/>
<polygon fill="black" stroke="black" points="295.378,-491.729 303.939,-497.971 301.139,-487.753 295.378,-491.729"/>
<text text-anchor="middle" x="293.504" y="-458.081" font-family="Times New Roman,serif" font-size="8.00">use</text>
</g>
<!-- &#45;attrs0 -->
<g id="node4" class="node"><title>&#45;attrs0</title>
<polygon fill="none" stroke="gray" points="351.191,-362 286.191,-362 286.191,-326 357.191,-326 357.191,-356 351.191,-362"/>
<polyline fill="none" stroke="gray" points="351.191,-362 351.191,-356 "/>
<polyline fill="none" stroke="gray" points="357.191,-356 351.191,-356 "/>
<text text-anchor="start" x="296.691" y="-341" font-family="Times New Roman,serif" font-size="10.00">type:</text>
<text text-anchor="start" x="319.691" y="-341" font-family="Times New Roman,serif" font-size="10.00">access</text>
</g>
<!-- &#45;attrs0&#45;&gt;http://example.org/access41 -->
<g id="edge2" class="edge"><title>&#45;attrs0&#45;&gt;http://example.org/access41</title>
<path fill="none" stroke="gray" stroke-dasharray="5,2" d="M311.858,-362.342C301.847,-379.998 286.419,-407.207 276.439,-424.808"/>
</g>
<!-- http://example.org/distk_aj#5 -->
<g id="node7" class="node"><title>http://example.org/distk_aj#5</title>
<g id="a_node7"><a xlink:href="http://example.org/distk_aj#5" xlink:title="distk_aj#5">
<ellipse fill="#fafafa" stroke="#f0f0f0" cx="423.691" cy="-344" rx="48.1917" ry="18"/>
<text text-anchor="middle" x="423.691" y="-340.3" font-family="Times New Roman,serif" font-size="14.00" fill="#f0f0f0">distk_aj#5</text>
</a>
</g>
</g>
<!-- http://example.org/v10000 -->
<g id="node8" class="node"><title>http://example.org/v10000</title>
<ellipse fill="none" stroke="black" cx="423.691" cy="-443" rx="104.782" ry="18"/>
<text text-anchor="middle" x="423.691" y="-439.3" font-family="Times New Roman,serif" font-size="14.00">http://example.org/v10000</text>
</g>
<!-- http://example.org/distk_aj#5&#45;&gt;http://example.org/v10000 -->
<g id="edge6" class="edge"><title>http://example.org/distk_aj#5&#45;&gt;http://example.org/v10000</title>
<path fill="none" stroke="green" d="M423.691,-362.342C423.691,-376.825 423.691,-397.737 423.691,-414.501"/>
<polygon fill="green" stroke="green" points="420.191,-414.808 423.691,-424.808 427.191,-414.809 420.191,-414.808"/>
<text text-anchor="middle" x="478.191" y="-400.6" font-family="Times New Roman,serif" font-size="8.00" fill="green">part</text>
<text text-anchor="middle" x="478.191" y="-391.6" font-family="Times New Roman,serif" font-size="8.00" fill="green">vlist[1]</text>
<text text-anchor="middle" x="478.191" y="-382.6" font-family="Times New Roman,serif" font-size="8.00" fill="green">2018&#45;03&#45;10T01:40:17.385607</text>
</g>
<!-- http://example.org/access42 -->
<g id="node9" class="node"><title>http://example.org/access42</title>
<g id="a_node9"><a xlink:href="http://example.org/access42" xlink:title="access42">
<polygon fill="#9fb1fc" stroke="#0000ff" points="614.691,-461 546.691,-461 546.691,-425 614.691,-425 614.691,-461"/>
<text text-anchor="middle" x="580.691" y="-439.3" font-family="Times New Roman,serif" font-size="14.00">access42</text>
</a>
</g>
</g>
<!-- http://example.org/distk_aj#5&#45;&gt;http://example.org/access42 -->
<g id="edge10" class="edge"><title>http://example.org/distk_aj#5&#45;&gt;http://example.org/access42</title>
<path fill="none" stroke="black" d="M467.483,-351.646C489.786,-356.662 516.401,-365.3 536.691,-380 549.592,-389.347 560.109,-403.663 567.622,-416.184"/>
<polygon fill="black" stroke="black" points="564.579,-417.913 572.553,-424.888 570.669,-414.462 564.579,-417.913"/>
<text text-anchor="middle" x="477.779" y="-338.838" font-family="Times New Roman,serif" font-size="8.00">gen</text>
</g>
<!-- http://example.org/distk#3 -->
<g id="node11" class="node"><title>http://example.org/distk#3</title>
<ellipse fill="none" stroke="black" cx="555.691" cy="-516" rx="105.082" ry="18"/>
<text text-anchor="middle" x="555.691" y="-512.3" font-family="Times New Roman,serif" font-size="14.00">http://example.org/distk#3</text>
</g>
<!-- http://example.org/access42&#45;&gt;http://example.org/distk#3 -->
<g id="edge8" class="edge"><title>http://example.org/access42&#45;&gt;http://example.org/distk#3</title>
<path fill="none" stroke="black" d="M574.639,-461.187C571.753,-469.385 568.234,-479.377 565.016,-488.515"/>
<polygon fill="black" stroke="black" points="561.707,-487.376 561.687,-497.971 568.31,-489.701 561.707,-487.376"/>
<text text-anchor="middle" x="584.401" y="-470.676" font-family="Times New Roman,serif" font-size="8.00">use</text>
</g>
<!-- http://example.org/j#14 -->
<g id="node12" class="node"><title>http://example.org/j#14</title>
<ellipse fill="none" stroke="black" cx="773.691" cy="-516" rx="94.4839" ry="18"/>
<text text-anchor="middle" x="773.691" y="-512.3" font-family="Times New Roman,serif" font-size="14.00">http://example.org/j#14</text>
</g>
<!-- http://example.org/access42&#45;&gt;http://example.org/j#14 -->
<g id="edge9" class="edge"><title>http://example.org/access42&#45;&gt;http://example.org/j#14</title>
<path fill="none" stroke="black" d="M614.751,-456.53C644.595,-467.509 688.401,-483.624 722.47,-496.157"/>
<polygon fill="black" stroke="black" points="721.658,-499.588 732.251,-499.755 724.075,-493.018 721.658,-499.588"/>
<text text-anchor="middle" x="626.275" y="-445.028" font-family="Times New Roman,serif" font-size="8.00">use</text>
</g>
<!-- &#45;attrs1 -->
<g id="node10" class="node"><title>&#45;attrs1</title>
<polygon fill="none" stroke="gray" points="610.191,-362 545.191,-362 545.191,-326 616.191,-326 616.191,-356 610.191,-362"/>
<polyline fill="none" stroke="gray" points="610.191,-362 610.191,-356 "/>
<polyline fill="none" stroke="gray" points="616.191,-356 610.191,-356 "/>
<text text-anchor="start" x="555.691" y="-341" font-family="Times New Roman,serif" font-size="10.00">type:</text>
<text text-anchor="start" x="578.691" y="-341" font-family="Times New Roman,serif" font-size="10.00">access</text>
</g>
<!-- &#45;attrs1&#45;&gt;http://example.org/access42 -->
<g id="edge7" class="edge"><title>&#45;attrs1&#45;&gt;http://example.org/access42</title>
<path fill="none" stroke="gray" stroke-dasharray="5,2" d="M580.691,-362.342C580.691,-379.998 580.691,-407.207 580.691,-424.808"/>
</g>
<!-- http://example.org/sum#5 -->
<g id="node13" class="node"><title>http://example.org/sum#5</title>
<g id="a_node13"><a xlink:href="http://example.org/sum#5" xlink:title="sum#5">
<ellipse fill="#fafafa" stroke="#f0f0f0" cx="428.691" cy="-181" rx="35.194" ry="18"/>
<text text-anchor="middle" x="428.691" y="-177.3" font-family="Times New Roman,serif" font-size="14.00" fill="#f0f0f0">sum#5</text>
</a>
</g>
</g>
<!-- http://example.org/sum#5&#45;&gt;http://example.org/disti_ak#5 -->
<g id="edge15" class="edge"><title>http://example.org/sum#5&#45;&gt;http://example.org/disti_ak#5</title>
<path fill="none" stroke="black" d="M406.144,-195.064C394.875,-201.616 381.042,-209.693 368.691,-217 341.926,-232.835 333.149,-233.793 308.691,-253 283.285,-272.951 257.711,-299.665 240.538,-318.796"/>
<polygon fill="black" stroke="black" points="237.733,-316.685 233.718,-326.49 242.971,-321.329 237.733,-316.685"/>
<text text-anchor="middle" x="406.193" y="-208.164" font-family="Times New Roman,serif" font-size="8.00">der</text>
</g>
<!-- http://example.org/sum#5&#45;&gt;http://example.org/distk_aj#5 -->
<g id="edge16" class="edge"><title>http://example.org/sum#5&#45;&gt;http://example.org/distk_aj#5</title>
<path fill="none" stroke="black" d="M425.177,-199.015C424.162,-204.707 423.193,-211.103 422.691,-217 419.802,-250.949 420.799,-290.227 422.022,-315.785"/>
<polygon fill="black" stroke="black" points="418.53,-316.039 422.549,-325.842 425.521,-315.672 418.53,-316.039"/>
<text text-anchor="middle" x="436.678" y="-206.746" font-family="Times New Roman,serif" font-size="8.00">der</text>
</g>
<!-- http://example.org/vsum#5 -->
<g id="node14" class="node"><title>http://example.org/vsum#5</title>
<g id="a_node14"><a xlink:href="http://example.org/vsum#5" xlink:title="vsum#5">
<ellipse fill="darkgreen" stroke="green" cx="626.691" cy="-271" rx="39.7935" ry="18"/>
<text text-anchor="middle" x="626.691" y="-267.3" font-family="Times New Roman,serif" font-size="14.00" fill="green">vsum#5</text>
</a>
</g>
</g>
<!-- http://example.org/sum#5&#45;&gt;http://example.org/vsum#5 -->
<g id="edge12" class="edge"><title>http://example.org/sum#5&#45;&gt;http://example.org/vsum#5</title>
<path fill="none" stroke="green" d="M425.401,-199.412C424.286,-210.938 425.065,-225.605 433.691,-235 452.598,-255.593 526.642,-264.168 577.32,-267.67"/>
<polygon fill="green" stroke="green" points="577.231,-271.171 587.436,-268.324 577.682,-264.186 577.231,-271.171"/>
<text text-anchor="middle" x="488.191" y="-228.6" font-family="Times New Roman,serif" font-size="8.00" fill="green">defined</text>
<text text-anchor="middle" x="488.191" y="-219.6" font-family="Times New Roman,serif" font-size="8.00" fill="green">2018&#45;03&#45;10T01:40:17.385607</text>
</g>
<!-- http://example.org/+5 -->
<g id="node16" class="node"><title>http://example.org/+5</title>
<g id="a_node16"><a xlink:href="http://example.org/+5" xlink:title="+5">
<polygon fill="#9fb1fc" stroke="#0000ff" points="371.691,-289 317.691,-289 317.691,-253 371.691,-253 371.691,-289"/>
<text text-anchor="middle" x="344.691" y="-267.3" font-family="Times New Roman,serif" font-size="14.00">+5</text>
</a>
</g>
</g>
<!-- http://example.org/sum#5&#45;&gt;http://example.org/+5 -->
<g id="edge22" class="edge"><title>http://example.org/sum#5&#45;&gt;http://example.org/+5</title>
<path fill="none" stroke="black" d="M409.567,-196.55C402.126,-202.56 393.717,-209.799 386.691,-217 378.49,-225.406 370.285,-235.335 363.331,-244.313"/>
<polygon fill="black" stroke="black" points="360.34,-242.465 357.089,-252.549 365.919,-246.693 360.34,-242.465"/>
<text text-anchor="middle" x="411.95" y="-209.46" font-family="Times New Roman,serif" font-size="8.00">gen</text>
</g>
<!-- http://example.org/vsum#5&#45;&gt;http://example.org/sum#5 -->
<g id="edge13" class="edge"><title>http://example.org/vsum#5&#45;&gt;http://example.org/sum#5</title>
<path fill="none" stroke="green" d="M599.808,-257.544C587.715,-251.44 573.53,-243.563 561.691,-235 552.265,-228.183 552.738,-222.862 542.691,-217 520.67,-204.153 493.457,-195.567 471.142,-190.115"/>
<polygon fill="green" stroke="green" points="471.802,-186.676 461.27,-187.827 470.221,-193.495 471.802,-186.676"/>
<text text-anchor="middle" x="616.191" y="-228.6" font-family="Times New Roman,serif" font-size="8.00" fill="green">def by</text>
<text text-anchor="middle" x="616.191" y="-219.6" font-family="Times New Roman,serif" font-size="8.00" fill="green">2018&#45;03&#45;10T01:40:17.385607</text>
</g>
<!-- &#45;attrs2 -->
<g id="node15" class="node"><title>&#45;attrs2</title>
<polygon fill="none" stroke="green" points="696.691,-199 638.691,-199 638.691,-163 702.691,-163 702.691,-193 696.691,-199"/>
<polyline fill="none" stroke="green" points="696.691,-199 696.691,-193 "/>
<polyline fill="none" stroke="green" points="702.691,-193 696.691,-193 "/>
<text text-anchor="start" x="648.691" y="-178" font-family="Times New Roman,serif" font-size="10.00" fill="green">repr:</text>
<text text-anchor="start" x="669.691" y="-178" font-family="Times New Roman,serif" font-size="10.00" fill="green">10004</text>
</g>
<!-- &#45;attrs2&#45;&gt;http://example.org/vsum#5 -->
<g id="edge11" class="edge"><title>&#45;attrs2&#45;&gt;http://example.org/vsum#5</title>
<path fill="none" stroke="green" stroke-dasharray="5,2" d="M676.369,-199.128C678.936,-209.973 680.295,-223.978 674.691,-235 669.923,-244.377 661.335,-251.838 652.727,-257.422"/>
</g>
<!-- http://example.org/+5&#45;&gt;http://example.org/disti_ak#5 -->
<g id="edge19" class="edge"><title>http://example.org/+5&#45;&gt;http://example.org/disti_ak#5</title>
<path fill="none" stroke="black" d="M317.568,-287.406C298.888,-298.016 273.921,-312.197 253.879,-323.581"/>
<polygon fill="black" stroke="black" points="252.024,-320.61 245.057,-328.592 255.481,-326.696 252.024,-320.61"/>
<text text-anchor="middle" x="317.462" y="-300.506" font-family="Times New Roman,serif" font-size="8.00">use</text>
</g>
<!-- http://example.org/+5&#45;&gt;http://example.org/distk_aj#5 -->
<g id="edge20" class="edge"><title>http://example.org/+5&#45;&gt;http://example.org/distk_aj#5</title>
<path fill="none" stroke="black" d="M363.815,-289.187C374.277,-298.59 387.367,-310.354 398.637,-320.483"/>
<polygon fill="black" stroke="black" points="396.317,-323.104 406.094,-327.185 400.996,-317.897 396.317,-323.104"/>
<text text-anchor="middle" x="378.076" y="-282.639" font-family="Times New Roman,serif" font-size="8.00">use</text>
</g>
<!-- &#45;attrs3 -->
<g id="node17" class="node"><title>&#45;attrs3</title>
<polygon fill="none" stroke="gray" points="365.691,-199 317.691,-199 317.691,-163 371.691,-163 371.691,-193 365.691,-199"/>
<polyline fill="none" stroke="gray" points="365.691,-199 365.691,-193 "/>
<polyline fill="none" stroke="gray" points="371.691,-193 365.691,-193 "/>
<text text-anchor="start" x="330.691" y="-178" font-family="Times New Roman,serif" font-size="10.00">type:</text>
<text text-anchor="start" x="353.691" y="-178" font-family="Times New Roman,serif" font-size="10.00">+</text>
</g>
<!-- &#45;attrs3&#45;&gt;http://example.org/+5 -->
<g id="edge14" class="edge"><title>&#45;attrs3&#45;&gt;http://example.org/+5</title>
<path fill="none" stroke="gray" stroke-dasharray="5,2" d="M344.691,-199.386C344.691,-214.914 344.691,-237.525 344.691,-252.95"/>
</g>
<!-- http://example.org/ikj#5 -->
<g id="node18" class="node"><title>http://example.org/ikj#5</title>
<g id="a_node18"><a xlink:href="http://example.org/ikj#5" xlink:title="ikj#5">
<ellipse fill="#fafafa" stroke="#f0f0f0" cx="489.691" cy="-18" rx="28.6953" ry="18"/>
<text text-anchor="middle" x="489.691" y="-14.3" font-family="Times New Roman,serif" font-size="14.00" fill="#f0f0f0">ikj#5</text>
</a>
</g>
</g>
<!-- http://example.org/ikj#5&#45;&gt;http://example.org/sum#5 -->
<g id="edge18" class="edge"><title>http://example.org/ikj#5&#45;&gt;http://example.org/sum#5</title>
<path fill="none" stroke="#f0f0f0" d="M474.983,-33.7431C465.697,-43.923 454.253,-58.2408 447.691,-73 436.294,-98.6304 431.727,-130.579 429.9,-152.863"/>
<polygon fill="#f0f0f0" stroke="#f0f0f0" points="426.4,-152.739 429.206,-162.956 433.384,-153.22 426.4,-152.739"/>
<text text-anchor="middle" x="479.655" y="-46.097" font-family="Times New Roman,serif" font-size="8.00" fill="#f0f0f0">der</text>
</g>
<!-- http://example.org/ikj#5&#45;&gt;http://example.org/vsum#5 -->
<g id="edge17" class="edge"><title>http://example.org/ikj#5&#45;&gt;http://example.org/vsum#5</title>
<path fill="none" stroke="green" d="M514.961,-26.4677C563.592,-42.3716 669.144,-84.6884 711.691,-163 727.665,-192.401 713.836,-211.835 689.691,-235 682.174,-242.211 672.884,-248.434 663.769,-253.548"/>
<polygon fill="green" stroke="green" points="661.995,-250.526 654.784,-258.288 665.262,-256.717 661.995,-250.526"/>
<text text-anchor="middle" x="754.191" y="-138.6" font-family="Times New Roman,serif" font-size="8.00" fill="green">access</text>
<text text-anchor="middle" x="754.191" y="-129.6" font-family="Times New Roman,serif" font-size="8.00" fill="green">2018&#45;03&#45;10T01:40:17.386108</text>
</g>
<!-- http://example.org/assign19 -->
<g id="node19" class="node"><title>http://example.org/assign19</title>
<g id="a_node19"><a xlink:href="http://example.org/assign19" xlink:title="assign19">
<polygon fill="#fafafa" stroke="#f0f0f0" points="522.191,-109 457.191,-109 457.191,-73 522.191,-73 522.191,-109"/>
<text text-anchor="middle" x="489.691" y="-87.3" font-family="Times New Roman,serif" font-size="14.00" fill="#f0f0f0">assign19</text>
</a>
</g>
</g>
<!-- http://example.org/ikj#5&#45;&gt;http://example.org/assign19 -->
<g id="edge23" class="edge"><title>http://example.org/ikj#5&#45;&gt;http://example.org/assign19</title>
<path fill="none" stroke="#f0f0f0" d="M489.691,-36.1871C489.691,-44.2105 489.691,-53.9525 489.691,-62.9309"/>
<polygon fill="#f0f0f0" stroke="#f0f0f0" points="486.191,-62.9711 489.691,-72.9712 493.191,-62.9712 486.191,-62.9711"/>
<text text-anchor="middle" x="502.681" y="-41.7871" font-family="Times New Roman,serif" font-size="8.00" fill="#f0f0f0">gen</text>
</g>
<!-- http://example.org/assign19&#45;&gt;http://example.org/sum#5 -->
<g id="edge21" class="edge"><title>http://example.org/assign19&#45;&gt;http://example.org/sum#5</title>
<path fill="none" stroke="#f0f0f0" d="M477.639,-109.386C468.553,-122.494 455.968,-140.649 445.834,-155.268"/>
<polygon fill="#f0f0f0" stroke="#f0f0f0" points="442.715,-153.625 439.895,-163.837 448.468,-157.612 442.715,-153.625"/>
<text text-anchor="middle" x="484.043" y="-121.05" font-family="Times New Roman,serif" font-size="8.00" fill="#f0f0f0">use</text>
</g>
</g>
</svg>
