<?xml version="1.0" encoding="UTF-8" standalone="no"?>
<!DOCTYPE svg PUBLIC "-//W3C//DTD SVG 1.1//EN"
 "http://www.w3.org/Graphics/SVG/1.1/DTD/svg11.dtd">
<!-- Generated by graphviz version 2.38.0 (20140413.2041)
 -->
<!-- Title: PROV Pages: 1 -->
<svg width="818pt" height="542pt"
 viewBox="0.00 0.00 818.33 542.00" xmlns="http://www.w3.org/2000/svg" xmlns:xlink="http://www.w3.org/1999/xlink">
<g id="graph0" class="graph" transform="scale(1 1) rotate(0) translate(4 538)">
<title>PROV</title>
<polygon fill="white" stroke="none" points="-4,4 -4,-538 814.333,-538 814.333,4 -4,4"/>
<!-- http://example.org/disti_ak -->
<g id="node1" class="node"><title>http://example.org/disti_ak</title>
<g id="a_node1"><a xlink:href="http://example.org/disti_ak" xlink:title="disti_ak">
<ellipse fill="#fafafa" stroke="#f0f0f0" cx="209.641" cy="-344" rx="38.9931" ry="18"/>
<text text-anchor="middle" x="209.641" y="-340.3" font-family="Times New Roman,serif" font-size="14.00" fill="#f0f0f0">disti_ak</text>
</a>
</g>
</g>
<!-- http://example.org/v10000 -->
<g id="node2" class="node"><title>http://example.org/v10000</title>
<ellipse fill="none" stroke="black" cx="104.641" cy="-443" rx="104.782" ry="18"/>
<text text-anchor="middle" x="104.641" y="-439.3" font-family="Times New Roman,serif" font-size="14.00">http://example.org/v10000</text>
</g>
<!-- http://example.org/disti_ak&#45;&gt;http://example.org/v10000 -->
<g id="edge1" class="edge"><title>http://example.org/disti_ak&#45;&gt;http://example.org/v10000</title>
<path fill="none" stroke="green" d="M172.409,-349.873C152.682,-354.405 129.691,-363.147 115.641,-380 107.708,-389.514 104.643,-402.753 103.69,-414.555"/>
<polygon fill="green" stroke="green" points="100.182,-414.725 103.33,-424.842 107.178,-414.97 100.182,-414.725"/>
<text text-anchor="middle" x="170.141" y="-400.6" font-family="Times New Roman,serif" font-size="8.00" fill="green">part</text>
<text text-anchor="middle" x="170.141" y="-391.6" font-family="Times New Roman,serif" font-size="8.00" fill="green">row1[0]</text>
<text text-anchor="middle" x="170.141" y="-382.6" font-family="Times New Roman,serif" font-size="8.00" fill="green">2018&#45;03&#45;10T01:40:16.695529</text>
</g>
<!-- http://example.org/access9 -->
<g id="node3" class="node"><title>http://example.org/access9</title>
<g id="a_node3"><a xlink:href="http://example.org/access9" xlink:title="access9">
<polygon fill="#9fb1fc" stroke="#0000ff" points="288.141,-461 227.141,-461 227.141,-425 288.141,-425 288.141,-461"/>
<text text-anchor="middle" x="257.641" y="-439.3" font-family="Times New Roman,serif" font-size="14.00">access9</text>
</a>
</g>
</g>
<!-- http://example.org/disti_ak&#45;&gt;http://example.org/access9 -->
<g id="edge5" class="edge"><title>http://example.org/disti_ak&#45;&gt;http://example.org/access9</title>
<path fill="none" stroke="black" d="M218.002,-361.896C225.39,-376.826 236.28,-398.834 244.777,-416.006"/>
<polygon fill="black" stroke="black" points="241.642,-417.562 249.215,-424.972 247.916,-414.457 241.642,-417.562"/>
<text text-anchor="middle" x="232.971" y="-360.957" font-family="Times New Roman,serif" font-size="8.00">gen</text>
</g>
<!-- http://example.org/disti -->
<g id="node5" class="node"><title>http://example.org/disti</title>
<ellipse fill="none" stroke="black" cx="103.641" cy="-516" rx="93.6835" ry="18"/>
<text text-anchor="middle" x="103.641" y="-512.3" font-family="Times New Roman,serif" font-size="14.00">http://example.org/disti</text>
</g>
<!-- http://example.org/access9&#45;&gt;http://example.org/disti -->
<g id="edge3" class="edge"><title>http://example.org/access9&#45;&gt;http://example.org/disti</title>
<path fill="none" stroke="black" d="M226.847,-458.197C204.042,-468.711 172.656,-483.181 147.271,-494.885"/>
<polygon fill="black" stroke="black" points="145.481,-491.856 137.865,-499.221 148.412,-498.213 145.481,-491.856"/>
<text text-anchor="middle" x="225.475" y="-471.234" font-family="Times New Roman,serif" font-size="8.00">use</text>
</g>
<!-- http://example.org/k -->
<g id="node6" class="node"><title>http://example.org/k</title>
<ellipse fill="none" stroke="black" cx="298.641" cy="-516" rx="83.3857" ry="18"/>
<text text-anchor="middle" x="298.641" y="-512.3" font-family="Times New Roman,serif" font-size="14.00">http://example.org/k</text>
</g>
<!-- http://example.org/access9&#45;&gt;http://example.org/k -->
<g id="edge4" class="edge"><title>http://example.org/access9&#45;&gt;http://example.org/k</title>
<path fill="none" stroke="black" d="M267.566,-461.187C272.4,-469.559 278.316,-479.803 283.683,-489.097"/>
<polygon fill="black" stroke="black" points="280.775,-491.062 288.807,-497.971 286.837,-487.561 280.775,-491.062"/>
<text text-anchor="middle" x="282.566" y="-459.286" font-family="Times New Roman,serif" font-size="8.00">use</text>
</g>
<!-- &#45;attrs0 -->
<g id="node4" class="node"><title>&#45;attrs0</title>
<polygon fill="none" stroke="gray" points="331.141,-362 266.141,-362 266.141,-326 337.141,-326 337.141,-356 331.141,-362"/>
<polyline fill="none" stroke="gray" points="331.141,-362 331.141,-356 "/>
<polyline fill="none" stroke="gray" points="337.141,-356 331.141,-356 "/>
<text text-anchor="start" x="276.641" y="-341" font-family="Times New Roman,serif" font-size="10.00">type:</text>
<text text-anchor="start" x="299.641" y="-341" font-family="Times New Roman,serif" font-size="10.00">access</text>
</g>
<!-- &#45;attrs0&#45;&gt;http://example.org/access9 -->
<g id="edge2" class="edge"><title>&#45;attrs0&#45;&gt;http://example.org/access9</title>
<path fill="none" stroke="gray" stroke-dasharray="5,2" d="M293.774,-362.342C285.766,-379.998 273.423,-407.207 265.439,-424.808"/>
</g>
<!-- http://example.org/distk_aj -->
<g id="node7" class="node"><title>http://example.org/distk_aj</title>
<g id="a_node7"><a xlink:href="http://example.org/distk_aj" xlink:title="distk_aj">
<ellipse fill="#fafafa" stroke="#f0f0f0" cx="393.641" cy="-344" rx="38.9931" ry="18"/>
<text text-anchor="middle" x="393.641" y="-340.3" font-family="Times New Roman,serif" font-size="14.00" fill="#f0f0f0">distk_aj</text>
</a>
</g>
</g>
<!-- http://example.org/v4 -->
<g id="node8" class="node"><title>http://example.org/v4</title>
<ellipse fill="none" stroke="black" cx="393.641" cy="-443" rx="87.1846" ry="18"/>
<text text-anchor="middle" x="393.641" y="-439.3" font-family="Times New Roman,serif" font-size="14.00">http://example.org/v4</text>
</g>
<!-- http://example.org/distk_aj&#45;&gt;http://example.org/v4 -->
<g id="edge6" class="edge"><title>http://example.org/distk_aj&#45;&gt;http://example.org/v4</title>
<path fill="none" stroke="green" d="M393.641,-362.342C393.641,-376.825 393.641,-397.737 393.641,-414.501"/>
<polygon fill="green" stroke="green" points="390.141,-414.808 393.641,-424.808 397.141,-414.809 390.141,-414.808"/>
<text text-anchor="middle" x="448.141" y="-400.6" font-family="Times New Roman,serif" font-size="8.00" fill="green">part</text>
<text text-anchor="middle" x="448.141" y="-391.6" font-family="Times New Roman,serif" font-size="8.00" fill="green">row0[2]</text>
<text text-anchor="middle" x="448.141" y="-382.6" font-family="Times New Roman,serif" font-size="8.00" fill="green">2018&#45;03&#45;10T01:40:16.695529</text>
</g>
<!-- http://example.org/access10 -->
<g id="node9" class="node"><title>http://example.org/access10</title>
<g id="a_node9"><a xlink:href="http://example.org/access10" xlink:title="access10">
<polygon fill="#9fb1fc" stroke="#0000ff" points="571.641,-461 503.641,-461 503.641,-425 571.641,-425 571.641,-461"/>
<text text-anchor="middle" x="537.641" y="-439.3" font-family="Times New Roman,serif" font-size="14.00">access10</text>
</a>
</g>
</g>
<!-- http://example.org/distk_aj&#45;&gt;http://example.org/access10 -->
<g id="edge10" class="edge"><title>http://example.org/distk_aj&#45;&gt;http://example.org/access10</title>
<path fill="none" stroke="black" d="M430.908,-349.694C453.957,-354.211 482.983,-362.998 503.641,-380 514.86,-389.233 522.972,-403.182 528.453,-415.512"/>
<polygon fill="black" stroke="black" points="525.277,-416.993 532.293,-424.932 531.759,-414.351 525.277,-416.993"/>
<text text-anchor="middle" x="440.918" y="-336.623" font-family="Times New Roman,serif" font-size="8.00">gen</text>
</g>
<!-- http://example.org/distk -->
<g id="node11" class="node"><title>http://example.org/distk</title>
<ellipse fill="none" stroke="black" cx="516.641" cy="-516" rx="96.3833" ry="18"/>
<text text-anchor="middle" x="516.641" y="-512.3" font-family="Times New Roman,serif" font-size="14.00">http://example.org/distk</text>
</g>
<!-- http://example.org/access10&#45;&gt;http://example.org/distk -->
<g id="edge8" class="edge"><title>http://example.org/access10&#45;&gt;http://example.org/distk</title>
<path fill="none" stroke="black" d="M532.557,-461.187C530.158,-469.298 527.24,-479.164 524.561,-488.223"/>
<polygon fill="black" stroke="black" points="521.157,-487.389 521.677,-497.971 527.87,-489.375 521.157,-487.389"/>
<text text-anchor="middle" x="542.887" y="-470.164" font-family="Times New Roman,serif" font-size="8.00">use</text>
</g>
<!-- http://example.org/j#3 -->
<g id="node12" class="node"><title>http://example.org/j#3</title>
<ellipse fill="none" stroke="black" cx="720.641" cy="-516" rx="89.8845" ry="18"/>
<text text-anchor="middle" x="720.641" y="-512.3" font-family="Times New Roman,serif" font-size="14.00">http://example.org/j#3</text>
</g>
<!-- http://example.org/access10&#45;&gt;http://example.org/j#3 -->
<g id="edge9" class="edge"><title>http://example.org/access10&#45;&gt;http://example.org/j#3</title>
<path fill="none" stroke="black" d="M572.062,-457.355C600.211,-468.276 640.359,-483.853 671.827,-496.061"/>
<polygon fill="black" stroke="black" points="670.702,-499.379 681.291,-499.733 673.234,-492.853 670.702,-499.379"/>
<text text-anchor="middle" x="583.753" y="-446.057" font-family="Times New Roman,serif" font-size="8.00">use</text>
</g>
<!-- &#45;attrs1 -->
<g id="node10" class="node"><title>&#45;attrs1</title>
<polygon fill="none" stroke="gray" points="572.141,-362 507.141,-362 507.141,-326 578.141,-326 578.141,-356 572.141,-362"/>
<polyline fill="none" stroke="gray" points="572.141,-362 572.141,-356 "/>
<polyline fill="none" stroke="gray" points="578.141,-356 572.141,-356 "/>
<text text-anchor="start" x="517.641" y="-341" font-family="Times New Roman,serif" font-size="10.00">type:</text>
<text text-anchor="start" x="540.641" y="-341" font-family="Times New Roman,serif" font-size="10.00">access</text>
</g>
<!-- &#45;attrs1&#45;&gt;http://example.org/access10 -->
<g id="edge7" class="edge"><title>&#45;attrs1&#45;&gt;http://example.org/access10</title>
<path fill="none" stroke="gray" stroke-dasharray="5,2" d="M541.747,-362.342C540.837,-379.998 539.434,-407.207 538.527,-424.808"/>
</g>
<!-- http://example.org/sum -->
<g id="node13" class="node"><title>http://example.org/sum</title>
<g id="a_node13"><a xlink:href="http://example.org/sum" xlink:title="sum">
<ellipse fill="#fafafa" stroke="#f0f0f0" cx="399.641" cy="-181" rx="27" ry="18"/>
<text text-anchor="middle" x="399.641" y="-177.3" font-family="Times New Roman,serif" font-size="14.00" fill="#f0f0f0">sum</text>
</a>
</g>
</g>
<!-- http://example.org/sum&#45;&gt;http://example.org/disti_ak -->
<g id="edge15" class="edge"><title>http://example.org/sum&#45;&gt;http://example.org/disti_ak</title>
<path fill="none" stroke="black" d="M378.115,-192.393C353.69,-204.791 313.391,-227.12 283.641,-253 261.274,-272.458 240.264,-299.133 226.388,-318.385"/>
<polygon fill="black" stroke="black" points="223.454,-316.471 220.535,-326.656 229.168,-320.515 223.454,-316.471"/>
<text text-anchor="middle" x="377.404" y="-205.477" font-family="Times New Roman,serif" font-size="8.00">der</text>
</g>
<!-- http://example.org/sum&#45;&gt;http://example.org/distk_aj -->
<g id="edge16" class="edge"><title>http://example.org/sum&#45;&gt;http://example.org/distk_aj</title>
<path fill="none" stroke="black" d="M397.352,-199.06C396.679,-204.754 396.021,-211.141 395.641,-217 393.433,-251.003 393.171,-290.27 393.305,-315.81"/>
<polygon fill="black" stroke="black" points="389.805,-315.886 393.382,-325.859 396.805,-315.833 389.805,-315.886"/>
<text text-anchor="middle" x="409.387" y="-206.113" font-family="Times New Roman,serif" font-size="8.00">der</text>
</g>
<!-- http://example.org/vsum -->
<g id="node14" class="node"><title>http://example.org/vsum</title>
<g id="a_node14"><a xlink:href="http://example.org/vsum" xlink:title="vsum">
<ellipse fill="darkgreen" stroke="green" cx="601.641" cy="-271" rx="30.5947" ry="18"/>
<text text-anchor="middle" x="601.641" y="-267.3" font-family="Times New Roman,serif" font-size="14.00" fill="green">vsum</text>
</a>
</g>
</g>
<!-- http://example.org/sum&#45;&gt;http://example.org/vsum -->
<g id="edge12" class="edge"><title>http://example.org/sum&#45;&gt;http://example.org/vsum</title>
<path fill="none" stroke="green" d="M397.851,-199.061C397.623,-210.729 399.453,-225.709 408.641,-235 429.43,-256.023 510.817,-264.63 561.028,-267.991"/>
<polygon fill="green" stroke="green" points="561.037,-271.499 571.236,-268.632 561.475,-264.512 561.037,-271.499"/>
<text text-anchor="middle" x="463.141" y="-228.6" font-family="Times New Roman,serif" font-size="8.00" fill="green">defined</text>
<text text-anchor="middle" x="463.141" y="-219.6" font-family="Times New Roman,serif" font-size="8.00" fill="green">2018&#45;03&#45;10T01:40:16.695529</text>
</g>
<!-- http://example.org/+1 -->
<g id="node16" class="node"><title>http://example.org/+1</title>
<g id="a_node16"><a xlink:href="http://example.org/+1" xlink:title="+1">
<polygon fill="#9fb1fc" stroke="#0000ff" points="346.641,-289 292.641,-289 292.641,-253 346.641,-253 346.641,-289"/>
<text text-anchor="middle" x="319.641" y="-267.3" font-family="Times New Roman,serif" font-size="14.00">+1</text>
</a>
</g>
</g>
<!-- http://example.org/sum&#45;&gt;http://example.org/+1 -->
<g id="edge22" class="edge"><title>http://example.org/sum&#45;&gt;http://example.org/+1</title>
<path fill="none" stroke="black" d="M383.585,-195.776C376.603,-202.019 368.476,-209.638 361.641,-217 353.65,-225.607 345.492,-235.579 338.516,-244.537"/>
<polygon fill="black" stroke="black" points="335.538,-242.669 332.235,-252.736 341.095,-246.926 335.538,-242.669"/>
<text text-anchor="middle" x="386.695" y="-208.55" font-family="Times New Roman,serif" font-size="8.00">gen</text>
</g>
<!-- http://example.org/vsum&#45;&gt;http://example.org/sum -->
<g id="edge13" class="edge"><title>http://example.org/vsum&#45;&gt;http://example.org/sum</title>
<path fill="none" stroke="green" d="M578.196,-259.26C565.424,-252.954 549.622,-244.389 536.641,-235 527.215,-228.183 527.716,-222.814 517.641,-217 492.215,-202.329 460.098,-193.325 435.792,-188.13"/>
<polygon fill="green" stroke="green" points="436.391,-184.681 425.896,-186.132 435.006,-191.542 436.391,-184.681"/>
<text text-anchor="middle" x="591.141" y="-228.6" font-family="Times New Roman,serif" font-size="8.00" fill="green">def by</text>
<text text-anchor="middle" x="591.141" y="-219.6" font-family="Times New Roman,serif" font-size="8.00" fill="green">2018&#45;03&#45;10T01:40:16.695529</text>
</g>
<!-- &#45;attrs2 -->
<g id="node15" class="node"><title>&#45;attrs2</title>
<polygon fill="none" stroke="green" points="671.641,-199 613.641,-199 613.641,-163 677.641,-163 677.641,-193 671.641,-199"/>
<polyline fill="none" stroke="green" points="671.641,-199 671.641,-193 "/>
<polyline fill="none" stroke="green" points="677.641,-193 671.641,-193 "/>
<text text-anchor="start" x="623.641" y="-178" font-family="Times New Roman,serif" font-size="10.00" fill="green">repr:</text>
<text text-anchor="start" x="644.641" y="-178" font-family="Times New Roman,serif" font-size="10.00" fill="green">10004</text>
</g>
<!-- &#45;attrs2&#45;&gt;http://example.org/vsum -->
<g id="edge11" class="edge"><title>&#45;attrs2&#45;&gt;http://example.org/vsum</title>
<path fill="none" stroke="green" stroke-dasharray="5,2" d="M651.318,-199.128C653.886,-209.973 655.245,-223.978 649.641,-235 644.359,-245.388 634.387,-253.425 624.896,-259.162"/>
</g>
<!-- http://example.org/+1&#45;&gt;http://example.org/disti_ak -->
<g id="edge19" class="edge"><title>http://example.org/+1&#45;&gt;http://example.org/disti_ak</title>
<path fill="none" stroke="black" d="M293.293,-289.006C277.312,-299.321 256.853,-312.527 240.168,-323.296"/>
<polygon fill="black" stroke="black" points="237.843,-320.631 231.339,-328.995 241.639,-326.512 237.843,-320.631"/>
<text text-anchor="middle" x="294.036" y="-302.088" font-family="Times New Roman,serif" font-size="8.00">use</text>
</g>
<!-- http://example.org/+1&#45;&gt;http://example.org/distk_aj -->
<g id="edge20" class="edge"><title>http://example.org/+1&#45;&gt;http://example.org/distk_aj</title>
<path fill="none" stroke="black" d="M337.554,-289.187C347.329,-298.566 359.552,-310.294 370.09,-320.404"/>
<polygon fill="black" stroke="black" points="367.768,-323.026 377.407,-327.424 372.614,-317.975 367.768,-323.026"/>
<text text-anchor="middle" x="351.96" y="-283.106" font-family="Times New Roman,serif" font-size="8.00">use</text>
</g>
<!-- &#45;attrs3 -->
<g id="node17" class="node"><title>&#45;attrs3</title>
<polygon fill="none" stroke="gray" points="340.641,-199 292.641,-199 292.641,-163 346.641,-163 346.641,-193 340.641,-199"/>
<polyline fill="none" stroke="gray" points="340.641,-199 340.641,-193 "/>
<polyline fill="none" stroke="gray" points="346.641,-193 340.641,-193 "/>
<text text-anchor="start" x="305.641" y="-178" font-family="Times New Roman,serif" font-size="10.00">type:</text>
<text text-anchor="start" x="328.641" y="-178" font-family="Times New Roman,serif" font-size="10.00">+</text>
</g>
<!-- &#45;attrs3&#45;&gt;http://example.org/+1 -->
<g id="edge14" class="edge"><title>&#45;attrs3&#45;&gt;http://example.org/+1</title>
<path fill="none" stroke="gray" stroke-dasharray="5,2" d="M319.641,-199.386C319.641,-214.914 319.641,-237.525 319.641,-252.95"/>
</g>
<!-- http://example.org/ikj -->
<g id="node18" class="node"><title>http://example.org/ikj</title>
<g id="a_node18"><a xlink:href="http://example.org/ikj" xlink:title="ikj">
<ellipse fill="#fafafa" stroke="#f0f0f0" cx="456.641" cy="-18" rx="27" ry="18"/>
<text text-anchor="middle" x="456.641" y="-14.3" font-family="Times New Roman,serif" font-size="14.00" fill="#f0f0f0">ikj</text>
</a>
</g>
</g>
<!-- http://example.org/ikj&#45;&gt;http://example.org/sum -->
<g id="edge18" class="edge"><title>http://example.org/ikj&#45;&gt;http://example.org/sum</title>
<path fill="none" stroke="#f0f0f0" d="M443.369,-33.9844C434.983,-44.2662 424.632,-58.6069 418.641,-73 407.923,-98.746 403.248,-130.433 401.21,-152.617"/>
<polygon fill="#f0f0f0" stroke="#f0f0f0" points="397.714,-152.429 400.407,-162.676 404.692,-152.986 397.714,-152.429"/>
<text text-anchor="middle" x="448.81" y="-46.0629" font-family="Times New Roman,serif" font-size="8.00" fill="#f0f0f0">der</text>
</g>
<!-- http://example.org/ikj&#45;&gt;http://example.org/vsum -->
<g id="edge17" class="edge"><title>http://example.org/ikj&#45;&gt;http://example.org/vsum</title>
<path fill="none" stroke="green" d="M481.25,-25.7105C530.851,-40.7243 641.91,-82.2201 686.641,-163 702.85,-192.272 688.786,-211.835 664.641,-235 656.138,-243.157 645.366,-250.049 635.144,-255.503"/>
<polygon fill="green" stroke="green" points="633.356,-252.485 625.993,-260.102 636.5,-258.739 633.356,-252.485"/>
<text text-anchor="middle" x="728.141" y="-138.6" font-family="Times New Roman,serif" font-size="8.00" fill="green">access</text>
<text text-anchor="middle" x="728.141" y="-129.6" font-family="Times New Roman,serif" font-size="8.00" fill="green">2018&#45;03&#45;10T01:40:16.696029</text>
</g>
<!-- http://example.org/assign9 -->
<g id="node19" class="node"><title>http://example.org/assign9</title>
<g id="a_node19"><a xlink:href="http://example.org/assign9" xlink:title="assign9">
<polygon fill="#fafafa" stroke="#f0f0f0" points="485.641,-109 427.641,-109 427.641,-73 485.641,-73 485.641,-109"/>
<text text-anchor="middle" x="456.641" y="-87.3" font-family="Times New Roman,serif" font-size="14.00" fill="#f0f0f0">assign9</text>
</a>
</g>
</g>
<!-- http://example.org/ikj&#45;&gt;http://example.org/assign9 -->
<g id="edge23" class="edge"><title>http://example.org/ikj&#45;&gt;http://example.org/assign9</title>
<path fill="none" stroke="#f0f0f0" d="M456.641,-36.1871C456.641,-44.2105 456.641,-53.9525 456.641,-62.9309"/>
<polygon fill="#f0f0f0" stroke="#f0f0f0" points="453.141,-62.9711 456.641,-72.9712 460.141,-62.9712 453.141,-62.9711"/>
<text text-anchor="middle" x="469.631" y="-41.7871" font-family="Times New Roman,serif" font-size="8.00" fill="#f0f0f0">gen</text>
</g>
<!-- http://example.org/assign9&#45;&gt;http://example.org/sum -->
<g id="edge21" class="edge"><title>http://example.org/assign9&#45;&gt;http://example.org/sum</title>
<path fill="none" stroke="#f0f0f0" d="M445.379,-109.386C436.835,-122.577 424.98,-140.879 415.481,-155.545"/>
<polygon fill="#f0f0f0" stroke="#f0f0f0" points="412.42,-153.833 409.921,-164.129 418.295,-157.639 412.42,-153.833"/>
<text text-anchor="middle" x="452.205" y="-120.843" font-family="Times New Roman,serif" font-size="8.00" fill="#f0f0f0">use</text>
</g>
</g>
</svg>
