<?xml version="1.0" encoding="UTF-8" standalone="no"?>
<!DOCTYPE svg PUBLIC "-//W3C//DTD SVG 1.1//EN"
 "http://www.w3.org/Graphics/SVG/1.1/DTD/svg11.dtd">
<!-- Generated by graphviz version 2.38.0 (20140413.2041)
 -->
<!-- Title: PROV Pages: 1 -->
<svg width="903pt" height="657pt"
 viewBox="0.00 0.00 903.33 657.00" xmlns="http://www.w3.org/2000/svg" xmlns:xlink="http://www.w3.org/1999/xlink">
<g id="graph0" class="graph" transform="scale(1 1) rotate(0) translate(4 653)">
<title>PROV</title>
<polygon fill="white" stroke="none" points="-4,4 -4,-653 899.334,-653 899.334,4 -4,4"/>
<!-- http://example.org/disti_ak#26 -->
<g id="node1" class="node"><title>http://example.org/disti_ak#26</title>
<g id="a_node1"><a xlink:href="http://example.org/disti_ak#26" xlink:title="disti_ak#26">
<ellipse fill="#fffc87" stroke="#808080" cx="192.092" cy="-441" rx="52.7911" ry="18"/>
<text text-anchor="middle" x="192.092" y="-437.3" font-family="Times New Roman,serif" font-size="14.00">disti_ak#26</text>
</a>
</g>
</g>
<!-- http://example.org/v0 -->
<g id="node3" class="node"><title>http://example.org/v0</title>
<ellipse fill="none" stroke="black" cx="87.0923" cy="-558" rx="87.1846" ry="18"/>
<text text-anchor="middle" x="87.0923" y="-554.3" font-family="Times New Roman,serif" font-size="14.00">http://example.org/v0</text>
</g>
<!-- http://example.org/disti_ak#26&#45;&gt;http://example.org/v0 -->
<g id="edge2" class="edge"><title>http://example.org/disti_ak#26&#45;&gt;http://example.org/v0</title>
<path fill="none" stroke="darkgreen" d="M141.185,-445.642C119.968,-449.977 97.2485,-458.907 84.0923,-477 73.1267,-492.081 74.478,-513.325 78.2483,-530.132"/>
<polygon fill="darkgreen" stroke="darkgreen" points="74.8955,-531.145 80.82,-539.928 81.6661,-529.368 74.8955,-531.145"/>
<text text-anchor="middle" x="165.592" y="-510.8" font-family="Times New Roman,serif" font-size="14.00">part</text>
<text text-anchor="middle" x="165.592" y="-495.8" font-family="Times New Roman,serif" font-size="14.00">row2[2]</text>
<text text-anchor="middle" x="165.592" y="-480.8" font-family="Times New Roman,serif" font-size="14.00">2018&#45;03&#45;04T18:41:43.009854</text>
</g>
<!-- http://example.org/access126 -->
<g id="node4" class="node"><title>http://example.org/access126</title>
<g id="a_node4"><a xlink:href="http://example.org/access126" xlink:title="access126">
<polygon fill="#9fb1fc" stroke="#0000ff" points="302.092,-576 228.092,-576 228.092,-540 302.092,-540 302.092,-576"/>
<text text-anchor="middle" x="265.092" y="-554.3" font-family="Times New Roman,serif" font-size="14.00">access126</text>
</a>
</g>
</g>
<!-- http://example.org/disti_ak#26&#45;&gt;http://example.org/access126 -->
<g id="edge6" class="edge"><title>http://example.org/disti_ak#26&#45;&gt;http://example.org/access126</title>
<path fill="none" stroke="black" d="M225.12,-455.07C234.881,-460.469 244.664,-467.69 251.092,-477 261.673,-492.324 265.063,-513.129 265.865,-529.681"/>
<polygon fill="black" stroke="black" points="262.369,-529.915 266.068,-539.844 269.368,-529.776 262.369,-529.915"/>
<text text-anchor="middle" x="238.082" y="-445.622" font-family="Times New Roman,serif" font-size="8.00">gen</text>
</g>
<!-- &#45;attrs0 -->
<g id="node2" class="node"><title>&#45;attrs0</title>
<polygon fill="none" stroke="gray" points="197.592,-386 122.592,-386 122.592,-350 203.592,-350 203.592,-380 197.592,-386"/>
<polyline fill="none" stroke="gray" points="197.592,-386 197.592,-380 "/>
<polyline fill="none" stroke="gray" points="203.592,-380 197.592,-380 "/>
<text text-anchor="start" x="133.092" y="-372" font-family="Times New Roman,serif" font-size="10.00">type:</text>
<text text-anchor="start" x="157.092" y="-372" font-family="Times New Roman,serif" font-size="10.00">&quot;access&quot;</text>
<text text-anchor="start" x="133.092" y="-359" font-family="Times New Roman,serif" font-size="10.00">label:</text>
<text text-anchor="start" x="157.092" y="-359" font-family="Times New Roman,serif" font-size="10.00">&quot;disti[k]&quot;</text>
</g>
<!-- &#45;attrs0&#45;&gt;http://example.org/disti_ak#26 -->
<g id="edge1" class="edge"><title>&#45;attrs0&#45;&gt;http://example.org/disti_ak#26</title>
<path fill="none" stroke="gray" stroke-dasharray="5,2" d="M170.112,-386.187C174.672,-397.35 180.59,-411.84 185.137,-422.971"/>
</g>
<!-- http://example.org/disti#9 -->
<g id="node6" class="node"><title>http://example.org/disti#9</title>
<ellipse fill="none" stroke="black" cx="120.092" cy="-631" rx="102.882" ry="18"/>
<text text-anchor="middle" x="120.092" y="-627.3" font-family="Times New Roman,serif" font-size="14.00">http://example.org/disti#9</text>
</g>
<!-- http://example.org/access126&#45;&gt;http://example.org/disti#9 -->
<g id="edge4" class="edge"><title>http://example.org/access126&#45;&gt;http://example.org/disti#9</title>
<path fill="none" stroke="black" d="M230.361,-576.006C209.834,-586.057 183.703,-598.853 162.032,-609.464"/>
<polygon fill="black" stroke="black" points="160.488,-606.323 153.046,-613.864 163.566,-612.61 160.488,-606.323"/>
<text text-anchor="middle" x="229.338" y="-589.071" font-family="Times New Roman,serif" font-size="8.00">use</text>
</g>
<!-- http://example.org/k#3 -->
<g id="node7" class="node"><title>http://example.org/k#3</title>
<ellipse fill="none" stroke="black" cx="333.092" cy="-631" rx="92.0841" ry="18"/>
<text text-anchor="middle" x="333.092" y="-627.3" font-family="Times New Roman,serif" font-size="14.00">http://example.org/k#3</text>
</g>
<!-- http://example.org/access126&#45;&gt;http://example.org/k#3 -->
<g id="edge5" class="edge"><title>http://example.org/access126&#45;&gt;http://example.org/k#3</title>
<path fill="none" stroke="black" d="M281.553,-576.187C289.989,-584.995 300.409,-595.875 309.667,-605.542"/>
<polygon fill="black" stroke="black" points="307.338,-608.17 316.783,-612.971 312.394,-603.328 307.338,-608.17"/>
<text text-anchor="middle" x="296.122" y="-570.718" font-family="Times New Roman,serif" font-size="8.00">use</text>
</g>
<!-- &#45;attrs1 -->
<g id="node5" class="node"><title>&#45;attrs1</title>
<polygon fill="none" stroke="gray" points="337.092,-459 263.092,-459 263.092,-423 343.092,-423 343.092,-453 337.092,-459"/>
<polyline fill="none" stroke="gray" points="337.092,-459 337.092,-453 "/>
<polyline fill="none" stroke="gray" points="343.092,-453 337.092,-453 "/>
<text text-anchor="start" x="273.092" y="-438" font-family="Times New Roman,serif" font-size="10.00">type:</text>
<text text-anchor="start" x="296.092" y="-438" font-family="Times New Roman,serif" font-size="10.00">&quot;access&quot;</text>
</g>
<!-- &#45;attrs1&#45;&gt;http://example.org/access126 -->
<g id="edge3" class="edge"><title>&#45;attrs1&#45;&gt;http://example.org/access126</title>
<path fill="none" stroke="gray" stroke-dasharray="5,2" d="M298.381,-459.308C293.831,-475.609 286.55,-500.644 279.092,-522 277.064,-527.808 274.638,-534.069 272.379,-539.669"/>
</g>
<!-- http://example.org/distk_aj#26 -->
<g id="node8" class="node"><title>http://example.org/distk_aj#26</title>
<g id="a_node8"><a xlink:href="http://example.org/distk_aj#26" xlink:title="distk_aj#26">
<ellipse fill="#fffc87" stroke="#808080" cx="427.092" cy="-441" rx="52.7911" ry="18"/>
<text text-anchor="middle" x="427.092" y="-437.3" font-family="Times New Roman,serif" font-size="14.00">distk_aj#26</text>
</a>
</g>
</g>
<!-- http://example.org/vsum#8 -->
<g id="node10" class="node"><title>http://example.org/vsum#8</title>
<ellipse fill="none" stroke="black" cx="427.092" cy="-558" rx="107.482" ry="18"/>
<text text-anchor="middle" x="427.092" y="-554.3" font-family="Times New Roman,serif" font-size="14.00">http://example.org/vsum#8</text>
</g>
<!-- http://example.org/distk_aj#26&#45;&gt;http://example.org/vsum#8 -->
<g id="edge8" class="edge"><title>http://example.org/distk_aj#26&#45;&gt;http://example.org/vsum#8</title>
<path fill="none" stroke="darkgreen" d="M427.092,-459.466C427.092,-478.064 427.092,-507.756 427.092,-529.499"/>
<polygon fill="darkgreen" stroke="darkgreen" points="423.592,-529.746 427.092,-539.746 430.592,-529.746 423.592,-529.746"/>
<text text-anchor="middle" x="508.592" y="-510.8" font-family="Times New Roman,serif" font-size="14.00">part</text>
<text text-anchor="middle" x="508.592" y="-495.8" font-family="Times New Roman,serif" font-size="14.00">row2[1]</text>
<text text-anchor="middle" x="508.592" y="-480.8" font-family="Times New Roman,serif" font-size="14.00">2018&#45;03&#45;04T18:41:43.009854</text>
</g>
<!-- http://example.org/access127 -->
<g id="node11" class="node"><title>http://example.org/access127</title>
<g id="a_node11"><a xlink:href="http://example.org/access127" xlink:title="access127">
<polygon fill="#9fb1fc" stroke="#0000ff" points="655.092,-576 581.092,-576 581.092,-540 655.092,-540 655.092,-576"/>
<text text-anchor="middle" x="618.092" y="-554.3" font-family="Times New Roman,serif" font-size="14.00">access127</text>
</a>
</g>
</g>
<!-- http://example.org/distk_aj#26&#45;&gt;http://example.org/access127 -->
<g id="edge12" class="edge"><title>http://example.org/distk_aj#26&#45;&gt;http://example.org/access127</title>
<path fill="none" stroke="black" d="M476.889,-447.191C518.769,-452.514 574.409,-462.136 591.092,-477 606.047,-490.324 612.73,-512.216 615.71,-529.733"/>
<polygon fill="black" stroke="black" points="612.288,-530.535 617.128,-539.96 619.222,-529.574 612.288,-530.535"/>
<text text-anchor="middle" x="486.043" y="-433.408" font-family="Times New Roman,serif" font-size="8.00">gen</text>
</g>
<!-- &#45;attrs2 -->
<g id="node9" class="node"><title>&#45;attrs2</title>
<polygon fill="none" stroke="gray" points="698.592,-386 623.592,-386 623.592,-350 704.592,-350 704.592,-380 698.592,-386"/>
<polyline fill="none" stroke="gray" points="698.592,-386 698.592,-380 "/>
<polyline fill="none" stroke="gray" points="704.592,-380 698.592,-380 "/>
<text text-anchor="start" x="634.092" y="-372" font-family="Times New Roman,serif" font-size="10.00">type:</text>
<text text-anchor="start" x="658.092" y="-372" font-family="Times New Roman,serif" font-size="10.00">&quot;access&quot;</text>
<text text-anchor="start" x="634.092" y="-359" font-family="Times New Roman,serif" font-size="10.00">label:</text>
<text text-anchor="start" x="658.092" y="-359" font-family="Times New Roman,serif" font-size="10.00">&quot;distk[j]&quot;</text>
</g>
<!-- &#45;attrs2&#45;&gt;http://example.org/distk_aj#26 -->
<g id="edge7" class="edge"><title>&#45;attrs2&#45;&gt;http://example.org/distk_aj#26</title>
<path fill="none" stroke="gray" stroke-dasharray="5,2" d="M623.485,-382.983C620.313,-384.021 617.154,-385.038 614.092,-386 563.64,-401.852 504.987,-418.503 467.016,-429.053"/>
</g>
<!-- http://example.org/distk#3 -->
<g id="node13" class="node"><title>http://example.org/distk#3</title>
<ellipse fill="none" stroke="black" cx="583.092" cy="-631" rx="105.082" ry="18"/>
<text text-anchor="middle" x="583.092" y="-627.3" font-family="Times New Roman,serif" font-size="14.00">http://example.org/distk#3</text>
</g>
<!-- http://example.org/access127&#45;&gt;http://example.org/distk#3 -->
<g id="edge10" class="edge"><title>http://example.org/access127&#45;&gt;http://example.org/distk#3</title>
<path fill="none" stroke="black" d="M609.62,-576.187C605.536,-584.472 600.548,-594.59 596.004,-603.807"/>
<polygon fill="black" stroke="black" points="592.769,-602.454 591.487,-612.971 599.048,-605.549 592.769,-602.454"/>
<text text-anchor="middle" x="617.955" y="-586.758" font-family="Times New Roman,serif" font-size="8.00">use</text>
</g>
<!-- http://example.org/j#26 -->
<g id="node14" class="node"><title>http://example.org/j#26</title>
<ellipse fill="none" stroke="black" cx="801.092" cy="-631" rx="94.4839" ry="18"/>
<text text-anchor="middle" x="801.092" y="-627.3" font-family="Times New Roman,serif" font-size="14.00">http://example.org/j#26</text>
</g>
<!-- http://example.org/access127&#45;&gt;http://example.org/j#26 -->
<g id="edge11" class="edge"><title>http://example.org/access127&#45;&gt;http://example.org/j#26</title>
<path fill="none" stroke="black" d="M655.125,-573.368C682.926,-584.154 721.274,-599.032 751.688,-610.832"/>
<polygon fill="black" stroke="black" points="750.672,-614.192 761.261,-614.546 753.204,-607.666 750.672,-614.192"/>
<text text-anchor="middle" x="666.816" y="-562.07" font-family="Times New Roman,serif" font-size="8.00">use</text>
</g>
<!-- &#45;attrs3 -->
<g id="node12" class="node"><title>&#45;attrs3</title>
<polygon fill="none" stroke="gray" points="664.092,-459 590.092,-459 590.092,-423 670.092,-423 670.092,-453 664.092,-459"/>
<polyline fill="none" stroke="gray" points="664.092,-459 664.092,-453 "/>
<polyline fill="none" stroke="gray" points="670.092,-453 664.092,-453 "/>
<text text-anchor="start" x="600.092" y="-438" font-family="Times New Roman,serif" font-size="10.00">type:</text>
<text text-anchor="start" x="623.092" y="-438" font-family="Times New Roman,serif" font-size="10.00">&quot;access&quot;</text>
</g>
<!-- &#45;attrs3&#45;&gt;http://example.org/access127 -->
<g id="edge9" class="edge"><title>&#45;attrs3&#45;&gt;http://example.org/access127</title>
<path fill="none" stroke="gray" stroke-dasharray="5,2" d="M628.27,-459.466C626.001,-481.207 622.151,-518.105 619.893,-539.746"/>
</g>
<!-- http://example.org/sum#26 -->
<g id="node15" class="node"><title>http://example.org/sum#26</title>
<g id="a_node15"><a xlink:href="http://example.org/sum#26" xlink:title="sum#26">
<ellipse fill="#fffc87" stroke="#808080" cx="359.092" cy="-266" rx="39.7935" ry="18"/>
<text text-anchor="middle" x="359.092" y="-262.3" font-family="Times New Roman,serif" font-size="14.00">sum#26</text>
</a>
</g>
</g>
<!-- http://example.org/sum#26&#45;&gt;http://example.org/disti_ak#26 -->
<g id="edge19" class="edge"><title>http://example.org/sum#26&#45;&gt;http://example.org/disti_ak#26</title>
<path fill="none" stroke="black" d="M351.897,-283.762C340.603,-308.546 316.697,-355.338 285.092,-386 270.055,-400.589 250.33,-412.764 232.918,-421.838"/>
<polygon fill="black" stroke="black" points="230.891,-418.939 223.526,-426.556 234.033,-425.195 230.891,-418.939"/>
<text text-anchor="middle" x="360.495" y="-294.153" font-family="Times New Roman,serif" font-size="8.00">der</text>
</g>
<!-- http://example.org/sum#26&#45;&gt;http://example.org/distk_aj#26 -->
<g id="edge21" class="edge"><title>http://example.org/sum#26&#45;&gt;http://example.org/distk_aj#26</title>
<path fill="none" stroke="black" d="M355.672,-284.209C353.708,-297.533 352.45,-316.301 357.092,-332 366.504,-363.826 388.56,-395.078 405.418,-415.709"/>
<polygon fill="black" stroke="black" points="402.935,-418.194 412.044,-423.604 408.297,-413.694 402.935,-418.194"/>
<text text-anchor="middle" x="367.537" y="-291.486" font-family="Times New Roman,serif" font-size="8.00">der</text>
</g>
<!-- http://example.org/vsum#26 -->
<g id="node17" class="node"><title>http://example.org/vsum#26</title>
<g id="a_node17"><a xlink:href="http://example.org/vsum#26" xlink:title="vsum#26">
<ellipse fill="#32cd32" stroke="#808080" cx="561.092" cy="-368" rx="44.393" ry="18"/>
<text text-anchor="middle" x="561.092" y="-364.3" font-family="Times New Roman,serif" font-size="14.00">vsum#26</text>
</a>
</g>
</g>
<!-- http://example.org/sum#26&#45;&gt;http://example.org/vsum#26 -->
<g id="edge15" class="edge"><title>http://example.org/sum#26&#45;&gt;http://example.org/vsum#26</title>
<path fill="none" stroke="darkgreen" d="M358.798,-284.186C359.522,-298.983 363.046,-319.822 376.092,-332 394.792,-349.455 459.779,-358.649 507.464,-363.159"/>
<polygon fill="darkgreen" stroke="darkgreen" points="507.382,-366.666 517.656,-364.078 508.01,-359.694 507.382,-366.666"/>
<text text-anchor="middle" x="457.592" y="-320.8" font-family="Times New Roman,serif" font-size="14.00">defined</text>
<text text-anchor="middle" x="457.592" y="-305.8" font-family="Times New Roman,serif" font-size="14.00">2018&#45;03&#45;04T18:41:43.009854</text>
</g>
<!-- http://example.org/+26 -->
<g id="node19" class="node"><title>http://example.org/+26</title>
<g id="a_node19"><a xlink:href="http://example.org/+26" xlink:title="+26">
<polygon fill="#9fb1fc" stroke="#0000ff" points="276.092,-386 222.092,-386 222.092,-350 276.092,-350 276.092,-386"/>
<text text-anchor="middle" x="249.092" y="-364.3" font-family="Times New Roman,serif" font-size="14.00">+26</text>
</a>
</g>
</g>
<!-- http://example.org/sum#26&#45;&gt;http://example.org/+26 -->
<g id="edge22" class="edge"><title>http://example.org/sum#26&#45;&gt;http://example.org/+26</title>
<path fill="none" stroke="black" d="M329.55,-278.131C316.762,-283.925 302.21,-291.925 291.092,-302 279.075,-312.89 269.053,-327.961 261.817,-340.849"/>
<polygon fill="black" stroke="black" points="258.682,-339.289 257.051,-349.757 264.854,-342.591 258.682,-339.289"/>
<text text-anchor="middle" x="328.221" y="-291.172" font-family="Times New Roman,serif" font-size="8.00">gen</text>
</g>
<!-- &#45;attrs4 -->
<g id="node16" class="node"><title>&#45;attrs4</title>
<polygon fill="none" stroke="gray" points="562.592,-182 449.592,-182 449.592,-146 568.592,-146 568.592,-176 562.592,-182"/>
<polyline fill="none" stroke="gray" points="562.592,-182 562.592,-176 "/>
<polyline fill="none" stroke="gray" points="568.592,-176 562.592,-176 "/>
<text text-anchor="start" x="460.092" y="-168" font-family="Times New Roman,serif" font-size="10.00">type:</text>
<text text-anchor="start" x="484.092" y="-168" font-family="Times New Roman,serif" font-size="10.00">&quot;operation&quot;</text>
<text text-anchor="start" x="460.092" y="-155" font-family="Times New Roman,serif" font-size="10.00">label:</text>
<text text-anchor="start" x="484.092" y="-155" font-family="Times New Roman,serif" font-size="10.00">&quot;disti[k] + distk[j]&quot;</text>
</g>
<!-- &#45;attrs4&#45;&gt;http://example.org/sum#26 -->
<g id="edge13" class="edge"><title>&#45;attrs4&#45;&gt;http://example.org/sum#26</title>
<path fill="none" stroke="gray" stroke-dasharray="5,2" d="M483.306,-182.191C454.324,-201.512 407.787,-232.537 380.657,-250.623"/>
</g>
<!-- http://example.org/vsum#26&#45;&gt;http://example.org/sum#26 -->
<g id="edge16" class="edge"><title>http://example.org/vsum#26&#45;&gt;http://example.org/sum#26</title>
<path fill="none" stroke="darkgreen" d="M559.939,-349.726C557.995,-334.87 552.817,-313.995 539.092,-302 519.927,-285.25 454.474,-275.769 408.037,-271.012"/>
<polygon fill="darkgreen" stroke="darkgreen" points="408.149,-267.506 397.855,-270.013 407.466,-274.473 408.149,-267.506"/>
<text text-anchor="middle" x="638.592" y="-320.8" font-family="Times New Roman,serif" font-size="14.00">def by</text>
<text text-anchor="middle" x="638.592" y="-305.8" font-family="Times New Roman,serif" font-size="14.00">2018&#45;03&#45;04T18:41:43.009854</text>
</g>
<!-- &#45;attrs5 -->
<g id="node18" class="node"><title>&#45;attrs5</title>
<polygon fill="none" stroke="gray" points="816.592,-284 767.592,-284 767.592,-248 822.592,-248 822.592,-278 816.592,-284"/>
<polyline fill="none" stroke="gray" points="816.592,-284 816.592,-278 "/>
<polyline fill="none" stroke="gray" points="822.592,-278 816.592,-278 "/>
<text text-anchor="start" x="778.092" y="-263" font-family="Times New Roman,serif" font-size="10.00">repr:</text>
<text text-anchor="start" x="799.092" y="-263" font-family="Times New Roman,serif" font-size="10.00">&quot;3&quot;</text>
</g>
<!-- &#45;attrs5&#45;&gt;http://example.org/vsum#26 -->
<g id="edge14" class="edge"><title>&#45;attrs5&#45;&gt;http://example.org/vsum#26</title>
<path fill="none" stroke="gray" stroke-dasharray="5,2" d="M788.862,-284.179C782.386,-299.402 770.704,-320.886 753.092,-332 700.412,-365.245 674.89,-336.431 614.092,-350 607.302,-351.515 600.139,-353.523 593.35,-355.626"/>
</g>
<!-- http://example.org/+26&#45;&gt;http://example.org/disti_ak#26 -->
<g id="edge18" class="edge"><title>http://example.org/+26&#45;&gt;http://example.org/disti_ak#26</title>
<path fill="none" stroke="black" d="M235.294,-386.187C228.261,-394.948 219.582,-405.758 211.853,-415.385"/>
<polygon fill="black" stroke="black" points="208.902,-413.471 205.371,-423.46 214.36,-417.853 208.902,-413.471"/>
<text text-anchor="middle" x="240.729" y="-398.268" font-family="Times New Roman,serif" font-size="8.00">use</text>
</g>
<!-- http://example.org/+26&#45;&gt;http://example.org/distk_aj#26 -->
<g id="edge20" class="edge"><title>http://example.org/+26&#45;&gt;http://example.org/distk_aj#26</title>
<path fill="none" stroke="black" d="M276.257,-382.092C291.377,-389.199 310.622,-397.947 328.092,-405 345.191,-411.903 364.233,-418.815 381.013,-424.651"/>
<polygon fill="black" stroke="black" points="380.006,-428.006 390.6,-427.955 382.286,-421.388 380.006,-428.006"/>
<text text-anchor="middle" x="288.555" y="-371.605" font-family="Times New Roman,serif" font-size="8.00">use</text>
</g>
<!-- &#45;attrs6 -->
<g id="node20" class="node"><title>&#45;attrs6</title>
<polygon fill="none" stroke="gray" points="272.092,-284 220.092,-284 220.092,-248 278.092,-248 278.092,-278 272.092,-284"/>
<polyline fill="none" stroke="gray" points="272.092,-284 272.092,-278 "/>
<polyline fill="none" stroke="gray" points="278.092,-278 272.092,-278 "/>
<text text-anchor="start" x="230.092" y="-263" font-family="Times New Roman,serif" font-size="10.00">type:</text>
<text text-anchor="start" x="253.092" y="-263" font-family="Times New Roman,serif" font-size="10.00">&quot;+&quot;</text>
</g>
<!-- &#45;attrs6&#45;&gt;http://example.org/+26 -->
<g id="edge17" class="edge"><title>&#45;attrs6&#45;&gt;http://example.org/+26</title>
<path fill="none" stroke="gray" stroke-dasharray="5,2" d="M249.092,-284.419C249.092,-302.773 249.092,-331.502 249.092,-349.781"/>
</g>
<!-- http://example.org/ikj#26 -->
<g id="node21" class="node"><title>http://example.org/ikj#26</title>
<g id="a_node21"><a xlink:href="http://example.org/ikj#26" xlink:title="ikj#26">
<ellipse fill="#fffc87" stroke="#808080" cx="402.092" cy="-91" rx="32.4942" ry="18"/>
<text text-anchor="middle" x="402.092" y="-87.3" font-family="Times New Roman,serif" font-size="14.00">ikj#26</text>
</a>
</g>
</g>
<!-- http://example.org/ikj#26&#45;&gt;http://example.org/sum#26 -->
<g id="edge27" class="edge"><title>http://example.org/ikj#26&#45;&gt;http://example.org/sum#26</title>
<path fill="none" stroke="black" d="M384.966,-106.627C374.728,-116.549 362.659,-130.624 357.092,-146 346.247,-175.956 349.191,-212.994 353.248,-237.718"/>
<polygon fill="black" stroke="black" points="349.852,-238.607 355.082,-247.821 356.74,-237.357 349.852,-238.607"/>
<text text-anchor="middle" x="388.803" y="-119.228" font-family="Times New Roman,serif" font-size="8.00">der</text>
</g>
<!-- http://example.org/ikj#26&#45;&gt;http://example.org/vsum#26 -->
<g id="edge24" class="edge"><title>http://example.org/ikj#26&#45;&gt;http://example.org/vsum#26</title>
<path fill="none" stroke="darkgreen" d="M433.187,-96.6257C469.828,-103.153 531.486,-117.585 577.092,-146 657.948,-196.377 688.946,-213.454 724.092,-302 729.011,-314.393 732.726,-321.839 724.092,-332 708.054,-350.876 638.174,-344.201 614.092,-350 610.653,-350.828 607.113,-351.767 603.573,-352.768"/>
<polygon fill="darkgreen" stroke="darkgreen" points="602.26,-349.507 593.673,-355.714 604.256,-356.216 602.26,-349.507"/>
<text text-anchor="middle" x="766.592" y="-218.8" font-family="Times New Roman,serif" font-size="14.00">access</text>
<text text-anchor="middle" x="766.592" y="-203.8" font-family="Times New Roman,serif" font-size="14.00">2018&#45;03&#45;04T18:41:43.009854</text>
</g>
<!-- http://example.org/assign46 -->
<g id="node23" class="node"><title>http://example.org/assign46</title>
<g id="a_node23"><a xlink:href="http://example.org/assign46" xlink:title="assign46">
<polygon fill="#9fb1fc" stroke="#0000ff" points="431.592,-182 366.592,-182 366.592,-146 431.592,-146 431.592,-182"/>
<text text-anchor="middle" x="399.092" y="-160.3" font-family="Times New Roman,serif" font-size="14.00">assign46</text>
</a>
</g>
</g>
<!-- http://example.org/ikj#26&#45;&gt;http://example.org/assign46 -->
<g id="edge28" class="edge"><title>http://example.org/ikj#26&#45;&gt;http://example.org/assign46</title>
<path fill="none" stroke="black" d="M401.366,-109.187C401.027,-117.211 400.615,-126.953 400.236,-135.931"/>
<polygon fill="black" stroke="black" points="396.737,-135.832 399.812,-145.971 403.731,-136.128 396.737,-135.832"/>
<text text-anchor="middle" x="414.028" y="-115.329" font-family="Times New Roman,serif" font-size="8.00">gen</text>
</g>
<!-- &#45;attrs7 -->
<g id="node22" class="node"><title>&#45;attrs7</title>
<polygon fill="none" stroke="gray" points="433.592,-36 364.592,-36 364.592,-0 439.592,-0 439.592,-30 433.592,-36"/>
<polyline fill="none" stroke="gray" points="433.592,-36 433.592,-30 "/>
<polyline fill="none" stroke="gray" points="439.592,-30 433.592,-30 "/>
<text text-anchor="start" x="375.092" y="-22" font-family="Times New Roman,serif" font-size="10.00">type:</text>
<text text-anchor="start" x="399.092" y="-22" font-family="Times New Roman,serif" font-size="10.00">&quot;name&quot;</text>
<text text-anchor="start" x="375.092" y="-9" font-family="Times New Roman,serif" font-size="10.00">label:</text>
<text text-anchor="start" x="399.092" y="-9" font-family="Times New Roman,serif" font-size="10.00">&quot;ikj&quot;</text>
</g>
<!-- &#45;attrs7&#45;&gt;http://example.org/ikj#26 -->
<g id="edge23" class="edge"><title>&#45;attrs7&#45;&gt;http://example.org/ikj#26</title>
<path fill="none" stroke="gray" stroke-dasharray="5,2" d="M402.092,-36.1871C402.092,-47.3501 402.092,-61.8398 402.092,-72.9712"/>
</g>
<!-- http://example.org/assign46&#45;&gt;http://example.org/sum#26 -->
<g id="edge26" class="edge"><title>http://example.org/assign46&#45;&gt;http://example.org/sum#26</title>
<path fill="none" stroke="black" d="M392.125,-182.419C385.95,-197.855 376.84,-220.631 369.75,-238.355"/>
<polygon fill="black" stroke="black" points="366.311,-237.529 365.847,-248.114 372.81,-240.129 366.311,-237.529"/>
<text text-anchor="middle" x="401.401" y="-192.307" font-family="Times New Roman,serif" font-size="8.00">use</text>
</g>
<!-- &#45;attrs8 -->
<g id="node24" class="node"><title>&#45;attrs8</title>
<polygon fill="none" stroke="gray" points="345.592,-109 272.592,-109 272.592,-73 351.592,-73 351.592,-103 345.592,-109"/>
<polyline fill="none" stroke="gray" points="345.592,-109 345.592,-103 "/>
<polyline fill="none" stroke="gray" points="351.592,-103 345.592,-103 "/>
<text text-anchor="start" x="283.092" y="-88" font-family="Times New Roman,serif" font-size="10.00">type:</text>
<text text-anchor="start" x="306.092" y="-88" font-family="Times New Roman,serif" font-size="10.00">&quot;assign&quot;</text>
</g>
<!-- &#45;attrs8&#45;&gt;http://example.org/assign46 -->
<g id="edge25" class="edge"><title>&#45;attrs8&#45;&gt;http://example.org/assign46</title>
<path fill="none" stroke="gray" stroke-dasharray="5,2" d="M333.153,-109.187C346.831,-120.35 364.586,-134.84 378.226,-145.971"/>
</g>
</g>
</svg>
