<?xml version="1.0" encoding="UTF-8" standalone="no"?>
<!DOCTYPE svg PUBLIC "-//W3C//DTD SVG 1.1//EN"
 "http://www.w3.org/Graphics/SVG/1.1/DTD/svg11.dtd">
<!-- Generated by graphviz version 2.38.0 (20140413.2041)
 -->
<!-- Title: PROV Pages: 1 -->
<svg width="863pt" height="657pt"
 viewBox="0.00 0.00 862.78 657.00" xmlns="http://www.w3.org/2000/svg" xmlns:xlink="http://www.w3.org/1999/xlink">
<g id="graph0" class="graph" transform="scale(1 1) rotate(0) translate(4 653)">
<title>PROV</title>
<polygon fill="white" stroke="none" points="-4,4 -4,-653 858.784,-653 858.784,4 -4,4"/>
<!-- http://example.org/disti_ak#2 -->
<g id="node1" class="node"><title>http://example.org/disti_ak#2</title>
<g id="a_node1"><a xlink:href="http://example.org/disti_ak#2" xlink:title="disti_ak#2">
<ellipse fill="#fffc87" stroke="#808080" cx="188.092" cy="-441" rx="48.1917" ry="18"/>
<text text-anchor="middle" x="188.092" y="-437.3" font-family="Times New Roman,serif" font-size="14.00">disti_ak#2</text>
</a>
</g>
</g>
<!-- http://example.org/v0 -->
<g id="node3" class="node"><title>http://example.org/v0</title>
<ellipse fill="none" stroke="black" cx="87.0923" cy="-558" rx="87.1846" ry="18"/>
<text text-anchor="middle" x="87.0923" y="-554.3" font-family="Times New Roman,serif" font-size="14.00">http://example.org/v0</text>
</g>
<!-- http://example.org/disti_ak#2&#45;&gt;http://example.org/v0 -->
<g id="edge2" class="edge"><title>http://example.org/disti_ak#2&#45;&gt;http://example.org/v0</title>
<path fill="none" stroke="darkgreen" d="M141.447,-445.632C120.331,-449.882 97.2101,-458.745 84.0923,-477 73.2116,-492.142 74.5588,-513.384 78.306,-530.174"/>
<polygon fill="darkgreen" stroke="darkgreen" points="74.948,-531.167 80.8615,-539.958 81.7208,-529.399 74.948,-531.167"/>
<text text-anchor="middle" x="165.592" y="-510.8" font-family="Times New Roman,serif" font-size="14.00">part</text>
<text text-anchor="middle" x="165.592" y="-495.8" font-family="Times New Roman,serif" font-size="14.00">row0[0]</text>
<text text-anchor="middle" x="165.592" y="-480.8" font-family="Times New Roman,serif" font-size="14.00">2018&#45;03&#45;05T15:04:26.361532</text>
</g>
<!-- http://example.org/access10 -->
<g id="node4" class="node"><title>http://example.org/access10</title>
<g id="a_node4"><a xlink:href="http://example.org/access10" xlink:title="access10">
<polygon fill="#9fb1fc" stroke="#0000ff" points="299.092,-576 231.092,-576 231.092,-540 299.092,-540 299.092,-576"/>
<text text-anchor="middle" x="265.092" y="-554.3" font-family="Times New Roman,serif" font-size="14.00">access10</text>
</a>
</g>
</g>
<!-- http://example.org/disti_ak#2&#45;&gt;http://example.org/access10 -->
<g id="edge6" class="edge"><title>http://example.org/disti_ak#2&#45;&gt;http://example.org/access10</title>
<path fill="none" stroke="black" d="M222.011,-453.958C232.862,-459.387 243.91,-466.908 251.092,-477 261.889,-492.172 265.272,-512.982 266.017,-529.574"/>
<polygon fill="black" stroke="black" points="262.52,-529.824 266.177,-539.767 269.519,-529.714 262.52,-529.824"/>
<text text-anchor="middle" x="234.654" y="-443.987" font-family="Times New Roman,serif" font-size="8.00">gen</text>
</g>
<!-- &#45;attrs0 -->
<g id="node2" class="node"><title>&#45;attrs0</title>
<polygon fill="none" stroke="gray" points="193.592,-386 118.592,-386 118.592,-350 199.592,-350 199.592,-380 193.592,-386"/>
<polyline fill="none" stroke="gray" points="193.592,-386 193.592,-380 "/>
<polyline fill="none" stroke="gray" points="199.592,-380 193.592,-380 "/>
<text text-anchor="start" x="129.092" y="-372" font-family="Times New Roman,serif" font-size="10.00">type:</text>
<text text-anchor="start" x="153.092" y="-372" font-family="Times New Roman,serif" font-size="10.00">&quot;access&quot;</text>
<text text-anchor="start" x="129.092" y="-359" font-family="Times New Roman,serif" font-size="10.00">label:</text>
<text text-anchor="start" x="153.092" y="-359" font-family="Times New Roman,serif" font-size="10.00">&quot;disti[k]&quot;</text>
</g>
<!-- &#45;attrs0&#45;&gt;http://example.org/disti_ak#2 -->
<g id="edge1" class="edge"><title>&#45;attrs0&#45;&gt;http://example.org/disti_ak#2</title>
<path fill="none" stroke="gray" stroke-dasharray="5,2" d="M166.112,-386.187C170.672,-397.35 176.59,-411.84 181.137,-422.971"/>
</g>
<!-- http://example.org/disti -->
<g id="node6" class="node"><title>http://example.org/disti</title>
<ellipse fill="none" stroke="black" cx="136.092" cy="-631" rx="93.6835" ry="18"/>
<text text-anchor="middle" x="136.092" y="-627.3" font-family="Times New Roman,serif" font-size="14.00">http://example.org/disti</text>
</g>
<!-- http://example.org/access10&#45;&gt;http://example.org/disti -->
<g id="edge4" class="edge"><title>http://example.org/access10&#45;&gt;http://example.org/disti</title>
<path fill="none" stroke="black" d="M234.194,-576.006C216.176,-585.923 193.306,-598.51 174.181,-609.037"/>
<polygon fill="black" stroke="black" points="172.483,-605.976 165.41,-613.864 175.858,-612.108 172.483,-605.976"/>
<text text-anchor="middle" x="233.887" y="-589.103" font-family="Times New Roman,serif" font-size="8.00">use</text>
</g>
<!-- http://example.org/k -->
<g id="node7" class="node"><title>http://example.org/k</title>
<ellipse fill="none" stroke="black" cx="331.092" cy="-631" rx="83.3857" ry="18"/>
<text text-anchor="middle" x="331.092" y="-627.3" font-family="Times New Roman,serif" font-size="14.00">http://example.org/k</text>
</g>
<!-- http://example.org/access10&#45;&gt;http://example.org/k -->
<g id="edge5" class="edge"><title>http://example.org/access10&#45;&gt;http://example.org/k</title>
<path fill="none" stroke="black" d="M281.069,-576.187C289.257,-584.995 299.37,-595.875 308.356,-605.542"/>
<polygon fill="black" stroke="black" points="305.891,-608.03 315.263,-612.971 311.018,-603.264 305.891,-608.03"/>
<text text-anchor="middle" x="295.69" y="-570.936" font-family="Times New Roman,serif" font-size="8.00">use</text>
</g>
<!-- &#45;attrs1 -->
<g id="node5" class="node"><title>&#45;attrs1</title>
<polygon fill="none" stroke="gray" points="328.092,-459 254.092,-459 254.092,-423 334.092,-423 334.092,-453 328.092,-459"/>
<polyline fill="none" stroke="gray" points="328.092,-459 328.092,-453 "/>
<polyline fill="none" stroke="gray" points="334.092,-453 328.092,-453 "/>
<text text-anchor="start" x="264.092" y="-438" font-family="Times New Roman,serif" font-size="10.00">type:</text>
<text text-anchor="start" x="287.092" y="-438" font-family="Times New Roman,serif" font-size="10.00">&quot;access&quot;</text>
</g>
<!-- &#45;attrs1&#45;&gt;http://example.org/access10 -->
<g id="edge3" class="edge"><title>&#45;attrs1&#45;&gt;http://example.org/access10</title>
<path fill="none" stroke="gray" stroke-dasharray="5,2" d="M291.876,-459.081C289.524,-475.434 285.286,-500.696 279.092,-522 277.375,-527.907 275.031,-534.195 272.753,-539.788"/>
</g>
<!-- http://example.org/distk_aj#2 -->
<g id="node8" class="node"><title>http://example.org/distk_aj#2</title>
<g id="a_node8"><a xlink:href="http://example.org/distk_aj#2" xlink:title="distk_aj#2">
<ellipse fill="#fffc87" stroke="#808080" cx="404.092" cy="-441" rx="48.1917" ry="18"/>
<text text-anchor="middle" x="404.092" y="-437.3" font-family="Times New Roman,serif" font-size="14.00">distk_aj#2</text>
</a>
</g>
</g>
<!-- http://example.org/v1 -->
<g id="node10" class="node"><title>http://example.org/v1</title>
<ellipse fill="none" stroke="black" cx="404.092" cy="-558" rx="87.1846" ry="18"/>
<text text-anchor="middle" x="404.092" y="-554.3" font-family="Times New Roman,serif" font-size="14.00">http://example.org/v1</text>
</g>
<!-- http://example.org/distk_aj#2&#45;&gt;http://example.org/v1 -->
<g id="edge8" class="edge"><title>http://example.org/distk_aj#2&#45;&gt;http://example.org/v1</title>
<path fill="none" stroke="darkgreen" d="M404.092,-459.466C404.092,-478.064 404.092,-507.756 404.092,-529.499"/>
<polygon fill="darkgreen" stroke="darkgreen" points="400.592,-529.746 404.092,-539.746 407.592,-529.746 400.592,-529.746"/>
<text text-anchor="middle" x="485.592" y="-510.8" font-family="Times New Roman,serif" font-size="14.00">part</text>
<text text-anchor="middle" x="485.592" y="-495.8" font-family="Times New Roman,serif" font-size="14.00">row0[1]</text>
<text text-anchor="middle" x="485.592" y="-480.8" font-family="Times New Roman,serif" font-size="14.00">2018&#45;03&#45;05T15:04:26.361532</text>
</g>
<!-- http://example.org/access11 -->
<g id="node11" class="node"><title>http://example.org/access11</title>
<g id="a_node11"><a xlink:href="http://example.org/access11" xlink:title="access11">
<polygon fill="#9fb1fc" stroke="#0000ff" points="629.092,-576 561.092,-576 561.092,-540 629.092,-540 629.092,-576"/>
<text text-anchor="middle" x="595.092" y="-554.3" font-family="Times New Roman,serif" font-size="14.00">access11</text>
</a>
</g>
</g>
<!-- http://example.org/distk_aj#2&#45;&gt;http://example.org/access11 -->
<g id="edge12" class="edge"><title>http://example.org/distk_aj#2&#45;&gt;http://example.org/access11</title>
<path fill="none" stroke="black" d="M449.842,-446.685C492.103,-451.892 550.865,-461.652 568.092,-477 583.047,-490.324 589.73,-512.216 592.71,-529.733"/>
<polygon fill="black" stroke="black" points="589.288,-530.535 594.128,-539.96 596.222,-529.574 589.288,-530.535"/>
<text text-anchor="middle" x="458.949" y="-432.866" font-family="Times New Roman,serif" font-size="8.00">gen</text>
</g>
<!-- &#45;attrs2 -->
<g id="node9" class="node"><title>&#45;attrs2</title>
<polygon fill="none" stroke="gray" points="689.592,-386 614.592,-386 614.592,-350 695.592,-350 695.592,-380 689.592,-386"/>
<polyline fill="none" stroke="gray" points="689.592,-386 689.592,-380 "/>
<polyline fill="none" stroke="gray" points="695.592,-380 689.592,-380 "/>
<text text-anchor="start" x="625.092" y="-372" font-family="Times New Roman,serif" font-size="10.00">type:</text>
<text text-anchor="start" x="649.092" y="-372" font-family="Times New Roman,serif" font-size="10.00">&quot;access&quot;</text>
<text text-anchor="start" x="625.092" y="-359" font-family="Times New Roman,serif" font-size="10.00">label:</text>
<text text-anchor="start" x="649.092" y="-359" font-family="Times New Roman,serif" font-size="10.00">&quot;distk[j]&quot;</text>
</g>
<!-- &#45;attrs2&#45;&gt;http://example.org/distk_aj#2 -->
<g id="edge7" class="edge"><title>&#45;attrs2&#45;&gt;http://example.org/distk_aj#2</title>
<path fill="none" stroke="gray" stroke-dasharray="5,2" d="M614.525,-383.329C611.679,-384.256 608.847,-385.155 606.092,-386 550.043,-403.19 484.319,-420.182 443.435,-430.385"/>
</g>
<!-- http://example.org/distk -->
<g id="node13" class="node"><title>http://example.org/distk</title>
<ellipse fill="none" stroke="black" cx="561.092" cy="-631" rx="96.3833" ry="18"/>
<text text-anchor="middle" x="561.092" y="-627.3" font-family="Times New Roman,serif" font-size="14.00">http://example.org/distk</text>
</g>
<!-- http://example.org/access11&#45;&gt;http://example.org/distk -->
<g id="edge10" class="edge"><title>http://example.org/access11&#45;&gt;http://example.org/distk</title>
<path fill="none" stroke="black" d="M586.862,-576.187C582.894,-584.472 578.049,-594.59 573.636,-603.807"/>
<polygon fill="black" stroke="black" points="570.409,-602.44 569.247,-612.971 576.723,-605.464 570.409,-602.44"/>
<text text-anchor="middle" x="595.339" y="-586.662" font-family="Times New Roman,serif" font-size="8.00">use</text>
</g>
<!-- http://example.org/j#2 -->
<g id="node14" class="node"><title>http://example.org/j#2</title>
<ellipse fill="none" stroke="black" cx="765.092" cy="-631" rx="89.8845" ry="18"/>
<text text-anchor="middle" x="765.092" y="-627.3" font-family="Times New Roman,serif" font-size="14.00">http://example.org/j#2</text>
</g>
<!-- http://example.org/access11&#45;&gt;http://example.org/j#2 -->
<g id="edge11" class="edge"><title>http://example.org/access11&#45;&gt;http://example.org/j#2</title>
<path fill="none" stroke="black" d="M629.494,-573.368C655.209,-584.107 690.636,-598.904 718.83,-610.679"/>
<polygon fill="black" stroke="black" points="717.514,-613.922 728.09,-614.546 720.211,-607.463 717.514,-613.922"/>
<text text-anchor="middle" x="641.421" y="-562.371" font-family="Times New Roman,serif" font-size="8.00">use</text>
</g>
<!-- &#45;attrs3 -->
<g id="node12" class="node"><title>&#45;attrs3</title>
<polygon fill="none" stroke="gray" points="641.092,-459 567.092,-459 567.092,-423 647.092,-423 647.092,-453 641.092,-459"/>
<polyline fill="none" stroke="gray" points="641.092,-459 641.092,-453 "/>
<polyline fill="none" stroke="gray" points="647.092,-453 641.092,-453 "/>
<text text-anchor="start" x="577.092" y="-438" font-family="Times New Roman,serif" font-size="10.00">type:</text>
<text text-anchor="start" x="600.092" y="-438" font-family="Times New Roman,serif" font-size="10.00">&quot;access&quot;</text>
</g>
<!-- &#45;attrs3&#45;&gt;http://example.org/access11 -->
<g id="edge9" class="edge"><title>&#45;attrs3&#45;&gt;http://example.org/access11</title>
<path fill="none" stroke="gray" stroke-dasharray="5,2" d="M605.27,-459.466C603.001,-481.207 599.151,-518.105 596.893,-539.746"/>
</g>
<!-- http://example.org/sum#2 -->
<g id="node15" class="node"><title>http://example.org/sum#2</title>
<g id="a_node15"><a xlink:href="http://example.org/sum#2" xlink:title="sum#2">
<ellipse fill="#fffc87" stroke="#808080" cx="355.092" cy="-266" rx="35.194" ry="18"/>
<text text-anchor="middle" x="355.092" y="-262.3" font-family="Times New Roman,serif" font-size="14.00">sum#2</text>
</a>
</g>
</g>
<!-- http://example.org/sum#2&#45;&gt;http://example.org/disti_ak#2 -->
<g id="edge19" class="edge"><title>http://example.org/sum#2&#45;&gt;http://example.org/disti_ak#2</title>
<path fill="none" stroke="black" d="M347.897,-283.762C336.603,-308.546 312.697,-355.338 281.092,-386 265.687,-400.946 245.364,-413.358 227.646,-422.498"/>
<polygon fill="black" stroke="black" points="226.048,-419.384 218.657,-426.975 229.169,-425.649 226.048,-419.384"/>
<text text-anchor="middle" x="356.495" y="-294.153" font-family="Times New Roman,serif" font-size="8.00">der</text>
</g>
<!-- http://example.org/sum#2&#45;&gt;http://example.org/distk_aj#2 -->
<g id="edge21" class="edge"><title>http://example.org/sum#2&#45;&gt;http://example.org/distk_aj#2</title>
<path fill="none" stroke="black" d="M352.27,-284.054C350.628,-297.295 349.51,-316.026 353.092,-332 359.811,-361.962 375.822,-393.399 388.127,-414.579"/>
<polygon fill="black" stroke="black" points="385.179,-416.47 393.304,-423.269 391.193,-412.887 385.179,-416.47"/>
<text text-anchor="middle" x="364.323" y="-291.083" font-family="Times New Roman,serif" font-size="8.00">der</text>
</g>
<!-- http://example.org/vsum#2 -->
<g id="node17" class="node"><title>http://example.org/vsum#2</title>
<g id="a_node17"><a xlink:href="http://example.org/vsum#2" xlink:title="vsum#2">
<ellipse fill="#32cd32" stroke="#808080" cx="557.092" cy="-368" rx="39.7935" ry="18"/>
<text text-anchor="middle" x="557.092" y="-364.3" font-family="Times New Roman,serif" font-size="14.00">vsum#2</text>
</a>
</g>
</g>
<!-- http://example.org/sum#2&#45;&gt;http://example.org/vsum#2 -->
<g id="edge15" class="edge"><title>http://example.org/sum#2&#45;&gt;http://example.org/vsum#2</title>
<path fill="none" stroke="darkgreen" d="M354.798,-284.186C355.522,-298.983 359.046,-319.822 372.092,-332 391.349,-349.975 459.688,-359.189 507.673,-363.55"/>
<polygon fill="darkgreen" stroke="darkgreen" points="507.616,-367.058 517.88,-364.433 508.219,-360.084 507.616,-367.058"/>
<text text-anchor="middle" x="453.592" y="-320.8" font-family="Times New Roman,serif" font-size="14.00">defined</text>
<text text-anchor="middle" x="453.592" y="-305.8" font-family="Times New Roman,serif" font-size="14.00">2018&#45;03&#45;05T15:04:26.361532</text>
</g>
<!-- http://example.org/+2 -->
<g id="node19" class="node"><title>http://example.org/+2</title>
<g id="a_node19"><a xlink:href="http://example.org/+2" xlink:title="+2">
<polygon fill="#9fb1fc" stroke="#0000ff" points="272.092,-386 218.092,-386 218.092,-350 272.092,-350 272.092,-386"/>
<text text-anchor="middle" x="245.092" y="-364.3" font-family="Times New Roman,serif" font-size="14.00">+2</text>
</a>
</g>
</g>
<!-- http://example.org/sum#2&#45;&gt;http://example.org/+2 -->
<g id="edge22" class="edge"><title>http://example.org/sum#2&#45;&gt;http://example.org/+2</title>
<path fill="none" stroke="black" d="M327.572,-277.227C314.317,-283.081 298.8,-291.39 287.092,-302 275.075,-312.89 265.053,-327.961 257.817,-340.849"/>
<polygon fill="black" stroke="black" points="254.682,-339.289 253.051,-349.757 260.854,-342.591 254.682,-339.289"/>
<text text-anchor="middle" x="326.102" y="-290.255" font-family="Times New Roman,serif" font-size="8.00">gen</text>
</g>
<!-- &#45;attrs4 -->
<g id="node16" class="node"><title>&#45;attrs4</title>
<polygon fill="none" stroke="gray" points="552.592,-182 439.592,-182 439.592,-146 558.592,-146 558.592,-176 552.592,-182"/>
<polyline fill="none" stroke="gray" points="552.592,-182 552.592,-176 "/>
<polyline fill="none" stroke="gray" points="558.592,-176 552.592,-176 "/>
<text text-anchor="start" x="450.092" y="-168" font-family="Times New Roman,serif" font-size="10.00">type:</text>
<text text-anchor="start" x="474.092" y="-168" font-family="Times New Roman,serif" font-size="10.00">&quot;operation&quot;</text>
<text text-anchor="start" x="450.092" y="-155" font-family="Times New Roman,serif" font-size="10.00">label:</text>
<text text-anchor="start" x="474.092" y="-155" font-family="Times New Roman,serif" font-size="10.00">&quot;disti[k] + distk[j]&quot;</text>
</g>
<!-- &#45;attrs4&#45;&gt;http://example.org/sum#2 -->
<g id="edge13" class="edge"><title>&#45;attrs4&#45;&gt;http://example.org/sum#2</title>
<path fill="none" stroke="gray" stroke-dasharray="5,2" d="M474.338,-182.191C446.354,-201.624 401.322,-232.896 375.345,-250.936"/>
</g>
<!-- http://example.org/vsum#2&#45;&gt;http://example.org/sum#2 -->
<g id="edge16" class="edge"><title>http://example.org/vsum#2&#45;&gt;http://example.org/sum#2</title>
<path fill="none" stroke="darkgreen" d="M555.939,-349.726C553.995,-334.87 548.817,-313.995 535.092,-302 515.314,-284.715 446.241,-275.171 399.643,-270.57"/>
<polygon fill="darkgreen" stroke="darkgreen" points="399.772,-267.067 389.487,-269.61 399.113,-274.036 399.772,-267.067"/>
<text text-anchor="middle" x="634.592" y="-320.8" font-family="Times New Roman,serif" font-size="14.00">def by</text>
<text text-anchor="middle" x="634.592" y="-305.8" font-family="Times New Roman,serif" font-size="14.00">2018&#45;03&#45;05T15:04:26.361532</text>
</g>
<!-- &#45;attrs5 -->
<g id="node18" class="node"><title>&#45;attrs5</title>
<polygon fill="none" stroke="gray" points="812.592,-284 763.592,-284 763.592,-248 818.592,-248 818.592,-278 812.592,-284"/>
<polyline fill="none" stroke="gray" points="812.592,-284 812.592,-278 "/>
<polyline fill="none" stroke="gray" points="818.592,-278 812.592,-278 "/>
<text text-anchor="start" x="774.092" y="-263" font-family="Times New Roman,serif" font-size="10.00">repr:</text>
<text text-anchor="start" x="795.092" y="-263" font-family="Times New Roman,serif" font-size="10.00">&quot;1&quot;</text>
</g>
<!-- &#45;attrs5&#45;&gt;http://example.org/vsum#2 -->
<g id="edge14" class="edge"><title>&#45;attrs5&#45;&gt;http://example.org/vsum#2</title>
<path fill="none" stroke="gray" stroke-dasharray="5,2" d="M784.874,-284.198C778.405,-299.433 766.728,-320.925 749.092,-332 694.471,-366.301 667.857,-335.147 605.092,-350 598.812,-351.486 592.211,-353.507 585.982,-355.637"/>
</g>
<!-- http://example.org/+2&#45;&gt;http://example.org/disti_ak#2 -->
<g id="edge18" class="edge"><title>http://example.org/+2&#45;&gt;http://example.org/disti_ak#2</title>
<path fill="none" stroke="black" d="M231.294,-386.187C224.261,-394.948 215.582,-405.758 207.853,-415.385"/>
<polygon fill="black" stroke="black" points="204.902,-413.471 201.371,-423.46 210.36,-417.853 204.902,-413.471"/>
<text text-anchor="middle" x="236.729" y="-398.268" font-family="Times New Roman,serif" font-size="8.00">use</text>
</g>
<!-- http://example.org/+2&#45;&gt;http://example.org/distk_aj#2 -->
<g id="edge20" class="edge"><title>http://example.org/+2&#45;&gt;http://example.org/distk_aj#2</title>
<path fill="none" stroke="black" d="M272.103,-381.431C287.343,-388.414 306.752,-397.256 324.092,-405 337.108,-410.813 351.356,-417.077 364.174,-422.678"/>
<polygon fill="black" stroke="black" points="363.088,-426.022 373.654,-426.812 365.887,-419.606 363.088,-426.022"/>
<text text-anchor="middle" x="284.33" y="-370.842" font-family="Times New Roman,serif" font-size="8.00">use</text>
</g>
<!-- &#45;attrs6 -->
<g id="node20" class="node"><title>&#45;attrs6</title>
<polygon fill="none" stroke="gray" points="268.092,-284 216.092,-284 216.092,-248 274.092,-248 274.092,-278 268.092,-284"/>
<polyline fill="none" stroke="gray" points="268.092,-284 268.092,-278 "/>
<polyline fill="none" stroke="gray" points="274.092,-278 268.092,-278 "/>
<text text-anchor="start" x="226.092" y="-263" font-family="Times New Roman,serif" font-size="10.00">type:</text>
<text text-anchor="start" x="249.092" y="-263" font-family="Times New Roman,serif" font-size="10.00">&quot;+&quot;</text>
</g>
<!-- &#45;attrs6&#45;&gt;http://example.org/+2 -->
<g id="edge17" class="edge"><title>&#45;attrs6&#45;&gt;http://example.org/+2</title>
<path fill="none" stroke="gray" stroke-dasharray="5,2" d="M245.092,-284.419C245.092,-302.773 245.092,-331.502 245.092,-349.781"/>
</g>
<!-- http://example.org/ikj#2 -->
<g id="node21" class="node"><title>http://example.org/ikj#2</title>
<g id="a_node21"><a xlink:href="http://example.org/ikj#2" xlink:title="ikj#2">
<ellipse fill="#fffc87" stroke="#808080" cx="395.092" cy="-91" rx="28.6953" ry="18"/>
<text text-anchor="middle" x="395.092" y="-87.3" font-family="Times New Roman,serif" font-size="14.00">ikj#2</text>
</a>
</g>
</g>
<!-- http://example.org/ikj#2&#45;&gt;http://example.org/sum#2 -->
<g id="edge27" class="edge"><title>http://example.org/ikj#2&#45;&gt;http://example.org/sum#2</title>
<path fill="none" stroke="black" d="M379.878,-106.471C370.452,-116.536 359.199,-130.828 354.092,-146 343.93,-176.19 346.371,-213.181 349.921,-237.829"/>
<polygon fill="black" stroke="black" points="346.496,-238.577 351.532,-247.899 353.408,-237.471 346.496,-238.577"/>
<text text-anchor="middle" x="384.402" y="-118.873" font-family="Times New Roman,serif" font-size="8.00">der</text>
</g>
<!-- http://example.org/ikj#2&#45;&gt;http://example.org/vsum#2 -->
<g id="edge24" class="edge"><title>http://example.org/ikj#2&#45;&gt;http://example.org/vsum#2</title>
<path fill="none" stroke="darkgreen" d="M422.435,-96.3153C457.884,-102.828 520.655,-117.551 567.092,-146 649.902,-196.732 683.364,-212.099 720.092,-302 725.135,-314.343 728.761,-321.869 720.092,-332 703.275,-351.654 630.169,-343.655 605.092,-350 602.103,-350.756 599.038,-351.622 595.972,-352.553"/>
<polygon fill="darkgreen" stroke="darkgreen" points="594.707,-349.284 586.274,-355.698 596.866,-355.943 594.707,-349.284"/>
<text text-anchor="middle" x="761.592" y="-218.8" font-family="Times New Roman,serif" font-size="14.00">access</text>
<text text-anchor="middle" x="761.592" y="-203.8" font-family="Times New Roman,serif" font-size="14.00">2018&#45;03&#45;05T15:04:26.361532</text>
</g>
<!-- http://example.org/assign9 -->
<g id="node23" class="node"><title>http://example.org/assign9</title>
<g id="a_node23"><a xlink:href="http://example.org/assign9" xlink:title="assign9">
<polygon fill="#9fb1fc" stroke="#0000ff" points="421.092,-182 363.092,-182 363.092,-146 421.092,-146 421.092,-182"/>
<text text-anchor="middle" x="392.092" y="-160.3" font-family="Times New Roman,serif" font-size="14.00">assign9</text>
</a>
</g>
</g>
<!-- http://example.org/ikj#2&#45;&gt;http://example.org/assign9 -->
<g id="edge28" class="edge"><title>http://example.org/ikj#2&#45;&gt;http://example.org/assign9</title>
<path fill="none" stroke="black" d="M394.366,-109.187C394.027,-117.211 393.615,-126.953 393.236,-135.931"/>
<polygon fill="black" stroke="black" points="389.737,-135.832 392.812,-145.971 396.731,-136.128 389.737,-135.832"/>
<text text-anchor="middle" x="407.028" y="-115.329" font-family="Times New Roman,serif" font-size="8.00">gen</text>
</g>
<!-- &#45;attrs7 -->
<g id="node22" class="node"><title>&#45;attrs7</title>
<polygon fill="none" stroke="gray" points="426.592,-36 357.592,-36 357.592,-0 432.592,-0 432.592,-30 426.592,-36"/>
<polyline fill="none" stroke="gray" points="426.592,-36 426.592,-30 "/>
<polyline fill="none" stroke="gray" points="432.592,-30 426.592,-30 "/>
<text text-anchor="start" x="368.092" y="-22" font-family="Times New Roman,serif" font-size="10.00">type:</text>
<text text-anchor="start" x="392.092" y="-22" font-family="Times New Roman,serif" font-size="10.00">&quot;name&quot;</text>
<text text-anchor="start" x="368.092" y="-9" font-family="Times New Roman,serif" font-size="10.00">label:</text>
<text text-anchor="start" x="392.092" y="-9" font-family="Times New Roman,serif" font-size="10.00">&quot;ikj&quot;</text>
</g>
<!-- &#45;attrs7&#45;&gt;http://example.org/ikj#2 -->
<g id="edge23" class="edge"><title>&#45;attrs7&#45;&gt;http://example.org/ikj#2</title>
<path fill="none" stroke="gray" stroke-dasharray="5,2" d="M395.092,-36.1871C395.092,-47.3501 395.092,-61.8398 395.092,-72.9712"/>
</g>
<!-- http://example.org/assign9&#45;&gt;http://example.org/sum#2 -->
<g id="edge26" class="edge"><title>http://example.org/assign9&#45;&gt;http://example.org/sum#2</title>
<path fill="none" stroke="black" d="M385.647,-182.419C379.936,-197.855 371.509,-220.631 364.951,-238.355"/>
<polygon fill="black" stroke="black" points="361.528,-237.521 361.34,-248.114 368.093,-239.95 361.528,-237.521"/>
<text text-anchor="middle" x="395.228" y="-192.06" font-family="Times New Roman,serif" font-size="8.00">use</text>
</g>
<!-- &#45;attrs8 -->
<g id="node24" class="node"><title>&#45;attrs8</title>
<polygon fill="none" stroke="gray" points="342.592,-109 269.592,-109 269.592,-73 348.592,-73 348.592,-103 342.592,-109"/>
<polyline fill="none" stroke="gray" points="342.592,-109 342.592,-103 "/>
<polyline fill="none" stroke="gray" points="348.592,-103 342.592,-103 "/>
<text text-anchor="start" x="280.092" y="-88" font-family="Times New Roman,serif" font-size="10.00">type:</text>
<text text-anchor="start" x="303.092" y="-88" font-family="Times New Roman,serif" font-size="10.00">&quot;assign&quot;</text>
</g>
<!-- &#45;attrs8&#45;&gt;http://example.org/assign9 -->
<g id="edge25" class="edge"><title>&#45;attrs8&#45;&gt;http://example.org/assign9</title>
<path fill="none" stroke="gray" stroke-dasharray="5,2" d="M329.184,-109.187C342.234,-120.35 359.173,-134.84 372.185,-145.971"/>
</g>
</g>
</svg>
