<?xml version="1.0" encoding="UTF-8" standalone="no"?>
<!DOCTYPE svg PUBLIC "-//W3C//DTD SVG 1.1//EN"
 "http://www.w3.org/Graphics/SVG/1.1/DTD/svg11.dtd">
<!-- Generated by graphviz version 2.38.0 (20140413.2041)
 -->
<!-- Title: PROV Pages: 1 -->
<svg width="527pt" height="307pt"
 viewBox="0.00 0.00 526.69 307.00" xmlns="http://www.w3.org/2000/svg" xmlns:xlink="http://www.w3.org/1999/xlink">
<g id="graph0" class="graph" transform="scale(1 1) rotate(0) translate(4 303)">
<title>PROV</title>
<polygon fill="white" stroke="none" points="-4,4 -4,-303 522.691,-303 522.691,4 -4,4"/>
<!-- http://example.org/disti_aj#4 -->
<g id="node1" class="node"><title>http://example.org/disti_aj#4</title>
<g id="a_node1"><a xlink:href="http://example.org/disti_aj#4" xlink:title="disti_aj#4">
<ellipse fill="#fffc87" stroke="#808080" cx="338.691" cy="-91" rx="46.2923" ry="18"/>
<text text-anchor="middle" x="338.691" y="-87.3" font-family="Times New Roman,serif" font-size="14.00">disti_aj#4</text>
</a>
</g>
</g>
<!-- http://example.org/v10000 -->
<g id="node3" class="node"><title>http://example.org/v10000</title>
<ellipse fill="none" stroke="black" cx="364.691" cy="-208" rx="104.782" ry="18"/>
<text text-anchor="middle" x="364.691" y="-204.3" font-family="Times New Roman,serif" font-size="14.00">http://example.org/v10000</text>
</g>
<!-- http://example.org/disti_aj#4&#45;&gt;http://example.org/v10000 -->
<g id="edge2" class="edge"><title>http://example.org/disti_aj#4&#45;&gt;http://example.org/v10000</title>
<path fill="none" stroke="darkgreen" d="M342.527,-108.969C346.752,-127.654 353.603,-157.957 358.571,-179.931"/>
<polygon fill="darkgreen" stroke="darkgreen" points="355.22,-180.98 360.839,-189.962 362.047,-179.436 355.22,-180.98"/>
<text text-anchor="middle" x="437.191" y="-160.8" font-family="Times New Roman,serif" font-size="14.00">part</text>
<text text-anchor="middle" x="437.191" y="-145.8" font-family="Times New Roman,serif" font-size="14.00">row1[0]</text>
<text text-anchor="middle" x="437.191" y="-130.8" font-family="Times New Roman,serif" font-size="14.00">2018&#45;03&#45;04T18:41:32.223360</text>
</g>
<!-- http://example.org/access22 -->
<g id="node4" class="node"><title>http://example.org/access22</title>
<g id="a_node4"><a xlink:href="http://example.org/access22" xlink:title="access22">
<polygon fill="#9fb1fc" stroke="#0000ff" points="241.691,-226 173.691,-226 173.691,-190 241.691,-190 241.691,-226"/>
<text text-anchor="middle" x="207.691" y="-204.3" font-family="Times New Roman,serif" font-size="14.00">access22</text>
</a>
</g>
</g>
<!-- http://example.org/disti_aj#4&#45;&gt;http://example.org/access22 -->
<g id="edge6" class="edge"><title>http://example.org/disti_aj#4&#45;&gt;http://example.org/access22</title>
<path fill="none" stroke="black" d="M320.751,-107.749C298.524,-127.261 260.446,-160.689 234.686,-183.302"/>
<polygon fill="black" stroke="black" points="232.325,-180.718 227.118,-189.945 236.943,-185.978 232.325,-180.718"/>
<text text-anchor="middle" x="323.684" y="-120.559" font-family="Times New Roman,serif" font-size="8.00">gen</text>
</g>
<!-- &#45;attrs0 -->
<g id="node2" class="node"><title>&#45;attrs0</title>
<polygon fill="none" stroke="gray" points="373.191,-36 298.191,-36 298.191,-0 379.191,-0 379.191,-30 373.191,-36"/>
<polyline fill="none" stroke="gray" points="373.191,-36 373.191,-30 "/>
<polyline fill="none" stroke="gray" points="379.191,-30 373.191,-30 "/>
<text text-anchor="start" x="308.691" y="-22" font-family="Times New Roman,serif" font-size="10.00">type:</text>
<text text-anchor="start" x="332.691" y="-22" font-family="Times New Roman,serif" font-size="10.00">&quot;access&quot;</text>
<text text-anchor="start" x="308.691" y="-9" font-family="Times New Roman,serif" font-size="10.00">label:</text>
<text text-anchor="start" x="332.691" y="-9" font-family="Times New Roman,serif" font-size="10.00">&quot;disti[j]&quot;</text>
</g>
<!-- &#45;attrs0&#45;&gt;http://example.org/disti_aj#4 -->
<g id="edge1" class="edge"><title>&#45;attrs0&#45;&gt;http://example.org/disti_aj#4</title>
<path fill="none" stroke="gray" stroke-dasharray="5,2" d="M338.691,-36.1871C338.691,-47.3501 338.691,-61.8398 338.691,-72.9712"/>
</g>
<!-- http://example.org/disti#2 -->
<g id="node6" class="node"><title>http://example.org/disti#2</title>
<ellipse fill="none" stroke="black" cx="102.691" cy="-281" rx="102.882" ry="18"/>
<text text-anchor="middle" x="102.691" y="-277.3" font-family="Times New Roman,serif" font-size="14.00">http://example.org/disti#2</text>
</g>
<!-- http://example.org/access22&#45;&gt;http://example.org/disti#2 -->
<g id="edge4" class="edge"><title>http://example.org/access22&#45;&gt;http://example.org/disti#2</title>
<path fill="none" stroke="black" d="M182.541,-226.006C168.543,-235.471 150.946,-247.37 135.836,-257.587"/>
<polygon fill="black" stroke="black" points="133.597,-254.877 127.274,-263.377 137.518,-260.675 133.597,-254.877"/>
<text text-anchor="middle" x="183.604" y="-239.069" font-family="Times New Roman,serif" font-size="8.00">use</text>
</g>
<!-- http://example.org/j#4 -->
<g id="node7" class="node"><title>http://example.org/j#4</title>
<ellipse fill="none" stroke="black" cx="312.691" cy="-281" rx="89.8845" ry="18"/>
<text text-anchor="middle" x="312.691" y="-277.3" font-family="Times New Roman,serif" font-size="14.00">http://example.org/j#4</text>
</g>
<!-- http://example.org/access22&#45;&gt;http://example.org/j#4 -->
<g id="edge5" class="edge"><title>http://example.org/access22&#45;&gt;http://example.org/j#4</title>
<path fill="none" stroke="black" d="M232.841,-226.006C246.94,-235.54 264.691,-247.543 279.873,-257.809"/>
<polygon fill="black" stroke="black" points="278.224,-260.919 288.469,-263.621 282.146,-255.12 278.224,-260.919"/>
<text text-anchor="middle" x="246.331" y="-217.546" font-family="Times New Roman,serif" font-size="8.00">use</text>
</g>
<!-- &#45;attrs1 -->
<g id="node5" class="node"><title>&#45;attrs1</title>
<polygon fill="none" stroke="gray" points="241.691,-109 167.691,-109 167.691,-73 247.691,-73 247.691,-103 241.691,-109"/>
<polyline fill="none" stroke="gray" points="241.691,-109 241.691,-103 "/>
<polyline fill="none" stroke="gray" points="247.691,-103 241.691,-103 "/>
<text text-anchor="start" x="177.691" y="-88" font-family="Times New Roman,serif" font-size="10.00">type:</text>
<text text-anchor="start" x="200.691" y="-88" font-family="Times New Roman,serif" font-size="10.00">&quot;access&quot;</text>
</g>
<!-- &#45;attrs1&#45;&gt;http://example.org/access22 -->
<g id="edge3" class="edge"><title>&#45;attrs1&#45;&gt;http://example.org/access22</title>
<path fill="none" stroke="gray" stroke-dasharray="5,2" d="M207.691,-109.466C207.691,-131.207 207.691,-168.105 207.691,-189.746"/>
</g>
</g>
</svg>
