<?xml version="1.0" encoding="UTF-8" standalone="no"?>
<!DOCTYPE svg PUBLIC "-//W3C//DTD SVG 1.1//EN"
 "http://www.w3.org/Graphics/SVG/1.1/DTD/svg11.dtd">
<!-- Generated by graphviz version 2.38.0 (20140413.2041)
 -->
<!-- Title: PROV Pages: 1 -->
<svg width="626pt" height="292pt"
 viewBox="0.00 0.00 626.00 292.00" xmlns="http://www.w3.org/2000/svg" xmlns:xlink="http://www.w3.org/1999/xlink">
<g id="graph0" class="graph" transform="scale(1 1) rotate(0) translate(4 288)">
<title>PROV</title>
<polygon fill="white" stroke="none" points="-4,4 -4,-288 622,-288 622,4 -4,4"/>
<!-- http://example.org/dist -->
<g id="node1" class="node"><title>http://example.org/dist</title>
<g id="a_node1"><a xlink:href="http://example.org/dist" xlink:title="dist">
<ellipse fill="#fffc87" stroke="#808080" cx="124.5" cy="-91" rx="27" ry="18"/>
<text text-anchor="middle" x="124.5" y="-87.3" font-family="Times New Roman,serif" font-size="14.00">dist</text>
</a>
</g>
</g>
<!-- http://example.org/list#2 -->
<g id="node3" class="node"><title>http://example.org/list#2</title>
<ellipse fill="none" stroke="black" cx="283.5" cy="-193" rx="98.2828" ry="18"/>
<text text-anchor="middle" x="283.5" y="-189.3" font-family="Times New Roman,serif" font-size="14.00">http://example.org/list#2</text>
</g>
<!-- http://example.org/dist&#45;&gt;http://example.org/list#2 -->
<g id="edge2" class="edge"><title>http://example.org/dist&#45;&gt;http://example.org/list#2</title>
<path fill="none" stroke="darkgreen" d="M125.246,-109.059C126.815,-123.774 131.4,-144.562 144.5,-157 156.381,-168.281 171.344,-176.074 187.019,-181.428"/>
<polygon fill="darkgreen" stroke="darkgreen" points="186.262,-184.857 196.849,-184.455 188.322,-178.167 186.262,-184.857"/>
<text text-anchor="middle" x="226" y="-145.8" font-family="Times New Roman,serif" font-size="14.00">access</text>
<text text-anchor="middle" x="226" y="-130.8" font-family="Times New Roman,serif" font-size="14.00">2018&#45;03&#45;05T15:04:24.817746</text>
</g>
<!-- http://example.org/assign2 -->
<g id="node6" class="node"><title>http://example.org/assign2</title>
<g id="a_node6"><a xlink:href="http://example.org/assign2" xlink:title="assign2">
<polygon fill="#9fb1fc" stroke="#0000ff" points="82.5,-211 24.5,-211 24.5,-175 82.5,-175 82.5,-211"/>
<text text-anchor="middle" x="53.5" y="-189.3" font-family="Times New Roman,serif" font-size="14.00">assign2</text>
</a>
</g>
</g>
<!-- http://example.org/dist&#45;&gt;http://example.org/assign2 -->
<g id="edge8" class="edge"><title>http://example.org/dist&#45;&gt;http://example.org/assign2</title>
<path fill="none" stroke="black" d="M111.929,-107.101C106.992,-113.186 101.357,-120.333 96.5,-127 87.2944,-139.637 77.6388,-154.108 69.8147,-166.183"/>
<polygon fill="black" stroke="black" points="66.6877,-164.575 64.2265,-174.88 72.5768,-168.359 66.6877,-164.575"/>
<text text-anchor="middle" x="117.316" y="-119.2" font-family="Times New Roman,serif" font-size="8.00">gen</text>
</g>
<!-- http://example.org/list -->
<g id="node8" class="node"><title>http://example.org/list</title>
<ellipse fill="none" stroke="black" cx="308.5" cy="-266" rx="89.0842" ry="18"/>
<text text-anchor="middle" x="308.5" y="-262.3" font-family="Times New Roman,serif" font-size="14.00">http://example.org/list</text>
</g>
<!-- http://example.org/dist&#45;&gt;http://example.org/list -->
<g id="edge7" class="edge"><title>http://example.org/dist&#45;&gt;http://example.org/list</title>
<path fill="none" stroke="black" d="M121.492,-108.958C119.85,-122.48 119.252,-141.631 125.5,-157 137.932,-187.582 149.275,-192.329 176.5,-211 198.933,-226.385 226.423,-238.51 250.497,-247.34"/>
<polygon fill="black" stroke="black" points="249.637,-250.749 260.231,-250.802 251.982,-244.154 249.637,-250.749"/>
<text text-anchor="middle" x="133.601" y="-115.91" font-family="Times New Roman,serif" font-size="8.00">der</text>
</g>
<!-- &#45;attrs0 -->
<g id="node2" class="node"><title>&#45;attrs0</title>
<polygon fill="none" stroke="gray" points="156,-36 87,-36 87,-0 162,-0 162,-30 156,-36"/>
<polyline fill="none" stroke="gray" points="156,-36 156,-30 "/>
<polyline fill="none" stroke="gray" points="162,-30 156,-30 "/>
<text text-anchor="start" x="97.5" y="-22" font-family="Times New Roman,serif" font-size="10.00">type:</text>
<text text-anchor="start" x="121.5" y="-22" font-family="Times New Roman,serif" font-size="10.00">&quot;name&quot;</text>
<text text-anchor="start" x="97.5" y="-9" font-family="Times New Roman,serif" font-size="10.00">label:</text>
<text text-anchor="start" x="121.5" y="-9" font-family="Times New Roman,serif" font-size="10.00">&quot;dist&quot;</text>
</g>
<!-- &#45;attrs0&#45;&gt;http://example.org/dist -->
<g id="edge1" class="edge"><title>&#45;attrs0&#45;&gt;http://example.org/dist</title>
<path fill="none" stroke="gray" stroke-dasharray="5,2" d="M124.5,-36.1871C124.5,-47.3501 124.5,-61.8398 124.5,-72.9712"/>
</g>
<!-- http://example.org/result -->
<g id="node4" class="node"><title>http://example.org/result</title>
<g id="a_node4"><a xlink:href="http://example.org/result" xlink:title="result">
<ellipse fill="#fffc87" stroke="#808080" cx="490.5" cy="-91" rx="30.5947" ry="18"/>
<text text-anchor="middle" x="490.5" y="-87.3" font-family="Times New Roman,serif" font-size="14.00">result</text>
</a>
</g>
</g>
<!-- http://example.org/result&#45;&gt;http://example.org/list#2 -->
<g id="edge4" class="edge"><title>http://example.org/result&#45;&gt;http://example.org/list#2</title>
<path fill="none" stroke="darkgreen" d="M460.026,-92.3281C425.87,-94.0517 370.1,-101.052 330.5,-127 328.398,-128.377 313.718,-148.875 301.316,-166.488"/>
<polygon fill="darkgreen" stroke="darkgreen" points="298.357,-164.611 295.476,-174.807 304.086,-168.633 298.357,-164.611"/>
<text text-anchor="middle" x="412" y="-145.8" font-family="Times New Roman,serif" font-size="14.00">access</text>
<text text-anchor="middle" x="412" y="-130.8" font-family="Times New Roman,serif" font-size="14.00">2018&#45;03&#45;05T15:04:24.817746</text>
</g>
<!-- http://example.org/result&#45;&gt;http://example.org/list -->
<g id="edge11" class="edge"><title>http://example.org/result&#45;&gt;http://example.org/list</title>
<path fill="none" stroke="black" d="M496.027,-108.923C499.49,-122.778 501.881,-142.403 493.5,-157 466.902,-203.326 411.911,-231.667 368.762,-247.62"/>
<polygon fill="black" stroke="black" points="367.438,-244.377 359.192,-251.03 369.787,-250.97 367.438,-244.377"/>
<text text-anchor="middle" x="510.371" y="-111.409" font-family="Times New Roman,serif" font-size="8.00">der</text>
</g>
<!-- http://example.org/assign3 -->
<g id="node9" class="node"><title>http://example.org/assign3</title>
<g id="a_node9"><a xlink:href="http://example.org/assign3" xlink:title="assign3">
<polygon fill="#9fb1fc" stroke="#0000ff" points="593.5,-211 535.5,-211 535.5,-175 593.5,-175 593.5,-211"/>
<text text-anchor="middle" x="564.5" y="-189.3" font-family="Times New Roman,serif" font-size="14.00">assign3</text>
</a>
</g>
</g>
<!-- http://example.org/result&#45;&gt;http://example.org/assign3 -->
<g id="edge12" class="edge"><title>http://example.org/result&#45;&gt;http://example.org/assign3</title>
<path fill="none" stroke="black" d="M504.872,-107.282C510.28,-113.271 516.36,-120.303 521.5,-127 531.085,-139.487 540.839,-154.05 548.629,-166.222"/>
<polygon fill="black" stroke="black" points="545.868,-168.405 554.168,-174.99 551.786,-164.666 545.868,-168.405"/>
<text text-anchor="middle" x="519.548" y="-102.281" font-family="Times New Roman,serif" font-size="8.00">gen</text>
</g>
<!-- &#45;attrs1 -->
<g id="node5" class="node"><title>&#45;attrs1</title>
<polygon fill="none" stroke="gray" points="522.5,-36 452.5,-36 452.5,-0 528.5,-0 528.5,-30 522.5,-36"/>
<polyline fill="none" stroke="gray" points="522.5,-36 522.5,-30 "/>
<polyline fill="none" stroke="gray" points="528.5,-30 522.5,-30 "/>
<text text-anchor="start" x="462.5" y="-22" font-family="Times New Roman,serif" font-size="10.00">type:</text>
<text text-anchor="start" x="486.5" y="-22" font-family="Times New Roman,serif" font-size="10.00">&quot;name&quot;</text>
<text text-anchor="start" x="462.5" y="-9" font-family="Times New Roman,serif" font-size="10.00">label:</text>
<text text-anchor="start" x="486.5" y="-9" font-family="Times New Roman,serif" font-size="10.00">&quot;result&quot;</text>
</g>
<!-- &#45;attrs1&#45;&gt;http://example.org/result -->
<g id="edge3" class="edge"><title>&#45;attrs1&#45;&gt;http://example.org/result</title>
<path fill="none" stroke="gray" stroke-dasharray="5,2" d="M490.5,-36.1871C490.5,-47.3501 490.5,-61.8398 490.5,-72.9712"/>
</g>
<!-- http://example.org/assign2&#45;&gt;http://example.org/list -->
<g id="edge6" class="edge"><title>http://example.org/assign2&#45;&gt;http://example.org/list</title>
<path fill="none" stroke="black" d="M69.6031,-211.039C77.1204,-217.992 86.5896,-225.451 96.5,-230 132.293,-246.429 174.619,-255.26 212.003,-259.966"/>
<polygon fill="black" stroke="black" points="212.067,-263.497 222.406,-261.186 212.883,-256.545 212.067,-263.497"/>
<text text-anchor="middle" x="83.8861" y="-204.557" font-family="Times New Roman,serif" font-size="8.00">use</text>
</g>
<!-- &#45;attrs2 -->
<g id="node7" class="node"><title>&#45;attrs2</title>
<polygon fill="none" stroke="gray" points="73,-109 0,-109 0,-73 79,-73 79,-103 73,-109"/>
<polyline fill="none" stroke="gray" points="73,-109 73,-103 "/>
<polyline fill="none" stroke="gray" points="79,-103 73,-103 "/>
<text text-anchor="start" x="10.5" y="-88" font-family="Times New Roman,serif" font-size="10.00">type:</text>
<text text-anchor="start" x="33.5" y="-88" font-family="Times New Roman,serif" font-size="10.00">&quot;assign&quot;</text>
</g>
<!-- &#45;attrs2&#45;&gt;http://example.org/assign2 -->
<g id="edge5" class="edge"><title>&#45;attrs2&#45;&gt;http://example.org/assign2</title>
<path fill="none" stroke="gray" stroke-dasharray="5,2" d="M41.9386,-109.419C44.5082,-127.773 48.5303,-156.502 51.0893,-174.781"/>
</g>
<!-- http://example.org/assign3&#45;&gt;http://example.org/list -->
<g id="edge10" class="edge"><title>http://example.org/assign3&#45;&gt;http://example.org/list</title>
<path fill="none" stroke="black" d="M548.398,-211.043C540.882,-217.996 531.412,-225.455 521.5,-230 485.227,-246.633 442.277,-255.485 404.48,-260.15"/>
<polygon fill="black" stroke="black" points="404.013,-256.681 394.479,-261.303 404.814,-263.635 404.013,-256.681"/>
<text text-anchor="middle" x="551.572" y="-223.803" font-family="Times New Roman,serif" font-size="8.00">use</text>
</g>
<!-- &#45;attrs3 -->
<g id="node10" class="node"><title>&#45;attrs3</title>
<polygon fill="none" stroke="gray" points="612,-109 539,-109 539,-73 618,-73 618,-103 612,-109"/>
<polyline fill="none" stroke="gray" points="612,-109 612,-103 "/>
<polyline fill="none" stroke="gray" points="618,-103 612,-103 "/>
<text text-anchor="start" x="549.5" y="-88" font-family="Times New Roman,serif" font-size="10.00">type:</text>
<text text-anchor="start" x="572.5" y="-88" font-family="Times New Roman,serif" font-size="10.00">&quot;assign&quot;</text>
</g>
<!-- &#45;attrs3&#45;&gt;http://example.org/assign3 -->
<g id="edge9" class="edge"><title>&#45;attrs3&#45;&gt;http://example.org/assign3</title>
<path fill="none" stroke="gray" stroke-dasharray="5,2" d="M576.061,-109.419C573.492,-127.773 569.47,-156.502 566.911,-174.781"/>
</g>
</g>
</svg>
