<?xml version="1.0" encoding="UTF-8" standalone="no"?>
<!DOCTYPE svg PUBLIC "-//W3C//DTD SVG 1.1//EN"
 "http://www.w3.org/Graphics/SVG/1.1/DTD/svg11.dtd">
<!-- Generated by graphviz version 2.38.0 (20140413.2041)
 -->
<!-- Title: PROV Pages: 1 -->
<svg width="160pt" height="201pt"
 viewBox="0.00 0.00 159.50 200.85" xmlns="http://www.w3.org/2000/svg" xmlns:xlink="http://www.w3.org/1999/xlink">
<g id="graph0" class="graph" transform="scale(1 1) rotate(0) translate(4 196.853)">
<title>PROV</title>
<polygon fill="white" stroke="none" points="-4,4 -4,-196.853 155.5,-196.853 155.5,4 -4,4"/>
<!-- http://example.org/a1 -->
<g id="node1" class="node"><title>http://example.org/a1</title>
<g id="a_node1"><a xlink:href="http://example.org/a1" xlink:title="a1">
<ellipse fill="#fffc87" stroke="#808080" cx="68.5" cy="-171.64" rx="27" ry="21.4286"/>
<text text-anchor="middle" x="68.5" y="-166.64" font-family="Times New Roman,serif" font-size="20.00">a1</text>
</a>
</g>
</g>
<!-- http://example.org/a1&#45;attrs -->
<g id="node2" class="node"><title>http://example.org/a1&#45;attrs</title>
<polygon fill="none" stroke="gray" points="55,-111.213 3.55271e-015,-111.213 3.55271e-015,-75.2132 61,-75.2132 61,-105.213 55,-111.213"/>
<polyline fill="none" stroke="gray" points="55,-111.213 55,-105.213 "/>
<polyline fill="none" stroke="gray" points="61,-105.213 55,-105.213 "/>
<text text-anchor="start" x="10.5" y="-89.8132" font-family="Times New Roman,serif" font-size="13.00">value:</text>
<text text-anchor="start" x="43.5" y="-89.8132" font-family="Times New Roman,serif" font-size="13.00">[]</text>
</g>
<!-- http://example.org/a1&#45;attrs&#45;&gt;http://example.org/a1 -->
<g id="edge1" class="edge"><title>http://example.org/a1&#45;attrs&#45;&gt;http://example.org/a1</title>
<path fill="none" stroke="gray" stroke-dasharray="5,2" d="M39.1228,-111.556C45.0352,-123.447 52.8814,-139.227 58.9777,-151.488"/>
</g>
<!-- http://example.org/a2 -->
<g id="node3" class="node"><title>http://example.org/a2</title>
<g id="a_node3"><a xlink:href="http://example.org/a2" xlink:title="a2">
<ellipse fill="#fffc87" stroke="#808080" cx="106.5" cy="-93.2132" rx="27" ry="21.4286"/>
<text text-anchor="middle" x="106.5" y="-88.2132" font-family="Times New Roman,serif" font-size="20.00">a2</text>
</a>
</g>
</g>
<!-- http://example.org/a2&#45;&gt;http://example.org/a1 -->
<g id="edge4" class="edge"><title>http://example.org/a2&#45;&gt;http://example.org/a1</title>
<path fill="none" stroke="black" d="M97.1067,-113.105C92.6764,-122.016 87.3004,-132.828 82.41,-142.663"/>
<polygon fill="black" stroke="black" points="79.2351,-141.188 77.9169,-151.7 85.5031,-144.304 79.2351,-141.188"/>
<text text-anchor="middle" x="102.635" y="-117.638" font-family="Times New Roman,serif" font-size="16.00">der</text>
</g>
<!-- http://example.org/a2&#45;&gt;http://example.org/a2 -->
<g id="edge3" class="edge"><title>http://example.org/a2&#45;&gt;http://example.org/a2</title>
<path fill="none" stroke="black" d="M127.797,-80.1004C140.072,-77.4243 151.5,-81.7952 151.5,-93.2132 151.5,-101.331 145.724,-105.886 137.974,-106.88"/>
<polygon fill="black" stroke="black" points="137.972,-103.375 127.797,-106.326 137.592,-110.365 137.972,-103.375"/>
</g>
<!-- http://example.org/a2&#45;attrs -->
<g id="node4" class="node"><title>http://example.org/a2&#45;attrs</title>
<polygon fill="none" stroke="gray" points="139.5,-36 67.5,-36 67.5,-0 145.5,-0 145.5,-30 139.5,-36"/>
<polyline fill="none" stroke="gray" points="139.5,-36 139.5,-30 "/>
<polyline fill="none" stroke="gray" points="145.5,-30 139.5,-30 "/>
<text text-anchor="start" x="77.5" y="-14.6" font-family="Times New Roman,serif" font-size="13.00">value:</text>
<text text-anchor="start" x="110.5" y="-14.6" font-family="Times New Roman,serif" font-size="13.00">[[...]]</text>
</g>
<!-- http://example.org/a2&#45;attrs&#45;&gt;http://example.org/a2 -->
<g id="edge2" class="edge"><title>http://example.org/a2&#45;attrs&#45;&gt;http://example.org/a2</title>
<path fill="none" stroke="gray" stroke-dasharray="5,2" d="M106.5,-36.3505C106.5,-47.0064 106.5,-60.7056 106.5,-71.8709"/>
</g>
</g>
</svg>
