<?xml version="1.0" encoding="UTF-8" standalone="no"?>
<!DOCTYPE svg PUBLIC "-//W3C//DTD SVG 1.1//EN"
 "http://www.w3.org/Graphics/SVG/1.1/DTD/svg11.dtd">
<!-- Generated by graphviz version 2.38.0 (20140413.2041)
 -->
<!-- Title: PROV Pages: 1 -->
<svg width="1152pt" height="630pt"
 viewBox="0.00 0.00 1152.00 630.23" xmlns="http://www.w3.org/2000/svg" xmlns:xlink="http://www.w3.org/1999/xlink">
<g id="graph0" class="graph" transform="scale(0.90566 0.90566) rotate(0) translate(4 691.879)">
<title>PROV</title>
<polygon fill="white" stroke="none" points="-4,4 -4,-691.879 1268,-691.879 1268,4 -4,4"/>
<g id="clust2" class="cluster"><title>cluster_1</title>
<polygon fill="none" stroke="#333333" points="8,-365.426 8,-679.879 352,-679.879 352,-365.426 8,-365.426"/>
<text text-anchor="middle" x="331.5" y="-647.079" font-family="Times New Roman,serif" font-size="36.00" fill="#333333">B</text>
</g>
<g id="clust1" class="cluster"><title>cluster_0</title>
<polygon fill="none" stroke="#333333" points="360,-8 360,-471.853 788,-471.853 788,-8 360,-8"/>
<text text-anchor="middle" x="767" y="-439.053" font-family="Times New Roman,serif" font-size="36.00" fill="#333333">A</text>
</g>
<g id="clust3" class="cluster"><title>cluster_2</title>
<polygon fill="none" stroke="#333333" points="837,-8 837,-209.426 1005,-209.426 1005,-8 837,-8"/>
<text text-anchor="middle" x="984.5" y="-176.626" font-family="Times New Roman,serif" font-size="36.00" fill="#333333">C</text>
</g>
<!-- g/a@1 -->
<g id="node1" class="node"><title>g/a@1</title>
<g id="a_node1"><a xlink:href="g/a@1" xlink:title="a@1">
<ellipse fill="#fffc87" stroke="#808080" cx="670" cy="-132.213" rx="38.7821" ry="21.4286"/>
<text text-anchor="middle" x="670" y="-127.213" font-family="Times New Roman,serif" font-size="20.00">a@1</text>
</a>
</g>
</g>
<!-- g/3 -->
<g id="node3" class="node"><title>g/3</title>
<g id="a_node3"><a xlink:href="g/3" xlink:title="3">
<ellipse fill="#fffc87" stroke="#808080" cx="626" cy="-394.64" rx="27" ry="21.4286"/>
<text text-anchor="middle" x="626" y="-389.64" font-family="Times New Roman,serif" font-size="20.00">3</text>
</a>
</g>
</g>
<!-- g/a@1&#45;&gt;g/3 -->
<g id="edge30" class="edge"><title>g/a@1&#45;&gt;g/3</title>
<path fill="none" stroke="black" d="M650.459,-150.658C627.274,-172.804 589.888,-213.454 575,-257.426 566.733,-281.843 567.656,-290.717 575,-315.426 580.83,-335.04 593.31,-354.327 604.464,-368.841"/>
<polygon fill="black" stroke="black" points="601.845,-371.17 610.819,-376.802 607.316,-366.803 601.845,-371.17"/>
<text text-anchor="middle" x="652.94" y="-156.545" font-family="Times New Roman,serif" font-size="16.00">der</text>
</g>
<!-- g/assign3 -->
<g id="node5" class="node"><title>g/assign3</title>
<g id="a_node5"><a xlink:href="g/assign3" xlink:title="assign3">
<polygon fill="#9fb1fc" stroke="#0000ff" points="546,-304.426 470,-304.426 470,-268.426 546,-268.426 546,-304.426"/>
<text text-anchor="middle" x="508" y="-281.426" font-family="Times New Roman,serif" font-size="20.00">assign3</text>
</a>
</g>
</g>
<!-- g/a@1&#45;&gt;g/assign3 -->
<g id="edge39" class="edge"><title>g/a@1&#45;&gt;g/assign3</title>
<path fill="none" stroke="black" d="M645.792,-148.971C622.468,-164.769 586.863,-190.548 560,-217.426 547.073,-230.361 534.559,-246.571 525.048,-259.92"/>
<polygon fill="black" stroke="black" points="522.111,-258.012 519.257,-268.216 527.851,-262.019 522.111,-258.012"/>
<text text-anchor="middle" x="646.56" y="-155.142" font-family="Times New Roman,serif" font-size="16.00">gen</text>
</g>
<!-- g/1 -->
<g id="node2" class="node"><title>g/1</title>
<g id="a_node2"><a xlink:href="g/1" xlink:title="1">
<ellipse fill="#fffc87" stroke="#808080" cx="410" cy="-394.64" rx="27" ry="21.4286"/>
<text text-anchor="middle" x="410" y="-389.64" font-family="Times New Roman,serif" font-size="20.00">1</text>
</a>
</g>
</g>
<!-- g/2 -->
<g id="node11" class="node"><title>g/2</title>
<g id="a_node11"><a xlink:href="g/2" xlink:title="2">
<ellipse fill="#fafafa" stroke="#999999" cx="43" cy="-602.666" rx="27" ry="21.4286"/>
<text text-anchor="middle" x="43" y="-597.666" font-family="Times New Roman,serif" font-size="20.00" fill="#999999">2</text>
</a>
</g>
</g>
<!-- g/1&#45;&gt;g/2 -->
<!-- g/a#1 -->
<g id="node4" class="node"><title>g/a#1</title>
<g id="a_node4"><a xlink:href="g/a#1" xlink:title="a#1">
<ellipse fill="#fffc87" stroke="#808080" cx="711" cy="-394.64" rx="33.4697" ry="21.4286"/>
<text text-anchor="middle" x="711" y="-389.64" font-family="Times New Roman,serif" font-size="20.00">a#1</text>
</a>
</g>
</g>
<!-- bn0 -->
<g id="node20" class="node"><title>bn0</title>
<ellipse fill="#999999" stroke="#999999" cx="384" cy="-521.653" rx="1.8" ry="1.8"/>
</g>
<!-- g/a#1&#45;&gt;bn0 -->
<g id="edge7" class="edge"><title>g/a#1&#45;&gt;bn0</title>
<path fill="none" stroke="#999999" d="M703.485,-415.369C695.76,-432.932 682.02,-457.935 662,-471.853 612.914,-505.977 404.85,-519.384 385.452,-520.566"/>
<text text-anchor="middle" x="675.5" y="-485.853" font-family="Times New Roman,serif" font-size="20.00" fill="#999999">der&#45;ins</text>
</g>
<!-- g/assign3&#45;&gt;g/1 -->
<g id="edge31" class="edge"><title>g/assign3&#45;&gt;g/1</title>
<path fill="none" stroke="black" d="M492.255,-304.491C476.014,-322.093 450.546,-349.695 432.251,-369.524"/>
<polygon fill="black" stroke="black" points="429.592,-367.244 425.383,-376.967 434.737,-371.991 429.592,-367.244"/>
<text text-anchor="middle" x="495.229" y="-310.239" font-family="Times New Roman,serif" font-size="16.00">use</text>
</g>
<!-- g/assign3&#45;&gt;g/3 -->
<g id="edge36" class="edge"><title>g/assign3&#45;&gt;g/3</title>
<path fill="none" stroke="black" d="M518.375,-304.589C527.886,-319.332 543.037,-340.507 560,-355.426 570.198,-364.396 582.821,-372.313 594.287,-378.581"/>
<polygon fill="black" stroke="black" points="592.685,-381.693 603.166,-383.242 595.939,-375.495 592.685,-381.693"/>
<text text-anchor="middle" x="528.359" y="-300.221" font-family="Times New Roman,serif" font-size="16.00">use</text>
</g>
<!-- g/assign3&#45;&gt;g/a#1 -->
<g id="edge26" class="edge"><title>g/assign3&#45;&gt;g/a#1</title>
<path fill="none" stroke="black" d="M543.139,-304.555C574.534,-320.017 621.664,-343.619 662,-365.426 667.311,-368.298 672.898,-371.417 678.322,-374.501"/>
<polygon fill="black" stroke="black" points="676.803,-377.665 687.218,-379.605 680.286,-371.593 676.803,-377.665"/>
<text text-anchor="middle" x="554.242" y="-317.391" font-family="Times New Roman,serif" font-size="16.00">use</text>
</g>
<!-- g/b#1 -->
<g id="node14" class="node"><title>g/b#1</title>
<g id="a_node14"><a xlink:href="g/b#1" xlink:title="b#1">
<ellipse fill="#fafafa" stroke="#999999" cx="299" cy="-394.64" rx="33.8824" ry="21.4286"/>
<text text-anchor="middle" x="299" y="-389.64" font-family="Times New Roman,serif" font-size="20.00" fill="#999999">b#1</text>
</a>
</g>
</g>
<!-- g/assign3&#45;&gt;g/b#1 -->
<g id="edge37" class="edge"><title>g/assign3&#45;&gt;g/b#1</title>
<path fill="none" stroke="#800000" d="M483.591,-304.626C476.587,-308.81 468.742,-312.824 461,-315.426 426.876,-326.898 324.222,-306.793 300,-333.426 292.697,-341.457 291.153,-352.877 291.898,-363.616"/>
<polygon fill="#800000" stroke="#800000" points="288.432,-364.111 293.2,-373.572 295.373,-363.203 288.432,-364.111"/>
<text text-anchor="middle" x="314" y="-339.426" font-family="Times New Roman,serif" font-size="20.00" fill="#800000">use</text>
</g>
<!-- g/a@1&#45;attrs -->
<g id="node6" class="node"><title>g/a@1&#45;attrs</title>
<polygon fill="none" stroke="gray" points="707.5,-74 626.5,-74 626.5,-16 713.5,-16 713.5,-68 707.5,-74"/>
<polyline fill="none" stroke="gray" points="707.5,-74 707.5,-68 "/>
<polyline fill="none" stroke="gray" points="713.5,-68 707.5,-68 "/>
<text text-anchor="start" x="637" y="-57.6" font-family="Times New Roman,serif" font-size="13.00">value:</text>
<text text-anchor="start" x="670" y="-57.6" font-family="Times New Roman,serif" font-size="13.00">3</text>
<text text-anchor="start" x="637" y="-41.6" font-family="Times New Roman,serif" font-size="13.00">type:</text>
<text text-anchor="start" x="670" y="-41.6" font-family="Times New Roman,serif" font-size="13.00">access</text>
<text text-anchor="start" x="637" y="-25.6" font-family="Times New Roman,serif" font-size="13.00">label:</text>
<text text-anchor="start" x="670" y="-25.6" font-family="Times New Roman,serif" font-size="13.00">a[1]</text>
</g>
<!-- g/a@1&#45;attrs&#45;&gt;g/a@1 -->
<g id="edge6" class="edge"><title>g/a@1&#45;attrs&#45;&gt;g/a@1</title>
<path fill="none" stroke="gray" stroke-dasharray="5,2" d="M670,-74.3748C670,-86.2849 670,-99.8713 670,-110.774"/>
</g>
<!-- g/1&#45;attrs -->
<g id="node7" class="node"><title>g/1&#45;attrs</title>
<polygon fill="none" stroke="gray" points="446,-307.426 368,-307.426 368,-265.426 452,-265.426 452,-301.426 446,-307.426"/>
<polyline fill="none" stroke="gray" points="446,-307.426 446,-301.426 "/>
<polyline fill="none" stroke="gray" points="452,-301.426 446,-301.426 "/>
<text text-anchor="start" x="378" y="-291.026" font-family="Times New Roman,serif" font-size="13.00">value:</text>
<text text-anchor="start" x="411" y="-291.026" font-family="Times New Roman,serif" font-size="13.00">1</text>
<text text-anchor="start" x="378" y="-275.026" font-family="Times New Roman,serif" font-size="13.00">type:</text>
<text text-anchor="start" x="411" y="-275.026" font-family="Times New Roman,serif" font-size="13.00">literal</text>
</g>
<!-- g/1&#45;attrs&#45;&gt;g/1 -->
<g id="edge3" class="edge"><title>g/1&#45;attrs&#45;&gt;g/1</title>
<path fill="none" stroke="gray" stroke-dasharray="5,2" d="M410,-307.905C410,-326.713 410,-354.435 410,-373.224"/>
</g>
<!-- g/3&#45;attrs -->
<g id="node8" class="node"><title>g/3&#45;attrs</title>
<polygon fill="none" stroke="gray" points="662,-307.426 584,-307.426 584,-265.426 668,-265.426 668,-301.426 662,-307.426"/>
<polyline fill="none" stroke="gray" points="662,-307.426 662,-301.426 "/>
<polyline fill="none" stroke="gray" points="668,-301.426 662,-301.426 "/>
<text text-anchor="start" x="594" y="-291.026" font-family="Times New Roman,serif" font-size="13.00">value:</text>
<text text-anchor="start" x="627" y="-291.026" font-family="Times New Roman,serif" font-size="13.00">3</text>
<text text-anchor="start" x="594" y="-275.026" font-family="Times New Roman,serif" font-size="13.00">type:</text>
<text text-anchor="start" x="627" y="-275.026" font-family="Times New Roman,serif" font-size="13.00">literal</text>
</g>
<!-- g/3&#45;attrs&#45;&gt;g/3 -->
<g id="edge2" class="edge"><title>g/3&#45;attrs&#45;&gt;g/3</title>
<path fill="none" stroke="gray" stroke-dasharray="5,2" d="M626,-307.905C626,-326.713 626,-354.435 626,-373.224"/>
</g>
<!-- g/a#1&#45;attrs -->
<g id="node9" class="node"><title>g/a#1&#45;attrs</title>
<polygon fill="none" stroke="gray" points="773.5,-315.426 686.5,-315.426 686.5,-257.426 779.5,-257.426 779.5,-309.426 773.5,-315.426"/>
<polyline fill="none" stroke="gray" points="773.5,-315.426 773.5,-309.426 "/>
<polyline fill="none" stroke="gray" points="779.5,-309.426 773.5,-309.426 "/>
<text text-anchor="start" x="697" y="-299.026" font-family="Times New Roman,serif" font-size="13.00">value:</text>
<text text-anchor="start" x="730" y="-299.026" font-family="Times New Roman,serif" font-size="13.00">[2, 6, 0]</text>
<text text-anchor="start" x="697" y="-283.026" font-family="Times New Roman,serif" font-size="13.00">type:</text>
<text text-anchor="start" x="730" y="-283.026" font-family="Times New Roman,serif" font-size="13.00">name</text>
<text text-anchor="start" x="697" y="-267.026" font-family="Times New Roman,serif" font-size="13.00">label:</text>
<text text-anchor="start" x="730" y="-267.026" font-family="Times New Roman,serif" font-size="13.00">a</text>
</g>
<!-- g/a#1&#45;attrs&#45;&gt;g/a#1 -->
<g id="edge1" class="edge"><title>g/a#1&#45;attrs&#45;&gt;g/a#1</title>
<path fill="none" stroke="gray" stroke-dasharray="5,2" d="M727.162,-315.611C723.394,-333.802 718.581,-357.039 715.191,-373.408"/>
</g>
<!-- g/assign3&#45;attrs -->
<g id="node10" class="node"><title>g/assign3&#45;attrs</title>
<polygon fill="none" stroke="gray" points="542,-150.213 468,-150.213 468,-114.213 548,-114.213 548,-144.213 542,-150.213"/>
<polyline fill="none" stroke="gray" points="542,-150.213 542,-144.213 "/>
<polyline fill="none" stroke="gray" points="548,-144.213 542,-144.213 "/>
<text text-anchor="start" x="478" y="-128.813" font-family="Times New Roman,serif" font-size="13.00">type:</text>
<text text-anchor="start" x="506" y="-128.813" font-family="Times New Roman,serif" font-size="13.00">assign</text>
</g>
<!-- g/assign3&#45;attrs&#45;&gt;g/assign3 -->
<g id="edge23" class="edge"><title>g/assign3&#45;attrs&#45;&gt;g/assign3</title>
<path fill="none" stroke="gray" stroke-dasharray="5,2" d="M508,-150.378C508,-179.612 508,-238.741 508,-268.091"/>
</g>
<!-- g/6 -->
<g id="node12" class="node"><title>g/6</title>
<g id="a_node12"><a xlink:href="g/6" xlink:title="6">
<ellipse fill="#fafafa" stroke="#999999" cx="205" cy="-602.666" rx="27" ry="21.4286"/>
<text text-anchor="middle" x="205" y="-597.666" font-family="Times New Roman,serif" font-size="20.00" fill="#999999">6</text>
</a>
</g>
</g>
<!-- g/6&#45;&gt;g/2 -->
<!-- g/0 -->
<g id="node13" class="node"><title>g/0</title>
<g id="a_node13"><a xlink:href="g/0" xlink:title="0">
<ellipse fill="#fafafa" stroke="#999999" cx="115" cy="-602.666" rx="27" ry="21.4286"/>
<text text-anchor="middle" x="115" y="-597.666" font-family="Times New Roman,serif" font-size="20.00" fill="#999999">0</text>
</a>
</g>
</g>
<!-- g/0&#45;&gt;g/6 -->
<!-- bn1 -->
<g id="node21" class="node"><title>bn1</title>
<ellipse fill="#999999" stroke="#999999" cx="362" cy="-521.653" rx="1.8" ry="1.8"/>
</g>
<!-- g/b#1&#45;&gt;bn1 -->
<g id="edge12" class="edge"><title>g/b#1&#45;&gt;bn1</title>
<path fill="none" stroke="#999999" d="M308.844,-415.173C325.455,-448.135 357.64,-512 361.598,-519.855"/>
<text text-anchor="middle" x="380.5" y="-485.853" font-family="Times New Roman,serif" font-size="20.00" fill="#999999">der&#45;ins</text>
</g>
<!-- g/empty -->
<g id="node15" class="node"><title>g/empty</title>
<g id="a_node15"><a xlink:href="g/empty" xlink:title="empty">
<ellipse fill="#fafafa" stroke="#999999" cx="297" cy="-602.666" rx="47.2526" ry="21.4286"/>
<text text-anchor="middle" x="297" y="-597.666" font-family="Times New Roman,serif" font-size="20.00" fill="#999999">empty</text>
</a>
</g>
</g>
<!-- g/a#2 -->
<g id="node16" class="node"><title>g/a#2</title>
<g id="a_node16"><a xlink:href="g/a#2" xlink:title="a#2">
<ellipse fill="#ffe6e6" stroke="#800000" cx="964" cy="-132.213" rx="33.4697" ry="21.4286"/>
<text text-anchor="middle" x="964" y="-127.213" font-family="Times New Roman,serif" font-size="20.00" fill="#800000">a#2</text>
</a>
</g>
</g>
<!-- g/a#2&#45;&gt;g/3 -->
<g id="edge25" class="edge"><title>g/a#2&#45;&gt;g/3</title>
<path fill="none" stroke="#800000" d="M964.09,-153.538C963.073,-191.578 955.063,-273.46 907,-315.426 861.144,-355.466 835.725,-343.644 776,-355.426 729.14,-364.67 714.077,-349.637 669,-365.426 663.523,-367.345 658.055,-370.108 652.944,-373.163"/>
<polygon fill="#800000" stroke="#800000" points="650.673,-370.466 644.207,-378.859 654.496,-376.33 650.673,-370.466"/>
<text text-anchor="middle" x="958.5" y="-281.426" font-family="Times New Roman,serif" font-size="20.00" fill="#800000">der</text>
</g>
<!-- g/a#2&#45;&gt;g/a#1 -->
<g id="edge24" class="edge"><title>g/a#2&#45;&gt;g/a#1</title>
<path fill="none" stroke="#800000" d="M971.527,-152.973C987.233,-197.949 1017.21,-307.741 956,-355.426 925.342,-379.31 816.058,-388.513 754.306,-391.862"/>
<polygon fill="#800000" stroke="#800000" points="753.898,-388.378 744.091,-392.386 754.257,-395.369 753.898,-388.378"/>
<text text-anchor="middle" x="1006.5" y="-281.426" font-family="Times New Roman,serif" font-size="20.00" fill="#800000">der</text>
</g>
<!-- g/a#2&#45;&gt;g/assign3 -->
<g id="edge27" class="edge"><title>g/a#2&#45;&gt;g/assign3</title>
<path fill="none" stroke="#800000" d="M958.084,-153.101C951.879,-170.523 940.422,-195.216 922,-209.426 857.861,-258.902 576.475,-257.07 575,-257.426 567.671,-259.199 560.109,-261.672 552.823,-264.421"/>
<polygon fill="#800000" stroke="#800000" points="551.096,-261.342 543.107,-268.301 553.692,-267.843 551.096,-261.342"/>
<text text-anchor="middle" x="923.5" y="-223.426" font-family="Times New Roman,serif" font-size="20.00" fill="#800000">gen</text>
</g>
<!-- g/a#2&#45;&gt;g/6 -->
<!-- bn2 -->
<g id="node22" class="node"><title>bn2</title>
<ellipse fill="#800000" stroke="#800000" cx="1094" cy="-286.426" rx="1.8" ry="1.8"/>
</g>
<!-- g/a#2&#45;&gt;bn2 -->
<g id="edge17" class="edge"><title>g/a#2&#45;&gt;bn2</title>
<path fill="none" stroke="#800000" d="M997.552,-133.924C1050.68,-137.081 1152.85,-151.863 1199,-217.426 1234.69,-268.125 1144.21,-250.418 1130,-257.426 1114.09,-265.27 1098.46,-280.825 1094.8,-284.591"/>
<text text-anchor="middle" x="1235.5" y="-223.426" font-family="Times New Roman,serif" font-size="20.00" fill="#800000">der&#45;ins</text>
</g>
<!-- g/b#2 -->
<g id="node17" class="node"><title>g/b#2</title>
<g id="a_node17"><a xlink:href="g/b#2" xlink:title="b#2">
<ellipse fill="#ffe6e6" stroke="#800000" cx="879" cy="-132.213" rx="33.8824" ry="21.4286"/>
<text text-anchor="middle" x="879" y="-127.213" font-family="Times New Roman,serif" font-size="20.00" fill="#800000">b#2</text>
</a>
</g>
</g>
<!-- g/b#2&#45;&gt;g/3 -->
<g id="edge29" class="edge"><title>g/b#2&#45;&gt;g/3</title>
<path fill="none" stroke="#800000" d="M881.788,-153.399C885.699,-190.481 888.264,-269.815 847,-315.426 791.871,-376.363 743.786,-331.376 669,-365.426 663.82,-367.785 658.553,-370.719 653.564,-373.794"/>
<polygon fill="#800000" stroke="#800000" points="651.435,-371.003 644.962,-379.391 655.253,-376.871 651.435,-371.003"/>
<text text-anchor="middle" x="889.5" y="-281.426" font-family="Times New Roman,serif" font-size="20.00" fill="#800000">der</text>
</g>
<!-- g/b#2&#45;&gt;g/assign3 -->
<g id="edge38" class="edge"><title>g/b#2&#45;&gt;g/assign3</title>
<path fill="none" stroke="#800000" d="M863.566,-151.207C847.483,-168.774 820.665,-194.918 792,-209.426 747.935,-231.73 622.082,-242.512 575,-257.426 568.459,-259.498 561.672,-261.955 555.038,-264.538"/>
<polygon fill="#800000" stroke="#800000" points="553.446,-261.406 545.475,-268.385 556.058,-267.9 553.446,-261.406"/>
<text text-anchor="middle" x="784.5" y="-223.426" font-family="Times New Roman,serif" font-size="20.00" fill="#800000">gen</text>
</g>
<!-- g/b#2&#45;&gt;g/b#1 -->
<g id="edge28" class="edge"><title>g/b#2&#45;&gt;g/b#1</title>
<path fill="none" stroke="#800000" d="M868.487,-152.776C855.577,-177.057 833.269,-219.858 816,-257.426 804.348,-282.774 814.868,-299.448 792,-315.426 752.255,-343.197 400.132,-313.345 356,-333.426 347.377,-337.35 332.553,-353.157 320.184,-367.59"/>
<polygon fill="#800000" stroke="#800000" points="317.385,-365.48 313.619,-375.383 322.739,-369.989 317.385,-365.48"/>
<text text-anchor="middle" x="829.5" y="-281.426" font-family="Times New Roman,serif" font-size="20.00" fill="#800000">der</text>
</g>
<!-- bn3 -->
<g id="node23" class="node"><title>bn3</title>
<ellipse fill="#800000" stroke="#800000" cx="1141" cy="-286.426" rx="1.8" ry="1.8"/>
</g>
<!-- g/b#2&#45;&gt;bn3 -->
<g id="edge20" class="edge"><title>g/b#2&#45;&gt;bn3</title>
<path fill="none" stroke="#800000" d="M884.302,-153.356C890.236,-171.466 901.781,-197.062 922,-209.426 940.689,-220.855 1101.55,-204.182 1119,-217.426 1142.33,-235.13 1141.34,-277.983 1141.05,-284.57"/>
<text text-anchor="middle" x="1162.5" y="-223.426" font-family="Times New Roman,serif" font-size="20.00" fill="#800000">der&#45;ins</text>
</g>
<!-- g/b#2&#45;attrs -->
<g id="node18" class="node"><title>g/b#2&#45;attrs</title>
<polygon fill="none" stroke="#800000" points="932.5,-74 845.5,-74 845.5,-16 938.5,-16 938.5,-68 932.5,-74"/>
<polyline fill="none" stroke="#800000" points="932.5,-74 932.5,-68 "/>
<polyline fill="none" stroke="#800000" points="938.5,-68 932.5,-68 "/>
<text text-anchor="start" x="856" y="-57.6" font-family="Times New Roman,serif" font-size="13.00" fill="#800000">value:</text>
<text text-anchor="start" x="889" y="-57.6" font-family="Times New Roman,serif" font-size="13.00" fill="#800000">[2, 3, 0]</text>
<text text-anchor="start" x="856" y="-41.6" font-family="Times New Roman,serif" font-size="13.00" fill="#800000">type:</text>
<text text-anchor="start" x="889" y="-41.6" font-family="Times New Roman,serif" font-size="13.00" fill="#800000">name</text>
<text text-anchor="start" x="856" y="-25.6" font-family="Times New Roman,serif" font-size="13.00" fill="#800000">label:</text>
<text text-anchor="start" x="889" y="-25.6" font-family="Times New Roman,serif" font-size="13.00" fill="#800000">b</text>
</g>
<!-- g/b#2&#45;attrs&#45;&gt;g/b#2 -->
<g id="edge5" class="edge"><title>g/b#2&#45;attrs&#45;&gt;g/b#2</title>
<path fill="none" stroke="#800000" stroke-dasharray="5,2" d="M887.671,-74.3748C885.839,-86.3817 883.748,-100.092 882.078,-111.039"/>
</g>
<!-- g/a#2&#45;attrs -->
<g id="node19" class="node"><title>g/a#2&#45;attrs</title>
<polygon fill="none" stroke="#800000" points="1100.5,-74 1013.5,-74 1013.5,-16 1106.5,-16 1106.5,-68 1100.5,-74"/>
<polyline fill="none" stroke="#800000" points="1100.5,-74 1100.5,-68 "/>
<polyline fill="none" stroke="#800000" points="1106.5,-68 1100.5,-68 "/>
<text text-anchor="start" x="1024" y="-57.6" font-family="Times New Roman,serif" font-size="13.00" fill="#800000">value:</text>
<text text-anchor="start" x="1057" y="-57.6" font-family="Times New Roman,serif" font-size="13.00" fill="#800000">[2, 3, 0]</text>
<text text-anchor="start" x="1024" y="-41.6" font-family="Times New Roman,serif" font-size="13.00" fill="#800000">type:</text>
<text text-anchor="start" x="1057" y="-41.6" font-family="Times New Roman,serif" font-size="13.00" fill="#800000">name</text>
<text text-anchor="start" x="1024" y="-25.6" font-family="Times New Roman,serif" font-size="13.00" fill="#800000">label:</text>
<text text-anchor="start" x="1057" y="-25.6" font-family="Times New Roman,serif" font-size="13.00" fill="#800000">a</text>
</g>
<!-- g/a#2&#45;attrs&#45;&gt;g/a#2 -->
<g id="edge4" class="edge"><title>g/a#2&#45;attrs&#45;&gt;g/a#2</title>
<path fill="none" stroke="#800000" stroke-dasharray="5,2" d="M1028.3,-74.1382C1013.23,-87.5181 995.719,-103.058 982.782,-114.541"/>
</g>
<!-- bn0&#45;&gt;g/2 -->
<g id="edge9" class="edge"><title>bn0&#45;&gt;g/2</title>
<path fill="none" stroke="#999999" d="M382.422,-522.873C381.213,-523.039 379.502,-523.269 378,-523.453 306.533,-532.211 287.354,-526.141 217,-541.453 186.375,-548.118 180.097,-554.708 150,-563.453 118.739,-572.536 109.232,-569.379 79,-581.453 76.9448,-582.274 74.8616,-583.19 72.7872,-584.168"/>
<polygon fill="#999999" stroke="#999999" points="71.1693,-581.064 63.862,-588.736 74.3585,-587.296 71.1693,-581.064"/>
<text text-anchor="middle" x="229.5" y="-547.453" font-family="Times New Roman,serif" font-size="20.00" fill="#999999">[0]</text>
</g>
<!-- bn0&#45;&gt;g/6 -->
<g id="edge10" class="edge"><title>bn0&#45;&gt;g/6</title>
<path fill="none" stroke="#999999" d="M382.751,-523.276C374.856,-527.2 331.013,-548.819 294,-563.453 270.866,-572.6 263.72,-571.32 241,-581.453 238.979,-582.354 236.922,-583.332 234.866,-584.355"/>
<polygon fill="#999999" stroke="#999999" points="233.204,-581.275 225.986,-589.03 236.465,-587.469 233.204,-581.275"/>
<text text-anchor="middle" x="356.5" y="-547.453" font-family="Times New Roman,serif" font-size="20.00" fill="#999999">[1]</text>
</g>
<!-- bn0&#45;&gt;g/0 -->
<g id="edge11" class="edge"><title>bn0&#45;&gt;g/0</title>
<path fill="none" stroke="#999999" d="M382.638,-522.982C375.416,-524.734 340.875,-533.194 313,-541.453 282.949,-550.357 276.177,-554.989 246,-563.453 212.161,-572.944 202.638,-571.272 169,-581.453 162.241,-583.499 155.106,-585.952 148.316,-588.433"/>
<polygon fill="#999999" stroke="#999999" points="146.831,-585.252 138.699,-592.043 149.291,-591.805 146.831,-585.252"/>
<text text-anchor="middle" x="325.5" y="-547.453" font-family="Times New Roman,serif" font-size="20.00" fill="#999999">[2]</text>
</g>
<!-- bn0&#45;&gt;g/empty -->
<g id="edge8" class="edge"><title>bn0&#45;&gt;g/empty</title>
<path fill="none" stroke="#999999" d="M384.768,-523.778C388.138,-528.866 401.052,-550.055 392,-563.453 382.522,-577.481 366.949,-586.361 351.127,-591.981"/>
<polygon fill="#999999" stroke="#999999" points="349.783,-588.734 341.295,-595.075 351.885,-595.411 349.783,-588.734"/>
<text text-anchor="middle" x="409.5" y="-547.453" font-family="Times New Roman,serif" font-size="20.00" fill="#999999">der</text>
</g>
<!-- bn1&#45;&gt;g/2 -->
<g id="edge14" class="edge"><title>bn1&#45;&gt;g/2</title>
<path fill="none" stroke="#999999" d="M360.424,-522.887C359.215,-523.061 357.505,-523.294 356,-523.453 304.795,-528.857 173.268,-523.528 125,-541.453 103.146,-549.569 82.0287,-565.322 66.6983,-578.68"/>
<polygon fill="#999999" stroke="#999999" points="64.329,-576.104 59.2357,-585.394 69.0108,-581.308 64.329,-576.104"/>
<text text-anchor="middle" x="137.5" y="-547.453" font-family="Times New Roman,serif" font-size="20.00" fill="#999999">[0]</text>
</g>
<!-- bn1&#45;&gt;g/6 -->
<g id="edge15" class="edge"><title>bn1&#45;&gt;g/6</title>
<path fill="none" stroke="#999999" d="M360.544,-522.897C349.385,-524.778 277.633,-536.989 269,-541.453 252.548,-549.959 237.306,-563.94 225.827,-576.289"/>
<polygon fill="#999999" stroke="#999999" points="222.906,-574.306 218.852,-584.095 228.125,-578.97 222.906,-574.306"/>
<text text-anchor="middle" x="281.5" y="-547.453" font-family="Times New Roman,serif" font-size="20.00" fill="#999999">[1]</text>
</g>
<!-- bn1&#45;&gt;g/0 -->
<g id="edge16" class="edge"><title>bn1&#45;&gt;g/0</title>
<path fill="none" stroke="#999999" d="M360.421,-522.867C359.212,-523.031 357.501,-523.26 356,-523.453 291.592,-531.744 272.181,-519.683 211,-541.453 185.558,-550.506 159.8,-567.161 141.379,-580.664"/>
<polygon fill="#999999" stroke="#999999" points="139.104,-577.995 133.21,-586.799 143.308,-583.593 139.104,-577.995"/>
<text text-anchor="middle" x="223.5" y="-547.453" font-family="Times New Roman,serif" font-size="20.00" fill="#999999">[2]</text>
</g>
<!-- bn1&#45;&gt;g/empty -->
<g id="edge13" class="edge"><title>bn1&#45;&gt;g/empty</title>
<path fill="none" stroke="#999999" d="M361.649,-523.752C360.025,-528.729 352.852,-549.507 342,-563.453 338.117,-568.443 333.493,-573.247 328.709,-577.664"/>
<polygon fill="#999999" stroke="#999999" points="326.382,-575.05 321.146,-584.26 330.983,-580.326 326.382,-575.05"/>
<text text-anchor="middle" x="368.5" y="-547.453" font-family="Times New Roman,serif" font-size="20.00" fill="#999999">der</text>
</g>
<!-- bn2&#45;&gt;g/a@1 -->
<g id="edge19" class="edge"><title>bn2&#45;&gt;g/a@1</title>
<path fill="none" stroke="#800000" d="M1092.57,-284.715C1086.09,-281.485 1058.75,-267.912 1036,-257.426 995.879,-238.931 987.884,-228.045 945,-217.426 896.558,-205.432 881.299,-221.983 833,-209.426 786.082,-197.229 736.151,-171.815 704.099,-153.689"/>
<polygon fill="#800000" stroke="#800000" points="705.566,-150.495 695.151,-148.554 702.082,-156.567 705.566,-150.495"/>
<text text-anchor="middle" x="1013.5" y="-223.426" font-family="Times New Roman,serif" font-size="20.00" fill="#800000">[1]</text>
</g>
<!-- bn2&#45;&gt;g/empty -->
<g id="edge18" class="edge"><title>bn2&#45;&gt;g/empty</title>
<path fill="none" stroke="#800000" d="M1094.32,-288.275C1099.45,-302.055 1163.55,-480.067 1080,-563.453 1054.4,-589.008 531.109,-598.474 354.577,-600.948"/>
<polygon fill="#800000" stroke="#800000" points="354.398,-597.45 344.447,-601.088 354.494,-604.449 354.398,-597.45"/>
<text text-anchor="middle" x="1133.5" y="-485.853" font-family="Times New Roman,serif" font-size="20.00" fill="#800000">der</text>
</g>
<!-- bn3&#45;&gt;g/a@1 -->
<g id="edge22" class="edge"><title>bn3&#45;&gt;g/a@1</title>
<path fill="none" stroke="#800000" d="M1140.02,-284.502C1132.38,-277.401 1081.47,-231.409 1030,-217.426 987.719,-205.94 875.569,-219.797 833,-209.426 785.762,-197.918 735.715,-172.233 703.734,-153.864"/>
<polygon fill="#800000" stroke="#800000" points="705.212,-150.674 694.811,-148.658 701.685,-156.72 705.212,-150.674"/>
<text text-anchor="middle" x="1091.5" y="-223.426" font-family="Times New Roman,serif" font-size="20.00" fill="#800000">[1]</text>
</g>
<!-- bn3&#45;&gt;g/empty -->
<g id="edge21" class="edge"><title>bn3&#45;&gt;g/empty</title>
<path fill="none" stroke="#800000" d="M1141.33,-288.274C1146.66,-302.033 1213.17,-479.778 1130,-563.453 1102.69,-590.928 538.539,-599.174 354.502,-601.138"/>
<polygon fill="#800000" stroke="#800000" points="354.441,-597.638 344.478,-601.243 354.514,-604.638 354.441,-597.638"/>
<text text-anchor="middle" x="1181.5" y="-485.853" font-family="Times New Roman,serif" font-size="20.00" fill="#800000">der</text>
</g>
</g>
</svg>
