<?xml version="1.0" encoding="UTF-8" standalone="no"?>
<!DOCTYPE svg PUBLIC "-//W3C//DTD SVG 1.1//EN"
 "http://www.w3.org/Graphics/SVG/1.1/DTD/svg11.dtd">
<!-- Generated by graphviz version 2.38.0 (20140413.2041)
 -->
<!-- Title: PROV Pages: 1 -->
<svg width="841pt" height="264pt"
 viewBox="0.00 0.00 841.00 263.85" xmlns="http://www.w3.org/2000/svg" xmlns:xlink="http://www.w3.org/1999/xlink">
<g id="graph0" class="graph" transform="scale(1 1) rotate(0) translate(4 259.853)">
<title>PROV</title>
<polygon fill="white" stroke="none" points="-4,4 -4,-259.853 837,-259.853 837,4 -4,4"/>
<!-- g/6 -->
<g id="node1" class="node"><title>g/6</title>
<g id="a_node1"><a xlink:href="g/6" xlink:title="6">
<ellipse fill="#fffc87" stroke="#808080" cx="269" cy="-234.64" rx="27" ry="21.4286"/>
<text text-anchor="middle" x="269" y="-229.64" font-family="Times New Roman,serif" font-size="20.00">6</text>
</a>
</g>
</g>
<!-- g/0 -->
<g id="node5" class="node"><title>g/0</title>
<g id="a_node5"><a xlink:href="g/0" xlink:title="0">
<ellipse fill="#fffc87" stroke="#808080" cx="361" cy="-234.64" rx="27" ry="21.4286"/>
<text text-anchor="middle" x="361" y="-229.64" font-family="Times New Roman,serif" font-size="20.00">0</text>
</a>
</g>
</g>
<!-- g/6&#45;&gt;g/0 -->
<!-- g/6&#45;attrs -->
<g id="node2" class="node"><title>g/6&#45;attrs</title>
<polygon fill="none" stroke="gray" points="180,-137.213 102,-137.213 102,-95.2132 186,-95.2132 186,-131.213 180,-137.213"/>
<polyline fill="none" stroke="gray" points="180,-137.213 180,-131.213 "/>
<polyline fill="none" stroke="gray" points="186,-131.213 180,-131.213 "/>
<text text-anchor="start" x="112" y="-120.813" font-family="Times New Roman,serif" font-size="13.00">value:</text>
<text text-anchor="start" x="145" y="-120.813" font-family="Times New Roman,serif" font-size="13.00">6</text>
<text text-anchor="start" x="112" y="-104.813" font-family="Times New Roman,serif" font-size="13.00">type:</text>
<text text-anchor="start" x="145" y="-104.813" font-family="Times New Roman,serif" font-size="13.00">literal</text>
</g>
<!-- g/6&#45;attrs&#45;&gt;g/6 -->
<g id="edge1" class="edge"><title>g/6&#45;attrs&#45;&gt;g/6</title>
<path fill="none" stroke="gray" stroke-dasharray="5,2" d="M142.249,-137.274C141.854,-154.674 144.15,-179.501 158,-195.426 174.878,-214.834 188.679,-205.059 213,-213.426 223.458,-217.024 234.957,-221.146 244.8,-224.725"/>
</g>
<!-- g/2 -->
<g id="node3" class="node"><title>g/2</title>
<g id="a_node3"><a xlink:href="g/2" xlink:title="2">
<ellipse fill="#fffc87" stroke="#808080" cx="177" cy="-234.64" rx="27" ry="21.4286"/>
<text text-anchor="middle" x="177" y="-229.64" font-family="Times New Roman,serif" font-size="20.00">2</text>
</a>
</g>
</g>
<!-- g/2&#45;&gt;g/6 -->
<!-- g/2&#45;attrs -->
<g id="node4" class="node"><title>g/2&#45;attrs</title>
<polygon fill="none" stroke="gray" points="78,-137.213 0,-137.213 0,-95.2132 84,-95.2132 84,-131.213 78,-137.213"/>
<polyline fill="none" stroke="gray" points="78,-137.213 78,-131.213 "/>
<polyline fill="none" stroke="gray" points="84,-131.213 78,-131.213 "/>
<text text-anchor="start" x="10" y="-120.813" font-family="Times New Roman,serif" font-size="13.00">value:</text>
<text text-anchor="start" x="43" y="-120.813" font-family="Times New Roman,serif" font-size="13.00">2</text>
<text text-anchor="start" x="10" y="-104.813" font-family="Times New Roman,serif" font-size="13.00">type:</text>
<text text-anchor="start" x="43" y="-104.813" font-family="Times New Roman,serif" font-size="13.00">literal</text>
</g>
<!-- g/2&#45;attrs&#45;&gt;g/2 -->
<g id="edge2" class="edge"><title>g/2&#45;attrs&#45;&gt;g/2</title>
<path fill="none" stroke="gray" stroke-dasharray="5,2" d="M65.2073,-137.228C91.8946,-160.243 135.12,-197.522 159.257,-218.338"/>
</g>
<!-- g/4 -->
<g id="node7" class="node"><title>g/4</title>
<g id="a_node7"><a xlink:href="g/4" xlink:title="4">
<ellipse fill="#fffc87" stroke="#808080" cx="526" cy="-234.64" rx="27" ry="21.4286"/>
<text text-anchor="middle" x="526" y="-229.64" font-family="Times New Roman,serif" font-size="20.00">4</text>
</a>
</g>
</g>
<!-- g/0&#45;&gt;g/4 -->
<!-- g/0&#45;attrs -->
<g id="node6" class="node"><title>g/0&#45;attrs</title>
<polygon fill="none" stroke="gray" points="286,-137.213 208,-137.213 208,-95.2132 292,-95.2132 292,-131.213 286,-137.213"/>
<polyline fill="none" stroke="gray" points="286,-137.213 286,-131.213 "/>
<polyline fill="none" stroke="gray" points="292,-131.213 286,-131.213 "/>
<text text-anchor="start" x="218" y="-120.813" font-family="Times New Roman,serif" font-size="13.00">value:</text>
<text text-anchor="start" x="251" y="-120.813" font-family="Times New Roman,serif" font-size="13.00">0</text>
<text text-anchor="start" x="218" y="-104.813" font-family="Times New Roman,serif" font-size="13.00">type:</text>
<text text-anchor="start" x="251" y="-104.813" font-family="Times New Roman,serif" font-size="13.00">literal</text>
</g>
<!-- g/0&#45;attrs&#45;&gt;g/0 -->
<g id="edge3" class="edge"><title>g/0&#45;attrs&#45;&gt;g/0</title>
<path fill="none" stroke="gray" stroke-dasharray="5,2" d="M248.476,-137.419C248.269,-154.674 250.713,-179.206 264,-195.426 266.452,-198.419 308.908,-214.464 336.831,-224.789"/>
</g>
<!-- g/3 -->
<g id="node9" class="node"><title>g/3</title>
<g id="a_node9"><a xlink:href="g/3" xlink:title="3">
<ellipse fill="#fffc87" stroke="#808080" cx="616" cy="-234.64" rx="27" ry="21.4286"/>
<text text-anchor="middle" x="616" y="-229.64" font-family="Times New Roman,serif" font-size="20.00">3</text>
</a>
</g>
</g>
<!-- g/4&#45;&gt;g/3 -->
<!-- g/4&#45;attrs -->
<g id="node8" class="node"><title>g/4&#45;attrs</title>
<polygon fill="none" stroke="gray" points="725,-137.213 647,-137.213 647,-95.2132 731,-95.2132 731,-131.213 725,-137.213"/>
<polyline fill="none" stroke="gray" points="725,-137.213 725,-131.213 "/>
<polyline fill="none" stroke="gray" points="731,-131.213 725,-131.213 "/>
<text text-anchor="start" x="657" y="-120.813" font-family="Times New Roman,serif" font-size="13.00">value:</text>
<text text-anchor="start" x="690" y="-120.813" font-family="Times New Roman,serif" font-size="13.00">4</text>
<text text-anchor="start" x="657" y="-104.813" font-family="Times New Roman,serif" font-size="13.00">type:</text>
<text text-anchor="start" x="690" y="-104.813" font-family="Times New Roman,serif" font-size="13.00">literal</text>
</g>
<!-- g/4&#45;attrs&#45;&gt;g/4 -->
<g id="edge4" class="edge"><title>g/4&#45;attrs&#45;&gt;g/4</title>
<path fill="none" stroke="gray" stroke-dasharray="5,2" d="M691.221,-137.378C691.976,-155.092 689.945,-180.329 675,-195.426 644.768,-225.967 621.385,-201.852 580,-213.426 569.781,-216.284 558.767,-220.241 549.367,-223.897"/>
</g>
<!-- g/3&#45;attrs -->
<g id="node10" class="node"><title>g/3&#45;attrs</title>
<polygon fill="none" stroke="gray" points="827,-137.213 749,-137.213 749,-95.2132 833,-95.2132 833,-131.213 827,-137.213"/>
<polyline fill="none" stroke="gray" points="827,-137.213 827,-131.213 "/>
<polyline fill="none" stroke="gray" points="833,-131.213 827,-131.213 "/>
<text text-anchor="start" x="759" y="-120.813" font-family="Times New Roman,serif" font-size="13.00">value:</text>
<text text-anchor="start" x="792" y="-120.813" font-family="Times New Roman,serif" font-size="13.00">3</text>
<text text-anchor="start" x="759" y="-104.813" font-family="Times New Roman,serif" font-size="13.00">type:</text>
<text text-anchor="start" x="792" y="-104.813" font-family="Times New Roman,serif" font-size="13.00">literal</text>
</g>
<!-- g/3&#45;attrs&#45;&gt;g/3 -->
<g id="edge5" class="edge"><title>g/3&#45;attrs&#45;&gt;g/3</title>
<path fill="none" stroke="gray" stroke-dasharray="5,2" d="M769.527,-137.481C750.998,-154.316 723.027,-178.209 696,-195.426 677.955,-206.921 655.921,-217.199 639.549,-224.193"/>
</g>
<!-- g/a -->
<g id="node11" class="node"><title>g/a</title>
<g id="a_node11"><a xlink:href="g/a" xlink:title="a">
<ellipse fill="#fffc87" stroke="#808080" cx="404" cy="-116.213" rx="27" ry="21.4286"/>
<text text-anchor="middle" x="404" y="-111.213" font-family="Times New Roman,serif" font-size="20.00">a</text>
</a>
</g>
</g>
<!-- g/a&#45;&gt;g/6 -->
<g id="edge8" class="edge"><title>g/a&#45;&gt;g/6</title>
<path fill="none" stroke="black" d="M377.441,-120.069C353.179,-124.031 317.855,-133.403 296,-155.426 283.3,-168.224 276.563,-187.272 272.995,-203.366"/>
<polygon fill="black" stroke="black" points="269.513,-202.942 271.077,-213.421 276.389,-204.254 269.513,-202.942"/>
<text text-anchor="start" x="296" y="-180.426" font-family="Times New Roman,serif" font-size="20.00">put</text>
<text text-anchor="start" x="324" y="-180.426" font-family="Times New Roman,serif" font-size="20.00" fill="#800000"> [1]</text>
<text text-anchor="start" x="297" y="-160.426" font-family="Times New Roman,serif" font-size="20.00" fill="#800000">ckpt: 0</text>
</g>
<!-- g/a&#45;&gt;g/2 -->
<g id="edge7" class="edge"><title>g/a&#45;&gt;g/2</title>
<path fill="none" stroke="black" d="M377.849,-122.317C326.135,-132.431 215.623,-154.157 214,-155.426 198.812,-167.304 189.552,-186.934 184.095,-203.556"/>
<polygon fill="black" stroke="black" points="180.657,-202.838 181.169,-213.421 187.368,-204.829 180.657,-202.838"/>
<text text-anchor="start" x="214" y="-180.426" font-family="Times New Roman,serif" font-size="20.00">put</text>
<text text-anchor="start" x="242" y="-180.426" font-family="Times New Roman,serif" font-size="20.00" fill="#800000"> [0]</text>
<text text-anchor="start" x="215" y="-160.426" font-family="Times New Roman,serif" font-size="20.00" fill="#800000">ckpt: 0</text>
</g>
<!-- g/a&#45;&gt;g/0 -->
<g id="edge9" class="edge"><title>g/a&#45;&gt;g/0</title>
<path fill="none" stroke="black" d="M384.594,-131.047C377.087,-137.527 369.284,-145.92 365,-155.426 358.348,-170.189 357.019,-188.144 357.501,-203.125"/>
<polygon fill="black" stroke="black" points="354.026,-203.648 358.121,-213.42 361.013,-203.227 354.026,-203.648"/>
<text text-anchor="start" x="365" y="-180.426" font-family="Times New Roman,serif" font-size="20.00">put</text>
<text text-anchor="start" x="393" y="-180.426" font-family="Times New Roman,serif" font-size="20.00" fill="#800000"> [2]</text>
<text text-anchor="start" x="366" y="-160.426" font-family="Times New Roman,serif" font-size="20.00" fill="#800000">ckpt: 0</text>
</g>
<!-- g/a&#45;&gt;g/4 -->
<g id="edge10" class="edge"><title>g/a&#45;&gt;g/4</title>
<path fill="none" stroke="black" d="M413.43,-136.232C424.294,-157.898 441.26,-190.905 446,-195.426 458.699,-207.54 475.957,-216.444 491.193,-222.594"/>
<polygon fill="black" stroke="black" points="490.253,-225.98 500.845,-226.244 492.729,-219.433 490.253,-225.98"/>
<text text-anchor="start" x="446" y="-180.426" font-family="Times New Roman,serif" font-size="20.00">put</text>
<text text-anchor="start" x="474" y="-180.426" font-family="Times New Roman,serif" font-size="20.00" fill="#800000"> [3]</text>
<text text-anchor="start" x="447" y="-160.426" font-family="Times New Roman,serif" font-size="20.00" fill="#800000">ckpt: 1</text>
</g>
<!-- g/a&#45;&gt;g/4 -->
<g id="edge12" class="edge"><title>g/a&#45;&gt;g/4</title>
<path fill="none" stroke="black" d="M430.671,-120.68C453.269,-125.004 484.952,-134.565 504,-155.426 515.859,-168.415 521.385,-187.305 523.934,-203.267"/>
<polygon fill="black" stroke="black" points="520.47,-203.77 525.215,-213.242 527.412,-202.878 520.47,-203.77"/>
<text text-anchor="start" x="528.5" y="-180.426" font-family="Times New Roman,serif" font-size="20.00">del</text>
<text text-anchor="start" x="554.5" y="-180.426" font-family="Times New Roman,serif" font-size="20.00" fill="#800000"> [3]</text>
<text text-anchor="start" x="523" y="-160.426" font-family="Times New Roman,serif" font-size="20.00" fill="#800000">ckpt: 10</text>
</g>
<!-- g/a&#45;&gt;g/3 -->
<g id="edge11" class="edge"><title>g/a&#45;&gt;g/3</title>
<path fill="none" stroke="black" d="M431.069,-119.222C477.744,-123.228 570.62,-133.753 594,-155.426 607.068,-167.541 612.596,-186.745 614.843,-203.091"/>
<polygon fill="black" stroke="black" points="611.39,-203.727 615.893,-213.318 618.354,-203.013 611.39,-203.727"/>
<text text-anchor="start" x="613" y="-180.426" font-family="Times New Roman,serif" font-size="20.00">put</text>
<text text-anchor="start" x="641" y="-180.426" font-family="Times New Roman,serif" font-size="20.00" fill="#800000"> [1]</text>
<text text-anchor="start" x="614" y="-160.426" font-family="Times New Roman,serif" font-size="20.00" fill="#800000">ckpt: 4</text>
</g>
<!-- g/a&#45;attrs -->
<g id="node12" class="node"><title>g/a&#45;attrs</title>
<polygon fill="none" stroke="gray" points="444.5,-58 357.5,-58 357.5,-0 450.5,-0 450.5,-52 444.5,-58"/>
<polyline fill="none" stroke="gray" points="444.5,-58 444.5,-52 "/>
<polyline fill="none" stroke="gray" points="450.5,-52 444.5,-52 "/>
<text text-anchor="start" x="368" y="-41.6" font-family="Times New Roman,serif" font-size="13.00">value:</text>
<text text-anchor="start" x="401" y="-41.6" font-family="Times New Roman,serif" font-size="13.00">[2, 6, 0]</text>
<text text-anchor="start" x="368" y="-25.6" font-family="Times New Roman,serif" font-size="13.00">type:</text>
<text text-anchor="start" x="401" y="-25.6" font-family="Times New Roman,serif" font-size="13.00">list</text>
<text text-anchor="start" x="368" y="-9.6" font-family="Times New Roman,serif" font-size="13.00">label:</text>
<text text-anchor="start" x="401" y="-9.6" font-family="Times New Roman,serif" font-size="13.00">[2, 6, 0]</text>
</g>
<!-- g/a&#45;attrs&#45;&gt;g/a -->
<g id="edge6" class="edge"><title>g/a&#45;attrs&#45;&gt;g/a</title>
<path fill="none" stroke="gray" stroke-dasharray="5,2" d="M404,-58.3748C404,-70.2849 404,-83.8713 404,-94.7737"/>
</g>
</g>
</svg>
