<?xml version="1.0" ?><!DOCTYPE svg  PUBLIC '-//W3C//DTD SVG 1.1//EN'  'http://www.w3.org/Graphics/SVG/1.1/DTD/svg11.dtd'><!-- Generated by graphviz version 2.38.0 (20140413.2041)

 --><!-- Title: PROV Pages: 1 --><svg height="173pt" viewBox="0.00 0.00 482.00 172.85" width="482pt" xmlns="http://www.w3.org/2000/svg" xmlns:xlink="http://www.w3.org/1999/xlink">

<g class="graph" id="graph0" transform="scale(1 1) rotate(0) translate(4 168.853)">

<title>PROV</title>

<polygon fill="white" points="-4,4 -4,-168.853 478,-168.853 478,4 -4,4" stroke="none"/>

<!-- g/6 -->

<g class="node" id="node1"><title>g/6</title>

<g id="a_node1"><a xlink:href="g/6" xlink:title="6">

<ellipse cx="117" cy="-143.64" fill="#fafafa" rx="27" ry="21.4286" stroke="#999999"/>

<text fill="#999999" font-family="Times New Roman,serif" font-size="20.00" text-anchor="middle" x="117" y="-138.64">6</text>

</a>

</g>

</g>

<!-- g/0 -->

<g class="node" id="node3"><title>g/0</title>

<g id="a_node3"><a xlink:href="g/0" xlink:title="0">

<ellipse cx="207" cy="-143.64" fill="#fafafa" rx="27" ry="21.4286" stroke="#999999"/>

<text fill="#999999" font-family="Times New Roman,serif" font-size="20.00" text-anchor="middle" x="207" y="-138.64">0</text>

</a>

</g>

</g>

<!-- g/6&#45;&gt;g/0 -->

<!-- g/2 -->

<g class="node" id="node2"><title>g/2</title>

<g id="a_node2"><a xlink:href="g/2" xlink:title="2">

<ellipse cx="27" cy="-143.64" fill="#fafafa" rx="27" ry="21.4286" stroke="#999999"/>

<text fill="#999999" font-family="Times New Roman,serif" font-size="20.00" text-anchor="middle" x="27" y="-138.64">2</text>

</a>

</g>

</g>

<!-- g/2&#45;&gt;g/6 -->

<!-- g/4 -->

<g class="node" id="node4"><title>g/4</title>

<g id="a_node4"><a xlink:href="g/4" xlink:title="4">

<ellipse cx="307" cy="-143.64" fill="#fffc87" rx="27" ry="21.4286" stroke="#808080"/>

<text font-family="Times New Roman,serif" font-size="20.00" text-anchor="middle" x="307" y="-138.64">4</text>

</a>

</g>

</g>

<!-- g/0&#45;&gt;g/4 -->

<!-- g/3 -->



<!-- g/4&#45;&gt;g/3 -->

<!-- g/list -->

<g class="node" id="node6"><title>g/list</title>

<g id="a_node6"><a xlink:href="g/list" xlink:title="list">

<ellipse cx="234" cy="-21.2132" fill="#fffc87" rx="28.9828" ry="21.4286" stroke="#808080"/>

<text font-family="Times New Roman,serif" font-size="20.00" text-anchor="middle" x="234" y="-16.2132">list</text>

</a>

</g>

</g>

<!-- g/list&#45;&gt;g/6 -->

<g class="edge" id="edge2"><title>g/list-&gt;g/6</title>

<path d="M205.17,-24.8987C181.309,-28.721 148.438,-37.9832 130,-60.4264 118.225,-74.7584 114.99,-95.387 114.691,-112.395" fill="none" stroke="#999999"/>

<polygon fill="#999999" points="111.192,-112.479 114.834,-122.428 118.191,-112.379 111.192,-112.479" stroke="#999999"/>

<text fill="#999999" font-family="Times New Roman,serif" font-size="20.00" text-anchor="middle" x="158.5" y="-88.4264">put [1]</text>

<text fill="#999999" font-family="Times New Roman,serif" font-size="20.00" text-anchor="middle" x="158.5" y="-66.4264">ckpt: 0</text>

</g>

<!-- g/list&#45;&gt;g/2 -->

<g class="edge" id="edge1"><title>g/list-&gt;g/2</title>

<path d="M205.402,-24.8956C160.668,-29.6409 76.973,-40.9031 55,-60.4264 40.345,-73.4475 33.3536,-94.4482 30.0215,-111.965" fill="none" stroke="#999999"/>

<polygon fill="#999999" points="26.4892,-111.894 28.384,-122.318 33.4033,-112.988 26.4892,-111.894" stroke="#999999"/>

<text fill="#999999" font-family="Times New Roman,serif" font-size="20.00" text-anchor="middle" x="83.5" y="-88.4264">put [0]</text>

<text fill="#999999" font-family="Times New Roman,serif" font-size="20.00" text-anchor="middle" x="83.5" y="-66.4264">ckpt: 0</text>

</g>

<!-- g/list&#45;&gt;g/0 -->

<g class="edge" id="edge3"><title>g/list-&gt;g/0</title>

<path d="M213.531,-36.6561C206.248,-43.0192 198.892,-51.1629 195,-60.4264 187.987,-77.1165 190.735,-97.2022 195.358,-113.342" fill="none" stroke="#999999"/>

<polygon fill="#999999" points="192.173,-114.868 198.584,-123.304 198.833,-112.712 192.173,-114.868" stroke="#999999"/>

<text fill="#999999" font-family="Times New Roman,serif" font-size="20.00" text-anchor="middle" x="223.5" y="-88.4264">put [2]</text>

<text fill="#999999" font-family="Times New Roman,serif" font-size="20.00" text-anchor="middle" x="223.5" y="-66.4264">ckpt: 0</text>

</g>

<!-- g/list&#45;&gt;g/4 -->

<g class="edge" id="edge4"><title>g/list-&gt;g/4</title>

<path d="M242.95,-41.4461C252.661,-62.0716 267.747,-93.3523 275,-104.426 277.947,-108.926 281.349,-113.493 284.812,-117.83" fill="none" stroke="black"/>

<polygon fill="black" points="282.359,-120.354 291.442,-125.807 287.742,-115.879 282.359,-120.354" stroke="black"/>

<text font-family="Times New Roman,serif" font-size="20.00" text-anchor="start" x="275" y="-87.4264">put</text>

<text fill="#800000" font-family="Times New Roman,serif" font-size="20.00" text-anchor="start" x="303" y="-87.4264"> [3]</text>

<text fill="#800000" font-family="Times New Roman,serif" font-size="20.00" text-anchor="start" x="276" y="-67.4264">ckpt: 1</text>

</g>

<!-- g/list&#45;&gt;g/4 -->



<!-- g/list&#45;&gt;g/3 -->



</g>

</svg>