<?xml version="1.0" ?><!DOCTYPE svg  PUBLIC '-//W3C//DTD SVG 1.1//EN'  'http://www.w3.org/Graphics/SVG/1.1/DTD/svg11.dtd'><!-- Generated by graphviz version 2.38.0 (20140413.2041)

 --><!-- Title: PROV Pages: 1 --><svg height="477pt" viewBox="0.00 0.00 354.00 476.85" width="354pt" xmlns="http://www.w3.org/2000/svg" xmlns:xlink="http://www.w3.org/1999/xlink">

<g class="graph" id="graph0" transform="scale(1 1) rotate(0) translate(4 472.853)">

<title>PROV</title>

<polygon fill="white" points="-4,4 -4,-472.853 350,-472.853 350,4 -4,4" stroke="none"/>

<g class="cluster" id="clust2"><title>cluster_1</title>

<polygon fill="none" points="124,-368.426 124,-460.853 338,-460.853 338,-368.426 124,-368.426" stroke="#333333"/>

<text fill="white" font-family="Times New Roman,serif" font-size="24.00" text-anchor="middle" x="286" y="-437.653">Members</text>

</g>

<g class="cluster" id="clust1"><title>cluster_0</title>

<polygon fill="none" points="8,-8 8,-360.426 202,-360.426 202,-8 8,-8" stroke="#333333"/>

<text fill="white" font-family="Times New Roman,serif" font-size="24.00" text-anchor="middle" x="162.5" y="-337.226">Assign</text>

</g>

<!-- g/a#1 -->

<g class="node" id="node1"><title>g/a#1</title>

<g id="a_node1"><a xlink:href="g/a#1" xlink:title="a#1">

<ellipse cx="161" cy="-289.426" fill="#fffc87" rx="33.4697" ry="21.4286" stroke="#808080"/>

<text font-family="Times New Roman,serif" font-size="20.00" text-anchor="middle" x="161" y="-284.426">a#1</text>

</a>

</g>

</g>

<!-- g/2 -->

<g class="node" id="node7"><title>g/2</title>

<g id="a_node7"><a xlink:href="g/2" xlink:title="2">

<ellipse cx="159" cy="-397.64" fill="#fafafa" rx="27" ry="21.4286" stroke="#999999"/>

<text fill="#999999" font-family="Times New Roman,serif" font-size="20.00" text-anchor="middle" x="159" y="-392.64">2</text>

</a>

</g>

</g>

<!-- g/a#1&#45;&gt;g/2 -->

<g class="edge" id="edge3"><title>g/a#1-&gt;g/2</title>

<path d="M160.614,-310.905C160.321,-326.481 159.913,-348.169 159.58,-365.835" fill="none" stroke="#999999"/>

<polygon fill="#999999" points="156.073,-366.159 159.384,-376.224 163.072,-366.291 156.073,-366.159" stroke="#999999"/>

</g>

<!-- g/6 -->

<g class="node" id="node8"><title>g/6</title>

<g id="a_node8"><a xlink:href="g/6" xlink:title="6">

<ellipse cx="231" cy="-397.64" fill="#fafafa" rx="27" ry="21.4286" stroke="#999999"/>

<text fill="#999999" font-family="Times New Roman,serif" font-size="20.00" text-anchor="middle" x="231" y="-392.64">6</text>

</a>

</g>

</g>

<!-- g/a#1&#45;&gt;g/6 -->

<g class="edge" id="edge4"><title>g/a#1-&gt;g/6</title>

<path d="M173.515,-309.415C184.65,-326.311 201.051,-351.196 213.487,-370.067" fill="none" stroke="#999999"/>

<polygon fill="#999999" points="210.636,-372.1 219.061,-378.524 216.48,-368.248 210.636,-372.1" stroke="#999999"/>

</g>

<!-- g/0 -->

<g class="node" id="node9"><title>g/0</title>

<g id="a_node9"><a xlink:href="g/0" xlink:title="0">

<ellipse cx="303" cy="-397.64" fill="#fafafa" rx="27" ry="21.4286" stroke="#999999"/>

<text fill="#999999" font-family="Times New Roman,serif" font-size="20.00" text-anchor="middle" x="303" y="-392.64">0</text>

</a>

</g>

</g>

<!-- g/a#1&#45;&gt;g/0 -->

<g class="edge" id="edge5"><title>g/a#1-&gt;g/0</title>

<path d="M182.257,-305.778C203.759,-321.375 237.888,-346.316 267,-368.426 270.023,-370.723 273.173,-373.145 276.297,-375.567" fill="none" stroke="#999999"/>

<polygon fill="#999999" points="274.362,-378.496 284.399,-381.888 278.667,-372.977 274.362,-378.496" stroke="#999999"/>

</g>

<!-- g/b#1 -->

<g class="node" id="node2"><title>g/b#1</title>

<g id="a_node2"><a xlink:href="g/b#1" xlink:title="b#1">

<ellipse cx="160" cy="-131.213" fill="#fffc87" rx="33.8824" ry="21.4286" stroke="#808080"/>

<text font-family="Times New Roman,serif" font-size="20.00" text-anchor="middle" x="160" y="-126.213">b#1</text>

</a>

</g>

</g>

<!-- g/b#1&#45;&gt;g/a#1 -->

<g class="edge" id="edge10"><title>g/b#1-&gt;g/a#1</title>

<path d="M160.131,-152.635C160.302,-179.416 160.604,-226.639 160.804,-257.733" fill="none" stroke="black"/>

<polygon fill="black" points="157.305,-258.022 160.869,-267.999 164.305,-257.977 157.305,-258.022" stroke="black"/>

<text font-family="Times New Roman,serif" font-size="16.00" text-anchor="middle" x="177.515" y="-158.724">der</text>

</g>

<!-- g/assign3 -->

<g class="node" id="node3"><title>g/assign3</title>

<g id="a_node3"><a xlink:href="g/assign3" xlink:title="assign3">

<polygon fill="#9fb1fc" points="142,-224.426 66,-224.426 66,-188.426 142,-188.426 142,-224.426" stroke="#0000ff"/>

<text font-family="Times New Roman,serif" font-size="20.00" text-anchor="middle" x="104" y="-201.426">assign3</text>

</a>

</g>

</g>

<!-- g/b#1&#45;&gt;g/assign3 -->

<g class="edge" id="edge12"><title>g/b#1-&gt;g/assign3</title>

<path d="M145.869,-150.688C139.052,-159.6 130.769,-170.429 123.375,-180.096" fill="none" stroke="black"/>

<polygon fill="black" points="120.46,-178.146 117.165,-188.215 126.02,-182.398 120.46,-178.146" stroke="black"/>

<text font-family="Times New Roman,serif" font-size="16.00" text-anchor="middle" x="145.869" y="-146.888">gen</text>

</g>

<!-- g/b#1&#45;&gt;g/2 -->



<!-- g/b#1&#45;&gt;g/6 -->



<!-- g/b#1&#45;&gt;g/0 -->



<!-- g/assign3&#45;&gt;g/a#1 -->

<g class="edge" id="edge11"><title>g/assign3-&gt;g/a#1</title>

<path d="M116.088,-224.604C123.609,-235.292 133.443,-249.266 141.991,-261.414" fill="none" stroke="black"/>

<polygon fill="black" points="139.319,-263.699 147.936,-269.862 145.044,-259.67 139.319,-263.699" stroke="black"/>

<text font-family="Times New Roman,serif" font-size="16.00" text-anchor="middle" x="116.088" y="-220.804">use</text>

</g>

<!-- g/a#1&#45;attrs -->

<g class="node" id="node4"><title>g/a#1-attrs</title>

<polygon fill="none" points="103.5,-318.426 16.5,-318.426 16.5,-260.426 109.5,-260.426 109.5,-312.426 103.5,-318.426" stroke="gray"/>

<polyline fill="none" points="103.5,-318.426 103.5,-312.426 " stroke="gray"/>

<polyline fill="none" points="109.5,-312.426 103.5,-312.426 " stroke="gray"/>

<text font-family="Times New Roman,serif" font-size="13.00" text-anchor="start" x="27" y="-302.026">value:</text>

<text font-family="Times New Roman,serif" font-size="13.00" text-anchor="start" x="60" y="-302.026">[2, 6, 0]</text>

<text font-family="Times New Roman,serif" font-size="13.00" text-anchor="start" x="27" y="-286.026">type:</text>

<text font-family="Times New Roman,serif" font-size="13.00" text-anchor="start" x="60" y="-286.026">name</text>

<text font-family="Times New Roman,serif" font-size="13.00" text-anchor="start" x="27" y="-270.026">label:</text>

<text font-family="Times New Roman,serif" font-size="13.00" text-anchor="start" x="60" y="-270.026">a</text>

</g>

<!-- g/a#1&#45;attrs&#45;&gt;g/a#1 -->

<g class="edge" id="edge1"><title>g/a#1-attrs-&gt;g/a#1</title>

<path d="M109.703,-289.426C115.714,-289.426 121.726,-289.426 127.737,-289.426" fill="none" stroke="gray" stroke-dasharray="5,2"/>

</g>

<!-- g/b#1&#45;attrs -->

<g class="node" id="node5"><title>g/b#1-attrs</title>

<polygon fill="none" points="187.5,-74 100.5,-74 100.5,-16 193.5,-16 193.5,-68 187.5,-74" stroke="gray"/>

<polyline fill="none" points="187.5,-74 187.5,-68 " stroke="gray"/>

<polyline fill="none" points="193.5,-68 187.5,-68 " stroke="gray"/>

<text font-family="Times New Roman,serif" font-size="13.00" text-anchor="start" x="111" y="-57.6">value:</text>

<text font-family="Times New Roman,serif" font-size="13.00" text-anchor="start" x="144" y="-57.6">[2, 6, 0]</text>

<text font-family="Times New Roman,serif" font-size="13.00" text-anchor="start" x="111" y="-41.6">type:</text>

<text font-family="Times New Roman,serif" font-size="13.00" text-anchor="start" x="144" y="-41.6">name</text>

<text font-family="Times New Roman,serif" font-size="13.00" text-anchor="start" x="111" y="-25.6">label:</text>

<text font-family="Times New Roman,serif" font-size="13.00" text-anchor="start" x="144" y="-25.6">b</text>

</g>

<!-- g/b#1&#45;attrs&#45;&gt;g/b#1 -->

<g class="edge" id="edge2"><title>g/b#1-attrs-&gt;g/b#1</title>

<path d="M151.329,-74.0418C153.146,-85.8121 155.219,-99.2391 156.882,-110.014" fill="none" stroke="gray" stroke-dasharray="5,2"/>

</g>

<!-- g/assign3&#45;attrs -->

<g class="node" id="node6"><title>g/assign3-attrs</title>

<polygon fill="none" points="102,-149.213 28,-149.213 28,-113.213 108,-113.213 108,-143.213 102,-149.213" stroke="gray"/>

<polyline fill="none" points="102,-149.213 102,-143.213 " stroke="gray"/>

<polyline fill="none" points="108,-143.213 102,-143.213 " stroke="gray"/>

<text font-family="Times New Roman,serif" font-size="13.00" text-anchor="start" x="38" y="-127.813">type:</text>

<text font-family="Times New Roman,serif" font-size="13.00" text-anchor="start" x="66" y="-127.813">assign</text>

</g>

<!-- g/assign3&#45;attrs&#45;&gt;g/assign3 -->

<g class="edge" id="edge9"><title>g/assign3-attrs-&gt;g/assign3</title>

<path d="M76.5315,-149.564C82.2702,-161.234 89.8039,-176.556 95.5297,-188.2" fill="none" stroke="gray" stroke-dasharray="5,2"/>

</g>

<!-- g/6&#45;&gt;g/2 -->

<!-- g/0&#45;&gt;g/6 -->

</g>

</svg>