<?xml version="1.0" encoding="UTF-8" standalone="no"?>
<!DOCTYPE svg PUBLIC "-//W3C//DTD SVG 1.1//EN"
 "http://www.w3.org/Graphics/SVG/1.1/DTD/svg11.dtd">
<!-- Generated by graphviz version 2.38.0 (20140413.2041)
 -->
<!-- Title: PROV Pages: 1 -->
<svg width="877pt" height="615pt"
 viewBox="0.00 0.00 877.22 615.28" xmlns="http://www.w3.org/2000/svg" xmlns:xlink="http://www.w3.org/1999/xlink">
<g id="graph0" class="graph" transform="scale(1 1) rotate(0) translate(4 611.279)">
<title>PROV</title>
<polygon fill="white" stroke="none" points="-4,4 -4,-611.279 873.216,-611.279 873.216,4 -4,4"/>
<g id="clust2" class="cluster"><title>cluster_1</title>
<polygon fill="none" stroke="#333333" points="517,-367.426 517,-599.279 767,-599.279 767,-367.426 517,-367.426"/>
<text text-anchor="middle" x="691" y="-566.479" font-family="Times New Roman,serif" font-size="36.00" fill="white">Members</text>
</g>
<g id="clust1" class="cluster"><title>cluster_0</title>
<polygon fill="none" stroke="#333333" points="8,-56 8,-473.853 436,-473.853 436,-56 8,-56"/>
<text text-anchor="middle" x="343.5" y="-441.053" font-family="Times New Roman,serif" font-size="36.00" fill="white">Assignment</text>
</g>
<g id="clust3" class="cluster"><title>cluster_2</title>
<polygon fill="none" stroke="#333333" points="493,-8 493,-209.426 714,-209.426 714,-8 493,-8"/>
<text text-anchor="middle" x="636.5" y="-23.2" font-family="Times New Roman,serif" font-size="36.00" fill="white">Overhead</text>
</g>
<!-- g/a@1 -->
<g id="node1" class="node"><title>g/a@1</title>
<g id="a_node1"><a xlink:href="g/a@1" xlink:title="a@1">
<ellipse fill="#fffc87" stroke="#808080" cx="278" cy="-180.213" rx="38.7821" ry="21.4286"/>
<text text-anchor="middle" x="278" y="-175.213" font-family="Times New Roman,serif" font-size="20.00">a@1</text>
</a>
</g>
</g>
<!-- g/3 -->
<g id="node3" class="node"><title>g/3</title>
<g id="a_node3"><a xlink:href="g/3" xlink:title="3">
<ellipse fill="#fffc87" stroke="#808080" cx="278" cy="-396.64" rx="27" ry="21.4286"/>
<text text-anchor="middle" x="278" y="-391.64" font-family="Times New Roman,serif" font-size="20.00">3</text>
</a>
</g>
</g>
<!-- g/a@1&#45;&gt;g/3 -->
<g id="edge26" class="edge"><title>g/a@1&#45;&gt;g/3</title>
<path fill="none" stroke="black" d="M242.057,-188.811C206.32,-198.488 153.408,-219.047 129,-259.426 115.665,-281.487 115.665,-295.366 129,-317.426 153.347,-357.705 206.056,-378.262 241.79,-387.969"/>
<polygon fill="black" stroke="black" points="241.277,-391.45 251.832,-390.535 243.01,-384.668 241.277,-391.45"/>
<text text-anchor="middle" x="239.662" y="-194.72" font-family="Times New Roman,serif" font-size="16.00">der</text>
</g>
<!-- g/assign4 -->
<g id="node5" class="node"><title>g/assign4</title>
<g id="a_node5"><a xlink:href="g/assign4" xlink:title="assign4">
<polygon fill="#9fb1fc" stroke="#0000ff" points="316,-306.426 240,-306.426 240,-270.426 316,-270.426 316,-306.426"/>
<text text-anchor="middle" x="278" y="-283.426" font-family="Times New Roman,serif" font-size="20.00">assign4</text>
</a>
</g>
</g>
<!-- g/a@1&#45;&gt;g/assign4 -->
<g id="edge35" class="edge"><title>g/a@1&#45;&gt;g/assign4</title>
<path fill="none" stroke="black" d="M278,-201.692C278,-218.321 278,-241.919 278,-260.149"/>
<polygon fill="black" stroke="black" points="274.5,-260.169 278,-270.169 281.5,-260.169 274.5,-260.169"/>
<text text-anchor="middle" x="286.66" y="-202.892" font-family="Times New Roman,serif" font-size="16.00">gen</text>
</g>
<!-- g/1 -->
<g id="node2" class="node"><title>g/1</title>
<g id="a_node2"><a xlink:href="g/1" xlink:title="1">
<ellipse fill="#fffc87" stroke="#808080" cx="112" cy="-396.64" rx="27" ry="21.4286"/>
<text text-anchor="middle" x="112" y="-391.64" font-family="Times New Roman,serif" font-size="20.00">1</text>
</a>
</g>
</g>
<!-- g/2 -->
<g id="node11" class="node"><title>g/2</title>
<g id="a_node11"><a xlink:href="g/2" xlink:title="2">
<ellipse fill="#fafafa" stroke="#999999" cx="552" cy="-522.066" rx="27" ry="21.4286"/>
<text text-anchor="middle" x="552" y="-517.066" font-family="Times New Roman,serif" font-size="20.00" fill="#999999">2</text>
</a>
</g>
</g>
<!-- g/1&#45;&gt;g/2 -->
<!-- g/a#1 -->
<g id="node4" class="node"><title>g/a#1</title>
<g id="a_node4"><a xlink:href="g/a#1" xlink:title="a#1">
<ellipse fill="#fffc87" stroke="#808080" cx="395" cy="-396.64" rx="33.4697" ry="21.4286"/>
<text text-anchor="middle" x="395" y="-391.64" font-family="Times New Roman,serif" font-size="20.00">a#1</text>
</a>
</g>
</g>
<!-- g/a#1&#45;&gt;g/2 -->
<g id="edge7" class="edge"><title>g/a#1&#45;&gt;g/2</title>
<path fill="none" stroke="#999999" d="M406.602,-416.826C418.861,-435.744 439.752,-464.423 464,-482.853 479.851,-494.901 500.087,-504.029 517.156,-510.338"/>
<polygon fill="#999999" stroke="#999999" points="516.188,-513.708 526.783,-513.727 518.513,-507.105 516.188,-513.708"/>
</g>
<!-- g/6 -->
<g id="node12" class="node"><title>g/6</title>
<g id="a_node12"><a xlink:href="g/6" xlink:title="6">
<ellipse fill="#fafafa" stroke="#999999" cx="642" cy="-522.066" rx="27" ry="21.4286"/>
<text text-anchor="middle" x="642" y="-517.066" font-family="Times New Roman,serif" font-size="20.00" fill="#999999">6</text>
</a>
</g>
</g>
<!-- g/a#1&#45;&gt;g/6 -->
<g id="edge8" class="edge"><title>g/a#1&#45;&gt;g/6</title>
<path fill="none" stroke="#999999" d="M415.877,-413.221C438.808,-429.825 477.153,-456.114 513,-473.853 544.753,-489.565 554.743,-488.643 588,-500.853 594.629,-503.287 601.706,-505.914 608.479,-508.444"/>
<polygon fill="#999999" stroke="#999999" points="607.507,-511.817 618.099,-512.046 609.962,-505.261 607.507,-511.817"/>
</g>
<!-- g/0 -->
<g id="node13" class="node"><title>g/0</title>
<g id="a_node13"><a xlink:href="g/0" xlink:title="0">
<ellipse fill="#fafafa" stroke="#999999" cx="732" cy="-522.066" rx="27" ry="21.4286"/>
<text text-anchor="middle" x="732" y="-517.066" font-family="Times New Roman,serif" font-size="20.00" fill="#999999">0</text>
</a>
</g>
</g>
<!-- g/a#1&#45;&gt;g/0 -->
<g id="edge9" class="edge"><title>g/a#1&#45;&gt;g/0</title>
<path fill="none" stroke="#999999" d="M414.492,-413.878C436.824,-431.572 475.225,-459.295 513,-473.853 530.335,-480.533 660.048,-496.074 678,-500.853 684.889,-502.687 692.125,-505.065 698.98,-507.542"/>
<polygon fill="#999999" stroke="#999999" points="698.077,-510.942 708.669,-511.191 700.544,-504.391 698.077,-510.942"/>
</g>
<!-- g/assign4&#45;&gt;g/1 -->
<g id="edge27" class="edge"><title>g/assign4&#45;&gt;g/1</title>
<path fill="none" stroke="black" d="M251.329,-306.491C221.133,-325.812 172.103,-357.183 140.983,-377.095"/>
<polygon fill="black" stroke="black" points="138.863,-374.296 132.326,-382.634 142.636,-380.193 138.863,-374.296"/>
<text text-anchor="middle" x="251.785" y="-312.681" font-family="Times New Roman,serif" font-size="16.00">use</text>
</g>
<!-- g/assign4&#45;&gt;g/3 -->
<g id="edge32" class="edge"><title>g/assign4&#45;&gt;g/3</title>
<path fill="none" stroke="black" d="M278,-306.491C278,-322.324 278,-346.25 278,-365.33"/>
<polygon fill="black" stroke="black" points="274.5,-365.349 278,-375.349 281.5,-365.349 274.5,-365.349"/>
<text text-anchor="middle" x="286.66" y="-307.691" font-family="Times New Roman,serif" font-size="16.00">use</text>
</g>
<!-- g/assign4&#45;&gt;g/a#1 -->
<g id="edge22" class="edge"><title>g/assign4&#45;&gt;g/a#1</title>
<path fill="none" stroke="black" d="M296.798,-306.491C316.244,-324.144 346.77,-351.856 368.626,-371.697"/>
<polygon fill="black" stroke="black" points="366.492,-374.487 376.249,-378.617 371.197,-369.304 366.492,-374.487"/>
<text text-anchor="middle" x="302.901" y="-321.738" font-family="Times New Roman,serif" font-size="16.00">use</text>
</g>
<!-- g/b#1 -->
<g id="node14" class="node"><title>g/b#1</title>
<g id="a_node14"><a xlink:href="g/b#1" xlink:title="b#1">
<ellipse fill="#fafafa" stroke="#999999" cx="623" cy="-396.64" rx="33.8824" ry="21.4286"/>
<text text-anchor="middle" x="623" y="-391.64" font-family="Times New Roman,serif" font-size="20.00" fill="#999999">b#1</text>
</a>
</g>
</g>
<!-- g/assign4&#45;&gt;g/b#1 -->
<g id="edge33" class="edge"><title>g/assign4&#45;&gt;g/b#1</title>
<path fill="none" stroke="#800000" d="M303.668,-306.475C310.414,-310.46 317.817,-314.415 325,-317.426 412.253,-354.006 521.197,-377.376 580.203,-388.327"/>
<polygon fill="#800000" stroke="#800000" points="579.81,-391.813 590.276,-390.165 581.067,-384.927 579.81,-391.813"/>
<text text-anchor="middle" x="460" y="-341.426" font-family="Times New Roman,serif" font-size="20.00" fill="#800000">use</text>
</g>
<!-- g/a@1&#45;attrs -->
<g id="node6" class="node"><title>g/a@1&#45;attrs</title>
<polygon fill="none" stroke="gray" points="315.5,-122 234.5,-122 234.5,-64 321.5,-64 321.5,-116 315.5,-122"/>
<polyline fill="none" stroke="gray" points="315.5,-122 315.5,-116 "/>
<polyline fill="none" stroke="gray" points="321.5,-116 315.5,-116 "/>
<text text-anchor="start" x="245" y="-105.6" font-family="Times New Roman,serif" font-size="13.00">value:</text>
<text text-anchor="start" x="278" y="-105.6" font-family="Times New Roman,serif" font-size="13.00">3</text>
<text text-anchor="start" x="245" y="-89.6" font-family="Times New Roman,serif" font-size="13.00">type:</text>
<text text-anchor="start" x="278" y="-89.6" font-family="Times New Roman,serif" font-size="13.00">access</text>
<text text-anchor="start" x="245" y="-73.6" font-family="Times New Roman,serif" font-size="13.00">label:</text>
<text text-anchor="start" x="278" y="-73.6" font-family="Times New Roman,serif" font-size="13.00">a[1]</text>
</g>
<!-- g/a@1&#45;attrs&#45;&gt;g/a@1 -->
<g id="edge6" class="edge"><title>g/a@1&#45;attrs&#45;&gt;g/a@1</title>
<path fill="none" stroke="gray" stroke-dasharray="5,2" d="M278,-122.375C278,-134.285 278,-147.871 278,-158.774"/>
</g>
<!-- g/1&#45;attrs -->
<g id="node7" class="node"><title>g/1&#45;attrs</title>
<polygon fill="none" stroke="gray" points="94,-309.426 16,-309.426 16,-267.426 100,-267.426 100,-303.426 94,-309.426"/>
<polyline fill="none" stroke="gray" points="94,-309.426 94,-303.426 "/>
<polyline fill="none" stroke="gray" points="100,-303.426 94,-303.426 "/>
<text text-anchor="start" x="26" y="-293.026" font-family="Times New Roman,serif" font-size="13.00">value:</text>
<text text-anchor="start" x="59" y="-293.026" font-family="Times New Roman,serif" font-size="13.00">1</text>
<text text-anchor="start" x="26" y="-277.026" font-family="Times New Roman,serif" font-size="13.00">type:</text>
<text text-anchor="start" x="59" y="-277.026" font-family="Times New Roman,serif" font-size="13.00">literal</text>
</g>
<!-- g/1&#45;attrs&#45;&gt;g/1 -->
<g id="edge3" class="edge"><title>g/1&#45;attrs&#45;&gt;g/1</title>
<path fill="none" stroke="gray" stroke-dasharray="5,2" d="M68.4117,-309.905C78.2191,-329.196 92.7939,-357.863 102.346,-376.651"/>
</g>
<!-- g/3&#45;attrs -->
<g id="node8" class="node"><title>g/3&#45;attrs</title>
<polygon fill="none" stroke="gray" points="216,-309.426 138,-309.426 138,-267.426 222,-267.426 222,-303.426 216,-309.426"/>
<polyline fill="none" stroke="gray" points="216,-309.426 216,-303.426 "/>
<polyline fill="none" stroke="gray" points="222,-303.426 216,-303.426 "/>
<text text-anchor="start" x="148" y="-293.026" font-family="Times New Roman,serif" font-size="13.00">value:</text>
<text text-anchor="start" x="181" y="-293.026" font-family="Times New Roman,serif" font-size="13.00">3</text>
<text text-anchor="start" x="148" y="-277.026" font-family="Times New Roman,serif" font-size="13.00">type:</text>
<text text-anchor="start" x="181" y="-277.026" font-family="Times New Roman,serif" font-size="13.00">literal</text>
</g>
<!-- g/3&#45;attrs&#45;&gt;g/3 -->
<g id="edge2" class="edge"><title>g/3&#45;attrs&#45;&gt;g/3</title>
<path fill="none" stroke="gray" stroke-dasharray="5,2" d="M198.895,-309.905C217.473,-330.04 245.476,-360.389 262.701,-379.058"/>
</g>
<!-- g/a#1&#45;attrs -->
<g id="node9" class="node"><title>g/a#1&#45;attrs</title>
<polygon fill="none" stroke="gray" points="421.5,-317.426 334.5,-317.426 334.5,-259.426 427.5,-259.426 427.5,-311.426 421.5,-317.426"/>
<polyline fill="none" stroke="gray" points="421.5,-317.426 421.5,-311.426 "/>
<polyline fill="none" stroke="gray" points="427.5,-311.426 421.5,-311.426 "/>
<text text-anchor="start" x="345" y="-301.026" font-family="Times New Roman,serif" font-size="13.00">value:</text>
<text text-anchor="start" x="378" y="-301.026" font-family="Times New Roman,serif" font-size="13.00">[2, 6, 0]</text>
<text text-anchor="start" x="345" y="-285.026" font-family="Times New Roman,serif" font-size="13.00">type:</text>
<text text-anchor="start" x="378" y="-285.026" font-family="Times New Roman,serif" font-size="13.00">name</text>
<text text-anchor="start" x="345" y="-269.026" font-family="Times New Roman,serif" font-size="13.00">label:</text>
<text text-anchor="start" x="378" y="-269.026" font-family="Times New Roman,serif" font-size="13.00">a</text>
</g>
<!-- g/a#1&#45;attrs&#45;&gt;g/a#1 -->
<g id="edge1" class="edge"><title>g/a#1&#45;attrs&#45;&gt;g/a#1</title>
<path fill="none" stroke="gray" stroke-dasharray="5,2" d="M384.715,-317.611C387.113,-335.802 390.176,-359.039 392.333,-375.408"/>
</g>
<!-- g/assign4&#45;attrs -->
<g id="node10" class="node"><title>g/assign4&#45;attrs</title>
<polygon fill="none" stroke="gray" points="409,-198.213 335,-198.213 335,-162.213 415,-162.213 415,-192.213 409,-198.213"/>
<polyline fill="none" stroke="gray" points="409,-198.213 409,-192.213 "/>
<polyline fill="none" stroke="gray" points="415,-192.213 409,-192.213 "/>
<text text-anchor="start" x="345" y="-176.813" font-family="Times New Roman,serif" font-size="13.00">type:</text>
<text text-anchor="start" x="373" y="-176.813" font-family="Times New Roman,serif" font-size="13.00">assign</text>
</g>
<!-- g/assign4&#45;attrs&#45;&gt;g/assign4 -->
<g id="edge19" class="edge"><title>g/assign4&#45;attrs&#45;&gt;g/assign4</title>
<path fill="none" stroke="gray" stroke-dasharray="5,2" d="M359.415,-198.278C341.314,-218.099 311.631,-250.601 293.546,-270.404"/>
</g>
<!-- g/6&#45;&gt;g/2 -->
<!-- g/0&#45;&gt;g/6 -->
<!-- g/b#1&#45;&gt;g/2 -->
<g id="edge10" class="edge"><title>g/b#1&#45;&gt;g/2</title>
<path fill="none" stroke="#999999" d="M612.291,-417.02C602.666,-434.351 588.075,-460.404 575,-482.853 572.954,-486.366 570.78,-490.045 568.616,-493.674"/>
<polygon fill="#999999" stroke="#999999" points="565.482,-492.095 563.338,-502.471 571.485,-495.697 565.482,-492.095"/>
</g>
<!-- g/b#1&#45;&gt;g/6 -->
<g id="edge11" class="edge"><title>g/b#1&#45;&gt;g/6</title>
<path fill="none" stroke="#999999" d="M626.137,-418.021C629.177,-437.763 633.823,-467.95 637.303,-490.556"/>
<polygon fill="#999999" stroke="#999999" points="633.877,-491.303 638.858,-500.654 640.796,-490.238 633.877,-491.303"/>
</g>
<!-- g/b#1&#45;&gt;g/0 -->
<g id="edge12" class="edge"><title>g/b#1&#45;&gt;g/0</title>
<path fill="none" stroke="#999999" d="M638.85,-415.587C657.735,-436.971 689.376,-472.801 710.467,-496.683"/>
<polygon fill="#999999" stroke="#999999" points="707.938,-499.107 717.181,-504.286 713.185,-494.473 707.938,-499.107"/>
</g>
<!-- g/a#2 -->
<g id="node15" class="node"><title>g/a#2</title>
<g id="a_node15"><a xlink:href="g/a#2" xlink:title="a#2">
<ellipse fill="#ffe6e6" stroke="#800000" cx="537" cy="-180.213" rx="33.4697" ry="21.4286"/>
<text text-anchor="middle" x="537" y="-175.213" font-family="Times New Roman,serif" font-size="20.00" fill="#800000">a#2</text>
</a>
</g>
</g>
<!-- g/a#2&#45;&gt;g/a@1 -->
<g id="edge14" class="edge"><title>g/a#2&#45;&gt;g/a@1</title>
<path fill="none" stroke="#800000" d="M510.715,-166.845C471.726,-148.843 396.549,-121.173 335,-140.5 324.816,-143.698 314.862,-149.431 306.195,-155.564"/>
<polygon fill="#800000" stroke="#800000" points="303.87,-152.934 297.996,-161.751 308.087,-158.521 303.87,-152.934"/>
</g>
<!-- g/a#2&#45;&gt;g/3 -->
<g id="edge21" class="edge"><title>g/a#2&#45;&gt;g/3</title>
<path fill="none" stroke="#800000" d="M521.717,-199.149C508.626,-214.751 489.491,-238.138 474,-259.426 455.868,-284.345 459.062,-296.985 436,-317.426 416.215,-334.963 351.181,-364.449 310.978,-381.771"/>
<polygon fill="#800000" stroke="#800000" points="309.396,-378.641 301.58,-385.794 312.15,-385.076 309.396,-378.641"/>
<text text-anchor="middle" x="487.5" y="-283.426" font-family="Times New Roman,serif" font-size="20.00" fill="#800000">der</text>
</g>
<!-- g/a#2&#45;&gt;g/a#1 -->
<g id="edge20" class="edge"><title>g/a#2&#45;&gt;g/a#1</title>
<path fill="none" stroke="#800000" d="M535.557,-201.415C531.888,-237.697 519.078,-314.136 475,-357.426 463.669,-368.555 448.474,-376.921 434.372,-382.943"/>
<polygon fill="#800000" stroke="#800000" points="432.837,-379.788 424.845,-386.743 435.43,-386.29 432.837,-379.788"/>
<text text-anchor="middle" x="539.5" y="-283.426" font-family="Times New Roman,serif" font-size="20.00" fill="#800000">der</text>
</g>
<!-- g/a#2&#45;&gt;g/assign4 -->
<g id="edge23" class="edge"><title>g/a#2&#45;&gt;g/assign4</title>
<path fill="none" stroke="#800000" d="M507.324,-189.832C465.508,-202.492 387.383,-228.048 325,-259.426 321.473,-261.2 317.853,-263.136 314.262,-265.135"/>
<polygon fill="#800000" stroke="#800000" points="312.404,-262.166 305.468,-270.175 315.885,-268.239 312.404,-262.166"/>
<text text-anchor="middle" x="431.5" y="-225.426" font-family="Times New Roman,serif" font-size="20.00" fill="#800000">gen</text>
</g>
<!-- g/a#2&#45;&gt;g/2 -->
<g id="edge13" class="edge"><title>g/a#2&#45;&gt;g/2</title>
<path fill="none" stroke="#800000" d="M543.589,-201.202C548.383,-216.849 554.463,-239.263 557,-259.426 567.441,-342.402 560.281,-441.328 555.435,-490.364"/>
<polygon fill="#800000" stroke="#800000" points="551.923,-490.3 554.383,-500.605 558.886,-491.015 551.923,-490.3"/>
</g>
<!-- g/a#2&#45;&gt;g/6 -->
<!-- g/a#2&#45;&gt;g/0 -->
<g id="edge15" class="edge"><title>g/a#2&#45;&gt;g/0</title>
<path fill="none" stroke="#800000" d="M562.893,-193.713C587.32,-206.802 623.205,-229.605 644,-259.426 695.44,-333.192 718.751,-439.398 727.531,-490.849"/>
<polygon fill="#800000" stroke="#800000" points="724.118,-491.664 729.189,-500.966 731.026,-490.532 724.118,-491.664"/>
</g>
<!-- g/a#2&#45;attrs -->
<g id="node16" class="node"><title>g/a#2&#45;attrs</title>
<polygon fill="none" stroke="#800000" points="588.5,-122 501.5,-122 501.5,-64 594.5,-64 594.5,-116 588.5,-122"/>
<polyline fill="none" stroke="#800000" points="588.5,-122 588.5,-116 "/>
<polyline fill="none" stroke="#800000" points="594.5,-116 588.5,-116 "/>
<text text-anchor="start" x="512" y="-105.6" font-family="Times New Roman,serif" font-size="13.00" fill="#800000">value:</text>
<text text-anchor="start" x="545" y="-105.6" font-family="Times New Roman,serif" font-size="13.00" fill="#800000">[2, 3, 0]</text>
<text text-anchor="start" x="512" y="-89.6" font-family="Times New Roman,serif" font-size="13.00" fill="#800000">type:</text>
<text text-anchor="start" x="545" y="-89.6" font-family="Times New Roman,serif" font-size="13.00" fill="#800000">name</text>
<text text-anchor="start" x="512" y="-73.6" font-family="Times New Roman,serif" font-size="13.00" fill="#800000">label:</text>
<text text-anchor="start" x="545" y="-73.6" font-family="Times New Roman,serif" font-size="13.00" fill="#800000">a</text>
</g>
<!-- g/a#2&#45;attrs&#45;&gt;g/a#2 -->
<g id="edge4" class="edge"><title>g/a#2&#45;attrs&#45;&gt;g/a#2</title>
<path fill="none" stroke="#800000" stroke-dasharray="5,2" d="M544.337,-122.375C542.787,-134.382 541.017,-148.092 539.604,-159.039"/>
</g>
<!-- g/b#2 -->
<g id="node17" class="node"><title>g/b#2</title>
<g id="a_node17"><a xlink:href="g/b#2" xlink:title="b#2">
<ellipse fill="#ffe6e6" stroke="#800000" cx="666" cy="-180.213" rx="33.8824" ry="21.4286"/>
<text text-anchor="middle" x="666" y="-175.213" font-family="Times New Roman,serif" font-size="20.00" fill="#800000">b#2</text>
</a>
</g>
</g>
<!-- g/b#2&#45;&gt;g/a@1 -->
<g id="edge17" class="edge"><title>g/b#2&#45;&gt;g/a@1</title>
<path fill="none" stroke="#800000" d="M639.986,-166.172C621.156,-156.836 594.767,-145.421 570,-140.5 518.779,-130.324 384.824,-124.855 335,-140.5 324.816,-143.698 314.862,-149.431 306.195,-155.564"/>
<polygon fill="#800000" stroke="#800000" points="303.87,-152.934 297.996,-161.751 308.087,-158.521 303.87,-152.934"/>
</g>
<!-- g/b#2&#45;&gt;g/3 -->
<g id="edge25" class="edge"><title>g/b#2&#45;&gt;g/3</title>
<path fill="none" stroke="#800000" d="M654.371,-200.535C636.418,-229.079 599.547,-282.857 557,-317.426 526.456,-342.243 515.884,-346.767 478,-357.426 424.35,-372.521 407.392,-355.274 353,-367.426 338.611,-370.641 323.281,-376.03 310.256,-381.241"/>
<polygon fill="#800000" stroke="#800000" points="308.701,-378.097 300.798,-385.153 311.377,-384.565 308.701,-378.097"/>
<text text-anchor="middle" x="626.5" y="-283.426" font-family="Times New Roman,serif" font-size="20.00" fill="#800000">der</text>
</g>
<!-- g/b#2&#45;&gt;g/assign4 -->
<g id="edge34" class="edge"><title>g/b#2&#45;&gt;g/assign4</title>
<path fill="none" stroke="#800000" d="M636.76,-191.264C619.952,-196.898 598.389,-203.885 579,-209.426 522.203,-225.659 507.973,-230.091 450,-241.426 394.914,-252.197 377.913,-240.7 325,-259.426 320.428,-261.044 315.81,-263.131 311.346,-265.435"/>
<polygon fill="#800000" stroke="#800000" points="309.493,-262.461 302.464,-270.388 312.903,-268.574 309.493,-262.461"/>
<text text-anchor="middle" x="556.5" y="-225.426" font-family="Times New Roman,serif" font-size="20.00" fill="#800000">gen</text>
</g>
<!-- g/b#2&#45;&gt;g/2 -->
<g id="edge16" class="edge"><title>g/b#2&#45;&gt;g/2</title>
<path fill="none" stroke="#800000" d="M685.082,-197.992C691.972,-204.418 699.618,-211.994 706,-219.426 720.137,-235.891 727.476,-238.73 734,-259.426 741.75,-284.012 739.248,-292.189 734,-317.426 718.566,-391.646 720.069,-420.718 666,-473.853 659.899,-479.848 617.038,-496.74 585.66,-508.598"/>
<polygon fill="#800000" stroke="#800000" points="584.067,-505.457 575.937,-512.251 586.529,-512.01 584.067,-505.457"/>
</g>
<!-- g/b#2&#45;&gt;g/0 -->
<g id="edge18" class="edge"><title>g/b#2&#45;&gt;g/0</title>
<path fill="none" stroke="#800000" d="M699.797,-183.912C744.41,-188.258 819.274,-198.523 836,-219.426 911.083,-313.261 842.735,-383.584 775,-482.853 770.666,-489.205 765.048,-495.193 759.312,-500.461"/>
<polygon fill="#800000" stroke="#800000" points="756.82,-497.989 751.526,-507.166 761.388,-503.293 756.82,-497.989"/>
</g>
<!-- g/b#2&#45;&gt;g/b#1 -->
<g id="edge24" class="edge"><title>g/b#2&#45;&gt;g/b#1</title>
<path fill="none" stroke="#800000" d="M677.327,-200.273C691.743,-227.132 712.967,-277.318 697,-317.426 688.028,-339.963 669.138,-359.749 652.69,-373.782"/>
<polygon fill="#800000" stroke="#800000" points="650.381,-371.149 644.866,-380.195 654.818,-376.563 650.381,-371.149"/>
<text text-anchor="middle" x="716.5" y="-283.426" font-family="Times New Roman,serif" font-size="20.00" fill="#800000">der</text>
</g>
<!-- g/b#2&#45;attrs -->
<g id="node18" class="node"><title>g/b#2&#45;attrs</title>
<polygon fill="none" stroke="#800000" points="699.5,-122 612.5,-122 612.5,-64 705.5,-64 705.5,-116 699.5,-122"/>
<polyline fill="none" stroke="#800000" points="699.5,-122 699.5,-116 "/>
<polyline fill="none" stroke="#800000" points="705.5,-116 699.5,-116 "/>
<text text-anchor="start" x="623" y="-105.6" font-family="Times New Roman,serif" font-size="13.00" fill="#800000">value:</text>
<text text-anchor="start" x="656" y="-105.6" font-family="Times New Roman,serif" font-size="13.00" fill="#800000">[2, 3, 0]</text>
<text text-anchor="start" x="623" y="-89.6" font-family="Times New Roman,serif" font-size="13.00" fill="#800000">type:</text>
<text text-anchor="start" x="656" y="-89.6" font-family="Times New Roman,serif" font-size="13.00" fill="#800000">name</text>
<text text-anchor="start" x="623" y="-73.6" font-family="Times New Roman,serif" font-size="13.00" fill="#800000">label:</text>
<text text-anchor="start" x="656" y="-73.6" font-family="Times New Roman,serif" font-size="13.00" fill="#800000">b</text>
</g>
<!-- g/b#2&#45;attrs&#45;&gt;g/b#2 -->
<g id="edge5" class="edge"><title>g/b#2&#45;attrs&#45;&gt;g/b#2</title>
<path fill="none" stroke="#800000" stroke-dasharray="5,2" d="M661.331,-122.375C662.309,-134.285 663.425,-147.871 664.321,-158.774"/>
</g>
</g>
</svg>
