<?xml version="1.0" ?><!DOCTYPE svg  PUBLIC '-//W3C//DTD SVG 1.1//EN'  'http://www.w3.org/Graphics/SVG/1.1/DTD/svg11.dtd'><!-- Generated by graphviz version 2.38.0 (20140413.2041)

 --><!-- Title: PROV Pages: 1 --><svg height="615pt" viewBox="0.00 0.00 877.22 615.28" width="877pt" xmlns="http://www.w3.org/2000/svg" xmlns:xlink="http://www.w3.org/1999/xlink">

<g class="graph" id="graph0" transform="scale(1 1) rotate(0) translate(4 611.279)">

<title>PROV</title>

<polygon fill="white" points="-4,4 -4,-611.279 873.216,-611.279 873.216,4 -4,4" stroke="none"/>

<g class="cluster" id="clust2"><title>cluster_1</title>

<polygon fill="none" points="517,-367.426 517,-599.279 767,-599.279 767,-367.426 517,-367.426" stroke="#333333"/>

<text fill="white" font-family="Times New Roman,serif" font-size="36.00" text-anchor="middle" x="691" y="-566.479">Members</text>

</g>

<g class="cluster" id="clust1"><title>cluster_0</title>

<polygon fill="none" points="8,-56 8,-473.853 436,-473.853 436,-56 8,-56" stroke="#333333"/>

<text fill="white" font-family="Times New Roman,serif" font-size="36.00" text-anchor="middle" x="343.5" y="-441.053">Assignment</text>

</g>



<!-- g/a@1 -->

<g class="node" id="node1"><title>g/a@1</title>

<g id="a_node1"><a xlink:href="g/a@1" xlink:title="a@1">

<ellipse cx="278" cy="-180.213" fill="#fffc87" rx="38.7821" ry="21.4286" stroke="#808080"/>

<text font-family="Times New Roman,serif" font-size="20.00" text-anchor="middle" x="278" y="-175.213">a@1</text>

</a>

</g>

</g>

<!-- g/3 -->

<g class="node" id="node3"><title>g/3</title>

<g id="a_node3"><a xlink:href="g/3" xlink:title="3">

<ellipse cx="278" cy="-396.64" fill="#fffc87" rx="27" ry="21.4286" stroke="#808080"/>

<text font-family="Times New Roman,serif" font-size="20.00" text-anchor="middle" x="278" y="-391.64">3</text>

</a>

</g>

</g>

<!-- g/a@1&#45;&gt;g/3 -->

<g class="edge" id="edge26"><title>g/a@1-&gt;g/3</title>

<path d="M242.057,-188.811C206.32,-198.488 153.408,-219.047 129,-259.426 115.665,-281.487 115.665,-295.366 129,-317.426 153.347,-357.705 206.056,-378.262 241.79,-387.969" fill="none" stroke="black"/>

<polygon fill="black" points="241.277,-391.45 251.832,-390.535 243.01,-384.668 241.277,-391.45" stroke="black"/>

<text font-family="Times New Roman,serif" font-size="16.00" text-anchor="middle" x="239.662" y="-194.72">der</text>

</g>

<!-- g/assign4 -->

<g class="node" id="node5"><title>g/assign4</title>

<g id="a_node5"><a xlink:href="g/assign4" xlink:title="assign4">

<polygon fill="#9fb1fc" points="316,-306.426 240,-306.426 240,-270.426 316,-270.426 316,-306.426" stroke="#0000ff"/>

<text font-family="Times New Roman,serif" font-size="20.00" text-anchor="middle" x="278" y="-283.426">assign4</text>

</a>

</g>

</g>

<!-- g/a@1&#45;&gt;g/assign4 -->

<g class="edge" id="edge35"><title>g/a@1-&gt;g/assign4</title>

<path d="M278,-201.692C278,-218.321 278,-241.919 278,-260.149" fill="none" stroke="black"/>

<polygon fill="black" points="274.5,-260.169 278,-270.169 281.5,-260.169 274.5,-260.169" stroke="black"/>

<text font-family="Times New Roman,serif" font-size="16.00" text-anchor="middle" x="286.66" y="-202.892">gen</text>

</g>

<!-- g/1 -->

<g class="node" id="node2"><title>g/1</title>

<g id="a_node2"><a xlink:href="g/1" xlink:title="1">

<ellipse cx="112" cy="-396.64" fill="#fffc87" rx="27" ry="21.4286" stroke="#808080"/>

<text font-family="Times New Roman,serif" font-size="20.00" text-anchor="middle" x="112" y="-391.64">1</text>

</a>

</g>

</g>

<!-- g/2 -->

<g class="node" id="node11"><title>g/2</title>

<g id="a_node11"><a xlink:href="g/2" xlink:title="2">

<ellipse cx="552" cy="-522.066" fill="#fafafa" rx="27" ry="21.4286" stroke="#999999"/>

<text fill="#999999" font-family="Times New Roman,serif" font-size="20.00" text-anchor="middle" x="552" y="-517.066">2</text>

</a>

</g>

</g>

<!-- g/1&#45;&gt;g/2 -->

<!-- g/a#1 -->

<g class="node" id="node4"><title>g/a#1</title>

<g id="a_node4"><a xlink:href="g/a#1" xlink:title="a#1">

<ellipse cx="395" cy="-396.64" fill="#fffc87" rx="33.4697" ry="21.4286" stroke="#808080"/>

<text font-family="Times New Roman,serif" font-size="20.00" text-anchor="middle" x="395" y="-391.64">a#1</text>

</a>

</g>

</g>

<!-- g/a#1&#45;&gt;g/2 -->

<g class="edge" id="edge7"><title>g/a#1-&gt;g/2</title>

<path d="M406.602,-416.826C418.861,-435.744 439.752,-464.423 464,-482.853 479.851,-494.901 500.087,-504.029 517.156,-510.338" fill="none" stroke="#999999"/>

<polygon fill="#999999" points="516.188,-513.708 526.783,-513.727 518.513,-507.105 516.188,-513.708" stroke="#999999"/>

</g>

<!-- g/6 -->

<g class="node" id="node12"><title>g/6</title>

<g id="a_node12"><a xlink:href="g/6" xlink:title="6">

<ellipse cx="642" cy="-522.066" fill="#fafafa" rx="27" ry="21.4286" stroke="#999999"/>

<text fill="#999999" font-family="Times New Roman,serif" font-size="20.00" text-anchor="middle" x="642" y="-517.066">6</text>

</a>

</g>

</g>

<!-- g/a#1&#45;&gt;g/6 -->

<g class="edge" id="edge8"><title>g/a#1-&gt;g/6</title>

<path d="M415.877,-413.221C438.808,-429.825 477.153,-456.114 513,-473.853 544.753,-489.565 554.743,-488.643 588,-500.853 594.629,-503.287 601.706,-505.914 608.479,-508.444" fill="none" stroke="#999999"/>

<polygon fill="#999999" points="607.507,-511.817 618.099,-512.046 609.962,-505.261 607.507,-511.817" stroke="#999999"/>

</g>

<!-- g/0 -->

<g class="node" id="node13"><title>g/0</title>

<g id="a_node13"><a xlink:href="g/0" xlink:title="0">

<ellipse cx="732" cy="-522.066" fill="#fafafa" rx="27" ry="21.4286" stroke="#999999"/>

<text fill="#999999" font-family="Times New Roman,serif" font-size="20.00" text-anchor="middle" x="732" y="-517.066">0</text>

</a>

</g>

</g>

<!-- g/a#1&#45;&gt;g/0 -->

<g class="edge" id="edge9"><title>g/a#1-&gt;g/0</title>

<path d="M414.492,-413.878C436.824,-431.572 475.225,-459.295 513,-473.853 530.335,-480.533 660.048,-496.074 678,-500.853 684.889,-502.687 692.125,-505.065 698.98,-507.542" fill="none" stroke="#999999"/>

<polygon fill="#999999" points="698.077,-510.942 708.669,-511.191 700.544,-504.391 698.077,-510.942" stroke="#999999"/>

</g>

<!-- g/assign4&#45;&gt;g/1 -->

<g class="edge" id="edge27"><title>g/assign4-&gt;g/1</title>

<path d="M251.329,-306.491C221.133,-325.812 172.103,-357.183 140.983,-377.095" fill="none" stroke="black"/>

<polygon fill="black" points="138.863,-374.296 132.326,-382.634 142.636,-380.193 138.863,-374.296" stroke="black"/>

<text font-family="Times New Roman,serif" font-size="16.00" text-anchor="middle" x="251.785" y="-312.681">use</text>

</g>

<!-- g/assign4&#45;&gt;g/3 -->

<g class="edge" id="edge32"><title>g/assign4-&gt;g/3</title>

<path d="M278,-306.491C278,-322.324 278,-346.25 278,-365.33" fill="none" stroke="black"/>

<polygon fill="black" points="274.5,-365.349 278,-375.349 281.5,-365.349 274.5,-365.349" stroke="black"/>

<text font-family="Times New Roman,serif" font-size="16.00" text-anchor="middle" x="286.66" y="-307.691">use</text>

</g>

<!-- g/assign4&#45;&gt;g/a#1 -->

<g class="edge" id="edge22"><title>g/assign4-&gt;g/a#1</title>

<path d="M296.798,-306.491C316.244,-324.144 346.77,-351.856 368.626,-371.697" fill="none" stroke="black"/>

<polygon fill="black" points="366.492,-374.487 376.249,-378.617 371.197,-369.304 366.492,-374.487" stroke="black"/>

<text font-family="Times New Roman,serif" font-size="16.00" text-anchor="middle" x="302.901" y="-321.738">use</text>

</g>

<!-- g/b#1 -->

<g class="node" id="node14"><title>g/b#1</title>

<g id="a_node14"><a xlink:href="g/b#1" xlink:title="b#1">

<ellipse cx="623" cy="-396.64" fill="#fafafa" rx="33.8824" ry="21.4286" stroke="#999999"/>

<text fill="#999999" font-family="Times New Roman,serif" font-size="20.00" text-anchor="middle" x="623" y="-391.64">b#1</text>

</a>

</g>

</g>

<!-- g/assign4&#45;&gt;g/b#1 -->



<!-- g/a@1&#45;attrs -->

<g class="node" id="node6"><title>g/a@1-attrs</title>

<polygon fill="none" points="315.5,-122 234.5,-122 234.5,-64 321.5,-64 321.5,-116 315.5,-122" stroke="gray"/>

<polyline fill="none" points="315.5,-122 315.5,-116 " stroke="gray"/>

<polyline fill="none" points="321.5,-116 315.5,-116 " stroke="gray"/>

<text font-family="Times New Roman,serif" font-size="13.00" text-anchor="start" x="245" y="-105.6">value:</text>

<text font-family="Times New Roman,serif" font-size="13.00" text-anchor="start" x="278" y="-105.6">3</text>

<text font-family="Times New Roman,serif" font-size="13.00" text-anchor="start" x="245" y="-89.6">type:</text>

<text font-family="Times New Roman,serif" font-size="13.00" text-anchor="start" x="278" y="-89.6">access</text>

<text font-family="Times New Roman,serif" font-size="13.00" text-anchor="start" x="245" y="-73.6">label:</text>

<text font-family="Times New Roman,serif" font-size="13.00" text-anchor="start" x="278" y="-73.6">a[1]</text>

</g>

<!-- g/a@1&#45;attrs&#45;&gt;g/a@1 -->

<g class="edge" id="edge6"><title>g/a@1-attrs-&gt;g/a@1</title>

<path d="M278,-122.375C278,-134.285 278,-147.871 278,-158.774" fill="none" stroke="gray" stroke-dasharray="5,2"/>

</g>

<!-- g/1&#45;attrs -->

<g class="node" id="node7"><title>g/1-attrs</title>

<polygon fill="none" points="94,-309.426 16,-309.426 16,-267.426 100,-267.426 100,-303.426 94,-309.426" stroke="gray"/>

<polyline fill="none" points="94,-309.426 94,-303.426 " stroke="gray"/>

<polyline fill="none" points="100,-303.426 94,-303.426 " stroke="gray"/>

<text font-family="Times New Roman,serif" font-size="13.00" text-anchor="start" x="26" y="-293.026">value:</text>

<text font-family="Times New Roman,serif" font-size="13.00" text-anchor="start" x="59" y="-293.026">1</text>

<text font-family="Times New Roman,serif" font-size="13.00" text-anchor="start" x="26" y="-277.026">type:</text>

<text font-family="Times New Roman,serif" font-size="13.00" text-anchor="start" x="59" y="-277.026">literal</text>

</g>

<!-- g/1&#45;attrs&#45;&gt;g/1 -->

<g class="edge" id="edge3"><title>g/1-attrs-&gt;g/1</title>

<path d="M68.4117,-309.905C78.2191,-329.196 92.7939,-357.863 102.346,-376.651" fill="none" stroke="gray" stroke-dasharray="5,2"/>

</g>

<!-- g/3&#45;attrs -->

<g class="node" id="node8"><title>g/3-attrs</title>

<polygon fill="none" points="216,-309.426 138,-309.426 138,-267.426 222,-267.426 222,-303.426 216,-309.426" stroke="gray"/>

<polyline fill="none" points="216,-309.426 216,-303.426 " stroke="gray"/>

<polyline fill="none" points="222,-303.426 216,-303.426 " stroke="gray"/>

<text font-family="Times New Roman,serif" font-size="13.00" text-anchor="start" x="148" y="-293.026">value:</text>

<text font-family="Times New Roman,serif" font-size="13.00" text-anchor="start" x="181" y="-293.026">3</text>

<text font-family="Times New Roman,serif" font-size="13.00" text-anchor="start" x="148" y="-277.026">type:</text>

<text font-family="Times New Roman,serif" font-size="13.00" text-anchor="start" x="181" y="-277.026">literal</text>

</g>

<!-- g/3&#45;attrs&#45;&gt;g/3 -->

<g class="edge" id="edge2"><title>g/3-attrs-&gt;g/3</title>

<path d="M198.895,-309.905C217.473,-330.04 245.476,-360.389 262.701,-379.058" fill="none" stroke="gray" stroke-dasharray="5,2"/>

</g>

<!-- g/a#1&#45;attrs -->

<g class="node" id="node9"><title>g/a#1-attrs</title>

<polygon fill="none" points="421.5,-317.426 334.5,-317.426 334.5,-259.426 427.5,-259.426 427.5,-311.426 421.5,-317.426" stroke="gray"/>

<polyline fill="none" points="421.5,-317.426 421.5,-311.426 " stroke="gray"/>

<polyline fill="none" points="427.5,-311.426 421.5,-311.426 " stroke="gray"/>

<text font-family="Times New Roman,serif" font-size="13.00" text-anchor="start" x="345" y="-301.026">value:</text>

<text font-family="Times New Roman,serif" font-size="13.00" text-anchor="start" x="378" y="-301.026">[2, 6, 0]</text>

<text font-family="Times New Roman,serif" font-size="13.00" text-anchor="start" x="345" y="-285.026">type:</text>

<text font-family="Times New Roman,serif" font-size="13.00" text-anchor="start" x="378" y="-285.026">name</text>

<text font-family="Times New Roman,serif" font-size="13.00" text-anchor="start" x="345" y="-269.026">label:</text>

<text font-family="Times New Roman,serif" font-size="13.00" text-anchor="start" x="378" y="-269.026">a</text>

</g>

<!-- g/a#1&#45;attrs&#45;&gt;g/a#1 -->

<g class="edge" id="edge1"><title>g/a#1-attrs-&gt;g/a#1</title>

<path d="M384.715,-317.611C387.113,-335.802 390.176,-359.039 392.333,-375.408" fill="none" stroke="gray" stroke-dasharray="5,2"/>

</g>

<!-- g/assign4&#45;attrs -->

<g class="node" id="node10"><title>g/assign4-attrs</title>

<polygon fill="none" points="409,-198.213 335,-198.213 335,-162.213 415,-162.213 415,-192.213 409,-198.213" stroke="gray"/>

<polyline fill="none" points="409,-198.213 409,-192.213 " stroke="gray"/>

<polyline fill="none" points="415,-192.213 409,-192.213 " stroke="gray"/>

<text font-family="Times New Roman,serif" font-size="13.00" text-anchor="start" x="345" y="-176.813">type:</text>

<text font-family="Times New Roman,serif" font-size="13.00" text-anchor="start" x="373" y="-176.813">assign</text>

</g>

<!-- g/assign4&#45;attrs&#45;&gt;g/assign4 -->

<g class="edge" id="edge19"><title>g/assign4-attrs-&gt;g/assign4</title>

<path d="M359.415,-198.278C341.314,-218.099 311.631,-250.601 293.546,-270.404" fill="none" stroke="gray" stroke-dasharray="5,2"/>

</g>

<!-- g/6&#45;&gt;g/2 -->

<!-- g/0&#45;&gt;g/6 -->

<!-- g/b#1&#45;&gt;g/2 -->

<g class="edge" id="edge10"><title>g/b#1-&gt;g/2</title>

<path d="M612.291,-417.02C602.666,-434.351 588.075,-460.404 575,-482.853 572.954,-486.366 570.78,-490.045 568.616,-493.674" fill="none" stroke="#999999"/>

<polygon fill="#999999" points="565.482,-492.095 563.338,-502.471 571.485,-495.697 565.482,-492.095" stroke="#999999"/>

</g>

<!-- g/b#1&#45;&gt;g/6 -->

<g class="edge" id="edge11"><title>g/b#1-&gt;g/6</title>

<path d="M626.137,-418.021C629.177,-437.763 633.823,-467.95 637.303,-490.556" fill="none" stroke="#999999"/>

<polygon fill="#999999" points="633.877,-491.303 638.858,-500.654 640.796,-490.238 633.877,-491.303" stroke="#999999"/>

</g>

<!-- g/b#1&#45;&gt;g/0 -->

<g class="edge" id="edge12"><title>g/b#1-&gt;g/0</title>

<path d="M638.85,-415.587C657.735,-436.971 689.376,-472.801 710.467,-496.683" fill="none" stroke="#999999"/>

<polygon fill="#999999" points="707.938,-499.107 717.181,-504.286 713.185,-494.473 707.938,-499.107" stroke="#999999"/>

</g>

<!-- g/a#2 -->



<!-- g/a#2&#45;&gt;g/a@1 -->



<!-- g/a#2&#45;&gt;g/3 -->



<!-- g/a#2&#45;&gt;g/a#1 -->



<!-- g/a#2&#45;&gt;g/assign4 -->



<!-- g/a#2&#45;&gt;g/2 -->



<!-- g/a#2&#45;&gt;g/6 -->

<!-- g/a#2&#45;&gt;g/0 -->



<!-- g/a#2&#45;attrs -->



<!-- g/a#2&#45;attrs&#45;&gt;g/a#2 -->



<!-- g/b#2 -->



<!-- g/b#2&#45;&gt;g/a@1 -->



<!-- g/b#2&#45;&gt;g/3 -->



<!-- g/b#2&#45;&gt;g/assign4 -->



<!-- g/b#2&#45;&gt;g/2 -->



<!-- g/b#2&#45;&gt;g/0 -->



<!-- g/b#2&#45;&gt;g/b#1 -->



<!-- g/b#2&#45;attrs -->



<!-- g/b#2&#45;attrs&#45;&gt;g/b#2 -->



</g>

</svg>