<?xml version="1.0" encoding="UTF-8" standalone="no"?>
<!DOCTYPE svg PUBLIC "-//W3C//DTD SVG 1.1//EN"
 "http://www.w3.org/Graphics/SVG/1.1/DTD/svg11.dtd">
<!-- Generated by graphviz version 2.38.0 (20140413.2041)
 -->
<!-- Title: PROV Pages: 1 -->
<svg width="310pt" height="604pt"
 viewBox="0.00 0.00 310.00 604.28" xmlns="http://www.w3.org/2000/svg" xmlns:xlink="http://www.w3.org/1999/xlink">
<g id="graph0" class="graph" transform="scale(1 1) rotate(0) translate(4 600.279)">
<title>PROV</title>
<polygon fill="white" stroke="none" points="-4,4 -4,-600.279 306,-600.279 306,4 -4,4"/>
<g id="clust2" class="cluster"><title>cluster_1</title>
<polygon fill="none" stroke="#333333" points="67,-495.853 67,-588.279 281,-588.279 281,-495.853 67,-495.853"/>
<text text-anchor="middle" x="229" y="-565.079" font-family="Times New Roman,serif" font-size="24.00" fill="white">Members</text>
</g>
<g id="clust1" class="cluster"><title>cluster_0</title>
<polygon fill="none" stroke="#333333" points="8,-8 8,-437.853 211,-437.853 211,-8 8,-8"/>
<text text-anchor="middle" x="171.5" y="-414.653" font-family="Times New Roman,serif" font-size="24.00" fill="white">Assign</text>
</g>
<!-- g/list -->
<g id="node1" class="node"><title>g/list</title>
<g id="a_node1"><a xlink:href="g/list" xlink:title="list">
<ellipse fill="#fffc87" stroke="#808080" cx="174" cy="-374.64" rx="28.9828" ry="21.4286"/>
<text text-anchor="middle" x="174" y="-369.64" font-family="Times New Roman,serif" font-size="20.00">list</text>
</a>
</g>
</g>
<!-- g/2 -->
<g id="node7" class="node"><title>g/2</title>
<g id="a_node7"><a xlink:href="g/2" xlink:title="2">
<ellipse fill="#fafafa" stroke="#999999" cx="102" cy="-525.066" rx="27" ry="21.4286"/>
<text text-anchor="middle" x="102" y="-520.066" font-family="Times New Roman,serif" font-size="20.00" fill="#999999">2</text>
</a>
</g>
</g>
<!-- g/list&#45;&gt;g/2 -->
<g id="edge2" class="edge"><title>g/list&#45;&gt;g/2</title>
<path fill="none" stroke="black" d="M158.508,-392.674C140.616,-412.422 113.434,-442.686 112,-445.853 105.319,-460.603 102.678,-478.421 101.768,-493.323"/>
<polygon fill="black" stroke="black" points="98.2613,-493.447 101.38,-503.572 105.256,-493.712 98.2613,-493.447"/>
<text text-anchor="start" x="112" y="-470.853" font-family="Times New Roman,serif" font-size="20.00">put</text>
<text text-anchor="start" x="140" y="-470.853" font-family="Times New Roman,serif" font-size="20.00" fill="#800000"> [0]</text>
<text text-anchor="start" x="113" y="-450.853" font-family="Times New Roman,serif" font-size="20.00" fill="#800000">ckpt: 0</text>
</g>
<!-- g/6 -->
<g id="node8" class="node"><title>g/6</title>
<g id="a_node8"><a xlink:href="g/6" xlink:title="6">
<ellipse fill="#fafafa" stroke="#999999" cx="174" cy="-525.066" rx="27" ry="21.4286"/>
<text text-anchor="middle" x="174" y="-520.066" font-family="Times New Roman,serif" font-size="20.00" fill="#999999">6</text>
</a>
</g>
</g>
<!-- g/list&#45;&gt;g/6 -->
<g id="edge3" class="edge"><title>g/list&#45;&gt;g/6</title>
<path fill="none" stroke="black" d="M174,-395.966C174,-421.14 174,-464.26 174,-493.445"/>
<polygon fill="black" stroke="black" points="170.5,-493.508 174,-503.508 177.5,-493.508 170.5,-493.508"/>
<text text-anchor="start" x="174" y="-470.853" font-family="Times New Roman,serif" font-size="20.00">put</text>
<text text-anchor="start" x="202" y="-470.853" font-family="Times New Roman,serif" font-size="20.00" fill="#800000"> [1]</text>
<text text-anchor="start" x="175" y="-450.853" font-family="Times New Roman,serif" font-size="20.00" fill="#800000">ckpt: 0</text>
</g>
<!-- g/0 -->
<g id="node9" class="node"><title>g/0</title>
<g id="a_node9"><a xlink:href="g/0" xlink:title="0">
<ellipse fill="#fafafa" stroke="#999999" cx="246" cy="-525.066" rx="27" ry="21.4286"/>
<text text-anchor="middle" x="246" y="-520.066" font-family="Times New Roman,serif" font-size="20.00" fill="#999999">0</text>
</a>
</g>
</g>
<!-- g/list&#45;&gt;g/0 -->
<g id="edge4" class="edge"><title>g/list&#45;&gt;g/0</title>
<path fill="none" stroke="black" d="M191.93,-391.695C205.45,-404.872 223.272,-424.74 233,-445.853 239.814,-460.641 243.106,-478.462 244.677,-493.355"/>
<polygon fill="black" stroke="black" points="241.213,-493.928 245.542,-503.598 248.188,-493.339 241.213,-493.928"/>
<text text-anchor="start" x="244" y="-470.853" font-family="Times New Roman,serif" font-size="20.00">put</text>
<text text-anchor="start" x="272" y="-470.853" font-family="Times New Roman,serif" font-size="20.00" fill="#800000"> [2]</text>
<text text-anchor="start" x="245" y="-450.853" font-family="Times New Roman,serif" font-size="20.00" fill="#800000">ckpt: 0</text>
</g>
<!-- g/a -->
<g id="node2" class="node"><title>g/a</title>
<g id="a_node2"><a xlink:href="g/a" xlink:title="a">
<ellipse fill="#fffc87" stroke="#808080" cx="146" cy="-132.213" rx="27" ry="21.4286"/>
<text text-anchor="middle" x="146" y="-127.213" font-family="Times New Roman,serif" font-size="20.00">a</text>
</a>
</g>
</g>
<!-- g/a&#45;&gt;g/list -->
<g id="edge7" class="edge"><title>g/a&#45;&gt;g/list</title>
<path fill="none" stroke="black" d="M148.387,-153.712C153.316,-196.03 164.638,-293.254 170.436,-343.04"/>
<polygon fill="black" stroke="black" points="166.985,-343.665 171.619,-353.193 173.938,-342.855 166.985,-343.665"/>
<text text-anchor="start" x="163.5" y="-258.426" font-family="Times New Roman,serif" font-size="20.00">der</text>
<text text-anchor="start" x="190.5" y="-258.426" font-family="Times New Roman,serif" font-size="20.00" fill="#800000"> ref</text>
<text text-anchor="start" x="163" y="-238.426" font-family="Times New Roman,serif" font-size="20.00" fill="#800000">ckpt: 1</text>
</g>
<!-- g/assign2 -->
<g id="node3" class="node"><title>g/assign2</title>
<g id="a_node3"><a xlink:href="g/assign2" xlink:title="assign2">
<polygon fill="#9fb1fc" stroke="#0000ff" points="111,-271.426 35,-271.426 35,-235.426 111,-235.426 111,-271.426"/>
<text text-anchor="middle" x="73" y="-248.426" font-family="Times New Roman,serif" font-size="20.00">assign2</text>
</a>
</g>
</g>
<!-- g/a&#45;&gt;g/assign2 -->
<g id="edge9" class="edge"><title>g/a&#45;&gt;g/assign2</title>
<path fill="none" stroke="black" d="M124.641,-145.645C108.438,-155.268 88.5265,-167.582 86,-171.426 75.6694,-187.146 72.5379,-208.204 71.927,-224.909"/>
<polygon fill="black" stroke="black" points="68.4251,-225.129 71.8392,-235.158 75.4248,-225.189 68.4251,-225.129"/>
<text text-anchor="start" x="99.5" y="-199.426" font-family="Times New Roman,serif" font-size="20.00">gen</text>
<text text-anchor="start" x="86" y="-177.426" font-family="Times New Roman,serif" font-size="20.00" fill="#800000">ckpt: 1</text>
</g>
<!-- g/assign2&#45;&gt;g/list -->
<g id="edge8" class="edge"><title>g/assign2&#45;&gt;g/list</title>
<path fill="none" stroke="black" d="M71.2641,-271.469C70.3863,-289.264 71.764,-317.088 86,-335.426 89.6195,-340.089 116.211,-351.304 139.225,-360.386"/>
<polygon fill="black" stroke="black" points="138.204,-363.744 148.792,-364.122 140.751,-357.224 138.204,-363.744"/>
<text text-anchor="start" x="101" y="-319.426" font-family="Times New Roman,serif" font-size="20.00">use</text>
<text text-anchor="start" x="87" y="-297.426" font-family="Times New Roman,serif" font-size="20.00" fill="#800000">ckpt: 0</text>
</g>
<!-- g/list&#45;attrs -->
<g id="node4" class="node"><title>g/list&#45;attrs</title>
<polygon fill="none" stroke="gray" points="103.5,-395.64 16.5,-395.64 16.5,-353.64 109.5,-353.64 109.5,-389.64 103.5,-395.64"/>
<polyline fill="none" stroke="gray" points="103.5,-395.64 103.5,-389.64 "/>
<polyline fill="none" stroke="gray" points="109.5,-389.64 103.5,-389.64 "/>
<text text-anchor="start" x="27" y="-379.24" font-family="Times New Roman,serif" font-size="13.00">value:</text>
<text text-anchor="start" x="60" y="-379.24" font-family="Times New Roman,serif" font-size="13.00">[2, 6, 0]</text>
<text text-anchor="start" x="27" y="-363.24" font-family="Times New Roman,serif" font-size="13.00">type:</text>
<text text-anchor="start" x="60" y="-363.24" font-family="Times New Roman,serif" font-size="13.00">list</text>
</g>
<!-- g/list&#45;attrs&#45;&gt;g/list -->
<g id="edge1" class="edge"><title>g/list&#45;attrs&#45;&gt;g/list</title>
<path fill="none" stroke="gray" stroke-dasharray="5,2" d="M109.828,-374.64C121.526,-374.64 133.224,-374.64 144.922,-374.64"/>
</g>
<!-- g/a&#45;attrs -->
<g id="node5" class="node"><title>g/a&#45;attrs</title>
<polygon fill="none" stroke="gray" points="186.5,-74 99.5,-74 99.5,-16 192.5,-16 192.5,-68 186.5,-74"/>
<polyline fill="none" stroke="gray" points="186.5,-74 186.5,-68 "/>
<polyline fill="none" stroke="gray" points="192.5,-68 186.5,-68 "/>
<text text-anchor="start" x="110" y="-57.6" font-family="Times New Roman,serif" font-size="13.00">value:</text>
<text text-anchor="start" x="143" y="-57.6" font-family="Times New Roman,serif" font-size="13.00">[2, 6, 0]</text>
<text text-anchor="start" x="110" y="-41.6" font-family="Times New Roman,serif" font-size="13.00">type:</text>
<text text-anchor="start" x="143" y="-41.6" font-family="Times New Roman,serif" font-size="13.00">name</text>
<text text-anchor="start" x="110" y="-25.6" font-family="Times New Roman,serif" font-size="13.00">label:</text>
<text text-anchor="start" x="143" y="-25.6" font-family="Times New Roman,serif" font-size="13.00">a</text>
</g>
<!-- g/a&#45;attrs&#45;&gt;g/a -->
<g id="edge5" class="edge"><title>g/a&#45;attrs&#45;&gt;g/a</title>
<path fill="none" stroke="gray" stroke-dasharray="5,2" d="M146,-74.3748C146,-86.2849 146,-99.8713 146,-110.774"/>
</g>
<!-- g/assign2&#45;attrs -->
<g id="node6" class="node"><title>g/assign2&#45;attrs</title>
<polygon fill="none" stroke="gray" points="95,-150.213 21,-150.213 21,-114.213 101,-114.213 101,-144.213 95,-150.213"/>
<polyline fill="none" stroke="gray" points="95,-150.213 95,-144.213 "/>
<polyline fill="none" stroke="gray" points="101,-144.213 95,-144.213 "/>
<text text-anchor="start" x="31" y="-128.813" font-family="Times New Roman,serif" font-size="13.00">type:</text>
<text text-anchor="start" x="59" y="-128.813" font-family="Times New Roman,serif" font-size="13.00">assign</text>
</g>
<!-- g/assign2&#45;attrs&#45;&gt;g/assign2 -->
<g id="edge6" class="edge"><title>g/assign2&#45;attrs&#45;&gt;g/assign2</title>
<path fill="none" stroke="gray" stroke-dasharray="5,2" d="M61.41,-150.276C61.9583,-166.944 63.2087,-193.006 66,-215.426 66.8077,-221.914 68.0525,-228.979 69.2696,-235.18"/>
</g>
</g>
</svg>
