<?xml version="1.0" encoding="UTF-8" standalone="no"?>
<!DOCTYPE svg PUBLIC "-//W3C//DTD SVG 1.1//EN"
 "http://www.w3.org/Graphics/SVG/1.1/DTD/svg11.dtd">
<!-- Generated by graphviz version 2.38.0 (20140413.2041)
 -->
<!-- Title: PROV Pages: 1 -->
<svg width="483pt" height="488pt"
 viewBox="0.00 0.00 483.00 487.85" xmlns="http://www.w3.org/2000/svg" xmlns:xlink="http://www.w3.org/1999/xlink">
<g id="graph0" class="graph" transform="scale(1 1) rotate(0) translate(4 483.853)">
<title>PROV</title>
<polygon fill="white" stroke="none" points="-4,4 -4,-483.853 479,-483.853 479,4 -4,4"/>
<g id="clust2" class="cluster"><title>cluster_1</title>
<polygon fill="none" stroke="#333333" points="363,-379.426 363,-471.853 467,-471.853 467,-379.426 363,-379.426"/>
<text text-anchor="middle" x="415" y="-448.653" font-family="Times New Roman,serif" font-size="24.00" fill="white">Members</text>
</g>
<g id="clust1" class="cluster"><title>cluster_0</title>
<polygon fill="none" stroke="#333333" points="8,-8 8,-471.853 355,-471.853 355,-8 8,-8"/>
<text text-anchor="middle" x="315.5" y="-448.653" font-family="Times New Roman,serif" font-size="24.00" fill="white">Assign</text>
</g>
<!-- g/a@1 -->
<g id="node1" class="node"><title>g/a@1</title>
<g id="a_node1"><a xlink:href="g/a@1" xlink:title="a@1">
<ellipse fill="#fffc87" stroke="#808080" cx="279" cy="-132.213" rx="38.7821" ry="21.4286"/>
<text text-anchor="middle" x="279" y="-127.213" font-family="Times New Roman,serif" font-size="20.00">a@1</text>
</a>
</g>
</g>
<!-- g/assign3 -->
<g id="node5" class="node"><title>g/assign3</title>
<g id="a_node5"><a xlink:href="g/assign3" xlink:title="assign3">
<polygon fill="#9fb1fc" stroke="#0000ff" points="214,-296.426 138,-296.426 138,-260.426 214,-260.426 214,-296.426"/>
<text text-anchor="middle" x="176" y="-273.426" font-family="Times New Roman,serif" font-size="20.00">assign3</text>
</a>
</g>
</g>
<!-- g/a@1&#45;&gt;g/assign3 -->
<g id="edge16" class="edge"><title>g/a@1&#45;&gt;g/assign3</title>
<path fill="none" stroke="black" d="M244.01,-141.553C227.377,-147.274 208.632,-156.597 197,-171.426 187.596,-183.415 181.671,-222.867 178.596,-250.103"/>
<polygon fill="black" stroke="black" points="175.099,-249.897 177.521,-260.211 182.059,-250.638 175.099,-249.897"/>
<text text-anchor="start" x="210.5" y="-207.426" font-family="Times New Roman,serif" font-size="20.00">gen</text>
<text text-anchor="start" x="197" y="-185.426" font-family="Times New Roman,serif" font-size="20.00" fill="#800000">ckpt: 3</text>
</g>
<!-- bn0 -->
<g id="node11" class="node"><title>bn0</title>
<ellipse fill="black" stroke="black" cx="234" cy="-278.426" rx="1.8" ry="1.8"/>
</g>
<!-- g/a@1&#45;&gt;bn0 -->
<g id="edge8" class="edge"><title>g/a@1&#45;&gt;bn0</title>
<path fill="none" stroke="black" d="M276.677,-153.444C273.84,-173.783 267.995,-205.722 257,-231.426 253.219,-240.266 249.45,-240.903 245,-249.426 239.779,-259.427 235.537,-272.485 234.339,-276.322"/>
<text text-anchor="start" x="279" y="-216.426" font-family="Times New Roman,serif" font-size="20.00">der</text>
<text text-anchor="start" x="306" y="-216.426" font-family="Times New Roman,serif" font-size="20.00" fill="#800000"> ref</text>
<text text-anchor="start" x="273" y="-196.426" font-family="Times New Roman,serif" font-size="20.00" fill="#800000">ac&#45;write</text>
<text text-anchor="start" x="278.5" y="-176.426" font-family="Times New Roman,serif" font-size="20.00" fill="#800000">ckpt: 3</text>
</g>
<!-- g/1 -->
<g id="node2" class="node"><title>g/1</title>
<g id="a_node2"><a xlink:href="g/1" xlink:title="1">
<ellipse fill="#fffc87" stroke="#808080" cx="181" cy="-408.64" rx="27" ry="21.4286"/>
<text text-anchor="middle" x="181" y="-403.64" font-family="Times New Roman,serif" font-size="20.00">1</text>
</a>
</g>
</g>
<!-- g/a -->
<g id="node4" class="node"><title>g/a</title>
<g id="a_node4"><a xlink:href="g/a" xlink:title="a">
<ellipse fill="#fffc87" stroke="#808080" cx="271" cy="-408.64" rx="27" ry="21.4286"/>
<text text-anchor="middle" x="271" y="-403.64" font-family="Times New Roman,serif" font-size="20.00">a</text>
</a>
</g>
</g>
<!-- g/1&#45;&gt;g/a -->
<!-- g/3 -->
<g id="node3" class="node"><title>g/3</title>
<g id="a_node3"><a xlink:href="g/3" xlink:title="3">
<ellipse fill="#fffc87" stroke="#808080" cx="91" cy="-408.64" rx="27" ry="21.4286"/>
<text text-anchor="middle" x="91" y="-403.64" font-family="Times New Roman,serif" font-size="20.00">3</text>
</a>
</g>
</g>
<!-- g/3&#45;&gt;g/1 -->
<!-- g/list -->
<g id="node12" class="node"><title>g/list</title>
<g id="a_node12"><a xlink:href="g/list" xlink:title="list">
<ellipse fill="#fafafa" stroke="#999999" cx="400" cy="-408.64" rx="28.9828" ry="21.4286"/>
<text text-anchor="middle" x="400" y="-403.64" font-family="Times New Roman,serif" font-size="20.00" fill="#999999">list</text>
</a>
</g>
</g>
<!-- g/a&#45;&gt;g/list -->
<g id="edge11" class="edge"><title>g/a&#45;&gt;g/list</title>
<path fill="none" stroke="#999999" d="M298.043,-408.64C316.162,-408.64 340.316,-408.64 360.567,-408.64"/>
<polygon fill="#999999" stroke="#999999" points="360.748,-412.14 370.748,-408.64 360.748,-405.14 360.748,-412.14"/>
<text text-anchor="middle" x="334.504" y="-389.64" font-family="Times New Roman,serif" font-size="20.00" fill="#999999">der ref</text>
<text text-anchor="middle" x="334.504" y="-367.64" font-family="Times New Roman,serif" font-size="20.00" fill="#999999">ckpt: 1</text>
</g>
<!-- g/assign3&#45;&gt;g/1 -->
<g id="edge12" class="edge"><title>g/assign3&#45;&gt;g/1</title>
<path fill="none" stroke="black" d="M187.45,-296.546C192.351,-304.882 197.512,-315.278 200,-325.426 204.657,-344.419 204.472,-350.389 200,-369.426 199.179,-372.922 197.988,-376.464 196.596,-379.91"/>
<polygon fill="black" stroke="black" points="193.3,-378.698 192.283,-389.244 199.654,-381.634 193.3,-378.698"/>
<text text-anchor="middle" x="197.45" y="-292.755" font-family="Times New Roman,serif" font-size="16.00">use</text>
</g>
<!-- g/assign3&#45;&gt;g/3 -->
<g id="edge15" class="edge"><title>g/assign3&#45;&gt;g/3</title>
<path fill="none" stroke="black" d="M161.792,-296.511C154.941,-305.011 146.764,-315.555 140,-325.426 127.909,-343.071 115.587,-363.76 106.324,-379.969"/>
<polygon fill="black" stroke="black" points="103.128,-378.511 101.249,-388.938 109.22,-381.959 103.128,-378.511"/>
<text text-anchor="start" x="154" y="-353.426" font-family="Times New Roman,serif" font-size="20.00">use</text>
<text text-anchor="start" x="140" y="-331.426" font-family="Times New Roman,serif" font-size="20.00" fill="#800000">ckpt: 3</text>
</g>
<!-- g/assign3&#45;&gt;g/a -->
<g id="edge7" class="edge"><title>g/assign3&#45;&gt;g/a</title>
<path fill="none" stroke="black" d="M189.694,-296.452C195.784,-304.767 202.565,-315.173 207,-325.426 214.961,-343.833 205.856,-352.754 217,-369.426 222.84,-378.163 231.404,-385.536 239.998,-391.404"/>
<polygon fill="black" stroke="black" points="238.177,-394.394 248.503,-396.766 241.91,-388.472 238.177,-394.394"/>
<text text-anchor="middle" x="191.725" y="-312.549" font-family="Times New Roman,serif" font-size="16.00">use</text>
</g>
<!-- g/a@1&#45;attrs -->
<g id="node6" class="node"><title>g/a@1&#45;attrs</title>
<polygon fill="none" stroke="gray" points="316.5,-74 235.5,-74 235.5,-16 322.5,-16 322.5,-68 316.5,-74"/>
<polyline fill="none" stroke="gray" points="316.5,-74 316.5,-68 "/>
<polyline fill="none" stroke="gray" points="322.5,-68 316.5,-68 "/>
<text text-anchor="start" x="246" y="-57.6" font-family="Times New Roman,serif" font-size="13.00">value:</text>
<text text-anchor="start" x="279" y="-57.6" font-family="Times New Roman,serif" font-size="13.00">3</text>
<text text-anchor="start" x="246" y="-41.6" font-family="Times New Roman,serif" font-size="13.00">type:</text>
<text text-anchor="start" x="279" y="-41.6" font-family="Times New Roman,serif" font-size="13.00">access</text>
<text text-anchor="start" x="246" y="-25.6" font-family="Times New Roman,serif" font-size="13.00">label:</text>
<text text-anchor="start" x="279" y="-25.6" font-family="Times New Roman,serif" font-size="13.00">a[1]</text>
</g>
<!-- g/a@1&#45;attrs&#45;&gt;g/a@1 -->
<g id="edge2" class="edge"><title>g/a@1&#45;attrs&#45;&gt;g/a@1</title>
<path fill="none" stroke="gray" stroke-dasharray="5,2" d="M279,-74.3748C279,-86.2849 279,-99.8713 279,-110.774"/>
</g>
<!-- g/1&#45;attrs -->
<g id="node7" class="node"><title>g/1&#45;attrs</title>
<polygon fill="none" stroke="gray" points="112,-66 34,-66 34,-24 118,-24 118,-60 112,-66"/>
<polyline fill="none" stroke="gray" points="112,-66 112,-60 "/>
<polyline fill="none" stroke="gray" points="118,-60 112,-60 "/>
<text text-anchor="start" x="44" y="-49.6" font-family="Times New Roman,serif" font-size="13.00">value:</text>
<text text-anchor="start" x="77" y="-49.6" font-family="Times New Roman,serif" font-size="13.00">1</text>
<text text-anchor="start" x="44" y="-33.6" font-family="Times New Roman,serif" font-size="13.00">type:</text>
<text text-anchor="start" x="77" y="-33.6" font-family="Times New Roman,serif" font-size="13.00">literal</text>
</g>
<!-- g/1&#45;attrs&#45;&gt;g/1 -->
<g id="edge5" class="edge"><title>g/1&#45;attrs&#45;&gt;g/1</title>
<path fill="none" stroke="gray" stroke-dasharray="5,2" d="M79.523,-66.174C85.8411,-102.674 99.3398,-182.137 109,-249.426 116.638,-302.629 95.8019,-323.669 124,-369.426 131.813,-382.105 145.586,-391.513 157.636,-397.821"/>
</g>
<!-- g/3&#45;attrs -->
<g id="node8" class="node"><title>g/3&#45;attrs</title>
<polygon fill="none" stroke="gray" points="94,-299.426 16,-299.426 16,-257.426 100,-257.426 100,-293.426 94,-299.426"/>
<polyline fill="none" stroke="gray" points="94,-299.426 94,-293.426 "/>
<polyline fill="none" stroke="gray" points="100,-293.426 94,-293.426 "/>
<text text-anchor="start" x="26" y="-283.026" font-family="Times New Roman,serif" font-size="13.00">value:</text>
<text text-anchor="start" x="59" y="-283.026" font-family="Times New Roman,serif" font-size="13.00">3</text>
<text text-anchor="start" x="26" y="-267.026" font-family="Times New Roman,serif" font-size="13.00">type:</text>
<text text-anchor="start" x="59" y="-267.026" font-family="Times New Roman,serif" font-size="13.00">literal</text>
</g>
<!-- g/3&#45;attrs&#45;&gt;g/3 -->
<g id="edge4" class="edge"><title>g/3&#45;attrs&#45;&gt;g/3</title>
<path fill="none" stroke="gray" stroke-dasharray="5,2" d="M63.1563,-299.46C69.3558,-323.547 79.6965,-363.723 85.88,-387.747"/>
</g>
<!-- g/a&#45;attrs -->
<g id="node9" class="node"><title>g/a&#45;attrs</title>
<polygon fill="none" stroke="gray" points="340.5,-307.426 253.5,-307.426 253.5,-249.426 346.5,-249.426 346.5,-301.426 340.5,-307.426"/>
<polyline fill="none" stroke="gray" points="340.5,-307.426 340.5,-301.426 "/>
<polyline fill="none" stroke="gray" points="346.5,-301.426 340.5,-301.426 "/>
<text text-anchor="start" x="264" y="-291.026" font-family="Times New Roman,serif" font-size="13.00">value:</text>
<text text-anchor="start" x="297" y="-291.026" font-family="Times New Roman,serif" font-size="13.00">[2, 6, 0]</text>
<text text-anchor="start" x="264" y="-275.026" font-family="Times New Roman,serif" font-size="13.00">type:</text>
<text text-anchor="start" x="297" y="-275.026" font-family="Times New Roman,serif" font-size="13.00">name</text>
<text text-anchor="start" x="264" y="-259.026" font-family="Times New Roman,serif" font-size="13.00">label:</text>
<text text-anchor="start" x="297" y="-259.026" font-family="Times New Roman,serif" font-size="13.00">a</text>
</g>
<!-- g/a&#45;attrs&#45;&gt;g/a -->
<g id="edge1" class="edge"><title>g/a&#45;attrs&#45;&gt;g/a</title>
<path fill="none" stroke="gray" stroke-dasharray="5,2" d="M293.636,-307.563C288.167,-331.742 280.415,-366.013 275.55,-387.523"/>
</g>
<!-- g/assign3&#45;attrs -->
<g id="node10" class="node"><title>g/assign3&#45;attrs</title>
<polygon fill="none" stroke="gray" points="210,-63 136,-63 136,-27 216,-27 216,-57 210,-63"/>
<polyline fill="none" stroke="gray" points="210,-63 210,-57 "/>
<polyline fill="none" stroke="gray" points="216,-57 210,-57 "/>
<text text-anchor="start" x="146" y="-41.6" font-family="Times New Roman,serif" font-size="13.00">type:</text>
<text text-anchor="start" x="174" y="-41.6" font-family="Times New Roman,serif" font-size="13.00">assign</text>
</g>
<!-- g/assign3&#45;attrs&#45;&gt;g/assign3 -->
<g id="edge6" class="edge"><title>g/assign3&#45;attrs&#45;&gt;g/assign3</title>
<path fill="none" stroke="gray" stroke-dasharray="5,2" d="M176,-63.0173C176,-105.815 176,-217.56 176,-260.384"/>
</g>
<!-- bn0&#45;&gt;g/3 -->
<g id="edge10" class="edge"><title>bn0&#45;&gt;g/3</title>
<path fill="none" stroke="black" d="M233.964,-280.526C233.627,-288.997 230.283,-344.192 200,-369.426 180.913,-385.332 168.499,-371.36 145,-379.426 136.892,-382.21 128.505,-386.058 120.829,-390.019"/>
<polygon fill="black" stroke="black" points="119.026,-387.015 111.885,-394.841 122.348,-393.176 119.026,-387.015"/>
<text text-anchor="middle" x="238.5" y="-342.426" font-family="Times New Roman,serif" font-size="20.00" fill="#800000">[1]</text>
</g>
<!-- bn0&#45;&gt;g/a -->
<g id="edge9" class="edge"><title>bn0&#45;&gt;g/a</title>
<path fill="none" stroke="#800000" stroke-dasharray="5,2" d="M234.26,-280.579C235.198,-284.57 238.692,-298.074 245,-307.426 251.504,-317.07 258.954,-314.946 264,-325.426 271.697,-341.414 273.584,-361.178 273.482,-377.32"/>
<polygon fill="#800000" stroke="#800000" points="269.983,-377.225 273.169,-387.329 276.98,-377.444 269.983,-377.225"/>
</g>
<!-- g/list&#45;&gt;g/a@1 -->
<g id="edge3" class="edge"><title>g/list&#45;&gt;g/a@1</title>
<path fill="none" stroke="black" d="M400.312,-387.096C399.961,-343.149 393.571,-238.557 344,-171.426 337.577,-162.728 328.532,-155.665 319.225,-150.086"/>
<polygon fill="black" stroke="black" points="320.75,-146.931 310.299,-145.189 317.382,-153.068 320.75,-146.931"/>
<text text-anchor="start" x="393" y="-283.426" font-family="Times New Roman,serif" font-size="20.00">put</text>
<text text-anchor="start" x="421" y="-283.426" font-family="Times New Roman,serif" font-size="20.00" fill="#800000"> [1]</text>
<text text-anchor="start" x="394" y="-263.426" font-family="Times New Roman,serif" font-size="20.00" fill="#800000">ckpt: 3</text>
</g>
</g>
</svg>
