<?xml version="1.0" encoding="UTF-8" standalone="no"?>
<!DOCTYPE svg PUBLIC "-//W3C//DTD SVG 1.1//EN"
 "http://www.w3.org/Graphics/SVG/1.1/DTD/svg11.dtd">
<!-- Generated by graphviz version 2.38.0 (20140413.2041)
 -->
<!-- Title: PROV Pages: 1 -->
<svg width="1152pt" height="572pt"
 viewBox="0.00 0.00 1152.00 571.52" xmlns="http://www.w3.org/2000/svg" xmlns:xlink="http://www.w3.org/1999/xlink">
<g id="graph0" class="graph" transform="scale(0.897209 0.897209) rotate(0) translate(4 633)">
<title>PROV</title>
<polygon fill="white" stroke="none" points="-4,4 -4,-633 1279.98,-633 1279.98,4 -4,4"/>
<!-- http://example.org/disti_ak#16 -->
<g id="node1" class="node"><title>http://example.org/disti_ak#16</title>
<g id="a_node1"><a xlink:href="http://example.org/disti_ak#16" xlink:title="disti_ak#16">
<ellipse fill="#fffc87" stroke="#808080" cx="501.74" cy="-422" rx="52.7911" ry="18"/>
<text text-anchor="middle" x="501.74" y="-418.3" font-family="Times New Roman,serif" font-size="14.00">disti_ak#16</text>
</a>
</g>
</g>
<!-- http://example.org/access78 -->
<g id="node3" class="node"><title>http://example.org/access78</title>
<g id="a_node3"><a xlink:href="http://example.org/access78" xlink:title="access78">
<polygon fill="#9fb1fc" stroke="#0000ff" points="541.74,-542 473.74,-542 473.74,-506 541.74,-506 541.74,-542"/>
<text text-anchor="middle" x="507.74" y="-520.3" font-family="Times New Roman,serif" font-size="14.00">access78</text>
</a>
</g>
</g>
<!-- http://example.org/disti_ak#16&#45;&gt;http://example.org/access78 -->
<g id="edge7" class="edge"><title>http://example.org/disti_ak#16&#45;&gt;http://example.org/access78</title>
<path fill="none" stroke="black" d="M502.785,-440.419C503.697,-455.618 505.036,-477.933 506.092,-495.536"/>
<polygon fill="black" stroke="black" points="502.614,-496.009 506.707,-505.781 509.601,-495.589 502.614,-496.009"/>
<text text-anchor="middle" x="516.201" y="-445.227" font-family="Times New Roman,serif" font-size="8.00">gen</text>
</g>
<!-- bn0 -->
<g id="node6" class="node"><title>bn0</title>
<ellipse fill="black" stroke="black" cx="329.74" cy="-524" rx="1.8" ry="1.8"/>
</g>
<!-- http://example.org/disti_ak#16&#45;&gt;bn0 -->
<g id="edge4" class="edge"><title>http://example.org/disti_ak#16&#45;&gt;bn0</title>
<path fill="none" stroke="darkgreen" d="M451.178,-427.415C408.788,-432.221 352.831,-441.522 337.74,-458 319.924,-477.453 327.829,-515.031 329.468,-521.906"/>
<text text-anchor="middle" x="419.24" y="-476.8" font-family="Times New Roman,serif" font-size="14.00">der ac&#45;r</text>
<text text-anchor="middle" x="419.24" y="-461.8" font-family="Times New Roman,serif" font-size="14.00">2018&#45;03&#45;05T15:32:48.870086</text>
</g>
<!-- &#45;attrs0 -->
<g id="node2" class="node"><title>&#45;attrs0</title>
<polygon fill="none" stroke="gray" points="583.74,-367 505.74,-367 505.74,-318 589.74,-318 589.74,-361 583.74,-367"/>
<polyline fill="none" stroke="gray" points="583.74,-367 583.74,-361 "/>
<polyline fill="none" stroke="gray" points="589.74,-361 583.74,-361 "/>
<text text-anchor="start" x="515.74" y="-352.5" font-family="Times New Roman,serif" font-size="10.00">value:</text>
<text text-anchor="start" x="542.74" y="-352.5" font-family="Times New Roman,serif" font-size="10.00">&quot;3&quot;</text>
<text text-anchor="start" x="515.74" y="-339.5" font-family="Times New Roman,serif" font-size="10.00">type:</text>
<text text-anchor="start" x="542.74" y="-339.5" font-family="Times New Roman,serif" font-size="10.00">&quot;access&quot;</text>
<text text-anchor="start" x="515.74" y="-326.5" font-family="Times New Roman,serif" font-size="10.00">label:</text>
<text text-anchor="start" x="542.74" y="-326.5" font-family="Times New Roman,serif" font-size="10.00">&quot;disti[k]&quot;</text>
</g>
<!-- &#45;attrs0&#45;&gt;http://example.org/disti_ak#16 -->
<g id="edge1" class="edge"><title>&#45;attrs0&#45;&gt;http://example.org/disti_ak#16</title>
<path fill="none" stroke="gray" stroke-dasharray="5,2" d="M533.688,-367.174C526.608,-379.104 518.186,-393.292 511.767,-404.106"/>
</g>
<!-- http://example.org/disti_aj#9 -->
<g id="node5" class="node"><title>http://example.org/disti_aj#9</title>
<ellipse fill="none" stroke="black" cx="113.74" cy="-611" rx="113.98" ry="18"/>
<text text-anchor="middle" x="113.74" y="-607.3" font-family="Times New Roman,serif" font-size="14.00">http://example.org/disti_aj#9</text>
</g>
<!-- http://example.org/access78&#45;&gt;http://example.org/disti_aj#9 -->
<g id="edge3" class="edge"><title>http://example.org/access78&#45;&gt;http://example.org/disti_aj#9</title>
<path fill="none" stroke="black" d="M473.68,-531.59C438.564,-538.446 382.249,-549.61 333.74,-560 283.817,-570.692 227.697,-583.459 184.634,-593.415"/>
<polygon fill="black" stroke="black" points="183.77,-590.023 174.817,-595.688 185.349,-596.842 183.77,-590.023"/>
<text text-anchor="middle" x="468.815" y="-543.879" font-family="Times New Roman,serif" font-size="8.00">use</text>
</g>
<!-- http://example.org/disti#6 -->
<g id="node7" class="node"><title>http://example.org/disti#6</title>
<ellipse fill="none" stroke="black" cx="347.74" cy="-611" rx="102.882" ry="18"/>
<text text-anchor="middle" x="347.74" y="-607.3" font-family="Times New Roman,serif" font-size="14.00">http://example.org/disti#6</text>
</g>
<!-- http://example.org/access78&#45;&gt;http://example.org/disti#6 -->
<g id="edge8" class="edge"><title>http://example.org/access78&#45;&gt;http://example.org/disti#6</title>
<path fill="none" stroke="black" d="M475.362,-542.201C449.929,-555.712 414.402,-574.586 387.288,-588.99"/>
<polygon fill="black" stroke="black" points="385.631,-585.907 378.442,-593.69 388.915,-592.089 385.631,-585.907"/>
<text text-anchor="middle" x="474.833" y="-555.292" font-family="Times New Roman,serif" font-size="8.00">use</text>
</g>
<!-- http://example.org/k#2 -->
<g id="node8" class="node"><title>http://example.org/k#2</title>
<ellipse fill="none" stroke="black" cx="560.74" cy="-611" rx="92.0841" ry="18"/>
<text text-anchor="middle" x="560.74" y="-607.3" font-family="Times New Roman,serif" font-size="14.00">http://example.org/k#2</text>
</g>
<!-- http://example.org/access78&#45;&gt;http://example.org/k#2 -->
<g id="edge9" class="edge"><title>http://example.org/access78&#45;&gt;http://example.org/k#2</title>
<path fill="none" stroke="black" d="M518.465,-542.201C526.058,-554.378 536.367,-570.911 544.904,-584.602"/>
<polygon fill="black" stroke="black" points="541.95,-586.481 550.211,-593.115 547.89,-582.777 541.95,-586.481"/>
<text text-anchor="middle" x="533.457" y="-539.792" font-family="Times New Roman,serif" font-size="8.00">use</text>
</g>
<!-- &#45;attrs1 -->
<g id="node4" class="node"><title>&#45;attrs1</title>
<polygon fill="none" stroke="gray" points="646.74,-440 572.74,-440 572.74,-404 652.74,-404 652.74,-434 646.74,-440"/>
<polyline fill="none" stroke="gray" points="646.74,-440 646.74,-434 "/>
<polyline fill="none" stroke="gray" points="652.74,-434 646.74,-434 "/>
<text text-anchor="start" x="582.74" y="-419" font-family="Times New Roman,serif" font-size="10.00">type:</text>
<text text-anchor="start" x="605.74" y="-419" font-family="Times New Roman,serif" font-size="10.00">&quot;access&quot;</text>
</g>
<!-- &#45;attrs1&#45;&gt;http://example.org/access78 -->
<g id="edge2" class="edge"><title>&#45;attrs1&#45;&gt;http://example.org/access78</title>
<path fill="none" stroke="gray" stroke-dasharray="5,2" d="M594.45,-440.419C575.178,-458.773 545.013,-487.502 525.82,-505.781"/>
</g>
<!-- bn0&#45;&gt;http://example.org/disti_aj#9 -->
<g id="edge6" class="edge"><title>bn0&#45;&gt;http://example.org/disti_aj#9</title>
<path fill="none" stroke="darkgreen" d="M328.361,-525.543C316.006,-530.405 223.443,-566.83 163.98,-590.23"/>
<polygon fill="darkgreen" stroke="darkgreen" points="162.4,-587.09 154.376,-594.009 164.963,-593.604 162.4,-587.09"/>
</g>
<!-- bn0&#45;&gt;http://example.org/disti#6 -->
<g id="edge5" class="edge"><title>bn0&#45;&gt;http://example.org/disti#6</title>
<path fill="none" stroke="darkgreen" d="M329.942,-525.955C331.122,-531.528 337.234,-560.391 341.97,-582.755"/>
<polygon fill="darkgreen" stroke="darkgreen" points="338.596,-583.715 344.092,-592.773 345.444,-582.265 338.596,-583.715"/>
<text text-anchor="middle" x="348.74" y="-563.8" font-family="Times New Roman,serif" font-size="14.00">[1]</text>
</g>
<!-- http://example.org/distk_aj#16 -->
<g id="node9" class="node"><title>http://example.org/distk_aj#16</title>
<g id="a_node9"><a xlink:href="http://example.org/distk_aj#16" xlink:title="distk_aj#16">
<ellipse fill="#fffc87" stroke="#808080" cx="756.74" cy="-422" rx="52.7911" ry="18"/>
<text text-anchor="middle" x="756.74" y="-418.3" font-family="Times New Roman,serif" font-size="14.00">distk_aj#16</text>
</a>
</g>
</g>
<!-- http://example.org/access79 -->
<g id="node11" class="node"><title>http://example.org/access79</title>
<g id="a_node11"><a xlink:href="http://example.org/access79" xlink:title="access79">
<polygon fill="#9fb1fc" stroke="#0000ff" points="996.74,-542 928.74,-542 928.74,-506 996.74,-506 996.74,-542"/>
<text text-anchor="middle" x="962.74" y="-520.3" font-family="Times New Roman,serif" font-size="14.00">access79</text>
</a>
</g>
</g>
<!-- http://example.org/distk_aj#16&#45;&gt;http://example.org/access79 -->
<g id="edge16" class="edge"><title>http://example.org/distk_aj#16&#45;&gt;http://example.org/access79</title>
<path fill="none" stroke="black" d="M809.231,-423.568C844.195,-426.318 889.627,-434.685 922.74,-458 936.166,-467.453 945.967,-482.985 952.506,-496.496"/>
<polygon fill="black" stroke="black" points="949.417,-498.163 956.696,-505.861 955.806,-495.304 949.417,-498.163"/>
<text text-anchor="middle" x="817.902" y="-409.428" font-family="Times New Roman,serif" font-size="8.00">gen</text>
</g>
<!-- bn1 -->
<g id="node14" class="node"><title>bn1</title>
<ellipse fill="black" stroke="black" cx="756.74" cy="-524" rx="1.8" ry="1.8"/>
</g>
<!-- http://example.org/distk_aj#16&#45;&gt;bn1 -->
<g id="edge13" class="edge"><title>http://example.org/distk_aj#16&#45;&gt;bn1</title>
<path fill="none" stroke="darkgreen" d="M756.74,-440.419C756.74,-466.831 756.74,-514.728 756.74,-522.05"/>
<text text-anchor="middle" x="838.24" y="-476.8" font-family="Times New Roman,serif" font-size="14.00">der ac&#45;r</text>
<text text-anchor="middle" x="838.24" y="-461.8" font-family="Times New Roman,serif" font-size="14.00">2018&#45;03&#45;05T15:32:48.870086</text>
</g>
<!-- &#45;attrs2 -->
<g id="node10" class="node"><title>&#45;attrs2</title>
<polygon fill="none" stroke="gray" points="757.74,-367 679.74,-367 679.74,-318 763.74,-318 763.74,-361 757.74,-367"/>
<polyline fill="none" stroke="gray" points="757.74,-367 757.74,-361 "/>
<polyline fill="none" stroke="gray" points="763.74,-361 757.74,-361 "/>
<text text-anchor="start" x="689.74" y="-352.5" font-family="Times New Roman,serif" font-size="10.00">value:</text>
<text text-anchor="start" x="716.74" y="-352.5" font-family="Times New Roman,serif" font-size="10.00">&quot;10000&quot;</text>
<text text-anchor="start" x="689.74" y="-339.5" font-family="Times New Roman,serif" font-size="10.00">type:</text>
<text text-anchor="start" x="716.74" y="-339.5" font-family="Times New Roman,serif" font-size="10.00">&quot;access&quot;</text>
<text text-anchor="start" x="689.74" y="-326.5" font-family="Times New Roman,serif" font-size="10.00">label:</text>
<text text-anchor="start" x="716.74" y="-326.5" font-family="Times New Roman,serif" font-size="10.00">&quot;distk[j]&quot;</text>
</g>
<!-- &#45;attrs2&#45;&gt;http://example.org/distk_aj#16 -->
<g id="edge10" class="edge"><title>&#45;attrs2&#45;&gt;http://example.org/distk_aj#16</title>
<path fill="none" stroke="gray" stroke-dasharray="5,2" d="M732.431,-367.174C737.819,-379.104 744.227,-393.292 749.11,-404.106"/>
</g>
<!-- http://example.org/m -->
<g id="node13" class="node"><title>http://example.org/m</title>
<ellipse fill="none" stroke="black" cx="755.74" cy="-611" rx="85.2851" ry="18"/>
<text text-anchor="middle" x="755.74" y="-607.3" font-family="Times New Roman,serif" font-size="14.00">http://example.org/m</text>
</g>
<!-- http://example.org/access79&#45;&gt;http://example.org/m -->
<g id="edge12" class="edge"><title>http://example.org/access79&#45;&gt;http://example.org/m</title>
<path fill="none" stroke="black" d="M928.558,-539.036C894.153,-553.164 840.836,-575.057 802.522,-590.79"/>
<polygon fill="black" stroke="black" points="801.046,-587.612 793.125,-594.649 803.705,-594.088 801.046,-587.612"/>
<text text-anchor="middle" x="926.555" y="-552.002" font-family="Times New Roman,serif" font-size="8.00">use</text>
</g>
<!-- http://example.org/distk#2 -->
<g id="node15" class="node"><title>http://example.org/distk#2</title>
<ellipse fill="none" stroke="black" cx="963.74" cy="-611" rx="105.082" ry="18"/>
<text text-anchor="middle" x="963.74" y="-607.3" font-family="Times New Roman,serif" font-size="14.00">http://example.org/distk#2</text>
</g>
<!-- http://example.org/access79&#45;&gt;http://example.org/distk#2 -->
<g id="edge17" class="edge"><title>http://example.org/access79&#45;&gt;http://example.org/distk#2</title>
<path fill="none" stroke="black" d="M962.942,-542.201C963.079,-553.837 963.263,-569.452 963.419,-582.763"/>
<polygon fill="black" stroke="black" points="959.92,-582.866 963.538,-592.825 966.92,-582.784 959.92,-582.866"/>
<text text-anchor="middle" x="976.02" y="-547.648" font-family="Times New Roman,serif" font-size="8.00">use</text>
</g>
<!-- http://example.org/j#16 -->
<g id="node16" class="node"><title>http://example.org/j#16</title>
<ellipse fill="none" stroke="black" cx="1181.74" cy="-611" rx="94.4839" ry="18"/>
<text text-anchor="middle" x="1181.74" y="-607.3" font-family="Times New Roman,serif" font-size="14.00">http://example.org/j#16</text>
</g>
<!-- http://example.org/access79&#45;&gt;http://example.org/j#16 -->
<g id="edge18" class="edge"><title>http://example.org/access79&#45;&gt;http://example.org/j#16</title>
<path fill="none" stroke="black" d="M996.959,-538.281C1033.45,-552.446 1091.57,-575.004 1132.88,-591.036"/>
<polygon fill="black" stroke="black" points="1131.62,-594.301 1142.21,-594.656 1134.15,-587.775 1131.62,-594.301"/>
<text text-anchor="middle" x="1008.65" y="-526.985" font-family="Times New Roman,serif" font-size="8.00">use</text>
</g>
<!-- &#45;attrs3 -->
<g id="node12" class="node"><title>&#45;attrs3</title>
<polygon fill="none" stroke="gray" points="996.74,-440 922.74,-440 922.74,-404 1002.74,-404 1002.74,-434 996.74,-440"/>
<polyline fill="none" stroke="gray" points="996.74,-440 996.74,-434 "/>
<polyline fill="none" stroke="gray" points="1002.74,-434 996.74,-434 "/>
<text text-anchor="start" x="932.74" y="-419" font-family="Times New Roman,serif" font-size="10.00">type:</text>
<text text-anchor="start" x="955.74" y="-419" font-family="Times New Roman,serif" font-size="10.00">&quot;access&quot;</text>
</g>
<!-- &#45;attrs3&#45;&gt;http://example.org/access79 -->
<g id="edge11" class="edge"><title>&#45;attrs3&#45;&gt;http://example.org/access79</title>
<path fill="none" stroke="gray" stroke-dasharray="5,2" d="M962.74,-440.419C962.74,-458.773 962.74,-487.502 962.74,-505.781"/>
</g>
<!-- bn1&#45;&gt;http://example.org/m -->
<g id="edge15" class="edge"><title>bn1&#45;&gt;http://example.org/m</title>
<path fill="none" stroke="darkgreen" d="M756.729,-525.955C756.663,-531.528 756.324,-560.391 756.06,-582.755"/>
<polygon fill="darkgreen" stroke="darkgreen" points="752.561,-582.733 755.943,-592.773 759.56,-582.815 752.561,-582.733"/>
</g>
<!-- bn1&#45;&gt;http://example.org/distk#2 -->
<g id="edge14" class="edge"><title>bn1&#45;&gt;http://example.org/distk#2</title>
<path fill="none" stroke="darkgreen" d="M758.062,-525.543C769.91,-530.408 858.73,-566.88 915.711,-590.278"/>
<polygon fill="darkgreen" stroke="darkgreen" points="914.68,-593.638 925.26,-594.199 917.339,-587.163 914.68,-593.638"/>
<text text-anchor="middle" x="880.74" y="-563.8" font-family="Times New Roman,serif" font-size="14.00">[0]</text>
</g>
<!-- http://example.org/sum#16 -->
<g id="node17" class="node"><title>http://example.org/sum#16</title>
<g id="a_node17"><a xlink:href="http://example.org/sum#16" xlink:title="sum#16">
<ellipse fill="#fffc87" stroke="#808080" cx="717.74" cy="-263" rx="39.7935" ry="18"/>
<text text-anchor="middle" x="717.74" y="-259.3" font-family="Times New Roman,serif" font-size="14.00">sum#16</text>
</a>
</g>
</g>
<!-- http://example.org/sum#16&#45;&gt;http://example.org/disti_ak#16 -->
<g id="edge24" class="edge"><title>http://example.org/sum#16&#45;&gt;http://example.org/disti_ak#16</title>
<path fill="none" stroke="black" d="M687.863,-275.014C681.59,-277.143 674.983,-279.253 668.74,-281 593.441,-302.076 545.874,-257.172 496.74,-318 479.668,-339.135 484.593,-371.408 491.436,-394.187"/>
<polygon fill="black" stroke="black" points="488.186,-395.51 494.642,-403.91 494.834,-393.317 488.186,-395.51"/>
<text text-anchor="middle" x="684.908" y="-287.82" font-family="Times New Roman,serif" font-size="8.00">der</text>
</g>
<!-- http://example.org/sum#16&#45;&gt;http://example.org/distk_aj#16 -->
<g id="edge26" class="edge"><title>http://example.org/sum#16&#45;&gt;http://example.org/distk_aj#16</title>
<path fill="none" stroke="black" d="M739.141,-278.27C751.496,-287.864 765.906,-301.712 772.74,-318 783.076,-342.633 776.171,-373.107 768.472,-394.494"/>
<polygon fill="black" stroke="black" points="765.173,-393.323 764.82,-403.912 771.699,-395.854 765.173,-393.323"/>
<text text-anchor="middle" x="753.11" y="-270.905" font-family="Times New Roman,serif" font-size="8.00">der</text>
</g>
<!-- http://example.org/sum#16_v1 -->
<g id="node19" class="node"><title>http://example.org/sum#16_v1</title>
<g id="a_node19"><a xlink:href="http://example.org/sum#16_v1" xlink:title="sum#16_v1">
<ellipse fill="#32cd32" stroke="#808080" cx="875.74" cy="-342.5" rx="53.0913" ry="18"/>
<text text-anchor="middle" x="875.74" y="-338.8" font-family="Times New Roman,serif" font-size="14.00">sum#16_v1</text>
</a>
</g>
</g>
<!-- http://example.org/sum#16&#45;&gt;http://example.org/sum#16_v1 -->
<g id="edge21" class="edge"><title>http://example.org/sum#16&#45;&gt;http://example.org/sum#16_v1</title>
<path fill="none" stroke="black" d="M748.425,-274.765C765.588,-281.141 787.196,-289.764 805.74,-299 818.619,-305.415 832.255,-313.4 844.037,-320.711"/>
<polygon fill="black" stroke="black" points="842.315,-323.763 852.642,-326.133 846.047,-317.841 842.315,-323.763"/>
<text text-anchor="middle" x="760.01" y="-263.336" font-family="Times New Roman,serif" font-size="8.00">spe</text>
</g>
<!-- http://example.org/+16 -->
<g id="node21" class="node"><title>http://example.org/+16</title>
<g id="a_node21"><a xlink:href="http://example.org/+16" xlink:title="+16">
<polygon fill="#9fb1fc" stroke="#0000ff" points="661.74,-360.5 607.74,-360.5 607.74,-324.5 661.74,-324.5 661.74,-360.5"/>
<text text-anchor="middle" x="634.74" y="-338.8" font-family="Times New Roman,serif" font-size="14.00">+16</text>
</a>
</g>
</g>
<!-- http://example.org/sum#16&#45;&gt;http://example.org/+16 -->
<g id="edge27" class="edge"><title>http://example.org/sum#16&#45;&gt;http://example.org/+16</title>
<path fill="none" stroke="black" d="M700.944,-279.683C689.302,-290.553 673.583,-305.231 660.382,-317.557"/>
<polygon fill="black" stroke="black" points="657.872,-315.112 652.951,-324.495 662.649,-320.229 657.872,-315.112"/>
<text text-anchor="middle" x="704.327" y="-292.397" font-family="Times New Roman,serif" font-size="8.00">gen</text>
</g>
<!-- &#45;attrs4 -->
<g id="node18" class="node"><title>&#45;attrs4</title>
<polygon fill="none" stroke="gray" points="660.74,-208 544.74,-208 544.74,-159 666.74,-159 666.74,-202 660.74,-208"/>
<polyline fill="none" stroke="gray" points="660.74,-208 660.74,-202 "/>
<polyline fill="none" stroke="gray" points="666.74,-202 660.74,-202 "/>
<text text-anchor="start" x="554.74" y="-193.5" font-family="Times New Roman,serif" font-size="10.00">value:</text>
<text text-anchor="start" x="581.74" y="-193.5" font-family="Times New Roman,serif" font-size="10.00">&quot;10003&quot;</text>
<text text-anchor="start" x="554.74" y="-180.5" font-family="Times New Roman,serif" font-size="10.00">type:</text>
<text text-anchor="start" x="581.74" y="-180.5" font-family="Times New Roman,serif" font-size="10.00">&quot;operation&quot;</text>
<text text-anchor="start" x="554.74" y="-167.5" font-family="Times New Roman,serif" font-size="10.00">label:</text>
<text text-anchor="start" x="581.74" y="-167.5" font-family="Times New Roman,serif" font-size="10.00">&quot;disti[k] + distk[j]&quot;</text>
</g>
<!-- &#45;attrs4&#45;&gt;http://example.org/sum#16 -->
<g id="edge19" class="edge"><title>&#45;attrs4&#45;&gt;http://example.org/sum#16</title>
<path fill="none" stroke="gray" stroke-dasharray="5,2" d="M639.952,-208.174C658.479,-220.994 680.776,-236.422 696.739,-247.468"/>
</g>
<!-- &#45;attrs5 -->
<g id="node20" class="node"><title>&#45;attrs5</title>
<polygon fill="none" stroke="gray" points="982.24,-281 775.24,-281 775.24,-245 988.24,-245 988.24,-275 982.24,-281"/>
<polyline fill="none" stroke="gray" points="982.24,-281 982.24,-275 "/>
<polyline fill="none" stroke="gray" points="988.24,-275 982.24,-275 "/>
<text text-anchor="start" x="785.74" y="-267" font-family="Times New Roman,serif" font-size="10.00">generatedAtTime:</text>
<text text-anchor="start" x="860.74" y="-267" font-family="Times New Roman,serif" font-size="10.00">&quot;2018&#45;03&#45;05T15:32:48.870086&quot;</text>
<text text-anchor="start" x="785.74" y="-254" font-family="Times New Roman,serif" font-size="10.00">type:</text>
<text text-anchor="start" x="860.74" y="-254" font-family="Times New Roman,serif" font-size="10.00">&quot;Version&quot;</text>
</g>
<!-- &#45;attrs5&#45;&gt;http://example.org/sum#16_v1 -->
<g id="edge20" class="edge"><title>&#45;attrs5&#45;&gt;http://example.org/sum#16_v1</title>
<path fill="none" stroke="gray" stroke-dasharray="5,2" d="M880.408,-281.2C879.414,-294.043 878.061,-311.517 877.068,-324.348"/>
</g>
<!-- http://example.org/+16&#45;&gt;http://example.org/disti_ak#16 -->
<g id="edge23" class="edge"><title>http://example.org/+16&#45;&gt;http://example.org/disti_ak#16</title>
<path fill="none" stroke="black" d="M608.922,-360.664C605.521,-362.833 602.063,-364.994 598.74,-367 578.978,-378.93 556.477,-391.517 538.124,-401.534"/>
<polygon fill="black" stroke="black" points="536.327,-398.527 529.211,-406.376 539.669,-404.678 536.327,-398.527"/>
<text text-anchor="middle" x="609.571" y="-373.75" font-family="Times New Roman,serif" font-size="8.00">use</text>
</g>
<!-- http://example.org/+16&#45;&gt;http://example.org/distk_aj#16 -->
<g id="edge25" class="edge"><title>http://example.org/+16&#45;&gt;http://example.org/distk_aj#16</title>
<path fill="none" stroke="black" d="M661.051,-360.752C664.309,-362.865 667.597,-364.988 670.74,-367 688.278,-378.229 707.942,-390.593 724.035,-400.653"/>
<polygon fill="black" stroke="black" points="722.237,-403.656 732.573,-405.984 725.944,-397.719 722.237,-403.656"/>
<text text-anchor="middle" x="674.412" y="-352.033" font-family="Times New Roman,serif" font-size="8.00">use</text>
</g>
<!-- &#45;attrs6 -->
<g id="node22" class="node"><title>&#45;attrs6</title>
<polygon fill="none" stroke="gray" points="653.74,-281 601.74,-281 601.74,-245 659.74,-245 659.74,-275 653.74,-281"/>
<polyline fill="none" stroke="gray" points="653.74,-281 653.74,-275 "/>
<polyline fill="none" stroke="gray" points="659.74,-275 653.74,-275 "/>
<text text-anchor="start" x="611.74" y="-260" font-family="Times New Roman,serif" font-size="10.00">type:</text>
<text text-anchor="start" x="634.74" y="-260" font-family="Times New Roman,serif" font-size="10.00">&quot;+&quot;</text>
</g>
<!-- &#45;attrs6&#45;&gt;http://example.org/+16 -->
<g id="edge22" class="edge"><title>&#45;attrs6&#45;&gt;http://example.org/+16</title>
<path fill="none" stroke="gray" stroke-dasharray="5,2" d="M631.628,-281.2C632.291,-294.043 633.192,-311.517 633.855,-324.348"/>
</g>
<!-- http://example.org/ikj#16 -->
<g id="node23" class="node"><title>http://example.org/ikj#16</title>
<g id="a_node23"><a xlink:href="http://example.org/ikj#16" xlink:title="ikj#16">
<ellipse fill="#fffc87" stroke="#808080" cx="786.74" cy="-104" rx="32.4942" ry="18"/>
<text text-anchor="middle" x="786.74" y="-100.3" font-family="Times New Roman,serif" font-size="14.00">ikj#16</text>
</a>
</g>
</g>
<!-- http://example.org/ikj#16&#45;&gt;http://example.org/sum#16 -->
<g id="edge31" class="edge"><title>http://example.org/ikj#16&#45;&gt;http://example.org/sum#16</title>
<path fill="none" stroke="darkgreen" d="M784.158,-122.122C780.526,-143.164 772.734,-179.57 758.74,-208 753.486,-218.673 745.991,-229.335 738.842,-238.331"/>
<polygon fill="darkgreen" stroke="darkgreen" points="736.115,-236.137 732.449,-246.077 741.514,-240.593 736.115,-236.137"/>
<text text-anchor="middle" x="858.24" y="-187.3" font-family="Times New Roman,serif" font-size="14.00">der ref</text>
<text text-anchor="middle" x="858.24" y="-172.3" font-family="Times New Roman,serif" font-size="14.00">2018&#45;03&#45;05T15:32:48.870086</text>
</g>
<!-- http://example.org/assign31 -->
<g id="node25" class="node"><title>http://example.org/assign31</title>
<g id="a_node25"><a xlink:href="http://example.org/assign31" xlink:title="assign31">
<polygon fill="#9fb1fc" stroke="#0000ff" points="750.24,-201.5 685.24,-201.5 685.24,-165.5 750.24,-165.5 750.24,-201.5"/>
<text text-anchor="middle" x="717.74" y="-179.8" font-family="Times New Roman,serif" font-size="14.00">assign31</text>
</a>
</g>
</g>
<!-- http://example.org/ikj#16&#45;&gt;http://example.org/assign31 -->
<g id="edge32" class="edge"><title>http://example.org/ikj#16&#45;&gt;http://example.org/assign31</title>
<path fill="none" stroke="black" d="M772.777,-120.683C763.28,-131.35 750.518,-145.684 739.675,-157.863"/>
<polygon fill="black" stroke="black" points="736.915,-155.699 732.88,-165.495 742.143,-160.354 736.915,-155.699"/>
<text text-anchor="middle" x="777.492" y="-133.023" font-family="Times New Roman,serif" font-size="8.00">gen</text>
</g>
<!-- &#45;attrs7 -->
<g id="node24" class="node"><title>&#45;attrs7</title>
<polygon fill="none" stroke="gray" points="820.24,-49 747.24,-49 747.24,-0 826.24,-0 826.24,-43 820.24,-49"/>
<polyline fill="none" stroke="gray" points="820.24,-49 820.24,-43 "/>
<polyline fill="none" stroke="gray" points="826.24,-43 820.24,-43 "/>
<text text-anchor="start" x="757.74" y="-34.5" font-family="Times New Roman,serif" font-size="10.00">value:</text>
<text text-anchor="start" x="784.74" y="-34.5" font-family="Times New Roman,serif" font-size="10.00">&quot;10003&quot;</text>
<text text-anchor="start" x="757.74" y="-21.5" font-family="Times New Roman,serif" font-size="10.00">type:</text>
<text text-anchor="start" x="784.74" y="-21.5" font-family="Times New Roman,serif" font-size="10.00">&quot;name&quot;</text>
<text text-anchor="start" x="757.74" y="-8.5" font-family="Times New Roman,serif" font-size="10.00">label:</text>
<text text-anchor="start" x="784.74" y="-8.5" font-family="Times New Roman,serif" font-size="10.00">&quot;ikj&quot;</text>
</g>
<!-- &#45;attrs7&#45;&gt;http://example.org/ikj#16 -->
<g id="edge28" class="edge"><title>&#45;attrs7&#45;&gt;http://example.org/ikj#16</title>
<path fill="none" stroke="gray" stroke-dasharray="5,2" d="M786.74,-49.1737C786.74,-60.9254 786.74,-74.869 786.74,-85.6196"/>
</g>
<!-- http://example.org/assign31&#45;&gt;http://example.org/sum#16 -->
<g id="edge30" class="edge"><title>http://example.org/assign31&#45;&gt;http://example.org/sum#16</title>
<path fill="none" stroke="black" d="M717.74,-201.7C717.74,-211.432 717.74,-223.824 717.74,-234.84"/>
<polygon fill="black" stroke="black" points="714.24,-234.848 717.74,-244.848 721.24,-234.848 714.24,-234.848"/>
<text text-anchor="middle" x="730.73" y="-207.3" font-family="Times New Roman,serif" font-size="8.00">use</text>
</g>
<!-- &#45;attrs8 -->
<g id="node26" class="node"><title>&#45;attrs8</title>
<polygon fill="none" stroke="gray" points="730.24,-122 657.24,-122 657.24,-86 736.24,-86 736.24,-116 730.24,-122"/>
<polyline fill="none" stroke="gray" points="730.24,-122 730.24,-116 "/>
<polyline fill="none" stroke="gray" points="736.24,-116 730.24,-116 "/>
<text text-anchor="start" x="667.74" y="-101" font-family="Times New Roman,serif" font-size="10.00">type:</text>
<text text-anchor="start" x="690.74" y="-101" font-family="Times New Roman,serif" font-size="10.00">&quot;assign&quot;</text>
</g>
<!-- &#45;attrs8&#45;&gt;http://example.org/assign31 -->
<g id="edge29" class="edge"><title>&#45;attrs8&#45;&gt;http://example.org/assign31</title>
<path fill="none" stroke="gray" stroke-dasharray="5,2" d="M701.4,-122.2C704.881,-135.043 709.615,-152.517 713.092,-165.348"/>
</g>
</g>
</svg>
