<?xml version="1.0" encoding="UTF-8" standalone="no"?>
<!DOCTYPE svg PUBLIC "-//W3C//DTD SVG 1.1//EN"
 "http://www.w3.org/Graphics/SVG/1.1/DTD/svg11.dtd">
<!-- Generated by graphviz version 2.38.0 (20140413.2041)
 -->
<!-- Title: PROV Pages: 1 -->
<svg width="1152pt" height="635pt"
 viewBox="0.00 0.00 1152.00 634.86" xmlns="http://www.w3.org/2000/svg" xmlns:xlink="http://www.w3.org/1999/xlink">
<g id="graph0" class="graph" transform="scale(0.996639 0.996639) rotate(0) translate(4 633)">
<title>PROV</title>
<polygon fill="white" stroke="none" points="-4,4 -4,-633 1151.88,-633 1151.88,4 -4,4"/>
<!-- http://example.org/disti_ak#2 -->
<g id="node1" class="node"><title>http://example.org/disti_ak#2</title>
<g id="a_node1"><a xlink:href="http://example.org/disti_ak#2" xlink:title="disti_ak#2">
<ellipse fill="#fffc87" stroke="#808080" cx="400.193" cy="-422" rx="48.1917" ry="18"/>
<text text-anchor="middle" x="400.193" y="-418.3" font-family="Times New Roman,serif" font-size="14.00">disti_ak#2</text>
</a>
</g>
</g>
<!-- http://example.org/access10 -->
<g id="node3" class="node"><title>http://example.org/access10</title>
<g id="a_node3"><a xlink:href="http://example.org/access10" xlink:title="access10">
<polygon fill="#9fb1fc" stroke="#0000ff" points="440.193,-542 372.193,-542 372.193,-506 440.193,-506 440.193,-542"/>
<text text-anchor="middle" x="406.193" y="-520.3" font-family="Times New Roman,serif" font-size="14.00">access10</text>
</a>
</g>
</g>
<!-- http://example.org/disti_ak#2&#45;&gt;http://example.org/access10 -->
<g id="edge7" class="edge"><title>http://example.org/disti_ak#2&#45;&gt;http://example.org/access10</title>
<path fill="none" stroke="black" d="M401.238,-440.419C402.15,-455.618 403.489,-477.933 404.545,-495.536"/>
<polygon fill="black" stroke="black" points="401.067,-496.009 405.159,-505.781 408.054,-495.589 401.067,-496.009"/>
<text text-anchor="middle" x="414.654" y="-445.227" font-family="Times New Roman,serif" font-size="8.00">gen</text>
</g>
<!-- bn0 -->
<g id="node6" class="node"><title>bn0</title>
<ellipse fill="black" stroke="black" cx="228.193" cy="-524" rx="1.8" ry="1.8"/>
</g>
<!-- http://example.org/disti_ak#2&#45;&gt;bn0 -->
<g id="edge4" class="edge"><title>http://example.org/disti_ak#2&#45;&gt;bn0</title>
<path fill="none" stroke="darkgreen" d="M353.728,-426.959C310.929,-431.623 251.776,-440.985 236.193,-458 218.377,-477.453 226.282,-515.031 227.921,-521.906"/>
<text text-anchor="middle" x="317.693" y="-476.8" font-family="Times New Roman,serif" font-size="14.00">der ac&#45;r</text>
<text text-anchor="middle" x="317.693" y="-461.8" font-family="Times New Roman,serif" font-size="14.00">2018&#45;03&#45;04T18:22:22.824715</text>
</g>
<!-- &#45;attrs0 -->
<g id="node2" class="node"><title>&#45;attrs0</title>
<polygon fill="none" stroke="gray" points="471.193,-367 393.193,-367 393.193,-318 477.193,-318 477.193,-361 471.193,-367"/>
<polyline fill="none" stroke="gray" points="471.193,-367 471.193,-361 "/>
<polyline fill="none" stroke="gray" points="477.193,-361 471.193,-361 "/>
<text text-anchor="start" x="403.193" y="-352.5" font-family="Times New Roman,serif" font-size="10.00">value:</text>
<text text-anchor="start" x="430.193" y="-352.5" font-family="Times New Roman,serif" font-size="10.00">&quot;0&quot;</text>
<text text-anchor="start" x="403.193" y="-339.5" font-family="Times New Roman,serif" font-size="10.00">type:</text>
<text text-anchor="start" x="430.193" y="-339.5" font-family="Times New Roman,serif" font-size="10.00">&quot;access&quot;</text>
<text text-anchor="start" x="403.193" y="-326.5" font-family="Times New Roman,serif" font-size="10.00">label:</text>
<text text-anchor="start" x="430.193" y="-326.5" font-family="Times New Roman,serif" font-size="10.00">&quot;disti[k]&quot;</text>
</g>
<!-- &#45;attrs0&#45;&gt;http://example.org/disti_ak#2 -->
<g id="edge1" class="edge"><title>&#45;attrs0&#45;&gt;http://example.org/disti_ak#2</title>
<path fill="none" stroke="gray" stroke-dasharray="5,2" d="M424.501,-367.174C419.114,-379.104 412.706,-393.292 407.822,-404.106"/>
</g>
<!-- http://example.org/0 -->
<g id="node5" class="node"><title>http://example.org/0</title>
<ellipse fill="none" stroke="black" cx="83.1926" cy="-611" rx="83.3857" ry="18"/>
<text text-anchor="middle" x="83.1926" y="-607.3" font-family="Times New Roman,serif" font-size="14.00">http://example.org/0</text>
</g>
<!-- http://example.org/access10&#45;&gt;http://example.org/0 -->
<g id="edge3" class="edge"><title>http://example.org/access10&#45;&gt;http://example.org/0</title>
<path fill="none" stroke="black" d="M371.888,-531.733C339.558,-538.271 289.846,-548.822 247.193,-560 210.008,-569.745 168.606,-582.382 136.703,-592.513"/>
<polygon fill="black" stroke="black" points="135.585,-589.196 127.122,-595.571 137.713,-595.864 135.585,-589.196"/>
<text text-anchor="middle" x="367.133" y="-544.059" font-family="Times New Roman,serif" font-size="8.00">use</text>
</g>
<!-- http://example.org/disti -->
<g id="node7" class="node"><title>http://example.org/disti</title>
<ellipse fill="none" stroke="black" cx="278.193" cy="-611" rx="93.6835" ry="18"/>
<text text-anchor="middle" x="278.193" y="-607.3" font-family="Times New Roman,serif" font-size="14.00">http://example.org/disti</text>
</g>
<!-- http://example.org/access10&#45;&gt;http://example.org/disti -->
<g id="edge8" class="edge"><title>http://example.org/access10&#45;&gt;http://example.org/disti</title>
<path fill="none" stroke="black" d="M380.29,-542.201C360.515,-555.333 333.11,-573.531 311.672,-587.768"/>
<polygon fill="black" stroke="black" points="309.58,-584.955 303.186,-593.403 313.452,-590.787 309.58,-584.955"/>
<text text-anchor="middle" x="381.228" y="-555.272" font-family="Times New Roman,serif" font-size="8.00">use</text>
</g>
<!-- http://example.org/k -->
<g id="node8" class="node"><title>http://example.org/k</title>
<ellipse fill="none" stroke="black" cx="473.193" cy="-611" rx="83.3857" ry="18"/>
<text text-anchor="middle" x="473.193" y="-607.3" font-family="Times New Roman,serif" font-size="14.00">http://example.org/k</text>
</g>
<!-- http://example.org/access10&#45;&gt;http://example.org/k -->
<g id="edge9" class="edge"><title>http://example.org/access10&#45;&gt;http://example.org/k</title>
<path fill="none" stroke="black" d="M419.751,-542.201C429.441,-554.494 442.63,-571.226 453.481,-584.993"/>
<polygon fill="black" stroke="black" points="450.944,-587.428 459.883,-593.115 456.441,-583.094 450.944,-587.428"/>
<text text-anchor="middle" x="434.596" y="-538.15" font-family="Times New Roman,serif" font-size="8.00">use</text>
</g>
<!-- &#45;attrs1 -->
<g id="node4" class="node"><title>&#45;attrs1</title>
<polygon fill="none" stroke="gray" points="540.193,-440 466.193,-440 466.193,-404 546.193,-404 546.193,-434 540.193,-440"/>
<polyline fill="none" stroke="gray" points="540.193,-440 540.193,-434 "/>
<polyline fill="none" stroke="gray" points="546.193,-434 540.193,-434 "/>
<text text-anchor="start" x="476.193" y="-419" font-family="Times New Roman,serif" font-size="10.00">type:</text>
<text text-anchor="start" x="499.193" y="-419" font-family="Times New Roman,serif" font-size="10.00">&quot;access&quot;</text>
</g>
<!-- &#45;attrs1&#45;&gt;http://example.org/access10 -->
<g id="edge2" class="edge"><title>&#45;attrs1&#45;&gt;http://example.org/access10</title>
<path fill="none" stroke="gray" stroke-dasharray="5,2" d="M488.774,-440.419C470.42,-458.773 441.69,-487.502 423.412,-505.781"/>
</g>
<!-- bn0&#45;&gt;http://example.org/0 -->
<g id="edge6" class="edge"><title>bn0&#45;&gt;http://example.org/0</title>
<path fill="none" stroke="darkgreen" d="M226.78,-525.593C219.297,-528.754 183.59,-544.076 156.193,-560 141.841,-568.342 126.598,-578.55 113.773,-587.563"/>
<polygon fill="darkgreen" stroke="darkgreen" points="111.442,-584.926 105.322,-593.574 115.5,-590.63 111.442,-584.926"/>
</g>
<!-- bn0&#45;&gt;http://example.org/disti -->
<g id="edge5" class="edge"><title>bn0&#45;&gt;http://example.org/disti</title>
<path fill="none" stroke="darkgreen" d="M228.754,-525.955C232.092,-531.629 249.63,-561.443 262.877,-583.963"/>
<polygon fill="darkgreen" stroke="darkgreen" points="259.972,-585.929 268.059,-592.773 266.006,-582.379 259.972,-585.929"/>
<text text-anchor="middle" x="264.193" y="-563.8" font-family="Times New Roman,serif" font-size="14.00">[0]</text>
</g>
<!-- http://example.org/distk_aj#2 -->
<g id="node9" class="node"><title>http://example.org/distk_aj#2</title>
<g id="a_node9"><a xlink:href="http://example.org/distk_aj#2" xlink:title="distk_aj#2">
<ellipse fill="#fffc87" stroke="#808080" cx="654.193" cy="-422" rx="48.1917" ry="18"/>
<text text-anchor="middle" x="654.193" y="-418.3" font-family="Times New Roman,serif" font-size="14.00">distk_aj#2</text>
</a>
</g>
</g>
<!-- http://example.org/access11 -->
<g id="node11" class="node"><title>http://example.org/access11</title>
<g id="a_node11"><a xlink:href="http://example.org/access11" xlink:title="access11">
<polygon fill="#9fb1fc" stroke="#0000ff" points="888.193,-542 820.193,-542 820.193,-506 888.193,-506 888.193,-542"/>
<text text-anchor="middle" x="854.193" y="-520.3" font-family="Times New Roman,serif" font-size="14.00">access11</text>
</a>
</g>
</g>
<!-- http://example.org/distk_aj#2&#45;&gt;http://example.org/access11 -->
<g id="edge16" class="edge"><title>http://example.org/distk_aj#2&#45;&gt;http://example.org/access11</title>
<path fill="none" stroke="black" d="M702.291,-422.952C737.489,-425.2 784.741,-433.217 818.193,-458 831.037,-467.516 839.882,-483.05 845.59,-496.547"/>
<polygon fill="black" stroke="black" points="842.334,-497.832 849.204,-505.898 848.864,-495.309 842.334,-497.832"/>
<text text-anchor="middle" x="710.789" y="-408.691" font-family="Times New Roman,serif" font-size="8.00">gen</text>
</g>
<!-- bn1 -->
<g id="node14" class="node"><title>bn1</title>
<ellipse fill="black" stroke="black" cx="657.193" cy="-524" rx="1.8" ry="1.8"/>
</g>
<!-- http://example.org/distk_aj#2&#45;&gt;bn1 -->
<g id="edge13" class="edge"><title>http://example.org/distk_aj#2&#45;&gt;bn1</title>
<path fill="none" stroke="darkgreen" d="M654.261,-440.112C654.361,-453.222 654.604,-471.759 655.193,-488 655.686,-501.624 656.847,-518.203 657.13,-522.135"/>
<text text-anchor="middle" x="736.693" y="-476.8" font-family="Times New Roman,serif" font-size="14.00">der ac&#45;r</text>
<text text-anchor="middle" x="736.693" y="-461.8" font-family="Times New Roman,serif" font-size="14.00">2018&#45;03&#45;04T18:22:22.824715</text>
</g>
<!-- &#45;attrs2 -->
<g id="node10" class="node"><title>&#45;attrs2</title>
<polygon fill="none" stroke="gray" points="645.193,-367 567.193,-367 567.193,-318 651.193,-318 651.193,-361 645.193,-367"/>
<polyline fill="none" stroke="gray" points="645.193,-367 645.193,-361 "/>
<polyline fill="none" stroke="gray" points="651.193,-361 645.193,-361 "/>
<text text-anchor="start" x="577.193" y="-352.5" font-family="Times New Roman,serif" font-size="10.00">value:</text>
<text text-anchor="start" x="604.193" y="-352.5" font-family="Times New Roman,serif" font-size="10.00">&quot;1&quot;</text>
<text text-anchor="start" x="577.193" y="-339.5" font-family="Times New Roman,serif" font-size="10.00">type:</text>
<text text-anchor="start" x="604.193" y="-339.5" font-family="Times New Roman,serif" font-size="10.00">&quot;access&quot;</text>
<text text-anchor="start" x="577.193" y="-326.5" font-family="Times New Roman,serif" font-size="10.00">label:</text>
<text text-anchor="start" x="604.193" y="-326.5" font-family="Times New Roman,serif" font-size="10.00">&quot;distk[j]&quot;</text>
</g>
<!-- &#45;attrs2&#45;&gt;http://example.org/distk_aj#2 -->
<g id="edge10" class="edge"><title>&#45;attrs2&#45;&gt;http://example.org/distk_aj#2</title>
<path fill="none" stroke="gray" stroke-dasharray="5,2" d="M622.939,-367.174C629.866,-379.104 638.104,-393.292 644.383,-404.106"/>
</g>
<!-- http://example.org/1 -->
<g id="node13" class="node"><title>http://example.org/1</title>
<ellipse fill="none" stroke="black" cx="657.193" cy="-611" rx="83.3857" ry="18"/>
<text text-anchor="middle" x="657.193" y="-607.3" font-family="Times New Roman,serif" font-size="14.00">http://example.org/1</text>
</g>
<!-- http://example.org/access11&#45;&gt;http://example.org/1 -->
<g id="edge12" class="edge"><title>http://example.org/access11&#45;&gt;http://example.org/1</title>
<path fill="none" stroke="black" d="M819.878,-539.806C787.192,-553.909 737.804,-575.218 702.021,-590.658"/>
<polygon fill="black" stroke="black" points="700.57,-587.472 692.775,-594.647 703.344,-593.899 700.57,-587.472"/>
<text text-anchor="middle" x="818.138" y="-552.805" font-family="Times New Roman,serif" font-size="8.00">use</text>
</g>
<!-- http://example.org/distk -->
<g id="node15" class="node"><title>http://example.org/distk</title>
<ellipse fill="none" stroke="black" cx="854.193" cy="-611" rx="96.3833" ry="18"/>
<text text-anchor="middle" x="854.193" y="-607.3" font-family="Times New Roman,serif" font-size="14.00">http://example.org/distk</text>
</g>
<!-- http://example.org/access11&#45;&gt;http://example.org/distk -->
<g id="edge17" class="edge"><title>http://example.org/access11&#45;&gt;http://example.org/distk</title>
<path fill="none" stroke="black" d="M854.193,-542.201C854.193,-553.837 854.193,-569.452 854.193,-582.763"/>
<polygon fill="black" stroke="black" points="850.693,-582.825 854.193,-592.825 857.693,-582.825 850.693,-582.825"/>
<text text-anchor="middle" x="867.183" y="-547.801" font-family="Times New Roman,serif" font-size="8.00">use</text>
</g>
<!-- http://example.org/j#2 -->
<g id="node16" class="node"><title>http://example.org/j#2</title>
<ellipse fill="none" stroke="black" cx="1058.19" cy="-611" rx="89.8845" ry="18"/>
<text text-anchor="middle" x="1058.19" y="-607.3" font-family="Times New Roman,serif" font-size="14.00">http://example.org/j#2</text>
</g>
<!-- http://example.org/access11&#45;&gt;http://example.org/j#2 -->
<g id="edge18" class="edge"><title>http://example.org/access11&#45;&gt;http://example.org/j#2</title>
<path fill="none" stroke="black" d="M888.338,-539.227C922.073,-553.283 973.931,-574.891 1011.47,-590.534"/>
<polygon fill="black" stroke="black" points="1010.6,-593.959 1021.17,-594.575 1013.29,-587.498 1010.6,-593.959"/>
<text text-anchor="middle" x="900.257" y="-528.221" font-family="Times New Roman,serif" font-size="8.00">use</text>
</g>
<!-- &#45;attrs3 -->
<g id="node12" class="node"><title>&#45;attrs3</title>
<polygon fill="none" stroke="gray" points="891.193,-440 817.193,-440 817.193,-404 897.193,-404 897.193,-434 891.193,-440"/>
<polyline fill="none" stroke="gray" points="891.193,-440 891.193,-434 "/>
<polyline fill="none" stroke="gray" points="897.193,-434 891.193,-434 "/>
<text text-anchor="start" x="827.193" y="-419" font-family="Times New Roman,serif" font-size="10.00">type:</text>
<text text-anchor="start" x="850.193" y="-419" font-family="Times New Roman,serif" font-size="10.00">&quot;access&quot;</text>
</g>
<!-- &#45;attrs3&#45;&gt;http://example.org/access11 -->
<g id="edge11" class="edge"><title>&#45;attrs3&#45;&gt;http://example.org/access11</title>
<path fill="none" stroke="gray" stroke-dasharray="5,2" d="M856.67,-440.419C856.119,-458.773 855.258,-487.502 854.709,-505.781"/>
</g>
<!-- bn1&#45;&gt;http://example.org/1 -->
<g id="edge15" class="edge"><title>bn1&#45;&gt;http://example.org/1</title>
<path fill="none" stroke="darkgreen" d="M657.193,-525.955C657.193,-531.528 657.193,-560.391 657.193,-582.755"/>
<polygon fill="darkgreen" stroke="darkgreen" points="653.693,-582.773 657.193,-592.773 660.693,-582.773 653.693,-582.773"/>
</g>
<!-- bn1&#45;&gt;http://example.org/distk -->
<g id="edge14" class="edge"><title>bn1&#45;&gt;http://example.org/distk</title>
<path fill="none" stroke="darkgreen" d="M658.451,-525.543C669.703,-530.398 753.906,-566.729 808.148,-590.133"/>
<polygon fill="darkgreen" stroke="darkgreen" points="807.003,-593.451 817.571,-594.199 809.776,-587.024 807.003,-593.451"/>
<text text-anchor="middle" x="775.193" y="-563.8" font-family="Times New Roman,serif" font-size="14.00">[1]</text>
</g>
<!-- http://example.org/sum#2 -->
<g id="node17" class="node"><title>http://example.org/sum#2</title>
<g id="a_node17"><a xlink:href="http://example.org/sum#2" xlink:title="sum#2">
<ellipse fill="#fffc87" stroke="#808080" cx="602.193" cy="-263" rx="35.194" ry="18"/>
<text text-anchor="middle" x="602.193" y="-259.3" font-family="Times New Roman,serif" font-size="14.00">sum#2</text>
</a>
</g>
</g>
<!-- http://example.org/sum#2&#45;&gt;http://example.org/disti_ak#2 -->
<g id="edge24" class="edge"><title>http://example.org/sum#2&#45;&gt;http://example.org/disti_ak#2</title>
<path fill="none" stroke="black" d="M575.904,-274.94C570.128,-277.123 564.001,-279.272 558.193,-281 482.411,-303.541 433.946,-256.555 384.193,-318 366.755,-339.536 375.902,-372.159 386.07,-394.902"/>
<polygon fill="black" stroke="black" points="382.942,-396.473 390.415,-403.982 389.256,-393.451 382.942,-396.473"/>
<text text-anchor="middle" x="573.443" y="-287.837" font-family="Times New Roman,serif" font-size="8.00">der</text>
</g>
<!-- http://example.org/sum#2&#45;&gt;http://example.org/distk_aj#2 -->
<g id="edge26" class="edge"><title>http://example.org/sum#2&#45;&gt;http://example.org/distk_aj#2</title>
<path fill="none" stroke="black" d="M623.848,-277.374C637.056,-286.884 652.78,-300.97 660.193,-318 670.698,-342.135 667.166,-372.502 662.25,-393.993"/>
<polygon fill="black" stroke="black" points="658.837,-393.211 659.781,-403.764 665.624,-394.926 658.837,-393.211"/>
<text text-anchor="middle" x="637.612" y="-269.512" font-family="Times New Roman,serif" font-size="8.00">der</text>
</g>
<!-- http://example.org/sum#2_v1 -->
<g id="node19" class="node"><title>http://example.org/sum#2_v1</title>
<g id="a_node19"><a xlink:href="http://example.org/sum#2_v1" xlink:title="sum#2_v1">
<ellipse fill="#32cd32" stroke="#808080" cx="758.193" cy="-342.5" rx="48.9926" ry="18"/>
<text text-anchor="middle" x="758.193" y="-338.8" font-family="Times New Roman,serif" font-size="14.00">sum#2_v1</text>
</a>
</g>
</g>
<!-- http://example.org/sum#2&#45;&gt;http://example.org/sum#2_v1 -->
<g id="edge21" class="edge"><title>http://example.org/sum#2&#45;&gt;http://example.org/sum#2_v1</title>
<path fill="none" stroke="black" d="M629.649,-274.623C635.128,-276.738 640.842,-278.942 646.193,-281 667.07,-289.031 673.274,-288.822 693.193,-299 705.319,-305.197 717.994,-313.119 728.898,-320.441"/>
<polygon fill="black" stroke="black" points="726.99,-323.376 737.218,-326.14 730.946,-317.601 726.99,-323.376"/>
<text text-anchor="middle" x="641.325" y="-263.305" font-family="Times New Roman,serif" font-size="8.00">spe</text>
</g>
<!-- http://example.org/+2 -->
<g id="node21" class="node"><title>http://example.org/+2</title>
<g id="a_node21"><a xlink:href="http://example.org/+2" xlink:title="+2">
<polygon fill="#9fb1fc" stroke="#0000ff" points="549.193,-360.5 495.193,-360.5 495.193,-324.5 549.193,-324.5 549.193,-360.5"/>
<text text-anchor="middle" x="522.193" y="-338.8" font-family="Times New Roman,serif" font-size="14.00">+2</text>
</a>
</g>
</g>
<!-- http://example.org/sum#2&#45;&gt;http://example.org/+2 -->
<g id="edge27" class="edge"><title>http://example.org/sum#2&#45;&gt;http://example.org/+2</title>
<path fill="none" stroke="black" d="M586.387,-279.312C575.196,-290.153 559.957,-304.915 547.136,-317.336"/>
<polygon fill="black" stroke="black" points="544.662,-314.86 539.915,-324.332 549.532,-319.888 544.662,-314.86"/>
<text text-anchor="middle" x="590.039" y="-291.96" font-family="Times New Roman,serif" font-size="8.00">gen</text>
</g>
<!-- &#45;attrs4 -->
<g id="node18" class="node"><title>&#45;attrs4</title>
<polygon fill="none" stroke="gray" points="549.193,-208 433.193,-208 433.193,-159 555.193,-159 555.193,-202 549.193,-208"/>
<polyline fill="none" stroke="gray" points="549.193,-208 549.193,-202 "/>
<polyline fill="none" stroke="gray" points="555.193,-202 549.193,-202 "/>
<text text-anchor="start" x="443.193" y="-193.5" font-family="Times New Roman,serif" font-size="10.00">value:</text>
<text text-anchor="start" x="470.193" y="-193.5" font-family="Times New Roman,serif" font-size="10.00">&quot;1&quot;</text>
<text text-anchor="start" x="443.193" y="-180.5" font-family="Times New Roman,serif" font-size="10.00">type:</text>
<text text-anchor="start" x="470.193" y="-180.5" font-family="Times New Roman,serif" font-size="10.00">&quot;operation&quot;</text>
<text text-anchor="start" x="443.193" y="-167.5" font-family="Times New Roman,serif" font-size="10.00">label:</text>
<text text-anchor="start" x="470.193" y="-167.5" font-family="Times New Roman,serif" font-size="10.00">&quot;disti[k] + distk[j]&quot;</text>
</g>
<!-- &#45;attrs4&#45;&gt;http://example.org/sum#2 -->
<g id="edge19" class="edge"><title>&#45;attrs4&#45;&gt;http://example.org/sum#2</title>
<path fill="none" stroke="gray" stroke-dasharray="5,2" d="M527.183,-208.174C545.297,-221.172 567.147,-236.851 582.58,-247.926"/>
</g>
<!-- &#45;attrs5 -->
<g id="node20" class="node"><title>&#45;attrs5</title>
<polygon fill="none" stroke="gray" points="862.693,-281 655.693,-281 655.693,-245 868.693,-245 868.693,-275 862.693,-281"/>
<polyline fill="none" stroke="gray" points="862.693,-281 862.693,-275 "/>
<polyline fill="none" stroke="gray" points="868.693,-275 862.693,-275 "/>
<text text-anchor="start" x="666.193" y="-267" font-family="Times New Roman,serif" font-size="10.00">generatedAtTime:</text>
<text text-anchor="start" x="741.193" y="-267" font-family="Times New Roman,serif" font-size="10.00">&quot;2018&#45;03&#45;04T18:22:22.824715&quot;</text>
<text text-anchor="start" x="666.193" y="-254" font-family="Times New Roman,serif" font-size="10.00">type:</text>
<text text-anchor="start" x="741.193" y="-254" font-family="Times New Roman,serif" font-size="10.00">&quot;Version&quot;</text>
</g>
<!-- &#45;attrs5&#45;&gt;http://example.org/sum#2_v1 -->
<g id="edge20" class="edge"><title>&#45;attrs5&#45;&gt;http://example.org/sum#2_v1</title>
<path fill="none" stroke="gray" stroke-dasharray="5,2" d="M761.305,-281.2C760.642,-294.043 759.74,-311.517 759.078,-324.348"/>
</g>
<!-- http://example.org/+2&#45;&gt;http://example.org/disti_ak#2 -->
<g id="edge23" class="edge"><title>http://example.org/+2&#45;&gt;http://example.org/disti_ak#2</title>
<path fill="none" stroke="black" d="M495.881,-360.752C492.624,-362.865 489.335,-364.988 486.193,-367 468.529,-378.31 448.71,-390.77 432.553,-400.869"/>
<polygon fill="black" stroke="black" points="430.62,-397.949 423.991,-406.214 434.327,-403.887 430.62,-397.949"/>
<text text-anchor="middle" x="496.656" y="-373.832" font-family="Times New Roman,serif" font-size="8.00">use</text>
</g>
<!-- http://example.org/+2&#45;&gt;http://example.org/distk_aj#2 -->
<g id="edge25" class="edge"><title>http://example.org/+2&#45;&gt;http://example.org/distk_aj#2</title>
<path fill="none" stroke="black" d="M548.019,-360.65C551.419,-362.822 554.874,-364.987 558.193,-367 578.052,-379.05 600.681,-391.823 618.978,-401.92"/>
<polygon fill="black" stroke="black" points="617.397,-405.044 627.847,-406.792 620.768,-398.909 617.397,-405.044"/>
<text text-anchor="middle" x="561.326" y="-351.828" font-family="Times New Roman,serif" font-size="8.00">use</text>
</g>
<!-- &#45;attrs6 -->
<g id="node22" class="node"><title>&#45;attrs6</title>
<polygon fill="none" stroke="gray" points="543.193,-281 491.193,-281 491.193,-245 549.193,-245 549.193,-275 543.193,-281"/>
<polyline fill="none" stroke="gray" points="543.193,-281 543.193,-275 "/>
<polyline fill="none" stroke="gray" points="549.193,-275 543.193,-275 "/>
<text text-anchor="start" x="501.193" y="-260" font-family="Times New Roman,serif" font-size="10.00">type:</text>
<text text-anchor="start" x="524.193" y="-260" font-family="Times New Roman,serif" font-size="10.00">&quot;+&quot;</text>
</g>
<!-- &#45;attrs6&#45;&gt;http://example.org/+2 -->
<g id="edge22" class="edge"><title>&#45;attrs6&#45;&gt;http://example.org/+2</title>
<path fill="none" stroke="gray" stroke-dasharray="5,2" d="M520.636,-281.2C520.968,-294.043 521.419,-311.517 521.75,-324.348"/>
</g>
<!-- http://example.org/ikj#2 -->
<g id="node23" class="node"><title>http://example.org/ikj#2</title>
<g id="a_node23"><a xlink:href="http://example.org/ikj#2" xlink:title="ikj#2">
<ellipse fill="#fffc87" stroke="#808080" cx="667.193" cy="-104" rx="28.6953" ry="18"/>
<text text-anchor="middle" x="667.193" y="-100.3" font-family="Times New Roman,serif" font-size="14.00">ikj#2</text>
</a>
</g>
</g>
<!-- http://example.org/ikj#2&#45;&gt;http://example.org/sum#2 -->
<g id="edge31" class="edge"><title>http://example.org/ikj#2&#45;&gt;http://example.org/sum#2</title>
<path fill="none" stroke="darkgreen" d="M664.643,-122.043C661.082,-143.004 653.508,-179.33 640.193,-208 635.362,-218.4 628.505,-228.918 621.942,-237.873"/>
<polygon fill="darkgreen" stroke="darkgreen" points="619.085,-235.847 615.816,-245.925 624.656,-240.086 619.085,-235.847"/>
<text text-anchor="middle" x="738.693" y="-187.3" font-family="Times New Roman,serif" font-size="14.00">der ref</text>
<text text-anchor="middle" x="738.693" y="-172.3" font-family="Times New Roman,serif" font-size="14.00">2018&#45;03&#45;04T18:22:22.824715</text>
</g>
<!-- http://example.org/assign9 -->
<g id="node25" class="node"><title>http://example.org/assign9</title>
<g id="a_node25"><a xlink:href="http://example.org/assign9" xlink:title="assign9">
<polygon fill="#9fb1fc" stroke="#0000ff" points="631.193,-201.5 573.193,-201.5 573.193,-165.5 631.193,-165.5 631.193,-201.5"/>
<text text-anchor="middle" x="602.193" y="-179.8" font-family="Times New Roman,serif" font-size="14.00">assign9</text>
</a>
</g>
</g>
<!-- http://example.org/ikj#2&#45;&gt;http://example.org/assign9 -->
<g id="edge32" class="edge"><title>http://example.org/ikj#2&#45;&gt;http://example.org/assign9</title>
<path fill="none" stroke="black" d="M654.351,-120.312C645.428,-130.95 633.338,-145.365 623.045,-157.637"/>
<polygon fill="black" stroke="black" points="620.336,-155.421 616.592,-165.332 625.7,-159.919 620.336,-155.421"/>
<text text-anchor="middle" x="659.484" y="-132.506" font-family="Times New Roman,serif" font-size="8.00">gen</text>
</g>
<!-- &#45;attrs7 -->
<g id="node24" class="node"><title>&#45;attrs7</title>
<polygon fill="none" stroke="gray" points="700.193,-49 628.193,-49 628.193,-0 706.193,-0 706.193,-43 700.193,-49"/>
<polyline fill="none" stroke="gray" points="700.193,-49 700.193,-43 "/>
<polyline fill="none" stroke="gray" points="706.193,-43 700.193,-43 "/>
<text text-anchor="start" x="638.193" y="-34.5" font-family="Times New Roman,serif" font-size="10.00">value:</text>
<text text-anchor="start" x="665.193" y="-34.5" font-family="Times New Roman,serif" font-size="10.00">&quot;1&quot;</text>
<text text-anchor="start" x="638.193" y="-21.5" font-family="Times New Roman,serif" font-size="10.00">type:</text>
<text text-anchor="start" x="665.193" y="-21.5" font-family="Times New Roman,serif" font-size="10.00">&quot;name&quot;</text>
<text text-anchor="start" x="638.193" y="-8.5" font-family="Times New Roman,serif" font-size="10.00">label:</text>
<text text-anchor="start" x="665.193" y="-8.5" font-family="Times New Roman,serif" font-size="10.00">&quot;ikj&quot;</text>
</g>
<!-- &#45;attrs7&#45;&gt;http://example.org/ikj#2 -->
<g id="edge28" class="edge"><title>&#45;attrs7&#45;&gt;http://example.org/ikj#2</title>
<path fill="none" stroke="gray" stroke-dasharray="5,2" d="M667.193,-49.1737C667.193,-60.9254 667.193,-74.869 667.193,-85.6196"/>
</g>
<!-- http://example.org/assign9&#45;&gt;http://example.org/sum#2 -->
<g id="edge30" class="edge"><title>http://example.org/assign9&#45;&gt;http://example.org/sum#2</title>
<path fill="none" stroke="black" d="M602.193,-201.7C602.193,-211.432 602.193,-223.824 602.193,-234.84"/>
<polygon fill="black" stroke="black" points="598.693,-234.848 602.193,-244.848 605.693,-234.848 598.693,-234.848"/>
<text text-anchor="middle" x="615.183" y="-207.3" font-family="Times New Roman,serif" font-size="8.00">use</text>
</g>
<!-- &#45;attrs8 -->
<g id="node26" class="node"><title>&#45;attrs8</title>
<polygon fill="none" stroke="gray" points="614.693,-122 541.693,-122 541.693,-86 620.693,-86 620.693,-116 614.693,-122"/>
<polyline fill="none" stroke="gray" points="614.693,-122 614.693,-116 "/>
<polyline fill="none" stroke="gray" points="620.693,-116 614.693,-116 "/>
<text text-anchor="start" x="552.193" y="-101" font-family="Times New Roman,serif" font-size="10.00">type:</text>
<text text-anchor="start" x="575.193" y="-101" font-family="Times New Roman,serif" font-size="10.00">&quot;assign&quot;</text>
</g>
<!-- &#45;attrs8&#45;&gt;http://example.org/assign9 -->
<g id="edge29" class="edge"><title>&#45;attrs8&#45;&gt;http://example.org/assign9</title>
<path fill="none" stroke="gray" stroke-dasharray="5,2" d="M585.853,-122.2C589.333,-135.043 594.068,-152.517 597.545,-165.348"/>
</g>
</g>
</svg>
