<?xml version="1.0" encoding="UTF-8" standalone="no"?>
<!DOCTYPE svg PUBLIC "-//W3C//DTD SVG 1.1//EN"
 "http://www.w3.org/Graphics/SVG/1.1/DTD/svg11.dtd">
<!-- Generated by graphviz version 2.38.0 (20140413.2041)
 -->
<!-- Title: PROV Pages: 1 -->
<svg width="1152pt" height="625pt"
 viewBox="0.00 0.00 1152.00 625.12" xmlns="http://www.w3.org/2000/svg" xmlns:xlink="http://www.w3.org/1999/xlink">
<g id="graph0" class="graph" transform="scale(0.981357 0.981357) rotate(0) translate(4 633)">
<title>PROV</title>
<polygon fill="white" stroke="none" points="-4,4 -4,-633 1169.88,-633 1169.88,4 -4,4"/>
<!-- http://example.org/disti_ak#8 -->
<g id="node1" class="node"><title>http://example.org/disti_ak#8</title>
<g id="a_node1"><a xlink:href="http://example.org/disti_ak#8" xlink:title="disti_ak#8">
<ellipse fill="#fffc87" stroke="#808080" cx="379.193" cy="-422" rx="48.1917" ry="18"/>
<text text-anchor="middle" x="379.193" y="-418.3" font-family="Times New Roman,serif" font-size="14.00">disti_ak#8</text>
</a>
</g>
</g>
<!-- http://example.org/access38 -->
<g id="node3" class="node"><title>http://example.org/access38</title>
<g id="a_node3"><a xlink:href="http://example.org/access38" xlink:title="access38">
<polygon fill="#9fb1fc" stroke="#0000ff" points="483.193,-542 415.193,-542 415.193,-506 483.193,-506 483.193,-542"/>
<text text-anchor="middle" x="449.193" y="-520.3" font-family="Times New Roman,serif" font-size="14.00">access38</text>
</a>
</g>
</g>
<!-- http://example.org/disti_ak#8&#45;&gt;http://example.org/access38 -->
<g id="edge7" class="edge"><title>http://example.org/disti_ak#8&#45;&gt;http://example.org/access38</title>
<path fill="none" stroke="black" d="M409.478,-436.032C419.016,-441.521 428.736,-448.805 435.193,-458 442.837,-468.887 446.436,-483.144 448.083,-495.531"/>
<polygon fill="black" stroke="black" points="444.63,-496.189 449.08,-505.804 451.597,-495.512 444.63,-496.189"/>
<text text-anchor="middle" x="422.56" y="-426.792" font-family="Times New Roman,serif" font-size="8.00">gen</text>
</g>
<!-- bn0 -->
<g id="node6" class="node"><title>bn0</title>
<ellipse fill="black" stroke="black" cx="271.193" cy="-524" rx="1.8" ry="1.8"/>
</g>
<!-- http://example.org/disti_ak#8&#45;&gt;bn0 -->
<g id="edge4" class="edge"><title>http://example.org/disti_ak#8&#45;&gt;bn0</title>
<path fill="none" stroke="darkgreen" d="M331.774,-425.389C308.662,-429.239 282.769,-438.12 268.193,-458 252.695,-479.136 267.751,-515.347 270.71,-521.951"/>
<text text-anchor="middle" x="349.693" y="-476.8" font-family="Times New Roman,serif" font-size="14.00">der ac&#45;r</text>
<text text-anchor="middle" x="349.693" y="-461.8" font-family="Times New Roman,serif" font-size="14.00">2018&#45;03&#45;04T22:00:59.328994</text>
</g>
<!-- &#45;attrs0 -->
<g id="node2" class="node"><title>&#45;attrs0</title>
<polygon fill="none" stroke="gray" points="478.193,-367 400.193,-367 400.193,-318 484.193,-318 484.193,-361 478.193,-367"/>
<polyline fill="none" stroke="gray" points="478.193,-367 478.193,-361 "/>
<polyline fill="none" stroke="gray" points="484.193,-361 478.193,-361 "/>
<text text-anchor="start" x="410.193" y="-352.5" font-family="Times New Roman,serif" font-size="10.00">value:</text>
<text text-anchor="start" x="437.193" y="-352.5" font-family="Times New Roman,serif" font-size="10.00">&quot;2&quot;</text>
<text text-anchor="start" x="410.193" y="-339.5" font-family="Times New Roman,serif" font-size="10.00">type:</text>
<text text-anchor="start" x="437.193" y="-339.5" font-family="Times New Roman,serif" font-size="10.00">&quot;access&quot;</text>
<text text-anchor="start" x="410.193" y="-326.5" font-family="Times New Roman,serif" font-size="10.00">label:</text>
<text text-anchor="start" x="437.193" y="-326.5" font-family="Times New Roman,serif" font-size="10.00">&quot;disti[k]&quot;</text>
</g>
<!-- &#45;attrs0&#45;&gt;http://example.org/disti_ak#8 -->
<g id="edge1" class="edge"><title>&#45;attrs0&#45;&gt;http://example.org/disti_ak#8</title>
<path fill="none" stroke="gray" stroke-dasharray="5,2" d="M422.948,-367.174C413.106,-379.282 401.372,-393.716 392.534,-404.588"/>
</g>
<!-- http://example.org/2 -->
<g id="node5" class="node"><title>http://example.org/2</title>
<ellipse fill="none" stroke="black" cx="83.1926" cy="-611" rx="83.3857" ry="18"/>
<text text-anchor="middle" x="83.1926" y="-607.3" font-family="Times New Roman,serif" font-size="14.00">http://example.org/2</text>
</g>
<!-- http://example.org/access38&#45;&gt;http://example.org/2 -->
<g id="edge3" class="edge"><title>http://example.org/access38&#45;&gt;http://example.org/2</title>
<path fill="none" stroke="black" d="M415.063,-531.277C379.892,-537.884 323.534,-548.853 275.193,-560 230.363,-570.337 180.047,-583.498 142.174,-593.723"/>
<polygon fill="black" stroke="black" points="141.068,-590.396 132.331,-596.389 142.899,-597.153 141.068,-590.396"/>
<text text-anchor="middle" x="410.106" y="-543.534" font-family="Times New Roman,serif" font-size="8.00">use</text>
</g>
<!-- http://example.org/disti#3 -->
<g id="node7" class="node"><title>http://example.org/disti#3</title>
<ellipse fill="none" stroke="black" cx="287.193" cy="-611" rx="102.882" ry="18"/>
<text text-anchor="middle" x="287.193" y="-607.3" font-family="Times New Roman,serif" font-size="14.00">http://example.org/disti#3</text>
</g>
<!-- http://example.org/access38&#45;&gt;http://example.org/disti#3 -->
<g id="edge8" class="edge"><title>http://example.org/access38&#45;&gt;http://example.org/disti#3</title>
<path fill="none" stroke="black" d="M416.41,-542.201C390.659,-555.712 354.688,-574.586 327.235,-588.99"/>
<polygon fill="black" stroke="black" points="325.507,-585.944 318.278,-593.69 328.759,-592.143 325.507,-585.944"/>
<text text-anchor="middle" x="415.804" y="-555.289" font-family="Times New Roman,serif" font-size="8.00">use</text>
</g>
<!-- http://example.org/k -->
<g id="node8" class="node"><title>http://example.org/k</title>
<ellipse fill="none" stroke="black" cx="491.193" cy="-611" rx="83.3857" ry="18"/>
<text text-anchor="middle" x="491.193" y="-607.3" font-family="Times New Roman,serif" font-size="14.00">http://example.org/k</text>
</g>
<!-- http://example.org/access38&#45;&gt;http://example.org/k -->
<g id="edge9" class="edge"><title>http://example.org/access38&#45;&gt;http://example.org/k</title>
<path fill="none" stroke="black" d="M457.692,-542.201C463.556,-554.068 471.464,-570.072 478.124,-583.551"/>
<polygon fill="black" stroke="black" points="475.138,-585.41 482.706,-592.825 481.414,-582.309 475.138,-585.41"/>
<text text-anchor="middle" x="472.661" y="-541.27" font-family="Times New Roman,serif" font-size="8.00">use</text>
</g>
<!-- &#45;attrs1 -->
<g id="node4" class="node"><title>&#45;attrs1</title>
<polygon fill="none" stroke="gray" points="519.193,-440 445.193,-440 445.193,-404 525.193,-404 525.193,-434 519.193,-440"/>
<polyline fill="none" stroke="gray" points="519.193,-440 519.193,-434 "/>
<polyline fill="none" stroke="gray" points="525.193,-434 519.193,-434 "/>
<text text-anchor="start" x="455.193" y="-419" font-family="Times New Roman,serif" font-size="10.00">type:</text>
<text text-anchor="start" x="478.193" y="-419" font-family="Times New Roman,serif" font-size="10.00">&quot;access&quot;</text>
</g>
<!-- &#45;attrs1&#45;&gt;http://example.org/access38 -->
<g id="edge2" class="edge"><title>&#45;attrs1&#45;&gt;http://example.org/access38</title>
<path fill="none" stroke="gray" stroke-dasharray="5,2" d="M479.654,-440.196C475.349,-453.35 469.13,-471.905 463.193,-488 461.018,-493.894 458.506,-500.29 456.215,-505.982"/>
</g>
<!-- bn0&#45;&gt;http://example.org/2 -->
<g id="edge6" class="edge"><title>bn0&#45;&gt;http://example.org/2</title>
<path fill="none" stroke="darkgreen" d="M269.681,-525.379C260.137,-527.794 207.352,-541.544 167.193,-560 149.661,-568.057 131.134,-578.818 115.954,-588.294"/>
<polygon fill="darkgreen" stroke="darkgreen" points="114.008,-585.384 107.436,-593.694 117.756,-591.296 114.008,-585.384"/>
</g>
<!-- bn0&#45;&gt;http://example.org/disti#3 -->
<g id="edge5" class="edge"><title>bn0&#45;&gt;http://example.org/disti#3</title>
<path fill="none" stroke="darkgreen" d="M271.372,-525.955C272.422,-531.528 277.854,-560.391 282.064,-582.755"/>
<polygon fill="darkgreen" stroke="darkgreen" points="278.66,-583.593 283.95,-592.773 285.54,-582.298 278.66,-583.593"/>
<text text-anchor="middle" x="288.193" y="-563.8" font-family="Times New Roman,serif" font-size="14.00">[0]</text>
</g>
<!-- http://example.org/distk_aj#8 -->
<g id="node9" class="node"><title>http://example.org/distk_aj#8</title>
<g id="a_node9"><a xlink:href="http://example.org/distk_aj#8" xlink:title="distk_aj#8">
<ellipse fill="#fffc87" stroke="#808080" cx="672.193" cy="-422" rx="48.1917" ry="18"/>
<text text-anchor="middle" x="672.193" y="-418.3" font-family="Times New Roman,serif" font-size="14.00">distk_aj#8</text>
</a>
</g>
</g>
<!-- http://example.org/access39 -->
<g id="node11" class="node"><title>http://example.org/access39</title>
<g id="a_node11"><a xlink:href="http://example.org/access39" xlink:title="access39">
<polygon fill="#9fb1fc" stroke="#0000ff" points="906.193,-542 838.193,-542 838.193,-506 906.193,-506 906.193,-542"/>
<text text-anchor="middle" x="872.193" y="-520.3" font-family="Times New Roman,serif" font-size="14.00">access39</text>
</a>
</g>
</g>
<!-- http://example.org/distk_aj#8&#45;&gt;http://example.org/access39 -->
<g id="edge16" class="edge"><title>http://example.org/distk_aj#8&#45;&gt;http://example.org/access39</title>
<path fill="none" stroke="black" d="M720.291,-422.952C755.489,-425.2 802.741,-433.217 836.193,-458 849.037,-467.516 857.882,-483.05 863.59,-496.547"/>
<polygon fill="black" stroke="black" points="860.334,-497.832 867.204,-505.898 866.864,-495.309 860.334,-497.832"/>
<text text-anchor="middle" x="728.789" y="-408.691" font-family="Times New Roman,serif" font-size="8.00">gen</text>
</g>
<!-- bn1 -->
<g id="node14" class="node"><title>bn1</title>
<ellipse fill="black" stroke="black" cx="675.193" cy="-524" rx="1.8" ry="1.8"/>
</g>
<!-- http://example.org/distk_aj#8&#45;&gt;bn1 -->
<g id="edge13" class="edge"><title>http://example.org/distk_aj#8&#45;&gt;bn1</title>
<path fill="none" stroke="darkgreen" d="M672.261,-440.112C672.361,-453.222 672.604,-471.759 673.193,-488 673.686,-501.624 674.847,-518.203 675.13,-522.135"/>
<text text-anchor="middle" x="754.693" y="-476.8" font-family="Times New Roman,serif" font-size="14.00">der ac&#45;r</text>
<text text-anchor="middle" x="754.693" y="-461.8" font-family="Times New Roman,serif" font-size="14.00">2018&#45;03&#45;04T22:00:59.328994</text>
</g>
<!-- &#45;attrs2 -->
<g id="node10" class="node"><title>&#45;attrs2</title>
<polygon fill="none" stroke="gray" points="652.193,-367 574.193,-367 574.193,-318 658.193,-318 658.193,-361 652.193,-367"/>
<polyline fill="none" stroke="gray" points="652.193,-367 652.193,-361 "/>
<polyline fill="none" stroke="gray" points="658.193,-361 652.193,-361 "/>
<text text-anchor="start" x="584.193" y="-352.5" font-family="Times New Roman,serif" font-size="10.00">value:</text>
<text text-anchor="start" x="611.193" y="-352.5" font-family="Times New Roman,serif" font-size="10.00">&quot;1&quot;</text>
<text text-anchor="start" x="584.193" y="-339.5" font-family="Times New Roman,serif" font-size="10.00">type:</text>
<text text-anchor="start" x="611.193" y="-339.5" font-family="Times New Roman,serif" font-size="10.00">&quot;access&quot;</text>
<text text-anchor="start" x="584.193" y="-326.5" font-family="Times New Roman,serif" font-size="10.00">label:</text>
<text text-anchor="start" x="611.193" y="-326.5" font-family="Times New Roman,serif" font-size="10.00">&quot;distk[j]&quot;</text>
</g>
<!-- &#45;attrs2&#45;&gt;http://example.org/distk_aj#8 -->
<g id="edge10" class="edge"><title>&#45;attrs2&#45;&gt;http://example.org/distk_aj#8</title>
<path fill="none" stroke="gray" stroke-dasharray="5,2" d="M633.299,-367.174C641.919,-379.104 652.171,-393.292 659.985,-404.106"/>
</g>
<!-- http://example.org/1 -->
<g id="node13" class="node"><title>http://example.org/1</title>
<ellipse fill="none" stroke="black" cx="675.193" cy="-611" rx="83.3857" ry="18"/>
<text text-anchor="middle" x="675.193" y="-607.3" font-family="Times New Roman,serif" font-size="14.00">http://example.org/1</text>
</g>
<!-- http://example.org/access39&#45;&gt;http://example.org/1 -->
<g id="edge12" class="edge"><title>http://example.org/access39&#45;&gt;http://example.org/1</title>
<path fill="none" stroke="black" d="M837.878,-539.806C805.192,-553.909 755.804,-575.218 720.021,-590.658"/>
<polygon fill="black" stroke="black" points="718.57,-587.472 710.775,-594.647 721.344,-593.899 718.57,-587.472"/>
<text text-anchor="middle" x="836.138" y="-552.805" font-family="Times New Roman,serif" font-size="8.00">use</text>
</g>
<!-- http://example.org/distk -->
<g id="node15" class="node"><title>http://example.org/distk</title>
<ellipse fill="none" stroke="black" cx="872.193" cy="-611" rx="96.3833" ry="18"/>
<text text-anchor="middle" x="872.193" y="-607.3" font-family="Times New Roman,serif" font-size="14.00">http://example.org/distk</text>
</g>
<!-- http://example.org/access39&#45;&gt;http://example.org/distk -->
<g id="edge17" class="edge"><title>http://example.org/access39&#45;&gt;http://example.org/distk</title>
<path fill="none" stroke="black" d="M872.193,-542.201C872.193,-553.837 872.193,-569.452 872.193,-582.763"/>
<polygon fill="black" stroke="black" points="868.693,-582.825 872.193,-592.825 875.693,-582.825 868.693,-582.825"/>
<text text-anchor="middle" x="885.183" y="-547.801" font-family="Times New Roman,serif" font-size="8.00">use</text>
</g>
<!-- http://example.org/j#8 -->
<g id="node16" class="node"><title>http://example.org/j#8</title>
<ellipse fill="none" stroke="black" cx="1076.19" cy="-611" rx="89.8845" ry="18"/>
<text text-anchor="middle" x="1076.19" y="-607.3" font-family="Times New Roman,serif" font-size="14.00">http://example.org/j#8</text>
</g>
<!-- http://example.org/access39&#45;&gt;http://example.org/j#8 -->
<g id="edge18" class="edge"><title>http://example.org/access39&#45;&gt;http://example.org/j#8</title>
<path fill="none" stroke="black" d="M906.338,-539.227C940.073,-553.283 991.931,-574.891 1029.47,-590.534"/>
<polygon fill="black" stroke="black" points="1028.6,-593.959 1039.17,-594.575 1031.29,-587.498 1028.6,-593.959"/>
<text text-anchor="middle" x="918.257" y="-528.221" font-family="Times New Roman,serif" font-size="8.00">use</text>
</g>
<!-- &#45;attrs3 -->
<g id="node12" class="node"><title>&#45;attrs3</title>
<polygon fill="none" stroke="gray" points="909.193,-440 835.193,-440 835.193,-404 915.193,-404 915.193,-434 909.193,-440"/>
<polyline fill="none" stroke="gray" points="909.193,-440 909.193,-434 "/>
<polyline fill="none" stroke="gray" points="915.193,-434 909.193,-434 "/>
<text text-anchor="start" x="845.193" y="-419" font-family="Times New Roman,serif" font-size="10.00">type:</text>
<text text-anchor="start" x="868.193" y="-419" font-family="Times New Roman,serif" font-size="10.00">&quot;access&quot;</text>
</g>
<!-- &#45;attrs3&#45;&gt;http://example.org/access39 -->
<g id="edge11" class="edge"><title>&#45;attrs3&#45;&gt;http://example.org/access39</title>
<path fill="none" stroke="gray" stroke-dasharray="5,2" d="M874.67,-440.419C874.119,-458.773 873.258,-487.502 872.709,-505.781"/>
</g>
<!-- bn1&#45;&gt;http://example.org/1 -->
<g id="edge15" class="edge"><title>bn1&#45;&gt;http://example.org/1</title>
<path fill="none" stroke="darkgreen" d="M675.193,-525.955C675.193,-531.528 675.193,-560.391 675.193,-582.755"/>
<polygon fill="darkgreen" stroke="darkgreen" points="671.693,-582.773 675.193,-592.773 678.693,-582.773 671.693,-582.773"/>
</g>
<!-- bn1&#45;&gt;http://example.org/distk -->
<g id="edge14" class="edge"><title>bn1&#45;&gt;http://example.org/distk</title>
<path fill="none" stroke="darkgreen" d="M676.451,-525.543C687.703,-530.398 771.906,-566.729 826.148,-590.133"/>
<polygon fill="darkgreen" stroke="darkgreen" points="825.003,-593.451 835.571,-594.199 827.776,-587.024 825.003,-593.451"/>
<text text-anchor="middle" x="793.193" y="-563.8" font-family="Times New Roman,serif" font-size="14.00">[1]</text>
</g>
<!-- http://example.org/sum#8 -->
<g id="node17" class="node"><title>http://example.org/sum#8</title>
<g id="a_node17"><a xlink:href="http://example.org/sum#8" xlink:title="sum#8">
<ellipse fill="#fffc87" stroke="#808080" cx="609.193" cy="-263" rx="35.194" ry="18"/>
<text text-anchor="middle" x="609.193" y="-259.3" font-family="Times New Roman,serif" font-size="14.00">sum#8</text>
</a>
</g>
</g>
<!-- http://example.org/sum#8&#45;&gt;http://example.org/disti_ak#8 -->
<g id="edge24" class="edge"><title>http://example.org/sum#8&#45;&gt;http://example.org/disti_ak#8</title>
<path fill="none" stroke="black" d="M582.904,-274.94C577.128,-277.123 571.001,-279.272 565.193,-281 489.411,-303.541 444.423,-259.542 391.193,-318 372.776,-338.225 371.994,-370.724 374.4,-393.804"/>
<polygon fill="black" stroke="black" points="370.962,-394.511 375.726,-403.974 377.904,-393.606 370.962,-394.511"/>
<text text-anchor="middle" x="580.443" y="-287.837" font-family="Times New Roman,serif" font-size="8.00">der</text>
</g>
<!-- http://example.org/sum#8&#45;&gt;http://example.org/distk_aj#8 -->
<g id="edge26" class="edge"><title>http://example.org/sum#8&#45;&gt;http://example.org/distk_aj#8</title>
<path fill="none" stroke="black" d="M630.573,-277.498C643.667,-287.059 659.369,-301.155 667.193,-318 678.289,-341.892 678.281,-372.346 676.269,-393.926"/>
<polygon fill="black" stroke="black" points="672.772,-393.698 675.121,-404.029 679.727,-394.489 672.772,-393.698"/>
<text text-anchor="middle" x="644.372" y="-269.718" font-family="Times New Roman,serif" font-size="8.00">der</text>
</g>
<!-- http://example.org/sum#8_v1 -->
<g id="node19" class="node"><title>http://example.org/sum#8_v1</title>
<g id="a_node19"><a xlink:href="http://example.org/sum#8_v1" xlink:title="sum#8_v1">
<ellipse fill="#32cd32" stroke="#808080" cx="765.193" cy="-342.5" rx="48.9926" ry="18"/>
<text text-anchor="middle" x="765.193" y="-338.8" font-family="Times New Roman,serif" font-size="14.00">sum#8_v1</text>
</a>
</g>
</g>
<!-- http://example.org/sum#8&#45;&gt;http://example.org/sum#8_v1 -->
<g id="edge21" class="edge"><title>http://example.org/sum#8&#45;&gt;http://example.org/sum#8_v1</title>
<path fill="none" stroke="black" d="M636.649,-274.623C642.128,-276.738 647.842,-278.942 653.193,-281 674.07,-289.031 680.274,-288.822 700.193,-299 712.319,-305.197 724.994,-313.119 735.898,-320.441"/>
<polygon fill="black" stroke="black" points="733.99,-323.376 744.218,-326.14 737.946,-317.601 733.99,-323.376"/>
<text text-anchor="middle" x="648.325" y="-263.305" font-family="Times New Roman,serif" font-size="8.00">spe</text>
</g>
<!-- http://example.org/+8 -->
<g id="node21" class="node"><title>http://example.org/+8</title>
<g id="a_node21"><a xlink:href="http://example.org/+8" xlink:title="+8">
<polygon fill="#9fb1fc" stroke="#0000ff" points="556.193,-360.5 502.193,-360.5 502.193,-324.5 556.193,-324.5 556.193,-360.5"/>
<text text-anchor="middle" x="529.193" y="-338.8" font-family="Times New Roman,serif" font-size="14.00">+8</text>
</a>
</g>
</g>
<!-- http://example.org/sum#8&#45;&gt;http://example.org/+8 -->
<g id="edge27" class="edge"><title>http://example.org/sum#8&#45;&gt;http://example.org/+8</title>
<path fill="none" stroke="black" d="M593.387,-279.312C582.196,-290.153 566.957,-304.915 554.136,-317.336"/>
<polygon fill="black" stroke="black" points="551.662,-314.86 546.915,-324.332 556.532,-319.888 551.662,-314.86"/>
<text text-anchor="middle" x="597.039" y="-291.96" font-family="Times New Roman,serif" font-size="8.00">gen</text>
</g>
<!-- &#45;attrs4 -->
<g id="node18" class="node"><title>&#45;attrs4</title>
<polygon fill="none" stroke="gray" points="552.193,-208 436.193,-208 436.193,-159 558.193,-159 558.193,-202 552.193,-208"/>
<polyline fill="none" stroke="gray" points="552.193,-208 552.193,-202 "/>
<polyline fill="none" stroke="gray" points="558.193,-202 552.193,-202 "/>
<text text-anchor="start" x="446.193" y="-193.5" font-family="Times New Roman,serif" font-size="10.00">value:</text>
<text text-anchor="start" x="473.193" y="-193.5" font-family="Times New Roman,serif" font-size="10.00">&quot;3&quot;</text>
<text text-anchor="start" x="446.193" y="-180.5" font-family="Times New Roman,serif" font-size="10.00">type:</text>
<text text-anchor="start" x="473.193" y="-180.5" font-family="Times New Roman,serif" font-size="10.00">&quot;operation&quot;</text>
<text text-anchor="start" x="446.193" y="-167.5" font-family="Times New Roman,serif" font-size="10.00">label:</text>
<text text-anchor="start" x="473.193" y="-167.5" font-family="Times New Roman,serif" font-size="10.00">&quot;disti[k] + distk[j]&quot;</text>
</g>
<!-- &#45;attrs4&#45;&gt;http://example.org/sum#8 -->
<g id="edge19" class="edge"><title>&#45;attrs4&#45;&gt;http://example.org/sum#8</title>
<path fill="none" stroke="gray" stroke-dasharray="5,2" d="M531.405,-208.174C550.318,-221.261 573.159,-237.066 589.181,-248.153"/>
</g>
<!-- &#45;attrs5 -->
<g id="node20" class="node"><title>&#45;attrs5</title>
<polygon fill="none" stroke="gray" points="869.693,-281 662.693,-281 662.693,-245 875.693,-245 875.693,-275 869.693,-281"/>
<polyline fill="none" stroke="gray" points="869.693,-281 869.693,-275 "/>
<polyline fill="none" stroke="gray" points="875.693,-275 869.693,-275 "/>
<text text-anchor="start" x="673.193" y="-267" font-family="Times New Roman,serif" font-size="10.00">generatedAtTime:</text>
<text text-anchor="start" x="748.193" y="-267" font-family="Times New Roman,serif" font-size="10.00">&quot;2018&#45;03&#45;04T22:00:59.328994&quot;</text>
<text text-anchor="start" x="673.193" y="-254" font-family="Times New Roman,serif" font-size="10.00">type:</text>
<text text-anchor="start" x="748.193" y="-254" font-family="Times New Roman,serif" font-size="10.00">&quot;Version&quot;</text>
</g>
<!-- &#45;attrs5&#45;&gt;http://example.org/sum#8_v1 -->
<g id="edge20" class="edge"><title>&#45;attrs5&#45;&gt;http://example.org/sum#8_v1</title>
<path fill="none" stroke="gray" stroke-dasharray="5,2" d="M768.305,-281.2C767.642,-294.043 766.74,-311.517 766.078,-324.348"/>
</g>
<!-- http://example.org/+8&#45;&gt;http://example.org/disti_ak#8 -->
<g id="edge23" class="edge"><title>http://example.org/+8&#45;&gt;http://example.org/disti_ak#8</title>
<path fill="none" stroke="black" d="M503.891,-360.627C500.344,-362.847 496.709,-365.031 493.193,-367 469.115,-380.479 441.123,-393.771 418.902,-403.795"/>
<polygon fill="black" stroke="black" points="417.461,-400.605 409.76,-407.882 420.318,-406.996 417.461,-400.605"/>
<text text-anchor="middle" x="504.399" y="-373.718" font-family="Times New Roman,serif" font-size="8.00">use</text>
</g>
<!-- http://example.org/+8&#45;&gt;http://example.org/distk_aj#8 -->
<g id="edge25" class="edge"><title>http://example.org/+8&#45;&gt;http://example.org/distk_aj#8</title>
<path fill="none" stroke="black" d="M554.54,-360.545C558.08,-362.778 561.701,-364.987 565.193,-367 587.549,-379.885 613.353,-392.958 634.02,-403.013"/>
<polygon fill="black" stroke="black" points="632.596,-406.212 643.123,-407.409 635.64,-399.909 632.596,-406.212"/>
<text text-anchor="middle" x="567.804" y="-351.64" font-family="Times New Roman,serif" font-size="8.00">use</text>
</g>
<!-- &#45;attrs6 -->
<g id="node22" class="node"><title>&#45;attrs6</title>
<polygon fill="none" stroke="gray" points="550.193,-281 498.193,-281 498.193,-245 556.193,-245 556.193,-275 550.193,-281"/>
<polyline fill="none" stroke="gray" points="550.193,-281 550.193,-275 "/>
<polyline fill="none" stroke="gray" points="556.193,-275 550.193,-275 "/>
<text text-anchor="start" x="508.193" y="-260" font-family="Times New Roman,serif" font-size="10.00">type:</text>
<text text-anchor="start" x="531.193" y="-260" font-family="Times New Roman,serif" font-size="10.00">&quot;+&quot;</text>
</g>
<!-- &#45;attrs6&#45;&gt;http://example.org/+8 -->
<g id="edge22" class="edge"><title>&#45;attrs6&#45;&gt;http://example.org/+8</title>
<path fill="none" stroke="gray" stroke-dasharray="5,2" d="M527.636,-281.2C527.968,-294.043 528.419,-311.517 528.75,-324.348"/>
</g>
<!-- http://example.org/ikj#8 -->
<g id="node23" class="node"><title>http://example.org/ikj#8</title>
<g id="a_node23"><a xlink:href="http://example.org/ikj#8" xlink:title="ikj#8">
<ellipse fill="#fffc87" stroke="#808080" cx="678.193" cy="-104" rx="28.6953" ry="18"/>
<text text-anchor="middle" x="678.193" y="-100.3" font-family="Times New Roman,serif" font-size="14.00">ikj#8</text>
</a>
</g>
</g>
<!-- http://example.org/ikj#8&#45;&gt;http://example.org/sum#8 -->
<g id="edge31" class="edge"><title>http://example.org/ikj#8&#45;&gt;http://example.org/sum#8</title>
<path fill="none" stroke="darkgreen" d="M675.61,-122.122C671.979,-143.164 664.187,-179.57 650.193,-208 644.859,-218.835 637.216,-229.658 629.97,-238.739"/>
<polygon fill="darkgreen" stroke="darkgreen" points="627.192,-236.606 623.506,-246.539 632.582,-241.073 627.192,-236.606"/>
<text text-anchor="middle" x="749.693" y="-187.3" font-family="Times New Roman,serif" font-size="14.00">der ref</text>
<text text-anchor="middle" x="749.693" y="-172.3" font-family="Times New Roman,serif" font-size="14.00">2018&#45;03&#45;04T22:00:59.328994</text>
</g>
<!-- http://example.org/assign17 -->
<g id="node25" class="node"><title>http://example.org/assign17</title>
<g id="a_node25"><a xlink:href="http://example.org/assign17" xlink:title="assign17">
<polygon fill="#9fb1fc" stroke="#0000ff" points="641.693,-201.5 576.693,-201.5 576.693,-165.5 641.693,-165.5 641.693,-201.5"/>
<text text-anchor="middle" x="609.193" y="-179.8" font-family="Times New Roman,serif" font-size="14.00">assign17</text>
</a>
</g>
</g>
<!-- http://example.org/ikj#8&#45;&gt;http://example.org/assign17 -->
<g id="edge32" class="edge"><title>http://example.org/ikj#8&#45;&gt;http://example.org/assign17</title>
<path fill="none" stroke="black" d="M664.889,-119.943C655.38,-130.623 642.364,-145.243 631.305,-157.663"/>
<polygon fill="black" stroke="black" points="628.413,-155.648 624.378,-165.444 633.641,-160.303 628.413,-155.648"/>
<text text-anchor="middle" x="669.604" y="-132.282" font-family="Times New Roman,serif" font-size="8.00">gen</text>
</g>
<!-- &#45;attrs7 -->
<g id="node24" class="node"><title>&#45;attrs7</title>
<polygon fill="none" stroke="gray" points="711.193,-49 639.193,-49 639.193,-0 717.193,-0 717.193,-43 711.193,-49"/>
<polyline fill="none" stroke="gray" points="711.193,-49 711.193,-43 "/>
<polyline fill="none" stroke="gray" points="717.193,-43 711.193,-43 "/>
<text text-anchor="start" x="649.193" y="-34.5" font-family="Times New Roman,serif" font-size="10.00">value:</text>
<text text-anchor="start" x="676.193" y="-34.5" font-family="Times New Roman,serif" font-size="10.00">&quot;3&quot;</text>
<text text-anchor="start" x="649.193" y="-21.5" font-family="Times New Roman,serif" font-size="10.00">type:</text>
<text text-anchor="start" x="676.193" y="-21.5" font-family="Times New Roman,serif" font-size="10.00">&quot;name&quot;</text>
<text text-anchor="start" x="649.193" y="-8.5" font-family="Times New Roman,serif" font-size="10.00">label:</text>
<text text-anchor="start" x="676.193" y="-8.5" font-family="Times New Roman,serif" font-size="10.00">&quot;ikj&quot;</text>
</g>
<!-- &#45;attrs7&#45;&gt;http://example.org/ikj#8 -->
<g id="edge28" class="edge"><title>&#45;attrs7&#45;&gt;http://example.org/ikj#8</title>
<path fill="none" stroke="gray" stroke-dasharray="5,2" d="M678.193,-49.1737C678.193,-60.9254 678.193,-74.869 678.193,-85.6196"/>
</g>
<!-- http://example.org/assign17&#45;&gt;http://example.org/sum#8 -->
<g id="edge30" class="edge"><title>http://example.org/assign17&#45;&gt;http://example.org/sum#8</title>
<path fill="none" stroke="black" d="M609.193,-201.7C609.193,-211.432 609.193,-223.824 609.193,-234.84"/>
<polygon fill="black" stroke="black" points="605.693,-234.848 609.193,-244.848 612.693,-234.848 605.693,-234.848"/>
<text text-anchor="middle" x="622.183" y="-207.3" font-family="Times New Roman,serif" font-size="8.00">use</text>
</g>
<!-- &#45;attrs8 -->
<g id="node26" class="node"><title>&#45;attrs8</title>
<polygon fill="none" stroke="gray" points="625.693,-122 552.693,-122 552.693,-86 631.693,-86 631.693,-116 625.693,-122"/>
<polyline fill="none" stroke="gray" points="625.693,-122 625.693,-116 "/>
<polyline fill="none" stroke="gray" points="631.693,-116 625.693,-116 "/>
<text text-anchor="start" x="563.193" y="-101" font-family="Times New Roman,serif" font-size="10.00">type:</text>
<text text-anchor="start" x="586.193" y="-101" font-family="Times New Roman,serif" font-size="10.00">&quot;assign&quot;</text>
</g>
<!-- &#45;attrs8&#45;&gt;http://example.org/assign17 -->
<g id="edge29" class="edge"><title>&#45;attrs8&#45;&gt;http://example.org/assign17</title>
<path fill="none" stroke="gray" stroke-dasharray="5,2" d="M595.965,-122.2C598.783,-135.043 602.616,-152.517 605.43,-165.348"/>
</g>
</g>
</svg>
