<?xml version="1.0" encoding="UTF-8" standalone="no"?>
<!DOCTYPE svg PUBLIC "-//W3C//DTD SVG 1.1//EN"
 "http://www.w3.org/Graphics/SVG/1.1/DTD/svg11.dtd">
<!-- Generated by graphviz version 2.38.0 (20140413.2041)
 -->
<!-- Title: PROV Pages: 1 -->
<svg width="599pt" height="319pt"
 viewBox="0.00 0.00 599.38 319.00" xmlns="http://www.w3.org/2000/svg" xmlns:xlink="http://www.w3.org/1999/xlink">
<g id="graph0" class="graph" transform="scale(1 1) rotate(0) translate(4 315)">
<title>PROV</title>
<polygon fill="white" stroke="none" points="-4,4 -4,-315 595.383,-315 595.383,4 -4,4"/>
<!-- http://example.org/disti_aj#4 -->
<g id="node1" class="node"><title>http://example.org/disti_aj#4</title>
<g id="a_node1"><a xlink:href="http://example.org/disti_aj#4" xlink:title="disti_aj#4">
<ellipse fill="#fffc87" stroke="#808080" cx="166.691" cy="-104" rx="46.2923" ry="18"/>
<text text-anchor="middle" x="166.691" y="-100.3" font-family="Times New Roman,serif" font-size="14.00">disti_aj#4</text>
</a>
</g>
</g>
<!-- http://example.org/access22 -->
<g id="node3" class="node"><title>http://example.org/access22</title>
<g id="a_node3"><a xlink:href="http://example.org/access22" xlink:title="access22">
<polygon fill="#9fb1fc" stroke="#0000ff" points="342.691,-224 274.691,-224 274.691,-188 342.691,-188 342.691,-224"/>
<text text-anchor="middle" x="308.691" y="-202.3" font-family="Times New Roman,serif" font-size="14.00">access22</text>
</a>
</g>
</g>
<!-- http://example.org/disti_aj#4&#45;&gt;http://example.org/access22 -->
<g id="edge7" class="edge"><title>http://example.org/disti_aj#4&#45;&gt;http://example.org/access22</title>
<path fill="none" stroke="black" d="M211.027,-109.353C234.49,-113.727 262.361,-122.482 281.691,-140 292.622,-149.907 299.248,-164.925 303.198,-178.031"/>
<polygon fill="black" stroke="black" points="299.891,-179.219 305.823,-187.998 306.66,-177.436 299.891,-179.219"/>
<text text-anchor="middle" x="220.954" y="-96.2078" font-family="Times New Roman,serif" font-size="8.00">gen</text>
</g>
<!-- bn0 -->
<g id="node6" class="node"><title>bn0</title>
<ellipse fill="black" stroke="black" cx="117.691" cy="-206" rx="1.8" ry="1.8"/>
</g>
<!-- http://example.org/disti_aj#4&#45;&gt;bn0 -->
<g id="edge4" class="edge"><title>http://example.org/disti_aj#4&#45;&gt;bn0</title>
<path fill="none" stroke="darkgreen" d="M139.216,-118.624C131.135,-124.09 123.246,-131.209 118.691,-140 106.645,-163.248 115.611,-197.743 117.398,-204.006"/>
<text text-anchor="middle" x="200.191" y="-158.8" font-family="Times New Roman,serif" font-size="14.00">der ac&#45;r</text>
<text text-anchor="middle" x="200.191" y="-143.8" font-family="Times New Roman,serif" font-size="14.00">2018&#45;03&#45;04T18:22:24.311667</text>
</g>
<!-- &#45;attrs0 -->
<g id="node2" class="node"><title>&#45;attrs0</title>
<polygon fill="none" stroke="gray" points="202.691,-49 124.691,-49 124.691,-0 208.691,-0 208.691,-43 202.691,-49"/>
<polyline fill="none" stroke="gray" points="202.691,-49 202.691,-43 "/>
<polyline fill="none" stroke="gray" points="208.691,-43 202.691,-43 "/>
<text text-anchor="start" x="134.691" y="-34.5" font-family="Times New Roman,serif" font-size="10.00">value:</text>
<text text-anchor="start" x="161.691" y="-34.5" font-family="Times New Roman,serif" font-size="10.00">&quot;10000&quot;</text>
<text text-anchor="start" x="134.691" y="-21.5" font-family="Times New Roman,serif" font-size="10.00">type:</text>
<text text-anchor="start" x="161.691" y="-21.5" font-family="Times New Roman,serif" font-size="10.00">&quot;access&quot;</text>
<text text-anchor="start" x="134.691" y="-8.5" font-family="Times New Roman,serif" font-size="10.00">label:</text>
<text text-anchor="start" x="161.691" y="-8.5" font-family="Times New Roman,serif" font-size="10.00">&quot;disti[j]&quot;</text>
</g>
<!-- &#45;attrs0&#45;&gt;http://example.org/disti_aj#4 -->
<g id="edge1" class="edge"><title>&#45;attrs0&#45;&gt;http://example.org/disti_aj#4</title>
<path fill="none" stroke="gray" stroke-dasharray="5,2" d="M166.691,-49.1737C166.691,-60.9254 166.691,-74.869 166.691,-85.6196"/>
</g>
<!-- http://example.org/m -->
<g id="node5" class="node"><title>http://example.org/m</title>
<ellipse fill="none" stroke="black" cx="308.691" cy="-293" rx="85.2851" ry="18"/>
<text text-anchor="middle" x="308.691" y="-289.3" font-family="Times New Roman,serif" font-size="14.00">http://example.org/m</text>
</g>
<!-- http://example.org/access22&#45;&gt;http://example.org/m -->
<g id="edge3" class="edge"><title>http://example.org/access22&#45;&gt;http://example.org/m</title>
<path fill="none" stroke="black" d="M308.691,-224.201C308.691,-235.837 308.691,-251.452 308.691,-264.763"/>
<polygon fill="black" stroke="black" points="305.191,-264.825 308.691,-274.825 312.191,-264.825 305.191,-264.825"/>
<text text-anchor="middle" x="321.681" y="-229.801" font-family="Times New Roman,serif" font-size="8.00">use</text>
</g>
<!-- http://example.org/disti#2 -->
<g id="node7" class="node"><title>http://example.org/disti#2</title>
<ellipse fill="none" stroke="black" cx="102.691" cy="-293" rx="102.882" ry="18"/>
<text text-anchor="middle" x="102.691" y="-289.3" font-family="Times New Roman,serif" font-size="14.00">http://example.org/disti#2</text>
</g>
<!-- http://example.org/access22&#45;&gt;http://example.org/disti#2 -->
<g id="edge8" class="edge"><title>http://example.org/access22&#45;&gt;http://example.org/disti#2</title>
<path fill="none" stroke="black" d="M274.674,-221.036C240.752,-235.033 188.354,-256.654 150.307,-272.353"/>
<polygon fill="black" stroke="black" points="148.872,-269.159 140.963,-276.208 151.542,-275.629 148.872,-269.159"/>
<text text-anchor="middle" x="272.696" y="-234.005" font-family="Times New Roman,serif" font-size="8.00">use</text>
</g>
<!-- http://example.org/j#4 -->
<g id="node8" class="node"><title>http://example.org/j#4</title>
<ellipse fill="none" stroke="black" cx="501.691" cy="-293" rx="89.8845" ry="18"/>
<text text-anchor="middle" x="501.691" y="-289.3" font-family="Times New Roman,serif" font-size="14.00">http://example.org/j#4</text>
</g>
<!-- http://example.org/access22&#45;&gt;http://example.org/j#4 -->
<g id="edge9" class="edge"><title>http://example.org/access22&#45;&gt;http://example.org/j#4</title>
<path fill="none" stroke="black" d="M342.751,-222.001C374.503,-235.985 422.061,-256.93 456.881,-272.265"/>
<polygon fill="black" stroke="black" points="455.777,-275.603 466.34,-276.431 458.599,-269.197 455.777,-275.603"/>
<text text-anchor="middle" x="354.851" y="-211.235" font-family="Times New Roman,serif" font-size="8.00">use</text>
</g>
<!-- &#45;attrs1 -->
<g id="node4" class="node"><title>&#45;attrs1</title>
<polygon fill="none" stroke="gray" points="354.691,-122 280.691,-122 280.691,-86 360.691,-86 360.691,-116 354.691,-122"/>
<polyline fill="none" stroke="gray" points="354.691,-122 354.691,-116 "/>
<polyline fill="none" stroke="gray" points="360.691,-116 354.691,-116 "/>
<text text-anchor="start" x="290.691" y="-101" font-family="Times New Roman,serif" font-size="10.00">type:</text>
<text text-anchor="start" x="313.691" y="-101" font-family="Times New Roman,serif" font-size="10.00">&quot;access&quot;</text>
</g>
<!-- &#45;attrs1&#45;&gt;http://example.org/access22 -->
<g id="edge2" class="edge"><title>&#45;attrs1&#45;&gt;http://example.org/access22</title>
<path fill="none" stroke="gray" stroke-dasharray="5,2" d="M318.601,-122.419C316.398,-140.773 312.951,-169.502 310.757,-187.781"/>
</g>
<!-- bn0&#45;&gt;http://example.org/m -->
<g id="edge6" class="edge"><title>bn0&#45;&gt;http://example.org/m</title>
<path fill="none" stroke="darkgreen" d="M118.911,-207.543C129.828,-212.401 211.569,-248.778 264.154,-272.18"/>
<polygon fill="darkgreen" stroke="darkgreen" points="263.051,-275.52 273.61,-276.388 265.897,-269.125 263.051,-275.52"/>
</g>
<!-- bn0&#45;&gt;http://example.org/disti#2 -->
<g id="edge5" class="edge"><title>bn0&#45;&gt;http://example.org/disti#2</title>
<path fill="none" stroke="darkgreen" d="M117.522,-207.955C116.539,-213.528 111.445,-242.391 107.499,-264.755"/>
<polygon fill="darkgreen" stroke="darkgreen" points="104.022,-264.317 105.731,-274.773 110.916,-265.534 104.022,-264.317"/>
<text text-anchor="middle" x="119.691" y="-245.8" font-family="Times New Roman,serif" font-size="14.00">[0]</text>
</g>
</g>
</svg>
