<?xml version="1.0" encoding="UTF-8" standalone="no"?>
<!DOCTYPE svg PUBLIC "-//W3C//DTD SVG 1.1//EN"
 "http://www.w3.org/Graphics/SVG/1.1/DTD/svg11.dtd">
<!-- Generated by graphviz version 2.38.0 (20140413.2041)
 -->
<!-- Title: PROV Pages: 1 -->
<svg width="901pt" height="479pt"
 viewBox="0.00 0.00 900.63 479.00" xmlns="http://www.w3.org/2000/svg" xmlns:xlink="http://www.w3.org/1999/xlink">
<g id="graph0" class="graph" transform="scale(1 1) rotate(0) translate(4 475)">
<title>PROV</title>
<polygon fill="white" stroke="none" points="-4,4 -4,-475 896.634,-475 896.634,4 -4,4"/>
<!-- http://example.org/disti_aj#9 -->
<g id="node1" class="node"><title>http://example.org/disti_aj#9</title>
<g id="a_node1"><a xlink:href="http://example.org/disti_aj#9" xlink:title="disti_aj#9">
<ellipse fill="#fffc87" stroke="#808080" cx="583.692" cy="-264" rx="46.2923" ry="18"/>
<text text-anchor="middle" x="583.692" y="-260.3" font-family="Times New Roman,serif" font-size="14.00">disti_aj#9</text>
</a>
</g>
</g>
<!-- http://example.org/assign18 -->
<g id="node8" class="node"><title>http://example.org/assign18</title>
<g id="a_node8"><a xlink:href="http://example.org/assign18" xlink:title="assign18">
<polygon fill="#9fb1fc" stroke="#0000ff" points="536.192,-384 471.192,-384 471.192,-348 536.192,-348 536.192,-384"/>
<text text-anchor="middle" x="503.692" y="-362.3" font-family="Times New Roman,serif" font-size="14.00">assign18</text>
</a>
</g>
</g>
<!-- http://example.org/disti_aj#9&#45;&gt;http://example.org/assign18 -->
<g id="edge12" class="edge"><title>http://example.org/disti_aj#9&#45;&gt;http://example.org/assign18</title>
<path fill="none" stroke="black" d="M570.482,-281.513C557.782,-297.388 538.413,-321.599 523.798,-339.867"/>
<polygon fill="black" stroke="black" points="520.973,-337.796 517.459,-347.792 526.439,-342.169 520.973,-337.796"/>
<text text-anchor="middle" x="575.94" y="-293.585" font-family="Times New Roman,serif" font-size="8.00">gen</text>
</g>
<!-- bn1 -->
<g id="node11" class="node"><title>bn1</title>
<ellipse fill="black" stroke="black" cx="583.692" cy="-366" rx="1.8" ry="1.8"/>
</g>
<!-- http://example.org/disti_aj#9&#45;&gt;bn1 -->
<g id="edge9" class="edge"><title>http://example.org/disti_aj#9&#45;&gt;bn1</title>
<path fill="none" stroke="darkgreen" d="M583.692,-282.419C583.692,-308.831 583.692,-356.728 583.692,-364.05"/>
<text text-anchor="middle" x="665.192" y="-318.8" font-family="Times New Roman,serif" font-size="14.00">der ac&#45;w</text>
<text text-anchor="middle" x="665.192" y="-303.8" font-family="Times New Roman,serif" font-size="14.00">2018&#45;03&#45;05T15:32:45.515662</text>
</g>
<!-- &#45;attrs0 -->
<g id="node2" class="node"><title>&#45;attrs0</title>
<polygon fill="none" stroke="gray" points="619.692,-195 541.692,-195 541.692,-146 625.692,-146 625.692,-189 619.692,-195"/>
<polyline fill="none" stroke="gray" points="619.692,-195 619.692,-189 "/>
<polyline fill="none" stroke="gray" points="625.692,-189 619.692,-189 "/>
<text text-anchor="start" x="551.692" y="-180.5" font-family="Times New Roman,serif" font-size="10.00">value:</text>
<text text-anchor="start" x="578.692" y="-180.5" font-family="Times New Roman,serif" font-size="10.00">&quot;3&quot;</text>
<text text-anchor="start" x="551.692" y="-167.5" font-family="Times New Roman,serif" font-size="10.00">type:</text>
<text text-anchor="start" x="578.692" y="-167.5" font-family="Times New Roman,serif" font-size="10.00">&quot;access&quot;</text>
<text text-anchor="start" x="551.692" y="-154.5" font-family="Times New Roman,serif" font-size="10.00">label:</text>
<text text-anchor="start" x="578.692" y="-154.5" font-family="Times New Roman,serif" font-size="10.00">&quot;disti[j]&quot;</text>
</g>
<!-- &#45;attrs0&#45;&gt;http://example.org/disti_aj#9 -->
<g id="edge1" class="edge"><title>&#45;attrs0&#45;&gt;http://example.org/disti_aj#9</title>
<path fill="none" stroke="gray" stroke-dasharray="5,2" d="M583.692,-195.064C583.692,-210.949 583.692,-231.543 583.692,-245.873"/>
</g>
<!-- http://example.org/list2_v2 -->
<g id="node3" class="node"><title>http://example.org/list2_v2</title>
<g id="a_node3"><a xlink:href="http://example.org/list2_v2" xlink:title="list2_v2">
<ellipse fill="#32cd32" stroke="#808080" cx="690.692" cy="-91" rx="38.9931" ry="18"/>
<text text-anchor="middle" x="690.692" y="-87.3" font-family="Times New Roman,serif" font-size="14.00">list2_v2</text>
</a>
</g>
</g>
<!-- bn0 -->
<g id="node5" class="node"><title>bn0</title>
<ellipse fill="black" stroke="black" cx="690.692" cy="-170.5" rx="1.8" ry="1.8"/>
</g>
<!-- http://example.org/list2_v2&#45;&gt;bn0 -->
<g id="edge3" class="edge"><title>http://example.org/list2_v2&#45;&gt;bn0</title>
<path fill="none" stroke="darkgreen" d="M690.692,-109.2C690.692,-129.891 690.692,-162.603 690.692,-168.555"/>
<text text-anchor="middle" x="671.192" y="-113" font-family="Times New Roman,serif" font-size="14.00">der&#45;ins</text>
</g>
<!-- &#45;attrs1 -->
<g id="node4" class="node"><title>&#45;attrs1</title>
<polygon fill="none" stroke="gray" points="683.192,-36 476.192,-36 476.192,-0 689.192,-0 689.192,-30 683.192,-36"/>
<polyline fill="none" stroke="gray" points="683.192,-36 683.192,-30 "/>
<polyline fill="none" stroke="gray" points="689.192,-30 683.192,-30 "/>
<text text-anchor="start" x="486.692" y="-22" font-family="Times New Roman,serif" font-size="10.00">generatedAtTime:</text>
<text text-anchor="start" x="561.692" y="-22" font-family="Times New Roman,serif" font-size="10.00">&quot;2018&#45;03&#45;05T15:32:45.515662&quot;</text>
<text text-anchor="start" x="486.692" y="-9" font-family="Times New Roman,serif" font-size="10.00">type:</text>
<text text-anchor="start" x="561.692" y="-9" font-family="Times New Roman,serif" font-size="10.00">&quot;Version&quot;</text>
</g>
<!-- &#45;attrs1&#45;&gt;http://example.org/list2_v2 -->
<g id="edge2" class="edge"><title>&#45;attrs1&#45;&gt;http://example.org/list2_v2</title>
<path fill="none" stroke="gray" stroke-dasharray="5,2" d="M608.561,-36.0063C627.032,-48.1496 651.597,-64.2985 669.035,-75.7628"/>
</g>
<!-- bn0&#45;&gt;http://example.org/disti_aj#9 -->
<g id="edge5" class="edge"><title>bn0&#45;&gt;http://example.org/disti_aj#9</title>
<path fill="none" stroke="darkgreen" d="M689.49,-172.528C681.767,-179.132 638.527,-216.109 609.771,-240.699"/>
<polygon fill="darkgreen" stroke="darkgreen" points="607.411,-238.111 602.086,-247.271 611.961,-243.431 607.411,-238.111"/>
<text text-anchor="middle" x="648.692" y="-216.8" font-family="Times New Roman,serif" font-size="14.00">[1]</text>
</g>
<!-- http://example.org/list2_v1 -->
<g id="node6" class="node"><title>http://example.org/list2_v1</title>
<ellipse fill="none" stroke="black" cx="754.692" cy="-264" rx="106.681" ry="18"/>
<text text-anchor="middle" x="754.692" y="-260.3" font-family="Times New Roman,serif" font-size="14.00">http://example.org/list2_v1</text>
</g>
<!-- bn0&#45;&gt;http://example.org/list2_v1 -->
<g id="edge4" class="edge"><title>bn0&#45;&gt;http://example.org/list2_v1</title>
<path fill="none" stroke="darkgreen" d="M691.411,-172.528C695.838,-178.858 719.782,-213.09 736.908,-237.574"/>
<polygon fill="darkgreen" stroke="darkgreen" points="734.26,-239.896 742.86,-246.084 739.997,-235.884 734.26,-239.896"/>
<text text-anchor="middle" x="738.192" y="-216.8" font-family="Times New Roman,serif" font-size="14.00">der</text>
</g>
<!-- http://example.org/list2 -->
<g id="node7" class="node"><title>http://example.org/list2</title>
<ellipse fill="none" stroke="black" cx="799.692" cy="-18" rx="92.8835" ry="18"/>
<text text-anchor="middle" x="799.692" y="-14.3" font-family="Times New Roman,serif" font-size="14.00">http://example.org/list2</text>
</g>
<!-- http://example.org/list2&#45;&gt;http://example.org/list2_v2 -->
<g id="edge6" class="edge"><title>http://example.org/list2&#45;&gt;http://example.org/list2_v2</title>
<path fill="none" stroke="black" d="M774.411,-35.4673C758.452,-45.8628 737.747,-59.3498 720.92,-70.31"/>
<polygon fill="black" stroke="black" points="718.989,-67.3907 712.521,-75.7814 722.81,-73.2561 718.989,-67.3907"/>
<text text-anchor="middle" x="775.217" y="-48.5456" font-family="Times New Roman,serif" font-size="8.00">spe</text>
</g>
<!-- http://example.org/ikj#8 -->
<g id="node10" class="node"><title>http://example.org/ikj#8</title>
<ellipse fill="none" stroke="black" cx="538.692" cy="-453" rx="96.3833" ry="18"/>
<text text-anchor="middle" x="538.692" y="-449.3" font-family="Times New Roman,serif" font-size="14.00">http://example.org/ikj#8</text>
</g>
<!-- http://example.org/assign18&#45;&gt;http://example.org/ikj#8 -->
<g id="edge8" class="edge"><title>http://example.org/assign18&#45;&gt;http://example.org/ikj#8</title>
<path fill="none" stroke="black" d="M510.775,-384.201C515.661,-396.068 522.251,-412.072 527.801,-425.551"/>
<polygon fill="black" stroke="black" points="524.576,-426.91 531.62,-434.825 531.049,-424.245 524.576,-426.91"/>
<text text-anchor="middle" x="525.642" y="-384.29" font-family="Times New Roman,serif" font-size="8.00">use</text>
</g>
<!-- http://example.org/disti#3 -->
<g id="node12" class="node"><title>http://example.org/disti#3</title>
<ellipse fill="none" stroke="black" cx="755.692" cy="-453" rx="102.882" ry="18"/>
<text text-anchor="middle" x="755.692" y="-449.3" font-family="Times New Roman,serif" font-size="14.00">http://example.org/disti#3</text>
</g>
<!-- http://example.org/assign18&#45;&gt;http://example.org/disti#3 -->
<g id="edge13" class="edge"><title>http://example.org/assign18&#45;&gt;http://example.org/disti#3</title>
<path fill="none" stroke="black" d="M536.378,-378.025C577.954,-392.049 650.366,-416.473 700.553,-433.402"/>
<polygon fill="black" stroke="black" points="699.684,-436.802 710.278,-436.682 701.922,-430.169 699.684,-436.802"/>
<text text-anchor="middle" x="547.637" y="-366.213" font-family="Times New Roman,serif" font-size="8.00">use</text>
</g>
<!-- http://example.org/j#8 -->
<g id="node13" class="node"><title>http://example.org/j#8</title>
<ellipse fill="none" stroke="black" cx="89.692" cy="-453" rx="89.8845" ry="18"/>
<text text-anchor="middle" x="89.692" y="-449.3" font-family="Times New Roman,serif" font-size="14.00">http://example.org/j#8</text>
</g>
<!-- http://example.org/assign18&#45;&gt;http://example.org/j#8 -->
<g id="edge14" class="edge"><title>http://example.org/assign18&#45;&gt;http://example.org/j#8</title>
<path fill="none" stroke="black" d="M470.86,-373.741C403.945,-387.479 250.483,-418.987 160.01,-437.563"/>
<polygon fill="black" stroke="black" points="159.2,-434.156 150.108,-439.596 160.608,-441.013 159.2,-434.156"/>
<text text-anchor="middle" x="466.126" y="-386.074" font-family="Times New Roman,serif" font-size="8.00">use</text>
</g>
<!-- http://example.org/disti_aj#8 -->
<g id="node14" class="node"><title>http://example.org/disti_aj#8</title>
<ellipse fill="none" stroke="black" cx="310.692" cy="-453" rx="113.98" ry="18"/>
<text text-anchor="middle" x="310.692" y="-449.3" font-family="Times New Roman,serif" font-size="14.00">http://example.org/disti_aj#8</text>
</g>
<!-- http://example.org/assign18&#45;&gt;http://example.org/disti_aj#8 -->
<g id="edge15" class="edge"><title>http://example.org/assign18&#45;&gt;http://example.org/disti_aj#8</title>
<path fill="none" stroke="black" d="M470.952,-381.419C439.593,-395.23 391.974,-416.202 356.787,-431.699"/>
<polygon fill="black" stroke="black" points="354.956,-428.681 347.215,-435.915 357.778,-435.087 354.956,-428.681"/>
<text text-anchor="middle" x="469.324" y="-394.43" font-family="Times New Roman,serif" font-size="8.00">use</text>
</g>
<!-- &#45;attrs2 -->
<g id="node9" class="node"><title>&#45;attrs2</title>
<polygon fill="none" stroke="gray" points="513.192,-282 440.192,-282 440.192,-246 519.192,-246 519.192,-276 513.192,-282"/>
<polyline fill="none" stroke="gray" points="513.192,-282 513.192,-276 "/>
<polyline fill="none" stroke="gray" points="519.192,-276 513.192,-276 "/>
<text text-anchor="start" x="450.692" y="-261" font-family="Times New Roman,serif" font-size="10.00">type:</text>
<text text-anchor="start" x="473.692" y="-261" font-family="Times New Roman,serif" font-size="10.00">&quot;assign&quot;</text>
</g>
<!-- &#45;attrs2&#45;&gt;http://example.org/assign18 -->
<g id="edge7" class="edge"><title>&#45;attrs2&#45;&gt;http://example.org/assign18</title>
<path fill="none" stroke="gray" stroke-dasharray="5,2" d="M483.873,-282.419C488.278,-300.773 495.173,-329.502 499.559,-347.781"/>
</g>
<!-- bn1&#45;&gt;http://example.org/ikj#8 -->
<g id="edge11" class="edge"><title>bn1&#45;&gt;http://example.org/ikj#8</title>
<path fill="none" stroke="darkgreen" d="M583.187,-367.955C580.196,-373.604 564.539,-403.179 552.636,-425.662"/>
<polygon fill="darkgreen" stroke="darkgreen" points="549.398,-424.298 547.812,-434.773 555.584,-427.573 549.398,-424.298"/>
</g>
<!-- bn1&#45;&gt;http://example.org/disti#3 -->
<g id="edge10" class="edge"><title>bn1&#45;&gt;http://example.org/disti#3</title>
<path fill="none" stroke="darkgreen" d="M584.79,-367.543C594.5,-372.341 666.425,-407.886 713.821,-431.308"/>
<polygon fill="darkgreen" stroke="darkgreen" points="712.432,-434.526 722.948,-435.818 715.534,-428.25 712.432,-434.526"/>
<text text-anchor="middle" x="688.692" y="-405.8" font-family="Times New Roman,serif" font-size="14.00">[1]</text>
</g>
</g>
</svg>
