<?xml version="1.0" encoding="UTF-8" standalone="no"?>
<!DOCTYPE svg PUBLIC "-//W3C//DTD SVG 1.1//EN"
 "http://www.w3.org/Graphics/SVG/1.1/DTD/svg11.dtd">
<!-- Generated by graphviz version 2.38.0 (20140413.2041)
 -->
<!-- Title: PROV Pages: 1 -->
<svg width="1152pt" height="570pt"
 viewBox="0.00 0.00 1152.00 569.65" xmlns="http://www.w3.org/2000/svg" xmlns:xlink="http://www.w3.org/1999/xlink">
<g id="graph0" class="graph" transform="scale(0.819637 0.819637) rotate(0) translate(4 691)">
<title>PROV</title>
<polygon fill="white" stroke="none" points="-4,4 -4,-691 1401.5,-691 1401.5,4 -4,4"/>
<!-- http://example.org/0 -->
<g id="node1" class="node"><title>http://example.org/0</title>
<g id="a_node1"><a xlink:href="http://example.org/0" xlink:title="0">
<ellipse fill="#fffc87" stroke="#808080" cx="750.5" cy="-596" rx="27" ry="18"/>
<text text-anchor="middle" x="750.5" y="-592.3" font-family="Times New Roman,serif" font-size="14.00">0</text>
</a>
</g>
</g>
<!-- http://example.org/0_v1 -->
<g id="node3" class="node"><title>http://example.org/0_v1</title>
<g id="a_node3"><a xlink:href="http://example.org/0_v1" xlink:title="0_v1">
<ellipse fill="#32cd32" stroke="#808080" cx="643.5" cy="-669" rx="28.6953" ry="18"/>
<text text-anchor="middle" x="643.5" y="-665.3" font-family="Times New Roman,serif" font-size="14.00">0_v1</text>
</a>
</g>
</g>
<!-- http://example.org/0&#45;&gt;http://example.org/0_v1 -->
<g id="edge3" class="edge"><title>http://example.org/0&#45;&gt;http://example.org/0_v1</title>
<path fill="none" stroke="black" d="M731.862,-609.367C715.115,-620.48 690.295,-636.949 671.22,-649.606"/>
<polygon fill="black" stroke="black" points="669.042,-646.851 662.645,-655.296 672.913,-652.684 669.042,-646.851"/>
<text text-anchor="middle" x="732.795" y="-622.438" font-family="Times New Roman,serif" font-size="8.00">spe</text>
</g>
<!-- &#45;attrs0 -->
<g id="node2" class="node"><title>&#45;attrs0</title>
<polygon fill="none" stroke="gray" points="783.5,-527 711.5,-527 711.5,-491 789.5,-491 789.5,-521 783.5,-527"/>
<polyline fill="none" stroke="gray" points="783.5,-527 783.5,-521 "/>
<polyline fill="none" stroke="gray" points="789.5,-521 783.5,-521 "/>
<text text-anchor="start" x="721.5" y="-513" font-family="Times New Roman,serif" font-size="10.00">value:</text>
<text text-anchor="start" x="748.5" y="-513" font-family="Times New Roman,serif" font-size="10.00">&quot;0&quot;</text>
<text text-anchor="start" x="721.5" y="-500" font-family="Times New Roman,serif" font-size="10.00">type:</text>
<text text-anchor="start" x="748.5" y="-500" font-family="Times New Roman,serif" font-size="10.00">&quot;literal&quot;</text>
</g>
<!-- &#45;attrs0&#45;&gt;http://example.org/0 -->
<g id="edge1" class="edge"><title>&#45;attrs0&#45;&gt;http://example.org/0</title>
<path fill="none" stroke="gray" stroke-dasharray="5,2" d="M750.5,-527.201C750.5,-541.948 750.5,-563.085 750.5,-577.825"/>
</g>
<!-- &#45;attrs1 -->
<g id="node4" class="node"><title>&#45;attrs1</title>
<polygon fill="none" stroke="gray" points="699,-614 492,-614 492,-578 705,-578 705,-608 699,-614"/>
<polyline fill="none" stroke="gray" points="699,-614 699,-608 "/>
<polyline fill="none" stroke="gray" points="705,-608 699,-608 "/>
<text text-anchor="start" x="502.5" y="-600" font-family="Times New Roman,serif" font-size="10.00">generatedAtTime:</text>
<text text-anchor="start" x="577.5" y="-600" font-family="Times New Roman,serif" font-size="10.00">&quot;2018&#45;03&#45;04T18:22:20.105594&quot;</text>
<text text-anchor="start" x="502.5" y="-587" font-family="Times New Roman,serif" font-size="10.00">type:</text>
<text text-anchor="start" x="577.5" y="-587" font-family="Times New Roman,serif" font-size="10.00">&quot;Version&quot;</text>
</g>
<!-- &#45;attrs1&#45;&gt;http://example.org/0_v1 -->
<g id="edge2" class="edge"><title>&#45;attrs1&#45;&gt;http://example.org/0_v1</title>
<path fill="none" stroke="gray" stroke-dasharray="5,2" d="M609.393,-614.187C616.676,-625.678 626.194,-640.695 633.324,-651.944"/>
</g>
<!-- http://example.org/1 -->
<g id="node5" class="node"><title>http://example.org/1</title>
<g id="a_node5"><a xlink:href="http://example.org/1" xlink:title="1">
<ellipse fill="#fffc87" stroke="#808080" cx="1054.5" cy="-596" rx="27" ry="18"/>
<text text-anchor="middle" x="1054.5" y="-592.3" font-family="Times New Roman,serif" font-size="14.00">1</text>
</a>
</g>
</g>
<!-- http://example.org/1_v1 -->
<g id="node7" class="node"><title>http://example.org/1_v1</title>
<g id="a_node7"><a xlink:href="http://example.org/1_v1" xlink:title="1_v1">
<ellipse fill="#32cd32" stroke="#808080" cx="940.5" cy="-669" rx="28.6953" ry="18"/>
<text text-anchor="middle" x="940.5" y="-665.3" font-family="Times New Roman,serif" font-size="14.00">1_v1</text>
</a>
</g>
</g>
<!-- http://example.org/1&#45;&gt;http://example.org/1_v1 -->
<g id="edge6" class="edge"><title>http://example.org/1&#45;&gt;http://example.org/1_v1</title>
<path fill="none" stroke="black" d="M1035.42,-608.884C1017.2,-620.232 989.517,-637.472 968.742,-650.411"/>
<polygon fill="black" stroke="black" points="966.663,-647.582 960.025,-655.839 970.364,-653.524 966.663,-647.582"/>
<text text-anchor="middle" x="1035.92" y="-621.975" font-family="Times New Roman,serif" font-size="8.00">spe</text>
</g>
<!-- &#45;attrs2 -->
<g id="node6" class="node"><title>&#45;attrs2</title>
<polygon fill="none" stroke="gray" points="1098.5,-527 1026.5,-527 1026.5,-491 1104.5,-491 1104.5,-521 1098.5,-527"/>
<polyline fill="none" stroke="gray" points="1098.5,-527 1098.5,-521 "/>
<polyline fill="none" stroke="gray" points="1104.5,-521 1098.5,-521 "/>
<text text-anchor="start" x="1036.5" y="-513" font-family="Times New Roman,serif" font-size="10.00">value:</text>
<text text-anchor="start" x="1063.5" y="-513" font-family="Times New Roman,serif" font-size="10.00">&quot;1&quot;</text>
<text text-anchor="start" x="1036.5" y="-500" font-family="Times New Roman,serif" font-size="10.00">type:</text>
<text text-anchor="start" x="1063.5" y="-500" font-family="Times New Roman,serif" font-size="10.00">&quot;literal&quot;</text>
</g>
<!-- &#45;attrs2&#45;&gt;http://example.org/1 -->
<g id="edge4" class="edge"><title>&#45;attrs2&#45;&gt;http://example.org/1</title>
<path fill="none" stroke="gray" stroke-dasharray="5,2" d="M1063.27,-527.201C1061.37,-541.948 1058.63,-563.085 1056.72,-577.825"/>
</g>
<!-- &#45;attrs3 -->
<g id="node8" class="node"><title>&#45;attrs3</title>
<polygon fill="none" stroke="gray" points="1003,-614 796,-614 796,-578 1009,-578 1009,-608 1003,-614"/>
<polyline fill="none" stroke="gray" points="1003,-614 1003,-608 "/>
<polyline fill="none" stroke="gray" points="1009,-608 1003,-608 "/>
<text text-anchor="start" x="806.5" y="-600" font-family="Times New Roman,serif" font-size="10.00">generatedAtTime:</text>
<text text-anchor="start" x="881.5" y="-600" font-family="Times New Roman,serif" font-size="10.00">&quot;2018&#45;03&#45;04T18:22:20.105594&quot;</text>
<text text-anchor="start" x="806.5" y="-587" font-family="Times New Roman,serif" font-size="10.00">type:</text>
<text text-anchor="start" x="881.5" y="-587" font-family="Times New Roman,serif" font-size="10.00">&quot;Version&quot;</text>
</g>
<!-- &#45;attrs3&#45;&gt;http://example.org/1_v1 -->
<g id="edge5" class="edge"><title>&#45;attrs3&#45;&gt;http://example.org/1_v1</title>
<path fill="none" stroke="gray" stroke-dasharray="5,2" d="M911.699,-614.187C917.761,-625.514 925.657,-640.267 931.648,-651.46"/>
</g>
<!-- http://example.org/2 -->
<g id="node9" class="node"><title>http://example.org/2</title>
<g id="a_node9"><a xlink:href="http://example.org/2" xlink:title="2">
<ellipse fill="#fffc87" stroke="#808080" cx="258.5" cy="-596" rx="27" ry="18"/>
<text text-anchor="middle" x="258.5" y="-592.3" font-family="Times New Roman,serif" font-size="14.00">2</text>
</a>
</g>
</g>
<!-- http://example.org/2_v1 -->
<g id="node11" class="node"><title>http://example.org/2_v1</title>
<g id="a_node11"><a xlink:href="http://example.org/2_v1" xlink:title="2_v1">
<ellipse fill="#32cd32" stroke="#808080" cx="150.5" cy="-669" rx="28.6953" ry="18"/>
<text text-anchor="middle" x="150.5" y="-665.3" font-family="Times New Roman,serif" font-size="14.00">2_v1</text>
</a>
</g>
</g>
<!-- http://example.org/2&#45;&gt;http://example.org/2_v1 -->
<g id="edge9" class="edge"><title>http://example.org/2&#45;&gt;http://example.org/2_v1</title>
<path fill="none" stroke="black" d="M239.688,-609.367C222.707,-620.53 197.505,-637.098 178.218,-649.778"/>
<polygon fill="black" stroke="black" points="176.257,-646.878 169.824,-655.296 180.103,-652.728 176.257,-646.878"/>
<text text-anchor="middle" x="240.557" y="-622.442" font-family="Times New Roman,serif" font-size="8.00">spe</text>
</g>
<!-- &#45;attrs4 -->
<g id="node10" class="node"><title>&#45;attrs4</title>
<polygon fill="none" stroke="gray" points="291.5,-527 219.5,-527 219.5,-491 297.5,-491 297.5,-521 291.5,-527"/>
<polyline fill="none" stroke="gray" points="291.5,-527 291.5,-521 "/>
<polyline fill="none" stroke="gray" points="297.5,-521 291.5,-521 "/>
<text text-anchor="start" x="229.5" y="-513" font-family="Times New Roman,serif" font-size="10.00">value:</text>
<text text-anchor="start" x="256.5" y="-513" font-family="Times New Roman,serif" font-size="10.00">&quot;2&quot;</text>
<text text-anchor="start" x="229.5" y="-500" font-family="Times New Roman,serif" font-size="10.00">type:</text>
<text text-anchor="start" x="256.5" y="-500" font-family="Times New Roman,serif" font-size="10.00">&quot;literal&quot;</text>
</g>
<!-- &#45;attrs4&#45;&gt;http://example.org/2 -->
<g id="edge7" class="edge"><title>&#45;attrs4&#45;&gt;http://example.org/2</title>
<path fill="none" stroke="gray" stroke-dasharray="5,2" d="M258.5,-527.201C258.5,-541.948 258.5,-563.085 258.5,-577.825"/>
</g>
<!-- &#45;attrs5 -->
<g id="node12" class="node"><title>&#45;attrs5</title>
<polygon fill="none" stroke="gray" points="207,-614 0,-614 0,-578 213,-578 213,-608 207,-614"/>
<polyline fill="none" stroke="gray" points="207,-614 207,-608 "/>
<polyline fill="none" stroke="gray" points="213,-608 207,-608 "/>
<text text-anchor="start" x="10.5" y="-600" font-family="Times New Roman,serif" font-size="10.00">generatedAtTime:</text>
<text text-anchor="start" x="85.5" y="-600" font-family="Times New Roman,serif" font-size="10.00">&quot;2018&#45;03&#45;04T18:22:20.105594&quot;</text>
<text text-anchor="start" x="10.5" y="-587" font-family="Times New Roman,serif" font-size="10.00">type:</text>
<text text-anchor="start" x="85.5" y="-587" font-family="Times New Roman,serif" font-size="10.00">&quot;Version&quot;</text>
</g>
<!-- &#45;attrs5&#45;&gt;http://example.org/2_v1 -->
<g id="edge8" class="edge"><title>&#45;attrs5&#45;&gt;http://example.org/2_v1</title>
<path fill="none" stroke="gray" stroke-dasharray="5,2" d="M117.151,-614.187C124.273,-625.678 133.579,-640.695 140.55,-651.944"/>
</g>
<!-- http://example.org/4 -->
<g id="node13" class="node"><title>http://example.org/4</title>
<g id="a_node13"><a xlink:href="http://example.org/4" xlink:title="4">
<ellipse fill="#fffc87" stroke="#808080" cx="1358.5" cy="-596" rx="27" ry="18"/>
<text text-anchor="middle" x="1358.5" y="-592.3" font-family="Times New Roman,serif" font-size="14.00">4</text>
</a>
</g>
</g>
<!-- http://example.org/4_v1 -->
<g id="node15" class="node"><title>http://example.org/4_v1</title>
<g id="a_node15"><a xlink:href="http://example.org/4_v1" xlink:title="4_v1">
<ellipse fill="#32cd32" stroke="#808080" cx="1218.5" cy="-669" rx="28.6953" ry="18"/>
<text text-anchor="middle" x="1218.5" y="-665.3" font-family="Times New Roman,serif" font-size="14.00">4_v1</text>
</a>
</g>
</g>
<!-- http://example.org/4&#45;&gt;http://example.org/4_v1 -->
<g id="edge12" class="edge"><title>http://example.org/4&#45;&gt;http://example.org/4_v1</title>
<path fill="none" stroke="black" d="M1337.54,-607.629C1314.07,-619.533 1275.81,-638.935 1249.02,-652.523"/>
<polygon fill="black" stroke="black" points="1247.4,-649.42 1240.06,-657.064 1250.57,-655.663 1247.4,-649.42"/>
<text text-anchor="middle" x="1336.73" y="-620.707" font-family="Times New Roman,serif" font-size="8.00">spe</text>
</g>
<!-- &#45;attrs6 -->
<g id="node14" class="node"><title>&#45;attrs6</title>
<polygon fill="none" stroke="gray" points="1391.5,-527 1319.5,-527 1319.5,-491 1397.5,-491 1397.5,-521 1391.5,-527"/>
<polyline fill="none" stroke="gray" points="1391.5,-527 1391.5,-521 "/>
<polyline fill="none" stroke="gray" points="1397.5,-521 1391.5,-521 "/>
<text text-anchor="start" x="1329.5" y="-513" font-family="Times New Roman,serif" font-size="10.00">value:</text>
<text text-anchor="start" x="1356.5" y="-513" font-family="Times New Roman,serif" font-size="10.00">&quot;4&quot;</text>
<text text-anchor="start" x="1329.5" y="-500" font-family="Times New Roman,serif" font-size="10.00">type:</text>
<text text-anchor="start" x="1356.5" y="-500" font-family="Times New Roman,serif" font-size="10.00">&quot;literal&quot;</text>
</g>
<!-- &#45;attrs6&#45;&gt;http://example.org/4 -->
<g id="edge10" class="edge"><title>&#45;attrs6&#45;&gt;http://example.org/4</title>
<path fill="none" stroke="gray" stroke-dasharray="5,2" d="M1358.5,-527.201C1358.5,-541.948 1358.5,-563.085 1358.5,-577.825"/>
</g>
<!-- &#45;attrs7 -->
<g id="node16" class="node"><title>&#45;attrs7</title>
<polygon fill="none" stroke="gray" points="1307,-614 1100,-614 1100,-578 1313,-578 1313,-608 1307,-614"/>
<polyline fill="none" stroke="gray" points="1307,-614 1307,-608 "/>
<polyline fill="none" stroke="gray" points="1313,-608 1307,-608 "/>
<text text-anchor="start" x="1110.5" y="-600" font-family="Times New Roman,serif" font-size="10.00">generatedAtTime:</text>
<text text-anchor="start" x="1185.5" y="-600" font-family="Times New Roman,serif" font-size="10.00">&quot;2018&#45;03&#45;04T18:22:20.105594&quot;</text>
<text text-anchor="start" x="1110.5" y="-587" font-family="Times New Roman,serif" font-size="10.00">type:</text>
<text text-anchor="start" x="1185.5" y="-587" font-family="Times New Roman,serif" font-size="10.00">&quot;Version&quot;</text>
</g>
<!-- &#45;attrs7&#45;&gt;http://example.org/4_v1 -->
<g id="edge11" class="edge"><title>&#45;attrs7&#45;&gt;http://example.org/4_v1</title>
<path fill="none" stroke="gray" stroke-dasharray="5,2" d="M1209.4,-614.187C1211.29,-625.35 1213.74,-639.84 1215.62,-650.971"/>
</g>
<!-- http://example.org/list -->
<g id="node17" class="node"><title>http://example.org/list</title>
<g id="a_node17"><a xlink:href="http://example.org/list" xlink:title="list">
<ellipse fill="#fffc87" stroke="#808080" cx="668.5" cy="-263" rx="27" ry="18"/>
<text text-anchor="middle" x="668.5" y="-259.3" font-family="Times New Roman,serif" font-size="14.00">list</text>
</a>
</g>
</g>
<!-- http://example.org/list_v1 -->
<g id="node19" class="node"><title>http://example.org/list_v1</title>
<g id="a_node19"><a xlink:href="http://example.org/list_v1" xlink:title="list_v1">
<ellipse fill="#32cd32" stroke="#808080" cx="744.5" cy="-342.5" rx="34.394" ry="18"/>
<text text-anchor="middle" x="744.5" y="-338.8" font-family="Times New Roman,serif" font-size="14.00">list_v1</text>
</a>
</g>
</g>
<!-- http://example.org/list&#45;&gt;http://example.org/list_v1 -->
<g id="edge15" class="edge"><title>http://example.org/list&#45;&gt;http://example.org/list_v1</title>
<path fill="none" stroke="black" d="M682.795,-278.577C693.938,-289.94 709.608,-305.919 722.368,-318.932"/>
<polygon fill="black" stroke="black" points="719.988,-321.504 729.489,-326.193 724.986,-316.602 719.988,-321.504"/>
<text text-anchor="middle" x="697.321" y="-272.937" font-family="Times New Roman,serif" font-size="8.00">spe</text>
</g>
<!-- &#45;attrs8 -->
<g id="node18" class="node"><title>&#45;attrs8</title>
<polygon fill="none" stroke="gray" points="550,-208 363,-208 363,-159 556,-159 556,-202 550,-208"/>
<polyline fill="none" stroke="gray" points="550,-208 550,-202 "/>
<polyline fill="none" stroke="gray" points="556,-202 550,-202 "/>
<text text-anchor="start" x="373.5" y="-193.5" font-family="Times New Roman,serif" font-size="10.00">value:</text>
<text text-anchor="start" x="400.5" y="-193.5" font-family="Times New Roman,serif" font-size="10.00">&quot;[[0, 1, 4], [10000, 0, 2], [2, 10000, 0]]&quot;</text>
<text text-anchor="start" x="373.5" y="-180.5" font-family="Times New Roman,serif" font-size="10.00">type:</text>
<text text-anchor="start" x="400.5" y="-180.5" font-family="Times New Roman,serif" font-size="10.00">&quot;list&quot;</text>
<text text-anchor="start" x="373.5" y="-167.5" font-family="Times New Roman,serif" font-size="10.00">label:</text>
<text text-anchor="start" x="400.5" y="-167.5" font-family="Times New Roman,serif" font-size="10.00">&quot;[[0, 1, 4], [m, 0, 2], [2, m, 0]]&quot;</text>
</g>
<!-- &#45;attrs8&#45;&gt;http://example.org/list -->
<g id="edge13" class="edge"><title>&#45;attrs8&#45;&gt;http://example.org/list</title>
<path fill="none" stroke="gray" stroke-dasharray="5,2" d="M523.058,-208.068C564.491,-223.432 616.124,-242.578 645.398,-253.433"/>
</g>
<!-- http://example.org/list0 -->
<g id="node21" class="node"><title>http://example.org/list0</title>
<g id="a_node21"><a xlink:href="http://example.org/list0" xlink:title="list0">
<ellipse fill="#fffc87" stroke="#808080" cx="828.5" cy="-436" rx="27" ry="18"/>
<text text-anchor="middle" x="828.5" y="-432.3" font-family="Times New Roman,serif" font-size="14.00">list0</text>
</a>
</g>
</g>
<!-- http://example.org/list_v1&#45;&gt;http://example.org/list0 -->
<g id="edge19" class="edge"><title>http://example.org/list_v1&#45;&gt;http://example.org/list0</title>
<path fill="none" stroke="darkgreen" d="M758.749,-359.022C772.265,-373.744 792.721,-396.026 807.99,-412.658"/>
<polygon fill="darkgreen" stroke="darkgreen" points="805.675,-415.312 815.016,-420.312 810.831,-410.578 805.675,-415.312"/>
<text text-anchor="middle" x="802.5" y="-388.8" font-family="Times New Roman,serif" font-size="14.00">[0]</text>
</g>
<!-- http://example.org/list1 -->
<g id="node25" class="node"><title>http://example.org/list1</title>
<g id="a_node25"><a xlink:href="http://example.org/list1" xlink:title="list1">
<ellipse fill="#fffc87" stroke="#808080" cx="744.5" cy="-436" rx="27" ry="18"/>
<text text-anchor="middle" x="744.5" y="-432.3" font-family="Times New Roman,serif" font-size="14.00">list1</text>
</a>
</g>
</g>
<!-- http://example.org/list_v1&#45;&gt;http://example.org/list1 -->
<g id="edge26" class="edge"><title>http://example.org/list_v1&#45;&gt;http://example.org/list1</title>
<path fill="none" stroke="darkgreen" d="M744.5,-360.71C744.5,-373.874 744.5,-392.286 744.5,-407.487"/>
<polygon fill="darkgreen" stroke="darkgreen" points="741,-407.867 744.5,-417.867 748,-407.867 741,-407.867"/>
<text text-anchor="middle" x="752.5" y="-388.8" font-family="Times New Roman,serif" font-size="14.00">[1]</text>
</g>
<!-- http://example.org/list2 -->
<g id="node30" class="node"><title>http://example.org/list2</title>
<g id="a_node30"><a xlink:href="http://example.org/list2" xlink:title="list2">
<ellipse fill="#fffc87" stroke="#808080" cx="209.5" cy="-436" rx="27" ry="18"/>
<text text-anchor="middle" x="209.5" y="-432.3" font-family="Times New Roman,serif" font-size="14.00">list2</text>
</a>
</g>
</g>
<!-- http://example.org/list_v1&#45;&gt;http://example.org/list2 -->
<g id="edge33" class="edge"><title>http://example.org/list_v1&#45;&gt;http://example.org/list2</title>
<path fill="none" stroke="darkgreen" d="M723.28,-356.921C716.272,-360.776 708.274,-364.586 700.5,-367 506.165,-427.346 441.265,-362.469 245.5,-418 243.555,-418.552 241.585,-419.199 239.62,-419.914"/>
<polygon fill="darkgreen" stroke="darkgreen" points="237.885,-416.844 229.988,-423.907 240.566,-423.31 237.885,-416.844"/>
<text text-anchor="middle" x="634.5" y="-388.8" font-family="Times New Roman,serif" font-size="14.00">[2]</text>
</g>
<!-- &#45;attrs9 -->
<g id="node20" class="node"><title>&#45;attrs9</title>
<polygon fill="none" stroke="gray" points="921,-281 714,-281 714,-245 927,-245 927,-275 921,-281"/>
<polyline fill="none" stroke="gray" points="921,-281 921,-275 "/>
<polyline fill="none" stroke="gray" points="927,-275 921,-275 "/>
<text text-anchor="start" x="724.5" y="-267" font-family="Times New Roman,serif" font-size="10.00">generatedAtTime:</text>
<text text-anchor="start" x="799.5" y="-267" font-family="Times New Roman,serif" font-size="10.00">&quot;2018&#45;03&#45;04T18:22:20.105594&quot;</text>
<text text-anchor="start" x="724.5" y="-254" font-family="Times New Roman,serif" font-size="10.00">type:</text>
<text text-anchor="start" x="799.5" y="-254" font-family="Times New Roman,serif" font-size="10.00">&quot;Version&quot;</text>
</g>
<!-- &#45;attrs9&#45;&gt;http://example.org/list_v1 -->
<g id="edge14" class="edge"><title>&#45;attrs9&#45;&gt;http://example.org/list_v1</title>
<path fill="none" stroke="gray" stroke-dasharray="5,2" d="M803.633,-281.2C790.426,-294.667 772.226,-313.227 759.518,-326.186"/>
</g>
<!-- http://example.org/list0_v1 -->
<g id="node23" class="node"><title>http://example.org/list0_v1</title>
<g id="a_node23"><a xlink:href="http://example.org/list0_v1" xlink:title="list0_v1">
<ellipse fill="#32cd32" stroke="#808080" cx="969.5" cy="-509" rx="38.9931" ry="18"/>
<text text-anchor="middle" x="969.5" y="-505.3" font-family="Times New Roman,serif" font-size="14.00">list0_v1</text>
</a>
</g>
</g>
<!-- http://example.org/list0&#45;&gt;http://example.org/list0_v1 -->
<g id="edge18" class="edge"><title>http://example.org/list0&#45;&gt;http://example.org/list0_v1</title>
<path fill="none" stroke="black" d="M849.305,-447.476C871.781,-458.794 907.969,-477.016 934.772,-490.513"/>
<polygon fill="black" stroke="black" points="933.317,-493.699 943.823,-495.07 936.465,-487.447 933.317,-493.699"/>
<text text-anchor="middle" x="861.846" y="-437.347" font-family="Times New Roman,serif" font-size="8.00">spe</text>
</g>
<!-- &#45;attrs10 -->
<g id="node22" class="node"><title>&#45;attrs10</title>
<polygon fill="none" stroke="gray" points="876,-367 797,-367 797,-318 882,-318 882,-361 876,-367"/>
<polyline fill="none" stroke="gray" points="876,-367 876,-361 "/>
<polyline fill="none" stroke="gray" points="882,-361 876,-361 "/>
<text text-anchor="start" x="807.5" y="-352.5" font-family="Times New Roman,serif" font-size="10.00">value:</text>
<text text-anchor="start" x="834.5" y="-352.5" font-family="Times New Roman,serif" font-size="10.00">&quot;[0, 1, 4]&quot;</text>
<text text-anchor="start" x="807.5" y="-339.5" font-family="Times New Roman,serif" font-size="10.00">type:</text>
<text text-anchor="start" x="834.5" y="-339.5" font-family="Times New Roman,serif" font-size="10.00">&quot;list&quot;</text>
<text text-anchor="start" x="807.5" y="-326.5" font-family="Times New Roman,serif" font-size="10.00">label:</text>
<text text-anchor="start" x="834.5" y="-326.5" font-family="Times New Roman,serif" font-size="10.00">&quot;[0, 1, 4]&quot;</text>
</g>
<!-- &#45;attrs10&#45;&gt;http://example.org/list0 -->
<g id="edge16" class="edge"><title>&#45;attrs10&#45;&gt;http://example.org/list0</title>
<path fill="none" stroke="gray" stroke-dasharray="5,2" d="M836.667,-367.064C834.758,-382.949 832.282,-403.543 830.559,-417.873"/>
</g>
<!-- http://example.org/list0_v1&#45;&gt;http://example.org/0 -->
<g id="edge20" class="edge"><title>http://example.org/list0_v1&#45;&gt;http://example.org/0</title>
<path fill="none" stroke="darkgreen" d="M939.075,-520.409C902.507,-533.126 839.448,-555.709 786.5,-578 784.684,-578.764 782.827,-579.569 780.959,-580.396"/>
<polygon fill="darkgreen" stroke="darkgreen" points="779.329,-577.293 771.685,-584.628 782.235,-583.661 779.329,-577.293"/>
<text text-anchor="middle" x="874.5" y="-548.8" font-family="Times New Roman,serif" font-size="14.00">[0]</text>
</g>
<!-- http://example.org/list0_v1&#45;&gt;http://example.org/1 -->
<g id="edge21" class="edge"><title>http://example.org/list0_v1&#45;&gt;http://example.org/1</title>
<path fill="none" stroke="darkgreen" d="M985.09,-525.59C998.477,-538.977 1017.91,-558.415 1032.82,-573.317"/>
<polygon fill="darkgreen" stroke="darkgreen" points="1030.6,-576.045 1040.14,-580.641 1035.54,-571.095 1030.6,-576.045"/>
<text text-anchor="middle" x="1024.5" y="-548.8" font-family="Times New Roman,serif" font-size="14.00">[1]</text>
</g>
<!-- http://example.org/list0_v1&#45;&gt;http://example.org/4 -->
<g id="edge22" class="edge"><title>http://example.org/list0_v1&#45;&gt;http://example.org/4</title>
<path fill="none" stroke="darkgreen" d="M998.438,-521.165C1004.66,-523.308 1011.25,-525.384 1017.5,-527 1150.56,-561.406 1191.34,-536.934 1322.5,-578 1324.43,-578.604 1326.39,-579.292 1328.34,-580.037"/>
<polygon fill="darkgreen" stroke="darkgreen" points="1327.38,-583.429 1337.95,-584.109 1330.11,-576.984 1327.38,-583.429"/>
<text text-anchor="middle" x="1254.5" y="-548.8" font-family="Times New Roman,serif" font-size="14.00">[2]</text>
</g>
<!-- &#45;attrs11 -->
<g id="node24" class="node"><title>&#45;attrs11</title>
<polygon fill="none" stroke="gray" points="1081,-454 874,-454 874,-418 1087,-418 1087,-448 1081,-454"/>
<polyline fill="none" stroke="gray" points="1081,-454 1081,-448 "/>
<polyline fill="none" stroke="gray" points="1087,-448 1081,-448 "/>
<text text-anchor="start" x="884.5" y="-440" font-family="Times New Roman,serif" font-size="10.00">generatedAtTime:</text>
<text text-anchor="start" x="959.5" y="-440" font-family="Times New Roman,serif" font-size="10.00">&quot;2018&#45;03&#45;04T18:22:20.105594&quot;</text>
<text text-anchor="start" x="884.5" y="-427" font-family="Times New Roman,serif" font-size="10.00">type:</text>
<text text-anchor="start" x="959.5" y="-427" font-family="Times New Roman,serif" font-size="10.00">&quot;Version&quot;</text>
</g>
<!-- &#45;attrs11&#45;&gt;http://example.org/list0_v1 -->
<g id="edge17" class="edge"><title>&#45;attrs11&#45;&gt;http://example.org/list0_v1</title>
<path fill="none" stroke="gray" stroke-dasharray="5,2" d="M977.837,-454.187C976.108,-465.35 973.863,-479.84 972.138,-490.971"/>
</g>
<!-- http://example.org/list1_v1 -->
<g id="node27" class="node"><title>http://example.org/list1_v1</title>
<g id="a_node27"><a xlink:href="http://example.org/list1_v1" xlink:title="list1_v1">
<ellipse fill="#32cd32" stroke="#808080" cx="592.5" cy="-509" rx="38.9931" ry="18"/>
<text text-anchor="middle" x="592.5" y="-505.3" font-family="Times New Roman,serif" font-size="14.00">list1_v1</text>
</a>
</g>
</g>
<!-- http://example.org/list1&#45;&gt;http://example.org/list1_v1 -->
<g id="edge25" class="edge"><title>http://example.org/list1&#45;&gt;http://example.org/list1_v1</title>
<path fill="none" stroke="black" d="M723.044,-447.022C698.381,-458.542 657.52,-477.629 628.077,-491.382"/>
<polygon fill="black" stroke="black" points="626.532,-488.24 618.953,-495.644 629.495,-494.582 626.532,-488.24"/>
<text text-anchor="middle" x="721.747" y="-460.066" font-family="Times New Roman,serif" font-size="8.00">spe</text>
</g>
<!-- &#45;attrs12 -->
<g id="node26" class="node"><title>&#45;attrs12</title>
<polygon fill="none" stroke="gray" points="686,-367 589,-367 589,-318 692,-318 692,-361 686,-367"/>
<polyline fill="none" stroke="gray" points="686,-367 686,-361 "/>
<polyline fill="none" stroke="gray" points="692,-361 686,-361 "/>
<text text-anchor="start" x="599.5" y="-352.5" font-family="Times New Roman,serif" font-size="10.00">value:</text>
<text text-anchor="start" x="626.5" y="-352.5" font-family="Times New Roman,serif" font-size="10.00">&quot;[10000, 0, 2]&quot;</text>
<text text-anchor="start" x="599.5" y="-339.5" font-family="Times New Roman,serif" font-size="10.00">type:</text>
<text text-anchor="start" x="626.5" y="-339.5" font-family="Times New Roman,serif" font-size="10.00">&quot;list&quot;</text>
<text text-anchor="start" x="599.5" y="-326.5" font-family="Times New Roman,serif" font-size="10.00">label:</text>
<text text-anchor="start" x="626.5" y="-326.5" font-family="Times New Roman,serif" font-size="10.00">&quot;[m, 0, 2]&quot;</text>
</g>
<!-- &#45;attrs12&#45;&gt;http://example.org/list1 -->
<g id="edge23" class="edge"><title>&#45;attrs12&#45;&gt;http://example.org/list1</title>
<path fill="none" stroke="gray" stroke-dasharray="5,2" d="M667.283,-367.064C686.782,-384.22 712.525,-406.868 728.8,-421.187"/>
</g>
<!-- http://example.org/list1_v1&#45;&gt;http://example.org/0 -->
<g id="edge28" class="edge"><title>http://example.org/list1_v1&#45;&gt;http://example.org/0</title>
<path fill="none" stroke="darkgreen" d="M616.841,-523.095C644.804,-538.138 690.689,-562.823 720.748,-578.994"/>
<polygon fill="darkgreen" stroke="darkgreen" points="719.444,-582.267 729.909,-583.922 722.761,-576.102 719.444,-582.267"/>
<text text-anchor="middle" x="689.5" y="-548.8" font-family="Times New Roman,serif" font-size="14.00">[1]</text>
</g>
<!-- http://example.org/list1_v1&#45;&gt;http://example.org/2 -->
<g id="edge29" class="edge"><title>http://example.org/list1_v1&#45;&gt;http://example.org/2</title>
<path fill="none" stroke="darkgreen" d="M553.923,-511.641C505.905,-514.585 421.882,-522.722 353.5,-545 346.595,-547.25 312.884,-565.293 287.567,-579.066"/>
<polygon fill="darkgreen" stroke="darkgreen" points="285.789,-576.049 278.685,-583.909 289.14,-582.195 285.789,-576.049"/>
<text text-anchor="middle" x="361.5" y="-548.8" font-family="Times New Roman,serif" font-size="14.00">[2]</text>
</g>
<!-- http://example.org/m -->
<g id="node29" class="node"><title>http://example.org/m</title>
<ellipse fill="none" stroke="black" cx="388.5" cy="-596" rx="85.2851" ry="18"/>
<text text-anchor="middle" x="388.5" y="-592.3" font-family="Times New Roman,serif" font-size="14.00">http://example.org/m</text>
</g>
<!-- http://example.org/list1_v1&#45;&gt;http://example.org/m -->
<g id="edge27" class="edge"><title>http://example.org/list1_v1&#45;&gt;http://example.org/m</title>
<path fill="none" stroke="darkgreen" d="M564.562,-521.641C531.124,-535.573 474.645,-559.106 434.683,-575.757"/>
<polygon fill="darkgreen" stroke="darkgreen" points="433.295,-572.544 425.411,-579.621 435.987,-579.005 433.295,-572.544"/>
<text text-anchor="middle" x="511.5" y="-548.8" font-family="Times New Roman,serif" font-size="14.00">[0]</text>
</g>
<!-- &#45;attrs13 -->
<g id="node28" class="node"><title>&#45;attrs13</title>
<polygon fill="none" stroke="gray" points="693,-454 486,-454 486,-418 699,-418 699,-448 693,-454"/>
<polyline fill="none" stroke="gray" points="693,-454 693,-448 "/>
<polyline fill="none" stroke="gray" points="699,-448 693,-448 "/>
<text text-anchor="start" x="496.5" y="-440" font-family="Times New Roman,serif" font-size="10.00">generatedAtTime:</text>
<text text-anchor="start" x="571.5" y="-440" font-family="Times New Roman,serif" font-size="10.00">&quot;2018&#45;03&#45;04T18:22:20.105594&quot;</text>
<text text-anchor="start" x="496.5" y="-427" font-family="Times New Roman,serif" font-size="10.00">type:</text>
<text text-anchor="start" x="571.5" y="-427" font-family="Times New Roman,serif" font-size="10.00">&quot;Version&quot;</text>
</g>
<!-- &#45;attrs13&#45;&gt;http://example.org/list1_v1 -->
<g id="edge24" class="edge"><title>&#45;attrs13&#45;&gt;http://example.org/list1_v1</title>
<path fill="none" stroke="gray" stroke-dasharray="5,2" d="M592.5,-454.187C592.5,-465.35 592.5,-479.84 592.5,-490.971"/>
</g>
<!-- http://example.org/list2_v1 -->
<g id="node32" class="node"><title>http://example.org/list2_v1</title>
<g id="a_node32"><a xlink:href="http://example.org/list2_v1" xlink:title="list2_v1">
<ellipse fill="#32cd32" stroke="#808080" cx="361.5" cy="-509" rx="38.9931" ry="18"/>
<text text-anchor="middle" x="361.5" y="-505.3" font-family="Times New Roman,serif" font-size="14.00">list2_v1</text>
</a>
</g>
</g>
<!-- http://example.org/list2&#45;&gt;http://example.org/list2_v1 -->
<g id="edge32" class="edge"><title>http://example.org/list2&#45;&gt;http://example.org/list2_v1</title>
<path fill="none" stroke="black" d="M230.811,-447.087C235.639,-449.366 240.744,-451.77 245.5,-454 272.25,-466.542 302.515,-480.628 325.423,-491.267"/>
<polygon fill="black" stroke="black" points="324.214,-494.565 334.758,-495.602 327.162,-488.216 324.214,-494.565"/>
<text text-anchor="middle" x="243.138" y="-436.64" font-family="Times New Roman,serif" font-size="8.00">spe</text>
</g>
<!-- &#45;attrs14 -->
<g id="node31" class="node"><title>&#45;attrs14</title>
<polygon fill="none" stroke="gray" points="255,-367 158,-367 158,-318 261,-318 261,-361 255,-367"/>
<polyline fill="none" stroke="gray" points="255,-367 255,-361 "/>
<polyline fill="none" stroke="gray" points="261,-361 255,-361 "/>
<text text-anchor="start" x="168.5" y="-352.5" font-family="Times New Roman,serif" font-size="10.00">value:</text>
<text text-anchor="start" x="195.5" y="-352.5" font-family="Times New Roman,serif" font-size="10.00">&quot;[2, 10000, 0]&quot;</text>
<text text-anchor="start" x="168.5" y="-339.5" font-family="Times New Roman,serif" font-size="10.00">type:</text>
<text text-anchor="start" x="195.5" y="-339.5" font-family="Times New Roman,serif" font-size="10.00">&quot;list&quot;</text>
<text text-anchor="start" x="168.5" y="-326.5" font-family="Times New Roman,serif" font-size="10.00">label:</text>
<text text-anchor="start" x="195.5" y="-326.5" font-family="Times New Roman,serif" font-size="10.00">&quot;[2, m, 0]&quot;</text>
</g>
<!-- &#45;attrs14&#45;&gt;http://example.org/list2 -->
<g id="edge30" class="edge"><title>&#45;attrs14&#45;&gt;http://example.org/list2</title>
<path fill="none" stroke="gray" stroke-dasharray="5,2" d="M209.5,-367.064C209.5,-382.949 209.5,-403.543 209.5,-417.873"/>
</g>
<!-- http://example.org/list2_v1&#45;&gt;http://example.org/0 -->
<g id="edge36" class="edge"><title>http://example.org/list2_v1&#45;&gt;http://example.org/0</title>
<path fill="none" stroke="darkgreen" d="M397.603,-515.844C474.994,-528.554 654.611,-559.087 713.5,-578 715.772,-578.73 718.087,-579.562 720.396,-580.458"/>
<polygon fill="darkgreen" stroke="darkgreen" points="719.143,-583.728 729.717,-584.395 721.866,-577.28 719.143,-583.728"/>
<text text-anchor="middle" x="647.5" y="-548.8" font-family="Times New Roman,serif" font-size="14.00">[2]</text>
</g>
<!-- http://example.org/list2_v1&#45;&gt;http://example.org/2 -->
<g id="edge34" class="edge"><title>http://example.org/list2_v1&#45;&gt;http://example.org/2</title>
<path fill="none" stroke="darkgreen" d="M337.636,-523.469C327.641,-529.54 316.131,-537.111 306.5,-545 296.42,-553.256 286.28,-563.474 277.933,-572.516"/>
<polygon fill="darkgreen" stroke="darkgreen" points="275.208,-570.312 271.107,-580.081 280.405,-575.001 275.208,-570.312"/>
<text text-anchor="middle" x="314.5" y="-548.8" font-family="Times New Roman,serif" font-size="14.00">[0]</text>
</g>
<!-- http://example.org/list2_v1&#45;&gt;http://example.org/m -->
<g id="edge35" class="edge"><title>http://example.org/list2_v1&#45;&gt;http://example.org/m</title>
<path fill="none" stroke="darkgreen" d="M366.964,-527.201C370.697,-538.953 375.718,-554.762 379.974,-568.158"/>
<polygon fill="darkgreen" stroke="darkgreen" points="376.681,-569.353 383.044,-577.825 383.353,-567.234 376.681,-569.353"/>
<text text-anchor="middle" x="385.5" y="-548.8" font-family="Times New Roman,serif" font-size="14.00">[1]</text>
</g>
<!-- &#45;attrs15 -->
<g id="node33" class="node"><title>&#45;attrs15</title>
<polygon fill="none" stroke="gray" points="462,-454 255,-454 255,-418 468,-418 468,-448 462,-454"/>
<polyline fill="none" stroke="gray" points="462,-454 462,-448 "/>
<polyline fill="none" stroke="gray" points="468,-448 462,-448 "/>
<text text-anchor="start" x="265.5" y="-440" font-family="Times New Roman,serif" font-size="10.00">generatedAtTime:</text>
<text text-anchor="start" x="340.5" y="-440" font-family="Times New Roman,serif" font-size="10.00">&quot;2018&#45;03&#45;04T18:22:20.105594&quot;</text>
<text text-anchor="start" x="265.5" y="-427" font-family="Times New Roman,serif" font-size="10.00">type:</text>
<text text-anchor="start" x="340.5" y="-427" font-family="Times New Roman,serif" font-size="10.00">&quot;Version&quot;</text>
</g>
<!-- &#45;attrs15&#45;&gt;http://example.org/list2_v1 -->
<g id="edge31" class="edge"><title>&#45;attrs15&#45;&gt;http://example.org/list2_v1</title>
<path fill="none" stroke="gray" stroke-dasharray="5,2" d="M361.5,-454.187C361.5,-465.35 361.5,-479.84 361.5,-490.971"/>
</g>
<!-- http://example.org/dist -->
<g id="node34" class="node"><title>http://example.org/dist</title>
<g id="a_node34"><a xlink:href="http://example.org/dist" xlink:title="dist">
<ellipse fill="#fffc87" stroke="#808080" cx="668.5" cy="-104" rx="27" ry="18"/>
<text text-anchor="middle" x="668.5" y="-100.3" font-family="Times New Roman,serif" font-size="14.00">dist</text>
</a>
</g>
</g>
<!-- http://example.org/dist&#45;&gt;http://example.org/list -->
<g id="edge40" class="edge"><title>http://example.org/dist&#45;&gt;http://example.org/list</title>
<path fill="none" stroke="darkgreen" d="M668.5,-122.101C668.5,-149.234 668.5,-202.386 668.5,-234.793"/>
<polygon fill="darkgreen" stroke="darkgreen" points="665,-234.92 668.5,-244.92 672,-234.92 665,-234.92"/>
<text text-anchor="middle" x="750" y="-187.3" font-family="Times New Roman,serif" font-size="14.00">der ref</text>
<text text-anchor="middle" x="750" y="-172.3" font-family="Times New Roman,serif" font-size="14.00">2018&#45;03&#45;04T18:22:20.277491</text>
</g>
<!-- http://example.org/assign2 -->
<g id="node36" class="node"><title>http://example.org/assign2</title>
<g id="a_node36"><a xlink:href="http://example.org/assign2" xlink:title="assign2">
<polygon fill="#9fb1fc" stroke="#0000ff" points="632.5,-201.5 574.5,-201.5 574.5,-165.5 632.5,-165.5 632.5,-201.5"/>
<text text-anchor="middle" x="603.5" y="-179.8" font-family="Times New Roman,serif" font-size="14.00">assign2</text>
</a>
</g>
</g>
<!-- http://example.org/dist&#45;&gt;http://example.org/assign2 -->
<g id="edge41" class="edge"><title>http://example.org/dist&#45;&gt;http://example.org/assign2</title>
<path fill="none" stroke="black" d="M655.658,-120.312C646.735,-130.95 634.646,-145.365 624.352,-157.637"/>
<polygon fill="black" stroke="black" points="621.644,-155.421 617.899,-165.332 627.007,-159.919 621.644,-155.421"/>
<text text-anchor="middle" x="660.792" y="-132.506" font-family="Times New Roman,serif" font-size="8.00">gen</text>
</g>
<!-- &#45;attrs16 -->
<g id="node35" class="node"><title>&#45;attrs16</title>
<polygon fill="none" stroke="gray" points="759,-49 572,-49 572,-0 765,-0 765,-43 759,-49"/>
<polyline fill="none" stroke="gray" points="759,-49 759,-43 "/>
<polyline fill="none" stroke="gray" points="765,-43 759,-43 "/>
<text text-anchor="start" x="582.5" y="-34.5" font-family="Times New Roman,serif" font-size="10.00">value:</text>
<text text-anchor="start" x="609.5" y="-34.5" font-family="Times New Roman,serif" font-size="10.00">&quot;[[0, 1, 4], [10000, 0, 2], [2, 10000, 0]]&quot;</text>
<text text-anchor="start" x="582.5" y="-21.5" font-family="Times New Roman,serif" font-size="10.00">type:</text>
<text text-anchor="start" x="609.5" y="-21.5" font-family="Times New Roman,serif" font-size="10.00">&quot;name&quot;</text>
<text text-anchor="start" x="582.5" y="-8.5" font-family="Times New Roman,serif" font-size="10.00">label:</text>
<text text-anchor="start" x="609.5" y="-8.5" font-family="Times New Roman,serif" font-size="10.00">&quot;dist&quot;</text>
</g>
<!-- &#45;attrs16&#45;&gt;http://example.org/dist -->
<g id="edge37" class="edge"><title>&#45;attrs16&#45;&gt;http://example.org/dist</title>
<path fill="none" stroke="gray" stroke-dasharray="5,2" d="M668.5,-49.1737C668.5,-60.9254 668.5,-74.869 668.5,-85.6196"/>
</g>
<!-- http://example.org/assign2&#45;&gt;http://example.org/list -->
<g id="edge39" class="edge"><title>http://example.org/assign2&#45;&gt;http://example.org/list</title>
<path fill="none" stroke="black" d="M617.926,-201.7C627.164,-212.714 639.259,-227.135 649.304,-239.113"/>
<polygon fill="black" stroke="black" points="646.763,-241.53 655.871,-246.942 652.127,-237.031 646.763,-241.53"/>
<text text-anchor="middle" x="632.698" y="-197.198" font-family="Times New Roman,serif" font-size="8.00">use</text>
</g>
<!-- &#45;attrs17 -->
<g id="node37" class="node"><title>&#45;attrs17</title>
<polygon fill="none" stroke="gray" points="617,-122 544,-122 544,-86 623,-86 623,-116 617,-122"/>
<polyline fill="none" stroke="gray" points="617,-122 617,-116 "/>
<polyline fill="none" stroke="gray" points="623,-116 617,-116 "/>
<text text-anchor="start" x="554.5" y="-101" font-family="Times New Roman,serif" font-size="10.00">type:</text>
<text text-anchor="start" x="577.5" y="-101" font-family="Times New Roman,serif" font-size="10.00">&quot;assign&quot;</text>
</g>
<!-- &#45;attrs17&#45;&gt;http://example.org/assign2 -->
<g id="edge38" class="edge"><title>&#45;attrs17&#45;&gt;http://example.org/assign2</title>
<path fill="none" stroke="gray" stroke-dasharray="5,2" d="M587.939,-122.2C591.253,-135.043 595.762,-152.517 599.074,-165.348"/>
</g>
<!-- http://example.org/result -->
<g id="node38" class="node"><title>http://example.org/result</title>
<g id="a_node38"><a xlink:href="http://example.org/result" xlink:title="result">
<ellipse fill="#fffc87" stroke="#808080" cx="943.5" cy="-104" rx="30.5947" ry="18"/>
<text text-anchor="middle" x="943.5" y="-100.3" font-family="Times New Roman,serif" font-size="14.00">result</text>
</a>
</g>
</g>
<!-- http://example.org/result&#45;&gt;http://example.org/list -->
<g id="edge45" class="edge"><title>http://example.org/result&#45;&gt;http://example.org/list</title>
<path fill="none" stroke="darkgreen" d="M944.254,-122.044C944.271,-145.091 940.583,-185.85 916.5,-208 846.101,-272.748 795.675,-216.097 704.5,-245 702.573,-245.611 700.616,-246.304 698.662,-247.053"/>
<polygon fill="darkgreen" stroke="darkgreen" points="696.891,-244.003 689.057,-251.136 699.629,-250.445 696.891,-244.003"/>
<text text-anchor="middle" x="1022" y="-187.3" font-family="Times New Roman,serif" font-size="14.00">der ref</text>
<text text-anchor="middle" x="1022" y="-172.3" font-family="Times New Roman,serif" font-size="14.00">2018&#45;03&#45;04T18:22:20.277491</text>
</g>
<!-- http://example.org/assign3 -->
<g id="node40" class="node"><title>http://example.org/assign3</title>
<g id="a_node40"><a xlink:href="http://example.org/assign3" xlink:title="assign3">
<polygon fill="#9fb1fc" stroke="#0000ff" points="907.5,-201.5 849.5,-201.5 849.5,-165.5 907.5,-165.5 907.5,-201.5"/>
<text text-anchor="middle" x="878.5" y="-179.8" font-family="Times New Roman,serif" font-size="14.00">assign3</text>
</a>
</g>
</g>
<!-- http://example.org/result&#45;&gt;http://example.org/assign3 -->
<g id="edge46" class="edge"><title>http://example.org/result&#45;&gt;http://example.org/assign3</title>
<path fill="none" stroke="black" d="M930.346,-120.683C921.485,-131.249 909.607,-145.411 899.456,-157.515"/>
<polygon fill="black" stroke="black" points="896.506,-155.584 892.762,-165.495 901.87,-160.083 896.506,-155.584"/>
<text text-anchor="middle" x="935.48" y="-132.877" font-family="Times New Roman,serif" font-size="8.00">gen</text>
</g>
<!-- &#45;attrs18 -->
<g id="node39" class="node"><title>&#45;attrs18</title>
<polygon fill="none" stroke="gray" points="1034,-49 847,-49 847,-0 1040,-0 1040,-43 1034,-49"/>
<polyline fill="none" stroke="gray" points="1034,-49 1034,-43 "/>
<polyline fill="none" stroke="gray" points="1040,-43 1034,-43 "/>
<text text-anchor="start" x="857.5" y="-34.5" font-family="Times New Roman,serif" font-size="10.00">value:</text>
<text text-anchor="start" x="884.5" y="-34.5" font-family="Times New Roman,serif" font-size="10.00">&quot;[[0, 1, 4], [10000, 0, 2], [2, 10000, 0]]&quot;</text>
<text text-anchor="start" x="857.5" y="-21.5" font-family="Times New Roman,serif" font-size="10.00">type:</text>
<text text-anchor="start" x="884.5" y="-21.5" font-family="Times New Roman,serif" font-size="10.00">&quot;name&quot;</text>
<text text-anchor="start" x="857.5" y="-8.5" font-family="Times New Roman,serif" font-size="10.00">label:</text>
<text text-anchor="start" x="884.5" y="-8.5" font-family="Times New Roman,serif" font-size="10.00">&quot;result&quot;</text>
</g>
<!-- &#45;attrs18&#45;&gt;http://example.org/result -->
<g id="edge42" class="edge"><title>&#45;attrs18&#45;&gt;http://example.org/result</title>
<path fill="none" stroke="gray" stroke-dasharray="5,2" d="M943.5,-49.1737C943.5,-60.9254 943.5,-74.869 943.5,-85.6196"/>
</g>
<!-- http://example.org/assign3&#45;&gt;http://example.org/list -->
<g id="edge44" class="edge"><title>http://example.org/assign3&#45;&gt;http://example.org/list</title>
<path fill="none" stroke="black" d="M849.319,-201.58C844.773,-203.908 840.068,-206.134 835.5,-208 779.491,-230.874 761.159,-223.788 704.5,-245 702.655,-245.691 700.775,-246.438 698.89,-247.222"/>
<polygon fill="black" stroke="black" points="697.303,-244.096 689.569,-251.337 700.131,-250.5 697.303,-244.096"/>
<text text-anchor="middle" x="848.517" y="-214.658" font-family="Times New Roman,serif" font-size="8.00">use</text>
</g>
<!-- &#45;attrs19 -->
<g id="node41" class="node"><title>&#45;attrs19</title>
<polygon fill="none" stroke="gray" points="889,-122 816,-122 816,-86 895,-86 895,-116 889,-122"/>
<polyline fill="none" stroke="gray" points="889,-122 889,-116 "/>
<polyline fill="none" stroke="gray" points="895,-116 889,-116 "/>
<text text-anchor="start" x="826.5" y="-101" font-family="Times New Roman,serif" font-size="10.00">type:</text>
<text text-anchor="start" x="849.5" y="-101" font-family="Times New Roman,serif" font-size="10.00">&quot;assign&quot;</text>
</g>
<!-- &#45;attrs19&#45;&gt;http://example.org/assign3 -->
<g id="edge43" class="edge"><title>&#45;attrs19&#45;&gt;http://example.org/assign3</title>
<path fill="none" stroke="gray" stroke-dasharray="5,2" d="M860.604,-122.2C864.416,-135.043 869.602,-152.517 873.41,-165.348"/>
</g>
</g>
</svg>
