<?xml version="1.0" encoding="UTF-8" standalone="no"?>
<!DOCTYPE svg PUBLIC "-//W3C//DTD SVG 1.1//EN"
 "http://www.w3.org/Graphics/SVG/1.1/DTD/svg11.dtd">
<!-- Generated by graphviz version 2.38.0 (20140413.2041)
 -->
<!-- Title: PROV Pages: 1 -->
<svg width="828pt" height="430pt"
 viewBox="0.00 0.00 827.68 430.00" xmlns="http://www.w3.org/2000/svg" xmlns:xlink="http://www.w3.org/1999/xlink">
<g id="graph0" class="graph" transform="scale(1 1) rotate(0) translate(4 426)">
<title>PROV</title>
<polygon fill="white" stroke="none" points="-4,4 -4,-426 823.681,-426 823.681,4 -4,4"/>
<!-- http://example.org/dist_ai#6 -->
<g id="node1" class="node"><title>http://example.org/dist_ai#6</title>
<g id="a_node1"><a xlink:href="http://example.org/dist_ai#6" xlink:title="dist_ai#6">
<ellipse fill="#fffc87" stroke="#808080" cx="319.84" cy="-260" rx="44.393" ry="18"/>
<text text-anchor="middle" x="319.84" y="-256.3" font-family="Times New Roman,serif" font-size="14.00">dist_ai#6</text>
</a>
</g>
</g>
<!-- http://example.org/matrix10 -->
<g id="node3" class="node"><title>http://example.org/matrix10</title>
<ellipse fill="none" stroke="black" cx="109.84" cy="-332" rx="109.681" ry="18"/>
<text text-anchor="middle" x="109.84" y="-328.3" font-family="Times New Roman,serif" font-size="14.00">http://example.org/matrix10</text>
</g>
<!-- http://example.org/dist_ai#6&#45;&gt;http://example.org/matrix10 -->
<g id="edge2" class="edge"><title>http://example.org/dist_ai#6&#45;&gt;http://example.org/matrix10</title>
<path fill="none" stroke="black" d="M286.565,-272.092C254.153,-282.896 204.276,-299.522 165.763,-312.359"/>
<polygon fill="black" stroke="black" points="164.614,-309.053 156.234,-315.535 166.828,-315.693 164.614,-309.053"/>
<text text-anchor="middle" x="283.558" y="-284.887" font-family="Times New Roman,serif" font-size="8.00">[ ]</text>
</g>
<!-- http://example.org/matrix11 -->
<g id="node4" class="node"><title>http://example.org/matrix11</title>
<ellipse fill="none" stroke="black" cx="471.84" cy="-332" rx="109.681" ry="18"/>
<text text-anchor="middle" x="471.84" y="-328.3" font-family="Times New Roman,serif" font-size="14.00">http://example.org/matrix11</text>
</g>
<!-- http://example.org/dist_ai#6&#45;&gt;http://example.org/matrix11 -->
<g id="edge3" class="edge"><title>http://example.org/dist_ai#6&#45;&gt;http://example.org/matrix11</title>
<path fill="none" stroke="black" d="M348.074,-274.002C370.401,-284.285 401.979,-298.827 427.648,-310.648"/>
<polygon fill="black" stroke="black" points="426.263,-313.864 436.81,-314.868 429.191,-307.506 426.263,-313.864"/>
<text text-anchor="middle" x="360.32" y="-263.44" font-family="Times New Roman,serif" font-size="8.00">[ ]</text>
</g>
<!-- http://example.org/matrix12 -->
<g id="node5" class="node"><title>http://example.org/matrix12</title>
<ellipse fill="none" stroke="black" cx="709.84" cy="-332" rx="109.681" ry="18"/>
<text text-anchor="middle" x="709.84" y="-328.3" font-family="Times New Roman,serif" font-size="14.00">http://example.org/matrix12</text>
</g>
<!-- http://example.org/dist_ai#6&#45;&gt;http://example.org/matrix12 -->
<g id="edge4" class="edge"><title>http://example.org/dist_ai#6&#45;&gt;http://example.org/matrix12</title>
<path fill="none" stroke="black" d="M359.382,-268.097C422.215,-279.375 546.157,-301.621 628.521,-316.404"/>
<polygon fill="black" stroke="black" points="628.141,-319.892 638.602,-318.214 629.378,-313.002 628.141,-319.892"/>
<text text-anchor="middle" x="369.059" y="-254.736" font-family="Times New Roman,serif" font-size="8.00">[ ]</text>
</g>
<!-- http://example.org/access50 -->
<g id="node6" class="node"><title>http://example.org/access50</title>
<g id="a_node6"><a xlink:href="http://example.org/access50" xlink:title="access50">
<polygon fill="#fafafa" stroke="#f0f0f0" points="343.84,-350 275.84,-350 275.84,-314 343.84,-314 343.84,-350"/>
<text text-anchor="middle" x="309.84" y="-328.3" font-family="Times New Roman,serif" font-size="14.00" fill="#f0f0f0">access50</text>
</a>
</g>
</g>
<!-- http://example.org/dist_ai#6&#45;&gt;http://example.org/access50 -->
<g id="edge15" class="edge"><title>http://example.org/dist_ai#6&#45;&gt;http://example.org/access50</title>
<path fill="none" stroke="#f0f0f0" d="M317.368,-278.303C316.266,-286.017 314.942,-295.288 313.713,-303.888"/>
<polygon fill="#f0f0f0" stroke="#f0f0f0" points="310.233,-303.501 312.284,-313.896 317.163,-304.491 310.233,-303.501"/>
<text text-anchor="middle" x="329.168" y="-285.665" font-family="Times New Roman,serif" font-size="8.00" fill="#f0f0f0">gen</text>
</g>
<!-- http://example.org/matrix1 -->
<g id="node7" class="node"><title>http://example.org/matrix1</title>
<ellipse fill="none" stroke="black" cx="166.84" cy="-404" rx="105.082" ry="18"/>
<text text-anchor="middle" x="166.84" y="-400.3" font-family="Times New Roman,serif" font-size="14.00">http://example.org/matrix1</text>
</g>
<!-- http://example.org/dist_ai#6&#45;&gt;http://example.org/matrix1 -->
<g id="edge5" class="edge"><title>http://example.org/dist_ai#6&#45;&gt;http://example.org/matrix1</title>
<path fill="none" stroke="#f0f0f0" d="M304.044,-277.086C286.137,-295.171 255.91,-325.243 228.84,-350 218.015,-359.9 205.798,-370.467 195.089,-379.539"/>
<polygon fill="#f0f0f0" stroke="#f0f0f0" points="192.634,-377.03 187.241,-386.15 197.144,-382.384 192.634,-377.03"/>
<text text-anchor="middle" x="307.978" y="-289.661" font-family="Times New Roman,serif" font-size="8.00" fill="#f0f0f0">der</text>
</g>
<!-- &#45;attrs0 -->
<g id="node2" class="node"><title>&#45;attrs0</title>
<polygon fill="none" stroke="gray" points="290.84,-206 202.84,-206 202.84,-157 296.84,-157 296.84,-200 290.84,-206"/>
<polyline fill="none" stroke="gray" points="290.84,-206 290.84,-200 "/>
<polyline fill="none" stroke="gray" points="296.84,-200 290.84,-200 "/>
<text text-anchor="start" x="212.84" y="-191.5" font-family="Times New Roman,serif" font-size="10.00">value:</text>
<text text-anchor="start" x="239.84" y="-191.5" font-family="Times New Roman,serif" font-size="10.00">[10000, 0, 2]</text>
<text text-anchor="start" x="212.84" y="-178.5" font-family="Times New Roman,serif" font-size="10.00">type:</text>
<text text-anchor="start" x="239.84" y="-178.5" font-family="Times New Roman,serif" font-size="10.00">access</text>
<text text-anchor="start" x="212.84" y="-165.5" font-family="Times New Roman,serif" font-size="10.00">label:</text>
<text text-anchor="start" x="239.84" y="-165.5" font-family="Times New Roman,serif" font-size="10.00">dist[i]</text>
</g>
<!-- &#45;attrs0&#45;&gt;http://example.org/dist_ai#6 -->
<g id="edge1" class="edge"><title>&#45;attrs0&#45;&gt;http://example.org/dist_ai#6</title>
<path fill="none" stroke="gray" stroke-dasharray="5,2" d="M271.605,-206.286C282.521,-218.216 295.452,-232.348 305.177,-242.975"/>
</g>
<!-- http://example.org/access50&#45;&gt;http://example.org/matrix1 -->
<g id="edge14" class="edge"><title>http://example.org/access50&#45;&gt;http://example.org/matrix1</title>
<path fill="none" stroke="#f0f0f0" d="M275.588,-349.767C255.579,-359.562 230.17,-372 208.945,-382.389"/>
<polygon fill="#f0f0f0" stroke="#f0f0f0" points="207.271,-379.312 199.828,-386.852 210.349,-385.599 207.271,-379.312"/>
<text text-anchor="middle" x="274.563" y="-362.832" font-family="Times New Roman,serif" font-size="8.00" fill="#f0f0f0">use</text>
</g>
<!-- http://example.org/dist#3 -->
<g id="node8" class="node"><title>http://example.org/dist#3</title>
<ellipse fill="none" stroke="black" cx="390.84" cy="-404" rx="100.983" ry="18"/>
<text text-anchor="middle" x="390.84" y="-400.3" font-family="Times New Roman,serif" font-size="14.00">http://example.org/dist#3</text>
</g>
<!-- http://example.org/access50&#45;&gt;http://example.org/dist#3 -->
<g id="edge6" class="edge"><title>http://example.org/access50&#45;&gt;http://example.org/dist#3</title>
<path fill="none" stroke="#f0f0f0" d="M329.863,-350.303C340.041,-359.1 352.562,-369.92 363.603,-379.462"/>
<polygon fill="#f0f0f0" stroke="#f0f0f0" points="361.473,-382.247 371.328,-386.137 366.05,-376.95 361.473,-382.247"/>
<text text-anchor="middle" x="344.031" y="-343.479" font-family="Times New Roman,serif" font-size="8.00" fill="#f0f0f0">use</text>
</g>
<!-- http://example.org/i#8 -->
<g id="node9" class="node"><title>http://example.org/i#8</title>
<ellipse fill="none" stroke="black" cx="598.84" cy="-404" rx="89.8845" ry="18"/>
<text text-anchor="middle" x="598.84" y="-400.3" font-family="Times New Roman,serif" font-size="14.00">http://example.org/i#8</text>
</g>
<!-- http://example.org/access50&#45;&gt;http://example.org/i#8 -->
<g id="edge7" class="edge"><title>http://example.org/access50&#45;&gt;http://example.org/i#8</title>
<path fill="none" stroke="#f0f0f0" d="M343.928,-347.062C346.921,-348.118 349.921,-349.115 352.84,-350 408.872,-366.986 473.656,-380.713 522.673,-389.937"/>
<polygon fill="#f0f0f0" stroke="#f0f0f0" points="522.099,-393.391 532.571,-391.779 523.38,-386.509 522.099,-393.391"/>
<text text-anchor="middle" x="355.305" y="-335.387" font-family="Times New Roman,serif" font-size="8.00" fill="#f0f0f0">use</text>
</g>
<!-- http://example.org/disti#8 -->
<g id="node10" class="node"><title>http://example.org/disti#8</title>
<g id="a_node10"><a xlink:href="http://example.org/disti#8" xlink:title="disti#8">
<ellipse fill="#fffc87" stroke="#808080" cx="385.84" cy="-103" rx="35.194" ry="18"/>
<text text-anchor="middle" x="385.84" y="-99.3" font-family="Times New Roman,serif" font-size="14.00">disti#8</text>
</a>
</g>
</g>
<!-- http://example.org/disti#8&#45;&gt;http://example.org/dist_ai#6 -->
<g id="edge12" class="edge"><title>http://example.org/disti#8&#45;&gt;http://example.org/dist_ai#6</title>
<path fill="none" stroke="#f0f0f0" d="M370.575,-119.439C361.545,-129.395 350.589,-143.05 343.84,-157 332.25,-180.956 326.069,-210.839 322.9,-232.054"/>
<polygon fill="#f0f0f0" stroke="#f0f0f0" points="319.428,-231.612 321.54,-241.994 326.363,-232.561 319.428,-231.612"/>
<text text-anchor="middle" x="375.275" y="-131.784" font-family="Times New Roman,serif" font-size="8.00" fill="#f0f0f0">der</text>
</g>
<!-- http://example.org/disti#8&#45;&gt;http://example.org/matrix10 -->
<g id="edge9" class="edge"><title>http://example.org/disti#8&#45;&gt;http://example.org/matrix10</title>
<path fill="none" stroke="black" d="M350.678,-105.177C308.839,-108.329 238.984,-119.346 193.84,-157 147.69,-195.494 124.994,-265.328 115.528,-303.784"/>
<polygon fill="black" stroke="black" points="112.067,-303.212 113.2,-313.746 118.883,-304.805 112.067,-303.212"/>
<text text-anchor="middle" x="344.373" y="-116.887" font-family="Times New Roman,serif" font-size="8.00">[ ]</text>
</g>
<!-- http://example.org/disti#8&#45;&gt;http://example.org/matrix11 -->
<g id="edge10" class="edge"><title>http://example.org/disti#8&#45;&gt;http://example.org/matrix11</title>
<path fill="none" stroke="black" d="M401.024,-119.479C410.024,-129.449 420.976,-143.106 427.84,-157 451.856,-205.608 463.553,-268.523 468.581,-303.841"/>
<polygon fill="black" stroke="black" points="465.129,-304.427 469.934,-313.869 472.066,-303.491 465.129,-304.427"/>
<text text-anchor="middle" x="415.717" y="-114.559" font-family="Times New Roman,serif" font-size="8.00">[ ]</text>
</g>
<!-- http://example.org/disti#8&#45;&gt;http://example.org/matrix12 -->
<g id="edge11" class="edge"><title>http://example.org/disti#8&#45;&gt;http://example.org/matrix12</title>
<path fill="none" stroke="black" d="M406.108,-118.2C460.733,-156.471 611.358,-262.002 677.725,-308.5"/>
<polygon fill="black" stroke="black" points="675.941,-311.523 686.139,-314.394 679.957,-305.79 675.941,-311.523"/>
<text text-anchor="middle" x="419.704" y="-109.964" font-family="Times New Roman,serif" font-size="8.00">[ ]</text>
</g>
<!-- http://example.org/assign22 -->
<g id="node12" class="node"><title>http://example.org/assign22</title>
<g id="a_node12"><a xlink:href="http://example.org/assign22" xlink:title="assign22">
<polygon fill="#fafafa" stroke="#f0f0f0" points="418.34,-199.5 353.34,-199.5 353.34,-163.5 418.34,-163.5 418.34,-199.5"/>
<text text-anchor="middle" x="385.84" y="-177.8" font-family="Times New Roman,serif" font-size="14.00" fill="#f0f0f0">assign22</text>
</a>
</g>
</g>
<!-- http://example.org/disti#8&#45;&gt;http://example.org/assign22 -->
<g id="edge16" class="edge"><title>http://example.org/disti#8&#45;&gt;http://example.org/assign22</title>
<path fill="none" stroke="#f0f0f0" d="M385.84,-121.359C385.84,-130.815 385.84,-142.728 385.84,-153.38"/>
<polygon fill="#f0f0f0" stroke="#f0f0f0" points="382.34,-153.473 385.84,-163.473 389.34,-153.473 382.34,-153.473"/>
<text text-anchor="middle" x="398.831" y="-126.959" font-family="Times New Roman,serif" font-size="8.00" fill="#f0f0f0">gen</text>
</g>
<!-- &#45;attrs1 -->
<g id="node11" class="node"><title>&#45;attrs1</title>
<polygon fill="none" stroke="gray" points="426.84,-49 338.84,-49 338.84,-0 432.84,-0 432.84,-43 426.84,-49"/>
<polyline fill="none" stroke="gray" points="426.84,-49 426.84,-43 "/>
<polyline fill="none" stroke="gray" points="432.84,-43 426.84,-43 "/>
<text text-anchor="start" x="348.84" y="-34.5" font-family="Times New Roman,serif" font-size="10.00">value:</text>
<text text-anchor="start" x="375.84" y="-34.5" font-family="Times New Roman,serif" font-size="10.00">[10000, 0, 2]</text>
<text text-anchor="start" x="348.84" y="-21.5" font-family="Times New Roman,serif" font-size="10.00">type:</text>
<text text-anchor="start" x="375.84" y="-21.5" font-family="Times New Roman,serif" font-size="10.00">name</text>
<text text-anchor="start" x="348.84" y="-8.5" font-family="Times New Roman,serif" font-size="10.00">label:</text>
<text text-anchor="start" x="375.84" y="-8.5" font-family="Times New Roman,serif" font-size="10.00">disti</text>
</g>
<!-- &#45;attrs1&#45;&gt;http://example.org/disti#8 -->
<g id="edge8" class="edge"><title>&#45;attrs1&#45;&gt;http://example.org/disti#8</title>
<path fill="none" stroke="gray" stroke-dasharray="5,2" d="M385.84,-49.2857C385.84,-60.6896 385.84,-74.105 385.84,-84.5482"/>
</g>
<!-- http://example.org/assign22&#45;&gt;http://example.org/dist_ai#6 -->
<g id="edge13" class="edge"><title>http://example.org/assign22&#45;&gt;http://example.org/dist_ai#6</title>
<path fill="none" stroke="#f0f0f0" d="M370.864,-199.859C361.927,-210.217 350.447,-223.524 340.64,-234.891"/>
<polygon fill="#f0f0f0" stroke="#f0f0f0" points="337.737,-232.898 333.855,-242.756 343.037,-237.471 337.737,-232.898"/>
<text text-anchor="middle" x="375.8" y="-212.123" font-family="Times New Roman,serif" font-size="8.00" fill="#f0f0f0">use</text>
</g>
</g>
</svg>
