<?xml version="1.0" encoding="UTF-8" standalone="no"?>
<!DOCTYPE svg PUBLIC "-//W3C//DTD SVG 1.1//EN"
 "http://www.w3.org/Graphics/SVG/1.1/DTD/svg11.dtd">
<!-- Generated by graphviz version 2.38.0 (20140413.2041)
 -->
<!-- Title: PROV Pages: 1 -->
<svg width="1152pt" height="326pt"
 viewBox="0.00 0.00 1152.00 326.31" xmlns="http://www.w3.org/2000/svg" xmlns:xlink="http://www.w3.org/1999/xlink">
<g id="graph0" class="graph" transform="scale(0.736582 0.736582) rotate(0) translate(4 439)">
<title>PROV</title>
<polygon fill="white" stroke="none" points="-4,4 -4,-439 1559.98,-439 1559.98,4 -4,4"/>
<!-- http://example.org/disti@j#3 -->
<g id="node1" class="node"><title>http://example.org/disti@j#3</title>
<g id="a_node1"><a xlink:href="http://example.org/disti@j#3" xlink:title="disti@j#3">
<ellipse fill="#fffc87" stroke="#808080" cx="383.741" cy="-273" rx="45.4919" ry="18"/>
<text text-anchor="middle" x="383.741" y="-269.3" font-family="Times New Roman,serif" font-size="14.00">disti@j#3</text>
</a>
</g>
</g>
<!-- http://example.org/assign12 -->
<g id="node15" class="node"><title>http://example.org/assign12</title>
<g id="a_node15"><a xlink:href="http://example.org/assign12" xlink:title="assign12">
<polygon fill="#9fb1fc" stroke="#0000ff" points="996.241,-363 931.241,-363 931.241,-327 996.241,-327 996.241,-363"/>
<text text-anchor="middle" x="963.741" y="-341.3" font-family="Times New Roman,serif" font-size="14.00">assign12</text>
</a>
</g>
</g>
<!-- http://example.org/disti@j#3&#45;&gt;http://example.org/assign12 -->
<g id="edge35" class="edge"><title>http://example.org/disti@j#3&#45;&gt;http://example.org/assign12</title>
<path fill="none" stroke="black" d="M417.807,-284.938C425.911,-287.227 434.578,-289.422 442.741,-291 618.337,-324.945 831.697,-338.017 921.106,-342.251"/>
<polygon fill="black" stroke="black" points="920.982,-345.749 931.133,-342.713 921.305,-338.756 920.982,-345.749"/>
<text text-anchor="middle" x="428.524" y="-272.544" font-family="Times New Roman,serif" font-size="8.00">gen</text>
</g>
<!-- http://example.org/ikj#2 -->
<g id="node17" class="node"><title>http://example.org/ikj#2</title>
<ellipse fill="none" stroke="black" cx="538.741" cy="-417" rx="96.3833" ry="18"/>
<text text-anchor="middle" x="538.741" y="-413.3" font-family="Times New Roman,serif" font-size="14.00">http://example.org/ikj#2</text>
</g>
<!-- http://example.org/disti@j#3&#45;&gt;http://example.org/ikj#2 -->
<g id="edge19" class="edge"><title>http://example.org/disti@j#3&#45;&gt;http://example.org/ikj#2</title>
<path fill="none" stroke="black" d="M400.921,-289.739C428.097,-314.636 481.169,-363.257 512.937,-392.361"/>
<polygon fill="black" stroke="black" points="510.788,-395.139 520.526,-399.313 515.517,-389.977 510.788,-395.139"/>
<text text-anchor="middle" x="415.226" y="-283.327" font-family="Times New Roman,serif" font-size="8.00">der</text>
</g>
<!-- &#45;attrs0 -->
<g id="node2" class="node"><title>&#45;attrs0</title>
<polygon fill="none" stroke="gray" points="415.241,-219 346.241,-219 346.241,-170 421.241,-170 421.241,-213 415.241,-219"/>
<polyline fill="none" stroke="gray" points="415.241,-219 415.241,-213 "/>
<polyline fill="none" stroke="gray" points="421.241,-213 415.241,-213 "/>
<text text-anchor="start" x="356.741" y="-204.5" font-family="Times New Roman,serif" font-size="10.00">value:</text>
<text text-anchor="start" x="383.741" y="-204.5" font-family="Times New Roman,serif" font-size="10.00">3</text>
<text text-anchor="start" x="356.741" y="-191.5" font-family="Times New Roman,serif" font-size="10.00">type:</text>
<text text-anchor="start" x="383.741" y="-191.5" font-family="Times New Roman,serif" font-size="10.00">access</text>
<text text-anchor="start" x="356.741" y="-178.5" font-family="Times New Roman,serif" font-size="10.00">label:</text>
<text text-anchor="start" x="383.741" y="-178.5" font-family="Times New Roman,serif" font-size="10.00">disti[j]</text>
</g>
<!-- &#45;attrs0&#45;&gt;http://example.org/disti@j#3 -->
<g id="edge1" class="edge"><title>&#45;attrs0&#45;&gt;http://example.org/disti@j#3</title>
<path fill="none" stroke="gray" stroke-dasharray="5,2" d="M383.741,-219.286C383.741,-230.69 383.741,-244.105 383.741,-254.548"/>
</g>
<!-- http://example.org/disti#3 -->
<g id="node3" class="node"><title>http://example.org/disti#3</title>
<g id="a_node3"><a xlink:href="http://example.org/disti#3" xlink:title="disti#3">
<ellipse fill="#fffc87" stroke="#808080" cx="483.741" cy="-194.5" rx="35.194" ry="18"/>
<text text-anchor="middle" x="483.741" y="-190.8" font-family="Times New Roman,serif" font-size="14.00">disti#3</text>
</a>
</g>
</g>
<!-- http://example.org/disti#3&#45;&gt;http://example.org/disti@j#3 -->
<g id="edge5" class="edge"><title>http://example.org/disti#3&#45;&gt;http://example.org/disti@j#3</title>
<path fill="none" stroke="black" d="M464.932,-209.889C449.957,-221.345 428.766,-237.556 411.789,-250.544"/>
<polygon fill="black" stroke="black" points="409.654,-247.77 403.838,-256.625 413.908,-253.329 409.654,-247.77"/>
<text text-anchor="middle" x="466.868" y="-222.864" font-family="Times New Roman,serif" font-size="8.00">[ ]</text>
</g>
<!-- http://example.org/list0 -->
<g id="node5" class="node"><title>http://example.org/list0</title>
<ellipse fill="none" stroke="black" cx="577.741" cy="-273" rx="92.8835" ry="18"/>
<text text-anchor="middle" x="577.741" y="-269.3" font-family="Times New Roman,serif" font-size="14.00">http://example.org/list0</text>
</g>
<!-- http://example.org/disti#3&#45;&gt;http://example.org/list0 -->
<g id="edge3" class="edge"><title>http://example.org/disti#3&#45;&gt;http://example.org/list0</title>
<path fill="none" stroke="black" d="M501.865,-210.25C515.279,-221.167 533.817,-236.254 549.212,-248.782"/>
<polygon fill="black" stroke="black" points="547.423,-251.838 557.388,-255.436 551.841,-246.409 547.423,-251.838"/>
<text text-anchor="middle" x="515.882" y="-203.009" font-family="Times New Roman,serif" font-size="8.00">[ ]</text>
</g>
<!-- http://example.org/list2 -->
<g id="node6" class="node"><title>http://example.org/list2</title>
<ellipse fill="none" stroke="black" cx="781.741" cy="-273" rx="92.8835" ry="18"/>
<text text-anchor="middle" x="781.741" y="-269.3" font-family="Times New Roman,serif" font-size="14.00">http://example.org/list2</text>
</g>
<!-- http://example.org/disti#3&#45;&gt;http://example.org/list2 -->
<g id="edge4" class="edge"><title>http://example.org/disti#3&#45;&gt;http://example.org/list2</title>
<path fill="none" stroke="black" d="M509.717,-206.684C520.163,-210.915 532.399,-215.539 543.741,-219 597.322,-235.352 659.107,-248.961 706.295,-258.293"/>
<polygon fill="black" stroke="black" points="705.649,-261.733 716.135,-260.219 706.994,-254.864 705.649,-261.733"/>
<text text-anchor="middle" x="521.519" y="-195.526" font-family="Times New Roman,serif" font-size="8.00">[ ]</text>
</g>
<!-- http://example.org/disti#3&#45;&gt;http://example.org/assign12 -->
<g id="edge39" class="edge"><title>http://example.org/disti#3&#45;&gt;http://example.org/assign12</title>
<path fill="none" stroke="black" d="M475.702,-212.351C466.93,-233.495 456.518,-269.576 475.741,-291 505.268,-323.908 807.6,-338.291 921.046,-342.558"/>
<polygon fill="black" stroke="black" points="920.982,-346.058 931.104,-342.929 921.24,-339.063 920.982,-346.058"/>
<text text-anchor="middle" x="485.06" y="-222.173" font-family="Times New Roman,serif" font-size="8.00">gen</text>
</g>
<!-- http://example.org/disti#3&#45;&gt;http://example.org/ikj#2 -->
<g id="edge21" class="edge"><title>http://example.org/disti#3&#45;&gt;http://example.org/ikj#2</title>
<path fill="none" stroke="black" d="M458.337,-206.96C449.356,-210.903 439.148,-215.264 429.741,-219 385.839,-236.434 356.903,-216.354 329.741,-255 320.541,-268.09 322.132,-276.925 329.741,-291 360.059,-347.079 427.167,-380.462 477.21,-398.43"/>
<polygon fill="black" stroke="black" points="476.064,-401.737 486.659,-401.714 478.362,-395.125 476.064,-401.737"/>
<text text-anchor="middle" x="456.675" y="-219.967" font-family="Times New Roman,serif" font-size="8.00">der</text>
</g>
<!-- http://example.org/disti#2 -->
<g id="node18" class="node"><title>http://example.org/disti#2</title>
<ellipse fill="none" stroke="black" cx="321.741" cy="-417" rx="102.882" ry="18"/>
<text text-anchor="middle" x="321.741" y="-413.3" font-family="Times New Roman,serif" font-size="14.00">http://example.org/disti#2</text>
</g>
<!-- http://example.org/disti#3&#45;&gt;http://example.org/disti#2 -->
<g id="edge20" class="edge"><title>http://example.org/disti#3&#45;&gt;http://example.org/disti#2</title>
<path fill="none" stroke="black" d="M458.398,-207.115C449.421,-211.073 439.202,-215.402 429.741,-219 381.66,-237.284 349.933,-213.352 319.741,-255 291.194,-294.38 302.377,-354.606 312.47,-389.148"/>
<polygon fill="black" stroke="black" points="309.218,-390.477 315.522,-398.991 315.904,-388.403 309.218,-390.477"/>
<text text-anchor="middle" x="456.75" y="-220.125" font-family="Times New Roman,serif" font-size="8.00">der</text>
</g>
<!-- &#45;attrs1 -->
<g id="node4" class="node"><title>&#45;attrs1</title>
<polygon fill="none" stroke="gray" points="515.741,-134 445.741,-134 445.741,-85 521.741,-85 521.741,-128 515.741,-134"/>
<polyline fill="none" stroke="gray" points="515.741,-134 515.741,-128 "/>
<polyline fill="none" stroke="gray" points="521.741,-128 515.741,-128 "/>
<text text-anchor="start" x="455.741" y="-119.5" font-family="Times New Roman,serif" font-size="10.00">value:</text>
<text text-anchor="start" x="482.741" y="-119.5" font-family="Times New Roman,serif" font-size="10.00">[2, 3, 0]</text>
<text text-anchor="start" x="455.741" y="-106.5" font-family="Times New Roman,serif" font-size="10.00">type:</text>
<text text-anchor="start" x="482.741" y="-106.5" font-family="Times New Roman,serif" font-size="10.00">list</text>
<text text-anchor="start" x="455.741" y="-93.5" font-family="Times New Roman,serif" font-size="10.00">label:</text>
<text text-anchor="start" x="482.741" y="-93.5" font-family="Times New Roman,serif" font-size="10.00">disti</text>
</g>
<!-- &#45;attrs1&#45;&gt;http://example.org/disti#3 -->
<g id="edge2" class="edge"><title>&#45;attrs1&#45;&gt;http://example.org/disti#3</title>
<path fill="none" stroke="gray" stroke-dasharray="5,2" d="M483.741,-134.062C483.741,-147.578 483.741,-164.236 483.741,-176.475"/>
</g>
<!-- http://example.org/lastrow#2 -->
<g id="node7" class="node"><title>http://example.org/lastrow#2</title>
<g id="a_node7"><a xlink:href="http://example.org/lastrow#2" xlink:title="lastrow#2">
<ellipse fill="#fffc87" stroke="#808080" cx="598.741" cy="-194.5" rx="46.2923" ry="18"/>
<text text-anchor="middle" x="598.741" y="-190.8" font-family="Times New Roman,serif" font-size="14.00">lastrow#2</text>
</a>
</g>
</g>
<!-- http://example.org/lastrow#2&#45;&gt;http://example.org/disti@j#3 -->
<g id="edge9" class="edge"><title>http://example.org/lastrow#2&#45;&gt;http://example.org/disti@j#3</title>
<path fill="none" stroke="black" d="M565.618,-207.285C528.106,-220.633 466.892,-242.414 425.975,-256.973"/>
<polygon fill="black" stroke="black" points="424.797,-253.677 416.548,-260.327 427.143,-260.272 424.797,-253.677"/>
<text text-anchor="middle" x="562.907" y="-220.138" font-family="Times New Roman,serif" font-size="8.00">[ ]</text>
</g>
<!-- http://example.org/lastrow#2&#45;&gt;http://example.org/list0 -->
<g id="edge7" class="edge"><title>http://example.org/lastrow#2&#45;&gt;http://example.org/list0</title>
<path fill="none" stroke="black" d="M594.08,-212.478C591.462,-222.018 588.132,-234.147 585.163,-244.964"/>
<polygon fill="black" stroke="black" points="581.733,-244.235 582.461,-254.805 588.484,-246.088 581.733,-244.235"/>
<text text-anchor="middle" x="604.622" y="-221.249" font-family="Times New Roman,serif" font-size="8.00">[ ]</text>
</g>
<!-- http://example.org/lastrow#2&#45;&gt;http://example.org/list2 -->
<g id="edge8" class="edge"><title>http://example.org/lastrow#2&#45;&gt;http://example.org/list2</title>
<path fill="none" stroke="black" d="M628.96,-208.132C657.788,-220.183 701.635,-238.513 734.974,-252.45"/>
<polygon fill="black" stroke="black" points="733.939,-255.811 744.515,-256.438 736.639,-249.352 733.939,-255.811"/>
<text text-anchor="middle" x="640.89" y="-197.14" font-family="Times New Roman,serif" font-size="8.00">[ ]</text>
</g>
<!-- http://example.org/lastrow#2&#45;&gt;http://example.org/assign12 -->
<g id="edge37" class="edge"><title>http://example.org/lastrow#2&#45;&gt;http://example.org/assign12</title>
<path fill="none" stroke="black" d="M627.886,-208.5C637.546,-212.379 648.46,-216.309 658.741,-219 770.746,-248.313 821.963,-188.506 916.741,-255 937.666,-269.681 950.024,-296.644 956.773,-317.06"/>
<polygon fill="black" stroke="black" points="953.464,-318.21 959.727,-326.756 960.16,-316.17 953.464,-318.21"/>
<text text-anchor="middle" x="639.648" y="-197.291" font-family="Times New Roman,serif" font-size="8.00">gen</text>
</g>
<!-- http://example.org/lastrow#2&#45;&gt;http://example.org/ikj#2 -->
<g id="edge23" class="edge"><title>http://example.org/lastrow#2&#45;&gt;http://example.org/ikj#2</title>
<path fill="none" stroke="black" d="M628.224,-208.501C637.81,-212.333 648.595,-216.236 658.741,-219 760.044,-246.598 944.027,-205.037 883.741,-291 851.525,-336.938 700.305,-378.839 609.1,-400.51"/>
<polygon fill="black" stroke="black" points="608.038,-397.164 599.105,-402.861 609.641,-403.978 608.038,-397.164"/>
<text text-anchor="middle" x="639.975" y="-197.278" font-family="Times New Roman,serif" font-size="8.00">der</text>
</g>
<!-- http://example.org/lastrow#1 -->
<g id="node19" class="node"><title>http://example.org/lastrow#1</title>
<ellipse fill="none" stroke="black" cx="1208.74" cy="-417" rx="114.28" ry="18"/>
<text text-anchor="middle" x="1208.74" y="-413.3" font-family="Times New Roman,serif" font-size="14.00">http://example.org/lastrow#1</text>
</g>
<!-- http://example.org/lastrow#2&#45;&gt;http://example.org/lastrow#1 -->
<g id="edge22" class="edge"><title>http://example.org/lastrow#2&#45;&gt;http://example.org/lastrow#1</title>
<path fill="none" stroke="black" d="M634.676,-205.977C651.819,-210.615 672.699,-215.745 691.741,-219 778.404,-233.815 1008.79,-212.482 1085.74,-255 1140.99,-285.528 1179.23,-352.376 1197.15,-389.618"/>
<polygon fill="black" stroke="black" points="1194.06,-391.271 1201.46,-398.846 1200.4,-388.305 1194.06,-391.271"/>
<text text-anchor="middle" x="645.278" y="-193.465" font-family="Times New Roman,serif" font-size="8.00">der</text>
</g>
<!-- &#45;attrs2 -->
<g id="node8" class="node"><title>&#45;attrs2</title>
<polygon fill="none" stroke="gray" points="615.241,-134 544.241,-134 544.241,-85 621.241,-85 621.241,-128 615.241,-134"/>
<polyline fill="none" stroke="gray" points="615.241,-134 615.241,-128 "/>
<polyline fill="none" stroke="gray" points="621.241,-128 615.241,-128 "/>
<text text-anchor="start" x="554.741" y="-119.5" font-family="Times New Roman,serif" font-size="10.00">value:</text>
<text text-anchor="start" x="581.741" y="-119.5" font-family="Times New Roman,serif" font-size="10.00">[2, 3, 0]</text>
<text text-anchor="start" x="554.741" y="-106.5" font-family="Times New Roman,serif" font-size="10.00">type:</text>
<text text-anchor="start" x="581.741" y="-106.5" font-family="Times New Roman,serif" font-size="10.00">name</text>
<text text-anchor="start" x="554.741" y="-93.5" font-family="Times New Roman,serif" font-size="10.00">label:</text>
<text text-anchor="start" x="581.741" y="-93.5" font-family="Times New Roman,serif" font-size="10.00">lastrow</text>
</g>
<!-- &#45;attrs2&#45;&gt;http://example.org/lastrow#2 -->
<g id="edge6" class="edge"><title>&#45;attrs2&#45;&gt;http://example.org/lastrow#2</title>
<path fill="none" stroke="gray" stroke-dasharray="5,2" d="M587.283,-134.062C589.889,-147.578 593.1,-164.236 595.459,-176.475"/>
</g>
<!-- http://example.org/dist#2 -->
<g id="node9" class="node"><title>http://example.org/dist#2</title>
<g id="a_node9"><a xlink:href="http://example.org/dist#2" xlink:title="dist#2">
<ellipse fill="#fffc87" stroke="#808080" cx="672.741" cy="-109.5" rx="33.2948" ry="18"/>
<text text-anchor="middle" x="672.741" y="-105.8" font-family="Times New Roman,serif" font-size="14.00">dist#2</text>
</a>
</g>
</g>
<!-- http://example.org/dist#2&#45;&gt;http://example.org/disti#3 -->
<g id="edge13" class="edge"><title>http://example.org/dist#2&#45;&gt;http://example.org/disti#3</title>
<path fill="none" stroke="black" d="M650.672,-123.184C644.024,-126.834 636.657,-130.714 629.741,-134 609.798,-143.476 557.007,-164.639 520.69,-178.995"/>
<polygon fill="black" stroke="black" points="518.942,-175.922 510.924,-182.849 521.511,-182.434 518.942,-175.922"/>
<text text-anchor="middle" x="650.321" y="-136.28" font-family="Times New Roman,serif" font-size="8.00">[ ]</text>
</g>
<!-- http://example.org/matrix0#1 -->
<g id="node11" class="node"><title>http://example.org/matrix0#1</title>
<ellipse fill="none" stroke="black" cx="1061.74" cy="-194.5" rx="114.28" ry="18"/>
<text text-anchor="middle" x="1061.74" y="-190.8" font-family="Times New Roman,serif" font-size="14.00">http://example.org/matrix0#1</text>
</g>
<!-- http://example.org/dist#2&#45;&gt;http://example.org/matrix0#1 -->
<g id="edge11" class="edge"><title>http://example.org/dist#2&#45;&gt;http://example.org/matrix0#1</title>
<path fill="none" stroke="black" d="M702.942,-116.944C763.298,-129.822 900.41,-159.077 986.581,-177.463"/>
<polygon fill="black" stroke="black" points="986.059,-180.931 996.569,-179.594 987.52,-174.085 986.059,-180.931"/>
<text text-anchor="middle" x="712.987" y="-103.904" font-family="Times New Roman,serif" font-size="8.00">[ ]</text>
</g>
<!-- http://example.org/matrix1#1 -->
<g id="node12" class="node"><title>http://example.org/matrix1#1</title>
<ellipse fill="none" stroke="black" cx="814.741" cy="-194.5" rx="114.28" ry="18"/>
<text text-anchor="middle" x="814.741" y="-190.8" font-family="Times New Roman,serif" font-size="14.00">http://example.org/matrix1#1</text>
</g>
<!-- http://example.org/dist#2&#45;&gt;http://example.org/matrix1#1 -->
<g id="edge12" class="edge"><title>http://example.org/dist#2&#45;&gt;http://example.org/matrix1#1</title>
<path fill="none" stroke="black" d="M694.617,-123.287C716.678,-136.181 751.149,-156.33 777.517,-171.742"/>
<polygon fill="black" stroke="black" points="776.073,-174.952 786.472,-176.977 779.605,-168.909 776.073,-174.952"/>
<text text-anchor="middle" x="707.648" y="-113.956" font-family="Times New Roman,serif" font-size="8.00">[ ]</text>
</g>
<!-- http://example.org/dist#2&#45;&gt;http://example.org/assign12 -->
<g id="edge38" class="edge"><title>http://example.org/dist#2&#45;&gt;http://example.org/assign12</title>
<path fill="none" stroke="black" d="M670.188,-127.581C667.656,-151.632 667.145,-195.192 691.741,-219 773.665,-298.299 862.785,-176.781 945.741,-255 962.269,-270.584 965.893,-296.824 965.904,-316.785"/>
<polygon fill="black" stroke="black" points="962.404,-316.744 965.613,-326.841 969.401,-316.946 962.404,-316.744"/>
<text text-anchor="middle" x="682.479" y="-134.28" font-family="Times New Roman,serif" font-size="8.00">gen</text>
</g>
<!-- http://example.org/dist#2&#45;&gt;http://example.org/ikj#2 -->
<g id="edge25" class="edge"><title>http://example.org/dist#2&#45;&gt;http://example.org/ikj#2</title>
<path fill="none" stroke="black" d="M652.022,-123.88C645.174,-127.732 637.354,-131.551 629.741,-134 567.291,-154.088 384.837,-125.388 336.741,-170 273.608,-228.559 288.121,-307.243 353.741,-363 370.843,-377.531 420.941,-391.406 464.695,-401.313"/>
<polygon fill="black" stroke="black" points="463.975,-404.738 474.496,-403.491 465.494,-397.905 463.975,-404.738"/>
<text text-anchor="middle" x="651.755" y="-136.977" font-family="Times New Roman,serif" font-size="8.00">der</text>
</g>
<!-- http://example.org/dist#1 -->
<g id="node20" class="node"><title>http://example.org/dist#1</title>
<ellipse fill="none" stroke="black" cx="100.741" cy="-417" rx="100.983" ry="18"/>
<text text-anchor="middle" x="100.741" y="-413.3" font-family="Times New Roman,serif" font-size="14.00">http://example.org/dist#1</text>
</g>
<!-- http://example.org/dist#2&#45;&gt;http://example.org/dist#1 -->
<g id="edge24" class="edge"><title>http://example.org/dist#2&#45;&gt;http://example.org/dist#1</title>
<path fill="none" stroke="black" d="M652.042,-123.942C645.194,-127.798 637.37,-131.603 629.741,-134 488.987,-178.221 429.242,-99.3132 299.741,-170 205.748,-221.305 139.513,-337.116 113.263,-389.445"/>
<polygon fill="black" stroke="black" points="109.965,-388.22 108.689,-398.737 116.246,-391.311 109.965,-388.22"/>
<text text-anchor="middle" x="651.778" y="-137.04" font-family="Times New Roman,serif" font-size="8.00">der</text>
</g>
<!-- &#45;attrs3 -->
<g id="node10" class="node"><title>&#45;attrs3</title>
<polygon fill="none" stroke="gray" points="749.741,-49 589.741,-49 589.741,-0 755.741,-0 755.741,-43 749.741,-49"/>
<polyline fill="none" stroke="gray" points="749.741,-49 749.741,-43 "/>
<polyline fill="none" stroke="gray" points="755.741,-43 749.741,-43 "/>
<text text-anchor="start" x="599.741" y="-34.5" font-family="Times New Roman,serif" font-size="10.00">value:</text>
<text text-anchor="start" x="626.741" y="-34.5" font-family="Times New Roman,serif" font-size="10.00">[[0, 1, 4], [10000, 0, 2], [2, 3, 0]]</text>
<text text-anchor="start" x="599.741" y="-21.5" font-family="Times New Roman,serif" font-size="10.00">type:</text>
<text text-anchor="start" x="626.741" y="-21.5" font-family="Times New Roman,serif" font-size="10.00">list</text>
<text text-anchor="start" x="599.741" y="-8.5" font-family="Times New Roman,serif" font-size="10.00">label:</text>
<text text-anchor="start" x="626.741" y="-8.5" font-family="Times New Roman,serif" font-size="10.00">dist</text>
</g>
<!-- &#45;attrs3&#45;&gt;http://example.org/dist#2 -->
<g id="edge10" class="edge"><title>&#45;attrs3&#45;&gt;http://example.org/dist#2</title>
<path fill="none" stroke="gray" stroke-dasharray="5,2" d="M672.741,-49.0625C672.741,-62.5778 672.741,-79.2361 672.741,-91.4752"/>
</g>
<!-- http://example.org/result#2 -->
<g id="node13" class="node"><title>http://example.org/result#2</title>
<g id="a_node13"><a xlink:href="http://example.org/result#2" xlink:title="result#2">
<ellipse fill="#fffc87" stroke="#808080" cx="1132.74" cy="-109.5" rx="39.7935" ry="18"/>
<text text-anchor="middle" x="1132.74" y="-105.8" font-family="Times New Roman,serif" font-size="14.00">result#2</text>
</a>
</g>
</g>
<!-- http://example.org/result#2&#45;&gt;http://example.org/disti#3 -->
<g id="edge17" class="edge"><title>http://example.org/result#2&#45;&gt;http://example.org/disti#3</title>
<path fill="none" stroke="black" d="M1093.18,-110.802C997.459,-112.326 746.298,-121.077 543.741,-170 535.3,-172.039 526.461,-175.002 518.242,-178.141"/>
<polygon fill="black" stroke="black" points="516.924,-174.899 508.939,-181.863 519.524,-181.398 516.924,-174.899"/>
<text text-anchor="middle" x="1085.96" y="-122.049" font-family="Times New Roman,serif" font-size="8.00">[ ]</text>
</g>
<!-- http://example.org/result#2&#45;&gt;http://example.org/matrix0#1 -->
<g id="edge15" class="edge"><title>http://example.org/result#2&#45;&gt;http://example.org/matrix0#1</title>
<path fill="none" stroke="black" d="M1119.05,-126.503C1108.81,-138.474 1094.62,-155.067 1082.92,-168.744"/>
<polygon fill="black" stroke="black" points="1080.21,-166.529 1076.37,-176.403 1085.53,-171.079 1080.21,-166.529"/>
<text text-anchor="middle" x="1124.05" y="-138.747" font-family="Times New Roman,serif" font-size="8.00">[ ]</text>
</g>
<!-- http://example.org/result#2&#45;&gt;http://example.org/matrix1#1 -->
<g id="edge16" class="edge"><title>http://example.org/result#2&#45;&gt;http://example.org/matrix1#1</title>
<path fill="none" stroke="black" d="M1099.31,-119.226C1047.74,-132.686 947.784,-158.775 881.141,-176.169"/>
<polygon fill="black" stroke="black" points="879.944,-172.864 871.152,-178.776 881.712,-179.637 879.944,-172.864"/>
<text text-anchor="middle" x="1095.33" y="-131.789" font-family="Times New Roman,serif" font-size="8.00">[ ]</text>
</g>
<!-- http://example.org/result#2&#45;&gt;http://example.org/assign12 -->
<g id="edge36" class="edge"><title>http://example.org/result#2&#45;&gt;http://example.org/assign12</title>
<path fill="none" stroke="black" d="M1151.46,-125.473C1163.5,-136.37 1178.09,-152.276 1184.74,-170 1192.39,-190.389 1194.62,-199.593 1184.74,-219 1149.88,-287.453 1060.07,-320.635 1006.28,-334.844"/>
<polygon fill="black" stroke="black" points="1005.18,-331.511 996.349,-337.36 1006.9,-338.296 1005.18,-331.511"/>
<text text-anchor="middle" x="1165.8" y="-119.161" font-family="Times New Roman,serif" font-size="8.00">gen</text>
</g>
<!-- http://example.org/result#2&#45;&gt;http://example.org/ikj#2 -->
<g id="edge27" class="edge"><title>http://example.org/result#2&#45;&gt;http://example.org/ikj#2</title>
<path fill="none" stroke="black" d="M1157.41,-123.815C1173.6,-134.065 1193.44,-149.877 1202.74,-170 1211.88,-189.767 1209.54,-198.309 1202.74,-219 1168.79,-322.381 1109.31,-332.915 1004.74,-363 849.786,-407.581 803.622,-378.105 643.741,-399 635.16,-400.121 626.202,-401.402 617.293,-402.746"/>
<polygon fill="black" stroke="black" points="616.629,-399.307 607.277,-404.285 617.693,-406.225 616.629,-399.307"/>
<text text-anchor="middle" x="1170.8" y="-115.152" font-family="Times New Roman,serif" font-size="8.00">der</text>
</g>
<!-- http://example.org/result#1 -->
<g id="node21" class="node"><title>http://example.org/result#1</title>
<ellipse fill="none" stroke="black" cx="1448.74" cy="-417" rx="107.482" ry="18"/>
<text text-anchor="middle" x="1448.74" y="-413.3" font-family="Times New Roman,serif" font-size="14.00">http://example.org/result#1</text>
</g>
<!-- http://example.org/result#2&#45;&gt;http://example.org/result#1 -->
<g id="edge26" class="edge"><title>http://example.org/result#2&#45;&gt;http://example.org/result#1</title>
<path fill="none" stroke="black" d="M1164.57,-120.432C1192.02,-130.072 1231.7,-146.674 1260.74,-170 1341.28,-234.691 1406.85,-340.896 1434.53,-389.824"/>
<polygon fill="black" stroke="black" points="1431.63,-391.794 1439.56,-398.816 1437.74,-388.379 1431.63,-391.794"/>
<text text-anchor="middle" x="1176.04" y="-108.864" font-family="Times New Roman,serif" font-size="8.00">der</text>
</g>
<!-- &#45;attrs4 -->
<g id="node14" class="node"><title>&#45;attrs4</title>
<polygon fill="none" stroke="gray" points="1209.74,-49 1049.74,-49 1049.74,-0 1215.74,-0 1215.74,-43 1209.74,-49"/>
<polyline fill="none" stroke="gray" points="1209.74,-49 1209.74,-43 "/>
<polyline fill="none" stroke="gray" points="1215.74,-43 1209.74,-43 "/>
<text text-anchor="start" x="1059.74" y="-34.5" font-family="Times New Roman,serif" font-size="10.00">value:</text>
<text text-anchor="start" x="1086.74" y="-34.5" font-family="Times New Roman,serif" font-size="10.00">[[0, 1, 4], [10000, 0, 2], [2, 3, 0]]</text>
<text text-anchor="start" x="1059.74" y="-21.5" font-family="Times New Roman,serif" font-size="10.00">type:</text>
<text text-anchor="start" x="1086.74" y="-21.5" font-family="Times New Roman,serif" font-size="10.00">name</text>
<text text-anchor="start" x="1059.74" y="-8.5" font-family="Times New Roman,serif" font-size="10.00">label:</text>
<text text-anchor="start" x="1086.74" y="-8.5" font-family="Times New Roman,serif" font-size="10.00">result</text>
</g>
<!-- &#45;attrs4&#45;&gt;http://example.org/result#2 -->
<g id="edge14" class="edge"><title>&#45;attrs4&#45;&gt;http://example.org/result#2</title>
<path fill="none" stroke="gray" stroke-dasharray="5,2" d="M1132.74,-49.0625C1132.74,-62.5778 1132.74,-79.2361 1132.74,-91.4752"/>
</g>
<!-- http://example.org/assign12&#45;&gt;http://example.org/ikj#2 -->
<g id="edge33" class="edge"><title>http://example.org/assign12&#45;&gt;http://example.org/ikj#2</title>
<path fill="none" stroke="black" d="M931.148,-358.808C926.367,-360.389 921.462,-361.849 916.741,-363 797.839,-391.982 764.826,-381.218 643.741,-399 635.468,-400.215 626.836,-401.532 618.232,-402.877"/>
<polygon fill="black" stroke="black" points="617.5,-399.449 608.167,-404.464 618.59,-406.364 617.5,-399.449"/>
<text text-anchor="middle" x="928.058" y="-371.587" font-family="Times New Roman,serif" font-size="8.00">use</text>
</g>
<!-- http://example.org/assign12&#45;&gt;http://example.org/disti#2 -->
<g id="edge30" class="edge"><title>http://example.org/assign12&#45;&gt;http://example.org/disti#2</title>
<path fill="none" stroke="black" d="M931.109,-348.68C847.992,-355.634 621.598,-375.366 433.741,-399 424.4,-400.175 414.636,-401.505 404.934,-402.891"/>
<polygon fill="black" stroke="black" points="404.26,-399.452 394.866,-404.352 405.265,-406.38 404.26,-399.452"/>
<text text-anchor="middle" x="924.732" y="-360.357" font-family="Times New Roman,serif" font-size="8.00">use</text>
</g>
<!-- http://example.org/assign12&#45;&gt;http://example.org/lastrow#1 -->
<g id="edge32" class="edge"><title>http://example.org/assign12&#45;&gt;http://example.org/lastrow#1</title>
<path fill="none" stroke="black" d="M996.275,-355.295C1034.39,-366.186 1098.41,-384.476 1146.23,-398.139"/>
<polygon fill="black" stroke="black" points="1145.29,-401.511 1155.87,-400.893 1147.21,-394.78 1145.29,-401.511"/>
<text text-anchor="middle" x="1007.06" y="-342.965" font-family="Times New Roman,serif" font-size="8.00">use</text>
</g>
<!-- http://example.org/assign12&#45;&gt;http://example.org/dist#1 -->
<g id="edge31" class="edge"><title>http://example.org/assign12&#45;&gt;http://example.org/dist#1</title>
<path fill="none" stroke="black" d="M930.948,-347.313C825.815,-351.736 487.813,-367.599 209.741,-399 200.489,-400.045 190.821,-401.306 181.227,-402.663"/>
<polygon fill="black" stroke="black" points="180.671,-399.207 171.277,-404.108 181.677,-406.135 180.671,-399.207"/>
<text text-anchor="middle" x="924.023" y="-358.719" font-family="Times New Roman,serif" font-size="8.00">use</text>
</g>
<!-- http://example.org/assign12&#45;&gt;http://example.org/result#1 -->
<g id="edge34" class="edge"><title>http://example.org/assign12&#45;&gt;http://example.org/result#1</title>
<path fill="none" stroke="black" d="M996.481,-350.701C1060.76,-359.934 1207.97,-381.095 1331.74,-399 1341.09,-400.352 1350.86,-401.768 1360.59,-403.18"/>
<polygon fill="black" stroke="black" points="1360.3,-406.675 1370.7,-404.647 1361.31,-399.747 1360.3,-406.675"/>
<text text-anchor="middle" x="1005.75" y="-337.009" font-family="Times New Roman,serif" font-size="8.00">use</text>
</g>
<!-- http://example.org/j#5 -->
<g id="node22" class="node"><title>http://example.org/j#5</title>
<ellipse fill="none" stroke="black" cx="742.741" cy="-417" rx="89.8845" ry="18"/>
<text text-anchor="middle" x="742.741" y="-413.3" font-family="Times New Roman,serif" font-size="14.00">http://example.org/j#5</text>
</g>
<!-- http://example.org/assign12&#45;&gt;http://example.org/j#5 -->
<g id="edge28" class="edge"><title>http://example.org/assign12&#45;&gt;http://example.org/j#5</title>
<path fill="none" stroke="black" d="M931.201,-358.015C926.367,-359.728 921.434,-361.438 916.741,-363 878.563,-375.71 835.283,-388.898 801.438,-398.939"/>
<polygon fill="black" stroke="black" points="800.302,-395.625 791.705,-401.817 802.287,-402.338 800.302,-395.625"/>
<text text-anchor="middle" x="928.461" y="-370.863" font-family="Times New Roman,serif" font-size="8.00">use</text>
</g>
<!-- http://example.org/disti@j#2 -->
<g id="node23" class="node"><title>http://example.org/disti@j#2</title>
<ellipse fill="none" stroke="black" cx="963.741" cy="-417" rx="113.18" ry="18"/>
<text text-anchor="middle" x="963.741" y="-413.3" font-family="Times New Roman,serif" font-size="14.00">http://example.org/disti@j#2</text>
</g>
<!-- http://example.org/assign12&#45;&gt;http://example.org/disti@j#2 -->
<g id="edge29" class="edge"><title>http://example.org/assign12&#45;&gt;http://example.org/disti@j#2</title>
<path fill="none" stroke="black" d="M963.741,-363.303C963.741,-371.017 963.741,-380.288 963.741,-388.888"/>
<polygon fill="black" stroke="black" points="960.241,-388.896 963.741,-398.896 967.241,-388.896 960.241,-388.896"/>
<text text-anchor="middle" x="976.731" y="-368.903" font-family="Times New Roman,serif" font-size="8.00">use</text>
</g>
<!-- &#45;attrs5 -->
<g id="node16" class="node"><title>&#45;attrs5</title>
<polygon fill="none" stroke="gray" points="1070.74,-291 1006.74,-291 1006.74,-255 1076.74,-255 1076.74,-285 1070.74,-291"/>
<polyline fill="none" stroke="gray" points="1070.74,-291 1070.74,-285 "/>
<polyline fill="none" stroke="gray" points="1076.74,-285 1070.74,-285 "/>
<text text-anchor="start" x="1016.74" y="-270" font-family="Times New Roman,serif" font-size="10.00">type:</text>
<text text-anchor="start" x="1039.74" y="-270" font-family="Times New Roman,serif" font-size="10.00">assign</text>
</g>
<!-- &#45;attrs5&#45;&gt;http://example.org/assign12 -->
<g id="edge18" class="edge"><title>&#45;attrs5&#45;&gt;http://example.org/assign12</title>
<path fill="none" stroke="gray" stroke-dasharray="5,2" d="M1022.46,-291.303C1010.37,-302.154 994.848,-316.083 982.8,-326.896"/>
</g>
</g>
</svg>
