<?xml version="1.0" encoding="UTF-8" standalone="no"?>
<!DOCTYPE svg PUBLIC "-//W3C//DTD SVG 1.1//EN"
 "http://www.w3.org/Graphics/SVG/1.1/DTD/svg11.dtd">
<!-- Generated by graphviz version 2.38.0 (20140413.2041)
 -->
<!-- Title: PROV Pages: 1 -->
<svg width="1152pt" height="437pt"
 viewBox="0.00 0.00 1152.00 437.14" xmlns="http://www.w3.org/2000/svg" xmlns:xlink="http://www.w3.org/1999/xlink">
<g id="graph0" class="graph" transform="scale(0.986775 0.986775) rotate(0) translate(4 439)">
<title>PROV</title>
<polygon fill="white" stroke="none" points="-4,4 -4,-439 1163.44,-439 1163.44,4 -4,4"/>
<!-- http://example.org/1 -->
<g id="node1" class="node"><title>http://example.org/1</title>
<g id="a_node1"><a xlink:href="http://example.org/1" xlink:title="1">
<ellipse fill="#fafafa" stroke="#f0f0f0" cx="65.2463" cy="-417" rx="27" ry="18"/>
<text text-anchor="middle" x="65.2463" y="-413.3" font-family="Times New Roman,serif" font-size="14.00" fill="#f0f0f0">1</text>
</a>
</g>
</g>
<!-- http://example.org/4 -->
<g id="node2" class="node"><title>http://example.org/4</title>
<g id="a_node2"><a xlink:href="http://example.org/4" xlink:title="4">
<ellipse fill="#fafafa" stroke="#f0f0f0" cx="144.246" cy="-417" rx="27" ry="18"/>
<text text-anchor="middle" x="144.246" y="-413.3" font-family="Times New Roman,serif" font-size="14.00" fill="#f0f0f0">4</text>
</a>
</g>
</g>
<!-- http://example.org/matrix -->
<g id="node3" class="node"><title>http://example.org/matrix</title>
<g id="a_node3"><a xlink:href="http://example.org/matrix" xlink:title="matrix">
<ellipse fill="#fffc87" stroke="#808080" cx="456.246" cy="-109.5" rx="33.2948" ry="18"/>
<text text-anchor="middle" x="456.246" y="-105.8" font-family="Times New Roman,serif" font-size="14.00">matrix</text>
</a>
</g>
</g>
<!-- http://example.org/matrix0#1 -->
<g id="node5" class="node"><title>http://example.org/matrix0#1</title>
<g id="a_node5"><a xlink:href="http://example.org/matrix0#1" xlink:title="matrix0#1">
<ellipse fill="#fffc87" stroke="#808080" cx="217.246" cy="-194.5" rx="46.5926" ry="18"/>
<text text-anchor="middle" x="217.246" y="-190.8" font-family="Times New Roman,serif" font-size="14.00">matrix0#1</text>
</a>
</g>
</g>
<!-- http://example.org/matrix&#45;&gt;http://example.org/matrix0#1 -->
<g id="edge9" class="edge"><title>http://example.org/matrix&#45;&gt;http://example.org/matrix0#1</title>
<path fill="none" stroke="black" d="M427.78,-118.953C391.575,-129.888 327.265,-149.923 273.246,-170 267.738,-172.047 261.974,-174.317 256.326,-176.615"/>
<polygon fill="black" stroke="black" points="254.899,-173.418 246.998,-180.476 257.576,-179.886 254.899,-173.418"/>
<text text-anchor="middle" x="424.38" y="-131.663" font-family="Times New Roman,serif" font-size="8.00">[ ]</text>
</g>
<!-- http://example.org/matrix1#1 -->
<g id="node13" class="node"><title>http://example.org/matrix1#1</title>
<g id="a_node13"><a xlink:href="http://example.org/matrix1#1" xlink:title="matrix1#1">
<ellipse fill="#fffc87" stroke="#808080" cx="535.246" cy="-194.5" rx="46.5926" ry="18"/>
<text text-anchor="middle" x="535.246" y="-190.8" font-family="Times New Roman,serif" font-size="14.00">matrix1#1</text>
</a>
</g>
</g>
<!-- http://example.org/matrix&#45;&gt;http://example.org/matrix1#1 -->
<g id="edge17" class="edge"><title>http://example.org/matrix&#45;&gt;http://example.org/matrix1#1</title>
<path fill="none" stroke="black" d="M470.736,-125.723C482.462,-138.043 499.184,-155.612 512.665,-169.775"/>
<polygon fill="black" stroke="black" points="510.338,-172.408 519.768,-177.238 515.409,-167.581 510.338,-172.408"/>
<text text-anchor="middle" x="485.316" y="-120.3" font-family="Times New Roman,serif" font-size="8.00">[ ]</text>
</g>
<!-- http://example.org/matrix2 -->
<g id="node21" class="node"><title>http://example.org/matrix2</title>
<g id="a_node21"><a xlink:href="http://example.org/matrix2" xlink:title="matrix2">
<ellipse fill="#fffc87" stroke="#808080" cx="775.246" cy="-273" rx="37.8943" ry="18"/>
<text text-anchor="middle" x="775.246" y="-269.3" font-family="Times New Roman,serif" font-size="14.00">matrix2</text>
</a>
</g>
</g>
<!-- http://example.org/matrix&#45;&gt;http://example.org/matrix2 -->
<g id="edge19" class="edge"><title>http://example.org/matrix&#45;&gt;http://example.org/matrix2</title>
<path fill="none" stroke="black" d="M476.448,-123.891C483.135,-127.745 490.78,-131.561 498.246,-134 561.023,-154.51 749.467,-120.554 793.246,-170 811.603,-190.733 801.361,-223.433 790.284,-246.2"/>
<polygon fill="black" stroke="black" points="787.069,-244.797 785.567,-255.285 793.282,-248.023 787.069,-244.797"/>
<text text-anchor="middle" x="489.38" y="-114.392" font-family="Times New Roman,serif" font-size="8.00">[ ]</text>
</g>
<!-- http://example.org/definelist2 -->
<g id="node26" class="node"><title>http://example.org/definelist2</title>
<g id="a_node26"><a xlink:href="http://example.org/definelist2" xlink:title="definelist2">
<polygon fill="#9fb1fc" stroke="#0000ff" points="421.746,-363 348.746,-363 348.746,-327 421.746,-327 421.746,-363"/>
<text text-anchor="middle" x="385.246" y="-341.3" font-family="Times New Roman,serif" font-size="14.00">definelist2</text>
</a>
</g>
</g>
<!-- http://example.org/matrix&#45;&gt;http://example.org/definelist2 -->
<g id="edge31" class="edge"><title>http://example.org/matrix&#45;&gt;http://example.org/definelist2</title>
<path fill="none" stroke="black" d="M458.049,-127.66C460.792,-160.945 463.237,-235.845 437.246,-291 432.146,-301.823 423.909,-311.764 415.48,-320.041"/>
<polygon fill="black" stroke="black" points="413.064,-317.508 408.098,-326.866 417.816,-322.648 413.064,-317.508"/>
<text text-anchor="middle" x="471.534" y="-132.33" font-family="Times New Roman,serif" font-size="8.00">gen</text>
</g>
<!-- &#45;attrs0 -->
<g id="node4" class="node"><title>&#45;attrs0</title>
<polygon fill="none" stroke="gray" points="542.246,-49 364.246,-49 364.246,-0 548.246,-0 548.246,-43 542.246,-49"/>
<polyline fill="none" stroke="gray" points="542.246,-49 542.246,-43 "/>
<polyline fill="none" stroke="gray" points="548.246,-43 542.246,-43 "/>
<text text-anchor="start" x="374.246" y="-34.5" font-family="Times New Roman,serif" font-size="10.00">value:</text>
<text text-anchor="start" x="401.246" y="-34.5" font-family="Times New Roman,serif" font-size="10.00">[[0, 1, 4], [10000, 0, 2], [2, 10000, 0]]</text>
<text text-anchor="start" x="374.246" y="-21.5" font-family="Times New Roman,serif" font-size="10.00">type:</text>
<text text-anchor="start" x="401.246" y="-21.5" font-family="Times New Roman,serif" font-size="10.00">list</text>
<text text-anchor="start" x="374.246" y="-8.5" font-family="Times New Roman,serif" font-size="10.00">label:</text>
<text text-anchor="start" x="401.246" y="-8.5" font-family="Times New Roman,serif" font-size="10.00">[[0, 1, 4], [m, 0, 2], lastrow]</text>
</g>
<!-- &#45;attrs0&#45;&gt;http://example.org/matrix -->
<g id="edge1" class="edge"><title>&#45;attrs0&#45;&gt;http://example.org/matrix</title>
<path fill="none" stroke="gray" stroke-dasharray="5,2" d="M456.246,-49.0625C456.246,-62.5778 456.246,-79.2361 456.246,-91.4752"/>
</g>
<!-- http://example.org/matrix00 -->
<g id="node7" class="node"><title>http://example.org/matrix00</title>
<g id="a_node7"><a xlink:href="http://example.org/matrix00" xlink:title="matrix00">
<ellipse fill="#fffc87" stroke="#808080" cx="246.246" cy="-273" rx="42.4939" ry="18"/>
<text text-anchor="middle" x="246.246" y="-269.3" font-family="Times New Roman,serif" font-size="14.00">matrix00</text>
</a>
</g>
</g>
<!-- http://example.org/matrix0#1&#45;&gt;http://example.org/matrix00 -->
<g id="edge4" class="edge"><title>http://example.org/matrix0#1&#45;&gt;http://example.org/matrix00</title>
<path fill="none" stroke="black" d="M223.682,-212.478C227.362,-222.184 232.057,-234.57 236.211,-245.527"/>
<polygon fill="black" stroke="black" points="233.011,-246.96 239.828,-255.07 239.556,-244.478 233.011,-246.96"/>
<text text-anchor="middle" x="238.488" y="-212.986" font-family="Times New Roman,serif" font-size="8.00">[ ]</text>
</g>
<!-- http://example.org/matrix01 -->
<g id="node9" class="node"><title>http://example.org/matrix01</title>
<g id="a_node9"><a xlink:href="http://example.org/matrix01" xlink:title="matrix01">
<ellipse fill="#fffc87" stroke="#808080" cx="42.2463" cy="-273" rx="42.4939" ry="18"/>
<text text-anchor="middle" x="42.2463" y="-269.3" font-family="Times New Roman,serif" font-size="14.00">matrix01</text>
</a>
</g>
</g>
<!-- http://example.org/matrix0#1&#45;&gt;http://example.org/matrix01 -->
<g id="edge6" class="edge"><title>http://example.org/matrix0#1&#45;&gt;http://example.org/matrix01</title>
<path fill="none" stroke="black" d="M187.56,-208.477C157.955,-221.419 112.367,-241.347 80.1593,-255.427"/>
<polygon fill="black" stroke="black" points="78.3869,-252.382 70.626,-259.594 81.1907,-258.795 78.3869,-252.382"/>
<text text-anchor="middle" x="185.891" y="-221.484" font-family="Times New Roman,serif" font-size="8.00">[ ]</text>
</g>
<!-- http://example.org/matrix02 -->
<g id="node11" class="node"><title>http://example.org/matrix02</title>
<g id="a_node11"><a xlink:href="http://example.org/matrix02" xlink:title="matrix02">
<ellipse fill="#fffc87" stroke="#808080" cx="144.246" cy="-273" rx="42.4939" ry="18"/>
<text text-anchor="middle" x="144.246" y="-269.3" font-family="Times New Roman,serif" font-size="14.00">matrix02</text>
</a>
</g>
</g>
<!-- http://example.org/matrix0#1&#45;&gt;http://example.org/matrix02 -->
<g id="edge8" class="edge"><title>http://example.org/matrix0#1&#45;&gt;http://example.org/matrix02</title>
<path fill="none" stroke="black" d="M201.765,-211.724C191.534,-222.445 177.961,-236.669 166.569,-248.607"/>
<polygon fill="black" stroke="black" points="163.827,-246.411 159.455,-256.062 168.891,-251.244 163.827,-246.411"/>
<text text-anchor="middle" x="205.985" y="-224.218" font-family="Times New Roman,serif" font-size="8.00">[ ]</text>
</g>
<!-- http://example.org/matrix0#1&#45;&gt;http://example.org/definelist2 -->
<g id="edge32" class="edge"><title>http://example.org/matrix0#1&#45;&gt;http://example.org/definelist2</title>
<path fill="none" stroke="black" d="M239.325,-210.556C255.788,-222.104 278.56,-238.767 297.246,-255 310.086,-266.154 340.128,-296.946 361.534,-319.189"/>
<polygon fill="black" stroke="black" points="359.251,-321.865 368.702,-326.653 364.3,-317.016 359.251,-321.865"/>
<text text-anchor="middle" x="252.943" y="-202.368" font-family="Times New Roman,serif" font-size="8.00">gen</text>
</g>
<!-- &#45;attrs1 -->
<g id="node6" class="node"><title>&#45;attrs1</title>
<polygon fill="none" stroke="gray" points="249.246,-134 179.246,-134 179.246,-85 255.246,-85 255.246,-128 249.246,-134"/>
<polyline fill="none" stroke="gray" points="249.246,-134 249.246,-128 "/>
<polyline fill="none" stroke="gray" points="255.246,-128 249.246,-128 "/>
<text text-anchor="start" x="189.246" y="-119.5" font-family="Times New Roman,serif" font-size="10.00">value:</text>
<text text-anchor="start" x="216.246" y="-119.5" font-family="Times New Roman,serif" font-size="10.00">[0, 1, 4]</text>
<text text-anchor="start" x="189.246" y="-106.5" font-family="Times New Roman,serif" font-size="10.00">type:</text>
<text text-anchor="start" x="216.246" y="-106.5" font-family="Times New Roman,serif" font-size="10.00">list</text>
<text text-anchor="start" x="189.246" y="-93.5" font-family="Times New Roman,serif" font-size="10.00">label:</text>
<text text-anchor="start" x="216.246" y="-93.5" font-family="Times New Roman,serif" font-size="10.00">[0, 1, 4]</text>
</g>
<!-- &#45;attrs1&#45;&gt;http://example.org/matrix0#1 -->
<g id="edge2" class="edge"><title>&#45;attrs1&#45;&gt;http://example.org/matrix0#1</title>
<path fill="none" stroke="gray" stroke-dasharray="5,2" d="M217.246,-134.062C217.246,-147.578 217.246,-164.236 217.246,-176.475"/>
</g>
<!-- http://example.org/matrix00&#45;&gt;http://example.org/definelist2 -->
<g id="edge45" class="edge"><title>http://example.org/matrix00&#45;&gt;http://example.org/definelist2</title>
<path fill="none" stroke="black" d="M272.391,-287.166C292.021,-297.052 319.334,-310.807 342.173,-322.308"/>
<polygon fill="black" stroke="black" points="340.821,-325.546 351.326,-326.918 343.969,-319.294 340.821,-325.546"/>
<text text-anchor="middle" x="284.932" y="-277.038" font-family="Times New Roman,serif" font-size="8.00">gen</text>
</g>
<!-- http://example.org/0 -->
<g id="node28" class="node"><title>http://example.org/0</title>
<ellipse fill="none" stroke="black" cx="272.246" cy="-417" rx="83.3857" ry="18"/>
<text text-anchor="middle" x="272.246" y="-413.3" font-family="Times New Roman,serif" font-size="14.00">http://example.org/0</text>
</g>
<!-- http://example.org/matrix00&#45;&gt;http://example.org/0 -->
<g id="edge24" class="edge"><title>http://example.org/matrix00&#45;&gt;http://example.org/0</title>
<path fill="none" stroke="black" d="M249.382,-291.129C253.814,-315.33 261.954,-359.789 267.231,-388.607"/>
<polygon fill="black" stroke="black" points="263.855,-389.605 269.099,-398.811 270.741,-388.344 263.855,-389.605"/>
<text text-anchor="middle" x="263.511" y="-294.266" font-family="Times New Roman,serif" font-size="8.00">der</text>
</g>
<!-- &#45;attrs2 -->
<g id="node8" class="node"><title>&#45;attrs2</title>
<polygon fill="none" stroke="gray" points="340.246,-219 282.246,-219 282.246,-170 346.246,-170 346.246,-213 340.246,-219"/>
<polyline fill="none" stroke="gray" points="340.246,-219 340.246,-213 "/>
<polyline fill="none" stroke="gray" points="346.246,-213 340.246,-213 "/>
<text text-anchor="start" x="292.246" y="-204.5" font-family="Times New Roman,serif" font-size="10.00">value:</text>
<text text-anchor="start" x="319.246" y="-204.5" font-family="Times New Roman,serif" font-size="10.00">0</text>
<text text-anchor="start" x="292.246" y="-191.5" font-family="Times New Roman,serif" font-size="10.00">type:</text>
<text text-anchor="start" x="319.246" y="-191.5" font-family="Times New Roman,serif" font-size="10.00">item</text>
<text text-anchor="start" x="292.246" y="-178.5" font-family="Times New Roman,serif" font-size="10.00">label:</text>
<text text-anchor="start" x="319.246" y="-178.5" font-family="Times New Roman,serif" font-size="10.00">0</text>
</g>
<!-- &#45;attrs2&#45;&gt;http://example.org/matrix00 -->
<g id="edge3" class="edge"><title>&#45;attrs2&#45;&gt;http://example.org/matrix00</title>
<path fill="none" stroke="gray" stroke-dasharray="5,2" d="M293.103,-219.286C282.499,-231.216 269.937,-245.348 260.491,-255.975"/>
</g>
<!-- http://example.org/matrix01&#45;&gt;http://example.org/1 -->
<g id="edge25" class="edge"><title>http://example.org/matrix01&#45;&gt;http://example.org/1</title>
<path fill="none" stroke="black" d="M45.0206,-291.129C48.9405,-315.33 56.1417,-359.789 60.8093,-388.607"/>
<polygon fill="black" stroke="black" points="57.4081,-389.499 62.4621,-398.811 64.3181,-388.38 57.4081,-389.499"/>
<text text-anchor="middle" x="59.043" y="-294.555" font-family="Times New Roman,serif" font-size="8.00">der</text>
</g>
<!-- http://example.org/matrix01&#45;&gt;http://example.org/definelist2 -->
<g id="edge41" class="edge"><title>http://example.org/matrix01&#45;&gt;http://example.org/definelist2</title>
<path fill="none" stroke="black" d="M73.5962,-285.227C80.0453,-287.317 86.8268,-289.356 93.2463,-291 178.707,-312.881 280.471,-329.201 338.501,-337.611"/>
<polygon fill="black" stroke="black" points="338.072,-341.085 348.468,-339.04 339.066,-334.156 338.072,-341.085"/>
<text text-anchor="middle" x="84.7123" y="-273.256" font-family="Times New Roman,serif" font-size="8.00">gen</text>
</g>
<!-- &#45;attrs3 -->
<g id="node10" class="node"><title>&#45;attrs3</title>
<polygon fill="none" stroke="gray" points="64.2463,-219 6.24625,-219 6.24625,-170 70.2463,-170 70.2463,-213 64.2463,-219"/>
<polyline fill="none" stroke="gray" points="64.2463,-219 64.2463,-213 "/>
<polyline fill="none" stroke="gray" points="70.2463,-213 64.2463,-213 "/>
<text text-anchor="start" x="16.2463" y="-204.5" font-family="Times New Roman,serif" font-size="10.00">value:</text>
<text text-anchor="start" x="43.2463" y="-204.5" font-family="Times New Roman,serif" font-size="10.00">1</text>
<text text-anchor="start" x="16.2463" y="-191.5" font-family="Times New Roman,serif" font-size="10.00">type:</text>
<text text-anchor="start" x="43.2463" y="-191.5" font-family="Times New Roman,serif" font-size="10.00">item</text>
<text text-anchor="start" x="16.2463" y="-178.5" font-family="Times New Roman,serif" font-size="10.00">label:</text>
<text text-anchor="start" x="43.2463" y="-178.5" font-family="Times New Roman,serif" font-size="10.00">1</text>
</g>
<!-- &#45;attrs3&#45;&gt;http://example.org/matrix01 -->
<g id="edge5" class="edge"><title>&#45;attrs3&#45;&gt;http://example.org/matrix01</title>
<path fill="none" stroke="gray" stroke-dasharray="5,2" d="M39.49,-219.286C40.0862,-230.69 40.7877,-244.105 41.3337,-254.548"/>
</g>
<!-- http://example.org/matrix02&#45;&gt;http://example.org/4 -->
<g id="edge26" class="edge"><title>http://example.org/matrix02&#45;&gt;http://example.org/4</title>
<path fill="none" stroke="black" d="M144.246,-291.129C144.246,-315.33 144.246,-359.789 144.246,-388.607"/>
<polygon fill="black" stroke="black" points="140.746,-388.811 144.246,-398.811 147.746,-388.811 140.746,-388.811"/>
<text text-anchor="middle" x="157.237" y="-296.729" font-family="Times New Roman,serif" font-size="8.00">der</text>
</g>
<!-- http://example.org/matrix02&#45;&gt;http://example.org/definelist2 -->
<g id="edge44" class="edge"><title>http://example.org/matrix02&#45;&gt;http://example.org/definelist2</title>
<path fill="none" stroke="black" d="M176.271,-284.945C182.545,-287.013 189.088,-289.116 195.246,-291 243.945,-305.899 300.18,-321.373 338.763,-331.726"/>
<polygon fill="black" stroke="black" points="338.101,-335.172 348.665,-334.375 339.91,-328.41 338.101,-335.172"/>
<text text-anchor="middle" x="187.452" y="-273.046" font-family="Times New Roman,serif" font-size="8.00">gen</text>
</g>
<!-- &#45;attrs4 -->
<g id="node12" class="node"><title>&#45;attrs4</title>
<polygon fill="none" stroke="gray" points="146.246,-219 88.2463,-219 88.2463,-170 152.246,-170 152.246,-213 146.246,-219"/>
<polyline fill="none" stroke="gray" points="146.246,-219 146.246,-213 "/>
<polyline fill="none" stroke="gray" points="152.246,-213 146.246,-213 "/>
<text text-anchor="start" x="98.2463" y="-204.5" font-family="Times New Roman,serif" font-size="10.00">value:</text>
<text text-anchor="start" x="125.246" y="-204.5" font-family="Times New Roman,serif" font-size="10.00">4</text>
<text text-anchor="start" x="98.2463" y="-191.5" font-family="Times New Roman,serif" font-size="10.00">type:</text>
<text text-anchor="start" x="125.246" y="-191.5" font-family="Times New Roman,serif" font-size="10.00">item</text>
<text text-anchor="start" x="98.2463" y="-178.5" font-family="Times New Roman,serif" font-size="10.00">label:</text>
<text text-anchor="start" x="125.246" y="-178.5" font-family="Times New Roman,serif" font-size="10.00">4</text>
</g>
<!-- &#45;attrs4&#45;&gt;http://example.org/matrix02 -->
<g id="edge7" class="edge"><title>&#45;attrs4&#45;&gt;http://example.org/matrix02</title>
<path fill="none" stroke="gray" stroke-dasharray="5,2" d="M127.708,-219.286C131.341,-230.865 135.625,-244.518 138.922,-255.028"/>
</g>
<!-- http://example.org/matrix10 -->
<g id="node15" class="node"><title>http://example.org/matrix10</title>
<g id="a_node15"><a xlink:href="http://example.org/matrix10" xlink:title="matrix10">
<ellipse fill="#fffc87" stroke="#808080" cx="662.246" cy="-273" rx="42.4939" ry="18"/>
<text text-anchor="middle" x="662.246" y="-269.3" font-family="Times New Roman,serif" font-size="14.00">matrix10</text>
</a>
</g>
</g>
<!-- http://example.org/matrix1#1&#45;&gt;http://example.org/matrix10 -->
<g id="edge12" class="edge"><title>http://example.org/matrix1#1&#45;&gt;http://example.org/matrix10</title>
<path fill="none" stroke="black" d="M559.433,-210.069C579.421,-222.109 607.977,-239.31 629.924,-252.53"/>
<polygon fill="black" stroke="black" points="628.208,-255.582 638.58,-257.744 631.82,-249.586 628.208,-255.582"/>
<text text-anchor="middle" x="572.56" y="-200.911" font-family="Times New Roman,serif" font-size="8.00">[ ]</text>
</g>
<!-- http://example.org/matrix11 -->
<g id="node17" class="node"><title>http://example.org/matrix11</title>
<g id="a_node17"><a xlink:href="http://example.org/matrix11" xlink:title="matrix11">
<ellipse fill="#fffc87" stroke="#808080" cx="386.246" cy="-273" rx="42.4939" ry="18"/>
<text text-anchor="middle" x="386.246" y="-269.3" font-family="Times New Roman,serif" font-size="14.00">matrix11</text>
</a>
</g>
</g>
<!-- http://example.org/matrix1#1&#45;&gt;http://example.org/matrix11 -->
<g id="edge14" class="edge"><title>http://example.org/matrix1#1&#45;&gt;http://example.org/matrix11</title>
<path fill="none" stroke="black" d="M508.263,-209.354C483.958,-221.833 448.071,-240.258 421.503,-253.899"/>
<polygon fill="black" stroke="black" points="419.826,-250.825 412.528,-258.506 423.023,-257.052 419.826,-250.825"/>
<text text-anchor="middle" x="507.525" y="-222.435" font-family="Times New Roman,serif" font-size="8.00">[ ]</text>
</g>
<!-- http://example.org/matrix12 -->
<g id="node19" class="node"><title>http://example.org/matrix12</title>
<g id="a_node19"><a xlink:href="http://example.org/matrix12" xlink:title="matrix12">
<ellipse fill="#fffc87" stroke="#808080" cx="873.246" cy="-273" rx="42.4939" ry="18"/>
<text text-anchor="middle" x="873.246" y="-269.3" font-family="Times New Roman,serif" font-size="14.00">matrix12</text>
</a>
</g>
</g>
<!-- http://example.org/matrix1#1&#45;&gt;http://example.org/matrix12 -->
<g id="edge16" class="edge"><title>http://example.org/matrix1#1&#45;&gt;http://example.org/matrix12</title>
<path fill="none" stroke="black" d="M564.299,-208.789C573.414,-212.544 583.614,-216.33 593.246,-219 692.529,-246.525 722.143,-230.626 822.246,-255 825.613,-255.82 829.076,-256.759 832.536,-257.766"/>
<polygon fill="black" stroke="black" points="831.611,-261.144 842.198,-260.742 833.671,-254.454 831.611,-261.144"/>
<text text-anchor="middle" x="576.145" y="-197.687" font-family="Times New Roman,serif" font-size="8.00">[ ]</text>
</g>
<!-- http://example.org/matrix1#1&#45;&gt;http://example.org/definelist2 -->
<g id="edge33" class="edge"><title>http://example.org/matrix1#1&#45;&gt;http://example.org/definelist2</title>
<path fill="none" stroke="black" d="M526.687,-212.235C515.671,-232.612 494.978,-267.24 470.246,-291 457.991,-302.773 442.707,-313.281 428.492,-321.774"/>
<polygon fill="black" stroke="black" points="426.718,-318.757 419.816,-326.795 430.224,-324.815 426.718,-318.757"/>
<text text-anchor="middle" x="534.446" y="-223.173" font-family="Times New Roman,serif" font-size="8.00">gen</text>
</g>
<!-- &#45;attrs5 -->
<g id="node14" class="node"><title>&#45;attrs5</title>
<polygon fill="none" stroke="gray" points="595.246,-134 507.246,-134 507.246,-85 601.246,-85 601.246,-128 595.246,-134"/>
<polyline fill="none" stroke="gray" points="595.246,-134 595.246,-128 "/>
<polyline fill="none" stroke="gray" points="601.246,-128 595.246,-128 "/>
<text text-anchor="start" x="517.246" y="-119.5" font-family="Times New Roman,serif" font-size="10.00">value:</text>
<text text-anchor="start" x="544.246" y="-119.5" font-family="Times New Roman,serif" font-size="10.00">[10000, 0, 2]</text>
<text text-anchor="start" x="517.246" y="-106.5" font-family="Times New Roman,serif" font-size="10.00">type:</text>
<text text-anchor="start" x="544.246" y="-106.5" font-family="Times New Roman,serif" font-size="10.00">list</text>
<text text-anchor="start" x="517.246" y="-93.5" font-family="Times New Roman,serif" font-size="10.00">label:</text>
<text text-anchor="start" x="544.246" y="-93.5" font-family="Times New Roman,serif" font-size="10.00">[m, 0, 2]</text>
</g>
<!-- &#45;attrs5&#45;&gt;http://example.org/matrix1#1 -->
<g id="edge10" class="edge"><title>&#45;attrs5&#45;&gt;http://example.org/matrix1#1</title>
<path fill="none" stroke="gray" stroke-dasharray="5,2" d="M548.852,-134.062C545.759,-147.578 541.945,-164.236 539.143,-176.475"/>
</g>
<!-- http://example.org/matrix10&#45;&gt;http://example.org/definelist2 -->
<g id="edge43" class="edge"><title>http://example.org/matrix10&#45;&gt;http://example.org/definelist2</title>
<path fill="none" stroke="black" d="M630.866,-285.11C624.419,-287.209 617.646,-289.282 611.246,-291 534.556,-311.592 512.936,-306.408 436.246,-327 434.782,-327.393 433.297,-327.805 431.802,-328.232"/>
<polygon fill="black" stroke="black" points="430.43,-324.989 421.859,-331.217 432.443,-331.693 430.43,-324.989"/>
<text text-anchor="middle" x="627.727" y="-297.878" font-family="Times New Roman,serif" font-size="8.00">gen</text>
</g>
<!-- http://example.org/m -->
<g id="node29" class="node"><title>http://example.org/m</title>
<ellipse fill="none" stroke="black" cx="458.246" cy="-417" rx="85.2851" ry="18"/>
<text text-anchor="middle" x="458.246" y="-413.3" font-family="Times New Roman,serif" font-size="14.00">http://example.org/m</text>
</g>
<!-- http://example.org/matrix10&#45;&gt;http://example.org/m -->
<g id="edge27" class="edge"><title>http://example.org/matrix10&#45;&gt;http://example.org/m</title>
<path fill="none" stroke="black" d="M630.529,-284.973C624.17,-287.06 617.516,-289.163 611.246,-291 548.765,-309.307 512.311,-278.169 469.246,-327 454.562,-343.65 452.823,-369.365 454.165,-388.88"/>
<polygon fill="black" stroke="black" points="450.697,-389.38 455.164,-398.987 457.663,-388.691 450.697,-389.38"/>
<text text-anchor="middle" x="627.437" y="-297.75" font-family="Times New Roman,serif" font-size="8.00">der</text>
</g>
<!-- &#45;attrs6 -->
<g id="node16" class="node"><title>&#45;attrs6</title>
<polygon fill="none" stroke="gray" points="666.246,-219 602.246,-219 602.246,-170 672.246,-170 672.246,-213 666.246,-219"/>
<polyline fill="none" stroke="gray" points="666.246,-219 666.246,-213 "/>
<polyline fill="none" stroke="gray" points="672.246,-213 666.246,-213 "/>
<text text-anchor="start" x="612.246" y="-204.5" font-family="Times New Roman,serif" font-size="10.00">value:</text>
<text text-anchor="start" x="639.246" y="-204.5" font-family="Times New Roman,serif" font-size="10.00">10000</text>
<text text-anchor="start" x="612.246" y="-191.5" font-family="Times New Roman,serif" font-size="10.00">type:</text>
<text text-anchor="start" x="639.246" y="-191.5" font-family="Times New Roman,serif" font-size="10.00">item</text>
<text text-anchor="start" x="612.246" y="-178.5" font-family="Times New Roman,serif" font-size="10.00">label:</text>
<text text-anchor="start" x="639.246" y="-178.5" font-family="Times New Roman,serif" font-size="10.00">m</text>
</g>
<!-- &#45;attrs6&#45;&gt;http://example.org/matrix10 -->
<g id="edge11" class="edge"><title>&#45;attrs6&#45;&gt;http://example.org/matrix10</title>
<path fill="none" stroke="gray" stroke-dasharray="5,2" d="M645.019,-219.286C648.803,-230.865 653.265,-244.518 656.7,-255.028"/>
</g>
<!-- http://example.org/matrix11&#45;&gt;http://example.org/definelist2 -->
<g id="edge46" class="edge"><title>http://example.org/matrix11&#45;&gt;http://example.org/definelist2</title>
<path fill="none" stroke="black" d="M385.999,-291.303C385.889,-299.017 385.756,-308.288 385.634,-316.888"/>
<polygon fill="black" stroke="black" points="382.134,-316.847 385.491,-326.896 389.133,-316.947 382.134,-316.847"/>
<text text-anchor="middle" x="398.881" y="-297.088" font-family="Times New Roman,serif" font-size="8.00">gen</text>
</g>
<!-- http://example.org/matrix11&#45;&gt;http://example.org/0 -->
<g id="edge28" class="edge"><title>http://example.org/matrix11&#45;&gt;http://example.org/0</title>
<path fill="none" stroke="black" d="M371.504,-289.946C362.066,-300.319 349.677,-314.242 339.246,-327 322.098,-347.974 303.656,-372.642 290.47,-390.682"/>
<polygon fill="black" stroke="black" points="287.501,-388.814 284.448,-398.96 293.161,-392.932 287.501,-388.814"/>
<text text-anchor="middle" x="376.087" y="-302.328" font-family="Times New Roman,serif" font-size="8.00">der</text>
</g>
<!-- &#45;attrs7 -->
<g id="node18" class="node"><title>&#45;attrs7</title>
<polygon fill="none" stroke="gray" points="422.246,-219 364.246,-219 364.246,-170 428.246,-170 428.246,-213 422.246,-219"/>
<polyline fill="none" stroke="gray" points="422.246,-219 422.246,-213 "/>
<polyline fill="none" stroke="gray" points="428.246,-213 422.246,-213 "/>
<text text-anchor="start" x="374.246" y="-204.5" font-family="Times New Roman,serif" font-size="10.00">value:</text>
<text text-anchor="start" x="401.246" y="-204.5" font-family="Times New Roman,serif" font-size="10.00">0</text>
<text text-anchor="start" x="374.246" y="-191.5" font-family="Times New Roman,serif" font-size="10.00">type:</text>
<text text-anchor="start" x="401.246" y="-191.5" font-family="Times New Roman,serif" font-size="10.00">item</text>
<text text-anchor="start" x="374.246" y="-178.5" font-family="Times New Roman,serif" font-size="10.00">label:</text>
<text text-anchor="start" x="401.246" y="-178.5" font-family="Times New Roman,serif" font-size="10.00">0</text>
</g>
<!-- &#45;attrs7&#45;&gt;http://example.org/matrix11 -->
<g id="edge13" class="edge"><title>&#45;attrs7&#45;&gt;http://example.org/matrix11</title>
<path fill="none" stroke="gray" stroke-dasharray="5,2" d="M393.137,-219.286C391.646,-230.69 389.893,-244.105 388.528,-254.548"/>
</g>
<!-- http://example.org/matrix12&#45;&gt;http://example.org/definelist2 -->
<g id="edge42" class="edge"><title>http://example.org/matrix12&#45;&gt;http://example.org/definelist2</title>
<path fill="none" stroke="black" d="M842.534,-285.447C835.917,-287.571 828.907,-289.568 822.246,-291 668.064,-324.135 625.163,-303.331 469.246,-327 457.064,-328.849 443.974,-331.281 431.837,-333.725"/>
<polygon fill="black" stroke="black" points="430.997,-330.325 421.907,-335.768 432.408,-337.181 430.997,-330.325"/>
<text text-anchor="middle" x="839.311" y="-298.197" font-family="Times New Roman,serif" font-size="8.00">gen</text>
</g>
<!-- http://example.org/2 -->
<g id="node30" class="node"><title>http://example.org/2</title>
<ellipse fill="none" stroke="black" cx="1076.25" cy="-417" rx="83.3857" ry="18"/>
<text text-anchor="middle" x="1076.25" y="-413.3" font-family="Times New Roman,serif" font-size="14.00">http://example.org/2</text>
</g>
<!-- http://example.org/matrix12&#45;&gt;http://example.org/2 -->
<g id="edge29" class="edge"><title>http://example.org/matrix12&#45;&gt;http://example.org/2</title>
<path fill="none" stroke="black" d="M914.061,-277.65C972.56,-283.822 1075.7,-298.526 1098.25,-327 1112.51,-345.016 1103.69,-371.018 1093.28,-390.268"/>
<polygon fill="black" stroke="black" points="1090.14,-388.707 1088.14,-399.112 1096.19,-392.226 1090.14,-388.707"/>
<text text-anchor="middle" x="922.967" y="-263.68" font-family="Times New Roman,serif" font-size="8.00">der</text>
</g>
<!-- &#45;attrs8 -->
<g id="node20" class="node"><title>&#45;attrs8</title>
<polygon fill="none" stroke="gray" points="899.246,-219 841.246,-219 841.246,-170 905.246,-170 905.246,-213 899.246,-219"/>
<polyline fill="none" stroke="gray" points="899.246,-219 899.246,-213 "/>
<polyline fill="none" stroke="gray" points="905.246,-213 899.246,-213 "/>
<text text-anchor="start" x="851.246" y="-204.5" font-family="Times New Roman,serif" font-size="10.00">value:</text>
<text text-anchor="start" x="878.246" y="-204.5" font-family="Times New Roman,serif" font-size="10.00">2</text>
<text text-anchor="start" x="851.246" y="-191.5" font-family="Times New Roman,serif" font-size="10.00">type:</text>
<text text-anchor="start" x="878.246" y="-191.5" font-family="Times New Roman,serif" font-size="10.00">item</text>
<text text-anchor="start" x="851.246" y="-178.5" font-family="Times New Roman,serif" font-size="10.00">label:</text>
<text text-anchor="start" x="878.246" y="-178.5" font-family="Times New Roman,serif" font-size="10.00">2</text>
</g>
<!-- &#45;attrs8&#45;&gt;http://example.org/matrix12 -->
<g id="edge15" class="edge"><title>&#45;attrs8&#45;&gt;http://example.org/matrix12</title>
<path fill="none" stroke="gray" stroke-dasharray="5,2" d="M873.246,-219.286C873.246,-230.69 873.246,-244.105 873.246,-254.548"/>
</g>
<!-- http://example.org/list0 -->
<g id="node23" class="node"><title>http://example.org/list0</title>
<ellipse fill="none" stroke="black" cx="979.246" cy="-345" rx="92.8835" ry="18"/>
<text text-anchor="middle" x="979.246" y="-341.3" font-family="Times New Roman,serif" font-size="14.00">http://example.org/list0</text>
</g>
<!-- http://example.org/matrix2&#45;&gt;http://example.org/list0 -->
<g id="edge20" class="edge"><title>http://example.org/matrix2&#45;&gt;http://example.org/list0</title>
<path fill="none" stroke="black" d="M804.295,-284.617C810.226,-286.754 816.431,-288.967 822.246,-291 856.307,-302.908 894.68,-315.87 924.962,-325.994"/>
<polygon fill="black" stroke="black" points="923.901,-329.33 934.494,-329.177 926.118,-322.69 923.901,-329.33"/>
<text text-anchor="middle" x="815.75" y="-273.034" font-family="Times New Roman,serif" font-size="8.00">[ ]</text>
</g>
<!-- http://example.org/list1 -->
<g id="node24" class="node"><title>http://example.org/list1</title>
<ellipse fill="none" stroke="black" cx="571.246" cy="-345" rx="92.8835" ry="18"/>
<text text-anchor="middle" x="571.246" y="-341.3" font-family="Times New Roman,serif" font-size="14.00">http://example.org/list1</text>
</g>
<!-- http://example.org/matrix2&#45;&gt;http://example.org/list1 -->
<g id="edge21" class="edge"><title>http://example.org/matrix2&#45;&gt;http://example.org/list1</title>
<path fill="none" stroke="black" d="M745.583,-284.179C713.901,-295.05 663.035,-312.504 624.404,-325.76"/>
<polygon fill="black" stroke="black" points="623.188,-322.476 614.866,-329.033 625.46,-329.097 623.188,-322.476"/>
<text text-anchor="middle" x="742.705" y="-297" font-family="Times New Roman,serif" font-size="8.00">[ ]</text>
</g>
<!-- http://example.org/list2 -->
<g id="node25" class="node"><title>http://example.org/list2</title>
<ellipse fill="none" stroke="black" cx="775.246" cy="-345" rx="92.8835" ry="18"/>
<text text-anchor="middle" x="775.246" y="-341.3" font-family="Times New Roman,serif" font-size="14.00">http://example.org/list2</text>
</g>
<!-- http://example.org/matrix2&#45;&gt;http://example.org/list2 -->
<g id="edge22" class="edge"><title>http://example.org/matrix2&#45;&gt;http://example.org/list2</title>
<path fill="none" stroke="black" d="M775.246,-291.303C775.246,-299.017 775.246,-308.288 775.246,-316.888"/>
<polygon fill="black" stroke="black" points="771.746,-316.896 775.246,-326.896 778.746,-316.896 771.746,-316.896"/>
<text text-anchor="middle" x="788.237" y="-296.903" font-family="Times New Roman,serif" font-size="8.00">[ ]</text>
</g>
<!-- http://example.org/matrix2&#45;&gt;http://example.org/definelist2 -->
<g id="edge34" class="edge"><title>http://example.org/matrix2&#45;&gt;http://example.org/definelist2</title>
<path fill="none" stroke="black" d="M744.203,-283.304C734.364,-286.039 723.404,-288.866 713.246,-291 605.969,-313.535 577.227,-308.121 469.246,-327 457.109,-329.122 444.034,-331.65 431.898,-334.099"/>
<polygon fill="black" stroke="black" points="431.064,-330.698 421.966,-336.128 432.464,-337.556 431.064,-330.698"/>
<text text-anchor="middle" x="740.425" y="-295.921" font-family="Times New Roman,serif" font-size="8.00">gen</text>
</g>
<!-- http://example.org/lastrow#1 -->
<g id="node31" class="node"><title>http://example.org/lastrow#1</title>
<ellipse fill="none" stroke="black" cx="799.246" cy="-417" rx="114.28" ry="18"/>
<text text-anchor="middle" x="799.246" y="-413.3" font-family="Times New Roman,serif" font-size="14.00">http://example.org/lastrow#1</text>
</g>
<!-- http://example.org/matrix2&#45;&gt;http://example.org/lastrow#1 -->
<g id="edge30" class="edge"><title>http://example.org/matrix2&#45;&gt;http://example.org/lastrow#1</title>
<path fill="none" stroke="black" d="M803.284,-285.221C809.456,-287.386 816.013,-289.458 822.246,-291 878.654,-304.959 1043.09,-283.174 1081.25,-327 1091.75,-339.067 1091.46,-350.686 1081.25,-363 1069.24,-377.471 973.321,-393.306 896.635,-403.864"/>
<polygon fill="black" stroke="black" points="895.868,-400.436 886.431,-405.254 896.812,-407.372 895.868,-400.436"/>
<text text-anchor="middle" x="814.628" y="-273.507" font-family="Times New Roman,serif" font-size="8.00">der</text>
</g>
<!-- &#45;attrs9 -->
<g id="node22" class="node"><title>&#45;attrs9</title>
<polygon fill="none" stroke="gray" points="778.246,-219 690.246,-219 690.246,-170 784.246,-170 784.246,-213 778.246,-219"/>
<polyline fill="none" stroke="gray" points="778.246,-219 778.246,-213 "/>
<polyline fill="none" stroke="gray" points="784.246,-213 778.246,-213 "/>
<text text-anchor="start" x="700.246" y="-204.5" font-family="Times New Roman,serif" font-size="10.00">value:</text>
<text text-anchor="start" x="727.246" y="-204.5" font-family="Times New Roman,serif" font-size="10.00">[2, 10000, 0]</text>
<text text-anchor="start" x="700.246" y="-191.5" font-family="Times New Roman,serif" font-size="10.00">type:</text>
<text text-anchor="start" x="727.246" y="-191.5" font-family="Times New Roman,serif" font-size="10.00">item</text>
<text text-anchor="start" x="700.246" y="-178.5" font-family="Times New Roman,serif" font-size="10.00">label:</text>
<text text-anchor="start" x="727.246" y="-178.5" font-family="Times New Roman,serif" font-size="10.00">lastrow</text>
</g>
<!-- &#45;attrs9&#45;&gt;http://example.org/matrix2 -->
<g id="edge18" class="edge"><title>&#45;attrs9&#45;&gt;http://example.org/matrix2</title>
<path fill="none" stroke="gray" stroke-dasharray="5,2" d="M749.061,-219.286C754.813,-230.865 761.595,-244.518 766.816,-255.028"/>
</g>
<!-- http://example.org/definelist2&#45;&gt;http://example.org/1 -->
<g id="edge36" class="edge"><title>http://example.org/definelist2&#45;&gt;http://example.org/1</title>
<path fill="none" stroke="black" d="M348.432,-350.8C294.872,-358.287 192.644,-374.478 108.246,-399 104.452,-400.102 100.527,-401.409 96.6627,-402.801"/>
<polygon fill="black" stroke="black" points="95.3891,-399.541 87.2877,-406.369 97.8787,-406.083 95.3891,-399.541"/>
<text text-anchor="middle" x="342.855" y="-362.825" font-family="Times New Roman,serif" font-size="8.00">use</text>
</g>
<!-- http://example.org/definelist2&#45;&gt;http://example.org/4 -->
<g id="edge35" class="edge"><title>http://example.org/definelist2&#45;&gt;http://example.org/4</title>
<path fill="none" stroke="black" d="M348.702,-353.27C307.207,-362.023 237.803,-378.18 180.246,-399 178.394,-399.67 176.508,-400.402 174.618,-401.173"/>
<polygon fill="black" stroke="black" points="173.044,-398.041 165.285,-405.255 175.85,-404.454 173.044,-398.041"/>
<text text-anchor="middle" x="344.097" y="-365.646" font-family="Times New Roman,serif" font-size="8.00">use</text>
</g>
<!-- http://example.org/definelist2&#45;&gt;http://example.org/0 -->
<g id="edge40" class="edge"><title>http://example.org/definelist2&#45;&gt;http://example.org/0</title>
<path fill="none" stroke="black" d="M357.603,-363.124C342.388,-372.55 323.355,-384.34 307.125,-394.394"/>
<polygon fill="black" stroke="black" points="305.097,-391.533 298.439,-399.774 308.783,-397.483 305.097,-391.533"/>
<text text-anchor="middle" x="358.068" y="-376.217" font-family="Times New Roman,serif" font-size="8.00">use</text>
</g>
<!-- http://example.org/definelist2&#45;&gt;http://example.org/m -->
<g id="edge38" class="edge"><title>http://example.org/definelist2&#45;&gt;http://example.org/m</title>
<path fill="none" stroke="black" d="M403.291,-363.303C412.375,-372.014 423.529,-382.71 433.409,-392.184"/>
<polygon fill="black" stroke="black" points="431.02,-394.742 440.661,-399.137 435.865,-389.69 431.02,-394.742"/>
<text text-anchor="middle" x="417.695" y="-357.218" font-family="Times New Roman,serif" font-size="8.00">use</text>
</g>
<!-- http://example.org/definelist2&#45;&gt;http://example.org/2 -->
<g id="edge39" class="edge"><title>http://example.org/definelist2&#45;&gt;http://example.org/2</title>
<path fill="none" stroke="black" d="M421.881,-354.411C436.542,-357.516 453.628,-360.807 469.246,-363 669.253,-391.082 721.182,-379.917 922.246,-399 945.806,-401.236 971.361,-403.943 994.757,-406.533"/>
<polygon fill="black" stroke="black" points="994.663,-410.044 1004.99,-407.673 995.438,-403.087 994.663,-410.044"/>
<text text-anchor="middle" x="431.885" y="-341.334" font-family="Times New Roman,serif" font-size="8.00">use</text>
</g>
<!-- http://example.org/definelist2&#45;&gt;http://example.org/lastrow#1 -->
<g id="edge37" class="edge"><title>http://example.org/definelist2&#45;&gt;http://example.org/lastrow#1</title>
<path fill="none" stroke="black" d="M421.984,-353.77C436.659,-356.786 453.728,-360.185 469.246,-363 550.298,-377.704 642.937,-392.399 709.387,-402.572"/>
<polygon fill="black" stroke="black" points="708.995,-406.053 719.409,-404.103 710.052,-399.133 708.995,-406.053"/>
<text text-anchor="middle" x="431.938" y="-340.648" font-family="Times New Roman,serif" font-size="8.00">use</text>
</g>
<!-- &#45;attrs10 -->
<g id="node27" class="node"><title>&#45;attrs10</title>
<polygon fill="none" stroke="gray" points="596.246,-291 522.246,-291 522.246,-255 602.246,-255 602.246,-285 596.246,-291"/>
<polyline fill="none" stroke="gray" points="596.246,-291 596.246,-285 "/>
<polyline fill="none" stroke="gray" points="602.246,-285 596.246,-285 "/>
<text text-anchor="start" x="532.246" y="-270" font-family="Times New Roman,serif" font-size="10.00">type:</text>
<text text-anchor="start" x="555.246" y="-270" font-family="Times New Roman,serif" font-size="10.00">definelist</text>
</g>
<!-- &#45;attrs10&#45;&gt;http://example.org/definelist2 -->
<g id="edge23" class="edge"><title>&#45;attrs10&#45;&gt;http://example.org/definelist2</title>
<path fill="none" stroke="gray" stroke-dasharray="5,2" d="M522.082,-289.884C491.993,-301.784 451.151,-317.936 421.936,-329.49"/>
</g>
</g>
</svg>
