<?xml version="1.0" encoding="UTF-8" standalone="no"?>
<!DOCTYPE svg PUBLIC "-//W3C//DTD SVG 1.1//EN"
 "http://www.w3.org/Graphics/SVG/1.1/DTD/svg11.dtd">
<!-- Generated by graphviz version 2.38.0 (20140413.2041)
 -->
<!-- Title: PROV Pages: 1 -->
<svg width="209pt" height="332pt"
 viewBox="0.00 0.00 209.48 332.00" xmlns="http://www.w3.org/2000/svg" xmlns:xlink="http://www.w3.org/1999/xlink">
<g id="graph0" class="graph" transform="scale(1 1) rotate(0) translate(4 328)">
<title>PROV</title>
<polygon fill="white" stroke="none" points="-4,4 -4,-328 205.482,-328 205.482,4 -4,4"/>
<!-- http://example.org/len_dist -->
<g id="node1" class="node"><title>http://example.org/len_dist</title>
<g id="a_node1"><a xlink:href="http://example.org/len_dist" xlink:title="len_dist">
<ellipse fill="#fafafa" stroke="#f0f0f0" cx="100.741" cy="-162" rx="38.9931" ry="18"/>
<text text-anchor="middle" x="100.741" y="-158.3" font-family="Times New Roman,serif" font-size="14.00" fill="#f0f0f0">len_dist</text>
</a>
</g>
</g>
<!-- http://example.org/call1 -->
<g id="node2" class="node"><title>http://example.org/call1</title>
<g id="a_node2"><a xlink:href="http://example.org/call1" xlink:title="call1">
<polygon fill="#fafafa" stroke="#f0f0f0" points="127.741,-252 73.7411,-252 73.7411,-216 127.741,-216 127.741,-252"/>
<text text-anchor="middle" x="100.741" y="-230.3" font-family="Times New Roman,serif" font-size="14.00" fill="#f0f0f0">call1</text>
</a>
</g>
</g>
<!-- http://example.org/len_dist&#45;&gt;http://example.org/call1 -->
<g id="edge2" class="edge"><title>http://example.org/len_dist&#45;&gt;http://example.org/call1</title>
<path fill="none" stroke="#f0f0f0" d="M100.741,-180.303C100.741,-188.017 100.741,-197.288 100.741,-205.888"/>
<polygon fill="#f0f0f0" stroke="#f0f0f0" points="97.2412,-205.896 100.741,-215.896 104.241,-205.896 97.2412,-205.896"/>
<text text-anchor="middle" x="113.731" y="-185.903" font-family="Times New Roman,serif" font-size="8.00" fill="#f0f0f0">gen</text>
</g>
<!-- http://example.org/dist#1 -->
<g id="node3" class="node"><title>http://example.org/dist#1</title>
<ellipse fill="none" stroke="black" cx="100.741" cy="-306" rx="100.983" ry="18"/>
<text text-anchor="middle" x="100.741" y="-302.3" font-family="Times New Roman,serif" font-size="14.00">http://example.org/dist#1</text>
</g>
<!-- http://example.org/call1&#45;&gt;http://example.org/dist#1 -->
<g id="edge1" class="edge"><title>http://example.org/call1&#45;&gt;http://example.org/dist#1</title>
<path fill="none" stroke="#f0f0f0" d="M100.741,-252.303C100.741,-260.017 100.741,-269.288 100.741,-277.888"/>
<polygon fill="#f0f0f0" stroke="#f0f0f0" points="97.2412,-277.896 100.741,-287.896 104.241,-277.896 97.2412,-277.896"/>
<text text-anchor="middle" x="113.731" y="-257.903" font-family="Times New Roman,serif" font-size="8.00" fill="#f0f0f0">use</text>
</g>
<!-- http://example.org/nodes -->
<g id="node4" class="node"><title>http://example.org/nodes</title>
<g id="a_node4"><a xlink:href="http://example.org/nodes" xlink:title="nodes">
<ellipse fill="#fafafa" stroke="#f0f0f0" cx="100.741" cy="-18" rx="32.4942" ry="18"/>
<text text-anchor="middle" x="100.741" y="-14.3" font-family="Times New Roman,serif" font-size="14.00" fill="#f0f0f0">nodes</text>
</a>
</g>
</g>
<!-- http://example.org/nodes&#45;&gt;http://example.org/len_dist -->
<g id="edge3" class="edge"><title>http://example.org/nodes&#45;&gt;http://example.org/len_dist</title>
<path fill="none" stroke="#f0f0f0" d="M97.0872,-36.0925C95.0652,-46.4315 92.7603,-59.9098 91.7411,-72 90.397,-87.9434 90.397,-92.0566 91.7411,-108 92.4577,-116.501 93.81,-125.688 95.2526,-133.988"/>
<polygon fill="#f0f0f0" stroke="#f0f0f0" points="91.8269,-134.711 97.0872,-143.908 98.7102,-133.438 91.8269,-134.711"/>
<text text-anchor="middle" x="108.428" y="-44.0101" font-family="Times New Roman,serif" font-size="8.00" fill="#f0f0f0">der</text>
</g>
<!-- http://example.org/assign4 -->
<g id="node5" class="node"><title>http://example.org/assign4</title>
<g id="a_node5"><a xlink:href="http://example.org/assign4" xlink:title="assign4">
<polygon fill="#fafafa" stroke="#f0f0f0" points="158.741,-108 100.741,-108 100.741,-72 158.741,-72 158.741,-108"/>
<text text-anchor="middle" x="129.741" y="-86.3" font-family="Times New Roman,serif" font-size="14.00" fill="#f0f0f0">assign4</text>
</a>
</g>
</g>
<!-- http://example.org/nodes&#45;&gt;http://example.org/assign4 -->
<g id="edge5" class="edge"><title>http://example.org/nodes&#45;&gt;http://example.org/assign4</title>
<path fill="none" stroke="#f0f0f0" d="M107.761,-35.945C111.025,-43.8238 114.986,-53.3835 118.641,-62.206"/>
<polygon fill="#f0f0f0" stroke="#f0f0f0" points="115.523,-63.8257 122.584,-71.7247 121.99,-61.1465 115.523,-63.8257"/>
<text text-anchor="middle" x="122.633" y="-36.002" font-family="Times New Roman,serif" font-size="8.00" fill="#f0f0f0">gen</text>
</g>
<!-- http://example.org/assign4&#45;&gt;http://example.org/len_dist -->
<g id="edge4" class="edge"><title>http://example.org/assign4&#45;&gt;http://example.org/len_dist</title>
<path fill="none" stroke="#f0f0f0" d="M122.573,-108.303C119.307,-116.187 115.367,-125.696 111.739,-134.454"/>
<polygon fill="#f0f0f0" stroke="#f0f0f0" points="108.421,-133.317 107.827,-143.896 114.888,-135.997 108.421,-133.317"/>
<text text-anchor="middle" x="131.703" y="-118.304" font-family="Times New Roman,serif" font-size="8.00" fill="#f0f0f0">use</text>
</g>
</g>
</svg>
