<?xml version="1.0" encoding="UTF-8" standalone="no"?>
<!DOCTYPE svg PUBLIC "-//W3C//DTD SVG 1.1//EN"
 "http://www.w3.org/Graphics/SVG/1.1/DTD/svg11.dtd">
<!-- Generated by graphviz version 2.38.0 (20140413.2041)
 -->
<!-- Title: PROV Pages: 1 -->
<svg width="460pt" height="541pt"
 viewBox="0.00 0.00 460.49 541.00" xmlns="http://www.w3.org/2000/svg" xmlns:xlink="http://www.w3.org/1999/xlink">
<g id="graph0" class="graph" transform="scale(1 1) rotate(0) translate(4 537)">
<title>PROV</title>
<polygon fill="white" stroke="none" points="-4,4 -4,-537 456.489,-537 456.489,4 -4,4"/>
<!-- http://example.org/range_nodes -->
<g id="node1" class="node"><title>http://example.org/range_nodes</title>
<g id="a_node1"><a xlink:href="http://example.org/range_nodes" xlink:title="range_nodes">
<ellipse fill="#fffc87" stroke="#808080" cx="161.745" cy="-292.5" rx="57.3905" ry="18"/>
<text text-anchor="middle" x="161.745" y="-288.8" font-family="Times New Roman,serif" font-size="14.00">range_nodes</text>
</a>
</g>
</g>
<!-- http://example.org/range_nodes0 -->
<g id="node3" class="node"><title>http://example.org/range_nodes0</title>
<g id="a_node3"><a xlink:href="http://example.org/range_nodes0" xlink:title="range_nodes0">
<ellipse fill="#fffc87" stroke="#808080" cx="61.7445" cy="-371" rx="61.99" ry="18"/>
<text text-anchor="middle" x="61.7445" y="-367.3" font-family="Times New Roman,serif" font-size="14.00">range_nodes0</text>
</a>
</g>
</g>
<!-- http://example.org/range_nodes&#45;&gt;http://example.org/range_nodes0 -->
<g id="edge3" class="edge"><title>http://example.org/range_nodes&#45;&gt;http://example.org/range_nodes0</title>
<path fill="none" stroke="black" d="M141.024,-309.351C126.507,-320.457 106.905,-335.452 90.8244,-347.754"/>
<polygon fill="black" stroke="black" points="88.598,-345.05 82.7821,-353.906 92.8512,-350.61 88.598,-345.05"/>
</g>
<!-- http://example.org/range_nodes1 -->
<g id="node5" class="node"><title>http://example.org/range_nodes1</title>
<g id="a_node5"><a xlink:href="http://example.org/range_nodes1" xlink:title="range_nodes1">
<ellipse fill="#fffc87" stroke="#808080" cx="249.745" cy="-371" rx="61.99" ry="18"/>
<text text-anchor="middle" x="249.745" y="-367.3" font-family="Times New Roman,serif" font-size="14.00">range_nodes1</text>
</a>
</g>
</g>
<!-- http://example.org/range_nodes&#45;&gt;http://example.org/range_nodes1 -->
<g id="edge5" class="edge"><title>http://example.org/range_nodes&#45;&gt;http://example.org/range_nodes1</title>
<path fill="none" stroke="black" d="M180.407,-309.724C192.891,-320.576 209.503,-335.017 223.337,-347.043"/>
<polygon fill="black" stroke="black" points="221.266,-349.88 231.109,-353.8 225.858,-344.597 221.266,-349.88"/>
</g>
<!-- http://example.org/range_nodes2 -->
<g id="node7" class="node"><title>http://example.org/range_nodes2</title>
<g id="a_node7"><a xlink:href="http://example.org/range_nodes2" xlink:title="range_nodes2">
<ellipse fill="#fffc87" stroke="#808080" cx="390.745" cy="-371" rx="61.99" ry="18"/>
<text text-anchor="middle" x="390.745" y="-367.3" font-family="Times New Roman,serif" font-size="14.00">range_nodes2</text>
</a>
</g>
</g>
<!-- http://example.org/range_nodes&#45;&gt;http://example.org/range_nodes2 -->
<g id="edge7" class="edge"><title>http://example.org/range_nodes&#45;&gt;http://example.org/range_nodes2</title>
<path fill="none" stroke="black" d="M197.992,-306.61C207.642,-310.044 218.073,-313.707 227.745,-317 265.526,-329.866 308.461,-343.798 340.779,-354.149"/>
<polygon fill="black" stroke="black" points="339.859,-357.529 350.45,-357.24 341.991,-350.861 339.859,-357.529"/>
</g>
<!-- http://example.org/call2 -->
<g id="node9" class="node"><title>http://example.org/call2</title>
<g id="a_node9"><a xlink:href="http://example.org/call2" xlink:title="call2">
<polygon fill="#fafafa" stroke="#f0f0f0" points="231.745,-461 177.745,-461 177.745,-425 231.745,-425 231.745,-461"/>
<text text-anchor="middle" x="204.745" y="-439.3" font-family="Times New Roman,serif" font-size="14.00" fill="#f0f0f0">call2</text>
</a>
</g>
</g>
<!-- http://example.org/range_nodes&#45;&gt;http://example.org/call2 -->
<g id="edge9" class="edge"><title>http://example.org/range_nodes&#45;&gt;http://example.org/call2</title>
<path fill="none" stroke="#f0f0f0" d="M163.348,-310.759C165.486,-330.163 170.054,-362.43 178.745,-389 181.708,-398.059 185.949,-407.531 190.149,-415.92"/>
<polygon fill="#f0f0f0" stroke="#f0f0f0" points="187.078,-417.601 194.803,-424.851 193.286,-414.366 187.078,-417.601"/>
<text text-anchor="middle" x="177.114" y="-314.817" font-family="Times New Roman,serif" font-size="8.00" fill="#f0f0f0">gen</text>
</g>
<!-- http://example.org/range_nodes&#45;attrs -->
<g id="node2" class="node"><title>http://example.org/range_nodes&#45;attrs</title>
<polygon fill="none" stroke="gray" points="289.245,-232 194.245,-232 194.245,-170 295.245,-170 295.245,-226 289.245,-232"/>
<polyline fill="none" stroke="gray" points="289.245,-232 289.245,-226 "/>
<polyline fill="none" stroke="gray" points="295.245,-226 289.245,-226 "/>
<text text-anchor="start" x="204.745" y="-218" font-family="Times New Roman,serif" font-size="10.00">value:</text>
<text text-anchor="start" x="231.745" y="-218" font-family="Times New Roman,serif" font-size="10.00">[0, 1, 2]</text>
<text text-anchor="start" x="204.745" y="-205" font-family="Times New Roman,serif" font-size="10.00">type:</text>
<text text-anchor="start" x="231.745" y="-205" font-family="Times New Roman,serif" font-size="10.00">eval</text>
<text text-anchor="start" x="204.745" y="-192" font-family="Times New Roman,serif" font-size="10.00">label:</text>
<text text-anchor="start" x="231.745" y="-192" font-family="Times New Roman,serif" font-size="10.00">range(nodes)</text>
<text text-anchor="start" x="204.745" y="-179" font-family="Times New Roman,serif" font-size="10.00">line:</text>
<text text-anchor="start" x="231.745" y="-179" font-family="Times New Roman,serif" font-size="10.00">7</text>
</g>
<!-- http://example.org/range_nodes&#45;attrs&#45;&gt;http://example.org/range_nodes -->
<g id="edge1" class="edge"><title>http://example.org/range_nodes&#45;attrs&#45;&gt;http://example.org/range_nodes</title>
<path fill="none" stroke="gray" stroke-dasharray="5,2" d="M216.645,-232.301C203.382,-246.601 188.075,-263.108 176.998,-275.052"/>
</g>
<!-- http://example.org/range_nodes0&#45;&gt;http://example.org/call2 -->
<g id="edge10" class="edge"><title>http://example.org/range_nodes0&#45;&gt;http://example.org/call2</title>
<path fill="none" stroke="#f0f0f0" d="M92.0711,-386.845C114.363,-397.757 144.756,-412.635 168.358,-424.188"/>
<polygon fill="#f0f0f0" stroke="#f0f0f0" points="166.843,-427.343 177.363,-428.596 169.92,-421.056 166.843,-427.343"/>
<text text-anchor="middle" x="104.519" y="-376.575" font-family="Times New Roman,serif" font-size="8.00" fill="#f0f0f0">gen</text>
</g>
<!-- http://example.org/range_nodes0&#45;attrs -->
<g id="node4" class="node"><title>http://example.org/range_nodes0&#45;attrs</title>
<polygon fill="none" stroke="gray" points="80.7445,-317 22.7445,-317 22.7445,-268 86.7445,-268 86.7445,-311 80.7445,-317"/>
<polyline fill="none" stroke="gray" points="80.7445,-317 80.7445,-311 "/>
<polyline fill="none" stroke="gray" points="86.7445,-311 80.7445,-311 "/>
<text text-anchor="start" x="32.7445" y="-302.5" font-family="Times New Roman,serif" font-size="10.00">value:</text>
<text text-anchor="start" x="59.7445" y="-302.5" font-family="Times New Roman,serif" font-size="10.00">0</text>
<text text-anchor="start" x="32.7445" y="-289.5" font-family="Times New Roman,serif" font-size="10.00">type:</text>
<text text-anchor="start" x="59.7445" y="-289.5" font-family="Times New Roman,serif" font-size="10.00">item</text>
<text text-anchor="start" x="32.7445" y="-276.5" font-family="Times New Roman,serif" font-size="10.00">line:</text>
<text text-anchor="start" x="59.7445" y="-276.5" font-family="Times New Roman,serif" font-size="10.00">7</text>
</g>
<!-- http://example.org/range_nodes0&#45;attrs&#45;&gt;http://example.org/range_nodes0 -->
<g id="edge2" class="edge"><title>http://example.org/range_nodes0&#45;attrs&#45;&gt;http://example.org/range_nodes0</title>
<path fill="none" stroke="gray" stroke-dasharray="5,2" d="M56.921,-317.286C57.9645,-328.69 59.192,-342.105 60.1476,-352.548"/>
</g>
<!-- http://example.org/range_nodes1&#45;&gt;http://example.org/call2 -->
<g id="edge11" class="edge"><title>http://example.org/range_nodes1&#45;&gt;http://example.org/call2</title>
<path fill="none" stroke="#f0f0f0" d="M238.851,-388.945C233.623,-397.078 227.243,-407.002 221.422,-416.057"/>
<polygon fill="#f0f0f0" stroke="#f0f0f0" points="218.314,-414.42 215.85,-424.725 224.202,-418.206 218.314,-414.42"/>
<text text-anchor="middle" x="245.723" y="-400.379" font-family="Times New Roman,serif" font-size="8.00" fill="#f0f0f0">gen</text>
</g>
<!-- http://example.org/range_nodes1&#45;attrs -->
<g id="node6" class="node"><title>http://example.org/range_nodes1&#45;attrs</title>
<polygon fill="none" stroke="gray" points="294.745,-317 236.745,-317 236.745,-268 300.745,-268 300.745,-311 294.745,-317"/>
<polyline fill="none" stroke="gray" points="294.745,-317 294.745,-311 "/>
<polyline fill="none" stroke="gray" points="300.745,-311 294.745,-311 "/>
<text text-anchor="start" x="246.745" y="-302.5" font-family="Times New Roman,serif" font-size="10.00">value:</text>
<text text-anchor="start" x="273.745" y="-302.5" font-family="Times New Roman,serif" font-size="10.00">1</text>
<text text-anchor="start" x="246.745" y="-289.5" font-family="Times New Roman,serif" font-size="10.00">type:</text>
<text text-anchor="start" x="273.745" y="-289.5" font-family="Times New Roman,serif" font-size="10.00">item</text>
<text text-anchor="start" x="246.745" y="-276.5" font-family="Times New Roman,serif" font-size="10.00">line:</text>
<text text-anchor="start" x="273.745" y="-276.5" font-family="Times New Roman,serif" font-size="10.00">7</text>
</g>
<!-- http://example.org/range_nodes1&#45;attrs&#45;&gt;http://example.org/range_nodes1 -->
<g id="edge4" class="edge"><title>http://example.org/range_nodes1&#45;attrs&#45;&gt;http://example.org/range_nodes1</title>
<path fill="none" stroke="gray" stroke-dasharray="5,2" d="M262.837,-317.286C259.961,-328.865 256.57,-342.518 253.96,-353.028"/>
</g>
<!-- http://example.org/range_nodes2&#45;&gt;http://example.org/call2 -->
<g id="edge12" class="edge"><title>http://example.org/range_nodes2&#45;&gt;http://example.org/call2</title>
<path fill="none" stroke="#f0f0f0" d="M354.44,-385.663C321.865,-397.922 274.282,-415.83 241.553,-428.147"/>
<polygon fill="#f0f0f0" stroke="#f0f0f0" points="240.032,-424.98 231.906,-431.778 242.498,-431.531 240.032,-424.98"/>
<text text-anchor="middle" x="351.996" y="-398.562" font-family="Times New Roman,serif" font-size="8.00" fill="#f0f0f0">gen</text>
</g>
<!-- http://example.org/range_nodes2&#45;attrs -->
<g id="node8" class="node"><title>http://example.org/range_nodes2&#45;attrs</title>
<polygon fill="none" stroke="gray" points="414.745,-317 356.745,-317 356.745,-268 420.745,-268 420.745,-311 414.745,-317"/>
<polyline fill="none" stroke="gray" points="414.745,-317 414.745,-311 "/>
<polyline fill="none" stroke="gray" points="420.745,-311 414.745,-311 "/>
<text text-anchor="start" x="366.745" y="-302.5" font-family="Times New Roman,serif" font-size="10.00">value:</text>
<text text-anchor="start" x="393.745" y="-302.5" font-family="Times New Roman,serif" font-size="10.00">2</text>
<text text-anchor="start" x="366.745" y="-289.5" font-family="Times New Roman,serif" font-size="10.00">type:</text>
<text text-anchor="start" x="393.745" y="-289.5" font-family="Times New Roman,serif" font-size="10.00">item</text>
<text text-anchor="start" x="366.745" y="-276.5" font-family="Times New Roman,serif" font-size="10.00">line:</text>
<text text-anchor="start" x="393.745" y="-276.5" font-family="Times New Roman,serif" font-size="10.00">7</text>
</g>
<!-- http://example.org/range_nodes2&#45;attrs&#45;&gt;http://example.org/range_nodes2 -->
<g id="edge6" class="edge"><title>http://example.org/range_nodes2&#45;attrs&#45;&gt;http://example.org/range_nodes2</title>
<path fill="none" stroke="gray" stroke-dasharray="5,2" d="M389.366,-317.286C389.665,-328.69 390.015,-342.105 390.288,-352.548"/>
</g>
<!-- http://example.org/nodes -->
<g id="node10" class="node"><title>http://example.org/nodes</title>
<ellipse fill="none" stroke="black" cx="204.745" cy="-515" rx="100.983" ry="18"/>
<text text-anchor="middle" x="204.745" y="-511.3" font-family="Times New Roman,serif" font-size="14.00">http://example.org/nodes</text>
</g>
<!-- http://example.org/call2&#45;&gt;http://example.org/nodes -->
<g id="edge8" class="edge"><title>http://example.org/call2&#45;&gt;http://example.org/nodes</title>
<path fill="none" stroke="#f0f0f0" d="M204.745,-461.303C204.745,-469.017 204.745,-478.288 204.745,-486.888"/>
<polygon fill="#f0f0f0" stroke="#f0f0f0" points="201.245,-486.896 204.745,-496.896 208.245,-486.896 201.245,-486.896"/>
<text text-anchor="middle" x="217.735" y="-466.903" font-family="Times New Roman,serif" font-size="8.00" fill="#f0f0f0">use</text>
</g>
<!-- http://example.org/indexes -->
<g id="node11" class="node"><title>http://example.org/indexes</title>
<g id="a_node11"><a xlink:href="http://example.org/indexes" xlink:title="indexes">
<ellipse fill="#fffc87" stroke="#808080" cx="165.745" cy="-116" rx="38.1938" ry="18"/>
<text text-anchor="middle" x="165.745" y="-112.3" font-family="Times New Roman,serif" font-size="14.00">indexes</text>
</a>
</g>
</g>
<!-- http://example.org/indexes&#45;&gt;http://example.org/range_nodes -->
<g id="edge17" class="edge"><title>http://example.org/indexes&#45;&gt;http://example.org/range_nodes</title>
<path fill="none" stroke="#f0f0f0" d="M165.354,-134.05C164.661,-164.282 163.211,-227.527 162.375,-263.991"/>
<polygon fill="#f0f0f0" stroke="#f0f0f0" points="158.867,-264.304 162.137,-274.381 165.865,-264.464 158.867,-264.304"/>
<text text-anchor="middle" x="178.169" y="-139.945" font-family="Times New Roman,serif" font-size="8.00" fill="#f0f0f0">der</text>
</g>
<!-- http://example.org/indexes&#45;&gt;http://example.org/range_nodes0 -->
<g id="edge14" class="edge"><title>http://example.org/indexes&#45;&gt;http://example.org/range_nodes0</title>
<path fill="none" stroke="black" d="M136.957,-128.18C116.632,-137.157 89.7424,-151.34 70.7445,-170 34.7976,-205.308 26.8637,-219.351 13.7445,-268 8.07431,-289.027 5.91064,-296.68 13.7445,-317 17.984,-327.997 25.6805,-338.126 33.6869,-346.519"/>
<polygon fill="black" stroke="black" points="31.4422,-349.22 41.0365,-353.714 36.339,-344.218 31.4422,-349.22"/>
</g>
<!-- http://example.org/indexes&#45;&gt;http://example.org/range_nodes1 -->
<g id="edge15" class="edge"><title>http://example.org/indexes&#45;&gt;http://example.org/range_nodes1</title>
<path fill="none" stroke="black" d="M203.196,-120.406C235.477,-125.503 280.452,-138.229 303.745,-170 342.406,-222.734 336.624,-257.392 309.745,-317 304.199,-329.297 294.235,-339.888 283.999,-348.298"/>
<polygon fill="black" stroke="black" points="281.623,-345.709 275.811,-354.567 285.879,-351.267 281.623,-345.709"/>
</g>
<!-- http://example.org/indexes&#45;&gt;http://example.org/range_nodes2 -->
<g id="edge16" class="edge"><title>http://example.org/indexes&#45;&gt;http://example.org/range_nodes2</title>
<path fill="none" stroke="black" d="M201.142,-123.366C263.738,-136.881 391.016,-175.169 429.745,-268 438.13,-288.099 436.537,-296.309 429.745,-317 426.377,-327.257 420.182,-337.164 413.705,-345.581"/>
<polygon fill="black" stroke="black" points="410.875,-343.512 407.228,-353.459 416.282,-347.957 410.875,-343.512"/>
</g>
<!-- http://example.org/assign5 -->
<g id="node13" class="node"><title>http://example.org/assign5</title>
<g id="a_node13"><a xlink:href="http://example.org/assign5" xlink:title="assign5">
<polygon fill="#fafafa" stroke="#f0f0f0" points="137.745,-219 79.7445,-219 79.7445,-183 137.745,-183 137.745,-219"/>
<text text-anchor="middle" x="108.745" y="-197.3" font-family="Times New Roman,serif" font-size="14.00" fill="#f0f0f0">assign5</text>
</a>
</g>
</g>
<!-- http://example.org/indexes&#45;&gt;http://example.org/assign5 -->
<g id="edge19" class="edge"><title>http://example.org/indexes&#45;&gt;http://example.org/assign5</title>
<path fill="none" stroke="#f0f0f0" d="M154.483,-133.398C146.446,-145.102 135.478,-161.073 126.297,-174.441"/>
<polygon fill="#f0f0f0" stroke="#f0f0f0" points="123.347,-172.554 120.571,-182.779 129.117,-176.517 123.347,-172.554"/>
<text text-anchor="middle" x="160.946" y="-145.035" font-family="Times New Roman,serif" font-size="8.00" fill="#f0f0f0">gen</text>
</g>
<!-- http://example.org/indexes&#45;attrs -->
<g id="node12" class="node"><title>http://example.org/indexes&#45;attrs</title>
<polygon fill="none" stroke="gray" points="198.745,-62 126.745,-62 126.745,-0 204.745,-0 204.745,-56 198.745,-62"/>
<polyline fill="none" stroke="gray" points="198.745,-62 198.745,-56 "/>
<polyline fill="none" stroke="gray" points="204.745,-56 198.745,-56 "/>
<text text-anchor="start" x="136.745" y="-48" font-family="Times New Roman,serif" font-size="10.00">value:</text>
<text text-anchor="start" x="163.745" y="-48" font-family="Times New Roman,serif" font-size="10.00">[0, 1, 2]</text>
<text text-anchor="start" x="136.745" y="-35" font-family="Times New Roman,serif" font-size="10.00">type:</text>
<text text-anchor="start" x="163.745" y="-35" font-family="Times New Roman,serif" font-size="10.00">name</text>
<text text-anchor="start" x="136.745" y="-22" font-family="Times New Roman,serif" font-size="10.00">label:</text>
<text text-anchor="start" x="163.745" y="-22" font-family="Times New Roman,serif" font-size="10.00">indexes</text>
<text text-anchor="start" x="136.745" y="-9" font-family="Times New Roman,serif" font-size="10.00">line:</text>
<text text-anchor="start" x="163.745" y="-9" font-family="Times New Roman,serif" font-size="10.00">7</text>
</g>
<!-- http://example.org/indexes&#45;attrs&#45;&gt;http://example.org/indexes -->
<g id="edge13" class="edge"><title>http://example.org/indexes&#45;attrs&#45;&gt;http://example.org/indexes</title>
<path fill="none" stroke="gray" stroke-dasharray="5,2" d="M165.745,-62.4348C165.745,-74.2789 165.745,-87.4202 165.745,-97.6005"/>
</g>
<!-- http://example.org/assign5&#45;&gt;http://example.org/range_nodes -->
<g id="edge18" class="edge"><title>http://example.org/assign5&#45;&gt;http://example.org/range_nodes</title>
<path fill="none" stroke="#f0f0f0" d="M118.963,-219.257C126.785,-232.465 137.697,-250.891 146.542,-265.828"/>
<polygon fill="#f0f0f0" stroke="#f0f0f0" points="143.63,-267.779 151.737,-274.6 149.653,-264.212 143.63,-267.779"/>
<text text-anchor="middle" x="133.963" y="-217.191" font-family="Times New Roman,serif" font-size="8.00" fill="#f0f0f0">use</text>
</g>
</g>
</svg>
