<?xml version="1.0" encoding="UTF-8" standalone="no"?>
<!DOCTYPE svg PUBLIC "-//W3C//DTD SVG 1.1//EN"
 "http://www.w3.org/Graphics/SVG/1.1/DTD/svg11.dtd">
<!-- Generated by graphviz version 2.38.0 (20140413.2041)
 -->
<!-- Title: PROV Pages: 1 -->
<svg width="354pt" height="394pt"
 viewBox="0.00 0.00 354.00 394.00" xmlns="http://www.w3.org/2000/svg" xmlns:xlink="http://www.w3.org/1999/xlink">
<g id="graph0" class="graph" transform="scale(1 1) rotate(0) translate(4 390)">
<title>PROV</title>
<polygon fill="white" stroke="none" points="-4,4 -4,-390 350,-390 350,4 -4,4"/>
<!-- http://example.org/vlist -->
<g id="node1" class="node"><title>http://example.org/vlist</title>
<g id="a_node1"><a xlink:href="http://example.org/vlist" xlink:title="vlist">
<ellipse fill="#32cd32" stroke="#808080" cx="97" cy="-368" rx="27" ry="18"/>
<text text-anchor="middle" x="97" y="-364.3" font-family="Times New Roman,serif" font-size="14.00">vlist</text>
</a>
</g>
</g>
<!-- http://example.org/vlist&#45;attrs -->
<g id="node2" class="node"><title>http://example.org/vlist&#45;attrs</title>
<polygon fill="none" stroke="gray" points="118,-284 0,-284 0,-248 124,-248 124,-278 118,-284"/>
<polyline fill="none" stroke="gray" points="118,-284 118,-278 "/>
<polyline fill="none" stroke="gray" points="124,-278 118,-278 "/>
<text text-anchor="start" x="10" y="-263" font-family="Times New Roman,serif" font-size="10.00">repr:</text>
<text text-anchor="start" x="31" y="-263" font-family="Times New Roman,serif" font-size="10.00">[10000, 10001, 10000]</text>
</g>
<!-- http://example.org/vlist&#45;attrs&#45;&gt;http://example.org/vlist -->
<g id="edge1" class="edge"><title>http://example.org/vlist&#45;attrs&#45;&gt;http://example.org/vlist</title>
<path fill="none" stroke="gray" stroke-dasharray="5,2" d="M68.0965,-284.419C74.5597,-302.885 84.6985,-331.853 91.0899,-350.114"/>
</g>
<!-- http://example.org/d -->
<g id="node3" class="node"><title>http://example.org/d</title>
<g id="a_node3"><a xlink:href="http://example.org/d" xlink:title="d">
<ellipse fill="#fffc87" stroke="#808080" cx="169" cy="-266" rx="27" ry="18"/>
<text text-anchor="middle" x="169" y="-262.3" font-family="Times New Roman,serif" font-size="14.00">d</text>
</a>
</g>
</g>
<!-- http://example.org/d&#45;&gt;http://example.org/vlist -->
<g id="edge3" class="edge"><title>http://example.org/d&#45;&gt;http://example.org/vlist</title>
<path fill="none" stroke="darkgreen" d="M157.75,-282.625C146.073,-298.843 127.662,-324.413 114.167,-343.157"/>
<polygon fill="darkgreen" stroke="darkgreen" points="111.174,-341.324 108.171,-351.485 116.854,-345.414 111.174,-341.324"/>
<text text-anchor="middle" x="162" y="-320.8" font-family="Times New Roman,serif" font-size="14.00">access</text>
<text text-anchor="middle" x="162" y="-305.8" font-family="Times New Roman,serif" font-size="14.00">T6</text>
</g>
<!-- http://example.org/d&#45;attrs -->
<g id="node4" class="node"><title>http://example.org/d&#45;attrs</title>
<polygon fill="none" stroke="gray" points="147,-211 87,-211 87,-175 153,-175 153,-205 147,-211"/>
<polyline fill="none" stroke="gray" points="147,-211 147,-205 "/>
<polyline fill="none" stroke="gray" points="153,-205 147,-205 "/>
<text text-anchor="start" x="97" y="-197" font-family="Times New Roman,serif" font-size="10.00">label:</text>
<text text-anchor="start" x="121" y="-197" font-family="Times New Roman,serif" font-size="10.00">d</text>
<text text-anchor="start" x="97" y="-184" font-family="Times New Roman,serif" font-size="10.00">type:</text>
<text text-anchor="start" x="121" y="-184" font-family="Times New Roman,serif" font-size="10.00">name</text>
</g>
<!-- http://example.org/d&#45;attrs&#45;&gt;http://example.org/d -->
<g id="edge2" class="edge"><title>http://example.org/d&#45;attrs&#45;&gt;http://example.org/d</title>
<path fill="none" stroke="gray" stroke-dasharray="5,2" d="M131.862,-211.187C139.905,-222.843 150.452,-238.125 158.251,-249.424"/>
</g>
<!-- http://example.org/len_d -->
<g id="node5" class="node"><title>http://example.org/len_d</title>
<g id="a_node5"><a xlink:href="http://example.org/len_d" xlink:title="len_d">
<ellipse fill="#fffc87" stroke="#808080" cx="239" cy="-91" rx="30.5947" ry="18"/>
<text text-anchor="middle" x="239" y="-87.3" font-family="Times New Roman,serif" font-size="14.00">len_d</text>
</a>
</g>
</g>
<!-- http://example.org/v3 -->
<g id="node7" class="node"><title>http://example.org/v3</title>
<g id="a_node7"><a xlink:href="http://example.org/v3" xlink:title="v3">
<ellipse fill="#32cd32" stroke="#808080" cx="198" cy="-193" rx="27" ry="18"/>
<text text-anchor="middle" x="198" y="-189.3" font-family="Times New Roman,serif" font-size="14.00">v3</text>
</a>
</g>
</g>
<!-- http://example.org/len_d&#45;&gt;http://example.org/v3 -->
<g id="edge6" class="edge"><title>http://example.org/len_d&#45;&gt;http://example.org/v3</title>
<path fill="none" stroke="darkgreen" d="M211.975,-99.7845C198.653,-105.138 183.805,-113.736 176,-127 168.513,-139.724 173.43,-155.361 180.496,-168.108"/>
<polygon fill="darkgreen" stroke="darkgreen" points="177.635,-170.136 185.874,-176.797 183.587,-166.452 177.635,-170.136"/>
<text text-anchor="middle" x="197" y="-145.8" font-family="Times New Roman,serif" font-size="14.00">defined</text>
<text text-anchor="middle" x="197" y="-130.8" font-family="Times New Roman,serif" font-size="14.00">T8</text>
</g>
<!-- http://example.org/call1 -->
<g id="node9" class="node"><title>http://example.org/call1</title>
<g id="a_node9"><a xlink:href="http://example.org/call1" xlink:title="call1">
<polygon fill="#9fb1fc" stroke="#0000ff" points="319,-211 265,-211 265,-175 319,-175 319,-211"/>
<text text-anchor="middle" x="292" y="-189.3" font-family="Times New Roman,serif" font-size="14.00">call1</text>
</a>
</g>
</g>
<!-- http://example.org/len_d&#45;&gt;http://example.org/call1 -->
<g id="edge10" class="edge"><title>http://example.org/len_d&#45;&gt;http://example.org/call1</title>
<path fill="none" stroke="black" d="M254.329,-106.641C259.854,-112.552 265.764,-119.698 270,-127 276.796,-138.717 281.895,-152.847 285.464,-164.936"/>
<polygon fill="black" stroke="black" points="282.184,-166.208 288.21,-174.922 288.933,-164.352 282.184,-166.208"/>
<text text-anchor="middle" x="268.964" y="-101.454" font-family="Times New Roman,serif" font-size="8.00">gen</text>
</g>
<!-- http://example.org/len_d&#45;attrs -->
<g id="node6" class="node"><title>http://example.org/len_d&#45;attrs</title>
<polygon fill="none" stroke="gray" points="267,-36 205,-36 205,-0 273,-0 273,-30 267,-36"/>
<polyline fill="none" stroke="gray" points="267,-36 267,-30 "/>
<polyline fill="none" stroke="gray" points="273,-30 267,-30 "/>
<text text-anchor="start" x="215" y="-22" font-family="Times New Roman,serif" font-size="10.00">label:</text>
<text text-anchor="start" x="239" y="-22" font-family="Times New Roman,serif" font-size="10.00">len(d)</text>
<text text-anchor="start" x="215" y="-9" font-family="Times New Roman,serif" font-size="10.00">type:</text>
<text text-anchor="start" x="239" y="-9" font-family="Times New Roman,serif" font-size="10.00">eval</text>
</g>
<!-- http://example.org/len_d&#45;attrs&#45;&gt;http://example.org/len_d -->
<g id="edge4" class="edge"><title>http://example.org/len_d&#45;attrs&#45;&gt;http://example.org/len_d</title>
<path fill="none" stroke="gray" stroke-dasharray="5,2" d="M239,-36.1871C239,-47.3501 239,-61.8398 239,-72.9712"/>
</g>
<!-- http://example.org/v3&#45;&gt;http://example.org/len_d -->
<g id="edge7" class="edge"><title>http://example.org/v3&#45;&gt;http://example.org/len_d</title>
<path fill="none" stroke="darkgreen" d="M208.08,-175.981C211.503,-170.143 215.173,-163.402 218,-157 223.409,-144.75 228.133,-130.66 231.722,-118.736"/>
<polygon fill="darkgreen" stroke="darkgreen" points="235.146,-119.496 234.574,-108.917 228.424,-117.544 235.146,-119.496"/>
<text text-anchor="middle" x="247.5" y="-145.8" font-family="Times New Roman,serif" font-size="14.00">def by</text>
<text text-anchor="middle" x="247.5" y="-130.8" font-family="Times New Roman,serif" font-size="14.00">T8</text>
</g>
<!-- http://example.org/v3&#45;attrs -->
<g id="node8" class="node"><title>http://example.org/v3&#45;attrs</title>
<polygon fill="none" stroke="gray" points="163,-109 115,-109 115,-73 169,-73 169,-103 163,-109"/>
<polyline fill="none" stroke="gray" points="163,-109 163,-103 "/>
<polyline fill="none" stroke="gray" points="169,-103 163,-103 "/>
<text text-anchor="start" x="129" y="-88" font-family="Times New Roman,serif" font-size="10.00">repr:</text>
<text text-anchor="start" x="150" y="-88" font-family="Times New Roman,serif" font-size="10.00">3</text>
</g>
<!-- http://example.org/v3&#45;attrs&#45;&gt;http://example.org/v3 -->
<g id="edge5" class="edge"><title>http://example.org/v3&#45;attrs&#45;&gt;http://example.org/v3</title>
<path fill="none" stroke="gray" stroke-dasharray="5,2" d="M147.093,-109.005C151.545,-122.554 158.744,-141.718 168,-157 172.395,-164.256 178.294,-171.504 183.697,-177.506"/>
</g>
<!-- http://example.org/call1&#45;&gt;http://example.org/d -->
<g id="edge9" class="edge"><title>http://example.org/call1&#45;&gt;http://example.org/d</title>
<path fill="none" stroke="black" d="M264.702,-209.757C244.817,-221.236 217.936,-236.752 197.726,-248.418"/>
<polygon fill="black" stroke="black" points="195.87,-245.449 188.959,-253.479 199.369,-251.511 195.87,-245.449"/>
<text text-anchor="middle" x="264.701" y="-222.857" font-family="Times New Roman,serif" font-size="8.00">use</text>
</g>
<!-- http://example.org/call1&#45;attrs -->
<g id="node10" class="node"><title>http://example.org/call1&#45;attrs</title>
<polygon fill="none" stroke="gray" points="340,-109 288,-109 288,-73 346,-73 346,-103 340,-109"/>
<polyline fill="none" stroke="gray" points="340,-109 340,-103 "/>
<polyline fill="none" stroke="gray" points="346,-103 340,-103 "/>
<text text-anchor="start" x="298" y="-95" font-family="Times New Roman,serif" font-size="10.00">type:</text>
<text text-anchor="start" x="322" y="-95" font-family="Times New Roman,serif" font-size="10.00">call</text>
<text text-anchor="start" x="298" y="-82" font-family="Times New Roman,serif" font-size="10.00">label:</text>
<text text-anchor="start" x="322" y="-82" font-family="Times New Roman,serif" font-size="10.00">len</text>
</g>
<!-- http://example.org/call1&#45;attrs&#45;&gt;http://example.org/call1 -->
<g id="edge8" class="edge"><title>http://example.org/call1&#45;attrs&#45;&gt;http://example.org/call1</title>
<path fill="none" stroke="gray" stroke-dasharray="5,2" d="M313.744,-109.21C311.145,-122.371 307.246,-140.929 303,-157 301.47,-162.789 299.581,-169.045 297.802,-174.645"/>
</g>
</g>
</svg>
