<?xml version="1.0" encoding="UTF-8" standalone="no"?>
<!DOCTYPE svg PUBLIC "-//W3C//DTD SVG 1.1//EN"
 "http://www.w3.org/Graphics/SVG/1.1/DTD/svg11.dtd">
<!-- Generated by graphviz version 2.38.0 (20140413.2041)
 -->
<!-- Title: PROV Pages: 1 -->
<svg width="457pt" height="394pt"
 viewBox="0.00 0.00 457.08 394.00" xmlns="http://www.w3.org/2000/svg" xmlns:xlink="http://www.w3.org/1999/xlink">
<g id="graph0" class="graph" transform="scale(1 1) rotate(0) translate(4 390)">
<title>PROV</title>
<polygon fill="white" stroke="none" points="-4,4 -4,-390 453.083,-390 453.083,4 -4,4"/>
<!-- http://example.org/m -->
<g id="node1" class="node"><title>http://example.org/m</title>
<g id="a_node1"><a xlink:href="http://example.org/m" xlink:title="m">
<ellipse fill="#fffc87" stroke="#808080" cx="400" cy="-266" rx="27" ry="18"/>
<text text-anchor="middle" x="400" y="-262.3" font-family="Times New Roman,serif" font-size="14.00">m</text>
</a>
</g>
</g>
<!-- http://example.org/v10000 -->
<g id="node3" class="node"><title>http://example.org/v10000</title>
<g id="a_node3"><a xlink:href="http://example.org/v10000" xlink:title="v10000">
<ellipse fill="#32cd32" stroke="#808080" cx="350" cy="-368" rx="37.0935" ry="18"/>
<text text-anchor="middle" x="350" y="-364.3" font-family="Times New Roman,serif" font-size="14.00">v10000</text>
</a>
</g>
</g>
<!-- http://example.org/m&#45;&gt;http://example.org/v10000 -->
<g id="edge3" class="edge"><title>http://example.org/m&#45;&gt;http://example.org/v10000</title>
<path fill="none" stroke="darkgreen" d="M391.744,-283.513C383.974,-299.053 372.21,-322.579 363.149,-340.701"/>
<polygon fill="darkgreen" stroke="darkgreen" points="359.778,-339.619 358.436,-350.128 366.039,-342.749 359.778,-339.619"/>
<text text-anchor="middle" x="401" y="-320.8" font-family="Times New Roman,serif" font-size="14.00">access</text>
<text text-anchor="middle" x="401" y="-305.8" font-family="Times New Roman,serif" font-size="14.00">T2</text>
</g>
<!-- http://example.org/m&#45;attrs -->
<g id="node2" class="node"><title>http://example.org/m&#45;attrs</title>
<polygon fill="none" stroke="gray" points="427.5,-211 366.5,-211 366.5,-175 433.5,-175 433.5,-205 427.5,-211"/>
<polyline fill="none" stroke="gray" points="427.5,-211 427.5,-205 "/>
<polyline fill="none" stroke="gray" points="433.5,-205 427.5,-205 "/>
<text text-anchor="start" x="377" y="-197" font-family="Times New Roman,serif" font-size="10.00">label:</text>
<text text-anchor="start" x="401" y="-197" font-family="Times New Roman,serif" font-size="10.00">10000</text>
<text text-anchor="start" x="377" y="-184" font-family="Times New Roman,serif" font-size="10.00">type:</text>
<text text-anchor="start" x="401" y="-184" font-family="Times New Roman,serif" font-size="10.00">name</text>
</g>
<!-- http://example.org/m&#45;attrs&#45;&gt;http://example.org/m -->
<g id="edge1" class="edge"><title>http://example.org/m&#45;attrs&#45;&gt;http://example.org/m</title>
<path fill="none" stroke="gray" stroke-dasharray="5,2" d="M400,-211.187C400,-222.35 400,-236.84 400,-247.971"/>
</g>
<!-- http://example.org/v10000&#45;attrs -->
<g id="node4" class="node"><title>http://example.org/v10000&#45;attrs</title>
<polygon fill="none" stroke="gray" points="349,-284 291,-284 291,-248 355,-248 355,-278 349,-284"/>
<polyline fill="none" stroke="gray" points="349,-284 349,-278 "/>
<polyline fill="none" stroke="gray" points="355,-278 349,-278 "/>
<text text-anchor="start" x="301" y="-263" font-family="Times New Roman,serif" font-size="10.00">repr:</text>
<text text-anchor="start" x="322" y="-263" font-family="Times New Roman,serif" font-size="10.00">10000</text>
</g>
<!-- http://example.org/v10000&#45;attrs&#45;&gt;http://example.org/v10000 -->
<g id="edge2" class="edge"><title>http://example.org/v10000&#45;attrs&#45;&gt;http://example.org/v10000</title>
<path fill="none" stroke="gray" stroke-dasharray="5,2" d="M327.703,-284.419C332.689,-302.885 340.51,-331.853 345.441,-350.114"/>
</g>
<!-- http://example.org/1 -->
<g id="node5" class="node"><title>http://example.org/1</title>
<g id="a_node5"><a xlink:href="http://example.org/1" xlink:title="1">
<ellipse fill="#fffc87" stroke="#808080" cx="243" cy="-266" rx="27" ry="18"/>
<text text-anchor="middle" x="243" y="-262.3" font-family="Times New Roman,serif" font-size="14.00">1</text>
</a>
</g>
</g>
<!-- http://example.org/v1 -->
<g id="node7" class="node"><title>http://example.org/v1</title>
<g id="a_node7"><a xlink:href="http://example.org/v1" xlink:title="v1">
<ellipse fill="#32cd32" stroke="#808080" cx="191" cy="-368" rx="27" ry="18"/>
<text text-anchor="middle" x="191" y="-364.3" font-family="Times New Roman,serif" font-size="14.00">v1</text>
</a>
</g>
</g>
<!-- http://example.org/1&#45;&gt;http://example.org/v1 -->
<g id="edge6" class="edge"><title>http://example.org/1&#45;&gt;http://example.org/v1</title>
<path fill="none" stroke="darkgreen" d="M220.535,-276.381C209.872,-282.104 198.142,-290.55 192,-302 185.893,-313.384 185.048,-327.584 185.979,-339.805"/>
<polygon fill="darkgreen" stroke="darkgreen" points="182.524,-340.392 187.168,-349.914 189.476,-339.574 182.524,-340.392"/>
<text text-anchor="middle" x="213" y="-320.8" font-family="Times New Roman,serif" font-size="14.00">defined</text>
<text text-anchor="middle" x="213" y="-305.8" font-family="Times New Roman,serif" font-size="14.00">T3</text>
</g>
<!-- http://example.org/1&#45;attrs -->
<g id="node6" class="node"><title>http://example.org/1&#45;attrs</title>
<polygon fill="none" stroke="gray" points="270,-211 210,-211 210,-175 276,-175 276,-205 270,-211"/>
<polyline fill="none" stroke="gray" points="270,-211 270,-205 "/>
<polyline fill="none" stroke="gray" points="276,-205 270,-205 "/>
<text text-anchor="start" x="220" y="-197" font-family="Times New Roman,serif" font-size="10.00">label:</text>
<text text-anchor="start" x="244" y="-197" font-family="Times New Roman,serif" font-size="10.00">1</text>
<text text-anchor="start" x="220" y="-184" font-family="Times New Roman,serif" font-size="10.00">type:</text>
<text text-anchor="start" x="244" y="-184" font-family="Times New Roman,serif" font-size="10.00">literal</text>
</g>
<!-- http://example.org/1&#45;attrs&#45;&gt;http://example.org/1 -->
<g id="edge4" class="edge"><title>http://example.org/1&#45;attrs&#45;&gt;http://example.org/1</title>
<path fill="none" stroke="gray" stroke-dasharray="5,2" d="M243,-211.187C243,-222.35 243,-236.84 243,-247.971"/>
</g>
<!-- http://example.org/v1&#45;&gt;http://example.org/1 -->
<g id="edge7" class="edge"><title>http://example.org/v1&#45;&gt;http://example.org/1</title>
<path fill="none" stroke="darkgreen" d="M211.046,-355.467C219.503,-349.549 228.618,-341.563 234,-332 240.396,-320.635 242.871,-306.438 243.654,-294.213"/>
<polygon fill="darkgreen" stroke="darkgreen" points="247.156,-294.201 243.961,-284.099 240.159,-293.988 247.156,-294.201"/>
<text text-anchor="middle" x="261.5" y="-320.8" font-family="Times New Roman,serif" font-size="14.00">def by</text>
<text text-anchor="middle" x="261.5" y="-305.8" font-family="Times New Roman,serif" font-size="14.00">T3</text>
</g>
<!-- http://example.org/v1&#45;attrs -->
<g id="node8" class="node"><title>http://example.org/v1&#45;attrs</title>
<polygon fill="none" stroke="gray" points="179,-284 131,-284 131,-248 185,-248 185,-278 179,-284"/>
<polyline fill="none" stroke="gray" points="179,-284 179,-278 "/>
<polyline fill="none" stroke="gray" points="185,-278 179,-278 "/>
<text text-anchor="start" x="145" y="-263" font-family="Times New Roman,serif" font-size="10.00">repr:</text>
<text text-anchor="start" x="166" y="-263" font-family="Times New Roman,serif" font-size="10.00">1</text>
</g>
<!-- http://example.org/v1&#45;attrs&#45;&gt;http://example.org/v1 -->
<g id="edge5" class="edge"><title>http://example.org/v1&#45;attrs&#45;&gt;http://example.org/v1</title>
<path fill="none" stroke="gray" stroke-dasharray="5,2" d="M160.335,-284.211C162.467,-297.536 166.186,-316.304 172,-332 174.402,-338.484 177.826,-345.242 181.108,-351.072"/>
</g>
<!-- http://example.org/sum -->
<g id="node9" class="node"><title>http://example.org/sum</title>
<g id="a_node9"><a xlink:href="http://example.org/sum" xlink:title="sum">
<ellipse fill="#fffc87" stroke="#808080" cx="182" cy="-91" rx="27" ry="18"/>
<text text-anchor="middle" x="182" y="-87.3" font-family="Times New Roman,serif" font-size="14.00">sum</text>
</a>
</g>
</g>
<!-- http://example.org/sum&#45;&gt;http://example.org/m -->
<g id="edge13" class="edge"><title>http://example.org/sum&#45;&gt;http://example.org/m</title>
<path fill="none" stroke="black" d="M207.236,-98.2279C269.902,-113.939 428.615,-155.33 443,-175 458.723,-196.499 440.031,-224.652 422.602,-243.703"/>
<polygon fill="black" stroke="black" points="419.975,-241.385 415.563,-251.018 425.019,-246.239 419.975,-241.385"/>
<text text-anchor="middle" x="217.698" y="-85.5793" font-family="Times New Roman,serif" font-size="8.00">der</text>
</g>
<!-- http://example.org/sum&#45;&gt;http://example.org/1 -->
<g id="edge14" class="edge"><title>http://example.org/sum&#45;&gt;http://example.org/1</title>
<path fill="none" stroke="black" d="M182.097,-109.299C182.814,-133.149 186.25,-177.034 201,-211 206.049,-222.628 214.189,-233.946 221.965,-243.192"/>
<polygon fill="black" stroke="black" points="219.379,-245.552 228.617,-250.74 224.631,-240.924 219.379,-245.552"/>
<text text-anchor="middle" x="195.374" y="-114.381" font-family="Times New Roman,serif" font-size="8.00">der</text>
</g>
<!-- http://example.org/v10001 -->
<g id="node11" class="node"><title>http://example.org/v10001</title>
<g id="a_node11"><a xlink:href="http://example.org/v10001" xlink:title="v10001">
<ellipse fill="#32cd32" stroke="#808080" cx="65" cy="-193" rx="37.0935" ry="18"/>
<text text-anchor="middle" x="65" y="-189.3" font-family="Times New Roman,serif" font-size="14.00">v10001</text>
</a>
</g>
</g>
<!-- http://example.org/sum&#45;&gt;http://example.org/v10001 -->
<g id="edge10" class="edge"><title>http://example.org/sum&#45;&gt;http://example.org/v10001</title>
<path fill="none" stroke="darkgreen" d="M154.87,-91.6898C127.529,-93.0097 86.5302,-99.8007 66,-127 57.9789,-137.627 57.138,-152.262 58.563,-164.955"/>
<polygon fill="darkgreen" stroke="darkgreen" points="55.1399,-165.714 60.1851,-175.03 62.0509,-164.601 55.1399,-165.714"/>
<text text-anchor="middle" x="87" y="-145.8" font-family="Times New Roman,serif" font-size="14.00">defined</text>
<text text-anchor="middle" x="87" y="-130.8" font-family="Times New Roman,serif" font-size="14.00">T4</text>
</g>
<!-- http://example.org/+ -->
<g id="node13" class="node"><title>http://example.org/+</title>
<g id="a_node13"><a xlink:href="http://example.org/+" xlink:title="+">
<polygon fill="#9fb1fc" stroke="#0000ff" points="348,-211 294,-211 294,-175 348,-175 348,-211"/>
<text text-anchor="middle" x="321" y="-189.3" font-family="Times New Roman,serif" font-size="14.00">+</text>
</a>
</g>
</g>
<!-- http://example.org/sum&#45;&gt;http://example.org/+ -->
<g id="edge17" class="edge"><title>http://example.org/sum&#45;&gt;http://example.org/+</title>
<path fill="none" stroke="black" d="M199.604,-104.665C221.981,-120.764 261.034,-148.859 288.8,-168.834"/>
<polygon fill="black" stroke="black" points="286.862,-171.752 297.023,-174.751 290.95,-166.07 286.862,-171.752"/>
<text text-anchor="middle" x="213.279" y="-96.6" font-family="Times New Roman,serif" font-size="8.00">gen</text>
</g>
<!-- http://example.org/sum&#45;attrs -->
<g id="node10" class="node"><title>http://example.org/sum&#45;attrs</title>
<polygon fill="none" stroke="gray" points="209,-36 149,-36 149,-0 215,-0 215,-30 209,-36"/>
<polyline fill="none" stroke="gray" points="209,-36 209,-30 "/>
<polyline fill="none" stroke="gray" points="215,-30 209,-30 "/>
<text text-anchor="start" x="159" y="-22" font-family="Times New Roman,serif" font-size="10.00">label:</text>
<text text-anchor="start" x="183" y="-22" font-family="Times New Roman,serif" font-size="10.00">m + 1</text>
<text text-anchor="start" x="159" y="-9" font-family="Times New Roman,serif" font-size="10.00">type:</text>
<text text-anchor="start" x="183" y="-9" font-family="Times New Roman,serif" font-size="10.00">eval</text>
</g>
<!-- http://example.org/sum&#45;attrs&#45;&gt;http://example.org/sum -->
<g id="edge8" class="edge"><title>http://example.org/sum&#45;attrs&#45;&gt;http://example.org/sum</title>
<path fill="none" stroke="gray" stroke-dasharray="5,2" d="M182,-36.1871C182,-47.3501 182,-61.8398 182,-72.9712"/>
</g>
<!-- http://example.org/v10001&#45;&gt;http://example.org/sum -->
<g id="edge11" class="edge"><title>http://example.org/v10001&#45;&gt;http://example.org/sum</title>
<path fill="none" stroke="darkgreen" d="M84.6664,-177.571C92.2969,-171.578 100.891,-164.319 108,-157 119.706,-144.948 118.811,-138.563 131,-127 137.719,-120.625 145.7,-114.573 153.329,-109.35"/>
<polygon fill="darkgreen" stroke="darkgreen" points="155.596,-112.048 162.028,-103.629 151.75,-106.2 155.596,-112.048"/>
<text text-anchor="middle" x="149.5" y="-145.8" font-family="Times New Roman,serif" font-size="14.00">def by</text>
<text text-anchor="middle" x="149.5" y="-130.8" font-family="Times New Roman,serif" font-size="14.00">T4</text>
</g>
<!-- http://example.org/v10001&#45;attrs -->
<g id="node12" class="node"><title>http://example.org/v10001&#45;attrs</title>
<polygon fill="none" stroke="gray" points="58,-109 0,-109 0,-73 64,-73 64,-103 58,-109"/>
<polyline fill="none" stroke="gray" points="58,-109 58,-103 "/>
<polyline fill="none" stroke="gray" points="64,-103 58,-103 "/>
<text text-anchor="start" x="10" y="-88" font-family="Times New Roman,serif" font-size="10.00">repr:</text>
<text text-anchor="start" x="31" y="-88" font-family="Times New Roman,serif" font-size="10.00">10001</text>
</g>
<!-- http://example.org/v10001&#45;attrs&#45;&gt;http://example.org/v10001 -->
<g id="edge9" class="edge"><title>http://example.org/v10001&#45;attrs&#45;&gt;http://example.org/v10001</title>
<path fill="none" stroke="gray" stroke-dasharray="5,2" d="M34.3345,-109.211C36.4668,-122.536 40.186,-141.304 46,-157 48.3055,-163.224 51.5538,-169.702 54.7135,-175.368"/>
</g>
<!-- http://example.org/+&#45;&gt;http://example.org/m -->
<g id="edge16" class="edge"><title>http://example.org/+&#45;&gt;http://example.org/m</title>
<path fill="none" stroke="black" d="M340.124,-211.187C351.18,-221.124 365.17,-233.697 376.846,-244.191"/>
<polygon fill="black" stroke="black" points="374.718,-246.984 384.495,-251.065 379.397,-241.778 374.718,-246.984"/>
<text text-anchor="middle" x="354.385" y="-204.639" font-family="Times New Roman,serif" font-size="8.00">use</text>
</g>
<!-- http://example.org/+&#45;&gt;http://example.org/1 -->
<g id="edge15" class="edge"><title>http://example.org/+&#45;&gt;http://example.org/1</title>
<path fill="none" stroke="black" d="M302.118,-211.187C291.202,-221.124 277.389,-233.697 265.861,-244.191"/>
<polygon fill="black" stroke="black" points="263.348,-241.746 258.309,-251.065 268.06,-246.922 263.348,-241.746"/>
<text text-anchor="middle" x="305.316" y="-223.942" font-family="Times New Roman,serif" font-size="8.00">use</text>
</g>
<!-- http://example.org/+&#45;attrs -->
<g id="node14" class="node"><title>http://example.org/+&#45;attrs</title>
<polygon fill="none" stroke="gray" points="356,-109 280,-109 280,-73 362,-73 362,-103 356,-109"/>
<polyline fill="none" stroke="gray" points="356,-109 356,-103 "/>
<polyline fill="none" stroke="gray" points="362,-103 356,-103 "/>
<text text-anchor="start" x="290" y="-88" font-family="Times New Roman,serif" font-size="10.00">type:</text>
<text text-anchor="start" x="313" y="-88" font-family="Times New Roman,serif" font-size="10.00">operation</text>
</g>
<!-- http://example.org/+&#45;attrs&#45;&gt;http://example.org/+ -->
<g id="edge12" class="edge"><title>http://example.org/+&#45;attrs&#45;&gt;http://example.org/+</title>
<path fill="none" stroke="gray" stroke-dasharray="5,2" d="M321,-109.419C321,-127.773 321,-156.502 321,-174.781"/>
</g>
</g>
</svg>
