<?xml version="1.0" encoding="UTF-8" standalone="no"?>
<!DOCTYPE svg PUBLIC "-//W3C//DTD SVG 1.1//EN"
 "http://www.w3.org/Graphics/SVG/1.1/DTD/svg11.dtd">
<!-- Generated by graphviz version 2.38.0 (20140413.2041)
 -->
<!-- Title: PROV Pages: 1 -->
<svg width="1152pt" height="199pt"
 viewBox="0.00 0.00 1152.00 198.64" xmlns="http://www.w3.org/2000/svg" xmlns:xlink="http://www.w3.org/1999/xlink">
<g id="graph0" class="graph" transform="scale(0.780498 0.780498) rotate(0) translate(4 250.5)">
<title>PROV</title>
<polygon fill="white" stroke="none" points="-4,4 -4,-250.5 1471.98,-250.5 1471.98,4 -4,4"/>
<!-- http://example.org/v2 -->
<g id="node1" class="node"><title>http://example.org/v2</title>
<g id="a_node1"><a xlink:href="http://example.org/v2" xlink:title="v2">
<ellipse fill="#32cd32" stroke="#808080" cx="286" cy="-161" rx="27" ry="18"/>
<text text-anchor="middle" x="286" y="-157.3" font-family="Times New Roman,serif" font-size="14.00">v2</text>
</a>
</g>
</g>
<!-- http://example.org/2 -->
<g id="node2" class="node"><title>http://example.org/2</title>
<g id="a_node2"><a xlink:href="http://example.org/2" xlink:title="2">
<ellipse fill="#fffc87" stroke="#808080" cx="27" cy="-195" rx="27" ry="18"/>
<text text-anchor="middle" x="27" y="-191.3" font-family="Times New Roman,serif" font-size="14.00">2</text>
</a>
</g>
</g>
<!-- http://example.org/v2&#45;&gt;http://example.org/2 -->
<g id="edge1" class="edge"><title>http://example.org/v2&#45;&gt;http://example.org/2</title>
<path fill="none" stroke="darkgreen" d="M259.103,-157.958C218.342,-154.053 137.154,-149.867 72,-169 66.1098,-170.73 60.1895,-173.424 54.6857,-176.434"/>
<polygon fill="darkgreen" stroke="darkgreen" points="52.6852,-173.552 45.8951,-181.685 56.275,-179.562 52.6852,-173.552"/>
<text text-anchor="middle" x="153.5" y="-187.8" font-family="Times New Roman,serif" font-size="14.00">def by</text>
<text text-anchor="middle" x="153.5" y="-172.8" font-family="Times New Roman,serif" font-size="14.00">2018&#45;06&#45;10T17:26:41.488091</text>
</g>
<!-- http://example.org/distk@j#3 -->
<g id="node3" class="node"><title>http://example.org/distk@j#3</title>
<g id="a_node3"><a xlink:href="http://example.org/distk@j#3" xlink:title="distk@j#3">
<ellipse fill="#fffc87" stroke="#808080" cx="566.096" cy="-187" rx="48.1917" ry="18"/>
<text text-anchor="middle" x="566.096" y="-183.3" font-family="Times New Roman,serif" font-size="14.00">distk@j#3</text>
</a>
</g>
</g>
<!-- http://example.org/distk@j#3&#45;&gt;http://example.org/v2 -->
<g id="edge11" class="edge"><title>http://example.org/distk@j#3&#45;&gt;http://example.org/v2</title>
<path fill="none" stroke="darkgreen" d="M519.174,-182.707C464.156,-177.563 373.137,-169.053 322.964,-164.362"/>
<polygon fill="darkgreen" stroke="darkgreen" points="323.187,-160.868 312.905,-163.422 322.536,-167.838 323.187,-160.868"/>
<text text-anchor="middle" x="418.5" y="-213.8" font-family="Times New Roman,serif" font-size="14.00">part</text>
<text text-anchor="middle" x="418.5" y="-198.8" font-family="Times New Roman,serif" font-size="14.00">row1[2]</text>
<text text-anchor="middle" x="418.5" y="-183.8" font-family="Times New Roman,serif" font-size="14.00">2018&#45;06&#45;10T17:26:44.593147</text>
</g>
<!-- http://example.org/distk@j#3&#45;attrs -->
<g id="node4" class="node"><title>http://example.org/distk@j#3&#45;attrs</title>
<polygon fill="none" stroke="gray" points="717.191,-214.5 651.191,-214.5 651.191,-165.5 723.191,-165.5 723.191,-208.5 717.191,-214.5"/>
<polyline fill="none" stroke="gray" points="717.191,-214.5 717.191,-208.5 "/>
<polyline fill="none" stroke="gray" points="723.191,-208.5 717.191,-208.5 "/>
<text text-anchor="start" x="661.191" y="-200" font-family="Times New Roman,serif" font-size="10.00">type:</text>
<text text-anchor="start" x="685.191" y="-200" font-family="Times New Roman,serif" font-size="10.00">access</text>
<text text-anchor="start" x="661.191" y="-187" font-family="Times New Roman,serif" font-size="10.00">label:</text>
<text text-anchor="start" x="685.191" y="-187" font-family="Times New Roman,serif" font-size="10.00">distk[j]</text>
<text text-anchor="start" x="661.191" y="-174" font-family="Times New Roman,serif" font-size="10.00">line:</text>
<text text-anchor="start" x="685.191" y="-174" font-family="Times New Roman,serif" font-size="10.00">15</text>
</g>
<!-- http://example.org/distk@j#3&#45;attrs&#45;&gt;http://example.org/distk@j#3 -->
<g id="edge2" class="edge"><title>http://example.org/distk@j#3&#45;attrs&#45;&gt;http://example.org/distk@j#3</title>
<path fill="none" stroke="gray" stroke-dasharray="5,2" d="M651.103,-189.116C639.576,-188.826 626.569,-188.498 614.294,-188.189"/>
</g>
<!-- http://example.org/v1 -->
<g id="node5" class="node"><title>http://example.org/v1</title>
<g id="a_node5"><a xlink:href="http://example.org/v1" xlink:title="v1">
<ellipse fill="#32cd32" stroke="#808080" cx="286" cy="-32" rx="27" ry="18"/>
<text text-anchor="middle" x="286" y="-28.3" font-family="Times New Roman,serif" font-size="14.00">v1</text>
</a>
</g>
</g>
<!-- http://example.org/1 -->
<g id="node13" class="node"><title>http://example.org/1</title>
<g id="a_node13"><a xlink:href="http://example.org/1" xlink:title="1">
<ellipse fill="#fffc87" stroke="#808080" cx="27" cy="-67" rx="27" ry="18"/>
<text text-anchor="middle" x="27" y="-63.3" font-family="Times New Roman,serif" font-size="14.00">1</text>
</a>
</g>
</g>
<!-- http://example.org/v1&#45;&gt;http://example.org/1 -->
<g id="edge16" class="edge"><title>http://example.org/v1&#45;&gt;http://example.org/1</title>
<path fill="none" stroke="darkgreen" d="M259.396,-28.8607C218.694,-24.7697 137.169,-20.2712 72,-40 65.8078,-41.8746 59.6091,-44.8389 53.9,-48.1292"/>
<polygon fill="darkgreen" stroke="darkgreen" points="52.015,-45.18 45.4029,-53.4584 55.7343,-51.1102 52.015,-45.18"/>
<text text-anchor="middle" x="153.5" y="-58.8" font-family="Times New Roman,serif" font-size="14.00">def by</text>
<text text-anchor="middle" x="153.5" y="-43.8" font-family="Times New Roman,serif" font-size="14.00">2018&#45;06&#45;10T17:26:41.488091</text>
</g>
<!-- http://example.org/v1&#45;attrs -->
<g id="node6" class="node"><title>http://example.org/v1&#45;attrs</title>
<polygon fill="none" stroke="gray" points="587.096,-36 539.096,-36 539.096,-0 593.096,-0 593.096,-30 587.096,-36"/>
<polyline fill="none" stroke="gray" points="587.096,-36 587.096,-30 "/>
<polyline fill="none" stroke="gray" points="593.096,-30 587.096,-30 "/>
<text text-anchor="start" x="553.096" y="-15" font-family="Times New Roman,serif" font-size="10.00">repr:</text>
<text text-anchor="start" x="574.096" y="-15" font-family="Times New Roman,serif" font-size="10.00">1</text>
</g>
<!-- http://example.org/v1&#45;attrs&#45;&gt;http://example.org/v1 -->
<g id="edge3" class="edge"><title>http://example.org/v1&#45;attrs&#45;&gt;http://example.org/v1</title>
<path fill="none" stroke="gray" stroke-dasharray="5,2" d="M538.933,-19.3171C485.93,-21.9854 366.41,-28.0023 313.296,-30.6762"/>
</g>
<!-- http://example.org/sum#3 -->
<g id="node7" class="node"><title>http://example.org/sum#3</title>
<g id="a_node7"><a xlink:href="http://example.org/sum#3" xlink:title="sum#3">
<ellipse fill="#fffc87" stroke="#808080" cx="687.191" cy="-129" rx="35.194" ry="18"/>
<text text-anchor="middle" x="687.191" y="-125.3" font-family="Times New Roman,serif" font-size="14.00">sum#3</text>
</a>
</g>
</g>
<!-- http://example.org/sum#3&#45;&gt;http://example.org/distk@j#3 -->
<g id="edge6" class="edge"><title>http://example.org/sum#3&#45;&gt;http://example.org/distk@j#3</title>
<path fill="none" stroke="black" d="M661.225,-141.159C645.078,-149.022 623.739,-159.415 605.461,-168.316"/>
<polygon fill="black" stroke="black" points="603.684,-165.288 596.226,-172.813 606.749,-171.582 603.684,-165.288"/>
<text text-anchor="middle" x="660.17" y="-154.222" font-family="Times New Roman,serif" font-size="8.00">der</text>
</g>
<!-- http://example.org/disti@k#3 -->
<g id="node8" class="node"><title>http://example.org/disti@k#3</title>
<g id="a_node8"><a xlink:href="http://example.org/disti@k#3" xlink:title="disti@k#3">
<ellipse fill="#fffc87" stroke="#808080" cx="566.096" cy="-72" rx="48.1917" ry="18"/>
<text text-anchor="middle" x="566.096" y="-68.3" font-family="Times New Roman,serif" font-size="14.00">disti@k#3</text>
</a>
</g>
</g>
<!-- http://example.org/sum#3&#45;&gt;http://example.org/disti@k#3 -->
<g id="edge4" class="edge"><title>http://example.org/sum#3&#45;&gt;http://example.org/disti@k#3</title>
<path fill="none" stroke="black" d="M660.934,-116.912C644.886,-109.231 623.798,-99.138 605.678,-90.4659"/>
<polygon fill="black" stroke="black" points="607.047,-87.2408 596.516,-86.0807 604.025,-93.5549 607.047,-87.2408"/>
<text text-anchor="middle" x="648.561" y="-123.491" font-family="Times New Roman,serif" font-size="8.00">der</text>
</g>
<!-- http://example.org/disti@k#3&#45;&gt;http://example.org/v1 -->
<g id="edge7" class="edge"><title>http://example.org/disti@k#3&#45;&gt;http://example.org/v1</title>
<path fill="none" stroke="darkgreen" d="M521.031,-65.6619C466.124,-57.7644 373.369,-44.423 322.688,-37.1331"/>
<polygon fill="darkgreen" stroke="darkgreen" points="322.937,-33.633 312.54,-35.6736 321.94,-40.5617 322.937,-33.633"/>
<text text-anchor="middle" x="418.5" y="-96.8" font-family="Times New Roman,serif" font-size="14.00">part</text>
<text text-anchor="middle" x="418.5" y="-81.8" font-family="Times New Roman,serif" font-size="14.00">row0[1]</text>
<text text-anchor="middle" x="418.5" y="-66.8" font-family="Times New Roman,serif" font-size="14.00">2018&#45;06&#45;10T17:26:44.593147</text>
</g>
<!-- http://example.org/vsum#3 -->
<g id="node9" class="node"><title>http://example.org/vsum#3</title>
<g id="a_node9"><a xlink:href="http://example.org/vsum#3" xlink:title="vsum#3">
<ellipse fill="#32cd32" stroke="#808080" cx="977.191" cy="-159" rx="39.7935" ry="18"/>
<text text-anchor="middle" x="977.191" y="-155.3" font-family="Times New Roman,serif" font-size="14.00">vsum#3</text>
</a>
</g>
</g>
<!-- http://example.org/vsum#3&#45;&gt;http://example.org/sum#3 -->
<g id="edge5" class="edge"><title>http://example.org/vsum#3&#45;&gt;http://example.org/sum#3</title>
<path fill="none" stroke="darkgreen" d="M938.244,-155.047C884.897,-149.49 787.974,-139.394 731.75,-133.537"/>
<polygon fill="darkgreen" stroke="darkgreen" points="732.054,-130.05 721.745,-132.495 731.329,-137.013 732.054,-130.05"/>
<text text-anchor="middle" x="822.691" y="-169.8" font-family="Times New Roman,serif" font-size="14.00">def by</text>
<text text-anchor="middle" x="822.691" y="-154.8" font-family="Times New Roman,serif" font-size="14.00">2018&#45;06&#45;10T17:26:44.593147</text>
</g>
<!-- http://example.org/2&#45;attrs -->
<g id="node10" class="node"><title>http://example.org/2&#45;attrs</title>
<polygon fill="none" stroke="gray" points="313,-246.5 253,-246.5 253,-197.5 319,-197.5 319,-240.5 313,-246.5"/>
<polyline fill="none" stroke="gray" points="313,-246.5 313,-240.5 "/>
<polyline fill="none" stroke="gray" points="319,-240.5 313,-240.5 "/>
<text text-anchor="start" x="263" y="-232" font-family="Times New Roman,serif" font-size="10.00">type:</text>
<text text-anchor="start" x="287" y="-232" font-family="Times New Roman,serif" font-size="10.00">literal</text>
<text text-anchor="start" x="263" y="-219" font-family="Times New Roman,serif" font-size="10.00">label:</text>
<text text-anchor="start" x="287" y="-219" font-family="Times New Roman,serif" font-size="10.00">2</text>
<text text-anchor="start" x="263" y="-206" font-family="Times New Roman,serif" font-size="10.00">line:</text>
<text text-anchor="start" x="287" y="-206" font-family="Times New Roman,serif" font-size="10.00">4</text>
</g>
<!-- http://example.org/2&#45;attrs&#45;&gt;http://example.org/2 -->
<g id="edge8" class="edge"><title>http://example.org/2&#45;attrs&#45;&gt;http://example.org/2</title>
<path fill="none" stroke="gray" stroke-dasharray="5,2" d="M252.782,-220.041C210.978,-217.291 135.833,-211.632 72,-203 65.8447,-202.168 59.2396,-201.074 53.0669,-199.964"/>
</g>
<!-- http://example.org/v2&#45;attrs -->
<g id="node11" class="node"><title>http://example.org/v2&#45;attrs</title>
<polygon fill="none" stroke="gray" points="587.096,-151 539.096,-151 539.096,-115 593.096,-115 593.096,-145 587.096,-151"/>
<polyline fill="none" stroke="gray" points="587.096,-151 587.096,-145 "/>
<polyline fill="none" stroke="gray" points="593.096,-145 587.096,-145 "/>
<text text-anchor="start" x="553.096" y="-130" font-family="Times New Roman,serif" font-size="10.00">repr:</text>
<text text-anchor="start" x="574.096" y="-130" font-family="Times New Roman,serif" font-size="10.00">2</text>
</g>
<!-- http://example.org/v2&#45;attrs&#45;&gt;http://example.org/v2 -->
<g id="edge9" class="edge"><title>http://example.org/v2&#45;attrs&#45;&gt;http://example.org/v2</title>
<path fill="none" stroke="gray" stroke-dasharray="5,2" d="M538.933,-135.634C485.795,-140.984 365.799,-153.066 312.89,-158.393"/>
</g>
<!-- http://example.org/sum#3&#45;attrs -->
<g id="node12" class="node"><title>http://example.org/sum#3&#45;attrs</title>
<polygon fill="none" stroke="gray" points="1026.19,-122.5 922.191,-122.5 922.191,-73.5 1032.19,-73.5 1032.19,-116.5 1026.19,-122.5"/>
<polyline fill="none" stroke="gray" points="1026.19,-122.5 1026.19,-116.5 "/>
<polyline fill="none" stroke="gray" points="1032.19,-116.5 1026.19,-116.5 "/>
<text text-anchor="start" x="932.191" y="-108" font-family="Times New Roman,serif" font-size="10.00">type:</text>
<text text-anchor="start" x="956.191" y="-108" font-family="Times New Roman,serif" font-size="10.00">operation</text>
<text text-anchor="start" x="932.191" y="-95" font-family="Times New Roman,serif" font-size="10.00">label:</text>
<text text-anchor="start" x="956.191" y="-95" font-family="Times New Roman,serif" font-size="10.00">disti[k] + distk[j]</text>
<text text-anchor="start" x="932.191" y="-82" font-family="Times New Roman,serif" font-size="10.00">line:</text>
<text text-anchor="start" x="956.191" y="-82" font-family="Times New Roman,serif" font-size="10.00">15</text>
</g>
<!-- http://example.org/sum#3&#45;attrs&#45;&gt;http://example.org/sum#3 -->
<g id="edge10" class="edge"><title>http://example.org/sum#3&#45;attrs&#45;&gt;http://example.org/sum#3</title>
<path fill="none" stroke="gray" stroke-dasharray="5,2" d="M922.021,-103.831C863.199,-110.162 771.08,-120.078 721.861,-125.376"/>
</g>
<!-- http://example.org/1&#45;attrs -->
<g id="node14" class="node"><title>http://example.org/1&#45;attrs</title>
<polygon fill="none" stroke="gray" points="313,-117.5 253,-117.5 253,-68.5 319,-68.5 319,-111.5 313,-117.5"/>
<polyline fill="none" stroke="gray" points="313,-117.5 313,-111.5 "/>
<polyline fill="none" stroke="gray" points="319,-111.5 313,-111.5 "/>
<text text-anchor="start" x="263" y="-103" font-family="Times New Roman,serif" font-size="10.00">type:</text>
<text text-anchor="start" x="287" y="-103" font-family="Times New Roman,serif" font-size="10.00">literal</text>
<text text-anchor="start" x="263" y="-90" font-family="Times New Roman,serif" font-size="10.00">label:</text>
<text text-anchor="start" x="287" y="-90" font-family="Times New Roman,serif" font-size="10.00">1</text>
<text text-anchor="start" x="263" y="-77" font-family="Times New Roman,serif" font-size="10.00">line:</text>
<text text-anchor="start" x="287" y="-77" font-family="Times New Roman,serif" font-size="10.00">3</text>
</g>
<!-- http://example.org/1&#45;attrs&#45;&gt;http://example.org/1 -->
<g id="edge12" class="edge"><title>http://example.org/1&#45;attrs&#45;&gt;http://example.org/1</title>
<path fill="none" stroke="gray" stroke-dasharray="5,2" d="M252.811,-90.8217C211.037,-87.836 135.924,-81.9264 72,-74 66.0126,-73.2576 59.589,-72.3177 53.551,-71.3697"/>
</g>
<!-- http://example.org/disti@k#3&#45;attrs -->
<g id="node15" class="node"><title>http://example.org/disti@k#3&#45;attrs</title>
<polygon fill="none" stroke="gray" points="717.191,-92.5 651.191,-92.5 651.191,-43.5 723.191,-43.5 723.191,-86.5 717.191,-92.5"/>
<polyline fill="none" stroke="gray" points="717.191,-92.5 717.191,-86.5 "/>
<polyline fill="none" stroke="gray" points="723.191,-86.5 717.191,-86.5 "/>
<text text-anchor="start" x="661.191" y="-78" font-family="Times New Roman,serif" font-size="10.00">type:</text>
<text text-anchor="start" x="685.191" y="-78" font-family="Times New Roman,serif" font-size="10.00">access</text>
<text text-anchor="start" x="661.191" y="-65" font-family="Times New Roman,serif" font-size="10.00">label:</text>
<text text-anchor="start" x="685.191" y="-65" font-family="Times New Roman,serif" font-size="10.00">disti[k]</text>
<text text-anchor="start" x="661.191" y="-52" font-family="Times New Roman,serif" font-size="10.00">line:</text>
<text text-anchor="start" x="685.191" y="-52" font-family="Times New Roman,serif" font-size="10.00">15</text>
</g>
<!-- http://example.org/disti@k#3&#45;attrs&#45;&gt;http://example.org/disti@k#3 -->
<g id="edge13" class="edge"><title>http://example.org/disti@k#3&#45;attrs&#45;&gt;http://example.org/disti@k#3</title>
<path fill="none" stroke="gray" stroke-dasharray="5,2" d="M651.103,-69.1785C639.576,-69.5657 626.569,-70.0025 614.294,-70.4148"/>
</g>
<!-- http://example.org/result@0@2 -->
<g id="node16" class="node"><title>http://example.org/result@0@2</title>
<g id="a_node16"><a xlink:href="http://example.org/result@0@2" xlink:title="result@0@2">
<ellipse fill="#fffc87" stroke="#808080" cx="1287.09" cy="-197" rx="55.7903" ry="18"/>
<text text-anchor="middle" x="1287.09" y="-193.3" font-family="Times New Roman,serif" font-size="14.00">result@0@2</text>
</a>
</g>
</g>
<!-- http://example.org/result@0@2&#45;&gt;http://example.org/vsum#3 -->
<g id="edge14" class="edge"><title>http://example.org/result@0@2&#45;&gt;http://example.org/vsum#3</title>
<path fill="none" stroke="darkgreen" d="M1234.55,-190.64C1176.37,-183.459 1082.48,-171.871 1025.92,-164.89"/>
<polygon fill="darkgreen" stroke="darkgreen" points="1026.16,-161.394 1015.81,-163.642 1025.3,-168.341 1026.16,-161.394"/>
<text text-anchor="middle" x="1131.69" y="-220.8" font-family="Times New Roman,serif" font-size="14.00">part</text>
<text text-anchor="middle" x="1131.69" y="-205.8" font-family="Times New Roman,serif" font-size="14.00">row0[2]</text>
<text text-anchor="middle" x="1131.69" y="-190.8" font-family="Times New Roman,serif" font-size="14.00">2018&#45;06&#45;10T17:26:48.565712</text>
</g>
<!-- http://example.org/result@0@2&#45;attrs -->
<g id="node17" class="node"><title>http://example.org/result@0@2&#45;attrs</title>
<polygon fill="none" stroke="gray" points="1461.98,-221.5 1379.98,-221.5 1379.98,-172.5 1467.98,-172.5 1467.98,-215.5 1461.98,-221.5"/>
<polyline fill="none" stroke="gray" points="1461.98,-221.5 1461.98,-215.5 "/>
<polyline fill="none" stroke="gray" points="1467.98,-215.5 1461.98,-215.5 "/>
<text text-anchor="start" x="1389.98" y="-207" font-family="Times New Roman,serif" font-size="10.00">type:</text>
<text text-anchor="start" x="1413.98" y="-207" font-family="Times New Roman,serif" font-size="10.00">access</text>
<text text-anchor="start" x="1389.98" y="-194" font-family="Times New Roman,serif" font-size="10.00">label:</text>
<text text-anchor="start" x="1413.98" y="-194" font-family="Times New Roman,serif" font-size="10.00">result[0][2]</text>
<text text-anchor="start" x="1389.98" y="-181" font-family="Times New Roman,serif" font-size="10.00">line:</text>
<text text-anchor="start" x="1413.98" y="-181" font-family="Times New Roman,serif" font-size="10.00">18</text>
</g>
<!-- http://example.org/result@0@2&#45;attrs&#45;&gt;http://example.org/result@0@2 -->
<g id="edge15" class="edge"><title>http://example.org/result@0@2&#45;attrs&#45;&gt;http://example.org/result@0@2</title>
<path fill="none" stroke="gray" stroke-dasharray="5,2" d="M1379.93,-197C1368.21,-197 1355.35,-197 1343.07,-197"/>
</g>
<!-- http://example.org/vsum#3&#45;attrs -->
<g id="node18" class="node"><title>http://example.org/vsum#3&#45;attrs</title>
<polygon fill="none" stroke="gray" points="1308.09,-161 1260.09,-161 1260.09,-125 1314.09,-125 1314.09,-155 1308.09,-161"/>
<polyline fill="none" stroke="gray" points="1308.09,-161 1308.09,-155 "/>
<polyline fill="none" stroke="gray" points="1314.09,-155 1308.09,-155 "/>
<text text-anchor="start" x="1274.09" y="-140" font-family="Times New Roman,serif" font-size="10.00">repr:</text>
<text text-anchor="start" x="1295.09" y="-140" font-family="Times New Roman,serif" font-size="10.00">3</text>
</g>
<!-- http://example.org/vsum#3&#45;attrs&#45;&gt;http://example.org/vsum#3 -->
<g id="edge17" class="edge"><title>http://example.org/vsum#3&#45;attrs&#45;&gt;http://example.org/vsum#3</title>
<path fill="none" stroke="gray" stroke-dasharray="5,2" d="M1259.84,-144.364C1205.45,-147.191 1080.24,-153.697 1016.69,-156.999"/>
</g>
</g>
</svg>
