<?xml version="1.0" encoding="UTF-8" standalone="no"?>
<!DOCTYPE svg PUBLIC "-//W3C//DTD SVG 1.1//EN"
 "http://www.w3.org/Graphics/SVG/1.1/DTD/svg11.dtd">
<!-- Generated by graphviz version 2.38.0 (20140413.2041)
 -->
<!-- Title: PROV Pages: 1 -->
<svg width="459pt" height="371pt"
 viewBox="0.00 0.00 458.59 371.00" xmlns="http://www.w3.org/2000/svg" xmlns:xlink="http://www.w3.org/1999/xlink">
<g id="graph0" class="graph" transform="scale(1 1) rotate(0) translate(4 367)">
<title>PROV</title>
<polygon fill="white" stroke="none" points="-4,4 -4,-367 454.59,-367 454.59,4 -4,4"/>
<!-- http://example.org/d -->
<g id="node1" class="node"><title>http://example.org/d</title>
<g id="a_node1"><a xlink:href="http://example.org/d" xlink:title="d">
<ellipse fill="#fffc87" stroke="#808080" cx="335.59" cy="-266.5" rx="27" ry="18"/>
<text text-anchor="middle" x="335.59" y="-262.8" font-family="Times New Roman,serif" font-size="14.00">d</text>
</a>
</g>
</g>
<!-- http://example.org/list0 -->
<g id="node3" class="node"><title>http://example.org/list0</title>
<g id="a_node3"><a xlink:href="http://example.org/list0" xlink:title="list0">
<ellipse fill="#fffc87" stroke="#808080" cx="124.59" cy="-345" rx="27" ry="18"/>
<text text-anchor="middle" x="124.59" y="-341.3" font-family="Times New Roman,serif" font-size="14.00">list0</text>
</a>
</g>
</g>
<!-- http://example.org/d&#45;&gt;http://example.org/list0 -->
<g id="edge5" class="edge"><title>http://example.org/d&#45;&gt;http://example.org/list0</title>
<path fill="none" stroke="black" d="M317.859,-280.504C312.214,-284.248 305.814,-288.099 299.59,-291 253.37,-312.546 196.247,-327.921 160.105,-336.386"/>
<polygon fill="black" stroke="black" points="159.012,-333.045 150.046,-338.69 160.575,-339.868 159.012,-333.045"/>
</g>
<!-- http://example.org/list1 -->
<g id="node5" class="node"><title>http://example.org/list1</title>
<g id="a_node5"><a xlink:href="http://example.org/list1" xlink:title="list1">
<ellipse fill="#fffc87" stroke="#808080" cx="279.59" cy="-345" rx="27" ry="18"/>
<text text-anchor="middle" x="279.59" y="-341.3" font-family="Times New Roman,serif" font-size="14.00">list1</text>
</a>
</g>
</g>
<!-- http://example.org/d&#45;&gt;http://example.org/list1 -->
<g id="edge6" class="edge"><title>http://example.org/d&#45;&gt;http://example.org/list1</title>
<path fill="none" stroke="black" d="M324.258,-282.981C316.44,-293.661 305.896,-308.065 297.015,-320.196"/>
<polygon fill="black" stroke="black" points="293.988,-318.406 290.906,-328.542 299.637,-322.54 293.988,-318.406"/>
</g>
<!-- http://example.org/list2 -->
<g id="node7" class="node"><title>http://example.org/list2</title>
<g id="a_node7"><a xlink:href="http://example.org/list2" xlink:title="list2">
<ellipse fill="#fffc87" stroke="#808080" cx="375.59" cy="-345" rx="27" ry="18"/>
<text text-anchor="middle" x="375.59" y="-341.3" font-family="Times New Roman,serif" font-size="14.00">list2</text>
</a>
</g>
</g>
<!-- http://example.org/d&#45;&gt;http://example.org/list2 -->
<g id="edge7" class="edge"><title>http://example.org/d&#45;&gt;http://example.org/list2</title>
<path fill="none" stroke="black" d="M344.073,-283.724C349.376,-293.866 356.319,-307.143 362.337,-318.654"/>
<polygon fill="black" stroke="black" points="359.384,-320.56 367.119,-327.8 365.587,-317.316 359.384,-320.56"/>
</g>
<!-- http://example.org/d&#45;attrs -->
<g id="node2" class="node"><title>http://example.org/d&#45;attrs</title>
<polygon fill="none" stroke="gray" points="394.59,-206 270.59,-206 270.59,-157 400.59,-157 400.59,-200 394.59,-206"/>
<polyline fill="none" stroke="gray" points="394.59,-206 394.59,-200 "/>
<polyline fill="none" stroke="gray" points="400.59,-200 394.59,-200 "/>
<text text-anchor="start" x="280.59" y="-191.5" font-family="Times New Roman,serif" font-size="10.00">value:</text>
<text text-anchor="start" x="307.59" y="-191.5" font-family="Times New Roman,serif" font-size="10.00">[10000, 10001, 10000]</text>
<text text-anchor="start" x="280.59" y="-178.5" font-family="Times New Roman,serif" font-size="10.00">type:</text>
<text text-anchor="start" x="307.59" y="-178.5" font-family="Times New Roman,serif" font-size="10.00">name</text>
<text text-anchor="start" x="280.59" y="-165.5" font-family="Times New Roman,serif" font-size="10.00">label:</text>
<text text-anchor="start" x="307.59" y="-165.5" font-family="Times New Roman,serif" font-size="10.00">d</text>
</g>
<!-- http://example.org/d&#45;attrs&#45;&gt;http://example.org/d -->
<g id="edge1" class="edge"><title>http://example.org/d&#45;attrs&#45;&gt;http://example.org/d</title>
<path fill="none" stroke="gray" stroke-dasharray="5,2" d="M335.59,-206.062C335.59,-219.578 335.59,-236.236 335.59,-248.475"/>
</g>
<!-- http://example.org/list0&#45;attrs -->
<g id="node4" class="node"><title>http://example.org/list0&#45;attrs</title>
<polygon fill="none" stroke="gray" points="86.5902,-291 22.5902,-291 22.5902,-242 92.5902,-242 92.5902,-285 86.5902,-291"/>
<polyline fill="none" stroke="gray" points="86.5902,-291 86.5902,-285 "/>
<polyline fill="none" stroke="gray" points="92.5902,-285 86.5902,-285 "/>
<text text-anchor="start" x="32.5902" y="-276.5" font-family="Times New Roman,serif" font-size="10.00">value:</text>
<text text-anchor="start" x="59.5902" y="-276.5" font-family="Times New Roman,serif" font-size="10.00">10000</text>
<text text-anchor="start" x="32.5902" y="-263.5" font-family="Times New Roman,serif" font-size="10.00">type:</text>
<text text-anchor="start" x="59.5902" y="-263.5" font-family="Times New Roman,serif" font-size="10.00">item</text>
<text text-anchor="start" x="32.5902" y="-250.5" font-family="Times New Roman,serif" font-size="10.00">label:</text>
<text text-anchor="start" x="59.5902" y="-250.5" font-family="Times New Roman,serif" font-size="10.00">m</text>
</g>
<!-- http://example.org/list0&#45;attrs&#45;&gt;http://example.org/list0 -->
<g id="edge2" class="edge"><title>http://example.org/list0&#45;attrs&#45;&gt;http://example.org/list0</title>
<path fill="none" stroke="gray" stroke-dasharray="5,2" d="M78.4222,-291.286C89.1781,-303.567 101.977,-318.181 111.368,-328.903"/>
</g>
<!-- http://example.org/list1&#45;attrs -->
<g id="node6" class="node"><title>http://example.org/list1&#45;attrs</title>
<polygon fill="none" stroke="gray" points="284.59,-291 220.59,-291 220.59,-242 290.59,-242 290.59,-285 284.59,-291"/>
<polyline fill="none" stroke="gray" points="284.59,-291 284.59,-285 "/>
<polyline fill="none" stroke="gray" points="290.59,-285 284.59,-285 "/>
<text text-anchor="start" x="230.59" y="-276.5" font-family="Times New Roman,serif" font-size="10.00">value:</text>
<text text-anchor="start" x="257.59" y="-276.5" font-family="Times New Roman,serif" font-size="10.00">10001</text>
<text text-anchor="start" x="230.59" y="-263.5" font-family="Times New Roman,serif" font-size="10.00">type:</text>
<text text-anchor="start" x="257.59" y="-263.5" font-family="Times New Roman,serif" font-size="10.00">item</text>
<text text-anchor="start" x="230.59" y="-250.5" font-family="Times New Roman,serif" font-size="10.00">label:</text>
<text text-anchor="start" x="257.59" y="-250.5" font-family="Times New Roman,serif" font-size="10.00">m + 1</text>
</g>
<!-- http://example.org/list1&#45;attrs&#45;&gt;http://example.org/list1 -->
<g id="edge3" class="edge"><title>http://example.org/list1&#45;attrs&#45;&gt;http://example.org/list1</title>
<path fill="none" stroke="gray" stroke-dasharray="5,2" d="M263.052,-291.286C266.685,-302.865 270.968,-316.518 274.266,-327.028"/>
</g>
<!-- http://example.org/list2&#45;attrs -->
<g id="node8" class="node"><title>http://example.org/list2&#45;attrs</title>
<polygon fill="none" stroke="gray" points="444.59,-291 380.59,-291 380.59,-242 450.59,-242 450.59,-285 444.59,-291"/>
<polyline fill="none" stroke="gray" points="444.59,-291 444.59,-285 "/>
<polyline fill="none" stroke="gray" points="450.59,-285 444.59,-285 "/>
<text text-anchor="start" x="390.59" y="-276.5" font-family="Times New Roman,serif" font-size="10.00">value:</text>
<text text-anchor="start" x="417.59" y="-276.5" font-family="Times New Roman,serif" font-size="10.00">10000</text>
<text text-anchor="start" x="390.59" y="-263.5" font-family="Times New Roman,serif" font-size="10.00">type:</text>
<text text-anchor="start" x="417.59" y="-263.5" font-family="Times New Roman,serif" font-size="10.00">item</text>
<text text-anchor="start" x="390.59" y="-250.5" font-family="Times New Roman,serif" font-size="10.00">label:</text>
<text text-anchor="start" x="417.59" y="-250.5" font-family="Times New Roman,serif" font-size="10.00">m</text>
</g>
<!-- http://example.org/list2&#45;attrs&#45;&gt;http://example.org/list2 -->
<g id="edge4" class="edge"><title>http://example.org/list2&#45;attrs&#45;&gt;http://example.org/list2</title>
<path fill="none" stroke="gray" stroke-dasharray="5,2" d="M403.153,-291.286C397.007,-303.04 389.743,-316.932 384.216,-327.504"/>
</g>
<!-- http://example.org/0 -->
<g id="node9" class="node"><title>http://example.org/0</title>
<g id="a_node9"><a xlink:href="http://example.org/0" xlink:title="0">
<ellipse fill="#fffc87" stroke="#808080" cx="137.59" cy="-266.5" rx="27" ry="18"/>
<text text-anchor="middle" x="137.59" y="-262.8" font-family="Times New Roman,serif" font-size="14.00">0</text>
</a>
</g>
</g>
<!-- http://example.org/0&#45;attrs -->
<g id="node10" class="node"><title>http://example.org/0&#45;attrs</title>
<polygon fill="none" stroke="gray" points="138.09,-199.5 75.0902,-199.5 75.0902,-163.5 144.09,-163.5 144.09,-193.5 138.09,-199.5"/>
<polyline fill="none" stroke="gray" points="138.09,-199.5 138.09,-193.5 "/>
<polyline fill="none" stroke="gray" points="144.09,-193.5 138.09,-193.5 "/>
<text text-anchor="start" x="85.5902" y="-185.5" font-family="Times New Roman,serif" font-size="10.00">value:</text>
<text text-anchor="start" x="112.59" y="-185.5" font-family="Times New Roman,serif" font-size="10.00">0</text>
<text text-anchor="start" x="85.5902" y="-172.5" font-family="Times New Roman,serif" font-size="10.00">type:</text>
<text text-anchor="start" x="112.59" y="-172.5" font-family="Times New Roman,serif" font-size="10.00">literal</text>
</g>
<!-- http://example.org/0&#45;attrs&#45;&gt;http://example.org/0 -->
<g id="edge8" class="edge"><title>http://example.org/0&#45;attrs&#45;&gt;http://example.org/0</title>
<path fill="none" stroke="gray" stroke-dasharray="5,2" d="M115.392,-199.698C120.261,-214.132 127.174,-234.624 131.987,-248.891"/>
</g>
<!-- http://example.org/d@0 -->
<g id="node11" class="node"><title>http://example.org/d@0</title>
<g id="a_node11"><a xlink:href="http://example.org/d@0" xlink:title="d@0">
<ellipse fill="#fffc87" stroke="#808080" cx="52.5902" cy="-103" rx="28.6953" ry="18"/>
<text text-anchor="middle" x="52.5902" y="-99.3" font-family="Times New Roman,serif" font-size="14.00">d@0</text>
</a>
</g>
</g>
<!-- http://example.org/d@0&#45;&gt;http://example.org/list0 -->
<g id="edge13" class="edge"><title>http://example.org/d@0&#45;&gt;http://example.org/list0</title>
<path fill="none" stroke="black" d="M42.0976,-119.894C21.0481,-153.968 -21.4379,-235.459 13.5902,-291 29.9825,-316.992 63.0181,-330.51 88.8071,-337.364"/>
<polygon fill="black" stroke="black" points="88.0942,-340.793 98.6381,-339.755 89.7485,-333.991 88.0942,-340.793"/>
<text text-anchor="middle" x="49.4481" y="-131.07" font-family="Times New Roman,serif" font-size="8.00">der</text>
</g>
<!-- http://example.org/access1 -->
<g id="node13" class="node"><title>http://example.org/access1</title>
<g id="a_node13"><a xlink:href="http://example.org/access1" xlink:title="access1">
<polygon fill="#9fb1fc" stroke="#0000ff" points="223.09,-199.5 162.09,-199.5 162.09,-163.5 223.09,-163.5 223.09,-199.5"/>
<text text-anchor="middle" x="192.59" y="-177.8" font-family="Times New Roman,serif" font-size="14.00">access1</text>
</a>
</g>
</g>
<!-- http://example.org/d@0&#45;&gt;http://example.org/access1 -->
<g id="edge15" class="edge"><title>http://example.org/d@0&#45;&gt;http://example.org/access1</title>
<path fill="none" stroke="black" d="M74.1948,-115.103C94.5483,-125.644 125.828,-142.056 152.59,-157 153.39,-157.447 154.198,-157.9 155.011,-158.359"/>
<polygon fill="black" stroke="black" points="153.419,-161.48 163.837,-163.405 156.893,-155.403 153.419,-161.48"/>
<text text-anchor="middle" x="86.8358" y="-105.128" font-family="Times New Roman,serif" font-size="8.00">gen</text>
</g>
<!-- http://example.org/d@0&#45;attrs -->
<g id="node12" class="node"><title>http://example.org/d@0&#45;attrs</title>
<polygon fill="none" stroke="gray" points="84.0902,-49 15.0902,-49 15.0902,-0 90.0902,-0 90.0902,-43 84.0902,-49"/>
<polyline fill="none" stroke="gray" points="84.0902,-49 84.0902,-43 "/>
<polyline fill="none" stroke="gray" points="90.0902,-43 84.0902,-43 "/>
<text text-anchor="start" x="25.5902" y="-34.5" font-family="Times New Roman,serif" font-size="10.00">value:</text>
<text text-anchor="start" x="52.5902" y="-34.5" font-family="Times New Roman,serif" font-size="10.00">10000</text>
<text text-anchor="start" x="25.5902" y="-21.5" font-family="Times New Roman,serif" font-size="10.00">type:</text>
<text text-anchor="start" x="52.5902" y="-21.5" font-family="Times New Roman,serif" font-size="10.00">access</text>
<text text-anchor="start" x="25.5902" y="-8.5" font-family="Times New Roman,serif" font-size="10.00">label:</text>
<text text-anchor="start" x="52.5902" y="-8.5" font-family="Times New Roman,serif" font-size="10.00">d[0]</text>
</g>
<!-- http://example.org/d@0&#45;attrs&#45;&gt;http://example.org/d@0 -->
<g id="edge9" class="edge"><title>http://example.org/d@0&#45;attrs&#45;&gt;http://example.org/d@0</title>
<path fill="none" stroke="gray" stroke-dasharray="5,2" d="M52.5902,-49.2857C52.5902,-60.6896 52.5902,-74.105 52.5902,-84.5482"/>
</g>
<!-- http://example.org/access1&#45;&gt;http://example.org/d -->
<g id="edge11" class="edge"><title>http://example.org/access1&#45;&gt;http://example.org/d</title>
<path fill="none" stroke="black" d="M223.359,-198.86C244.922,-210.506 274.294,-226.736 299.59,-242 302.466,-243.735 305.443,-245.586 308.397,-247.459"/>
<polygon fill="black" stroke="black" points="306.764,-250.571 317.065,-253.049 310.558,-244.688 306.764,-250.571"/>
<text text-anchor="middle" x="236.142" y="-189.112" font-family="Times New Roman,serif" font-size="8.00">use</text>
</g>
<!-- http://example.org/access1&#45;&gt;http://example.org/list0 -->
<g id="edge14" class="edge"><title>http://example.org/access1&#45;&gt;http://example.org/list0</title>
<path fill="none" stroke="black" d="M192.536,-199.586C191.827,-221.773 188.356,-261.181 173.59,-291 167.595,-303.107 157.959,-314.417 148.812,-323.453"/>
<polygon fill="black" stroke="black" points="146.227,-321.08 141.334,-330.477 151.019,-326.182 146.227,-321.08"/>
<text text-anchor="middle" x="205.196" y="-205.732" font-family="Times New Roman,serif" font-size="8.00">use</text>
</g>
<!-- http://example.org/access1&#45;&gt;http://example.org/0 -->
<g id="edge12" class="edge"><title>http://example.org/access1&#45;&gt;http://example.org/0</title>
<path fill="none" stroke="black" d="M181.194,-199.698C173.269,-211.657 162.589,-227.775 153.782,-241.065"/>
<polygon fill="black" stroke="black" points="150.648,-239.459 148.041,-249.728 156.483,-243.326 150.648,-239.459"/>
<text text-anchor="middle" x="187.88" y="-211.225" font-family="Times New Roman,serif" font-size="8.00">use</text>
</g>
<!-- http://example.org/access1&#45;attrs -->
<g id="node14" class="node"><title>http://example.org/access1&#45;attrs</title>
<polygon fill="none" stroke="gray" points="222.09,-121 157.09,-121 157.09,-85 228.09,-85 228.09,-115 222.09,-121"/>
<polyline fill="none" stroke="gray" points="222.09,-121 222.09,-115 "/>
<polyline fill="none" stroke="gray" points="228.09,-115 222.09,-115 "/>
<text text-anchor="start" x="167.59" y="-100" font-family="Times New Roman,serif" font-size="10.00">type:</text>
<text text-anchor="start" x="190.59" y="-100" font-family="Times New Roman,serif" font-size="10.00">access</text>
</g>
<!-- http://example.org/access1&#45;attrs&#45;&gt;http://example.org/access1 -->
<g id="edge10" class="edge"><title>http://example.org/access1&#45;attrs&#45;&gt;http://example.org/access1</title>
<path fill="none" stroke="gray" stroke-dasharray="5,2" d="M192.59,-121.359C192.59,-133.967 192.59,-150.943 192.59,-163.473"/>
</g>
</g>
</svg>
