<?xml version="1.0" encoding="UTF-8" standalone="no"?>
<!DOCTYPE svg PUBLIC "-//W3C//DTD SVG 1.1//EN"
 "http://www.w3.org/Graphics/SVG/1.1/DTD/svg11.dtd">
<!-- Generated by graphviz version 2.38.0 (20140413.2041)
 -->
<!-- Title: PROV Pages: 1 -->
<svg width="292pt" height="286pt"
 viewBox="0.00 0.00 292.45 286.00" xmlns="http://www.w3.org/2000/svg" xmlns:xlink="http://www.w3.org/1999/xlink">
<g id="graph0" class="graph" transform="scale(1 1) rotate(0) translate(4 282)">
<title>PROV</title>
<polygon fill="white" stroke="none" points="-4,4 -4,-282 288.453,-282 288.453,4 -4,4"/>
<!-- http://example.org/m -->
<g id="node1" class="node"><title>http://example.org/m</title>
<g id="a_node1"><a xlink:href="http://example.org/m" xlink:title="m">
<ellipse fill="#fffc87" stroke="#808080" cx="51.9526" cy="-260" rx="27" ry="18"/>
<text text-anchor="middle" x="51.9526" y="-256.3" font-family="Times New Roman,serif" font-size="14.00">m</text>
</a>
</g>
</g>
<!-- &#45;attrs0 -->
<g id="node2" class="node"><title>&#45;attrs0</title>
<polygon fill="none" stroke="gray" points="80.9526,-206 16.9526,-206 16.9526,-157 86.9526,-157 86.9526,-200 80.9526,-206"/>
<polyline fill="none" stroke="gray" points="80.9526,-206 80.9526,-200 "/>
<polyline fill="none" stroke="gray" points="86.9526,-200 80.9526,-200 "/>
<text text-anchor="start" x="26.9526" y="-191.5" font-family="Times New Roman,serif" font-size="10.00">value:</text>
<text text-anchor="start" x="53.9526" y="-191.5" font-family="Times New Roman,serif" font-size="10.00">10000</text>
<text text-anchor="start" x="26.9526" y="-178.5" font-family="Times New Roman,serif" font-size="10.00">type:</text>
<text text-anchor="start" x="53.9526" y="-178.5" font-family="Times New Roman,serif" font-size="10.00">name</text>
<text text-anchor="start" x="26.9526" y="-165.5" font-family="Times New Roman,serif" font-size="10.00">label:</text>
<text text-anchor="start" x="53.9526" y="-165.5" font-family="Times New Roman,serif" font-size="10.00">m</text>
</g>
<!-- &#45;attrs0&#45;&gt;http://example.org/m -->
<g id="edge1" class="edge"><title>&#45;attrs0&#45;&gt;http://example.org/m</title>
<path fill="none" stroke="gray" stroke-dasharray="5,2" d="M51.9526,-206.286C51.9526,-217.69 51.9526,-231.105 51.9526,-241.548"/>
</g>
<!-- http://example.org/1 -->
<g id="node3" class="node"><title>http://example.org/1</title>
<g id="a_node3"><a xlink:href="http://example.org/1" xlink:title="1">
<ellipse fill="#fffc87" stroke="#808080" cx="186.953" cy="-260" rx="27" ry="18"/>
<text text-anchor="middle" x="186.953" y="-256.3" font-family="Times New Roman,serif" font-size="14.00">1</text>
</a>
</g>
</g>
<!-- &#45;attrs1 -->
<g id="node4" class="node"><title>&#45;attrs1</title>
<polygon fill="none" stroke="gray" points="278.453,-199.5 215.453,-199.5 215.453,-163.5 284.453,-163.5 284.453,-193.5 278.453,-199.5"/>
<polyline fill="none" stroke="gray" points="278.453,-199.5 278.453,-193.5 "/>
<polyline fill="none" stroke="gray" points="284.453,-193.5 278.453,-193.5 "/>
<text text-anchor="start" x="225.953" y="-185.5" font-family="Times New Roman,serif" font-size="10.00">value:</text>
<text text-anchor="start" x="252.953" y="-185.5" font-family="Times New Roman,serif" font-size="10.00">1</text>
<text text-anchor="start" x="225.953" y="-172.5" font-family="Times New Roman,serif" font-size="10.00">type:</text>
<text text-anchor="start" x="252.953" y="-172.5" font-family="Times New Roman,serif" font-size="10.00">literal</text>
</g>
<!-- &#45;attrs1&#45;&gt;http://example.org/1 -->
<g id="edge2" class="edge"><title>&#45;attrs1&#45;&gt;http://example.org/1</title>
<path fill="none" stroke="gray" stroke-dasharray="5,2" d="M235.657,-199.859C224.766,-213.084 209.916,-231.115 199.486,-243.78"/>
</g>
<!-- http://example.org/sum -->
<g id="node5" class="node"><title>http://example.org/sum</title>
<g id="a_node5"><a xlink:href="http://example.org/sum" xlink:title="sum">
<ellipse fill="#fffc87" stroke="#808080" cx="158.953" cy="-103" rx="27" ry="18"/>
<text text-anchor="middle" x="158.953" y="-99.3" font-family="Times New Roman,serif" font-size="14.00">sum</text>
</a>
</g>
</g>
<!-- http://example.org/sum&#45;&gt;http://example.org/m -->
<g id="edge5" class="edge"><title>http://example.org/sum&#45;&gt;http://example.org/m</title>
<path fill="none" stroke="black" d="M137.845,-114.561C133.006,-116.815 127.846,-119.089 122.953,-121 73.0643,-140.481 39.6656,-113.842 7.95259,-157 -4.94284,-174.549 0.557913,-185.516 7.95259,-206 12.2239,-217.832 20.4137,-228.889 28.5807,-237.81"/>
<polygon fill="black" stroke="black" points="26.1664,-240.347 35.6528,-245.065 31.1792,-235.461 26.1664,-240.347"/>
<text text-anchor="middle" x="136.498" y="-127.6" font-family="Times New Roman,serif" font-size="8.00">der</text>
</g>
<!-- http://example.org/sum&#45;&gt;http://example.org/1 -->
<g id="edge6" class="edge"><title>http://example.org/sum&#45;&gt;http://example.org/1</title>
<path fill="none" stroke="black" d="M162.056,-121.18C166.892,-147.948 176.266,-199.842 182.03,-231.752"/>
<polygon fill="black" stroke="black" points="178.613,-232.525 183.835,-241.743 185.502,-231.28 178.613,-232.525"/>
<text text-anchor="middle" x="176.173" y="-124.351" font-family="Times New Roman,serif" font-size="8.00">der</text>
</g>
<!-- http://example.org/+ -->
<g id="node7" class="node"><title>http://example.org/+</title>
<g id="a_node7"><a xlink:href="http://example.org/+" xlink:title="+">
<polygon fill="#9fb1fc" stroke="#0000ff" points="158.953,-199.5 104.953,-199.5 104.953,-163.5 158.953,-163.5 158.953,-199.5"/>
<text text-anchor="middle" x="131.953" y="-177.8" font-family="Times New Roman,serif" font-size="14.00">+</text>
</a>
</g>
</g>
<!-- http://example.org/sum&#45;&gt;http://example.org/+ -->
<g id="edge9" class="edge"><title>http://example.org/sum&#45;&gt;http://example.org/+</title>
<path fill="none" stroke="black" d="M153.094,-120.599C149.674,-130.289 145.279,-142.743 141.382,-153.782"/>
<polygon fill="black" stroke="black" points="138.015,-152.809 137.987,-163.403 144.615,-155.138 138.015,-152.809"/>
<text text-anchor="middle" x="162.848" y="-130.095" font-family="Times New Roman,serif" font-size="8.00">gen</text>
</g>
<!-- &#45;attrs2 -->
<g id="node6" class="node"><title>&#45;attrs2</title>
<polygon fill="none" stroke="gray" points="187.953,-49 123.953,-49 123.953,-0 193.953,-0 193.953,-43 187.953,-49"/>
<polyline fill="none" stroke="gray" points="187.953,-49 187.953,-43 "/>
<polyline fill="none" stroke="gray" points="193.953,-43 187.953,-43 "/>
<text text-anchor="start" x="133.953" y="-34.5" font-family="Times New Roman,serif" font-size="10.00">value:</text>
<text text-anchor="start" x="160.953" y="-34.5" font-family="Times New Roman,serif" font-size="10.00">10001</text>
<text text-anchor="start" x="133.953" y="-21.5" font-family="Times New Roman,serif" font-size="10.00">type:</text>
<text text-anchor="start" x="160.953" y="-21.5" font-family="Times New Roman,serif" font-size="10.00">sum</text>
<text text-anchor="start" x="133.953" y="-8.5" font-family="Times New Roman,serif" font-size="10.00">label:</text>
<text text-anchor="start" x="160.953" y="-8.5" font-family="Times New Roman,serif" font-size="10.00">m + 1</text>
</g>
<!-- &#45;attrs2&#45;&gt;http://example.org/sum -->
<g id="edge3" class="edge"><title>&#45;attrs2&#45;&gt;http://example.org/sum</title>
<path fill="none" stroke="gray" stroke-dasharray="5,2" d="M158.953,-49.2857C158.953,-60.6896 158.953,-74.105 158.953,-84.5482"/>
</g>
<!-- http://example.org/+&#45;&gt;http://example.org/m -->
<g id="edge7" class="edge"><title>http://example.org/+&#45;&gt;http://example.org/m</title>
<path fill="none" stroke="black" d="M113.799,-199.859C102.041,-211.103 86.6492,-225.821 74.1623,-237.762"/>
<polygon fill="black" stroke="black" points="71.6298,-235.341 66.8213,-244.782 76.4676,-240.4 71.6298,-235.341"/>
<text text-anchor="middle" x="117.357" y="-212.531" font-family="Times New Roman,serif" font-size="8.00">use</text>
</g>
<!-- http://example.org/+&#45;&gt;http://example.org/1 -->
<g id="edge8" class="edge"><title>http://example.org/+&#45;&gt;http://example.org/1</title>
<path fill="none" stroke="black" d="M144.433,-199.859C151.959,-210.327 161.651,-223.807 169.88,-235.253"/>
<polygon fill="black" stroke="black" points="167.148,-237.45 175.828,-243.526 172.832,-233.364 167.148,-237.45"/>
<text text-anchor="middle" x="159.358" y="-196.465" font-family="Times New Roman,serif" font-size="8.00">use</text>
</g>
<!-- &#45;attrs3 -->
<g id="node8" class="node"><title>&#45;attrs3</title>
<polygon fill="none" stroke="gray" points="107.953,-121 31.9526,-121 31.9526,-85 113.953,-85 113.953,-115 107.953,-121"/>
<polyline fill="none" stroke="gray" points="107.953,-121 107.953,-115 "/>
<polyline fill="none" stroke="gray" points="113.953,-115 107.953,-115 "/>
<text text-anchor="start" x="41.9526" y="-100" font-family="Times New Roman,serif" font-size="10.00">type:</text>
<text text-anchor="start" x="64.9526" y="-100" font-family="Times New Roman,serif" font-size="10.00">operation</text>
</g>
<!-- &#45;attrs3&#45;&gt;http://example.org/+ -->
<g id="edge4" class="edge"><title>&#45;attrs3&#45;&gt;http://example.org/+</title>
<path fill="none" stroke="gray" stroke-dasharray="5,2" d="M86.3406,-121.359C96.0643,-133.967 109.157,-150.943 118.821,-163.473"/>
</g>
</g>
</svg>
