<?xml version="1.0" encoding="UTF-8" standalone="no"?>
<!DOCTYPE svg PUBLIC "-//W3C//DTD SVG 1.1//EN"
 "http://www.w3.org/Graphics/SVG/1.1/DTD/svg11.dtd">
<!-- Generated by graphviz version 2.38.0 (20140413.2041)
 -->
<!-- Title: PROV Pages: 1 -->
<svg width="278pt" height="105pt"
 viewBox="0.00 0.00 278.00 104.50" xmlns="http://www.w3.org/2000/svg" xmlns:xlink="http://www.w3.org/1999/xlink">
<g id="graph0" class="graph" transform="scale(1 1) rotate(0) translate(4 100.5)">
<title>PROV</title>
<polygon fill="white" stroke="none" points="-4,4 -4,-100.5 274,-100.5 274,4 -4,4"/>
<!-- http://example.org/3 -->
<g id="node1" class="node"><title>http://example.org/3</title>
<g id="a_node1"><a xlink:href="http://example.org/3" xlink:title="3">
<ellipse fill="#fffc87" stroke="#808080" cx="27" cy="-51.5" rx="27" ry="18"/>
<text text-anchor="middle" x="27" y="-47.8" font-family="Times New Roman,serif" font-size="14.00">3</text>
</a>
</g>
</g>
<!-- &#45;attrs0 -->
<g id="node2" class="node"><title>&#45;attrs0</title>
<polygon fill="none" stroke="gray" points="153,-96.5 90,-96.5 90,-60.5 159,-60.5 159,-90.5 153,-96.5"/>
<polyline fill="none" stroke="gray" points="153,-96.5 153,-90.5 "/>
<polyline fill="none" stroke="gray" points="159,-90.5 153,-90.5 "/>
<text text-anchor="start" x="100.5" y="-82.5" font-family="Times New Roman,serif" font-size="10.00">value:</text>
<text text-anchor="start" x="127.5" y="-82.5" font-family="Times New Roman,serif" font-size="10.00">3</text>
<text text-anchor="start" x="100.5" y="-69.5" font-family="Times New Roman,serif" font-size="10.00">type:</text>
<text text-anchor="start" x="127.5" y="-69.5" font-family="Times New Roman,serif" font-size="10.00">literal</text>
</g>
<!-- &#45;attrs0&#45;&gt;http://example.org/3 -->
<g id="edge1" class="edge"><title>&#45;attrs0&#45;&gt;http://example.org/3</title>
<path fill="none" stroke="gray" stroke-dasharray="5,2" d="M89.8303,-68.9808C77.3716,-65.4585 63.5085,-61.539 52.0717,-58.3056"/>
</g>
<!-- http://example.org/d@1 -->
<g id="node3" class="node"><title>http://example.org/d@1</title>
<g id="a_node3"><a xlink:href="http://example.org/d@1" xlink:title="d@1">
<ellipse fill="#fffc87" stroke="#808080" cx="124.5" cy="-24.5" rx="28.6953" ry="18"/>
<text text-anchor="middle" x="124.5" y="-20.8" font-family="Times New Roman,serif" font-size="14.00">d@1</text>
</a>
</g>
</g>
<!-- http://example.org/d@1&#45;&gt;http://example.org/3 -->
<g id="edge2" class="edge"><title>http://example.org/d@1&#45;&gt;http://example.org/3</title>
<path fill="none" stroke="black" d="M98.1585,-31.6646C87.0204,-34.8136 73.7787,-38.5573 61.8158,-41.9395"/>
<polygon fill="black" stroke="black" points="60.8126,-38.5859 52.1421,-44.6745 62.7171,-45.3218 60.8126,-38.5859"/>
<text text-anchor="middle" x="94.4755" y="-44.3054" font-family="Times New Roman,serif" font-size="8.00">der</text>
</g>
<!-- &#45;attrs1 -->
<g id="node4" class="node"><title>&#45;attrs1</title>
<polygon fill="none" stroke="gray" points="264,-49 195,-49 195,-0 270,-0 270,-43 264,-49"/>
<polyline fill="none" stroke="gray" points="264,-49 264,-43 "/>
<polyline fill="none" stroke="gray" points="270,-43 264,-43 "/>
<text text-anchor="start" x="205.5" y="-34.5" font-family="Times New Roman,serif" font-size="10.00">value:</text>
<text text-anchor="start" x="232.5" y="-34.5" font-family="Times New Roman,serif" font-size="10.00">3</text>
<text text-anchor="start" x="205.5" y="-21.5" font-family="Times New Roman,serif" font-size="10.00">type:</text>
<text text-anchor="start" x="232.5" y="-21.5" font-family="Times New Roman,serif" font-size="10.00">access</text>
<text text-anchor="start" x="205.5" y="-8.5" font-family="Times New Roman,serif" font-size="10.00">label:</text>
<text text-anchor="start" x="232.5" y="-8.5" font-family="Times New Roman,serif" font-size="10.00">d[1]</text>
</g>
<!-- &#45;attrs1&#45;&gt;http://example.org/d@1 -->
<g id="edge3" class="edge"><title>&#45;attrs1&#45;&gt;http://example.org/d@1</title>
<path fill="none" stroke="gray" stroke-dasharray="5,2" d="M194.724,-24.5C181.09,-24.5 165.872,-24.5 153.184,-24.5"/>
</g>
</g>
</svg>
