<?xml version="1.0" encoding="UTF-8" standalone="no"?>
<!DOCTYPE svg PUBLIC "-//W3C//DTD SVG 1.1//EN"
 "http://www.w3.org/Graphics/SVG/1.1/DTD/svg11.dtd">
<!-- Generated by graphviz version 2.38.0 (20140413.2041)
 -->
<!-- Title: PROV Pages: 1 -->
<svg width="976pt" height="296pt"
 viewBox="0.00 0.00 976.47 295.50" xmlns="http://www.w3.org/2000/svg" xmlns:xlink="http://www.w3.org/1999/xlink">
<g id="graph0" class="graph" transform="scale(1 1) rotate(0) translate(4 291.5)">
<title>PROV</title>
<polygon fill="white" stroke="none" points="-4,4 -4,-291.5 972.466,-291.5 972.466,4 -4,4"/>
<!-- http://example.org/distk@j#3 -->
<g id="node1" class="node"><title>http://example.org/distk@j#3</title>
<g id="a_node1"><a xlink:href="http://example.org/distk@j#3" xlink:title="distk@j#3">
<ellipse fill="#fffc87" stroke="#808080" cx="258.588" cy="-152" rx="48.1917" ry="18"/>
<text text-anchor="middle" x="258.588" y="-148.3" font-family="Times New Roman,serif" font-size="14.00">distk@j#3</text>
</a>
</g>
</g>
<!-- http://example.org/matrix12 -->
<g id="node2" class="node"><title>http://example.org/matrix12</title>
<g id="a_node2"><a xlink:href="http://example.org/matrix12" xlink:title="matrix12">
<ellipse fill="#fffc87" stroke="#808080" cx="132.246" cy="-202" rx="42.4939" ry="18"/>
<text text-anchor="middle" x="132.246" y="-198.3" font-family="Times New Roman,serif" font-size="14.00">matrix12</text>
</a>
</g>
</g>
<!-- http://example.org/distk@j#3&#45;&gt;http://example.org/matrix12 -->
<g id="edge1" class="edge"><title>http://example.org/distk@j#3&#45;&gt;http://example.org/matrix12</title>
<path fill="none" stroke="black" d="M225.243,-165.006C209.363,-171.392 190.081,-179.146 173.28,-185.902"/>
<polygon fill="black" stroke="black" points="171.691,-182.768 163.718,-189.747 174.302,-189.263 171.691,-182.768"/>
<text text-anchor="middle" x="223.131" y="-177.957" font-family="Times New Roman,serif" font-size="8.00">der</text>
</g>
<!-- http://example.org/2 -->
<g id="node10" class="node"><title>http://example.org/2</title>
<g id="a_node10"><a xlink:href="http://example.org/2" xlink:title="2">
<ellipse fill="#fffc87" stroke="#808080" cx="27" cy="-232" rx="27" ry="18"/>
<text text-anchor="middle" x="27" y="-228.3" font-family="Times New Roman,serif" font-size="14.00">2</text>
</a>
</g>
</g>
<!-- http://example.org/matrix12&#45;&gt;http://example.org/2 -->
<g id="edge14" class="edge"><title>http://example.org/matrix12&#45;&gt;http://example.org/2</title>
<path fill="none" stroke="black" d="M96.8667,-211.99C85.6387,-215.252 73.181,-218.872 61.9823,-222.126"/>
<polygon fill="black" stroke="black" points="60.7494,-218.839 52.1232,-224.991 62.7026,-225.561 60.7494,-218.839"/>
<text text-anchor="middle" x="93.2893" y="-224.657" font-family="Times New Roman,serif" font-size="8.00">der</text>
</g>
<!-- http://example.org/disti@j#5 -->
<g id="node3" class="node"><title>http://example.org/disti@j#5</title>
<g id="a_node3"><a xlink:href="http://example.org/disti@j#5" xlink:title="disti@j#5">
<ellipse fill="#fffc87" stroke="#808080" cx="648.18" cy="-193" rx="45.4919" ry="18"/>
<text text-anchor="middle" x="648.18" y="-189.3" font-family="Times New Roman,serif" font-size="14.00">disti@j#5</text>
</a>
</g>
</g>
<!-- http://example.org/ikj#3 -->
<g id="node4" class="node"><title>http://example.org/ikj#3</title>
<g id="a_node4"><a xlink:href="http://example.org/ikj#3" xlink:title="ikj#3">
<ellipse fill="#fffc87" stroke="#808080" cx="510.184" cy="-159" rx="28.6953" ry="18"/>
<text text-anchor="middle" x="510.184" y="-155.3" font-family="Times New Roman,serif" font-size="14.00">ikj#3</text>
</a>
</g>
</g>
<!-- http://example.org/disti@j#5&#45;&gt;http://example.org/ikj#3 -->
<g id="edge2" class="edge"><title>http://example.org/disti@j#5&#45;&gt;http://example.org/ikj#3</title>
<path fill="none" stroke="black" d="M609.297,-183.529C589.844,-178.666 566.27,-172.772 547.106,-167.981"/>
<polygon fill="black" stroke="black" points="547.8,-164.547 537.249,-165.517 546.102,-171.338 547.8,-164.547"/>
<text text-anchor="middle" x="598.871" y="-192.413" font-family="Times New Roman,serif" font-size="8.00">der</text>
</g>
<!-- http://example.org/sum#3 -->
<g id="node5" class="node"><title>http://example.org/sum#3</title>
<g id="a_node5"><a xlink:href="http://example.org/sum#3" xlink:title="sum#3">
<ellipse fill="#fffc87" stroke="#808080" cx="380.184" cy="-125" rx="35.194" ry="18"/>
<text text-anchor="middle" x="380.184" y="-121.3" font-family="Times New Roman,serif" font-size="14.00">sum#3</text>
</a>
</g>
</g>
<!-- http://example.org/ikj#3&#45;&gt;http://example.org/sum#3 -->
<g id="edge12" class="edge"><title>http://example.org/ikj#3&#45;&gt;http://example.org/sum#3</title>
<path fill="none" stroke="black" d="M483.589,-152.201C465.864,-147.493 441.902,-141.128 421.614,-135.739"/>
<polygon fill="black" stroke="black" points="422.257,-132.289 411.693,-133.104 420.46,-139.054 422.257,-132.289"/>
<text text-anchor="middle" x="473.005" y="-160.931" font-family="Times New Roman,serif" font-size="8.00">der</text>
</g>
<!-- http://example.org/sum#3&#45;&gt;http://example.org/distk@j#3 -->
<g id="edge8" class="edge"><title>http://example.org/sum#3&#45;&gt;http://example.org/distk@j#3</title>
<path fill="none" stroke="black" d="M347.762,-132.094C336.294,-134.683 323.013,-137.681 310.295,-140.552"/>
<polygon fill="black" stroke="black" points="309.244,-137.201 300.26,-142.818 310.786,-144.03 309.244,-137.201"/>
<text text-anchor="middle" x="343.306" y="-144.517" font-family="Times New Roman,serif" font-size="8.00">der</text>
</g>
<!-- http://example.org/disti@k#3 -->
<g id="node13" class="node"><title>http://example.org/disti@k#3</title>
<g id="a_node13"><a xlink:href="http://example.org/disti@k#3" xlink:title="disti@k#3">
<ellipse fill="#fffc87" stroke="#808080" cx="258.588" cy="-98" rx="48.1917" ry="18"/>
<text text-anchor="middle" x="258.588" y="-94.3" font-family="Times New Roman,serif" font-size="14.00">disti@k#3</text>
</a>
</g>
</g>
<!-- http://example.org/sum#3&#45;&gt;http://example.org/disti@k#3 -->
<g id="edge17" class="edge"><title>http://example.org/sum#3&#45;&gt;http://example.org/disti@k#3</title>
<path fill="none" stroke="black" d="M347.762,-117.906C336.294,-115.317 323.013,-112.319 310.295,-109.448"/>
<polygon fill="black" stroke="black" points="310.786,-105.97 300.26,-107.182 309.244,-112.799 310.786,-105.97"/>
<text text-anchor="middle" x="337.585" y="-127.026" font-family="Times New Roman,serif" font-size="8.00">der</text>
</g>
<!-- http://example.org/sum#3&#45;attrs -->
<g id="node6" class="node"><title>http://example.org/sum#3&#45;attrs</title>
<polygon fill="none" stroke="gray" points="560.684,-123 453.684,-123 453.684,-61 566.684,-61 566.684,-117 560.684,-123"/>
<polyline fill="none" stroke="gray" points="560.684,-123 560.684,-117 "/>
<polyline fill="none" stroke="gray" points="566.684,-117 560.684,-117 "/>
<text text-anchor="start" x="464.184" y="-109" font-family="Times New Roman,serif" font-size="10.00">value:</text>
<text text-anchor="start" x="491.184" y="-109" font-family="Times New Roman,serif" font-size="10.00">3</text>
<text text-anchor="start" x="464.184" y="-96" font-family="Times New Roman,serif" font-size="10.00">type:</text>
<text text-anchor="start" x="491.184" y="-96" font-family="Times New Roman,serif" font-size="10.00">operation</text>
<text text-anchor="start" x="464.184" y="-83" font-family="Times New Roman,serif" font-size="10.00">label:</text>
<text text-anchor="start" x="491.184" y="-83" font-family="Times New Roman,serif" font-size="10.00">disti[k] + distk[j]</text>
<text text-anchor="start" x="464.184" y="-70" font-family="Times New Roman,serif" font-size="10.00">line:</text>
<text text-anchor="start" x="491.184" y="-70" font-family="Times New Roman,serif" font-size="10.00">15</text>
</g>
<!-- http://example.org/sum#3&#45;attrs&#45;&gt;http://example.org/sum#3 -->
<g id="edge3" class="edge"><title>http://example.org/sum#3&#45;attrs&#45;&gt;http://example.org/sum#3</title>
<path fill="none" stroke="gray" stroke-dasharray="5,2" d="M453.414,-106.378C439.131,-110.06 424.293,-113.886 411.808,-117.105"/>
</g>
<!-- http://example.org/1 -->
<g id="node7" class="node"><title>http://example.org/1</title>
<g id="a_node7"><a xlink:href="http://example.org/1" xlink:title="1">
<ellipse fill="#fffc87" stroke="#808080" cx="27" cy="-95" rx="27" ry="18"/>
<text text-anchor="middle" x="27" y="-91.3" font-family="Times New Roman,serif" font-size="14.00">1</text>
</a>
</g>
</g>
<!-- http://example.org/1&#45;attrs -->
<g id="node8" class="node"><title>http://example.org/1&#45;attrs</title>
<polygon fill="none" stroke="gray" points="160.746,-149.5 97.7463,-149.5 97.7463,-100.5 166.746,-100.5 166.746,-143.5 160.746,-149.5"/>
<polyline fill="none" stroke="gray" points="160.746,-149.5 160.746,-143.5 "/>
<polyline fill="none" stroke="gray" points="166.746,-143.5 160.746,-143.5 "/>
<text text-anchor="start" x="108.246" y="-135" font-family="Times New Roman,serif" font-size="10.00">value:</text>
<text text-anchor="start" x="135.246" y="-135" font-family="Times New Roman,serif" font-size="10.00">1</text>
<text text-anchor="start" x="108.246" y="-122" font-family="Times New Roman,serif" font-size="10.00">type:</text>
<text text-anchor="start" x="135.246" y="-122" font-family="Times New Roman,serif" font-size="10.00">literal</text>
<text text-anchor="start" x="108.246" y="-109" font-family="Times New Roman,serif" font-size="10.00">line:</text>
<text text-anchor="start" x="135.246" y="-109" font-family="Times New Roman,serif" font-size="10.00">3</text>
</g>
<!-- http://example.org/1&#45;attrs&#45;&gt;http://example.org/1 -->
<g id="edge4" class="edge"><title>http://example.org/1&#45;attrs&#45;&gt;http://example.org/1</title>
<path fill="none" stroke="gray" stroke-dasharray="5,2" d="M97.7252,-115.26C82.8871,-110.948 65.7644,-105.973 52.2005,-102.032"/>
</g>
<!-- http://example.org/ikj#3&#45;attrs -->
<g id="node9" class="node"><title>http://example.org/ikj#3&#45;attrs</title>
<polygon fill="none" stroke="gray" points="676.68,-157 613.68,-157 613.68,-95 682.68,-95 682.68,-151 676.68,-157"/>
<polyline fill="none" stroke="gray" points="676.68,-157 676.68,-151 "/>
<polyline fill="none" stroke="gray" points="682.68,-151 676.68,-151 "/>
<text text-anchor="start" x="624.18" y="-143" font-family="Times New Roman,serif" font-size="10.00">value:</text>
<text text-anchor="start" x="651.18" y="-143" font-family="Times New Roman,serif" font-size="10.00">3</text>
<text text-anchor="start" x="624.18" y="-130" font-family="Times New Roman,serif" font-size="10.00">type:</text>
<text text-anchor="start" x="651.18" y="-130" font-family="Times New Roman,serif" font-size="10.00">name</text>
<text text-anchor="start" x="624.18" y="-117" font-family="Times New Roman,serif" font-size="10.00">label:</text>
<text text-anchor="start" x="651.18" y="-117" font-family="Times New Roman,serif" font-size="10.00">ikj</text>
<text text-anchor="start" x="624.18" y="-104" font-family="Times New Roman,serif" font-size="10.00">line:</text>
<text text-anchor="start" x="651.18" y="-104" font-family="Times New Roman,serif" font-size="10.00">15</text>
</g>
<!-- http://example.org/ikj#3&#45;attrs&#45;&gt;http://example.org/ikj#3 -->
<g id="edge5" class="edge"><title>http://example.org/ikj#3&#45;attrs&#45;&gt;http://example.org/ikj#3</title>
<path fill="none" stroke="gray" stroke-dasharray="5,2" d="M613.563,-134.157C589.966,-139.883 558.873,-147.428 537.169,-152.695"/>
</g>
<!-- http://example.org/2&#45;attrs -->
<g id="node11" class="node"><title>http://example.org/2&#45;attrs</title>
<polygon fill="none" stroke="gray" points="160.746,-287.5 97.7463,-287.5 97.7463,-238.5 166.746,-238.5 166.746,-281.5 160.746,-287.5"/>
<polyline fill="none" stroke="gray" points="160.746,-287.5 160.746,-281.5 "/>
<polyline fill="none" stroke="gray" points="166.746,-281.5 160.746,-281.5 "/>
<text text-anchor="start" x="108.246" y="-273" font-family="Times New Roman,serif" font-size="10.00">value:</text>
<text text-anchor="start" x="135.246" y="-273" font-family="Times New Roman,serif" font-size="10.00">2</text>
<text text-anchor="start" x="108.246" y="-260" font-family="Times New Roman,serif" font-size="10.00">type:</text>
<text text-anchor="start" x="135.246" y="-260" font-family="Times New Roman,serif" font-size="10.00">literal</text>
<text text-anchor="start" x="108.246" y="-247" font-family="Times New Roman,serif" font-size="10.00">line:</text>
<text text-anchor="start" x="135.246" y="-247" font-family="Times New Roman,serif" font-size="10.00">4</text>
</g>
<!-- http://example.org/2&#45;attrs&#45;&gt;http://example.org/2 -->
<g id="edge6" class="edge"><title>http://example.org/2&#45;attrs&#45;&gt;http://example.org/2</title>
<path fill="none" stroke="gray" stroke-dasharray="5,2" d="M97.7252,-252.935C82.7693,-248.445 65.4925,-243.257 51.8783,-239.17"/>
</g>
<!-- http://example.org/disti@j#5&#45;attrs -->
<g id="node12" class="node"><title>http://example.org/disti@j#5&#45;attrs</title>
<polygon fill="none" stroke="gray" points="817.071,-258 748.071,-258 748.071,-196 823.071,-196 823.071,-252 817.071,-258"/>
<polyline fill="none" stroke="gray" points="817.071,-258 817.071,-252 "/>
<polyline fill="none" stroke="gray" points="823.071,-252 817.071,-252 "/>
<text text-anchor="start" x="758.571" y="-244" font-family="Times New Roman,serif" font-size="10.00">value:</text>
<text text-anchor="start" x="785.571" y="-244" font-family="Times New Roman,serif" font-size="10.00">3</text>
<text text-anchor="start" x="758.571" y="-231" font-family="Times New Roman,serif" font-size="10.00">type:</text>
<text text-anchor="start" x="785.571" y="-231" font-family="Times New Roman,serif" font-size="10.00">access</text>
<text text-anchor="start" x="758.571" y="-218" font-family="Times New Roman,serif" font-size="10.00">label:</text>
<text text-anchor="start" x="785.571" y="-218" font-family="Times New Roman,serif" font-size="10.00">disti[j]</text>
<text text-anchor="start" x="758.571" y="-205" font-family="Times New Roman,serif" font-size="10.00">line:</text>
<text text-anchor="start" x="785.571" y="-205" font-family="Times New Roman,serif" font-size="10.00">17</text>
</g>
<!-- http://example.org/disti@j#5&#45;attrs&#45;&gt;http://example.org/disti@j#5 -->
<g id="edge7" class="edge"><title>http://example.org/disti@j#5&#45;attrs&#45;&gt;http://example.org/disti@j#5</title>
<path fill="none" stroke="gray" stroke-dasharray="5,2" d="M747.932,-217.799C729.137,-213.079 706.264,-207.335 687.265,-202.564"/>
</g>
<!-- http://example.org/matrix01 -->
<g id="node14" class="node"><title>http://example.org/matrix01</title>
<g id="a_node14"><a xlink:href="http://example.org/matrix01" xlink:title="matrix01">
<ellipse fill="#fffc87" stroke="#808080" cx="132.246" cy="-64" rx="42.4939" ry="18"/>
<text text-anchor="middle" x="132.246" y="-60.3" font-family="Times New Roman,serif" font-size="14.00">matrix01</text>
</a>
</g>
</g>
<!-- http://example.org/disti@k#3&#45;&gt;http://example.org/matrix01 -->
<g id="edge9" class="edge"><title>http://example.org/disti@k#3&#45;&gt;http://example.org/matrix01</title>
<path fill="none" stroke="black" d="M219.267,-87.5214C206.302,-83.9764 191.707,-79.9854 178.27,-76.3114"/>
<polygon fill="black" stroke="black" points="178.837,-72.8378 168.268,-73.5762 176.99,-79.5899 178.837,-72.8378"/>
<text text-anchor="middle" x="208.606" y="-96.1737" font-family="Times New Roman,serif" font-size="8.00">der</text>
</g>
<!-- http://example.org/matrix01&#45;&gt;http://example.org/1 -->
<g id="edge19" class="edge"><title>http://example.org/matrix01&#45;&gt;http://example.org/1</title>
<path fill="none" stroke="black" d="M97.1534,-74.2365C85.7052,-77.6738 72.9518,-81.5031 61.5459,-84.9277"/>
<polygon fill="black" stroke="black" points="60.5072,-81.5852 51.9361,-87.8131 62.5202,-88.2895 60.5072,-81.5852"/>
<text text-anchor="middle" x="93.7059" y="-86.9349" font-family="Times New Roman,serif" font-size="8.00">der</text>
</g>
<!-- http://example.org/result@0@2 -->
<g id="node15" class="node"><title>http://example.org/result@0@2</title>
<g id="a_node15"><a xlink:href="http://example.org/result@0@2" xlink:title="result@0@2">
<ellipse fill="#fffc87" stroke="#808080" cx="785.571" cy="-160" rx="55.7903" ry="18"/>
<text text-anchor="middle" x="785.571" y="-156.3" font-family="Times New Roman,serif" font-size="14.00">result@0@2</text>
</a>
</g>
</g>
<!-- http://example.org/result@0@2&#45;&gt;http://example.org/disti@j#5 -->
<g id="edge18" class="edge"><title>http://example.org/result@0@2&#45;&gt;http://example.org/disti@j#5</title>
<path fill="none" stroke="black" d="M740.613,-170.714C726.82,-174.076 711.521,-177.805 697.446,-181.236"/>
<polygon fill="black" stroke="black" points="696.34,-177.903 687.453,-183.671 697.997,-184.704 696.34,-177.903"/>
<text text-anchor="middle" x="736.403" y="-183.211" font-family="Times New Roman,serif" font-size="8.00">der</text>
</g>
<!-- http://example.org/result@0@2&#45;attrs -->
<g id="node16" class="node"><title>http://example.org/result@0@2&#45;attrs</title>
<polygon fill="none" stroke="gray" points="962.466,-191 877.466,-191 877.466,-129 968.466,-129 968.466,-185 962.466,-191"/>
<polyline fill="none" stroke="gray" points="962.466,-191 962.466,-185 "/>
<polyline fill="none" stroke="gray" points="968.466,-185 962.466,-185 "/>
<text text-anchor="start" x="887.966" y="-177" font-family="Times New Roman,serif" font-size="10.00">value:</text>
<text text-anchor="start" x="914.966" y="-177" font-family="Times New Roman,serif" font-size="10.00">3</text>
<text text-anchor="start" x="887.966" y="-164" font-family="Times New Roman,serif" font-size="10.00">type:</text>
<text text-anchor="start" x="914.966" y="-164" font-family="Times New Roman,serif" font-size="10.00">access</text>
<text text-anchor="start" x="887.966" y="-151" font-family="Times New Roman,serif" font-size="10.00">label:</text>
<text text-anchor="start" x="914.966" y="-151" font-family="Times New Roman,serif" font-size="10.00">result[0][2]</text>
<text text-anchor="start" x="887.966" y="-138" font-family="Times New Roman,serif" font-size="10.00">line:</text>
<text text-anchor="start" x="914.966" y="-138" font-family="Times New Roman,serif" font-size="10.00">18</text>
</g>
<!-- http://example.org/result@0@2&#45;attrs&#45;&gt;http://example.org/result@0@2 -->
<g id="edge10" class="edge"><title>http://example.org/result@0@2&#45;attrs&#45;&gt;http://example.org/result@0@2</title>
<path fill="none" stroke="gray" stroke-dasharray="5,2" d="M877.257,-160C865.857,-160 853.471,-160 841.62,-160"/>
</g>
<!-- http://example.org/matrix12&#45;attrs -->
<g id="node17" class="node"><title>http://example.org/matrix12&#45;attrs</title>
<polygon fill="none" stroke="gray" points="284.588,-250 226.588,-250 226.588,-188 290.588,-188 290.588,-244 284.588,-250"/>
<polyline fill="none" stroke="gray" points="284.588,-250 284.588,-244 "/>
<polyline fill="none" stroke="gray" points="290.588,-244 284.588,-244 "/>
<text text-anchor="start" x="236.588" y="-236" font-family="Times New Roman,serif" font-size="10.00">value:</text>
<text text-anchor="start" x="263.588" y="-236" font-family="Times New Roman,serif" font-size="10.00">2</text>
<text text-anchor="start" x="236.588" y="-223" font-family="Times New Roman,serif" font-size="10.00">type:</text>
<text text-anchor="start" x="263.588" y="-223" font-family="Times New Roman,serif" font-size="10.00">item</text>
<text text-anchor="start" x="236.588" y="-210" font-family="Times New Roman,serif" font-size="10.00">label:</text>
<text text-anchor="start" x="263.588" y="-210" font-family="Times New Roman,serif" font-size="10.00">2</text>
<text text-anchor="start" x="236.588" y="-197" font-family="Times New Roman,serif" font-size="10.00">line:</text>
<text text-anchor="start" x="263.588" y="-197" font-family="Times New Roman,serif" font-size="10.00">4</text>
</g>
<!-- http://example.org/matrix12&#45;attrs&#45;&gt;http://example.org/matrix12 -->
<g id="edge11" class="edge"><title>http://example.org/matrix12&#45;attrs&#45;&gt;http://example.org/matrix12</title>
<path fill="none" stroke="gray" stroke-dasharray="5,2" d="M226.532,-214.754C210.276,-212.531 190.195,-209.786 172.833,-207.412"/>
</g>
<!-- http://example.org/distk@j#3&#45;attrs -->
<g id="node18" class="node"><title>http://example.org/distk@j#3&#45;attrs</title>
<polygon fill="none" stroke="gray" points="411.684,-223 342.684,-223 342.684,-161 417.684,-161 417.684,-217 411.684,-223"/>
<polyline fill="none" stroke="gray" points="411.684,-223 411.684,-217 "/>
<polyline fill="none" stroke="gray" points="417.684,-217 411.684,-217 "/>
<text text-anchor="start" x="353.184" y="-209" font-family="Times New Roman,serif" font-size="10.00">value:</text>
<text text-anchor="start" x="380.184" y="-209" font-family="Times New Roman,serif" font-size="10.00">2</text>
<text text-anchor="start" x="353.184" y="-196" font-family="Times New Roman,serif" font-size="10.00">type:</text>
<text text-anchor="start" x="380.184" y="-196" font-family="Times New Roman,serif" font-size="10.00">access</text>
<text text-anchor="start" x="353.184" y="-183" font-family="Times New Roman,serif" font-size="10.00">label:</text>
<text text-anchor="start" x="380.184" y="-183" font-family="Times New Roman,serif" font-size="10.00">distk[j]</text>
<text text-anchor="start" x="353.184" y="-170" font-family="Times New Roman,serif" font-size="10.00">line:</text>
<text text-anchor="start" x="380.184" y="-170" font-family="Times New Roman,serif" font-size="10.00">15</text>
</g>
<!-- http://example.org/distk@j#3&#45;attrs&#45;&gt;http://example.org/distk@j#3 -->
<g id="edge13" class="edge"><title>http://example.org/distk@j#3&#45;attrs&#45;&gt;http://example.org/distk@j#3</title>
<path fill="none" stroke="gray" stroke-dasharray="5,2" d="M342.651,-179.781C327.539,-174.727 310.078,-168.887 295.076,-163.869"/>
</g>
<!-- http://example.org/disti@k#3&#45;attrs -->
<g id="node19" class="node"><title>http://example.org/disti@k#3&#45;attrs</title>
<polygon fill="none" stroke="gray" points="411.684,-89 342.684,-89 342.684,-27 417.684,-27 417.684,-83 411.684,-89"/>
<polyline fill="none" stroke="gray" points="411.684,-89 411.684,-83 "/>
<polyline fill="none" stroke="gray" points="417.684,-83 411.684,-83 "/>
<text text-anchor="start" x="353.184" y="-75" font-family="Times New Roman,serif" font-size="10.00">value:</text>
<text text-anchor="start" x="380.184" y="-75" font-family="Times New Roman,serif" font-size="10.00">1</text>
<text text-anchor="start" x="353.184" y="-62" font-family="Times New Roman,serif" font-size="10.00">type:</text>
<text text-anchor="start" x="380.184" y="-62" font-family="Times New Roman,serif" font-size="10.00">access</text>
<text text-anchor="start" x="353.184" y="-49" font-family="Times New Roman,serif" font-size="10.00">label:</text>
<text text-anchor="start" x="380.184" y="-49" font-family="Times New Roman,serif" font-size="10.00">disti[k]</text>
<text text-anchor="start" x="353.184" y="-36" font-family="Times New Roman,serif" font-size="10.00">line:</text>
<text text-anchor="start" x="380.184" y="-36" font-family="Times New Roman,serif" font-size="10.00">15</text>
</g>
<!-- http://example.org/disti@k#3&#45;attrs&#45;&gt;http://example.org/disti@k#3 -->
<g id="edge15" class="edge"><title>http://example.org/disti@k#3&#45;attrs&#45;&gt;http://example.org/disti@k#3</title>
<path fill="none" stroke="gray" stroke-dasharray="5,2" d="M342.651,-70.2187C327.539,-75.2732 310.078,-81.1133 295.076,-86.1306"/>
</g>
<!-- http://example.org/matrix01&#45;attrs -->
<g id="node20" class="node"><title>http://example.org/matrix01&#45;attrs</title>
<polygon fill="none" stroke="gray" points="284.588,-62 226.588,-62 226.588,-0 290.588,-0 290.588,-56 284.588,-62"/>
<polyline fill="none" stroke="gray" points="284.588,-62 284.588,-56 "/>
<polyline fill="none" stroke="gray" points="290.588,-56 284.588,-56 "/>
<text text-anchor="start" x="236.588" y="-48" font-family="Times New Roman,serif" font-size="10.00">value:</text>
<text text-anchor="start" x="263.588" y="-48" font-family="Times New Roman,serif" font-size="10.00">1</text>
<text text-anchor="start" x="236.588" y="-35" font-family="Times New Roman,serif" font-size="10.00">type:</text>
<text text-anchor="start" x="263.588" y="-35" font-family="Times New Roman,serif" font-size="10.00">item</text>
<text text-anchor="start" x="236.588" y="-22" font-family="Times New Roman,serif" font-size="10.00">label:</text>
<text text-anchor="start" x="263.588" y="-22" font-family="Times New Roman,serif" font-size="10.00">1</text>
<text text-anchor="start" x="236.588" y="-9" font-family="Times New Roman,serif" font-size="10.00">line:</text>
<text text-anchor="start" x="263.588" y="-9" font-family="Times New Roman,serif" font-size="10.00">3</text>
</g>
<!-- http://example.org/matrix01&#45;attrs&#45;&gt;http://example.org/matrix01 -->
<g id="edge16" class="edge"><title>http://example.org/matrix01&#45;attrs&#45;&gt;http://example.org/matrix01</title>
<path fill="none" stroke="gray" stroke-dasharray="5,2" d="M226.532,-39.2422C208.981,-43.9003 186.972,-49.7414 168.74,-54.5801"/>
</g>
</g>
</svg>
