<?xml version="1.0" encoding="UTF-8" standalone="no"?>
<!DOCTYPE svg PUBLIC "-//W3C//DTD SVG 1.1//EN"
 "http://www.w3.org/Graphics/SVG/1.1/DTD/svg11.dtd">
<!-- Generated by graphviz version 2.38.0 (20140413.2041)
 -->
<!-- Title: PROV Pages: 1 -->
<svg width="1152pt" height="320pt"
 viewBox="0.00 0.00 1152.00 319.52" xmlns="http://www.w3.org/2000/svg" xmlns:xlink="http://www.w3.org/1999/xlink">
<g id="graph0" class="graph" transform="scale(0.755364 0.755364) rotate(0) translate(4 419)">
<title>PROV</title>
<polygon fill="white" stroke="none" points="-4,4 -4,-419 1521.09,-419 1521.09,4 -4,4"/>
<!-- http://example.org/edist_ak1 -->
<g id="node1" class="node"><title>http://example.org/edist_ak1</title>
<g id="a_node1"><a xlink:href="http://example.org/edist_ak1" xlink:title="edist_ak1">
<ellipse fill="#fffc87" stroke="#808080" cx="62" cy="-397" rx="45.4919" ry="18"/>
<text text-anchor="middle" x="62" y="-393.3" font-family="Times New Roman,serif" font-size="14.00">edist_ak1</text>
</a>
</g>
</g>
<!-- &#45;attrs0 -->
<g id="node2" class="node"><title>&#45;attrs0</title>
<polygon fill="none" stroke="gray" points="118,-328 0,-328 0,-292 124,-292 124,-322 118,-328"/>
<polyline fill="none" stroke="gray" points="118,-328 118,-322 "/>
<polyline fill="none" stroke="gray" points="124,-322 118,-322 "/>
<text text-anchor="start" x="10" y="-314" font-family="Times New Roman,serif" font-size="10.00">value:</text>
<text text-anchor="start" x="37" y="-314" font-family="Times New Roman,serif" font-size="10.00">&quot;[]&quot;</text>
<text text-anchor="start" x="10" y="-301" font-family="Times New Roman,serif" font-size="10.00">type:</text>
<text text-anchor="start" x="37" y="-301" font-family="Times New Roman,serif" font-size="10.00">&quot;EmptyDictionary&quot;</text>
</g>
<!-- &#45;attrs0&#45;&gt;http://example.org/edist_ak1 -->
<g id="edge1" class="edge"><title>&#45;attrs0&#45;&gt;http://example.org/edist_ak1</title>
<path fill="none" stroke="gray" stroke-dasharray="5,2" d="M62,-328.201C62,-342.948 62,-364.085 62,-378.825"/>
</g>
<!-- http://example.org/dist_ak1 -->
<g id="node3" class="node"><title>http://example.org/dist_ak1</title>
<g id="a_node3"><a xlink:href="http://example.org/dist_ak1" xlink:title="dist_ak1">
<ellipse fill="#fffc87" stroke="#808080" cx="713" cy="-237" rx="41.6928" ry="18"/>
<text text-anchor="middle" x="713" y="-233.3" font-family="Times New Roman,serif" font-size="14.00">dist_ak1</text>
</a>
</g>
</g>
<!-- bn0 -->
<g id="node5" class="node"><title>bn0</title>
<ellipse fill="black" stroke="black" cx="463" cy="-310" rx="1.8" ry="1.8"/>
</g>
<!-- http://example.org/dist_ak1&#45;&gt;bn0 -->
<g id="edge3" class="edge"><title>http://example.org/dist_ak1&#45;&gt;bn0</title>
<path fill="none" stroke="darkgreen" d="M679.284,-247.575C614.776,-265.895 478.954,-304.469 464.291,-308.633"/>
<text text-anchor="middle" x="659.784" y="-251.375" font-family="Times New Roman,serif" font-size="14.00">der&#45;ins</text>
</g>
<!-- http://example.org/access45 -->
<g id="node9" class="node"><title>http://example.org/access45</title>
<g id="a_node9"><a xlink:href="http://example.org/access45" xlink:title="access45">
<polygon fill="#9fb1fc" stroke="#0000ff" points="1087,-328 1019,-328 1019,-292 1087,-292 1087,-328"/>
<text text-anchor="middle" x="1053" y="-306.3" font-family="Times New Roman,serif" font-size="14.00">access45</text>
</a>
</g>
</g>
<!-- http://example.org/dist_ak1&#45;&gt;http://example.org/access45 -->
<g id="edge11" class="edge"><title>http://example.org/dist_ak1&#45;&gt;http://example.org/access45</title>
<path fill="none" stroke="black" d="M754.114,-240.428C823.009,-244.918 958.592,-255.67 1003,-273 1010.85,-276.062 1018.6,-280.647 1025.57,-285.528"/>
<polygon fill="black" stroke="black" points="1023.82,-288.594 1033.93,-291.777 1028.02,-282.987 1023.82,-288.594"/>
<text text-anchor="middle" x="762.481" y="-226.078" font-family="Times New Roman,serif" font-size="8.00">gen</text>
</g>
<!-- http://example.org/list1_0 -->
<g id="node11" class="node"><title>http://example.org/list1_0</title>
<ellipse fill="none" stroke="black" cx="1012" cy="-397" rx="102.882" ry="18"/>
<text text-anchor="middle" x="1012" y="-393.3" font-family="Times New Roman,serif" font-size="14.00">http://example.org/list1_0</text>
</g>
<!-- http://example.org/dist_ak1&#45;&gt;http://example.org/list1_0 -->
<g id="edge10" class="edge"><title>http://example.org/dist_ak1&#45;&gt;http://example.org/list1_0</title>
<path fill="none" stroke="black" d="M754.033,-240.819C799.254,-245.565 872.644,-258.245 926,-292 957.075,-311.659 982.372,-346.304 997.295,-370.169"/>
<polygon fill="black" stroke="black" points="994.315,-372.004 1002.5,-378.735 1000.3,-368.371 994.315,-372.004"/>
<text text-anchor="middle" x="762.987" y="-226.885" font-family="Times New Roman,serif" font-size="8.00">der</text>
</g>
<!-- &#45;attrs1 -->
<g id="node4" class="node"><title>&#45;attrs1</title>
<polygon fill="none" stroke="gray" points="652.5,-182 555.5,-182 555.5,-146 658.5,-146 658.5,-176 652.5,-182"/>
<polyline fill="none" stroke="gray" points="652.5,-182 652.5,-176 "/>
<polyline fill="none" stroke="gray" points="658.5,-176 652.5,-176 "/>
<text text-anchor="start" x="566" y="-168" font-family="Times New Roman,serif" font-size="10.00">value:</text>
<text text-anchor="start" x="593" y="-168" font-family="Times New Roman,serif" font-size="10.00">&quot;[10000, 0, 2]&quot;</text>
<text text-anchor="start" x="566" y="-155" font-family="Times New Roman,serif" font-size="10.00">type:</text>
<text text-anchor="start" x="593" y="-155" font-family="Times New Roman,serif" font-size="10.00">&quot;Dictionary&quot;</text>
</g>
<!-- &#45;attrs1&#45;&gt;http://example.org/dist_ak1 -->
<g id="edge2" class="edge"><title>&#45;attrs1&#45;&gt;http://example.org/dist_ak1</title>
<path fill="none" stroke="gray" stroke-dasharray="5,2" d="M632.39,-182.006C650.397,-194.068 674.303,-210.08 691.397,-221.53"/>
</g>
<!-- bn0&#45;&gt;http://example.org/edist_ak1 -->
<g id="edge4" class="edge"><title>bn0&#45;&gt;http://example.org/edist_ak1</title>
<path fill="none" stroke="darkgreen" d="M461.292,-311.259C441.831,-314.226 259.97,-342.353 116,-379 112.458,-379.902 108.805,-380.9 105.149,-381.948"/>
<polygon fill="darkgreen" stroke="darkgreen" points="104.125,-378.601 95.5365,-384.806 106.119,-385.311 104.125,-378.601"/>
<text text-anchor="middle" x="268.5" y="-349.8" font-family="Times New Roman,serif" font-size="14.00">der</text>
</g>
<!-- http://example.org/list10_0 -->
<g id="node6" class="node"><title>http://example.org/list10_0</title>
<ellipse fill="none" stroke="black" cx="232" cy="-397" rx="106.681" ry="18"/>
<text text-anchor="middle" x="232" y="-393.3" font-family="Times New Roman,serif" font-size="14.00">http://example.org/list10_0</text>
</g>
<!-- bn0&#45;&gt;http://example.org/list10_0 -->
<g id="edge5" class="edge"><title>bn0&#45;&gt;http://example.org/list10_0</title>
<path fill="none" stroke="darkgreen" d="M461.341,-311.422C450.86,-314.104 392.817,-329.193 347,-346 322.964,-354.817 296.744,-366.084 275.418,-375.69"/>
<polygon fill="darkgreen" stroke="darkgreen" points="273.954,-372.511 266.295,-379.832 276.847,-378.885 273.954,-372.511"/>
<text text-anchor="middle" x="355" y="-349.8" font-family="Times New Roman,serif" font-size="14.00">[0]</text>
</g>
<!-- http://example.org/list11_0 -->
<g id="node7" class="node"><title>http://example.org/list11_0</title>
<ellipse fill="none" stroke="black" cx="463" cy="-397" rx="106.681" ry="18"/>
<text text-anchor="middle" x="463" y="-393.3" font-family="Times New Roman,serif" font-size="14.00">http://example.org/list11_0</text>
</g>
<!-- bn0&#45;&gt;http://example.org/list11_0 -->
<g id="edge6" class="edge"><title>bn0&#45;&gt;http://example.org/list11_0</title>
<path fill="none" stroke="darkgreen" d="M463,-311.955C463,-317.528 463,-346.391 463,-368.755"/>
<polygon fill="darkgreen" stroke="darkgreen" points="459.5,-368.773 463,-378.773 466.5,-368.773 459.5,-368.773"/>
<text text-anchor="middle" x="471" y="-349.8" font-family="Times New Roman,serif" font-size="14.00">[1]</text>
</g>
<!-- http://example.org/list12_0 -->
<g id="node8" class="node"><title>http://example.org/list12_0</title>
<ellipse fill="none" stroke="black" cx="694" cy="-397" rx="106.681" ry="18"/>
<text text-anchor="middle" x="694" y="-393.3" font-family="Times New Roman,serif" font-size="14.00">http://example.org/list12_0</text>
</g>
<!-- bn0&#45;&gt;http://example.org/list12_0 -->
<g id="edge7" class="edge"><title>bn0&#45;&gt;http://example.org/list12_0</title>
<path fill="none" stroke="darkgreen" d="M464.659,-311.422C475.14,-314.104 533.183,-329.193 579,-346 603.036,-354.817 629.256,-366.084 650.582,-375.69"/>
<polygon fill="darkgreen" stroke="darkgreen" points="649.153,-378.885 659.705,-379.832 652.046,-372.511 649.153,-378.885"/>
<text text-anchor="middle" x="623" y="-349.8" font-family="Times New Roman,serif" font-size="14.00">[2]</text>
</g>
<!-- http://example.org/access45&#45;&gt;http://example.org/list1_0 -->
<g id="edge9" class="edge"><title>http://example.org/access45&#45;&gt;http://example.org/list1_0</title>
<path fill="none" stroke="black" d="M1044.7,-328.201C1038.98,-340.068 1031.26,-356.072 1024.76,-369.551"/>
<polygon fill="black" stroke="black" points="1021.48,-368.297 1020.28,-378.825 1027.78,-371.338 1021.48,-368.297"/>
<text text-anchor="middle" x="1053.15" y="-338.7" font-family="Times New Roman,serif" font-size="8.00">use</text>
</g>
<!-- http://example.org/dist0 -->
<g id="node12" class="node"><title>http://example.org/dist0</title>
<ellipse fill="none" stroke="black" cx="1229" cy="-397" rx="96.3833" ry="18"/>
<text text-anchor="middle" x="1229" y="-393.3" font-family="Times New Roman,serif" font-size="14.00">http://example.org/dist0</text>
</g>
<!-- http://example.org/access45&#45;&gt;http://example.org/dist0 -->
<g id="edge12" class="edge"><title>http://example.org/access45&#45;&gt;http://example.org/dist0</title>
<path fill="none" stroke="black" d="M1087.35,-327.591C1115.82,-341.339 1156.4,-360.936 1186.83,-375.635"/>
<polygon fill="black" stroke="black" points="1185.4,-378.83 1195.93,-380.027 1188.44,-372.526 1185.4,-378.83"/>
<text text-anchor="middle" x="1099.76" y="-317.255" font-family="Times New Roman,serif" font-size="8.00">use</text>
</g>
<!-- http://example.org/k1 -->
<g id="node13" class="node"><title>http://example.org/k1</title>
<ellipse fill="none" stroke="black" cx="1430" cy="-397" rx="87.1846" ry="18"/>
<text text-anchor="middle" x="1430" y="-393.3" font-family="Times New Roman,serif" font-size="14.00">http://example.org/k1</text>
</g>
<!-- http://example.org/access45&#45;&gt;http://example.org/k1 -->
<g id="edge13" class="edge"><title>http://example.org/access45&#45;&gt;http://example.org/k1</title>
<path fill="none" stroke="black" d="M1087.12,-318.693C1149.44,-332.743 1282.66,-362.781 1363.47,-381"/>
<polygon fill="black" stroke="black" points="1363.02,-384.486 1373.54,-383.271 1364.56,-377.657 1363.02,-384.486"/>
<text text-anchor="middle" x="1097.29" y="-305.77" font-family="Times New Roman,serif" font-size="8.00">use</text>
</g>
<!-- &#45;attrs2 -->
<g id="node10" class="node"><title>&#45;attrs2</title>
<polygon fill="none" stroke="gray" points="1087,-255 1013,-255 1013,-219 1093,-219 1093,-249 1087,-255"/>
<polyline fill="none" stroke="gray" points="1087,-255 1087,-249 "/>
<polyline fill="none" stroke="gray" points="1093,-249 1087,-249 "/>
<text text-anchor="start" x="1023" y="-234" font-family="Times New Roman,serif" font-size="10.00">type:</text>
<text text-anchor="start" x="1046" y="-234" font-family="Times New Roman,serif" font-size="10.00">&quot;access&quot;</text>
</g>
<!-- &#45;attrs2&#45;&gt;http://example.org/access45 -->
<g id="edge8" class="edge"><title>&#45;attrs2&#45;&gt;http://example.org/access45</title>
<path fill="none" stroke="gray" stroke-dasharray="5,2" d="M1053,-255.187C1053,-266.35 1053,-280.84 1053,-291.971"/>
</g>
<!-- http://example.org/edistk1 -->
<g id="node14" class="node"><title>http://example.org/edistk1</title>
<g id="a_node14"><a xlink:href="http://example.org/edistk1" xlink:title="edistk1">
<ellipse fill="#fffc87" stroke="#808080" cx="855" cy="-397" rx="36.2938" ry="18"/>
<text text-anchor="middle" x="855" y="-393.3" font-family="Times New Roman,serif" font-size="14.00">edistk1</text>
</a>
</g>
</g>
<!-- &#45;attrs3 -->
<g id="node15" class="node"><title>&#45;attrs3</title>
<polygon fill="none" stroke="gray" points="911,-328 793,-328 793,-292 917,-292 917,-322 911,-328"/>
<polyline fill="none" stroke="gray" points="911,-328 911,-322 "/>
<polyline fill="none" stroke="gray" points="917,-322 911,-322 "/>
<text text-anchor="start" x="803" y="-314" font-family="Times New Roman,serif" font-size="10.00">value:</text>
<text text-anchor="start" x="830" y="-314" font-family="Times New Roman,serif" font-size="10.00">&quot;[]&quot;</text>
<text text-anchor="start" x="803" y="-301" font-family="Times New Roman,serif" font-size="10.00">type:</text>
<text text-anchor="start" x="830" y="-301" font-family="Times New Roman,serif" font-size="10.00">&quot;EmptyDictionary&quot;</text>
</g>
<!-- &#45;attrs3&#45;&gt;http://example.org/edistk1 -->
<g id="edge14" class="edge"><title>&#45;attrs3&#45;&gt;http://example.org/edistk1</title>
<path fill="none" stroke="gray" stroke-dasharray="5,2" d="M855,-328.201C855,-342.948 855,-364.085 855,-378.825"/>
</g>
<!-- http://example.org/distk1 -->
<g id="node16" class="node"><title>http://example.org/distk1</title>
<g id="a_node16"><a xlink:href="http://example.org/distk1" xlink:title="distk1">
<ellipse fill="#fffc87" stroke="#808080" cx="691" cy="-91" rx="32.4942" ry="18"/>
<text text-anchor="middle" x="691" y="-87.3" font-family="Times New Roman,serif" font-size="14.00">distk1</text>
</a>
</g>
</g>
<!-- http://example.org/distk1&#45;&gt;http://example.org/dist_ak1 -->
<g id="edge23" class="edge"><title>http://example.org/distk1&#45;&gt;http://example.org/dist_ak1</title>
<path fill="none" stroke="black" d="M693.61,-109.084C697.381,-133.767 704.391,-179.649 708.869,-208.959"/>
<polygon fill="black" stroke="black" points="705.423,-209.581 710.393,-218.938 712.343,-208.524 705.423,-209.581"/>
<text text-anchor="middle" x="707.584" y="-112.636" font-family="Times New Roman,serif" font-size="8.00">der</text>
</g>
<!-- bn1 -->
<g id="node18" class="node"><title>bn1</title>
<ellipse fill="black" stroke="black" cx="694" cy="-310" rx="1.8" ry="1.8"/>
</g>
<!-- http://example.org/distk1&#45;&gt;bn1 -->
<g id="edge16" class="edge"><title>http://example.org/distk1&#45;&gt;bn1</title>
<path fill="none" stroke="darkgreen" d="M716.256,-102.388C742.494,-113.757 780.849,-132.202 789,-146 814.28,-188.793 792.953,-214.601 764,-255 743.257,-283.943 702.62,-304.776 695.183,-308.428"/>
<text text-anchor="middle" x="735.756" y="-106.188" font-family="Times New Roman,serif" font-size="14.00">der&#45;ins</text>
</g>
<!-- http://example.org/assign19 -->
<g id="node19" class="node"><title>http://example.org/assign19</title>
<g id="a_node19"><a xlink:href="http://example.org/assign19" xlink:title="assign19">
<polygon fill="#9fb1fc" stroke="#0000ff" points="780.5,-182 715.5,-182 715.5,-146 780.5,-146 780.5,-182"/>
<text text-anchor="middle" x="748" y="-160.3" font-family="Times New Roman,serif" font-size="14.00">assign19</text>
</a>
</g>
</g>
<!-- http://example.org/distk1&#45;&gt;http://example.org/assign19 -->
<g id="edge24" class="edge"><title>http://example.org/distk1&#45;&gt;http://example.org/assign19</title>
<path fill="none" stroke="black" d="M703.65,-107.757C710.722,-116.566 719.704,-127.754 727.732,-137.753"/>
<polygon fill="black" stroke="black" points="725.199,-140.189 734.188,-145.796 730.657,-135.807 725.199,-140.189"/>
<text text-anchor="middle" x="718.475" y="-103.573" font-family="Times New Roman,serif" font-size="8.00">gen</text>
</g>
<!-- &#45;attrs4 -->
<g id="node17" class="node"><title>&#45;attrs4</title>
<polygon fill="none" stroke="gray" points="736.5,-36 639.5,-36 639.5,-0 742.5,-0 742.5,-30 736.5,-36"/>
<polyline fill="none" stroke="gray" points="736.5,-36 736.5,-30 "/>
<polyline fill="none" stroke="gray" points="742.5,-30 736.5,-30 "/>
<text text-anchor="start" x="650" y="-22" font-family="Times New Roman,serif" font-size="10.00">value:</text>
<text text-anchor="start" x="677" y="-22" font-family="Times New Roman,serif" font-size="10.00">&quot;[10000, 0, 2]&quot;</text>
<text text-anchor="start" x="650" y="-9" font-family="Times New Roman,serif" font-size="10.00">type:</text>
<text text-anchor="start" x="677" y="-9" font-family="Times New Roman,serif" font-size="10.00">&quot;Dictionary&quot;</text>
</g>
<!-- &#45;attrs4&#45;&gt;http://example.org/distk1 -->
<g id="edge15" class="edge"><title>&#45;attrs4&#45;&gt;http://example.org/distk1</title>
<path fill="none" stroke="gray" stroke-dasharray="5,2" d="M691,-36.1871C691,-47.3501 691,-61.8398 691,-72.9712"/>
</g>
<!-- bn1&#45;&gt;http://example.org/list10_0 -->
<g id="edge18" class="edge"><title>bn1&#45;&gt;http://example.org/list10_0</title>
<path fill="none" stroke="darkgreen" d="M692.397,-311.165C676.578,-312.802 546.781,-326.513 443,-346 393.503,-355.294 338.119,-368.528 296.517,-379.047"/>
<polygon fill="darkgreen" stroke="darkgreen" points="295.616,-375.664 286.787,-381.521 297.341,-382.448 295.616,-375.664"/>
<text text-anchor="middle" x="451" y="-349.8" font-family="Times New Roman,serif" font-size="14.00">[0]</text>
</g>
<!-- bn1&#45;&gt;http://example.org/list11_0 -->
<g id="edge19" class="edge"><title>bn1&#45;&gt;http://example.org/list11_0</title>
<path fill="none" stroke="darkgreen" d="M692.633,-311.232C682.064,-313.052 612.338,-325.501 559,-346 538.685,-353.807 517.104,-364.784 499.559,-374.464"/>
<polygon fill="darkgreen" stroke="darkgreen" points="497.793,-371.442 490.781,-379.384 501.215,-377.548 497.793,-371.442"/>
<text text-anchor="middle" x="567" y="-349.8" font-family="Times New Roman,serif" font-size="14.00">[1]</text>
</g>
<!-- bn1&#45;&gt;http://example.org/list12_0 -->
<g id="edge20" class="edge"><title>bn1&#45;&gt;http://example.org/list12_0</title>
<path fill="none" stroke="darkgreen" d="M694,-311.955C694,-317.528 694,-346.391 694,-368.755"/>
<polygon fill="darkgreen" stroke="darkgreen" points="690.5,-368.773 694,-378.773 697.5,-368.773 690.5,-368.773"/>
<text text-anchor="middle" x="702" y="-349.8" font-family="Times New Roman,serif" font-size="14.00">[2]</text>
</g>
<!-- bn1&#45;&gt;http://example.org/edistk1 -->
<g id="edge17" class="edge"><title>bn1&#45;&gt;http://example.org/edistk1</title>
<path fill="none" stroke="darkgreen" d="M695.028,-311.543C704.554,-316.572 778.053,-355.376 822.041,-378.599"/>
<polygon fill="darkgreen" stroke="darkgreen" points="820.468,-381.727 830.946,-383.3 823.736,-375.537 820.468,-381.727"/>
<text text-anchor="middle" x="794.5" y="-349.8" font-family="Times New Roman,serif" font-size="14.00">der</text>
</g>
<!-- http://example.org/assign19&#45;&gt;http://example.org/dist_ak1 -->
<g id="edge22" class="edge"><title>http://example.org/assign19&#45;&gt;http://example.org/dist_ak1</title>
<path fill="none" stroke="black" d="M739.527,-182.187C735.443,-190.472 730.456,-200.59 725.912,-209.807"/>
<polygon fill="black" stroke="black" points="722.677,-208.454 721.395,-218.971 728.955,-211.549 722.677,-208.454"/>
<text text-anchor="middle" x="747.863" y="-192.758" font-family="Times New Roman,serif" font-size="8.00">use</text>
</g>
<!-- &#45;attrs5 -->
<g id="node20" class="node"><title>&#45;attrs5</title>
<polygon fill="none" stroke="gray" points="814.5,-109 741.5,-109 741.5,-73 820.5,-73 820.5,-103 814.5,-109"/>
<polyline fill="none" stroke="gray" points="814.5,-109 814.5,-103 "/>
<polyline fill="none" stroke="gray" points="820.5,-103 814.5,-103 "/>
<text text-anchor="start" x="752" y="-88" font-family="Times New Roman,serif" font-size="10.00">type:</text>
<text text-anchor="start" x="775" y="-88" font-family="Times New Roman,serif" font-size="10.00">&quot;assign&quot;</text>
</g>
<!-- &#45;attrs5&#45;&gt;http://example.org/assign19 -->
<g id="edge21" class="edge"><title>&#45;attrs5&#45;&gt;http://example.org/assign19</title>
<path fill="none" stroke="gray" stroke-dasharray="5,2" d="M773.012,-109.187C767.823,-120.35 761.089,-134.84 755.915,-145.971"/>
</g>
</g>
</svg>
