<?xml version="1.0" encoding="UTF-8" standalone="no"?>
<!DOCTYPE svg PUBLIC "-//W3C//DTD SVG 1.1//EN"
 "http://www.w3.org/Graphics/SVG/1.1/DTD/svg11.dtd">
<!-- Generated by graphviz version 2.38.0 (20140413.2041)
 -->
<!-- Title: PROV Pages: 1 -->
<svg width="1152pt" height="339pt"
 viewBox="0.00 0.00 1152.00 339.25" xmlns="http://www.w3.org/2000/svg" xmlns:xlink="http://www.w3.org/1999/xlink">
<g id="graph0" class="graph" transform="scale(0.755562 0.755562) rotate(0) translate(4 445)">
<title>PROV</title>
<polygon fill="white" stroke="none" points="-4,4 -4,-445 1520.69,-445 1520.69,4 -4,4"/>
<!-- http://example.org/dist_ai#9 -->
<g id="node1" class="node"><title>http://example.org/dist_ai#9</title>
<g id="a_node1"><a xlink:href="http://example.org/dist_ai#9" xlink:title="dist_ai#9">
<ellipse fill="#fffc87" stroke="#808080" cx="695" cy="-263" rx="44.393" ry="18"/>
<text text-anchor="middle" x="695" y="-259.3" font-family="Times New Roman,serif" font-size="14.00">dist_ai#9</text>
</a>
</g>
</g>
<!-- bn0 -->
<g id="node5" class="node"><title>bn0</title>
<ellipse fill="black" stroke="black" cx="455" cy="-336" rx="1.8" ry="1.8"/>
</g>
<!-- http://example.org/dist_ai#9&#45;&gt;bn0 -->
<g id="edge3" class="edge"><title>http://example.org/dist_ai#9&#45;&gt;bn0</title>
<path fill="none" stroke="darkgreen" d="M660.358,-274.248C598.049,-292.681 472.079,-329.947 456.576,-334.534"/>
<text text-anchor="middle" x="640.858" y="-278.048" font-family="Times New Roman,serif" font-size="14.00">der&#45;ins</text>
</g>
<!-- http://example.org/access120 -->
<g id="node9" class="node"><title>http://example.org/access120</title>
<g id="a_node9"><a xlink:href="http://example.org/access120" xlink:title="access120">
<polygon fill="#9fb1fc" stroke="#0000ff" points="1079,-354 1005,-354 1005,-318 1079,-318 1079,-354"/>
<text text-anchor="middle" x="1042" y="-332.3" font-family="Times New Roman,serif" font-size="14.00">access120</text>
</a>
</g>
</g>
<!-- http://example.org/dist_ai#9&#45;&gt;http://example.org/access120 -->
<g id="edge11" class="edge"><title>http://example.org/dist_ai#9&#45;&gt;http://example.org/access120</title>
<path fill="none" stroke="black" d="M738.313,-266.629C808.584,-271.315 944.099,-282.223 989,-299 997.388,-302.134 1005.74,-306.857 1013.25,-311.859"/>
<polygon fill="black" stroke="black" points="1011.45,-314.87 1021.63,-317.782 1015.49,-309.153 1011.45,-314.87"/>
<text text-anchor="middle" x="746.697" y="-252.29" font-family="Times New Roman,serif" font-size="8.00">gen</text>
</g>
<!-- http://example.org/disti#4 -->
<g id="node11" class="node"><title>http://example.org/disti#4</title>
<ellipse fill="none" stroke="black" cx="998" cy="-423" rx="102.882" ry="18"/>
<text text-anchor="middle" x="998" y="-419.3" font-family="Times New Roman,serif" font-size="14.00">http://example.org/disti#4</text>
</g>
<!-- http://example.org/dist_ai#9&#45;&gt;http://example.org/disti#4 -->
<g id="edge10" class="edge"><title>http://example.org/dist_ai#9&#45;&gt;http://example.org/disti#4</title>
<path fill="none" stroke="black" d="M738.192,-267.17C783.676,-272.193 855.92,-285.085 909,-318 940.698,-337.656 966.982,-372.301 982.575,-396.168"/>
<polygon fill="black" stroke="black" points="979.701,-398.17 988.017,-404.734 985.609,-394.416 979.701,-398.17"/>
<text text-anchor="middle" x="747.208" y="-253.282" font-family="Times New Roman,serif" font-size="8.00">der</text>
</g>
<!-- &#45;attrs0 -->
<g id="node2" class="node"><title>&#45;attrs0</title>
<polygon fill="none" stroke="gray" points="639.5,-208 546.5,-208 546.5,-159 645.5,-159 645.5,-202 639.5,-208"/>
<polyline fill="none" stroke="gray" points="639.5,-208 639.5,-202 "/>
<polyline fill="none" stroke="gray" points="645.5,-202 639.5,-202 "/>
<text text-anchor="start" x="557" y="-193.5" font-family="Times New Roman,serif" font-size="10.00">value:</text>
<text text-anchor="start" x="584" y="-193.5" font-family="Times New Roman,serif" font-size="10.00">&quot;[2, 3, 0]&quot;</text>
<text text-anchor="start" x="557" y="-180.5" font-family="Times New Roman,serif" font-size="10.00">type:</text>
<text text-anchor="start" x="584" y="-180.5" font-family="Times New Roman,serif" font-size="10.00">&quot;Dictionary&quot;</text>
<text text-anchor="start" x="557" y="-167.5" font-family="Times New Roman,serif" font-size="10.00">label:</text>
<text text-anchor="start" x="584" y="-167.5" font-family="Times New Roman,serif" font-size="10.00">&quot;dist[i]&quot;</text>
</g>
<!-- &#45;attrs0&#45;&gt;http://example.org/dist_ai#9 -->
<g id="edge1" class="edge"><title>&#45;attrs0&#45;&gt;http://example.org/dist_ai#9</title>
<path fill="none" stroke="gray" stroke-dasharray="5,2" d="M626.241,-208.174C642.277,-220.727 661.507,-235.781 675.548,-246.772"/>
</g>
<!-- http://example.org/edist_ai#9 -->
<g id="node3" class="node"><title>http://example.org/edist_ai#9</title>
<g id="a_node3"><a xlink:href="http://example.org/edist_ai#9" xlink:title="edist_ai#9">
<ellipse fill="#fffc87" stroke="#808080" cx="62" cy="-423" rx="48.1917" ry="18"/>
<text text-anchor="middle" x="62" y="-419.3" font-family="Times New Roman,serif" font-size="14.00">edist_ai#9</text>
</a>
</g>
</g>
<!-- &#45;attrs1 -->
<g id="node4" class="node"><title>&#45;attrs1</title>
<polygon fill="none" stroke="gray" points="118,-354 0,-354 0,-318 124,-318 124,-348 118,-354"/>
<polyline fill="none" stroke="gray" points="118,-354 118,-348 "/>
<polyline fill="none" stroke="gray" points="124,-348 118,-348 "/>
<text text-anchor="start" x="10" y="-340" font-family="Times New Roman,serif" font-size="10.00">value:</text>
<text text-anchor="start" x="37" y="-340" font-family="Times New Roman,serif" font-size="10.00">&quot;[]&quot;</text>
<text text-anchor="start" x="10" y="-327" font-family="Times New Roman,serif" font-size="10.00">type:</text>
<text text-anchor="start" x="37" y="-327" font-family="Times New Roman,serif" font-size="10.00">&quot;EmptyDictionary&quot;</text>
</g>
<!-- &#45;attrs1&#45;&gt;http://example.org/edist_ai#9 -->
<g id="edge2" class="edge"><title>&#45;attrs1&#45;&gt;http://example.org/edist_ai#9</title>
<path fill="none" stroke="gray" stroke-dasharray="5,2" d="M62,-354.201C62,-368.948 62,-390.085 62,-404.825"/>
</g>
<!-- bn0&#45;&gt;http://example.org/edist_ai#9 -->
<g id="edge4" class="edge"><title>bn0&#45;&gt;http://example.org/edist_ai#9</title>
<path fill="none" stroke="darkgreen" d="M453.355,-337.278C434.609,-340.459 259.408,-370.487 120,-405 116.101,-405.965 112.071,-407.022 108.036,-408.121"/>
<polygon fill="darkgreen" stroke="darkgreen" points="106.755,-404.845 98.0704,-410.913 108.644,-411.586 106.755,-404.845"/>
<text text-anchor="middle" x="276.5" y="-375.8" font-family="Times New Roman,serif" font-size="14.00">der</text>
</g>
<!-- http://example.org/list20 -->
<g id="node6" class="node"><title>http://example.org/list20</title>
<ellipse fill="none" stroke="black" cx="226" cy="-423" rx="97.4827" ry="18"/>
<text text-anchor="middle" x="226" y="-419.3" font-family="Times New Roman,serif" font-size="14.00">http://example.org/list20</text>
</g>
<!-- bn0&#45;&gt;http://example.org/list20 -->
<g id="edge5" class="edge"><title>bn0&#45;&gt;http://example.org/list20</title>
<path fill="none" stroke="darkgreen" d="M453.355,-337.422C442.962,-340.105 385.409,-355.199 340,-372 316.096,-380.845 290.021,-392.152 268.85,-401.776"/>
<polygon fill="darkgreen" stroke="darkgreen" points="267.125,-398.716 259.493,-406.064 270.042,-405.079 267.125,-398.716"/>
<text text-anchor="middle" x="348" y="-375.8" font-family="Times New Roman,serif" font-size="14.00">[0]</text>
</g>
<!-- http://example.org/disti_aj#9 -->
<g id="node7" class="node"><title>http://example.org/disti_aj#9</title>
<ellipse fill="none" stroke="black" cx="455" cy="-423" rx="113.98" ry="18"/>
<text text-anchor="middle" x="455" y="-419.3" font-family="Times New Roman,serif" font-size="14.00">http://example.org/disti_aj#9</text>
</g>
<!-- bn0&#45;&gt;http://example.org/disti_aj#9 -->
<g id="edge6" class="edge"><title>bn0&#45;&gt;http://example.org/disti_aj#9</title>
<path fill="none" stroke="darkgreen" d="M455,-337.955C455,-343.528 455,-372.391 455,-394.755"/>
<polygon fill="darkgreen" stroke="darkgreen" points="451.5,-394.773 455,-404.773 458.5,-394.773 451.5,-394.773"/>
<text text-anchor="middle" x="463" y="-375.8" font-family="Times New Roman,serif" font-size="14.00">[1]</text>
</g>
<!-- http://example.org/list22 -->
<g id="node8" class="node"><title>http://example.org/list22</title>
<ellipse fill="none" stroke="black" cx="684" cy="-423" rx="97.4827" ry="18"/>
<text text-anchor="middle" x="684" y="-419.3" font-family="Times New Roman,serif" font-size="14.00">http://example.org/list22</text>
</g>
<!-- bn0&#45;&gt;http://example.org/list22 -->
<g id="edge7" class="edge"><title>bn0&#45;&gt;http://example.org/list22</title>
<path fill="none" stroke="darkgreen" d="M456.645,-337.422C467.038,-340.105 524.591,-355.199 570,-372 593.904,-380.845 619.979,-392.152 641.15,-401.776"/>
<polygon fill="darkgreen" stroke="darkgreen" points="639.958,-405.079 650.507,-406.064 642.875,-398.716 639.958,-405.079"/>
<text text-anchor="middle" x="613" y="-375.8" font-family="Times New Roman,serif" font-size="14.00">[2]</text>
</g>
<!-- http://example.org/access120&#45;&gt;http://example.org/disti#4 -->
<g id="edge9" class="edge"><title>http://example.org/access120&#45;&gt;http://example.org/disti#4</title>
<path fill="none" stroke="black" d="M1033.1,-354.201C1026.89,-366.183 1018.51,-382.383 1011.49,-395.943"/>
<polygon fill="black" stroke="black" points="1008.38,-394.335 1006.89,-404.825 1014.6,-397.553 1008.38,-394.335"/>
<text text-anchor="middle" x="1041.18" y="-364.933" font-family="Times New Roman,serif" font-size="8.00">use</text>
</g>
<!-- http://example.org/dist#4 -->
<g id="node12" class="node"><title>http://example.org/dist#4</title>
<ellipse fill="none" stroke="black" cx="1219" cy="-423" rx="100.983" ry="18"/>
<text text-anchor="middle" x="1219" y="-419.3" font-family="Times New Roman,serif" font-size="14.00">http://example.org/dist#4</text>
</g>
<!-- http://example.org/access120&#45;&gt;http://example.org/dist#4 -->
<g id="edge12" class="edge"><title>http://example.org/access120&#45;&gt;http://example.org/dist#4</title>
<path fill="none" stroke="black" d="M1077.82,-354.201C1106.38,-367.917 1146.45,-387.161 1176.61,-401.644"/>
<polygon fill="black" stroke="black" points="1175.1,-404.801 1185.63,-405.975 1178.13,-398.491 1175.1,-404.801"/>
<text text-anchor="middle" x="1090.2" y="-343.838" font-family="Times New Roman,serif" font-size="8.00">use</text>
</g>
<!-- http://example.org/i#9 -->
<g id="node13" class="node"><title>http://example.org/i#9</title>
<ellipse fill="none" stroke="black" cx="1427" cy="-423" rx="89.8845" ry="18"/>
<text text-anchor="middle" x="1427" y="-419.3" font-family="Times New Roman,serif" font-size="14.00">http://example.org/i#9</text>
</g>
<!-- http://example.org/access120&#45;&gt;http://example.org/i#9 -->
<g id="edge13" class="edge"><title>http://example.org/access120&#45;&gt;http://example.org/i#9</title>
<path fill="none" stroke="black" d="M1079.27,-345.227C1143.78,-359.471 1277.18,-388.923 1358.71,-406.922"/>
<polygon fill="black" stroke="black" points="1358.35,-410.429 1368.87,-409.167 1359.86,-403.593 1358.35,-410.429"/>
<text text-anchor="middle" x="1089.39" y="-332.259" font-family="Times New Roman,serif" font-size="8.00">use</text>
</g>
<!-- &#45;attrs2 -->
<g id="node10" class="node"><title>&#45;attrs2</title>
<polygon fill="none" stroke="gray" points="1076,-281 1002,-281 1002,-245 1082,-245 1082,-275 1076,-281"/>
<polyline fill="none" stroke="gray" points="1076,-281 1076,-275 "/>
<polyline fill="none" stroke="gray" points="1082,-275 1076,-275 "/>
<text text-anchor="start" x="1012" y="-260" font-family="Times New Roman,serif" font-size="10.00">type:</text>
<text text-anchor="start" x="1035" y="-260" font-family="Times New Roman,serif" font-size="10.00">&quot;access&quot;</text>
</g>
<!-- &#45;attrs2&#45;&gt;http://example.org/access120 -->
<g id="edge8" class="edge"><title>&#45;attrs2&#45;&gt;http://example.org/access120</title>
<path fill="none" stroke="gray" stroke-dasharray="5,2" d="M1042,-281.187C1042,-292.35 1042,-306.84 1042,-317.971"/>
</g>
<!-- http://example.org/disti#12 -->
<g id="node14" class="node"><title>http://example.org/disti#12</title>
<g id="a_node14"><a xlink:href="http://example.org/disti#12" xlink:title="disti#12">
<ellipse fill="#fffc87" stroke="#808080" cx="674" cy="-104" rx="39.7935" ry="18"/>
<text text-anchor="middle" x="674" y="-100.3" font-family="Times New Roman,serif" font-size="14.00">disti#12</text>
</a>
</g>
</g>
<!-- http://example.org/disti#12&#45;&gt;http://example.org/dist_ai#9 -->
<g id="edge23" class="edge"><title>http://example.org/disti#12&#45;&gt;http://example.org/dist_ai#9</title>
<path fill="none" stroke="black" d="M676.287,-122.101C679.917,-149.234 687.026,-202.386 691.361,-234.793"/>
<polygon fill="black" stroke="black" points="687.921,-235.473 692.715,-244.92 694.859,-234.545 687.921,-235.473"/>
<text text-anchor="middle" x="690.157" y="-125.912" font-family="Times New Roman,serif" font-size="8.00">der</text>
</g>
<!-- bn1 -->
<g id="node18" class="node"><title>bn1</title>
<ellipse fill="black" stroke="black" cx="684" cy="-336" rx="1.8" ry="1.8"/>
</g>
<!-- http://example.org/disti#12&#45;&gt;bn1 -->
<g id="edge16" class="edge"><title>http://example.org/disti#12&#45;&gt;bn1</title>
<path fill="none" stroke="darkgreen" d="M703.04,-116.399C730.191,-127.717 767.758,-145.31 776,-159 804.695,-206.66 780.238,-235.661 748,-281 728.455,-308.487 691.773,-330.504 685.067,-334.39"/>
<text text-anchor="middle" x="722.54" y="-120.199" font-family="Times New Roman,serif" font-size="14.00">der&#45;ins</text>
</g>
<!-- http://example.org/assign44 -->
<g id="node19" class="node"><title>http://example.org/assign44</title>
<g id="a_node19"><a xlink:href="http://example.org/assign44" xlink:title="assign44">
<polygon fill="#9fb1fc" stroke="#0000ff" points="767.5,-201.5 702.5,-201.5 702.5,-165.5 767.5,-165.5 767.5,-201.5"/>
<text text-anchor="middle" x="735" y="-179.8" font-family="Times New Roman,serif" font-size="14.00">assign44</text>
</a>
</g>
</g>
<!-- http://example.org/disti#12&#45;&gt;http://example.org/assign44 -->
<g id="edge24" class="edge"><title>http://example.org/disti#12&#45;&gt;http://example.org/assign44</title>
<path fill="none" stroke="black" d="M686.937,-121.436C695.098,-131.804 705.804,-145.407 715.04,-157.141"/>
<polygon fill="black" stroke="black" points="712.513,-159.589 721.448,-165.282 718.013,-155.26 712.513,-159.589"/>
<text text-anchor="middle" x="701.783" y="-117.395" font-family="Times New Roman,serif" font-size="8.00">gen</text>
</g>
<!-- &#45;attrs3 -->
<g id="node15" class="node"><title>&#45;attrs3</title>
<polygon fill="none" stroke="gray" points="717.5,-49 624.5,-49 624.5,-0 723.5,-0 723.5,-43 717.5,-49"/>
<polyline fill="none" stroke="gray" points="717.5,-49 717.5,-43 "/>
<polyline fill="none" stroke="gray" points="723.5,-43 717.5,-43 "/>
<text text-anchor="start" x="635" y="-34.5" font-family="Times New Roman,serif" font-size="10.00">value:</text>
<text text-anchor="start" x="662" y="-34.5" font-family="Times New Roman,serif" font-size="10.00">&quot;[2, 3, 0]&quot;</text>
<text text-anchor="start" x="635" y="-21.5" font-family="Times New Roman,serif" font-size="10.00">type:</text>
<text text-anchor="start" x="662" y="-21.5" font-family="Times New Roman,serif" font-size="10.00">&quot;Dictionary&quot;</text>
<text text-anchor="start" x="635" y="-8.5" font-family="Times New Roman,serif" font-size="10.00">label:</text>
<text text-anchor="start" x="662" y="-8.5" font-family="Times New Roman,serif" font-size="10.00">&quot;disti&quot;</text>
</g>
<!-- &#45;attrs3&#45;&gt;http://example.org/disti#12 -->
<g id="edge14" class="edge"><title>&#45;attrs3&#45;&gt;http://example.org/disti#12</title>
<path fill="none" stroke="gray" stroke-dasharray="5,2" d="M674,-49.1737C674,-60.9254 674,-74.869 674,-85.6196"/>
</g>
<!-- http://example.org/edisti#9 -->
<g id="node16" class="node"><title>http://example.org/edisti#9</title>
<g id="a_node16"><a xlink:href="http://example.org/edisti#9" xlink:title="edisti#9">
<ellipse fill="#fffc87" stroke="#808080" cx="838" cy="-423" rx="38.9931" ry="18"/>
<text text-anchor="middle" x="838" y="-419.3" font-family="Times New Roman,serif" font-size="14.00">edisti#9</text>
</a>
</g>
</g>
<!-- &#45;attrs4 -->
<g id="node17" class="node"><title>&#45;attrs4</title>
<polygon fill="none" stroke="gray" points="894,-354 776,-354 776,-318 900,-318 900,-348 894,-354"/>
<polyline fill="none" stroke="gray" points="894,-354 894,-348 "/>
<polyline fill="none" stroke="gray" points="900,-348 894,-348 "/>
<text text-anchor="start" x="786" y="-340" font-family="Times New Roman,serif" font-size="10.00">value:</text>
<text text-anchor="start" x="813" y="-340" font-family="Times New Roman,serif" font-size="10.00">&quot;[]&quot;</text>
<text text-anchor="start" x="786" y="-327" font-family="Times New Roman,serif" font-size="10.00">type:</text>
<text text-anchor="start" x="813" y="-327" font-family="Times New Roman,serif" font-size="10.00">&quot;EmptyDictionary&quot;</text>
</g>
<!-- &#45;attrs4&#45;&gt;http://example.org/edisti#9 -->
<g id="edge15" class="edge"><title>&#45;attrs4&#45;&gt;http://example.org/edisti#9</title>
<path fill="none" stroke="gray" stroke-dasharray="5,2" d="M838,-354.201C838,-368.948 838,-390.085 838,-404.825"/>
</g>
<!-- bn1&#45;&gt;http://example.org/list20 -->
<g id="edge18" class="edge"><title>bn1&#45;&gt;http://example.org/list20</title>
<path fill="none" stroke="darkgreen" d="M682.41,-337.165C666.715,-338.801 537.939,-352.498 435,-372 385.558,-381.367 330.198,-394.743 288.881,-405.304"/>
<polygon fill="darkgreen" stroke="darkgreen" points="287.772,-401.975 278.959,-407.855 289.515,-408.755 287.772,-401.975"/>
<text text-anchor="middle" x="443" y="-375.8" font-family="Times New Roman,serif" font-size="14.00">[0]</text>
</g>
<!-- bn1&#45;&gt;http://example.org/disti_aj#9 -->
<g id="edge19" class="edge"><title>bn1&#45;&gt;http://example.org/disti_aj#9</title>
<path fill="none" stroke="darkgreen" d="M682.643,-337.232C672.147,-339.049 602.905,-351.481 550,-372 530.06,-379.734 508.909,-390.58 491.638,-400.195"/>
<polygon fill="darkgreen" stroke="darkgreen" points="489.453,-397.41 482.475,-405.383 492.901,-403.502 489.453,-397.41"/>
<text text-anchor="middle" x="558" y="-375.8" font-family="Times New Roman,serif" font-size="14.00">[1]</text>
</g>
<!-- bn1&#45;&gt;http://example.org/list22 -->
<g id="edge20" class="edge"><title>bn1&#45;&gt;http://example.org/list22</title>
<path fill="none" stroke="darkgreen" d="M684,-337.955C684,-343.528 684,-372.391 684,-394.755"/>
<polygon fill="darkgreen" stroke="darkgreen" points="680.5,-394.773 684,-404.773 687.5,-394.773 680.5,-394.773"/>
<text text-anchor="middle" x="692" y="-375.8" font-family="Times New Roman,serif" font-size="14.00">[2]</text>
</g>
<!-- bn1&#45;&gt;http://example.org/edisti#9 -->
<g id="edge17" class="edge"><title>bn1&#45;&gt;http://example.org/edisti#9</title>
<path fill="none" stroke="darkgreen" d="M684.983,-337.543C694.005,-342.522 763.006,-380.607 805.21,-403.901"/>
<polygon fill="darkgreen" stroke="darkgreen" points="803.586,-407.003 814.033,-408.771 806.969,-400.875 803.586,-407.003"/>
<text text-anchor="middle" x="780.5" y="-375.8" font-family="Times New Roman,serif" font-size="14.00">der</text>
</g>
<!-- http://example.org/assign44&#45;&gt;http://example.org/dist_ai#9 -->
<g id="edge22" class="edge"><title>http://example.org/assign44&#45;&gt;http://example.org/dist_ai#9</title>
<path fill="none" stroke="black" d="M726.123,-201.7C720.908,-211.803 714.214,-224.772 708.372,-236.093"/>
<polygon fill="black" stroke="black" points="705.191,-234.623 703.715,-245.115 711.412,-237.834 705.191,-234.623"/>
<text text-anchor="middle" x="734.226" y="-212.422" font-family="Times New Roman,serif" font-size="8.00">use</text>
</g>
<!-- &#45;attrs5 -->
<g id="node20" class="node"><title>&#45;attrs5</title>
<polygon fill="none" stroke="gray" points="804.5,-122 731.5,-122 731.5,-86 810.5,-86 810.5,-116 804.5,-122"/>
<polyline fill="none" stroke="gray" points="804.5,-122 804.5,-116 "/>
<polyline fill="none" stroke="gray" points="810.5,-116 804.5,-116 "/>
<text text-anchor="start" x="742" y="-101" font-family="Times New Roman,serif" font-size="10.00">type:</text>
<text text-anchor="start" x="765" y="-101" font-family="Times New Roman,serif" font-size="10.00">&quot;assign&quot;</text>
</g>
<!-- &#45;attrs5&#45;&gt;http://example.org/assign44 -->
<g id="edge21" class="edge"><title>&#45;attrs5&#45;&gt;http://example.org/assign44</title>
<path fill="none" stroke="gray" stroke-dasharray="5,2" d="M763.01,-122.2C757.045,-135.043 748.928,-152.517 742.967,-165.348"/>
</g>
</g>
</svg>
