<?xml version="1.0" encoding="UTF-8" standalone="no"?>
<!DOCTYPE svg PUBLIC "-//W3C//DTD SVG 1.1//EN"
 "http://www.w3.org/Graphics/SVG/1.1/DTD/svg11.dtd">
<!-- Generated by graphviz version 2.38.0 (20140413.2041)
 -->
<!-- Title: PROV Pages: 1 -->
<svg width="1152pt" height="494pt"
 viewBox="0.00 0.00 1152.00 493.75" xmlns="http://www.w3.org/2000/svg" xmlns:xlink="http://www.w3.org/1999/xlink">
<g id="graph0" class="graph" transform="scale(0.900998 0.900998) rotate(0) translate(4 544)">
<title>PROV</title>
<polygon fill="white" stroke="none" points="-4,4 -4,-544 1274.58,-544 1274.58,4 -4,4"/>
<!-- http://example.org/disti_ak17 -->
<g id="node1" class="node"><title>http://example.org/disti_ak17</title>
<g id="a_node1"><a xlink:href="http://example.org/disti_ak17" xlink:title="disti_ak17">
<ellipse fill="#fffc87" stroke="#808080" cx="362.54" cy="-378" rx="48.1917" ry="18"/>
<text text-anchor="middle" x="362.54" y="-374.3" font-family="Times New Roman,serif" font-size="14.00">disti_ak17</text>
</a>
</g>
</g>
<!-- http://example.org/access85 -->
<g id="node3" class="node"><title>http://example.org/access85</title>
<g id="a_node3"><a xlink:href="http://example.org/access85" xlink:title="access85">
<polygon fill="#9fb1fc" stroke="#0000ff" points="396.54,-468 328.54,-468 328.54,-432 396.54,-432 396.54,-468"/>
<text text-anchor="middle" x="362.54" y="-446.3" font-family="Times New Roman,serif" font-size="14.00">access85</text>
</a>
</g>
</g>
<!-- http://example.org/disti_ak17&#45;&gt;http://example.org/access85 -->
<g id="edge5" class="edge"><title>http://example.org/disti_ak17&#45;&gt;http://example.org/access85</title>
<path fill="none" stroke="black" d="M362.54,-396.303C362.54,-404.017 362.54,-413.288 362.54,-421.888"/>
<polygon fill="black" stroke="black" points="359.04,-421.896 362.54,-431.896 366.04,-421.896 359.04,-421.896"/>
<text text-anchor="middle" x="375.531" y="-401.903" font-family="Times New Roman,serif" font-size="8.00">gen</text>
</g>
<!-- http://example.org/disti_aj8 -->
<g id="node5" class="node"><title>http://example.org/disti_aj8</title>
<ellipse fill="none" stroke="black" cx="108.54" cy="-522" rx="108.581" ry="18"/>
<text text-anchor="middle" x="108.54" y="-518.3" font-family="Times New Roman,serif" font-size="14.00">http://example.org/disti_aj8</text>
</g>
<!-- http://example.org/disti_ak17&#45;&gt;http://example.org/disti_aj8 -->
<g id="edge4" class="edge"><title>http://example.org/disti_ak17&#45;&gt;http://example.org/disti_aj8</title>
<path fill="none" stroke="black" d="M336.788,-393.397C291.933,-418.473 199.263,-470.281 146.847,-499.584"/>
<polygon fill="black" stroke="black" points="144.881,-496.674 137.861,-504.608 148.297,-502.784 144.881,-496.674"/>
<text text-anchor="middle" x="336.58" y="-406.496" font-family="Times New Roman,serif" font-size="8.00">der</text>
</g>
<!-- &#45;attrs0 -->
<g id="node2" class="node"><title>&#45;attrs0</title>
<polygon fill="none" stroke="gray" points="468.54,-324 390.54,-324 390.54,-288 474.54,-288 474.54,-318 468.54,-324"/>
<polyline fill="none" stroke="gray" points="468.54,-324 468.54,-318 "/>
<polyline fill="none" stroke="gray" points="474.54,-318 468.54,-318 "/>
<text text-anchor="start" x="400.54" y="-310" font-family="Times New Roman,serif" font-size="10.00">value:</text>
<text text-anchor="start" x="427.54" y="-310" font-family="Times New Roman,serif" font-size="10.00">&quot;3&quot;</text>
<text text-anchor="start" x="400.54" y="-297" font-family="Times New Roman,serif" font-size="10.00">type:</text>
<text text-anchor="start" x="427.54" y="-297" font-family="Times New Roman,serif" font-size="10.00">&quot;access&quot;</text>
</g>
<!-- &#45;attrs0&#45;&gt;http://example.org/disti_ak17 -->
<g id="edge1" class="edge"><title>&#45;attrs0&#45;&gt;http://example.org/disti_ak17</title>
<path fill="none" stroke="gray" stroke-dasharray="5,2" d="M415.237,-324.303C404.063,-335.478 389.623,-349.918 378.685,-360.855"/>
</g>
<!-- http://example.org/access85&#45;&gt;http://example.org/disti_aj8 -->
<g id="edge3" class="edge"><title>http://example.org/access85&#45;&gt;http://example.org/disti_aj8</title>
<path fill="none" stroke="black" d="M328.285,-460.441C288.296,-471.461 221.333,-489.916 171.815,-503.562"/>
<polygon fill="black" stroke="black" points="170.868,-500.193 162.157,-506.224 172.728,-506.941 170.868,-500.193"/>
<text text-anchor="middle" x="324.506" y="-473.057" font-family="Times New Roman,serif" font-size="8.00">use</text>
</g>
<!-- http://example.org/disti7 -->
<g id="node6" class="node"><title>http://example.org/disti7</title>
<ellipse fill="none" stroke="black" cx="333.54" cy="-522" rx="98.2828" ry="18"/>
<text text-anchor="middle" x="333.54" y="-518.3" font-family="Times New Roman,serif" font-size="14.00">http://example.org/disti7</text>
</g>
<!-- http://example.org/access85&#45;&gt;http://example.org/disti7 -->
<g id="edge6" class="edge"><title>http://example.org/access85&#45;&gt;http://example.org/disti7</title>
<path fill="none" stroke="black" d="M355.372,-468.303C352.106,-476.187 348.166,-485.696 344.538,-494.454"/>
<polygon fill="black" stroke="black" points="341.22,-493.317 340.626,-503.896 347.687,-495.997 341.22,-493.317"/>
<text text-anchor="middle" x="364.503" y="-478.304" font-family="Times New Roman,serif" font-size="8.00">use</text>
</g>
<!-- http://example.org/k1 -->
<g id="node7" class="node"><title>http://example.org/k1</title>
<ellipse fill="none" stroke="black" cx="536.54" cy="-522" rx="87.1846" ry="18"/>
<text text-anchor="middle" x="536.54" y="-518.3" font-family="Times New Roman,serif" font-size="14.00">http://example.org/k1</text>
</g>
<!-- http://example.org/access85&#45;&gt;http://example.org/k1 -->
<g id="edge7" class="edge"><title>http://example.org/access85&#45;&gt;http://example.org/k1</title>
<path fill="none" stroke="black" d="M396.917,-464.83C423.256,-475.426 459.902,-490.168 489.042,-501.891"/>
<polygon fill="black" stroke="black" points="488.027,-505.256 498.611,-505.741 490.64,-498.761 488.027,-505.256"/>
<text text-anchor="middle" x="408.724" y="-453.677" font-family="Times New Roman,serif" font-size="8.00">use</text>
</g>
<!-- &#45;attrs1 -->
<g id="node4" class="node"><title>&#45;attrs1</title>
<polygon fill="none" stroke="gray" points="502.54,-396 428.54,-396 428.54,-360 508.54,-360 508.54,-390 502.54,-396"/>
<polyline fill="none" stroke="gray" points="502.54,-396 502.54,-390 "/>
<polyline fill="none" stroke="gray" points="508.54,-390 502.54,-390 "/>
<text text-anchor="start" x="438.54" y="-375" font-family="Times New Roman,serif" font-size="10.00">type:</text>
<text text-anchor="start" x="461.54" y="-375" font-family="Times New Roman,serif" font-size="10.00">&quot;access&quot;</text>
</g>
<!-- &#45;attrs1&#45;&gt;http://example.org/access85 -->
<g id="edge2" class="edge"><title>&#45;attrs1&#45;&gt;http://example.org/access85</title>
<path fill="none" stroke="gray" stroke-dasharray="5,2" d="M442.61,-396.124C426.184,-406.971 405.016,-420.95 388.571,-431.81"/>
</g>
<!-- http://example.org/distk_aj17 -->
<g id="node8" class="node"><title>http://example.org/distk_aj17</title>
<g id="a_node8"><a xlink:href="http://example.org/distk_aj17" xlink:title="distk_aj17">
<ellipse fill="#fffc87" stroke="#808080" cx="693.54" cy="-378" rx="48.1917" ry="18"/>
<text text-anchor="middle" x="693.54" y="-374.3" font-family="Times New Roman,serif" font-size="14.00">distk_aj17</text>
</a>
</g>
</g>
<!-- http://example.org/access86 -->
<g id="node10" class="node"><title>http://example.org/access86</title>
<g id="a_node10"><a xlink:href="http://example.org/access86" xlink:title="access86">
<polygon fill="#9fb1fc" stroke="#0000ff" points="836.54,-468 768.54,-468 768.54,-432 836.54,-432 836.54,-468"/>
<text text-anchor="middle" x="802.54" y="-446.3" font-family="Times New Roman,serif" font-size="14.00">access86</text>
</a>
</g>
</g>
<!-- http://example.org/distk_aj17&#45;&gt;http://example.org/access86 -->
<g id="edge12" class="edge"><title>http://example.org/distk_aj17&#45;&gt;http://example.org/access86</title>
<path fill="none" stroke="black" d="M716.656,-393.845C731.45,-403.346 750.925,-415.852 767.588,-426.554"/>
<polygon fill="black" stroke="black" points="765.701,-429.501 776.007,-431.96 769.484,-423.611 765.701,-429.501"/>
<text text-anchor="middle" x="729.987" y="-385.067" font-family="Times New Roman,serif" font-size="8.00">gen</text>
</g>
<!-- http://example.org/list12_0 -->
<g id="node12" class="node"><title>http://example.org/list12_0</title>
<ellipse fill="none" stroke="black" cx="748.54" cy="-522" rx="106.681" ry="18"/>
<text text-anchor="middle" x="748.54" y="-518.3" font-family="Times New Roman,serif" font-size="14.00">http://example.org/list12_0</text>
</g>
<!-- http://example.org/distk_aj17&#45;&gt;http://example.org/list12_0 -->
<g id="edge11" class="edge"><title>http://example.org/distk_aj17&#45;&gt;http://example.org/list12_0</title>
<path fill="none" stroke="black" d="M700.066,-395.847C709.483,-420.162 726.982,-465.34 738.178,-494.247"/>
<polygon fill="black" stroke="black" points="734.977,-495.671 741.852,-503.732 741.504,-493.143 734.977,-495.671"/>
<text text-anchor="middle" x="714.888" y="-396.249" font-family="Times New Roman,serif" font-size="8.00">der</text>
</g>
<!-- &#45;attrs2 -->
<g id="node9" class="node"><title>&#45;attrs2</title>
<polygon fill="none" stroke="gray" points="729.54,-324 651.54,-324 651.54,-288 735.54,-288 735.54,-318 729.54,-324"/>
<polyline fill="none" stroke="gray" points="729.54,-324 729.54,-318 "/>
<polyline fill="none" stroke="gray" points="735.54,-318 729.54,-318 "/>
<text text-anchor="start" x="661.54" y="-310" font-family="Times New Roman,serif" font-size="10.00">value:</text>
<text text-anchor="start" x="688.54" y="-310" font-family="Times New Roman,serif" font-size="10.00">&quot;2&quot;</text>
<text text-anchor="start" x="661.54" y="-297" font-family="Times New Roman,serif" font-size="10.00">type:</text>
<text text-anchor="start" x="688.54" y="-297" font-family="Times New Roman,serif" font-size="10.00">&quot;access&quot;</text>
</g>
<!-- &#45;attrs2&#45;&gt;http://example.org/distk_aj17 -->
<g id="edge8" class="edge"><title>&#45;attrs2&#45;&gt;http://example.org/distk_aj17</title>
<path fill="none" stroke="gray" stroke-dasharray="5,2" d="M693.54,-324.303C693.54,-335.154 693.54,-349.083 693.54,-359.896"/>
</g>
<!-- http://example.org/access86&#45;&gt;http://example.org/list12_0 -->
<g id="edge10" class="edge"><title>http://example.org/access86&#45;&gt;http://example.org/list12_0</title>
<path fill="none" stroke="black" d="M789.192,-468.303C782.784,-476.611 774.983,-486.723 767.935,-495.859"/>
<polygon fill="black" stroke="black" points="765.072,-493.84 761.735,-503.896 770.614,-498.116 765.072,-493.84"/>
<text text-anchor="middle" x="794.897" y="-480.276" font-family="Times New Roman,serif" font-size="8.00">use</text>
</g>
<!-- http://example.org/distk1 -->
<g id="node13" class="node"><title>http://example.org/distk1</title>
<ellipse fill="none" stroke="black" cx="973.54" cy="-522" rx="100.983" ry="18"/>
<text text-anchor="middle" x="973.54" y="-518.3" font-family="Times New Roman,serif" font-size="14.00">http://example.org/distk1</text>
</g>
<!-- http://example.org/access86&#45;&gt;http://example.org/distk1 -->
<g id="edge13" class="edge"><title>http://example.org/access86&#45;&gt;http://example.org/distk1</title>
<path fill="none" stroke="black" d="M836.734,-464.997C862.303,-475.464 897.587,-489.908 925.918,-501.505"/>
<polygon fill="black" stroke="black" points="924.654,-504.77 935.235,-505.319 927.306,-498.292 924.654,-504.77"/>
<text text-anchor="middle" x="848.596" y="-453.917" font-family="Times New Roman,serif" font-size="8.00">use</text>
</g>
<!-- http://example.org/j17 -->
<g id="node14" class="node"><title>http://example.org/j17</title>
<ellipse fill="none" stroke="black" cx="1181.54" cy="-522" rx="89.0842" ry="18"/>
<text text-anchor="middle" x="1181.54" y="-518.3" font-family="Times New Roman,serif" font-size="14.00">http://example.org/j17</text>
</g>
<!-- http://example.org/access86&#45;&gt;http://example.org/j17 -->
<g id="edge14" class="edge"><title>http://example.org/access86&#45;&gt;http://example.org/j17</title>
<path fill="none" stroke="black" d="M836.843,-457.335C897.827,-468.599 1026.37,-492.341 1108.09,-507.435"/>
<polygon fill="black" stroke="black" points="1107.84,-510.948 1118.31,-509.322 1109.11,-504.064 1107.84,-510.948"/>
<text text-anchor="middle" x="846.577" y="-444.023" font-family="Times New Roman,serif" font-size="8.00">use</text>
</g>
<!-- &#45;attrs3 -->
<g id="node11" class="node"><title>&#45;attrs3</title>
<polygon fill="none" stroke="gray" points="836.54,-396 762.54,-396 762.54,-360 842.54,-360 842.54,-390 836.54,-396"/>
<polyline fill="none" stroke="gray" points="836.54,-396 836.54,-390 "/>
<polyline fill="none" stroke="gray" points="842.54,-390 836.54,-390 "/>
<text text-anchor="start" x="772.54" y="-375" font-family="Times New Roman,serif" font-size="10.00">type:</text>
<text text-anchor="start" x="795.54" y="-375" font-family="Times New Roman,serif" font-size="10.00">&quot;access&quot;</text>
</g>
<!-- &#45;attrs3&#45;&gt;http://example.org/access86 -->
<g id="edge9" class="edge"><title>&#45;attrs3&#45;&gt;http://example.org/access86</title>
<path fill="none" stroke="gray" stroke-dasharray="5,2" d="M802.54,-396.303C802.54,-407.154 802.54,-421.083 802.54,-431.896"/>
</g>
<!-- http://example.org/sum17 -->
<g id="node15" class="node"><title>http://example.org/sum17</title>
<g id="a_node15"><a xlink:href="http://example.org/sum17" xlink:title="sum17">
<ellipse fill="#fffc87" stroke="#808080" cx="582.54" cy="-234" rx="34.394" ry="18"/>
<text text-anchor="middle" x="582.54" y="-230.3" font-family="Times New Roman,serif" font-size="14.00">sum17</text>
</a>
</g>
</g>
<!-- http://example.org/sum17&#45;&gt;http://example.org/disti_ak17 -->
<g id="edge18" class="edge"><title>http://example.org/sum17&#45;&gt;http://example.org/disti_ak17</title>
<path fill="none" stroke="black" d="M556.388,-246.073C550.879,-248.198 545.062,-250.291 539.54,-252 470.741,-273.302 432.118,-236.725 381.54,-288 365.719,-304.039 361.628,-329.823 361.108,-349.52"/>
<polygon fill="black" stroke="black" points="357.609,-349.745 361.135,-359.736 364.609,-349.727 357.609,-349.745"/>
<text text-anchor="middle" x="554.029" y="-258.986" font-family="Times New Roman,serif" font-size="8.00">der</text>
</g>
<!-- http://example.org/sum17&#45;&gt;http://example.org/distk_aj17 -->
<g id="edge20" class="edge"><title>http://example.org/sum17&#45;&gt;http://example.org/distk_aj17</title>
<path fill="none" stroke="black" d="M592.364,-251.345C603.641,-269.661 623.097,-299.94 642.54,-324 650.817,-334.242 660.702,-344.833 669.556,-353.83"/>
<polygon fill="black" stroke="black" points="667.147,-356.371 676.692,-360.969 672.098,-351.423 667.147,-356.371"/>
<text text-anchor="middle" x="607.357" y="-248.97" font-family="Times New Roman,serif" font-size="8.00">der</text>
</g>
<!-- http://example.org/add17 -->
<g id="node17" class="node"><title>http://example.org/add17</title>
<g id="a_node17"><a xlink:href="http://example.org/add17" xlink:title="add17">
<polygon fill="#9fb1fc" stroke="#0000ff" points="575.54,-324 521.54,-324 521.54,-288 575.54,-288 575.54,-324"/>
<text text-anchor="middle" x="548.54" y="-302.3" font-family="Times New Roman,serif" font-size="14.00">add17</text>
</a>
</g>
</g>
<!-- http://example.org/sum17&#45;&gt;http://example.org/add17 -->
<g id="edge21" class="edge"><title>http://example.org/sum17&#45;&gt;http://example.org/add17</title>
<path fill="none" stroke="black" d="M574.483,-251.589C570.577,-259.631 565.79,-269.485 561.397,-278.53"/>
<polygon fill="black" stroke="black" points="558.235,-277.029 557.015,-287.553 564.532,-280.087 558.235,-277.029"/>
<text text-anchor="middle" x="582.891" y="-262.111" font-family="Times New Roman,serif" font-size="8.00">gen</text>
</g>
<!-- &#45;attrs4 -->
<g id="node16" class="node"><title>&#45;attrs4</title>
<polygon fill="none" stroke="gray" points="548.04,-180 481.04,-180 481.04,-144 554.04,-144 554.04,-174 548.04,-180"/>
<polyline fill="none" stroke="gray" points="548.04,-180 548.04,-174 "/>
<polyline fill="none" stroke="gray" points="554.04,-174 548.04,-174 "/>
<text text-anchor="start" x="491.54" y="-166" font-family="Times New Roman,serif" font-size="10.00">value:</text>
<text text-anchor="start" x="518.54" y="-166" font-family="Times New Roman,serif" font-size="10.00">&quot;5&quot;</text>
<text text-anchor="start" x="491.54" y="-153" font-family="Times New Roman,serif" font-size="10.00">type:</text>
<text text-anchor="start" x="518.54" y="-153" font-family="Times New Roman,serif" font-size="10.00">&quot;sum&quot;</text>
</g>
<!-- &#45;attrs4&#45;&gt;http://example.org/sum17 -->
<g id="edge15" class="edge"><title>&#45;attrs4&#45;&gt;http://example.org/sum17</title>
<path fill="none" stroke="gray" stroke-dasharray="5,2" d="M533.608,-180.303C544.134,-191.64 557.782,-206.337 567.989,-217.329"/>
</g>
<!-- http://example.org/add17&#45;&gt;http://example.org/disti_ak17 -->
<g id="edge17" class="edge"><title>http://example.org/add17&#45;&gt;http://example.org/disti_ak17</title>
<path fill="none" stroke="black" d="M521.494,-317.179C490.918,-328.686 440.746,-347.568 404.949,-361.04"/>
<polygon fill="black" stroke="black" points="403.388,-357.887 395.262,-364.685 405.854,-364.439 403.388,-357.887"/>
<text text-anchor="middle" x="519.051" y="-330.078" font-family="Times New Roman,serif" font-size="8.00">use</text>
</g>
<!-- http://example.org/add17&#45;&gt;http://example.org/distk_aj17 -->
<g id="edge19" class="edge"><title>http://example.org/add17&#45;&gt;http://example.org/distk_aj17</title>
<path fill="none" stroke="black" d="M575.814,-320.166C598.437,-331.088 630.843,-346.732 655.93,-358.843"/>
<polygon fill="black" stroke="black" points="654.624,-362.099 665.151,-363.295 657.667,-355.795 654.624,-362.099"/>
<text text-anchor="middle" x="588.215" y="-309.829" font-family="Times New Roman,serif" font-size="8.00">use</text>
</g>
<!-- &#45;attrs5 -->
<g id="node18" class="node"><title>&#45;attrs5</title>
<polygon fill="none" stroke="gray" points="524.54,-252 462.54,-252 462.54,-216 530.54,-216 530.54,-246 524.54,-252"/>
<polyline fill="none" stroke="gray" points="524.54,-252 524.54,-246 "/>
<polyline fill="none" stroke="gray" points="530.54,-246 524.54,-246 "/>
<text text-anchor="start" x="472.54" y="-231" font-family="Times New Roman,serif" font-size="10.00">type:</text>
<text text-anchor="start" x="495.54" y="-231" font-family="Times New Roman,serif" font-size="10.00">&quot;add&quot;</text>
</g>
<!-- &#45;attrs5&#45;&gt;http://example.org/add17 -->
<g id="edge16" class="edge"><title>&#45;attrs5&#45;&gt;http://example.org/add17</title>
<path fill="none" stroke="gray" stroke-dasharray="5,2" d="M509.394,-252.303C517.455,-263.154 527.802,-277.083 535.834,-287.896"/>
</g>
<!-- http://example.org/ikj17 -->
<g id="node19" class="node"><title>http://example.org/ikj17</title>
<g id="a_node19"><a xlink:href="http://example.org/ikj17" xlink:title="ikj17">
<ellipse fill="#fffc87" stroke="#808080" cx="582.54" cy="-90" rx="27.8951" ry="18"/>
<text text-anchor="middle" x="582.54" y="-86.3" font-family="Times New Roman,serif" font-size="14.00">ikj17</text>
</a>
</g>
</g>
<!-- http://example.org/ikj17&#45;&gt;http://example.org/sum17 -->
<g id="edge25" class="edge"><title>http://example.org/ikj17&#45;&gt;http://example.org/sum17</title>
<path fill="none" stroke="black" d="M582.54,-108.129C582.54,-132.33 582.54,-176.789 582.54,-205.607"/>
<polygon fill="black" stroke="black" points="579.04,-205.811 582.54,-215.811 586.04,-205.811 579.04,-205.811"/>
<text text-anchor="middle" x="595.531" y="-113.729" font-family="Times New Roman,serif" font-size="8.00">der</text>
</g>
<!-- http://example.org/assign32 -->
<g id="node21" class="node"><title>http://example.org/assign32</title>
<g id="a_node21"><a xlink:href="http://example.org/assign32" xlink:title="assign32">
<polygon fill="#9fb1fc" stroke="#0000ff" points="676.04,-180 611.04,-180 611.04,-144 676.04,-144 676.04,-180"/>
<text text-anchor="middle" x="643.54" y="-158.3" font-family="Times New Roman,serif" font-size="14.00">assign32</text>
</a>
</g>
</g>
<!-- http://example.org/ikj17&#45;&gt;http://example.org/assign32 -->
<g id="edge26" class="edge"><title>http://example.org/ikj17&#45;&gt;http://example.org/assign32</title>
<path fill="none" stroke="black" d="M595.776,-106.189C603.408,-114.946 613.189,-126.17 621.91,-136.178"/>
<polygon fill="black" stroke="black" points="619.407,-138.634 628.616,-143.873 624.685,-134.035 619.407,-138.634"/>
<text text-anchor="middle" x="610.497" y="-101.409" font-family="Times New Roman,serif" font-size="8.00">gen</text>
</g>
<!-- &#45;attrs6 -->
<g id="node20" class="node"><title>&#45;attrs6</title>
<polygon fill="none" stroke="gray" points="615.54,-36 543.54,-36 543.54,-0 621.54,-0 621.54,-30 615.54,-36"/>
<polyline fill="none" stroke="gray" points="615.54,-36 615.54,-30 "/>
<polyline fill="none" stroke="gray" points="621.54,-30 615.54,-30 "/>
<text text-anchor="start" x="553.54" y="-22" font-family="Times New Roman,serif" font-size="10.00">value:</text>
<text text-anchor="start" x="580.54" y="-22" font-family="Times New Roman,serif" font-size="10.00">&quot;5&quot;</text>
<text text-anchor="start" x="553.54" y="-9" font-family="Times New Roman,serif" font-size="10.00">type:</text>
<text text-anchor="start" x="580.54" y="-9" font-family="Times New Roman,serif" font-size="10.00">&quot;name&quot;</text>
</g>
<!-- &#45;attrs6&#45;&gt;http://example.org/ikj17 -->
<g id="edge22" class="edge"><title>&#45;attrs6&#45;&gt;http://example.org/ikj17</title>
<path fill="none" stroke="gray" stroke-dasharray="5,2" d="M582.54,-36.3034C582.54,-47.1537 582.54,-61.0833 582.54,-71.8957"/>
</g>
<!-- http://example.org/assign32&#45;&gt;http://example.org/sum17 -->
<g id="edge24" class="edge"><title>http://example.org/assign32&#45;&gt;http://example.org/sum17</title>
<path fill="none" stroke="black" d="M628.462,-180.303C620.744,-189.16 611.239,-200.068 602.882,-209.657"/>
<polygon fill="black" stroke="black" points="600.128,-207.49 596.197,-217.329 605.405,-212.089 600.128,-207.49"/>
<text text-anchor="middle" x="633.328" y="-192.592" font-family="Times New Roman,serif" font-size="8.00">use</text>
</g>
<!-- &#45;attrs7 -->
<g id="node22" class="node"><title>&#45;attrs7</title>
<polygon fill="none" stroke="gray" points="701.04,-108 628.04,-108 628.04,-72 707.04,-72 707.04,-102 701.04,-108"/>
<polyline fill="none" stroke="gray" points="701.04,-108 701.04,-102 "/>
<polyline fill="none" stroke="gray" points="707.04,-102 701.04,-102 "/>
<text text-anchor="start" x="638.54" y="-87" font-family="Times New Roman,serif" font-size="10.00">type:</text>
<text text-anchor="start" x="661.54" y="-87" font-family="Times New Roman,serif" font-size="10.00">&quot;assign&quot;</text>
</g>
<!-- &#45;attrs7&#45;&gt;http://example.org/assign32 -->
<g id="edge23" class="edge"><title>&#45;attrs7&#45;&gt;http://example.org/assign32</title>
<path fill="none" stroke="gray" stroke-dasharray="5,2" d="M661.608,-108.303C657.888,-119.154 653.112,-133.083 649.405,-143.896"/>
</g>
</g>
</svg>
