<?xml version="1.0" encoding="UTF-8" standalone="no"?>
<!DOCTYPE svg PUBLIC "-//W3C//DTD SVG 1.1//EN"
 "http://www.w3.org/Graphics/SVG/1.1/DTD/svg11.dtd">
<!-- Generated by graphviz version 2.38.0 (20140413.2041)
 -->
<!-- Title: PROV Pages: 1 -->
<svg width="1152pt" height="498pt"
 viewBox="0.00 0.00 1152.00 498.37" xmlns="http://www.w3.org/2000/svg" xmlns:xlink="http://www.w3.org/1999/xlink">
<g id="graph0" class="graph" transform="scale(0.909426 0.909426) rotate(0) translate(4 544)">
<title>PROV</title>
<polygon fill="white" stroke="none" points="-4,4 -4,-544 1262.73,-544 1262.73,4 -4,4"/>
<!-- http://example.org/disti_ak2 -->
<g id="node1" class="node"><title>http://example.org/disti_ak2</title>
<g id="a_node1"><a xlink:href="http://example.org/disti_ak2" xlink:title="disti_ak2">
<ellipse fill="#fffc87" stroke="#808080" cx="357.591" cy="-378" rx="43.5923" ry="18"/>
<text text-anchor="middle" x="357.591" y="-374.3" font-family="Times New Roman,serif" font-size="14.00">disti_ak2</text>
</a>
</g>
</g>
<!-- http://example.org/access13 -->
<g id="node3" class="node"><title>http://example.org/access13</title>
<g id="a_node3"><a xlink:href="http://example.org/access13" xlink:title="access13">
<polygon fill="#9fb1fc" stroke="#0000ff" points="391.591,-468 323.591,-468 323.591,-432 391.591,-432 391.591,-468"/>
<text text-anchor="middle" x="357.591" y="-446.3" font-family="Times New Roman,serif" font-size="14.00">access13</text>
</a>
</g>
</g>
<!-- http://example.org/disti_ak2&#45;&gt;http://example.org/access13 -->
<g id="edge5" class="edge"><title>http://example.org/disti_ak2&#45;&gt;http://example.org/access13</title>
<path fill="none" stroke="black" d="M357.591,-396.303C357.591,-404.017 357.591,-413.288 357.591,-421.888"/>
<polygon fill="black" stroke="black" points="354.091,-421.896 357.591,-431.896 361.091,-421.896 354.091,-421.896"/>
<text text-anchor="middle" x="370.581" y="-401.903" font-family="Times New Roman,serif" font-size="8.00">gen</text>
</g>
<!-- http://example.org/list00_0 -->
<g id="node5" class="node"><title>http://example.org/list00_0</title>
<ellipse fill="none" stroke="black" cx="106.591" cy="-522" rx="106.681" ry="18"/>
<text text-anchor="middle" x="106.591" y="-518.3" font-family="Times New Roman,serif" font-size="14.00">http://example.org/list00_0</text>
</g>
<!-- http://example.org/disti_ak2&#45;&gt;http://example.org/list00_0 -->
<g id="edge4" class="edge"><title>http://example.org/disti_ak2&#45;&gt;http://example.org/list00_0</title>
<path fill="none" stroke="black" d="M332.606,-393.135C288.506,-418.084 196.619,-470.067 144.612,-499.49"/>
<polygon fill="black" stroke="black" points="142.674,-496.565 135.694,-504.535 146.121,-502.657 142.674,-496.565"/>
<text text-anchor="middle" x="332.475" y="-406.234" font-family="Times New Roman,serif" font-size="8.00">der</text>
</g>
<!-- &#45;attrs0 -->
<g id="node2" class="node"><title>&#45;attrs0</title>
<polygon fill="none" stroke="gray" points="463.591,-324 385.591,-324 385.591,-288 469.591,-288 469.591,-318 463.591,-324"/>
<polyline fill="none" stroke="gray" points="463.591,-324 463.591,-318 "/>
<polyline fill="none" stroke="gray" points="469.591,-318 463.591,-318 "/>
<text text-anchor="start" x="395.591" y="-310" font-family="Times New Roman,serif" font-size="10.00">value:</text>
<text text-anchor="start" x="422.591" y="-310" font-family="Times New Roman,serif" font-size="10.00">&quot;0&quot;</text>
<text text-anchor="start" x="395.591" y="-297" font-family="Times New Roman,serif" font-size="10.00">type:</text>
<text text-anchor="start" x="422.591" y="-297" font-family="Times New Roman,serif" font-size="10.00">&quot;access&quot;</text>
</g>
<!-- &#45;attrs0&#45;&gt;http://example.org/disti_ak2 -->
<g id="edge1" class="edge"><title>&#45;attrs0&#45;&gt;http://example.org/disti_ak2</title>
<path fill="none" stroke="gray" stroke-dasharray="5,2" d="M410.287,-324.303C399.113,-335.478 384.673,-349.918 373.735,-360.855"/>
</g>
<!-- http://example.org/access13&#45;&gt;http://example.org/list00_0 -->
<g id="edge3" class="edge"><title>http://example.org/access13&#45;&gt;http://example.org/list00_0</title>
<path fill="none" stroke="black" d="M323.478,-460.513C283.977,-471.53 218.095,-489.903 169.287,-503.515"/>
<polygon fill="black" stroke="black" points="168.149,-500.199 159.456,-506.257 170.029,-506.941 168.149,-500.199"/>
<text text-anchor="middle" x="319.744" y="-473.141" font-family="Times New Roman,serif" font-size="8.00">use</text>
</g>
<!-- http://example.org/disti0 -->
<g id="node6" class="node"><title>http://example.org/disti0</title>
<ellipse fill="none" stroke="black" cx="329.591" cy="-522" rx="98.2828" ry="18"/>
<text text-anchor="middle" x="329.591" y="-518.3" font-family="Times New Roman,serif" font-size="14.00">http://example.org/disti0</text>
</g>
<!-- http://example.org/access13&#45;&gt;http://example.org/disti0 -->
<g id="edge6" class="edge"><title>http://example.org/access13&#45;&gt;http://example.org/disti0</title>
<path fill="none" stroke="black" d="M350.669,-468.303C347.516,-476.187 343.712,-485.696 340.209,-494.454"/>
<polygon fill="black" stroke="black" points="336.897,-493.311 336.432,-503.896 343.396,-495.911 336.897,-493.311"/>
<text text-anchor="middle" x="359.945" y="-478.191" font-family="Times New Roman,serif" font-size="8.00">use</text>
</g>
<!-- http://example.org/k0 -->
<g id="node7" class="node"><title>http://example.org/k0</title>
<ellipse fill="none" stroke="black" cx="532.591" cy="-522" rx="87.1846" ry="18"/>
<text text-anchor="middle" x="532.591" y="-518.3" font-family="Times New Roman,serif" font-size="14.00">http://example.org/k0</text>
</g>
<!-- http://example.org/access13&#45;&gt;http://example.org/k0 -->
<g id="edge7" class="edge"><title>http://example.org/access13&#45;&gt;http://example.org/k0</title>
<path fill="none" stroke="black" d="M391.748,-464.663C418.405,-475.326 455.744,-490.261 485.279,-502.075"/>
<polygon fill="black" stroke="black" points="483.985,-505.328 494.57,-505.792 486.585,-498.828 483.985,-505.328"/>
<text text-anchor="middle" x="403.536" y="-453.487" font-family="Times New Roman,serif" font-size="8.00">use</text>
</g>
<!-- &#45;attrs1 -->
<g id="node4" class="node"><title>&#45;attrs1</title>
<polygon fill="none" stroke="gray" points="493.591,-396 419.591,-396 419.591,-360 499.591,-360 499.591,-390 493.591,-396"/>
<polyline fill="none" stroke="gray" points="493.591,-396 493.591,-390 "/>
<polyline fill="none" stroke="gray" points="499.591,-390 493.591,-390 "/>
<text text-anchor="start" x="429.591" y="-375" font-family="Times New Roman,serif" font-size="10.00">type:</text>
<text text-anchor="start" x="452.591" y="-375" font-family="Times New Roman,serif" font-size="10.00">&quot;access&quot;</text>
</g>
<!-- &#45;attrs1&#45;&gt;http://example.org/access13 -->
<g id="edge2" class="edge"><title>&#45;attrs1&#45;&gt;http://example.org/access13</title>
<path fill="none" stroke="gray" stroke-dasharray="5,2" d="M434.639,-396.124C418.832,-406.971 398.463,-420.95 382.638,-431.81"/>
</g>
<!-- http://example.org/distk_aj2 -->
<g id="node8" class="node"><title>http://example.org/distk_aj2</title>
<g id="a_node8"><a xlink:href="http://example.org/distk_aj2" xlink:title="distk_aj2">
<ellipse fill="#fffc87" stroke="#808080" cx="691.591" cy="-378" rx="43.5923" ry="18"/>
<text text-anchor="middle" x="691.591" y="-374.3" font-family="Times New Roman,serif" font-size="14.00">distk_aj2</text>
</a>
</g>
</g>
<!-- http://example.org/access14 -->
<g id="node10" class="node"><title>http://example.org/access14</title>
<g id="a_node10"><a xlink:href="http://example.org/access14" xlink:title="access14">
<polygon fill="#9fb1fc" stroke="#0000ff" points="831.591,-468 763.591,-468 763.591,-432 831.591,-432 831.591,-468"/>
<text text-anchor="middle" x="797.591" y="-446.3" font-family="Times New Roman,serif" font-size="14.00">access14</text>
</a>
</g>
</g>
<!-- http://example.org/distk_aj2&#45;&gt;http://example.org/access14 -->
<g id="edge12" class="edge"><title>http://example.org/distk_aj2&#45;&gt;http://example.org/access14</title>
<path fill="none" stroke="black" d="M713.812,-393.674C728.051,-403.078 746.828,-415.477 762.995,-426.154"/>
<polygon fill="black" stroke="black" points="761.39,-429.288 771.663,-431.878 765.247,-423.447 761.39,-429.288"/>
<text text-anchor="middle" x="727.229" y="-385.067" font-family="Times New Roman,serif" font-size="8.00">gen</text>
</g>
<!-- http://example.org/list02_0 -->
<g id="node12" class="node"><title>http://example.org/list02_0</title>
<ellipse fill="none" stroke="black" cx="744.591" cy="-522" rx="106.681" ry="18"/>
<text text-anchor="middle" x="744.591" y="-518.3" font-family="Times New Roman,serif" font-size="14.00">http://example.org/list02_0</text>
</g>
<!-- http://example.org/distk_aj2&#45;&gt;http://example.org/list02_0 -->
<g id="edge11" class="edge"><title>http://example.org/distk_aj2&#45;&gt;http://example.org/list02_0</title>
<path fill="none" stroke="black" d="M697.878,-395.847C706.954,-420.162 723.816,-465.34 734.605,-494.247"/>
<polygon fill="black" stroke="black" points="731.37,-495.587 738.146,-503.732 737.928,-493.14 731.37,-495.587"/>
<text text-anchor="middle" x="712.671" y="-396.431" font-family="Times New Roman,serif" font-size="8.00">der</text>
</g>
<!-- &#45;attrs2 -->
<g id="node9" class="node"><title>&#45;attrs2</title>
<polygon fill="none" stroke="gray" points="727.591,-324 649.591,-324 649.591,-288 733.591,-288 733.591,-318 727.591,-324"/>
<polyline fill="none" stroke="gray" points="727.591,-324 727.591,-318 "/>
<polyline fill="none" stroke="gray" points="733.591,-318 727.591,-318 "/>
<text text-anchor="start" x="659.591" y="-310" font-family="Times New Roman,serif" font-size="10.00">value:</text>
<text text-anchor="start" x="686.591" y="-310" font-family="Times New Roman,serif" font-size="10.00">&quot;4&quot;</text>
<text text-anchor="start" x="659.591" y="-297" font-family="Times New Roman,serif" font-size="10.00">type:</text>
<text text-anchor="start" x="686.591" y="-297" font-family="Times New Roman,serif" font-size="10.00">&quot;access&quot;</text>
</g>
<!-- &#45;attrs2&#45;&gt;http://example.org/distk_aj2 -->
<g id="edge8" class="edge"><title>&#45;attrs2&#45;&gt;http://example.org/distk_aj2</title>
<path fill="none" stroke="gray" stroke-dasharray="5,2" d="M691.591,-324.303C691.591,-335.154 691.591,-349.083 691.591,-359.896"/>
</g>
<!-- http://example.org/access14&#45;&gt;http://example.org/list02_0 -->
<g id="edge10" class="edge"><title>http://example.org/access14&#45;&gt;http://example.org/list02_0</title>
<path fill="none" stroke="black" d="M784.489,-468.303C778.2,-476.611 770.543,-486.723 763.626,-495.859"/>
<polygon fill="black" stroke="black" points="760.787,-493.81 757.541,-503.896 766.368,-498.036 760.787,-493.81"/>
<text text-anchor="middle" x="790.319" y="-480.224" font-family="Times New Roman,serif" font-size="8.00">use</text>
</g>
<!-- http://example.org/distk0 -->
<g id="node13" class="node"><title>http://example.org/distk0</title>
<ellipse fill="none" stroke="black" cx="969.591" cy="-522" rx="100.983" ry="18"/>
<text text-anchor="middle" x="969.591" y="-518.3" font-family="Times New Roman,serif" font-size="14.00">http://example.org/distk0</text>
</g>
<!-- http://example.org/access14&#45;&gt;http://example.org/distk0 -->
<g id="edge13" class="edge"><title>http://example.org/access14&#45;&gt;http://example.org/distk0</title>
<path fill="none" stroke="black" d="M831.984,-464.997C857.703,-475.464 893.193,-489.908 921.689,-501.505"/>
<polygon fill="black" stroke="black" points="920.479,-504.791 931.061,-505.319 923.118,-498.308 920.479,-504.791"/>
<text text-anchor="middle" x="843.827" y="-453.892" font-family="Times New Roman,serif" font-size="8.00">use</text>
</g>
<!-- http://example.org/j2 -->
<g id="node14" class="node"><title>http://example.org/j2</title>
<ellipse fill="none" stroke="black" cx="1173.59" cy="-522" rx="85.2851" ry="18"/>
<text text-anchor="middle" x="1173.59" y="-518.3" font-family="Times New Roman,serif" font-size="14.00">http://example.org/j2</text>
</g>
<!-- http://example.org/access14&#45;&gt;http://example.org/j2 -->
<g id="edge14" class="edge"><title>http://example.org/access14&#45;&gt;http://example.org/j2</title>
<path fill="none" stroke="black" d="M831.621,-457.335C892.383,-468.648 1020.75,-492.545 1101.77,-507.629"/>
<polygon fill="black" stroke="black" points="1101.42,-511.125 1111.89,-509.514 1102.7,-504.243 1101.42,-511.125"/>
<text text-anchor="middle" x="841.372" y="-444.037" font-family="Times New Roman,serif" font-size="8.00">use</text>
</g>
<!-- &#45;attrs3 -->
<g id="node11" class="node"><title>&#45;attrs3</title>
<polygon fill="none" stroke="gray" points="831.591,-396 757.591,-396 757.591,-360 837.591,-360 837.591,-390 831.591,-396"/>
<polyline fill="none" stroke="gray" points="831.591,-396 831.591,-390 "/>
<polyline fill="none" stroke="gray" points="837.591,-390 831.591,-390 "/>
<text text-anchor="start" x="767.591" y="-375" font-family="Times New Roman,serif" font-size="10.00">type:</text>
<text text-anchor="start" x="790.591" y="-375" font-family="Times New Roman,serif" font-size="10.00">&quot;access&quot;</text>
</g>
<!-- &#45;attrs3&#45;&gt;http://example.org/access14 -->
<g id="edge9" class="edge"><title>&#45;attrs3&#45;&gt;http://example.org/access14</title>
<path fill="none" stroke="gray" stroke-dasharray="5,2" d="M797.591,-396.303C797.591,-407.154 797.591,-421.083 797.591,-431.896"/>
</g>
<!-- http://example.org/sum2 -->
<g id="node15" class="node"><title>http://example.org/sum2</title>
<g id="a_node15"><a xlink:href="http://example.org/sum2" xlink:title="sum2">
<ellipse fill="#fffc87" stroke="#808080" cx="578.591" cy="-234" rx="30.5947" ry="18"/>
<text text-anchor="middle" x="578.591" y="-230.3" font-family="Times New Roman,serif" font-size="14.00">sum2</text>
</a>
</g>
</g>
<!-- http://example.org/sum2&#45;&gt;http://example.org/disti_ak2 -->
<g id="edge18" class="edge"><title>http://example.org/sum2&#45;&gt;http://example.org/disti_ak2</title>
<path fill="none" stroke="black" d="M555.173,-245.798C549.795,-248.04 544.051,-250.249 538.591,-252 468.356,-274.519 428.526,-235.629 376.591,-288 360.727,-303.997 356.64,-329.786 356.133,-349.495"/>
<polygon fill="black" stroke="black" points="352.634,-349.731 356.168,-359.719 359.634,-349.707 352.634,-349.731"/>
<text text-anchor="middle" x="553.204" y="-258.768" font-family="Times New Roman,serif" font-size="8.00">der</text>
</g>
<!-- http://example.org/sum2&#45;&gt;http://example.org/distk_aj2 -->
<g id="edge20" class="edge"><title>http://example.org/sum2&#45;&gt;http://example.org/distk_aj2</title>
<path fill="none" stroke="black" d="M588.838,-251.307C600.576,-269.589 620.758,-299.838 640.591,-324 648.946,-334.179 658.845,-344.757 667.689,-353.762"/>
<polygon fill="black" stroke="black" points="665.275,-356.298 674.813,-360.912 670.234,-351.358 665.275,-356.298"/>
<text text-anchor="middle" x="603.819" y="-248.653" font-family="Times New Roman,serif" font-size="8.00">der</text>
</g>
<!-- http://example.org/add2 -->
<g id="node17" class="node"><title>http://example.org/add2</title>
<g id="a_node17"><a xlink:href="http://example.org/add2" xlink:title="add2">
<polygon fill="#9fb1fc" stroke="#0000ff" points="570.591,-324 516.591,-324 516.591,-288 570.591,-288 570.591,-324"/>
<text text-anchor="middle" x="543.591" y="-302.3" font-family="Times New Roman,serif" font-size="14.00">add2</text>
</a>
</g>
</g>
<!-- http://example.org/sum2&#45;&gt;http://example.org/add2 -->
<g id="edge21" class="edge"><title>http://example.org/sum2&#45;&gt;http://example.org/add2</title>
<path fill="none" stroke="black" d="M570.296,-251.589C566.275,-259.631 561.348,-269.485 556.825,-278.53"/>
<polygon fill="black" stroke="black" points="553.656,-277.044 552.314,-287.553 559.917,-280.174 553.656,-277.044"/>
<text text-anchor="middle" x="578.561" y="-262.207" font-family="Times New Roman,serif" font-size="8.00">gen</text>
</g>
<!-- &#45;attrs4 -->
<g id="node16" class="node"><title>&#45;attrs4</title>
<polygon fill="none" stroke="gray" points="544.091,-180 477.091,-180 477.091,-144 550.091,-144 550.091,-174 544.091,-180"/>
<polyline fill="none" stroke="gray" points="544.091,-180 544.091,-174 "/>
<polyline fill="none" stroke="gray" points="550.091,-174 544.091,-174 "/>
<text text-anchor="start" x="487.591" y="-166" font-family="Times New Roman,serif" font-size="10.00">value:</text>
<text text-anchor="start" x="514.591" y="-166" font-family="Times New Roman,serif" font-size="10.00">&quot;4&quot;</text>
<text text-anchor="start" x="487.591" y="-153" font-family="Times New Roman,serif" font-size="10.00">type:</text>
<text text-anchor="start" x="514.591" y="-153" font-family="Times New Roman,serif" font-size="10.00">&quot;sum&quot;</text>
</g>
<!-- &#45;attrs4&#45;&gt;http://example.org/sum2 -->
<g id="edge15" class="edge"><title>&#45;attrs4&#45;&gt;http://example.org/sum2</title>
<path fill="none" stroke="gray" stroke-dasharray="5,2" d="M529.658,-180.303C540.335,-191.801 554.222,-206.757 564.474,-217.798"/>
</g>
<!-- http://example.org/add2&#45;&gt;http://example.org/disti_ak2 -->
<g id="edge17" class="edge"><title>http://example.org/add2&#45;&gt;http://example.org/disti_ak2</title>
<path fill="none" stroke="black" d="M516.545,-317.179C485.508,-328.859 434.281,-348.138 398.392,-361.645"/>
<polygon fill="black" stroke="black" points="396.832,-358.492 388.706,-365.29 399.298,-365.043 396.832,-358.492"/>
<text text-anchor="middle" x="514.101" y="-330.078" font-family="Times New Roman,serif" font-size="8.00">use</text>
</g>
<!-- http://example.org/add2&#45;&gt;http://example.org/distk_aj2 -->
<g id="edge19" class="edge"><title>http://example.org/add2&#45;&gt;http://example.org/distk_aj2</title>
<path fill="none" stroke="black" d="M570.736,-319.839C594.371,-331.018 628.838,-347.32 654.921,-359.656"/>
<polygon fill="black" stroke="black" points="653.58,-362.894 664.116,-364.005 656.573,-356.566 653.58,-362.894"/>
<text text-anchor="middle" x="583.07" y="-309.403" font-family="Times New Roman,serif" font-size="8.00">use</text>
</g>
<!-- &#45;attrs5 -->
<g id="node18" class="node"><title>&#45;attrs5</title>
<polygon fill="none" stroke="gray" points="523.591,-252 461.591,-252 461.591,-216 529.591,-216 529.591,-246 523.591,-252"/>
<polyline fill="none" stroke="gray" points="523.591,-252 523.591,-246 "/>
<polyline fill="none" stroke="gray" points="529.591,-246 523.591,-246 "/>
<text text-anchor="start" x="471.591" y="-231" font-family="Times New Roman,serif" font-size="10.00">type:</text>
<text text-anchor="start" x="494.591" y="-231" font-family="Times New Roman,serif" font-size="10.00">&quot;add&quot;</text>
</g>
<!-- &#45;attrs5&#45;&gt;http://example.org/add2 -->
<g id="edge16" class="edge"><title>&#45;attrs5&#45;&gt;http://example.org/add2</title>
<path fill="none" stroke="gray" stroke-dasharray="5,2" d="M507.456,-252.303C514.896,-263.154 524.448,-277.083 531.862,-287.896"/>
</g>
<!-- http://example.org/ikj2 -->
<g id="node19" class="node"><title>http://example.org/ikj2</title>
<g id="a_node19"><a xlink:href="http://example.org/ikj2" xlink:title="ikj2">
<ellipse fill="#fffc87" stroke="#808080" cx="578.591" cy="-90" rx="27" ry="18"/>
<text text-anchor="middle" x="578.591" y="-86.3" font-family="Times New Roman,serif" font-size="14.00">ikj2</text>
</a>
</g>
</g>
<!-- http://example.org/ikj2&#45;&gt;http://example.org/sum2 -->
<g id="edge25" class="edge"><title>http://example.org/ikj2&#45;&gt;http://example.org/sum2</title>
<path fill="none" stroke="black" d="M578.591,-108.129C578.591,-132.33 578.591,-176.789 578.591,-205.607"/>
<polygon fill="black" stroke="black" points="575.091,-205.811 578.591,-215.811 582.091,-205.811 575.091,-205.811"/>
<text text-anchor="middle" x="591.581" y="-113.729" font-family="Times New Roman,serif" font-size="8.00">der</text>
</g>
<!-- http://example.org/assign9 -->
<g id="node21" class="node"><title>http://example.org/assign9</title>
<g id="a_node21"><a xlink:href="http://example.org/assign9" xlink:title="assign9">
<polygon fill="#9fb1fc" stroke="#0000ff" points="664.591,-180 606.591,-180 606.591,-144 664.591,-144 664.591,-180"/>
<text text-anchor="middle" x="635.591" y="-158.3" font-family="Times New Roman,serif" font-size="14.00">assign9</text>
</a>
</g>
</g>
<!-- http://example.org/ikj2&#45;&gt;http://example.org/assign9 -->
<g id="edge26" class="edge"><title>http://example.org/ikj2&#45;&gt;http://example.org/assign9</title>
<path fill="none" stroke="black" d="M590.959,-106.189C598.019,-114.859 607.048,-125.948 615.136,-135.88"/>
<polygon fill="black" stroke="black" points="612.616,-138.329 621.644,-143.873 618.044,-133.909 612.616,-138.329"/>
<text text-anchor="middle" x="605.768" y="-101.902" font-family="Times New Roman,serif" font-size="8.00">gen</text>
</g>
<!-- &#45;attrs6 -->
<g id="node20" class="node"><title>&#45;attrs6</title>
<polygon fill="none" stroke="gray" points="611.591,-36 539.591,-36 539.591,-0 617.591,-0 617.591,-30 611.591,-36"/>
<polyline fill="none" stroke="gray" points="611.591,-36 611.591,-30 "/>
<polyline fill="none" stroke="gray" points="617.591,-30 611.591,-30 "/>
<text text-anchor="start" x="549.591" y="-22" font-family="Times New Roman,serif" font-size="10.00">value:</text>
<text text-anchor="start" x="576.591" y="-22" font-family="Times New Roman,serif" font-size="10.00">&quot;4&quot;</text>
<text text-anchor="start" x="549.591" y="-9" font-family="Times New Roman,serif" font-size="10.00">type:</text>
<text text-anchor="start" x="576.591" y="-9" font-family="Times New Roman,serif" font-size="10.00">&quot;name&quot;</text>
</g>
<!-- &#45;attrs6&#45;&gt;http://example.org/ikj2 -->
<g id="edge22" class="edge"><title>&#45;attrs6&#45;&gt;http://example.org/ikj2</title>
<path fill="none" stroke="gray" stroke-dasharray="5,2" d="M578.591,-36.3034C578.591,-47.1537 578.591,-61.0833 578.591,-71.8957"/>
</g>
<!-- http://example.org/assign9&#45;&gt;http://example.org/sum2 -->
<g id="edge24" class="edge"><title>http://example.org/assign9&#45;&gt;http://example.org/sum2</title>
<path fill="none" stroke="black" d="M621.501,-180.303C614.361,-189.071 605.584,-199.85 597.833,-209.369"/>
<polygon fill="black" stroke="black" points="594.952,-207.364 591.351,-217.329 600.38,-211.784 594.952,-207.364"/>
<text text-anchor="middle" x="626.838" y="-192.422" font-family="Times New Roman,serif" font-size="8.00">use</text>
</g>
<!-- &#45;attrs7 -->
<g id="node22" class="node"><title>&#45;attrs7</title>
<polygon fill="none" stroke="gray" points="697.091,-108 624.091,-108 624.091,-72 703.091,-72 703.091,-102 697.091,-108"/>
<polyline fill="none" stroke="gray" points="697.091,-108 697.091,-102 "/>
<polyline fill="none" stroke="gray" points="703.091,-102 697.091,-102 "/>
<text text-anchor="start" x="634.591" y="-87" font-family="Times New Roman,serif" font-size="10.00">type:</text>
<text text-anchor="start" x="657.591" y="-87" font-family="Times New Roman,serif" font-size="10.00">&quot;assign&quot;</text>
</g>
<!-- &#45;attrs7&#45;&gt;http://example.org/assign9 -->
<g id="edge23" class="edge"><title>&#45;attrs7&#45;&gt;http://example.org/assign9</title>
<path fill="none" stroke="gray" stroke-dasharray="5,2" d="M656.669,-108.303C652.329,-119.154 646.757,-133.083 642.432,-143.896"/>
</g>
</g>
</svg>
