<?xml version="1.0" encoding="UTF-8" standalone="no"?>
<!DOCTYPE svg PUBLIC "-//W3C//DTD SVG 1.1//EN"
 "http://www.w3.org/Graphics/SVG/1.1/DTD/svg11.dtd">
<!-- Generated by graphviz version 2.38.0 (20140413.2041)
 -->
<!-- Title: PROV Pages: 1 -->
<svg width="632pt" height="260pt"
 viewBox="0.00 0.00 631.63 260.00" xmlns="http://www.w3.org/2000/svg" xmlns:xlink="http://www.w3.org/1999/xlink">
<g id="graph0" class="graph" transform="scale(1 1) rotate(0) translate(4 256)">
<title>PROV</title>
<polygon fill="white" stroke="none" points="-4,4 -4,-256 627.633,-256 627.633,4 -4,4"/>
<!-- http://example.org/disti_aj14 -->
<g id="node1" class="node"><title>http://example.org/disti_aj14</title>
<g id="a_node1"><a xlink:href="http://example.org/disti_aj14" xlink:title="disti_aj14">
<ellipse fill="#fffc87" stroke="#808080" cx="151.591" cy="-90" rx="45.4919" ry="18"/>
<text text-anchor="middle" x="151.591" y="-86.3" font-family="Times New Roman,serif" font-size="14.00">disti_aj14</text>
</a>
</g>
</g>
<!-- http://example.org/access65 -->
<g id="node3" class="node"><title>http://example.org/access65</title>
<g id="a_node3"><a xlink:href="http://example.org/access65" xlink:title="access65">
<polygon fill="#9fb1fc" stroke="#0000ff" points="348.591,-180 280.591,-180 280.591,-144 348.591,-144 348.591,-180"/>
<text text-anchor="middle" x="314.591" y="-158.3" font-family="Times New Roman,serif" font-size="14.00">access65</text>
</a>
</g>
</g>
<!-- http://example.org/disti_aj14&#45;&gt;http://example.org/access65 -->
<g id="edge5" class="edge"><title>http://example.org/disti_aj14&#45;&gt;http://example.org/access65</title>
<path fill="none" stroke="black" d="M181.487,-103.839C206.59,-114.619 242.787,-130.164 271.099,-142.323"/>
<polygon fill="black" stroke="black" points="269.801,-145.574 280.371,-146.304 272.563,-139.142 269.801,-145.574"/>
<text text-anchor="middle" x="193.505" y="-92.9623" font-family="Times New Roman,serif" font-size="8.00">gen</text>
</g>
<!-- http://example.org/list10_0 -->
<g id="node5" class="node"><title>http://example.org/list10_0</title>
<ellipse fill="none" stroke="black" cx="106.591" cy="-234" rx="106.681" ry="18"/>
<text text-anchor="middle" x="106.591" y="-230.3" font-family="Times New Roman,serif" font-size="14.00">http://example.org/list10_0</text>
</g>
<!-- http://example.org/disti_aj14&#45;&gt;http://example.org/list10_0 -->
<g id="edge4" class="edge"><title>http://example.org/disti_aj14&#45;&gt;http://example.org/list10_0</title>
<path fill="none" stroke="black" d="M146.162,-108.129C138.459,-132.436 124.28,-177.181 115.151,-205.987"/>
<polygon fill="black" stroke="black" points="111.722,-205.221 112.038,-215.811 118.395,-207.335 111.722,-205.221"/>
<text text-anchor="middle" x="156.28" y="-117.302" font-family="Times New Roman,serif" font-size="8.00">der</text>
</g>
<!-- &#45;attrs0 -->
<g id="node2" class="node"><title>&#45;attrs0</title>
<polygon fill="none" stroke="gray" points="187.591,-36 109.591,-36 109.591,-0 193.591,-0 193.591,-30 187.591,-36"/>
<polyline fill="none" stroke="gray" points="187.591,-36 187.591,-30 "/>
<polyline fill="none" stroke="gray" points="193.591,-30 187.591,-30 "/>
<text text-anchor="start" x="119.591" y="-22" font-family="Times New Roman,serif" font-size="10.00">value:</text>
<text text-anchor="start" x="146.591" y="-22" font-family="Times New Roman,serif" font-size="10.00">&quot;10000&quot;</text>
<text text-anchor="start" x="119.591" y="-9" font-family="Times New Roman,serif" font-size="10.00">type:</text>
<text text-anchor="start" x="146.591" y="-9" font-family="Times New Roman,serif" font-size="10.00">&quot;access&quot;</text>
</g>
<!-- &#45;attrs0&#45;&gt;http://example.org/disti_aj14 -->
<g id="edge1" class="edge"><title>&#45;attrs0&#45;&gt;http://example.org/disti_aj14</title>
<path fill="none" stroke="gray" stroke-dasharray="5,2" d="M151.591,-36.3034C151.591,-47.1537 151.591,-61.0833 151.591,-71.8957"/>
</g>
<!-- http://example.org/access65&#45;&gt;http://example.org/list10_0 -->
<g id="edge3" class="edge"><title>http://example.org/access65&#45;&gt;http://example.org/list10_0</title>
<path fill="none" stroke="black" d="M280.244,-174.559C248.149,-185.36 199.677,-201.673 162.093,-214.321"/>
<polygon fill="black" stroke="black" points="160.659,-211.111 152.297,-217.618 162.891,-217.745 160.659,-211.111"/>
<text text-anchor="middle" x="277.279" y="-187.363" font-family="Times New Roman,serif" font-size="8.00">use</text>
</g>
<!-- http://example.org/disti6 -->
<g id="node6" class="node"><title>http://example.org/disti6</title>
<ellipse fill="none" stroke="black" cx="329.591" cy="-234" rx="98.2828" ry="18"/>
<text text-anchor="middle" x="329.591" y="-230.3" font-family="Times New Roman,serif" font-size="14.00">http://example.org/disti6</text>
</g>
<!-- http://example.org/access65&#45;&gt;http://example.org/disti6 -->
<g id="edge6" class="edge"><title>http://example.org/access65&#45;&gt;http://example.org/disti6</title>
<path fill="none" stroke="black" d="M318.298,-180.303C319.951,-188.017 321.938,-197.288 323.781,-205.888"/>
<polygon fill="black" stroke="black" points="320.408,-206.851 325.925,-215.896 327.252,-205.384 320.408,-206.851"/>
<text text-anchor="middle" x="332.572" y="-183.015" font-family="Times New Roman,serif" font-size="8.00">use</text>
</g>
<!-- http://example.org/j12 -->
<g id="node7" class="node"><title>http://example.org/j12</title>
<ellipse fill="none" stroke="black" cx="534.591" cy="-234" rx="89.0842" ry="18"/>
<text text-anchor="middle" x="534.591" y="-230.3" font-family="Times New Roman,serif" font-size="14.00">http://example.org/j12</text>
</g>
<!-- http://example.org/access65&#45;&gt;http://example.org/j12 -->
<g id="edge7" class="edge"><title>http://example.org/access65&#45;&gt;http://example.org/j12</title>
<path fill="none" stroke="black" d="M348.966,-173.938C383.872,-185.044 438.471,-202.417 479.435,-215.45"/>
<polygon fill="black" stroke="black" points="478.416,-218.799 489.006,-218.496 480.538,-212.129 478.416,-218.799"/>
<text text-anchor="middle" x="360.051" y="-161.933" font-family="Times New Roman,serif" font-size="8.00">use</text>
</g>
<!-- &#45;attrs1 -->
<g id="node4" class="node"><title>&#45;attrs1</title>
<polygon fill="none" stroke="gray" points="348.591,-108 274.591,-108 274.591,-72 354.591,-72 354.591,-102 348.591,-108"/>
<polyline fill="none" stroke="gray" points="348.591,-108 348.591,-102 "/>
<polyline fill="none" stroke="gray" points="354.591,-102 348.591,-102 "/>
<text text-anchor="start" x="284.591" y="-87" font-family="Times New Roman,serif" font-size="10.00">type:</text>
<text text-anchor="start" x="307.591" y="-87" font-family="Times New Roman,serif" font-size="10.00">&quot;access&quot;</text>
</g>
<!-- &#45;attrs1&#45;&gt;http://example.org/access65 -->
<g id="edge2" class="edge"><title>&#45;attrs1&#45;&gt;http://example.org/access65</title>
<path fill="none" stroke="gray" stroke-dasharray="5,2" d="M314.591,-108.303C314.591,-119.154 314.591,-133.083 314.591,-143.896"/>
</g>
</g>
</svg>
