<?xml version="1.0" encoding="UTF-8" standalone="no"?>
<!DOCTYPE svg PUBLIC "-//W3C//DTD SVG 1.1//EN"
 "http://www.w3.org/Graphics/SVG/1.1/DTD/svg11.dtd">
<!-- Generated by graphviz version 2.38.0 (20140413.2041)
 -->
<!-- Title: PROV Pages: 1 -->
<svg width="642pt" height="273pt"
 viewBox="0.00 0.00 641.73 273.00" xmlns="http://www.w3.org/2000/svg" xmlns:xlink="http://www.w3.org/1999/xlink">
<g id="graph0" class="graph" transform="scale(1 1) rotate(0) translate(4 269)">
<title>PROV</title>
<polygon fill="white" stroke="none" points="-4,4 -4,-269 637.733,-269 637.733,4 -4,4"/>
<!-- http://example.org/disti_aj#28 -->
<g id="node1" class="node"><title>http://example.org/disti_aj#28</title>
<g id="a_node1"><a xlink:href="http://example.org/disti_aj#28" xlink:title="disti_aj#28">
<ellipse fill="#fffc87" stroke="#808080" cx="140.491" cy="-103" rx="50.0912" ry="18"/>
<text text-anchor="middle" x="140.491" y="-99.3" font-family="Times New Roman,serif" font-size="14.00">disti_aj#28</text>
</a>
</g>
</g>
<!-- http://example.org/access124 -->
<g id="node3" class="node"><title>http://example.org/access124</title>
<g id="a_node3"><a xlink:href="http://example.org/access124" xlink:title="access124">
<polygon fill="#9fb1fc" stroke="#0000ff" points="342.491,-193 268.491,-193 268.491,-157 342.491,-157 342.491,-193"/>
<text text-anchor="middle" x="305.491" y="-171.3" font-family="Times New Roman,serif" font-size="14.00">access124</text>
</a>
</g>
</g>
<!-- http://example.org/disti_aj#28&#45;&gt;http://example.org/access124 -->
<g id="edge5" class="edge"><title>http://example.org/disti_aj#28&#45;&gt;http://example.org/access124</title>
<path fill="none" stroke="black" d="M171.527,-117.166C196.078,-127.582 230.753,-142.293 258.674,-154.138"/>
<polygon fill="black" stroke="black" points="257.668,-157.513 268.24,-158.197 260.401,-151.069 257.668,-157.513"/>
<text text-anchor="middle" x="183.504" y="-106.237" font-family="Times New Roman,serif" font-size="8.00">gen</text>
</g>
<!-- http://example.org/list20 -->
<g id="node5" class="node"><title>http://example.org/list20</title>
<ellipse fill="none" stroke="black" cx="97.4913" cy="-247" rx="97.4827" ry="18"/>
<text text-anchor="middle" x="97.4913" y="-243.3" font-family="Times New Roman,serif" font-size="14.00">http://example.org/list20</text>
</g>
<!-- http://example.org/disti_aj#28&#45;&gt;http://example.org/list20 -->
<g id="edge4" class="edge"><title>http://example.org/disti_aj#28&#45;&gt;http://example.org/list20</title>
<path fill="none" stroke="black" d="M135.305,-121.129C127.944,-145.436 114.394,-190.181 105.671,-218.987"/>
<polygon fill="black" stroke="black" points="102.245,-218.226 102.697,-228.811 108.945,-220.254 102.245,-218.226"/>
<text text-anchor="middle" x="145.564" y="-130.172" font-family="Times New Roman,serif" font-size="8.00">der</text>
</g>
<!-- &#45;attrs0 -->
<g id="node2" class="node"><title>&#45;attrs0</title>
<polygon fill="none" stroke="gray" points="176.491,-49 98.4913,-49 98.4913,-0 182.491,-0 182.491,-43 176.491,-49"/>
<polyline fill="none" stroke="gray" points="176.491,-49 176.491,-43 "/>
<polyline fill="none" stroke="gray" points="182.491,-43 176.491,-43 "/>
<text text-anchor="start" x="108.491" y="-34.5" font-family="Times New Roman,serif" font-size="10.00">value:</text>
<text text-anchor="start" x="135.491" y="-34.5" font-family="Times New Roman,serif" font-size="10.00">&quot;2&quot;</text>
<text text-anchor="start" x="108.491" y="-21.5" font-family="Times New Roman,serif" font-size="10.00">type:</text>
<text text-anchor="start" x="135.491" y="-21.5" font-family="Times New Roman,serif" font-size="10.00">&quot;access&quot;</text>
<text text-anchor="start" x="108.491" y="-8.5" font-family="Times New Roman,serif" font-size="10.00">label:</text>
<text text-anchor="start" x="135.491" y="-8.5" font-family="Times New Roman,serif" font-size="10.00">&quot;disti[j]&quot;</text>
</g>
<!-- &#45;attrs0&#45;&gt;http://example.org/disti_aj#28 -->
<g id="edge1" class="edge"><title>&#45;attrs0&#45;&gt;http://example.org/disti_aj#28</title>
<path fill="none" stroke="gray" stroke-dasharray="5,2" d="M140.491,-49.2857C140.491,-60.6896 140.491,-74.105 140.491,-84.5482"/>
</g>
<!-- http://example.org/access124&#45;&gt;http://example.org/list20 -->
<g id="edge3" class="edge"><title>http://example.org/access124&#45;&gt;http://example.org/list20</title>
<path fill="none" stroke="black" d="M268.305,-188.515C235.911,-199.417 188.518,-215.366 151.866,-227.701"/>
<polygon fill="black" stroke="black" points="150.678,-224.408 142.316,-230.915 152.91,-231.042 150.678,-224.408"/>
<text text-anchor="middle" x="265.34" y="-201.319" font-family="Times New Roman,serif" font-size="8.00">use</text>
</g>
<!-- http://example.org/disti#12 -->
<g id="node6" class="node"><title>http://example.org/disti#12</title>
<ellipse fill="none" stroke="black" cx="320.491" cy="-247" rx="107.482" ry="18"/>
<text text-anchor="middle" x="320.491" y="-243.3" font-family="Times New Roman,serif" font-size="14.00">http://example.org/disti#12</text>
</g>
<!-- http://example.org/access124&#45;&gt;http://example.org/disti#12 -->
<g id="edge6" class="edge"><title>http://example.org/access124&#45;&gt;http://example.org/disti#12</title>
<path fill="none" stroke="black" d="M309.199,-193.303C310.852,-201.017 312.839,-210.288 314.682,-218.888"/>
<polygon fill="black" stroke="black" points="311.308,-219.851 316.826,-228.896 318.153,-218.384 311.308,-219.851"/>
<text text-anchor="middle" x="323.473" y="-196.015" font-family="Times New Roman,serif" font-size="8.00">use</text>
</g>
<!-- http://example.org/j#25 -->
<g id="node7" class="node"><title>http://example.org/j#25</title>
<ellipse fill="none" stroke="black" cx="539.491" cy="-247" rx="94.4839" ry="18"/>
<text text-anchor="middle" x="539.491" y="-243.3" font-family="Times New Roman,serif" font-size="14.00">http://example.org/j#25</text>
</g>
<!-- http://example.org/access124&#45;&gt;http://example.org/j#25 -->
<g id="edge7" class="edge"><title>http://example.org/access124&#45;&gt;http://example.org/j#25</title>
<path fill="none" stroke="black" d="M342.569,-187.092C379.83,-198.238 437.806,-215.581 481.219,-228.568"/>
<polygon fill="black" stroke="black" points="480.22,-231.922 490.803,-231.435 482.226,-225.216 480.22,-231.922"/>
<text text-anchor="middle" x="353.478" y="-174.896" font-family="Times New Roman,serif" font-size="8.00">use</text>
</g>
<!-- &#45;attrs1 -->
<g id="node4" class="node"><title>&#45;attrs1</title>
<polygon fill="none" stroke="gray" points="339.491,-121 265.491,-121 265.491,-85 345.491,-85 345.491,-115 339.491,-121"/>
<polyline fill="none" stroke="gray" points="339.491,-121 339.491,-115 "/>
<polyline fill="none" stroke="gray" points="345.491,-115 339.491,-115 "/>
<text text-anchor="start" x="275.491" y="-100" font-family="Times New Roman,serif" font-size="10.00">type:</text>
<text text-anchor="start" x="298.491" y="-100" font-family="Times New Roman,serif" font-size="10.00">&quot;access&quot;</text>
</g>
<!-- &#45;attrs1&#45;&gt;http://example.org/access124 -->
<g id="edge2" class="edge"><title>&#45;attrs1&#45;&gt;http://example.org/access124</title>
<path fill="none" stroke="gray" stroke-dasharray="5,2" d="M305.491,-121.303C305.491,-132.154 305.491,-146.083 305.491,-156.896"/>
</g>
</g>
</svg>
