<?xml version="1.0" encoding="UTF-8" standalone="no"?>
<!DOCTYPE svg PUBLIC "-//W3C//DTD SVG 1.1//EN"
 "http://www.w3.org/Graphics/SVG/1.1/DTD/svg11.dtd">
<!-- Generated by graphviz version 2.38.0 (20140413.2041)
 -->
<!-- Title: PROV Pages: 1 -->
<svg width="633pt" height="273pt"
 viewBox="0.00 0.00 632.73 273.00" xmlns="http://www.w3.org/2000/svg" xmlns:xlink="http://www.w3.org/1999/xlink">
<g id="graph0" class="graph" transform="scale(1 1) rotate(0) translate(4 269)">
<title>PROV</title>
<polygon fill="white" stroke="none" points="-4,4 -4,-269 628.733,-269 628.733,4 -4,4"/>
<!-- http://example.org/disti_aj#22 -->
<g id="node1" class="node"><title>http://example.org/disti_aj#22</title>
<g id="a_node1"><a xlink:href="http://example.org/disti_aj#22" xlink:title="disti_aj#22">
<ellipse fill="#fffc87" stroke="#808080" cx="138.491" cy="-103" rx="50.0912" ry="18"/>
<text text-anchor="middle" x="138.491" y="-99.3" font-family="Times New Roman,serif" font-size="14.00">disti_aj#22</text>
</a>
</g>
</g>
<!-- http://example.org/access100 -->
<g id="node3" class="node"><title>http://example.org/access100</title>
<g id="a_node3"><a xlink:href="http://example.org/access100" xlink:title="access100">
<polygon fill="#9fb1fc" stroke="#0000ff" points="338.491,-193 264.491,-193 264.491,-157 338.491,-157 338.491,-193"/>
<text text-anchor="middle" x="301.491" y="-171.3" font-family="Times New Roman,serif" font-size="14.00">access100</text>
</a>
</g>
</g>
<!-- http://example.org/disti_aj#22&#45;&gt;http://example.org/access100 -->
<g id="edge5" class="edge"><title>http://example.org/disti_aj#22&#45;&gt;http://example.org/access100</title>
<path fill="none" stroke="black" d="M169.534,-117.331C193.661,-127.693 227.515,-142.231 254.891,-153.988"/>
<polygon fill="black" stroke="black" points="253.708,-157.289 264.278,-158.019 256.47,-150.857 253.708,-157.289"/>
<text text-anchor="middle" x="181.551" y="-106.454" font-family="Times New Roman,serif" font-size="8.00">gen</text>
</g>
<!-- http://example.org/list01 -->
<g id="node5" class="node"><title>http://example.org/list01</title>
<ellipse fill="none" stroke="black" cx="97.4913" cy="-247" rx="97.4827" ry="18"/>
<text text-anchor="middle" x="97.4913" y="-243.3" font-family="Times New Roman,serif" font-size="14.00">http://example.org/list01</text>
</g>
<!-- http://example.org/disti_aj#22&#45;&gt;http://example.org/list01 -->
<g id="edge4" class="edge"><title>http://example.org/disti_aj#22&#45;&gt;http://example.org/list01</title>
<path fill="none" stroke="black" d="M133.546,-121.129C126.527,-145.436 113.608,-190.181 105.291,-218.987"/>
<polygon fill="black" stroke="black" points="101.866,-218.232 102.454,-228.811 108.591,-220.174 101.866,-218.232"/>
<text text-anchor="middle" x="143.946" y="-130.038" font-family="Times New Roman,serif" font-size="8.00">der</text>
</g>
<!-- &#45;attrs0 -->
<g id="node2" class="node"><title>&#45;attrs0</title>
<polygon fill="none" stroke="gray" points="174.491,-49 96.4913,-49 96.4913,-0 180.491,-0 180.491,-43 174.491,-49"/>
<polyline fill="none" stroke="gray" points="174.491,-49 174.491,-43 "/>
<polyline fill="none" stroke="gray" points="180.491,-43 174.491,-43 "/>
<text text-anchor="start" x="106.491" y="-34.5" font-family="Times New Roman,serif" font-size="10.00">value:</text>
<text text-anchor="start" x="133.491" y="-34.5" font-family="Times New Roman,serif" font-size="10.00">&quot;1&quot;</text>
<text text-anchor="start" x="106.491" y="-21.5" font-family="Times New Roman,serif" font-size="10.00">type:</text>
<text text-anchor="start" x="133.491" y="-21.5" font-family="Times New Roman,serif" font-size="10.00">&quot;access&quot;</text>
<text text-anchor="start" x="106.491" y="-8.5" font-family="Times New Roman,serif" font-size="10.00">label:</text>
<text text-anchor="start" x="133.491" y="-8.5" font-family="Times New Roman,serif" font-size="10.00">&quot;disti[j]&quot;</text>
</g>
<!-- &#45;attrs0&#45;&gt;http://example.org/disti_aj#22 -->
<g id="edge1" class="edge"><title>&#45;attrs0&#45;&gt;http://example.org/disti_aj#22</title>
<path fill="none" stroke="gray" stroke-dasharray="5,2" d="M138.491,-49.2857C138.491,-60.6896 138.491,-74.105 138.491,-84.5482"/>
</g>
<!-- http://example.org/access100&#45;&gt;http://example.org/list01 -->
<g id="edge3" class="edge"><title>http://example.org/access100&#45;&gt;http://example.org/list01</title>
<path fill="none" stroke="black" d="M264.075,-188.839C232.532,-199.662 186.993,-215.289 151.497,-227.469"/>
<polygon fill="black" stroke="black" points="150.095,-224.249 141.772,-230.806 152.367,-230.87 150.095,-224.249"/>
<text text-anchor="middle" x="261.197" y="-201.66" font-family="Times New Roman,serif" font-size="8.00">use</text>
</g>
<!-- http://example.org/disti#9 -->
<g id="node6" class="node"><title>http://example.org/disti#9</title>
<ellipse fill="none" stroke="black" cx="315.491" cy="-247" rx="102.882" ry="18"/>
<text text-anchor="middle" x="315.491" y="-243.3" font-family="Times New Roman,serif" font-size="14.00">http://example.org/disti#9</text>
</g>
<!-- http://example.org/access100&#45;&gt;http://example.org/disti#9 -->
<g id="edge6" class="edge"><title>http://example.org/access100&#45;&gt;http://example.org/disti#9</title>
<path fill="none" stroke="black" d="M304.952,-193.303C306.495,-201.017 308.349,-210.288 310.069,-218.888"/>
<polygon fill="black" stroke="black" points="306.677,-219.776 312.07,-228.896 313.541,-218.403 306.677,-219.776"/>
<text text-anchor="middle" x="319.161" y="-196.21" font-family="Times New Roman,serif" font-size="8.00">use</text>
</g>
<!-- http://example.org/j#20 -->
<g id="node7" class="node"><title>http://example.org/j#20</title>
<ellipse fill="none" stroke="black" cx="530.491" cy="-247" rx="94.4839" ry="18"/>
<text text-anchor="middle" x="530.491" y="-243.3" font-family="Times New Roman,serif" font-size="14.00">http://example.org/j#20</text>
</g>
<!-- http://example.org/access100&#45;&gt;http://example.org/j#20 -->
<g id="edge7" class="edge"><title>http://example.org/access100&#45;&gt;http://example.org/j#20</title>
<path fill="none" stroke="black" d="M338.539,-187.325C374.944,-198.453 431.016,-215.593 473.174,-228.479"/>
<polygon fill="black" stroke="black" points="472.17,-231.832 482.757,-231.409 474.217,-225.138 472.17,-231.832"/>
<text text-anchor="middle" x="349.508" y="-175.194" font-family="Times New Roman,serif" font-size="8.00">use</text>
</g>
<!-- &#45;attrs1 -->
<g id="node4" class="node"><title>&#45;attrs1</title>
<polygon fill="none" stroke="gray" points="335.491,-121 261.491,-121 261.491,-85 341.491,-85 341.491,-115 335.491,-121"/>
<polyline fill="none" stroke="gray" points="335.491,-121 335.491,-115 "/>
<polyline fill="none" stroke="gray" points="341.491,-115 335.491,-115 "/>
<text text-anchor="start" x="271.491" y="-100" font-family="Times New Roman,serif" font-size="10.00">type:</text>
<text text-anchor="start" x="294.491" y="-100" font-family="Times New Roman,serif" font-size="10.00">&quot;access&quot;</text>
</g>
<!-- &#45;attrs1&#45;&gt;http://example.org/access100 -->
<g id="edge2" class="edge"><title>&#45;attrs1&#45;&gt;http://example.org/access100</title>
<path fill="none" stroke="gray" stroke-dasharray="5,2" d="M301.491,-121.303C301.491,-132.154 301.491,-146.083 301.491,-156.896"/>
</g>
</g>
</svg>
