<?xml version="1.0" encoding="UTF-8" standalone="no"?>
<!DOCTYPE svg PUBLIC "-//W3C//DTD SVG 1.1//EN"
 "http://www.w3.org/Graphics/SVG/1.1/DTD/svg11.dtd">
<!-- Generated by graphviz version 2.38.0 (20140413.2041)
 -->
<!-- Title: PROV Pages: 1 -->
<svg width="1152pt" height="392pt"
 viewBox="0.00 0.00 1152.00 391.69" xmlns="http://www.w3.org/2000/svg" xmlns:xlink="http://www.w3.org/1999/xlink">
<g id="graph0" class="graph" transform="scale(0.789701 0.789701) rotate(0) translate(4 492)">
<title>PROV</title>
<polygon fill="white" stroke="none" points="-4,4 -4,-492 1454.78,-492 1454.78,4 -4,4"/>
<!-- http://example.org/eresult_a00 -->
<g id="node1" class="node"><title>http://example.org/eresult_a00</title>
<g id="a_node1"><a xlink:href="http://example.org/eresult_a00" xlink:title="eresult_a00">
<ellipse fill="#fffc87" stroke="#808080" cx="691.691" cy="-470" rx="51.9908" ry="18"/>
<text text-anchor="middle" x="691.691" y="-466.3" font-family="Times New Roman,serif" font-size="14.00">eresult_a00</text>
</a>
</g>
</g>
<!-- &#45;attrs0 -->
<g id="node2" class="node"><title>&#45;attrs0</title>
<polygon fill="none" stroke="gray" points="747.691,-401 629.691,-401 629.691,-365 753.691,-365 753.691,-395 747.691,-401"/>
<polyline fill="none" stroke="gray" points="747.691,-401 747.691,-395 "/>
<polyline fill="none" stroke="gray" points="753.691,-395 747.691,-395 "/>
<text text-anchor="start" x="639.691" y="-387" font-family="Times New Roman,serif" font-size="10.00">value:</text>
<text text-anchor="start" x="666.691" y="-387" font-family="Times New Roman,serif" font-size="10.00">&quot;[]&quot;</text>
<text text-anchor="start" x="639.691" y="-374" font-family="Times New Roman,serif" font-size="10.00">type:</text>
<text text-anchor="start" x="666.691" y="-374" font-family="Times New Roman,serif" font-size="10.00">&quot;EmptyDictionary&quot;</text>
</g>
<!-- &#45;attrs0&#45;&gt;http://example.org/eresult_a00 -->
<g id="edge1" class="edge"><title>&#45;attrs0&#45;&gt;http://example.org/eresult_a00</title>
<path fill="none" stroke="gray" stroke-dasharray="5,2" d="M691.691,-401.201C691.691,-415.948 691.691,-437.085 691.691,-451.825"/>
</g>
<!-- http://example.org/result_a00 -->
<g id="node3" class="node"><title>http://example.org/result_a00</title>
<g id="a_node3"><a xlink:href="http://example.org/result_a00" xlink:title="result_a00">
<ellipse fill="#fffc87" stroke="#808080" cx="652.691" cy="-310" rx="48.1917" ry="18"/>
<text text-anchor="middle" x="652.691" y="-306.3" font-family="Times New Roman,serif" font-size="14.00">result_a00</text>
</a>
</g>
</g>
<!-- bn0 -->
<g id="node5" class="node"><title>bn0</title>
<ellipse fill="black" stroke="black" cx="868.691" cy="-383" rx="1.8" ry="1.8"/>
</g>
<!-- http://example.org/result_a00&#45;&gt;bn0 -->
<g id="edge3" class="edge"><title>http://example.org/result_a00&#45;&gt;bn0</title>
<path fill="none" stroke="darkgreen" d="M687.876,-322.565C745.257,-341.427 853.968,-377.16 867.333,-381.554"/>
<text text-anchor="middle" x="707.376" y="-326.365" font-family="Times New Roman,serif" font-size="14.00">der&#45;ins</text>
</g>
<!-- http://example.org/access132 -->
<g id="node9" class="node"><title>http://example.org/access132</title>
<g id="a_node9"><a xlink:href="http://example.org/access132" xlink:title="access132">
<polygon fill="#9fb1fc" stroke="#0000ff" points="459.691,-401 385.691,-401 385.691,-365 459.691,-365 459.691,-401"/>
<text text-anchor="middle" x="422.691" y="-379.3" font-family="Times New Roman,serif" font-size="14.00">access132</text>
</a>
</g>
</g>
<!-- http://example.org/result_a00&#45;&gt;http://example.org/access132 -->
<g id="edge11" class="edge"><title>http://example.org/result_a00&#45;&gt;http://example.org/access132</title>
<path fill="none" stroke="black" d="M616.753,-322.094C577.136,-334.324 513.254,-354.044 469.689,-367.492"/>
<polygon fill="black" stroke="black" points="468.423,-364.22 459.9,-370.514 470.487,-370.908 468.423,-364.22"/>
<text text-anchor="middle" x="613.419" y="-334.818" font-family="Times New Roman,serif" font-size="8.00">gen</text>
</g>
<!-- http://example.org/list0_1 -->
<g id="node11" class="node"><title>http://example.org/list0_1</title>
<ellipse fill="none" stroke="black" cx="518.691" cy="-470" rx="102.882" ry="18"/>
<text text-anchor="middle" x="518.691" y="-466.3" font-family="Times New Roman,serif" font-size="14.00">http://example.org/list0_1</text>
</g>
<!-- http://example.org/result_a00&#45;&gt;http://example.org/list0_1 -->
<g id="edge10" class="edge"><title>http://example.org/result_a00&#45;&gt;http://example.org/list0_1</title>
<path fill="none" stroke="black" d="M638.855,-327.314C615.307,-355.079 567.305,-411.679 539.628,-444.313"/>
<polygon fill="black" stroke="black" points="536.856,-442.17 533.057,-452.061 542.194,-446.698 536.856,-442.17"/>
<text text-anchor="middle" x="643.911" y="-339.536" font-family="Times New Roman,serif" font-size="8.00">der</text>
</g>
<!-- &#45;attrs1 -->
<g id="node4" class="node"><title>&#45;attrs1</title>
<polygon fill="none" stroke="gray" points="696.191,-255 603.191,-255 603.191,-219 702.191,-219 702.191,-249 696.191,-255"/>
<polyline fill="none" stroke="gray" points="696.191,-255 696.191,-249 "/>
<polyline fill="none" stroke="gray" points="702.191,-249 696.191,-249 "/>
<text text-anchor="start" x="613.691" y="-241" font-family="Times New Roman,serif" font-size="10.00">value:</text>
<text text-anchor="start" x="640.691" y="-241" font-family="Times New Roman,serif" font-size="10.00">&quot;[0, 1, 3]&quot;</text>
<text text-anchor="start" x="613.691" y="-228" font-family="Times New Roman,serif" font-size="10.00">type:</text>
<text text-anchor="start" x="640.691" y="-228" font-family="Times New Roman,serif" font-size="10.00">&quot;Dictionary&quot;</text>
</g>
<!-- &#45;attrs1&#45;&gt;http://example.org/result_a00 -->
<g id="edge2" class="edge"><title>&#45;attrs1&#45;&gt;http://example.org/result_a00</title>
<path fill="none" stroke="gray" stroke-dasharray="5,2" d="M652.691,-255.187C652.691,-266.35 652.691,-280.84 652.691,-291.971"/>
</g>
<!-- bn0&#45;&gt;http://example.org/eresult_a00 -->
<g id="edge4" class="edge"><title>bn0&#45;&gt;http://example.org/eresult_a00</title>
<path fill="none" stroke="darkgreen" d="M867.561,-384.543C857.237,-389.5 778.575,-427.276 730.015,-450.596"/>
<polygon fill="darkgreen" stroke="darkgreen" points="728.232,-447.569 720.733,-455.053 731.263,-453.879 728.232,-447.569"/>
<text text-anchor="middle" x="801.191" y="-422.8" font-family="Times New Roman,serif" font-size="14.00">der</text>
</g>
<!-- http://example.org/list00_0 -->
<g id="node6" class="node"><title>http://example.org/list00_0</title>
<ellipse fill="none" stroke="black" cx="868.691" cy="-470" rx="106.681" ry="18"/>
<text text-anchor="middle" x="868.691" y="-466.3" font-family="Times New Roman,serif" font-size="14.00">http://example.org/list00_0</text>
</g>
<!-- bn0&#45;&gt;http://example.org/list00_0 -->
<g id="edge5" class="edge"><title>bn0&#45;&gt;http://example.org/list00_0</title>
<path fill="none" stroke="darkgreen" d="M868.691,-384.955C868.691,-390.528 868.691,-419.391 868.691,-441.755"/>
<polygon fill="darkgreen" stroke="darkgreen" points="865.191,-441.773 868.691,-451.773 872.191,-441.773 865.191,-441.773"/>
<text text-anchor="middle" x="876.691" y="-422.8" font-family="Times New Roman,serif" font-size="14.00">[0]</text>
</g>
<!-- http://example.org/list01_0 -->
<g id="node7" class="node"><title>http://example.org/list01_0</title>
<ellipse fill="none" stroke="black" cx="1099.69" cy="-470" rx="106.681" ry="18"/>
<text text-anchor="middle" x="1099.69" y="-466.3" font-family="Times New Roman,serif" font-size="14.00">http://example.org/list01_0</text>
</g>
<!-- bn0&#45;&gt;http://example.org/list01_0 -->
<g id="edge6" class="edge"><title>bn0&#45;&gt;http://example.org/list01_0</title>
<path fill="none" stroke="darkgreen" d="M870.166,-384.543C883.506,-389.452 984.289,-426.536 1047.79,-449.904"/>
<polygon fill="darkgreen" stroke="darkgreen" points="1046.67,-453.219 1057.26,-453.388 1049.09,-446.65 1046.67,-453.219"/>
<text text-anchor="middle" x="1006.69" y="-422.8" font-family="Times New Roman,serif" font-size="14.00">[1]</text>
</g>
<!-- http://example.org/disti_aj13 -->
<g id="node8" class="node"><title>http://example.org/disti_aj13</title>
<ellipse fill="none" stroke="black" cx="1337.69" cy="-470" rx="113.18" ry="18"/>
<text text-anchor="middle" x="1337.69" y="-466.3" font-family="Times New Roman,serif" font-size="14.00">http://example.org/disti_aj13</text>
</g>
<!-- bn0&#45;&gt;http://example.org/disti_aj13 -->
<g id="edge7" class="edge"><title>bn0&#45;&gt;http://example.org/disti_aj13</title>
<path fill="none" stroke="darkgreen" d="M870.208,-384.349C885.188,-387.787 1008.17,-415.86 1108.69,-434 1153.67,-442.116 1203.84,-449.924 1245.73,-456.097"/>
<polygon fill="darkgreen" stroke="darkgreen" points="1245.24,-459.562 1255.64,-457.55 1246.25,-452.636 1245.24,-459.562"/>
<text text-anchor="middle" x="1116.69" y="-422.8" font-family="Times New Roman,serif" font-size="14.00">[2]</text>
</g>
<!-- http://example.org/access132&#45;&gt;http://example.org/list0_1 -->
<g id="edge9" class="edge"><title>http://example.org/access132&#45;&gt;http://example.org/list0_1</title>
<path fill="none" stroke="black" d="M442.118,-401.201C456.394,-413.842 475.973,-431.177 491.759,-445.154"/>
<polygon fill="black" stroke="black" points="489.813,-448.106 499.62,-452.115 494.454,-442.865 489.813,-448.106"/>
<text text-anchor="middle" x="456.345" y="-394.547" font-family="Times New Roman,serif" font-size="8.00">use</text>
</g>
<!-- http://example.org/result2 -->
<g id="node12" class="node"><title>http://example.org/result2</title>
<ellipse fill="none" stroke="black" cx="102.691" cy="-470" rx="102.882" ry="18"/>
<text text-anchor="middle" x="102.691" y="-466.3" font-family="Times New Roman,serif" font-size="14.00">http://example.org/result2</text>
</g>
<!-- http://example.org/access132&#45;&gt;http://example.org/result2 -->
<g id="edge12" class="edge"><title>http://example.org/access132&#45;&gt;http://example.org/result2</title>
<path fill="none" stroke="black" d="M385.67,-393.834C332.074,-408.07 232.117,-434.621 166.495,-452.052"/>
<polygon fill="black" stroke="black" points="165.437,-448.712 156.671,-454.662 167.234,-455.477 165.437,-448.712"/>
<text text-anchor="middle" x="381.756" y="-406.414" font-family="Times New Roman,serif" font-size="8.00">use</text>
</g>
<!-- http://example.org/n0 -->
<g id="node13" class="node"><title>http://example.org/n0</title>
<ellipse fill="none" stroke="black" cx="310.691" cy="-470" rx="87.1846" ry="18"/>
<text text-anchor="middle" x="310.691" y="-466.3" font-family="Times New Roman,serif" font-size="14.00">http://example.org/n0</text>
</g>
<!-- http://example.org/access132&#45;&gt;http://example.org/n0 -->
<g id="edge13" class="edge"><title>http://example.org/access132&#45;&gt;http://example.org/n0</title>
<path fill="none" stroke="black" d="M400.026,-401.201C382.954,-414.158 359.382,-432.047 340.738,-446.196"/>
<polygon fill="black" stroke="black" points="338.41,-443.57 332.56,-452.403 342.641,-449.146 338.41,-443.57"/>
<text text-anchor="middle" x="401.905" y="-414.183" font-family="Times New Roman,serif" font-size="8.00">use</text>
</g>
<!-- &#45;attrs2 -->
<g id="node10" class="node"><title>&#45;attrs2</title>
<polygon fill="none" stroke="gray" points="456.691,-328 382.691,-328 382.691,-292 462.691,-292 462.691,-322 456.691,-328"/>
<polyline fill="none" stroke="gray" points="456.691,-328 456.691,-322 "/>
<polyline fill="none" stroke="gray" points="462.691,-322 456.691,-322 "/>
<text text-anchor="start" x="392.691" y="-307" font-family="Times New Roman,serif" font-size="10.00">type:</text>
<text text-anchor="start" x="415.691" y="-307" font-family="Times New Roman,serif" font-size="10.00">&quot;access&quot;</text>
</g>
<!-- &#45;attrs2&#45;&gt;http://example.org/access132 -->
<g id="edge8" class="edge"><title>&#45;attrs2&#45;&gt;http://example.org/access132</title>
<path fill="none" stroke="gray" stroke-dasharray="5,2" d="M422.691,-328.187C422.691,-339.35 422.691,-353.84 422.691,-364.971"/>
</g>
<!-- http://example.org/result_a020 -->
<g id="node14" class="node"><title>http://example.org/result_a020</title>
<g id="a_node14"><a xlink:href="http://example.org/result_a020" xlink:title="result_a020">
<ellipse fill="#fffc87" stroke="#808080" cx="1311.69" cy="-164" rx="51.9908" ry="18"/>
<text text-anchor="middle" x="1311.69" y="-160.3" font-family="Times New Roman,serif" font-size="14.00">result_a020</text>
</a>
</g>
</g>
<!-- http://example.org/result_a020&#45;&gt;http://example.org/disti_aj13 -->
<g id="edge17" class="edge"><title>http://example.org/result_a020&#45;&gt;http://example.org/disti_aj13</title>
<path fill="none" stroke="black" d="M1334.22,-180.278C1350.15,-193.074 1368.69,-212.921 1368.69,-236 1368.69,-236 1368.69,-236 1368.69,-384 1368.69,-404.615 1360.54,-426.433 1352.6,-442.802"/>
<polygon fill="black" stroke="black" points="1349.46,-441.265 1348.01,-451.761 1355.69,-444.456 1349.46,-441.265"/>
<text text-anchor="middle" x="1348.31" y="-173.227" font-family="Times New Roman,serif" font-size="8.00">der</text>
</g>
<!-- http://example.org/access133 -->
<g id="node16" class="node"><title>http://example.org/access133</title>
<g id="a_node16"><a xlink:href="http://example.org/access133" xlink:title="access133">
<polygon fill="#9fb1fc" stroke="#0000ff" points="1204.69,-255 1130.69,-255 1130.69,-219 1204.69,-219 1204.69,-255"/>
<text text-anchor="middle" x="1167.69" y="-233.3" font-family="Times New Roman,serif" font-size="14.00">access133</text>
</a>
</g>
</g>
<!-- http://example.org/result_a020&#45;&gt;http://example.org/access133 -->
<g id="edge18" class="edge"><title>http://example.org/result_a020&#45;&gt;http://example.org/access133</title>
<path fill="none" stroke="black" d="M1282.9,-179.197C1262.39,-189.308 1234.47,-203.076 1211.25,-214.525"/>
<polygon fill="black" stroke="black" points="1209.7,-211.387 1202.27,-218.948 1212.79,-217.665 1209.7,-211.387"/>
<text text-anchor="middle" x="1281.91" y="-192.265" font-family="Times New Roman,serif" font-size="8.00">gen</text>
</g>
<!-- &#45;attrs3 -->
<g id="node15" class="node"><title>&#45;attrs3</title>
<polygon fill="none" stroke="gray" points="1320.19,-109 1239.19,-109 1239.19,-73 1326.19,-73 1326.19,-103 1320.19,-109"/>
<polyline fill="none" stroke="gray" points="1320.19,-109 1320.19,-103 "/>
<polyline fill="none" stroke="gray" points="1326.19,-103 1320.19,-103 "/>
<text text-anchor="start" x="1249.69" y="-95" font-family="Times New Roman,serif" font-size="10.00">value:</text>
<text text-anchor="start" x="1276.69" y="-95" font-family="Times New Roman,serif" font-size="10.00">&quot;3&quot;</text>
<text text-anchor="start" x="1249.69" y="-82" font-family="Times New Roman,serif" font-size="10.00">type:</text>
<text text-anchor="start" x="1276.69" y="-82" font-family="Times New Roman,serif" font-size="10.00">&quot;number&quot;</text>
</g>
<!-- &#45;attrs3&#45;&gt;http://example.org/result_a020 -->
<g id="edge14" class="edge"><title>&#45;attrs3&#45;&gt;http://example.org/result_a020</title>
<path fill="none" stroke="gray" stroke-dasharray="5,2" d="M1289.71,-109.187C1294.27,-120.35 1300.19,-134.84 1304.74,-145.971"/>
</g>
<!-- http://example.org/access133&#45;&gt;http://example.org/result_a00 -->
<g id="edge19" class="edge"><title>http://example.org/access133&#45;&gt;http://example.org/result_a00</title>
<path fill="none" stroke="black" d="M1130.65,-243.106C1041.04,-255.461 812.164,-287.014 707.013,-301.511"/>
<polygon fill="black" stroke="black" points="706.358,-298.068 696.93,-302.901 707.314,-305.002 706.358,-298.068"/>
<text text-anchor="middle" x="1125" y="-255.099" font-family="Times New Roman,serif" font-size="8.00">use</text>
</g>
<!-- http://example.org/access133&#45;&gt;http://example.org/disti_aj13 -->
<g id="edge16" class="edge"><title>http://example.org/access133&#45;&gt;http://example.org/disti_aj13</title>
<path fill="none" stroke="black" d="M1160.49,-255.191C1153.77,-274.032 1146.33,-304.678 1157.69,-328 1185.44,-384.977 1248.58,-425.725 1292.18,-448.327"/>
<polygon fill="black" stroke="black" points="1290.66,-451.482 1301.17,-452.874 1293.82,-445.236 1290.66,-451.482"/>
<text text-anchor="middle" x="1170.41" y="-264.548" font-family="Times New Roman,serif" font-size="8.00">use</text>
</g>
<!-- http://example.org/n2 -->
<g id="node18" class="node"><title>http://example.org/n2</title>
<ellipse fill="none" stroke="black" cx="1253.69" cy="-310" rx="87.1846" ry="18"/>
<text text-anchor="middle" x="1253.69" y="-306.3" font-family="Times New Roman,serif" font-size="14.00">http://example.org/n2</text>
</g>
<!-- http://example.org/access133&#45;&gt;http://example.org/n2 -->
<g id="edge20" class="edge"><title>http://example.org/access133&#45;&gt;http://example.org/n2</title>
<path fill="none" stroke="black" d="M1188.51,-255.187C1199.66,-264.39 1213.54,-275.855 1225.63,-285.834"/>
<polygon fill="black" stroke="black" points="1223.72,-288.793 1233.66,-292.46 1228.17,-283.394 1223.72,-288.793"/>
<text text-anchor="middle" x="1202.56" y="-248.044" font-family="Times New Roman,serif" font-size="8.00">use</text>
</g>
<!-- &#45;attrs4 -->
<g id="node17" class="node"><title>&#45;attrs4</title>
<polygon fill="none" stroke="gray" points="1201.69,-182 1127.69,-182 1127.69,-146 1207.69,-146 1207.69,-176 1201.69,-182"/>
<polyline fill="none" stroke="gray" points="1201.69,-182 1201.69,-176 "/>
<polyline fill="none" stroke="gray" points="1207.69,-176 1201.69,-176 "/>
<text text-anchor="start" x="1137.69" y="-161" font-family="Times New Roman,serif" font-size="10.00">type:</text>
<text text-anchor="start" x="1160.69" y="-161" font-family="Times New Roman,serif" font-size="10.00">&quot;access&quot;</text>
</g>
<!-- &#45;attrs4&#45;&gt;http://example.org/access133 -->
<g id="edge15" class="edge"><title>&#45;attrs4&#45;&gt;http://example.org/access133</title>
<path fill="none" stroke="gray" stroke-dasharray="5,2" d="M1167.69,-182.187C1167.69,-193.35 1167.69,-207.84 1167.69,-218.971"/>
</g>
<!-- http://example.org/print0 -->
<g id="node19" class="node"><title>http://example.org/print0</title>
<g id="a_node19"><a xlink:href="http://example.org/print0" xlink:title="print0">
<polygon fill="#9fb1fc" stroke="#0000ff" points="1398.69,-109 1344.69,-109 1344.69,-73 1398.69,-73 1398.69,-109"/>
<text text-anchor="middle" x="1371.69" y="-87.3" font-family="Times New Roman,serif" font-size="14.00">print0</text>
</a>
</g>
</g>
<!-- http://example.org/print0&#45;&gt;http://example.org/result_a020 -->
<g id="edge22" class="edge"><title>http://example.org/print0&#45;&gt;http://example.org/result_a020</title>
<path fill="none" stroke="black" d="M1357.17,-109.187C1349.69,-118.036 1340.44,-128.976 1332.25,-138.677"/>
<polygon fill="black" stroke="black" points="1329.45,-136.563 1325.67,-146.46 1334.8,-141.081 1329.45,-136.563"/>
<text text-anchor="middle" x="1362.25" y="-121.4" font-family="Times New Roman,serif" font-size="8.00">use</text>
</g>
<!-- &#45;attrs5 -->
<g id="node20" class="node"><title>&#45;attrs5</title>
<polygon fill="none" stroke="gray" points="1401.19,-36 1336.19,-36 1336.19,-0 1407.19,-0 1407.19,-30 1401.19,-36"/>
<polyline fill="none" stroke="gray" points="1401.19,-36 1401.19,-30 "/>
<polyline fill="none" stroke="gray" points="1407.19,-30 1401.19,-30 "/>
<text text-anchor="start" x="1346.69" y="-15" font-family="Times New Roman,serif" font-size="10.00">type:</text>
<text text-anchor="start" x="1369.69" y="-15" font-family="Times New Roman,serif" font-size="10.00">&quot;print&quot;</text>
</g>
<!-- &#45;attrs5&#45;&gt;http://example.org/print0 -->
<g id="edge21" class="edge"><title>&#45;attrs5&#45;&gt;http://example.org/print0</title>
<path fill="none" stroke="gray" stroke-dasharray="5,2" d="M1371.69,-36.1871C1371.69,-47.3501 1371.69,-61.8398 1371.69,-72.9712"/>
</g>
</g>
</svg>
