<?xml version="1.0" encoding="UTF-8" standalone="no"?>
<!DOCTYPE svg PUBLIC "-//W3C//DTD SVG 1.1//EN"
 "http://www.w3.org/Graphics/SVG/1.1/DTD/svg11.dtd">
<!-- Generated by graphviz version 2.38.0 (20140413.2041)
 -->
<!-- Title: PROV Pages: 1 -->
<svg width="683pt" height="504pt"
 viewBox="0.00 0.00 682.69 504.00" xmlns="http://www.w3.org/2000/svg" xmlns:xlink="http://www.w3.org/1999/xlink">
<g id="graph0" class="graph" transform="scale(1 1) rotate(0) translate(4 500)">
<title>PROV</title>
<polygon fill="white" stroke="none" points="-4,4 -4,-500 678.693,-500 678.693,4 -4,4"/>
<!-- http://example.org/dist_ak -->
<g id="node1" class="node"><title>http://example.org/dist_ak</title>
<g id="a_node1"><a xlink:href="http://example.org/dist_ak" xlink:title="dist_ak">
<ellipse fill="#fffc87" stroke="#808080" cx="260.5" cy="-289" rx="37.0935" ry="18"/>
<text text-anchor="middle" x="260.5" y="-285.3" font-family="Times New Roman,serif" font-size="14.00">dist_ak</text>
</a>
</g>
</g>
<!-- http://example.org/access2 -->
<g id="node3" class="node"><title>http://example.org/access2</title>
<g id="a_node3"><a xlink:href="http://example.org/access2" xlink:title="access2">
<polygon fill="#9fb1fc" stroke="#0000ff" points="428,-409 367,-409 367,-373 428,-373 428,-409"/>
<text text-anchor="middle" x="397.5" y="-387.3" font-family="Times New Roman,serif" font-size="14.00">access2</text>
</a>
</g>
</g>
<!-- http://example.org/dist_ak&#45;&gt;http://example.org/access2 -->
<g id="edge7" class="edge"><title>http://example.org/dist_ak&#45;&gt;http://example.org/access2</title>
<path fill="none" stroke="black" d="M296.339,-293.578C319.972,-297.653 350.199,-306.367 370.5,-325 381.297,-334.91 387.904,-349.802 391.877,-362.832"/>
<polygon fill="black" stroke="black" points="388.564,-363.994 394.527,-372.752 395.327,-362.187 388.564,-363.994"/>
<text text-anchor="middle" x="306.109" y="-280.297" font-family="Times New Roman,serif" font-size="8.00">gen</text>
</g>
<!-- bn0 -->
<g id="node6" class="node"><title>bn0</title>
<ellipse fill="black" stroke="black" cx="206.5" cy="-391" rx="1.8" ry="1.8"/>
</g>
<!-- http://example.org/dist_ak&#45;&gt;bn0 -->
<g id="edge4" class="edge"><title>http://example.org/dist_ak&#45;&gt;bn0</title>
<path fill="none" stroke="darkgreen" d="M233.299,-301.253C223.359,-306.841 213.17,-314.653 207.5,-325 194.918,-347.962 204.32,-382.689 206.193,-388.999"/>
<text text-anchor="middle" x="289" y="-343.8" font-family="Times New Roman,serif" font-size="14.00">der ac&#45;r</text>
<text text-anchor="middle" x="289" y="-328.8" font-family="Times New Roman,serif" font-size="14.00">2018&#45;03&#45;04T20:03:58.970383</text>
</g>
<!-- &#45;attrs0 -->
<g id="node2" class="node"><title>&#45;attrs0</title>
<polygon fill="none" stroke="gray" points="207,-234 0,-234 0,-172 213,-172 213,-228 207,-234"/>
<polyline fill="none" stroke="gray" points="207,-234 207,-228 "/>
<polyline fill="none" stroke="gray" points="213,-228 207,-228 "/>
<text text-anchor="start" x="10.5" y="-220" font-family="Times New Roman,serif" font-size="10.00">value:</text>
<text text-anchor="start" x="85.5" y="-220" font-family="Times New Roman,serif" font-size="10.00">&quot;[0, 1, 4]&quot;</text>
<text text-anchor="start" x="10.5" y="-207" font-family="Times New Roman,serif" font-size="10.00">type:</text>
<text text-anchor="start" x="85.5" y="-207" font-family="Times New Roman,serif" font-size="10.00">&quot;access&quot;</text>
<text text-anchor="start" x="10.5" y="-194" font-family="Times New Roman,serif" font-size="10.00">label:</text>
<text text-anchor="start" x="85.5" y="-194" font-family="Times New Roman,serif" font-size="10.00">&quot;dist[k]&quot;</text>
<text text-anchor="start" x="10.5" y="-181" font-family="Times New Roman,serif" font-size="10.00">generatedAtTime:</text>
<text text-anchor="start" x="85.5" y="-181" font-family="Times New Roman,serif" font-size="10.00">&quot;2018&#45;03&#45;04T20:03:58.970383&quot;</text>
</g>
<!-- &#45;attrs0&#45;&gt;http://example.org/dist_ak -->
<g id="edge1" class="edge"><title>&#45;attrs0&#45;&gt;http://example.org/dist_ak</title>
<path fill="none" stroke="gray" stroke-dasharray="5,2" d="M161.663,-234.089C187.382,-248.117 216.644,-264.079 236.613,-274.971"/>
</g>
<!-- http://example.org/list0 -->
<g id="node5" class="node"><title>http://example.org/list0</title>
<ellipse fill="none" stroke="black" cx="397.5" cy="-478" rx="92.8835" ry="18"/>
<text text-anchor="middle" x="397.5" y="-474.3" font-family="Times New Roman,serif" font-size="14.00">http://example.org/list0</text>
</g>
<!-- http://example.org/access2&#45;&gt;http://example.org/list0 -->
<g id="edge3" class="edge"><title>http://example.org/access2&#45;&gt;http://example.org/list0</title>
<path fill="none" stroke="black" d="M397.5,-409.201C397.5,-420.837 397.5,-436.452 397.5,-449.763"/>
<polygon fill="black" stroke="black" points="394,-449.825 397.5,-459.825 401,-449.825 394,-449.825"/>
<text text-anchor="middle" x="410.49" y="-414.801" font-family="Times New Roman,serif" font-size="8.00">use</text>
</g>
<!-- http://example.org/dist -->
<g id="node7" class="node"><title>http://example.org/dist</title>
<ellipse fill="none" stroke="black" cx="194.5" cy="-478" rx="91.784" ry="18"/>
<text text-anchor="middle" x="194.5" y="-474.3" font-family="Times New Roman,serif" font-size="14.00">http://example.org/dist</text>
</g>
<!-- http://example.org/access2&#45;&gt;http://example.org/dist -->
<g id="edge8" class="edge"><title>http://example.org/access2&#45;&gt;http://example.org/dist</title>
<path fill="none" stroke="black" d="M366.669,-404.91C333.233,-418.91 279.486,-441.415 240.936,-457.556"/>
<polygon fill="black" stroke="black" points="239.357,-454.423 231.484,-461.514 242.06,-460.88 239.357,-454.423"/>
<text text-anchor="middle" x="364.768" y="-417.889" font-family="Times New Roman,serif" font-size="8.00">use</text>
</g>
<!-- http://example.org/k -->
<g id="node8" class="node"><title>http://example.org/k</title>
<ellipse fill="none" stroke="black" cx="591.5" cy="-478" rx="83.3857" ry="18"/>
<text text-anchor="middle" x="591.5" y="-474.3" font-family="Times New Roman,serif" font-size="14.00">http://example.org/k</text>
</g>
<!-- http://example.org/access2&#45;&gt;http://example.org/k -->
<g id="edge9" class="edge"><title>http://example.org/access2&#45;&gt;http://example.org/k</title>
<path fill="none" stroke="black" d="M428.24,-405.469C460.213,-419.477 510.584,-441.547 546.924,-457.469"/>
<polygon fill="black" stroke="black" points="545.743,-460.773 556.307,-461.58 548.552,-454.361 545.743,-460.773"/>
<text text-anchor="middle" x="440.323" y="-394.68" font-family="Times New Roman,serif" font-size="8.00">use</text>
</g>
<!-- &#45;attrs1 -->
<g id="node4" class="node"><title>&#45;attrs1</title>
<polygon fill="none" stroke="gray" points="443.5,-307 369.5,-307 369.5,-271 449.5,-271 449.5,-301 443.5,-307"/>
<polyline fill="none" stroke="gray" points="443.5,-307 443.5,-301 "/>
<polyline fill="none" stroke="gray" points="449.5,-301 443.5,-301 "/>
<text text-anchor="start" x="379.5" y="-286" font-family="Times New Roman,serif" font-size="10.00">type:</text>
<text text-anchor="start" x="402.5" y="-286" font-family="Times New Roman,serif" font-size="10.00">&quot;access&quot;</text>
</g>
<!-- &#45;attrs1&#45;&gt;http://example.org/access2 -->
<g id="edge2" class="edge"><title>&#45;attrs1&#45;&gt;http://example.org/access2</title>
<path fill="none" stroke="gray" stroke-dasharray="5,2" d="M407.41,-307.419C405.207,-325.773 401.76,-354.502 399.566,-372.781"/>
</g>
<!-- bn0&#45;&gt;http://example.org/list0 -->
<g id="edge6" class="edge"><title>bn0&#45;&gt;http://example.org/list0</title>
<path fill="none" stroke="darkgreen" d="M207.72,-392.543C218.629,-397.398 300.268,-433.729 352.857,-457.133"/>
<polygon fill="darkgreen" stroke="darkgreen" points="351.435,-460.331 361.994,-461.199 354.281,-453.935 351.435,-460.331"/>
</g>
<!-- bn0&#45;&gt;http://example.org/dist -->
<g id="edge5" class="edge"><title>bn0&#45;&gt;http://example.org/dist</title>
<path fill="none" stroke="darkgreen" d="M206.365,-392.955C205.578,-398.528 201.504,-427.391 198.346,-449.755"/>
<polygon fill="darkgreen" stroke="darkgreen" points="194.864,-449.382 196.932,-459.773 201.796,-450.361 194.864,-449.382"/>
<text text-anchor="middle" x="209.5" y="-430.8" font-family="Times New Roman,serif" font-size="14.00">[0]</text>
</g>
<!-- http://example.org/distk -->
<g id="node9" class="node"><title>http://example.org/distk</title>
<g id="a_node9"><a xlink:href="http://example.org/distk" xlink:title="distk">
<ellipse fill="#fffc87" stroke="#808080" cx="325.5" cy="-117" rx="28.6953" ry="18"/>
<text text-anchor="middle" x="325.5" y="-113.3" font-family="Times New Roman,serif" font-size="14.00">distk</text>
</a>
</g>
</g>
<!-- http://example.org/distk&#45;&gt;http://example.org/dist_ak -->
<g id="edge13" class="edge"><title>http://example.org/distk&#45;&gt;http://example.org/dist_ak</title>
<path fill="none" stroke="darkgreen" d="M323.594,-135.173C320.556,-158.413 313.371,-200.785 298.5,-234 293.814,-244.466 286.988,-254.998 280.41,-263.946"/>
<polygon fill="darkgreen" stroke="darkgreen" points="277.555,-261.918 274.258,-271.986 283.114,-266.172 277.555,-261.918"/>
<text text-anchor="middle" x="398" y="-206.8" font-family="Times New Roman,serif" font-size="14.00">der ref</text>
<text text-anchor="middle" x="398" y="-191.8" font-family="Times New Roman,serif" font-size="14.00">2018&#45;03&#45;04T20:03:58.970383</text>
</g>
<!-- http://example.org/assign6 -->
<g id="node11" class="node"><title>http://example.org/assign6</title>
<g id="a_node11"><a xlink:href="http://example.org/assign6" xlink:title="assign6">
<polygon fill="#9fb1fc" stroke="#0000ff" points="289.5,-221 231.5,-221 231.5,-185 289.5,-185 289.5,-221"/>
<text text-anchor="middle" x="260.5" y="-199.3" font-family="Times New Roman,serif" font-size="14.00">assign6</text>
</a>
</g>
</g>
<!-- http://example.org/distk&#45;&gt;http://example.org/assign6 -->
<g id="edge14" class="edge"><title>http://example.org/distk&#45;&gt;http://example.org/assign6</title>
<path fill="none" stroke="black" d="M313.578,-133.407C304.142,-145.602 290.774,-162.877 279.814,-177.04"/>
<polygon fill="black" stroke="black" points="277.04,-174.906 273.688,-184.957 282.576,-179.19 277.04,-174.906"/>
<text text-anchor="middle" x="319.262" y="-145.388" font-family="Times New Roman,serif" font-size="8.00">gen</text>
</g>
<!-- &#45;attrs2 -->
<g id="node10" class="node"><title>&#45;attrs2</title>
<polygon fill="none" stroke="gray" points="426,-62 219,-62 219,-0 432,-0 432,-56 426,-62"/>
<polyline fill="none" stroke="gray" points="426,-62 426,-56 "/>
<polyline fill="none" stroke="gray" points="432,-56 426,-56 "/>
<text text-anchor="start" x="229.5" y="-48" font-family="Times New Roman,serif" font-size="10.00">value:</text>
<text text-anchor="start" x="304.5" y="-48" font-family="Times New Roman,serif" font-size="10.00">&quot;[0, 1, 4]&quot;</text>
<text text-anchor="start" x="229.5" y="-35" font-family="Times New Roman,serif" font-size="10.00">type:</text>
<text text-anchor="start" x="304.5" y="-35" font-family="Times New Roman,serif" font-size="10.00">&quot;name&quot;</text>
<text text-anchor="start" x="229.5" y="-22" font-family="Times New Roman,serif" font-size="10.00">label:</text>
<text text-anchor="start" x="304.5" y="-22" font-family="Times New Roman,serif" font-size="10.00">&quot;distk&quot;</text>
<text text-anchor="start" x="229.5" y="-9" font-family="Times New Roman,serif" font-size="10.00">generatedAtTime:</text>
<text text-anchor="start" x="304.5" y="-9" font-family="Times New Roman,serif" font-size="10.00">&quot;2018&#45;03&#45;04T20:03:58.970383&quot;</text>
</g>
<!-- &#45;attrs2&#45;&gt;http://example.org/distk -->
<g id="edge10" class="edge"><title>&#45;attrs2&#45;&gt;http://example.org/distk</title>
<path fill="none" stroke="gray" stroke-dasharray="5,2" d="M325.5,-62.3259C325.5,-74.5443 325.5,-88.1945 325.5,-98.6716"/>
</g>
<!-- http://example.org/assign6&#45;&gt;http://example.org/dist_ak -->
<g id="edge12" class="edge"><title>http://example.org/assign6&#45;&gt;http://example.org/dist_ak</title>
<path fill="none" stroke="black" d="M260.5,-221.405C260.5,-232.743 260.5,-247.773 260.5,-260.685"/>
<polygon fill="black" stroke="black" points="257,-260.905 260.5,-270.905 264,-260.905 257,-260.905"/>
<text text-anchor="middle" x="273.49" y="-227.005" font-family="Times New Roman,serif" font-size="8.00">use</text>
</g>
<!-- &#45;attrs3 -->
<g id="node12" class="node"><title>&#45;attrs3</title>
<polygon fill="none" stroke="gray" points="273,-135 200,-135 200,-99 279,-99 279,-129 273,-135"/>
<polyline fill="none" stroke="gray" points="273,-135 273,-129 "/>
<polyline fill="none" stroke="gray" points="279,-129 273,-129 "/>
<text text-anchor="start" x="210.5" y="-114" font-family="Times New Roman,serif" font-size="10.00">type:</text>
<text text-anchor="start" x="233.5" y="-114" font-family="Times New Roman,serif" font-size="10.00">&quot;assign&quot;</text>
</g>
<!-- &#45;attrs3&#45;&gt;http://example.org/assign6 -->
<g id="edge11" class="edge"><title>&#45;attrs3&#45;&gt;http://example.org/assign6</title>
<path fill="none" stroke="gray" stroke-dasharray="5,2" d="M243.851,-135.405C247.479,-149.917 252.62,-170.479 256.226,-184.905"/>
</g>
</g>
</svg>
