<?xml version="1.0" encoding="UTF-8" standalone="no"?>
<!DOCTYPE svg PUBLIC "-//W3C//DTD SVG 1.1//EN"
 "http://www.w3.org/Graphics/SVG/1.1/DTD/svg11.dtd">
<!-- Generated by graphviz version 2.38.0 (20140413.2041)
 -->
<!-- Title: PROV Pages: 1 -->
<svg width="703pt" height="504pt"
 viewBox="0.00 0.00 703.19 504.00" xmlns="http://www.w3.org/2000/svg" xmlns:xlink="http://www.w3.org/1999/xlink">
<g id="graph0" class="graph" transform="scale(1 1) rotate(0) translate(4 500)">
<title>PROV</title>
<polygon fill="white" stroke="none" points="-4,4 -4,-500 699.192,-500 699.192,4 -4,4"/>
<!-- http://example.org/dist_ai#2 -->
<g id="node1" class="node"><title>http://example.org/dist_ai#2</title>
<g id="a_node1"><a xlink:href="http://example.org/dist_ai#2" xlink:title="dist_ai#2">
<ellipse fill="#fffc87" stroke="#808080" cx="263.5" cy="-289" rx="44.393" ry="18"/>
<text text-anchor="middle" x="263.5" y="-285.3" font-family="Times New Roman,serif" font-size="14.00">dist_ai#2</text>
</a>
</g>
</g>
<!-- http://example.org/access18 -->
<g id="node3" class="node"><title>http://example.org/access18</title>
<g id="a_node3"><a xlink:href="http://example.org/access18" xlink:title="access18">
<polygon fill="#9fb1fc" stroke="#0000ff" points="438.5,-409 370.5,-409 370.5,-373 438.5,-373 438.5,-409"/>
<text text-anchor="middle" x="404.5" y="-387.3" font-family="Times New Roman,serif" font-size="14.00">access18</text>
</a>
</g>
</g>
<!-- http://example.org/dist_ai#2&#45;&gt;http://example.org/access18 -->
<g id="edge7" class="edge"><title>http://example.org/dist_ai#2&#45;&gt;http://example.org/access18</title>
<path fill="none" stroke="black" d="M306.066,-294.186C329.608,-298.499 357.962,-307.25 377.5,-325 388.348,-334.855 394.957,-349.743 398.919,-362.785"/>
<polygon fill="black" stroke="black" points="395.608,-363.952 401.559,-372.717 402.373,-362.154 395.608,-363.952"/>
<text text-anchor="middle" x="315.957" y="-281.009" font-family="Times New Roman,serif" font-size="8.00">gen</text>
</g>
<!-- bn0 -->
<g id="node6" class="node"><title>bn0</title>
<ellipse fill="black" stroke="black" cx="213.5" cy="-391" rx="1.8" ry="1.8"/>
</g>
<!-- http://example.org/dist_ai#2&#45;&gt;bn0 -->
<g id="edge4" class="edge"><title>http://example.org/dist_ai#2&#45;&gt;bn0</title>
<path fill="none" stroke="darkgreen" d="M235.982,-303.171C227.554,-308.671 219.258,-315.927 214.5,-325 202.34,-348.189 211.399,-382.732 213.204,-389.005"/>
<text text-anchor="middle" x="296" y="-343.8" font-family="Times New Roman,serif" font-size="14.00">der ac&#45;r</text>
<text text-anchor="middle" x="296" y="-328.8" font-family="Times New Roman,serif" font-size="14.00">2018&#45;03&#45;05T16:04:20.293774</text>
</g>
<!-- &#45;attrs0 -->
<g id="node2" class="node"><title>&#45;attrs0</title>
<polygon fill="none" stroke="gray" points="207,-234 0,-234 0,-172 213,-172 213,-228 207,-234"/>
<polyline fill="none" stroke="gray" points="207,-234 207,-228 "/>
<polyline fill="none" stroke="gray" points="213,-228 207,-228 "/>
<text text-anchor="start" x="10.5" y="-220" font-family="Times New Roman,serif" font-size="10.00">value:</text>
<text text-anchor="start" x="85.5" y="-220" font-family="Times New Roman,serif" font-size="10.00">&quot;[10000, 0, 2]&quot;</text>
<text text-anchor="start" x="10.5" y="-207" font-family="Times New Roman,serif" font-size="10.00">type:</text>
<text text-anchor="start" x="85.5" y="-207" font-family="Times New Roman,serif" font-size="10.00">&quot;access&quot;</text>
<text text-anchor="start" x="10.5" y="-194" font-family="Times New Roman,serif" font-size="10.00">label:</text>
<text text-anchor="start" x="85.5" y="-194" font-family="Times New Roman,serif" font-size="10.00">&quot;dist[i]&quot;</text>
<text text-anchor="start" x="10.5" y="-181" font-family="Times New Roman,serif" font-size="10.00">generatedAtTime:</text>
<text text-anchor="start" x="85.5" y="-181" font-family="Times New Roman,serif" font-size="10.00">&quot;2018&#45;03&#45;05T16:04:20.293774&quot;</text>
</g>
<!-- &#45;attrs0&#45;&gt;http://example.org/dist_ai#2 -->
<g id="edge1" class="edge"><title>&#45;attrs0&#45;&gt;http://example.org/dist_ai#2</title>
<path fill="none" stroke="gray" stroke-dasharray="5,2" d="M162.737,-234.089C188.429,-247.835 217.59,-263.437 237.907,-274.307"/>
</g>
<!-- http://example.org/list1 -->
<g id="node5" class="node"><title>http://example.org/list1</title>
<ellipse fill="none" stroke="black" cx="404.5" cy="-478" rx="92.8835" ry="18"/>
<text text-anchor="middle" x="404.5" y="-474.3" font-family="Times New Roman,serif" font-size="14.00">http://example.org/list1</text>
</g>
<!-- http://example.org/access18&#45;&gt;http://example.org/list1 -->
<g id="edge3" class="edge"><title>http://example.org/access18&#45;&gt;http://example.org/list1</title>
<path fill="none" stroke="black" d="M404.5,-409.201C404.5,-420.837 404.5,-436.452 404.5,-449.763"/>
<polygon fill="black" stroke="black" points="401,-449.825 404.5,-459.825 408,-449.825 401,-449.825"/>
<text text-anchor="middle" x="417.49" y="-414.801" font-family="Times New Roman,serif" font-size="8.00">use</text>
</g>
<!-- http://example.org/dist -->
<g id="node7" class="node"><title>http://example.org/dist</title>
<ellipse fill="none" stroke="black" cx="201.5" cy="-478" rx="91.784" ry="18"/>
<text text-anchor="middle" x="201.5" y="-474.3" font-family="Times New Roman,serif" font-size="14.00">http://example.org/dist</text>
</g>
<!-- http://example.org/access18&#45;&gt;http://example.org/dist -->
<g id="edge8" class="edge"><title>http://example.org/access18&#45;&gt;http://example.org/dist</title>
<path fill="none" stroke="black" d="M370.064,-406.419C336.524,-420.463 285.3,-441.912 248.122,-457.479"/>
<polygon fill="black" stroke="black" points="246.386,-454.411 238.514,-461.502 249.09,-460.868 246.386,-454.411"/>
<text text-anchor="middle" x="368.163" y="-419.398" font-family="Times New Roman,serif" font-size="8.00">use</text>
</g>
<!-- http://example.org/i#2 -->
<g id="node8" class="node"><title>http://example.org/i#2</title>
<ellipse fill="none" stroke="black" cx="605.5" cy="-478" rx="89.8845" ry="18"/>
<text text-anchor="middle" x="605.5" y="-474.3" font-family="Times New Roman,serif" font-size="14.00">http://example.org/i#2</text>
</g>
<!-- http://example.org/access18&#45;&gt;http://example.org/i#2 -->
<g id="edge9" class="edge"><title>http://example.org/access18&#45;&gt;http://example.org/i#2</title>
<path fill="none" stroke="black" d="M438.597,-406.419C471.807,-420.463 522.526,-441.912 559.338,-457.479"/>
<polygon fill="black" stroke="black" points="558.277,-460.83 568.851,-461.502 561.004,-454.383 558.277,-460.83"/>
<text text-anchor="middle" x="450.564" y="-395.476" font-family="Times New Roman,serif" font-size="8.00">use</text>
</g>
<!-- &#45;attrs1 -->
<g id="node4" class="node"><title>&#45;attrs1</title>
<polygon fill="none" stroke="gray" points="450.5,-307 376.5,-307 376.5,-271 456.5,-271 456.5,-301 450.5,-307"/>
<polyline fill="none" stroke="gray" points="450.5,-307 450.5,-301 "/>
<polyline fill="none" stroke="gray" points="456.5,-301 450.5,-301 "/>
<text text-anchor="start" x="386.5" y="-286" font-family="Times New Roman,serif" font-size="10.00">type:</text>
<text text-anchor="start" x="409.5" y="-286" font-family="Times New Roman,serif" font-size="10.00">&quot;access&quot;</text>
</g>
<!-- &#45;attrs1&#45;&gt;http://example.org/access18 -->
<g id="edge2" class="edge"><title>&#45;attrs1&#45;&gt;http://example.org/access18</title>
<path fill="none" stroke="gray" stroke-dasharray="5,2" d="M414.41,-307.419C412.207,-325.773 408.76,-354.502 406.566,-372.781"/>
</g>
<!-- bn0&#45;&gt;http://example.org/list1 -->
<g id="edge6" class="edge"><title>bn0&#45;&gt;http://example.org/list1</title>
<path fill="none" stroke="darkgreen" d="M214.72,-392.543C225.629,-397.398 307.268,-433.729 359.857,-457.133"/>
<polygon fill="darkgreen" stroke="darkgreen" points="358.435,-460.331 368.994,-461.199 361.281,-453.935 358.435,-460.331"/>
</g>
<!-- bn0&#45;&gt;http://example.org/dist -->
<g id="edge5" class="edge"><title>bn0&#45;&gt;http://example.org/dist</title>
<path fill="none" stroke="darkgreen" d="M213.365,-392.955C212.578,-398.528 208.504,-427.391 205.346,-449.755"/>
<polygon fill="darkgreen" stroke="darkgreen" points="201.864,-449.382 203.932,-459.773 208.796,-450.361 201.864,-449.382"/>
<text text-anchor="middle" x="216.5" y="-430.8" font-family="Times New Roman,serif" font-size="14.00">[1]</text>
</g>
<!-- http://example.org/disti#2 -->
<g id="node9" class="node"><title>http://example.org/disti#2</title>
<g id="a_node9"><a xlink:href="http://example.org/disti#2" xlink:title="disti#2">
<ellipse fill="#fffc87" stroke="#808080" cx="332.5" cy="-117" rx="35.194" ry="18"/>
<text text-anchor="middle" x="332.5" y="-113.3" font-family="Times New Roman,serif" font-size="14.00">disti#2</text>
</a>
</g>
</g>
<!-- http://example.org/disti#2&#45;&gt;http://example.org/dist_ai#2 -->
<g id="edge13" class="edge"><title>http://example.org/disti#2&#45;&gt;http://example.org/dist_ai#2</title>
<path fill="none" stroke="darkgreen" d="M330.826,-135.28C328.05,-158.641 321.161,-201.15 305.5,-234 300.413,-244.671 292.933,-255.207 285.689,-264.1"/>
<polygon fill="darkgreen" stroke="darkgreen" points="282.987,-261.875 279.179,-271.761 288.321,-266.407 282.987,-261.875"/>
<text text-anchor="middle" x="406" y="-206.8" font-family="Times New Roman,serif" font-size="14.00">der ref</text>
<text text-anchor="middle" x="406" y="-191.8" font-family="Times New Roman,serif" font-size="14.00">2018&#45;03&#45;05T16:04:20.293774</text>
</g>
<!-- http://example.org/assign11 -->
<g id="node11" class="node"><title>http://example.org/assign11</title>
<g id="a_node11"><a xlink:href="http://example.org/assign11" xlink:title="assign11">
<polygon fill="#9fb1fc" stroke="#0000ff" points="296,-221 231,-221 231,-185 296,-185 296,-221"/>
<text text-anchor="middle" x="263.5" y="-199.3" font-family="Times New Roman,serif" font-size="14.00">assign11</text>
</a>
</g>
</g>
<!-- http://example.org/disti#2&#45;&gt;http://example.org/assign11 -->
<g id="edge14" class="edge"><title>http://example.org/disti#2&#45;&gt;http://example.org/assign11</title>
<path fill="none" stroke="black" d="M319.522,-133.8C309.536,-145.956 295.545,-162.989 284.043,-176.991"/>
<polygon fill="black" stroke="black" points="281.25,-174.877 277.608,-184.826 286.66,-179.32 281.25,-174.877"/>
<text text-anchor="middle" x="324.799" y="-145.941" font-family="Times New Roman,serif" font-size="8.00">gen</text>
</g>
<!-- &#45;attrs2 -->
<g id="node10" class="node"><title>&#45;attrs2</title>
<polygon fill="none" stroke="gray" points="433,-62 226,-62 226,-0 439,-0 439,-56 433,-62"/>
<polyline fill="none" stroke="gray" points="433,-62 433,-56 "/>
<polyline fill="none" stroke="gray" points="439,-56 433,-56 "/>
<text text-anchor="start" x="236.5" y="-48" font-family="Times New Roman,serif" font-size="10.00">value:</text>
<text text-anchor="start" x="311.5" y="-48" font-family="Times New Roman,serif" font-size="10.00">&quot;[10000, 0, 2]&quot;</text>
<text text-anchor="start" x="236.5" y="-35" font-family="Times New Roman,serif" font-size="10.00">type:</text>
<text text-anchor="start" x="311.5" y="-35" font-family="Times New Roman,serif" font-size="10.00">&quot;name&quot;</text>
<text text-anchor="start" x="236.5" y="-22" font-family="Times New Roman,serif" font-size="10.00">label:</text>
<text text-anchor="start" x="311.5" y="-22" font-family="Times New Roman,serif" font-size="10.00">&quot;disti&quot;</text>
<text text-anchor="start" x="236.5" y="-9" font-family="Times New Roman,serif" font-size="10.00">generatedAtTime:</text>
<text text-anchor="start" x="311.5" y="-9" font-family="Times New Roman,serif" font-size="10.00">&quot;2018&#45;03&#45;05T16:04:20.293774&quot;</text>
</g>
<!-- &#45;attrs2&#45;&gt;http://example.org/disti#2 -->
<g id="edge10" class="edge"><title>&#45;attrs2&#45;&gt;http://example.org/disti#2</title>
<path fill="none" stroke="gray" stroke-dasharray="5,2" d="M332.5,-62.3259C332.5,-74.5443 332.5,-88.1945 332.5,-98.6716"/>
</g>
<!-- http://example.org/assign11&#45;&gt;http://example.org/dist_ai#2 -->
<g id="edge12" class="edge"><title>http://example.org/assign11&#45;&gt;http://example.org/dist_ai#2</title>
<path fill="none" stroke="black" d="M263.5,-221.405C263.5,-232.743 263.5,-247.773 263.5,-260.685"/>
<polygon fill="black" stroke="black" points="260,-260.905 263.5,-270.905 267,-260.905 260,-260.905"/>
<text text-anchor="middle" x="276.49" y="-227.005" font-family="Times New Roman,serif" font-size="8.00">use</text>
</g>
<!-- &#45;attrs3 -->
<g id="node12" class="node"><title>&#45;attrs3</title>
<polygon fill="none" stroke="gray" points="273,-135 200,-135 200,-99 279,-99 279,-129 273,-135"/>
<polyline fill="none" stroke="gray" points="273,-135 273,-129 "/>
<polyline fill="none" stroke="gray" points="279,-129 273,-129 "/>
<text text-anchor="start" x="210.5" y="-114" font-family="Times New Roman,serif" font-size="10.00">type:</text>
<text text-anchor="start" x="233.5" y="-114" font-family="Times New Roman,serif" font-size="10.00">&quot;assign&quot;</text>
</g>
<!-- &#45;attrs3&#45;&gt;http://example.org/assign11 -->
<g id="edge11" class="edge"><title>&#45;attrs3&#45;&gt;http://example.org/assign11</title>
<path fill="none" stroke="gray" stroke-dasharray="5,2" d="M244.473,-135.405C248.619,-149.917 254.494,-170.479 258.616,-184.905"/>
</g>
</g>
</svg>
