<?xml version="1.0" encoding="UTF-8" standalone="no"?>
<!DOCTYPE svg PUBLIC "-//W3C//DTD SVG 1.1//EN"
 "http://www.w3.org/Graphics/SVG/1.1/DTD/svg11.dtd">
<!-- Generated by graphviz version 2.38.0 (20140413.2041)
 -->
<!-- Title: PROV Pages: 1 -->
<svg width="1152pt" height="661pt"
 viewBox="0.00 0.00 1152.00 661.43" xmlns="http://www.w3.org/2000/svg" xmlns:xlink="http://www.w3.org/1999/xlink">
<g id="graph0" class="graph" transform="scale(0.978441 0.978441) rotate(0) translate(4 672)">
<title>PROV</title>
<polygon fill="white" stroke="none" points="-4,4 -4,-672 1173.38,-672 1173.38,4 -4,4"/>
<!-- http://example.org/disti_ak#6 -->
<g id="node1" class="node"><title>http://example.org/disti_ak#6</title>
<g id="a_node1"><a xlink:href="http://example.org/disti_ak#6" xlink:title="disti_ak#6">
<ellipse fill="#fffc87" stroke="#808080" cx="438.691" cy="-461" rx="48.1917" ry="18"/>
<text text-anchor="middle" x="438.691" y="-457.3" font-family="Times New Roman,serif" font-size="14.00">disti_ak#6</text>
</a>
</g>
</g>
<!-- http://example.org/access28 -->
<g id="node3" class="node"><title>http://example.org/access28</title>
<g id="a_node3"><a xlink:href="http://example.org/access28" xlink:title="access28">
<polygon fill="#9fb1fc" stroke="#0000ff" points="496.691,-581 428.691,-581 428.691,-545 496.691,-545 496.691,-581"/>
<text text-anchor="middle" x="462.691" y="-559.3" font-family="Times New Roman,serif" font-size="14.00">access28</text>
</a>
</g>
</g>
<!-- http://example.org/disti_ak#6&#45;&gt;http://example.org/access28 -->
<g id="edge7" class="edge"><title>http://example.org/disti_ak#6&#45;&gt;http://example.org/access28</title>
<path fill="none" stroke="black" d="M443.801,-479.029C445.444,-484.722 447.218,-491.115 448.691,-497 451.781,-509.346 454.806,-523.114 457.249,-534.789"/>
<polygon fill="black" stroke="black" points="453.869,-535.733 459.314,-544.821 460.726,-534.321 453.869,-535.733"/>
<text text-anchor="middle" x="458.357" y="-480.75" font-family="Times New Roman,serif" font-size="8.00">gen</text>
</g>
<!-- bn0 -->
<g id="node6" class="node"><title>bn0</title>
<ellipse fill="black" stroke="black" cx="284.691" cy="-563" rx="1.8" ry="1.8"/>
</g>
<!-- http://example.org/disti_ak#6&#45;&gt;bn0 -->
<g id="edge4" class="edge"><title>http://example.org/disti_ak#6&#45;&gt;bn0</title>
<path fill="none" stroke="darkgreen" d="M392.17,-466.025C350.99,-470.666 295.359,-479.95 281.691,-497 265.298,-517.449 281.081,-554.218 284.185,-560.932"/>
<text text-anchor="middle" x="363.191" y="-515.8" font-family="Times New Roman,serif" font-size="14.00">der ac&#45;r</text>
<text text-anchor="middle" x="363.191" y="-500.8" font-family="Times New Roman,serif" font-size="14.00">2018&#45;03&#45;05T16:04:21.067075</text>
</g>
<!-- &#45;attrs0 -->
<g id="node2" class="node"><title>&#45;attrs0</title>
<polygon fill="none" stroke="gray" points="434.191,-406 227.191,-406 227.191,-344 440.191,-344 440.191,-400 434.191,-406"/>
<polyline fill="none" stroke="gray" points="434.191,-406 434.191,-400 "/>
<polyline fill="none" stroke="gray" points="440.191,-400 434.191,-400 "/>
<text text-anchor="start" x="237.691" y="-392" font-family="Times New Roman,serif" font-size="10.00">value:</text>
<text text-anchor="start" x="312.691" y="-392" font-family="Times New Roman,serif" font-size="10.00">&quot;10000&quot;</text>
<text text-anchor="start" x="237.691" y="-379" font-family="Times New Roman,serif" font-size="10.00">type:</text>
<text text-anchor="start" x="312.691" y="-379" font-family="Times New Roman,serif" font-size="10.00">&quot;access&quot;</text>
<text text-anchor="start" x="237.691" y="-366" font-family="Times New Roman,serif" font-size="10.00">label:</text>
<text text-anchor="start" x="312.691" y="-366" font-family="Times New Roman,serif" font-size="10.00">&quot;disti[k]&quot;</text>
<text text-anchor="start" x="237.691" y="-353" font-family="Times New Roman,serif" font-size="10.00">generatedAtTime:</text>
<text text-anchor="start" x="312.691" y="-353" font-family="Times New Roman,serif" font-size="10.00">&quot;2018&#45;03&#45;05T16:04:21.067075&quot;</text>
</g>
<!-- &#45;attrs0&#45;&gt;http://example.org/disti_ak#6 -->
<g id="edge1" class="edge"><title>&#45;attrs0&#45;&gt;http://example.org/disti_ak#6</title>
<path fill="none" stroke="gray" stroke-dasharray="5,2" d="M371.302,-406.089C387.543,-419.082 405.857,-433.733 419.289,-444.478"/>
</g>
<!-- http://example.org/m -->
<g id="node5" class="node"><title>http://example.org/m</title>
<ellipse fill="none" stroke="black" cx="308.691" cy="-650" rx="85.2851" ry="18"/>
<text text-anchor="middle" x="308.691" y="-646.3" font-family="Times New Roman,serif" font-size="14.00">http://example.org/m</text>
</g>
<!-- http://example.org/access28&#45;&gt;http://example.org/m -->
<g id="edge3" class="edge"><title>http://example.org/access28&#45;&gt;http://example.org/m</title>
<path fill="none" stroke="black" d="M431.527,-581.201C406.997,-594.74 372.711,-613.664 346.593,-628.08"/>
<polygon fill="black" stroke="black" points="344.789,-625.078 337.725,-632.975 348.171,-631.207 344.789,-625.078"/>
<text text-anchor="middle" x="431.238" y="-594.298" font-family="Times New Roman,serif" font-size="8.00">use</text>
</g>
<!-- http://example.org/disti#2 -->
<g id="node7" class="node"><title>http://example.org/disti#2</title>
<ellipse fill="none" stroke="black" cx="102.691" cy="-650" rx="102.882" ry="18"/>
<text text-anchor="middle" x="102.691" y="-646.3" font-family="Times New Roman,serif" font-size="14.00">http://example.org/disti#2</text>
</g>
<!-- http://example.org/access28&#45;&gt;http://example.org/disti#2 -->
<g id="edge8" class="edge"><title>http://example.org/access28&#45;&gt;http://example.org/disti#2</title>
<path fill="none" stroke="black" d="M428.498,-572.073C369.709,-585.954 248.395,-614.598 171.528,-632.747"/>
<polygon fill="black" stroke="black" points="170.381,-629.421 161.453,-635.126 171.99,-636.234 170.381,-629.421"/>
<text text-anchor="middle" x="424.184" y="-584.539" font-family="Times New Roman,serif" font-size="8.00">use</text>
</g>
<!-- http://example.org/k -->
<g id="node8" class="node"><title>http://example.org/k</title>
<ellipse fill="none" stroke="black" cx="494.691" cy="-650" rx="83.3857" ry="18"/>
<text text-anchor="middle" x="494.691" y="-646.3" font-family="Times New Roman,serif" font-size="14.00">http://example.org/k</text>
</g>
<!-- http://example.org/access28&#45;&gt;http://example.org/k -->
<g id="edge9" class="edge"><title>http://example.org/access28&#45;&gt;http://example.org/k</title>
<path fill="none" stroke="black" d="M469.167,-581.201C473.591,-592.953 479.542,-608.762 484.586,-622.158"/>
<polygon fill="black" stroke="black" points="481.426,-623.699 488.225,-631.825 487.977,-621.233 481.426,-623.699"/>
<text text-anchor="middle" x="483.966" y="-581.743" font-family="Times New Roman,serif" font-size="8.00">use</text>
</g>
<!-- &#45;attrs1 -->
<g id="node4" class="node"><title>&#45;attrs1</title>
<polygon fill="none" stroke="gray" points="578.691,-479 504.691,-479 504.691,-443 584.691,-443 584.691,-473 578.691,-479"/>
<polyline fill="none" stroke="gray" points="578.691,-479 578.691,-473 "/>
<polyline fill="none" stroke="gray" points="584.691,-473 578.691,-473 "/>
<text text-anchor="start" x="514.691" y="-458" font-family="Times New Roman,serif" font-size="10.00">type:</text>
<text text-anchor="start" x="537.691" y="-458" font-family="Times New Roman,serif" font-size="10.00">&quot;access&quot;</text>
</g>
<!-- &#45;attrs1&#45;&gt;http://example.org/access28 -->
<g id="edge2" class="edge"><title>&#45;attrs1&#45;&gt;http://example.org/access28</title>
<path fill="none" stroke="gray" stroke-dasharray="5,2" d="M530.408,-479.419C515.357,-497.773 491.799,-526.502 476.811,-544.781"/>
</g>
<!-- bn0&#45;&gt;http://example.org/m -->
<g id="edge6" class="edge"><title>bn0&#45;&gt;http://example.org/m</title>
<path fill="none" stroke="darkgreen" d="M284.96,-564.955C286.541,-570.554 294.757,-599.652 301.084,-622.058"/>
<polygon fill="darkgreen" stroke="darkgreen" points="297.741,-623.101 303.827,-631.773 304.478,-621.199 297.741,-623.101"/>
</g>
<!-- bn0&#45;&gt;http://example.org/disti#2 -->
<g id="edge5" class="edge"><title>bn0&#45;&gt;http://example.org/disti#2</title>
<path fill="none" stroke="darkgreen" d="M283.038,-564.31C272.61,-566.308 215.008,-577.952 172.691,-599 157.915,-606.35 142.853,-616.67 130.505,-626.027"/>
<polygon fill="darkgreen" stroke="darkgreen" points="128.176,-623.404 122.426,-632.303 132.471,-628.932 128.176,-623.404"/>
<text text-anchor="middle" x="180.691" y="-602.8" font-family="Times New Roman,serif" font-size="14.00">[0]</text>
</g>
<!-- http://example.org/distk_aj#6 -->
<g id="node9" class="node"><title>http://example.org/distk_aj#6</title>
<g id="a_node9"><a xlink:href="http://example.org/distk_aj#6" xlink:title="distk_aj#6">
<ellipse fill="#fffc87" stroke="#808080" cx="688.691" cy="-461" rx="48.1917" ry="18"/>
<text text-anchor="middle" x="688.691" y="-457.3" font-family="Times New Roman,serif" font-size="14.00">distk_aj#6</text>
</a>
</g>
</g>
<!-- http://example.org/access29 -->
<g id="node11" class="node"><title>http://example.org/access29</title>
<g id="a_node11"><a xlink:href="http://example.org/access29" xlink:title="access29">
<polygon fill="#9fb1fc" stroke="#0000ff" points="922.691,-581 854.691,-581 854.691,-545 922.691,-545 922.691,-581"/>
<text text-anchor="middle" x="888.691" y="-559.3" font-family="Times New Roman,serif" font-size="14.00">access29</text>
</a>
</g>
</g>
<!-- http://example.org/distk_aj#6&#45;&gt;http://example.org/access29 -->
<g id="edge16" class="edge"><title>http://example.org/distk_aj#6&#45;&gt;http://example.org/access29</title>
<path fill="none" stroke="black" d="M736.79,-461.952C771.987,-464.2 819.239,-472.217 852.691,-497 865.536,-506.516 874.38,-522.05 880.088,-535.547"/>
<polygon fill="black" stroke="black" points="876.833,-536.832 883.702,-544.898 883.362,-534.309 876.833,-536.832"/>
<text text-anchor="middle" x="745.287" y="-447.691" font-family="Times New Roman,serif" font-size="8.00">gen</text>
</g>
<!-- bn1 -->
<g id="node14" class="node"><title>bn1</title>
<ellipse fill="black" stroke="black" cx="691.691" cy="-563" rx="1.8" ry="1.8"/>
</g>
<!-- http://example.org/distk_aj#6&#45;&gt;bn1 -->
<g id="edge13" class="edge"><title>http://example.org/distk_aj#6&#45;&gt;bn1</title>
<path fill="none" stroke="darkgreen" d="M688.76,-479.112C688.859,-492.222 689.102,-510.759 689.691,-527 690.185,-540.624 691.346,-557.203 691.628,-561.135"/>
<text text-anchor="middle" x="771.191" y="-515.8" font-family="Times New Roman,serif" font-size="14.00">der ac&#45;r</text>
<text text-anchor="middle" x="771.191" y="-500.8" font-family="Times New Roman,serif" font-size="14.00">2018&#45;03&#45;05T16:04:21.067075</text>
</g>
<!-- &#45;attrs2 -->
<g id="node10" class="node"><title>&#45;attrs2</title>
<polygon fill="none" stroke="gray" points="814.191,-406 607.191,-406 607.191,-344 820.191,-344 820.191,-400 814.191,-406"/>
<polyline fill="none" stroke="gray" points="814.191,-406 814.191,-400 "/>
<polyline fill="none" stroke="gray" points="820.191,-400 814.191,-400 "/>
<text text-anchor="start" x="617.691" y="-392" font-family="Times New Roman,serif" font-size="10.00">value:</text>
<text text-anchor="start" x="692.691" y="-392" font-family="Times New Roman,serif" font-size="10.00">&quot;4&quot;</text>
<text text-anchor="start" x="617.691" y="-379" font-family="Times New Roman,serif" font-size="10.00">type:</text>
<text text-anchor="start" x="692.691" y="-379" font-family="Times New Roman,serif" font-size="10.00">&quot;access&quot;</text>
<text text-anchor="start" x="617.691" y="-366" font-family="Times New Roman,serif" font-size="10.00">label:</text>
<text text-anchor="start" x="692.691" y="-366" font-family="Times New Roman,serif" font-size="10.00">&quot;distk[j]&quot;</text>
<text text-anchor="start" x="617.691" y="-353" font-family="Times New Roman,serif" font-size="10.00">generatedAtTime:</text>
<text text-anchor="start" x="692.691" y="-353" font-family="Times New Roman,serif" font-size="10.00">&quot;2018&#45;03&#45;05T16:04:21.067075&quot;</text>
</g>
<!-- &#45;attrs2&#45;&gt;http://example.org/distk_aj#6 -->
<g id="edge10" class="edge"><title>&#45;attrs2&#45;&gt;http://example.org/distk_aj#6</title>
<path fill="none" stroke="gray" stroke-dasharray="5,2" d="M704.665,-406.326C701.029,-418.544 696.966,-432.195 693.848,-442.672"/>
</g>
<!-- http://example.org/4 -->
<g id="node13" class="node"><title>http://example.org/4</title>
<ellipse fill="none" stroke="black" cx="888.691" cy="-650" rx="83.3857" ry="18"/>
<text text-anchor="middle" x="888.691" y="-646.3" font-family="Times New Roman,serif" font-size="14.00">http://example.org/4</text>
</g>
<!-- http://example.org/access29&#45;&gt;http://example.org/4 -->
<g id="edge12" class="edge"><title>http://example.org/access29&#45;&gt;http://example.org/4</title>
<path fill="none" stroke="black" d="M888.691,-581.201C888.691,-592.837 888.691,-608.452 888.691,-621.763"/>
<polygon fill="black" stroke="black" points="885.191,-621.825 888.691,-631.825 892.191,-621.825 885.191,-621.825"/>
<text text-anchor="middle" x="901.681" y="-586.801" font-family="Times New Roman,serif" font-size="8.00">use</text>
</g>
<!-- http://example.org/distk -->
<g id="node15" class="node"><title>http://example.org/distk</title>
<ellipse fill="none" stroke="black" cx="691.691" cy="-650" rx="96.3833" ry="18"/>
<text text-anchor="middle" x="691.691" y="-646.3" font-family="Times New Roman,serif" font-size="14.00">http://example.org/distk</text>
</g>
<!-- http://example.org/access29&#45;&gt;http://example.org/distk -->
<g id="edge17" class="edge"><title>http://example.org/access29&#45;&gt;http://example.org/distk</title>
<path fill="none" stroke="black" d="M854.376,-578.806C821.994,-592.778 773.218,-613.823 737.519,-629.226"/>
<polygon fill="black" stroke="black" points="736.079,-626.036 728.283,-633.211 738.852,-632.463 736.079,-626.036"/>
<text text-anchor="middle" x="852.636" y="-591.805" font-family="Times New Roman,serif" font-size="8.00">use</text>
</g>
<!-- http://example.org/j#6 -->
<g id="node16" class="node"><title>http://example.org/j#6</title>
<ellipse fill="none" stroke="black" cx="1079.69" cy="-650" rx="89.8845" ry="18"/>
<text text-anchor="middle" x="1079.69" y="-646.3" font-family="Times New Roman,serif" font-size="14.00">http://example.org/j#6</text>
</g>
<!-- http://example.org/access29&#45;&gt;http://example.org/j#6 -->
<g id="edge18" class="edge"><title>http://example.org/access29&#45;&gt;http://example.org/j#6</title>
<path fill="none" stroke="black" d="M922.838,-579.196C954.224,-593.164 1000.94,-613.954 1035.23,-629.213"/>
<polygon fill="black" stroke="black" points="1033.99,-632.492 1044.55,-633.36 1036.83,-626.097 1033.99,-632.492"/>
<text text-anchor="middle" x="934.972" y="-568.477" font-family="Times New Roman,serif" font-size="8.00">use</text>
</g>
<!-- &#45;attrs3 -->
<g id="node12" class="node"><title>&#45;attrs3</title>
<polygon fill="none" stroke="gray" points="925.691,-479 851.691,-479 851.691,-443 931.691,-443 931.691,-473 925.691,-479"/>
<polyline fill="none" stroke="gray" points="925.691,-479 925.691,-473 "/>
<polyline fill="none" stroke="gray" points="931.691,-473 925.691,-473 "/>
<text text-anchor="start" x="861.691" y="-458" font-family="Times New Roman,serif" font-size="10.00">type:</text>
<text text-anchor="start" x="884.691" y="-458" font-family="Times New Roman,serif" font-size="10.00">&quot;access&quot;</text>
</g>
<!-- &#45;attrs3&#45;&gt;http://example.org/access29 -->
<g id="edge11" class="edge"><title>&#45;attrs3&#45;&gt;http://example.org/access29</title>
<path fill="none" stroke="gray" stroke-dasharray="5,2" d="M891.168,-479.419C890.618,-497.773 889.756,-526.502 889.207,-544.781"/>
</g>
<!-- bn1&#45;&gt;http://example.org/4 -->
<g id="edge15" class="edge"><title>bn1&#45;&gt;http://example.org/4</title>
<path fill="none" stroke="darkgreen" d="M692.949,-564.543C704.263,-569.425 789.332,-606.13 843.537,-629.517"/>
<polygon fill="darkgreen" stroke="darkgreen" points="842.376,-632.828 852.944,-633.576 845.149,-626.401 842.376,-632.828"/>
</g>
<!-- bn1&#45;&gt;http://example.org/distk -->
<g id="edge14" class="edge"><title>bn1&#45;&gt;http://example.org/distk</title>
<path fill="none" stroke="darkgreen" d="M691.691,-564.955C691.691,-570.528 691.691,-599.391 691.691,-621.755"/>
<polygon fill="darkgreen" stroke="darkgreen" points="688.191,-621.773 691.691,-631.773 695.191,-621.773 688.191,-621.773"/>
<text text-anchor="middle" x="699.691" y="-602.8" font-family="Times New Roman,serif" font-size="14.00">[2]</text>
</g>
<!-- http://example.org/sum#6 -->
<g id="node17" class="node"><title>http://example.org/sum#6</title>
<g id="a_node17"><a xlink:href="http://example.org/sum#6" xlink:title="sum#6">
<ellipse fill="#fffc87" stroke="#808080" cx="576.691" cy="-289" rx="35.194" ry="18"/>
<text text-anchor="middle" x="576.691" y="-285.3" font-family="Times New Roman,serif" font-size="14.00">sum#6</text>
</a>
</g>
</g>
<!-- http://example.org/sum#6&#45;&gt;http://example.org/disti_ak#6 -->
<g id="edge22" class="edge"><title>http://example.org/sum#6&#45;&gt;http://example.org/disti_ak#6</title>
<path fill="none" stroke="black" d="M549.854,-300.845C530.378,-309.886 504.587,-324.444 487.691,-344 465.205,-370.026 451.851,-407.873 444.897,-433.183"/>
<polygon fill="black" stroke="black" points="441.508,-432.308 442.379,-442.867 448.283,-434.069 441.508,-432.308"/>
<text text-anchor="middle" x="548.692" y="-313.9" font-family="Times New Roman,serif" font-size="8.00">der</text>
</g>
<!-- http://example.org/sum#6&#45;&gt;http://example.org/distk_aj#6 -->
<g id="edge24" class="edge"><title>http://example.org/sum#6&#45;&gt;http://example.org/distk_aj#6</title>
<path fill="none" stroke="black" d="M575.769,-307.002C575.31,-331.182 577.705,-375.903 598.691,-406 610.211,-422.521 628.561,-434.842 645.695,-443.511"/>
<polygon fill="black" stroke="black" points="644.504,-446.82 655.038,-447.954 647.511,-440.498 644.504,-446.82"/>
<text text-anchor="middle" x="588.724" y="-312.662" font-family="Times New Roman,serif" font-size="8.00">der</text>
</g>
<!-- http://example.org/+6 -->
<g id="node19" class="node"><title>http://example.org/+6</title>
<g id="a_node19"><a xlink:href="http://example.org/+6" xlink:title="+6">
<polygon fill="#9fb1fc" stroke="#0000ff" points="550.691,-393 496.691,-393 496.691,-357 550.691,-357 550.691,-393"/>
<text text-anchor="middle" x="523.691" y="-371.3" font-family="Times New Roman,serif" font-size="14.00">+6</text>
</a>
</g>
</g>
<!-- http://example.org/sum#6&#45;&gt;http://example.org/+6 -->
<g id="edge25" class="edge"><title>http://example.org/sum#6&#45;&gt;http://example.org/+6</title>
<path fill="none" stroke="black" d="M566.22,-306.596C558.697,-318.519 548.413,-334.818 539.843,-348.401"/>
<polygon fill="black" stroke="black" points="536.88,-346.537 534.504,-356.862 542.8,-350.272 536.88,-346.537"/>
<text text-anchor="middle" x="573.204" y="-317.971" font-family="Times New Roman,serif" font-size="8.00">gen</text>
</g>
<!-- &#45;attrs4 -->
<g id="node18" class="node"><title>&#45;attrs4</title>
<polygon fill="none" stroke="gray" points="520.191,-234 313.191,-234 313.191,-172 526.191,-172 526.191,-228 520.191,-234"/>
<polyline fill="none" stroke="gray" points="520.191,-234 520.191,-228 "/>
<polyline fill="none" stroke="gray" points="526.191,-228 520.191,-228 "/>
<text text-anchor="start" x="323.691" y="-220" font-family="Times New Roman,serif" font-size="10.00">value:</text>
<text text-anchor="start" x="398.691" y="-220" font-family="Times New Roman,serif" font-size="10.00">&quot;10004&quot;</text>
<text text-anchor="start" x="323.691" y="-207" font-family="Times New Roman,serif" font-size="10.00">type:</text>
<text text-anchor="start" x="398.691" y="-207" font-family="Times New Roman,serif" font-size="10.00">&quot;operation&quot;</text>
<text text-anchor="start" x="323.691" y="-194" font-family="Times New Roman,serif" font-size="10.00">label:</text>
<text text-anchor="start" x="398.691" y="-194" font-family="Times New Roman,serif" font-size="10.00">&quot;disti[k] + distk[j]&quot;</text>
<text text-anchor="start" x="323.691" y="-181" font-family="Times New Roman,serif" font-size="10.00">generatedAtTime:</text>
<text text-anchor="start" x="398.691" y="-181" font-family="Times New Roman,serif" font-size="10.00">&quot;2018&#45;03&#45;05T16:04:21.067075&quot;</text>
</g>
<!-- &#45;attrs4&#45;&gt;http://example.org/sum#6 -->
<g id="edge19" class="edge"><title>&#45;attrs4&#45;&gt;http://example.org/sum#6</title>
<path fill="none" stroke="gray" stroke-dasharray="5,2" d="M475.928,-234.089C502.5,-248.306 532.782,-264.508 553.153,-275.407"/>
</g>
<!-- http://example.org/+6&#45;&gt;http://example.org/disti_ak#6 -->
<g id="edge21" class="edge"><title>http://example.org/+6&#45;&gt;http://example.org/disti_ak#6</title>
<path fill="none" stroke="black" d="M510.813,-393.064C503.104,-402.836 492.854,-415.086 482.691,-425 478.106,-429.473 472.98,-433.953 467.892,-438.142"/>
<polygon fill="black" stroke="black" points="465.636,-435.464 460.011,-444.442 470.007,-440.932 465.636,-435.464"/>
<text text-anchor="middle" x="516.313" y="-405.12" font-family="Times New Roman,serif" font-size="8.00">use</text>
</g>
<!-- http://example.org/+6&#45;&gt;http://example.org/distk_aj#6 -->
<g id="edge23" class="edge"><title>http://example.org/+6&#45;&gt;http://example.org/distk_aj#6</title>
<path fill="none" stroke="black" d="M534.25,-393.275C541.566,-403.875 552.214,-416.922 564.691,-425 585.464,-438.449 611.44,-446.811 634.242,-451.97"/>
<polygon fill="black" stroke="black" points="633.623,-455.416 644.13,-454.056 635.068,-448.567 633.623,-455.416"/>
<text text-anchor="middle" x="549.187" y="-390.005" font-family="Times New Roman,serif" font-size="8.00">use</text>
</g>
<!-- &#45;attrs5 -->
<g id="node20" class="node"><title>&#45;attrs5</title>
<polygon fill="none" stroke="gray" points="517.691,-307 465.691,-307 465.691,-271 523.691,-271 523.691,-301 517.691,-307"/>
<polyline fill="none" stroke="gray" points="517.691,-307 517.691,-301 "/>
<polyline fill="none" stroke="gray" points="523.691,-301 517.691,-301 "/>
<text text-anchor="start" x="475.691" y="-286" font-family="Times New Roman,serif" font-size="10.00">type:</text>
<text text-anchor="start" x="498.691" y="-286" font-family="Times New Roman,serif" font-size="10.00">&quot;+&quot;</text>
</g>
<!-- &#45;attrs5&#45;&gt;http://example.org/+6 -->
<g id="edge20" class="edge"><title>&#45;attrs5&#45;&gt;http://example.org/+6</title>
<path fill="none" stroke="gray" stroke-dasharray="5,2" d="M500.7,-307.405C505.71,-321.917 512.809,-342.479 517.789,-356.905"/>
</g>
<!-- http://example.org/ikj#6 -->
<g id="node21" class="node"><title>http://example.org/ikj#6</title>
<g id="a_node21"><a xlink:href="http://example.org/ikj#6" xlink:title="ikj#6">
<ellipse fill="#fffc87" stroke="#808080" cx="645.691" cy="-117" rx="28.6953" ry="18"/>
<text text-anchor="middle" x="645.691" y="-113.3" font-family="Times New Roman,serif" font-size="14.00">ikj#6</text>
</a>
</g>
</g>
<!-- http://example.org/ikj#6&#45;&gt;http://example.org/sum#6 -->
<g id="edge29" class="edge"><title>http://example.org/ikj#6&#45;&gt;http://example.org/sum#6</title>
<path fill="none" stroke="darkgreen" d="M644.017,-135.28C641.241,-158.641 634.352,-201.15 618.691,-234 613.447,-244.999 605.661,-255.855 598.212,-264.916"/>
<polygon fill="darkgreen" stroke="darkgreen" points="595.402,-262.816 591.549,-272.685 600.716,-267.373 595.402,-262.816"/>
<text text-anchor="middle" x="719.191" y="-206.8" font-family="Times New Roman,serif" font-size="14.00">der ref</text>
<text text-anchor="middle" x="719.191" y="-191.8" font-family="Times New Roman,serif" font-size="14.00">2018&#45;03&#45;05T16:04:21.067075</text>
</g>
<!-- http://example.org/assign14 -->
<g id="node23" class="node"><title>http://example.org/assign14</title>
<g id="a_node23"><a xlink:href="http://example.org/assign14" xlink:title="assign14">
<polygon fill="#9fb1fc" stroke="#0000ff" points="609.191,-221 544.191,-221 544.191,-185 609.191,-185 609.191,-221"/>
<text text-anchor="middle" x="576.691" y="-199.3" font-family="Times New Roman,serif" font-size="14.00">assign14</text>
</a>
</g>
</g>
<!-- http://example.org/ikj#6&#45;&gt;http://example.org/assign14 -->
<g id="edge30" class="edge"><title>http://example.org/ikj#6&#45;&gt;http://example.org/assign14</title>
<path fill="none" stroke="black" d="M633.035,-133.407C623.018,-145.602 608.828,-162.877 597.194,-177.04"/>
<polygon fill="black" stroke="black" points="594.333,-175.008 590.69,-184.957 599.742,-179.451 594.333,-175.008"/>
<text text-anchor="middle" x="638.313" y="-145.548" font-family="Times New Roman,serif" font-size="8.00">gen</text>
</g>
<!-- &#45;attrs6 -->
<g id="node22" class="node"><title>&#45;attrs6</title>
<polygon fill="none" stroke="gray" points="746.191,-62 539.191,-62 539.191,-0 752.191,-0 752.191,-56 746.191,-62"/>
<polyline fill="none" stroke="gray" points="746.191,-62 746.191,-56 "/>
<polyline fill="none" stroke="gray" points="752.191,-56 746.191,-56 "/>
<text text-anchor="start" x="549.691" y="-48" font-family="Times New Roman,serif" font-size="10.00">value:</text>
<text text-anchor="start" x="624.691" y="-48" font-family="Times New Roman,serif" font-size="10.00">&quot;10004&quot;</text>
<text text-anchor="start" x="549.691" y="-35" font-family="Times New Roman,serif" font-size="10.00">type:</text>
<text text-anchor="start" x="624.691" y="-35" font-family="Times New Roman,serif" font-size="10.00">&quot;name&quot;</text>
<text text-anchor="start" x="549.691" y="-22" font-family="Times New Roman,serif" font-size="10.00">label:</text>
<text text-anchor="start" x="624.691" y="-22" font-family="Times New Roman,serif" font-size="10.00">&quot;ikj&quot;</text>
<text text-anchor="start" x="549.691" y="-9" font-family="Times New Roman,serif" font-size="10.00">generatedAtTime:</text>
<text text-anchor="start" x="624.691" y="-9" font-family="Times New Roman,serif" font-size="10.00">&quot;2018&#45;03&#45;05T16:04:21.067075&quot;</text>
</g>
<!-- &#45;attrs6&#45;&gt;http://example.org/ikj#6 -->
<g id="edge26" class="edge"><title>&#45;attrs6&#45;&gt;http://example.org/ikj#6</title>
<path fill="none" stroke="gray" stroke-dasharray="5,2" d="M645.691,-62.3259C645.691,-74.5443 645.691,-88.1945 645.691,-98.6716"/>
</g>
<!-- http://example.org/assign14&#45;&gt;http://example.org/sum#6 -->
<g id="edge28" class="edge"><title>http://example.org/assign14&#45;&gt;http://example.org/sum#6</title>
<path fill="none" stroke="black" d="M576.691,-221.405C576.691,-232.743 576.691,-247.773 576.691,-260.685"/>
<polygon fill="black" stroke="black" points="573.191,-260.905 576.691,-270.905 580.191,-260.905 573.191,-260.905"/>
<text text-anchor="middle" x="589.681" y="-227.005" font-family="Times New Roman,serif" font-size="8.00">use</text>
</g>
<!-- &#45;attrs7 -->
<g id="node24" class="node"><title>&#45;attrs7</title>
<polygon fill="none" stroke="gray" points="593.191,-135 520.191,-135 520.191,-99 599.191,-99 599.191,-129 593.191,-135"/>
<polyline fill="none" stroke="gray" points="593.191,-135 593.191,-129 "/>
<polyline fill="none" stroke="gray" points="599.191,-129 593.191,-129 "/>
<text text-anchor="start" x="530.691" y="-114" font-family="Times New Roman,serif" font-size="10.00">type:</text>
<text text-anchor="start" x="553.691" y="-114" font-family="Times New Roman,serif" font-size="10.00">&quot;assign&quot;</text>
</g>
<!-- &#45;attrs7&#45;&gt;http://example.org/assign14 -->
<g id="edge27" class="edge"><title>&#45;attrs7&#45;&gt;http://example.org/assign14</title>
<path fill="none" stroke="gray" stroke-dasharray="5,2" d="M563.213,-135.405C566.15,-149.917 570.312,-170.479 573.231,-184.905"/>
</g>
</g>
</svg>
