<?xml version="1.0" encoding="UTF-8" standalone="no"?>
<!DOCTYPE svg PUBLIC "-//W3C//DTD SVG 1.1//EN"
 "http://www.w3.org/Graphics/SVG/1.1/DTD/svg11.dtd">
<!-- Generated by graphviz version 2.38.0 (20140413.2041)
 -->
<!-- Title: PROV Pages: 1 -->
<svg width="1152pt" height="639pt"
 viewBox="0.00 0.00 1152.00 638.88" xmlns="http://www.w3.org/2000/svg" xmlns:xlink="http://www.w3.org/1999/xlink">
<g id="graph0" class="graph" transform="scale(0.945089 0.945089) rotate(0) translate(4 672)">
<title>PROV</title>
<polygon fill="white" stroke="none" points="-4,4 -4,-672 1214.93,-672 1214.93,4 -4,4"/>
<!-- http://example.org/disti_ak#25 -->
<g id="node1" class="node"><title>http://example.org/disti_ak#25</title>
<g id="a_node1"><a xlink:href="http://example.org/disti_ak#25" xlink:title="disti_ak#25">
<ellipse fill="#fffc87" stroke="#808080" cx="395.691" cy="-461" rx="52.7911" ry="18"/>
<text text-anchor="middle" x="395.691" y="-457.3" font-family="Times New Roman,serif" font-size="14.00">disti_ak#25</text>
</a>
</g>
</g>
<!-- http://example.org/access122 -->
<g id="node3" class="node"><title>http://example.org/access122</title>
<g id="a_node3"><a xlink:href="http://example.org/access122" xlink:title="access122">
<polygon fill="#9fb1fc" stroke="#0000ff" points="475.691,-581 401.691,-581 401.691,-545 475.691,-545 475.691,-581"/>
<text text-anchor="middle" x="438.691" y="-559.3" font-family="Times New Roman,serif" font-size="14.00">access122</text>
</a>
</g>
</g>
<!-- http://example.org/disti_ak#25&#45;&gt;http://example.org/access122 -->
<g id="edge7" class="edge"><title>http://example.org/disti_ak#25&#45;&gt;http://example.org/access122</title>
<path fill="none" stroke="black" d="M411.94,-478.292C416.68,-483.836 421.451,-490.327 424.691,-497 430.424,-508.806 433.826,-522.947 435.837,-535.019"/>
<polygon fill="black" stroke="black" points="432.382,-535.585 437.269,-544.985 439.311,-534.589 432.382,-535.585"/>
<text text-anchor="middle" x="426.71" y="-473.774" font-family="Times New Roman,serif" font-size="8.00">gen</text>
</g>
<!-- bn0 -->
<g id="node6" class="node"><title>bn0</title>
<ellipse fill="black" stroke="black" cx="260.691" cy="-563" rx="1.8" ry="1.8"/>
</g>
<!-- http://example.org/disti_ak#25&#45;&gt;bn0 -->
<g id="edge4" class="edge"><title>http://example.org/disti_ak#25&#45;&gt;bn0</title>
<path fill="none" stroke="darkgreen" d="M346.925,-468.001C311.802,-473.442 268.733,-482.808 257.691,-497 241.597,-517.685 257.137,-554.262 260.192,-560.939"/>
<text text-anchor="middle" x="339.191" y="-515.8" font-family="Times New Roman,serif" font-size="14.00">der ac&#45;r</text>
<text text-anchor="middle" x="339.191" y="-500.8" font-family="Times New Roman,serif" font-size="14.00">2018&#45;03&#45;05T16:04:29.107806</text>
</g>
<!-- &#45;attrs0 -->
<g id="node2" class="node"><title>&#45;attrs0</title>
<polygon fill="none" stroke="gray" points="466.191,-406 259.191,-406 259.191,-344 472.191,-344 472.191,-400 466.191,-406"/>
<polyline fill="none" stroke="gray" points="466.191,-406 466.191,-400 "/>
<polyline fill="none" stroke="gray" points="472.191,-400 466.191,-400 "/>
<text text-anchor="start" x="269.691" y="-392" font-family="Times New Roman,serif" font-size="10.00">value:</text>
<text text-anchor="start" x="344.691" y="-392" font-family="Times New Roman,serif" font-size="10.00">&quot;0&quot;</text>
<text text-anchor="start" x="269.691" y="-379" font-family="Times New Roman,serif" font-size="10.00">type:</text>
<text text-anchor="start" x="344.691" y="-379" font-family="Times New Roman,serif" font-size="10.00">&quot;access&quot;</text>
<text text-anchor="start" x="269.691" y="-366" font-family="Times New Roman,serif" font-size="10.00">label:</text>
<text text-anchor="start" x="344.691" y="-366" font-family="Times New Roman,serif" font-size="10.00">&quot;disti[k]&quot;</text>
<text text-anchor="start" x="269.691" y="-353" font-family="Times New Roman,serif" font-size="10.00">generatedAtTime:</text>
<text text-anchor="start" x="344.691" y="-353" font-family="Times New Roman,serif" font-size="10.00">&quot;2018&#45;03&#45;05T16:04:29.107806&quot;</text>
</g>
<!-- &#45;attrs0&#45;&gt;http://example.org/disti_ak#25 -->
<g id="edge1" class="edge"><title>&#45;attrs0&#45;&gt;http://example.org/disti_ak#25</title>
<path fill="none" stroke="gray" stroke-dasharray="5,2" d="M376.522,-406.326C380.885,-418.544 385.76,-432.195 389.502,-442.672"/>
</g>
<!-- http://example.org/0 -->
<g id="node5" class="node"><title>http://example.org/0</title>
<ellipse fill="none" stroke="black" cx="306.691" cy="-650" rx="83.3857" ry="18"/>
<text text-anchor="middle" x="306.691" y="-646.3" font-family="Times New Roman,serif" font-size="14.00">http://example.org/0</text>
</g>
<!-- http://example.org/access122&#45;&gt;http://example.org/0 -->
<g id="edge3" class="edge"><title>http://example.org/access122&#45;&gt;http://example.org/0</title>
<path fill="none" stroke="black" d="M411.979,-581.201C391.362,-594.477 362.704,-612.931 340.491,-627.235"/>
<polygon fill="black" stroke="black" points="338.533,-624.333 332.02,-632.69 342.322,-630.218 338.533,-624.333"/>
<text text-anchor="middle" x="412.706" y="-594.283" font-family="Times New Roman,serif" font-size="8.00">use</text>
</g>
<!-- http://example.org/disti#9 -->
<g id="node7" class="node"><title>http://example.org/disti#9</title>
<ellipse fill="none" stroke="black" cx="102.691" cy="-650" rx="102.882" ry="18"/>
<text text-anchor="middle" x="102.691" y="-646.3" font-family="Times New Roman,serif" font-size="14.00">http://example.org/disti#9</text>
</g>
<!-- http://example.org/access122&#45;&gt;http://example.org/disti#9 -->
<g id="edge8" class="edge"><title>http://example.org/access122&#45;&gt;http://example.org/disti#9</title>
<path fill="none" stroke="black" d="M401.449,-573.421C345.265,-587.635 238.018,-614.765 168.472,-632.359"/>
<polygon fill="black" stroke="black" points="167.332,-629.037 158.496,-634.883 169.049,-635.823 167.332,-629.037"/>
<text text-anchor="middle" x="397.364" y="-585.954" font-family="Times New Roman,serif" font-size="8.00">use</text>
</g>
<!-- http://example.org/k#3 -->
<g id="node8" class="node"><title>http://example.org/k#3</title>
<ellipse fill="none" stroke="black" cx="499.691" cy="-650" rx="92.0841" ry="18"/>
<text text-anchor="middle" x="499.691" y="-646.3" font-family="Times New Roman,serif" font-size="14.00">http://example.org/k#3</text>
</g>
<!-- http://example.org/access122&#45;&gt;http://example.org/k#3 -->
<g id="edge9" class="edge"><title>http://example.org/access122&#45;&gt;http://example.org/k#3</title>
<path fill="none" stroke="black" d="M451.035,-581.201C459.774,-593.378 471.639,-609.911 481.464,-623.602"/>
<polygon fill="black" stroke="black" points="478.899,-626.031 487.573,-632.115 484.586,-621.95 478.899,-626.031"/>
<text text-anchor="middle" x="465.962" y="-577.82" font-family="Times New Roman,serif" font-size="8.00">use</text>
</g>
<!-- &#45;attrs1 -->
<g id="node4" class="node"><title>&#45;attrs1</title>
<polygon fill="none" stroke="gray" points="540.691,-479 466.691,-479 466.691,-443 546.691,-443 546.691,-473 540.691,-479"/>
<polyline fill="none" stroke="gray" points="540.691,-479 540.691,-473 "/>
<polyline fill="none" stroke="gray" points="546.691,-473 540.691,-473 "/>
<text text-anchor="start" x="476.691" y="-458" font-family="Times New Roman,serif" font-size="10.00">type:</text>
<text text-anchor="start" x="499.691" y="-458" font-family="Times New Roman,serif" font-size="10.00">&quot;access&quot;</text>
</g>
<!-- &#45;attrs1&#45;&gt;http://example.org/access122 -->
<g id="edge2" class="edge"><title>&#45;attrs1&#45;&gt;http://example.org/access122</title>
<path fill="none" stroke="gray" stroke-dasharray="5,2" d="M494.846,-479.419C482.365,-497.773 462.829,-526.502 450.4,-544.781"/>
</g>
<!-- bn0&#45;&gt;http://example.org/0 -->
<g id="edge6" class="edge"><title>bn0&#45;&gt;http://example.org/0</title>
<path fill="none" stroke="darkgreen" d="M261.207,-564.955C264.279,-570.629 280.413,-600.443 292.6,-622.963"/>
<polygon fill="darkgreen" stroke="darkgreen" points="289.531,-624.644 297.368,-631.773 295.687,-621.313 289.531,-624.644"/>
</g>
<!-- bn0&#45;&gt;http://example.org/disti#9 -->
<g id="edge5" class="edge"><title>bn0&#45;&gt;http://example.org/disti#9</title>
<path fill="none" stroke="darkgreen" d="M259.176,-564.294C249.619,-566.196 196.907,-577.353 159.691,-599 147.66,-605.998 135.843,-615.745 126.117,-624.776"/>
<polygon fill="darkgreen" stroke="darkgreen" points="123.59,-622.349 118.8,-631.799 128.438,-627.399 123.59,-622.349"/>
<text text-anchor="middle" x="167.691" y="-602.8" font-family="Times New Roman,serif" font-size="14.00">[2]</text>
</g>
<!-- http://example.org/distk_aj#25 -->
<g id="node9" class="node"><title>http://example.org/distk_aj#25</title>
<g id="a_node9"><a xlink:href="http://example.org/distk_aj#25" xlink:title="distk_aj#25">
<ellipse fill="#fffc87" stroke="#808080" cx="716.691" cy="-461" rx="52.7911" ry="18"/>
<text text-anchor="middle" x="716.691" y="-457.3" font-family="Times New Roman,serif" font-size="14.00">distk_aj#25</text>
</a>
</g>
</g>
<!-- http://example.org/access123 -->
<g id="node11" class="node"><title>http://example.org/access123</title>
<g id="a_node11"><a xlink:href="http://example.org/access123" xlink:title="access123">
<polygon fill="#9fb1fc" stroke="#0000ff" points="958.691,-581 884.691,-581 884.691,-545 958.691,-545 958.691,-581"/>
<text text-anchor="middle" x="921.691" y="-559.3" font-family="Times New Roman,serif" font-size="14.00">access123</text>
</a>
</g>
</g>
<!-- http://example.org/distk_aj#25&#45;&gt;http://example.org/access123 -->
<g id="edge16" class="edge"><title>http://example.org/distk_aj#25&#45;&gt;http://example.org/access123</title>
<path fill="none" stroke="black" d="M769.249,-462.672C803.953,-465.485 848.902,-473.884 881.691,-497 895.111,-506.461 904.912,-521.994 911.452,-535.503"/>
<polygon fill="black" stroke="black" points="908.363,-537.169 915.644,-544.866 914.752,-534.309 908.363,-537.169"/>
<text text-anchor="middle" x="777.949" y="-448.553" font-family="Times New Roman,serif" font-size="8.00">gen</text>
</g>
<!-- bn1 -->
<g id="node14" class="node"><title>bn1</title>
<ellipse fill="black" stroke="black" cx="716.691" cy="-563" rx="1.8" ry="1.8"/>
</g>
<!-- http://example.org/distk_aj#25&#45;&gt;bn1 -->
<g id="edge13" class="edge"><title>http://example.org/distk_aj#25&#45;&gt;bn1</title>
<path fill="none" stroke="darkgreen" d="M716.691,-479.419C716.691,-505.831 716.691,-553.728 716.691,-561.05"/>
<text text-anchor="middle" x="798.191" y="-515.8" font-family="Times New Roman,serif" font-size="14.00">der ac&#45;r</text>
<text text-anchor="middle" x="798.191" y="-500.8" font-family="Times New Roman,serif" font-size="14.00">2018&#45;03&#45;05T16:04:29.107806</text>
</g>
<!-- &#45;attrs2 -->
<g id="node10" class="node"><title>&#45;attrs2</title>
<polygon fill="none" stroke="gray" points="847.191,-406 640.191,-406 640.191,-344 853.191,-344 853.191,-400 847.191,-406"/>
<polyline fill="none" stroke="gray" points="847.191,-406 847.191,-400 "/>
<polyline fill="none" stroke="gray" points="853.191,-400 847.191,-400 "/>
<text text-anchor="start" x="650.691" y="-392" font-family="Times New Roman,serif" font-size="10.00">value:</text>
<text text-anchor="start" x="725.691" y="-392" font-family="Times New Roman,serif" font-size="10.00">&quot;2&quot;</text>
<text text-anchor="start" x="650.691" y="-379" font-family="Times New Roman,serif" font-size="10.00">type:</text>
<text text-anchor="start" x="725.691" y="-379" font-family="Times New Roman,serif" font-size="10.00">&quot;access&quot;</text>
<text text-anchor="start" x="650.691" y="-366" font-family="Times New Roman,serif" font-size="10.00">label:</text>
<text text-anchor="start" x="725.691" y="-366" font-family="Times New Roman,serif" font-size="10.00">&quot;distk[j]&quot;</text>
<text text-anchor="start" x="650.691" y="-353" font-family="Times New Roman,serif" font-size="10.00">generatedAtTime:</text>
<text text-anchor="start" x="725.691" y="-353" font-family="Times New Roman,serif" font-size="10.00">&quot;2018&#45;03&#45;05T16:04:29.107806&quot;</text>
</g>
<!-- &#45;attrs2&#45;&gt;http://example.org/distk_aj#25 -->
<g id="edge10" class="edge"><title>&#45;attrs2&#45;&gt;http://example.org/distk_aj#25</title>
<path fill="none" stroke="gray" stroke-dasharray="5,2" d="M735.86,-406.326C731.496,-418.544 726.621,-432.195 722.88,-442.672"/>
</g>
<!-- http://example.org/2 -->
<g id="node13" class="node"><title>http://example.org/2</title>
<ellipse fill="none" stroke="black" cx="921.691" cy="-650" rx="83.3857" ry="18"/>
<text text-anchor="middle" x="921.691" y="-646.3" font-family="Times New Roman,serif" font-size="14.00">http://example.org/2</text>
</g>
<!-- http://example.org/access123&#45;&gt;http://example.org/2 -->
<g id="edge12" class="edge"><title>http://example.org/access123&#45;&gt;http://example.org/2</title>
<path fill="none" stroke="black" d="M921.691,-581.201C921.691,-592.837 921.691,-608.452 921.691,-621.763"/>
<polygon fill="black" stroke="black" points="918.191,-621.825 921.691,-631.825 925.191,-621.825 918.191,-621.825"/>
<text text-anchor="middle" x="934.681" y="-586.801" font-family="Times New Roman,serif" font-size="8.00">use</text>
</g>
<!-- http://example.org/distk#3 -->
<g id="node15" class="node"><title>http://example.org/distk#3</title>
<ellipse fill="none" stroke="black" cx="715.691" cy="-650" rx="105.082" ry="18"/>
<text text-anchor="middle" x="715.691" y="-646.3" font-family="Times New Roman,serif" font-size="14.00">http://example.org/distk#3</text>
</g>
<!-- http://example.org/access123&#45;&gt;http://example.org/distk#3 -->
<g id="edge17" class="edge"><title>http://example.org/access123&#45;&gt;http://example.org/distk#3</title>
<path fill="none" stroke="black" d="M884.386,-579.393C850.54,-593.358 800.451,-614.026 763.644,-629.214"/>
<polygon fill="black" stroke="black" points="762.024,-626.096 754.115,-633.145 764.694,-632.566 762.024,-626.096"/>
<text text-anchor="middle" x="882.408" y="-592.362" font-family="Times New Roman,serif" font-size="8.00">use</text>
</g>
<!-- http://example.org/j#25 -->
<g id="node16" class="node"><title>http://example.org/j#25</title>
<ellipse fill="none" stroke="black" cx="1116.69" cy="-650" rx="94.4839" ry="18"/>
<text text-anchor="middle" x="1116.69" y="-646.3" font-family="Times New Roman,serif" font-size="14.00">http://example.org/j#25</text>
</g>
<!-- http://example.org/access123&#45;&gt;http://example.org/j#25 -->
<g id="edge18" class="edge"><title>http://example.org/access123&#45;&gt;http://example.org/j#25</title>
<path fill="none" stroke="black" d="M958.828,-580.188C990.847,-594.145 1037.19,-614.344 1071.38,-629.249"/>
<polygon fill="black" stroke="black" points="1070.12,-632.516 1080.68,-633.303 1072.91,-626.099 1070.12,-632.516"/>
<text text-anchor="middle" x="970.894" y="-569.377" font-family="Times New Roman,serif" font-size="8.00">use</text>
</g>
<!-- &#45;attrs3 -->
<g id="node12" class="node"><title>&#45;attrs3</title>
<polygon fill="none" stroke="gray" points="955.691,-479 881.691,-479 881.691,-443 961.691,-443 961.691,-473 955.691,-479"/>
<polyline fill="none" stroke="gray" points="955.691,-479 955.691,-473 "/>
<polyline fill="none" stroke="gray" points="961.691,-473 955.691,-473 "/>
<text text-anchor="start" x="891.691" y="-458" font-family="Times New Roman,serif" font-size="10.00">type:</text>
<text text-anchor="start" x="914.691" y="-458" font-family="Times New Roman,serif" font-size="10.00">&quot;access&quot;</text>
</g>
<!-- &#45;attrs3&#45;&gt;http://example.org/access123 -->
<g id="edge11" class="edge"><title>&#45;attrs3&#45;&gt;http://example.org/access123</title>
<path fill="none" stroke="gray" stroke-dasharray="5,2" d="M921.691,-479.419C921.691,-497.773 921.691,-526.502 921.691,-544.781"/>
</g>
<!-- bn1&#45;&gt;http://example.org/2 -->
<g id="edge15" class="edge"><title>bn1&#45;&gt;http://example.org/2</title>
<path fill="none" stroke="darkgreen" d="M718,-564.543C729.83,-569.448 819.15,-606.483 875.515,-629.854"/>
<polygon fill="darkgreen" stroke="darkgreen" points="874.367,-633.167 884.945,-633.764 877.048,-626.701 874.367,-633.167"/>
</g>
<!-- bn1&#45;&gt;http://example.org/distk#3 -->
<g id="edge14" class="edge"><title>bn1&#45;&gt;http://example.org/distk#3</title>
<path fill="none" stroke="darkgreen" d="M716.68,-564.955C716.614,-570.528 716.275,-599.391 716.011,-621.755"/>
<polygon fill="darkgreen" stroke="darkgreen" points="712.512,-621.733 715.894,-631.773 719.511,-621.815 712.512,-621.733"/>
<text text-anchor="middle" x="723.691" y="-602.8" font-family="Times New Roman,serif" font-size="14.00">[0]</text>
</g>
<!-- http://example.org/sum#25 -->
<g id="node17" class="node"><title>http://example.org/sum#25</title>
<g id="a_node17"><a xlink:href="http://example.org/sum#25" xlink:title="sum#25">
<ellipse fill="#fffc87" stroke="#808080" cx="611.691" cy="-289" rx="39.7935" ry="18"/>
<text text-anchor="middle" x="611.691" y="-285.3" font-family="Times New Roman,serif" font-size="14.00">sum#25</text>
</a>
</g>
</g>
<!-- http://example.org/sum#25&#45;&gt;http://example.org/disti_ak#25 -->
<g id="edge22" class="edge"><title>http://example.org/sum#25&#45;&gt;http://example.org/disti_ak#25</title>
<path fill="none" stroke="black" d="M583.98,-302.224C564.693,-311.68 539.214,-326.157 520.691,-344 497.073,-366.75 503.96,-382.893 480.691,-406 467.002,-419.593 449.322,-431.501 433.634,-440.65"/>
<polygon fill="black" stroke="black" points="431.66,-437.746 424.673,-445.711 435.102,-443.841 431.66,-437.746"/>
<text text-anchor="middle" x="583.095" y="-315.297" font-family="Times New Roman,serif" font-size="8.00">der</text>
</g>
<!-- http://example.org/sum#25&#45;&gt;http://example.org/distk_aj#25 -->
<g id="edge24" class="edge"><title>http://example.org/sum#25&#45;&gt;http://example.org/distk_aj#25</title>
<path fill="none" stroke="black" d="M610.512,-307.314C609.73,-331.472 611.52,-375.729 631.691,-406 642.064,-421.567 658.615,-433.555 674.368,-442.236"/>
<polygon fill="black" stroke="black" points="673.009,-445.474 683.498,-446.967 676.229,-439.258 673.009,-445.474"/>
<text text-anchor="middle" x="623.364" y="-313.148" font-family="Times New Roman,serif" font-size="8.00">der</text>
</g>
<!-- http://example.org/+25 -->
<g id="node19" class="node"><title>http://example.org/+25</title>
<g id="a_node19"><a xlink:href="http://example.org/+25" xlink:title="+25">
<polygon fill="#9fb1fc" stroke="#0000ff" points="583.691,-393 529.691,-393 529.691,-357 583.691,-357 583.691,-393"/>
<text text-anchor="middle" x="556.691" y="-371.3" font-family="Times New Roman,serif" font-size="14.00">+25</text>
</a>
</g>
</g>
<!-- http://example.org/sum#25&#45;&gt;http://example.org/+25 -->
<g id="edge25" class="edge"><title>http://example.org/sum#25&#45;&gt;http://example.org/+25</title>
<path fill="none" stroke="black" d="M600.825,-306.596C593.018,-318.519 582.346,-334.818 573.452,-348.401"/>
<polygon fill="black" stroke="black" points="570.462,-346.579 567.912,-356.862 576.318,-350.413 570.462,-346.579"/>
<text text-anchor="middle" x="607.584" y="-318.086" font-family="Times New Roman,serif" font-size="8.00">gen</text>
</g>
<!-- &#45;attrs4 -->
<g id="node18" class="node"><title>&#45;attrs4</title>
<polygon fill="none" stroke="gray" points="555.191,-234 348.191,-234 348.191,-172 561.191,-172 561.191,-228 555.191,-234"/>
<polyline fill="none" stroke="gray" points="555.191,-234 555.191,-228 "/>
<polyline fill="none" stroke="gray" points="561.191,-228 555.191,-228 "/>
<text text-anchor="start" x="358.691" y="-220" font-family="Times New Roman,serif" font-size="10.00">value:</text>
<text text-anchor="start" x="433.691" y="-220" font-family="Times New Roman,serif" font-size="10.00">&quot;2&quot;</text>
<text text-anchor="start" x="358.691" y="-207" font-family="Times New Roman,serif" font-size="10.00">type:</text>
<text text-anchor="start" x="433.691" y="-207" font-family="Times New Roman,serif" font-size="10.00">&quot;operation&quot;</text>
<text text-anchor="start" x="358.691" y="-194" font-family="Times New Roman,serif" font-size="10.00">label:</text>
<text text-anchor="start" x="433.691" y="-194" font-family="Times New Roman,serif" font-size="10.00">&quot;disti[k] + distk[j]&quot;</text>
<text text-anchor="start" x="358.691" y="-181" font-family="Times New Roman,serif" font-size="10.00">generatedAtTime:</text>
<text text-anchor="start" x="433.691" y="-181" font-family="Times New Roman,serif" font-size="10.00">&quot;2018&#45;03&#45;05T16:04:29.107806&quot;</text>
</g>
<!-- &#45;attrs4&#45;&gt;http://example.org/sum#25 -->
<g id="edge19" class="edge"><title>&#45;attrs4&#45;&gt;http://example.org/sum#25</title>
<path fill="none" stroke="gray" stroke-dasharray="5,2" d="M510.928,-234.089C536.972,-248.023 566.581,-263.865 586.927,-274.751"/>
</g>
<!-- http://example.org/+25&#45;&gt;http://example.org/disti_ak#25 -->
<g id="edge21" class="edge"><title>http://example.org/+25&#45;&gt;http://example.org/disti_ak#25</title>
<path fill="none" stroke="black" d="M545.756,-393.223C538.214,-403.803 527.298,-416.846 514.691,-425 511.53,-427.045 476.302,-437.302 444.991,-446.188"/>
<polygon fill="black" stroke="black" points="443.677,-442.923 435.008,-449.013 445.583,-449.658 443.677,-442.923"/>
<text text-anchor="middle" x="551.836" y="-405.036" font-family="Times New Roman,serif" font-size="8.00">use</text>
</g>
<!-- http://example.org/+25&#45;&gt;http://example.org/distk_aj#25 -->
<g id="edge23" class="edge"><title>http://example.org/+25&#45;&gt;http://example.org/distk_aj#25</title>
<path fill="none" stroke="black" d="M567.28,-393.228C574.608,-403.81 585.259,-416.854 597.691,-425 616.189,-437.121 638.996,-445.149 659.678,-450.418"/>
<polygon fill="black" stroke="black" points="659.093,-453.877 669.632,-452.789 660.715,-447.067 659.093,-453.877"/>
<text text-anchor="middle" x="582.215" y="-389.938" font-family="Times New Roman,serif" font-size="8.00">use</text>
</g>
<!-- &#45;attrs5 -->
<g id="node20" class="node"><title>&#45;attrs5</title>
<polygon fill="none" stroke="gray" points="547.691,-307 495.691,-307 495.691,-271 553.691,-271 553.691,-301 547.691,-307"/>
<polyline fill="none" stroke="gray" points="547.691,-307 547.691,-301 "/>
<polyline fill="none" stroke="gray" points="553.691,-301 547.691,-301 "/>
<text text-anchor="start" x="505.691" y="-286" font-family="Times New Roman,serif" font-size="10.00">type:</text>
<text text-anchor="start" x="528.691" y="-286" font-family="Times New Roman,serif" font-size="10.00">&quot;+&quot;</text>
</g>
<!-- &#45;attrs5&#45;&gt;http://example.org/+25 -->
<g id="edge20" class="edge"><title>&#45;attrs5&#45;&gt;http://example.org/+25</title>
<path fill="none" stroke="gray" stroke-dasharray="5,2" d="M531.321,-307.405C536.85,-321.917 544.683,-342.479 550.178,-356.905"/>
</g>
<!-- http://example.org/ikj#25 -->
<g id="node21" class="node"><title>http://example.org/ikj#25</title>
<g id="a_node21"><a xlink:href="http://example.org/ikj#25" xlink:title="ikj#25">
<ellipse fill="#fffc87" stroke="#808080" cx="680.691" cy="-117" rx="32.4942" ry="18"/>
<text text-anchor="middle" x="680.691" y="-113.3" font-family="Times New Roman,serif" font-size="14.00">ikj#25</text>
</a>
</g>
</g>
<!-- http://example.org/ikj#25&#45;&gt;http://example.org/sum#25 -->
<g id="edge29" class="edge"><title>http://example.org/ikj#25&#45;&gt;http://example.org/sum#25</title>
<path fill="none" stroke="darkgreen" d="M679.017,-135.28C676.241,-158.641 669.352,-201.15 653.691,-234 648.526,-244.835 640.893,-255.531 633.546,-264.509"/>
<polygon fill="darkgreen" stroke="darkgreen" points="630.789,-262.348 626.958,-272.226 636.113,-266.893 630.789,-262.348"/>
<text text-anchor="middle" x="754.191" y="-206.8" font-family="Times New Roman,serif" font-size="14.00">der ref</text>
<text text-anchor="middle" x="754.191" y="-191.8" font-family="Times New Roman,serif" font-size="14.00">2018&#45;03&#45;05T16:04:29.107806</text>
</g>
<!-- http://example.org/assign45 -->
<g id="node23" class="node"><title>http://example.org/assign45</title>
<g id="a_node23"><a xlink:href="http://example.org/assign45" xlink:title="assign45">
<polygon fill="#9fb1fc" stroke="#0000ff" points="644.191,-221 579.191,-221 579.191,-185 644.191,-185 644.191,-221"/>
<text text-anchor="middle" x="611.691" y="-199.3" font-family="Times New Roman,serif" font-size="14.00">assign45</text>
</a>
</g>
</g>
<!-- http://example.org/ikj#25&#45;&gt;http://example.org/assign45 -->
<g id="edge30" class="edge"><title>http://example.org/ikj#25&#45;&gt;http://example.org/assign45</title>
<path fill="none" stroke="black" d="M667.713,-133.8C657.727,-145.956 643.736,-162.989 632.234,-176.991"/>
<polygon fill="black" stroke="black" points="629.441,-174.877 625.798,-184.826 634.85,-179.32 629.441,-174.877"/>
<text text-anchor="middle" x="672.99" y="-145.941" font-family="Times New Roman,serif" font-size="8.00">gen</text>
</g>
<!-- &#45;attrs6 -->
<g id="node22" class="node"><title>&#45;attrs6</title>
<polygon fill="none" stroke="gray" points="781.191,-62 574.191,-62 574.191,-0 787.191,-0 787.191,-56 781.191,-62"/>
<polyline fill="none" stroke="gray" points="781.191,-62 781.191,-56 "/>
<polyline fill="none" stroke="gray" points="787.191,-56 781.191,-56 "/>
<text text-anchor="start" x="584.691" y="-48" font-family="Times New Roman,serif" font-size="10.00">value:</text>
<text text-anchor="start" x="659.691" y="-48" font-family="Times New Roman,serif" font-size="10.00">&quot;2&quot;</text>
<text text-anchor="start" x="584.691" y="-35" font-family="Times New Roman,serif" font-size="10.00">type:</text>
<text text-anchor="start" x="659.691" y="-35" font-family="Times New Roman,serif" font-size="10.00">&quot;name&quot;</text>
<text text-anchor="start" x="584.691" y="-22" font-family="Times New Roman,serif" font-size="10.00">label:</text>
<text text-anchor="start" x="659.691" y="-22" font-family="Times New Roman,serif" font-size="10.00">&quot;ikj&quot;</text>
<text text-anchor="start" x="584.691" y="-9" font-family="Times New Roman,serif" font-size="10.00">generatedAtTime:</text>
<text text-anchor="start" x="659.691" y="-9" font-family="Times New Roman,serif" font-size="10.00">&quot;2018&#45;03&#45;05T16:04:29.107806&quot;</text>
</g>
<!-- &#45;attrs6&#45;&gt;http://example.org/ikj#25 -->
<g id="edge26" class="edge"><title>&#45;attrs6&#45;&gt;http://example.org/ikj#25</title>
<path fill="none" stroke="gray" stroke-dasharray="5,2" d="M680.691,-62.3259C680.691,-74.5443 680.691,-88.1945 680.691,-98.6716"/>
</g>
<!-- http://example.org/assign45&#45;&gt;http://example.org/sum#25 -->
<g id="edge28" class="edge"><title>http://example.org/assign45&#45;&gt;http://example.org/sum#25</title>
<path fill="none" stroke="black" d="M611.691,-221.405C611.691,-232.743 611.691,-247.773 611.691,-260.685"/>
<polygon fill="black" stroke="black" points="608.191,-260.905 611.691,-270.905 615.191,-260.905 608.191,-260.905"/>
<text text-anchor="middle" x="624.681" y="-227.005" font-family="Times New Roman,serif" font-size="8.00">use</text>
</g>
<!-- &#45;attrs7 -->
<g id="node24" class="node"><title>&#45;attrs7</title>
<polygon fill="none" stroke="gray" points="624.191,-135 551.191,-135 551.191,-99 630.191,-99 630.191,-129 624.191,-135"/>
<polyline fill="none" stroke="gray" points="624.191,-135 624.191,-129 "/>
<polyline fill="none" stroke="gray" points="630.191,-129 624.191,-129 "/>
<text text-anchor="start" x="561.691" y="-114" font-family="Times New Roman,serif" font-size="10.00">type:</text>
<text text-anchor="start" x="584.691" y="-114" font-family="Times New Roman,serif" font-size="10.00">&quot;assign&quot;</text>
</g>
<!-- &#45;attrs7&#45;&gt;http://example.org/assign45 -->
<g id="edge27" class="edge"><title>&#45;attrs7&#45;&gt;http://example.org/assign45</title>
<path fill="none" stroke="gray" stroke-dasharray="5,2" d="M595.042,-135.405C598.67,-149.917 603.811,-170.479 607.417,-184.905"/>
</g>
</g>
</svg>
