<?xml version="1.0" encoding="UTF-8" standalone="no"?>
<!DOCTYPE svg PUBLIC "-//W3C//DTD SVG 1.1//EN"
 "http://www.w3.org/Graphics/SVG/1.1/DTD/svg11.dtd">
<!-- Generated by graphviz version 2.38.0 (20140413.2041)
 -->
<!-- Title: PROV Pages: 1 -->
<svg width="496pt" height="318pt"
 viewBox="0.00 0.00 496.28 318.00" xmlns="http://www.w3.org/2000/svg" xmlns:xlink="http://www.w3.org/1999/xlink">
<g id="graph0" class="graph" transform="scale(1 1) rotate(0) translate(4 314)">
<title>PROV</title>
<polygon fill="white" stroke="none" points="-4,4 -4,-314 492.279,-314 492.279,4 -4,4"/>
<!-- http://example.org/j#18 -->
<g id="node1" class="node"><title>http://example.org/j#18</title>
<g id="a_node1"><a xlink:href="http://example.org/j#18" xlink:title="j#18">
<ellipse fill="#f0f0f0" stroke="gray" cx="239.339" cy="-117" rx="27" ry="18"/>
<text text-anchor="middle" x="239.339" y="-113.3" font-family="Times New Roman,serif" font-size="14.00" fill="gray">j#18</text>
</a>
</g>
</g>
<!-- http://example.org/access56 -->
<g id="node3" class="node"><title>http://example.org/access56</title>
<g id="a_node3"><a xlink:href="http://example.org/access56" xlink:title="access56">
<polygon fill="#f0f0f0" stroke="gray" points="209.339,-237 141.339,-237 141.339,-201 209.339,-201 209.339,-237"/>
<text text-anchor="middle" x="175.339" y="-215.3" font-family="Times New Roman,serif" font-size="14.00" fill="gray">access56</text>
</a>
</g>
</g>
<!-- http://example.org/j#18&#45;&gt;http://example.org/access56 -->
<g id="edge7" class="edge"><title>http://example.org/j#18&#45;&gt;http://example.org/access56</title>
<path fill="none" stroke="gray" d="M229.056,-134.067C218.974,-149.819 203.448,-174.079 191.676,-192.473"/>
<polygon fill="gray" stroke="gray" points="188.681,-190.66 186.238,-200.969 194.577,-194.433 188.681,-190.66"/>
<text text-anchor="middle" x="235.954" y="-145.486" font-family="Times New Roman,serif" font-size="8.00" fill="gray">gen</text>
</g>
<!-- bn0 -->
<g id="node6" class="node"><title>bn0</title>
<ellipse fill="gray" stroke="gray" cx="239.339" cy="-219" rx="1.8" ry="1.8"/>
</g>
<!-- http://example.org/j#18&#45;&gt;bn0 -->
<g id="edge4" class="edge"><title>http://example.org/j#18&#45;&gt;bn0</title>
<path fill="none" stroke="gray" d="M239.339,-135.419C239.339,-161.831 239.339,-209.728 239.339,-217.05"/>
<text text-anchor="middle" x="320.839" y="-171.8" font-family="Times New Roman,serif" font-size="14.00" fill="gray">der ac&#45;r</text>
<text text-anchor="middle" x="320.839" y="-156.8" font-family="Times New Roman,serif" font-size="14.00" fill="gray">2018&#45;03&#45;07T01:11:28.016185</text>
</g>
<!-- &#45;attrs0 -->
<g id="node2" class="node"><title>&#45;attrs0</title>
<polygon fill="none" stroke="#f0f0f0" points="335.339,-62 137.339,-62 137.339,-0 341.339,-0 341.339,-56 335.339,-62"/>
<polyline fill="none" stroke="#f0f0f0" points="335.339,-62 335.339,-56 "/>
<polyline fill="none" stroke="#f0f0f0" points="341.339,-56 335.339,-56 "/>
<text text-anchor="start" x="147.339" y="-48" font-family="Times New Roman,serif" font-size="10.00" fill="#f0f0f0">value:</text>
<text text-anchor="start" x="222.339" y="-48" font-family="Times New Roman,serif" font-size="10.00" fill="#f0f0f0">2</text>
<text text-anchor="start" x="147.339" y="-35" font-family="Times New Roman,serif" font-size="10.00" fill="#f0f0f0">type:</text>
<text text-anchor="start" x="222.339" y="-35" font-family="Times New Roman,serif" font-size="10.00" fill="#f0f0f0">name</text>
<text text-anchor="start" x="147.339" y="-22" font-family="Times New Roman,serif" font-size="10.00" fill="#f0f0f0">label:</text>
<text text-anchor="start" x="222.339" y="-22" font-family="Times New Roman,serif" font-size="10.00" fill="#f0f0f0">j</text>
<text text-anchor="start" x="147.339" y="-9" font-family="Times New Roman,serif" font-size="10.00" fill="#f0f0f0">generatedAtTime:</text>
<text text-anchor="start" x="222.339" y="-9" font-family="Times New Roman,serif" font-size="10.00" fill="#f0f0f0">2018&#45;03&#45;07T01:11:28.016185</text>
</g>
<!-- &#45;attrs0&#45;&gt;http://example.org/j#18 -->
<g id="edge1" class="edge"><title>&#45;attrs0&#45;&gt;http://example.org/j#18</title>
<path fill="none" stroke="#f0f0f0" stroke-dasharray="5,2" d="M239.339,-62.3259C239.339,-74.5443 239.339,-88.1945 239.339,-98.6716"/>
</g>
<!-- http://example.org/range_nodes2 -->
<g id="node5" class="node"><title>http://example.org/range_nodes2</title>
<ellipse fill="none" stroke="black" cx="129.339" cy="-292" rx="129.177" ry="18"/>
<text text-anchor="middle" x="129.339" y="-288.3" font-family="Times New Roman,serif" font-size="14.00">http://example.org/range_nodes2</text>
</g>
<!-- http://example.org/access56&#45;&gt;http://example.org/range_nodes2 -->
<g id="edge3" class="edge"><title>http://example.org/access56&#45;&gt;http://example.org/range_nodes2</title>
<path fill="none" stroke="gray" d="M164.203,-237.187C158.722,-245.647 152.004,-256.016 145.933,-265.388"/>
<polygon fill="gray" stroke="gray" points="142.871,-263.676 140.371,-273.971 148.746,-267.482 142.871,-263.676"/>
<text text-anchor="middle" x="171.027" y="-248.645" font-family="Times New Roman,serif" font-size="8.00" fill="gray">use</text>
</g>
<!-- http://example.org/indexes -->
<g id="node7" class="node"><title>http://example.org/indexes</title>
<ellipse fill="none" stroke="black" cx="382.339" cy="-292" rx="105.881" ry="18"/>
<text text-anchor="middle" x="382.339" y="-288.3" font-family="Times New Roman,serif" font-size="14.00">http://example.org/indexes</text>
</g>
<!-- http://example.org/access56&#45;&gt;http://example.org/indexes -->
<g id="edge8" class="edge"><title>http://example.org/access56&#45;&gt;http://example.org/indexes</title>
<path fill="none" stroke="gray" d="M209.52,-231.724C241.671,-242.752 290.337,-259.444 327.842,-272.308"/>
<polygon fill="gray" stroke="gray" points="327.015,-275.724 337.61,-275.658 329.286,-269.103 327.015,-275.724"/>
<text text-anchor="middle" x="220.829" y="-219.97" font-family="Times New Roman,serif" font-size="8.00" fill="gray">use</text>
</g>
<!-- &#45;attrs1 -->
<g id="node4" class="node"><title>&#45;attrs1</title>
<polygon fill="none" stroke="#f0f0f0" points="187.839,-135 122.839,-135 122.839,-99 193.839,-99 193.839,-129 187.839,-135"/>
<polyline fill="none" stroke="#f0f0f0" points="187.839,-135 187.839,-129 "/>
<polyline fill="none" stroke="#f0f0f0" points="193.839,-129 187.839,-129 "/>
<text text-anchor="start" x="133.339" y="-114" font-family="Times New Roman,serif" font-size="10.00" fill="#f0f0f0">type:</text>
<text text-anchor="start" x="156.339" y="-114" font-family="Times New Roman,serif" font-size="10.00" fill="#f0f0f0">access</text>
</g>
<!-- &#45;attrs1&#45;&gt;http://example.org/access56 -->
<g id="edge2" class="edge"><title>&#45;attrs1&#45;&gt;http://example.org/access56</title>
<path fill="none" stroke="#f0f0f0" stroke-dasharray="5,2" d="M161.3,-135.419C164.42,-153.773 169.304,-182.502 172.411,-200.781"/>
</g>
<!-- bn0&#45;&gt;http://example.org/range_nodes2 -->
<g id="edge6" class="edge"><title>bn0&#45;&gt;http://example.org/range_nodes2</title>
<path fill="none" stroke="gray" d="M238.568,-220.689C235.879,-223.076 226.626,-231.171 218.339,-237 202.274,-248.299 183.81,-259.736 167.879,-269.157"/>
<polygon fill="gray" stroke="gray" points="165.691,-266.383 158.829,-274.456 169.227,-272.424 165.691,-266.383"/>
</g>
<!-- bn0&#45;&gt;http://example.org/indexes -->
<g id="edge5" class="edge"><title>bn0&#45;&gt;http://example.org/indexes</title>
<path fill="none" stroke="gray" d="M240.575,-220.614C249.268,-224.93 301.995,-251.109 340.613,-270.283"/>
<polygon fill="gray" stroke="gray" points="339.085,-273.432 349.599,-274.745 342.198,-267.163 339.085,-273.432"/>
<text text-anchor="middle" x="253.069" y="-210.414" font-family="Times New Roman,serif" font-size="8.00" fill="gray">[2]</text>
</g>
</g>
</svg>
