<?xml version="1.0" encoding="UTF-8" standalone="no"?>
<!DOCTYPE svg PUBLIC "-//W3C//DTD SVG 1.1//EN"
 "http://www.w3.org/Graphics/SVG/1.1/DTD/svg11.dtd">
<!-- Generated by graphviz version 2.38.0 (20140413.2041)
 -->
<!-- Title: PROV Pages: 1 -->
<svg width="1152pt" height="568pt"
 viewBox="0.00 0.00 1152.00 568.30" xmlns="http://www.w3.org/2000/svg" xmlns:xlink="http://www.w3.org/1999/xlink">
<g id="graph0" class="graph" transform="scale(0.858463 0.858463) rotate(0) translate(4 658)">
<title>PROV</title>
<polygon fill="white" stroke="none" points="-4,4 -4,-658 1337.93,-658 1337.93,4 -4,4"/>
<!-- http://example.org/disti_ak#5 -->
<g id="node1" class="node"><title>http://example.org/disti_ak#5</title>
<g id="a_node1"><a xlink:href="http://example.org/disti_ak#5" xlink:title="disti_ak#5">
<ellipse fill="#f0f0f0" stroke="gray" cx="432.691" cy="-461" rx="48.1917" ry="18"/>
<text text-anchor="middle" x="432.691" y="-457.3" font-family="Times New Roman,serif" font-size="14.00" fill="gray">disti_ak#5</text>
</a>
</g>
</g>
<!-- http://example.org/access45 -->
<g id="node3" class="node"><title>http://example.org/access45</title>
<g id="a_node3"><a xlink:href="http://example.org/access45" xlink:title="access45">
<polygon fill="#f0f0f0" stroke="gray" points="535.691,-581 467.691,-581 467.691,-545 535.691,-545 535.691,-581"/>
<text text-anchor="middle" x="501.691" y="-559.3" font-family="Times New Roman,serif" font-size="14.00" fill="gray">access45</text>
</a>
</g>
</g>
<!-- http://example.org/disti_ak#5&#45;&gt;http://example.org/access45 -->
<g id="edge7" class="edge"><title>http://example.org/disti_ak#5&#45;&gt;http://example.org/access45</title>
<path fill="none" stroke="gray" d="M462.727,-475.306C472.003,-480.782 481.419,-487.99 487.691,-497 495.291,-507.918 498.886,-522.179 500.541,-534.559"/>
<polygon fill="gray" stroke="gray" points="497.088,-535.214 501.548,-544.825 504.055,-534.531 497.088,-535.214"/>
<text text-anchor="middle" x="475.889" y="-466.211" font-family="Times New Roman,serif" font-size="8.00" fill="gray">gen</text>
</g>
<!-- bn0 -->
<g id="node6" class="node"><title>bn0</title>
<ellipse fill="gray" stroke="gray" cx="323.691" cy="-563" rx="1.8" ry="1.8"/>
</g>
<!-- http://example.org/disti_ak#5&#45;&gt;bn0 -->
<g id="edge4" class="edge"><title>http://example.org/disti_ak#5&#45;&gt;bn0</title>
<path fill="none" stroke="gray" d="M385.143,-464.224C361.754,-468.016 335.473,-476.894 320.691,-497 305.167,-518.116 320.244,-554.343 323.207,-560.95"/>
<text text-anchor="middle" x="402.191" y="-515.8" font-family="Times New Roman,serif" font-size="14.00" fill="gray">der ac&#45;r</text>
<text text-anchor="middle" x="402.191" y="-500.8" font-family="Times New Roman,serif" font-size="14.00" fill="gray">2018&#45;03&#45;07T01:11:26.371376</text>
</g>
<!-- &#45;attrs0 -->
<g id="node2" class="node"><title>&#45;attrs0</title>
<polygon fill="none" stroke="#f0f0f0" points="513.691,-406 315.691,-406 315.691,-344 519.691,-344 519.691,-400 513.691,-406"/>
<polyline fill="none" stroke="#f0f0f0" points="513.691,-406 513.691,-400 "/>
<polyline fill="none" stroke="#f0f0f0" points="519.691,-400 513.691,-400 "/>
<text text-anchor="start" x="325.691" y="-392" font-family="Times New Roman,serif" font-size="10.00" fill="#f0f0f0">value:</text>
<text text-anchor="start" x="400.691" y="-392" font-family="Times New Roman,serif" font-size="10.00" fill="#f0f0f0">3</text>
<text text-anchor="start" x="325.691" y="-379" font-family="Times New Roman,serif" font-size="10.00" fill="#f0f0f0">type:</text>
<text text-anchor="start" x="400.691" y="-379" font-family="Times New Roman,serif" font-size="10.00" fill="#f0f0f0">access</text>
<text text-anchor="start" x="325.691" y="-366" font-family="Times New Roman,serif" font-size="10.00" fill="#f0f0f0">label:</text>
<text text-anchor="start" x="400.691" y="-366" font-family="Times New Roman,serif" font-size="10.00" fill="#f0f0f0">disti[k]</text>
<text text-anchor="start" x="325.691" y="-353" font-family="Times New Roman,serif" font-size="10.00" fill="#f0f0f0">generatedAtTime:</text>
<text text-anchor="start" x="400.691" y="-353" font-family="Times New Roman,serif" font-size="10.00" fill="#f0f0f0">2018&#45;03&#45;07T01:11:26.371376</text>
</g>
<!-- &#45;attrs0&#45;&gt;http://example.org/disti_ak#5 -->
<g id="edge1" class="edge"><title>&#45;attrs0&#45;&gt;http://example.org/disti_ak#5</title>
<path fill="none" stroke="#f0f0f0" stroke-dasharray="5,2" d="M423.106,-406.326C425.288,-418.544 427.726,-432.195 429.597,-442.672"/>
</g>
<!-- http://example.org/disti_aj#5 -->
<g id="node5" class="node"><title>http://example.org/disti_aj#5</title>
<ellipse fill="none" stroke="black" cx="336.691" cy="-636" rx="113.98" ry="18"/>
<text text-anchor="middle" x="336.691" y="-632.3" font-family="Times New Roman,serif" font-size="14.00">http://example.org/disti_aj#5</text>
</g>
<!-- http://example.org/access45&#45;&gt;http://example.org/disti_aj#5 -->
<g id="edge3" class="edge"><title>http://example.org/access45&#45;&gt;http://example.org/disti_aj#5</title>
<path fill="none" stroke="gray" d="M467.503,-578.711C443.1,-589.212 409.991,-603.459 383.188,-614.992"/>
<polygon fill="gray" stroke="gray" points="381.797,-611.78 373.995,-618.948 384.564,-618.21 381.797,-611.78"/>
<text text-anchor="middle" x="465.748" y="-591.708" font-family="Times New Roman,serif" font-size="8.00" fill="gray">use</text>
</g>
<!-- http://example.org/disti#5 -->
<g id="node7" class="node"><title>http://example.org/disti#5</title>
<ellipse fill="none" stroke="black" cx="102.691" cy="-636" rx="102.882" ry="18"/>
<text text-anchor="middle" x="102.691" y="-632.3" font-family="Times New Roman,serif" font-size="14.00">http://example.org/disti#5</text>
</g>
<!-- http://example.org/access45&#45;&gt;http://example.org/disti#5 -->
<g id="edge8" class="edge"><title>http://example.org/access45&#45;&gt;http://example.org/disti#5</title>
<path fill="none" stroke="gray" d="M467.672,-570.053C404.859,-581.231 269.155,-605.378 182.081,-620.873"/>
<polygon fill="gray" stroke="gray" points="181.206,-617.474 171.974,-622.671 182.433,-624.365 181.206,-617.474"/>
<text text-anchor="middle" x="462.564" y="-582.257" font-family="Times New Roman,serif" font-size="8.00" fill="gray">use</text>
</g>
<!-- http://example.org/k#3 -->
<g id="node8" class="node"><title>http://example.org/k#3</title>
<ellipse fill="none" stroke="black" cx="560.691" cy="-636" rx="92.0841" ry="18"/>
<text text-anchor="middle" x="560.691" y="-632.3" font-family="Times New Roman,serif" font-size="14.00">http://example.org/k#3</text>
</g>
<!-- http://example.org/access45&#45;&gt;http://example.org/k#3 -->
<g id="edge9" class="edge"><title>http://example.org/access45&#45;&gt;http://example.org/k#3</title>
<path fill="none" stroke="gray" d="M515.973,-581.187C523.22,-589.908 532.155,-600.66 540.127,-610.254"/>
<polygon fill="gray" stroke="gray" points="537.457,-612.517 546.54,-617.971 542.841,-608.043 537.457,-612.517"/>
<text text-anchor="middle" x="530.758" y="-576.753" font-family="Times New Roman,serif" font-size="8.00" fill="gray">use</text>
</g>
<!-- &#45;attrs1 -->
<g id="node4" class="node"><title>&#45;attrs1</title>
<polygon fill="none" stroke="#f0f0f0" points="564.191,-479 499.191,-479 499.191,-443 570.191,-443 570.191,-473 564.191,-479"/>
<polyline fill="none" stroke="#f0f0f0" points="564.191,-479 564.191,-473 "/>
<polyline fill="none" stroke="#f0f0f0" points="570.191,-473 564.191,-473 "/>
<text text-anchor="start" x="509.691" y="-458" font-family="Times New Roman,serif" font-size="10.00" fill="#f0f0f0">type:</text>
<text text-anchor="start" x="532.691" y="-458" font-family="Times New Roman,serif" font-size="10.00" fill="#f0f0f0">access</text>
</g>
<!-- &#45;attrs1&#45;&gt;http://example.org/access45 -->
<g id="edge2" class="edge"><title>&#45;attrs1&#45;&gt;http://example.org/access45</title>
<path fill="none" stroke="#f0f0f0" stroke-dasharray="5,2" d="M530.136,-479.249C526.537,-492.431 521.216,-510.997 515.691,-527 513.683,-532.815 511.262,-539.079 509.002,-544.677"/>
</g>
<!-- bn0&#45;&gt;http://example.org/disti_aj#5 -->
<g id="edge6" class="edge"><title>bn0&#45;&gt;http://example.org/disti_aj#5</title>
<path fill="none" stroke="gray" d="M323.837,-564.797C324.625,-569.102 328.458,-590.035 331.735,-607.933"/>
<polygon fill="gray" stroke="gray" points="328.329,-608.765 333.573,-617.971 335.215,-607.504 328.329,-608.765"/>
</g>
<!-- bn0&#45;&gt;http://example.org/disti#5 -->
<g id="edge5" class="edge"><title>bn0&#45;&gt;http://example.org/disti#5</title>
<path fill="none" stroke="gray" d="M322.268,-564.388C312.358,-567.093 252.639,-583.5 204.691,-599 188.414,-604.262 170.806,-610.337 154.875,-615.981"/>
<polygon fill="gray" stroke="gray" points="153.444,-612.775 145.199,-619.428 155.793,-619.369 153.444,-612.775"/>
<text text-anchor="middle" x="318.47" y="-576.999" font-family="Times New Roman,serif" font-size="8.00" fill="gray">[2]</text>
</g>
<!-- http://example.org/distk_aj#5 -->
<g id="node9" class="node"><title>http://example.org/distk_aj#5</title>
<g id="a_node9"><a xlink:href="http://example.org/distk_aj#5" xlink:title="distk_aj#5">
<ellipse fill="#f0f0f0" stroke="gray" cx="781.691" cy="-461" rx="48.1917" ry="18"/>
<text text-anchor="middle" x="781.691" y="-457.3" font-family="Times New Roman,serif" font-size="14.00" fill="gray">distk_aj#5</text>
</a>
</g>
</g>
<!-- http://example.org/access46 -->
<g id="node11" class="node"><title>http://example.org/access46</title>
<g id="a_node11"><a xlink:href="http://example.org/access46" xlink:title="access46">
<polygon fill="#f0f0f0" stroke="gray" points="1024.69,-581 956.691,-581 956.691,-545 1024.69,-545 1024.69,-581"/>
<text text-anchor="middle" x="990.691" y="-559.3" font-family="Times New Roman,serif" font-size="14.00" fill="gray">access46</text>
</a>
</g>
</g>
<!-- http://example.org/distk_aj#5&#45;&gt;http://example.org/access46 -->
<g id="edge16" class="edge"><title>http://example.org/distk_aj#5&#45;&gt;http://example.org/access46</title>
<path fill="none" stroke="gray" d="M829.798,-462.393C865.421,-464.849 913.651,-472.932 948.691,-497 962.415,-506.427 972.694,-521.958 979.647,-535.475"/>
<polygon fill="gray" stroke="gray" points="976.655,-537.331 984.124,-544.845 982.971,-534.313 976.655,-537.331"/>
<text text-anchor="middle" x="838.346" y="-448.167" font-family="Times New Roman,serif" font-size="8.00" fill="gray">gen</text>
</g>
<!-- bn1 -->
<g id="node14" class="node"><title>bn1</title>
<ellipse fill="gray" stroke="gray" cx="781.691" cy="-563" rx="1.8" ry="1.8"/>
</g>
<!-- http://example.org/distk_aj#5&#45;&gt;bn1 -->
<g id="edge13" class="edge"><title>http://example.org/distk_aj#5&#45;&gt;bn1</title>
<path fill="none" stroke="gray" d="M781.691,-479.419C781.691,-505.831 781.691,-553.728 781.691,-561.05"/>
<text text-anchor="middle" x="863.191" y="-515.8" font-family="Times New Roman,serif" font-size="14.00" fill="gray">der ac&#45;r</text>
<text text-anchor="middle" x="863.191" y="-500.8" font-family="Times New Roman,serif" font-size="14.00" fill="gray">2018&#45;03&#45;07T01:11:26.371376</text>
</g>
<!-- &#45;attrs2 -->
<g id="node10" class="node"><title>&#45;attrs2</title>
<polygon fill="none" stroke="#f0f0f0" points="883.691,-406 685.691,-406 685.691,-344 889.691,-344 889.691,-400 883.691,-406"/>
<polyline fill="none" stroke="#f0f0f0" points="883.691,-406 883.691,-400 "/>
<polyline fill="none" stroke="#f0f0f0" points="889.691,-400 883.691,-400 "/>
<text text-anchor="start" x="695.691" y="-392" font-family="Times New Roman,serif" font-size="10.00" fill="#f0f0f0">value:</text>
<text text-anchor="start" x="770.691" y="-392" font-family="Times New Roman,serif" font-size="10.00" fill="#f0f0f0">3</text>
<text text-anchor="start" x="695.691" y="-379" font-family="Times New Roman,serif" font-size="10.00" fill="#f0f0f0">type:</text>
<text text-anchor="start" x="770.691" y="-379" font-family="Times New Roman,serif" font-size="10.00" fill="#f0f0f0">access</text>
<text text-anchor="start" x="695.691" y="-366" font-family="Times New Roman,serif" font-size="10.00" fill="#f0f0f0">label:</text>
<text text-anchor="start" x="770.691" y="-366" font-family="Times New Roman,serif" font-size="10.00" fill="#f0f0f0">distk[j]</text>
<text text-anchor="start" x="695.691" y="-353" font-family="Times New Roman,serif" font-size="10.00" fill="#f0f0f0">generatedAtTime:</text>
<text text-anchor="start" x="770.691" y="-353" font-family="Times New Roman,serif" font-size="10.00" fill="#f0f0f0">2018&#45;03&#45;07T01:11:26.371376</text>
</g>
<!-- &#45;attrs2&#45;&gt;http://example.org/distk_aj#5 -->
<g id="edge10" class="edge"><title>&#45;attrs2&#45;&gt;http://example.org/distk_aj#5</title>
<path fill="none" stroke="#f0f0f0" stroke-dasharray="5,2" d="M785.525,-406.326C784.652,-418.544 783.677,-432.195 782.929,-442.672"/>
</g>
<!-- http://example.org/disti_aj#3 -->
<g id="node13" class="node"><title>http://example.org/disti_aj#3</title>
<ellipse fill="none" stroke="black" cx="1013.69" cy="-636" rx="113.98" ry="18"/>
<text text-anchor="middle" x="1013.69" y="-632.3" font-family="Times New Roman,serif" font-size="14.00">http://example.org/disti_aj#3</text>
</g>
<!-- http://example.org/access46&#45;&gt;http://example.org/disti_aj#3 -->
<g id="edge12" class="edge"><title>http://example.org/access46&#45;&gt;http://example.org/disti_aj#3</title>
<path fill="none" stroke="gray" d="M996.259,-581.187C998.886,-589.298 1002.08,-599.164 1005.02,-608.223"/>
<polygon fill="gray" stroke="gray" points="1001.76,-609.537 1008.17,-617.971 1008.42,-607.379 1001.76,-609.537"/>
<text text-anchor="middle" x="1010.93" y="-582.419" font-family="Times New Roman,serif" font-size="8.00" fill="gray">use</text>
</g>
<!-- http://example.org/distk#3 -->
<g id="node15" class="node"><title>http://example.org/distk#3</title>
<ellipse fill="none" stroke="black" cx="776.691" cy="-636" rx="105.082" ry="18"/>
<text text-anchor="middle" x="776.691" y="-632.3" font-family="Times New Roman,serif" font-size="14.00">http://example.org/distk#3</text>
</g>
<!-- http://example.org/access46&#45;&gt;http://example.org/distk#3 -->
<g id="edge17" class="edge"><title>http://example.org/access46&#45;&gt;http://example.org/distk#3</title>
<path fill="none" stroke="gray" d="M956.308,-575.407C922.87,-586.501 871.517,-603.539 832.271,-616.56"/>
<polygon fill="gray" stroke="gray" points="830.962,-613.307 822.573,-619.778 833.166,-619.95 830.962,-613.307"/>
<text text-anchor="middle" x="953.28" y="-588.199" font-family="Times New Roman,serif" font-size="8.00" fill="gray">use</text>
</g>
<!-- http://example.org/j#14 -->
<g id="node16" class="node"><title>http://example.org/j#14</title>
<ellipse fill="none" stroke="black" cx="1239.69" cy="-636" rx="94.4839" ry="18"/>
<text text-anchor="middle" x="1239.69" y="-632.3" font-family="Times New Roman,serif" font-size="14.00">http://example.org/j#14</text>
</g>
<!-- http://example.org/access46&#45;&gt;http://example.org/j#14 -->
<g id="edge18" class="edge"><title>http://example.org/access46&#45;&gt;http://example.org/j#14</title>
<path fill="none" stroke="gray" d="M1024.79,-573.723C1064.67,-585.093 1131.38,-604.117 1179.92,-617.956"/>
<polygon fill="gray" stroke="gray" points="1179.1,-621.362 1189.68,-620.739 1181.02,-614.631 1179.1,-621.362"/>
<text text-anchor="middle" x="1035.57" y="-561.388" font-family="Times New Roman,serif" font-size="8.00" fill="gray">use</text>
</g>
<!-- &#45;attrs3 -->
<g id="node12" class="node"><title>&#45;attrs3</title>
<polygon fill="none" stroke="#f0f0f0" points="1020.19,-479 955.191,-479 955.191,-443 1026.19,-443 1026.19,-473 1020.19,-479"/>
<polyline fill="none" stroke="#f0f0f0" points="1020.19,-479 1020.19,-473 "/>
<polyline fill="none" stroke="#f0f0f0" points="1026.19,-473 1020.19,-473 "/>
<text text-anchor="start" x="965.691" y="-458" font-family="Times New Roman,serif" font-size="10.00" fill="#f0f0f0">type:</text>
<text text-anchor="start" x="988.691" y="-458" font-family="Times New Roman,serif" font-size="10.00" fill="#f0f0f0">access</text>
</g>
<!-- &#45;attrs3&#45;&gt;http://example.org/access46 -->
<g id="edge11" class="edge"><title>&#45;attrs3&#45;&gt;http://example.org/access46</title>
<path fill="none" stroke="#f0f0f0" stroke-dasharray="5,2" d="M990.691,-479.419C990.691,-497.773 990.691,-526.502 990.691,-544.781"/>
</g>
<!-- bn1&#45;&gt;http://example.org/disti_aj#3 -->
<g id="edge15" class="edge"><title>bn1&#45;&gt;http://example.org/disti_aj#3</title>
<path fill="none" stroke="gray" d="M783.172,-564.453C796.075,-568.402 890.422,-597.276 954.346,-616.838"/>
<polygon fill="gray" stroke="gray" points="953.348,-620.193 963.934,-619.773 955.396,-613.5 953.348,-620.193"/>
</g>
<!-- bn1&#45;&gt;http://example.org/distk#3 -->
<g id="edge14" class="edge"><title>bn1&#45;&gt;http://example.org/distk#3</title>
<path fill="none" stroke="gray" d="M781.62,-565.004C781.29,-569.694 779.863,-589.959 778.629,-607.486"/>
<polygon fill="gray" stroke="gray" points="775.108,-607.66 777.896,-617.881 782.09,-608.151 775.108,-607.66"/>
<text text-anchor="middle" x="794.052" y="-571.498" font-family="Times New Roman,serif" font-size="8.00" fill="gray">[1]</text>
</g>
<!-- http://example.org/sum#5 -->
<g id="node17" class="node"><title>http://example.org/sum#5</title>
<g id="a_node17"><a xlink:href="http://example.org/sum#5" xlink:title="sum#5">
<ellipse fill="#f0f0f0" stroke="gray" cx="654.691" cy="-289" rx="35.194" ry="18"/>
<text text-anchor="middle" x="654.691" y="-285.3" font-family="Times New Roman,serif" font-size="14.00" fill="gray">sum#5</text>
</a>
</g>
</g>
<!-- http://example.org/sum#5&#45;&gt;http://example.org/disti_ak#5 -->
<g id="edge22" class="edge"><title>http://example.org/sum#5&#45;&gt;http://example.org/disti_ak#5</title>
<path fill="none" stroke="gray" d="M629.376,-301.481C610.501,-310.94 584.938,-325.743 566.691,-344 543.844,-366.859 551.968,-383.579 528.691,-406 512.785,-421.321 491.693,-433.808 473.331,-442.9"/>
<polygon fill="gray" stroke="gray" points="471.811,-439.747 464.296,-447.216 474.828,-446.064 471.811,-439.747"/>
<text text-anchor="middle" x="628.623" y="-314.562" font-family="Times New Roman,serif" font-size="8.00" fill="gray">der</text>
</g>
<!-- http://example.org/sum#5&#45;&gt;http://example.org/distk_aj#5 -->
<g id="edge24" class="edge"><title>http://example.org/sum#5&#45;&gt;http://example.org/distk_aj#5</title>
<path fill="none" stroke="gray" d="M653.505,-307.192C652.725,-331.604 654.732,-376.605 676.691,-406 690.83,-424.926 713.518,-437.756 734.194,-446.142"/>
<polygon fill="gray" stroke="gray" points="733.232,-449.521 743.823,-449.799 735.717,-442.977 733.232,-449.521"/>
<text text-anchor="middle" x="666.367" y="-313.01" font-family="Times New Roman,serif" font-size="8.00" fill="gray">der</text>
</g>
<!-- http://example.org/+5 -->
<g id="node19" class="node"><title>http://example.org/+5</title>
<g id="a_node19"><a xlink:href="http://example.org/+5" xlink:title="+5">
<polygon fill="#f0f0f0" stroke="gray" points="629.691,-393 575.691,-393 575.691,-357 629.691,-357 629.691,-393"/>
<text text-anchor="middle" x="602.691" y="-371.3" font-family="Times New Roman,serif" font-size="14.00" fill="gray">+5</text>
</a>
</g>
</g>
<!-- http://example.org/sum#5&#45;&gt;http://example.org/+5 -->
<g id="edge25" class="edge"><title>http://example.org/sum#5&#45;&gt;http://example.org/+5</title>
<path fill="none" stroke="gray" d="M644.417,-306.596C637.107,-318.405 627.138,-334.508 618.778,-348.012"/>
<polygon fill="gray" stroke="gray" points="615.588,-346.517 613.3,-356.862 621.54,-350.202 615.588,-346.517"/>
<text text-anchor="middle" x="651.515" y="-317.91" font-family="Times New Roman,serif" font-size="8.00" fill="gray">gen</text>
</g>
<!-- &#45;attrs4 -->
<g id="node18" class="node"><title>&#45;attrs4</title>
<polygon fill="none" stroke="#f0f0f0" points="597.691,-234 399.691,-234 399.691,-172 603.691,-172 603.691,-228 597.691,-234"/>
<polyline fill="none" stroke="#f0f0f0" points="597.691,-234 597.691,-228 "/>
<polyline fill="none" stroke="#f0f0f0" points="603.691,-228 597.691,-228 "/>
<text text-anchor="start" x="409.691" y="-220" font-family="Times New Roman,serif" font-size="10.00" fill="#f0f0f0">value:</text>
<text text-anchor="start" x="484.691" y="-220" font-family="Times New Roman,serif" font-size="10.00" fill="#f0f0f0">6</text>
<text text-anchor="start" x="409.691" y="-207" font-family="Times New Roman,serif" font-size="10.00" fill="#f0f0f0">type:</text>
<text text-anchor="start" x="484.691" y="-207" font-family="Times New Roman,serif" font-size="10.00" fill="#f0f0f0">operation</text>
<text text-anchor="start" x="409.691" y="-194" font-family="Times New Roman,serif" font-size="10.00" fill="#f0f0f0">label:</text>
<text text-anchor="start" x="484.691" y="-194" font-family="Times New Roman,serif" font-size="10.00" fill="#f0f0f0">disti[k] + distk[j]</text>
<text text-anchor="start" x="409.691" y="-181" font-family="Times New Roman,serif" font-size="10.00" fill="#f0f0f0">generatedAtTime:</text>
<text text-anchor="start" x="484.691" y="-181" font-family="Times New Roman,serif" font-size="10.00" fill="#f0f0f0">2018&#45;03&#45;07T01:11:26.371376</text>
</g>
<!-- &#45;attrs4&#45;&gt;http://example.org/sum#5 -->
<g id="edge19" class="edge"><title>&#45;attrs4&#45;&gt;http://example.org/sum#5</title>
<path fill="none" stroke="#f0f0f0" stroke-dasharray="5,2" d="M556.495,-234.089C582.219,-248.211 611.51,-264.293 631.357,-275.189"/>
</g>
<!-- http://example.org/+5&#45;&gt;http://example.org/disti_ak#5 -->
<g id="edge21" class="edge"><title>http://example.org/+5&#45;&gt;http://example.org/disti_ak#5</title>
<path fill="none" stroke="gray" d="M592.214,-393.403C584.931,-404.055 574.288,-417.111 561.691,-425 533.736,-442.508 521.503,-434.284 489.691,-443 486.093,-443.986 482.375,-445.032 478.644,-446.101"/>
<polygon fill="gray" stroke="gray" points="477.429,-442.81 468.805,-448.963 479.385,-449.531 477.429,-442.81"/>
<text text-anchor="middle" x="598.549" y="-405.1" font-family="Times New Roman,serif" font-size="8.00" fill="gray">use</text>
</g>
<!-- http://example.org/+5&#45;&gt;http://example.org/distk_aj#5 -->
<g id="edge23" class="edge"><title>http://example.org/+5&#45;&gt;http://example.org/distk_aj#5</title>
<path fill="none" stroke="gray" d="M613.177,-393.389C620.464,-404.035 631.107,-417.089 643.691,-425 668.276,-440.456 699.362,-449.097 725.803,-453.923"/>
<polygon fill="gray" stroke="gray" points="725.243,-457.378 735.686,-455.592 726.409,-450.476 725.243,-457.378"/>
<text text-anchor="middle" x="628.119" y="-390.17" font-family="Times New Roman,serif" font-size="8.00" fill="gray">use</text>
</g>
<!-- &#45;attrs5 -->
<g id="node20" class="node"><title>&#45;attrs5</title>
<polygon fill="none" stroke="#f0f0f0" points="595.691,-307 547.691,-307 547.691,-271 601.691,-271 601.691,-301 595.691,-307"/>
<polyline fill="none" stroke="#f0f0f0" points="595.691,-307 595.691,-301 "/>
<polyline fill="none" stroke="#f0f0f0" points="601.691,-301 595.691,-301 "/>
<text text-anchor="start" x="560.691" y="-286" font-family="Times New Roman,serif" font-size="10.00" fill="#f0f0f0">type:</text>
<text text-anchor="start" x="583.691" y="-286" font-family="Times New Roman,serif" font-size="10.00" fill="#f0f0f0">+</text>
</g>
<!-- &#45;attrs5&#45;&gt;http://example.org/+5 -->
<g id="edge20" class="edge"><title>&#45;attrs5&#45;&gt;http://example.org/+5</title>
<path fill="none" stroke="#f0f0f0" stroke-dasharray="5,2" d="M580.493,-307.405C585.33,-321.917 592.184,-342.479 596.993,-356.905"/>
</g>
<!-- http://example.org/ikj#5 -->
<g id="node21" class="node"><title>http://example.org/ikj#5</title>
<g id="a_node21"><a xlink:href="http://example.org/ikj#5" xlink:title="ikj#5">
<ellipse fill="#f0f0f0" stroke="gray" cx="723.691" cy="-117" rx="28.6953" ry="18"/>
<text text-anchor="middle" x="723.691" y="-113.3" font-family="Times New Roman,serif" font-size="14.00" fill="gray">ikj#5</text>
</a>
</g>
</g>
<!-- http://example.org/ikj#5&#45;&gt;http://example.org/sum#5 -->
<g id="edge29" class="edge"><title>http://example.org/ikj#5&#45;&gt;http://example.org/sum#5</title>
<path fill="none" stroke="gray" d="M722.017,-135.28C719.241,-158.641 712.352,-201.15 696.691,-234 691.447,-244.999 683.661,-255.855 676.212,-264.916"/>
<polygon fill="gray" stroke="gray" points="673.402,-262.816 669.549,-272.685 678.716,-267.373 673.402,-262.816"/>
<text text-anchor="middle" x="797.191" y="-206.8" font-family="Times New Roman,serif" font-size="14.00" fill="gray">der ref</text>
<text text-anchor="middle" x="797.191" y="-191.8" font-family="Times New Roman,serif" font-size="14.00" fill="gray">2018&#45;03&#45;07T01:11:26.371376</text>
</g>
<!-- http://example.org/assign20 -->
<g id="node23" class="node"><title>http://example.org/assign20</title>
<g id="a_node23"><a xlink:href="http://example.org/assign20" xlink:title="assign20">
<polygon fill="#f0f0f0" stroke="gray" points="687.191,-221 622.191,-221 622.191,-185 687.191,-185 687.191,-221"/>
<text text-anchor="middle" x="654.691" y="-199.3" font-family="Times New Roman,serif" font-size="14.00" fill="gray">assign20</text>
</a>
</g>
</g>
<!-- http://example.org/ikj#5&#45;&gt;http://example.org/assign20 -->
<g id="edge30" class="edge"><title>http://example.org/ikj#5&#45;&gt;http://example.org/assign20</title>
<path fill="none" stroke="gray" d="M711.035,-133.407C701.018,-145.602 686.828,-162.877 675.194,-177.04"/>
<polygon fill="gray" stroke="gray" points="672.333,-175.008 668.69,-184.957 677.742,-179.451 672.333,-175.008"/>
<text text-anchor="middle" x="716.313" y="-145.548" font-family="Times New Roman,serif" font-size="8.00" fill="gray">gen</text>
</g>
<!-- &#45;attrs6 -->
<g id="node22" class="node"><title>&#45;attrs6</title>
<polygon fill="none" stroke="#f0f0f0" points="819.691,-62 621.691,-62 621.691,-0 825.691,-0 825.691,-56 819.691,-62"/>
<polyline fill="none" stroke="#f0f0f0" points="819.691,-62 819.691,-56 "/>
<polyline fill="none" stroke="#f0f0f0" points="825.691,-56 819.691,-56 "/>
<text text-anchor="start" x="631.691" y="-48" font-family="Times New Roman,serif" font-size="10.00" fill="#f0f0f0">value:</text>
<text text-anchor="start" x="706.691" y="-48" font-family="Times New Roman,serif" font-size="10.00" fill="#f0f0f0">6</text>
<text text-anchor="start" x="631.691" y="-35" font-family="Times New Roman,serif" font-size="10.00" fill="#f0f0f0">type:</text>
<text text-anchor="start" x="706.691" y="-35" font-family="Times New Roman,serif" font-size="10.00" fill="#f0f0f0">name</text>
<text text-anchor="start" x="631.691" y="-22" font-family="Times New Roman,serif" font-size="10.00" fill="#f0f0f0">label:</text>
<text text-anchor="start" x="706.691" y="-22" font-family="Times New Roman,serif" font-size="10.00" fill="#f0f0f0">ikj</text>
<text text-anchor="start" x="631.691" y="-9" font-family="Times New Roman,serif" font-size="10.00" fill="#f0f0f0">generatedAtTime:</text>
<text text-anchor="start" x="706.691" y="-9" font-family="Times New Roman,serif" font-size="10.00" fill="#f0f0f0">2018&#45;03&#45;07T01:11:26.371376</text>
</g>
<!-- &#45;attrs6&#45;&gt;http://example.org/ikj#5 -->
<g id="edge26" class="edge"><title>&#45;attrs6&#45;&gt;http://example.org/ikj#5</title>
<path fill="none" stroke="#f0f0f0" stroke-dasharray="5,2" d="M723.691,-62.3259C723.691,-74.5443 723.691,-88.1945 723.691,-98.6716"/>
</g>
<!-- http://example.org/assign20&#45;&gt;http://example.org/sum#5 -->
<g id="edge28" class="edge"><title>http://example.org/assign20&#45;&gt;http://example.org/sum#5</title>
<path fill="none" stroke="gray" d="M654.691,-221.405C654.691,-232.743 654.691,-247.773 654.691,-260.685"/>
<polygon fill="gray" stroke="gray" points="651.191,-260.905 654.691,-270.905 658.191,-260.905 651.191,-260.905"/>
<text text-anchor="middle" x="667.681" y="-227.005" font-family="Times New Roman,serif" font-size="8.00" fill="gray">use</text>
</g>
<!-- &#45;attrs7 -->
<g id="node24" class="node"><title>&#45;attrs7</title>
<polygon fill="none" stroke="#f0f0f0" points="670.691,-135 606.691,-135 606.691,-99 676.691,-99 676.691,-129 670.691,-135"/>
<polyline fill="none" stroke="#f0f0f0" points="670.691,-135 670.691,-129 "/>
<polyline fill="none" stroke="#f0f0f0" points="676.691,-129 670.691,-129 "/>
<text text-anchor="start" x="616.691" y="-114" font-family="Times New Roman,serif" font-size="10.00" fill="#f0f0f0">type:</text>
<text text-anchor="start" x="639.691" y="-114" font-family="Times New Roman,serif" font-size="10.00" fill="#f0f0f0">assign</text>
</g>
<!-- &#45;attrs7&#45;&gt;http://example.org/assign20 -->
<g id="edge27" class="edge"><title>&#45;attrs7&#45;&gt;http://example.org/assign20</title>
<path fill="none" stroke="#f0f0f0" stroke-dasharray="5,2" d="M644.384,-135.405C646.63,-149.917 649.813,-170.479 652.045,-184.905"/>
</g>
</g>
</svg>
