<?xml version="1.0" encoding="UTF-8" standalone="no"?>
<!DOCTYPE svg PUBLIC "-//W3C//DTD SVG 1.1//EN"
 "http://www.w3.org/Graphics/SVG/1.1/DTD/svg11.dtd">
<!-- Generated by graphviz version 2.38.0 (20140413.2041)
 -->
<!-- Title: PROV Pages: 1 -->
<svg width="789pt" height="633pt"
 viewBox="0.00 0.00 789.00 633.00" xmlns="http://www.w3.org/2000/svg" xmlns:xlink="http://www.w3.org/1999/xlink">
<g id="graph0" class="graph" transform="scale(1 1) rotate(0) translate(4 629)">
<title>PROV</title>
<polygon fill="white" stroke="none" points="-4,4 -4,-629 785,-629 785,4 -4,4"/>
<!-- http://example.org/0#2 -->
<g id="node1" class="node"><title>http://example.org/0#2</title>
<g id="a_node1"><a xlink:href="http://example.org/0#2" xlink:title="0#2">
<ellipse fill="#fffc87" stroke="#808080" cx="107.5" cy="-607" rx="27" ry="18"/>
<text text-anchor="middle" x="107.5" y="-603.3" font-family="Times New Roman,serif" font-size="14.00">0#2</text>
</a>
</g>
</g>
<!-- &#45;attrs0 -->
<g id="node2" class="node"><title>&#45;attrs0</title>
<polygon fill="none" stroke="gray" points="207,-538 0,-538 0,-489 213,-489 213,-532 207,-538"/>
<polyline fill="none" stroke="gray" points="207,-538 207,-532 "/>
<polyline fill="none" stroke="gray" points="213,-532 207,-532 "/>
<text text-anchor="start" x="10.5" y="-523.5" font-family="Times New Roman,serif" font-size="10.00">value:</text>
<text text-anchor="start" x="85.5" y="-523.5" font-family="Times New Roman,serif" font-size="10.00">&quot;0&quot;</text>
<text text-anchor="start" x="10.5" y="-510.5" font-family="Times New Roman,serif" font-size="10.00">type:</text>
<text text-anchor="start" x="85.5" y="-510.5" font-family="Times New Roman,serif" font-size="10.00">&quot;literal&quot;</text>
<text text-anchor="start" x="10.5" y="-497.5" font-family="Times New Roman,serif" font-size="10.00">generatedAtTime:</text>
<text text-anchor="start" x="85.5" y="-497.5" font-family="Times New Roman,serif" font-size="10.00">&quot;2018&#45;03&#45;05T16:04:29.928253&quot;</text>
</g>
<!-- &#45;attrs0&#45;&gt;http://example.org/0#2 -->
<g id="edge1" class="edge"><title>&#45;attrs0&#45;&gt;http://example.org/0#2</title>
<path fill="none" stroke="gray" stroke-dasharray="5,2" d="M106.758,-538.064C106.931,-553.949 107.156,-574.543 107.313,-588.873"/>
</g>
<!-- http://example.org/2#2 -->
<g id="node3" class="node"><title>http://example.org/2#2</title>
<g id="a_node3"><a xlink:href="http://example.org/2#2" xlink:title="2#2">
<ellipse fill="#fffc87" stroke="#808080" cx="674.5" cy="-405" rx="27" ry="18"/>
<text text-anchor="middle" x="674.5" y="-401.3" font-family="Times New Roman,serif" font-size="14.00">2#2</text>
</a>
</g>
</g>
<!-- &#45;attrs1 -->
<g id="node4" class="node"><title>&#45;attrs1</title>
<polygon fill="none" stroke="gray" points="775,-329.5 568,-329.5 568,-280.5 781,-280.5 781,-323.5 775,-329.5"/>
<polyline fill="none" stroke="gray" points="775,-329.5 775,-323.5 "/>
<polyline fill="none" stroke="gray" points="781,-323.5 775,-323.5 "/>
<text text-anchor="start" x="578.5" y="-315" font-family="Times New Roman,serif" font-size="10.00">value:</text>
<text text-anchor="start" x="653.5" y="-315" font-family="Times New Roman,serif" font-size="10.00">&quot;2&quot;</text>
<text text-anchor="start" x="578.5" y="-302" font-family="Times New Roman,serif" font-size="10.00">type:</text>
<text text-anchor="start" x="653.5" y="-302" font-family="Times New Roman,serif" font-size="10.00">&quot;literal&quot;</text>
<text text-anchor="start" x="578.5" y="-289" font-family="Times New Roman,serif" font-size="10.00">generatedAtTime:</text>
<text text-anchor="start" x="653.5" y="-289" font-family="Times New Roman,serif" font-size="10.00">&quot;2018&#45;03&#45;05T16:04:29.928253&quot;</text>
</g>
<!-- &#45;attrs1&#45;&gt;http://example.org/2#2 -->
<g id="edge2" class="edge"><title>&#45;attrs1&#45;&gt;http://example.org/2#2</title>
<path fill="none" stroke="gray" stroke-dasharray="5,2" d="M674.5,-329.723C674.5,-347.397 674.5,-371.113 674.5,-386.944"/>
</g>
<!-- http://example.org/result_a0 -->
<g id="node5" class="node"><title>http://example.org/result_a0</title>
<g id="a_node5"><a xlink:href="http://example.org/result_a0" xlink:title="result_a0">
<ellipse fill="#fffc87" stroke="#808080" cx="331.5" cy="-405" rx="43.5923" ry="18"/>
<text text-anchor="middle" x="331.5" y="-401.3" font-family="Times New Roman,serif" font-size="14.00">result_a0</text>
</a>
</g>
</g>
<!-- http://example.org/access133 -->
<g id="node7" class="node"><title>http://example.org/access133</title>
<g id="a_node7"><a xlink:href="http://example.org/access133" xlink:title="access133">
<polygon fill="#9fb1fc" stroke="#0000ff" points="305.5,-531.5 231.5,-531.5 231.5,-495.5 305.5,-495.5 305.5,-531.5"/>
<text text-anchor="middle" x="268.5" y="-509.8" font-family="Times New Roman,serif" font-size="14.00">access133</text>
</a>
</g>
</g>
<!-- http://example.org/result_a0&#45;&gt;http://example.org/access133 -->
<g id="edge9" class="edge"><title>http://example.org/result_a0&#45;&gt;http://example.org/access133</title>
<path fill="none" stroke="black" d="M321.656,-422.641C311.558,-439.711 295.706,-466.51 283.937,-486.404"/>
<polygon fill="black" stroke="black" points="280.771,-484.882 278.692,-495.271 286.796,-488.446 280.771,-484.882"/>
<text text-anchor="middle" x="329.018" y="-433.81" font-family="Times New Roman,serif" font-size="8.00">gen</text>
</g>
<!-- bn0 -->
<g id="node10" class="node"><title>bn0</title>
<ellipse fill="black" stroke="black" cx="331.5" cy="-513.5" rx="1.8" ry="1.8"/>
</g>
<!-- http://example.org/result_a0&#45;&gt;bn0 -->
<g id="edge6" class="edge"><title>http://example.org/result_a0&#45;&gt;bn0</title>
<path fill="none" stroke="darkgreen" d="M331.5,-423.111C331.5,-450.864 331.5,-503.415 331.5,-511.457"/>
<text text-anchor="middle" x="413" y="-459.8" font-family="Times New Roman,serif" font-size="14.00">der ac&#45;r</text>
<text text-anchor="middle" x="413" y="-444.8" font-family="Times New Roman,serif" font-size="14.00">2018&#45;03&#45;05T16:04:29.928253</text>
</g>
<!-- &#45;attrs2 -->
<g id="node6" class="node"><title>&#45;attrs2</title>
<polygon fill="none" stroke="gray" points="348,-336 141,-336 141,-274 354,-274 354,-330 348,-336"/>
<polyline fill="none" stroke="gray" points="348,-336 348,-330 "/>
<polyline fill="none" stroke="gray" points="354,-330 348,-330 "/>
<text text-anchor="start" x="151.5" y="-322" font-family="Times New Roman,serif" font-size="10.00">value:</text>
<text text-anchor="start" x="226.5" y="-322" font-family="Times New Roman,serif" font-size="10.00">&quot;[0, 1, 3]&quot;</text>
<text text-anchor="start" x="151.5" y="-309" font-family="Times New Roman,serif" font-size="10.00">type:</text>
<text text-anchor="start" x="226.5" y="-309" font-family="Times New Roman,serif" font-size="10.00">&quot;access&quot;</text>
<text text-anchor="start" x="151.5" y="-296" font-family="Times New Roman,serif" font-size="10.00">label:</text>
<text text-anchor="start" x="226.5" y="-296" font-family="Times New Roman,serif" font-size="10.00">&quot;result[0]&quot;</text>
<text text-anchor="start" x="151.5" y="-283" font-family="Times New Roman,serif" font-size="10.00">generatedAtTime:</text>
<text text-anchor="start" x="226.5" y="-283" font-family="Times New Roman,serif" font-size="10.00">&quot;2018&#45;03&#45;05T16:04:29.928253&quot;</text>
</g>
<!-- &#45;attrs2&#45;&gt;http://example.org/result_a0 -->
<g id="edge3" class="edge"><title>&#45;attrs2&#45;&gt;http://example.org/result_a0</title>
<path fill="none" stroke="gray" stroke-dasharray="5,2" d="M273.388,-336.203C287.946,-353.187 305.548,-373.723 317.539,-387.712"/>
</g>
<!-- http://example.org/access133&#45;&gt;http://example.org/0#2 -->
<g id="edge11" class="edge"><title>http://example.org/access133&#45;&gt;http://example.org/0#2</title>
<path fill="none" stroke="black" d="M238.217,-531.71C208.956,-548.34 164.956,-573.346 136.231,-589.672"/>
<polygon fill="black" stroke="black" points="134.444,-586.661 127.479,-594.645 137.903,-592.747 134.444,-586.661"/>
<text text-anchor="middle" x="238.115" y="-544.81" font-family="Times New Roman,serif" font-size="8.00">use</text>
</g>
<!-- http://example.org/list0 -->
<g id="node9" class="node"><title>http://example.org/list0</title>
<ellipse fill="none" stroke="black" cx="460.5" cy="-607" rx="92.8835" ry="18"/>
<text text-anchor="middle" x="460.5" y="-603.3" font-family="Times New Roman,serif" font-size="14.00">http://example.org/list0</text>
</g>
<!-- http://example.org/access133&#45;&gt;http://example.org/list0 -->
<g id="edge5" class="edge"><title>http://example.org/access133&#45;&gt;http://example.org/list0</title>
<path fill="none" stroke="black" d="M275.458,-531.689C281.516,-544.47 291.531,-561.309 305.5,-571 318.078,-579.727 348.885,-587.465 379.749,-593.432"/>
<polygon fill="black" stroke="black" points="379.275,-596.904 389.749,-595.306 380.565,-590.024 379.275,-596.904"/>
<text text-anchor="middle" x="290.424" y="-530.798" font-family="Times New Roman,serif" font-size="8.00">use</text>
</g>
<!-- http://example.org/result -->
<g id="node11" class="node"><title>http://example.org/result</title>
<ellipse fill="none" stroke="black" cx="251.5" cy="-607" rx="98.2828" ry="18"/>
<text text-anchor="middle" x="251.5" y="-603.3" font-family="Times New Roman,serif" font-size="14.00">http://example.org/result</text>
</g>
<!-- http://example.org/access133&#45;&gt;http://example.org/result -->
<g id="edge10" class="edge"><title>http://example.org/access133&#45;&gt;http://example.org/result</title>
<path fill="none" stroke="black" d="M265.302,-531.71C262.833,-545.002 259.369,-563.644 256.53,-578.929"/>
<polygon fill="black" stroke="black" points="253.069,-578.396 254.683,-588.867 259.951,-579.674 253.069,-578.396"/>
<text text-anchor="middle" x="276.704" y="-539.557" font-family="Times New Roman,serif" font-size="8.00">use</text>
</g>
<!-- &#45;attrs3 -->
<g id="node8" class="node"><title>&#45;attrs3</title>
<polygon fill="none" stroke="gray" points="263.5,-423 189.5,-423 189.5,-387 269.5,-387 269.5,-417 263.5,-423"/>
<polyline fill="none" stroke="gray" points="263.5,-423 263.5,-417 "/>
<polyline fill="none" stroke="gray" points="269.5,-417 263.5,-417 "/>
<text text-anchor="start" x="199.5" y="-402" font-family="Times New Roman,serif" font-size="10.00">type:</text>
<text text-anchor="start" x="222.5" y="-402" font-family="Times New Roman,serif" font-size="10.00">&quot;access&quot;</text>
</g>
<!-- &#45;attrs3&#45;&gt;http://example.org/access133 -->
<g id="edge4" class="edge"><title>&#45;attrs3&#45;&gt;http://example.org/access133</title>
<path fill="none" stroke="gray" stroke-dasharray="5,2" d="M235.766,-423.111C243.044,-442.985 254.978,-475.575 262.25,-495.431"/>
</g>
<!-- bn0&#45;&gt;http://example.org/list0 -->
<g id="edge8" class="edge"><title>bn0&#45;&gt;http://example.org/list0</title>
<path fill="none" stroke="darkgreen" d="M332.949,-515.528C342.237,-522.116 394.139,-558.93 428.808,-583.52"/>
<polygon fill="darkgreen" stroke="darkgreen" points="427.032,-586.552 437.214,-589.483 431.082,-580.843 427.032,-586.552"/>
</g>
<!-- bn0&#45;&gt;http://example.org/result -->
<g id="edge7" class="edge"><title>bn0&#45;&gt;http://example.org/result</title>
<path fill="none" stroke="darkgreen" d="M330.89,-515.426C328.758,-518.642 321.396,-529.589 314.5,-538 302.163,-553.047 287.427,-569.049 275.309,-581.747"/>
<polygon fill="darkgreen" stroke="darkgreen" points="272.56,-579.557 268.148,-589.189 277.604,-584.41 272.56,-579.557"/>
<text text-anchor="middle" x="305.5" y="-559.8" font-family="Times New Roman,serif" font-size="14.00">[0]</text>
</g>
<!-- http://example.org/result_a02 -->
<g id="node12" class="node"><title>http://example.org/result_a02</title>
<g id="a_node12"><a xlink:href="http://example.org/result_a02" xlink:title="result_a02">
<ellipse fill="#fffc87" stroke="#808080" cx="383.5" cy="-190" rx="48.1917" ry="18"/>
<text text-anchor="middle" x="383.5" y="-186.3" font-family="Times New Roman,serif" font-size="14.00">result_a02</text>
</a>
</g>
</g>
<!-- http://example.org/access134 -->
<g id="node14" class="node"><title>http://example.org/access134</title>
<g id="a_node14"><a xlink:href="http://example.org/access134" xlink:title="access134">
<polygon fill="#9fb1fc" stroke="#0000ff" points="549.5,-323 475.5,-323 475.5,-287 549.5,-287 549.5,-323"/>
<text text-anchor="middle" x="512.5" y="-301.3" font-family="Times New Roman,serif" font-size="14.00">access134</text>
</a>
</g>
</g>
<!-- http://example.org/result_a02&#45;&gt;http://example.org/access134 -->
<g id="edge18" class="edge"><title>http://example.org/result_a02&#45;&gt;http://example.org/access134</title>
<path fill="none" stroke="black" d="M430.561,-193.987C454.236,-197.982 481.449,-206.812 498.5,-226 510.644,-239.667 513.953,-260.163 514.327,-276.716"/>
<polygon fill="black" stroke="black" points="510.825,-276.874 514.212,-286.913 517.824,-276.953 510.825,-276.874"/>
<text text-anchor="middle" x="440.326" y="-180.702" font-family="Times New Roman,serif" font-size="8.00">gen</text>
</g>
<!-- bn1 -->
<g id="node17" class="node"><title>bn1</title>
<ellipse fill="black" stroke="black" cx="373.5" cy="-305" rx="1.8" ry="1.8"/>
</g>
<!-- http://example.org/result_a02&#45;&gt;bn1 -->
<g id="edge15" class="edge"><title>http://example.org/result_a02&#45;&gt;bn1</title>
<path fill="none" stroke="darkgreen" d="M355.693,-204.755C347.696,-210.195 339.941,-217.266 335.5,-226 329.457,-237.885 329.111,-244.297 335.5,-256 342.589,-268.985 354.422,-262.318 363.5,-274 371.046,-283.711 373.043,-299.396 373.424,-303.166"/>
<text text-anchor="middle" x="417" y="-244.8" font-family="Times New Roman,serif" font-size="14.00">der ac&#45;r</text>
<text text-anchor="middle" x="417" y="-229.8" font-family="Times New Roman,serif" font-size="14.00">2018&#45;03&#45;05T16:04:29.928253</text>
</g>
<!-- &#45;attrs4 -->
<g id="node13" class="node"><title>&#45;attrs4</title>
<polygon fill="none" stroke="gray" points="472,-135 265,-135 265,-73 478,-73 478,-129 472,-135"/>
<polyline fill="none" stroke="gray" points="472,-135 472,-129 "/>
<polyline fill="none" stroke="gray" points="478,-129 472,-129 "/>
<text text-anchor="start" x="275.5" y="-121" font-family="Times New Roman,serif" font-size="10.00">value:</text>
<text text-anchor="start" x="350.5" y="-121" font-family="Times New Roman,serif" font-size="10.00">&quot;3&quot;</text>
<text text-anchor="start" x="275.5" y="-108" font-family="Times New Roman,serif" font-size="10.00">type:</text>
<text text-anchor="start" x="350.5" y="-108" font-family="Times New Roman,serif" font-size="10.00">&quot;access&quot;</text>
<text text-anchor="start" x="275.5" y="-95" font-family="Times New Roman,serif" font-size="10.00">label:</text>
<text text-anchor="start" x="350.5" y="-95" font-family="Times New Roman,serif" font-size="10.00">&quot;result[0][2]&quot;</text>
<text text-anchor="start" x="275.5" y="-82" font-family="Times New Roman,serif" font-size="10.00">generatedAtTime:</text>
<text text-anchor="start" x="350.5" y="-82" font-family="Times New Roman,serif" font-size="10.00">&quot;2018&#45;03&#45;05T16:04:29.928253&quot;</text>
</g>
<!-- &#45;attrs4&#45;&gt;http://example.org/result_a02 -->
<g id="edge12" class="edge"><title>&#45;attrs4&#45;&gt;http://example.org/result_a02</title>
<path fill="none" stroke="gray" stroke-dasharray="5,2" d="M375.832,-135.326C377.578,-147.544 379.528,-161.195 381.025,-171.672"/>
</g>
<!-- http://example.org/access134&#45;&gt;http://example.org/2#2 -->
<g id="edge20" class="edge"><title>http://example.org/access134&#45;&gt;http://example.org/2#2</title>
<path fill="none" stroke="black" d="M539.244,-323.292C545.838,-327.495 552.902,-331.945 559.5,-336 588.808,-354.011 622.756,-373.977 646.13,-387.587"/>
<polygon fill="black" stroke="black" points="644.44,-390.652 654.844,-392.651 647.957,-384.6 644.44,-390.652"/>
<text text-anchor="middle" x="552.546" y="-314.461" font-family="Times New Roman,serif" font-size="8.00">use</text>
</g>
<!-- http://example.org/access134&#45;&gt;http://example.org/result_a0 -->
<g id="edge19" class="edge"><title>http://example.org/access134&#45;&gt;http://example.org/result_a0</title>
<path fill="none" stroke="black" d="M480.972,-323.07C448.754,-340.514 398.875,-367.521 365.715,-385.475"/>
<polygon fill="black" stroke="black" points="363.961,-382.444 356.834,-390.283 367.294,-388.6 363.961,-382.444"/>
<text text-anchor="middle" x="480.562" y="-336.165" font-family="Times New Roman,serif" font-size="8.00">use</text>
</g>
<!-- http://example.org/disti_aj#14 -->
<g id="node16" class="node"><title>http://example.org/disti_aj#14</title>
<ellipse fill="none" stroke="black" cx="511.5" cy="-405" rx="118.079" ry="18"/>
<text text-anchor="middle" x="511.5" y="-401.3" font-family="Times New Roman,serif" font-size="14.00">http://example.org/disti_aj#14</text>
</g>
<!-- http://example.org/access134&#45;&gt;http://example.org/disti_aj#14 -->
<g id="edge14" class="edge"><title>http://example.org/access134&#45;&gt;http://example.org/disti_aj#14</title>
<path fill="none" stroke="black" d="M512.326,-323.07C512.175,-337.875 511.953,-359.568 511.778,-376.769"/>
<polygon fill="black" stroke="black" points="508.278,-376.761 511.676,-386.797 515.277,-376.833 508.278,-376.761"/>
<text text-anchor="middle" x="525.239" y="-328.802" font-family="Times New Roman,serif" font-size="8.00">use</text>
</g>
<!-- &#45;attrs5 -->
<g id="node15" class="node"><title>&#45;attrs5</title>
<polygon fill="none" stroke="gray" points="571.5,-208 497.5,-208 497.5,-172 577.5,-172 577.5,-202 571.5,-208"/>
<polyline fill="none" stroke="gray" points="571.5,-208 571.5,-202 "/>
<polyline fill="none" stroke="gray" points="577.5,-202 571.5,-202 "/>
<text text-anchor="start" x="507.5" y="-187" font-family="Times New Roman,serif" font-size="10.00">type:</text>
<text text-anchor="start" x="530.5" y="-187" font-family="Times New Roman,serif" font-size="10.00">&quot;access&quot;</text>
</g>
<!-- &#45;attrs5&#45;&gt;http://example.org/access134 -->
<g id="edge13" class="edge"><title>&#45;attrs5&#45;&gt;http://example.org/access134</title>
<path fill="none" stroke="gray" stroke-dasharray="5,2" d="M533.877,-208.12C531.085,-221.235 527.107,-239.773 523.5,-256 521.237,-266.182 518.633,-277.56 516.526,-286.683"/>
</g>
<!-- bn1&#45;&gt;http://example.org/result_a0 -->
<g id="edge16" class="edge"><title>bn1&#45;&gt;http://example.org/result_a0</title>
<path fill="none" stroke="darkgreen" d="M373.167,-307.162C371.996,-311.202 367.907,-324.991 363.5,-336 357.82,-350.189 350.638,-365.631 344.517,-378.208"/>
<polygon fill="darkgreen" stroke="darkgreen" points="341.368,-376.682 340.087,-387.199 347.647,-379.776 341.368,-376.682"/>
<text text-anchor="middle" x="362.5" y="-357.8" font-family="Times New Roman,serif" font-size="14.00">[2]</text>
</g>
<!-- bn1&#45;&gt;http://example.org/disti_aj#14 -->
<g id="edge17" class="edge"><title>bn1&#45;&gt;http://example.org/disti_aj#14</title>
<path fill="none" stroke="darkgreen" d="M374.381,-306.626C382.299,-312.248 441.776,-354.486 479.752,-381.454"/>
<polygon fill="darkgreen" stroke="darkgreen" points="477.788,-384.352 487.968,-387.289 481.841,-378.645 477.788,-384.352"/>
</g>
<!-- http://example.org/print1 -->
<g id="node18" class="node"><title>http://example.org/print1</title>
<g id="a_node18"><a xlink:href="http://example.org/print1" xlink:title="print1">
<polygon fill="#9fb1fc" stroke="#0000ff" points="550.5,-122 496.5,-122 496.5,-86 550.5,-86 550.5,-122"/>
<text text-anchor="middle" x="523.5" y="-100.3" font-family="Times New Roman,serif" font-size="14.00">print1</text>
</a>
</g>
</g>
<!-- http://example.org/print1&#45;&gt;http://example.org/result_a02 -->
<g id="edge22" class="edge"><title>http://example.org/print1&#45;&gt;http://example.org/result_a02</title>
<path fill="none" stroke="black" d="M504.291,-122.305C499.023,-126.685 493.191,-131.216 487.5,-135 466.879,-148.712 442.356,-161.593 422.302,-171.333"/>
<polygon fill="black" stroke="black" points="420.654,-168.241 413.145,-175.715 423.676,-174.556 420.654,-168.241"/>
<text text-anchor="middle" x="506.775" y="-135.198" font-family="Times New Roman,serif" font-size="8.00">use</text>
</g>
<!-- &#45;attrs6 -->
<g id="node19" class="node"><title>&#45;attrs6</title>
<polygon fill="none" stroke="gray" points="553,-36 488,-36 488,-0 559,-0 559,-30 553,-36"/>
<polyline fill="none" stroke="gray" points="553,-36 553,-30 "/>
<polyline fill="none" stroke="gray" points="559,-30 553,-30 "/>
<text text-anchor="start" x="498.5" y="-15" font-family="Times New Roman,serif" font-size="10.00">type:</text>
<text text-anchor="start" x="521.5" y="-15" font-family="Times New Roman,serif" font-size="10.00">&quot;print&quot;</text>
</g>
<!-- &#45;attrs6&#45;&gt;http://example.org/print1 -->
<g id="edge21" class="edge"><title>&#45;attrs6&#45;&gt;http://example.org/print1</title>
<path fill="none" stroke="gray" stroke-dasharray="5,2" d="M523.5,-36.4049C523.5,-50.9174 523.5,-71.4792 523.5,-85.9048"/>
</g>
</g>
</svg>
