<?xml version="1.0" encoding="UTF-8" standalone="no"?>
<!DOCTYPE svg PUBLIC "-//W3C//DTD SVG 1.1//EN"
 "http://www.w3.org/Graphics/SVG/1.1/DTD/svg11.dtd">
<!-- Generated by graphviz version 2.38.0 (20140413.2041)
 -->
<!-- Title: PROV Pages: 1 -->
<svg width="876pt" height="362pt"
 viewBox="0.00 0.00 875.93 362.00" xmlns="http://www.w3.org/2000/svg" xmlns:xlink="http://www.w3.org/1999/xlink">
<g id="graph0" class="graph" transform="scale(1 1) rotate(0) translate(4 358)">
<title>PROV</title>
<polygon fill="white" stroke="none" points="-4,4 -4,-358 871.933,-358 871.933,4 -4,4"/>
<!-- http://example.org/disti_aj#9 -->
<g id="node1" class="node"><title>http://example.org/disti_aj#9</title>
<g id="a_node1"><a xlink:href="http://example.org/disti_aj#9" xlink:title="disti_aj#9">
<ellipse fill="#fffc87" stroke="#808080" cx="590.242" cy="-161" rx="46.2923" ry="18"/>
<text text-anchor="middle" x="590.242" y="-157.3" font-family="Times New Roman,serif" font-size="14.00">disti_aj#9</text>
</a>
</g>
</g>
<!-- http://example.org/assign23 -->
<g id="node4" class="node"><title>http://example.org/assign23</title>
<g id="a_node4"><a xlink:href="http://example.org/assign23" xlink:title="assign23">
<polygon fill="#9fb1fc" stroke="#0000ff" points="546.742,-281 481.742,-281 481.742,-245 546.742,-245 546.742,-281"/>
<text text-anchor="middle" x="514.242" y="-259.3" font-family="Times New Roman,serif" font-size="14.00">assign23</text>
</a>
</g>
</g>
<!-- http://example.org/disti_aj#9&#45;&gt;http://example.org/assign23 -->
<g id="edge8" class="edge"><title>http://example.org/disti_aj#9&#45;&gt;http://example.org/assign23</title>
<path fill="none" stroke="black" d="M577.692,-178.513C565.735,-194.245 547.558,-218.163 533.719,-236.372"/>
<polygon fill="black" stroke="black" points="530.584,-234.712 527.32,-244.792 536.157,-238.948 530.584,-234.712"/>
<text text-anchor="middle" x="583.496" y="-190.444" font-family="Times New Roman,serif" font-size="8.00">gen</text>
</g>
<!-- bn0 -->
<g id="node7" class="node"><title>bn0</title>
<ellipse fill="black" stroke="black" cx="590.242" cy="-263" rx="1.8" ry="1.8"/>
</g>
<!-- http://example.org/disti_aj#9&#45;&gt;bn0 -->
<g id="edge5" class="edge"><title>http://example.org/disti_aj#9&#45;&gt;bn0</title>
<path fill="none" stroke="black" d="M590.242,-179.419C590.242,-205.831 590.242,-253.728 590.242,-261.05"/>
<text text-anchor="middle" x="671.742" y="-215.8" font-family="Times New Roman,serif" font-size="14.00">der ac&#45;w</text>
<text text-anchor="middle" x="671.742" y="-200.8" font-family="Times New Roman,serif" font-size="14.00">2018&#45;03&#45;07T01:11:27.761117</text>
</g>
<!-- &#45;attrs0 -->
<g id="node2" class="node"><title>&#45;attrs0</title>
<polygon fill="none" stroke="gray" points="579.242,-62 381.242,-62 381.242,-0 585.242,-0 585.242,-56 579.242,-62"/>
<polyline fill="none" stroke="gray" points="579.242,-62 579.242,-56 "/>
<polyline fill="none" stroke="gray" points="585.242,-56 579.242,-56 "/>
<text text-anchor="start" x="391.242" y="-48" font-family="Times New Roman,serif" font-size="10.00">value:</text>
<text text-anchor="start" x="466.242" y="-48" font-family="Times New Roman,serif" font-size="10.00">4</text>
<text text-anchor="start" x="391.242" y="-35" font-family="Times New Roman,serif" font-size="10.00">type:</text>
<text text-anchor="start" x="466.242" y="-35" font-family="Times New Roman,serif" font-size="10.00">access</text>
<text text-anchor="start" x="391.242" y="-22" font-family="Times New Roman,serif" font-size="10.00">label:</text>
<text text-anchor="start" x="466.242" y="-22" font-family="Times New Roman,serif" font-size="10.00">disti[j]</text>
<text text-anchor="start" x="391.242" y="-9" font-family="Times New Roman,serif" font-size="10.00">generatedAtTime:</text>
<text text-anchor="start" x="466.242" y="-9" font-family="Times New Roman,serif" font-size="10.00">2018&#45;03&#45;07T01:11:27.761117</text>
</g>
<!-- &#45;attrs0&#45;&gt;http://example.org/disti_aj#9 -->
<g id="edge1" class="edge"><title>&#45;attrs0&#45;&gt;http://example.org/disti_aj#9</title>
<path fill="none" stroke="gray" stroke-dasharray="5,2" d="M508.328,-62.0103C529.577,-87.4293 559.25,-122.926 576.435,-143.483"/>
</g>
<!-- http://example.org/list1 -->
<g id="node3" class="node"><title>http://example.org/list1</title>
<ellipse fill="none" stroke="black" cx="696.242" cy="-31" rx="92.8835" ry="18"/>
<text text-anchor="middle" x="696.242" y="-27.3" font-family="Times New Roman,serif" font-size="14.00">http://example.org/list1</text>
</g>
<!-- http://example.org/list1&#45;&gt;http://example.org/disti_aj#9 -->
<g id="edge2" class="edge"><title>http://example.org/list1&#45;&gt;http://example.org/disti_aj#9</title>
<path fill="none" stroke="black" d="M682.166,-48.9974C663.748,-71.2371 631.355,-110.353 610.354,-135.713"/>
<polygon fill="black" stroke="black" points="607.388,-133.808 603.705,-143.742 612.779,-138.272 607.388,-133.808"/>
<text text-anchor="middle" x="737.742" y="-113.8" font-family="Times New Roman,serif" font-size="14.00">der&#45;ins</text>
<text text-anchor="middle" x="737.742" y="-98.8" font-family="Times New Roman,serif" font-size="14.00">[0]</text>
<text text-anchor="middle" x="737.742" y="-83.8" font-family="Times New Roman,serif" font-size="14.00">2018&#45;03&#45;07T01:11:27.761117</text>
</g>
<!-- http://example.org/ikj#6 -->
<g id="node6" class="node"><title>http://example.org/ikj#6</title>
<ellipse fill="none" stroke="black" cx="548.242" cy="-336" rx="96.3833" ry="18"/>
<text text-anchor="middle" x="548.242" y="-332.3" font-family="Times New Roman,serif" font-size="14.00">http://example.org/ikj#6</text>
</g>
<!-- http://example.org/assign23&#45;&gt;http://example.org/ikj#6 -->
<g id="edge4" class="edge"><title>http://example.org/assign23&#45;&gt;http://example.org/ikj#6</title>
<path fill="none" stroke="black" d="M522.472,-281.187C526.44,-289.472 531.285,-299.59 535.698,-308.807"/>
<polygon fill="black" stroke="black" points="532.611,-310.464 540.087,-317.971 538.925,-307.44 532.611,-310.464"/>
<text text-anchor="middle" x="537.428" y="-280.441" font-family="Times New Roman,serif" font-size="8.00">use</text>
</g>
<!-- http://example.org/disti#6 -->
<g id="node8" class="node"><title>http://example.org/disti#6</title>
<ellipse fill="none" stroke="black" cx="765.242" cy="-336" rx="102.882" ry="18"/>
<text text-anchor="middle" x="765.242" y="-332.3" font-family="Times New Roman,serif" font-size="14.00">http://example.org/disti#6</text>
</g>
<!-- http://example.org/assign23&#45;&gt;http://example.org/disti#6 -->
<g id="edge9" class="edge"><title>http://example.org/assign23&#45;&gt;http://example.org/disti#6</title>
<path fill="none" stroke="black" d="M546.798,-273.209C586.467,-284.43 654.323,-303.625 703.903,-317.649"/>
<polygon fill="black" stroke="black" points="702.987,-321.027 713.562,-320.381 704.892,-314.292 702.987,-321.027"/>
<text text-anchor="middle" x="557.551" y="-260.851" font-family="Times New Roman,serif" font-size="8.00">use</text>
</g>
<!-- http://example.org/j#16 -->
<g id="node9" class="node"><title>http://example.org/j#16</title>
<ellipse fill="none" stroke="black" cx="94.2416" cy="-336" rx="94.4839" ry="18"/>
<text text-anchor="middle" x="94.2416" y="-332.3" font-family="Times New Roman,serif" font-size="14.00">http://example.org/j#16</text>
</g>
<!-- http://example.org/assign23&#45;&gt;http://example.org/j#16 -->
<g id="edge10" class="edge"><title>http://example.org/assign23&#45;&gt;http://example.org/j#16</title>
<path fill="none" stroke="black" d="M481.634,-269.512C415.712,-280.656 264.982,-306.137 172.174,-321.826"/>
<polygon fill="black" stroke="black" points="171.543,-318.383 162.267,-323.501 172.71,-325.285 171.543,-318.383"/>
<text text-anchor="middle" x="476.405" y="-281.671" font-family="Times New Roman,serif" font-size="8.00">use</text>
</g>
<!-- http://example.org/disti_aj#8 -->
<g id="node10" class="node"><title>http://example.org/disti_aj#8</title>
<ellipse fill="none" stroke="black" cx="320.242" cy="-336" rx="113.98" ry="18"/>
<text text-anchor="middle" x="320.242" y="-332.3" font-family="Times New Roman,serif" font-size="14.00">http://example.org/disti_aj#8</text>
</g>
<!-- http://example.org/assign23&#45;&gt;http://example.org/disti_aj#8 -->
<g id="edge11" class="edge"><title>http://example.org/assign23&#45;&gt;http://example.org/disti_aj#8</title>
<path fill="none" stroke="black" d="M481.332,-276.044C451.589,-286.929 407.295,-303.14 372.677,-315.81"/>
<polygon fill="black" stroke="black" points="371.377,-312.558 363.189,-319.282 373.783,-319.132 371.377,-312.558"/>
<text text-anchor="middle" x="478.754" y="-288.921" font-family="Times New Roman,serif" font-size="8.00">use</text>
</g>
<!-- &#45;attrs1 -->
<g id="node5" class="node"><title>&#45;attrs1</title>
<polygon fill="none" stroke="gray" points="520.242,-179 456.242,-179 456.242,-143 526.242,-143 526.242,-173 520.242,-179"/>
<polyline fill="none" stroke="gray" points="520.242,-179 520.242,-173 "/>
<polyline fill="none" stroke="gray" points="526.242,-173 520.242,-173 "/>
<text text-anchor="start" x="466.242" y="-158" font-family="Times New Roman,serif" font-size="10.00">type:</text>
<text text-anchor="start" x="489.242" y="-158" font-family="Times New Roman,serif" font-size="10.00">assign</text>
</g>
<!-- &#45;attrs1&#45;&gt;http://example.org/assign23 -->
<g id="edge3" class="edge"><title>&#45;attrs1&#45;&gt;http://example.org/assign23</title>
<path fill="none" stroke="gray" stroke-dasharray="5,2" d="M495.248,-179.419C499.469,-197.773 506.077,-226.502 510.281,-244.781"/>
</g>
<!-- bn0&#45;&gt;http://example.org/ikj#6 -->
<g id="edge7" class="edge"><title>bn0&#45;&gt;http://example.org/ikj#6</title>
<path fill="none" stroke="black" d="M589.77,-264.797C587.176,-269.182 574.374,-290.823 563.662,-308.933"/>
<polygon fill="black" stroke="black" points="560.394,-307.582 558.315,-317.971 566.419,-311.146 560.394,-307.582"/>
</g>
<!-- bn0&#45;&gt;http://example.org/disti#6 -->
<g id="edge6" class="edge"><title>bn0&#45;&gt;http://example.org/disti#6</title>
<path fill="none" stroke="black" d="M591.359,-264.453C600.856,-268.306 668.852,-295.893 716.939,-315.403"/>
<polygon fill="black" stroke="black" points="715.685,-318.671 726.268,-319.188 718.317,-312.185 715.685,-318.671"/>
<text text-anchor="middle" x="603.193" y="-253.336" font-family="Times New Roman,serif" font-size="8.00">[0]</text>
</g>
</g>
</svg>
