<?xml version="1.0" encoding="UTF-8" standalone="no"?>
<!DOCTYPE svg PUBLIC "-//W3C//DTD SVG 1.1//EN"
 "http://www.w3.org/Graphics/SVG/1.1/DTD/svg11.dtd">
<!-- Generated by graphviz version 2.38.0 (20140413.2041)
 -->
<!-- Title: PROV Pages: 1 -->
<svg width="478pt" height="461pt"
 viewBox="0.00 0.00 478.00 461.00" xmlns="http://www.w3.org/2000/svg" xmlns:xlink="http://www.w3.org/1999/xlink">
<g id="graph0" class="graph" transform="scale(1 1) rotate(0) translate(4 457)">
<title>PROV</title>
<polygon fill="white" stroke="none" points="-4,4 -4,-457 474,-457 474,4 -4,4"/>
<!-- http://example.org/len_dist -->
<g id="node1" class="node"><title>http://example.org/len_dist</title>
<g id="a_node1"><a xlink:href="http://example.org/len_dist" xlink:title="len_dist">
<ellipse fill="#f0f0f0" stroke="gray" cx="251" cy="-289" rx="38.9931" ry="18"/>
<text text-anchor="middle" x="251" y="-285.3" font-family="Times New Roman,serif" font-size="14.00" fill="gray">len_dist</text>
</a>
</g>
</g>
<!-- http://example.org/call1 -->
<g id="node3" class="node"><title>http://example.org/call1</title>
<g id="a_node3"><a xlink:href="http://example.org/call1" xlink:title="call1">
<polygon fill="#f0f0f0" stroke="gray" points="219,-380 165,-380 165,-344 219,-344 219,-380"/>
<text text-anchor="middle" x="192" y="-358.3" font-family="Times New Roman,serif" font-size="14.00" fill="gray">call1</text>
</a>
</g>
</g>
<!-- http://example.org/len_dist&#45;&gt;http://example.org/call1 -->
<g id="edge4" class="edge"><title>http://example.org/len_dist&#45;&gt;http://example.org/call1</title>
<path fill="none" stroke="gray" d="M237.612,-306.111C230.281,-314.933 221.035,-326.06 212.787,-335.985"/>
<polygon fill="gray" stroke="gray" points="209.857,-334.035 206.158,-343.963 215.241,-338.509 209.857,-334.035"/>
<text text-anchor="middle" x="242.81" y="-318.282" font-family="Times New Roman,serif" font-size="8.00" fill="gray">gen</text>
</g>
<!-- &#45;attrs0 -->
<g id="node2" class="node"><title>&#45;attrs0</title>
<polygon fill="none" stroke="#f0f0f0" points="198,-234 0,-234 0,-172 204,-172 204,-228 198,-234"/>
<polyline fill="none" stroke="#f0f0f0" points="198,-234 198,-228 "/>
<polyline fill="none" stroke="#f0f0f0" points="204,-228 198,-228 "/>
<text text-anchor="start" x="10" y="-220" font-family="Times New Roman,serif" font-size="10.00" fill="#f0f0f0">value:</text>
<text text-anchor="start" x="85" y="-220" font-family="Times New Roman,serif" font-size="10.00" fill="#f0f0f0">3</text>
<text text-anchor="start" x="10" y="-207" font-family="Times New Roman,serif" font-size="10.00" fill="#f0f0f0">type:</text>
<text text-anchor="start" x="85" y="-207" font-family="Times New Roman,serif" font-size="10.00" fill="#f0f0f0">eval</text>
<text text-anchor="start" x="10" y="-194" font-family="Times New Roman,serif" font-size="10.00" fill="#f0f0f0">label:</text>
<text text-anchor="start" x="85" y="-194" font-family="Times New Roman,serif" font-size="10.00" fill="#f0f0f0">len(dist)</text>
<text text-anchor="start" x="10" y="-181" font-family="Times New Roman,serif" font-size="10.00" fill="#f0f0f0">generatedAtTime:</text>
<text text-anchor="start" x="85" y="-181" font-family="Times New Roman,serif" font-size="10.00" fill="#f0f0f0">2018&#45;03&#45;07T01:11:19.027390</text>
</g>
<!-- &#45;attrs0&#45;&gt;http://example.org/len_dist -->
<g id="edge1" class="edge"><title>&#45;attrs0&#45;&gt;http://example.org/len_dist</title>
<path fill="none" stroke="#f0f0f0" stroke-dasharray="5,2" d="M155.372,-234.089C179.922,-247.929 207.809,-263.651 227.106,-274.529"/>
</g>
<!-- http://example.org/dist -->
<g id="node5" class="node"><title>http://example.org/dist</title>
<ellipse fill="none" stroke="black" cx="192" cy="-435" rx="91.784" ry="18"/>
<text text-anchor="middle" x="192" y="-431.3" font-family="Times New Roman,serif" font-size="14.00">http://example.org/dist</text>
</g>
<!-- http://example.org/call1&#45;&gt;http://example.org/dist -->
<g id="edge3" class="edge"><title>http://example.org/call1&#45;&gt;http://example.org/dist</title>
<path fill="none" stroke="gray" d="M192,-380.187C192,-388.211 192,-397.953 192,-406.931"/>
<polygon fill="gray" stroke="gray" points="188.5,-406.971 192,-416.971 195.5,-406.971 188.5,-406.971"/>
<text text-anchor="middle" x="204.99" y="-385.787" font-family="Times New Roman,serif" font-size="8.00" fill="gray">use</text>
</g>
<!-- &#45;attrs1 -->
<g id="node4" class="node"><title>&#45;attrs1</title>
<polygon fill="none" stroke="#f0f0f0" points="188,-307 136,-307 136,-271 194,-271 194,-301 188,-307"/>
<polyline fill="none" stroke="#f0f0f0" points="188,-307 188,-301 "/>
<polyline fill="none" stroke="#f0f0f0" points="194,-301 188,-301 "/>
<text text-anchor="start" x="146" y="-293" font-family="Times New Roman,serif" font-size="10.00" fill="#f0f0f0">type:</text>
<text text-anchor="start" x="170" y="-293" font-family="Times New Roman,serif" font-size="10.00" fill="#f0f0f0">call</text>
<text text-anchor="start" x="146" y="-280" font-family="Times New Roman,serif" font-size="10.00" fill="#f0f0f0">label:</text>
<text text-anchor="start" x="170" y="-280" font-family="Times New Roman,serif" font-size="10.00" fill="#f0f0f0">len</text>
</g>
<!-- &#45;attrs1&#45;&gt;http://example.org/call1 -->
<g id="edge2" class="edge"><title>&#45;attrs1&#45;&gt;http://example.org/call1</title>
<path fill="none" stroke="#f0f0f0" stroke-dasharray="5,2" d="M171.536,-307.187C175.781,-318.35 181.291,-332.84 185.524,-343.971"/>
</g>
<!-- http://example.org/nodes -->
<g id="node6" class="node"><title>http://example.org/nodes</title>
<g id="a_node6"><a xlink:href="http://example.org/nodes" xlink:title="nodes">
<ellipse fill="#f0f0f0" stroke="gray" cx="316" cy="-117" rx="32.4942" ry="18"/>
<text text-anchor="middle" x="316" y="-113.3" font-family="Times New Roman,serif" font-size="14.00" fill="gray">nodes</text>
</a>
</g>
</g>
<!-- http://example.org/nodes&#45;&gt;http://example.org/len_dist -->
<g id="edge8" class="edge"><title>http://example.org/nodes&#45;&gt;http://example.org/len_dist</title>
<path fill="none" stroke="gray" d="M314.094,-135.173C311.056,-158.413 303.871,-200.785 289,-234 284.314,-244.466 277.488,-254.998 270.91,-263.946"/>
<polygon fill="gray" stroke="gray" points="268.055,-261.918 264.758,-271.986 273.614,-266.172 268.055,-261.918"/>
<text text-anchor="middle" x="388.5" y="-206.8" font-family="Times New Roman,serif" font-size="14.00" fill="gray">der ref</text>
<text text-anchor="middle" x="388.5" y="-191.8" font-family="Times New Roman,serif" font-size="14.00" fill="gray">2018&#45;03&#45;07T01:11:19.027390</text>
</g>
<!-- http://example.org/assign4 -->
<g id="node8" class="node"><title>http://example.org/assign4</title>
<g id="a_node8"><a xlink:href="http://example.org/assign4" xlink:title="assign4">
<polygon fill="#f0f0f0" stroke="gray" points="280,-221 222,-221 222,-185 280,-185 280,-221"/>
<text text-anchor="middle" x="251" y="-199.3" font-family="Times New Roman,serif" font-size="14.00" fill="gray">assign4</text>
</a>
</g>
</g>
<!-- http://example.org/nodes&#45;&gt;http://example.org/assign4 -->
<g id="edge9" class="edge"><title>http://example.org/nodes&#45;&gt;http://example.org/assign4</title>
<path fill="none" stroke="gray" d="M303.774,-133.8C294.455,-145.843 281.433,-162.671 270.656,-176.598"/>
<polygon fill="gray" stroke="gray" points="267.642,-174.775 264.29,-184.826 273.178,-179.059 267.642,-174.775"/>
<text text-anchor="middle" x="309.458" y="-145.781" font-family="Times New Roman,serif" font-size="8.00" fill="gray">gen</text>
</g>
<!-- &#45;attrs2 -->
<g id="node7" class="node"><title>&#45;attrs2</title>
<polygon fill="none" stroke="#f0f0f0" points="412,-62 214,-62 214,-0 418,-0 418,-56 412,-62"/>
<polyline fill="none" stroke="#f0f0f0" points="412,-62 412,-56 "/>
<polyline fill="none" stroke="#f0f0f0" points="418,-56 412,-56 "/>
<text text-anchor="start" x="224" y="-48" font-family="Times New Roman,serif" font-size="10.00" fill="#f0f0f0">value:</text>
<text text-anchor="start" x="299" y="-48" font-family="Times New Roman,serif" font-size="10.00" fill="#f0f0f0">3</text>
<text text-anchor="start" x="224" y="-35" font-family="Times New Roman,serif" font-size="10.00" fill="#f0f0f0">type:</text>
<text text-anchor="start" x="299" y="-35" font-family="Times New Roman,serif" font-size="10.00" fill="#f0f0f0">name</text>
<text text-anchor="start" x="224" y="-22" font-family="Times New Roman,serif" font-size="10.00" fill="#f0f0f0">label:</text>
<text text-anchor="start" x="299" y="-22" font-family="Times New Roman,serif" font-size="10.00" fill="#f0f0f0">nodes</text>
<text text-anchor="start" x="224" y="-9" font-family="Times New Roman,serif" font-size="10.00" fill="#f0f0f0">generatedAtTime:</text>
<text text-anchor="start" x="299" y="-9" font-family="Times New Roman,serif" font-size="10.00" fill="#f0f0f0">2018&#45;03&#45;07T01:11:19.027390</text>
</g>
<!-- &#45;attrs2&#45;&gt;http://example.org/nodes -->
<g id="edge5" class="edge"><title>&#45;attrs2&#45;&gt;http://example.org/nodes</title>
<path fill="none" stroke="#f0f0f0" stroke-dasharray="5,2" d="M316,-62.3259C316,-74.5443 316,-88.1945 316,-98.6716"/>
</g>
<!-- http://example.org/assign4&#45;&gt;http://example.org/len_dist -->
<g id="edge7" class="edge"><title>http://example.org/assign4&#45;&gt;http://example.org/len_dist</title>
<path fill="none" stroke="gray" d="M251,-221.405C251,-232.743 251,-247.773 251,-260.685"/>
<polygon fill="gray" stroke="gray" points="247.5,-260.905 251,-270.905 254.5,-260.905 247.5,-260.905"/>
<text text-anchor="middle" x="263.99" y="-227.005" font-family="Times New Roman,serif" font-size="8.00" fill="gray">use</text>
</g>
<!-- &#45;attrs3 -->
<g id="node9" class="node"><title>&#45;attrs3</title>
<polygon fill="none" stroke="#f0f0f0" points="260,-135 196,-135 196,-99 266,-99 266,-129 260,-135"/>
<polyline fill="none" stroke="#f0f0f0" points="260,-135 260,-129 "/>
<polyline fill="none" stroke="#f0f0f0" points="266,-129 260,-129 "/>
<text text-anchor="start" x="206" y="-114" font-family="Times New Roman,serif" font-size="10.00" fill="#f0f0f0">type:</text>
<text text-anchor="start" x="229" y="-114" font-family="Times New Roman,serif" font-size="10.00" fill="#f0f0f0">assign</text>
</g>
<!-- &#45;attrs3&#45;&gt;http://example.org/assign4 -->
<g id="edge6" class="edge"><title>&#45;attrs3&#45;&gt;http://example.org/assign4</title>
<path fill="none" stroke="#f0f0f0" stroke-dasharray="5,2" d="M235.144,-135.405C238.599,-149.917 243.495,-170.479 246.93,-184.905"/>
</g>
</g>
</svg>
