<?xml version="1.0" encoding="UTF-8" standalone="no"?>
<!DOCTYPE svg PUBLIC "-//W3C//DTD SVG 1.1//EN"
 "http://www.w3.org/Graphics/SVG/1.1/DTD/svg11.dtd">
<!-- Generated by graphviz version 2.38.0 (20140413.2041)
 -->
<!-- Title: PROV Pages: 1 -->
<svg width="965pt" height="518pt"
 viewBox="0.00 0.00 965.24 518.00" xmlns="http://www.w3.org/2000/svg" xmlns:xlink="http://www.w3.org/1999/xlink">
<g id="graph0" class="graph" transform="scale(1 1) rotate(0) translate(4 514)">
<title>PROV</title>
<polygon fill="white" stroke="none" points="-4,4 -4,-514 961.241,-514 961.241,4 -4,4"/>
<!-- http://example.org/range_nodes -->
<g id="node1" class="node"><title>http://example.org/range_nodes</title>
<g id="a_node1"><a xlink:href="http://example.org/range_nodes" xlink:title="range_nodes">
<ellipse fill="#fffc87" stroke="#808080" cx="535.5" cy="-295.5" rx="57.3905" ry="18"/>
<text text-anchor="middle" x="535.5" y="-291.8" font-family="Times New Roman,serif" font-size="14.00">range_nodes</text>
</a>
</g>
</g>
<!-- http://example.org/range_nodes0 -->
<g id="node3" class="node"><title>http://example.org/range_nodes0</title>
<g id="a_node3"><a xlink:href="http://example.org/range_nodes0" xlink:title="range_nodes0">
<ellipse fill="#fffc87" stroke="#808080" cx="353.5" cy="-419" rx="61.99" ry="18"/>
<text text-anchor="middle" x="353.5" y="-415.3" font-family="Times New Roman,serif" font-size="14.00">range_nodes0</text>
</a>
</g>
</g>
<!-- http://example.org/range_nodes&#45;&gt;http://example.org/range_nodes0 -->
<g id="edge3" class="edge"><title>http://example.org/range_nodes&#45;&gt;http://example.org/range_nodes0</title>
<path fill="none" stroke="darkgreen" d="M495.108,-308.482C481.608,-312.341 466.449,-316.516 452.5,-320 415.878,-329.146 395.974,-311.094 369.5,-338 356.008,-351.712 352.328,-373.391 351.847,-390.724"/>
<polygon fill="darkgreen" stroke="darkgreen" points="348.348,-390.864 351.902,-400.845 355.348,-390.827 348.348,-390.864"/>
<text text-anchor="middle" x="451" y="-371.8" font-family="Times New Roman,serif" font-size="14.00">der&#45;ins</text>
<text text-anchor="middle" x="451" y="-356.8" font-family="Times New Roman,serif" font-size="14.00">[0]</text>
<text text-anchor="middle" x="451" y="-341.8" font-family="Times New Roman,serif" font-size="14.00">2018&#45;03&#45;05T16:04:18.782622</text>
</g>
<!-- http://example.org/range_nodes1 -->
<g id="node5" class="node"><title>http://example.org/range_nodes1</title>
<g id="a_node5"><a xlink:href="http://example.org/range_nodes1" xlink:title="range_nodes1">
<ellipse fill="#fffc87" stroke="#808080" cx="128.5" cy="-419" rx="61.99" ry="18"/>
<text text-anchor="middle" x="128.5" y="-415.3" font-family="Times New Roman,serif" font-size="14.00">range_nodes1</text>
</a>
</g>
</g>
<!-- http://example.org/range_nodes&#45;&gt;http://example.org/range_nodes1 -->
<g id="edge5" class="edge"><title>http://example.org/range_nodes&#45;&gt;http://example.org/range_nodes1</title>
<path fill="none" stroke="darkgreen" d="M497.455,-309.072C483.467,-313.214 467.404,-317.417 452.5,-320 393.906,-330.155 237.414,-308.994 185.5,-338 164.202,-349.9 148.907,-373.484 139.557,-391.976"/>
<polygon fill="darkgreen" stroke="darkgreen" points="136.354,-390.561 135.209,-401.093 142.673,-393.574 136.354,-390.561"/>
<text text-anchor="middle" x="267" y="-371.8" font-family="Times New Roman,serif" font-size="14.00">der&#45;ins</text>
<text text-anchor="middle" x="267" y="-356.8" font-family="Times New Roman,serif" font-size="14.00">[1]</text>
<text text-anchor="middle" x="267" y="-341.8" font-family="Times New Roman,serif" font-size="14.00">2018&#45;03&#45;05T16:04:18.782622</text>
</g>
<!-- http://example.org/range_nodes2 -->
<g id="node7" class="node"><title>http://example.org/range_nodes2</title>
<g id="a_node7"><a xlink:href="http://example.org/range_nodes2" xlink:title="range_nodes2">
<ellipse fill="#fffc87" stroke="#808080" cx="645.5" cy="-419" rx="61.99" ry="18"/>
<text text-anchor="middle" x="645.5" y="-415.3" font-family="Times New Roman,serif" font-size="14.00">range_nodes2</text>
</a>
</g>
</g>
<!-- http://example.org/range_nodes&#45;&gt;http://example.org/range_nodes2 -->
<g id="edge7" class="edge"><title>http://example.org/range_nodes&#45;&gt;http://example.org/range_nodes2</title>
<path fill="none" stroke="darkgreen" d="M534.486,-313.528C534.281,-332.638 536.876,-363.511 553.5,-383 561.813,-392.746 573.146,-399.786 585.018,-404.868"/>
<polygon fill="darkgreen" stroke="darkgreen" points="584.016,-408.232 594.606,-408.538 586.518,-401.695 584.016,-408.232"/>
<text text-anchor="middle" x="635" y="-371.8" font-family="Times New Roman,serif" font-size="14.00">der&#45;ins</text>
<text text-anchor="middle" x="635" y="-356.8" font-family="Times New Roman,serif" font-size="14.00">[2]</text>
<text text-anchor="middle" x="635" y="-341.8" font-family="Times New Roman,serif" font-size="14.00">2018&#45;03&#45;05T16:04:18.782622</text>
</g>
<!-- http://example.org/call2 -->
<g id="node9" class="node"><title>http://example.org/call2</title>
<g id="a_node9"><a xlink:href="http://example.org/call2" xlink:title="call2">
<polygon fill="#9fb1fc" stroke="#0000ff" points="883.5,-437 829.5,-437 829.5,-401 883.5,-401 883.5,-437"/>
<text text-anchor="middle" x="856.5" y="-415.3" font-family="Times New Roman,serif" font-size="14.00">call2</text>
</a>
</g>
</g>
<!-- http://example.org/range_nodes&#45;&gt;http://example.org/call2 -->
<g id="edge10" class="edge"><title>http://example.org/range_nodes&#45;&gt;http://example.org/call2</title>
<path fill="none" stroke="black" d="M574.975,-308.559C588.678,-312.509 604.194,-316.721 618.5,-320 663.37,-330.284 677.308,-322.077 720.5,-338 758.602,-352.046 798.18,-376.651 824.749,-394.876"/>
<polygon fill="black" stroke="black" points="823.033,-397.946 833.239,-400.787 827.032,-392.201 823.033,-397.946"/>
<text text-anchor="middle" x="585.761" y="-296.235" font-family="Times New Roman,serif" font-size="8.00">gen</text>
</g>
<!-- &#45;attrs0 -->
<g id="node2" class="node"><title>&#45;attrs0</title>
<polygon fill="none" stroke="gray" points="482,-234 275,-234 275,-172 488,-172 488,-228 482,-234"/>
<polyline fill="none" stroke="gray" points="482,-234 482,-228 "/>
<polyline fill="none" stroke="gray" points="488,-228 482,-228 "/>
<text text-anchor="start" x="285.5" y="-220" font-family="Times New Roman,serif" font-size="10.00">value:</text>
<text text-anchor="start" x="360.5" y="-220" font-family="Times New Roman,serif" font-size="10.00">&quot;[0, 1, 2]&quot;</text>
<text text-anchor="start" x="285.5" y="-207" font-family="Times New Roman,serif" font-size="10.00">type:</text>
<text text-anchor="start" x="360.5" y="-207" font-family="Times New Roman,serif" font-size="10.00">&quot;eval&quot;</text>
<text text-anchor="start" x="285.5" y="-194" font-family="Times New Roman,serif" font-size="10.00">label:</text>
<text text-anchor="start" x="360.5" y="-194" font-family="Times New Roman,serif" font-size="10.00">&quot;range(nodes)&quot;</text>
<text text-anchor="start" x="285.5" y="-181" font-family="Times New Roman,serif" font-size="10.00">generatedAtTime:</text>
<text text-anchor="start" x="360.5" y="-181" font-family="Times New Roman,serif" font-size="10.00">&quot;2018&#45;03&#45;05T16:04:18.782622&quot;</text>
</g>
<!-- &#45;attrs0&#45;&gt;http://example.org/range_nodes -->
<g id="edge1" class="edge"><title>&#45;attrs0&#45;&gt;http://example.org/range_nodes</title>
<path fill="none" stroke="gray" stroke-dasharray="5,2" d="M432.78,-234.135C458.504,-249.252 488.555,-266.912 509.482,-279.21"/>
</g>
<!-- &#45;attrs1 -->
<g id="node4" class="node"><title>&#45;attrs1</title>
<polygon fill="none" stroke="gray" points="438,-320 231,-320 231,-271 444,-271 444,-314 438,-320"/>
<polyline fill="none" stroke="gray" points="438,-320 438,-314 "/>
<polyline fill="none" stroke="gray" points="444,-314 438,-314 "/>
<text text-anchor="start" x="241.5" y="-305.5" font-family="Times New Roman,serif" font-size="10.00">value:</text>
<text text-anchor="start" x="316.5" y="-305.5" font-family="Times New Roman,serif" font-size="10.00">&quot;0&quot;</text>
<text text-anchor="start" x="241.5" y="-292.5" font-family="Times New Roman,serif" font-size="10.00">type:</text>
<text text-anchor="start" x="316.5" y="-292.5" font-family="Times New Roman,serif" font-size="10.00">&quot;item&quot;</text>
<text text-anchor="start" x="241.5" y="-279.5" font-family="Times New Roman,serif" font-size="10.00">generatedAtTime:</text>
<text text-anchor="start" x="316.5" y="-279.5" font-family="Times New Roman,serif" font-size="10.00">&quot;2018&#45;03&#45;05T16:04:18.782622&quot;</text>
</g>
<!-- &#45;attrs1&#45;&gt;http://example.org/range_nodes0 -->
<g id="edge2" class="edge"><title>&#45;attrs1&#45;&gt;http://example.org/range_nodes0</title>
<path fill="none" stroke="gray" stroke-dasharray="5,2" d="M340.623,-320.215C343.751,-343.971 348.489,-379.947 351.261,-400.998"/>
</g>
<!-- &#45;attrs2 -->
<g id="node6" class="node"><title>&#45;attrs2</title>
<polygon fill="none" stroke="gray" points="207,-320 0,-320 0,-271 213,-271 213,-314 207,-320"/>
<polyline fill="none" stroke="gray" points="207,-320 207,-314 "/>
<polyline fill="none" stroke="gray" points="213,-314 207,-314 "/>
<text text-anchor="start" x="10.5" y="-305.5" font-family="Times New Roman,serif" font-size="10.00">value:</text>
<text text-anchor="start" x="85.5" y="-305.5" font-family="Times New Roman,serif" font-size="10.00">&quot;1&quot;</text>
<text text-anchor="start" x="10.5" y="-292.5" font-family="Times New Roman,serif" font-size="10.00">type:</text>
<text text-anchor="start" x="85.5" y="-292.5" font-family="Times New Roman,serif" font-size="10.00">&quot;item&quot;</text>
<text text-anchor="start" x="10.5" y="-279.5" font-family="Times New Roman,serif" font-size="10.00">generatedAtTime:</text>
<text text-anchor="start" x="85.5" y="-279.5" font-family="Times New Roman,serif" font-size="10.00">&quot;2018&#45;03&#45;05T16:04:18.782622&quot;</text>
</g>
<!-- &#45;attrs2&#45;&gt;http://example.org/range_nodes1 -->
<g id="edge4" class="edge"><title>&#45;attrs2&#45;&gt;http://example.org/range_nodes1</title>
<path fill="none" stroke="gray" stroke-dasharray="5,2" d="M110.794,-320.215C115.096,-343.971 121.61,-379.947 125.421,-400.998"/>
</g>
<!-- &#45;attrs3 -->
<g id="node8" class="node"><title>&#45;attrs3</title>
<polygon fill="none" stroke="gray" points="835,-320 628,-320 628,-271 841,-271 841,-314 835,-320"/>
<polyline fill="none" stroke="gray" points="835,-320 835,-314 "/>
<polyline fill="none" stroke="gray" points="841,-314 835,-314 "/>
<text text-anchor="start" x="638.5" y="-305.5" font-family="Times New Roman,serif" font-size="10.00">value:</text>
<text text-anchor="start" x="713.5" y="-305.5" font-family="Times New Roman,serif" font-size="10.00">&quot;2&quot;</text>
<text text-anchor="start" x="638.5" y="-292.5" font-family="Times New Roman,serif" font-size="10.00">type:</text>
<text text-anchor="start" x="713.5" y="-292.5" font-family="Times New Roman,serif" font-size="10.00">&quot;item&quot;</text>
<text text-anchor="start" x="638.5" y="-279.5" font-family="Times New Roman,serif" font-size="10.00">generatedAtTime:</text>
<text text-anchor="start" x="713.5" y="-279.5" font-family="Times New Roman,serif" font-size="10.00">&quot;2018&#45;03&#45;05T16:04:18.782622&quot;</text>
</g>
<!-- &#45;attrs3&#45;&gt;http://example.org/range_nodes2 -->
<g id="edge6" class="edge"><title>&#45;attrs3&#45;&gt;http://example.org/range_nodes2</title>
<path fill="none" stroke="gray" stroke-dasharray="5,2" d="M736.377,-320.106C736.635,-338.935 734.078,-365.04 720.5,-383 712.615,-393.431 700.859,-400.868 688.98,-406.123"/>
</g>
<!-- http://example.org/nodes -->
<g id="node11" class="node"><title>http://example.org/nodes</title>
<ellipse fill="none" stroke="black" cx="856.5" cy="-492" rx="100.983" ry="18"/>
<text text-anchor="middle" x="856.5" y="-488.3" font-family="Times New Roman,serif" font-size="14.00">http://example.org/nodes</text>
</g>
<!-- http://example.org/call2&#45;&gt;http://example.org/nodes -->
<g id="edge9" class="edge"><title>http://example.org/call2&#45;&gt;http://example.org/nodes</title>
<path fill="none" stroke="black" d="M856.5,-437.187C856.5,-445.211 856.5,-454.953 856.5,-463.931"/>
<polygon fill="black" stroke="black" points="853,-463.971 856.5,-473.971 860,-463.971 853,-463.971"/>
<text text-anchor="middle" x="869.49" y="-442.787" font-family="Times New Roman,serif" font-size="8.00">use</text>
</g>
<!-- &#45;attrs4 -->
<g id="node10" class="node"><title>&#45;attrs4</title>
<polygon fill="none" stroke="gray" points="929.5,-313.5 859.5,-313.5 859.5,-277.5 935.5,-277.5 935.5,-307.5 929.5,-313.5"/>
<polyline fill="none" stroke="gray" points="929.5,-313.5 929.5,-307.5 "/>
<polyline fill="none" stroke="gray" points="935.5,-307.5 929.5,-307.5 "/>
<text text-anchor="start" x="869.5" y="-299.5" font-family="Times New Roman,serif" font-size="10.00">type:</text>
<text text-anchor="start" x="893.5" y="-299.5" font-family="Times New Roman,serif" font-size="10.00">&quot;call&quot;</text>
<text text-anchor="start" x="869.5" y="-286.5" font-family="Times New Roman,serif" font-size="10.00">label:</text>
<text text-anchor="start" x="893.5" y="-286.5" font-family="Times New Roman,serif" font-size="10.00">&quot;range&quot;</text>
</g>
<!-- &#45;attrs4&#45;&gt;http://example.org/call2 -->
<g id="edge8" class="edge"><title>&#45;attrs4&#45;&gt;http://example.org/call2</title>
<path fill="none" stroke="gray" stroke-dasharray="5,2" d="M891.713,-313.65C883.899,-336.807 870.057,-377.826 862.258,-400.937"/>
</g>
<!-- http://example.org/indexes -->
<g id="node12" class="node"><title>http://example.org/indexes</title>
<g id="a_node12"><a xlink:href="http://example.org/indexes" xlink:title="indexes">
<ellipse fill="#fffc87" stroke="#808080" cx="600.5" cy="-117" rx="38.1938" ry="18"/>
<text text-anchor="middle" x="600.5" y="-113.3" font-family="Times New Roman,serif" font-size="14.00">indexes</text>
</a>
</g>
</g>
<!-- http://example.org/indexes&#45;&gt;http://example.org/range_nodes -->
<g id="edge14" class="edge"><title>http://example.org/indexes&#45;&gt;http://example.org/range_nodes</title>
<path fill="none" stroke="darkgreen" d="M598.338,-135.063C595.009,-158.176 587.496,-200.407 573.5,-234 568.357,-246.344 560.806,-259.021 553.788,-269.562"/>
<polygon fill="darkgreen" stroke="darkgreen" points="550.865,-267.636 548.082,-277.859 556.632,-271.602 550.865,-267.636"/>
<text text-anchor="middle" x="674" y="-206.8" font-family="Times New Roman,serif" font-size="14.00">der ref</text>
<text text-anchor="middle" x="674" y="-191.8" font-family="Times New Roman,serif" font-size="14.00">2018&#45;03&#45;05T16:04:18.782622</text>
</g>
<!-- http://example.org/assign5 -->
<g id="node14" class="node"><title>http://example.org/assign5</title>
<g id="a_node14"><a xlink:href="http://example.org/assign5" xlink:title="assign5">
<polygon fill="#9fb1fc" stroke="#0000ff" points="564.5,-221 506.5,-221 506.5,-185 564.5,-185 564.5,-221"/>
<text text-anchor="middle" x="535.5" y="-199.3" font-family="Times New Roman,serif" font-size="14.00">assign5</text>
</a>
</g>
</g>
<!-- http://example.org/indexes&#45;&gt;http://example.org/assign5 -->
<g id="edge15" class="edge"><title>http://example.org/indexes&#45;&gt;http://example.org/assign5</title>
<path fill="none" stroke="black" d="M587.967,-134.196C578.619,-146.277 565.672,-163.009 554.978,-176.828"/>
<polygon fill="black" stroke="black" points="552.015,-174.938 548.664,-184.989 557.551,-179.222 552.015,-174.938"/>
<text text-anchor="middle" x="593.651" y="-146.177" font-family="Times New Roman,serif" font-size="8.00">gen</text>
</g>
<!-- &#45;attrs5 -->
<g id="node13" class="node"><title>&#45;attrs5</title>
<polygon fill="none" stroke="gray" points="701,-62 494,-62 494,-0 707,-0 707,-56 701,-62"/>
<polyline fill="none" stroke="gray" points="701,-62 701,-56 "/>
<polyline fill="none" stroke="gray" points="707,-56 701,-56 "/>
<text text-anchor="start" x="504.5" y="-48" font-family="Times New Roman,serif" font-size="10.00">value:</text>
<text text-anchor="start" x="579.5" y="-48" font-family="Times New Roman,serif" font-size="10.00">&quot;[0, 1, 2]&quot;</text>
<text text-anchor="start" x="504.5" y="-35" font-family="Times New Roman,serif" font-size="10.00">type:</text>
<text text-anchor="start" x="579.5" y="-35" font-family="Times New Roman,serif" font-size="10.00">&quot;name&quot;</text>
<text text-anchor="start" x="504.5" y="-22" font-family="Times New Roman,serif" font-size="10.00">label:</text>
<text text-anchor="start" x="579.5" y="-22" font-family="Times New Roman,serif" font-size="10.00">&quot;indexes&quot;</text>
<text text-anchor="start" x="504.5" y="-9" font-family="Times New Roman,serif" font-size="10.00">generatedAtTime:</text>
<text text-anchor="start" x="579.5" y="-9" font-family="Times New Roman,serif" font-size="10.00">&quot;2018&#45;03&#45;05T16:04:18.782622&quot;</text>
</g>
<!-- &#45;attrs5&#45;&gt;http://example.org/indexes -->
<g id="edge11" class="edge"><title>&#45;attrs5&#45;&gt;http://example.org/indexes</title>
<path fill="none" stroke="gray" stroke-dasharray="5,2" d="M600.5,-62.3259C600.5,-74.5443 600.5,-88.1945 600.5,-98.6716"/>
</g>
<!-- http://example.org/assign5&#45;&gt;http://example.org/range_nodes -->
<g id="edge13" class="edge"><title>http://example.org/assign5&#45;&gt;http://example.org/range_nodes</title>
<path fill="none" stroke="black" d="M535.5,-221.022C535.5,-233.96 535.5,-252.023 535.5,-267.002"/>
<polygon fill="black" stroke="black" points="532,-267.246 535.5,-277.246 539,-267.246 532,-267.246"/>
<text text-anchor="middle" x="548.49" y="-226.622" font-family="Times New Roman,serif" font-size="8.00">use</text>
</g>
<!-- &#45;attrs6 -->
<g id="node15" class="node"><title>&#45;attrs6</title>
<polygon fill="none" stroke="gray" points="538,-135 465,-135 465,-99 544,-99 544,-129 538,-135"/>
<polyline fill="none" stroke="gray" points="538,-135 538,-129 "/>
<polyline fill="none" stroke="gray" points="544,-129 538,-129 "/>
<text text-anchor="start" x="475.5" y="-114" font-family="Times New Roman,serif" font-size="10.00">type:</text>
<text text-anchor="start" x="498.5" y="-114" font-family="Times New Roman,serif" font-size="10.00">&quot;assign&quot;</text>
</g>
<!-- &#45;attrs6&#45;&gt;http://example.org/assign5 -->
<g id="edge12" class="edge"><title>&#45;attrs6&#45;&gt;http://example.org/assign5</title>
<path fill="none" stroke="gray" stroke-dasharray="5,2" d="M510.923,-135.405C516.279,-149.917 523.867,-170.479 529.191,-184.905"/>
</g>
</g>
</svg>
