<?xml version="1.0" encoding="UTF-8" standalone="no"?>
<!DOCTYPE svg PUBLIC "-//W3C//DTD SVG 1.1//EN"
 "http://www.w3.org/Graphics/SVG/1.1/DTD/svg11.dtd">
<!-- Generated by graphviz version 2.38.0 (20140413.2041)
 -->
<!-- Title: PROV Pages: 1 -->
<svg width="309pt" height="260pt"
 viewBox="0.00 0.00 308.81 260.00" xmlns="http://www.w3.org/2000/svg" xmlns:xlink="http://www.w3.org/1999/xlink">
<g id="graph0" class="graph" transform="scale(1 1) rotate(0) translate(4 256)">
<title>PROV</title>
<polygon fill="white" stroke="none" points="-4,4 -4,-256 304.811,-256 304.811,4 -4,4"/>
<!-- http://example.org/m1 -->
<g id="node1" class="node"><title>http://example.org/m1</title>
<g id="a_node1"><a xlink:href="http://example.org/m1" xlink:title="m1">
<ellipse fill="#fffc87" stroke="#808080" cx="54.8105" cy="-234" rx="27" ry="18"/>
<text text-anchor="middle" x="54.8105" y="-230.3" font-family="Times New Roman,serif" font-size="14.00">m1</text>
</a>
</g>
</g>
<!-- &#45;attrs0 -->
<g id="node2" class="node"><title>&#45;attrs0</title>
<polygon fill="none" stroke="gray" points="88.3105,-180 15.3105,-180 15.3105,-144 94.3105,-144 94.3105,-174 88.3105,-180"/>
<polyline fill="none" stroke="gray" points="88.3105,-180 88.3105,-174 "/>
<polyline fill="none" stroke="gray" points="94.3105,-174 88.3105,-174 "/>
<text text-anchor="start" x="25.8105" y="-166" font-family="Times New Roman,serif" font-size="10.00">value:</text>
<text text-anchor="start" x="52.8105" y="-166" font-family="Times New Roman,serif" font-size="10.00">&quot;10000&quot;</text>
<text text-anchor="start" x="25.8105" y="-153" font-family="Times New Roman,serif" font-size="10.00">type:</text>
<text text-anchor="start" x="52.8105" y="-153" font-family="Times New Roman,serif" font-size="10.00">&quot;name&quot;</text>
</g>
<!-- &#45;attrs0&#45;&gt;http://example.org/m1 -->
<g id="edge1" class="edge"><title>&#45;attrs0&#45;&gt;http://example.org/m1</title>
<path fill="none" stroke="gray" stroke-dasharray="5,2" d="M54.8105,-180.303C54.8105,-191.154 54.8105,-205.083 54.8105,-215.896"/>
</g>
<!-- http://example.org/n1 -->
<g id="node3" class="node"><title>http://example.org/n1</title>
<g id="a_node3"><a xlink:href="http://example.org/n1" xlink:title="n1">
<ellipse fill="#fffc87" stroke="#808080" cx="194.811" cy="-234" rx="27" ry="18"/>
<text text-anchor="middle" x="194.811" y="-230.3" font-family="Times New Roman,serif" font-size="14.00">n1</text>
</a>
</g>
</g>
<!-- &#45;attrs1 -->
<g id="node4" class="node"><title>&#45;attrs1</title>
<polygon fill="none" stroke="gray" points="294.811,-180 222.811,-180 222.811,-144 300.811,-144 300.811,-174 294.811,-180"/>
<polyline fill="none" stroke="gray" points="294.811,-180 294.811,-174 "/>
<polyline fill="none" stroke="gray" points="300.811,-174 294.811,-174 "/>
<text text-anchor="start" x="232.811" y="-166" font-family="Times New Roman,serif" font-size="10.00">value:</text>
<text text-anchor="start" x="259.811" y="-166" font-family="Times New Roman,serif" font-size="10.00">&quot;1&quot;</text>
<text text-anchor="start" x="232.811" y="-153" font-family="Times New Roman,serif" font-size="10.00">type:</text>
<text text-anchor="start" x="259.811" y="-153" font-family="Times New Roman,serif" font-size="10.00">&quot;literal&quot;</text>
</g>
<!-- &#45;attrs1&#45;&gt;http://example.org/n1 -->
<g id="edge2" class="edge"><title>&#45;attrs1&#45;&gt;http://example.org/n1</title>
<path fill="none" stroke="gray" stroke-dasharray="5,2" d="M245.249,-180.303C234.088,-191.963 219.524,-207.179 208.917,-218.262"/>
</g>
<!-- http://example.org/sum1 -->
<g id="node5" class="node"><title>http://example.org/sum1</title>
<g id="a_node5"><a xlink:href="http://example.org/sum1" xlink:title="sum1">
<ellipse fill="#fffc87" stroke="#808080" cx="166.811" cy="-90" rx="30.5947" ry="18"/>
<text text-anchor="middle" x="166.811" y="-86.3" font-family="Times New Roman,serif" font-size="14.00">sum1</text>
</a>
</g>
</g>
<!-- http://example.org/sum1&#45;&gt;http://example.org/m1 -->
<g id="edge8" class="edge"><title>http://example.org/sum1&#45;&gt;http://example.org/m1</title>
<path fill="none" stroke="black" d="M143.296,-101.514C137.924,-103.77 132.206,-106.058 126.811,-108 74.0191,-127.003 39.354,-99.0235 5.81052,-144 -10.5738,-165.969 10.9803,-194.055 30.4561,-212.741"/>
<polygon fill="black" stroke="black" points="28.2673,-215.482 38.0085,-219.648 32.9918,-210.317 28.2673,-215.482"/>
<text text-anchor="middle" x="141.384" y="-114.492" font-family="Times New Roman,serif" font-size="8.00">der</text>
</g>
<!-- http://example.org/sum1&#45;&gt;http://example.org/n1 -->
<g id="edge9" class="edge"><title>http://example.org/sum1&#45;&gt;http://example.org/n1</title>
<path fill="none" stroke="black" d="M170.188,-108.129C174.981,-132.436 183.804,-177.181 189.484,-205.987"/>
<polygon fill="black" stroke="black" points="186.053,-206.677 191.421,-215.811 192.92,-205.323 186.053,-206.677"/>
<text text-anchor="middle" x="184.384" y="-111.074" font-family="Times New Roman,serif" font-size="8.00">der</text>
</g>
<!-- http://example.org/add1 -->
<g id="node7" class="node"><title>http://example.org/add1</title>
<g id="a_node7"><a xlink:href="http://example.org/add1" xlink:title="add1">
<polygon fill="#9fb1fc" stroke="#0000ff" points="166.811,-180 112.811,-180 112.811,-144 166.811,-144 166.811,-180"/>
<text text-anchor="middle" x="139.811" y="-158.3" font-family="Times New Roman,serif" font-size="14.00">add1</text>
</a>
</g>
</g>
<!-- http://example.org/sum1&#45;&gt;http://example.org/add1 -->
<g id="edge7" class="edge"><title>http://example.org/sum1&#45;&gt;http://example.org/add1</title>
<path fill="none" stroke="black" d="M160.275,-107.945C157.236,-115.824 153.548,-125.383 150.145,-134.206"/>
<polygon fill="black" stroke="black" points="146.807,-133.135 146.474,-143.725 153.338,-135.654 146.807,-133.135"/>
<text text-anchor="middle" x="169.696" y="-117.717" font-family="Times New Roman,serif" font-size="8.00">gen</text>
</g>
<!-- &#45;attrs2 -->
<g id="node6" class="node"><title>&#45;attrs2</title>
<polygon fill="none" stroke="gray" points="200.311,-36 127.311,-36 127.311,-0 206.311,-0 206.311,-30 200.311,-36"/>
<polyline fill="none" stroke="gray" points="200.311,-36 200.311,-30 "/>
<polyline fill="none" stroke="gray" points="206.311,-30 200.311,-30 "/>
<text text-anchor="start" x="137.811" y="-22" font-family="Times New Roman,serif" font-size="10.00">value:</text>
<text text-anchor="start" x="164.811" y="-22" font-family="Times New Roman,serif" font-size="10.00">&quot;10001&quot;</text>
<text text-anchor="start" x="137.811" y="-9" font-family="Times New Roman,serif" font-size="10.00">type:</text>
<text text-anchor="start" x="164.811" y="-9" font-family="Times New Roman,serif" font-size="10.00">&quot;sum&quot;</text>
</g>
<!-- &#45;attrs2&#45;&gt;http://example.org/sum1 -->
<g id="edge3" class="edge"><title>&#45;attrs2&#45;&gt;http://example.org/sum1</title>
<path fill="none" stroke="gray" stroke-dasharray="5,2" d="M166.811,-36.3034C166.811,-47.1537 166.811,-61.0833 166.811,-71.8957"/>
</g>
<!-- http://example.org/add1&#45;&gt;http://example.org/m1 -->
<g id="edge5" class="edge"><title>http://example.org/add1&#45;&gt;http://example.org/m1</title>
<path fill="none" stroke="black" d="M118.799,-180.303C106.781,-190.2 91.6528,-202.659 79.1233,-212.978"/>
<polygon fill="black" stroke="black" points="76.8181,-210.342 71.3238,-219.401 81.2681,-215.745 76.8181,-210.342"/>
<text text-anchor="middle" x="121.268" y="-193.199" font-family="Times New Roman,serif" font-size="8.00">use</text>
</g>
<!-- http://example.org/add1&#45;&gt;http://example.org/n1 -->
<g id="edge6" class="edge"><title>http://example.org/add1&#45;&gt;http://example.org/n1</title>
<path fill="none" stroke="black" d="M153.406,-180.303C160.393,-189.196 169.006,-200.158 176.563,-209.776"/>
<polygon fill="black" stroke="black" points="173.935,-212.097 182.866,-217.798 179.44,-207.772 173.935,-212.097"/>
<text text-anchor="middle" x="168.254" y="-176.275" font-family="Times New Roman,serif" font-size="8.00">use</text>
</g>
<!-- &#45;attrs3 -->
<g id="node8" class="node"><title>&#45;attrs3</title>
<polygon fill="none" stroke="gray" points="111.811,-108 49.8105,-108 49.8105,-72 117.811,-72 117.811,-102 111.811,-108"/>
<polyline fill="none" stroke="gray" points="111.811,-108 111.811,-102 "/>
<polyline fill="none" stroke="gray" points="117.811,-102 111.811,-102 "/>
<text text-anchor="start" x="59.8105" y="-87" font-family="Times New Roman,serif" font-size="10.00">type:</text>
<text text-anchor="start" x="82.8105" y="-87" font-family="Times New Roman,serif" font-size="10.00">&quot;add&quot;</text>
</g>
<!-- &#45;attrs3&#45;&gt;http://example.org/add1 -->
<g id="edge4" class="edge"><title>&#45;attrs3&#45;&gt;http://example.org/add1</title>
<path fill="none" stroke="gray" stroke-dasharray="5,2" d="M97.6532,-108.303C106.333,-119.154 117.477,-133.083 126.127,-143.896"/>
</g>
</g>
</svg>
