<?xml version="1.0" encoding="UTF-8" standalone="no"?>
<!DOCTYPE svg PUBLIC "-//W3C//DTD SVG 1.1//EN"
 "http://www.w3.org/Graphics/SVG/1.1/DTD/svg11.dtd">
<!-- Generated by graphviz version 2.38.0 (20140413.2041)
 -->
<!-- Title: PROV Pages: 1 -->
<svg width="927pt" height="260pt"
 viewBox="0.00 0.00 927.17 260.00" xmlns="http://www.w3.org/2000/svg" xmlns:xlink="http://www.w3.org/1999/xlink">
<g id="graph0" class="graph" transform="scale(1 1) rotate(0) translate(4 256)">
<title>PROV</title>
<polygon fill="white" stroke="none" points="-4,4 -4,-256 923.174,-256 923.174,4 -4,4"/>
<!-- http://example.org/result_a020 -->
<g id="node1" class="node"><title>http://example.org/result_a020</title>
<g id="a_node1"><a xlink:href="http://example.org/result_a020" xlink:title="result_a020">
<ellipse fill="#fffc87" stroke="#808080" cx="744.179" cy="-18" rx="51.9908" ry="18"/>
<text text-anchor="middle" x="744.179" y="-14.3" font-family="Times New Roman,serif" font-size="14.00">result_a020</text>
</a>
</g>
</g>
<!-- http://example.org/disti_aj13 -->
<g id="node2" class="node"><title>http://example.org/disti_aj13</title>
<g id="a_node2"><a xlink:href="http://example.org/disti_aj13" xlink:title="disti_aj13">
<ellipse fill="#fffc87" stroke="#808080" cx="610.687" cy="-45" rx="45.4919" ry="18"/>
<text text-anchor="middle" x="610.687" y="-41.3" font-family="Times New Roman,serif" font-size="14.00">disti_aj13</text>
</a>
</g>
</g>
<!-- http://example.org/result_a020&#45;&gt;http://example.org/disti_aj13 -->
<g id="edge1" class="edge"><title>http://example.org/result_a020&#45;&gt;http://example.org/disti_aj13</title>
<path fill="none" stroke="black" d="M699.028,-27.0657C687.021,-29.5313 673.933,-32.2188 661.629,-34.7451"/>
<polygon fill="black" stroke="black" points="660.611,-31.381 651.52,-36.821 662.019,-38.238 660.611,-31.381"/>
<text text-anchor="middle" x="694.294" y="-39.3992" font-family="Times New Roman,serif" font-size="8.00">der</text>
</g>
<!-- http://example.org/ikj11 -->
<g id="node7" class="node"><title>http://example.org/ikj11</title>
<g id="a_node7"><a xlink:href="http://example.org/ikj11" xlink:title="ikj11">
<ellipse fill="#fffc87" stroke="#808080" cx="492.691" cy="-72" rx="27.8951" ry="18"/>
<text text-anchor="middle" x="492.691" y="-68.3" font-family="Times New Roman,serif" font-size="14.00">ikj11</text>
</a>
</g>
</g>
<!-- http://example.org/disti_aj13&#45;&gt;http://example.org/ikj11 -->
<g id="edge5" class="edge"><title>http://example.org/disti_aj13&#45;&gt;http://example.org/ikj11</title>
<path fill="none" stroke="black" d="M571.062,-53.9906C557.646,-57.1136 542.666,-60.6003 529.488,-63.6678"/>
<polygon fill="black" stroke="black" points="528.316,-60.347 519.37,-66.023 529.903,-67.1647 528.316,-60.347"/>
<text text-anchor="middle" x="566.703" y="-66.4431" font-family="Times New Roman,serif" font-size="8.00">der</text>
</g>
<!-- http://example.org/sum11 -->
<g id="node3" class="node"><title>http://example.org/sum11</title>
<g id="a_node3"><a xlink:href="http://example.org/sum11" xlink:title="sum11">
<ellipse fill="#fffc87" stroke="#808080" cx="378.191" cy="-99" rx="34.394" ry="18"/>
<text text-anchor="middle" x="378.191" y="-95.3" font-family="Times New Roman,serif" font-size="14.00">sum11</text>
</a>
</g>
</g>
<!-- http://example.org/distk_aj11 -->
<g id="node4" class="node"><title>http://example.org/distk_aj11</title>
<g id="a_node4"><a xlink:href="http://example.org/distk_aj11" xlink:title="distk_aj11">
<ellipse fill="#fffc87" stroke="#808080" cx="252.096" cy="-153" rx="48.1917" ry="18"/>
<text text-anchor="middle" x="252.096" y="-149.3" font-family="Times New Roman,serif" font-size="14.00">distk_aj11</text>
</a>
</g>
</g>
<!-- http://example.org/sum11&#45;&gt;http://example.org/distk_aj11 -->
<g id="edge2" class="edge"><title>http://example.org/sum11&#45;&gt;http://example.org/distk_aj11</title>
<path fill="none" stroke="black" d="M351.177,-110.32C334.518,-117.569 312.555,-127.126 293.637,-135.359"/>
<polygon fill="black" stroke="black" points="292.122,-132.201 284.349,-139.4 294.915,-138.619 292.122,-132.201"/>
<text text-anchor="middle" x="349.483" y="-123.324" font-family="Times New Roman,serif" font-size="8.00">der</text>
</g>
<!-- http://example.org/disti_ak11 -->
<g id="node18" class="node"><title>http://example.org/disti_ak11</title>
<g id="a_node18"><a xlink:href="http://example.org/disti_ak11" xlink:title="disti_ak11">
<ellipse fill="#fffc87" stroke="#808080" cx="252.096" cy="-45" rx="48.1917" ry="18"/>
<text text-anchor="middle" x="252.096" y="-41.3" font-family="Times New Roman,serif" font-size="14.00">disti_ak11</text>
</a>
</g>
</g>
<!-- http://example.org/sum11&#45;&gt;http://example.org/disti_ak11 -->
<g id="edge18" class="edge"><title>http://example.org/sum11&#45;&gt;http://example.org/disti_ak11</title>
<path fill="none" stroke="black" d="M351.177,-87.6798C334.518,-80.4306 312.555,-70.8737 293.637,-62.6414"/>
<polygon fill="black" stroke="black" points="294.915,-59.3806 284.349,-58.5998 292.122,-65.7992 294.915,-59.3806"/>
<text text-anchor="middle" x="339.117" y="-94.6988" font-family="Times New Roman,serif" font-size="8.00">der</text>
</g>
<!-- http://example.org/list12_0 -->
<g id="node5" class="node"><title>http://example.org/list12_0</title>
<g id="a_node5"><a xlink:href="http://example.org/list12_0" xlink:title="list12_0">
<ellipse fill="#fffc87" stroke="#808080" cx="129" cy="-180" rx="38.9931" ry="18"/>
<text text-anchor="middle" x="129" y="-176.3" font-family="Times New Roman,serif" font-size="14.00">list12_0</text>
</a>
</g>
</g>
<!-- http://example.org/distk_aj11&#45;&gt;http://example.org/list12_0 -->
<g id="edge3" class="edge"><title>http://example.org/distk_aj11&#45;&gt;http://example.org/list12_0</title>
<path fill="none" stroke="black" d="M210.436,-162.066C198.957,-164.625 186.405,-167.424 174.703,-170.033"/>
<polygon fill="black" stroke="black" points="173.685,-166.674 164.686,-172.266 175.208,-173.506 173.685,-166.674"/>
<text text-anchor="middle" x="205.942" y="-174.477" font-family="Times New Roman,serif" font-size="8.00">der</text>
</g>
<!-- http://example.org/n2 -->
<g id="node8" class="node"><title>http://example.org/n2</title>
<g id="a_node8"><a xlink:href="http://example.org/n2" xlink:title="n2">
<ellipse fill="#fffc87" stroke="#808080" cx="27" cy="-193" rx="27" ry="18"/>
<text text-anchor="middle" x="27" y="-189.3" font-family="Times New Roman,serif" font-size="14.00">n2</text>
</a>
</g>
</g>
<!-- http://example.org/list12_0&#45;&gt;http://example.org/n2 -->
<g id="edge6" class="edge"><title>http://example.org/list12_0&#45;&gt;http://example.org/n2</title>
<path fill="none" stroke="black" d="M91.3315,-184.767C82.357,-185.934 72.7644,-187.181 63.8298,-188.342"/>
<polygon fill="black" stroke="black" points="63.1853,-184.896 53.72,-189.656 64.0878,-191.838 63.1853,-184.896"/>
<text text-anchor="middle" x="85.5688" y="-196.716" font-family="Times New Roman,serif" font-size="8.00">der</text>
</g>
<!-- &#45;attrs0 -->
<g id="node6" class="node"><title>&#45;attrs0</title>
<polygon fill="none" stroke="gray" points="913.174,-36 832.174,-36 832.174,-0 919.174,-0 919.174,-30 913.174,-36"/>
<polyline fill="none" stroke="gray" points="913.174,-36 913.174,-30 "/>
<polyline fill="none" stroke="gray" points="919.174,-30 913.174,-30 "/>
<text text-anchor="start" x="842.674" y="-22" font-family="Times New Roman,serif" font-size="10.00">value:</text>
<text text-anchor="start" x="869.674" y="-22" font-family="Times New Roman,serif" font-size="10.00">&quot;3&quot;</text>
<text text-anchor="start" x="842.674" y="-9" font-family="Times New Roman,serif" font-size="10.00">type:</text>
<text text-anchor="start" x="869.674" y="-9" font-family="Times New Roman,serif" font-size="10.00">&quot;number&quot;</text>
</g>
<!-- &#45;attrs0&#45;&gt;http://example.org/result_a020 -->
<g id="edge4" class="edge"><title>&#45;attrs0&#45;&gt;http://example.org/result_a020</title>
<path fill="none" stroke="gray" stroke-dasharray="5,2" d="M831.914,-18C820.568,-18 808.201,-18 796.453,-18"/>
</g>
<!-- http://example.org/ikj11&#45;&gt;http://example.org/sum11 -->
<g id="edge13" class="edge"><title>http://example.org/ikj11&#45;&gt;http://example.org/sum11</title>
<path fill="none" stroke="black" d="M466.163,-78.1267C452.443,-81.4196 435.205,-85.5567 419.702,-89.2775"/>
<polygon fill="black" stroke="black" points="418.726,-85.9123 409.819,-91.6494 420.36,-92.719 418.726,-85.9123"/>
<text text-anchor="middle" x="461.902" y="-90.6087" font-family="Times New Roman,serif" font-size="8.00">der</text>
</g>
<!-- &#45;attrs1 -->
<g id="node9" class="node"><title>&#45;attrs1</title>
<polygon fill="none" stroke="gray" points="289.596,-225 208.596,-225 208.596,-189 295.596,-189 295.596,-219 289.596,-225"/>
<polyline fill="none" stroke="gray" points="289.596,-225 289.596,-219 "/>
<polyline fill="none" stroke="gray" points="295.596,-219 289.596,-219 "/>
<text text-anchor="start" x="219.096" y="-211" font-family="Times New Roman,serif" font-size="10.00">value:</text>
<text text-anchor="start" x="246.096" y="-211" font-family="Times New Roman,serif" font-size="10.00">&quot;2&quot;</text>
<text text-anchor="start" x="219.096" y="-198" font-family="Times New Roman,serif" font-size="10.00">type:</text>
<text text-anchor="start" x="246.096" y="-198" font-family="Times New Roman,serif" font-size="10.00">&quot;number&quot;</text>
</g>
<!-- &#45;attrs1&#45;&gt;http://example.org/list12_0 -->
<g id="edge7" class="edge"><title>&#45;attrs1&#45;&gt;http://example.org/list12_0</title>
<path fill="none" stroke="gray" stroke-dasharray="5,2" d="M208.402,-197.481C193.966,-194.262 178.043,-190.712 164.339,-187.656"/>
</g>
<!-- http://example.org/list01_0 -->
<g id="node10" class="node"><title>http://example.org/list01_0</title>
<g id="a_node10"><a xlink:href="http://example.org/list01_0" xlink:title="list01_0">
<ellipse fill="#fffc87" stroke="#808080" cx="129" cy="-72" rx="38.9931" ry="18"/>
<text text-anchor="middle" x="129" y="-68.3" font-family="Times New Roman,serif" font-size="14.00">list01_0</text>
</a>
</g>
</g>
<!-- http://example.org/n1 -->
<g id="node14" class="node"><title>http://example.org/n1</title>
<g id="a_node14"><a xlink:href="http://example.org/n1" xlink:title="n1">
<ellipse fill="#fffc87" stroke="#808080" cx="27" cy="-112" rx="27" ry="18"/>
<text text-anchor="middle" x="27" y="-108.3" font-family="Times New Roman,serif" font-size="14.00">n1</text>
</a>
</g>
</g>
<!-- http://example.org/list01_0&#45;&gt;http://example.org/n1 -->
<g id="edge11" class="edge"><title>http://example.org/list01_0&#45;&gt;http://example.org/n1</title>
<path fill="none" stroke="black" d="M99.0759,-83.5697C86.8777,-88.4489 72.631,-94.1476 60.1089,-99.1565"/>
<polygon fill="black" stroke="black" points="58.4931,-96.0331 50.5082,-102.997 61.0928,-102.532 58.4931,-96.0331"/>
<text text-anchor="middle" x="96.9368" y="-96.5164" font-family="Times New Roman,serif" font-size="8.00">der</text>
</g>
<!-- &#45;attrs2 -->
<g id="node11" class="node"><title>&#45;attrs2</title>
<polygon fill="none" stroke="gray" points="289.596,-117 208.596,-117 208.596,-81 295.596,-81 295.596,-111 289.596,-117"/>
<polyline fill="none" stroke="gray" points="289.596,-117 289.596,-111 "/>
<polyline fill="none" stroke="gray" points="295.596,-111 289.596,-111 "/>
<text text-anchor="start" x="219.096" y="-103" font-family="Times New Roman,serif" font-size="10.00">value:</text>
<text text-anchor="start" x="246.096" y="-103" font-family="Times New Roman,serif" font-size="10.00">&quot;1&quot;</text>
<text text-anchor="start" x="219.096" y="-90" font-family="Times New Roman,serif" font-size="10.00">type:</text>
<text text-anchor="start" x="246.096" y="-90" font-family="Times New Roman,serif" font-size="10.00">&quot;number&quot;</text>
</g>
<!-- &#45;attrs2&#45;&gt;http://example.org/list01_0 -->
<g id="edge8" class="edge"><title>&#45;attrs2&#45;&gt;http://example.org/list01_0</title>
<path fill="none" stroke="gray" stroke-dasharray="5,2" d="M208.402,-89.4808C193.966,-86.2621 178.043,-82.7119 164.339,-79.6564"/>
</g>
<!-- &#45;attrs3 -->
<g id="node12" class="node"><title>&#45;attrs3</title>
<polygon fill="none" stroke="gray" points="162,-252 90,-252 90,-216 168,-216 168,-246 162,-252"/>
<polyline fill="none" stroke="gray" points="162,-252 162,-246 "/>
<polyline fill="none" stroke="gray" points="168,-246 162,-246 "/>
<text text-anchor="start" x="100" y="-238" font-family="Times New Roman,serif" font-size="10.00">value:</text>
<text text-anchor="start" x="127" y="-238" font-family="Times New Roman,serif" font-size="10.00">&quot;2&quot;</text>
<text text-anchor="start" x="100" y="-225" font-family="Times New Roman,serif" font-size="10.00">type:</text>
<text text-anchor="start" x="127" y="-225" font-family="Times New Roman,serif" font-size="10.00">&quot;literal&quot;</text>
</g>
<!-- &#45;attrs3&#45;&gt;http://example.org/n2 -->
<g id="edge9" class="edge"><title>&#45;attrs3&#45;&gt;http://example.org/n2</title>
<path fill="none" stroke="gray" stroke-dasharray="5,2" d="M89.909,-218.383C76.5518,-212.906 61.9906,-206.936 50.3476,-202.163"/>
</g>
<!-- &#45;attrs4 -->
<g id="node13" class="node"><title>&#45;attrs4</title>
<polygon fill="none" stroke="gray" points="643.687,-117 571.687,-117 571.687,-81 649.687,-81 649.687,-111 643.687,-117"/>
<polyline fill="none" stroke="gray" points="643.687,-117 643.687,-111 "/>
<polyline fill="none" stroke="gray" points="649.687,-111 643.687,-111 "/>
<text text-anchor="start" x="581.687" y="-103" font-family="Times New Roman,serif" font-size="10.00">value:</text>
<text text-anchor="start" x="608.687" y="-103" font-family="Times New Roman,serif" font-size="10.00">&quot;3&quot;</text>
<text text-anchor="start" x="581.687" y="-90" font-family="Times New Roman,serif" font-size="10.00">type:</text>
<text text-anchor="start" x="608.687" y="-90" font-family="Times New Roman,serif" font-size="10.00">&quot;name&quot;</text>
</g>
<!-- &#45;attrs4&#45;&gt;http://example.org/ikj11 -->
<g id="edge10" class="edge"><title>&#45;attrs4&#45;&gt;http://example.org/ikj11</title>
<path fill="none" stroke="gray" stroke-dasharray="5,2" d="M571.385,-90.0844C554.227,-86.0907 534.46,-81.4896 519.158,-77.9279"/>
</g>
<!-- &#45;attrs5 -->
<g id="node15" class="node"><title>&#45;attrs5</title>
<polygon fill="none" stroke="gray" points="772.679,-90 709.679,-90 709.679,-54 778.679,-54 778.679,-84 772.679,-90"/>
<polyline fill="none" stroke="gray" points="772.679,-90 772.679,-84 "/>
<polyline fill="none" stroke="gray" points="778.679,-84 772.679,-84 "/>
<text text-anchor="start" x="720.179" y="-76" font-family="Times New Roman,serif" font-size="10.00">value:</text>
<text text-anchor="start" x="747.179" y="-76" font-family="Times New Roman,serif" font-size="10.00">&quot;3&quot;</text>
<text text-anchor="start" x="720.179" y="-63" font-family="Times New Roman,serif" font-size="10.00">type:</text>
<text text-anchor="start" x="747.179" y="-63" font-family="Times New Roman,serif" font-size="10.00">&quot;set&quot;</text>
</g>
<!-- &#45;attrs5&#45;&gt;http://example.org/disti_aj13 -->
<g id="edge12" class="edge"><title>&#45;attrs5&#45;&gt;http://example.org/disti_aj13</title>
<path fill="none" stroke="gray" stroke-dasharray="5,2" d="M709.658,-65.1169C692.005,-61.4922 670.235,-57.0219 651.703,-53.2166"/>
</g>
<!-- &#45;attrs6 -->
<g id="node16" class="node"><title>&#45;attrs6</title>
<polygon fill="none" stroke="gray" points="523.191,-144 456.191,-144 456.191,-108 529.191,-108 529.191,-138 523.191,-144"/>
<polyline fill="none" stroke="gray" points="523.191,-144 523.191,-138 "/>
<polyline fill="none" stroke="gray" points="529.191,-138 523.191,-138 "/>
<text text-anchor="start" x="466.691" y="-130" font-family="Times New Roman,serif" font-size="10.00">value:</text>
<text text-anchor="start" x="493.691" y="-130" font-family="Times New Roman,serif" font-size="10.00">&quot;3&quot;</text>
<text text-anchor="start" x="466.691" y="-117" font-family="Times New Roman,serif" font-size="10.00">type:</text>
<text text-anchor="start" x="493.691" y="-117" font-family="Times New Roman,serif" font-size="10.00">&quot;sum&quot;</text>
</g>
<!-- &#45;attrs6&#45;&gt;http://example.org/sum11 -->
<g id="edge14" class="edge"><title>&#45;attrs6&#45;&gt;http://example.org/sum11</title>
<path fill="none" stroke="gray" stroke-dasharray="5,2" d="M456.096,-117.457C441.29,-113.904 424.267,-109.818 410.007,-106.396"/>
</g>
<!-- &#45;attrs7 -->
<g id="node17" class="node"><title>&#45;attrs7</title>
<polygon fill="none" stroke="gray" points="162,-144 90,-144 90,-108 168,-108 168,-138 162,-144"/>
<polyline fill="none" stroke="gray" points="162,-144 162,-138 "/>
<polyline fill="none" stroke="gray" points="168,-138 162,-138 "/>
<text text-anchor="start" x="100" y="-130" font-family="Times New Roman,serif" font-size="10.00">value:</text>
<text text-anchor="start" x="127" y="-130" font-family="Times New Roman,serif" font-size="10.00">&quot;1&quot;</text>
<text text-anchor="start" x="100" y="-117" font-family="Times New Roman,serif" font-size="10.00">type:</text>
<text text-anchor="start" x="127" y="-117" font-family="Times New Roman,serif" font-size="10.00">&quot;literal&quot;</text>
</g>
<!-- &#45;attrs7&#45;&gt;http://example.org/n1 -->
<g id="edge15" class="edge"><title>&#45;attrs7&#45;&gt;http://example.org/n1</title>
<path fill="none" stroke="gray" stroke-dasharray="5,2" d="M89.909,-120.667C77.7661,-118.967 64.6281,-117.128 53.5922,-115.583"/>
</g>
<!-- http://example.org/disti_ak11&#45;&gt;http://example.org/list01_0 -->
<g id="edge16" class="edge"><title>http://example.org/disti_ak11&#45;&gt;http://example.org/list01_0</title>
<path fill="none" stroke="black" d="M210.436,-54.0657C198.957,-56.6251 186.405,-59.4237 174.703,-62.0329"/>
<polygon fill="black" stroke="black" points="173.685,-58.6739 164.686,-64.2663 175.208,-65.5061 173.685,-58.6739"/>
<text text-anchor="middle" x="205.942" y="-66.4769" font-family="Times New Roman,serif" font-size="8.00">der</text>
</g>
<!-- &#45;attrs8 -->
<g id="node19" class="node"><title>&#45;attrs8</title>
<polygon fill="none" stroke="gray" points="414.191,-63 336.191,-63 336.191,-27 420.191,-27 420.191,-57 414.191,-63"/>
<polyline fill="none" stroke="gray" points="414.191,-63 414.191,-57 "/>
<polyline fill="none" stroke="gray" points="420.191,-57 414.191,-57 "/>
<text text-anchor="start" x="346.191" y="-49" font-family="Times New Roman,serif" font-size="10.00">value:</text>
<text text-anchor="start" x="373.191" y="-49" font-family="Times New Roman,serif" font-size="10.00">&quot;1&quot;</text>
<text text-anchor="start" x="346.191" y="-36" font-family="Times New Roman,serif" font-size="10.00">type:</text>
<text text-anchor="start" x="373.191" y="-36" font-family="Times New Roman,serif" font-size="10.00">&quot;access&quot;</text>
</g>
<!-- &#45;attrs8&#45;&gt;http://example.org/disti_ak11 -->
<g id="edge17" class="edge"><title>&#45;attrs8&#45;&gt;http://example.org/disti_ak11</title>
<path fill="none" stroke="gray" stroke-dasharray="5,2" d="M335.869,-45C324.447,-45 311.966,-45 300.241,-45"/>
</g>
<!-- &#45;attrs9 -->
<g id="node20" class="node"><title>&#45;attrs9</title>
<polygon fill="none" stroke="gray" points="414.191,-171 336.191,-171 336.191,-135 420.191,-135 420.191,-165 414.191,-171"/>
<polyline fill="none" stroke="gray" points="414.191,-171 414.191,-165 "/>
<polyline fill="none" stroke="gray" points="420.191,-165 414.191,-165 "/>
<text text-anchor="start" x="346.191" y="-157" font-family="Times New Roman,serif" font-size="10.00">value:</text>
<text text-anchor="start" x="373.191" y="-157" font-family="Times New Roman,serif" font-size="10.00">&quot;2&quot;</text>
<text text-anchor="start" x="346.191" y="-144" font-family="Times New Roman,serif" font-size="10.00">type:</text>
<text text-anchor="start" x="373.191" y="-144" font-family="Times New Roman,serif" font-size="10.00">&quot;access&quot;</text>
</g>
<!-- &#45;attrs9&#45;&gt;http://example.org/distk_aj11 -->
<g id="edge19" class="edge"><title>&#45;attrs9&#45;&gt;http://example.org/distk_aj11</title>
<path fill="none" stroke="gray" stroke-dasharray="5,2" d="M335.869,-153C324.447,-153 311.966,-153 300.241,-153"/>
</g>
</g>
</svg>
