<?xml version="1.0" encoding="UTF-8" standalone="no"?>
<!DOCTYPE svg PUBLIC "-//W3C//DTD SVG 1.1//EN"
 "http://www.w3.org/Graphics/SVG/1.1/DTD/svg11.dtd">
<!-- Generated by graphviz version 2.38.0 (20140413.2041)
 -->
<!-- Title: PROV Pages: 1 -->
<svg width="628pt" height="476pt"
 viewBox="0.00 0.00 628.00 476.00" xmlns="http://www.w3.org/2000/svg" xmlns:xlink="http://www.w3.org/1999/xlink">
<g id="graph0" class="graph" transform="scale(1 1) rotate(0) translate(4 472)">
<title>PROV</title>
<polygon fill="white" stroke="none" points="-4,4 -4,-472 624,-472 624,4 -4,4"/>
<!-- http://example.org/list0 -->
<g id="node1" class="node"><title>http://example.org/list0</title>
<g id="a_node1"><a xlink:href="http://example.org/list0" xlink:title="list0">
<ellipse fill="#fffc87" stroke="#808080" cx="156.5" cy="-450" rx="27" ry="18"/>
<text text-anchor="middle" x="156.5" y="-446.3" font-family="Times New Roman,serif" font-size="14.00">list0</text>
</a>
</g>
</g>
<!-- &#45;attrs0 -->
<g id="node2" class="node"><title>&#45;attrs0</title>
<polygon fill="none" stroke="gray" points="217.5,-381 153.5,-381 153.5,-332 223.5,-332 223.5,-375 217.5,-381"/>
<polyline fill="none" stroke="gray" points="217.5,-381 217.5,-375 "/>
<polyline fill="none" stroke="gray" points="223.5,-375 217.5,-375 "/>
<text text-anchor="start" x="163.5" y="-366.5" font-family="Times New Roman,serif" font-size="10.00">value:</text>
<text text-anchor="start" x="190.5" y="-366.5" font-family="Times New Roman,serif" font-size="10.00">10000</text>
<text text-anchor="start" x="163.5" y="-353.5" font-family="Times New Roman,serif" font-size="10.00">type:</text>
<text text-anchor="start" x="190.5" y="-353.5" font-family="Times New Roman,serif" font-size="10.00">item</text>
<text text-anchor="start" x="163.5" y="-340.5" font-family="Times New Roman,serif" font-size="10.00">label:</text>
<text text-anchor="start" x="190.5" y="-340.5" font-family="Times New Roman,serif" font-size="10.00">m</text>
</g>
<!-- &#45;attrs0&#45;&gt;http://example.org/list0 -->
<g id="edge1" class="edge"><title>&#45;attrs0&#45;&gt;http://example.org/list0</title>
<path fill="none" stroke="gray" stroke-dasharray="5,2" d="M180.259,-381.064C174.667,-397.055 167.405,-417.817 162.39,-432.159"/>
</g>
<!-- http://example.org/list1 -->
<g id="node3" class="node"><title>http://example.org/list1</title>
<g id="a_node3"><a xlink:href="http://example.org/list1" xlink:title="list1">
<ellipse fill="#fffc87" stroke="#808080" cx="406.5" cy="-450" rx="27" ry="18"/>
<text text-anchor="middle" x="406.5" y="-446.3" font-family="Times New Roman,serif" font-size="14.00">list1</text>
</a>
</g>
</g>
<!-- &#45;attrs1 -->
<g id="node4" class="node"><title>&#45;attrs1</title>
<polygon fill="none" stroke="gray" points="480.5,-381 416.5,-381 416.5,-332 486.5,-332 486.5,-375 480.5,-381"/>
<polyline fill="none" stroke="gray" points="480.5,-381 480.5,-375 "/>
<polyline fill="none" stroke="gray" points="486.5,-375 480.5,-375 "/>
<text text-anchor="start" x="426.5" y="-366.5" font-family="Times New Roman,serif" font-size="10.00">value:</text>
<text text-anchor="start" x="453.5" y="-366.5" font-family="Times New Roman,serif" font-size="10.00">10001</text>
<text text-anchor="start" x="426.5" y="-353.5" font-family="Times New Roman,serif" font-size="10.00">type:</text>
<text text-anchor="start" x="453.5" y="-353.5" font-family="Times New Roman,serif" font-size="10.00">item</text>
<text text-anchor="start" x="426.5" y="-340.5" font-family="Times New Roman,serif" font-size="10.00">label:</text>
<text text-anchor="start" x="453.5" y="-340.5" font-family="Times New Roman,serif" font-size="10.00">m + 1</text>
</g>
<!-- &#45;attrs1&#45;&gt;http://example.org/list1 -->
<g id="edge2" class="edge"><title>&#45;attrs1&#45;&gt;http://example.org/list1</title>
<path fill="none" stroke="gray" stroke-dasharray="5,2" d="M448.248,-381.231C446.163,-391.699 442.813,-403.892 437.5,-414 433.497,-421.616 427.494,-428.926 421.834,-434.877"/>
</g>
<!-- http://example.org/list2 -->
<g id="node5" class="node"><title>http://example.org/list2</title>
<g id="a_node5"><a xlink:href="http://example.org/list2" xlink:title="list2">
<ellipse fill="#fffc87" stroke="#808080" cx="300.5" cy="-450" rx="27" ry="18"/>
<text text-anchor="middle" x="300.5" y="-446.3" font-family="Times New Roman,serif" font-size="14.00">list2</text>
</a>
</g>
</g>
<!-- &#45;attrs2 -->
<g id="node6" class="node"><title>&#45;attrs2</title>
<polygon fill="none" stroke="gray" points="305.5,-381 241.5,-381 241.5,-332 311.5,-332 311.5,-375 305.5,-381"/>
<polyline fill="none" stroke="gray" points="305.5,-381 305.5,-375 "/>
<polyline fill="none" stroke="gray" points="311.5,-375 305.5,-375 "/>
<text text-anchor="start" x="251.5" y="-366.5" font-family="Times New Roman,serif" font-size="10.00">value:</text>
<text text-anchor="start" x="278.5" y="-366.5" font-family="Times New Roman,serif" font-size="10.00">10000</text>
<text text-anchor="start" x="251.5" y="-353.5" font-family="Times New Roman,serif" font-size="10.00">type:</text>
<text text-anchor="start" x="278.5" y="-353.5" font-family="Times New Roman,serif" font-size="10.00">item</text>
<text text-anchor="start" x="251.5" y="-340.5" font-family="Times New Roman,serif" font-size="10.00">label:</text>
<text text-anchor="start" x="278.5" y="-340.5" font-family="Times New Roman,serif" font-size="10.00">m</text>
</g>
<!-- &#45;attrs2&#45;&gt;http://example.org/list2 -->
<g id="edge3" class="edge"><title>&#45;attrs2&#45;&gt;http://example.org/list2</title>
<path fill="none" stroke="gray" stroke-dasharray="5,2" d="M276.459,-381.272C276.986,-391.523 278.345,-403.535 281.5,-414 283.496,-420.62 286.831,-427.408 290.156,-433.224"/>
</g>
<!-- http://example.org/ed -->
<g id="node7" class="node"><title>http://example.org/ed</title>
<g id="a_node7"><a xlink:href="http://example.org/ed" xlink:title="ed">
<ellipse fill="#fffc87" stroke="#808080" cx="534.5" cy="-450" rx="27" ry="18"/>
<text text-anchor="middle" x="534.5" y="-446.3" font-family="Times New Roman,serif" font-size="14.00">ed</text>
</a>
</g>
</g>
<!-- &#45;attrs3 -->
<g id="node8" class="node"><title>&#45;attrs3</title>
<polygon fill="none" stroke="gray" points="614,-374.5 505,-374.5 505,-338.5 620,-338.5 620,-368.5 614,-374.5"/>
<polyline fill="none" stroke="gray" points="614,-374.5 614,-368.5 "/>
<polyline fill="none" stroke="gray" points="620,-368.5 614,-368.5 "/>
<text text-anchor="start" x="515.5" y="-360.5" font-family="Times New Roman,serif" font-size="10.00">value:</text>
<text text-anchor="start" x="542.5" y="-360.5" font-family="Times New Roman,serif" font-size="10.00">[]</text>
<text text-anchor="start" x="515.5" y="-347.5" font-family="Times New Roman,serif" font-size="10.00">type:</text>
<text text-anchor="start" x="542.5" y="-347.5" font-family="Times New Roman,serif" font-size="10.00">EmptyDictionary</text>
</g>
<!-- &#45;attrs3&#45;&gt;http://example.org/ed -->
<g id="edge4" class="edge"><title>&#45;attrs3&#45;&gt;http://example.org/ed</title>
<path fill="none" stroke="gray" stroke-dasharray="5,2" d="M557.233,-374.71C552.196,-391.173 544.646,-415.844 539.648,-432.176"/>
</g>
<!-- http://example.org/d -->
<g id="node9" class="node"><title>http://example.org/d</title>
<g id="a_node9"><a xlink:href="http://example.org/d" xlink:title="d">
<ellipse fill="#fffc87" stroke="#808080" cx="299.5" cy="-263" rx="27" ry="18"/>
<text text-anchor="middle" x="299.5" y="-259.3" font-family="Times New Roman,serif" font-size="14.00">d</text>
</a>
</g>
</g>
<!-- bn0 -->
<g id="node11" class="node"><title>bn0</title>
<ellipse fill="black" stroke="black" cx="339.5" cy="-356.5" rx="1.8" ry="1.8"/>
</g>
<!-- http://example.org/d&#45;&gt;bn0 -->
<g id="edge6" class="edge"><title>http://example.org/d&#45;&gt;bn0</title>
<path fill="none" stroke="darkgreen" d="M306.651,-280.358C317.258,-304.621 336.225,-348.009 339.124,-354.64"/>
<text text-anchor="middle" x="341" y="-302.8" font-family="Times New Roman,serif" font-size="14.00">der&#45;ins</text>
</g>
<!-- &#45;attrs4 -->
<g id="node10" class="node"><title>&#45;attrs4</title>
<polygon fill="none" stroke="gray" points="358.5,-208 234.5,-208 234.5,-159 364.5,-159 364.5,-202 358.5,-208"/>
<polyline fill="none" stroke="gray" points="358.5,-208 358.5,-202 "/>
<polyline fill="none" stroke="gray" points="364.5,-202 358.5,-202 "/>
<text text-anchor="start" x="244.5" y="-193.5" font-family="Times New Roman,serif" font-size="10.00">value:</text>
<text text-anchor="start" x="271.5" y="-193.5" font-family="Times New Roman,serif" font-size="10.00">[10000, 10001, 10000]</text>
<text text-anchor="start" x="244.5" y="-180.5" font-family="Times New Roman,serif" font-size="10.00">type:</text>
<text text-anchor="start" x="271.5" y="-180.5" font-family="Times New Roman,serif" font-size="10.00">Dictionary</text>
<text text-anchor="start" x="244.5" y="-167.5" font-family="Times New Roman,serif" font-size="10.00">label:</text>
<text text-anchor="start" x="271.5" y="-167.5" font-family="Times New Roman,serif" font-size="10.00">d</text>
</g>
<!-- &#45;attrs4&#45;&gt;http://example.org/d -->
<g id="edge5" class="edge"><title>&#45;attrs4&#45;&gt;http://example.org/d</title>
<path fill="none" stroke="gray" stroke-dasharray="5,2" d="M299.5,-208.174C299.5,-219.925 299.5,-233.869 299.5,-244.62"/>
</g>
<!-- bn0&#45;&gt;http://example.org/list0 -->
<g id="edge8" class="edge"><title>bn0&#45;&gt;http://example.org/list0</title>
<path fill="none" stroke="darkgreen" d="M338.918,-358.545C336.863,-362.15 329.576,-374.214 320.5,-381 280.843,-410.648 226.378,-429.863 191.306,-440.065"/>
<polygon fill="darkgreen" stroke="darkgreen" points="190.194,-436.742 181.519,-442.824 192.093,-443.479 190.194,-436.742"/>
<text text-anchor="middle" x="300.5" y="-402.8" font-family="Times New Roman,serif" font-size="14.00">[0]</text>
</g>
<!-- bn0&#45;&gt;http://example.org/list1 -->
<g id="edge9" class="edge"><title>bn0&#45;&gt;http://example.org/list1</title>
<path fill="none" stroke="darkgreen" d="M340.052,-358.305C343.541,-363.393 362.926,-391.578 379.5,-414 382.296,-417.782 385.3,-421.759 388.253,-425.62"/>
<polygon fill="darkgreen" stroke="darkgreen" points="385.657,-427.986 394.534,-433.77 391.202,-423.713 385.657,-427.986"/>
<text text-anchor="middle" x="387.5" y="-402.8" font-family="Times New Roman,serif" font-size="14.00">[1]</text>
</g>
<!-- bn0&#45;&gt;http://example.org/list2 -->
<g id="edge10" class="edge"><title>bn0&#45;&gt;http://example.org/list2</title>
<path fill="none" stroke="darkgreen" d="M339.214,-358.307C337.401,-363.401 327.273,-391.62 317.5,-414 316.148,-417.095 314.676,-420.317 313.182,-423.497"/>
<polygon fill="darkgreen" stroke="darkgreen" points="309.914,-422.217 308.733,-432.746 316.222,-425.252 309.914,-422.217"/>
<text text-anchor="middle" x="331.5" y="-402.8" font-family="Times New Roman,serif" font-size="14.00">[2]</text>
</g>
<!-- bn0&#45;&gt;http://example.org/ed -->
<g id="edge7" class="edge"><title>bn0&#45;&gt;http://example.org/ed</title>
<path fill="none" stroke="darkgreen" d="M340.745,-358.084C352.965,-363.818 452.097,-410.334 503.628,-434.514"/>
<polygon fill="darkgreen" stroke="darkgreen" points="502.423,-437.815 512.963,-438.894 505.397,-431.478 502.423,-437.815"/>
<text text-anchor="middle" x="463" y="-402.8" font-family="Times New Roman,serif" font-size="14.00">der</text>
</g>
<!-- http://example.org/0 -->
<g id="node12" class="node"><title>http://example.org/0</title>
<g id="a_node12"><a xlink:href="http://example.org/0" xlink:title="0">
<ellipse fill="#fffc87" stroke="#808080" cx="70.5" cy="-263" rx="27" ry="18"/>
<text text-anchor="middle" x="70.5" y="-259.3" font-family="Times New Roman,serif" font-size="14.00">0</text>
</a>
</g>
</g>
<!-- &#45;attrs5 -->
<g id="node13" class="node"><title>&#45;attrs5</title>
<polygon fill="none" stroke="gray" points="99,-201.5 36,-201.5 36,-165.5 105,-165.5 105,-195.5 99,-201.5"/>
<polyline fill="none" stroke="gray" points="99,-201.5 99,-195.5 "/>
<polyline fill="none" stroke="gray" points="105,-195.5 99,-195.5 "/>
<text text-anchor="start" x="46.5" y="-187.5" font-family="Times New Roman,serif" font-size="10.00">value:</text>
<text text-anchor="start" x="73.5" y="-187.5" font-family="Times New Roman,serif" font-size="10.00">0</text>
<text text-anchor="start" x="46.5" y="-174.5" font-family="Times New Roman,serif" font-size="10.00">type:</text>
<text text-anchor="start" x="73.5" y="-174.5" font-family="Times New Roman,serif" font-size="10.00">literal</text>
</g>
<!-- &#45;attrs5&#45;&gt;http://example.org/0 -->
<g id="edge11" class="edge"><title>&#45;attrs5&#45;&gt;http://example.org/0</title>
<path fill="none" stroke="gray" stroke-dasharray="5,2" d="M70.5,-201.7C70.5,-214.543 70.5,-232.017 70.5,-244.848"/>
</g>
<!-- http://example.org/d_ac0 -->
<g id="node14" class="node"><title>http://example.org/d_ac0</title>
<g id="a_node14"><a xlink:href="http://example.org/d_ac0" xlink:title="d_ac0">
<ellipse fill="#fffc87" stroke="#808080" cx="37.5" cy="-104" rx="33.2948" ry="18"/>
<text text-anchor="middle" x="37.5" y="-100.3" font-family="Times New Roman,serif" font-size="14.00">d_ac0</text>
</a>
</g>
</g>
<!-- http://example.org/d_ac0&#45;&gt;http://example.org/list0 -->
<g id="edge18" class="edge"><title>http://example.org/d_ac0&#45;&gt;http://example.org/list0</title>
<path fill="none" stroke="black" d="M27.1757,-121.228C18.4978,-136.443 7.5,-160.137 7.5,-182.5 7.5,-182.5 7.5,-182.5 7.5,-357.5 7.5,-410.305 76.2949,-433.595 120.393,-443.1"/>
<polygon fill="black" stroke="black" points="119.71,-446.533 130.205,-445.078 121.094,-439.671 119.71,-446.533"/>
<text text-anchor="middle" x="34.9136" y="-132.178" font-family="Times New Roman,serif" font-size="8.00">der</text>
</g>
<!-- http://example.org/access1 -->
<g id="node16" class="node"><title>http://example.org/access1</title>
<g id="a_node16"><a xlink:href="http://example.org/access1" xlink:title="access1">
<polygon fill="#9fb1fc" stroke="#0000ff" points="184,-201.5 123,-201.5 123,-165.5 184,-165.5 184,-201.5"/>
<text text-anchor="middle" x="153.5" y="-179.8" font-family="Times New Roman,serif" font-size="14.00">access1</text>
</a>
</g>
</g>
<!-- http://example.org/d_ac0&#45;&gt;http://example.org/access1 -->
<g id="edge17" class="edge"><title>http://example.org/d_ac0&#45;&gt;http://example.org/access1</title>
<path fill="none" stroke="black" d="M57.7057,-118.499C74.6689,-129.833 99.2717,-146.27 119.296,-159.648"/>
<polygon fill="black" stroke="black" points="117.586,-162.715 127.846,-165.36 121.475,-156.895 117.586,-162.715"/>
<text text-anchor="middle" x="71.1584" y="-109.964" font-family="Times New Roman,serif" font-size="8.00">gen</text>
</g>
<!-- &#45;attrs6 -->
<g id="node15" class="node"><title>&#45;attrs6</title>
<polygon fill="none" stroke="gray" points="69,-49 0,-49 0,-0 75,-0 75,-43 69,-49"/>
<polyline fill="none" stroke="gray" points="69,-49 69,-43 "/>
<polyline fill="none" stroke="gray" points="75,-43 69,-43 "/>
<text text-anchor="start" x="10.5" y="-34.5" font-family="Times New Roman,serif" font-size="10.00">value:</text>
<text text-anchor="start" x="37.5" y="-34.5" font-family="Times New Roman,serif" font-size="10.00">10000</text>
<text text-anchor="start" x="10.5" y="-21.5" font-family="Times New Roman,serif" font-size="10.00">type:</text>
<text text-anchor="start" x="37.5" y="-21.5" font-family="Times New Roman,serif" font-size="10.00">access</text>
<text text-anchor="start" x="10.5" y="-8.5" font-family="Times New Roman,serif" font-size="10.00">label:</text>
<text text-anchor="start" x="37.5" y="-8.5" font-family="Times New Roman,serif" font-size="10.00">d[0]</text>
</g>
<!-- &#45;attrs6&#45;&gt;http://example.org/d_ac0 -->
<g id="edge12" class="edge"><title>&#45;attrs6&#45;&gt;http://example.org/d_ac0</title>
<path fill="none" stroke="gray" stroke-dasharray="5,2" d="M37.5,-49.1737C37.5,-60.9254 37.5,-74.869 37.5,-85.6196"/>
</g>
<!-- http://example.org/access1&#45;&gt;http://example.org/list0 -->
<g id="edge16" class="edge"><title>http://example.org/access1&#45;&gt;http://example.org/list0</title>
<path fill="none" stroke="black" d="M151.188,-201.616C146.912,-235.779 138.706,-314.831 144.5,-381 145.689,-394.578 148.189,-409.508 150.6,-421.911"/>
<polygon fill="black" stroke="black" points="147.242,-422.959 152.662,-432.062 154.102,-421.566 147.242,-422.959"/>
<text text-anchor="middle" x="163.194" y="-208.709" font-family="Times New Roman,serif" font-size="8.00">use</text>
</g>
<!-- http://example.org/access1&#45;&gt;http://example.org/d -->
<g id="edge14" class="edge"><title>http://example.org/access1&#45;&gt;http://example.org/d</title>
<path fill="none" stroke="black" d="M184.106,-200.747C209.316,-214.128 244.847,-232.989 269.803,-246.236"/>
<polygon fill="black" stroke="black" points="268.333,-249.418 278.807,-251.016 271.615,-243.236 268.333,-249.418"/>
<text text-anchor="middle" x="196.822" y="-190.889" font-family="Times New Roman,serif" font-size="8.00">use</text>
</g>
<!-- http://example.org/access1&#45;&gt;http://example.org/0 -->
<g id="edge15" class="edge"><title>http://example.org/access1&#45;&gt;http://example.org/0</title>
<path fill="none" stroke="black" d="M135.08,-201.7C122.624,-213.33 106.1,-228.759 92.8853,-241.098"/>
<polygon fill="black" stroke="black" points="90.4631,-238.571 85.5427,-247.954 95.2405,-243.688 90.4631,-238.571"/>
<text text-anchor="middle" x="138.463" y="-214.413" font-family="Times New Roman,serif" font-size="8.00">use</text>
</g>
<!-- &#45;attrs7 -->
<g id="node17" class="node"><title>&#45;attrs7</title>
<polygon fill="none" stroke="gray" points="183,-122 118,-122 118,-86 189,-86 189,-116 183,-122"/>
<polyline fill="none" stroke="gray" points="183,-122 183,-116 "/>
<polyline fill="none" stroke="gray" points="189,-116 183,-116 "/>
<text text-anchor="start" x="128.5" y="-101" font-family="Times New Roman,serif" font-size="10.00">type:</text>
<text text-anchor="start" x="151.5" y="-101" font-family="Times New Roman,serif" font-size="10.00">access</text>
</g>
<!-- &#45;attrs7&#45;&gt;http://example.org/access1 -->
<g id="edge13" class="edge"><title>&#45;attrs7&#45;&gt;http://example.org/access1</title>
<path fill="none" stroke="gray" stroke-dasharray="5,2" d="M153.5,-122.2C153.5,-135.043 153.5,-152.517 153.5,-165.348"/>
</g>
</g>
</svg>
