<?xml version="1.0" encoding="UTF-8" standalone="no"?>
<!DOCTYPE svg PUBLIC "-//W3C//DTD SVG 1.1//EN"
 "http://www.w3.org/Graphics/SVG/1.1/DTD/svg11.dtd">
<!-- Generated by graphviz version 2.38.0 (20140413.2041)
 -->
<!-- Title: PROV Pages: 1 -->
<svg width="774pt" height="664pt"
 viewBox="0.00 0.00 773.50 664.00" xmlns="http://www.w3.org/2000/svg" xmlns:xlink="http://www.w3.org/1999/xlink">
<g id="graph0" class="graph" transform="scale(1 1) rotate(0) translate(4 660)">
<title>PROV</title>
<polygon fill="white" stroke="none" points="-4,4 -4,-660 769.5,-660 769.5,4 -4,4"/>
<!-- http://example.org/list0 -->
<g id="node1" class="node"><title>http://example.org/list0</title>
<g id="a_node1"><a xlink:href="http://example.org/list0" xlink:title="list0">
<ellipse fill="#fffc87" stroke="#808080" cx="239" cy="-638" rx="27" ry="18"/>
<text text-anchor="middle" x="239" y="-634.3" font-family="Times New Roman,serif" font-size="14.00">list0</text>
</a>
</g>
</g>
<!-- &#45;attrs0 -->
<g id="node2" class="node"><title>&#45;attrs0</title>
<polygon fill="none" stroke="gray" points="233,-569 169,-569 169,-520 239,-520 239,-563 233,-569"/>
<polyline fill="none" stroke="gray" points="233,-569 233,-563 "/>
<polyline fill="none" stroke="gray" points="239,-563 233,-563 "/>
<text text-anchor="start" x="179" y="-554.5" font-family="Times New Roman,serif" font-size="10.00">value:</text>
<text text-anchor="start" x="206" y="-554.5" font-family="Times New Roman,serif" font-size="10.00">10000</text>
<text text-anchor="start" x="179" y="-541.5" font-family="Times New Roman,serif" font-size="10.00">type:</text>
<text text-anchor="start" x="206" y="-541.5" font-family="Times New Roman,serif" font-size="10.00">item</text>
<text text-anchor="start" x="179" y="-528.5" font-family="Times New Roman,serif" font-size="10.00">label:</text>
<text text-anchor="start" x="206" y="-528.5" font-family="Times New Roman,serif" font-size="10.00">m</text>
</g>
<!-- &#45;attrs0&#45;&gt;http://example.org/list0 -->
<g id="edge1" class="edge"><title>&#45;attrs0&#45;&gt;http://example.org/list0</title>
<path fill="none" stroke="gray" stroke-dasharray="5,2" d="M213.013,-569.064C219.171,-585.161 227.178,-606.093 232.667,-620.443"/>
</g>
<!-- http://example.org/list1 -->
<g id="node3" class="node"><title>http://example.org/list1</title>
<g id="a_node3"><a xlink:href="http://example.org/list1" xlink:title="list1">
<ellipse fill="#fffc87" stroke="#808080" cx="167" cy="-638" rx="27" ry="18"/>
<text text-anchor="middle" x="167" y="-634.3" font-family="Times New Roman,serif" font-size="14.00">list1</text>
</a>
</g>
</g>
<!-- &#45;attrs1 -->
<g id="node4" class="node"><title>&#45;attrs1</title>
<polygon fill="none" stroke="gray" points="145,-569 81,-569 81,-520 151,-520 151,-563 145,-569"/>
<polyline fill="none" stroke="gray" points="145,-569 145,-563 "/>
<polyline fill="none" stroke="gray" points="151,-563 145,-563 "/>
<text text-anchor="start" x="91" y="-554.5" font-family="Times New Roman,serif" font-size="10.00">value:</text>
<text text-anchor="start" x="118" y="-554.5" font-family="Times New Roman,serif" font-size="10.00">10001</text>
<text text-anchor="start" x="91" y="-541.5" font-family="Times New Roman,serif" font-size="10.00">type:</text>
<text text-anchor="start" x="118" y="-541.5" font-family="Times New Roman,serif" font-size="10.00">item</text>
<text text-anchor="start" x="91" y="-528.5" font-family="Times New Roman,serif" font-size="10.00">label:</text>
<text text-anchor="start" x="118" y="-528.5" font-family="Times New Roman,serif" font-size="10.00">m + 1</text>
</g>
<!-- &#45;attrs1&#45;&gt;http://example.org/list1 -->
<g id="edge2" class="edge"><title>&#45;attrs1&#45;&gt;http://example.org/list1</title>
<path fill="none" stroke="gray" stroke-dasharray="5,2" d="M128.88,-569.192C134.417,-579.32 140.987,-591.262 147,-602 150.488,-608.228 154.371,-615.05 157.782,-621.003"/>
</g>
<!-- http://example.org/list2 -->
<g id="node5" class="node"><title>http://example.org/list2</title>
<g id="a_node5"><a xlink:href="http://example.org/list2" xlink:title="list2">
<ellipse fill="#fffc87" stroke="#808080" cx="393" cy="-638" rx="27" ry="18"/>
<text text-anchor="middle" x="393" y="-634.3" font-family="Times New Roman,serif" font-size="14.00">list2</text>
</a>
</g>
</g>
<!-- &#45;attrs2 -->
<g id="node6" class="node"><title>&#45;attrs2</title>
<polygon fill="none" stroke="gray" points="493,-569 429,-569 429,-520 499,-520 499,-563 493,-569"/>
<polyline fill="none" stroke="gray" points="493,-569 493,-563 "/>
<polyline fill="none" stroke="gray" points="499,-563 493,-563 "/>
<text text-anchor="start" x="439" y="-554.5" font-family="Times New Roman,serif" font-size="10.00">value:</text>
<text text-anchor="start" x="466" y="-554.5" font-family="Times New Roman,serif" font-size="10.00">10000</text>
<text text-anchor="start" x="439" y="-541.5" font-family="Times New Roman,serif" font-size="10.00">type:</text>
<text text-anchor="start" x="466" y="-541.5" font-family="Times New Roman,serif" font-size="10.00">item</text>
<text text-anchor="start" x="439" y="-528.5" font-family="Times New Roman,serif" font-size="10.00">label:</text>
<text text-anchor="start" x="466" y="-528.5" font-family="Times New Roman,serif" font-size="10.00">m</text>
</g>
<!-- &#45;attrs2&#45;&gt;http://example.org/list2 -->
<g id="edge3" class="edge"><title>&#45;attrs2&#45;&gt;http://example.org/list2</title>
<path fill="none" stroke="gray" stroke-dasharray="5,2" d="M463.243,-569.231C461.88,-580.062 458.781,-592.549 452,-602 447.001,-608.967 428.958,-619.171 414.127,-626.765"/>
</g>
<!-- http://example.org/ed -->
<g id="node7" class="node"><title>http://example.org/ed</title>
<g id="a_node7"><a xlink:href="http://example.org/ed" xlink:title="ed">
<ellipse fill="#fffc87" stroke="#808080" cx="468" cy="-638" rx="27" ry="18"/>
<text text-anchor="middle" x="468" y="-634.3" font-family="Times New Roman,serif" font-size="14.00">ed</text>
</a>
</g>
</g>
<!-- &#45;attrs3 -->
<g id="node8" class="node"><title>&#45;attrs3</title>
<polygon fill="none" stroke="gray" points="626.5,-562.5 517.5,-562.5 517.5,-526.5 632.5,-526.5 632.5,-556.5 626.5,-562.5"/>
<polyline fill="none" stroke="gray" points="626.5,-562.5 626.5,-556.5 "/>
<polyline fill="none" stroke="gray" points="632.5,-556.5 626.5,-556.5 "/>
<text text-anchor="start" x="528" y="-548.5" font-family="Times New Roman,serif" font-size="10.00">value:</text>
<text text-anchor="start" x="555" y="-548.5" font-family="Times New Roman,serif" font-size="10.00">[]</text>
<text text-anchor="start" x="528" y="-535.5" font-family="Times New Roman,serif" font-size="10.00">type:</text>
<text text-anchor="start" x="555" y="-535.5" font-family="Times New Roman,serif" font-size="10.00">EmptyDictionary</text>
</g>
<!-- &#45;attrs3&#45;&gt;http://example.org/ed -->
<g id="edge4" class="edge"><title>&#45;attrs3&#45;&gt;http://example.org/ed</title>
<path fill="none" stroke="gray" stroke-dasharray="5,2" d="M573.934,-562.647C572.286,-575.067 568.174,-591.462 558,-602 540.721,-619.897 528.111,-610.795 505,-620 499.877,-622.04 494.442,-624.416 489.359,-626.732"/>
</g>
<!-- http://example.org/d -->
<g id="node9" class="node"><title>http://example.org/d</title>
<g id="a_node9"><a xlink:href="http://example.org/d" xlink:title="d">
<ellipse fill="#fffc87" stroke="#808080" cx="172" cy="-451" rx="27" ry="18"/>
<text text-anchor="middle" x="172" y="-447.3" font-family="Times New Roman,serif" font-size="14.00">d</text>
</a>
</g>
</g>
<!-- bn0 -->
<g id="node11" class="node"><title>bn0</title>
<ellipse fill="black" stroke="black" cx="259" cy="-544.5" rx="1.8" ry="1.8"/>
</g>
<!-- http://example.org/d&#45;&gt;bn0 -->
<g id="edge6" class="edge"><title>http://example.org/d&#45;&gt;bn0</title>
<path fill="none" stroke="darkgreen" d="M189.866,-464.635C206.588,-477.172 231.415,-497.693 248,-520 253.806,-527.808 257.645,-539.17 258.703,-542.53"/>
<text text-anchor="middle" x="251.5" y="-490.8" font-family="Times New Roman,serif" font-size="14.00">der&#45;ins</text>
</g>
<!-- &#45;attrs4 -->
<g id="node10" class="node"><title>&#45;attrs4</title>
<polygon fill="none" stroke="gray" points="124,-396 0,-396 0,-347 130,-347 130,-390 124,-396"/>
<polyline fill="none" stroke="gray" points="124,-396 124,-390 "/>
<polyline fill="none" stroke="gray" points="130,-390 124,-390 "/>
<text text-anchor="start" x="10" y="-381.5" font-family="Times New Roman,serif" font-size="10.00">value:</text>
<text text-anchor="start" x="37" y="-381.5" font-family="Times New Roman,serif" font-size="10.00">[10000, 10001, 10000]</text>
<text text-anchor="start" x="10" y="-368.5" font-family="Times New Roman,serif" font-size="10.00">type:</text>
<text text-anchor="start" x="37" y="-368.5" font-family="Times New Roman,serif" font-size="10.00">Dictionary</text>
<text text-anchor="start" x="10" y="-355.5" font-family="Times New Roman,serif" font-size="10.00">label:</text>
<text text-anchor="start" x="37" y="-355.5" font-family="Times New Roman,serif" font-size="10.00">d</text>
</g>
<!-- &#45;attrs4&#45;&gt;http://example.org/d -->
<g id="edge5" class="edge"><title>&#45;attrs4&#45;&gt;http://example.org/d</title>
<path fill="none" stroke="gray" stroke-dasharray="5,2" d="M97.6849,-396.174C116.368,-409.706 139.064,-426.145 154.421,-437.268"/>
</g>
<!-- bn0&#45;&gt;http://example.org/list0 -->
<g id="edge8" class="edge"><title>bn0&#45;&gt;http://example.org/list0</title>
<path fill="none" stroke="darkgreen" d="M258.603,-546.407C257.215,-549.562 252.428,-560.336 248,-569 243.835,-577.149 240.296,-578.141 238,-587 236.105,-594.312 235.614,-602.429 235.791,-609.959"/>
<polygon fill="darkgreen" stroke="darkgreen" points="232.305,-610.301 236.409,-620.069 239.292,-609.873 232.305,-610.301"/>
<text text-anchor="middle" x="246" y="-590.8" font-family="Times New Roman,serif" font-size="14.00">[0]</text>
</g>
<!-- bn0&#45;&gt;http://example.org/list1 -->
<g id="edge9" class="edge"><title>bn0&#45;&gt;http://example.org/list1</title>
<path fill="none" stroke="darkgreen" d="M258.763,-546.52C257.899,-550.041 254.619,-561.868 248,-569 236.9,-580.961 228.951,-577.074 216,-587 205.555,-595.006 195.179,-605.184 186.683,-614.266"/>
<polygon fill="darkgreen" stroke="darkgreen" points="183.893,-612.131 179.746,-621.881 189.068,-616.845 183.893,-612.131"/>
<text text-anchor="middle" x="224" y="-590.8" font-family="Times New Roman,serif" font-size="14.00">[1]</text>
</g>
<!-- bn0&#45;&gt;http://example.org/list2 -->
<g id="edge10" class="edge"><title>bn0&#45;&gt;http://example.org/list2</title>
<path fill="none" stroke="darkgreen" d="M259.707,-546.413C264.197,-552.156 289.39,-583.646 316,-602 329.553,-611.348 346.006,-619.222 360.217,-625.119"/>
<polygon fill="darkgreen" stroke="darkgreen" points="359.05,-628.422 369.635,-628.88 361.646,-621.921 359.05,-628.422"/>
<text text-anchor="middle" x="324" y="-590.8" font-family="Times New Roman,serif" font-size="14.00">[2]</text>
</g>
<!-- bn0&#45;&gt;http://example.org/ed -->
<g id="edge7" class="edge"><title>bn0&#45;&gt;http://example.org/ed</title>
<path fill="none" stroke="darkgreen" d="M260.584,-545.668C272.826,-547.014 353.383,-556.813 410,-587 417.675,-591.092 432.656,-604.063 445.469,-615.767"/>
<polygon fill="darkgreen" stroke="darkgreen" points="443.363,-618.586 453.083,-622.801 448.113,-613.444 443.363,-618.586"/>
<text text-anchor="middle" x="439.5" y="-590.8" font-family="Times New Roman,serif" font-size="14.00">der</text>
</g>
<!-- http://example.org/ex -->
<g id="node12" class="node"><title>http://example.org/ex</title>
<g id="a_node12"><a xlink:href="http://example.org/ex" xlink:title="ex">
<ellipse fill="#fffc87" stroke="#808080" cx="541" cy="-638" rx="27" ry="18"/>
<text text-anchor="middle" x="541" y="-634.3" font-family="Times New Roman,serif" font-size="14.00">ex</text>
</a>
</g>
</g>
<!-- &#45;attrs5 -->
<g id="node13" class="node"><title>&#45;attrs5</title>
<polygon fill="none" stroke="gray" points="759.5,-562.5 650.5,-562.5 650.5,-526.5 765.5,-526.5 765.5,-556.5 759.5,-562.5"/>
<polyline fill="none" stroke="gray" points="759.5,-562.5 759.5,-556.5 "/>
<polyline fill="none" stroke="gray" points="765.5,-556.5 759.5,-556.5 "/>
<text text-anchor="start" x="661" y="-548.5" font-family="Times New Roman,serif" font-size="10.00">value:</text>
<text text-anchor="start" x="688" y="-548.5" font-family="Times New Roman,serif" font-size="10.00">[]</text>
<text text-anchor="start" x="661" y="-535.5" font-family="Times New Roman,serif" font-size="10.00">type:</text>
<text text-anchor="start" x="688" y="-535.5" font-family="Times New Roman,serif" font-size="10.00">EmptyDictionary</text>
</g>
<!-- &#45;attrs5&#45;&gt;http://example.org/ex -->
<g id="edge11" class="edge"><title>&#45;attrs5&#45;&gt;http://example.org/ex</title>
<path fill="none" stroke="gray" stroke-dasharray="5,2" d="M676.589,-562.71C642.763,-581.243 589.95,-610.18 561.24,-625.91"/>
</g>
<!-- http://example.org/x -->
<g id="node14" class="node"><title>http://example.org/x</title>
<g id="a_node14"><a xlink:href="http://example.org/x" xlink:title="x">
<ellipse fill="#fffc87" stroke="#808080" cx="486" cy="-451" rx="27" ry="18"/>
<text text-anchor="middle" x="486" y="-447.3" font-family="Times New Roman,serif" font-size="14.00">x</text>
</a>
</g>
</g>
<!-- bn1 -->
<g id="node16" class="node"><title>bn1</title>
<ellipse fill="black" stroke="black" cx="393" cy="-544.5" rx="1.8" ry="1.8"/>
</g>
<!-- http://example.org/x&#45;&gt;bn1 -->
<g id="edge13" class="edge"><title>http://example.org/x&#45;&gt;bn1</title>
<path fill="none" stroke="darkgreen" d="M471.469,-466.297C447.356,-490.021 401.014,-535.615 393.92,-542.594"/>
<text text-anchor="middle" x="467.5" y="-490.8" font-family="Times New Roman,serif" font-size="14.00">der&#45;ins</text>
</g>
<!-- &#45;attrs6 -->
<g id="node15" class="node"><title>&#45;attrs6</title>
<polygon fill="none" stroke="gray" points="600,-396 476,-396 476,-347 606,-347 606,-390 600,-396"/>
<polyline fill="none" stroke="gray" points="600,-396 600,-390 "/>
<polyline fill="none" stroke="gray" points="606,-390 600,-390 "/>
<text text-anchor="start" x="486" y="-381.5" font-family="Times New Roman,serif" font-size="10.00">value:</text>
<text text-anchor="start" x="513" y="-381.5" font-family="Times New Roman,serif" font-size="10.00">[10000, 10001, 10000]</text>
<text text-anchor="start" x="486" y="-368.5" font-family="Times New Roman,serif" font-size="10.00">type:</text>
<text text-anchor="start" x="513" y="-368.5" font-family="Times New Roman,serif" font-size="10.00">Dictionary</text>
<text text-anchor="start" x="486" y="-355.5" font-family="Times New Roman,serif" font-size="10.00">label:</text>
<text text-anchor="start" x="513" y="-355.5" font-family="Times New Roman,serif" font-size="10.00">x</text>
</g>
<!-- &#45;attrs6&#45;&gt;http://example.org/x -->
<g id="edge12" class="edge"><title>&#45;attrs6&#45;&gt;http://example.org/x</title>
<path fill="none" stroke="gray" stroke-dasharray="5,2" d="M524.199,-396.174C515.354,-408.638 504.759,-423.567 496.973,-434.538"/>
</g>
<!-- bn1&#45;&gt;http://example.org/list0 -->
<g id="edge15" class="edge"><title>bn1&#45;&gt;http://example.org/list0</title>
<path fill="none" stroke="darkgreen" d="M392.243,-546.432C387.44,-552.296 360.488,-584.395 332,-602 313.922,-613.172 291.708,-621.696 273.524,-627.534"/>
<polygon fill="darkgreen" stroke="darkgreen" points="272.416,-624.213 263.888,-630.501 274.476,-630.903 272.416,-624.213"/>
<text text-anchor="middle" x="361" y="-590.8" font-family="Times New Roman,serif" font-size="14.00">[0]</text>
</g>
<!-- bn1&#45;&gt;http://example.org/list1 -->
<g id="edge16" class="edge"><title>bn1&#45;&gt;http://example.org/list1</title>
<path fill="none" stroke="darkgreen" d="M391.345,-545.972C380.898,-548.974 323.11,-565.976 279,-587 267.303,-592.575 265.724,-596.483 254,-602 232.251,-612.235 225.23,-610.856 203,-620 201.178,-620.749 199.316,-621.543 197.445,-622.361"/>
<polygon fill="darkgreen" stroke="darkgreen" points="195.823,-619.253 188.16,-626.569 198.713,-625.628 195.823,-619.253"/>
<text text-anchor="middle" x="287" y="-590.8" font-family="Times New Roman,serif" font-size="14.00">[1]</text>
</g>
<!-- bn1&#45;&gt;http://example.org/list2 -->
<g id="edge17" class="edge"><title>bn1&#45;&gt;http://example.org/list2</title>
<path fill="none" stroke="darkgreen" d="M393,-546.528C393,-552.685 393,-585.239 393,-609.546"/>
<polygon fill="darkgreen" stroke="darkgreen" points="389.5,-609.682 393,-619.682 396.5,-609.682 389.5,-609.682"/>
<text text-anchor="middle" x="401" y="-590.8" font-family="Times New Roman,serif" font-size="14.00">[2]</text>
</g>
<!-- bn1&#45;&gt;http://example.org/ex -->
<g id="edge14" class="edge"><title>bn1&#45;&gt;http://example.org/ex</title>
<path fill="none" stroke="darkgreen" d="M393.958,-546.49C397.306,-549.917 408.888,-561.47 420,-569 434.48,-578.813 439.656,-578.601 455,-587 474.557,-597.705 496.259,-610.328 512.969,-620.213"/>
<polygon fill="darkgreen" stroke="darkgreen" points="511.309,-623.297 521.694,-625.393 514.882,-617.278 511.309,-623.297"/>
<text text-anchor="middle" x="491.5" y="-590.8" font-family="Times New Roman,serif" font-size="14.00">der</text>
</g>
<!-- http://example.org/1 -->
<g id="node17" class="node"><title>http://example.org/1</title>
<g id="a_node17"><a xlink:href="http://example.org/1" xlink:title="1">
<ellipse fill="#fffc87" stroke="#808080" cx="273" cy="-451" rx="27" ry="18"/>
<text text-anchor="middle" x="273" y="-447.3" font-family="Times New Roman,serif" font-size="14.00">1</text>
</a>
</g>
</g>
<!-- &#45;attrs7 -->
<g id="node18" class="node"><title>&#45;attrs7</title>
<polygon fill="none" stroke="gray" points="249.5,-389.5 186.5,-389.5 186.5,-353.5 255.5,-353.5 255.5,-383.5 249.5,-389.5"/>
<polyline fill="none" stroke="gray" points="249.5,-389.5 249.5,-383.5 "/>
<polyline fill="none" stroke="gray" points="255.5,-383.5 249.5,-383.5 "/>
<text text-anchor="start" x="197" y="-375.5" font-family="Times New Roman,serif" font-size="10.00">value:</text>
<text text-anchor="start" x="224" y="-375.5" font-family="Times New Roman,serif" font-size="10.00">1</text>
<text text-anchor="start" x="197" y="-362.5" font-family="Times New Roman,serif" font-size="10.00">type:</text>
<text text-anchor="start" x="224" y="-362.5" font-family="Times New Roman,serif" font-size="10.00">literal</text>
</g>
<!-- &#45;attrs7&#45;&gt;http://example.org/1 -->
<g id="edge18" class="edge"><title>&#45;attrs7&#45;&gt;http://example.org/1</title>
<path fill="none" stroke="gray" stroke-dasharray="5,2" d="M232.54,-389.7C241.457,-402.989 253.7,-421.236 262.377,-434.168"/>
</g>
<!-- http://example.org/3 -->
<g id="node19" class="node"><title>http://example.org/3</title>
<g id="a_node19"><a xlink:href="http://example.org/3" xlink:title="3">
<ellipse fill="#fffc87" stroke="#808080" cx="360" cy="-451" rx="27" ry="18"/>
<text text-anchor="middle" x="360" y="-447.3" font-family="Times New Roman,serif" font-size="14.00">3</text>
</a>
</g>
</g>
<!-- &#45;attrs8 -->
<g id="node20" class="node"><title>&#45;attrs8</title>
<polygon fill="none" stroke="gray" points="451.5,-389.5 388.5,-389.5 388.5,-353.5 457.5,-353.5 457.5,-383.5 451.5,-389.5"/>
<polyline fill="none" stroke="gray" points="451.5,-389.5 451.5,-383.5 "/>
<polyline fill="none" stroke="gray" points="457.5,-383.5 451.5,-383.5 "/>
<text text-anchor="start" x="399" y="-375.5" font-family="Times New Roman,serif" font-size="10.00">value:</text>
<text text-anchor="start" x="426" y="-375.5" font-family="Times New Roman,serif" font-size="10.00">3</text>
<text text-anchor="start" x="399" y="-362.5" font-family="Times New Roman,serif" font-size="10.00">type:</text>
<text text-anchor="start" x="426" y="-362.5" font-family="Times New Roman,serif" font-size="10.00">literal</text>
</g>
<!-- &#45;attrs8&#45;&gt;http://example.org/3 -->
<g id="edge19" class="edge"><title>&#45;attrs8&#45;&gt;http://example.org/3</title>
<path fill="none" stroke="gray" stroke-dasharray="5,2" d="M409.018,-389.7C397.998,-403.256 382.784,-421.973 372.24,-434.942"/>
</g>
<!-- http://example.org/d_ac1 -->
<g id="node21" class="node"><title>http://example.org/d_ac1</title>
<g id="a_node21"><a xlink:href="http://example.org/d_ac1" xlink:title="d_ac1">
<ellipse fill="#fffc87" stroke="#808080" cx="380" cy="-278" rx="33.2948" ry="18"/>
<text text-anchor="middle" x="380" y="-274.3" font-family="Times New Roman,serif" font-size="14.00">d_ac1</text>
</a>
</g>
</g>
<!-- http://example.org/d_ac1&#45;&gt;http://example.org/3 -->
<g id="edge37" class="edge"><title>http://example.org/d_ac1&#45;&gt;http://example.org/3</title>
<path fill="none" stroke="black" d="M378.009,-296.021C374.535,-325.726 367.339,-387.254 363.171,-422.885"/>
<polygon fill="black" stroke="black" points="359.668,-422.709 361.983,-433.048 366.621,-423.522 359.668,-422.709"/>
<text text-anchor="middle" x="390.04" y="-303.08" font-family="Times New Roman,serif" font-size="8.00">der</text>
</g>
<!-- http://example.org/assign4 -->
<g id="node29" class="node"><title>http://example.org/assign4</title>
<g id="a_node29"><a xlink:href="http://example.org/assign4" xlink:title="assign4">
<polygon fill="#9fb1fc" stroke="#0000ff" points="332,-389.5 274,-389.5 274,-353.5 332,-353.5 332,-389.5"/>
<text text-anchor="middle" x="303" y="-367.8" font-family="Times New Roman,serif" font-size="14.00">assign4</text>
</a>
</g>
</g>
<!-- http://example.org/d_ac1&#45;&gt;http://example.org/assign4 -->
<g id="edge34" class="edge"><title>http://example.org/d_ac1&#45;&gt;http://example.org/assign4</title>
<path fill="none" stroke="black" d="M364.354,-294.302C358.437,-300.294 351.748,-307.323 346,-314 337.541,-323.827 328.774,-335.117 321.38,-345.009"/>
<polygon fill="black" stroke="black" points="318.404,-343.147 315.278,-353.27 324.034,-347.306 318.404,-343.147"/>
<text text-anchor="middle" x="368.359" y="-306.858" font-family="Times New Roman,serif" font-size="8.00">gen</text>
</g>
<!-- &#45;attrs9 -->
<g id="node22" class="node"><title>&#45;attrs9</title>
<polygon fill="none" stroke="gray" points="388.5,-209 319.5,-209 319.5,-173 394.5,-173 394.5,-203 388.5,-209"/>
<polyline fill="none" stroke="gray" points="388.5,-209 388.5,-203 "/>
<polyline fill="none" stroke="gray" points="394.5,-203 388.5,-203 "/>
<text text-anchor="start" x="330" y="-195" font-family="Times New Roman,serif" font-size="10.00">value:</text>
<text text-anchor="start" x="357" y="-195" font-family="Times New Roman,serif" font-size="10.00">3</text>
<text text-anchor="start" x="330" y="-182" font-family="Times New Roman,serif" font-size="10.00">type:</text>
<text text-anchor="start" x="357" y="-182" font-family="Times New Roman,serif" font-size="10.00">access</text>
</g>
<!-- &#45;attrs9&#45;&gt;http://example.org/d_ac1 -->
<g id="edge20" class="edge"><title>&#45;attrs9&#45;&gt;http://example.org/d_ac1</title>
<path fill="none" stroke="gray" stroke-dasharray="5,2" d="M361.654,-209.201C365.671,-224.045 371.439,-245.363 375.431,-260.115"/>
</g>
<!-- http://example.org/d#2 -->
<g id="node23" class="node"><title>http://example.org/d#2</title>
<g id="a_node23"><a xlink:href="http://example.org/d#2" xlink:title="d#2">
<ellipse fill="#fffc87" stroke="#808080" cx="137" cy="-104" rx="27" ry="18"/>
<text text-anchor="middle" x="137" y="-100.3" font-family="Times New Roman,serif" font-size="14.00">d#2</text>
</a>
</g>
</g>
<!-- bn2 -->
<g id="node25" class="node"><title>bn2</title>
<ellipse fill="black" stroke="black" cx="158" cy="-191" rx="1.8" ry="1.8"/>
</g>
<!-- http://example.org/d#2&#45;&gt;bn2 -->
<g id="edge22" class="edge"><title>http://example.org/d#2&#45;&gt;bn2</title>
<path fill="none" stroke="darkgreen" d="M141.149,-121.793C146.695,-144.243 156.028,-182.02 157.73,-188.906"/>
<text text-anchor="middle" x="168.5" y="-143.8" font-family="Times New Roman,serif" font-size="14.00">der&#45;ins</text>
</g>
<!-- http://example.org/d#2&#45;&gt;http://example.org/assign4 -->
<g id="edge35" class="edge"><title>http://example.org/d#2&#45;&gt;http://example.org/assign4</title>
<path fill="none" stroke="black" d="M132.786,-121.793C123.501,-163.196 106.209,-271.001 161,-329 192.913,-362.781 220.469,-330.731 264,-347 265.435,-347.536 266.876,-348.126 268.314,-348.758"/>
<polygon fill="black" stroke="black" points="267.153,-352.09 277.664,-353.424 270.279,-345.827 267.153,-352.09"/>
<text text-anchor="middle" x="143.996" y="-129.86" font-family="Times New Roman,serif" font-size="8.00">gen</text>
</g>
<!-- &#45;attrs10 -->
<g id="node24" class="node"><title>&#45;attrs10</title>
<polygon fill="none" stroke="gray" points="187,-49 81,-49 81,-0 193,-0 193,-43 187,-49"/>
<polyline fill="none" stroke="gray" points="187,-49 187,-43 "/>
<polyline fill="none" stroke="gray" points="193,-43 187,-43 "/>
<text text-anchor="start" x="91" y="-34.5" font-family="Times New Roman,serif" font-size="10.00">value:</text>
<text text-anchor="start" x="118" y="-34.5" font-family="Times New Roman,serif" font-size="10.00">[10000, 3, 10000]</text>
<text text-anchor="start" x="91" y="-21.5" font-family="Times New Roman,serif" font-size="10.00">type:</text>
<text text-anchor="start" x="118" y="-21.5" font-family="Times New Roman,serif" font-size="10.00">Dictionary</text>
<text text-anchor="start" x="91" y="-8.5" font-family="Times New Roman,serif" font-size="10.00">label:</text>
<text text-anchor="start" x="118" y="-8.5" font-family="Times New Roman,serif" font-size="10.00">d</text>
</g>
<!-- &#45;attrs10&#45;&gt;http://example.org/d#2 -->
<g id="edge21" class="edge"><title>&#45;attrs10&#45;&gt;http://example.org/d#2</title>
<path fill="none" stroke="gray" stroke-dasharray="5,2" d="M137,-49.1737C137,-60.9254 137,-74.869 137,-85.6196"/>
</g>
<!-- bn2&#45;&gt;http://example.org/d -->
<g id="edge23" class="edge"><title>bn2&#45;&gt;http://example.org/d</title>
<path fill="none" stroke="darkgreen" d="M158.062,-193.15C158.861,-207.858 167.101,-359.711 170.523,-422.775"/>
<polygon fill="darkgreen" stroke="darkgreen" points="167.029,-422.989 171.066,-432.784 174.019,-422.609 167.029,-422.989"/>
<text text-anchor="middle" x="175.5" y="-317.8" font-family="Times New Roman,serif" font-size="14.00">der</text>
</g>
<!-- bn2&#45;&gt;http://example.org/d_ac1 -->
<g id="edge24" class="edge"><title>bn2&#45;&gt;http://example.org/d_ac1</title>
<path fill="none" stroke="darkgreen" d="M159.147,-192.421C170.464,-196.583 263.337,-230.791 338,-260 340.225,-260.871 342.514,-261.774 344.819,-262.69"/>
<polygon fill="darkgreen" stroke="darkgreen" points="343.688,-266.007 354.272,-266.476 346.29,-259.509 343.688,-266.007"/>
<text text-anchor="middle" x="297" y="-230.8" font-family="Times New Roman,serif" font-size="14.00">[1]</text>
</g>
<!-- http://example.org/x#2 -->
<g id="node26" class="node"><title>http://example.org/x#2</title>
<g id="a_node26"><a xlink:href="http://example.org/x#2" xlink:title="x#2">
<ellipse fill="#fffc87" stroke="#808080" cx="303" cy="-104" rx="27" ry="18"/>
<text text-anchor="middle" x="303" y="-100.3" font-family="Times New Roman,serif" font-size="14.00">x#2</text>
</a>
</g>
</g>
<!-- bn3 -->
<g id="node28" class="node"><title>bn3</title>
<ellipse fill="black" stroke="black" cx="414" cy="-191" rx="1.8" ry="1.8"/>
</g>
<!-- http://example.org/x#2&#45;&gt;bn3 -->
<g id="edge26" class="edge"><title>http://example.org/x#2&#45;&gt;bn3</title>
<path fill="none" stroke="darkgreen" d="M323.533,-115.713C345.08,-127.651 379.08,-148.527 403,-173 408.111,-178.229 412.178,-186.184 413.524,-188.983"/>
<text text-anchor="middle" x="400.5" y="-143.8" font-family="Times New Roman,serif" font-size="14.00">der&#45;ins</text>
</g>
<!-- http://example.org/x#2&#45;&gt;http://example.org/assign4 -->
<g id="edge36" class="edge"><title>http://example.org/x#2&#45;&gt;http://example.org/assign4</title>
<path fill="none" stroke="black" d="M292.249,-120.97C271.448,-153.922 229.477,-231.749 250,-296 255.839,-314.282 267.985,-331.913 279.178,-345.43"/>
<polygon fill="black" stroke="black" points="276.774,-348.002 285.959,-353.283 282.073,-343.427 276.774,-348.002"/>
<text text-anchor="middle" x="299.454" y="-132.226" font-family="Times New Roman,serif" font-size="8.00">gen</text>
</g>
<!-- &#45;attrs11 -->
<g id="node27" class="node"><title>&#45;attrs11</title>
<polygon fill="none" stroke="gray" points="353,-49 247,-49 247,-0 359,-0 359,-43 353,-49"/>
<polyline fill="none" stroke="gray" points="353,-49 353,-43 "/>
<polyline fill="none" stroke="gray" points="359,-43 353,-43 "/>
<text text-anchor="start" x="257" y="-34.5" font-family="Times New Roman,serif" font-size="10.00">value:</text>
<text text-anchor="start" x="284" y="-34.5" font-family="Times New Roman,serif" font-size="10.00">[10000, 3, 10000]</text>
<text text-anchor="start" x="257" y="-21.5" font-family="Times New Roman,serif" font-size="10.00">type:</text>
<text text-anchor="start" x="284" y="-21.5" font-family="Times New Roman,serif" font-size="10.00">Dictionary</text>
<text text-anchor="start" x="257" y="-8.5" font-family="Times New Roman,serif" font-size="10.00">label:</text>
<text text-anchor="start" x="284" y="-8.5" font-family="Times New Roman,serif" font-size="10.00">x</text>
</g>
<!-- &#45;attrs11&#45;&gt;http://example.org/x#2 -->
<g id="edge25" class="edge"><title>&#45;attrs11&#45;&gt;http://example.org/x#2</title>
<path fill="none" stroke="gray" stroke-dasharray="5,2" d="M303,-49.1737C303,-60.9254 303,-74.869 303,-85.6196"/>
</g>
<!-- bn3&#45;&gt;http://example.org/x -->
<g id="edge27" class="edge"><title>bn3&#45;&gt;http://example.org/x</title>
<path fill="none" stroke="darkgreen" d="M415.316,-192.481C430.237,-198.022 567.949,-251.3 615,-347 624.609,-366.543 627.065,-377.87 615,-396 594.666,-426.556 553.362,-439.855 522.946,-445.622"/>
<polygon fill="darkgreen" stroke="darkgreen" points="521.966,-442.239 512.693,-447.364 523.138,-449.14 521.966,-442.239"/>
<text text-anchor="middle" x="614.5" y="-317.8" font-family="Times New Roman,serif" font-size="14.00">der</text>
</g>
<!-- bn3&#45;&gt;http://example.org/d_ac1 -->
<g id="edge28" class="edge"><title>bn3&#45;&gt;http://example.org/d_ac1</title>
<path fill="none" stroke="darkgreen" d="M413.618,-192.955C411.356,-198.611 399.501,-228.247 390.504,-250.74"/>
<polygon fill="darkgreen" stroke="darkgreen" points="387.202,-249.571 386.738,-260.156 393.701,-252.171 387.202,-249.571"/>
<text text-anchor="middle" x="408" y="-230.8" font-family="Times New Roman,serif" font-size="14.00">[1]</text>
</g>
<!-- http://example.org/assign4&#45;&gt;http://example.org/d -->
<g id="edge30" class="edge"><title>http://example.org/assign4&#45;&gt;http://example.org/d</title>
<path fill="none" stroke="black" d="M274.481,-389.736C270.955,-391.852 267.397,-393.98 264,-396 242.854,-408.576 218.881,-422.641 200.708,-433.264"/>
<polygon fill="black" stroke="black" points="198.65,-430.413 191.78,-438.478 202.18,-436.457 198.65,-430.413"/>
<text text-anchor="middle" x="274.732" y="-402.834" font-family="Times New Roman,serif" font-size="8.00">use</text>
</g>
<!-- http://example.org/assign4&#45;&gt;http://example.org/x -->
<g id="edge31" class="edge"><title>http://example.org/assign4&#45;&gt;http://example.org/x</title>
<path fill="none" stroke="black" d="M332.402,-384.952C365.783,-399.088 420.041,-422.066 454.333,-436.589"/>
<polygon fill="black" stroke="black" points="453.292,-439.949 463.865,-440.626 456.021,-433.503 453.292,-439.949"/>
<text text-anchor="middle" x="344.374" y="-374.015" font-family="Times New Roman,serif" font-size="8.00">use</text>
</g>
<!-- http://example.org/assign4&#45;&gt;http://example.org/1 -->
<g id="edge32" class="edge"><title>http://example.org/assign4&#45;&gt;http://example.org/1</title>
<path fill="none" stroke="black" d="M296.342,-389.7C292.443,-399.771 287.443,-412.69 283.07,-423.985"/>
<polygon fill="black" stroke="black" points="279.779,-422.791 279.433,-433.38 286.307,-425.318 279.779,-422.791"/>
<text text-anchor="middle" x="305.749" y="-399.483" font-family="Times New Roman,serif" font-size="8.00">use</text>
</g>
<!-- http://example.org/assign4&#45;&gt;http://example.org/3 -->
<g id="edge33" class="edge"><title>http://example.org/assign4&#45;&gt;http://example.org/3</title>
<path fill="none" stroke="black" d="M315.65,-389.7C323.568,-400.465 333.879,-414.484 342.566,-426.295"/>
<polygon fill="black" stroke="black" points="339.802,-428.445 348.547,-434.427 345.441,-424.298 339.802,-428.445"/>
<text text-anchor="middle" x="330.559" y="-386.145" font-family="Times New Roman,serif" font-size="8.00">use</text>
</g>
<!-- &#45;attrs12 -->
<g id="node30" class="node"><title>&#45;attrs12</title>
<polygon fill="none" stroke="gray" points="323,-296 259,-296 259,-260 329,-260 329,-290 323,-296"/>
<polyline fill="none" stroke="gray" points="323,-296 323,-290 "/>
<polyline fill="none" stroke="gray" points="329,-290 323,-290 "/>
<text text-anchor="start" x="269" y="-275" font-family="Times New Roman,serif" font-size="10.00">type:</text>
<text text-anchor="start" x="292" y="-275" font-family="Times New Roman,serif" font-size="10.00">assign</text>
</g>
<!-- &#45;attrs12&#45;&gt;http://example.org/assign4 -->
<g id="edge29" class="edge"><title>&#45;attrs12&#45;&gt;http://example.org/assign4</title>
<path fill="none" stroke="gray" stroke-dasharray="5,2" d="M295.693,-296.21C297.302,-312.569 299.708,-337.034 301.315,-353.367"/>
</g>
</g>
</svg>
