<?xml version="1.0" encoding="UTF-8" standalone="no"?>
<!DOCTYPE svg PUBLIC "-//W3C//DTD SVG 1.1//EN"
 "http://www.w3.org/Graphics/SVG/1.1/DTD/svg11.dtd">
<!-- Generated by graphviz version 2.38.0 (20140413.2041)
 -->
<!-- Title: PROV Pages: 1 -->
<svg width="347pt" height="336pt"
 viewBox="0.00 0.00 346.50 336.00" xmlns="http://www.w3.org/2000/svg" xmlns:xlink="http://www.w3.org/1999/xlink">
<g id="graph0" class="graph" transform="scale(1 1) rotate(0) translate(4 332)">
<title>PROV</title>
<polygon fill="white" stroke="none" points="-4,4 -4,-332 342.5,-332 342.5,4 -4,4"/>
<!-- http://example.org/len_dist -->
<g id="node1" class="node"><title>http://example.org/len_dist</title>
<g id="a_node1"><a xlink:href="http://example.org/len_dist" xlink:title="len_dist">
<ellipse fill="#fafafa" stroke="#f0f0f0" cx="231.5" cy="-164" rx="38.9931" ry="18"/>
<text text-anchor="middle" x="231.5" y="-160.3" font-family="Times New Roman,serif" font-size="14.00" fill="#f0f0f0">len_dist</text>
</a>
</g>
</g>
<!-- http://example.org/len_dist_v1 -->
<g id="node2" class="node"><title>http://example.org/len_dist_v1</title>
<g id="a_node2"><a xlink:href="http://example.org/len_dist_v1" xlink:title="len_dist_v1">
<ellipse fill="#fffc87" stroke="#808080" cx="110.5" cy="-237" rx="52.7911" ry="18"/>
<text text-anchor="middle" x="110.5" y="-233.3" font-family="Times New Roman,serif" font-size="14.00">len_dist_v1</text>
</a>
</g>
</g>
<!-- http://example.org/len_dist&#45;&gt;http://example.org/len_dist_v1 -->
<g id="edge2" class="edge"><title>http://example.org/len_dist&#45;&gt;http://example.org/len_dist_v1</title>
<path fill="none" stroke="black" d="M208.456,-178.522C190.418,-189.106 165.056,-203.988 144.658,-215.957"/>
<polygon fill="black" stroke="black" points="142.822,-212.976 135.968,-221.056 146.364,-219.014 142.822,-212.976"/>
<text text-anchor="middle" x="208.562" y="-191.621" font-family="Times New Roman,serif" font-size="8.00">spe</text>
</g>
<!-- http://example.org/call1 -->
<g id="node4" class="node"><title>http://example.org/call1</title>
<g id="a_node4"><a xlink:href="http://example.org/call1" xlink:title="call1">
<polygon fill="#fafafa" stroke="#f0f0f0" points="258.5,-255 204.5,-255 204.5,-219 258.5,-219 258.5,-255"/>
<text text-anchor="middle" x="231.5" y="-233.3" font-family="Times New Roman,serif" font-size="14.00" fill="#f0f0f0">call1</text>
</a>
</g>
</g>
<!-- http://example.org/len_dist&#45;&gt;http://example.org/call1 -->
<g id="edge4" class="edge"><title>http://example.org/len_dist&#45;&gt;http://example.org/call1</title>
<path fill="none" stroke="#f0f0f0" d="M231.5,-182.187C231.5,-190.211 231.5,-199.953 231.5,-208.931"/>
<polygon fill="#f0f0f0" stroke="#f0f0f0" points="228,-208.971 231.5,-218.971 235,-208.971 228,-208.971"/>
<text text-anchor="middle" x="244.49" y="-187.787" font-family="Times New Roman,serif" font-size="8.00" fill="#f0f0f0">gen</text>
</g>
<!-- &#45;attrs0 -->
<g id="node3" class="node"><title>&#45;attrs0</title>
<polygon fill="none" stroke="gray" points="169,-182 0,-182 0,-146 175,-146 175,-176 169,-182"/>
<polyline fill="none" stroke="gray" points="169,-182 169,-176 "/>
<polyline fill="none" stroke="gray" points="175,-176 169,-176 "/>
<text text-anchor="start" x="10.5" y="-168" font-family="Times New Roman,serif" font-size="10.00">checkpoint:</text>
<text text-anchor="start" x="59.5" y="-168" font-family="Times New Roman,serif" font-size="10.00">2018&#45;03&#45;10 05:24:54.409434</text>
<text text-anchor="start" x="10.5" y="-155" font-family="Times New Roman,serif" font-size="10.00">type:</text>
<text text-anchor="start" x="59.5" y="-155" font-family="Times New Roman,serif" font-size="10.00">Version</text>
</g>
<!-- &#45;attrs0&#45;&gt;http://example.org/len_dist_v1 -->
<g id="edge1" class="edge"><title>&#45;attrs0&#45;&gt;http://example.org/len_dist_v1</title>
<path fill="none" stroke="gray" stroke-dasharray="5,2" d="M93.0677,-182.187C96.6838,-193.35 101.378,-207.84 104.984,-218.971"/>
</g>
<!-- http://example.org/dist -->
<g id="node5" class="node"><title>http://example.org/dist</title>
<ellipse fill="none" stroke="black" cx="231.5" cy="-310" rx="91.784" ry="18"/>
<text text-anchor="middle" x="231.5" y="-306.3" font-family="Times New Roman,serif" font-size="14.00">http://example.org/dist</text>
</g>
<!-- http://example.org/call1&#45;&gt;http://example.org/dist -->
<g id="edge3" class="edge"><title>http://example.org/call1&#45;&gt;http://example.org/dist</title>
<path fill="none" stroke="#f0f0f0" d="M231.5,-255.187C231.5,-263.211 231.5,-272.953 231.5,-281.931"/>
<polygon fill="#f0f0f0" stroke="#f0f0f0" points="228,-281.971 231.5,-291.971 235,-281.971 228,-281.971"/>
<text text-anchor="middle" x="244.49" y="-260.787" font-family="Times New Roman,serif" font-size="8.00" fill="#f0f0f0">use</text>
</g>
<!-- http://example.org/nodes -->
<g id="node6" class="node"><title>http://example.org/nodes</title>
<g id="a_node6"><a xlink:href="http://example.org/nodes" xlink:title="nodes">
<ellipse fill="#fafafa" stroke="#f0f0f0" cx="198.5" cy="-18" rx="32.4942" ry="18"/>
<text text-anchor="middle" x="198.5" y="-14.3" font-family="Times New Roman,serif" font-size="14.00" fill="#f0f0f0">nodes</text>
</a>
</g>
</g>
<!-- http://example.org/nodes&#45;&gt;http://example.org/len_dist -->
<g id="edge5" class="edge"><title>http://example.org/nodes&#45;&gt;http://example.org/len_dist</title>
<path fill="none" stroke="#f0f0f0" d="M184.537,-34.2598C169.722,-52.3997 150.043,-83.4328 162.5,-109 169.824,-124.032 183.58,-136.111 196.894,-145.001"/>
<polygon fill="#f0f0f0" stroke="#f0f0f0" points="195.171,-148.052 205.507,-150.382 198.88,-142.115 195.171,-148.052"/>
<text text-anchor="middle" x="217" y="-93.6" font-family="Times New Roman,serif" font-size="8.00" fill="#f0f0f0">der ref</text>
<text text-anchor="middle" x="217" y="-84.6" font-family="Times New Roman,serif" font-size="8.00" fill="#f0f0f0">2018&#45;03&#45;10T05:24:54.409434</text>
</g>
<!-- http://example.org/assign5 -->
<g id="node7" class="node"><title>http://example.org/assign5</title>
<g id="a_node7"><a xlink:href="http://example.org/assign5" xlink:title="assign5">
<polygon fill="#fafafa" stroke="#f0f0f0" points="338.5,-109 280.5,-109 280.5,-73 338.5,-73 338.5,-109"/>
<text text-anchor="middle" x="309.5" y="-87.3" font-family="Times New Roman,serif" font-size="14.00" fill="#f0f0f0">assign5</text>
</a>
</g>
</g>
<!-- http://example.org/nodes&#45;&gt;http://example.org/assign5 -->
<g id="edge7" class="edge"><title>http://example.org/nodes&#45;&gt;http://example.org/assign5</title>
<path fill="none" stroke="#f0f0f0" d="M219.118,-32.1882C234.528,-42.0447 255.97,-55.7603 274.103,-67.3586"/>
<polygon fill="#f0f0f0" stroke="#f0f0f0" points="272.387,-70.416 282.697,-72.856 276.159,-64.5192 272.387,-70.416"/>
<text text-anchor="middle" x="232.436" y="-23.3862" font-family="Times New Roman,serif" font-size="8.00" fill="#f0f0f0">gen</text>
</g>
<!-- http://example.org/assign5&#45;&gt;http://example.org/len_dist -->
<g id="edge6" class="edge"><title>http://example.org/assign5&#45;&gt;http://example.org/len_dist</title>
<path fill="none" stroke="#f0f0f0" d="M290.618,-109.187C280.141,-118.724 266.997,-130.689 255.764,-140.913"/>
<polygon fill="#f0f0f0" stroke="#f0f0f0" points="253.389,-138.343 248.35,-147.662 258.101,-143.519 253.389,-138.343"/>
<text text-anchor="middle" x="293.816" y="-121.942" font-family="Times New Roman,serif" font-size="8.00" fill="#f0f0f0">use</text>
</g>
</g>
</svg>
