<?xml version="1.0" encoding="UTF-8" standalone="no"?>
<!DOCTYPE svg PUBLIC "-//W3C//DTD SVG 1.1//EN"
 "http://www.w3.org/Graphics/SVG/1.1/DTD/svg11.dtd">
<!-- Generated by graphviz version 2.38.0 (20140413.2041)
 -->
<!-- Title: PROV Pages: 1 -->
<svg width="394pt" height="387pt"
 viewBox="0.00 0.00 393.50 387.00" xmlns="http://www.w3.org/2000/svg" xmlns:xlink="http://www.w3.org/1999/xlink">
<g id="graph0" class="graph" transform="scale(1 1) rotate(0) translate(4 383)">
<title>PROV</title>
<polygon fill="white" stroke="none" points="-4,4 -4,-383 389.5,-383 389.5,4 -4,4"/>
<!-- http://example.org/len_dist -->
<g id="node1" class="node"><title>http://example.org/len_dist</title>
<g id="a_node1"><a xlink:href="http://example.org/len_dist" xlink:title="len_dist">
<ellipse fill="#fafafa" stroke="#f0f0f0" cx="231.5" cy="-198" rx="38.9931" ry="18"/>
<text text-anchor="middle" x="231.5" y="-194.3" font-family="Times New Roman,serif" font-size="14.00" fill="#f0f0f0">len_dist</text>
</a>
</g>
</g>
<!-- http://example.org/call1 -->
<g id="node2" class="node"><title>http://example.org/call1</title>
<g id="a_node2"><a xlink:href="http://example.org/call1" xlink:title="call1">
<polygon fill="#fafafa" stroke="#f0f0f0" points="258.5,-289 204.5,-289 204.5,-253 258.5,-253 258.5,-289"/>
<text text-anchor="middle" x="231.5" y="-267.3" font-family="Times New Roman,serif" font-size="14.00" fill="#f0f0f0">call1</text>
</a>
</g>
</g>
<!-- http://example.org/len_dist&#45;&gt;http://example.org/call1 -->
<g id="edge2" class="edge"><title>http://example.org/len_dist&#45;&gt;http://example.org/call1</title>
<path fill="none" stroke="#f0f0f0" d="M231.5,-216.187C231.5,-224.211 231.5,-233.953 231.5,-242.931"/>
<polygon fill="#f0f0f0" stroke="#f0f0f0" points="228,-242.971 231.5,-252.971 235,-242.971 228,-242.971"/>
<text text-anchor="middle" x="244.49" y="-221.787" font-family="Times New Roman,serif" font-size="8.00" fill="#f0f0f0">gen</text>
</g>
<!-- http://example.org/len_dist_v1 -->
<g id="node4" class="node"><title>http://example.org/len_dist_v1</title>
<g id="a_node4"><a xlink:href="http://example.org/len_dist_v1" xlink:title="len_dist_v1">
<ellipse fill="#fffc87" stroke="#808080" cx="110.5" cy="-271" rx="52.7911" ry="18"/>
<text text-anchor="middle" x="110.5" y="-267.3" font-family="Times New Roman,serif" font-size="14.00">len_dist_v1</text>
</a>
</g>
</g>
<!-- http://example.org/len_dist&#45;&gt;http://example.org/len_dist_v1 -->
<g id="edge4" class="edge"><title>http://example.org/len_dist&#45;&gt;http://example.org/len_dist_v1</title>
<path fill="none" stroke="black" d="M208.456,-212.522C190.418,-223.106 165.056,-237.988 144.658,-249.957"/>
<polygon fill="black" stroke="black" points="142.822,-246.976 135.968,-255.056 146.364,-253.014 142.822,-246.976"/>
<text text-anchor="middle" x="208.562" y="-225.621" font-family="Times New Roman,serif" font-size="8.00">spe</text>
</g>
<!-- http://example.org/dist -->
<g id="node3" class="node"><title>http://example.org/dist</title>
<ellipse fill="none" stroke="black" cx="231.5" cy="-361" rx="91.784" ry="18"/>
<text text-anchor="middle" x="231.5" y="-357.3" font-family="Times New Roman,serif" font-size="14.00">http://example.org/dist</text>
</g>
<!-- http://example.org/call1&#45;&gt;http://example.org/dist -->
<g id="edge1" class="edge"><title>http://example.org/call1&#45;&gt;http://example.org/dist</title>
<path fill="none" stroke="#f0f0f0" d="M231.5,-289.386C231.5,-301.76 231.5,-318.631 231.5,-332.78"/>
<polygon fill="#f0f0f0" stroke="#f0f0f0" points="228,-332.95 231.5,-342.95 235,-332.95 228,-332.95"/>
<text text-anchor="middle" x="286" y="-318.6" font-family="Times New Roman,serif" font-size="8.00" fill="#f0f0f0">use</text>
<text text-anchor="middle" x="286" y="-309.6" font-family="Times New Roman,serif" font-size="8.00" fill="#f0f0f0">2018&#45;03&#45;19T17:43:46.266329</text>
</g>
<!-- &#45;attrs0 -->
<g id="node5" class="node"><title>&#45;attrs0</title>
<polygon fill="none" stroke="gray" points="169,-216 0,-216 0,-180 175,-180 175,-210 169,-216"/>
<polyline fill="none" stroke="gray" points="169,-216 169,-210 "/>
<polyline fill="none" stroke="gray" points="175,-210 169,-210 "/>
<text text-anchor="start" x="10.5" y="-202" font-family="Times New Roman,serif" font-size="10.00">checkpoint:</text>
<text text-anchor="start" x="59.5" y="-202" font-family="Times New Roman,serif" font-size="10.00">2018&#45;03&#45;19 17:43:46.266329</text>
<text text-anchor="start" x="10.5" y="-189" font-family="Times New Roman,serif" font-size="10.00">type:</text>
<text text-anchor="start" x="59.5" y="-189" font-family="Times New Roman,serif" font-size="10.00">Version</text>
</g>
<!-- &#45;attrs0&#45;&gt;http://example.org/len_dist_v1 -->
<g id="edge3" class="edge"><title>&#45;attrs0&#45;&gt;http://example.org/len_dist_v1</title>
<path fill="none" stroke="gray" stroke-dasharray="5,2" d="M93.0677,-216.187C96.6838,-227.35 101.378,-241.84 104.984,-252.971"/>
</g>
<!-- http://example.org/nodes -->
<g id="node6" class="node"><title>http://example.org/nodes</title>
<g id="a_node6"><a xlink:href="http://example.org/nodes" xlink:title="nodes">
<ellipse fill="#fafafa" stroke="#f0f0f0" cx="200.5" cy="-18" rx="32.4942" ry="18"/>
<text text-anchor="middle" x="200.5" y="-14.3" font-family="Times New Roman,serif" font-size="14.00" fill="#f0f0f0">nodes</text>
</a>
</g>
</g>
<!-- http://example.org/nodes&#45;&gt;http://example.org/len_dist -->
<g id="edge5" class="edge"><title>http://example.org/nodes&#45;&gt;http://example.org/len_dist</title>
<path fill="none" stroke="#f0f0f0" d="M187.598,-34.7571C172.047,-55.7708 149.526,-94.0346 162.5,-126 170.627,-146.023 187.412,-163.502 202.392,-176.108"/>
<polygon fill="#f0f0f0" stroke="#f0f0f0" points="200.475,-179.058 210.462,-182.595 204.861,-173.602 200.475,-179.058"/>
<text text-anchor="middle" x="217" y="-110.6" font-family="Times New Roman,serif" font-size="8.00" fill="#f0f0f0">der ref</text>
<text text-anchor="middle" x="217" y="-101.6" font-family="Times New Roman,serif" font-size="8.00" fill="#f0f0f0">2018&#45;03&#45;19T17:43:46.266830</text>
</g>
<!-- http://example.org/assign5 -->
<g id="node7" class="node"><title>http://example.org/assign5</title>
<g id="a_node7"><a xlink:href="http://example.org/assign5" xlink:title="assign5">
<polygon fill="#fafafa" stroke="#f0f0f0" points="338.5,-126 280.5,-126 280.5,-90 338.5,-90 338.5,-126"/>
<text text-anchor="middle" x="309.5" y="-104.3" font-family="Times New Roman,serif" font-size="14.00" fill="#f0f0f0">assign5</text>
</a>
</g>
</g>
<!-- http://example.org/nodes&#45;&gt;http://example.org/assign5 -->
<g id="edge7" class="edge"><title>http://example.org/nodes&#45;&gt;http://example.org/assign5</title>
<path fill="none" stroke="#f0f0f0" d="M218.499,-33.5314C235.218,-47.0294 260.419,-67.375 280.065,-83.2358"/>
<polygon fill="#f0f0f0" stroke="#f0f0f0" points="278.124,-86.1671 288.103,-89.7256 282.521,-80.7206 278.124,-86.1671"/>
<text text-anchor="middle" x="319" y="-65.6" font-family="Times New Roman,serif" font-size="8.00" fill="#f0f0f0">gen</text>
<text text-anchor="middle" x="319" y="-56.6" font-family="Times New Roman,serif" font-size="8.00" fill="#f0f0f0">2018&#45;03&#45;19T17:43:46.266830</text>
</g>
<!-- http://example.org/assign5&#45;&gt;http://example.org/len_dist -->
<g id="edge6" class="edge"><title>http://example.org/assign5&#45;&gt;http://example.org/len_dist</title>
<path fill="none" stroke="#f0f0f0" d="M294.09,-126.386C282.177,-139.826 265.561,-158.572 252.443,-173.372"/>
<polygon fill="#f0f0f0" stroke="#f0f0f0" points="249.581,-171.324 245.567,-181.129 254.82,-175.967 249.581,-171.324"/>
<text text-anchor="middle" x="331" y="-155.6" font-family="Times New Roman,serif" font-size="8.00" fill="#f0f0f0">use</text>
<text text-anchor="middle" x="331" y="-146.6" font-family="Times New Roman,serif" font-size="8.00" fill="#f0f0f0">2018&#45;03&#45;19T17:43:46.266830</text>
</g>
</g>
</svg>
