<?xml version="1.0" encoding="UTF-8" standalone="no"?>
<!DOCTYPE svg PUBLIC "-//W3C//DTD SVG 1.1//EN"
 "http://www.w3.org/Graphics/SVG/1.1/DTD/svg11.dtd">
<!-- Generated by graphviz version 2.38.0 (20140413.2041)
 -->
<!-- Title: PROV Pages: 1 -->
<svg width="1152pt" height="491pt"
 viewBox="0.00 0.00 1152.00 490.66" xmlns="http://www.w3.org/2000/svg" xmlns:xlink="http://www.w3.org/1999/xlink">
<g id="graph0" class="graph" transform="scale(0.950899 0.950899) rotate(0) translate(4 512)">
<title>PROV</title>
<polygon fill="white" stroke="none" points="-4,4 -4,-512 1207.49,-512 1207.49,4 -4,4"/>
<!-- http://example.org/range_nodes -->
<g id="node1" class="node"><title>http://example.org/range_nodes</title>
<g id="a_node1"><a xlink:href="http://example.org/range_nodes" xlink:title="range_nodes">
<ellipse fill="#fffc87" stroke="#808080" cx="462.741" cy="-263" rx="57.3905" ry="18"/>
<text text-anchor="middle" x="462.741" y="-259.3" font-family="Times New Roman,serif" font-size="14.00">range_nodes</text>
</a>
</g>
</g>
<!-- http://example.org/range_nodes_v1 -->
<g id="node3" class="node"><title>http://example.org/range_nodes_v1</title>
<g id="a_node3"><a xlink:href="http://example.org/range_nodes_v1" xlink:title="range_nodes_v1">
<ellipse fill="#fffc87" stroke="#808080" cx="807.741" cy="-336" rx="70.6878" ry="18"/>
<text text-anchor="middle" x="807.741" y="-332.3" font-family="Times New Roman,serif" font-size="14.00">range_nodes_v1</text>
</a>
</g>
</g>
<!-- http://example.org/range_nodes&#45;&gt;http://example.org/range_nodes_v1 -->
<g id="edge3" class="edge"><title>http://example.org/range_nodes&#45;&gt;http://example.org/range_nodes_v1</title>
<path fill="none" stroke="black" d="M509.677,-273.441C562.664,-284.128 651.435,-302.118 727.741,-318 733.441,-319.186 739.366,-320.429 745.3,-321.679"/>
<polygon fill="black" stroke="black" points="744.747,-325.139 755.254,-323.781 746.193,-318.29 744.747,-325.139"/>
<text text-anchor="middle" x="519.599" y="-260.291" font-family="Times New Roman,serif" font-size="8.00">spe</text>
</g>
<!-- http://example.org/call2 -->
<g id="node17" class="node"><title>http://example.org/call2</title>
<g id="a_node17"><a xlink:href="http://example.org/call2" xlink:title="call2">
<polygon fill="#fafafa" stroke="#f0f0f0" points="179.741,-354 125.741,-354 125.741,-318 179.741,-318 179.741,-354"/>
<text text-anchor="middle" x="152.741" y="-332.3" font-family="Times New Roman,serif" font-size="14.00" fill="#f0f0f0">call2</text>
</a>
</g>
</g>
<!-- http://example.org/range_nodes&#45;&gt;http://example.org/call2 -->
<g id="edge17" class="edge"><title>http://example.org/range_nodes&#45;&gt;http://example.org/call2</title>
<path fill="none" stroke="#f0f0f0" d="M417.995,-274.248C356.592,-288.311 247.327,-313.337 190.079,-326.448"/>
<polygon fill="#f0f0f0" stroke="#f0f0f0" points="188.985,-323.108 180.018,-328.753 190.547,-329.932 188.985,-323.108"/>
<text text-anchor="middle" x="413.585" y="-286.685" font-family="Times New Roman,serif" font-size="8.00" fill="#f0f0f0">gen</text>
</g>
<!-- &#45;attrs0 -->
<g id="node2" class="node"><title>&#45;attrs0</title>
<polygon fill="none" stroke="gray" points="420.241,-208 325.241,-208 325.241,-159 426.241,-159 426.241,-202 420.241,-208"/>
<polyline fill="none" stroke="gray" points="420.241,-208 420.241,-202 "/>
<polyline fill="none" stroke="gray" points="426.241,-202 420.241,-202 "/>
<text text-anchor="start" x="335.741" y="-193.5" font-family="Times New Roman,serif" font-size="10.00">value:</text>
<text text-anchor="start" x="362.741" y="-193.5" font-family="Times New Roman,serif" font-size="10.00">[0, 1, 2]</text>
<text text-anchor="start" x="335.741" y="-180.5" font-family="Times New Roman,serif" font-size="10.00">type:</text>
<text text-anchor="start" x="362.741" y="-180.5" font-family="Times New Roman,serif" font-size="10.00">eval</text>
<text text-anchor="start" x="335.741" y="-167.5" font-family="Times New Roman,serif" font-size="10.00">label:</text>
<text text-anchor="start" x="362.741" y="-167.5" font-family="Times New Roman,serif" font-size="10.00">range(nodes)</text>
</g>
<!-- &#45;attrs0&#45;&gt;http://example.org/range_nodes -->
<g id="edge1" class="edge"><title>&#45;attrs0&#45;&gt;http://example.org/range_nodes</title>
<path fill="none" stroke="gray" stroke-dasharray="5,2" d="M402.317,-208.174C416.009,-220.371 432.351,-234.928 444.586,-245.827"/>
</g>
<!-- http://example.org/range_nodes0 -->
<g id="node5" class="node"><title>http://example.org/range_nodes0</title>
<g id="a_node5"><a xlink:href="http://example.org/range_nodes0" xlink:title="range_nodes0">
<ellipse fill="#fffc87" stroke="#808080" cx="807.741" cy="-417" rx="61.99" ry="18"/>
<text text-anchor="middle" x="807.741" y="-413.3" font-family="Times New Roman,serif" font-size="14.00">range_nodes0</text>
</a>
</g>
</g>
<!-- http://example.org/range_nodes_v1&#45;&gt;http://example.org/range_nodes0 -->
<g id="edge7" class="edge"><title>http://example.org/range_nodes_v1&#45;&gt;http://example.org/range_nodes0</title>
<path fill="none" stroke="black" d="M807.741,-354.142C807.741,-364.287 807.741,-377.366 807.741,-388.883"/>
<polygon fill="black" stroke="black" points="804.241,-388.892 807.741,-398.892 811.241,-388.892 804.241,-388.892"/>
<text text-anchor="middle" x="813.241" y="-374.6" font-family="Times New Roman,serif" font-size="8.00">[0]</text>
</g>
<!-- http://example.org/range_nodes1 -->
<g id="node9" class="node"><title>http://example.org/range_nodes1</title>
<g id="a_node9"><a xlink:href="http://example.org/range_nodes1" xlink:title="range_nodes1">
<ellipse fill="#fffc87" stroke="#808080" cx="280.741" cy="-417" rx="61.99" ry="18"/>
<text text-anchor="middle" x="280.741" y="-413.3" font-family="Times New Roman,serif" font-size="14.00">range_nodes1</text>
</a>
</g>
</g>
<!-- http://example.org/range_nodes_v1&#45;&gt;http://example.org/range_nodes1 -->
<g id="edge11" class="edge"><title>http://example.org/range_nodes_v1&#45;&gt;http://example.org/range_nodes1</title>
<path fill="none" stroke="black" d="M756.659,-348.575C747.079,-350.541 737.127,-352.446 727.741,-354 561.263,-381.566 516.804,-369.035 350.741,-399 345.641,-399.92 340.358,-400.988 335.085,-402.131"/>
<polygon fill="black" stroke="black" points="333.993,-398.79 325.008,-404.404 335.533,-405.618 333.993,-398.79"/>
<text text-anchor="middle" x="590.241" y="-374.6" font-family="Times New Roman,serif" font-size="8.00">[1]</text>
</g>
<!-- http://example.org/range_nodes2 -->
<g id="node13" class="node"><title>http://example.org/range_nodes2</title>
<g id="a_node13"><a xlink:href="http://example.org/range_nodes2" xlink:title="range_nodes2">
<ellipse fill="#fffc87" stroke="#808080" cx="1141.74" cy="-417" rx="61.99" ry="18"/>
<text text-anchor="middle" x="1141.74" y="-413.3" font-family="Times New Roman,serif" font-size="14.00">range_nodes2</text>
</a>
</g>
</g>
<!-- http://example.org/range_nodes_v1&#45;&gt;http://example.org/range_nodes2 -->
<g id="edge15" class="edge"><title>http://example.org/range_nodes_v1&#45;&gt;http://example.org/range_nodes2</title>
<path fill="none" stroke="black" d="M858.379,-348.772C911.543,-361.16 997.558,-381.281 1071.74,-399 1076.36,-400.104 1081.16,-401.255 1085.97,-402.414"/>
<polygon fill="black" stroke="black" points="1085.27,-405.848 1095.82,-404.794 1086.92,-399.043 1085.27,-405.848"/>
<text text-anchor="middle" x="997.241" y="-374.6" font-family="Times New Roman,serif" font-size="8.00">[2]</text>
</g>
<!-- &#45;attrs1 -->
<g id="node4" class="node"><title>&#45;attrs1</title>
<polygon fill="none" stroke="gray" points="889.241,-281 720.241,-281 720.241,-245 895.241,-245 895.241,-275 889.241,-281"/>
<polyline fill="none" stroke="gray" points="889.241,-281 889.241,-275 "/>
<polyline fill="none" stroke="gray" points="895.241,-275 889.241,-275 "/>
<text text-anchor="start" x="730.741" y="-267" font-family="Times New Roman,serif" font-size="10.00">checkpoint:</text>
<text text-anchor="start" x="779.741" y="-267" font-family="Times New Roman,serif" font-size="10.00">2018&#45;03&#45;10 05:24:54.556326</text>
<text text-anchor="start" x="730.741" y="-254" font-family="Times New Roman,serif" font-size="10.00">type:</text>
<text text-anchor="start" x="779.741" y="-254" font-family="Times New Roman,serif" font-size="10.00">Version</text>
</g>
<!-- &#45;attrs1&#45;&gt;http://example.org/range_nodes_v1 -->
<g id="edge2" class="edge"><title>&#45;attrs1&#45;&gt;http://example.org/range_nodes_v1</title>
<path fill="none" stroke="gray" stroke-dasharray="5,2" d="M807.741,-281.187C807.741,-292.35 807.741,-306.84 807.741,-317.971"/>
</g>
<!-- http://example.org/range_nodes0_v1 -->
<g id="node7" class="node"><title>http://example.org/range_nodes0_v1</title>
<g id="a_node7"><a xlink:href="http://example.org/range_nodes0_v1" xlink:title="range_nodes0_v1">
<ellipse fill="#fffc87" stroke="#808080" cx="723.741" cy="-490" rx="75.2868" ry="18"/>
<text text-anchor="middle" x="723.741" y="-486.3" font-family="Times New Roman,serif" font-size="14.00">range_nodes0_v1</text>
</a>
</g>
</g>
<!-- http://example.org/range_nodes0&#45;&gt;http://example.org/range_nodes0_v1 -->
<g id="edge6" class="edge"><title>http://example.org/range_nodes0&#45;&gt;http://example.org/range_nodes0_v1</title>
<path fill="none" stroke="black" d="M788.259,-434.467C777.206,-443.809 763.2,-455.648 751.064,-465.906"/>
<polygon fill="black" stroke="black" points="748.787,-463.248 743.409,-472.376 753.306,-468.594 748.787,-463.248"/>
<text text-anchor="middle" x="790.916" y="-447.33" font-family="Times New Roman,serif" font-size="8.00">spe</text>
</g>
<!-- &#45;attrs2 -->
<g id="node6" class="node"><title>&#45;attrs2</title>
<polygon fill="none" stroke="gray" points="712.741,-354 654.741,-354 654.741,-318 718.741,-318 718.741,-348 712.741,-354"/>
<polyline fill="none" stroke="gray" points="712.741,-354 712.741,-348 "/>
<polyline fill="none" stroke="gray" points="718.741,-348 712.741,-348 "/>
<text text-anchor="start" x="664.741" y="-340" font-family="Times New Roman,serif" font-size="10.00">value:</text>
<text text-anchor="start" x="691.741" y="-340" font-family="Times New Roman,serif" font-size="10.00">0</text>
<text text-anchor="start" x="664.741" y="-327" font-family="Times New Roman,serif" font-size="10.00">type:</text>
<text text-anchor="start" x="691.741" y="-327" font-family="Times New Roman,serif" font-size="10.00">item</text>
</g>
<!-- &#45;attrs2&#45;&gt;http://example.org/range_nodes0 -->
<g id="edge4" class="edge"><title>&#45;attrs2&#45;&gt;http://example.org/range_nodes0</title>
<path fill="none" stroke="gray" stroke-dasharray="5,2" d="M698.558,-354.16C705.387,-363.086 714.619,-373.639 724.741,-381 737.515,-390.29 753.129,-397.697 767.354,-403.261"/>
</g>
<!-- &#45;attrs3 -->
<g id="node8" class="node"><title>&#45;attrs3</title>
<polygon fill="none" stroke="gray" points="722.241,-435 553.241,-435 553.241,-399 728.241,-399 728.241,-429 722.241,-435"/>
<polyline fill="none" stroke="gray" points="722.241,-435 722.241,-429 "/>
<polyline fill="none" stroke="gray" points="728.241,-429 722.241,-429 "/>
<text text-anchor="start" x="563.741" y="-421" font-family="Times New Roman,serif" font-size="10.00">checkpoint:</text>
<text text-anchor="start" x="612.741" y="-421" font-family="Times New Roman,serif" font-size="10.00">2018&#45;03&#45;10 05:24:54.556326</text>
<text text-anchor="start" x="563.741" y="-408" font-family="Times New Roman,serif" font-size="10.00">type:</text>
<text text-anchor="start" x="612.741" y="-408" font-family="Times New Roman,serif" font-size="10.00">Version</text>
</g>
<!-- &#45;attrs3&#45;&gt;http://example.org/range_nodes0_v1 -->
<g id="edge5" class="edge"><title>&#45;attrs3&#45;&gt;http://example.org/range_nodes0_v1</title>
<path fill="none" stroke="gray" stroke-dasharray="5,2" d="M660.833,-435.187C674.075,-446.514 691.32,-461.267 704.406,-472.46"/>
</g>
<!-- http://example.org/range_nodes1_v1 -->
<g id="node11" class="node"><title>http://example.org/range_nodes1_v1</title>
<g id="a_node11"><a xlink:href="http://example.org/range_nodes1_v1" xlink:title="range_nodes1_v1">
<ellipse fill="#fffc87" stroke="#808080" cx="399.741" cy="-490" rx="75.2868" ry="18"/>
<text text-anchor="middle" x="399.741" y="-486.3" font-family="Times New Roman,serif" font-size="14.00">range_nodes1_v1</text>
</a>
</g>
</g>
<!-- http://example.org/range_nodes1&#45;&gt;http://example.org/range_nodes1_v1 -->
<g id="edge10" class="edge"><title>http://example.org/range_nodes1&#45;&gt;http://example.org/range_nodes1_v1</title>
<path fill="none" stroke="black" d="M306.562,-433.406C323.481,-443.5 345.816,-456.826 364.378,-467.901"/>
<polygon fill="black" stroke="black" points="362.765,-471.014 373.146,-473.133 366.352,-465.003 362.765,-471.014"/>
<text text-anchor="middle" x="319.659" y="-424.193" font-family="Times New Roman,serif" font-size="8.00">spe</text>
</g>
<!-- &#45;attrs4 -->
<g id="node10" class="node"><title>&#45;attrs4</title>
<polygon fill="none" stroke="gray" points="306.741,-354 248.741,-354 248.741,-318 312.741,-318 312.741,-348 306.741,-354"/>
<polyline fill="none" stroke="gray" points="306.741,-354 306.741,-348 "/>
<polyline fill="none" stroke="gray" points="312.741,-348 306.741,-348 "/>
<text text-anchor="start" x="258.741" y="-340" font-family="Times New Roman,serif" font-size="10.00">value:</text>
<text text-anchor="start" x="285.741" y="-340" font-family="Times New Roman,serif" font-size="10.00">1</text>
<text text-anchor="start" x="258.741" y="-327" font-family="Times New Roman,serif" font-size="10.00">type:</text>
<text text-anchor="start" x="285.741" y="-327" font-family="Times New Roman,serif" font-size="10.00">item</text>
</g>
<!-- &#45;attrs4&#45;&gt;http://example.org/range_nodes1 -->
<g id="edge8" class="edge"><title>&#45;attrs4&#45;&gt;http://example.org/range_nodes1</title>
<path fill="none" stroke="gray" stroke-dasharray="5,2" d="M280.741,-354.142C280.741,-367.393 280.741,-385.649 280.741,-398.892"/>
</g>
<!-- &#45;attrs5 -->
<g id="node12" class="node"><title>&#45;attrs5</title>
<polygon fill="none" stroke="gray" points="529.241,-435 360.241,-435 360.241,-399 535.241,-399 535.241,-429 529.241,-435"/>
<polyline fill="none" stroke="gray" points="529.241,-435 529.241,-429 "/>
<polyline fill="none" stroke="gray" points="535.241,-429 529.241,-429 "/>
<text text-anchor="start" x="370.741" y="-421" font-family="Times New Roman,serif" font-size="10.00">checkpoint:</text>
<text text-anchor="start" x="419.741" y="-421" font-family="Times New Roman,serif" font-size="10.00">2018&#45;03&#45;10 05:24:54.556326</text>
<text text-anchor="start" x="370.741" y="-408" font-family="Times New Roman,serif" font-size="10.00">type:</text>
<text text-anchor="start" x="419.741" y="-408" font-family="Times New Roman,serif" font-size="10.00">Version</text>
</g>
<!-- &#45;attrs5&#45;&gt;http://example.org/range_nodes1_v1 -->
<g id="edge9" class="edge"><title>&#45;attrs5&#45;&gt;http://example.org/range_nodes1_v1</title>
<path fill="none" stroke="gray" stroke-dasharray="5,2" d="M436.122,-435.187C428.575,-446.35 418.779,-460.84 411.254,-471.971"/>
</g>
<!-- http://example.org/range_nodes2_v1 -->
<g id="node15" class="node"><title>http://example.org/range_nodes2_v1</title>
<g id="a_node15"><a xlink:href="http://example.org/range_nodes2_v1" xlink:title="range_nodes2_v1">
<ellipse fill="#fffc87" stroke="#808080" cx="975.741" cy="-490" rx="75.2868" ry="18"/>
<text text-anchor="middle" x="975.741" y="-486.3" font-family="Times New Roman,serif" font-size="14.00">range_nodes2_v1</text>
</a>
</g>
</g>
<!-- http://example.org/range_nodes2&#45;&gt;http://example.org/range_nodes2_v1 -->
<g id="edge14" class="edge"><title>http://example.org/range_nodes2&#45;&gt;http://example.org/range_nodes2_v1</title>
<path fill="none" stroke="black" d="M1108.55,-432.197C1083.24,-443.021 1048.13,-458.037 1020.37,-469.912"/>
<polygon fill="black" stroke="black" points="1018.7,-466.819 1010.88,-473.97 1021.45,-473.255 1018.7,-466.819"/>
<text text-anchor="middle" x="1106.76" y="-445.19" font-family="Times New Roman,serif" font-size="8.00">spe</text>
</g>
<!-- &#45;attrs6 -->
<g id="node14" class="node"><title>&#45;attrs6</title>
<polygon fill="none" stroke="gray" points="1167.74,-354 1109.74,-354 1109.74,-318 1173.74,-318 1173.74,-348 1167.74,-354"/>
<polyline fill="none" stroke="gray" points="1167.74,-354 1167.74,-348 "/>
<polyline fill="none" stroke="gray" points="1173.74,-348 1167.74,-348 "/>
<text text-anchor="start" x="1119.74" y="-340" font-family="Times New Roman,serif" font-size="10.00">value:</text>
<text text-anchor="start" x="1146.74" y="-340" font-family="Times New Roman,serif" font-size="10.00">2</text>
<text text-anchor="start" x="1119.74" y="-327" font-family="Times New Roman,serif" font-size="10.00">type:</text>
<text text-anchor="start" x="1146.74" y="-327" font-family="Times New Roman,serif" font-size="10.00">item</text>
</g>
<!-- &#45;attrs6&#45;&gt;http://example.org/range_nodes2 -->
<g id="edge12" class="edge"><title>&#45;attrs6&#45;&gt;http://example.org/range_nodes2</title>
<path fill="none" stroke="gray" stroke-dasharray="5,2" d="M1141.74,-354.142C1141.74,-367.393 1141.74,-385.649 1141.74,-398.892"/>
</g>
<!-- &#45;attrs7 -->
<g id="node16" class="node"><title>&#45;attrs7</title>
<polygon fill="none" stroke="gray" points="1056.24,-435 887.241,-435 887.241,-399 1062.24,-399 1062.24,-429 1056.24,-435"/>
<polyline fill="none" stroke="gray" points="1056.24,-435 1056.24,-429 "/>
<polyline fill="none" stroke="gray" points="1062.24,-429 1056.24,-429 "/>
<text text-anchor="start" x="897.741" y="-421" font-family="Times New Roman,serif" font-size="10.00">checkpoint:</text>
<text text-anchor="start" x="946.741" y="-421" font-family="Times New Roman,serif" font-size="10.00">2018&#45;03&#45;10 05:24:54.556326</text>
<text text-anchor="start" x="897.741" y="-408" font-family="Times New Roman,serif" font-size="10.00">type:</text>
<text text-anchor="start" x="946.741" y="-408" font-family="Times New Roman,serif" font-size="10.00">Version</text>
</g>
<!-- &#45;attrs7&#45;&gt;http://example.org/range_nodes2_v1 -->
<g id="edge13" class="edge"><title>&#45;attrs7&#45;&gt;http://example.org/range_nodes2_v1</title>
<path fill="none" stroke="gray" stroke-dasharray="5,2" d="M974.983,-435.187C975.14,-446.35 975.344,-460.84 975.501,-471.971"/>
</g>
<!-- http://example.org/nodes -->
<g id="node18" class="node"><title>http://example.org/nodes</title>
<ellipse fill="none" stroke="black" cx="100.741" cy="-417" rx="100.983" ry="18"/>
<text text-anchor="middle" x="100.741" y="-413.3" font-family="Times New Roman,serif" font-size="14.00">http://example.org/nodes</text>
</g>
<!-- http://example.org/call2&#45;&gt;http://example.org/nodes -->
<g id="edge16" class="edge"><title>http://example.org/call2&#45;&gt;http://example.org/nodes</title>
<path fill="none" stroke="#f0f0f0" d="M141.458,-354.142C134.507,-364.701 125.465,-378.439 117.667,-390.285"/>
<polygon fill="#f0f0f0" stroke="#f0f0f0" points="114.577,-388.614 112.002,-398.892 120.424,-392.463 114.577,-388.614"/>
<text text-anchor="middle" x="148.185" y="-365.649" font-family="Times New Roman,serif" font-size="8.00" fill="#f0f0f0">use</text>
</g>
<!-- http://example.org/indexes -->
<g id="node19" class="node"><title>http://example.org/indexes</title>
<g id="a_node19"><a xlink:href="http://example.org/indexes" xlink:title="indexes">
<ellipse fill="#fffc87" stroke="#808080" cx="474.741" cy="-104" rx="38.1938" ry="18"/>
<text text-anchor="middle" x="474.741" y="-100.3" font-family="Times New Roman,serif" font-size="14.00">indexes</text>
</a>
</g>
</g>
<!-- http://example.org/indexes&#45;&gt;http://example.org/range_nodes -->
<g id="edge19" class="edge"><title>http://example.org/indexes&#45;&gt;http://example.org/range_nodes</title>
<path fill="none" stroke="#f0f0f0" d="M473.434,-122.101C471.36,-149.234 467.298,-202.386 464.821,-234.793"/>
<polygon fill="#f0f0f0" stroke="#f0f0f0" points="461.319,-234.683 464.047,-244.92 468.299,-235.216 461.319,-234.683"/>
<text text-anchor="middle" x="525.241" y="-186.1" font-family="Times New Roman,serif" font-size="8.00" fill="#f0f0f0">der ref</text>
<text text-anchor="middle" x="525.241" y="-177.1" font-family="Times New Roman,serif" font-size="8.00" fill="#f0f0f0">2018&#45;03&#45;10T05:24:54.556827</text>
</g>
<!-- http://example.org/assign6 -->
<g id="node21" class="node"><title>http://example.org/assign6</title>
<g id="a_node21"><a xlink:href="http://example.org/assign6" xlink:title="assign6">
<polygon fill="#fafafa" stroke="#f0f0f0" points="647.741,-201.5 589.741,-201.5 589.741,-165.5 647.741,-165.5 647.741,-201.5"/>
<text text-anchor="middle" x="618.741" y="-179.8" font-family="Times New Roman,serif" font-size="14.00" fill="#f0f0f0">assign6</text>
</a>
</g>
</g>
<!-- http://example.org/indexes&#45;&gt;http://example.org/assign6 -->
<g id="edge21" class="edge"><title>http://example.org/indexes&#45;&gt;http://example.org/assign6</title>
<path fill="none" stroke="#f0f0f0" d="M499.266,-118.031C519.74,-128.93 549.679,-144.912 575.741,-159 577.285,-159.834 578.859,-160.687 580.448,-161.549"/>
<polygon fill="#f0f0f0" stroke="#f0f0f0" points="579.16,-164.833 589.617,-166.536 582.504,-158.683 579.16,-164.833"/>
<text text-anchor="middle" x="511.992" y="-108.191" font-family="Times New Roman,serif" font-size="8.00" fill="#f0f0f0">gen</text>
</g>
<!-- &#45;attrs8 -->
<g id="node20" class="node"><title>&#45;attrs8</title>
<polygon fill="none" stroke="gray" points="507.741,-49 435.741,-49 435.741,-0 513.741,-0 513.741,-43 507.741,-49"/>
<polyline fill="none" stroke="gray" points="507.741,-49 507.741,-43 "/>
<polyline fill="none" stroke="gray" points="513.741,-43 507.741,-43 "/>
<text text-anchor="start" x="445.741" y="-34.5" font-family="Times New Roman,serif" font-size="10.00">value:</text>
<text text-anchor="start" x="472.741" y="-34.5" font-family="Times New Roman,serif" font-size="10.00">[0, 1, 2]</text>
<text text-anchor="start" x="445.741" y="-21.5" font-family="Times New Roman,serif" font-size="10.00">type:</text>
<text text-anchor="start" x="472.741" y="-21.5" font-family="Times New Roman,serif" font-size="10.00">name</text>
<text text-anchor="start" x="445.741" y="-8.5" font-family="Times New Roman,serif" font-size="10.00">label:</text>
<text text-anchor="start" x="472.741" y="-8.5" font-family="Times New Roman,serif" font-size="10.00">indexes</text>
</g>
<!-- &#45;attrs8&#45;&gt;http://example.org/indexes -->
<g id="edge18" class="edge"><title>&#45;attrs8&#45;&gt;http://example.org/indexes</title>
<path fill="none" stroke="gray" stroke-dasharray="5,2" d="M474.741,-49.1737C474.741,-60.9254 474.741,-74.869 474.741,-85.6196"/>
</g>
<!-- http://example.org/assign6&#45;&gt;http://example.org/range_nodes -->
<g id="edge20" class="edge"><title>http://example.org/assign6&#45;&gt;http://example.org/range_nodes</title>
<path fill="none" stroke="#f0f0f0" d="M589.711,-200.643C585.061,-203.149 580.285,-205.675 575.741,-208 551.799,-220.252 524.612,-233.271 502.905,-243.456"/>
<polygon fill="#f0f0f0" stroke="#f0f0f0" points="501.234,-240.374 493.657,-247.779 504.198,-246.715 501.234,-240.374"/>
<text text-anchor="middle" x="589.258" y="-213.737" font-family="Times New Roman,serif" font-size="8.00" fill="#f0f0f0">use</text>
</g>
</g>
</svg>
