<?xml version="1.0" encoding="UTF-8" standalone="no"?>
<!DOCTYPE svg PUBLIC "-//W3C//DTD SVG 1.1//EN"
 "http://www.w3.org/Graphics/SVG/1.1/DTD/svg11.dtd">
<!-- Generated by graphviz version 2.38.0 (20140413.2041)
 -->
<!-- Title: PROV Pages: 1 -->
<svg width="621pt" height="460pt"
 viewBox="0.00 0.00 620.93 460.00" xmlns="http://www.w3.org/2000/svg" xmlns:xlink="http://www.w3.org/1999/xlink">
<g id="graph0" class="graph" transform="scale(1 1) rotate(0) translate(4 456)">
<title>PROV</title>
<polygon fill="white" stroke="none" points="-4,4 -4,-456 616.933,-456 616.933,4 -4,4"/>
<!-- http://example.org/dist_ak#3 -->
<g id="node1" class="node"><title>http://example.org/dist_ak#3</title>
<g id="a_node1"><a xlink:href="http://example.org/dist_ak#3" xlink:title="dist_ak#3">
<ellipse fill="#fffc87" stroke="#808080" cx="256.641" cy="-263" rx="46.2923" ry="18"/>
<text text-anchor="middle" x="256.641" y="-259.3" font-family="Times New Roman,serif" font-size="14.00">dist_ak#3</text>
</a>
</g>
</g>
<!-- http://example.org/access60 -->
<g id="node3" class="node"><title>http://example.org/access60</title>
<g id="a_node3"><a xlink:href="http://example.org/access60" xlink:title="access60">
<polygon fill="#fafafa" stroke="#f0f0f0" points="352.641,-371 284.641,-371 284.641,-335 352.641,-335 352.641,-371"/>
<text text-anchor="middle" x="318.641" y="-349.3" font-family="Times New Roman,serif" font-size="14.00" fill="#f0f0f0">access60</text>
</a>
</g>
</g>
<!-- http://example.org/dist_ak#3&#45;&gt;http://example.org/access60 -->
<g id="edge11" class="edge"><title>http://example.org/dist_ak#3&#45;&gt;http://example.org/access60</title>
<path fill="none" stroke="#f0f0f0" d="M282.407,-278.004C290.567,-283.571 298.938,-290.655 304.641,-299 309.813,-306.568 313.074,-315.943 315.132,-324.694"/>
<polygon fill="#f0f0f0" stroke="#f0f0f0" points="311.7,-325.382 317.035,-334.536 318.572,-324.053 311.7,-325.382"/>
<text text-anchor="middle" x="295.999" y="-269.76" font-family="Times New Roman,serif" font-size="8.00" fill="#f0f0f0">gen</text>
</g>
<!-- bn0 -->
<g id="node4" class="node"><title>bn0</title>
<ellipse fill="#f0f0f0" stroke="#f0f0f0" cx="194.641" cy="-353" rx="1.8" ry="1.8"/>
</g>
<!-- http://example.org/dist_ak#3&#45;&gt;bn0 -->
<g id="edge2" class="edge"><title>http://example.org/dist_ak#3&#45;&gt;bn0</title>
<path fill="none" stroke="#f0f0f0" d="M223.22,-275.445C212.527,-280.853 201.859,-288.493 195.641,-299 184.767,-317.374 192.781,-345.974 194.379,-351.174"/>
<text text-anchor="middle" x="250.141" y="-310.6" font-family="Times New Roman,serif" font-size="8.00" fill="#f0f0f0">der ac&#45;r</text>
<text text-anchor="middle" x="250.141" y="-301.6" font-family="Times New Roman,serif" font-size="8.00" fill="#f0f0f0">2018&#45;03&#45;10T05:25:01.044117</text>
</g>
<!-- &#45;attrs0 -->
<g id="node2" class="node"><title>&#45;attrs0</title>
<polygon fill="none" stroke="gray" points="214.641,-208 144.641,-208 144.641,-159 220.641,-159 220.641,-202 214.641,-208"/>
<polyline fill="none" stroke="gray" points="214.641,-208 214.641,-202 "/>
<polyline fill="none" stroke="gray" points="220.641,-202 214.641,-202 "/>
<text text-anchor="start" x="154.641" y="-193.5" font-family="Times New Roman,serif" font-size="10.00">value:</text>
<text text-anchor="start" x="181.641" y="-193.5" font-family="Times New Roman,serif" font-size="10.00">[2, 3, 0]</text>
<text text-anchor="start" x="154.641" y="-180.5" font-family="Times New Roman,serif" font-size="10.00">type:</text>
<text text-anchor="start" x="181.641" y="-180.5" font-family="Times New Roman,serif" font-size="10.00">access</text>
<text text-anchor="start" x="154.641" y="-167.5" font-family="Times New Roman,serif" font-size="10.00">label:</text>
<text text-anchor="start" x="181.641" y="-167.5" font-family="Times New Roman,serif" font-size="10.00">dist[k]</text>
</g>
<!-- &#45;attrs0&#45;&gt;http://example.org/dist_ak#3 -->
<g id="edge1" class="edge"><title>&#45;attrs0&#45;&gt;http://example.org/dist_ak#3</title>
<path fill="none" stroke="gray" stroke-dasharray="5,2" d="M205.245,-208.174C216.806,-220.282 230.589,-234.716 240.97,-245.588"/>
</g>
<!-- http://example.org/dist -->
<g id="node5" class="node"><title>http://example.org/dist</title>
<ellipse fill="none" stroke="black" cx="318.641" cy="-434" rx="91.784" ry="18"/>
<text text-anchor="middle" x="318.641" y="-430.3" font-family="Times New Roman,serif" font-size="14.00">http://example.org/dist</text>
</g>
<!-- http://example.org/access60&#45;&gt;http://example.org/dist -->
<g id="edge5" class="edge"><title>http://example.org/access60&#45;&gt;http://example.org/dist</title>
<path fill="none" stroke="#f0f0f0" d="M318.641,-371.142C318.641,-381.287 318.641,-394.366 318.641,-405.883"/>
<polygon fill="#f0f0f0" stroke="#f0f0f0" points="315.141,-405.892 318.641,-415.892 322.141,-405.892 315.141,-405.892"/>
<text text-anchor="middle" x="331.631" y="-376.742" font-family="Times New Roman,serif" font-size="8.00" fill="#f0f0f0">use</text>
</g>
<!-- http://example.org/lastrow -->
<g id="node6" class="node"><title>http://example.org/lastrow</title>
<ellipse fill="none" stroke="black" cx="104.641" cy="-434" rx="104.782" ry="18"/>
<text text-anchor="middle" x="104.641" y="-430.3" font-family="Times New Roman,serif" font-size="14.00">http://example.org/lastrow</text>
</g>
<!-- http://example.org/access60&#45;&gt;http://example.org/lastrow -->
<g id="edge9" class="edge"><title>http://example.org/access60&#45;&gt;http://example.org/lastrow</title>
<path fill="none" stroke="#f0f0f0" d="M300.757,-371.124C290.157,-380.38 276.016,-391.261 261.641,-398 240.716,-407.809 216.914,-414.934 194.281,-420.085"/>
<polygon fill="#f0f0f0" stroke="#f0f0f0" points="193.354,-416.704 184.323,-422.244 194.837,-423.545 193.354,-416.704"/>
<text text-anchor="middle" x="303.531" y="-383.966" font-family="Times New Roman,serif" font-size="8.00" fill="#f0f0f0">use</text>
</g>
<!-- http://example.org/k#3 -->
<g id="node7" class="node"><title>http://example.org/k#3</title>
<ellipse fill="none" stroke="black" cx="520.641" cy="-434" rx="92.0841" ry="18"/>
<text text-anchor="middle" x="520.641" y="-430.3" font-family="Times New Roman,serif" font-size="14.00">http://example.org/k#3</text>
</g>
<!-- http://example.org/access60&#45;&gt;http://example.org/k#3 -->
<g id="edge6" class="edge"><title>http://example.org/access60&#45;&gt;http://example.org/k#3</title>
<path fill="none" stroke="#f0f0f0" d="M352.907,-367.401C385.559,-380.171 435.053,-399.528 471.824,-413.908"/>
<polygon fill="#f0f0f0" stroke="#f0f0f0" points="470.768,-417.253 481.356,-417.636 473.318,-410.734 470.768,-417.253"/>
<text text-anchor="middle" x="364.624" y="-356.135" font-family="Times New Roman,serif" font-size="8.00" fill="#f0f0f0">use</text>
</g>
<!-- bn0&#45;&gt;http://example.org/dist -->
<g id="edge3" class="edge"><title>bn0&#45;&gt;http://example.org/dist</title>
<path fill="none" stroke="#f0f0f0" d="M196.033,-354.887C204.631,-360.365 251.21,-390.04 284.406,-411.189"/>
<polygon fill="#f0f0f0" stroke="#f0f0f0" points="282.633,-414.21 292.948,-416.631 286.395,-408.306 282.633,-414.21"/>
<text text-anchor="middle" x="266.141" y="-391.6" font-family="Times New Roman,serif" font-size="8.00" fill="#f0f0f0">[2]</text>
</g>
<!-- bn0&#45;&gt;http://example.org/lastrow -->
<g id="edge4" class="edge"><title>bn0&#45;&gt;http://example.org/lastrow</title>
<path fill="none" stroke="#f0f0f0" d="M193.63,-354.887C187.557,-360.218 155.377,-388.465 131.449,-409.469"/>
<polygon fill="#f0f0f0" stroke="#f0f0f0" points="128.906,-407.043 123.7,-416.27 133.524,-412.304 128.906,-407.043"/>
</g>
<!-- http://example.org/distk#3 -->
<g id="node8" class="node"><title>http://example.org/distk#3</title>
<g id="a_node8"><a xlink:href="http://example.org/distk#3" xlink:title="distk#3">
<ellipse fill="#fffc87" stroke="#808080" cx="268.641" cy="-104" rx="37.8943" ry="18"/>
<text text-anchor="middle" x="268.641" y="-100.3" font-family="Times New Roman,serif" font-size="14.00">distk#3</text>
</a>
</g>
</g>
<!-- http://example.org/distk#3&#45;&gt;http://example.org/dist_ak#3 -->
<g id="edge8" class="edge"><title>http://example.org/distk#3&#45;&gt;http://example.org/dist_ak#3</title>
<path fill="none" stroke="#f0f0f0" d="M267.334,-122.101C265.26,-149.234 261.197,-202.386 258.72,-234.793"/>
<polygon fill="#f0f0f0" stroke="#f0f0f0" points="255.219,-234.683 257.946,-244.92 262.198,-235.216 255.219,-234.683"/>
<text text-anchor="middle" x="319.141" y="-186.1" font-family="Times New Roman,serif" font-size="8.00" fill="#f0f0f0">der ref</text>
<text text-anchor="middle" x="319.141" y="-177.1" font-family="Times New Roman,serif" font-size="8.00" fill="#f0f0f0">2018&#45;03&#45;10T05:25:01.044117</text>
</g>
<!-- http://example.org/assign25 -->
<g id="node10" class="node"><title>http://example.org/assign25</title>
<g id="a_node10"><a xlink:href="http://example.org/assign25" xlink:title="assign25">
<polygon fill="#fafafa" stroke="#f0f0f0" points="449.141,-201.5 384.141,-201.5 384.141,-165.5 449.141,-165.5 449.141,-201.5"/>
<text text-anchor="middle" x="416.641" y="-179.8" font-family="Times New Roman,serif" font-size="14.00" fill="#f0f0f0">assign25</text>
</a>
</g>
</g>
<!-- http://example.org/distk#3&#45;&gt;http://example.org/assign25 -->
<g id="edge12" class="edge"><title>http://example.org/distk#3&#45;&gt;http://example.org/assign25</title>
<path fill="none" stroke="#f0f0f0" d="M293.08,-117.798C315.333,-129.45 348.653,-146.898 375.086,-160.74"/>
<polygon fill="#f0f0f0" stroke="#f0f0f0" points="373.636,-163.931 384.119,-165.47 376.883,-157.73 373.636,-163.931"/>
<text text-anchor="middle" x="305.75" y="-107.869" font-family="Times New Roman,serif" font-size="8.00" fill="#f0f0f0">gen</text>
</g>
<!-- &#45;attrs1 -->
<g id="node9" class="node"><title>&#45;attrs1</title>
<polygon fill="none" stroke="gray" points="300.641,-49 230.641,-49 230.641,-0 306.641,-0 306.641,-43 300.641,-49"/>
<polyline fill="none" stroke="gray" points="300.641,-49 300.641,-43 "/>
<polyline fill="none" stroke="gray" points="306.641,-43 300.641,-43 "/>
<text text-anchor="start" x="240.641" y="-34.5" font-family="Times New Roman,serif" font-size="10.00">value:</text>
<text text-anchor="start" x="267.641" y="-34.5" font-family="Times New Roman,serif" font-size="10.00">[2, 3, 0]</text>
<text text-anchor="start" x="240.641" y="-21.5" font-family="Times New Roman,serif" font-size="10.00">type:</text>
<text text-anchor="start" x="267.641" y="-21.5" font-family="Times New Roman,serif" font-size="10.00">name</text>
<text text-anchor="start" x="240.641" y="-8.5" font-family="Times New Roman,serif" font-size="10.00">label:</text>
<text text-anchor="start" x="267.641" y="-8.5" font-family="Times New Roman,serif" font-size="10.00">distk</text>
</g>
<!-- &#45;attrs1&#45;&gt;http://example.org/distk#3 -->
<g id="edge7" class="edge"><title>&#45;attrs1&#45;&gt;http://example.org/distk#3</title>
<path fill="none" stroke="gray" stroke-dasharray="5,2" d="M268.641,-49.1737C268.641,-60.9254 268.641,-74.869 268.641,-85.6196"/>
</g>
<!-- http://example.org/assign25&#45;&gt;http://example.org/dist_ak#3 -->
<g id="edge10" class="edge"><title>http://example.org/assign25&#45;&gt;http://example.org/dist_ak#3</title>
<path fill="none" stroke="#f0f0f0" d="M384.062,-200.883C379.234,-203.284 374.312,-205.716 369.641,-208 344.628,-220.229 316.365,-233.734 294.362,-244.18"/>
<polygon fill="#f0f0f0" stroke="#f0f0f0" points="292.572,-241.155 285.036,-248.602 295.571,-247.48 292.572,-241.155"/>
<text text-anchor="middle" x="383.126" y="-213.954" font-family="Times New Roman,serif" font-size="8.00" fill="#f0f0f0">use</text>
</g>
</g>
</svg>
