<?xml version="1.0" encoding="UTF-8" standalone="no"?>
<!DOCTYPE svg PUBLIC "-//W3C//DTD SVG 1.1//EN"
 "http://www.w3.org/Graphics/SVG/1.1/DTD/svg11.dtd">
<!-- Generated by graphviz version 2.38.0 (20140413.2041)
 -->
<!-- Title: PROV Pages: 1 -->
<svg width="496pt" height="215pt"
 viewBox="0.00 0.00 496.28 215.00" xmlns="http://www.w3.org/2000/svg" xmlns:xlink="http://www.w3.org/1999/xlink">
<g id="graph0" class="graph" transform="scale(1 1) rotate(0) translate(4 211)">
<title>PROV</title>
<polygon fill="white" stroke="none" points="-4,4 -4,-211 492.279,-211 492.279,4 -4,4"/>
<!-- http://example.org/i -->
<g id="node1" class="node"><title>http://example.org/i</title>
<g id="a_node1"><a xlink:href="http://example.org/i" xlink:title="i">
<ellipse fill="#fafafa" stroke="#f0f0f0" cx="253.941" cy="-18" rx="27" ry="18"/>
<text text-anchor="middle" x="253.941" y="-14.3" font-family="Times New Roman,serif" font-size="14.00" fill="#f0f0f0">i</text>
</a>
</g>
</g>
<!-- http://example.org/access3 -->
<g id="node2" class="node"><title>http://example.org/access3</title>
<g id="a_node2"><a xlink:href="http://example.org/access3" xlink:title="access3">
<polygon fill="#fafafa" stroke="#f0f0f0" points="260.441,-126 199.441,-126 199.441,-90 260.441,-90 260.441,-126"/>
<text text-anchor="middle" x="229.941" y="-104.3" font-family="Times New Roman,serif" font-size="14.00" fill="#f0f0f0">access3</text>
</a>
</g>
</g>
<!-- http://example.org/i&#45;&gt;http://example.org/access3 -->
<g id="edge6" class="edge"><title>http://example.org/i&#45;&gt;http://example.org/access3</title>
<path fill="none" stroke="#f0f0f0" d="M249.313,-35.9673C245.915,-48.4262 241.23,-65.6063 237.318,-79.9497"/>
<polygon fill="#f0f0f0" stroke="#f0f0f0" points="233.89,-79.216 234.636,-89.7845 240.644,-81.0578 233.89,-79.216"/>
<text text-anchor="middle" x="259.872" y="-44.721" font-family="Times New Roman,serif" font-size="8.00" fill="#f0f0f0">gen</text>
</g>
<!-- bn0 -->
<g id="node3" class="node"><title>bn0</title>
<ellipse fill="#f0f0f0" stroke="#f0f0f0" cx="279.941" cy="-108" rx="1.8" ry="1.8"/>
</g>
<!-- http://example.org/i&#45;&gt;bn0 -->
<g id="edge1" class="edge"><title>http://example.org/i&#45;&gt;bn0</title>
<path fill="none" stroke="#f0f0f0" d="M258.954,-35.9673C265.919,-59.5413 277.878,-100.018 279.704,-106.199"/>
<text text-anchor="middle" x="323.441" y="-65.6" font-family="Times New Roman,serif" font-size="8.00" fill="#f0f0f0">der ac&#45;r</text>
<text text-anchor="middle" x="323.441" y="-56.6" font-family="Times New Roman,serif" font-size="8.00" fill="#f0f0f0">2018&#45;03&#45;10T05:24:54.996497</text>
</g>
<!-- http://example.org/indexes -->
<g id="node4" class="node"><title>http://example.org/indexes</title>
<ellipse fill="none" stroke="black" cx="105.941" cy="-189" rx="105.881" ry="18"/>
<text text-anchor="middle" x="105.941" y="-185.3" font-family="Times New Roman,serif" font-size="14.00">http://example.org/indexes</text>
</g>
<!-- http://example.org/access3&#45;&gt;http://example.org/indexes -->
<g id="edge4" class="edge"><title>http://example.org/access3&#45;&gt;http://example.org/indexes</title>
<path fill="none" stroke="#f0f0f0" d="M203.034,-126.142C184.668,-137.843 160.176,-153.447 140.386,-166.055"/>
<polygon fill="#f0f0f0" stroke="#f0f0f0" points="138.498,-163.108 131.945,-171.433 142.259,-169.012 138.498,-163.108"/>
<text text-anchor="middle" x="203.689" y="-139.228" font-family="Times New Roman,serif" font-size="8.00" fill="#f0f0f0">use</text>
</g>
<!-- http://example.org/range_nodes0 -->
<g id="node5" class="node"><title>http://example.org/range_nodes0</title>
<ellipse fill="none" stroke="black" cx="358.941" cy="-189" rx="129.177" ry="18"/>
<text text-anchor="middle" x="358.941" y="-185.3" font-family="Times New Roman,serif" font-size="14.00">http://example.org/range_nodes0</text>
</g>
<!-- http://example.org/access3&#45;&gt;http://example.org/range_nodes0 -->
<g id="edge5" class="edge"><title>http://example.org/access3&#45;&gt;http://example.org/range_nodes0</title>
<path fill="none" stroke="#f0f0f0" d="M234.066,-126.077C237.076,-135.201 242.044,-145.97 249.941,-153 257.815,-160.011 267.106,-165.619 276.889,-170.105"/>
<polygon fill="#f0f0f0" stroke="#f0f0f0" points="275.813,-173.448 286.389,-174.071 278.509,-166.988 275.813,-173.448"/>
<text text-anchor="middle" x="248.795" y="-127.015" font-family="Times New Roman,serif" font-size="8.00" fill="#f0f0f0">use</text>
</g>
<!-- bn0&#45;&gt;http://example.org/indexes -->
<g id="edge2" class="edge"><title>bn0&#45;&gt;http://example.org/indexes</title>
<path fill="none" stroke="#f0f0f0" d="M279.592,-110.085C278.584,-113.056 275.387,-121.41 269.941,-126 244.212,-147.682 210.126,-162.199 179.696,-171.697"/>
<polygon fill="#f0f0f0" stroke="#f0f0f0" points="178.539,-168.39 169.96,-174.607 180.544,-175.096 178.539,-168.39"/>
<text text-anchor="middle" x="247.441" y="-146.6" font-family="Times New Roman,serif" font-size="8.00" fill="#f0f0f0">[0]</text>
</g>
<!-- bn0&#45;&gt;http://example.org/range_nodes0 -->
<g id="edge3" class="edge"><title>bn0&#45;&gt;http://example.org/range_nodes0</title>
<path fill="none" stroke="#f0f0f0" d="M280.828,-109.887C286.105,-115.164 313.841,-142.9 334.774,-163.834"/>
<polygon fill="#f0f0f0" stroke="#f0f0f0" points="332.301,-166.311 341.847,-170.907 337.251,-161.361 332.301,-166.311"/>
</g>
</g>
</svg>
