<?xml version="1.0" encoding="UTF-8" standalone="no"?>
<!DOCTYPE svg PUBLIC "-//W3C//DTD SVG 1.1//EN"
 "http://www.w3.org/Graphics/SVG/1.1/DTD/svg11.dtd">
<!-- Generated by graphviz version 2.38.0 (20140413.2041)
 -->
<!-- Title: PROV Pages: 1 -->
<svg width="1152pt" height="585pt"
 viewBox="0.00 0.00 1152.00 584.59" xmlns="http://www.w3.org/2000/svg" xmlns:xlink="http://www.w3.org/1999/xlink">
<g id="graph0" class="graph" transform="scale(0.900751 0.900751) rotate(0) translate(4 645)">
<title>PROV</title>
<polygon fill="white" stroke="none" points="-4,4 -4,-645 1274.93,-645 1274.93,4 -4,4"/>
<!-- http://example.org/disti@k#12 -->
<g id="node1" class="node"><title>http://example.org/disti@k#12</title>
<g id="a_node1"><a xlink:href="http://example.org/disti@k#12" xlink:title="disti@k#12">
<ellipse fill="#fafafa" stroke="#f0f0f0" cx="760.242" cy="-443" rx="51.9908" ry="18"/>
<text text-anchor="middle" x="760.242" y="-439.3" font-family="Times New Roman,serif" font-size="14.00" fill="#f0f0f0">disti@k#12</text>
</a>
</g>
</g>
<!-- http://example.org/access84 -->
<g id="node2" class="node"><title>http://example.org/access84</title>
<g id="a_node2"><a xlink:href="http://example.org/access84" xlink:title="access84">
<polygon fill="#fafafa" stroke="#f0f0f0" points="823.242,-551 755.242,-551 755.242,-515 823.242,-515 823.242,-551"/>
<text text-anchor="middle" x="789.242" y="-529.3" font-family="Times New Roman,serif" font-size="14.00" fill="#f0f0f0">access84</text>
</a>
</g>
</g>
<!-- http://example.org/disti@k#12&#45;&gt;http://example.org/access84 -->
<g id="edge24" class="edge"><title>http://example.org/disti@k#12&#45;&gt;http://example.org/access84</title>
<path fill="none" stroke="#f0f0f0" d="M765.833,-460.967C769.939,-473.426 775.601,-490.606 780.327,-504.95"/>
<polygon fill="#f0f0f0" stroke="#f0f0f0" points="777.114,-506.382 783.568,-514.785 783.763,-504.191 777.114,-506.382"/>
<text text-anchor="middle" x="832.742" y="-490.6" font-family="Times New Roman,serif" font-size="8.00" fill="#f0f0f0">gen</text>
<text text-anchor="middle" x="832.742" y="-481.6" font-family="Times New Roman,serif" font-size="8.00" fill="#f0f0f0">2018&#45;03&#45;22T00:15:08.296738</text>
</g>
<!-- bn0 -->
<g id="node3" class="node"><title>bn0</title>
<ellipse fill="#f0f0f0" stroke="#f0f0f0" cx="964.242" cy="-533" rx="1.8" ry="1.8"/>
</g>
<!-- http://example.org/disti@k#12&#45;&gt;bn0 -->
<g id="edge1" class="edge"><title>http://example.org/disti@k#12&#45;&gt;bn0</title>
<path fill="none" stroke="#f0f0f0" d="M805.643,-451.846C831.544,-457.361 864.144,-466.093 891.242,-479 924.045,-494.625 957.346,-525.458 963.302,-531.102"/>
<text text-anchor="middle" x="975.742" y="-490.6" font-family="Times New Roman,serif" font-size="8.00" fill="#f0f0f0">der ac&#45;r</text>
<text text-anchor="middle" x="975.742" y="-481.6" font-family="Times New Roman,serif" font-size="8.00" fill="#f0f0f0">2018&#45;03&#45;22T00:15:08.296738</text>
</g>
<!-- http://example.org/disti#9 -->
<g id="node4" class="node"><title>http://example.org/disti#9</title>
<ellipse fill="none" stroke="black" cx="1168.24" cy="-623" rx="102.882" ry="18"/>
<text text-anchor="middle" x="1168.24" y="-619.3" font-family="Times New Roman,serif" font-size="14.00">http://example.org/disti#9</text>
</g>
<!-- http://example.org/access84&#45;&gt;http://example.org/disti#9 -->
<g id="edge4" class="edge"><title>http://example.org/access84&#45;&gt;http://example.org/disti#9</title>
<path fill="none" stroke="#f0f0f0" d="M823.267,-542.2C849.035,-548.693 885.179,-558.408 916.242,-569 936.24,-575.819 939.921,-581.211 960.242,-587 972.421,-590.47 1032.17,-600.409 1084.53,-608.814"/>
<polygon fill="#f0f0f0" stroke="#f0f0f0" points="1084.12,-612.292 1094.54,-610.417 1085.22,-605.38 1084.12,-612.292"/>
<text text-anchor="middle" x="833.739" y="-529.56" font-family="Times New Roman,serif" font-size="8.00" fill="#f0f0f0">use</text>
</g>
<!-- http://example.org/0 -->
<g id="node5" class="node"><title>http://example.org/0</title>
<ellipse fill="none" stroke="black" cx="964.242" cy="-623" rx="83.3857" ry="18"/>
<text text-anchor="middle" x="964.242" y="-619.3" font-family="Times New Roman,serif" font-size="14.00">http://example.org/0</text>
</g>
<!-- http://example.org/access84&#45;&gt;http://example.org/0 -->
<g id="edge17" class="edge"><title>http://example.org/access84&#45;&gt;http://example.org/0</title>
<path fill="none" stroke="#f0f0f0" d="M790.743,-551.187C792.682,-562.915 797.116,-577.914 807.242,-587 810.77,-590.166 854.736,-599.822 895.244,-608.192"/>
<polygon fill="#f0f0f0" stroke="#f0f0f0" points="894.669,-611.647 905.169,-610.232 896.078,-604.79 894.669,-611.647"/>
<text text-anchor="middle" x="861.742" y="-580.6" font-family="Times New Roman,serif" font-size="8.00" fill="#f0f0f0">use</text>
<text text-anchor="middle" x="861.742" y="-571.6" font-family="Times New Roman,serif" font-size="8.00" fill="#f0f0f0">2018&#45;03&#45;22T00:15:08.296738</text>
</g>
<!-- http://example.org/k#3 -->
<g id="node6" class="node"><title>http://example.org/k#3</title>
<ellipse fill="none" stroke="black" cx="771.242" cy="-623" rx="92.0841" ry="18"/>
<text text-anchor="middle" x="771.242" y="-619.3" font-family="Times New Roman,serif" font-size="14.00">http://example.org/k#3</text>
</g>
<!-- http://example.org/access84&#45;&gt;http://example.org/k#3 -->
<g id="edge5" class="edge"><title>http://example.org/access84&#45;&gt;http://example.org/k#3</title>
<path fill="none" stroke="#f0f0f0" d="M785.685,-551.386C783.154,-563.76 779.703,-580.631 776.809,-594.78"/>
<polygon fill="#f0f0f0" stroke="#f0f0f0" points="773.304,-594.451 774.729,-604.95 780.162,-595.854 773.304,-594.451"/>
<text text-anchor="middle" x="796.909" y="-559.437" font-family="Times New Roman,serif" font-size="8.00" fill="#f0f0f0">use</text>
</g>
<!-- bn0&#45;&gt;http://example.org/disti#9 -->
<g id="edge2" class="edge"><title>bn0&#45;&gt;http://example.org/disti#9</title>
<path fill="none" stroke="#f0f0f0" stroke-dasharray="5,2" d="M965.544,-534.562C977.285,-539.626 1065.72,-577.774 1121.83,-601.98"/>
<polygon fill="#f0f0f0" stroke="#f0f0f0" points="1120.66,-605.285 1131.22,-606.032 1123.43,-598.857 1120.66,-605.285"/>
</g>
<!-- bn0&#45;&gt;http://example.org/0 -->
<g id="edge3" class="edge"><title>bn0&#45;&gt;http://example.org/0</title>
<path fill="none" stroke="#f0f0f0" d="M964.242,-534.988C964.242,-540.85 964.242,-571.595 964.242,-594.891"/>
<polygon fill="#f0f0f0" stroke="#f0f0f0" points="960.742,-594.954 964.242,-604.954 967.742,-594.955 960.742,-594.954"/>
<text text-anchor="middle" x="969.742" y="-576.1" font-family="Times New Roman,serif" font-size="8.00" fill="#f0f0f0">[2]</text>
</g>
<!-- http://example.org/distk@j#12 -->
<g id="node7" class="node"><title>http://example.org/distk@j#12</title>
<g id="a_node7"><a xlink:href="http://example.org/distk@j#12" xlink:title="distk@j#12">
<ellipse fill="#fafafa" stroke="#f0f0f0" cx="588.242" cy="-443" rx="51.9908" ry="18"/>
<text text-anchor="middle" x="588.242" y="-439.3" font-family="Times New Roman,serif" font-size="14.00" fill="#f0f0f0">distk@j#12</text>
</a>
</g>
</g>
<!-- http://example.org/access85 -->
<g id="node8" class="node"><title>http://example.org/access85</title>
<g id="a_node8"><a xlink:href="http://example.org/access85" xlink:title="access85">
<polygon fill="#fafafa" stroke="#f0f0f0" points="368.242,-551 300.242,-551 300.242,-515 368.242,-515 368.242,-551"/>
<text text-anchor="middle" x="334.242" y="-529.3" font-family="Times New Roman,serif" font-size="14.00" fill="#f0f0f0">access85</text>
</a>
</g>
</g>
<!-- http://example.org/distk@j#12&#45;&gt;http://example.org/access85 -->
<g id="edge25" class="edge"><title>http://example.org/distk@j#12&#45;&gt;http://example.org/access85</title>
<path fill="none" stroke="#f0f0f0" d="M545.112,-453.119C518.089,-459.317 482.728,-468.318 452.242,-479 426.835,-487.902 399.348,-500.088 377.301,-510.531"/>
<polygon fill="#f0f0f0" stroke="#f0f0f0" points="375.715,-507.41 368.207,-514.885 378.738,-513.724 375.715,-507.41"/>
<text text-anchor="middle" x="506.742" y="-490.6" font-family="Times New Roman,serif" font-size="8.00" fill="#f0f0f0">gen</text>
<text text-anchor="middle" x="506.742" y="-481.6" font-family="Times New Roman,serif" font-size="8.00" fill="#f0f0f0">2018&#45;03&#45;22T00:15:08.296738</text>
</g>
<!-- bn1 -->
<g id="node9" class="node"><title>bn1</title>
<ellipse fill="#f0f0f0" stroke="#f0f0f0" cx="548.242" cy="-533" rx="1.8" ry="1.8"/>
</g>
<!-- http://example.org/distk@j#12&#45;&gt;bn1 -->
<g id="edge6" class="edge"><title>http://example.org/distk@j#12&#45;&gt;bn1</title>
<path fill="none" stroke="#f0f0f0" d="M580.529,-460.967C569.814,-484.541 551.415,-525.018 548.606,-531.199"/>
<text text-anchor="middle" x="626.742" y="-490.6" font-family="Times New Roman,serif" font-size="8.00" fill="#f0f0f0">der ac&#45;r</text>
<text text-anchor="middle" x="626.742" y="-481.6" font-family="Times New Roman,serif" font-size="8.00" fill="#f0f0f0">2018&#45;03&#45;22T00:15:08.296738</text>
</g>
<!-- http://example.org/distk#3 -->
<g id="node10" class="node"><title>http://example.org/distk#3</title>
<ellipse fill="none" stroke="black" cx="312.242" cy="-623" rx="105.082" ry="18"/>
<text text-anchor="middle" x="312.242" y="-619.3" font-family="Times New Roman,serif" font-size="14.00">http://example.org/distk#3</text>
</g>
<!-- http://example.org/access85&#45;&gt;http://example.org/distk#3 -->
<g id="edge9" class="edge"><title>http://example.org/access85&#45;&gt;http://example.org/distk#3</title>
<path fill="none" stroke="#f0f0f0" d="M329.895,-551.386C326.771,-563.881 322.501,-580.963 318.943,-595.196"/>
<polygon fill="#f0f0f0" stroke="#f0f0f0" points="315.534,-594.399 316.504,-604.95 322.325,-596.097 315.534,-594.399"/>
<text text-anchor="middle" x="340.679" y="-559.913" font-family="Times New Roman,serif" font-size="8.00" fill="#f0f0f0">use</text>
</g>
<!-- http://example.org/disti@j#5 -->
<g id="node11" class="node"><title>http://example.org/disti@j#5</title>
<ellipse fill="none" stroke="black" cx="548.242" cy="-623" rx="113.18" ry="18"/>
<text text-anchor="middle" x="548.242" y="-619.3" font-family="Times New Roman,serif" font-size="14.00">http://example.org/disti@j#5</text>
</g>
<!-- http://example.org/access85&#45;&gt;http://example.org/disti@j#5 -->
<g id="edge21" class="edge"><title>http://example.org/access85&#45;&gt;http://example.org/disti@j#5</title>
<path fill="none" stroke="#f0f0f0" d="M363.606,-551.24C383.402,-562.401 410.351,-576.716 435.242,-587 450.646,-593.365 467.64,-599.211 483.668,-604.229"/>
<polygon fill="#f0f0f0" stroke="#f0f0f0" points="482.913,-607.658 493.499,-607.243 484.964,-600.966 482.913,-607.658"/>
<text text-anchor="middle" x="489.742" y="-580.6" font-family="Times New Roman,serif" font-size="8.00" fill="#f0f0f0">use</text>
<text text-anchor="middle" x="489.742" y="-571.6" font-family="Times New Roman,serif" font-size="8.00" fill="#f0f0f0">2018&#45;03&#45;22T00:15:08.296738</text>
</g>
<!-- http://example.org/j#26 -->
<g id="node12" class="node"><title>http://example.org/j#26</title>
<ellipse fill="none" stroke="black" cx="94.2416" cy="-623" rx="94.4839" ry="18"/>
<text text-anchor="middle" x="94.2416" y="-619.3" font-family="Times New Roman,serif" font-size="14.00">http://example.org/j#26</text>
</g>
<!-- http://example.org/access85&#45;&gt;http://example.org/j#26 -->
<g id="edge10" class="edge"><title>http://example.org/access85&#45;&gt;http://example.org/j#26</title>
<path fill="none" stroke="#f0f0f0" d="M300.11,-546.515C259.757,-561.311 192.197,-586.083 145.537,-603.192"/>
<polygon fill="#f0f0f0" stroke="#f0f0f0" points="144.099,-599.991 135.915,-606.72 146.508,-606.563 144.099,-599.991"/>
<text text-anchor="middle" x="297.541" y="-559.393" font-family="Times New Roman,serif" font-size="8.00" fill="#f0f0f0">use</text>
</g>
<!-- bn1&#45;&gt;http://example.org/distk#3 -->
<g id="edge7" class="edge"><title>bn1&#45;&gt;http://example.org/distk#3</title>
<path fill="none" stroke="#f0f0f0" stroke-dasharray="5,2" d="M547.635,-534.937C543.772,-540.822 521.919,-572.867 495.242,-587 486.007,-591.892 439.465,-600.764 395.633,-608.351"/>
<polygon fill="#f0f0f0" stroke="#f0f0f0" points="395.015,-604.905 385.752,-610.048 396.2,-611.804 395.015,-604.905"/>
</g>
<!-- bn1&#45;&gt;http://example.org/disti@j#5 -->
<g id="edge8" class="edge"><title>bn1&#45;&gt;http://example.org/disti@j#5</title>
<path fill="none" stroke="#f0f0f0" d="M548.242,-534.988C548.242,-540.85 548.242,-571.595 548.242,-594.891"/>
<polygon fill="#f0f0f0" stroke="#f0f0f0" points="544.742,-594.954 548.242,-604.954 551.742,-594.955 544.742,-594.954"/>
<text text-anchor="middle" x="553.742" y="-576.1" font-family="Times New Roman,serif" font-size="8.00" fill="#f0f0f0">[1]</text>
</g>
<!-- http://example.org/sum#12 -->
<g id="node13" class="node"><title>http://example.org/sum#12</title>
<g id="a_node13"><a xlink:href="http://example.org/sum#12" xlink:title="sum#12">
<ellipse fill="#fafafa" stroke="#f0f0f0" cx="650.242" cy="-297" rx="39.7935" ry="18"/>
<text text-anchor="middle" x="650.242" y="-293.3" font-family="Times New Roman,serif" font-size="14.00" fill="#f0f0f0">sum#12</text>
</a>
</g>
</g>
<!-- http://example.org/sum#12&#45;&gt;http://example.org/disti@k#12 -->
<g id="edge13" class="edge"><title>http://example.org/sum#12&#45;&gt;http://example.org/disti@k#12</title>
<path fill="none" stroke="#f0f0f0" d="M662.646,-314.239C681.772,-339.276 718.605,-387.494 741.147,-417.003"/>
<polygon fill="#f0f0f0" stroke="#f0f0f0" points="738.522,-419.332 747.373,-425.154 744.084,-415.083 738.522,-419.332"/>
<text text-anchor="middle" x="677.522" y="-310.413" font-family="Times New Roman,serif" font-size="8.00" fill="#f0f0f0">der</text>
</g>
<!-- http://example.org/sum#12&#45;&gt;http://example.org/distk@j#12 -->
<g id="edge14" class="edge"><title>http://example.org/sum#12&#45;&gt;http://example.org/distk@j#12</title>
<path fill="none" stroke="#f0f0f0" d="M637.493,-314.24C629.88,-324.574 620.504,-338.51 614.242,-352 604.853,-372.224 598.064,-396.598 593.782,-414.877"/>
<polygon fill="#f0f0f0" stroke="#f0f0f0" points="590.317,-414.335 591.55,-424.857 597.148,-415.862 590.317,-414.335"/>
<text text-anchor="middle" x="643.583" y="-326.048" font-family="Times New Roman,serif" font-size="8.00" fill="#f0f0f0">der</text>
</g>
<!-- http://example.org/sum#12_v1 -->
<g id="node14" class="node"><title>http://example.org/sum#12_v1</title>
<g id="a_node14"><a xlink:href="http://example.org/sum#12_v1" xlink:title="sum#12_v1">
<ellipse fill="#fffc87" stroke="#808080" cx="792.242" cy="-370" rx="53.0913" ry="18"/>
<text text-anchor="middle" x="792.242" y="-366.3" font-family="Times New Roman,serif" font-size="14.00">sum#12_v1</text>
</a>
</g>
</g>
<!-- http://example.org/sum#12&#45;&gt;http://example.org/sum#12_v1 -->
<g id="edge12" class="edge"><title>http://example.org/sum#12&#45;&gt;http://example.org/sum#12_v1</title>
<path fill="none" stroke="black" d="M676.643,-310.658C690.293,-317.247 707.2,-325.478 722.242,-333 733.018,-338.39 744.675,-344.337 755.328,-349.819"/>
<polygon fill="black" stroke="black" points="753.892,-353.016 764.384,-354.491 757.101,-346.795 753.892,-353.016"/>
<text text-anchor="middle" x="689.048" y="-300.325" font-family="Times New Roman,serif" font-size="8.00">spe</text>
</g>
<!-- http://example.org/+12 -->
<g id="node16" class="node"><title>http://example.org/+12</title>
<g id="a_node16"><a xlink:href="http://example.org/+12" xlink:title="+12">
<polygon fill="#fafafa" stroke="#f0f0f0" points="677.242,-388 623.242,-388 623.242,-352 677.242,-352 677.242,-388"/>
<text text-anchor="middle" x="650.242" y="-366.3" font-family="Times New Roman,serif" font-size="14.00" fill="#f0f0f0">+12</text>
</a>
</g>
</g>
<!-- http://example.org/sum#12&#45;&gt;http://example.org/+12 -->
<g id="edge23" class="edge"><title>http://example.org/sum#12&#45;&gt;http://example.org/+12</title>
<path fill="none" stroke="#f0f0f0" d="M650.242,-315.187C650.242,-323.211 650.242,-332.953 650.242,-341.931"/>
<polygon fill="#f0f0f0" stroke="#f0f0f0" points="646.742,-341.971 650.242,-351.971 653.742,-341.971 646.742,-341.971"/>
<text text-anchor="middle" x="663.232" y="-320.787" font-family="Times New Roman,serif" font-size="8.00" fill="#f0f0f0">gen</text>
</g>
<!-- &#45;attrs0 -->
<g id="node15" class="node"><title>&#45;attrs0</title>
<polygon fill="none" stroke="gray" points="876.742,-315 707.742,-315 707.742,-279 882.742,-279 882.742,-309 876.742,-315"/>
<polyline fill="none" stroke="gray" points="876.742,-315 876.742,-309 "/>
<polyline fill="none" stroke="gray" points="882.742,-309 876.742,-309 "/>
<text text-anchor="start" x="718.242" y="-301" font-family="Times New Roman,serif" font-size="10.00">checkpoint:</text>
<text text-anchor="start" x="767.242" y="-301" font-family="Times New Roman,serif" font-size="10.00">2018&#45;03&#45;22 00:15:08.296738</text>
<text text-anchor="start" x="718.242" y="-288" font-family="Times New Roman,serif" font-size="10.00">type:</text>
<text text-anchor="start" x="767.242" y="-288" font-family="Times New Roman,serif" font-size="10.00">Version</text>
</g>
<!-- &#45;attrs0&#45;&gt;http://example.org/sum#12_v1 -->
<g id="edge11" class="edge"><title>&#45;attrs0&#45;&gt;http://example.org/sum#12_v1</title>
<path fill="none" stroke="gray" stroke-dasharray="5,2" d="M794.515,-315.187C794.044,-326.35 793.432,-340.84 792.961,-351.971"/>
</g>
<!-- http://example.org/+12&#45;&gt;http://example.org/disti@k#12 -->
<g id="edge18" class="edge"><title>http://example.org/+12&#45;&gt;http://example.org/disti@k#12</title>
<path fill="none" stroke="#f0f0f0" d="M669.751,-388.359C677.17,-394.58 685.858,-401.427 694.242,-407 702.91,-412.762 712.629,-418.351 721.888,-423.309"/>
<polygon fill="#f0f0f0" stroke="#f0f0f0" points="720.455,-426.509 730.939,-428.04 723.698,-420.305 720.455,-426.509"/>
<text text-anchor="middle" x="683.826" y="-381.273" font-family="Times New Roman,serif" font-size="8.00" fill="#f0f0f0">use</text>
</g>
<!-- http://example.org/+12&#45;&gt;http://example.org/distk@j#12 -->
<g id="edge19" class="edge"><title>http://example.org/+12&#45;&gt;http://example.org/distk@j#12</title>
<path fill="none" stroke="#f0f0f0" d="M635.233,-388.187C627.506,-397.036 617.952,-407.976 609.482,-417.677"/>
<polygon fill="#f0f0f0" stroke="#f0f0f0" points="606.626,-415.626 602.685,-425.46 611.899,-420.23 606.626,-415.626"/>
<text text-anchor="middle" x="640.085" y="-400.481" font-family="Times New Roman,serif" font-size="8.00" fill="#f0f0f0">use</text>
</g>
<!-- http://example.org/ikj#12 -->
<g id="node17" class="node"><title>http://example.org/ikj#12</title>
<g id="a_node17"><a xlink:href="http://example.org/ikj#12" xlink:title="ikj#12">
<ellipse fill="#fffc87" stroke="#808080" cx="618.242" cy="-117" rx="32.4942" ry="18"/>
<text text-anchor="middle" x="618.242" y="-113.3" font-family="Times New Roman,serif" font-size="14.00">ikj#12</text>
</a>
</g>
</g>
<!-- http://example.org/ikj#12&#45;&gt;http://example.org/sum#12 -->
<g id="edge16" class="edge"><title>http://example.org/ikj#12&#45;&gt;http://example.org/sum#12</title>
<path fill="none" stroke="#f0f0f0" d="M613.905,-134.983C609.179,-156.345 603.284,-193.985 611.242,-225 615.473,-241.492 624.424,-258.263 632.685,-271.362"/>
<polygon fill="#f0f0f0" stroke="#f0f0f0" points="629.81,-273.361 638.227,-279.796 635.66,-269.516 629.81,-273.361"/>
<text text-anchor="middle" x="665.742" y="-209.6" font-family="Times New Roman,serif" font-size="8.00" fill="#f0f0f0">der ref</text>
<text text-anchor="middle" x="665.742" y="-200.6" font-family="Times New Roman,serif" font-size="8.00" fill="#f0f0f0">2018&#45;03&#45;22T00:15:08.296738</text>
</g>
<!-- http://example.org/assign32 -->
<g id="node19" class="node"><title>http://example.org/assign32</title>
<g id="a_node19"><a xlink:href="http://example.org/assign32" xlink:title="assign32">
<polygon fill="#fafafa" stroke="#f0f0f0" points="794.742,-225 729.742,-225 729.742,-189 794.742,-189 794.742,-225"/>
<text text-anchor="middle" x="762.242" y="-203.3" font-family="Times New Roman,serif" font-size="14.00" fill="#f0f0f0">assign32</text>
</a>
</g>
</g>
<!-- http://example.org/ikj#12&#45;&gt;http://example.org/assign32 -->
<g id="edge22" class="edge"><title>http://example.org/ikj#12&#45;&gt;http://example.org/assign32</title>
<path fill="none" stroke="#f0f0f0" d="M639.18,-130.796C661.845,-144.646 698.417,-166.996 725.813,-183.738"/>
<polygon fill="#f0f0f0" stroke="#f0f0f0" points="723.998,-186.73 734.356,-188.959 727.648,-180.758 723.998,-186.73"/>
<text text-anchor="middle" x="757.742" y="-164.6" font-family="Times New Roman,serif" font-size="8.00" fill="#f0f0f0">gen</text>
<text text-anchor="middle" x="757.742" y="-155.6" font-family="Times New Roman,serif" font-size="8.00" fill="#f0f0f0">2018&#45;03&#45;22T00:15:08.296738</text>
</g>
<!-- &#45;attrs1 -->
<g id="node18" class="node"><title>&#45;attrs1</title>
<polygon fill="none" stroke="gray" points="646.742,-62 583.742,-62 583.742,-0 652.742,-0 652.742,-56 646.742,-62"/>
<polyline fill="none" stroke="gray" points="646.742,-62 646.742,-56 "/>
<polyline fill="none" stroke="gray" points="652.742,-56 646.742,-56 "/>
<text text-anchor="start" x="594.242" y="-48" font-family="Times New Roman,serif" font-size="10.00">value:</text>
<text text-anchor="start" x="621.242" y="-48" font-family="Times New Roman,serif" font-size="10.00">3</text>
<text text-anchor="start" x="594.242" y="-35" font-family="Times New Roman,serif" font-size="10.00">type:</text>
<text text-anchor="start" x="621.242" y="-35" font-family="Times New Roman,serif" font-size="10.00">name</text>
<text text-anchor="start" x="594.242" y="-22" font-family="Times New Roman,serif" font-size="10.00">label:</text>
<text text-anchor="start" x="621.242" y="-22" font-family="Times New Roman,serif" font-size="10.00">ikj</text>
<text text-anchor="start" x="594.242" y="-9" font-family="Times New Roman,serif" font-size="10.00">line:</text>
<text text-anchor="start" x="621.242" y="-9" font-family="Times New Roman,serif" font-size="10.00">15</text>
</g>
<!-- &#45;attrs1&#45;&gt;http://example.org/ikj#12 -->
<g id="edge15" class="edge"><title>&#45;attrs1&#45;&gt;http://example.org/ikj#12</title>
<path fill="none" stroke="gray" stroke-dasharray="5,2" d="M618.242,-62.3259C618.242,-74.5443 618.242,-88.1945 618.242,-98.6716"/>
</g>
<!-- http://example.org/assign32&#45;&gt;http://example.org/sum#12 -->
<g id="edge20" class="edge"><title>http://example.org/assign32&#45;&gt;http://example.org/sum#12</title>
<path fill="none" stroke="#f0f0f0" d="M740.381,-225.176C722.414,-239.293 696.865,-259.367 677.553,-274.541"/>
<polygon fill="#f0f0f0" stroke="#f0f0f0" points="675.134,-271.99 669.433,-280.921 679.459,-277.495 675.134,-271.99"/>
<text text-anchor="middle" x="771.742" y="-254.6" font-family="Times New Roman,serif" font-size="8.00" fill="#f0f0f0">use</text>
<text text-anchor="middle" x="771.742" y="-245.6" font-family="Times New Roman,serif" font-size="8.00" fill="#f0f0f0">2018&#45;03&#45;22T00:15:08.296738</text>
</g>
</g>
</svg>
