<?xml version="1.0" encoding="UTF-8" standalone="no"?>
<!DOCTYPE svg PUBLIC "-//W3C//DTD SVG 1.1//EN"
 "http://www.w3.org/Graphics/SVG/1.1/DTD/svg11.dtd">
<!-- Generated by graphviz version 2.38.0 (20140413.2041)
 -->
<!-- Title: PROV Pages: 1 -->
<svg width="1152pt" height="659pt"
 viewBox="0.00 0.00 1152.00 658.73" xmlns="http://www.w3.org/2000/svg" xmlns:xlink="http://www.w3.org/1999/xlink">
<g id="graph0" class="graph" transform="scale(0.945089 0.945089) rotate(0) translate(4 693)">
<title>PROV</title>
<polygon fill="white" stroke="none" points="-4,4 -4,-693 1214.93,-693 1214.93,4 -4,4"/>
<!-- http://example.org/disti@k#11 -->
<g id="node1" class="node"><title>http://example.org/disti@k#11</title>
<g id="a_node1"><a xlink:href="http://example.org/disti@k#11" xlink:title="disti@k#11">
<ellipse fill="#fafafa" stroke="#f0f0f0" cx="727.242" cy="-467" rx="51.9908" ry="18"/>
<text text-anchor="middle" x="727.242" y="-463.3" font-family="Times New Roman,serif" font-size="14.00" fill="#f0f0f0">disti@k#11</text>
</a>
</g>
</g>
<!-- http://example.org/access80 -->
<g id="node2" class="node"><title>http://example.org/access80</title>
<g id="a_node2"><a xlink:href="http://example.org/access80" xlink:title="access80">
<polygon fill="#fafafa" stroke="#f0f0f0" points="777.242,-587 709.242,-587 709.242,-551 777.242,-551 777.242,-587"/>
<text text-anchor="middle" x="743.242" y="-565.3" font-family="Times New Roman,serif" font-size="14.00" fill="#f0f0f0">access80</text>
</a>
</g>
</g>
<!-- http://example.org/disti@k#11&#45;&gt;http://example.org/access80 -->
<g id="edge24" class="edge"><title>http://example.org/disti@k#11&#45;&gt;http://example.org/access80</title>
<path fill="none" stroke="#f0f0f0" d="M730.029,-485.419C732.461,-500.618 736.031,-522.933 738.847,-540.536"/>
<polygon fill="#f0f0f0" stroke="#f0f0f0" points="735.451,-541.46 740.487,-550.781 742.363,-540.354 735.451,-541.46"/>
<text text-anchor="middle" x="819.742" y="-521.8" font-family="Times New Roman,serif" font-size="14.00" fill="#f0f0f0">gen</text>
<text text-anchor="middle" x="819.742" y="-506.8" font-family="Times New Roman,serif" font-size="14.00" fill="#f0f0f0">2018&#45;06&#45;09T21:00:49.320957</text>
</g>
<!-- bn0 -->
<g id="node3" class="node"><title>bn0</title>
<ellipse fill="#f0f0f0" stroke="#f0f0f0" cx="955.242" cy="-569" rx="1.8" ry="1.8"/>
</g>
<!-- http://example.org/disti@k#11&#45;&gt;bn0 -->
<g id="edge1" class="edge"><title>http://example.org/disti@k#11&#45;&gt;bn0</title>
<path fill="none" stroke="#f0f0f0" d="M779.081,-468.629C816.615,-471.255 867.223,-479.448 905.242,-503 933.805,-520.694 952.197,-561.005 954.897,-567.196"/>
<text text-anchor="middle" x="1016.74" y="-521.8" font-family="Times New Roman,serif" font-size="14.00" fill="#f0f0f0">der ac&#45;r</text>
<text text-anchor="middle" x="1016.74" y="-506.8" font-family="Times New Roman,serif" font-size="14.00" fill="#f0f0f0">2018&#45;06&#45;09T21:00:49.320957</text>
</g>
<!-- http://example.org/disti#9 -->
<g id="node4" class="node"><title>http://example.org/disti#9</title>
<ellipse fill="none" stroke="black" cx="1108.24" cy="-671" rx="102.882" ry="18"/>
<text text-anchor="middle" x="1108.24" y="-667.3" font-family="Times New Roman,serif" font-size="14.00">http://example.org/disti#9</text>
</g>
<!-- http://example.org/access80&#45;&gt;http://example.org/disti#9 -->
<g id="edge4" class="edge"><title>http://example.org/access80&#45;&gt;http://example.org/disti#9</title>
<path fill="none" stroke="#f0f0f0" d="M777.263,-571.274C812.178,-573.891 867.071,-581.73 908.242,-605 924.119,-613.974 920.327,-626.091 936.242,-635 951.247,-643.399 986.451,-651.195 1021.13,-657.287"/>
<polygon fill="#f0f0f0" stroke="#f0f0f0" points="1020.91,-660.802 1031.36,-659.041 1022.1,-653.902 1020.91,-660.802"/>
<text text-anchor="middle" x="785.851" y="-557.076" font-family="Times New Roman,serif" font-size="8.00" fill="#f0f0f0">use</text>
</g>
<!-- http://example.org/0 -->
<g id="node5" class="node"><title>http://example.org/0</title>
<ellipse fill="none" stroke="black" cx="904.242" cy="-671" rx="83.3857" ry="18"/>
<text text-anchor="middle" x="904.242" y="-667.3" font-family="Times New Roman,serif" font-size="14.00">http://example.org/0</text>
</g>
<!-- http://example.org/access80&#45;&gt;http://example.org/0 -->
<g id="edge21" class="edge"><title>http://example.org/access80&#45;&gt;http://example.org/0</title>
<path fill="none" stroke="#f0f0f0" d="M738.482,-587.212C735.618,-601.622 734.358,-621.878 745.242,-635 748.311,-638.701 793.051,-648.358 834.289,-656.593"/>
<polygon fill="#f0f0f0" stroke="#f0f0f0" points="833.626,-660.029 844.116,-658.542 834.988,-653.163 833.626,-660.029"/>
<text text-anchor="middle" x="826.742" y="-623.8" font-family="Times New Roman,serif" font-size="14.00" fill="#f0f0f0">use</text>
<text text-anchor="middle" x="826.742" y="-608.8" font-family="Times New Roman,serif" font-size="14.00" fill="#f0f0f0">2018&#45;06&#45;09T21:00:49.320957</text>
</g>
<!-- http://example.org/k#3 -->
<g id="node6" class="node"><title>http://example.org/k#3</title>
<ellipse fill="none" stroke="black" cx="711.242" cy="-671" rx="92.0841" ry="18"/>
<text text-anchor="middle" x="711.242" y="-667.3" font-family="Times New Roman,serif" font-size="14.00">http://example.org/k#3</text>
</g>
<!-- http://example.org/access80&#45;&gt;http://example.org/k#3 -->
<g id="edge5" class="edge"><title>http://example.org/access80&#45;&gt;http://example.org/k#3</title>
<path fill="none" stroke="#f0f0f0" d="M733.339,-587.043C730.407,-592.627 727.405,-598.952 725.242,-605 720.925,-617.066 717.719,-630.891 715.473,-642.68"/>
<polygon fill="#f0f0f0" stroke="#f0f0f0" points="711.974,-642.368 713.675,-652.825 718.866,-643.589 711.974,-642.368"/>
<text text-anchor="middle" x="741.411" y="-597.786" font-family="Times New Roman,serif" font-size="8.00" fill="#f0f0f0">use</text>
</g>
<!-- bn0&#45;&gt;http://example.org/disti#9 -->
<g id="edge2" class="edge"><title>bn0&#45;&gt;http://example.org/disti#9</title>
<path fill="none" stroke="#f0f0f0" stroke-dasharray="5,2" d="M956.219,-570.639C965.081,-576.431 1032.21,-620.308 1074.25,-647.784"/>
<polygon fill="#f0f0f0" stroke="#f0f0f0" points="1072.52,-650.837 1082.81,-653.378 1076.35,-644.977 1072.52,-650.837"/>
</g>
<!-- bn0&#45;&gt;http://example.org/0 -->
<g id="edge3" class="edge"><title>bn0&#45;&gt;http://example.org/0</title>
<path fill="none" stroke="#f0f0f0" d="M954.669,-571.123C951.066,-578.187 931.251,-617.041 917.56,-643.886"/>
<polygon fill="#f0f0f0" stroke="#f0f0f0" points="914.434,-642.311 913.009,-652.809 920.67,-645.491 914.434,-642.311"/>
<text text-anchor="middle" x="946.242" y="-616.3" font-family="Times New Roman,serif" font-size="14.00" fill="#f0f0f0">[2]</text>
</g>
<!-- http://example.org/distk@j#11 -->
<g id="node7" class="node"><title>http://example.org/distk@j#11</title>
<g id="a_node7"><a xlink:href="http://example.org/distk@j#11" xlink:title="distk@j#11">
<ellipse fill="#fafafa" stroke="#f0f0f0" cx="572.242" cy="-467" rx="51.9908" ry="18"/>
<text text-anchor="middle" x="572.242" y="-463.3" font-family="Times New Roman,serif" font-size="14.00" fill="#f0f0f0">distk@j#11</text>
</a>
</g>
</g>
<!-- http://example.org/access81 -->
<g id="node8" class="node"><title>http://example.org/access81</title>
<g id="a_node8"><a xlink:href="http://example.org/access81" xlink:title="access81">
<polygon fill="#fafafa" stroke="#f0f0f0" points="360.242,-587 292.242,-587 292.242,-551 360.242,-551 360.242,-587"/>
<text text-anchor="middle" x="326.242" y="-565.3" font-family="Times New Roman,serif" font-size="14.00" fill="#f0f0f0">access81</text>
</a>
</g>
</g>
<!-- http://example.org/distk@j#11&#45;&gt;http://example.org/access81 -->
<g id="edge22" class="edge"><title>http://example.org/distk@j#11&#45;&gt;http://example.org/access81</title>
<path fill="none" stroke="#f0f0f0" d="M520.615,-469.412C482.078,-472.395 429.225,-480.691 388.242,-503 370.773,-512.509 355.323,-528.675 344.215,-542.505"/>
<polygon fill="#f0f0f0" stroke="#f0f0f0" points="341.206,-540.675 337.88,-550.735 346.753,-544.945 341.206,-540.675"/>
<text text-anchor="middle" x="469.742" y="-521.8" font-family="Times New Roman,serif" font-size="14.00" fill="#f0f0f0">gen</text>
<text text-anchor="middle" x="469.742" y="-506.8" font-family="Times New Roman,serif" font-size="14.00" fill="#f0f0f0">2018&#45;06&#45;09T21:00:49.320957</text>
</g>
<!-- bn1 -->
<g id="node9" class="node"><title>bn1</title>
<ellipse fill="#f0f0f0" stroke="#f0f0f0" cx="556.242" cy="-569" rx="1.8" ry="1.8"/>
</g>
<!-- http://example.org/distk@j#11&#45;&gt;bn1 -->
<g id="edge6" class="edge"><title>http://example.org/distk@j#11&#45;&gt;bn1</title>
<path fill="none" stroke="#f0f0f0" d="M564.027,-485.074C561.719,-490.659 559.498,-496.978 558.242,-503 552.893,-528.641 555.596,-561.191 556.15,-567.069"/>
<text text-anchor="middle" x="639.742" y="-521.8" font-family="Times New Roman,serif" font-size="14.00" fill="#f0f0f0">der ac&#45;r</text>
<text text-anchor="middle" x="639.742" y="-506.8" font-family="Times New Roman,serif" font-size="14.00" fill="#f0f0f0">2018&#45;06&#45;09T21:00:49.320957</text>
</g>
<!-- http://example.org/distk#3 -->
<g id="node10" class="node"><title>http://example.org/distk#3</title>
<ellipse fill="none" stroke="black" cx="312.242" cy="-671" rx="105.082" ry="18"/>
<text text-anchor="middle" x="312.242" y="-667.3" font-family="Times New Roman,serif" font-size="14.00">http://example.org/distk#3</text>
</g>
<!-- http://example.org/access81&#45;&gt;http://example.org/distk#3 -->
<g id="edge9" class="edge"><title>http://example.org/access81&#45;&gt;http://example.org/distk#3</title>
<path fill="none" stroke="#f0f0f0" d="M323.803,-587.419C321.675,-602.618 318.551,-624.933 316.087,-642.536"/>
<polygon fill="#f0f0f0" stroke="#f0f0f0" points="312.573,-642.392 314.652,-652.781 319.505,-643.363 312.573,-642.392"/>
<text text-anchor="middle" x="335.628" y="-594.747" font-family="Times New Roman,serif" font-size="8.00" fill="#f0f0f0">use</text>
</g>
<!-- http://example.org/2 -->
<g id="node11" class="node"><title>http://example.org/2</title>
<ellipse fill="none" stroke="black" cx="518.242" cy="-671" rx="83.3857" ry="18"/>
<text text-anchor="middle" x="518.242" y="-667.3" font-family="Times New Roman,serif" font-size="14.00">http://example.org/2</text>
</g>
<!-- http://example.org/access81&#45;&gt;http://example.org/2 -->
<g id="edge17" class="edge"><title>http://example.org/access81&#45;&gt;http://example.org/2</title>
<path fill="none" stroke="#f0f0f0" d="M332.605,-587.065C339.059,-601.992 350.494,-623.096 367.242,-635 374.284,-640.005 412.262,-648.797 448.365,-656.316"/>
<polygon fill="#f0f0f0" stroke="#f0f0f0" points="447.97,-659.809 458.471,-658.399 449.383,-652.953 447.97,-659.809"/>
<text text-anchor="middle" x="448.742" y="-623.8" font-family="Times New Roman,serif" font-size="14.00" fill="#f0f0f0">use</text>
<text text-anchor="middle" x="448.742" y="-608.8" font-family="Times New Roman,serif" font-size="14.00" fill="#f0f0f0">2018&#45;06&#45;09T21:00:49.320957</text>
</g>
<!-- http://example.org/j#25 -->
<g id="node12" class="node"><title>http://example.org/j#25</title>
<ellipse fill="none" stroke="black" cx="94.2416" cy="-671" rx="94.4839" ry="18"/>
<text text-anchor="middle" x="94.2416" y="-667.3" font-family="Times New Roman,serif" font-size="14.00">http://example.org/j#25</text>
</g>
<!-- http://example.org/access81&#45;&gt;http://example.org/j#25 -->
<g id="edge10" class="edge"><title>http://example.org/access81&#45;&gt;http://example.org/j#25</title>
<path fill="none" stroke="#f0f0f0" d="M292.009,-584.755C251.731,-602.116 184.693,-631.012 139.988,-650.282"/>
<polygon fill="#f0f0f0" stroke="#f0f0f0" points="138.325,-647.187 130.527,-654.36 141.096,-653.615 138.325,-647.187"/>
<text text-anchor="middle" x="290.264" y="-597.753" font-family="Times New Roman,serif" font-size="8.00" fill="#f0f0f0">use</text>
</g>
<!-- bn1&#45;&gt;http://example.org/distk#3 -->
<g id="edge7" class="edge"><title>bn1&#45;&gt;http://example.org/distk#3</title>
<path fill="none" stroke="#f0f0f0" stroke-dasharray="5,2" d="M555.681,-570.968C551.36,-578.395 523.162,-626.267 509.242,-635 504.181,-638.175 447.663,-648.046 396.458,-656.499"/>
<polygon fill="#f0f0f0" stroke="#f0f0f0" points="395.604,-653.092 386.304,-658.168 396.74,-659.999 395.604,-653.092"/>
</g>
<!-- bn1&#45;&gt;http://example.org/2 -->
<g id="edge8" class="edge"><title>bn1&#45;&gt;http://example.org/2</title>
<path fill="none" stroke="#f0f0f0" d="M555.966,-570.929C554.221,-576.799 544.431,-609.307 534.242,-635 533.096,-637.888 531.839,-640.882 530.549,-643.847"/>
<polygon fill="#f0f0f0" stroke="#f0f0f0" points="527.314,-642.505 526.408,-653.061 533.699,-645.374 527.314,-642.505"/>
<text text-anchor="middle" x="553.242" y="-616.3" font-family="Times New Roman,serif" font-size="14.00" fill="#f0f0f0">[0]</text>
</g>
<!-- http://example.org/sum#11 -->
<g id="node13" class="node"><title>http://example.org/sum#11</title>
<g id="a_node13"><a xlink:href="http://example.org/sum#11" xlink:title="sum#11">
<ellipse fill="#fafafa" stroke="#f0f0f0" cx="634.242" cy="-321" rx="39.7935" ry="18"/>
<text text-anchor="middle" x="634.242" y="-317.3" font-family="Times New Roman,serif" font-size="14.00" fill="#f0f0f0">sum#11</text>
</a>
</g>
</g>
<!-- http://example.org/sum#11&#45;&gt;http://example.org/disti@k#11 -->
<g id="edge13" class="edge"><title>http://example.org/sum#11&#45;&gt;http://example.org/disti@k#11</title>
<path fill="none" stroke="#f0f0f0" d="M645.371,-338.477C652.537,-349.138 662.014,-363.34 670.242,-376 684.317,-397.658 699.998,-422.47 711.345,-440.55"/>
<polygon fill="#f0f0f0" stroke="#f0f0f0" points="708.576,-442.723 716.852,-449.338 714.508,-439.006 708.576,-442.723"/>
<text text-anchor="middle" x="660.337" y="-335.563" font-family="Times New Roman,serif" font-size="8.00" fill="#f0f0f0">der</text>
</g>
<!-- http://example.org/sum#11&#45;&gt;http://example.org/distk@j#11 -->
<g id="edge14" class="edge"><title>http://example.org/sum#11&#45;&gt;http://example.org/distk@j#11</title>
<path fill="none" stroke="#f0f0f0" d="M621.493,-338.24C613.88,-348.574 604.504,-362.51 598.242,-376 588.853,-396.224 582.064,-420.598 577.782,-438.877"/>
<polygon fill="#f0f0f0" stroke="#f0f0f0" points="574.317,-438.335 575.55,-448.857 581.148,-439.862 574.317,-438.335"/>
<text text-anchor="middle" x="627.583" y="-350.048" font-family="Times New Roman,serif" font-size="8.00" fill="#f0f0f0">der</text>
</g>
<!-- http://example.org/sum#11_v1 -->
<g id="node14" class="node"><title>http://example.org/sum#11_v1</title>
<g id="a_node14"><a xlink:href="http://example.org/sum#11_v1" xlink:title="sum#11_v1">
<ellipse fill="#fffc87" stroke="#808080" cx="776.242" cy="-394" rx="53.0913" ry="18"/>
<text text-anchor="middle" x="776.242" y="-390.3" font-family="Times New Roman,serif" font-size="14.00">sum#11_v1</text>
</a>
</g>
</g>
<!-- http://example.org/sum#11&#45;&gt;http://example.org/sum#11_v1 -->
<g id="edge12" class="edge"><title>http://example.org/sum#11&#45;&gt;http://example.org/sum#11_v1</title>
<path fill="none" stroke="black" d="M660.643,-334.658C674.293,-341.247 691.2,-349.478 706.242,-357 717.018,-362.39 728.675,-368.337 739.328,-373.819"/>
<polygon fill="black" stroke="black" points="737.892,-377.016 748.384,-378.491 741.101,-370.795 737.892,-377.016"/>
<text text-anchor="middle" x="673.048" y="-324.325" font-family="Times New Roman,serif" font-size="8.00">spe</text>
</g>
<!-- http://example.org/+11 -->
<g id="node16" class="node"><title>http://example.org/+11</title>
<g id="a_node16"><a xlink:href="http://example.org/+11" xlink:title="+11">
<polygon fill="#fafafa" stroke="#f0f0f0" points="661.242,-412 607.242,-412 607.242,-376 661.242,-376 661.242,-412"/>
<text text-anchor="middle" x="634.242" y="-390.3" font-family="Times New Roman,serif" font-size="14.00" fill="#f0f0f0">+11</text>
</a>
</g>
</g>
<!-- http://example.org/sum#11&#45;&gt;http://example.org/+11 -->
<g id="edge25" class="edge"><title>http://example.org/sum#11&#45;&gt;http://example.org/+11</title>
<path fill="none" stroke="#f0f0f0" d="M634.242,-339.187C634.242,-347.211 634.242,-356.953 634.242,-365.931"/>
<polygon fill="#f0f0f0" stroke="#f0f0f0" points="630.742,-365.971 634.242,-375.971 637.742,-365.971 630.742,-365.971"/>
<text text-anchor="middle" x="647.232" y="-344.787" font-family="Times New Roman,serif" font-size="8.00" fill="#f0f0f0">gen</text>
</g>
<!-- http://example.org/sum#11_v1&#45;attrs -->
<g id="node15" class="node"><title>http://example.org/sum#11_v1&#45;attrs</title>
<polygon fill="none" stroke="gray" points="860.742,-339 691.742,-339 691.742,-303 866.742,-303 866.742,-333 860.742,-339"/>
<polyline fill="none" stroke="gray" points="860.742,-339 860.742,-333 "/>
<polyline fill="none" stroke="gray" points="866.742,-333 860.742,-333 "/>
<text text-anchor="start" x="702.242" y="-325" font-family="Times New Roman,serif" font-size="10.00">checkpoint:</text>
<text text-anchor="start" x="751.242" y="-325" font-family="Times New Roman,serif" font-size="10.00">2018&#45;06&#45;09 21:00:49.320957</text>
<text text-anchor="start" x="702.242" y="-312" font-family="Times New Roman,serif" font-size="10.00">type:</text>
<text text-anchor="start" x="751.242" y="-312" font-family="Times New Roman,serif" font-size="10.00">Version</text>
</g>
<!-- http://example.org/sum#11_v1&#45;attrs&#45;&gt;http://example.org/sum#11_v1 -->
<g id="edge11" class="edge"><title>http://example.org/sum#11_v1&#45;attrs&#45;&gt;http://example.org/sum#11_v1</title>
<path fill="none" stroke="gray" stroke-dasharray="5,2" d="M778.515,-339.187C778.044,-350.35 777.432,-364.84 776.961,-375.971"/>
</g>
<!-- http://example.org/+11&#45;&gt;http://example.org/disti@k#11 -->
<g id="edge18" class="edge"><title>http://example.org/+11&#45;&gt;http://example.org/disti@k#11</title>
<path fill="none" stroke="#f0f0f0" d="M654.612,-412.132C661.974,-418.198 670.402,-425.003 678.242,-431 684.179,-435.541 690.622,-440.276 696.825,-444.742"/>
<polygon fill="#f0f0f0" stroke="#f0f0f0" points="694.892,-447.663 705.065,-450.622 698.958,-441.965 694.892,-447.663"/>
<text text-anchor="middle" x="668.655" y="-404.96" font-family="Times New Roman,serif" font-size="8.00" fill="#f0f0f0">use</text>
</g>
<!-- http://example.org/+11&#45;&gt;http://example.org/distk@j#11 -->
<g id="edge20" class="edge"><title>http://example.org/+11&#45;&gt;http://example.org/distk@j#11</title>
<path fill="none" stroke="#f0f0f0" d="M619.233,-412.187C611.506,-421.036 601.952,-431.976 593.482,-441.677"/>
<polygon fill="#f0f0f0" stroke="#f0f0f0" points="590.626,-439.626 586.685,-449.46 595.899,-444.23 590.626,-439.626"/>
<text text-anchor="middle" x="624.085" y="-424.481" font-family="Times New Roman,serif" font-size="8.00" fill="#f0f0f0">use</text>
</g>
<!-- http://example.org/ikj#11 -->
<g id="node17" class="node"><title>http://example.org/ikj#11</title>
<g id="a_node17"><a xlink:href="http://example.org/ikj#11" xlink:title="ikj#11">
<ellipse fill="#fffc87" stroke="#808080" cx="589.242" cy="-117" rx="32.4942" ry="18"/>
<text text-anchor="middle" x="589.242" y="-113.3" font-family="Times New Roman,serif" font-size="14.00">ikj#11</text>
</a>
</g>
</g>
<!-- http://example.org/ikj#11&#45;&gt;http://example.org/sum#11 -->
<g id="edge16" class="edge"><title>http://example.org/ikj#11&#45;&gt;http://example.org/sum#11</title>
<path fill="none" stroke="#f0f0f0" d="M584.763,-134.945C579.344,-158.384 572.124,-201.794 582.242,-237 588.463,-258.649 602.17,-280.117 613.949,-295.795"/>
<polygon fill="#f0f0f0" stroke="#f0f0f0" points="611.331,-298.131 620.235,-303.874 616.856,-293.832 611.331,-298.131"/>
<text text-anchor="middle" x="663.742" y="-222.8" font-family="Times New Roman,serif" font-size="14.00" fill="#f0f0f0">der ref</text>
<text text-anchor="middle" x="663.742" y="-207.8" font-family="Times New Roman,serif" font-size="14.00" fill="#f0f0f0">2018&#45;06&#45;09T21:00:49.321954</text>
</g>
<!-- http://example.org/assign31 -->
<g id="node19" class="node"><title>http://example.org/assign31</title>
<g id="a_node19"><a xlink:href="http://example.org/assign31" xlink:title="assign31">
<polygon fill="#fafafa" stroke="#f0f0f0" points="819.742,-237 754.742,-237 754.742,-201 819.742,-201 819.742,-237"/>
<text text-anchor="middle" x="787.242" y="-215.3" font-family="Times New Roman,serif" font-size="14.00" fill="#f0f0f0">assign31</text>
</a>
</g>
</g>
<!-- http://example.org/ikj#11&#45;&gt;http://example.org/assign31 -->
<g id="edge23" class="edge"><title>http://example.org/ikj#11&#45;&gt;http://example.org/assign31</title>
<path fill="none" stroke="#f0f0f0" d="M612.342,-129.667C644.898,-146.11 704.822,-176.374 745.347,-196.841"/>
<polygon fill="#f0f0f0" stroke="#f0f0f0" points="743.938,-200.05 754.442,-201.434 747.094,-193.802 743.938,-200.05"/>
<text text-anchor="middle" x="799.742" y="-171.8" font-family="Times New Roman,serif" font-size="14.00" fill="#f0f0f0">gen</text>
<text text-anchor="middle" x="799.742" y="-156.8" font-family="Times New Roman,serif" font-size="14.00" fill="#f0f0f0">2018&#45;06&#45;09T21:00:49.321954</text>
</g>
<!-- http://example.org/ikj#11&#45;attrs -->
<g id="node18" class="node"><title>http://example.org/ikj#11&#45;attrs</title>
<polygon fill="none" stroke="gray" points="617.742,-62 554.742,-62 554.742,-0 623.742,-0 623.742,-56 617.742,-62"/>
<polyline fill="none" stroke="gray" points="617.742,-62 617.742,-56 "/>
<polyline fill="none" stroke="gray" points="623.742,-56 617.742,-56 "/>
<text text-anchor="start" x="565.242" y="-48" font-family="Times New Roman,serif" font-size="10.00">value:</text>
<text text-anchor="start" x="592.242" y="-48" font-family="Times New Roman,serif" font-size="10.00">2</text>
<text text-anchor="start" x="565.242" y="-35" font-family="Times New Roman,serif" font-size="10.00">type:</text>
<text text-anchor="start" x="592.242" y="-35" font-family="Times New Roman,serif" font-size="10.00">name</text>
<text text-anchor="start" x="565.242" y="-22" font-family="Times New Roman,serif" font-size="10.00">label:</text>
<text text-anchor="start" x="592.242" y="-22" font-family="Times New Roman,serif" font-size="10.00">ikj</text>
<text text-anchor="start" x="565.242" y="-9" font-family="Times New Roman,serif" font-size="10.00">line:</text>
<text text-anchor="start" x="592.242" y="-9" font-family="Times New Roman,serif" font-size="10.00">15</text>
</g>
<!-- http://example.org/ikj#11&#45;attrs&#45;&gt;http://example.org/ikj#11 -->
<g id="edge15" class="edge"><title>http://example.org/ikj#11&#45;attrs&#45;&gt;http://example.org/ikj#11</title>
<path fill="none" stroke="gray" stroke-dasharray="5,2" d="M589.242,-62.3259C589.242,-74.5443 589.242,-88.1945 589.242,-98.6716"/>
</g>
<!-- http://example.org/assign31&#45;&gt;http://example.org/sum#11 -->
<g id="edge19" class="edge"><title>http://example.org/assign31&#45;&gt;http://example.org/sum#11</title>
<path fill="none" stroke="#f0f0f0" d="M760.94,-237.191C734.265,-254.625 693.011,-281.589 664.876,-299.977"/>
<polygon fill="#f0f0f0" stroke="#f0f0f0" points="662.694,-297.223 656.238,-305.623 666.523,-303.082 662.694,-297.223"/>
<text text-anchor="middle" x="815.742" y="-273.8" font-family="Times New Roman,serif" font-size="14.00" fill="#f0f0f0">use</text>
<text text-anchor="middle" x="815.742" y="-258.8" font-family="Times New Roman,serif" font-size="14.00" fill="#f0f0f0">2018&#45;06&#45;09T21:00:49.321954</text>
</g>
</g>
</svg>
