<?xml version="1.0" encoding="UTF-8" standalone="no"?>
<!DOCTYPE svg PUBLIC "-//W3C//DTD SVG 1.1//EN"
 "http://www.w3.org/Graphics/SVG/1.1/DTD/svg11.dtd">
<!-- Generated by graphviz version 2.38.0 (20140413.2041)
 -->
<!-- Title: PROV Pages: 1 -->
<svg width="1036pt" height="697pt"
 viewBox="0.00 0.00 1035.53 697.00" xmlns="http://www.w3.org/2000/svg" xmlns:xlink="http://www.w3.org/1999/xlink">
<g id="graph0" class="graph" transform="scale(1 1) rotate(0) translate(4 693)">
<title>PROV</title>
<polygon fill="white" stroke="none" points="-4,4 -4,-693 1031.53,-693 1031.53,4 -4,4"/>
<!-- http://example.org/disti@k#10 -->
<g id="node1" class="node"><title>http://example.org/disti@k#10</title>
<g id="a_node1"><a xlink:href="http://example.org/disti@k#10" xlink:title="disti@k#10">
<ellipse fill="#fafafa" stroke="#f0f0f0" cx="427.292" cy="-467" rx="51.9908" ry="18"/>
<text text-anchor="middle" x="427.292" y="-463.3" font-family="Times New Roman,serif" font-size="14.00" fill="#f0f0f0">disti@k#10</text>
</a>
</g>
</g>
<!-- http://example.org/access72 -->
<g id="node2" class="node"><title>http://example.org/access72</title>
<g id="a_node2"><a xlink:href="http://example.org/access72" xlink:title="access72">
<polygon fill="#fafafa" stroke="#f0f0f0" points="259.292,-587 191.292,-587 191.292,-551 259.292,-551 259.292,-587"/>
<text text-anchor="middle" x="225.292" y="-565.3" font-family="Times New Roman,serif" font-size="14.00" fill="#f0f0f0">access72</text>
</a>
</g>
</g>
<!-- http://example.org/disti@k#10&#45;&gt;http://example.org/access72 -->
<g id="edge22" class="edge"><title>http://example.org/disti@k#10&#45;&gt;http://example.org/access72</title>
<path fill="none" stroke="#f0f0f0" d="M376.698,-471.681C329.099,-476.169 262.367,-485.432 243.292,-503 232.894,-512.577 228.3,-527.577 226.348,-540.755"/>
<polygon fill="#f0f0f0" stroke="#f0f0f0" points="222.857,-540.483 225.289,-550.795 229.819,-541.217 222.857,-540.483"/>
<text text-anchor="middle" x="324.792" y="-521.8" font-family="Times New Roman,serif" font-size="14.00" fill="#f0f0f0">gen</text>
<text text-anchor="middle" x="324.792" y="-506.8" font-family="Times New Roman,serif" font-size="14.00" fill="#f0f0f0">2018&#45;03&#45;25T18:53:00.604021</text>
</g>
<!-- bn0 -->
<g id="node3" class="node"><title>bn0</title>
<ellipse fill="#f0f0f0" stroke="#f0f0f0" cx="436.292" cy="-569" rx="1.8" ry="1.8"/>
</g>
<!-- http://example.org/disti@k#10&#45;&gt;bn0 -->
<g id="edge1" class="edge"><title>http://example.org/disti@k#10&#45;&gt;bn0</title>
<path fill="none" stroke="#f0f0f0" d="M418.375,-484.996C415.896,-490.577 413.541,-496.913 412.292,-503 409.611,-516.061 408.345,-520.264 412.292,-533 417.177,-548.764 431.888,-563.738 435.49,-567.235"/>
<text text-anchor="middle" x="493.792" y="-521.8" font-family="Times New Roman,serif" font-size="14.00" fill="#f0f0f0">der ac&#45;r</text>
<text text-anchor="middle" x="493.792" y="-506.8" font-family="Times New Roman,serif" font-size="14.00" fill="#f0f0f0">2018&#45;03&#45;25T18:53:00.604021</text>
</g>
<!-- http://example.org/disti#8 -->
<g id="node4" class="node"><title>http://example.org/disti#8</title>
<ellipse fill="none" stroke="black" cx="305.292" cy="-671" rx="102.882" ry="18"/>
<text text-anchor="middle" x="305.292" y="-667.3" font-family="Times New Roman,serif" font-size="14.00">http://example.org/disti#8</text>
</g>
<!-- http://example.org/access72&#45;&gt;http://example.org/disti#8 -->
<g id="edge4" class="edge"><title>http://example.org/access72&#45;&gt;http://example.org/disti#8</title>
<path fill="none" stroke="#f0f0f0" d="M225.132,-587.101C225.834,-601.249 228.845,-621.191 239.292,-635 243.393,-640.421 248.58,-645.089 254.238,-649.085"/>
<polygon fill="#f0f0f0" stroke="#f0f0f0" points="252.464,-652.104 262.792,-654.469 256.193,-646.18 252.464,-652.104"/>
<text text-anchor="middle" x="238.579" y="-591.847" font-family="Times New Roman,serif" font-size="8.00" fill="#f0f0f0">use</text>
</g>
<!-- http://example.org/2 -->
<g id="node5" class="node"><title>http://example.org/2</title>
<ellipse fill="none" stroke="black" cx="509.292" cy="-671" rx="83.3857" ry="18"/>
<text text-anchor="middle" x="509.292" y="-667.3" font-family="Times New Roman,serif" font-size="14.00">http://example.org/2</text>
</g>
<!-- http://example.org/access72&#45;&gt;http://example.org/2 -->
<g id="edge21" class="edge"><title>http://example.org/access72&#45;&gt;http://example.org/2</title>
<path fill="none" stroke="#f0f0f0" d="M238.56,-587.176C251.344,-602.396 272.117,-623.879 295.292,-635 344.706,-658.713 363.223,-644.019 417.292,-653 424.342,-654.171 431.686,-655.442 439.016,-656.743"/>
<polygon fill="#f0f0f0" stroke="#f0f0f0" points="438.511,-660.208 448.972,-658.531 439.748,-653.319 438.511,-660.208"/>
<text text-anchor="middle" x="376.792" y="-623.8" font-family="Times New Roman,serif" font-size="14.00" fill="#f0f0f0">use</text>
<text text-anchor="middle" x="376.792" y="-608.8" font-family="Times New Roman,serif" font-size="14.00" fill="#f0f0f0">2018&#45;03&#45;25T18:53:00.604021</text>
</g>
<!-- http://example.org/k#3 -->
<g id="node6" class="node"><title>http://example.org/k#3</title>
<ellipse fill="none" stroke="black" cx="92.2918" cy="-671" rx="92.0841" ry="18"/>
<text text-anchor="middle" x="92.2918" y="-667.3" font-family="Times New Roman,serif" font-size="14.00">http://example.org/k#3</text>
</g>
<!-- http://example.org/access72&#45;&gt;http://example.org/k#3 -->
<g id="edge5" class="edge"><title>http://example.org/access72&#45;&gt;http://example.org/k#3</title>
<path fill="none" stroke="#f0f0f0" d="M202.428,-587.191C180.371,-603.775 146.846,-628.982 122.579,-647.228"/>
<polygon fill="#f0f0f0" stroke="#f0f0f0" points="120.304,-644.559 114.415,-653.366 124.511,-650.154 120.304,-644.559"/>
<text text-anchor="middle" x="204.24" y="-600.181" font-family="Times New Roman,serif" font-size="8.00" fill="#f0f0f0">use</text>
</g>
<!-- bn0&#45;&gt;http://example.org/disti#8 -->
<g id="edge2" class="edge"><title>bn0&#45;&gt;http://example.org/disti#8</title>
<path fill="none" stroke="#f0f0f0" stroke-dasharray="5,2" d="M436.425,-571.088C437.198,-577.929 440.471,-615.334 422.292,-635 414.14,-643.818 403.868,-650.448 392.813,-655.425"/>
<polygon fill="#f0f0f0" stroke="#f0f0f0" points="391.339,-652.246 383.372,-659.23 393.956,-658.739 391.339,-652.246"/>
</g>
<!-- bn0&#45;&gt;http://example.org/2 -->
<g id="edge3" class="edge"><title>bn0&#45;&gt;http://example.org/2</title>
<path fill="none" stroke="#f0f0f0" d="M437.112,-571.123C442.313,-578.248 471.129,-617.722 490.74,-644.587"/>
<polygon fill="#f0f0f0" stroke="#f0f0f0" points="488.02,-646.796 496.743,-652.809 493.673,-642.669 488.02,-646.796"/>
<text text-anchor="middle" x="492.292" y="-616.3" font-family="Times New Roman,serif" font-size="14.00" fill="#f0f0f0">[2]</text>
</g>
<!-- http://example.org/distk@j#10 -->
<g id="node7" class="node"><title>http://example.org/distk@j#10</title>
<g id="a_node7"><a xlink:href="http://example.org/distk@j#10" xlink:title="distk@j#10">
<ellipse fill="#fafafa" stroke="#f0f0f0" cx="581.292" cy="-467" rx="51.9908" ry="18"/>
<text text-anchor="middle" x="581.292" y="-463.3" font-family="Times New Roman,serif" font-size="14.00" fill="#f0f0f0">distk@j#10</text>
</a>
</g>
</g>
<!-- http://example.org/access73 -->
<g id="node8" class="node"><title>http://example.org/access73</title>
<g id="a_node8"><a xlink:href="http://example.org/access73" xlink:title="access73">
<polygon fill="#fafafa" stroke="#f0f0f0" points="817.292,-587 749.292,-587 749.292,-551 817.292,-551 817.292,-587"/>
<text text-anchor="middle" x="783.292" y="-565.3" font-family="Times New Roman,serif" font-size="14.00" fill="#f0f0f0">access73</text>
</a>
</g>
</g>
<!-- http://example.org/distk@j#10&#45;&gt;http://example.org/access73 -->
<g id="edge24" class="edge"><title>http://example.org/distk@j#10&#45;&gt;http://example.org/access73</title>
<path fill="none" stroke="#f0f0f0" d="M633.327,-468.478C667.948,-471.189 712.852,-479.545 745.292,-503 758.419,-512.491 767.741,-528.025 773.867,-541.526"/>
<polygon fill="#f0f0f0" stroke="#f0f0f0" points="770.69,-543.002 777.77,-550.883 777.15,-540.307 770.69,-543.002"/>
<text text-anchor="middle" x="850.792" y="-521.8" font-family="Times New Roman,serif" font-size="14.00" fill="#f0f0f0">gen</text>
<text text-anchor="middle" x="850.792" y="-506.8" font-family="Times New Roman,serif" font-size="14.00" fill="#f0f0f0">2018&#45;03&#45;25T18:53:00.604021</text>
</g>
<!-- bn1 -->
<g id="node9" class="node"><title>bn1</title>
<ellipse fill="#f0f0f0" stroke="#f0f0f0" cx="572.292" cy="-569" rx="1.8" ry="1.8"/>
</g>
<!-- http://example.org/distk@j#10&#45;&gt;bn1 -->
<g id="edge6" class="edge"><title>http://example.org/distk@j#10&#45;&gt;bn1</title>
<path fill="none" stroke="#f0f0f0" d="M579.724,-485.419C577.347,-511.831 573.036,-559.728 572.377,-567.05"/>
<text text-anchor="middle" x="659.792" y="-521.8" font-family="Times New Roman,serif" font-size="14.00" fill="#f0f0f0">der ac&#45;r</text>
<text text-anchor="middle" x="659.792" y="-506.8" font-family="Times New Roman,serif" font-size="14.00" fill="#f0f0f0">2018&#45;03&#45;25T18:53:00.604021</text>
</g>
<!-- http://example.org/access73&#45;&gt;http://example.org/2 -->
<g id="edge20" class="edge"><title>http://example.org/access73&#45;&gt;http://example.org/2</title>
<path fill="none" stroke="#f0f0f0" d="M749.24,-572.011C711.806,-575.245 650.57,-583.599 602.292,-605 581.976,-614.006 580.461,-622.205 562.292,-635 556.156,-639.321 549.536,-643.819 543.124,-648.093"/>
<polygon fill="#f0f0f0" stroke="#f0f0f0" points="540.984,-645.312 534.573,-653.747 544.845,-651.151 540.984,-645.312"/>
<text text-anchor="middle" x="683.792" y="-623.8" font-family="Times New Roman,serif" font-size="14.00" fill="#f0f0f0">use</text>
<text text-anchor="middle" x="683.792" y="-608.8" font-family="Times New Roman,serif" font-size="14.00" fill="#f0f0f0">2018&#45;03&#45;25T18:53:00.604021</text>
</g>
<!-- http://example.org/distk#3 -->
<g id="node10" class="node"><title>http://example.org/distk#3</title>
<ellipse fill="none" stroke="black" cx="715.292" cy="-671" rx="105.082" ry="18"/>
<text text-anchor="middle" x="715.292" y="-667.3" font-family="Times New Roman,serif" font-size="14.00">http://example.org/distk#3</text>
</g>
<!-- http://example.org/access73&#45;&gt;http://example.org/distk#3 -->
<g id="edge9" class="edge"><title>http://example.org/access73&#45;&gt;http://example.org/distk#3</title>
<path fill="none" stroke="#f0f0f0" d="M783.118,-587.154C782.199,-601.146 779.059,-620.843 769.292,-635 765.959,-639.831 761.72,-644.153 757.088,-647.971"/>
<polygon fill="#f0f0f0" stroke="#f0f0f0" points="754.984,-645.173 749.01,-653.923 759.137,-650.809 754.984,-645.173"/>
<text text-anchor="middle" x="795.473" y="-593.76" font-family="Times New Roman,serif" font-size="8.00" fill="#f0f0f0">use</text>
</g>
<!-- http://example.org/j#22 -->
<g id="node11" class="node"><title>http://example.org/j#22</title>
<ellipse fill="none" stroke="black" cx="933.292" cy="-671" rx="94.4839" ry="18"/>
<text text-anchor="middle" x="933.292" y="-667.3" font-family="Times New Roman,serif" font-size="14.00">http://example.org/j#22</text>
</g>
<!-- http://example.org/access73&#45;&gt;http://example.org/j#22 -->
<g id="edge10" class="edge"><title>http://example.org/access73&#45;&gt;http://example.org/j#22</title>
<path fill="none" stroke="#f0f0f0" d="M809.078,-587.191C834.172,-603.92 872.426,-629.423 899.848,-647.704"/>
<polygon fill="#f0f0f0" stroke="#f0f0f0" points="898.079,-650.731 908.341,-653.366 901.962,-644.907 898.079,-650.731"/>
<text text-anchor="middle" x="822.524" y="-578.642" font-family="Times New Roman,serif" font-size="8.00" fill="#f0f0f0">use</text>
</g>
<!-- bn1&#45;&gt;http://example.org/2 -->
<g id="edge8" class="edge"><title>bn1&#45;&gt;http://example.org/2</title>
<path fill="none" stroke="#f0f0f0" d="M571.47,-570.805C567.751,-574.477 552.254,-590.096 542.292,-605 534.19,-617.121 526.697,-631.496 520.906,-643.642"/>
<polygon fill="#f0f0f0" stroke="#f0f0f0" points="517.682,-642.275 516.647,-652.819 524.031,-645.222 517.682,-642.275"/>
<text text-anchor="middle" x="550.292" y="-616.3" font-family="Times New Roman,serif" font-size="14.00" fill="#f0f0f0">[0]</text>
</g>
<!-- bn1&#45;&gt;http://example.org/distk#3 -->
<g id="edge7" class="edge"><title>bn1&#45;&gt;http://example.org/distk#3</title>
<path fill="none" stroke="#f0f0f0" stroke-dasharray="5,2" d="M572.152,-571.094C571.338,-577.973 567.861,-615.57 586.292,-635 595.455,-644.66 606.99,-651.748 619.374,-656.931"/>
<polygon fill="#f0f0f0" stroke="#f0f0f0" points="618.392,-660.301 628.985,-660.535 620.85,-653.747 618.392,-660.301"/>
</g>
<!-- http://example.org/sum#10 -->
<g id="node12" class="node"><title>http://example.org/sum#10</title>
<g id="a_node12"><a xlink:href="http://example.org/sum#10" xlink:title="sum#10">
<ellipse fill="#fafafa" stroke="#f0f0f0" cx="508.292" cy="-321" rx="39.7935" ry="18"/>
<text text-anchor="middle" x="508.292" y="-317.3" font-family="Times New Roman,serif" font-size="14.00" fill="#f0f0f0">sum#10</text>
</a>
</g>
</g>
<!-- http://example.org/sum#10&#45;&gt;http://example.org/disti@k#10 -->
<g id="edge13" class="edge"><title>http://example.org/sum#10&#45;&gt;http://example.org/disti@k#10</title>
<path fill="none" stroke="#f0f0f0" d="M496.39,-338.681C489.095,-349.181 479.757,-363.136 472.292,-376 460.103,-397.004 447.882,-421.736 439.258,-439.953"/>
<polygon fill="#f0f0f0" stroke="#f0f0f0" points="436.053,-438.544 434.978,-449.085 442.392,-441.515 436.053,-438.544"/>
<text text-anchor="middle" x="502.812" y="-350.336" font-family="Times New Roman,serif" font-size="8.00" fill="#f0f0f0">der</text>
</g>
<!-- http://example.org/sum#10&#45;&gt;http://example.org/distk@j#10 -->
<g id="edge14" class="edge"><title>http://example.org/sum#10&#45;&gt;http://example.org/distk@j#10</title>
<path fill="none" stroke="#f0f0f0" d="M520.531,-338.493C527.952,-348.924 537.305,-362.87 544.292,-376 555.273,-396.637 565.194,-421.259 571.991,-439.53"/>
<polygon fill="#f0f0f0" stroke="#f0f0f0" points="568.717,-440.767 575.434,-448.96 575.293,-438.366 568.717,-440.767"/>
<text text-anchor="middle" x="535.469" y="-335.23" font-family="Times New Roman,serif" font-size="8.00" fill="#f0f0f0">der</text>
</g>
<!-- http://example.org/sum#10_v1 -->
<g id="node13" class="node"><title>http://example.org/sum#10_v1</title>
<g id="a_node13"><a xlink:href="http://example.org/sum#10_v1" xlink:title="sum#10_v1">
<ellipse fill="#fffc87" stroke="#808080" cx="651.292" cy="-394" rx="53.0913" ry="18"/>
<text text-anchor="middle" x="651.292" y="-390.3" font-family="Times New Roman,serif" font-size="14.00">sum#10_v1</text>
</a>
</g>
</g>
<!-- http://example.org/sum#10&#45;&gt;http://example.org/sum#10_v1 -->
<g id="edge12" class="edge"><title>http://example.org/sum#10&#45;&gt;http://example.org/sum#10_v1</title>
<path fill="none" stroke="black" d="M534.676,-334.694C548.32,-341.293 565.229,-349.521 580.292,-357 591.206,-362.419 603.025,-368.376 613.83,-373.857"/>
<polygon fill="black" stroke="black" points="612.516,-377.115 623.016,-378.526 615.687,-370.875 612.516,-377.115"/>
<text text-anchor="middle" x="547.085" y="-324.369" font-family="Times New Roman,serif" font-size="8.00">spe</text>
</g>
<!-- http://example.org/+10 -->
<g id="node15" class="node"><title>http://example.org/+10</title>
<g id="a_node15"><a xlink:href="http://example.org/+10" xlink:title="+10">
<polygon fill="#fafafa" stroke="#f0f0f0" points="535.292,-412 481.292,-412 481.292,-376 535.292,-376 535.292,-412"/>
<text text-anchor="middle" x="508.292" y="-390.3" font-family="Times New Roman,serif" font-size="14.00" fill="#f0f0f0">+10</text>
</a>
</g>
</g>
<!-- http://example.org/sum#10&#45;&gt;http://example.org/+10 -->
<g id="edge23" class="edge"><title>http://example.org/sum#10&#45;&gt;http://example.org/+10</title>
<path fill="none" stroke="#f0f0f0" d="M508.292,-339.187C508.292,-347.211 508.292,-356.953 508.292,-365.931"/>
<polygon fill="#f0f0f0" stroke="#f0f0f0" points="504.792,-365.971 508.292,-375.971 511.792,-365.971 504.792,-365.971"/>
<text text-anchor="middle" x="521.282" y="-344.787" font-family="Times New Roman,serif" font-size="8.00" fill="#f0f0f0">gen</text>
</g>
<!-- http://example.org/sum#10_v1&#45;attrs -->
<g id="node14" class="node"><title>http://example.org/sum#10_v1&#45;attrs</title>
<polygon fill="none" stroke="gray" points="734.792,-339 565.792,-339 565.792,-303 740.792,-303 740.792,-333 734.792,-339"/>
<polyline fill="none" stroke="gray" points="734.792,-339 734.792,-333 "/>
<polyline fill="none" stroke="gray" points="740.792,-333 734.792,-333 "/>
<text text-anchor="start" x="576.292" y="-325" font-family="Times New Roman,serif" font-size="10.00">checkpoint:</text>
<text text-anchor="start" x="625.292" y="-325" font-family="Times New Roman,serif" font-size="10.00">2018&#45;03&#45;25 18:53:00.604021</text>
<text text-anchor="start" x="576.292" y="-312" font-family="Times New Roman,serif" font-size="10.00">type:</text>
<text text-anchor="start" x="625.292" y="-312" font-family="Times New Roman,serif" font-size="10.00">Version</text>
</g>
<!-- http://example.org/sum#10_v1&#45;attrs&#45;&gt;http://example.org/sum#10_v1 -->
<g id="edge11" class="edge"><title>http://example.org/sum#10_v1&#45;attrs&#45;&gt;http://example.org/sum#10_v1</title>
<path fill="none" stroke="gray" stroke-dasharray="5,2" d="M652.808,-339.187C652.493,-350.35 652.085,-364.84 651.771,-375.971"/>
</g>
<!-- http://example.org/+10&#45;&gt;http://example.org/disti@k#10 -->
<g id="edge18" class="edge"><title>http://example.org/+10&#45;&gt;http://example.org/disti@k#10</title>
<path fill="none" stroke="#f0f0f0" d="M488.684,-412.187C478.032,-421.524 464.726,-433.188 453.226,-443.267"/>
<polygon fill="#f0f0f0" stroke="#f0f0f0" points="450.822,-440.721 445.609,-449.944 455.436,-445.985 450.822,-440.721"/>
<text text-anchor="middle" x="491.607" y="-425" font-family="Times New Roman,serif" font-size="8.00" fill="#f0f0f0">use</text>
</g>
<!-- http://example.org/+10&#45;&gt;http://example.org/distk@j#10 -->
<g id="edge19" class="edge"><title>http://example.org/+10&#45;&gt;http://example.org/distk@j#10</title>
<path fill="none" stroke="#f0f0f0" d="M525.963,-412.187C535.244,-421.213 546.761,-432.415 556.88,-442.257"/>
<polygon fill="#f0f0f0" stroke="#f0f0f0" points="554.677,-444.997 564.286,-449.46 559.558,-439.979 554.677,-444.997"/>
<text text-anchor="middle" x="540.397" y="-406.204" font-family="Times New Roman,serif" font-size="8.00" fill="#f0f0f0">use</text>
</g>
<!-- http://example.org/ikj#10 -->
<g id="node16" class="node"><title>http://example.org/ikj#10</title>
<g id="a_node16"><a xlink:href="http://example.org/ikj#10" xlink:title="ikj#10">
<ellipse fill="#fffc87" stroke="#808080" cx="553.292" cy="-117" rx="32.4942" ry="18"/>
<text text-anchor="middle" x="553.292" y="-113.3" font-family="Times New Roman,serif" font-size="14.00">ikj#10</text>
</a>
</g>
</g>
<!-- http://example.org/ikj#10&#45;&gt;http://example.org/sum#10 -->
<g id="edge16" class="edge"><title>http://example.org/ikj#10&#45;&gt;http://example.org/sum#10</title>
<path fill="none" stroke="#f0f0f0" d="M539.769,-133.527C527.01,-149.29 508.759,-175.015 501.292,-201 492.478,-231.668 496.821,-268.56 501.668,-293.055"/>
<polygon fill="#f0f0f0" stroke="#f0f0f0" points="498.294,-294.011 503.813,-303.055 505.138,-292.543 498.294,-294.011"/>
<text text-anchor="middle" x="582.792" y="-222.8" font-family="Times New Roman,serif" font-size="14.00" fill="#f0f0f0">der ref</text>
<text text-anchor="middle" x="582.792" y="-207.8" font-family="Times New Roman,serif" font-size="14.00" fill="#f0f0f0">2018&#45;03&#45;25T18:53:00.604021</text>
</g>
<!-- http://example.org/assign28 -->
<g id="node18" class="node"><title>http://example.org/assign28</title>
<g id="a_node18"><a xlink:href="http://example.org/assign28" xlink:title="assign28">
<polygon fill="#fafafa" stroke="#f0f0f0" points="738.792,-237 673.792,-237 673.792,-201 738.792,-201 738.792,-237"/>
<text text-anchor="middle" x="706.292" y="-215.3" font-family="Times New Roman,serif" font-size="14.00" fill="#f0f0f0">assign28</text>
</a>
</g>
</g>
<!-- http://example.org/ikj#10&#45;&gt;http://example.org/assign28 -->
<g id="edge25" class="edge"><title>http://example.org/ikj#10&#45;&gt;http://example.org/assign28</title>
<path fill="none" stroke="#f0f0f0" d="M573.609,-131.279C598.616,-147.623 641.473,-175.634 671.701,-195.392"/>
<polygon fill="#f0f0f0" stroke="#f0f0f0" points="669.969,-198.441 680.255,-200.982 673.799,-192.582 669.969,-198.441"/>
<text text-anchor="middle" x="734.792" y="-171.8" font-family="Times New Roman,serif" font-size="14.00" fill="#f0f0f0">gen</text>
<text text-anchor="middle" x="734.792" y="-156.8" font-family="Times New Roman,serif" font-size="14.00" fill="#f0f0f0">2018&#45;03&#45;25T18:53:00.604021</text>
</g>
<!-- http://example.org/ikj#10&#45;attrs -->
<g id="node17" class="node"><title>http://example.org/ikj#10&#45;attrs</title>
<polygon fill="none" stroke="gray" points="581.792,-62 518.792,-62 518.792,-0 587.792,-0 587.792,-56 581.792,-62"/>
<polyline fill="none" stroke="gray" points="581.792,-62 581.792,-56 "/>
<polyline fill="none" stroke="gray" points="587.792,-56 581.792,-56 "/>
<text text-anchor="start" x="529.292" y="-48" font-family="Times New Roman,serif" font-size="10.00">value:</text>
<text text-anchor="start" x="556.292" y="-48" font-family="Times New Roman,serif" font-size="10.00">4</text>
<text text-anchor="start" x="529.292" y="-35" font-family="Times New Roman,serif" font-size="10.00">type:</text>
<text text-anchor="start" x="556.292" y="-35" font-family="Times New Roman,serif" font-size="10.00">name</text>
<text text-anchor="start" x="529.292" y="-22" font-family="Times New Roman,serif" font-size="10.00">label:</text>
<text text-anchor="start" x="556.292" y="-22" font-family="Times New Roman,serif" font-size="10.00">ikj</text>
<text text-anchor="start" x="529.292" y="-9" font-family="Times New Roman,serif" font-size="10.00">line:</text>
<text text-anchor="start" x="556.292" y="-9" font-family="Times New Roman,serif" font-size="10.00">15</text>
</g>
<!-- http://example.org/ikj#10&#45;attrs&#45;&gt;http://example.org/ikj#10 -->
<g id="edge15" class="edge"><title>http://example.org/ikj#10&#45;attrs&#45;&gt;http://example.org/ikj#10</title>
<path fill="none" stroke="gray" stroke-dasharray="5,2" d="M553.292,-62.3259C553.292,-74.5443 553.292,-88.1945 553.292,-98.6716"/>
</g>
<!-- http://example.org/assign28&#45;&gt;http://example.org/sum#10 -->
<g id="edge17" class="edge"><title>http://example.org/assign28&#45;&gt;http://example.org/sum#10</title>
<path fill="none" stroke="#f0f0f0" d="M673.596,-236.513C637.6,-254.693 579.961,-283.803 543.132,-302.404"/>
<polygon fill="#f0f0f0" stroke="#f0f0f0" points="541.136,-299.491 533.787,-307.123 544.291,-305.739 541.136,-299.491"/>
<text text-anchor="middle" x="718.792" y="-273.8" font-family="Times New Roman,serif" font-size="14.00" fill="#f0f0f0">use</text>
<text text-anchor="middle" x="718.792" y="-258.8" font-family="Times New Roman,serif" font-size="14.00" fill="#f0f0f0">2018&#45;03&#45;25T18:53:00.604021</text>
</g>
</g>
</svg>
