<?xml version="1.0" encoding="UTF-8" standalone="no"?>
<!DOCTYPE svg PUBLIC "-//W3C//DTD SVG 1.1//EN"
 "http://www.w3.org/Graphics/SVG/1.1/DTD/svg11.dtd">
<!-- Generated by graphviz version 2.38.0 (20140413.2041)
 -->
<!-- Title: PROV Pages: 1 -->
<svg width="595pt" height="248pt"
 viewBox="0.00 0.00 594.88 248.00" xmlns="http://www.w3.org/2000/svg" xmlns:xlink="http://www.w3.org/1999/xlink">
<g id="graph0" class="graph" transform="scale(1 1) rotate(0) translate(4 244)">
<title>PROV</title>
<polygon fill="white" stroke="none" points="-4,4 -4,-244 590.885,-244 590.885,4 -4,4"/>
<!-- http://example.org/disti@j#3 -->
<g id="node1" class="node"><title>http://example.org/disti@j#3</title>
<g id="a_node1"><a xlink:href="http://example.org/disti@j#3" xlink:title="disti@j#3">
<ellipse fill="#fafafa" stroke="#f0f0f0" cx="214.193" cy="-18" rx="45.4919" ry="18"/>
<text text-anchor="middle" x="214.193" y="-14.3" font-family="Times New Roman,serif" font-size="14.00" fill="#f0f0f0">disti@j#3</text>
</a>
</g>
</g>
<!-- http://example.org/access21 -->
<g id="node2" class="node"><title>http://example.org/access21</title>
<g id="a_node2"><a xlink:href="http://example.org/access21" xlink:title="access21">
<polygon fill="#fafafa" stroke="#f0f0f0" points="355.193,-138 287.193,-138 287.193,-102 355.193,-102 355.193,-138"/>
<text text-anchor="middle" x="321.193" y="-116.3" font-family="Times New Roman,serif" font-size="14.00" fill="#f0f0f0">access21</text>
</a>
</g>
</g>
<!-- http://example.org/disti@j#3&#45;&gt;http://example.org/access21 -->
<g id="edge7" class="edge"><title>http://example.org/disti@j#3&#45;&gt;http://example.org/access21</title>
<path fill="none" stroke="#f0f0f0" d="M248.229,-29.9951C261.575,-35.5784 276.274,-43.4553 287.193,-54 298.216,-64.6453 306.388,-79.6438 311.954,-92.5513"/>
<polygon fill="#f0f0f0" stroke="#f0f0f0" points="308.736,-93.929 315.707,-101.907 315.232,-91.3232 308.736,-93.929"/>
<text text-anchor="middle" x="389.693" y="-72.8" font-family="Times New Roman,serif" font-size="14.00" fill="#f0f0f0">gen</text>
<text text-anchor="middle" x="389.693" y="-57.8" font-family="Times New Roman,serif" font-size="14.00" fill="#f0f0f0">2018&#45;06&#45;10T17:24:38.832958</text>
</g>
<!-- bn0 -->
<g id="node3" class="node"><title>bn0</title>
<ellipse fill="#f0f0f0" stroke="#f0f0f0" cx="114.193" cy="-120" rx="1.8" ry="1.8"/>
</g>
<!-- http://example.org/disti@j#3&#45;&gt;bn0 -->
<g id="edge1" class="edge"><title>http://example.org/disti@j#3&#45;&gt;bn0</title>
<path fill="none" stroke="#f0f0f0" d="M172.881,-25.6012C155.31,-30.5235 136.155,-39.0944 124.193,-54 107.614,-74.6587 112.871,-111.257 114.003,-117.938"/>
<text text-anchor="middle" x="205.693" y="-72.8" font-family="Times New Roman,serif" font-size="14.00" fill="#f0f0f0">der ac&#45;r</text>
<text text-anchor="middle" x="205.693" y="-57.8" font-family="Times New Roman,serif" font-size="14.00" fill="#f0f0f0">2018&#45;06&#45;10T17:24:38.832958</text>
</g>
<!-- http://example.org/disti#2 -->
<g id="node4" class="node"><title>http://example.org/disti#2</title>
<ellipse fill="none" stroke="black" cx="287.193" cy="-222" rx="102.882" ry="18"/>
<text text-anchor="middle" x="287.193" y="-218.3" font-family="Times New Roman,serif" font-size="14.00">http://example.org/disti#2</text>
</g>
<!-- http://example.org/access21&#45;&gt;http://example.org/disti#2 -->
<g id="edge4" class="edge"><title>http://example.org/access21&#45;&gt;http://example.org/disti#2</title>
<path fill="none" stroke="#f0f0f0" d="M320.638,-138.105C319.717,-151.538 317.327,-170.5 311.193,-186 309.906,-189.25 308.273,-192.497 306.465,-195.631"/>
<polygon fill="#f0f0f0" stroke="#f0f0f0" points="303.504,-193.765 301.05,-204.072 309.396,-197.544 303.504,-193.765"/>
<text text-anchor="middle" x="333.014" y="-144.681" font-family="Times New Roman,serif" font-size="8.00" fill="#f0f0f0">use</text>
</g>
<!-- http://example.org/2 -->
<g id="node5" class="node"><title>http://example.org/2</title>
<ellipse fill="none" stroke="black" cx="83.1926" cy="-222" rx="83.3857" ry="18"/>
<text text-anchor="middle" x="83.1926" y="-218.3" font-family="Times New Roman,serif" font-size="14.00">http://example.org/2</text>
</g>
<!-- http://example.org/access21&#45;&gt;http://example.org/2 -->
<g id="edge6" class="edge"><title>http://example.org/access21&#45;&gt;http://example.org/2</title>
<path fill="none" stroke="#f0f0f0" d="M287.132,-121.624C249.859,-123.645 189.396,-130.941 144.193,-156 126.819,-165.631 111.532,-181.945 100.607,-195.82"/>
<polygon fill="#f0f0f0" stroke="#f0f0f0" points="97.6176,-193.971 94.3887,-204.061 103.206,-198.187 97.6176,-193.971"/>
<text text-anchor="middle" x="225.693" y="-174.8" font-family="Times New Roman,serif" font-size="14.00" fill="#f0f0f0">use</text>
<text text-anchor="middle" x="225.693" y="-159.8" font-family="Times New Roman,serif" font-size="14.00" fill="#f0f0f0">2018&#45;06&#45;10T17:24:38.832958</text>
</g>
<!-- http://example.org/j#6 -->
<g id="node6" class="node"><title>http://example.org/j#6</title>
<ellipse fill="none" stroke="black" cx="497.193" cy="-222" rx="89.8845" ry="18"/>
<text text-anchor="middle" x="497.193" y="-218.3" font-family="Times New Roman,serif" font-size="14.00">http://example.org/j#6</text>
</g>
<!-- http://example.org/access21&#45;&gt;http://example.org/j#6 -->
<g id="edge5" class="edge"><title>http://example.org/access21&#45;&gt;http://example.org/j#6</title>
<path fill="none" stroke="#f0f0f0" d="M351.448,-138.191C381.543,-155.29 427.771,-181.556 460.07,-199.908"/>
<polygon fill="#f0f0f0" stroke="#f0f0f0" points="458.362,-202.963 468.786,-204.86 461.821,-196.877 458.362,-202.963"/>
<text text-anchor="middle" x="364.386" y="-128.701" font-family="Times New Roman,serif" font-size="8.00" fill="#f0f0f0">use</text>
</g>
<!-- bn0&#45;&gt;http://example.org/disti#2 -->
<g id="edge2" class="edge"><title>bn0&#45;&gt;http://example.org/disti#2</title>
<path fill="none" stroke="#f0f0f0" stroke-dasharray="5,2" d="M114.041,-122.106C113.152,-129.057 109.299,-167.02 128.193,-186 134.208,-192.042 169.872,-200.164 205.902,-207.062"/>
<polygon fill="#f0f0f0" stroke="#f0f0f0" points="205.575,-210.562 216.05,-208.973 206.87,-203.683 205.575,-210.562"/>
</g>
<!-- bn0&#45;&gt;http://example.org/2 -->
<g id="edge3" class="edge"><title>bn0&#45;&gt;http://example.org/2</title>
<path fill="none" stroke="#f0f0f0" d="M113.201,-121.718C108.749,-125.012 90.5414,-139.235 84.1926,-156 79.7248,-167.798 78.968,-181.686 79.5333,-193.589"/>
<polygon fill="#f0f0f0" stroke="#f0f0f0" points="76.0675,-194.157 80.3556,-203.846 83.0451,-193.598 76.0675,-194.157"/>
<text text-anchor="middle" x="92.1926" y="-167.3" font-family="Times New Roman,serif" font-size="14.00" fill="#f0f0f0">[0]</text>
</g>
</g>
</svg>
