<?xml version="1.0" encoding="UTF-8" standalone="no"?>
<!DOCTYPE svg PUBLIC "-//W3C//DTD SVG 1.1//EN"
 "http://www.w3.org/Graphics/SVG/1.1/DTD/svg11.dtd">
<!-- Generated by graphviz version 2.38.0 (20140413.2041)
 -->
<!-- Title: PROV Pages: 1 -->
<svg width="888pt" height="521pt"
 viewBox="0.00 0.00 887.63 521.00" xmlns="http://www.w3.org/2000/svg" xmlns:xlink="http://www.w3.org/1999/xlink">
<g id="graph0" class="graph" transform="scale(1 1) rotate(0) translate(4 517)">
<title>PROV</title>
<polygon fill="white" stroke="none" points="-4,4 -4,-517 883.634,-517 883.634,4 -4,4"/>
<!-- http://example.org/disti@j#5 -->
<g id="node1" class="node"><title>http://example.org/disti@j#5</title>
<g id="a_node1"><a xlink:href="http://example.org/disti@j#5" xlink:title="disti@j#5">
<ellipse fill="#fffc87" stroke="#808080" cx="583.692" cy="-291" rx="45.4919" ry="18"/>
<text text-anchor="middle" x="583.692" y="-287.3" font-family="Times New Roman,serif" font-size="14.00">disti@j#5</text>
</a>
</g>
</g>
<!-- http://example.org/assign14 -->
<g id="node8" class="node"><title>http://example.org/assign14</title>
<g id="a_node8"><a xlink:href="http://example.org/assign14" xlink:title="assign14">
<polygon fill="#9fb1fc" stroke="#0000ff" points="466.192,-411 401.192,-411 401.192,-375 466.192,-375 466.192,-411"/>
<text text-anchor="middle" x="433.692" y="-389.3" font-family="Times New Roman,serif" font-size="14.00">assign14</text>
</a>
</g>
</g>
<!-- http://example.org/disti@j#5&#45;&gt;http://example.org/assign14 -->
<g id="edge15" class="edge"><title>http://example.org/disti@j#5&#45;&gt;http://example.org/assign14</title>
<path fill="none" stroke="black" d="M538.577,-293.962C511.417,-297.426 477.909,-306.066 455.692,-327 445.224,-336.863 439.737,-351.88 436.86,-364.995"/>
<polygon fill="black" stroke="black" points="433.391,-364.51 435.068,-374.971 440.281,-365.748 433.391,-364.51"/>
<text text-anchor="middle" x="537.192" y="-345.8" font-family="Times New Roman,serif" font-size="14.00">gen</text>
<text text-anchor="middle" x="537.192" y="-330.8" font-family="Times New Roman,serif" font-size="14.00">2018&#45;03&#45;25T18:52:56.226385</text>
</g>
<!-- bn1 -->
<g id="node10" class="node"><title>bn1</title>
<ellipse fill="black" stroke="black" cx="644.692" cy="-393" rx="1.8" ry="1.8"/>
</g>
<!-- http://example.org/disti@j#5&#45;&gt;bn1 -->
<g id="edge8" class="edge"><title>http://example.org/disti@j#5&#45;&gt;bn1</title>
<path fill="none" stroke="black" d="M604.719,-307.381C611.199,-312.964 617.885,-319.708 622.692,-327 637.906,-350.076 643.613,-384.71 644.549,-391.002"/>
<text text-anchor="middle" x="718.192" y="-345.8" font-family="Times New Roman,serif" font-size="14.00">der ac&#45;w</text>
<text text-anchor="middle" x="718.192" y="-330.8" font-family="Times New Roman,serif" font-size="14.00">2018&#45;03&#45;25T18:52:56.226385</text>
</g>
<!-- http://example.org/disti@j#5&#45;attrs -->
<g id="node2" class="node"><title>http://example.org/disti@j#5&#45;attrs</title>
<polygon fill="none" stroke="gray" points="615.192,-222 546.192,-222 546.192,-160 621.192,-160 621.192,-216 615.192,-222"/>
<polyline fill="none" stroke="gray" points="615.192,-222 615.192,-216 "/>
<polyline fill="none" stroke="gray" points="621.192,-216 615.192,-216 "/>
<text text-anchor="start" x="556.692" y="-208" font-family="Times New Roman,serif" font-size="10.00">value:</text>
<text text-anchor="start" x="583.692" y="-208" font-family="Times New Roman,serif" font-size="10.00">3</text>
<text text-anchor="start" x="556.692" y="-195" font-family="Times New Roman,serif" font-size="10.00">type:</text>
<text text-anchor="start" x="583.692" y="-195" font-family="Times New Roman,serif" font-size="10.00">access</text>
<text text-anchor="start" x="556.692" y="-182" font-family="Times New Roman,serif" font-size="10.00">label:</text>
<text text-anchor="start" x="583.692" y="-182" font-family="Times New Roman,serif" font-size="10.00">disti[j]</text>
<text text-anchor="start" x="556.692" y="-169" font-family="Times New Roman,serif" font-size="10.00">line:</text>
<text text-anchor="start" x="583.692" y="-169" font-family="Times New Roman,serif" font-size="10.00">17</text>
</g>
<!-- http://example.org/disti@j#5&#45;attrs&#45;&gt;http://example.org/disti@j#5 -->
<g id="edge1" class="edge"><title>http://example.org/disti@j#5&#45;attrs&#45;&gt;http://example.org/disti@j#5</title>
<path fill="none" stroke="gray" stroke-dasharray="5,2" d="M583.692,-222.203C583.692,-238.85 583.692,-258.908 583.692,-272.87"/>
</g>
<!-- http://example.org/list2_v2 -->
<g id="node3" class="node"><title>http://example.org/list2_v2</title>
<g id="a_node3"><a xlink:href="http://example.org/list2_v2" xlink:title="list2_v2">
<ellipse fill="#fffc87" stroke="#808080" cx="687.692" cy="-91" rx="38.9931" ry="18"/>
<text text-anchor="middle" x="687.692" y="-87.3" font-family="Times New Roman,serif" font-size="14.00">list2_v2</text>
</a>
</g>
</g>
<!-- bn0 -->
<g id="node5" class="node"><title>bn0</title>
<ellipse fill="black" stroke="black" cx="687.692" cy="-191" rx="1.8" ry="1.8"/>
</g>
<!-- http://example.org/list2_v2&#45;&gt;bn0 -->
<g id="edge3" class="edge"><title>http://example.org/list2_v2&#45;&gt;bn0</title>
<path fill="none" stroke="black" d="M687.692,-109.07C687.692,-134.954 687.692,-181.893 687.692,-189.069"/>
<text text-anchor="middle" x="707.192" y="-130.8" font-family="Times New Roman,serif" font-size="14.00">der&#45;ins</text>
</g>
<!-- http://example.org/list2_v2&#45;attrs -->
<g id="node4" class="node"><title>http://example.org/list2_v2&#45;attrs</title>
<polygon fill="none" stroke="gray" points="670.192,-36 501.192,-36 501.192,-0 676.192,-0 676.192,-30 670.192,-36"/>
<polyline fill="none" stroke="gray" points="670.192,-36 670.192,-30 "/>
<polyline fill="none" stroke="gray" points="676.192,-30 670.192,-30 "/>
<text text-anchor="start" x="511.692" y="-22" font-family="Times New Roman,serif" font-size="10.00">checkpoint:</text>
<text text-anchor="start" x="560.692" y="-22" font-family="Times New Roman,serif" font-size="10.00">2018&#45;03&#45;25 18:52:56.226385</text>
<text text-anchor="start" x="511.692" y="-9" font-family="Times New Roman,serif" font-size="10.00">type:</text>
<text text-anchor="start" x="560.692" y="-9" font-family="Times New Roman,serif" font-size="10.00">Version</text>
</g>
<!-- http://example.org/list2_v2&#45;attrs&#45;&gt;http://example.org/list2_v2 -->
<g id="edge2" class="edge"><title>http://example.org/list2_v2&#45;attrs&#45;&gt;http://example.org/list2_v2</title>
<path fill="none" stroke="gray" stroke-dasharray="5,2" d="M612.405,-36.0063C629.223,-48.0676 651.551,-64.0804 667.515,-75.5298"/>
</g>
<!-- bn0&#45;&gt;http://example.org/disti@j#5 -->
<g id="edge5" class="edge"><title>bn0&#45;&gt;http://example.org/disti@j#5</title>
<path fill="none" stroke="black" d="M686.524,-193.101C678.936,-200.251 636.072,-240.642 608.133,-266.969"/>
<polygon fill="black" stroke="black" points="605.569,-264.576 600.691,-273.982 610.369,-269.671 605.569,-264.576"/>
<text text-anchor="middle" x="643.692" y="-243.8" font-family="Times New Roman,serif" font-size="14.00">[1]</text>
</g>
<!-- http://example.org/list2_v1 -->
<g id="node6" class="node"><title>http://example.org/list2_v1</title>
<ellipse fill="none" stroke="black" cx="753.692" cy="-291" rx="106.681" ry="18"/>
<text text-anchor="middle" x="753.692" y="-287.3" font-family="Times New Roman,serif" font-size="14.00">http://example.org/list2_v1</text>
</g>
<!-- bn0&#45;&gt;http://example.org/list2_v1 -->
<g id="edge4" class="edge"><title>bn0&#45;&gt;http://example.org/list2_v1</title>
<path fill="none" stroke="black" d="M688.433,-193.101C693.09,-200.015 718.683,-238.017 736.399,-264.322"/>
<polygon fill="black" stroke="black" points="733.574,-266.394 742.063,-272.733 739.38,-262.484 733.574,-266.394"/>
<text text-anchor="middle" x="738.192" y="-243.8" font-family="Times New Roman,serif" font-size="14.00">der</text>
</g>
<!-- http://example.org/list2 -->
<g id="node7" class="node"><title>http://example.org/list2</title>
<ellipse fill="none" stroke="black" cx="786.692" cy="-18" rx="92.8835" ry="18"/>
<text text-anchor="middle" x="786.692" y="-14.3" font-family="Times New Roman,serif" font-size="14.00">http://example.org/list2</text>
</g>
<!-- http://example.org/list2&#45;&gt;http://example.org/list2_v2 -->
<g id="edge6" class="edge"><title>http://example.org/list2&#45;&gt;http://example.org/list2_v2</title>
<path fill="none" stroke="black" d="M763.731,-35.4673C749.597,-45.6036 731.365,-58.6791 716.297,-69.4854"/>
<polygon fill="black" stroke="black" points="713.932,-66.8744 707.845,-75.5465 718.012,-72.5628 713.932,-66.8744"/>
<text text-anchor="middle" x="765.207" y="-48.4945" font-family="Times New Roman,serif" font-size="8.00">spe</text>
</g>
<!-- http://example.org/disti#3 -->
<g id="node11" class="node"><title>http://example.org/disti#3</title>
<ellipse fill="none" stroke="black" cx="544.692" cy="-495" rx="102.882" ry="18"/>
<text text-anchor="middle" x="544.692" y="-491.3" font-family="Times New Roman,serif" font-size="14.00">http://example.org/disti#3</text>
</g>
<!-- http://example.org/assign14&#45;&gt;http://example.org/disti#3 -->
<g id="edge11" class="edge"><title>http://example.org/assign14&#45;&gt;http://example.org/disti#3</title>
<path fill="none" stroke="black" d="M429.889,-411.018C427.735,-425.305 427.251,-445.493 437.692,-459 443.923,-467.06 452.052,-473.289 461.049,-478.099"/>
<polygon fill="black" stroke="black" points="459.758,-481.359 470.296,-482.45 462.738,-475.025 459.758,-481.359"/>
<text text-anchor="middle" x="519.192" y="-447.8" font-family="Times New Roman,serif" font-size="14.00">use</text>
<text text-anchor="middle" x="519.192" y="-432.8" font-family="Times New Roman,serif" font-size="14.00">2018&#45;03&#45;25T18:52:56.226385</text>
</g>
<!-- http://example.org/ikj#4 -->
<g id="node12" class="node"><title>http://example.org/ikj#4</title>
<ellipse fill="none" stroke="black" cx="761.692" cy="-495" rx="96.3833" ry="18"/>
<text text-anchor="middle" x="761.692" y="-491.3" font-family="Times New Roman,serif" font-size="14.00">http://example.org/ikj#4</text>
</g>
<!-- http://example.org/assign14&#45;&gt;http://example.org/ikj#4 -->
<g id="edge14" class="edge"><title>http://example.org/assign14&#45;&gt;http://example.org/ikj#4</title>
<path fill="none" stroke="black" d="M466.449,-399.098C500.436,-404.796 554.92,-415.084 600.692,-429 622.759,-435.709 675.975,-457.624 715.215,-474.168"/>
<polygon fill="black" stroke="black" points="714.289,-477.576 724.862,-478.246 717.014,-471.129 714.289,-477.576"/>
<text text-anchor="middle" x="476.034" y="-385.66" font-family="Times New Roman,serif" font-size="8.00">use</text>
</g>
<!-- http://example.org/j#8 -->
<g id="node13" class="node"><title>http://example.org/j#8</title>
<ellipse fill="none" stroke="black" cx="89.692" cy="-495" rx="89.8845" ry="18"/>
<text text-anchor="middle" x="89.692" y="-491.3" font-family="Times New Roman,serif" font-size="14.00">http://example.org/j#8</text>
</g>
<!-- http://example.org/assign14&#45;&gt;http://example.org/j#8 -->
<g id="edge12" class="edge"><title>http://example.org/assign14&#45;&gt;http://example.org/j#8</title>
<path fill="none" stroke="black" d="M401.019,-403.498C343.035,-420.354 221.399,-455.713 148.515,-476.9"/>
<polygon fill="black" stroke="black" points="147.192,-473.64 138.567,-479.792 149.146,-480.362 147.192,-473.64"/>
<text text-anchor="middle" x="397.444" y="-416.165" font-family="Times New Roman,serif" font-size="8.00">use</text>
</g>
<!-- http://example.org/disti@j#4 -->
<g id="node14" class="node"><title>http://example.org/disti@j#4</title>
<ellipse fill="none" stroke="black" cx="310.692" cy="-495" rx="113.18" ry="18"/>
<text text-anchor="middle" x="310.692" y="-491.3" font-family="Times New Roman,serif" font-size="14.00">http://example.org/disti@j#4</text>
</g>
<!-- http://example.org/assign14&#45;&gt;http://example.org/disti@j#4 -->
<g id="edge13" class="edge"><title>http://example.org/assign14&#45;&gt;http://example.org/disti@j#4</title>
<path fill="none" stroke="black" d="M412.548,-411.191C392.36,-427.603 361.786,-452.46 339.402,-470.658"/>
<polygon fill="black" stroke="black" points="337.112,-468.01 331.561,-477.034 341.528,-473.441 337.112,-468.01"/>
<text text-anchor="middle" x="414.923" y="-424.101" font-family="Times New Roman,serif" font-size="8.00">use</text>
</g>
<!-- http://example.org/assign14&#45;attrs -->
<g id="node9" class="node"><title>http://example.org/assign14&#45;attrs</title>
<polygon fill="none" stroke="gray" points="454.692,-309 390.692,-309 390.692,-273 460.692,-273 460.692,-303 454.692,-309"/>
<polyline fill="none" stroke="gray" points="454.692,-309 454.692,-303 "/>
<polyline fill="none" stroke="gray" points="460.692,-303 454.692,-303 "/>
<text text-anchor="start" x="400.692" y="-288" font-family="Times New Roman,serif" font-size="10.00">type:</text>
<text text-anchor="start" x="423.692" y="-288" font-family="Times New Roman,serif" font-size="10.00">assign</text>
</g>
<!-- http://example.org/assign14&#45;attrs&#45;&gt;http://example.org/assign14 -->
<g id="edge7" class="edge"><title>http://example.org/assign14&#45;attrs&#45;&gt;http://example.org/assign14</title>
<path fill="none" stroke="gray" stroke-dasharray="5,2" d="M427.086,-309.419C428.554,-327.773 430.852,-356.502 432.315,-374.781"/>
</g>
<!-- bn1&#45;&gt;http://example.org/disti#3 -->
<g id="edge9" class="edge"><title>bn1&#45;&gt;http://example.org/disti#3</title>
<path fill="none" stroke="black" stroke-dasharray="5,2" d="M644.224,-395.031C641.239,-401.525 624.26,-437.181 601.692,-459 596.756,-463.772 591.059,-468.207 585.217,-472.206"/>
<polygon fill="black" stroke="black" points="583.136,-469.383 576.624,-477.741 586.927,-475.268 583.136,-469.383"/>
</g>
<!-- bn1&#45;&gt;http://example.org/ikj#4 -->
<g id="edge10" class="edge"><title>bn1&#45;&gt;http://example.org/ikj#4</title>
<path fill="none" stroke="black" d="M645.439,-394.639C652.113,-400.343 702.002,-442.983 734.22,-470.52"/>
<polygon fill="black" stroke="black" points="732.118,-473.327 741.993,-477.164 736.666,-468.006 732.118,-473.327"/>
<text text-anchor="middle" x="728.692" y="-440.3" font-family="Times New Roman,serif" font-size="14.00">[1]</text>
</g>
</g>
</svg>
