<?xml version="1.0" encoding="UTF-8" standalone="no"?>
<!DOCTYPE svg PUBLIC "-//W3C//DTD SVG 1.1//EN"
 "http://www.w3.org/Graphics/SVG/1.1/DTD/svg11.dtd">
<!-- Generated by graphviz version 2.38.0 (20140413.2041)
 -->
<!-- Title: PROV Pages: 1 -->
<svg width="496pt" height="224pt"
 viewBox="0.00 0.00 496.28 224.00" xmlns="http://www.w3.org/2000/svg" xmlns:xlink="http://www.w3.org/1999/xlink">
<g id="graph0" class="graph" transform="scale(1 1) rotate(0) translate(4 220)">
<title>PROV</title>
<polygon fill="white" stroke="none" points="-4,4 -4,-220 492.279,-220 492.279,4 -4,4"/>
<!-- http://example.org/j#8 -->
<g id="node1" class="node"><title>http://example.org/j#8</title>
<g id="a_node1"><a xlink:href="http://example.org/j#8" xlink:title="j#8">
<ellipse fill="#fafafa" stroke="#f0f0f0" cx="240.941" cy="-18" rx="27" ry="18"/>
<text text-anchor="middle" x="240.941" y="-14.3" font-family="Times New Roman,serif" font-size="14.00" fill="#f0f0f0">j#8</text>
</a>
</g>
</g>
<!-- http://example.org/access25 -->
<g id="node2" class="node"><title>http://example.org/access25</title>
<g id="a_node2"><a xlink:href="http://example.org/access25" xlink:title="access25">
<polygon fill="#fafafa" stroke="#f0f0f0" points="208.941,-126 140.941,-126 140.941,-90 208.941,-90 208.941,-126"/>
<text text-anchor="middle" x="174.941" y="-104.3" font-family="Times New Roman,serif" font-size="14.00" fill="#f0f0f0">access25</text>
</a>
</g>
</g>
<!-- http://example.org/j#8&#45;&gt;http://example.org/access25 -->
<g id="edge6" class="edge"><title>http://example.org/j#8&#45;&gt;http://example.org/access25</title>
<path fill="none" stroke="#f0f0f0" d="M215.627,-24.7093C200.099,-29.6592 181.429,-38.5473 171.941,-54 167.346,-61.4818 166.587,-70.7348 167.444,-79.4045"/>
<polygon fill="#f0f0f0" stroke="#f0f0f0" points="164.037,-80.249 169.143,-89.5322 170.941,-79.091 164.037,-80.249"/>
<text text-anchor="middle" x="226.441" y="-65.6" font-family="Times New Roman,serif" font-size="8.00" fill="#f0f0f0">gen</text>
<text text-anchor="middle" x="226.441" y="-56.6" font-family="Times New Roman,serif" font-size="8.00" fill="#f0f0f0">2018&#45;03&#45;21T14:46:24.916087</text>
</g>
<!-- bn0 -->
<g id="node3" class="node"><title>bn0</title>
<ellipse fill="#f0f0f0" stroke="#f0f0f0" cx="306.941" cy="-108" rx="1.8" ry="1.8"/>
</g>
<!-- http://example.org/j#8&#45;&gt;bn0 -->
<g id="edge1" class="edge"><title>http://example.org/j#8&#45;&gt;bn0</title>
<path fill="none" stroke="#f0f0f0" d="M259.909,-30.8428C268.45,-36.9261 278.123,-44.9599 284.941,-54 298.857,-72.4539 305.618,-100.988 306.764,-106.176"/>
<text text-anchor="middle" x="350.441" y="-65.6" font-family="Times New Roman,serif" font-size="8.00" fill="#f0f0f0">der ac&#45;r</text>
<text text-anchor="middle" x="350.441" y="-56.6" font-family="Times New Roman,serif" font-size="8.00" fill="#f0f0f0">2018&#45;03&#45;21T14:46:24.916087</text>
</g>
<!-- http://example.org/indexes -->
<g id="node4" class="node"><title>http://example.org/indexes</title>
<ellipse fill="none" stroke="black" cx="105.941" cy="-198" rx="105.881" ry="18"/>
<text text-anchor="middle" x="105.941" y="-194.3" font-family="Times New Roman,serif" font-size="14.00">http://example.org/indexes</text>
</g>
<!-- http://example.org/access25&#45;&gt;http://example.org/indexes -->
<g id="edge4" class="edge"><title>http://example.org/access25&#45;&gt;http://example.org/indexes</title>
<path fill="none" stroke="#f0f0f0" d="M161.308,-126.386C151.131,-139.366 137.072,-157.296 125.668,-171.84"/>
<polygon fill="#f0f0f0" stroke="#f0f0f0" points="122.726,-169.921 119.31,-179.95 128.234,-174.24 122.726,-169.921"/>
<text text-anchor="middle" x="166.903" y="-138.403" font-family="Times New Roman,serif" font-size="8.00" fill="#f0f0f0">use</text>
</g>
<!-- http://example.org/range_nodes1 -->
<g id="node5" class="node"><title>http://example.org/range_nodes1</title>
<ellipse fill="none" stroke="black" cx="358.941" cy="-198" rx="129.177" ry="18"/>
<text text-anchor="middle" x="358.941" y="-194.3" font-family="Times New Roman,serif" font-size="14.00">http://example.org/range_nodes1</text>
</g>
<!-- http://example.org/access25&#45;&gt;http://example.org/range_nodes1 -->
<g id="edge5" class="edge"><title>http://example.org/access25&#45;&gt;http://example.org/range_nodes1</title>
<path fill="none" stroke="#f0f0f0" d="M184.001,-126.066C191.145,-137.893 202.186,-153.063 215.941,-162 229.252,-170.649 244.522,-177.162 260.016,-182.065"/>
<polygon fill="#f0f0f0" stroke="#f0f0f0" points="259.095,-185.443 269.677,-184.915 261.075,-178.729 259.095,-185.443"/>
<text text-anchor="middle" x="270.441" y="-155.6" font-family="Times New Roman,serif" font-size="8.00" fill="#f0f0f0">use</text>
<text text-anchor="middle" x="270.441" y="-146.6" font-family="Times New Roman,serif" font-size="8.00" fill="#f0f0f0">2018&#45;03&#45;21T14:46:24.916087</text>
</g>
<!-- bn0&#45;&gt;http://example.org/indexes -->
<g id="edge2" class="edge"><title>bn0&#45;&gt;http://example.org/indexes</title>
<path fill="none" stroke="#f0f0f0" stroke-dasharray="5,2" d="M306.982,-109.917C307.19,-115.676 307.523,-147.092 290.941,-162 286.87,-165.66 236.394,-175.074 189.198,-183.218"/>
<polygon fill="#f0f0f0" stroke="#f0f0f0" points="188.459,-179.794 179.195,-184.934 189.643,-186.693 188.459,-179.794"/>
</g>
<!-- bn0&#45;&gt;http://example.org/range_nodes1 -->
<g id="edge3" class="edge"><title>bn0&#45;&gt;http://example.org/range_nodes1</title>
<path fill="none" stroke="#f0f0f0" d="M307.525,-109.988C311.051,-115.956 329.815,-147.711 343.661,-171.143"/>
<polygon fill="#f0f0f0" stroke="#f0f0f0" points="340.768,-173.126 348.868,-179.954 346.794,-169.565 340.768,-173.126"/>
<text text-anchor="middle" x="343.441" y="-151.1" font-family="Times New Roman,serif" font-size="8.00" fill="#f0f0f0">[1]</text>
</g>
</g>
</svg>
