<?xml version="1.0" encoding="UTF-8" standalone="no"?>
<!DOCTYPE svg PUBLIC "-//W3C//DTD SVG 1.1//EN"
 "http://www.w3.org/Graphics/SVG/1.1/DTD/svg11.dtd">
<!-- Generated by graphviz version 2.38.0 (20140413.2041)
 -->
<!-- Title: PROV Pages: 1 -->
<svg width="1152pt" height="601pt"
 viewBox="0.00 0.00 1152.00 601.08" xmlns="http://www.w3.org/2000/svg" xmlns:xlink="http://www.w3.org/1999/xlink">
<g id="graph0" class="graph" transform="scale(0.945089 0.945089) rotate(0) translate(4 632)">
<title>PROV</title>
<polygon fill="white" stroke="none" points="-4,4 -4,-632 1214.93,-632 1214.93,4 -4,4"/>
<!-- http://example.org/disti_ak#11 -->
<g id="node1" class="node"><title>http://example.org/disti_ak#11</title>
<g id="a_node1"><a xlink:href="http://example.org/disti_ak#11" xlink:title="disti_ak#11">
<ellipse fill="#fafafa" stroke="#f0f0f0" cx="698.242" cy="-430" rx="52.7911" ry="18"/>
<text text-anchor="middle" x="698.242" y="-426.3" font-family="Times New Roman,serif" font-size="14.00" fill="#f0f0f0">disti_ak#11</text>
</a>
</g>
</g>
<!-- http://example.org/access80 -->
<g id="node2" class="node"><title>http://example.org/access80</title>
<g id="a_node2"><a xlink:href="http://example.org/access80" xlink:title="access80">
<polygon fill="#fafafa" stroke="#f0f0f0" points="763.242,-538 695.242,-538 695.242,-502 763.242,-502 763.242,-538"/>
<text text-anchor="middle" x="729.242" y="-516.3" font-family="Times New Roman,serif" font-size="14.00" fill="#f0f0f0">access80</text>
</a>
</g>
</g>
<!-- http://example.org/disti_ak#11&#45;&gt;http://example.org/access80 -->
<g id="edge23" class="edge"><title>http://example.org/disti_ak#11&#45;&gt;http://example.org/access80</title>
<path fill="none" stroke="#f0f0f0" d="M704.219,-447.967C708.608,-460.426 714.66,-477.606 719.713,-491.95"/>
<polygon fill="#f0f0f0" stroke="#f0f0f0" points="716.553,-493.516 723.177,-501.785 723.156,-491.19 716.553,-493.516"/>
<text text-anchor="middle" x="771.742" y="-477.6" font-family="Times New Roman,serif" font-size="8.00" fill="#f0f0f0">gen</text>
<text text-anchor="middle" x="771.742" y="-468.6" font-family="Times New Roman,serif" font-size="8.00" fill="#f0f0f0">2018&#45;03&#45;19T12:00:35.568290</text>
</g>
<!-- bn0 -->
<g id="node3" class="node"><title>bn0</title>
<ellipse fill="#f0f0f0" stroke="#f0f0f0" cx="904.242" cy="-520" rx="1.8" ry="1.8"/>
</g>
<!-- http://example.org/disti_ak#11&#45;&gt;bn0 -->
<g id="edge1" class="edge"><title>http://example.org/disti_ak#11&#45;&gt;bn0</title>
<path fill="none" stroke="#f0f0f0" d="M744.267,-438.928C770.305,-444.451 803.004,-453.165 830.242,-466 863.406,-481.627 897.235,-512.458 903.287,-518.102"/>
<text text-anchor="middle" x="915.742" y="-477.6" font-family="Times New Roman,serif" font-size="8.00" fill="#f0f0f0">der ac&#45;r</text>
<text text-anchor="middle" x="915.742" y="-468.6" font-family="Times New Roman,serif" font-size="8.00" fill="#f0f0f0">2018&#45;03&#45;19T12:00:35.568290</text>
</g>
<!-- http://example.org/disti#9 -->
<g id="node4" class="node"><title>http://example.org/disti#9</title>
<ellipse fill="none" stroke="black" cx="1108.24" cy="-610" rx="102.882" ry="18"/>
<text text-anchor="middle" x="1108.24" y="-606.3" font-family="Times New Roman,serif" font-size="14.00">http://example.org/disti#9</text>
</g>
<!-- http://example.org/access80&#45;&gt;http://example.org/disti#9 -->
<g id="edge4" class="edge"><title>http://example.org/access80&#45;&gt;http://example.org/disti#9</title>
<path fill="none" stroke="#f0f0f0" d="M763.267,-529.2C789.035,-535.693 825.179,-545.408 856.242,-556 876.24,-562.819 879.921,-568.211 900.242,-574 912.421,-577.47 972.174,-587.409 1024.53,-595.814"/>
<polygon fill="#f0f0f0" stroke="#f0f0f0" points="1024.12,-599.292 1034.54,-597.417 1025.22,-592.38 1024.12,-599.292"/>
<text text-anchor="middle" x="773.739" y="-516.56" font-family="Times New Roman,serif" font-size="8.00" fill="#f0f0f0">use</text>
</g>
<!-- http://example.org/0 -->
<g id="node5" class="node"><title>http://example.org/0</title>
<ellipse fill="none" stroke="black" cx="904.242" cy="-610" rx="83.3857" ry="18"/>
<text text-anchor="middle" x="904.242" y="-606.3" font-family="Times New Roman,serif" font-size="14.00">http://example.org/0</text>
</g>
<!-- http://example.org/access80&#45;&gt;http://example.org/0 -->
<g id="edge18" class="edge"><title>http://example.org/access80&#45;&gt;http://example.org/0</title>
<path fill="none" stroke="#f0f0f0" d="M730.743,-538.187C732.682,-549.915 737.116,-564.914 747.242,-574 750.77,-577.166 794.736,-586.822 835.244,-595.192"/>
<polygon fill="#f0f0f0" stroke="#f0f0f0" points="834.669,-598.647 845.169,-597.232 836.078,-591.79 834.669,-598.647"/>
<text text-anchor="middle" x="801.742" y="-567.6" font-family="Times New Roman,serif" font-size="8.00" fill="#f0f0f0">use</text>
<text text-anchor="middle" x="801.742" y="-558.6" font-family="Times New Roman,serif" font-size="8.00" fill="#f0f0f0">2018&#45;03&#45;19T12:00:35.568290</text>
</g>
<!-- http://example.org/k#3 -->
<g id="node6" class="node"><title>http://example.org/k#3</title>
<ellipse fill="none" stroke="black" cx="711.242" cy="-610" rx="92.0841" ry="18"/>
<text text-anchor="middle" x="711.242" y="-606.3" font-family="Times New Roman,serif" font-size="14.00">http://example.org/k#3</text>
</g>
<!-- http://example.org/access80&#45;&gt;http://example.org/k#3 -->
<g id="edge5" class="edge"><title>http://example.org/access80&#45;&gt;http://example.org/k#3</title>
<path fill="none" stroke="#f0f0f0" d="M725.685,-538.386C723.154,-550.76 719.703,-567.631 716.809,-581.78"/>
<polygon fill="#f0f0f0" stroke="#f0f0f0" points="713.304,-581.451 714.729,-591.95 720.162,-582.854 713.304,-581.451"/>
<text text-anchor="middle" x="736.909" y="-546.437" font-family="Times New Roman,serif" font-size="8.00" fill="#f0f0f0">use</text>
</g>
<!-- bn0&#45;&gt;http://example.org/disti#9 -->
<g id="edge2" class="edge"><title>bn0&#45;&gt;http://example.org/disti#9</title>
<path fill="none" stroke="#f0f0f0" stroke-dasharray="5,2" d="M905.544,-521.562C917.285,-526.626 1005.72,-564.774 1061.83,-588.98"/>
<polygon fill="#f0f0f0" stroke="#f0f0f0" points="1060.66,-592.285 1071.22,-593.032 1063.43,-585.857 1060.66,-592.285"/>
</g>
<!-- bn0&#45;&gt;http://example.org/0 -->
<g id="edge3" class="edge"><title>bn0&#45;&gt;http://example.org/0</title>
<path fill="none" stroke="#f0f0f0" d="M904.242,-521.988C904.242,-527.85 904.242,-558.595 904.242,-581.891"/>
<polygon fill="#f0f0f0" stroke="#f0f0f0" points="900.742,-581.954 904.242,-591.954 907.742,-581.955 900.742,-581.954"/>
<text text-anchor="middle" x="909.742" y="-563.1" font-family="Times New Roman,serif" font-size="8.00" fill="#f0f0f0">[2]</text>
</g>
<!-- http://example.org/distk_aj#11 -->
<g id="node7" class="node"><title>http://example.org/distk_aj#11</title>
<g id="a_node7"><a xlink:href="http://example.org/distk_aj#11" xlink:title="distk_aj#11">
<ellipse fill="#fafafa" stroke="#f0f0f0" cx="540.242" cy="-430" rx="52.7911" ry="18"/>
<text text-anchor="middle" x="540.242" y="-426.3" font-family="Times New Roman,serif" font-size="14.00" fill="#f0f0f0">distk_aj#11</text>
</a>
</g>
</g>
<!-- http://example.org/access81 -->
<g id="node8" class="node"><title>http://example.org/access81</title>
<g id="a_node8"><a xlink:href="http://example.org/access81" xlink:title="access81">
<polygon fill="#fafafa" stroke="#f0f0f0" points="364.242,-538 296.242,-538 296.242,-502 364.242,-502 364.242,-538"/>
<text text-anchor="middle" x="330.242" y="-516.3" font-family="Times New Roman,serif" font-size="14.00" fill="#f0f0f0">access81</text>
</a>
</g>
</g>
<!-- http://example.org/distk_aj#11&#45;&gt;http://example.org/access81 -->
<g id="edge25" class="edge"><title>http://example.org/distk_aj#11&#45;&gt;http://example.org/access81</title>
<path fill="none" stroke="#f0f0f0" d="M496.377,-440.048C471.911,-445.886 441.224,-454.544 415.242,-466 396.885,-474.094 377.812,-485.655 362.396,-495.916"/>
<polygon fill="#f0f0f0" stroke="#f0f0f0" points="360.081,-493.257 353.775,-501.77 364.014,-499.048 360.081,-493.257"/>
<text text-anchor="middle" x="469.742" y="-477.6" font-family="Times New Roman,serif" font-size="8.00" fill="#f0f0f0">gen</text>
<text text-anchor="middle" x="469.742" y="-468.6" font-family="Times New Roman,serif" font-size="8.00" fill="#f0f0f0">2018&#45;03&#45;19T12:00:35.569293</text>
</g>
<!-- bn1 -->
<g id="node9" class="node"><title>bn1</title>
<ellipse fill="#f0f0f0" stroke="#f0f0f0" cx="518.242" cy="-520" rx="1.8" ry="1.8"/>
</g>
<!-- http://example.org/distk_aj#11&#45;&gt;bn1 -->
<g id="edge6" class="edge"><title>http://example.org/distk_aj#11&#45;&gt;bn1</title>
<path fill="none" stroke="#f0f0f0" d="M536,-447.967C530.106,-471.541 519.987,-512.018 518.442,-518.199"/>
<text text-anchor="middle" x="585.742" y="-477.6" font-family="Times New Roman,serif" font-size="8.00" fill="#f0f0f0">der ac&#45;r</text>
<text text-anchor="middle" x="585.742" y="-468.6" font-family="Times New Roman,serif" font-size="8.00" fill="#f0f0f0">2018&#45;03&#45;19T12:00:35.569293</text>
</g>
<!-- http://example.org/distk#3 -->
<g id="node10" class="node"><title>http://example.org/distk#3</title>
<ellipse fill="none" stroke="black" cx="312.242" cy="-610" rx="105.082" ry="18"/>
<text text-anchor="middle" x="312.242" y="-606.3" font-family="Times New Roman,serif" font-size="14.00">http://example.org/distk#3</text>
</g>
<!-- http://example.org/access81&#45;&gt;http://example.org/distk#3 -->
<g id="edge9" class="edge"><title>http://example.org/access81&#45;&gt;http://example.org/distk#3</title>
<path fill="none" stroke="#f0f0f0" d="M326.685,-538.386C324.154,-550.76 320.703,-567.631 317.809,-581.78"/>
<polygon fill="#f0f0f0" stroke="#f0f0f0" points="314.304,-581.451 315.729,-591.95 321.162,-582.854 314.304,-581.451"/>
<text text-anchor="middle" x="337.909" y="-546.437" font-family="Times New Roman,serif" font-size="8.00" fill="#f0f0f0">use</text>
</g>
<!-- http://example.org/2 -->
<g id="node11" class="node"><title>http://example.org/2</title>
<ellipse fill="none" stroke="black" cx="518.242" cy="-610" rx="83.3857" ry="18"/>
<text text-anchor="middle" x="518.242" y="-606.3" font-family="Times New Roman,serif" font-size="14.00">http://example.org/2</text>
</g>
<!-- http://example.org/access81&#45;&gt;http://example.org/2 -->
<g id="edge21" class="edge"><title>http://example.org/access81&#45;&gt;http://example.org/2</title>
<path fill="none" stroke="#f0f0f0" d="M350.776,-538.203C365.252,-549.634 385.504,-564.276 405.242,-574 420.796,-581.663 438.382,-588.079 454.967,-593.236"/>
<polygon fill="#f0f0f0" stroke="#f0f0f0" points="454.009,-596.603 464.594,-596.127 456.023,-589.899 454.009,-596.603"/>
<text text-anchor="middle" x="459.742" y="-567.6" font-family="Times New Roman,serif" font-size="8.00" fill="#f0f0f0">use</text>
<text text-anchor="middle" x="459.742" y="-558.6" font-family="Times New Roman,serif" font-size="8.00" fill="#f0f0f0">2018&#45;03&#45;19T12:00:35.569293</text>
</g>
<!-- http://example.org/j#25 -->
<g id="node12" class="node"><title>http://example.org/j#25</title>
<ellipse fill="none" stroke="black" cx="94.2416" cy="-610" rx="94.4839" ry="18"/>
<text text-anchor="middle" x="94.2416" y="-606.3" font-family="Times New Roman,serif" font-size="14.00">http://example.org/j#25</text>
</g>
<!-- http://example.org/access81&#45;&gt;http://example.org/j#25 -->
<g id="edge10" class="edge"><title>http://example.org/access81&#45;&gt;http://example.org/j#25</title>
<path fill="none" stroke="#f0f0f0" d="M296.177,-533.702C256.493,-548.499 190.549,-573.089 144.867,-590.123"/>
<polygon fill="#f0f0f0" stroke="#f0f0f0" points="143.59,-586.863 135.443,-593.637 146.036,-593.422 143.59,-586.863"/>
<text text-anchor="middle" x="293.689" y="-546.594" font-family="Times New Roman,serif" font-size="8.00" fill="#f0f0f0">use</text>
</g>
<!-- bn1&#45;&gt;http://example.org/distk#3 -->
<g id="edge7" class="edge"><title>bn1&#45;&gt;http://example.org/distk#3</title>
<path fill="none" stroke="#f0f0f0" stroke-dasharray="5,2" d="M517.695,-521.928C514.21,-527.754 494.443,-559.505 469.242,-574 456.081,-581.57 425.777,-589.023 395.267,-595.094"/>
<polygon fill="#f0f0f0" stroke="#f0f0f0" points="394.524,-591.672 385.375,-597.014 395.859,-598.544 394.524,-591.672"/>
</g>
<!-- bn1&#45;&gt;http://example.org/2 -->
<g id="edge8" class="edge"><title>bn1&#45;&gt;http://example.org/2</title>
<path fill="none" stroke="#f0f0f0" d="M518.242,-521.988C518.242,-527.85 518.242,-558.595 518.242,-581.891"/>
<polygon fill="#f0f0f0" stroke="#f0f0f0" points="514.742,-581.954 518.242,-591.954 521.742,-581.955 514.742,-581.954"/>
<text text-anchor="middle" x="523.742" y="-563.1" font-family="Times New Roman,serif" font-size="8.00" fill="#f0f0f0">[0]</text>
</g>
<!-- http://example.org/sum#11 -->
<g id="node13" class="node"><title>http://example.org/sum#11</title>
<g id="a_node13"><a xlink:href="http://example.org/sum#11" xlink:title="sum#11">
<ellipse fill="#fafafa" stroke="#f0f0f0" cx="603.242" cy="-284" rx="39.7935" ry="18"/>
<text text-anchor="middle" x="603.242" y="-280.3" font-family="Times New Roman,serif" font-size="14.00" fill="#f0f0f0">sum#11</text>
</a>
</g>
</g>
<!-- http://example.org/sum#11&#45;&gt;http://example.org/disti_ak#11 -->
<g id="edge13" class="edge"><title>http://example.org/sum#11&#45;&gt;http://example.org/disti_ak#11</title>
<path fill="none" stroke="#f0f0f0" d="M614.304,-301.522C621.442,-312.2 630.915,-326.405 639.242,-339 653.543,-360.633 669.681,-385.266 681.46,-403.286"/>
<polygon fill="#f0f0f0" stroke="#f0f0f0" points="678.789,-405.598 687.189,-412.055 684.65,-401.769 678.789,-405.598"/>
<text text-anchor="middle" x="629.272" y="-298.64" font-family="Times New Roman,serif" font-size="8.00" fill="#f0f0f0">der</text>
</g>
<!-- http://example.org/sum#11&#45;&gt;http://example.org/distk_aj#11 -->
<g id="edge14" class="edge"><title>http://example.org/sum#11&#45;&gt;http://example.org/distk_aj#11</title>
<path fill="none" stroke="#f0f0f0" d="M590.541,-301.262C582.946,-311.606 573.573,-325.542 567.242,-339 557.721,-359.237 550.655,-383.609 546.144,-401.885"/>
<polygon fill="#f0f0f0" stroke="#f0f0f0" points="542.679,-401.326 543.784,-411.863 549.491,-402.937 542.679,-401.326"/>
<text text-anchor="middle" x="596.65" y="-313.062" font-family="Times New Roman,serif" font-size="8.00" fill="#f0f0f0">der</text>
</g>
<!-- http://example.org/sum#11_v1 -->
<g id="node14" class="node"><title>http://example.org/sum#11_v1</title>
<g id="a_node14"><a xlink:href="http://example.org/sum#11_v1" xlink:title="sum#11_v1">
<ellipse fill="#fffc87" stroke="#808080" cx="745.242" cy="-357" rx="53.0913" ry="18"/>
<text text-anchor="middle" x="745.242" y="-353.3" font-family="Times New Roman,serif" font-size="14.00">sum#11_v1</text>
</a>
</g>
</g>
<!-- http://example.org/sum#11&#45;&gt;http://example.org/sum#11_v1 -->
<g id="edge12" class="edge"><title>http://example.org/sum#11&#45;&gt;http://example.org/sum#11_v1</title>
<path fill="none" stroke="black" d="M629.643,-297.658C643.293,-304.247 660.2,-312.478 675.242,-320 686.018,-325.39 697.675,-331.337 708.328,-336.819"/>
<polygon fill="black" stroke="black" points="706.892,-340.016 717.384,-341.491 710.101,-333.795 706.892,-340.016"/>
<text text-anchor="middle" x="642.048" y="-287.325" font-family="Times New Roman,serif" font-size="8.00">spe</text>
</g>
<!-- http://example.org/+11 -->
<g id="node16" class="node"><title>http://example.org/+11</title>
<g id="a_node16"><a xlink:href="http://example.org/+11" xlink:title="+11">
<polygon fill="#fafafa" stroke="#f0f0f0" points="630.242,-375 576.242,-375 576.242,-339 630.242,-339 630.242,-375"/>
<text text-anchor="middle" x="603.242" y="-353.3" font-family="Times New Roman,serif" font-size="14.00" fill="#f0f0f0">+11</text>
</a>
</g>
</g>
<!-- http://example.org/sum#11&#45;&gt;http://example.org/+11 -->
<g id="edge24" class="edge"><title>http://example.org/sum#11&#45;&gt;http://example.org/+11</title>
<path fill="none" stroke="#f0f0f0" d="M603.242,-302.187C603.242,-310.211 603.242,-319.953 603.242,-328.931"/>
<polygon fill="#f0f0f0" stroke="#f0f0f0" points="599.742,-328.971 603.242,-338.971 606.742,-328.971 599.742,-328.971"/>
<text text-anchor="middle" x="616.232" y="-307.787" font-family="Times New Roman,serif" font-size="8.00" fill="#f0f0f0">gen</text>
</g>
<!-- &#45;attrs0 -->
<g id="node15" class="node"><title>&#45;attrs0</title>
<polygon fill="none" stroke="gray" points="829.742,-302 660.742,-302 660.742,-266 835.742,-266 835.742,-296 829.742,-302"/>
<polyline fill="none" stroke="gray" points="829.742,-302 829.742,-296 "/>
<polyline fill="none" stroke="gray" points="835.742,-296 829.742,-296 "/>
<text text-anchor="start" x="671.242" y="-288" font-family="Times New Roman,serif" font-size="10.00">checkpoint:</text>
<text text-anchor="start" x="720.242" y="-288" font-family="Times New Roman,serif" font-size="10.00">2018&#45;03&#45;19 12:00:35.569293</text>
<text text-anchor="start" x="671.242" y="-275" font-family="Times New Roman,serif" font-size="10.00">type:</text>
<text text-anchor="start" x="720.242" y="-275" font-family="Times New Roman,serif" font-size="10.00">Version</text>
</g>
<!-- &#45;attrs0&#45;&gt;http://example.org/sum#11_v1 -->
<g id="edge11" class="edge"><title>&#45;attrs0&#45;&gt;http://example.org/sum#11_v1</title>
<path fill="none" stroke="gray" stroke-dasharray="5,2" d="M747.515,-302.187C747.044,-313.35 746.432,-327.84 745.961,-338.971"/>
</g>
<!-- http://example.org/+11&#45;&gt;http://example.org/disti_ak#11 -->
<g id="edge17" class="edge"><title>http://example.org/+11&#45;&gt;http://example.org/disti_ak#11</title>
<path fill="none" stroke="#f0f0f0" d="M623.55,-375.214C630.905,-381.289 639.346,-388.077 647.242,-394 653.384,-398.607 660.073,-403.371 666.525,-407.845"/>
<polygon fill="#f0f0f0" stroke="#f0f0f0" points="664.875,-410.957 675.103,-413.724 668.833,-405.183 664.875,-410.957"/>
<text text-anchor="middle" x="637.596" y="-368.052" font-family="Times New Roman,serif" font-size="8.00" fill="#f0f0f0">use</text>
</g>
<!-- http://example.org/+11&#45;&gt;http://example.org/distk_aj#11 -->
<g id="edge19" class="edge"><title>http://example.org/+11&#45;&gt;http://example.org/distk_aj#11</title>
<path fill="none" stroke="#f0f0f0" d="M587.991,-375.187C580.06,-384.125 570.237,-395.195 561.566,-404.967"/>
<polygon fill="#f0f0f0" stroke="#f0f0f0" points="558.937,-402.657 554.918,-412.46 564.173,-407.303 558.937,-402.657"/>
<text text-anchor="middle" x="592.73" y="-387.519" font-family="Times New Roman,serif" font-size="8.00" fill="#f0f0f0">use</text>
</g>
<!-- http://example.org/ikj#11 -->
<g id="node17" class="node"><title>http://example.org/ikj#11</title>
<g id="a_node17"><a xlink:href="http://example.org/ikj#11" xlink:title="ikj#11">
<ellipse fill="#fffc87" stroke="#808080" cx="571.242" cy="-104" rx="32.4942" ry="18"/>
<text text-anchor="middle" x="571.242" y="-100.3" font-family="Times New Roman,serif" font-size="14.00">ikj#11</text>
</a>
</g>
</g>
<!-- http://example.org/ikj#11&#45;&gt;http://example.org/sum#11 -->
<g id="edge16" class="edge"><title>http://example.org/ikj#11&#45;&gt;http://example.org/sum#11</title>
<path fill="none" stroke="#f0f0f0" d="M566.905,-121.983C562.179,-143.345 556.284,-180.985 564.242,-212 568.473,-228.492 577.424,-245.263 585.685,-258.362"/>
<polygon fill="#f0f0f0" stroke="#f0f0f0" points="582.81,-260.361 591.227,-266.796 588.66,-256.516 582.81,-260.361"/>
<text text-anchor="middle" x="618.742" y="-196.6" font-family="Times New Roman,serif" font-size="8.00" fill="#f0f0f0">der ref</text>
<text text-anchor="middle" x="618.742" y="-187.6" font-family="Times New Roman,serif" font-size="8.00" fill="#f0f0f0">2018&#45;03&#45;19T12:00:35.569293</text>
</g>
<!-- http://example.org/assign32 -->
<g id="node19" class="node"><title>http://example.org/assign32</title>
<g id="a_node19"><a xlink:href="http://example.org/assign32" xlink:title="assign32">
<polygon fill="#fafafa" stroke="#f0f0f0" points="747.742,-212 682.742,-212 682.742,-176 747.742,-176 747.742,-212"/>
<text text-anchor="middle" x="715.242" y="-190.3" font-family="Times New Roman,serif" font-size="14.00" fill="#f0f0f0">assign32</text>
</a>
</g>
</g>
<!-- http://example.org/ikj#11&#45;&gt;http://example.org/assign32 -->
<g id="edge22" class="edge"><title>http://example.org/ikj#11&#45;&gt;http://example.org/assign32</title>
<path fill="none" stroke="#f0f0f0" d="M592.18,-117.796C614.845,-131.646 651.417,-153.996 678.813,-170.738"/>
<polygon fill="#f0f0f0" stroke="#f0f0f0" points="676.998,-173.73 687.356,-175.959 680.648,-167.758 676.998,-173.73"/>
<text text-anchor="middle" x="710.742" y="-151.6" font-family="Times New Roman,serif" font-size="8.00" fill="#f0f0f0">gen</text>
<text text-anchor="middle" x="710.742" y="-142.6" font-family="Times New Roman,serif" font-size="8.00" fill="#f0f0f0">2018&#45;03&#45;19T12:00:35.569293</text>
</g>
<!-- &#45;attrs1 -->
<g id="node18" class="node"><title>&#45;attrs1</title>
<polygon fill="none" stroke="gray" points="599.742,-49 536.742,-49 536.742,-0 605.742,-0 605.742,-43 599.742,-49"/>
<polyline fill="none" stroke="gray" points="599.742,-49 599.742,-43 "/>
<polyline fill="none" stroke="gray" points="605.742,-43 599.742,-43 "/>
<text text-anchor="start" x="547.242" y="-34.5" font-family="Times New Roman,serif" font-size="10.00">value:</text>
<text text-anchor="start" x="574.242" y="-34.5" font-family="Times New Roman,serif" font-size="10.00">2</text>
<text text-anchor="start" x="547.242" y="-21.5" font-family="Times New Roman,serif" font-size="10.00">type:</text>
<text text-anchor="start" x="574.242" y="-21.5" font-family="Times New Roman,serif" font-size="10.00">name</text>
<text text-anchor="start" x="547.242" y="-8.5" font-family="Times New Roman,serif" font-size="10.00">label:</text>
<text text-anchor="start" x="574.242" y="-8.5" font-family="Times New Roman,serif" font-size="10.00">ikj</text>
</g>
<!-- &#45;attrs1&#45;&gt;http://example.org/ikj#11 -->
<g id="edge15" class="edge"><title>&#45;attrs1&#45;&gt;http://example.org/ikj#11</title>
<path fill="none" stroke="gray" stroke-dasharray="5,2" d="M571.242,-49.1737C571.242,-60.9254 571.242,-74.869 571.242,-85.6196"/>
</g>
<!-- http://example.org/assign32&#45;&gt;http://example.org/sum#11 -->
<g id="edge20" class="edge"><title>http://example.org/assign32&#45;&gt;http://example.org/sum#11</title>
<path fill="none" stroke="#f0f0f0" d="M693.381,-212.176C675.414,-226.293 649.865,-246.367 630.553,-261.541"/>
<polygon fill="#f0f0f0" stroke="#f0f0f0" points="628.134,-258.99 622.433,-267.921 632.459,-264.495 628.134,-258.99"/>
<text text-anchor="middle" x="724.742" y="-241.6" font-family="Times New Roman,serif" font-size="8.00" fill="#f0f0f0">use</text>
<text text-anchor="middle" x="724.742" y="-232.6" font-family="Times New Roman,serif" font-size="8.00" fill="#f0f0f0">2018&#45;03&#45;19T12:00:35.569293</text>
</g>
</g>
</svg>
