<?xml version="1.0" encoding="UTF-8" standalone="no"?>
<!DOCTYPE svg PUBLIC "-//W3C//DTD SVG 1.1//EN"
 "http://www.w3.org/Graphics/SVG/1.1/DTD/svg11.dtd">
<!-- Generated by graphviz version 2.38.0 (20140413.2041)
 -->
<!-- Title: PROV Pages: 1 -->
<svg width="1152pt" height="509pt"
 viewBox="0.00 0.00 1152.00 509.07" xmlns="http://www.w3.org/2000/svg" xmlns:xlink="http://www.w3.org/1999/xlink">
<g id="graph0" class="graph" transform="scale(0.858463 0.858463) rotate(0) translate(4 589)">
<title>PROV</title>
<polygon fill="white" stroke="none" points="-4,4 -4,-589 1337.93,-589 1337.93,4 -4,4"/>
<!-- http://example.org/disti_ak#9 -->
<g id="node1" class="node"><title>http://example.org/disti_ak#9</title>
<g id="a_node1"><a xlink:href="http://example.org/disti_ak#9" xlink:title="disti_ak#9">
<ellipse fill="#fafafa" stroke="#f0f0f0" cx="779.242" cy="-396" rx="48.1917" ry="18"/>
<text text-anchor="middle" x="779.242" y="-392.3" font-family="Times New Roman,serif" font-size="14.00" fill="#f0f0f0">disti_ak#9</text>
</a>
</g>
</g>
<!-- http://example.org/access65 -->
<g id="node2" class="node"><title>http://example.org/access65</title>
<g id="a_node2"><a xlink:href="http://example.org/access65" xlink:title="access65">
<polygon fill="#fafafa" stroke="#f0f0f0" points="862.242,-504 794.242,-504 794.242,-468 862.242,-468 862.242,-504"/>
<text text-anchor="middle" x="828.242" y="-482.3" font-family="Times New Roman,serif" font-size="14.00" fill="#f0f0f0">access65</text>
</a>
</g>
</g>
<!-- http://example.org/disti_ak#9&#45;&gt;http://example.org/access65 -->
<g id="edge24" class="edge"><title>http://example.org/disti_ak#9&#45;&gt;http://example.org/access65</title>
<path fill="none" stroke="#f0f0f0" d="M788.689,-413.967C795.761,-426.668 805.565,-444.275 813.643,-458.782"/>
<polygon fill="#f0f0f0" stroke="#f0f0f0" points="810.733,-460.75 818.656,-467.785 816.849,-457.345 810.733,-460.75"/>
<text text-anchor="middle" x="803.688" y="-412.3" font-family="Times New Roman,serif" font-size="8.00" fill="#f0f0f0">gen</text>
</g>
<!-- bn0 -->
<g id="node3" class="node"><title>bn0</title>
<ellipse fill="#f0f0f0" stroke="#f0f0f0" cx="997.242" cy="-486" rx="1.8" ry="1.8"/>
</g>
<!-- http://example.org/disti_ak#9&#45;&gt;bn0 -->
<g id="edge1" class="edge"><title>http://example.org/disti_ak#9&#45;&gt;bn0</title>
<path fill="none" stroke="#f0f0f0" d="M810.941,-409.796C867.624,-432.677 981.767,-478.753 995.814,-484.424"/>
<text text-anchor="middle" x="961.742" y="-443.6" font-family="Times New Roman,serif" font-size="8.00" fill="#f0f0f0">der ac&#45;r</text>
<text text-anchor="middle" x="961.742" y="-434.6" font-family="Times New Roman,serif" font-size="8.00" fill="#f0f0f0">2018&#45;03&#45;10T05:25:01.553469</text>
</g>
<!-- http://example.org/disti#7 -->
<g id="node4" class="node"><title>http://example.org/disti#7</title>
<ellipse fill="none" stroke="black" cx="1231.24" cy="-567" rx="102.882" ry="18"/>
<text text-anchor="middle" x="1231.24" y="-563.3" font-family="Times New Roman,serif" font-size="14.00">http://example.org/disti#7</text>
</g>
<!-- http://example.org/access65&#45;&gt;http://example.org/disti#7 -->
<g id="edge4" class="edge"><title>http://example.org/access65&#45;&gt;http://example.org/disti#7</title>
<path fill="none" stroke="#f0f0f0" d="M862.254,-493.667C926.663,-506.293 1067.83,-533.967 1155.69,-551.189"/>
<polygon fill="#f0f0f0" stroke="#f0f0f0" points="1155.11,-554.643 1165.6,-553.132 1156.46,-547.774 1155.11,-554.643"/>
<text text-anchor="middle" x="872.113" y="-480.462" font-family="Times New Roman,serif" font-size="8.00" fill="#f0f0f0">use</text>
</g>
<!-- http://example.org/disti_aj#7 -->
<g id="node5" class="node"><title>http://example.org/disti_aj#7</title>
<ellipse fill="none" stroke="black" cx="997.242" cy="-567" rx="113.98" ry="18"/>
<text text-anchor="middle" x="997.242" y="-563.3" font-family="Times New Roman,serif" font-size="14.00">http://example.org/disti_aj#7</text>
</g>
<!-- http://example.org/access65&#45;&gt;http://example.org/disti_aj#7 -->
<g id="edge21" class="edge"><title>http://example.org/access65&#45;&gt;http://example.org/disti_aj#7</title>
<path fill="none" stroke="#f0f0f0" d="M862.441,-502.987C888.611,-515.22 924.9,-532.184 953.235,-545.429"/>
<polygon fill="#f0f0f0" stroke="#f0f0f0" points="951.972,-548.702 962.513,-549.766 954.936,-542.36 951.972,-548.702"/>
<text text-anchor="middle" x="874.737" y="-492.495" font-family="Times New Roman,serif" font-size="8.00" fill="#f0f0f0">use</text>
</g>
<!-- http://example.org/k#3 -->
<g id="node6" class="node"><title>http://example.org/k#3</title>
<ellipse fill="none" stroke="black" cx="773.242" cy="-567" rx="92.0841" ry="18"/>
<text text-anchor="middle" x="773.242" y="-563.3" font-family="Times New Roman,serif" font-size="14.00">http://example.org/k#3</text>
</g>
<!-- http://example.org/access65&#45;&gt;http://example.org/k#3 -->
<g id="edge5" class="edge"><title>http://example.org/access65&#45;&gt;http://example.org/k#3</title>
<path fill="none" stroke="#f0f0f0" d="M816.307,-504.142C808.884,-514.805 799.204,-528.709 790.902,-540.633"/>
<polygon fill="#f0f0f0" stroke="#f0f0f0" points="787.994,-538.685 785.153,-548.892 793.739,-542.684 787.994,-538.685"/>
<text text-anchor="middle" x="822.683" y="-515.819" font-family="Times New Roman,serif" font-size="8.00" fill="#f0f0f0">use</text>
</g>
<!-- bn0&#45;&gt;http://example.org/disti#7 -->
<g id="edge2" class="edge"><title>bn0&#45;&gt;http://example.org/disti#7</title>
<path fill="none" stroke="#f0f0f0" d="M998.736,-487.504C1012.1,-492.017 1112.11,-525.782 1176.54,-547.533"/>
<polygon fill="#f0f0f0" stroke="#f0f0f0" points="1175.57,-550.9 1186.17,-550.783 1177.81,-544.268 1175.57,-550.9"/>
<text text-anchor="middle" x="1126.74" y="-524.6" font-family="Times New Roman,serif" font-size="8.00" fill="#f0f0f0">[2]</text>
</g>
<!-- bn0&#45;&gt;http://example.org/disti_aj#7 -->
<g id="edge3" class="edge"><title>bn0&#45;&gt;http://example.org/disti_aj#7</title>
<path fill="none" stroke="#f0f0f0" d="M997.242,-487.887C997.242,-492.911 997.242,-518.287 997.242,-538.773"/>
<polygon fill="#f0f0f0" stroke="#f0f0f0" points="993.742,-538.907 997.242,-548.907 1000.74,-538.907 993.742,-538.907"/>
</g>
<!-- http://example.org/distk_aj#9 -->
<g id="node7" class="node"><title>http://example.org/distk_aj#9</title>
<g id="a_node7"><a xlink:href="http://example.org/distk_aj#9" xlink:title="distk_aj#9">
<ellipse fill="#fafafa" stroke="#f0f0f0" cx="610.242" cy="-396" rx="48.1917" ry="18"/>
<text text-anchor="middle" x="610.242" y="-392.3" font-family="Times New Roman,serif" font-size="14.00" fill="#f0f0f0">distk_aj#9</text>
</a>
</g>
</g>
<!-- http://example.org/access66 -->
<g id="node8" class="node"><title>http://example.org/access66</title>
<g id="a_node8"><a xlink:href="http://example.org/access66" xlink:title="access66">
<polygon fill="#fafafa" stroke="#f0f0f0" points="377.242,-504 309.242,-504 309.242,-468 377.242,-468 377.242,-504"/>
<text text-anchor="middle" x="343.242" y="-482.3" font-family="Times New Roman,serif" font-size="14.00" fill="#f0f0f0">access66</text>
</a>
</g>
</g>
<!-- http://example.org/distk_aj#9&#45;&gt;http://example.org/access66 -->
<g id="edge25" class="edge"><title>http://example.org/distk_aj#9&#45;&gt;http://example.org/access66</title>
<path fill="none" stroke="#f0f0f0" d="M575.336,-408.504C526.998,-424.436 439.697,-453.21 387.041,-470.564"/>
<polygon fill="#f0f0f0" stroke="#f0f0f0" points="385.713,-467.317 377.312,-473.771 387.905,-473.965 385.713,-467.317"/>
<text text-anchor="middle" x="572.279" y="-421.29" font-family="Times New Roman,serif" font-size="8.00" fill="#f0f0f0">gen</text>
</g>
<!-- bn1 -->
<g id="node9" class="node"><title>bn1</title>
<ellipse fill="#f0f0f0" stroke="#f0f0f0" cx="549.242" cy="-486" rx="1.8" ry="1.8"/>
</g>
<!-- http://example.org/distk_aj#9&#45;&gt;bn1 -->
<g id="edge6" class="edge"><title>http://example.org/distk_aj#9&#45;&gt;bn1</title>
<path fill="none" stroke="#f0f0f0" d="M598.768,-413.552C582.478,-437.052 554.133,-477.944 549.803,-484.19"/>
<text text-anchor="middle" x="639.742" y="-443.6" font-family="Times New Roman,serif" font-size="8.00" fill="#f0f0f0">der ac&#45;r</text>
<text text-anchor="middle" x="639.742" y="-434.6" font-family="Times New Roman,serif" font-size="8.00" fill="#f0f0f0">2018&#45;03&#45;10T05:25:01.553469</text>
</g>
<!-- http://example.org/distk#3 -->
<g id="node10" class="node"><title>http://example.org/distk#3</title>
<ellipse fill="none" stroke="black" cx="312.242" cy="-567" rx="105.082" ry="18"/>
<text text-anchor="middle" x="312.242" y="-563.3" font-family="Times New Roman,serif" font-size="14.00">http://example.org/distk#3</text>
</g>
<!-- http://example.org/access66&#45;&gt;http://example.org/distk#3 -->
<g id="edge9" class="edge"><title>http://example.org/access66&#45;&gt;http://example.org/distk#3</title>
<path fill="none" stroke="#f0f0f0" d="M336.515,-504.142C332.493,-514.391 327.297,-527.634 322.744,-539.235"/>
<polygon fill="#f0f0f0" stroke="#f0f0f0" points="319.35,-538.304 318.955,-548.892 325.866,-540.861 319.35,-538.304"/>
<text text-anchor="middle" x="345.868" y="-513.969" font-family="Times New Roman,serif" font-size="8.00" fill="#f0f0f0">use</text>
</g>
<!-- http://example.org/disti_aj#5 -->
<g id="node11" class="node"><title>http://example.org/disti_aj#5</title>
<ellipse fill="none" stroke="black" cx="549.242" cy="-567" rx="113.98" ry="18"/>
<text text-anchor="middle" x="549.242" y="-563.3" font-family="Times New Roman,serif" font-size="14.00">http://example.org/disti_aj#5</text>
</g>
<!-- http://example.org/access66&#45;&gt;http://example.org/disti_aj#5 -->
<g id="edge17" class="edge"><title>http://example.org/access66&#45;&gt;http://example.org/disti_aj#5</title>
<path fill="none" stroke="#f0f0f0" d="M377.258,-500.045C410.198,-512.677 460.557,-531.99 498.283,-546.458"/>
<polygon fill="#f0f0f0" stroke="#f0f0f0" points="497.483,-549.899 508.073,-550.212 499.989,-543.363 497.483,-549.899"/>
<text text-anchor="middle" x="388.913" y="-488.702" font-family="Times New Roman,serif" font-size="8.00" fill="#f0f0f0">use</text>
</g>
<!-- http://example.org/j#20 -->
<g id="node12" class="node"><title>http://example.org/j#20</title>
<ellipse fill="none" stroke="black" cx="94.2416" cy="-567" rx="94.4839" ry="18"/>
<text text-anchor="middle" x="94.2416" y="-563.3" font-family="Times New Roman,serif" font-size="14.00">http://example.org/j#20</text>
</g>
<!-- http://example.org/access66&#45;&gt;http://example.org/j#20 -->
<g id="edge10" class="edge"><title>http://example.org/access66&#45;&gt;http://example.org/j#20</title>
<path fill="none" stroke="#f0f0f0" d="M309.141,-497.819C268.27,-510.786 199.197,-532.701 150.409,-548.18"/>
<polygon fill="#f0f0f0" stroke="#f0f0f0" points="149.103,-544.922 140.63,-551.283 151.22,-551.594 149.103,-544.922"/>
<text text-anchor="middle" x="305.921" y="-510.569" font-family="Times New Roman,serif" font-size="8.00" fill="#f0f0f0">use</text>
</g>
<!-- bn1&#45;&gt;http://example.org/distk#3 -->
<g id="edge7" class="edge"><title>bn1&#45;&gt;http://example.org/distk#3</title>
<path fill="none" stroke="#f0f0f0" d="M547.728,-487.504C534.21,-492.01 433.177,-525.688 367.913,-547.443"/>
<polygon fill="#f0f0f0" stroke="#f0f0f0" points="366.542,-544.211 358.162,-550.693 368.755,-550.851 366.542,-544.211"/>
<text text-anchor="middle" x="443.742" y="-524.6" font-family="Times New Roman,serif" font-size="8.00" fill="#f0f0f0">[1]</text>
</g>
<!-- bn1&#45;&gt;http://example.org/disti_aj#5 -->
<g id="edge8" class="edge"><title>bn1&#45;&gt;http://example.org/disti_aj#5</title>
<path fill="none" stroke="#f0f0f0" d="M549.242,-487.887C549.242,-492.911 549.242,-518.287 549.242,-538.773"/>
<polygon fill="#f0f0f0" stroke="#f0f0f0" points="545.742,-538.907 549.242,-548.907 552.742,-538.907 545.742,-538.907"/>
</g>
<!-- http://example.org/sum#9 -->
<g id="node13" class="node"><title>http://example.org/sum#9</title>
<g id="a_node13"><a xlink:href="http://example.org/sum#9" xlink:title="sum#9">
<ellipse fill="#fafafa" stroke="#f0f0f0" cx="667.242" cy="-250" rx="35.194" ry="18"/>
<text text-anchor="middle" x="667.242" y="-246.3" font-family="Times New Roman,serif" font-size="14.00" fill="#f0f0f0">sum#9</text>
</a>
</g>
</g>
<!-- http://example.org/sum#9&#45;&gt;http://example.org/disti_ak#9 -->
<g id="edge13" class="edge"><title>http://example.org/sum#9&#45;&gt;http://example.org/disti_ak#9</title>
<path fill="none" stroke="#f0f0f0" d="M679.656,-266.961C699.146,-292.02 737.072,-340.782 760.082,-370.366"/>
<polygon fill="#f0f0f0" stroke="#f0f0f0" points="757.526,-372.78 766.428,-378.525 763.051,-368.483 757.526,-372.78"/>
<text text-anchor="middle" x="694.514" y="-263.006" font-family="Times New Roman,serif" font-size="8.00" fill="#f0f0f0">der</text>
</g>
<!-- http://example.org/sum#9&#45;&gt;http://example.org/distk_aj#9 -->
<g id="edge14" class="edge"><title>http://example.org/sum#9&#45;&gt;http://example.org/distk_aj#9</title>
<path fill="none" stroke="#f0f0f0" d="M654.245,-267.128C646.538,-277.421 637.151,-291.352 631.242,-305 622.502,-325.185 617.1,-349.562 613.968,-367.852"/>
<polygon fill="#f0f0f0" stroke="#f0f0f0" points="610.494,-367.414 612.378,-377.84 617.407,-368.514 610.494,-367.414"/>
<text text-anchor="middle" x="660.241" y="-278.977" font-family="Times New Roman,serif" font-size="8.00" fill="#f0f0f0">der</text>
</g>
<!-- http://example.org/sum#9_v1 -->
<g id="node14" class="node"><title>http://example.org/sum#9_v1</title>
<g id="a_node14"><a xlink:href="http://example.org/sum#9_v1" xlink:title="sum#9_v1">
<ellipse fill="#fffc87" stroke="#808080" cx="804.242" cy="-323" rx="48.9926" ry="18"/>
<text text-anchor="middle" x="804.242" y="-319.3" font-family="Times New Roman,serif" font-size="14.00">sum#9_v1</text>
</a>
</g>
</g>
<!-- http://example.org/sum#9&#45;&gt;http://example.org/sum#9_v1 -->
<g id="edge12" class="edge"><title>http://example.org/sum#9&#45;&gt;http://example.org/sum#9_v1</title>
<path fill="none" stroke="black" d="M691.627,-262.974C705.121,-269.654 722.164,-278.182 737.242,-286 747.563,-291.352 758.71,-297.281 768.894,-302.757"/>
<polygon fill="black" stroke="black" points="767.462,-305.961 777.924,-307.629 770.785,-299.8 767.462,-305.961"/>
<text text-anchor="middle" x="704.117" y="-252.766" font-family="Times New Roman,serif" font-size="8.00">spe</text>
</g>
<!-- http://example.org/+9 -->
<g id="node16" class="node"><title>http://example.org/+9</title>
<g id="a_node16"><a xlink:href="http://example.org/+9" xlink:title="+9">
<polygon fill="#fafafa" stroke="#f0f0f0" points="694.242,-341 640.242,-341 640.242,-305 694.242,-305 694.242,-341"/>
<text text-anchor="middle" x="667.242" y="-319.3" font-family="Times New Roman,serif" font-size="14.00" fill="#f0f0f0">+9</text>
</a>
</g>
</g>
<!-- http://example.org/sum#9&#45;&gt;http://example.org/+9 -->
<g id="edge23" class="edge"><title>http://example.org/sum#9&#45;&gt;http://example.org/+9</title>
<path fill="none" stroke="#f0f0f0" d="M667.242,-268.187C667.242,-276.211 667.242,-285.953 667.242,-294.931"/>
<polygon fill="#f0f0f0" stroke="#f0f0f0" points="663.742,-294.971 667.242,-304.971 670.742,-294.971 663.742,-294.971"/>
<text text-anchor="middle" x="680.232" y="-273.787" font-family="Times New Roman,serif" font-size="8.00" fill="#f0f0f0">gen</text>
</g>
<!-- &#45;attrs0 -->
<g id="node15" class="node"><title>&#45;attrs0</title>
<polygon fill="none" stroke="gray" points="889.742,-268 720.742,-268 720.742,-232 895.742,-232 895.742,-262 889.742,-268"/>
<polyline fill="none" stroke="gray" points="889.742,-268 889.742,-262 "/>
<polyline fill="none" stroke="gray" points="895.742,-262 889.742,-262 "/>
<text text-anchor="start" x="731.242" y="-254" font-family="Times New Roman,serif" font-size="10.00">checkpoint:</text>
<text text-anchor="start" x="780.242" y="-254" font-family="Times New Roman,serif" font-size="10.00">2018&#45;03&#45;10 05:25:01.553469</text>
<text text-anchor="start" x="731.242" y="-241" font-family="Times New Roman,serif" font-size="10.00">type:</text>
<text text-anchor="start" x="780.242" y="-241" font-family="Times New Roman,serif" font-size="10.00">Version</text>
</g>
<!-- &#45;attrs0&#45;&gt;http://example.org/sum#9_v1 -->
<g id="edge11" class="edge"><title>&#45;attrs0&#45;&gt;http://example.org/sum#9_v1</title>
<path fill="none" stroke="gray" stroke-dasharray="5,2" d="M807.273,-268.187C806.644,-279.35 805.828,-293.84 805.201,-304.971"/>
</g>
<!-- http://example.org/+9&#45;&gt;http://example.org/disti_ak#9 -->
<g id="edge18" class="edge"><title>http://example.org/+9&#45;&gt;http://example.org/disti_ak#9</title>
<path fill="none" stroke="#f0f0f0" d="M685.279,-341.16C692.429,-347.498 700.921,-354.475 709.242,-360 718.775,-366.33 729.611,-372.283 739.862,-377.422"/>
<polygon fill="#f0f0f0" stroke="#f0f0f0" points="738.534,-380.668 749.057,-381.9 741.599,-374.375 738.534,-380.668"/>
<text text-anchor="middle" x="699.487" y="-334.45" font-family="Times New Roman,serif" font-size="8.00" fill="#f0f0f0">use</text>
</g>
<!-- http://example.org/+9&#45;&gt;http://example.org/distk_aj#9 -->
<g id="edge19" class="edge"><title>http://example.org/+9&#45;&gt;http://example.org/distk_aj#9</title>
<path fill="none" stroke="#f0f0f0" d="M653.444,-341.187C646.41,-349.948 637.732,-360.758 630.003,-370.385"/>
<polygon fill="#f0f0f0" stroke="#f0f0f0" points="627.051,-368.471 623.52,-378.46 632.51,-372.853 627.051,-368.471"/>
<text text-anchor="middle" x="658.878" y="-353.268" font-family="Times New Roman,serif" font-size="8.00" fill="#f0f0f0">use</text>
</g>
<!-- http://example.org/ikj#9 -->
<g id="node17" class="node"><title>http://example.org/ikj#9</title>
<g id="a_node17"><a xlink:href="http://example.org/ikj#9" xlink:title="ikj#9">
<ellipse fill="#fffc87" stroke="#808080" cx="633.242" cy="-104" rx="28.6953" ry="18"/>
<text text-anchor="middle" x="633.242" y="-100.3" font-family="Times New Roman,serif" font-size="14.00">ikj#9</text>
</a>
</g>
</g>
<!-- http://example.org/ikj#9&#45;&gt;http://example.org/sum#9 -->
<g id="edge16" class="edge"><title>http://example.org/ikj#9&#45;&gt;http://example.org/sum#9</title>
<path fill="none" stroke="#f0f0f0" d="M629.419,-122.027C626.021,-140.461 622.656,-170.509 630.242,-195 633.605,-205.859 639.989,-216.477 646.52,-225.384"/>
<polygon fill="#f0f0f0" stroke="#f0f0f0" points="643.823,-227.617 652.732,-233.351 649.344,-223.313 643.823,-227.617"/>
<text text-anchor="middle" x="684.742" y="-179.6" font-family="Times New Roman,serif" font-size="8.00" fill="#f0f0f0">der ref</text>
<text text-anchor="middle" x="684.742" y="-170.6" font-family="Times New Roman,serif" font-size="8.00" fill="#f0f0f0">2018&#45;03&#45;10T05:25:01.553971</text>
</g>
<!-- http://example.org/assign27 -->
<g id="node19" class="node"><title>http://example.org/assign27</title>
<g id="a_node19"><a xlink:href="http://example.org/assign27" xlink:title="assign27">
<polygon fill="#fafafa" stroke="#f0f0f0" points="813.742,-195 748.742,-195 748.742,-159 813.742,-159 813.742,-195"/>
<text text-anchor="middle" x="781.242" y="-173.3" font-family="Times New Roman,serif" font-size="14.00" fill="#f0f0f0">assign27</text>
</a>
</g>
</g>
<!-- http://example.org/ikj#9&#45;&gt;http://example.org/assign27 -->
<g id="edge22" class="edge"><title>http://example.org/ikj#9&#45;&gt;http://example.org/assign27</title>
<path fill="none" stroke="#f0f0f0" d="M655.399,-115.629C677.472,-126.218 711.912,-142.74 739.187,-155.825"/>
<polygon fill="#f0f0f0" stroke="#f0f0f0" points="737.973,-159.125 748.503,-160.294 741.001,-152.813 737.973,-159.125"/>
<text text-anchor="middle" x="667.78" y="-105.261" font-family="Times New Roman,serif" font-size="8.00" fill="#f0f0f0">gen</text>
</g>
<!-- &#45;attrs1 -->
<g id="node18" class="node"><title>&#45;attrs1</title>
<polygon fill="none" stroke="gray" points="661.742,-49 598.742,-49 598.742,-0 667.742,-0 667.742,-43 661.742,-49"/>
<polyline fill="none" stroke="gray" points="661.742,-49 661.742,-43 "/>
<polyline fill="none" stroke="gray" points="667.742,-43 661.742,-43 "/>
<text text-anchor="start" x="609.242" y="-34.5" font-family="Times New Roman,serif" font-size="10.00">value:</text>
<text text-anchor="start" x="636.242" y="-34.5" font-family="Times New Roman,serif" font-size="10.00">6</text>
<text text-anchor="start" x="609.242" y="-21.5" font-family="Times New Roman,serif" font-size="10.00">type:</text>
<text text-anchor="start" x="636.242" y="-21.5" font-family="Times New Roman,serif" font-size="10.00">name</text>
<text text-anchor="start" x="609.242" y="-8.5" font-family="Times New Roman,serif" font-size="10.00">label:</text>
<text text-anchor="start" x="636.242" y="-8.5" font-family="Times New Roman,serif" font-size="10.00">ikj</text>
</g>
<!-- &#45;attrs1&#45;&gt;http://example.org/ikj#9 -->
<g id="edge15" class="edge"><title>&#45;attrs1&#45;&gt;http://example.org/ikj#9</title>
<path fill="none" stroke="gray" stroke-dasharray="5,2" d="M633.242,-49.1737C633.242,-60.9254 633.242,-74.869 633.242,-85.6196"/>
</g>
<!-- http://example.org/assign27&#45;&gt;http://example.org/sum#9 -->
<g id="edge20" class="edge"><title>http://example.org/assign27&#45;&gt;http://example.org/sum#9</title>
<path fill="none" stroke="#f0f0f0" d="M753.936,-195.006C736.883,-205.627 714.912,-219.311 697.355,-230.245"/>
<polygon fill="#f0f0f0" stroke="#f0f0f0" points="695.264,-227.424 688.626,-235.682 698.964,-233.366 695.264,-227.424"/>
<text text-anchor="middle" x="754.437" y="-208.098" font-family="Times New Roman,serif" font-size="8.00" fill="#f0f0f0">use</text>
</g>
</g>
</svg>
