<?xml version="1.0" encoding="UTF-8" standalone="no"?>
<!DOCTYPE svg PUBLIC "-//W3C//DTD SVG 1.1//EN"
 "http://www.w3.org/Graphics/SVG/1.1/DTD/svg11.dtd">
<!-- Generated by graphviz version 2.38.0 (20140413.2041)
 -->
<!-- Title: PROV Pages: 1 -->
<svg width="1152pt" height="634pt"
 viewBox="0.00 0.00 1152.00 634.19" xmlns="http://www.w3.org/2000/svg" xmlns:xlink="http://www.w3.org/1999/xlink">
<g id="graph0" class="graph" transform="scale(0.997158 0.997158) rotate(0) translate(4 632)">
<title>PROV</title>
<polygon fill="white" stroke="none" points="-4,4 -4,-632 1151.28,-632 1151.28,4 -4,4"/>
<!-- http://example.org/disti_ak -->
<g id="node1" class="node"><title>http://example.org/disti_ak</title>
<g id="a_node1"><a xlink:href="http://example.org/disti_ak" xlink:title="disti_ak">
<ellipse fill="#fafafa" stroke="#f0f0f0" cx="676.692" cy="-430" rx="38.9931" ry="18"/>
<text text-anchor="middle" x="676.692" y="-426.3" font-family="Times New Roman,serif" font-size="14.00" fill="#f0f0f0">disti_ak</text>
</a>
</g>
</g>
<!-- http://example.org/access7 -->
<g id="node2" class="node"><title>http://example.org/access7</title>
<g id="a_node2"><a xlink:href="http://example.org/access7" xlink:title="access7">
<polygon fill="#fafafa" stroke="#f0f0f0" points="720.192,-538 659.192,-538 659.192,-502 720.192,-502 720.192,-538"/>
<text text-anchor="middle" x="689.692" y="-516.3" font-family="Times New Roman,serif" font-size="14.00" fill="#f0f0f0">access7</text>
</a>
</g>
</g>
<!-- http://example.org/disti_ak&#45;&gt;http://example.org/access7 -->
<g id="edge22" class="edge"><title>http://example.org/disti_ak&#45;&gt;http://example.org/access7</title>
<path fill="none" stroke="#f0f0f0" d="M679.199,-447.967C681.021,-460.305 683.528,-477.273 685.634,-491.531"/>
<polygon fill="#f0f0f0" stroke="#f0f0f0" points="682.225,-492.403 687.149,-501.785 689.15,-491.38 682.225,-492.403"/>
<text text-anchor="middle" x="739.192" y="-477.6" font-family="Times New Roman,serif" font-size="8.00" fill="#f0f0f0">gen</text>
<text text-anchor="middle" x="739.192" y="-468.6" font-family="Times New Roman,serif" font-size="8.00" fill="#f0f0f0">2018&#45;03&#45;19T12:00:21.469308</text>
</g>
<!-- bn0 -->
<g id="node3" class="node"><title>bn0</title>
<ellipse fill="#f0f0f0" stroke="#f0f0f0" cx="864.692" cy="-520" rx="1.8" ry="1.8"/>
</g>
<!-- http://example.org/disti_ak&#45;&gt;bn0 -->
<g id="edge1" class="edge"><title>http://example.org/disti_ak&#45;&gt;bn0</title>
<path fill="none" stroke="#f0f0f0" d="M712.209,-437.473C737.076,-442.899 770.569,-452.037 797.692,-466 828.285,-481.749 858.455,-512.481 863.842,-518.105"/>
<text text-anchor="middle" x="880.192" y="-477.6" font-family="Times New Roman,serif" font-size="8.00" fill="#f0f0f0">der ac&#45;r</text>
<text text-anchor="middle" x="880.192" y="-468.6" font-family="Times New Roman,serif" font-size="8.00" fill="#f0f0f0">2018&#45;03&#45;19T12:00:21.469308</text>
</g>
<!-- http://example.org/disti -->
<g id="node4" class="node"><title>http://example.org/disti</title>
<ellipse fill="none" stroke="black" cx="1053.69" cy="-610" rx="93.6835" ry="18"/>
<text text-anchor="middle" x="1053.69" y="-606.3" font-family="Times New Roman,serif" font-size="14.00">http://example.org/disti</text>
</g>
<!-- http://example.org/access7&#45;&gt;http://example.org/disti -->
<g id="edge4" class="edge"><title>http://example.org/access7&#45;&gt;http://example.org/disti</title>
<path fill="none" stroke="#f0f0f0" d="M720.366,-527.961C746.559,-534.242 785.062,-544.278 817.692,-556 836.039,-562.591 839.067,-568.243 857.692,-574 869.143,-577.539 925.716,-587.517 975.159,-595.918"/>
<polygon fill="#f0f0f0" stroke="#f0f0f0" points="974.815,-599.409 985.259,-597.629 975.984,-592.508 974.815,-599.409"/>
<text text-anchor="middle" x="730.721" y="-515.209" font-family="Times New Roman,serif" font-size="8.00" fill="#f0f0f0">use</text>
</g>
<!-- http://example.org/0 -->
<g id="node5" class="node"><title>http://example.org/0</title>
<ellipse fill="none" stroke="black" cx="858.692" cy="-610" rx="83.3857" ry="18"/>
<text text-anchor="middle" x="858.692" y="-606.3" font-family="Times New Roman,serif" font-size="14.00">http://example.org/0</text>
</g>
<!-- http://example.org/access7&#45;&gt;http://example.org/0 -->
<g id="edge17" class="edge"><title>http://example.org/access7&#45;&gt;http://example.org/0</title>
<path fill="none" stroke="#f0f0f0" d="M691.567,-538.176C693.751,-549.898 698.475,-564.895 708.692,-574 715.033,-579.651 752.028,-588.314 787.688,-595.607"/>
<polygon fill="#f0f0f0" stroke="#f0f0f0" points="787.189,-599.077 797.684,-597.624 788.573,-592.215 787.189,-599.077"/>
<text text-anchor="middle" x="763.192" y="-567.6" font-family="Times New Roman,serif" font-size="8.00" fill="#f0f0f0">use</text>
<text text-anchor="middle" x="763.192" y="-558.6" font-family="Times New Roman,serif" font-size="8.00" fill="#f0f0f0">2018&#45;03&#45;19T12:00:21.469308</text>
</g>
<!-- http://example.org/k -->
<g id="node6" class="node"><title>http://example.org/k</title>
<ellipse fill="none" stroke="black" cx="674.692" cy="-610" rx="83.3857" ry="18"/>
<text text-anchor="middle" x="674.692" y="-606.3" font-family="Times New Roman,serif" font-size="14.00">http://example.org/k</text>
</g>
<!-- http://example.org/access7&#45;&gt;http://example.org/k -->
<g id="edge5" class="edge"><title>http://example.org/access7&#45;&gt;http://example.org/k</title>
<path fill="none" stroke="#f0f0f0" d="M686.729,-538.386C684.619,-550.76 681.744,-567.631 679.332,-581.78"/>
<polygon fill="#f0f0f0" stroke="#f0f0f0" points="675.829,-581.504 677.598,-591.95 682.729,-582.68 675.829,-581.504"/>
<text text-anchor="middle" x="698.274" y="-546.062" font-family="Times New Roman,serif" font-size="8.00" fill="#f0f0f0">use</text>
</g>
<!-- bn0&#45;&gt;http://example.org/disti -->
<g id="edge2" class="edge"><title>bn0&#45;&gt;http://example.org/disti</title>
<path fill="none" stroke="#f0f0f0" stroke-dasharray="5,2" d="M865.899,-521.562C876.731,-526.606 958.031,-564.459 1010.05,-588.679"/>
<polygon fill="#f0f0f0" stroke="#f0f0f0" points="1008.85,-591.984 1019.4,-593.032 1011.81,-585.638 1008.85,-591.984"/>
</g>
<!-- bn0&#45;&gt;http://example.org/0 -->
<g id="edge3" class="edge"><title>bn0&#45;&gt;http://example.org/0</title>
<path fill="none" stroke="#f0f0f0" d="M864.625,-521.988C864.225,-527.85 862.129,-558.595 860.54,-581.891"/>
<polygon fill="#f0f0f0" stroke="#f0f0f0" points="857.043,-581.74 859.854,-591.954 864.026,-582.216 857.043,-581.74"/>
<text text-anchor="middle" x="868.192" y="-563.1" font-family="Times New Roman,serif" font-size="8.00" fill="#f0f0f0">[0]</text>
</g>
<!-- http://example.org/distk_aj -->
<g id="node7" class="node"><title>http://example.org/distk_aj</title>
<g id="a_node7"><a xlink:href="http://example.org/distk_aj" xlink:title="distk_aj">
<ellipse fill="#fafafa" stroke="#f0f0f0" cx="500.692" cy="-430" rx="38.9931" ry="18"/>
<text text-anchor="middle" x="500.692" y="-426.3" font-family="Times New Roman,serif" font-size="14.00" fill="#f0f0f0">distk_aj</text>
</a>
</g>
</g>
<!-- http://example.org/access8 -->
<g id="node8" class="node"><title>http://example.org/access8</title>
<g id="a_node8"><a xlink:href="http://example.org/access8" xlink:title="access8">
<polygon fill="#fafafa" stroke="#f0f0f0" points="341.192,-538 280.192,-538 280.192,-502 341.192,-502 341.192,-538"/>
<text text-anchor="middle" x="310.692" y="-516.3" font-family="Times New Roman,serif" font-size="14.00" fill="#f0f0f0">access8</text>
</a>
</g>
</g>
<!-- http://example.org/distk_aj&#45;&gt;http://example.org/access8 -->
<g id="edge24" class="edge"><title>http://example.org/distk_aj&#45;&gt;http://example.org/access8</title>
<path fill="none" stroke="#f0f0f0" d="M465.683,-438.024C441.556,-443.659 409.192,-452.823 382.692,-466 366.845,-473.88 350.831,-485.255 337.942,-495.448"/>
<polygon fill="#f0f0f0" stroke="#f0f0f0" points="335.517,-492.908 329.957,-501.927 339.928,-498.344 335.517,-492.908"/>
<text text-anchor="middle" x="437.192" y="-477.6" font-family="Times New Roman,serif" font-size="8.00" fill="#f0f0f0">gen</text>
<text text-anchor="middle" x="437.192" y="-468.6" font-family="Times New Roman,serif" font-size="8.00" fill="#f0f0f0">2018&#45;03&#45;19T12:00:21.469308</text>
</g>
<!-- bn1 -->
<g id="node9" class="node"><title>bn1</title>
<ellipse fill="#f0f0f0" stroke="#f0f0f0" cx="490.692" cy="-520" rx="1.8" ry="1.8"/>
</g>
<!-- http://example.org/distk_aj&#45;&gt;bn1 -->
<g id="edge6" class="edge"><title>http://example.org/distk_aj&#45;&gt;bn1</title>
<path fill="none" stroke="#f0f0f0" d="M498.716,-448.386C496.075,-471.628 491.631,-510.738 490.821,-517.867"/>
<text text-anchor="middle" x="551.192" y="-477.6" font-family="Times New Roman,serif" font-size="8.00" fill="#f0f0f0">der ac&#45;r</text>
<text text-anchor="middle" x="551.192" y="-468.6" font-family="Times New Roman,serif" font-size="8.00" fill="#f0f0f0">2018&#45;03&#45;19T12:00:21.469308</text>
</g>
<!-- http://example.org/distk -->
<g id="node10" class="node"><title>http://example.org/distk</title>
<ellipse fill="none" stroke="black" cx="293.692" cy="-610" rx="96.3833" ry="18"/>
<text text-anchor="middle" x="293.692" y="-606.3" font-family="Times New Roman,serif" font-size="14.00">http://example.org/distk</text>
</g>
<!-- http://example.org/access8&#45;&gt;http://example.org/distk -->
<g id="edge9" class="edge"><title>http://example.org/access8&#45;&gt;http://example.org/distk</title>
<path fill="none" stroke="#f0f0f0" d="M307.333,-538.386C304.943,-550.76 301.684,-567.631 298.95,-581.78"/>
<polygon fill="#f0f0f0" stroke="#f0f0f0" points="295.446,-581.467 296.986,-591.95 302.319,-582.795 295.446,-581.467"/>
<text text-anchor="middle" x="318.665" y="-546.314" font-family="Times New Roman,serif" font-size="8.00" fill="#f0f0f0">use</text>
</g>
<!-- http://example.org/1 -->
<g id="node11" class="node"><title>http://example.org/1</title>
<ellipse fill="none" stroke="black" cx="490.692" cy="-610" rx="83.3857" ry="18"/>
<text text-anchor="middle" x="490.692" y="-606.3" font-family="Times New Roman,serif" font-size="14.00">http://example.org/1</text>
</g>
<!-- http://example.org/access8&#45;&gt;http://example.org/1 -->
<g id="edge19" class="edge"><title>http://example.org/access8&#45;&gt;http://example.org/1</title>
<path fill="none" stroke="#f0f0f0" d="M328.455,-538.072C341.267,-549.593 359.452,-564.392 377.692,-574 392.665,-581.887 409.705,-588.322 425.932,-593.424"/>
<polygon fill="#f0f0f0" stroke="#f0f0f0" points="425.32,-596.895 435.904,-596.429 427.34,-590.193 425.32,-596.895"/>
<text text-anchor="middle" x="432.192" y="-567.6" font-family="Times New Roman,serif" font-size="8.00" fill="#f0f0f0">use</text>
<text text-anchor="middle" x="432.192" y="-558.6" font-family="Times New Roman,serif" font-size="8.00" fill="#f0f0f0">2018&#45;03&#45;19T12:00:21.469308</text>
</g>
<!-- http://example.org/j#2 -->
<g id="node12" class="node"><title>http://example.org/j#2</title>
<ellipse fill="none" stroke="black" cx="89.692" cy="-610" rx="89.8845" ry="18"/>
<text text-anchor="middle" x="89.692" y="-606.3" font-family="Times New Roman,serif" font-size="14.00">http://example.org/j#2</text>
</g>
<!-- http://example.org/access8&#45;&gt;http://example.org/j#2 -->
<g id="edge10" class="edge"><title>http://example.org/access8&#45;&gt;http://example.org/j#2</title>
<path fill="none" stroke="#f0f0f0" d="M279.963,-533.236C243.135,-547.901 180.993,-572.645 137.788,-589.849"/>
<polygon fill="#f0f0f0" stroke="#f0f0f0" points="136.325,-586.664 128.329,-593.615 138.915,-593.167 136.325,-586.664"/>
<text text-anchor="middle" x="277.801" y="-546.179" font-family="Times New Roman,serif" font-size="8.00" fill="#f0f0f0">use</text>
</g>
<!-- bn1&#45;&gt;http://example.org/distk -->
<g id="edge7" class="edge"><title>bn1&#45;&gt;http://example.org/distk</title>
<path fill="none" stroke="#f0f0f0" stroke-dasharray="5,2" d="M490.16,-521.924C486.766,-527.729 467.501,-559.371 442.692,-574 430.096,-581.427 400.791,-588.937 371.473,-595.086"/>
<polygon fill="#f0f0f0" stroke="#f0f0f0" points="370.648,-591.682 361.553,-597.117 372.052,-598.54 370.648,-591.682"/>
</g>
<!-- bn1&#45;&gt;http://example.org/1 -->
<g id="edge8" class="edge"><title>bn1&#45;&gt;http://example.org/1</title>
<path fill="none" stroke="#f0f0f0" d="M490.692,-521.988C490.692,-527.85 490.692,-558.595 490.692,-581.891"/>
<polygon fill="#f0f0f0" stroke="#f0f0f0" points="487.192,-581.954 490.692,-591.954 494.192,-581.955 487.192,-581.954"/>
<text text-anchor="middle" x="496.192" y="-563.1" font-family="Times New Roman,serif" font-size="8.00" fill="#f0f0f0">[1]</text>
</g>
<!-- http://example.org/sum -->
<g id="node13" class="node"><title>http://example.org/sum</title>
<g id="a_node13"><a xlink:href="http://example.org/sum" xlink:title="sum">
<ellipse fill="#fafafa" stroke="#f0f0f0" cx="600.692" cy="-284" rx="27" ry="18"/>
<text text-anchor="middle" x="600.692" y="-280.3" font-family="Times New Roman,serif" font-size="14.00" fill="#f0f0f0">sum</text>
</a>
</g>
</g>
<!-- http://example.org/sum&#45;&gt;http://example.org/disti_ak -->
<g id="edge13" class="edge"><title>http://example.org/sum&#45;&gt;http://example.org/disti_ak</title>
<path fill="none" stroke="#f0f0f0" d="M612.136,-300.623C619.605,-311.174 629.304,-325.575 636.692,-339 648.1,-359.728 658.862,-384.344 666.344,-402.588"/>
<polygon fill="#f0f0f0" stroke="#f0f0f0" points="663.156,-404.041 670.146,-412.002 669.646,-401.419 663.156,-404.041"/>
<text text-anchor="middle" x="627.077" y="-297.388" font-family="Times New Roman,serif" font-size="8.00" fill="#f0f0f0">der</text>
</g>
<!-- http://example.org/sum&#45;&gt;http://example.org/distk_aj -->
<g id="edge14" class="edge"><title>http://example.org/sum&#45;&gt;http://example.org/distk_aj</title>
<path fill="none" stroke="#f0f0f0" d="M589.8,-300.685C572.551,-325.523 538.793,-374.135 518.141,-403.874"/>
<polygon fill="#f0f0f0" stroke="#f0f0f0" points="515.014,-402.241 512.185,-412.451 520.763,-406.233 515.014,-402.241"/>
<text text-anchor="middle" x="596.192" y="-312.355" font-family="Times New Roman,serif" font-size="8.00" fill="#f0f0f0">der</text>
</g>
<!-- http://example.org/sum_v1 -->
<g id="node14" class="node"><title>http://example.org/sum_v1</title>
<g id="a_node14"><a xlink:href="http://example.org/sum_v1" xlink:title="sum_v1">
<ellipse fill="#fffc87" stroke="#808080" cx="730.692" cy="-357" rx="39.7935" ry="18"/>
<text text-anchor="middle" x="730.692" y="-353.3" font-family="Times New Roman,serif" font-size="14.00">sum_v1</text>
</a>
</g>
</g>
<!-- http://example.org/sum&#45;&gt;http://example.org/sum_v1 -->
<g id="edge12" class="edge"><title>http://example.org/sum&#45;&gt;http://example.org/sum_v1</title>
<path fill="none" stroke="black" d="M622.247,-295.175C643.865,-305.382 674.055,-319.647 674.692,-320 683.543,-324.911 692.892,-330.675 701.362,-336.134"/>
<polygon fill="black" stroke="black" points="699.529,-339.117 709.814,-341.663 703.362,-333.259 699.529,-339.117"/>
<text text-anchor="middle" x="634.576" y="-284.731" font-family="Times New Roman,serif" font-size="8.00">spe</text>
</g>
<!-- http://example.org/+1 -->
<g id="node16" class="node"><title>http://example.org/+1</title>
<g id="a_node16"><a xlink:href="http://example.org/+1" xlink:title="+1">
<polygon fill="#fafafa" stroke="#f0f0f0" points="627.692,-375 573.692,-375 573.692,-339 627.692,-339 627.692,-375"/>
<text text-anchor="middle" x="600.692" y="-353.3" font-family="Times New Roman,serif" font-size="14.00" fill="#f0f0f0">+1</text>
</a>
</g>
</g>
<!-- http://example.org/sum&#45;&gt;http://example.org/+1 -->
<g id="edge25" class="edge"><title>http://example.org/sum&#45;&gt;http://example.org/+1</title>
<path fill="none" stroke="#f0f0f0" d="M600.692,-302.187C600.692,-310.211 600.692,-319.953 600.692,-328.931"/>
<polygon fill="#f0f0f0" stroke="#f0f0f0" points="597.192,-328.971 600.692,-338.971 604.192,-328.971 597.192,-328.971"/>
<text text-anchor="middle" x="613.682" y="-307.787" font-family="Times New Roman,serif" font-size="8.00" fill="#f0f0f0">gen</text>
</g>
<!-- &#45;attrs0 -->
<g id="node15" class="node"><title>&#45;attrs0</title>
<polygon fill="none" stroke="gray" points="815.192,-302 646.192,-302 646.192,-266 821.192,-266 821.192,-296 815.192,-302"/>
<polyline fill="none" stroke="gray" points="815.192,-302 815.192,-296 "/>
<polyline fill="none" stroke="gray" points="821.192,-296 815.192,-296 "/>
<text text-anchor="start" x="656.692" y="-288" font-family="Times New Roman,serif" font-size="10.00">checkpoint:</text>
<text text-anchor="start" x="705.692" y="-288" font-family="Times New Roman,serif" font-size="10.00">2018&#45;03&#45;19 12:00:21.470311</text>
<text text-anchor="start" x="656.692" y="-275" font-family="Times New Roman,serif" font-size="10.00">type:</text>
<text text-anchor="start" x="705.692" y="-275" font-family="Times New Roman,serif" font-size="10.00">Version</text>
</g>
<!-- &#45;attrs0&#45;&gt;http://example.org/sum_v1 -->
<g id="edge11" class="edge"><title>&#45;attrs0&#45;&gt;http://example.org/sum_v1</title>
<path fill="none" stroke="gray" stroke-dasharray="5,2" d="M732.966,-302.187C732.494,-313.35 731.882,-327.84 731.412,-338.971"/>
</g>
<!-- http://example.org/+1&#45;&gt;http://example.org/disti_ak -->
<g id="edge18" class="edge"><title>http://example.org/+1&#45;&gt;http://example.org/disti_ak</title>
<path fill="none" stroke="#f0f0f0" d="M619.09,-375.187C629.2,-384.632 641.859,-396.459 652.734,-406.618"/>
<polygon fill="#f0f0f0" stroke="#f0f0f0" points="650.578,-409.393 660.274,-413.662 655.356,-404.278 650.578,-409.393"/>
<text text-anchor="middle" x="633.438" y="-368.915" font-family="Times New Roman,serif" font-size="8.00" fill="#f0f0f0">use</text>
</g>
<!-- http://example.org/+1&#45;&gt;http://example.org/distk_aj -->
<g id="edge21" class="edge"><title>http://example.org/+1&#45;&gt;http://example.org/distk_aj</title>
<path fill="none" stroke="#f0f0f0" d="M576.74,-375.006C562.539,-385.089 544.449,-397.933 529.476,-408.564"/>
<polygon fill="#f0f0f0" stroke="#f0f0f0" points="527.2,-405.887 521.073,-414.53 531.253,-411.594 527.2,-405.887"/>
<text text-anchor="middle" x="578.145" y="-388.04" font-family="Times New Roman,serif" font-size="8.00" fill="#f0f0f0">use</text>
</g>
<!-- http://example.org/ikj -->
<g id="node17" class="node"><title>http://example.org/ikj</title>
<g id="a_node17"><a xlink:href="http://example.org/ikj" xlink:title="ikj">
<ellipse fill="#fffc87" stroke="#808080" cx="569.692" cy="-104" rx="27" ry="18"/>
<text text-anchor="middle" x="569.692" y="-100.3" font-family="Times New Roman,serif" font-size="14.00">ikj</text>
</a>
</g>
</g>
<!-- http://example.org/ikj&#45;&gt;http://example.org/sum -->
<g id="edge16" class="edge"><title>http://example.org/ikj&#45;&gt;http://example.org/sum</title>
<path fill="none" stroke="#f0f0f0" d="M565.41,-121.969C560.741,-143.317 554.903,-180.942 562.692,-212 566.892,-228.748 575.883,-245.86 584.066,-259.088"/>
<polygon fill="#f0f0f0" stroke="#f0f0f0" points="581.174,-261.062 589.533,-267.573 587.059,-257.271 581.174,-261.062"/>
<text text-anchor="middle" x="617.192" y="-196.6" font-family="Times New Roman,serif" font-size="8.00" fill="#f0f0f0">der ref</text>
<text text-anchor="middle" x="617.192" y="-187.6" font-family="Times New Roman,serif" font-size="8.00" fill="#f0f0f0">2018&#45;03&#45;19T12:00:21.471313</text>
</g>
<!-- http://example.org/assign9 -->
<g id="node19" class="node"><title>http://example.org/assign9</title>
<g id="a_node19"><a xlink:href="http://example.org/assign9" xlink:title="assign9">
<polygon fill="#fafafa" stroke="#f0f0f0" points="738.692,-212 680.692,-212 680.692,-176 738.692,-176 738.692,-212"/>
<text text-anchor="middle" x="709.692" y="-190.3" font-family="Times New Roman,serif" font-size="14.00" fill="#f0f0f0">assign9</text>
</a>
</g>
</g>
<!-- http://example.org/ikj&#45;&gt;http://example.org/assign9 -->
<g id="edge23" class="edge"><title>http://example.org/ikj&#45;&gt;http://example.org/assign9</title>
<path fill="none" stroke="#f0f0f0" d="M588.573,-116.868C610.394,-130.584 646.786,-153.459 673.995,-170.562"/>
<polygon fill="#f0f0f0" stroke="#f0f0f0" points="672.146,-173.534 682.475,-175.892 675.872,-167.607 672.146,-173.534"/>
<text text-anchor="middle" x="707.192" y="-151.6" font-family="Times New Roman,serif" font-size="8.00" fill="#f0f0f0">gen</text>
<text text-anchor="middle" x="707.192" y="-142.6" font-family="Times New Roman,serif" font-size="8.00" fill="#f0f0f0">2018&#45;03&#45;19T12:00:21.471313</text>
</g>
<!-- &#45;attrs1 -->
<g id="node18" class="node"><title>&#45;attrs1</title>
<polygon fill="none" stroke="gray" points="598.192,-49 535.192,-49 535.192,-0 604.192,-0 604.192,-43 598.192,-49"/>
<polyline fill="none" stroke="gray" points="598.192,-49 598.192,-43 "/>
<polyline fill="none" stroke="gray" points="604.192,-43 598.192,-43 "/>
<text text-anchor="start" x="545.692" y="-34.5" font-family="Times New Roman,serif" font-size="10.00">value:</text>
<text text-anchor="start" x="572.692" y="-34.5" font-family="Times New Roman,serif" font-size="10.00">1</text>
<text text-anchor="start" x="545.692" y="-21.5" font-family="Times New Roman,serif" font-size="10.00">type:</text>
<text text-anchor="start" x="572.692" y="-21.5" font-family="Times New Roman,serif" font-size="10.00">name</text>
<text text-anchor="start" x="545.692" y="-8.5" font-family="Times New Roman,serif" font-size="10.00">label:</text>
<text text-anchor="start" x="572.692" y="-8.5" font-family="Times New Roman,serif" font-size="10.00">ikj</text>
</g>
<!-- &#45;attrs1&#45;&gt;http://example.org/ikj -->
<g id="edge15" class="edge"><title>&#45;attrs1&#45;&gt;http://example.org/ikj</title>
<path fill="none" stroke="gray" stroke-dasharray="5,2" d="M569.692,-49.1737C569.692,-60.9254 569.692,-74.869 569.692,-85.6196"/>
</g>
<!-- http://example.org/assign9&#45;&gt;http://example.org/sum -->
<g id="edge20" class="edge"><title>http://example.org/assign9&#45;&gt;http://example.org/sum</title>
<path fill="none" stroke="#f0f0f0" d="M688.417,-212.176C670.284,-226.816 644.215,-247.863 625.209,-263.207"/>
<polygon fill="#f0f0f0" stroke="#f0f0f0" points="622.866,-260.6 617.284,-269.605 627.263,-266.046 622.866,-260.6"/>
<text text-anchor="middle" x="720.192" y="-241.6" font-family="Times New Roman,serif" font-size="8.00" fill="#f0f0f0">use</text>
<text text-anchor="middle" x="720.192" y="-232.6" font-family="Times New Roman,serif" font-size="8.00" fill="#f0f0f0">2018&#45;03&#45;19T12:00:21.471313</text>
</g>
</g>
</svg>
