<?xml version="1.0" encoding="UTF-8" standalone="no"?>
<!DOCTYPE svg PUBLIC "-//W3C//DTD SVG 1.1//EN"
 "http://www.w3.org/Graphics/SVG/1.1/DTD/svg11.dtd">
<!-- Generated by graphviz version 2.38.0 (20140413.2041)
 -->
<!-- Title: PROV Pages: 1 -->
<svg width="664pt" height="224pt"
 viewBox="0.00 0.00 664.33 224.00" xmlns="http://www.w3.org/2000/svg" xmlns:xlink="http://www.w3.org/1999/xlink">
<g id="graph0" class="graph" transform="scale(1 1) rotate(0) translate(4 220)">
<title>PROV</title>
<polygon fill="white" stroke="none" points="-4,4 -4,-220 660.332,-220 660.332,4 -4,4"/>
<!-- http://example.org/disti@j#15 -->
<g id="node1" class="node"><title>http://example.org/disti@j#15</title>
<g id="a_node1"><a xlink:href="http://example.org/disti@j#15" xlink:title="disti@j#15">
<ellipse fill="#fafafa" stroke="#f0f0f0" cx="263.09" cy="-18" rx="50.0912" ry="18"/>
<text text-anchor="middle" x="263.09" y="-14.3" font-family="Times New Roman,serif" font-size="14.00" fill="#f0f0f0">disti@j#15</text>
</a>
</g>
</g>
<!-- http://example.org/access86 -->
<g id="node2" class="node"><title>http://example.org/access86</title>
<g id="a_node2"><a xlink:href="http://example.org/access86" xlink:title="access86">
<polygon fill="#fafafa" stroke="#f0f0f0" points="377.09,-126 309.09,-126 309.09,-90 377.09,-90 377.09,-126"/>
<text text-anchor="middle" x="343.09" y="-104.3" font-family="Times New Roman,serif" font-size="14.00" fill="#f0f0f0">access86</text>
</a>
</g>
</g>
<!-- http://example.org/disti@j#15&#45;&gt;http://example.org/access86 -->
<g id="edge7" class="edge"><title>http://example.org/disti@j#15&#45;&gt;http://example.org/access86</title>
<path fill="none" stroke="#f0f0f0" d="M286.406,-34.2815C294.115,-39.9507 302.42,-46.7735 309.09,-54 316.542,-62.0733 323.383,-71.9761 328.944,-81.0276"/>
<polygon fill="#f0f0f0" stroke="#f0f0f0" points="325.96,-82.8589 334.054,-89.6961 331.991,-79.3041 325.96,-82.8589"/>
<text text-anchor="middle" x="377.59" y="-65.6" font-family="Times New Roman,serif" font-size="8.00" fill="#f0f0f0">gen</text>
<text text-anchor="middle" x="377.59" y="-56.6" font-family="Times New Roman,serif" font-size="8.00" fill="#f0f0f0">2018&#45;03&#45;21T14:46:34.666594</text>
</g>
<!-- bn0 -->
<g id="node3" class="node"><title>bn0</title>
<ellipse fill="#f0f0f0" stroke="#f0f0f0" cx="190.09" cy="-108" rx="1.8" ry="1.8"/>
</g>
<!-- http://example.org/disti@j#15&#45;&gt;bn0 -->
<g id="edge1" class="edge"><title>http://example.org/disti@j#15&#45;&gt;bn0</title>
<path fill="none" stroke="#f0f0f0" d="M228.918,-31.177C218.179,-36.5973 207.265,-44.0568 200.09,-54 187.378,-71.6161 189.494,-100.831 190.002,-106.154"/>
<text text-anchor="middle" x="254.59" y="-65.6" font-family="Times New Roman,serif" font-size="8.00" fill="#f0f0f0">der ac&#45;r</text>
<text text-anchor="middle" x="254.59" y="-56.6" font-family="Times New Roman,serif" font-size="8.00" fill="#f0f0f0">2018&#45;03&#45;21T14:46:34.666594</text>
</g>
<!-- http://example.org/disti#9 -->
<g id="node4" class="node"><title>http://example.org/disti#9</title>
<ellipse fill="none" stroke="black" cx="347.09" cy="-198" rx="102.882" ry="18"/>
<text text-anchor="middle" x="347.09" y="-194.3" font-family="Times New Roman,serif" font-size="14.00">http://example.org/disti#9</text>
</g>
<!-- http://example.org/access86&#45;&gt;http://example.org/disti#9 -->
<g id="edge4" class="edge"><title>http://example.org/access86&#45;&gt;http://example.org/disti#9</title>
<path fill="none" stroke="#f0f0f0" d="M343.88,-126.386C344.443,-138.76 345.21,-155.631 345.853,-169.78"/>
<polygon fill="#f0f0f0" stroke="#f0f0f0" points="342.364,-170.119 346.315,-179.95 349.357,-169.801 342.364,-170.119"/>
<text text-anchor="middle" x="357.198" y="-131.388" font-family="Times New Roman,serif" font-size="8.00" fill="#f0f0f0">use</text>
</g>
<!-- http://example.org/disti@j#5 -->
<g id="node5" class="node"><title>http://example.org/disti@j#5</title>
<ellipse fill="none" stroke="black" cx="113.09" cy="-198" rx="113.18" ry="18"/>
<text text-anchor="middle" x="113.09" y="-194.3" font-family="Times New Roman,serif" font-size="14.00">http://example.org/disti@j#5</text>
</g>
<!-- http://example.org/access86&#45;&gt;http://example.org/disti@j#5 -->
<g id="edge6" class="edge"><title>http://example.org/access86&#45;&gt;http://example.org/disti@j#5</title>
<path fill="none" stroke="#f0f0f0" d="M308.74,-118.733C286.635,-125.266 257.409,-134.405 232.09,-144 206.461,-153.712 178.429,-166.106 156.013,-176.467"/>
<polygon fill="#f0f0f0" stroke="#f0f0f0" points="154.362,-173.375 146.773,-180.768 157.316,-179.72 154.362,-173.375"/>
<text text-anchor="middle" x="286.59" y="-155.6" font-family="Times New Roman,serif" font-size="8.00" fill="#f0f0f0">use</text>
<text text-anchor="middle" x="286.59" y="-146.6" font-family="Times New Roman,serif" font-size="8.00" fill="#f0f0f0">2018&#45;03&#45;21T14:46:34.666594</text>
</g>
<!-- http://example.org/j#26 -->
<g id="node6" class="node"><title>http://example.org/j#26</title>
<ellipse fill="none" stroke="black" cx="562.09" cy="-198" rx="94.4839" ry="18"/>
<text text-anchor="middle" x="562.09" y="-194.3" font-family="Times New Roman,serif" font-size="14.00">http://example.org/j#26</text>
</g>
<!-- http://example.org/access86&#45;&gt;http://example.org/j#26 -->
<g id="edge5" class="edge"><title>http://example.org/access86&#45;&gt;http://example.org/j#26</title>
<path fill="none" stroke="#f0f0f0" d="M377.309,-122.75C414.027,-137.505 472.635,-161.055 513.985,-177.67"/>
<polygon fill="#f0f0f0" stroke="#f0f0f0" points="512.732,-180.938 523.315,-181.419 515.342,-174.443 512.732,-180.938"/>
<text text-anchor="middle" x="389.111" y="-111.593" font-family="Times New Roman,serif" font-size="8.00" fill="#f0f0f0">use</text>
</g>
<!-- bn0&#45;&gt;http://example.org/disti#9 -->
<g id="edge2" class="edge"><title>bn0&#45;&gt;http://example.org/disti#9</title>
<path fill="none" stroke="#f0f0f0" stroke-dasharray="5,2" d="M190.021,-109.902C189.638,-115.571 188.336,-146.53 204.09,-162 213.066,-170.814 236.281,-178.024 261.458,-183.561"/>
<polygon fill="#f0f0f0" stroke="#f0f0f0" points="261.054,-187.052 271.559,-185.677 262.49,-180.201 261.054,-187.052"/>
</g>
<!-- bn0&#45;&gt;http://example.org/disti@j#5 -->
<g id="edge3" class="edge"><title>bn0&#45;&gt;http://example.org/disti@j#5</title>
<path fill="none" stroke="#f0f0f0" d="M189.225,-109.988C183.911,-116.062 155.227,-148.843 134.633,-172.379"/>
<polygon fill="#f0f0f0" stroke="#f0f0f0" points="131.956,-170.124 128.005,-179.954 137.224,-174.733 131.956,-170.124"/>
<text text-anchor="middle" x="164.59" y="-151.1" font-family="Times New Roman,serif" font-size="8.00" fill="#f0f0f0">[2]</text>
</g>
</g>
</svg>
