<?xml version="1.0" encoding="UTF-8" standalone="no"?>
<!DOCTYPE svg PUBLIC "-//W3C//DTD SVG 1.1//EN"
 "http://www.w3.org/Graphics/SVG/1.1/DTD/svg11.dtd">
<!-- Generated by graphviz version 2.38.0 (20140413.2041)
 -->
<!-- Title: PROV Pages: 1 -->
<svg width="874pt" height="472pt"
 viewBox="0.00 0.00 874.43 472.00" xmlns="http://www.w3.org/2000/svg" xmlns:xlink="http://www.w3.org/1999/xlink">
<g id="graph0" class="graph" transform="scale(1 1) rotate(0) translate(4 468)">
<title>PROV</title>
<polygon fill="white" stroke="none" points="-4,4 -4,-468 870.433,-468 870.433,4 -4,4"/>
<!-- http://example.org/disti@j#7 -->
<g id="node1" class="node"><title>http://example.org/disti@j#7</title>
<g id="a_node1"><a xlink:href="http://example.org/disti@j#7" xlink:title="disti@j#7">
<ellipse fill="#fffc87" stroke="#808080" cx="569.242" cy="-266" rx="45.4919" ry="18"/>
<text text-anchor="middle" x="569.242" y="-262.3" font-family="Times New Roman,serif" font-size="14.00">disti@j#7</text>
</a>
</g>
</g>
<!-- http://example.org/assign19 -->
<g id="node8" class="node"><title>http://example.org/assign19</title>
<g id="a_node8"><a xlink:href="http://example.org/assign19" xlink:title="assign19">
<polygon fill="#9fb1fc" stroke="#0000ff" points="478.742,-374 413.742,-374 413.742,-338 478.742,-338 478.742,-374"/>
<text text-anchor="middle" x="446.242" y="-352.3" font-family="Times New Roman,serif" font-size="14.00">assign19</text>
</a>
</g>
</g>
<!-- http://example.org/disti@j#7&#45;&gt;http://example.org/assign19 -->
<g id="edge15" class="edge"><title>http://example.org/disti@j#7&#45;&gt;http://example.org/assign19</title>
<path fill="none" stroke="black" d="M527.767,-273.864C508.36,-278.879 486.088,-287.452 470.242,-302 462.701,-308.923 457.369,-318.67 453.68,-327.921"/>
<polygon fill="black" stroke="black" points="450.29,-327.013 450.293,-337.608 456.898,-329.323 450.29,-327.013"/>
<text text-anchor="middle" x="524.742" y="-313.6" font-family="Times New Roman,serif" font-size="8.00">gen</text>
<text text-anchor="middle" x="524.742" y="-304.6" font-family="Times New Roman,serif" font-size="8.00">2018&#45;03&#45;21T14:46:27.698985</text>
</g>
<!-- bn1 -->
<g id="node10" class="node"><title>bn1</title>
<ellipse fill="black" stroke="black" cx="603.242" cy="-356" rx="1.8" ry="1.8"/>
</g>
<!-- http://example.org/disti@j#7&#45;&gt;bn1 -->
<g id="edge8" class="edge"><title>http://example.org/disti@j#7&#45;&gt;bn1</title>
<path fill="none" stroke="black" d="M575.797,-283.967C584.905,-307.541 600.544,-348.018 602.932,-354.199"/>
<text text-anchor="middle" x="644.742" y="-313.6" font-family="Times New Roman,serif" font-size="8.00">der ac&#45;w</text>
<text text-anchor="middle" x="644.742" y="-304.6" font-family="Times New Roman,serif" font-size="8.00">2018&#45;03&#45;21T14:46:27.698985</text>
</g>
<!-- &#45;attrs0 -->
<g id="node2" class="node"><title>&#45;attrs0</title>
<polygon fill="none" stroke="gray" points="600.742,-203 531.742,-203 531.742,-154 606.742,-154 606.742,-197 600.742,-203"/>
<polyline fill="none" stroke="gray" points="600.742,-203 600.742,-197 "/>
<polyline fill="none" stroke="gray" points="606.742,-197 600.742,-197 "/>
<text text-anchor="start" x="542.242" y="-188.5" font-family="Times New Roman,serif" font-size="10.00">value:</text>
<text text-anchor="start" x="569.242" y="-188.5" font-family="Times New Roman,serif" font-size="10.00">3</text>
<text text-anchor="start" x="542.242" y="-175.5" font-family="Times New Roman,serif" font-size="10.00">type:</text>
<text text-anchor="start" x="569.242" y="-175.5" font-family="Times New Roman,serif" font-size="10.00">access</text>
<text text-anchor="start" x="542.242" y="-162.5" font-family="Times New Roman,serif" font-size="10.00">label:</text>
<text text-anchor="start" x="569.242" y="-162.5" font-family="Times New Roman,serif" font-size="10.00">disti[j]</text>
</g>
<!-- &#45;attrs0&#45;&gt;http://example.org/disti@j#7 -->
<g id="edge1" class="edge"><title>&#45;attrs0&#45;&gt;http://example.org/disti@j#7</title>
<path fill="none" stroke="gray" stroke-dasharray="5,2" d="M569.242,-203.317C569.242,-217.448 569.242,-235.039 569.242,-247.815"/>
</g>
<!-- http://example.org/list0_v2 -->
<g id="node3" class="node"><title>http://example.org/list0_v2</title>
<g id="a_node3"><a xlink:href="http://example.org/list0_v2" xlink:title="list0_v2">
<ellipse fill="#fffc87" stroke="#808080" cx="674.242" cy="-91" rx="38.9931" ry="18"/>
<text text-anchor="middle" x="674.242" y="-87.3" font-family="Times New Roman,serif" font-size="14.00">list0_v2</text>
</a>
</g>
</g>
<!-- bn0 -->
<g id="node5" class="node"><title>bn0</title>
<ellipse fill="black" stroke="black" cx="674.242" cy="-178.5" rx="1.8" ry="1.8"/>
</g>
<!-- http://example.org/list0_v2&#45;&gt;bn0 -->
<g id="edge3" class="edge"><title>http://example.org/list0_v2&#45;&gt;bn0</title>
<path fill="none" stroke="black" d="M674.242,-109.302C674.242,-131.943 674.242,-169.558 674.242,-176.411"/>
<text text-anchor="middle" x="686.242" y="-129.6" font-family="Times New Roman,serif" font-size="8.00">der&#45;ins</text>
</g>
<!-- &#45;attrs1 -->
<g id="node4" class="node"><title>&#45;attrs1</title>
<polygon fill="none" stroke="gray" points="656.742,-36 487.742,-36 487.742,-0 662.742,-0 662.742,-30 656.742,-36"/>
<polyline fill="none" stroke="gray" points="656.742,-36 656.742,-30 "/>
<polyline fill="none" stroke="gray" points="662.742,-30 656.742,-30 "/>
<text text-anchor="start" x="498.242" y="-22" font-family="Times New Roman,serif" font-size="10.00">checkpoint:</text>
<text text-anchor="start" x="547.242" y="-22" font-family="Times New Roman,serif" font-size="10.00">2018&#45;03&#45;21 14:46:27.698985</text>
<text text-anchor="start" x="498.242" y="-9" font-family="Times New Roman,serif" font-size="10.00">type:</text>
<text text-anchor="start" x="547.242" y="-9" font-family="Times New Roman,serif" font-size="10.00">Version</text>
</g>
<!-- &#45;attrs1&#45;&gt;http://example.org/list0_v2 -->
<g id="edge2" class="edge"><title>&#45;attrs1&#45;&gt;http://example.org/list0_v2</title>
<path fill="none" stroke="gray" stroke-dasharray="5,2" d="M598.955,-36.0063C615.772,-48.0676 638.1,-64.0804 654.065,-75.5298"/>
</g>
<!-- bn0&#45;&gt;http://example.org/disti@j#7 -->
<g id="edge5" class="edge"><title>bn0&#45;&gt;http://example.org/disti@j#7</title>
<path fill="none" stroke="black" d="M673.062,-180.46C665.598,-186.538 624.325,-220.147 596.121,-243.113"/>
<polygon fill="black" stroke="black" points="593.74,-240.538 588.196,-249.566 598.16,-245.966 593.74,-240.538"/>
<text text-anchor="middle" x="627.742" y="-223.6" font-family="Times New Roman,serif" font-size="8.00">[2]</text>
</g>
<!-- http://example.org/list0_v1 -->
<g id="node6" class="node"><title>http://example.org/list0_v1</title>
<ellipse fill="none" stroke="black" cx="739.242" cy="-266" rx="106.681" ry="18"/>
<text text-anchor="middle" x="739.242" y="-262.3" font-family="Times New Roman,serif" font-size="14.00">http://example.org/list0_v1</text>
</g>
<!-- bn0&#45;&gt;http://example.org/list0_v1 -->
<g id="edge4" class="edge"><title>bn0&#45;&gt;http://example.org/list0_v1</title>
<path fill="none" stroke="black" d="M674.972,-180.46C679.374,-186.252 702.779,-217.038 720.081,-239.796"/>
<polygon fill="black" stroke="black" points="717.523,-242.214 726.361,-248.057 723.095,-237.978 717.523,-242.214"/>
<text text-anchor="middle" x="718.742" y="-223.6" font-family="Times New Roman,serif" font-size="8.00">der</text>
</g>
<!-- http://example.org/list0 -->
<g id="node7" class="node"><title>http://example.org/list0</title>
<ellipse fill="none" stroke="black" cx="773.242" cy="-18" rx="92.8835" ry="18"/>
<text text-anchor="middle" x="773.242" y="-14.3" font-family="Times New Roman,serif" font-size="14.00">http://example.org/list0</text>
</g>
<!-- http://example.org/list0&#45;&gt;http://example.org/list0_v2 -->
<g id="edge6" class="edge"><title>http://example.org/list0&#45;&gt;http://example.org/list0_v2</title>
<path fill="none" stroke="black" d="M750.28,-35.4673C736.147,-45.6036 717.914,-58.6791 702.846,-69.4854"/>
<polygon fill="black" stroke="black" points="700.482,-66.8744 694.395,-75.5465 704.561,-72.5628 700.482,-66.8744"/>
<text text-anchor="middle" x="751.756" y="-48.4945" font-family="Times New Roman,serif" font-size="8.00">spe</text>
</g>
<!-- http://example.org/disti#4 -->
<g id="node11" class="node"><title>http://example.org/disti#4</title>
<ellipse fill="none" stroke="black" cx="553.242" cy="-446" rx="102.882" ry="18"/>
<text text-anchor="middle" x="553.242" y="-442.3" font-family="Times New Roman,serif" font-size="14.00">http://example.org/disti#4</text>
</g>
<!-- http://example.org/assign19&#45;&gt;http://example.org/disti#4 -->
<g id="edge11" class="edge"><title>http://example.org/assign19&#45;&gt;http://example.org/disti#4</title>
<path fill="none" stroke="black" d="M442.987,-374.48C441.906,-385.742 442.554,-400.08 450.242,-410 456.252,-417.756 464.065,-423.805 472.701,-428.521"/>
<polygon fill="black" stroke="black" points="471.429,-431.793 481.958,-432.969 474.46,-425.483 471.429,-431.793"/>
<text text-anchor="middle" x="504.742" y="-403.6" font-family="Times New Roman,serif" font-size="8.00">use</text>
<text text-anchor="middle" x="504.742" y="-394.6" font-family="Times New Roman,serif" font-size="8.00">2018&#45;03&#45;21T14:46:27.698985</text>
</g>
<!-- http://example.org/ikj#5 -->
<g id="node12" class="node"><title>http://example.org/ikj#5</title>
<ellipse fill="none" stroke="black" cx="770.242" cy="-446" rx="96.3833" ry="18"/>
<text text-anchor="middle" x="770.242" y="-442.3" font-family="Times New Roman,serif" font-size="14.00">http://example.org/ikj#5</text>
</g>
<!-- http://example.org/assign19&#45;&gt;http://example.org/ikj#5 -->
<g id="edge14" class="edge"><title>http://example.org/assign19&#45;&gt;http://example.org/ikj#5</title>
<path fill="none" stroke="black" d="M478.791,-365.841C532.324,-380.38 639.824,-409.578 708.241,-428.16"/>
<polygon fill="black" stroke="black" points="707.473,-431.578 718.041,-430.822 709.308,-424.823 707.473,-431.578"/>
<text text-anchor="middle" x="489.434" y="-353.37" font-family="Times New Roman,serif" font-size="8.00">use</text>
</g>
<!-- http://example.org/j#12 -->
<g id="node13" class="node"><title>http://example.org/j#12</title>
<ellipse fill="none" stroke="black" cx="94.2416" cy="-446" rx="94.4839" ry="18"/>
<text text-anchor="middle" x="94.2416" y="-442.3" font-family="Times New Roman,serif" font-size="14.00">http://example.org/j#12</text>
</g>
<!-- http://example.org/assign19&#45;&gt;http://example.org/j#12 -->
<g id="edge12" class="edge"><title>http://example.org/assign19&#45;&gt;http://example.org/j#12</title>
<path fill="none" stroke="black" d="M413.442,-365.2C355.539,-379.676 234.218,-410.006 158.948,-428.823"/>
<polygon fill="black" stroke="black" points="157.951,-425.465 149.099,-431.286 159.649,-432.256 157.951,-425.465"/>
<text text-anchor="middle" x="409.317" y="-377.721" font-family="Times New Roman,serif" font-size="8.00">use</text>
</g>
<!-- http://example.org/disti@j#6 -->
<g id="node14" class="node"><title>http://example.org/disti@j#6</title>
<ellipse fill="none" stroke="black" cx="319.242" cy="-446" rx="113.18" ry="18"/>
<text text-anchor="middle" x="319.242" y="-442.3" font-family="Times New Roman,serif" font-size="14.00">http://example.org/disti@j#6</text>
</g>
<!-- http://example.org/assign19&#45;&gt;http://example.org/disti@j#6 -->
<g id="edge13" class="edge"><title>http://example.org/assign19&#45;&gt;http://example.org/disti@j#6</title>
<path fill="none" stroke="black" d="M421.453,-374.176C401.57,-387.953 373.5,-407.404 351.805,-422.437"/>
<polygon fill="black" stroke="black" points="349.762,-419.594 343.536,-428.166 353.749,-425.347 349.762,-419.594"/>
<text text-anchor="middle" x="422.687" y="-387.225" font-family="Times New Roman,serif" font-size="8.00">use</text>
</g>
<!-- &#45;attrs2 -->
<g id="node9" class="node"><title>&#45;attrs2</title>
<polygon fill="none" stroke="gray" points="467.242,-284 403.242,-284 403.242,-248 473.242,-248 473.242,-278 467.242,-284"/>
<polyline fill="none" stroke="gray" points="467.242,-284 467.242,-278 "/>
<polyline fill="none" stroke="gray" points="473.242,-278 467.242,-278 "/>
<text text-anchor="start" x="413.242" y="-263" font-family="Times New Roman,serif" font-size="10.00">type:</text>
<text text-anchor="start" x="436.242" y="-263" font-family="Times New Roman,serif" font-size="10.00">assign</text>
</g>
<!-- &#45;attrs2&#45;&gt;http://example.org/assign19 -->
<g id="edge7" class="edge"><title>&#45;attrs2&#45;&gt;http://example.org/assign19</title>
<path fill="none" stroke="gray" stroke-dasharray="5,2" d="M439.822,-284.386C441.234,-299.914 443.289,-322.525 444.692,-337.95"/>
</g>
<!-- bn1&#45;&gt;http://example.org/disti#4 -->
<g id="edge9" class="edge"><title>bn1&#45;&gt;http://example.org/disti#4</title>
<path fill="none" stroke="black" stroke-dasharray="5,2" d="M602.68,-357.988C599.289,-363.956 581.247,-395.711 567.933,-419.143"/>
<polygon fill="black" stroke="black" points="564.824,-417.531 562.927,-427.954 570.91,-420.989 564.824,-417.531"/>
</g>
<!-- bn1&#45;&gt;http://example.org/ikj#5 -->
<g id="edge10" class="edge"><title>bn1&#45;&gt;http://example.org/ikj#5</title>
<path fill="none" stroke="black" d="M604.308,-357.562C613.794,-362.56 684.436,-399.785 730.44,-424.026"/>
<polygon fill="black" stroke="black" points="729.09,-427.272 739.569,-428.837 732.353,-421.079 729.09,-427.272"/>
<text text-anchor="middle" x="707.742" y="-399.1" font-family="Times New Roman,serif" font-size="8.00">[2]</text>
</g>
</g>
</svg>
