<?xml version="1.0" encoding="UTF-8" standalone="no"?>
<!DOCTYPE svg PUBLIC "-//W3C//DTD SVG 1.1//EN"
 "http://www.w3.org/Graphics/SVG/1.1/DTD/svg11.dtd">
<!-- Generated by graphviz version 2.38.0 (20140413.2041)
 -->
<!-- Title: PROV Pages: 1 -->
<svg width="664pt" height="477pt"
 viewBox="0.00 0.00 663.93 477.00" xmlns="http://www.w3.org/2000/svg" xmlns:xlink="http://www.w3.org/1999/xlink">
<g id="graph0" class="graph" transform="scale(1 1) rotate(0) translate(4 473)">
<title>PROV</title>
<polygon fill="white" stroke="none" points="-4,4 -4,-473 659.933,-473 659.933,4 -4,4"/>
<!-- http://example.org/result_a0 -->
<g id="node1" class="node"><title>http://example.org/result_a0</title>
<g id="a_node1"><a xlink:href="http://example.org/result_a0" xlink:title="result_a0">
<ellipse fill="#fafafa" stroke="#f0f0f0" cx="288.74" cy="-271" rx="43.5923" ry="18"/>
<text text-anchor="middle" x="288.74" y="-267.3" font-family="Times New Roman,serif" font-size="14.00" fill="#f0f0f0">result_a0</text>
</a>
</g>
</g>
<!-- http://example.org/access88 -->
<g id="node2" class="node"><title>http://example.org/access88</title>
<g id="a_node2"><a xlink:href="http://example.org/access88" xlink:title="access88">
<polygon fill="#fafafa" stroke="#f0f0f0" points="403.74,-379 335.74,-379 335.74,-343 403.74,-343 403.74,-379"/>
<text text-anchor="middle" x="369.74" y="-357.3" font-family="Times New Roman,serif" font-size="14.00" fill="#f0f0f0">access88</text>
</a>
</g>
</g>
<!-- http://example.org/result_a0&#45;&gt;http://example.org/access88 -->
<g id="edge15" class="edge"><title>http://example.org/result_a0&#45;&gt;http://example.org/access88</title>
<path fill="none" stroke="#f0f0f0" d="M316.433,-285.103C326.299,-290.783 336.896,-298.173 344.74,-307 351.489,-314.596 356.777,-324.331 360.717,-333.382"/>
<polygon fill="#f0f0f0" stroke="#f0f0f0" points="357.516,-334.804 364.468,-342.799 364.019,-332.214 357.516,-334.804"/>
<text text-anchor="middle" x="411.24" y="-318.6" font-family="Times New Roman,serif" font-size="8.00" fill="#f0f0f0">gen</text>
<text text-anchor="middle" x="411.24" y="-309.6" font-family="Times New Roman,serif" font-size="8.00" fill="#f0f0f0">2018&#45;03&#45;19T12:00:36.862732</text>
</g>
<!-- bn0 -->
<g id="node3" class="node"><title>bn0</title>
<ellipse fill="#f0f0f0" stroke="#f0f0f0" cx="216.74" cy="-361" rx="1.8" ry="1.8"/>
</g>
<!-- http://example.org/result_a0&#45;&gt;bn0 -->
<g id="edge1" class="edge"><title>http://example.org/result_a0&#45;&gt;bn0</title>
<path fill="none" stroke="#f0f0f0" d="M261.818,-285.155C252.511,-290.801 242.686,-298.154 235.74,-307 221.734,-324.836 217.509,-353.873 216.84,-359.16"/>
<text text-anchor="middle" x="290.24" y="-318.6" font-family="Times New Roman,serif" font-size="8.00" fill="#f0f0f0">der ac&#45;r</text>
<text text-anchor="middle" x="290.24" y="-309.6" font-family="Times New Roman,serif" font-size="8.00" fill="#f0f0f0">2018&#45;03&#45;19T12:00:36.862732</text>
</g>
<!-- http://example.org/result -->
<g id="node4" class="node"><title>http://example.org/result</title>
<ellipse fill="none" stroke="black" cx="373.74" cy="-451" rx="98.2828" ry="18"/>
<text text-anchor="middle" x="373.74" y="-447.3" font-family="Times New Roman,serif" font-size="14.00">http://example.org/result</text>
</g>
<!-- http://example.org/access88&#45;&gt;http://example.org/result -->
<g id="edge4" class="edge"><title>http://example.org/access88&#45;&gt;http://example.org/result</title>
<path fill="none" stroke="#f0f0f0" d="M370.53,-379.386C371.093,-391.76 371.86,-408.631 372.503,-422.78"/>
<polygon fill="#f0f0f0" stroke="#f0f0f0" points="369.014,-423.119 372.965,-432.95 376.007,-422.801 369.014,-423.119"/>
<text text-anchor="middle" x="383.848" y="-384.388" font-family="Times New Roman,serif" font-size="8.00" fill="#f0f0f0">use</text>
</g>
<!-- http://example.org/list0 -->
<g id="node5" class="node"><title>http://example.org/list0</title>
<ellipse fill="none" stroke="black" cx="164.74" cy="-451" rx="92.8835" ry="18"/>
<text text-anchor="middle" x="164.74" y="-447.3" font-family="Times New Roman,serif" font-size="14.00">http://example.org/list0</text>
</g>
<!-- http://example.org/access88&#45;&gt;http://example.org/list0 -->
<g id="edge12" class="edge"><title>http://example.org/access88&#45;&gt;http://example.org/list0</title>
<path fill="none" stroke="#f0f0f0" d="M335.559,-370.788C313.263,-377.002 283.764,-386.141 258.74,-397 238.251,-405.891 216.459,-417.996 199.021,-428.392"/>
<polygon fill="#f0f0f0" stroke="#f0f0f0" points="197.076,-425.478 190.329,-433.647 200.698,-431.468 197.076,-425.478"/>
<text text-anchor="middle" x="313.24" y="-408.6" font-family="Times New Roman,serif" font-size="8.00" fill="#f0f0f0">use</text>
<text text-anchor="middle" x="313.24" y="-399.6" font-family="Times New Roman,serif" font-size="8.00" fill="#f0f0f0">2018&#45;03&#45;19T12:00:36.862732</text>
</g>
<!-- http://example.org/0 -->
<g id="node6" class="node"><title>http://example.org/0</title>
<ellipse fill="none" stroke="black" cx="572.74" cy="-451" rx="83.3857" ry="18"/>
<text text-anchor="middle" x="572.74" y="-447.3" font-family="Times New Roman,serif" font-size="14.00">http://example.org/0</text>
</g>
<!-- http://example.org/access88&#45;&gt;http://example.org/0 -->
<g id="edge5" class="edge"><title>http://example.org/access88&#45;&gt;http://example.org/0</title>
<path fill="none" stroke="#f0f0f0" d="M404.176,-376.928C438.132,-391.648 490.212,-414.224 527.493,-430.386"/>
<polygon fill="#f0f0f0" stroke="#f0f0f0" points="526.542,-433.788 537.11,-434.554 529.327,-427.366 526.542,-433.788"/>
<text text-anchor="middle" x="416.224" y="-366.092" font-family="Times New Roman,serif" font-size="8.00" fill="#f0f0f0">use</text>
</g>
<!-- bn0&#45;&gt;http://example.org/result -->
<g id="edge2" class="edge"><title>bn0&#45;&gt;http://example.org/result</title>
<path fill="none" stroke="#f0f0f0" stroke-dasharray="5,2" d="M216.671,-362.902C216.288,-368.571 214.986,-399.53 230.74,-415 239.957,-424.051 264.192,-431.411 290.147,-437.005"/>
<polygon fill="#f0f0f0" stroke="#f0f0f0" points="289.651,-440.476 300.151,-439.062 291.061,-433.62 289.651,-440.476"/>
</g>
<!-- bn0&#45;&gt;http://example.org/list0 -->
<g id="edge3" class="edge"><title>bn0&#45;&gt;http://example.org/list0</title>
<path fill="none" stroke="#f0f0f0" d="M216.073,-362.834C213.051,-366.629 200.421,-382.703 191.74,-397 186.544,-405.556 181.412,-415.232 177.04,-423.953"/>
<polygon fill="#f0f0f0" stroke="#f0f0f0" points="173.892,-422.424 172.628,-432.943 180.176,-425.508 173.892,-422.424"/>
<text text-anchor="middle" x="197.24" y="-404.1" font-family="Times New Roman,serif" font-size="8.00" fill="#f0f0f0">[0]</text>
</g>
<!-- http://example.org/result_a02 -->
<g id="node7" class="node"><title>http://example.org/result_a02</title>
<g id="a_node7"><a xlink:href="http://example.org/result_a02" xlink:title="result_a02">
<ellipse fill="#fafafa" stroke="#f0f0f0" cx="212.74" cy="-91" rx="48.1917" ry="18"/>
<text text-anchor="middle" x="212.74" y="-87.3" font-family="Times New Roman,serif" font-size="14.00" fill="#f0f0f0">result_a02</text>
</a>
</g>
</g>
<!-- http://example.org/access89 -->
<g id="node8" class="node"><title>http://example.org/access89</title>
<g id="a_node8"><a xlink:href="http://example.org/access89" xlink:title="access89">
<polygon fill="#fafafa" stroke="#f0f0f0" points="326.74,-199 258.74,-199 258.74,-163 326.74,-163 326.74,-199"/>
<text text-anchor="middle" x="292.74" y="-177.3" font-family="Times New Roman,serif" font-size="14.00" fill="#f0f0f0">access89</text>
</a>
</g>
</g>
<!-- http://example.org/result_a02&#45;&gt;http://example.org/access89 -->
<g id="edge14" class="edge"><title>http://example.org/result_a02&#45;&gt;http://example.org/access89</title>
<path fill="none" stroke="#f0f0f0" d="M235.584,-106.936C243.426,-112.672 251.934,-119.626 258.74,-127 266.192,-135.073 273.033,-144.976 278.594,-154.028"/>
<polygon fill="#f0f0f0" stroke="#f0f0f0" points="275.61,-155.859 283.704,-162.696 281.641,-152.304 275.61,-155.859"/>
<text text-anchor="middle" x="327.24" y="-138.6" font-family="Times New Roman,serif" font-size="8.00" fill="#f0f0f0">gen</text>
<text text-anchor="middle" x="327.24" y="-129.6" font-family="Times New Roman,serif" font-size="8.00" fill="#f0f0f0">2018&#45;03&#45;19T12:00:36.863735</text>
</g>
<!-- bn1 -->
<g id="node9" class="node"><title>bn1</title>
<ellipse fill="#f0f0f0" stroke="#f0f0f0" cx="139.74" cy="-181" rx="1.8" ry="1.8"/>
</g>
<!-- http://example.org/result_a02&#45;&gt;bn1 -->
<g id="edge6" class="edge"><title>http://example.org/result_a02&#45;&gt;bn1</title>
<path fill="none" stroke="#f0f0f0" d="M178.897,-104.012C168.052,-109.445 156.988,-116.955 149.74,-127 137.028,-144.616 139.143,-173.831 139.652,-179.154"/>
<text text-anchor="middle" x="204.24" y="-138.6" font-family="Times New Roman,serif" font-size="8.00" fill="#f0f0f0">der ac&#45;r</text>
<text text-anchor="middle" x="204.24" y="-129.6" font-family="Times New Roman,serif" font-size="8.00" fill="#f0f0f0">2018&#45;03&#45;19T12:00:36.863735</text>
</g>
<!-- http://example.org/access89&#45;&gt;http://example.org/result_a0 -->
<g id="edge9" class="edge"><title>http://example.org/access89&#45;&gt;http://example.org/result_a0</title>
<path fill="none" stroke="#f0f0f0" d="M291.95,-199.386C291.387,-211.76 290.62,-228.631 289.977,-242.78"/>
<polygon fill="#f0f0f0" stroke="#f0f0f0" points="286.473,-242.801 289.515,-252.95 293.465,-243.119 286.473,-242.801"/>
<text text-anchor="middle" x="304.586" y="-205.568" font-family="Times New Roman,serif" font-size="8.00" fill="#f0f0f0">use</text>
</g>
<!-- http://example.org/disti_aj#7 -->
<g id="node10" class="node"><title>http://example.org/disti_aj#7</title>
<ellipse fill="none" stroke="black" cx="113.74" cy="-271" rx="113.98" ry="18"/>
<text text-anchor="middle" x="113.74" y="-267.3" font-family="Times New Roman,serif" font-size="14.00">http://example.org/disti_aj#7</text>
</g>
<!-- http://example.org/access89&#45;&gt;http://example.org/disti_aj#7 -->
<g id="edge13" class="edge"><title>http://example.org/access89&#45;&gt;http://example.org/disti_aj#7</title>
<path fill="none" stroke="#f0f0f0" d="M258.642,-188.638C234.995,-194.12 203.287,-203.257 177.74,-217 163.288,-224.774 149.044,-236.104 137.675,-246.294"/>
<polygon fill="#f0f0f0" stroke="#f0f0f0" points="135.268,-243.753 130.297,-253.109 140.018,-248.895 135.268,-243.753"/>
<text text-anchor="middle" x="232.24" y="-228.6" font-family="Times New Roman,serif" font-size="8.00" fill="#f0f0f0">use</text>
<text text-anchor="middle" x="232.24" y="-219.6" font-family="Times New Roman,serif" font-size="8.00" fill="#f0f0f0">2018&#45;03&#45;19T12:00:36.863735</text>
</g>
<!-- http://example.org/2 -->
<g id="node11" class="node"><title>http://example.org/2</title>
<ellipse fill="none" stroke="black" cx="433.74" cy="-271" rx="83.3857" ry="18"/>
<text text-anchor="middle" x="433.74" y="-267.3" font-family="Times New Roman,serif" font-size="14.00">http://example.org/2</text>
</g>
<!-- http://example.org/access89&#45;&gt;http://example.org/2 -->
<g id="edge10" class="edge"><title>http://example.org/access89&#45;&gt;http://example.org/2</title>
<path fill="none" stroke="#f0f0f0" d="M320.261,-199.176C342.816,-213.253 374.863,-233.254 399.151,-248.413"/>
<polygon fill="#f0f0f0" stroke="#f0f0f0" points="397.38,-251.433 407.717,-253.758 401.086,-245.495 397.38,-251.433"/>
<text text-anchor="middle" x="333.501" y="-190.227" font-family="Times New Roman,serif" font-size="8.00" fill="#f0f0f0">use</text>
</g>
<!-- bn1&#45;&gt;http://example.org/result_a0 -->
<g id="edge7" class="edge"><title>bn1&#45;&gt;http://example.org/result_a0</title>
<path fill="none" stroke="#f0f0f0" stroke-dasharray="5,2" d="M139.665,-182.908C139.25,-188.61 137.782,-219.74 153.74,-235 181.02,-261.088 200.309,-243.122 236.74,-253 240.049,-253.897 243.458,-254.879 246.874,-255.904"/>
<polygon fill="#f0f0f0" stroke="#f0f0f0" points="245.852,-259.252 256.44,-258.873 247.927,-252.566 245.852,-259.252"/>
</g>
<!-- bn1&#45;&gt;http://example.org/disti_aj#7 -->
<g id="edge8" class="edge"><title>bn1&#45;&gt;http://example.org/disti_aj#7</title>
<path fill="none" stroke="#f0f0f0" d="M138.912,-182.76C135.194,-186.233 119.995,-201.12 114.74,-217 112.057,-225.109 111.188,-234.305 111.17,-242.733"/>
<polygon fill="#f0f0f0" stroke="#f0f0f0" points="107.677,-242.99 111.53,-252.859 114.672,-242.741 107.677,-242.99"/>
<text text-anchor="middle" x="120.24" y="-224.1" font-family="Times New Roman,serif" font-size="8.00" fill="#f0f0f0">[2]</text>
</g>
<!-- http://example.org/print1 -->
<g id="node12" class="node"><title>http://example.org/print1</title>
<g id="a_node12"><a xlink:href="http://example.org/print1" xlink:title="print1">
<polygon fill="#fafafa" stroke="#f0f0f0" points="239.74,-36 185.74,-36 185.74,-0 239.74,-0 239.74,-36"/>
<text text-anchor="middle" x="212.74" y="-14.3" font-family="Times New Roman,serif" font-size="14.00" fill="#f0f0f0">print1</text>
</a>
</g>
</g>
<!-- http://example.org/print1&#45;&gt;http://example.org/result_a02 -->
<g id="edge11" class="edge"><title>http://example.org/print1&#45;&gt;http://example.org/result_a02</title>
<path fill="none" stroke="#f0f0f0" d="M212.74,-36.1871C212.74,-44.2105 212.74,-53.9525 212.74,-62.9309"/>
<polygon fill="#f0f0f0" stroke="#f0f0f0" points="209.24,-62.9711 212.74,-72.9712 216.24,-62.9712 209.24,-62.9711"/>
<text text-anchor="middle" x="225.73" y="-41.7871" font-family="Times New Roman,serif" font-size="8.00" fill="#f0f0f0">use</text>
</g>
</g>
</svg>
