<?xml version="1.0" encoding="UTF-8" standalone="no"?>
<!DOCTYPE svg PUBLIC "-//W3C//DTD SVG 1.1//EN"
 "http://www.w3.org/Graphics/SVG/1.1/DTD/svg11.dtd">
<!-- Generated by graphviz version 2.38.0 (20140413.2041)
 -->
<!-- Title: PROV Pages: 1 -->
<svg width="374pt" height="349pt"
 viewBox="0.00 0.00 373.50 349.00" xmlns="http://www.w3.org/2000/svg" xmlns:xlink="http://www.w3.org/1999/xlink">
<g id="graph0" class="graph" transform="scale(1 1) rotate(0) translate(4 345)">
<title>PROV</title>
<polygon fill="white" stroke="none" points="-4,4 -4,-345 369.5,-345 369.5,4 -4,4"/>
<!-- http://example.org/10000 -->
<g id="node1" class="node"><title>http://example.org/10000</title>
<g id="a_node1"><a xlink:href="http://example.org/10000" xlink:title="10000">
<ellipse fill="#fafafa" stroke="#f0f0f0" cx="225.5" cy="-250" rx="32.4942" ry="18"/>
<text text-anchor="middle" x="225.5" y="-246.3" font-family="Times New Roman,serif" font-size="14.00" fill="#f0f0f0">10000</text>
</a>
</g>
</g>
<!-- http://example.org/10000_v1 -->
<g id="node2" class="node"><title>http://example.org/10000_v1</title>
<g id="a_node2"><a xlink:href="http://example.org/10000_v1" xlink:title="10000_v1">
<ellipse fill="#fffc87" stroke="#808080" cx="127.5" cy="-323" rx="46.2923" ry="18"/>
<text text-anchor="middle" x="127.5" y="-319.3" font-family="Times New Roman,serif" font-size="14.00">10000_v1</text>
</a>
</g>
</g>
<!-- http://example.org/10000&#45;&gt;http://example.org/10000_v1 -->
<g id="edge2" class="edge"><title>http://example.org/10000&#45;&gt;http://example.org/10000_v1</title>
<path fill="none" stroke="black" d="M206.605,-264.69C192.395,-274.984 172.672,-289.274 156.474,-301.008"/>
<polygon fill="black" stroke="black" points="154.418,-298.176 148.373,-306.878 158.525,-303.845 154.418,-298.176"/>
<text text-anchor="middle" x="208.152" y="-277.709" font-family="Times New Roman,serif" font-size="8.00">spe</text>
</g>
<!-- &#45;attrs0 -->
<g id="node3" class="node"><title>&#45;attrs0</title>
<polygon fill="none" stroke="gray" points="169,-268 0,-268 0,-232 175,-232 175,-262 169,-268"/>
<polyline fill="none" stroke="gray" points="169,-268 169,-262 "/>
<polyline fill="none" stroke="gray" points="175,-262 169,-262 "/>
<text text-anchor="start" x="10.5" y="-254" font-family="Times New Roman,serif" font-size="10.00">checkpoint:</text>
<text text-anchor="start" x="59.5" y="-254" font-family="Times New Roman,serif" font-size="10.00">2018&#45;03&#45;10 05:24:53.555665</text>
<text text-anchor="start" x="10.5" y="-241" font-family="Times New Roman,serif" font-size="10.00">type:</text>
<text text-anchor="start" x="59.5" y="-241" font-family="Times New Roman,serif" font-size="10.00">Version</text>
</g>
<!-- &#45;attrs0&#45;&gt;http://example.org/10000_v1 -->
<g id="edge1" class="edge"><title>&#45;attrs0&#45;&gt;http://example.org/10000_v1</title>
<path fill="none" stroke="gray" stroke-dasharray="5,2" d="M97.1829,-268.187C103.472,-279.35 111.635,-293.84 117.906,-304.971"/>
</g>
<!-- http://example.org/m -->
<g id="node4" class="node"><title>http://example.org/m</title>
<g id="a_node4"><a xlink:href="http://example.org/m" xlink:title="m">
<ellipse fill="#fffc87" stroke="#808080" cx="192.5" cy="-104" rx="27" ry="18"/>
<text text-anchor="middle" x="192.5" y="-100.3" font-family="Times New Roman,serif" font-size="14.00">m</text>
</a>
</g>
</g>
<!-- http://example.org/m&#45;&gt;http://example.org/10000 -->
<g id="edge4" class="edge"><title>http://example.org/m&#45;&gt;http://example.org/10000</title>
<path fill="none" stroke="#f0f0f0" d="M188.737,-122.008C185.391,-140.426 182.07,-170.461 189.5,-195 192.766,-205.787 198.976,-216.389 205.331,-225.304"/>
<polygon fill="#f0f0f0" stroke="#f0f0f0" points="202.549,-227.427 211.377,-233.284 208.128,-223.2 202.549,-227.427"/>
<text text-anchor="middle" x="244" y="-179.6" font-family="Times New Roman,serif" font-size="8.00" fill="#f0f0f0">der ref</text>
<text text-anchor="middle" x="244" y="-170.6" font-family="Times New Roman,serif" font-size="8.00" fill="#f0f0f0">2018&#45;03&#45;10T05:24:53.555665</text>
</g>
<!-- http://example.org/assign1 -->
<g id="node6" class="node"><title>http://example.org/assign1</title>
<g id="a_node6"><a xlink:href="http://example.org/assign1" xlink:title="assign1">
<polygon fill="#fafafa" stroke="#f0f0f0" points="365.5,-195 307.5,-195 307.5,-159 365.5,-159 365.5,-195"/>
<text text-anchor="middle" x="336.5" y="-173.3" font-family="Times New Roman,serif" font-size="14.00" fill="#f0f0f0">assign1</text>
</a>
</g>
</g>
<!-- http://example.org/m&#45;&gt;http://example.org/assign1 -->
<g id="edge6" class="edge"><title>http://example.org/m&#45;&gt;http://example.org/assign1</title>
<path fill="none" stroke="#f0f0f0" d="M213.748,-115.476C235.932,-126.415 271.196,-143.802 298.247,-157.139"/>
<polygon fill="#f0f0f0" stroke="#f0f0f0" points="296.921,-160.388 307.438,-161.671 300.017,-154.109 296.921,-160.388"/>
<text text-anchor="middle" x="226.219" y="-105.242" font-family="Times New Roman,serif" font-size="8.00" fill="#f0f0f0">gen</text>
</g>
<!-- &#45;attrs1 -->
<g id="node5" class="node"><title>&#45;attrs1</title>
<polygon fill="none" stroke="gray" points="221.5,-49 157.5,-49 157.5,-0 227.5,-0 227.5,-43 221.5,-49"/>
<polyline fill="none" stroke="gray" points="221.5,-49 221.5,-43 "/>
<polyline fill="none" stroke="gray" points="227.5,-43 221.5,-43 "/>
<text text-anchor="start" x="167.5" y="-34.5" font-family="Times New Roman,serif" font-size="10.00">value:</text>
<text text-anchor="start" x="194.5" y="-34.5" font-family="Times New Roman,serif" font-size="10.00">10000</text>
<text text-anchor="start" x="167.5" y="-21.5" font-family="Times New Roman,serif" font-size="10.00">type:</text>
<text text-anchor="start" x="194.5" y="-21.5" font-family="Times New Roman,serif" font-size="10.00">name</text>
<text text-anchor="start" x="167.5" y="-8.5" font-family="Times New Roman,serif" font-size="10.00">label:</text>
<text text-anchor="start" x="194.5" y="-8.5" font-family="Times New Roman,serif" font-size="10.00">m</text>
</g>
<!-- &#45;attrs1&#45;&gt;http://example.org/m -->
<g id="edge3" class="edge"><title>&#45;attrs1&#45;&gt;http://example.org/m</title>
<path fill="none" stroke="gray" stroke-dasharray="5,2" d="M192.5,-49.1737C192.5,-60.9254 192.5,-74.869 192.5,-85.6196"/>
</g>
<!-- http://example.org/assign1&#45;&gt;http://example.org/10000 -->
<g id="edge5" class="edge"><title>http://example.org/assign1&#45;&gt;http://example.org/10000</title>
<path fill="none" stroke="#f0f0f0" d="M309.913,-195.006C293.2,-205.696 271.634,-219.491 254.484,-230.461"/>
<polygon fill="#f0f0f0" stroke="#f0f0f0" points="252.505,-227.571 245.967,-235.908 256.277,-233.468 252.505,-227.571"/>
<text text-anchor="middle" x="310.594" y="-208.091" font-family="Times New Roman,serif" font-size="8.00" fill="#f0f0f0">use</text>
</g>
</g>
</svg>
