<?xml version="1.0" encoding="UTF-8" standalone="no"?>
<!DOCTYPE svg PUBLIC "-//W3C//DTD SVG 1.1//EN"
 "http://www.w3.org/Graphics/SVG/1.1/DTD/svg11.dtd">
<!-- Generated by graphviz version 2.38.0 (20140413.2041)
 -->
<!-- Title: PROV Pages: 1 -->
<svg width="717pt" height="529pt"
 viewBox="0.00 0.00 717.00 529.00" xmlns="http://www.w3.org/2000/svg" xmlns:xlink="http://www.w3.org/1999/xlink">
<g id="graph0" class="graph" transform="scale(1 1) rotate(0) translate(4 525)">
<title>PROV</title>
<polygon fill="white" stroke="none" points="-4,4 -4,-525 713,-525 713,4 -4,4"/>
<!-- http://example.org/0 -->
<g id="node1" class="node"><title>http://example.org/0</title>
<g id="a_node1"><a xlink:href="http://example.org/0" xlink:title="0">
<ellipse fill="#fffc87" stroke="#808080" cx="220.5" cy="-430" rx="27" ry="18"/>
<text text-anchor="middle" x="220.5" y="-426.3" font-family="Times New Roman,serif" font-size="14.00">0</text>
</a>
</g>
</g>
<!-- http://example.org/0_v1 -->
<g id="node3" class="node"><title>http://example.org/0_v1</title>
<g id="a_node3"><a xlink:href="http://example.org/0_v1" xlink:title="0_v1">
<ellipse fill="#fffc87" stroke="#808080" cx="126.5" cy="-503" rx="28.6953" ry="18"/>
<text text-anchor="middle" x="126.5" y="-499.3" font-family="Times New Roman,serif" font-size="14.00">0_v1</text>
</a>
</g>
</g>
<!-- http://example.org/0&#45;&gt;http://example.org/0_v1 -->
<g id="edge3" class="edge"><title>http://example.org/0&#45;&gt;http://example.org/0_v1</title>
<path fill="none" stroke="black" d="M203.259,-444.022C188.996,-454.795 168.523,-470.259 152.307,-482.508"/>
<polygon fill="black" stroke="black" points="150.141,-479.758 144.27,-488.578 154.36,-485.343 150.141,-479.758"/>
<text text-anchor="middle" x="205.104" y="-457.009" font-family="Times New Roman,serif" font-size="8.00">spe</text>
</g>
<!-- &#45;attrs0 -->
<g id="node2" class="node"><title>&#45;attrs0</title>
<polygon fill="none" stroke="gray" points="249,-367 186,-367 186,-331 255,-331 255,-361 249,-367"/>
<polyline fill="none" stroke="gray" points="249,-367 249,-361 "/>
<polyline fill="none" stroke="gray" points="255,-361 249,-361 "/>
<text text-anchor="start" x="196.5" y="-353" font-family="Times New Roman,serif" font-size="10.00">value:</text>
<text text-anchor="start" x="223.5" y="-353" font-family="Times New Roman,serif" font-size="10.00">0</text>
<text text-anchor="start" x="196.5" y="-340" font-family="Times New Roman,serif" font-size="10.00">type:</text>
<text text-anchor="start" x="223.5" y="-340" font-family="Times New Roman,serif" font-size="10.00">literal</text>
</g>
<!-- &#45;attrs0&#45;&gt;http://example.org/0 -->
<g id="edge1" class="edge"><title>&#45;attrs0&#45;&gt;http://example.org/0</title>
<path fill="none" stroke="gray" stroke-dasharray="5,2" d="M220.5,-367.142C220.5,-380.393 220.5,-398.649 220.5,-411.892"/>
</g>
<!-- &#45;attrs1 -->
<g id="node4" class="node"><title>&#45;attrs1</title>
<polygon fill="none" stroke="gray" points="169,-448 0,-448 0,-412 175,-412 175,-442 169,-448"/>
<polyline fill="none" stroke="gray" points="169,-448 169,-442 "/>
<polyline fill="none" stroke="gray" points="175,-442 169,-442 "/>
<text text-anchor="start" x="10.5" y="-434" font-family="Times New Roman,serif" font-size="10.00">checkpoint:</text>
<text text-anchor="start" x="59.5" y="-434" font-family="Times New Roman,serif" font-size="10.00">2018&#45;03&#45;10 05:24:53.677489</text>
<text text-anchor="start" x="10.5" y="-421" font-family="Times New Roman,serif" font-size="10.00">type:</text>
<text text-anchor="start" x="59.5" y="-421" font-family="Times New Roman,serif" font-size="10.00">Version</text>
</g>
<!-- &#45;attrs1&#45;&gt;http://example.org/0_v1 -->
<g id="edge2" class="edge"><title>&#45;attrs1&#45;&gt;http://example.org/0_v1</title>
<path fill="none" stroke="gray" stroke-dasharray="5,2" d="M96.9408,-448.187C103.163,-459.514 111.266,-474.267 117.415,-485.46"/>
</g>
<!-- http://example.org/2 -->
<g id="node5" class="node"><title>http://example.org/2</title>
<g id="a_node5"><a xlink:href="http://example.org/2" xlink:title="2">
<ellipse fill="#fffc87" stroke="#808080" cx="674.5" cy="-430" rx="27" ry="18"/>
<text text-anchor="middle" x="674.5" y="-426.3" font-family="Times New Roman,serif" font-size="14.00">2</text>
</a>
</g>
</g>
<!-- http://example.org/2_v1 -->
<g id="node7" class="node"><title>http://example.org/2_v1</title>
<g id="a_node7"><a xlink:href="http://example.org/2_v1" xlink:title="2_v1">
<ellipse fill="#fffc87" stroke="#808080" cx="439.5" cy="-503" rx="28.6953" ry="18"/>
<text text-anchor="middle" x="439.5" y="-499.3" font-family="Times New Roman,serif" font-size="14.00">2_v1</text>
</a>
</g>
</g>
<!-- http://example.org/2&#45;&gt;http://example.org/2_v1 -->
<g id="edge6" class="edge"><title>http://example.org/2&#45;&gt;http://example.org/2_v1</title>
<path fill="none" stroke="black" d="M653.445,-441.701C648.604,-443.947 643.429,-446.184 638.5,-448 583.189,-468.383 516.699,-484.886 476.295,-494.068"/>
<polygon fill="black" stroke="black" points="475.353,-490.692 466.361,-496.297 476.885,-497.522 475.353,-490.692"/>
<text text-anchor="middle" x="652.068" y="-454.737" font-family="Times New Roman,serif" font-size="8.00">spe</text>
</g>
<!-- &#45;attrs2 -->
<g id="node6" class="node"><title>&#45;attrs2</title>
<polygon fill="none" stroke="gray" points="703,-367 640,-367 640,-331 709,-331 709,-361 703,-367"/>
<polyline fill="none" stroke="gray" points="703,-367 703,-361 "/>
<polyline fill="none" stroke="gray" points="709,-361 703,-361 "/>
<text text-anchor="start" x="650.5" y="-353" font-family="Times New Roman,serif" font-size="10.00">value:</text>
<text text-anchor="start" x="677.5" y="-353" font-family="Times New Roman,serif" font-size="10.00">2</text>
<text text-anchor="start" x="650.5" y="-340" font-family="Times New Roman,serif" font-size="10.00">type:</text>
<text text-anchor="start" x="677.5" y="-340" font-family="Times New Roman,serif" font-size="10.00">literal</text>
</g>
<!-- &#45;attrs2&#45;&gt;http://example.org/2 -->
<g id="edge4" class="edge"><title>&#45;attrs2&#45;&gt;http://example.org/2</title>
<path fill="none" stroke="gray" stroke-dasharray="5,2" d="M674.5,-367.142C674.5,-380.393 674.5,-398.649 674.5,-411.892"/>
</g>
<!-- &#45;attrs3 -->
<g id="node8" class="node"><title>&#45;attrs3</title>
<polygon fill="none" stroke="gray" points="435,-448 266,-448 266,-412 441,-412 441,-442 435,-448"/>
<polyline fill="none" stroke="gray" points="435,-448 435,-442 "/>
<polyline fill="none" stroke="gray" points="441,-442 435,-442 "/>
<text text-anchor="start" x="276.5" y="-434" font-family="Times New Roman,serif" font-size="10.00">checkpoint:</text>
<text text-anchor="start" x="325.5" y="-434" font-family="Times New Roman,serif" font-size="10.00">2018&#45;03&#45;10 05:24:53.677990</text>
<text text-anchor="start" x="276.5" y="-421" font-family="Times New Roman,serif" font-size="10.00">type:</text>
<text text-anchor="start" x="325.5" y="-421" font-family="Times New Roman,serif" font-size="10.00">Version</text>
</g>
<!-- &#45;attrs3&#45;&gt;http://example.org/2_v1 -->
<g id="edge5" class="edge"><title>&#45;attrs3&#45;&gt;http://example.org/2_v1</title>
<path fill="none" stroke="gray" stroke-dasharray="5,2" d="M374.318,-448.187C389.231,-460.499 409.047,-476.858 422.899,-488.295"/>
</g>
<!-- http://example.org/list -->
<g id="node9" class="node"><title>http://example.org/list</title>
<g id="a_node9"><a xlink:href="http://example.org/list" xlink:title="list">
<ellipse fill="#fffc87" stroke="#808080" cx="450.5" cy="-276" rx="27" ry="18"/>
<text text-anchor="middle" x="450.5" y="-272.3" font-family="Times New Roman,serif" font-size="14.00">list</text>
</a>
</g>
</g>
<!-- http://example.org/list_v1 -->
<g id="node11" class="node"><title>http://example.org/list_v1</title>
<g id="a_node11"><a xlink:href="http://example.org/list_v1" xlink:title="list_v1">
<ellipse fill="#fffc87" stroke="#808080" cx="544.5" cy="-349" rx="34.394" ry="18"/>
<text text-anchor="middle" x="544.5" y="-345.3" font-family="Times New Roman,serif" font-size="14.00">list_v1</text>
</a>
</g>
</g>
<!-- http://example.org/list&#45;&gt;http://example.org/list_v1 -->
<g id="edge9" class="edge"><title>http://example.org/list&#45;&gt;http://example.org/list_v1</title>
<path fill="none" stroke="black" d="M467.741,-290.022C481.733,-300.591 501.702,-315.674 517.765,-327.806"/>
<polygon fill="black" stroke="black" points="515.667,-330.608 525.756,-333.843 519.886,-325.023 515.667,-330.608"/>
<text text-anchor="middle" x="481.555" y="-282.277" font-family="Times New Roman,serif" font-size="8.00">spe</text>
</g>
<!-- &#45;attrs4 -->
<g id="node10" class="node"><title>&#45;attrs4</title>
<polygon fill="none" stroke="gray" points="408,-221 239,-221 239,-159 414,-159 414,-215 408,-221"/>
<polyline fill="none" stroke="gray" points="408,-221 408,-215 "/>
<polyline fill="none" stroke="gray" points="414,-215 408,-215 "/>
<text text-anchor="start" x="249.5" y="-207" font-family="Times New Roman,serif" font-size="10.00">value:</text>
<text text-anchor="start" x="298.5" y="-207" font-family="Times New Roman,serif" font-size="10.00">[2, 10000, 0]</text>
<text text-anchor="start" x="249.5" y="-194" font-family="Times New Roman,serif" font-size="10.00">type:</text>
<text text-anchor="start" x="298.5" y="-194" font-family="Times New Roman,serif" font-size="10.00">list</text>
<text text-anchor="start" x="249.5" y="-181" font-family="Times New Roman,serif" font-size="10.00">label:</text>
<text text-anchor="start" x="298.5" y="-181" font-family="Times New Roman,serif" font-size="10.00">[2, m, 0]</text>
<text text-anchor="start" x="249.5" y="-168" font-family="Times New Roman,serif" font-size="10.00">checkpoint:</text>
<text text-anchor="start" x="298.5" y="-168" font-family="Times New Roman,serif" font-size="10.00">2018&#45;03&#45;10 05:24:53.677990</text>
</g>
<!-- &#45;attrs4&#45;&gt;http://example.org/list -->
<g id="edge7" class="edge"><title>&#45;attrs4&#45;&gt;http://example.org/list</title>
<path fill="none" stroke="gray" stroke-dasharray="5,2" d="M370.917,-221.089C392.043,-235.4 416.138,-251.722 432.228,-262.622"/>
</g>
<!-- http://example.org/list_v1&#45;&gt;http://example.org/0 -->
<g id="edge12" class="edge"><title>http://example.org/list_v1&#45;&gt;http://example.org/0</title>
<path fill="none" stroke="black" d="M511.449,-354.591C457.21,-362.681 346.359,-381.561 256.5,-412 254.585,-412.649 252.638,-413.371 250.691,-414.142"/>
<polygon fill="black" stroke="black" points="248.897,-411.104 241.104,-418.282 251.673,-417.53 248.897,-411.104"/>
<text text-anchor="middle" x="356" y="-387.6" font-family="Times New Roman,serif" font-size="8.00">[2]</text>
</g>
<!-- http://example.org/list_v1&#45;&gt;http://example.org/2 -->
<g id="edge10" class="edge"><title>http://example.org/list_v1&#45;&gt;http://example.org/2</title>
<path fill="none" stroke="black" d="M566.259,-363.223C588.307,-376.621 622.503,-397.402 646.546,-412.013"/>
<polygon fill="black" stroke="black" points="644.854,-415.08 655.217,-417.282 648.489,-409.098 644.854,-415.08"/>
<text text-anchor="middle" x="618" y="-387.6" font-family="Times New Roman,serif" font-size="8.00">[0]</text>
</g>
<!-- http://example.org/m -->
<g id="node13" class="node"><title>http://example.org/m</title>
<ellipse fill="none" stroke="black" cx="544.5" cy="-430" rx="85.2851" ry="18"/>
<text text-anchor="middle" x="544.5" y="-426.3" font-family="Times New Roman,serif" font-size="14.00">http://example.org/m</text>
</g>
<!-- http://example.org/list_v1&#45;&gt;http://example.org/m -->
<g id="edge11" class="edge"><title>http://example.org/list_v1&#45;&gt;http://example.org/m</title>
<path fill="none" stroke="black" d="M544.5,-367.142C544.5,-377.287 544.5,-390.366 544.5,-401.883"/>
<polygon fill="black" stroke="black" points="541,-401.892 544.5,-411.892 548,-401.892 541,-401.892"/>
<text text-anchor="middle" x="550" y="-387.6" font-family="Times New Roman,serif" font-size="8.00">[1]</text>
</g>
<!-- &#45;attrs5 -->
<g id="node12" class="node"><title>&#45;attrs5</title>
<polygon fill="none" stroke="gray" points="665,-294 496,-294 496,-258 671,-258 671,-288 665,-294"/>
<polyline fill="none" stroke="gray" points="665,-294 665,-288 "/>
<polyline fill="none" stroke="gray" points="671,-288 665,-288 "/>
<text text-anchor="start" x="506.5" y="-280" font-family="Times New Roman,serif" font-size="10.00">checkpoint:</text>
<text text-anchor="start" x="555.5" y="-280" font-family="Times New Roman,serif" font-size="10.00">2018&#45;03&#45;10 05:24:53.677990</text>
<text text-anchor="start" x="506.5" y="-267" font-family="Times New Roman,serif" font-size="10.00">type:</text>
<text text-anchor="start" x="555.5" y="-267" font-family="Times New Roman,serif" font-size="10.00">Version</text>
</g>
<!-- &#45;attrs5&#45;&gt;http://example.org/list_v1 -->
<g id="edge8" class="edge"><title>&#45;attrs5&#45;&gt;http://example.org/list_v1</title>
<path fill="none" stroke="gray" stroke-dasharray="5,2" d="M574.059,-294.187C567.837,-305.514 559.734,-320.267 553.585,-331.46"/>
</g>
<!-- http://example.org/lastrow -->
<g id="node14" class="node"><title>http://example.org/lastrow</title>
<g id="a_node14"><a xlink:href="http://example.org/lastrow" xlink:title="lastrow">
<ellipse fill="#fffc87" stroke="#808080" cx="495.5" cy="-104" rx="37.0935" ry="18"/>
<text text-anchor="middle" x="495.5" y="-100.3" font-family="Times New Roman,serif" font-size="14.00">lastrow</text>
</a>
</g>
</g>
<!-- http://example.org/lastrow&#45;&gt;http://example.org/list -->
<g id="edge14" class="edge"><title>http://example.org/lastrow&#45;&gt;http://example.org/list</title>
<path fill="none" stroke="#f0f0f0" d="M481.763,-120.84C473.777,-131.025 464.358,-144.943 459.5,-159 449.431,-188.139 448.169,-223.764 448.792,-247.785"/>
<polygon fill="#f0f0f0" stroke="#f0f0f0" points="445.301,-248.083 449.186,-257.94 452.295,-247.812 445.301,-248.083"/>
<text text-anchor="middle" x="514" y="-192.6" font-family="Times New Roman,serif" font-size="8.00" fill="#f0f0f0">der ref</text>
<text text-anchor="middle" x="514" y="-183.6" font-family="Times New Roman,serif" font-size="8.00" fill="#f0f0f0">2018&#45;03&#45;10T05:24:53.807836</text>
</g>
<!-- http://example.org/assign2 -->
<g id="node16" class="node"><title>http://example.org/assign2</title>
<g id="a_node16"><a xlink:href="http://example.org/assign2" xlink:title="assign2">
<polygon fill="#fafafa" stroke="#f0f0f0" points="635.5,-208 577.5,-208 577.5,-172 635.5,-172 635.5,-208"/>
<text text-anchor="middle" x="606.5" y="-186.3" font-family="Times New Roman,serif" font-size="14.00" fill="#f0f0f0">assign2</text>
</a>
</g>
</g>
<!-- http://example.org/lastrow&#45;&gt;http://example.org/assign2 -->
<g id="edge16" class="edge"><title>http://example.org/lastrow&#45;&gt;http://example.org/assign2</title>
<path fill="none" stroke="#f0f0f0" d="M514.582,-119.44C531.395,-132.164 556.192,-150.929 575.795,-165.764"/>
<polygon fill="#f0f0f0" stroke="#f0f0f0" points="573.754,-168.608 583.84,-171.852 577.978,-163.026 573.754,-168.608"/>
<text text-anchor="middle" x="528.401" y="-111.707" font-family="Times New Roman,serif" font-size="8.00" fill="#f0f0f0">gen</text>
</g>
<!-- &#45;attrs6 -->
<g id="node15" class="node"><title>&#45;attrs6</title>
<polygon fill="none" stroke="gray" points="536.5,-49 448.5,-49 448.5,-0 542.5,-0 542.5,-43 536.5,-49"/>
<polyline fill="none" stroke="gray" points="536.5,-49 536.5,-43 "/>
<polyline fill="none" stroke="gray" points="542.5,-43 536.5,-43 "/>
<text text-anchor="start" x="458.5" y="-34.5" font-family="Times New Roman,serif" font-size="10.00">value:</text>
<text text-anchor="start" x="485.5" y="-34.5" font-family="Times New Roman,serif" font-size="10.00">[2, 10000, 0]</text>
<text text-anchor="start" x="458.5" y="-21.5" font-family="Times New Roman,serif" font-size="10.00">type:</text>
<text text-anchor="start" x="485.5" y="-21.5" font-family="Times New Roman,serif" font-size="10.00">name</text>
<text text-anchor="start" x="458.5" y="-8.5" font-family="Times New Roman,serif" font-size="10.00">label:</text>
<text text-anchor="start" x="485.5" y="-8.5" font-family="Times New Roman,serif" font-size="10.00">lastrow</text>
</g>
<!-- &#45;attrs6&#45;&gt;http://example.org/lastrow -->
<g id="edge13" class="edge"><title>&#45;attrs6&#45;&gt;http://example.org/lastrow</title>
<path fill="none" stroke="gray" stroke-dasharray="5,2" d="M495.5,-49.1737C495.5,-60.9254 495.5,-74.869 495.5,-85.6196"/>
</g>
<!-- http://example.org/assign2&#45;&gt;http://example.org/list -->
<g id="edge15" class="edge"><title>http://example.org/assign2&#45;&gt;http://example.org/list</title>
<path fill="none" stroke="#f0f0f0" d="M583.298,-208.218C577.008,-212.598 570.107,-217.151 563.5,-221 555.817,-225.476 511.815,-246.279 481.046,-260.717"/>
<polygon fill="#f0f0f0" stroke="#f0f0f0" points="479.545,-257.555 471.976,-264.969 482.516,-263.893 479.545,-257.555"/>
<text text-anchor="middle" x="584.526" y="-221.267" font-family="Times New Roman,serif" font-size="8.00" fill="#f0f0f0">use</text>
</g>
</g>
</svg>
