<?xml version="1.0" encoding="UTF-8" standalone="no"?>
<!DOCTYPE svg PUBLIC "-//W3C//DTD SVG 1.1//EN"
 "http://www.w3.org/Graphics/SVG/1.1/DTD/svg11.dtd">
<!-- Generated by graphviz version 2.38.0 (20140413.2041)
 -->
<!-- Title: PROV Pages: 1 -->
<svg width="511pt" height="629pt"
 viewBox="0.00 0.00 511.40 629.00" xmlns="http://www.w3.org/2000/svg" xmlns:xlink="http://www.w3.org/1999/xlink">
<g id="graph0" class="graph" transform="scale(1 1) rotate(0) translate(4 625)">
<title>PROV</title>
<polygon fill="white" stroke="none" points="-4,4 -4,-625 507.402,-625 507.402,4 -4,4"/>
<!-- http://example.org/m -->
<g id="node1" class="node"><title>http://example.org/m</title>
<g id="a_node1"><a xlink:href="http://example.org/m" xlink:title="m">
<ellipse fill="#fffc87" stroke="#808080" cx="134.402" cy="-603" rx="27" ry="18"/>
<text text-anchor="middle" x="134.402" y="-599.3" font-family="Times New Roman,serif" font-size="14.00">m</text>
</a>
</g>
</g>
<!-- &#45;attrs0 -->
<g id="node2" class="node"><title>&#45;attrs0</title>
<polygon fill="none" stroke="gray" points="165.902,-504 30.9019,-504 30.9019,-442 171.902,-442 171.902,-498 165.902,-504"/>
<polyline fill="none" stroke="gray" points="165.902,-504 165.902,-498 "/>
<polyline fill="none" stroke="gray" points="171.902,-498 165.902,-498 "/>
<text text-anchor="start" x="41.4019" y="-490" font-family="Times New Roman,serif" font-size="10.00">value:</text>
<text text-anchor="start" x="116.402" y="-490" font-family="Times New Roman,serif" font-size="10.00">10000</text>
<text text-anchor="start" x="41.4019" y="-477" font-family="Times New Roman,serif" font-size="10.00">type:</text>
<text text-anchor="start" x="116.402" y="-477" font-family="Times New Roman,serif" font-size="10.00">script:name</text>
<text text-anchor="start" x="41.4019" y="-464" font-family="Times New Roman,serif" font-size="10.00">label:</text>
<text text-anchor="start" x="116.402" y="-464" font-family="Times New Roman,serif" font-size="10.00">m</text>
<text text-anchor="start" x="41.4019" y="-451" font-family="Times New Roman,serif" font-size="10.00">generatedAtTime:</text>
<text text-anchor="start" x="116.402" y="-451" font-family="Times New Roman,serif" font-size="10.00">T2</text>
</g>
<!-- &#45;attrs0&#45;&gt;http://example.org/m -->
<g id="edge1" class="edge"><title>&#45;attrs0&#45;&gt;http://example.org/m</title>
<path fill="none" stroke="gray" stroke-dasharray="5,2" d="M103.294,-504.36C105.098,-522.842 108.605,-546.719 115.402,-567 117.599,-573.556 120.979,-580.33 124.282,-586.152"/>
</g>
<!-- http://example.org/sum -->
<g id="node3" class="node"><title>http://example.org/sum</title>
<g id="a_node3"><a xlink:href="http://example.org/sum" xlink:title="sum">
<ellipse fill="#fffc87" stroke="#808080" cx="333.402" cy="-603" rx="27" ry="18"/>
<text text-anchor="middle" x="333.402" y="-599.3" font-family="Times New Roman,serif" font-size="14.00">sum</text>
</a>
</g>
</g>
<!-- &#45;attrs1 -->
<g id="node4" class="node"><title>&#45;attrs1</title>
<polygon fill="none" stroke="gray" points="471.902,-504 340.902,-504 340.902,-442 477.902,-442 477.902,-498 471.902,-504"/>
<polyline fill="none" stroke="gray" points="471.902,-504 471.902,-498 "/>
<polyline fill="none" stroke="gray" points="477.902,-498 471.902,-498 "/>
<text text-anchor="start" x="351.402" y="-490" font-family="Times New Roman,serif" font-size="10.00">value:</text>
<text text-anchor="start" x="426.402" y="-490" font-family="Times New Roman,serif" font-size="10.00">10001</text>
<text text-anchor="start" x="351.402" y="-477" font-family="Times New Roman,serif" font-size="10.00">type:</text>
<text text-anchor="start" x="426.402" y="-477" font-family="Times New Roman,serif" font-size="10.00">script:eval</text>
<text text-anchor="start" x="351.402" y="-464" font-family="Times New Roman,serif" font-size="10.00">label:</text>
<text text-anchor="start" x="426.402" y="-464" font-family="Times New Roman,serif" font-size="10.00">m + 1</text>
<text text-anchor="start" x="351.402" y="-451" font-family="Times New Roman,serif" font-size="10.00">generatedAtTime:</text>
<text text-anchor="start" x="426.402" y="-451" font-family="Times New Roman,serif" font-size="10.00">T4</text>
</g>
<!-- &#45;attrs1&#45;&gt;http://example.org/sum -->
<g id="edge2" class="edge"><title>&#45;attrs1&#45;&gt;http://example.org/sum</title>
<path fill="none" stroke="gray" stroke-dasharray="5,2" d="M391.583,-504.01C376.403,-529.577 355.17,-565.339 342.997,-585.84"/>
</g>
<!-- http://example.org/list -->
<g id="node5" class="node"><title>http://example.org/list</title>
<g id="a_node5"><a xlink:href="http://example.org/list" xlink:title="list">
<ellipse fill="#fffc87" stroke="#808080" cx="217.402" cy="-473" rx="27" ry="18"/>
<text text-anchor="middle" x="217.402" y="-469.3" font-family="Times New Roman,serif" font-size="14.00">list</text>
</a>
</g>
</g>
<!-- http://example.org/list&#45;&gt;http://example.org/m -->
<g id="edge4" class="edge"><title>http://example.org/list&#45;&gt;http://example.org/m</title>
<path fill="none" stroke="darkgreen" d="M202.324,-487.953C195.893,-493.432 188.104,-499.478 180.402,-504 161.826,-514.906 147.589,-504.239 135.402,-522 124.958,-537.22 125.088,-558.196 127.628,-574.851"/>
<polygon fill="darkgreen" stroke="darkgreen" points="124.262,-575.891 129.558,-585.067 131.14,-574.591 124.262,-575.891"/>
<text text-anchor="middle" x="154.902" y="-555.8" font-family="Times New Roman,serif" font-size="14.00">der&#45;ins</text>
<text text-anchor="middle" x="154.902" y="-540.8" font-family="Times New Roman,serif" font-size="14.00">[0]</text>
<text text-anchor="middle" x="154.902" y="-525.8" font-family="Times New Roman,serif" font-size="14.00">T5</text>
</g>
<!-- http://example.org/list&#45;&gt;http://example.org/m -->
<g id="edge6" class="edge"><title>http://example.org/list&#45;&gt;http://example.org/m</title>
<path fill="none" stroke="darkgreen" d="M210.661,-490.72C201.164,-513.864 183.942,-554.254 174.402,-567 170.338,-572.43 165.31,-577.627 160.207,-582.277"/>
<polygon fill="darkgreen" stroke="darkgreen" points="157.572,-579.926 152.254,-589.09 162.126,-585.242 157.572,-579.926"/>
<text text-anchor="middle" x="216.902" y="-555.8" font-family="Times New Roman,serif" font-size="14.00">der&#45;ins</text>
<text text-anchor="middle" x="216.902" y="-540.8" font-family="Times New Roman,serif" font-size="14.00">[2]</text>
<text text-anchor="middle" x="216.902" y="-525.8" font-family="Times New Roman,serif" font-size="14.00">T5</text>
</g>
<!-- http://example.org/list&#45;&gt;http://example.org/sum -->
<g id="edge5" class="edge"><title>http://example.org/list&#45;&gt;http://example.org/sum</title>
<path fill="none" stroke="darkgreen" d="M230.709,-488.683C250.879,-510.94 289.347,-553.388 313.048,-579.541"/>
<polygon fill="darkgreen" stroke="darkgreen" points="310.584,-582.034 319.893,-587.094 315.771,-577.334 310.584,-582.034"/>
<text text-anchor="middle" x="318.902" y="-555.8" font-family="Times New Roman,serif" font-size="14.00">der&#45;ins</text>
<text text-anchor="middle" x="318.902" y="-540.8" font-family="Times New Roman,serif" font-size="14.00">[1]</text>
<text text-anchor="middle" x="318.902" y="-525.8" font-family="Times New Roman,serif" font-size="14.00">T5</text>
</g>
<!-- &#45;attrs2 -->
<g id="node6" class="node"><title>&#45;attrs2</title>
<polygon fill="none" stroke="gray" points="202.402,-376 30.4019,-376 30.4019,-314 208.402,-314 208.402,-370 202.402,-376"/>
<polyline fill="none" stroke="gray" points="202.402,-376 202.402,-370 "/>
<polyline fill="none" stroke="gray" points="208.402,-370 202.402,-370 "/>
<text text-anchor="start" x="40.4019" y="-362" font-family="Times New Roman,serif" font-size="10.00">value:</text>
<text text-anchor="start" x="115.402" y="-362" font-family="Times New Roman,serif" font-size="10.00">[10000, 10001, 10000]</text>
<text text-anchor="start" x="40.4019" y="-349" font-family="Times New Roman,serif" font-size="10.00">type:</text>
<text text-anchor="start" x="115.402" y="-349" font-family="Times New Roman,serif" font-size="10.00">script:list</text>
<text text-anchor="start" x="40.4019" y="-336" font-family="Times New Roman,serif" font-size="10.00">label:</text>
<text text-anchor="start" x="115.402" y="-336" font-family="Times New Roman,serif" font-size="10.00">[m, m + 1, m]</text>
<text text-anchor="start" x="40.4019" y="-323" font-family="Times New Roman,serif" font-size="10.00">generatedAtTime:</text>
<text text-anchor="start" x="115.402" y="-323" font-family="Times New Roman,serif" font-size="10.00">T5</text>
</g>
<!-- &#45;attrs2&#45;&gt;http://example.org/list -->
<g id="edge3" class="edge"><title>&#45;attrs2&#45;&gt;http://example.org/list</title>
<path fill="none" stroke="gray" stroke-dasharray="5,2" d="M142.875,-376.18C162.581,-401.516 189.929,-436.677 205.427,-456.603"/>
</g>
<!-- http://example.org/d -->
<g id="node7" class="node"><title>http://example.org/d</title>
<g id="a_node7"><a xlink:href="http://example.org/d" xlink:title="d">
<ellipse fill="#fffc87" stroke="#808080" cx="253.402" cy="-345" rx="27" ry="18"/>
<text text-anchor="middle" x="253.402" y="-341.3" font-family="Times New Roman,serif" font-size="14.00">d</text>
</a>
</g>
</g>
<!-- http://example.org/d&#45;&gt;http://example.org/list -->
<g id="edge8" class="edge"><title>http://example.org/d&#45;&gt;http://example.org/list</title>
<path fill="none" stroke="darkgreen" d="M248.621,-362.732C242.597,-383.819 232.168,-420.318 225.035,-445.284"/>
<polygon fill="darkgreen" stroke="darkgreen" points="221.584,-444.622 222.202,-455.199 228.315,-446.545 221.584,-444.622"/>
<text text-anchor="middle" x="258.902" y="-412.8" font-family="Times New Roman,serif" font-size="14.00">der ref</text>
<text text-anchor="middle" x="258.902" y="-397.8" font-family="Times New Roman,serif" font-size="14.00">T6</text>
</g>
<!-- &#45;attrs3 -->
<g id="node8" class="node"><title>&#45;attrs3</title>
<polygon fill="none" stroke="gray" points="257.402,-263 85.4019,-263 85.4019,-201 263.402,-201 263.402,-257 257.402,-263"/>
<polyline fill="none" stroke="gray" points="257.402,-263 257.402,-257 "/>
<polyline fill="none" stroke="gray" points="263.402,-257 257.402,-257 "/>
<text text-anchor="start" x="95.4019" y="-249" font-family="Times New Roman,serif" font-size="10.00">value:</text>
<text text-anchor="start" x="170.402" y="-249" font-family="Times New Roman,serif" font-size="10.00">[10000, 10001, 10000]</text>
<text text-anchor="start" x="95.4019" y="-236" font-family="Times New Roman,serif" font-size="10.00">type:</text>
<text text-anchor="start" x="170.402" y="-236" font-family="Times New Roman,serif" font-size="10.00">script:name</text>
<text text-anchor="start" x="95.4019" y="-223" font-family="Times New Roman,serif" font-size="10.00">label:</text>
<text text-anchor="start" x="170.402" y="-223" font-family="Times New Roman,serif" font-size="10.00">d</text>
<text text-anchor="start" x="95.4019" y="-210" font-family="Times New Roman,serif" font-size="10.00">generatedAtTime:</text>
<text text-anchor="start" x="170.402" y="-210" font-family="Times New Roman,serif" font-size="10.00">T6</text>
</g>
<!-- &#45;attrs3&#45;&gt;http://example.org/d -->
<g id="edge7" class="edge"><title>&#45;attrs3&#45;&gt;http://example.org/d</title>
<path fill="none" stroke="gray" stroke-dasharray="5,2" d="M195.78,-263.038C210.769,-284.098 230.201,-311.401 242.232,-328.306"/>
</g>
<!-- http://example.org/0 -->
<g id="node9" class="node"><title>http://example.org/0</title>
<g id="a_node9"><a xlink:href="http://example.org/0" xlink:title="0">
<ellipse fill="#fffc87" stroke="#808080" cx="394.402" cy="-345" rx="27" ry="18"/>
<text text-anchor="middle" x="394.402" y="-341.3" font-family="Times New Roman,serif" font-size="14.00">0</text>
</a>
</g>
</g>
<!-- &#45;attrs4 -->
<g id="node10" class="node"><title>&#45;attrs4</title>
<polygon fill="none" stroke="gray" points="497.402,-256.5 361.402,-256.5 361.402,-207.5 503.402,-207.5 503.402,-250.5 497.402,-256.5"/>
<polyline fill="none" stroke="gray" points="497.402,-256.5 497.402,-250.5 "/>
<polyline fill="none" stroke="gray" points="503.402,-250.5 497.402,-250.5 "/>
<text text-anchor="start" x="371.402" y="-242" font-family="Times New Roman,serif" font-size="10.00">value:</text>
<text text-anchor="start" x="446.402" y="-242" font-family="Times New Roman,serif" font-size="10.00">0</text>
<text text-anchor="start" x="371.402" y="-229" font-family="Times New Roman,serif" font-size="10.00">type:</text>
<text text-anchor="start" x="446.402" y="-229" font-family="Times New Roman,serif" font-size="10.00">script:literal</text>
<text text-anchor="start" x="371.402" y="-216" font-family="Times New Roman,serif" font-size="10.00">generatedAtTime:</text>
<text text-anchor="start" x="446.402" y="-216" font-family="Times New Roman,serif" font-size="10.00">T9</text>
</g>
<!-- &#45;attrs4&#45;&gt;http://example.org/0 -->
<g id="edge9" class="edge"><title>&#45;attrs4&#45;&gt;http://example.org/0</title>
<path fill="none" stroke="gray" stroke-dasharray="5,2" d="M424.343,-256.54C417.066,-277.796 406.542,-308.538 400.104,-327.345"/>
</g>
<!-- http://example.org/d_ac0 -->
<g id="node11" class="node"><title>http://example.org/d_ac0</title>
<g id="a_node11"><a xlink:href="http://example.org/d_ac0" xlink:title="d_ac0">
<ellipse fill="#fffc87" stroke="#808080" cx="150.402" cy="-117" rx="33.2948" ry="18"/>
<text text-anchor="middle" x="150.402" y="-113.3" font-family="Times New Roman,serif" font-size="14.00">d_ac0</text>
</a>
</g>
</g>
<!-- http://example.org/access1 -->
<g id="node13" class="node"><title>http://example.org/access1</title>
<g id="a_node13"><a xlink:href="http://example.org/access1" xlink:title="access1">
<polygon fill="#9fb1fc" stroke="#0000ff" points="342.902,-250 281.902,-250 281.902,-214 342.902,-214 342.902,-250"/>
<text text-anchor="middle" x="312.402" y="-228.3" font-family="Times New Roman,serif" font-size="14.00">access1</text>
</a>
</g>
</g>
<!-- http://example.org/d_ac0&#45;&gt;http://example.org/access1 -->
<g id="edge15" class="edge"><title>http://example.org/d_ac0&#45;&gt;http://example.org/access1</title>
<path fill="none" stroke="black" d="M170.891,-131.521C195.292,-147.72 237.178,-175.829 272.402,-201 275.479,-203.199 278.666,-205.518 281.838,-207.852"/>
<polygon fill="black" stroke="black" points="279.997,-210.844 290.111,-213.998 284.171,-205.225 279.997,-210.844"/>
<text text-anchor="middle" x="184.33" y="-122.959" font-family="Times New Roman,serif" font-size="8.00">gen</text>
</g>
<!-- bn0 -->
<g id="node15" class="node"><title>bn0</title>
<ellipse fill="black" stroke="black" cx="65.4019" cy="-232" rx="1.8" ry="1.8"/>
</g>
<!-- http://example.org/d_ac0&#45;&gt;bn0 -->
<g id="edge16" class="edge"><title>http://example.org/d_ac0&#45;&gt;bn0</title>
<path fill="none" stroke="darkgreen" d="M133.993,-132.792C117.527,-148.383 92.3764,-174.338 76.4019,-201 70.1294,-211.469 66.514,-226.1 65.6212,-230.008"/>
<text text-anchor="middle" x="136.402" y="-171.8" font-family="Times New Roman,serif" font-size="14.00">der ac&#45;r</text>
<text text-anchor="middle" x="136.402" y="-156.8" font-family="Times New Roman,serif" font-size="14.00">T10</text>
</g>
<!-- &#45;attrs5 -->
<g id="node12" class="node"><title>&#45;attrs5</title>
<polygon fill="none" stroke="gray" points="217.902,-62 76.9019,-62 76.9019,-0 223.902,-0 223.902,-56 217.902,-62"/>
<polyline fill="none" stroke="gray" points="217.902,-62 217.902,-56 "/>
<polyline fill="none" stroke="gray" points="223.902,-56 217.902,-56 "/>
<text text-anchor="start" x="87.4019" y="-48" font-family="Times New Roman,serif" font-size="10.00">value:</text>
<text text-anchor="start" x="162.402" y="-48" font-family="Times New Roman,serif" font-size="10.00">10000</text>
<text text-anchor="start" x="87.4019" y="-35" font-family="Times New Roman,serif" font-size="10.00">type:</text>
<text text-anchor="start" x="162.402" y="-35" font-family="Times New Roman,serif" font-size="10.00">script:access</text>
<text text-anchor="start" x="87.4019" y="-22" font-family="Times New Roman,serif" font-size="10.00">label:</text>
<text text-anchor="start" x="162.402" y="-22" font-family="Times New Roman,serif" font-size="10.00">d[0]</text>
<text text-anchor="start" x="87.4019" y="-9" font-family="Times New Roman,serif" font-size="10.00">generatedAtTime:</text>
<text text-anchor="start" x="162.402" y="-9" font-family="Times New Roman,serif" font-size="10.00">T10</text>
</g>
<!-- &#45;attrs5&#45;&gt;http://example.org/d_ac0 -->
<g id="edge10" class="edge"><title>&#45;attrs5&#45;&gt;http://example.org/d_ac0</title>
<path fill="none" stroke="gray" stroke-dasharray="5,2" d="M150.402,-62.3259C150.402,-74.5443 150.402,-88.1945 150.402,-98.6716"/>
</g>
<!-- http://example.org/access1&#45;&gt;http://example.org/m -->
<g id="edge14" class="edge"><title>http://example.org/access1&#45;&gt;http://example.org/m</title>
<path fill="none" stroke="black" d="M314.31,-250.118C320.755,-311.402 339.12,-518.776 298.402,-567 282.352,-586.009 214.637,-595.236 171.394,-599.27"/>
<polygon fill="black" stroke="black" points="170.894,-595.801 161.24,-600.165 171.509,-602.774 170.894,-595.801"/>
<text text-anchor="middle" x="327.975" y="-254.404" font-family="Times New Roman,serif" font-size="8.00">use</text>
</g>
<!-- http://example.org/access1&#45;&gt;http://example.org/d -->
<g id="edge12" class="edge"><title>http://example.org/access1&#45;&gt;http://example.org/d</title>
<path fill="none" stroke="black" d="M303.183,-250.344C293.403,-268.745 277.857,-297.991 266.74,-318.906"/>
<polygon fill="black" stroke="black" points="263.584,-317.387 261.981,-327.86 269.765,-320.672 263.584,-317.387"/>
<text text-anchor="middle" x="311.134" y="-261.163" font-family="Times New Roman,serif" font-size="8.00">use</text>
</g>
<!-- http://example.org/access1&#45;&gt;http://example.org/0 -->
<g id="edge13" class="edge"><title>http://example.org/access1&#45;&gt;http://example.org/0</title>
<path fill="none" stroke="black" d="M325.214,-250.344C339.15,-269.208 361.506,-299.47 377.018,-320.468"/>
<polygon fill="black" stroke="black" points="374.243,-322.602 383,-328.566 379.873,-318.443 374.243,-322.602"/>
<text text-anchor="middle" x="340.119" y="-246.757" font-family="Times New Roman,serif" font-size="8.00">use</text>
</g>
<!-- &#45;attrs6 -->
<g id="node14" class="node"><title>&#45;attrs6</title>
<polygon fill="none" stroke="gray" points="353.902,-135 264.902,-135 264.902,-99 359.902,-99 359.902,-129 353.902,-135"/>
<polyline fill="none" stroke="gray" points="353.902,-135 353.902,-129 "/>
<polyline fill="none" stroke="gray" points="359.902,-129 353.902,-129 "/>
<text text-anchor="start" x="275.402" y="-114" font-family="Times New Roman,serif" font-size="10.00">type:</text>
<text text-anchor="start" x="298.402" y="-114" font-family="Times New Roman,serif" font-size="10.00">script:access</text>
</g>
<!-- &#45;attrs6&#45;&gt;http://example.org/access1 -->
<g id="edge11" class="edge"><title>&#45;attrs6&#45;&gt;http://example.org/access1</title>
<path fill="none" stroke="gray" stroke-dasharray="5,2" d="M312.402,-135.162C312.402,-156.401 312.402,-192.363 312.402,-213.676"/>
</g>
<!-- bn0&#45;&gt;http://example.org/m -->
<g id="edge18" class="edge"><title>bn0&#45;&gt;http://example.org/m</title>
<path fill="none" stroke="darkgreen" d="M64.8085,-233.736C60.2486,-239.442 30.7022,-277.395 21.4019,-314 0.607591,-395.844 -13.6611,-427.179 21.4019,-504 38.3548,-541.143 77.1075,-569.627 104.488,-586.079"/>
<polygon fill="darkgreen" stroke="darkgreen" points="102.885,-589.195 113.29,-591.192 106.401,-583.142 102.885,-589.195"/>
</g>
<!-- bn0&#45;&gt;http://example.org/d -->
<g id="edge17" class="edge"><title>bn0&#45;&gt;http://example.org/d</title>
<path fill="none" stroke="darkgreen" d="M65.4618,-233.878C65.7786,-237.839 67.596,-254.233 76.4019,-263 123.627,-310.018 159.6,-280.836 217.402,-314 221.96,-316.615 226.51,-319.821 230.766,-323.152"/>
<polygon fill="darkgreen" stroke="darkgreen" points="228.584,-325.89 238.511,-329.591 233.059,-320.507 228.584,-325.89"/>
<text text-anchor="middle" x="170.402" y="-284.8" font-family="Times New Roman,serif" font-size="14.00">[0]</text>
</g>
</g>
</svg>
