<?xml version="1.0" encoding="UTF-8" standalone="no"?>
<!DOCTYPE svg PUBLIC "-//W3C//DTD SVG 1.1//EN"
 "http://www.w3.org/Graphics/SVG/1.1/DTD/svg11.dtd">
<!-- Generated by graphviz version 2.38.0 (20140413.2041)
 -->
<!-- Title: PROV Pages: 1 -->
<svg width="444pt" height="401pt"
 viewBox="0.00 0.00 443.50 401.00" xmlns="http://www.w3.org/2000/svg" xmlns:xlink="http://www.w3.org/1999/xlink">
<g id="graph0" class="graph" transform="scale(1 1) rotate(0) translate(4 397)">
<title>PROV</title>
<polygon fill="white" stroke="none" points="-4,4 -4,-397 439.5,-397 439.5,4 -4,4"/>
<!-- http://example.org/10000 -->
<g id="node1" class="node"><title>http://example.org/10000</title>
<g id="a_node1"><a xlink:href="http://example.org/10000" xlink:title="10000">
<ellipse fill="#fffc87" stroke="#808080" cx="139" cy="-375" rx="32.4942" ry="18"/>
<text text-anchor="middle" x="139" y="-371.3" font-family="Times New Roman,serif" font-size="14.00">10000</text>
</a>
</g>
</g>
<!-- &#45;attrs0 -->
<g id="node2" class="node"><title>&#45;attrs0</title>
<polygon fill="none" stroke="gray" points="136,-291 0,-291 0,-242 142,-242 142,-285 136,-291"/>
<polyline fill="none" stroke="gray" points="136,-291 136,-285 "/>
<polyline fill="none" stroke="gray" points="142,-285 136,-285 "/>
<text text-anchor="start" x="10" y="-276.5" font-family="Times New Roman,serif" font-size="10.00">value:</text>
<text text-anchor="start" x="85" y="-276.5" font-family="Times New Roman,serif" font-size="10.00">10000</text>
<text text-anchor="start" x="10" y="-263.5" font-family="Times New Roman,serif" font-size="10.00">type:</text>
<text text-anchor="start" x="85" y="-263.5" font-family="Times New Roman,serif" font-size="10.00">script:literal</text>
<text text-anchor="start" x="10" y="-250.5" font-family="Times New Roman,serif" font-size="10.00">generatedAtTime:</text>
<text text-anchor="start" x="85" y="-250.5" font-family="Times New Roman,serif" font-size="10.00">T1</text>
</g>
<!-- &#45;attrs0&#45;&gt;http://example.org/10000 -->
<g id="edge1" class="edge"><title>&#45;attrs0&#45;&gt;http://example.org/10000</title>
<path fill="none" stroke="gray" stroke-dasharray="5,2" d="M86.0914,-291.136C99.0035,-311.358 117.25,-339.936 128.591,-357.698"/>
</g>
<!-- http://example.org/m -->
<g id="node3" class="node"><title>http://example.org/m</title>
<g id="a_node3"><a xlink:href="http://example.org/m" xlink:title="m">
<ellipse fill="#fffc87" stroke="#808080" cx="285" cy="-266.5" rx="27" ry="18"/>
<text text-anchor="middle" x="285" y="-262.8" font-family="Times New Roman,serif" font-size="14.00">m</text>
</a>
</g>
</g>
<!-- http://example.org/m&#45;&gt;http://example.org/10000 -->
<g id="edge3" class="edge"><title>http://example.org/m&#45;&gt;http://example.org/10000</title>
<path fill="none" stroke="darkgreen" d="M267.389,-280.346C242.262,-298.675 195.897,-332.496 166.3,-354.086"/>
<polygon fill="darkgreen" stroke="darkgreen" points="164.078,-351.375 158.061,-360.096 168.203,-357.03 164.078,-351.375"/>
<text text-anchor="middle" x="243.5" y="-327.8" font-family="Times New Roman,serif" font-size="14.00">der ref</text>
<text text-anchor="middle" x="243.5" y="-312.8" font-family="Times New Roman,serif" font-size="14.00">T2</text>
</g>
<!-- &#45;attrs1 -->
<g id="node4" class="node"><title>&#45;attrs1</title>
<polygon fill="none" stroke="gray" points="429.5,-161 294.5,-161 294.5,-99 435.5,-99 435.5,-155 429.5,-161"/>
<polyline fill="none" stroke="gray" points="429.5,-161 429.5,-155 "/>
<polyline fill="none" stroke="gray" points="435.5,-155 429.5,-155 "/>
<text text-anchor="start" x="305" y="-147" font-family="Times New Roman,serif" font-size="10.00">value:</text>
<text text-anchor="start" x="380" y="-147" font-family="Times New Roman,serif" font-size="10.00">10000</text>
<text text-anchor="start" x="305" y="-134" font-family="Times New Roman,serif" font-size="10.00">type:</text>
<text text-anchor="start" x="380" y="-134" font-family="Times New Roman,serif" font-size="10.00">script:name</text>
<text text-anchor="start" x="305" y="-121" font-family="Times New Roman,serif" font-size="10.00">label:</text>
<text text-anchor="start" x="380" y="-121" font-family="Times New Roman,serif" font-size="10.00">m</text>
<text text-anchor="start" x="305" y="-108" font-family="Times New Roman,serif" font-size="10.00">generatedAtTime:</text>
<text text-anchor="start" x="380" y="-108" font-family="Times New Roman,serif" font-size="10.00">T2</text>
</g>
<!-- &#45;attrs1&#45;&gt;http://example.org/m -->
<g id="edge2" class="edge"><title>&#45;attrs1&#45;&gt;http://example.org/m</title>
<path fill="none" stroke="gray" stroke-dasharray="5,2" d="M360.265,-161.017C356.162,-180.263 348.798,-205.092 336,-224 327.81,-236.1 315.06,-246.475 304.358,-253.825"/>
</g>
<!-- http://example.org/sum -->
<g id="node5" class="node"><title>http://example.org/sum</title>
<g id="a_node5"><a xlink:href="http://example.org/sum" xlink:title="sum">
<ellipse fill="#fffc87" stroke="#808080" cx="187" cy="-266.5" rx="27" ry="18"/>
<text text-anchor="middle" x="187" y="-262.8" font-family="Times New Roman,serif" font-size="14.00">sum</text>
</a>
</g>
</g>
<!-- &#45;attrs2 -->
<g id="node6" class="node"><title>&#45;attrs2</title>
<polygon fill="none" stroke="gray" points="197.5,-161 66.5,-161 66.5,-99 203.5,-99 203.5,-155 197.5,-161"/>
<polyline fill="none" stroke="gray" points="197.5,-161 197.5,-155 "/>
<polyline fill="none" stroke="gray" points="203.5,-155 197.5,-155 "/>
<text text-anchor="start" x="77" y="-147" font-family="Times New Roman,serif" font-size="10.00">value:</text>
<text text-anchor="start" x="152" y="-147" font-family="Times New Roman,serif" font-size="10.00">10001</text>
<text text-anchor="start" x="77" y="-134" font-family="Times New Roman,serif" font-size="10.00">type:</text>
<text text-anchor="start" x="152" y="-134" font-family="Times New Roman,serif" font-size="10.00">script:eval</text>
<text text-anchor="start" x="77" y="-121" font-family="Times New Roman,serif" font-size="10.00">label:</text>
<text text-anchor="start" x="152" y="-121" font-family="Times New Roman,serif" font-size="10.00">m + 1</text>
<text text-anchor="start" x="77" y="-108" font-family="Times New Roman,serif" font-size="10.00">generatedAtTime:</text>
<text text-anchor="start" x="152" y="-108" font-family="Times New Roman,serif" font-size="10.00">T4</text>
</g>
<!-- &#45;attrs2&#45;&gt;http://example.org/sum -->
<g id="edge4" class="edge"><title>&#45;attrs2&#45;&gt;http://example.org/sum</title>
<path fill="none" stroke="gray" stroke-dasharray="5,2" d="M143.286,-161.223C148.698,-179.655 156.351,-203.528 165,-224 168.618,-232.563 173.376,-241.73 177.542,-249.264"/>
</g>
<!-- http://example.org/list -->
<g id="node7" class="node"><title>http://example.org/list</title>
<g id="a_node7"><a xlink:href="http://example.org/list" xlink:title="list">
<ellipse fill="#fffc87" stroke="#808080" cx="249" cy="-130" rx="27" ry="18"/>
<text text-anchor="middle" x="249" y="-126.3" font-family="Times New Roman,serif" font-size="14.00">list</text>
</a>
</g>
</g>
<!-- http://example.org/list&#45;&gt;http://example.org/m -->
<g id="edge6" class="edge"><title>http://example.org/list&#45;&gt;http://example.org/m</title>
<path fill="none" stroke="darkgreen" d="M265.042,-144.801C273.959,-153.57 284.199,-165.74 289,-179 295.908,-198.081 294.419,-221.089 291.468,-238.578"/>
<polygon fill="darkgreen" stroke="darkgreen" points="287.978,-238.185 289.503,-248.669 294.849,-239.523 287.978,-238.185"/>
<text text-anchor="middle" x="312.5" y="-212.8" font-family="Times New Roman,serif" font-size="14.00">der&#45;ins</text>
<text text-anchor="middle" x="312.5" y="-197.8" font-family="Times New Roman,serif" font-size="14.00">[0]</text>
<text text-anchor="middle" x="312.5" y="-182.8" font-family="Times New Roman,serif" font-size="14.00">T5</text>
</g>
<!-- http://example.org/list&#45;&gt;http://example.org/m -->
<g id="edge8" class="edge"><title>http://example.org/list&#45;&gt;http://example.org/m</title>
<path fill="none" stroke="darkgreen" d="M244.562,-147.811C240.368,-166.984 236.064,-198.919 246,-224 249.124,-231.885 254.533,-239.146 260.345,-245.315"/>
<polygon fill="darkgreen" stroke="darkgreen" points="258.161,-248.071 267.781,-252.51 263.029,-243.041 258.161,-248.071"/>
<text text-anchor="middle" x="265.5" y="-212.8" font-family="Times New Roman,serif" font-size="14.00">der&#45;ins</text>
<text text-anchor="middle" x="265.5" y="-197.8" font-family="Times New Roman,serif" font-size="14.00">[2]</text>
<text text-anchor="middle" x="265.5" y="-182.8" font-family="Times New Roman,serif" font-size="14.00">T5</text>
</g>
<!-- http://example.org/list&#45;&gt;http://example.org/sum -->
<g id="edge7" class="edge"><title>http://example.org/list&#45;&gt;http://example.org/sum</title>
<path fill="none" stroke="darkgreen" d="M232.9,-144.556C218.136,-157.148 198.232,-174.599 196,-179 186.74,-197.263 184.765,-220.452 184.956,-238.223"/>
<polygon fill="darkgreen" stroke="darkgreen" points="181.458,-238.361 185.294,-248.238 188.454,-238.125 181.458,-238.361"/>
<text text-anchor="middle" x="215.5" y="-212.8" font-family="Times New Roman,serif" font-size="14.00">der&#45;ins</text>
<text text-anchor="middle" x="215.5" y="-197.8" font-family="Times New Roman,serif" font-size="14.00">[1]</text>
<text text-anchor="middle" x="215.5" y="-182.8" font-family="Times New Roman,serif" font-size="14.00">T5</text>
</g>
<!-- &#45;attrs3 -->
<g id="node8" class="node"><title>&#45;attrs3</title>
<polygon fill="none" stroke="gray" points="332,-62 160,-62 160,-0 338,-0 338,-56 332,-62"/>
<polyline fill="none" stroke="gray" points="332,-62 332,-56 "/>
<polyline fill="none" stroke="gray" points="338,-56 332,-56 "/>
<text text-anchor="start" x="170" y="-48" font-family="Times New Roman,serif" font-size="10.00">value:</text>
<text text-anchor="start" x="245" y="-48" font-family="Times New Roman,serif" font-size="10.00">[10000, 10001, 10000]</text>
<text text-anchor="start" x="170" y="-35" font-family="Times New Roman,serif" font-size="10.00">type:</text>
<text text-anchor="start" x="245" y="-35" font-family="Times New Roman,serif" font-size="10.00">script:list</text>
<text text-anchor="start" x="170" y="-22" font-family="Times New Roman,serif" font-size="10.00">label:</text>
<text text-anchor="start" x="245" y="-22" font-family="Times New Roman,serif" font-size="10.00">[m, m + 1, m]</text>
<text text-anchor="start" x="170" y="-9" font-family="Times New Roman,serif" font-size="10.00">generatedAtTime:</text>
<text text-anchor="start" x="245" y="-9" font-family="Times New Roman,serif" font-size="10.00">T5</text>
</g>
<!-- &#45;attrs3&#45;&gt;http://example.org/list -->
<g id="edge5" class="edge"><title>&#45;attrs3&#45;&gt;http://example.org/list</title>
<path fill="none" stroke="gray" stroke-dasharray="5,2" d="M249,-62.1597C249,-78.5103 249,-98.1223 249,-111.859"/>
</g>
</g>
</svg>
