<?xml version="1.0" encoding="UTF-8" standalone="no"?>
<!DOCTYPE svg PUBLIC "-//W3C//DTD SVG 1.1//EN"
 "http://www.w3.org/Graphics/SVG/1.1/DTD/svg11.dtd">
<!-- Generated by graphviz version 2.38.0 (20140413.2041)
 -->
<!-- Title: PROV Pages: 1 -->
<svg width="599pt" height="501pt"
 viewBox="0.00 0.00 598.50 501.00" xmlns="http://www.w3.org/2000/svg" xmlns:xlink="http://www.w3.org/1999/xlink">
<g id="graph0" class="graph" transform="scale(1 1) rotate(0) translate(4 497)">
<title>PROV</title>
<polygon fill="white" stroke="none" points="-4,4 -4,-497 594.5,-497 594.5,4 -4,4"/>
<!-- http://example.org/m -->
<g id="node1" class="node"><title>http://example.org/m</title>
<g id="a_node1"><a xlink:href="http://example.org/m" xlink:title="m">
<ellipse fill="#fffc87" stroke="#808080" cx="301" cy="-260" rx="27" ry="18"/>
<text text-anchor="middle" x="301" y="-256.3" font-family="Times New Roman,serif" font-size="14.00">m</text>
</a>
</g>
</g>
<!-- &#45;attrs0 -->
<g id="node2" class="node"><title>&#45;attrs0</title>
<polygon fill="none" stroke="gray" points="408,-161 296,-161 296,-99 414,-99 414,-155 408,-161"/>
<polyline fill="none" stroke="gray" points="408,-161 408,-155 "/>
<polyline fill="none" stroke="gray" points="414,-155 408,-155 "/>
<text text-anchor="start" x="306" y="-147" font-family="Times New Roman,serif" font-size="10.00">value:</text>
<text text-anchor="start" x="381" y="-147" font-family="Times New Roman,serif" font-size="10.00">10000</text>
<text text-anchor="start" x="306" y="-134" font-family="Times New Roman,serif" font-size="10.00">type:</text>
<text text-anchor="start" x="381" y="-134" font-family="Times New Roman,serif" font-size="10.00">name</text>
<text text-anchor="start" x="306" y="-121" font-family="Times New Roman,serif" font-size="10.00">label:</text>
<text text-anchor="start" x="381" y="-121" font-family="Times New Roman,serif" font-size="10.00">m</text>
<text text-anchor="start" x="306" y="-108" font-family="Times New Roman,serif" font-size="10.00">generatedAtTime:</text>
<text text-anchor="start" x="381" y="-108" font-family="Times New Roman,serif" font-size="10.00">T2</text>
</g>
<!-- &#45;attrs0&#45;&gt;http://example.org/m -->
<g id="edge1" class="edge"><title>&#45;attrs0&#45;&gt;http://example.org/m</title>
<path fill="none" stroke="gray" stroke-dasharray="5,2" d="M355.648,-161.156C354.846,-180.225 351.503,-204.806 341,-224 336.039,-233.066 327.763,-240.899 320.021,-246.842"/>
</g>
<!-- http://example.org/sum -->
<g id="node3" class="node"><title>http://example.org/sum</title>
<g id="a_node3"><a xlink:href="http://example.org/sum" xlink:title="sum">
<ellipse fill="#fffc87" stroke="#808080" cx="135" cy="-260" rx="27" ry="18"/>
<text text-anchor="middle" x="135" y="-256.3" font-family="Times New Roman,serif" font-size="14.00">sum</text>
</a>
</g>
</g>
<!-- &#45;attrs1 -->
<g id="node4" class="node"><title>&#45;attrs1</title>
<polygon fill="none" stroke="gray" points="172,-161 60,-161 60,-99 178,-99 178,-155 172,-161"/>
<polyline fill="none" stroke="gray" points="172,-161 172,-155 "/>
<polyline fill="none" stroke="gray" points="178,-155 172,-155 "/>
<text text-anchor="start" x="70" y="-147" font-family="Times New Roman,serif" font-size="10.00">value:</text>
<text text-anchor="start" x="145" y="-147" font-family="Times New Roman,serif" font-size="10.00">10001</text>
<text text-anchor="start" x="70" y="-134" font-family="Times New Roman,serif" font-size="10.00">type:</text>
<text text-anchor="start" x="145" y="-134" font-family="Times New Roman,serif" font-size="10.00">eval</text>
<text text-anchor="start" x="70" y="-121" font-family="Times New Roman,serif" font-size="10.00">label:</text>
<text text-anchor="start" x="145" y="-121" font-family="Times New Roman,serif" font-size="10.00">m + 1</text>
<text text-anchor="start" x="70" y="-108" font-family="Times New Roman,serif" font-size="10.00">generatedAtTime:</text>
<text text-anchor="start" x="145" y="-108" font-family="Times New Roman,serif" font-size="10.00">T4</text>
</g>
<!-- &#45;attrs1&#45;&gt;http://example.org/sum -->
<g id="edge2" class="edge"><title>&#45;attrs1&#45;&gt;http://example.org/sum</title>
<path fill="none" stroke="gray" stroke-dasharray="5,2" d="M122.751,-161.01C125.892,-186.134 130.263,-221.102 132.845,-241.76"/>
</g>
<!-- http://example.org/list -->
<g id="node5" class="node"><title>http://example.org/list</title>
<g id="a_node5"><a xlink:href="http://example.org/list" xlink:title="list">
<ellipse fill="#fffc87" stroke="#808080" cx="239" cy="-130" rx="27" ry="18"/>
<text text-anchor="middle" x="239" y="-126.3" font-family="Times New Roman,serif" font-size="14.00">list</text>
</a>
</g>
</g>
<!-- http://example.org/list&#45;&gt;http://example.org/m -->
<g id="edge4" class="edge"><title>http://example.org/list&#45;&gt;http://example.org/m</title>
<path fill="none" stroke="darkgreen" d="M253.785,-145.355C262.256,-154.319 272.469,-166.502 279,-179 287.702,-195.651 293.247,-216.102 296.594,-232.158"/>
<polygon fill="darkgreen" stroke="darkgreen" points="293.159,-232.832 298.487,-241.99 300.033,-231.509 293.159,-232.832"/>
<text text-anchor="middle" x="314.5" y="-212.8" font-family="Times New Roman,serif" font-size="14.00">der&#45;ins</text>
<text text-anchor="middle" x="314.5" y="-197.8" font-family="Times New Roman,serif" font-size="14.00">[0]</text>
<text text-anchor="middle" x="314.5" y="-182.8" font-family="Times New Roman,serif" font-size="14.00">T5</text>
</g>
<!-- http://example.org/list&#45;&gt;http://example.org/m -->
<g id="edge6" class="edge"><title>http://example.org/list&#45;&gt;http://example.org/m</title>
<path fill="none" stroke="darkgreen" d="M233.346,-147.801C227.792,-167.539 222.001,-200.562 236,-224 242.845,-235.461 254.88,-243.389 266.749,-248.763"/>
<polygon fill="darkgreen" stroke="darkgreen" points="265.546,-252.051 276.129,-252.543 268.162,-245.559 265.546,-252.051"/>
<text text-anchor="middle" x="255.5" y="-212.8" font-family="Times New Roman,serif" font-size="14.00">der&#45;ins</text>
<text text-anchor="middle" x="255.5" y="-197.8" font-family="Times New Roman,serif" font-size="14.00">[2]</text>
<text text-anchor="middle" x="255.5" y="-182.8" font-family="Times New Roman,serif" font-size="14.00">T5</text>
</g>
<!-- http://example.org/list&#45;&gt;http://example.org/sum -->
<g id="edge5" class="edge"><title>http://example.org/list&#45;&gt;http://example.org/sum</title>
<path fill="none" stroke="darkgreen" d="M219.342,-142.566C209.652,-148.21 197.763,-155.049 187,-161 172.037,-169.274 163.383,-165.415 153,-179 141.512,-194.031 137.1,-215.014 135.514,-231.719"/>
<polygon fill="darkgreen" stroke="darkgreen" points="132.003,-231.764 134.834,-241.974 138.988,-232.228 132.003,-231.764"/>
<text text-anchor="middle" x="172.5" y="-212.8" font-family="Times New Roman,serif" font-size="14.00">der&#45;ins</text>
<text text-anchor="middle" x="172.5" y="-197.8" font-family="Times New Roman,serif" font-size="14.00">[1]</text>
<text text-anchor="middle" x="172.5" y="-182.8" font-family="Times New Roman,serif" font-size="14.00">T5</text>
</g>
<!-- http://example.org/d_ac1 -->
<g id="node13" class="node"><title>http://example.org/d_ac1</title>
<g id="a_node13"><a xlink:href="http://example.org/d_ac1" xlink:title="d_ac1">
<ellipse fill="#fffc87" stroke="#808080" cx="388" cy="-260" rx="33.2948" ry="18"/>
<text text-anchor="middle" x="388" y="-256.3" font-family="Times New Roman,serif" font-size="14.00">d_ac1</text>
</a>
</g>
</g>
<!-- http://example.org/list&#45;&gt;http://example.org/d_ac1 -->
<g id="edge12" class="edge"><title>http://example.org/list&#45;&gt;http://example.org/d_ac1</title>
<path fill="none" stroke="darkgreen" d="M257.151,-143.664C265.912,-149.429 276.73,-156.052 287,-161 308.655,-171.432 319.245,-163.965 338,-179 355.791,-193.262 369.019,-215.672 377.385,-233.149"/>
<polygon fill="darkgreen" stroke="darkgreen" points="374.206,-234.613 381.531,-242.268 380.578,-231.716 374.206,-234.613"/>
<text text-anchor="middle" x="391.5" y="-212.8" font-family="Times New Roman,serif" font-size="14.00">der&#45;ins</text>
<text text-anchor="middle" x="391.5" y="-197.8" font-family="Times New Roman,serif" font-size="14.00">[1]</text>
<text text-anchor="middle" x="391.5" y="-182.8" font-family="Times New Roman,serif" font-size="14.00">T12</text>
</g>
<!-- &#45;attrs2 -->
<g id="node6" class="node"><title>&#45;attrs2</title>
<polygon fill="none" stroke="gray" points="322,-62 150,-62 150,-0 328,-0 328,-56 322,-62"/>
<polyline fill="none" stroke="gray" points="322,-62 322,-56 "/>
<polyline fill="none" stroke="gray" points="328,-56 322,-56 "/>
<text text-anchor="start" x="160" y="-48" font-family="Times New Roman,serif" font-size="10.00">value:</text>
<text text-anchor="start" x="235" y="-48" font-family="Times New Roman,serif" font-size="10.00">[10000, 10001, 10000]</text>
<text text-anchor="start" x="160" y="-35" font-family="Times New Roman,serif" font-size="10.00">type:</text>
<text text-anchor="start" x="235" y="-35" font-family="Times New Roman,serif" font-size="10.00">list</text>
<text text-anchor="start" x="160" y="-22" font-family="Times New Roman,serif" font-size="10.00">label:</text>
<text text-anchor="start" x="235" y="-22" font-family="Times New Roman,serif" font-size="10.00">[m, m + 1, m]</text>
<text text-anchor="start" x="160" y="-9" font-family="Times New Roman,serif" font-size="10.00">generatedAtTime:</text>
<text text-anchor="start" x="235" y="-9" font-family="Times New Roman,serif" font-size="10.00">T5</text>
</g>
<!-- &#45;attrs2&#45;&gt;http://example.org/list -->
<g id="edge3" class="edge"><title>&#45;attrs2&#45;&gt;http://example.org/list</title>
<path fill="none" stroke="gray" stroke-dasharray="5,2" d="M239,-62.1597C239,-78.5103 239,-98.1223 239,-111.859"/>
</g>
<!-- http://example.org/d -->
<g id="node7" class="node"><title>http://example.org/d</title>
<g id="a_node7"><a xlink:href="http://example.org/d" xlink:title="d">
<ellipse fill="#fffc87" stroke="#808080" cx="222" cy="-475" rx="27" ry="18"/>
<text text-anchor="middle" x="222" y="-471.3" font-family="Times New Roman,serif" font-size="14.00">d</text>
</a>
</g>
</g>
<!-- http://example.org/d&#45;&gt;http://example.org/list -->
<g id="edge8" class="edge"><title>http://example.org/d&#45;&gt;http://example.org/list</title>
<path fill="none" stroke="darkgreen" d="M220.366,-456.898C216.391,-411.358 207.69,-283.497 224,-179 225.122,-171.813 227.102,-164.22 229.263,-157.247"/>
<polygon fill="darkgreen" stroke="darkgreen" points="232.639,-158.187 232.48,-147.593 225.998,-155.974 232.639,-158.187"/>
<text text-anchor="middle" x="233.5" y="-314.8" font-family="Times New Roman,serif" font-size="14.00">der ref</text>
<text text-anchor="middle" x="233.5" y="-299.8" font-family="Times New Roman,serif" font-size="14.00">T6</text>
</g>
<!-- &#45;attrs3 -->
<g id="node8" class="node"><title>&#45;attrs3</title>
<polygon fill="none" stroke="gray" points="172,-406 0,-406 0,-344 178,-344 178,-400 172,-406"/>
<polyline fill="none" stroke="gray" points="172,-406 172,-400 "/>
<polyline fill="none" stroke="gray" points="178,-400 172,-400 "/>
<text text-anchor="start" x="10" y="-392" font-family="Times New Roman,serif" font-size="10.00">value:</text>
<text text-anchor="start" x="85" y="-392" font-family="Times New Roman,serif" font-size="10.00">[10000, 10001, 10000]</text>
<text text-anchor="start" x="10" y="-379" font-family="Times New Roman,serif" font-size="10.00">type:</text>
<text text-anchor="start" x="85" y="-379" font-family="Times New Roman,serif" font-size="10.00">name</text>
<text text-anchor="start" x="10" y="-366" font-family="Times New Roman,serif" font-size="10.00">label:</text>
<text text-anchor="start" x="85" y="-366" font-family="Times New Roman,serif" font-size="10.00">d</text>
<text text-anchor="start" x="10" y="-353" font-family="Times New Roman,serif" font-size="10.00">generatedAtTime:</text>
<text text-anchor="start" x="85" y="-353" font-family="Times New Roman,serif" font-size="10.00">T6</text>
</g>
<!-- &#45;attrs3&#45;&gt;http://example.org/d -->
<g id="edge7" class="edge"><title>&#45;attrs3&#45;&gt;http://example.org/d</title>
<path fill="none" stroke="gray" stroke-dasharray="5,2" d="M129.99,-406.203C155.024,-424.65 185.744,-447.285 204.591,-461.172"/>
</g>
<!-- http://example.org/1 -->
<g id="node9" class="node"><title>http://example.org/1</title>
<g id="a_node9"><a xlink:href="http://example.org/1" xlink:title="1">
<ellipse fill="#fffc87" stroke="#808080" cx="492" cy="-475" rx="27" ry="18"/>
<text text-anchor="middle" x="492" y="-471.3" font-family="Times New Roman,serif" font-size="14.00">1</text>
</a>
</g>
</g>
<!-- &#45;attrs4 -->
<g id="node10" class="node"><title>&#45;attrs4</title>
<polygon fill="none" stroke="gray" points="584.5,-399.5 473.5,-399.5 473.5,-350.5 590.5,-350.5 590.5,-393.5 584.5,-399.5"/>
<polyline fill="none" stroke="gray" points="584.5,-399.5 584.5,-393.5 "/>
<polyline fill="none" stroke="gray" points="590.5,-393.5 584.5,-393.5 "/>
<text text-anchor="start" x="484" y="-385" font-family="Times New Roman,serif" font-size="10.00">value:</text>
<text text-anchor="start" x="559" y="-385" font-family="Times New Roman,serif" font-size="10.00">1</text>
<text text-anchor="start" x="484" y="-372" font-family="Times New Roman,serif" font-size="10.00">type:</text>
<text text-anchor="start" x="559" y="-372" font-family="Times New Roman,serif" font-size="10.00">literal</text>
<text text-anchor="start" x="484" y="-359" font-family="Times New Roman,serif" font-size="10.00">generatedAtTime:</text>
<text text-anchor="start" x="559" y="-359" font-family="Times New Roman,serif" font-size="10.00">T11</text>
</g>
<!-- &#45;attrs4&#45;&gt;http://example.org/1 -->
<g id="edge9" class="edge"><title>&#45;attrs4&#45;&gt;http://example.org/1</title>
<path fill="none" stroke="gray" stroke-dasharray="5,2" d="M522.317,-399.723C515.011,-417.624 505.175,-441.722 498.715,-457.549"/>
</g>
<!-- http://example.org/3 -->
<g id="node11" class="node"><title>http://example.org/3</title>
<g id="a_node11"><a xlink:href="http://example.org/3" xlink:title="3">
<ellipse fill="#fffc87" stroke="#808080" cx="320" cy="-475" rx="27" ry="18"/>
<text text-anchor="middle" x="320" y="-471.3" font-family="Times New Roman,serif" font-size="14.00">3</text>
</a>
</g>
</g>
<!-- &#45;attrs5 -->
<g id="node12" class="node"><title>&#45;attrs5</title>
<polygon fill="none" stroke="gray" points="372.5,-399.5 261.5,-399.5 261.5,-350.5 378.5,-350.5 378.5,-393.5 372.5,-399.5"/>
<polyline fill="none" stroke="gray" points="372.5,-399.5 372.5,-393.5 "/>
<polyline fill="none" stroke="gray" points="378.5,-393.5 372.5,-393.5 "/>
<text text-anchor="start" x="272" y="-385" font-family="Times New Roman,serif" font-size="10.00">value:</text>
<text text-anchor="start" x="347" y="-385" font-family="Times New Roman,serif" font-size="10.00">3</text>
<text text-anchor="start" x="272" y="-372" font-family="Times New Roman,serif" font-size="10.00">type:</text>
<text text-anchor="start" x="347" y="-372" font-family="Times New Roman,serif" font-size="10.00">literal</text>
<text text-anchor="start" x="272" y="-359" font-family="Times New Roman,serif" font-size="10.00">generatedAtTime:</text>
<text text-anchor="start" x="347" y="-359" font-family="Times New Roman,serif" font-size="10.00">T10</text>
</g>
<!-- &#45;attrs5&#45;&gt;http://example.org/3 -->
<g id="edge10" class="edge"><title>&#45;attrs5&#45;&gt;http://example.org/3</title>
<path fill="none" stroke="gray" stroke-dasharray="5,2" d="M320,-399.723C320,-417.397 320,-441.113 320,-456.944"/>
</g>
<!-- http://example.org/assign4 -->
<g id="node15" class="node"><title>http://example.org/assign4</title>
<g id="a_node15"><a xlink:href="http://example.org/assign4" xlink:title="assign4">
<polygon fill="#9fb1fc" stroke="#0000ff" points="455,-393 397,-393 397,-357 455,-357 455,-393"/>
<text text-anchor="middle" x="426" y="-371.3" font-family="Times New Roman,serif" font-size="14.00">assign4</text>
</a>
</g>
</g>
<!-- http://example.org/d_ac1&#45;&gt;http://example.org/assign4 -->
<g id="edge17" class="edge"><title>http://example.org/d_ac1&#45;&gt;http://example.org/assign4</title>
<path fill="none" stroke="black" d="M393.771,-278.162C399.937,-296.497 409.793,-325.805 416.984,-347.188"/>
<polygon fill="black" stroke="black" points="413.669,-348.313 420.174,-356.676 420.304,-346.082 413.669,-348.313"/>
<text text-anchor="middle" x="408.475" y="-279.23" font-family="Times New Roman,serif" font-size="8.00">gen</text>
</g>
<!-- bn0 -->
<g id="node17" class="node"><title>bn0</title>
<ellipse fill="black" stroke="black" cx="242" cy="-375" rx="1.8" ry="1.8"/>
</g>
<!-- http://example.org/d_ac1&#45;&gt;bn0 -->
<g id="edge18" class="edge"><title>http://example.org/d_ac1&#45;&gt;bn0</title>
<path fill="none" stroke="darkgreen" d="M361.097,-270.791C330.467,-283.259 280.941,-307.642 252,-344 244.341,-353.622 242.429,-369.374 242.071,-373.162"/>
<text text-anchor="middle" x="333.5" y="-314.8" font-family="Times New Roman,serif" font-size="14.00">der ac&#45;w</text>
<text text-anchor="middle" x="333.5" y="-299.8" font-family="Times New Roman,serif" font-size="14.00">T12</text>
</g>
<!-- &#45;attrs6 -->
<g id="node14" class="node"><title>&#45;attrs6</title>
<polygon fill="none" stroke="gray" points="549.5,-161 432.5,-161 432.5,-99 555.5,-99 555.5,-155 549.5,-161"/>
<polyline fill="none" stroke="gray" points="549.5,-161 549.5,-155 "/>
<polyline fill="none" stroke="gray" points="555.5,-155 549.5,-155 "/>
<text text-anchor="start" x="443" y="-147" font-family="Times New Roman,serif" font-size="10.00">value:</text>
<text text-anchor="start" x="518" y="-147" font-family="Times New Roman,serif" font-size="10.00">3</text>
<text text-anchor="start" x="443" y="-134" font-family="Times New Roman,serif" font-size="10.00">type:</text>
<text text-anchor="start" x="518" y="-134" font-family="Times New Roman,serif" font-size="10.00">access</text>
<text text-anchor="start" x="443" y="-121" font-family="Times New Roman,serif" font-size="10.00">label:</text>
<text text-anchor="start" x="518" y="-121" font-family="Times New Roman,serif" font-size="10.00">d[1]</text>
<text text-anchor="start" x="443" y="-108" font-family="Times New Roman,serif" font-size="10.00">generatedAtTime:</text>
<text text-anchor="start" x="518" y="-108" font-family="Times New Roman,serif" font-size="10.00">T12</text>
</g>
<!-- &#45;attrs6&#45;&gt;http://example.org/d_ac1 -->
<g id="edge11" class="edge"><title>&#45;attrs6&#45;&gt;http://example.org/d_ac1</title>
<path fill="none" stroke="gray" stroke-dasharray="5,2" d="M476.739,-161.103C465.084,-180.151 448.65,-204.729 431,-224 423.979,-231.666 415.229,-239.093 407.458,-245.119"/>
</g>
<!-- http://example.org/assign4&#45;&gt;http://example.org/d -->
<g id="edge14" class="edge"><title>http://example.org/assign4&#45;&gt;http://example.org/d</title>
<path fill="none" stroke="black" d="M406.242,-393.296C400.579,-397.773 394.242,-402.355 388,-406 344.674,-431.3 290.141,-451.686 255.662,-463.324"/>
<polygon fill="black" stroke="black" points="254.455,-460.037 246.068,-466.511 256.662,-466.68 254.455,-460.037"/>
<text text-anchor="middle" x="408.345" y="-406.247" font-family="Times New Roman,serif" font-size="8.00">use</text>
</g>
<!-- http://example.org/assign4&#45;&gt;http://example.org/1 -->
<g id="edge15" class="edge"><title>http://example.org/assign4&#45;&gt;http://example.org/1</title>
<path fill="none" stroke="black" d="M437.496,-393.07C448.001,-408.668 463.654,-431.91 475.494,-449.491"/>
<polygon fill="black" stroke="black" points="472.801,-451.759 481.29,-458.098 478.607,-447.848 472.801,-451.759"/>
<text text-anchor="middle" x="452.461" y="-390.135" font-family="Times New Roman,serif" font-size="8.00">use</text>
</g>
<!-- http://example.org/assign4&#45;&gt;http://example.org/3 -->
<g id="edge16" class="edge"><title>http://example.org/assign4&#45;&gt;http://example.org/3</title>
<path fill="none" stroke="black" d="M407.536,-393.07C389.498,-409.747 362.007,-435.163 342.655,-453.055"/>
<polygon fill="black" stroke="black" points="340.133,-450.62 335.166,-459.979 344.885,-455.76 340.133,-450.62"/>
<text text-anchor="middle" x="410.848" y="-405.8" font-family="Times New Roman,serif" font-size="8.00">use</text>
</g>
<!-- &#45;attrs7 -->
<g id="node16" class="node"><title>&#45;attrs7</title>
<polygon fill="none" stroke="gray" points="503,-278 439,-278 439,-242 509,-242 509,-272 503,-278"/>
<polyline fill="none" stroke="gray" points="503,-278 503,-272 "/>
<polyline fill="none" stroke="gray" points="509,-272 503,-272 "/>
<text text-anchor="start" x="449" y="-257" font-family="Times New Roman,serif" font-size="10.00">type:</text>
<text text-anchor="start" x="472" y="-257" font-family="Times New Roman,serif" font-size="10.00">assign</text>
</g>
<!-- &#45;attrs7&#45;&gt;http://example.org/assign4 -->
<g id="edge13" class="edge"><title>&#45;attrs7&#45;&gt;http://example.org/assign4</title>
<path fill="none" stroke="gray" stroke-dasharray="5,2" d="M466.71,-278.162C457.688,-299.401 442.412,-335.363 433.359,-356.676"/>
</g>
<!-- bn0&#45;&gt;http://example.org/d -->
<g id="edge19" class="edge"><title>bn0&#45;&gt;http://example.org/d</title>
<path fill="none" stroke="darkgreen" d="M241.775,-377.101C240.395,-383.865 232.943,-420.379 227.594,-446.591"/>
<polygon fill="darkgreen" stroke="darkgreen" points="224.094,-446.235 225.524,-456.733 230.953,-447.635 224.094,-446.235"/>
<text text-anchor="middle" x="240" y="-427.8" font-family="Times New Roman,serif" font-size="14.00">[1]</text>
</g>
<!-- bn0&#45;&gt;http://example.org/3 -->
<g id="edge20" class="edge"><title>bn0&#45;&gt;http://example.org/3</title>
<path fill="none" stroke="darkgreen" d="M242.127,-376.799C242.727,-380.416 245.535,-395.539 252,-406 263.373,-424.402 280.653,-441.596 294.947,-454.09"/>
<polygon fill="darkgreen" stroke="darkgreen" points="293.061,-457.08 302.951,-460.878 297.588,-451.741 293.061,-457.08"/>
</g>
</g>
</svg>
