<?xml version="1.0" encoding="UTF-8" standalone="no"?>
<!DOCTYPE svg PUBLIC "-//W3C//DTD SVG 1.1//EN"
 "http://www.w3.org/Graphics/SVG/1.1/DTD/svg11.dtd">
<!-- Generated by graphviz version 2.38.0 (20140413.2041)
 -->
<!-- Title: PROV Pages: 1 -->
<svg width="511pt" height="320pt"
 viewBox="0.00 0.00 510.94 320.00" xmlns="http://www.w3.org/2000/svg" xmlns:xlink="http://www.w3.org/1999/xlink">
<g id="graph0" class="graph" transform="scale(1 1) rotate(0) translate(4 316)">
<title>PROV</title>
<polygon fill="white" stroke="none" points="-4,4 -4,-316 506.941,-316 506.941,4 -4,4"/>
<!-- http://example.org/i#5 -->
<g id="node1" class="node"><title>http://example.org/i#5</title>
<g id="a_node1"><a xlink:href="http://example.org/i#5" xlink:title="i#5">
<ellipse fill="#fffc87" stroke="#808080" cx="314.941" cy="-104" rx="27" ry="18"/>
<text text-anchor="middle" x="314.941" y="-100.3" font-family="Times New Roman,serif" font-size="14.00">i#5</text>
</a>
</g>
</g>
<!-- http://example.org/access61 -->
<g id="node3" class="node"><title>http://example.org/access61</title>
<g id="a_node3"><a xlink:href="http://example.org/access61" xlink:title="access61">
<polygon fill="#9fb1fc" stroke="#0000ff" points="214.941,-195 146.941,-195 146.941,-159 214.941,-159 214.941,-195"/>
<text text-anchor="middle" x="180.941" y="-173.3" font-family="Times New Roman,serif" font-size="14.00">access61</text>
</a>
</g>
</g>
<!-- http://example.org/i#5&#45;&gt;http://example.org/access61 -->
<g id="edge5" class="edge"><title>http://example.org/i#5&#45;&gt;http://example.org/access61</title>
<path fill="none" stroke="black" d="M294.297,-115.938C275.093,-126.113 245.923,-141.569 221.984,-154.253"/>
<polygon fill="black" stroke="black" points="220.294,-151.188 213.096,-158.962 223.571,-157.373 220.294,-151.188"/>
<text text-anchor="middle" x="293.752" y="-129.028" font-family="Times New Roman,serif" font-size="8.00">gen</text>
</g>
<!-- http://example.org/range_nodes1 -->
<g id="node5" class="node"><title>http://example.org/range_nodes1</title>
<ellipse fill="none" stroke="black" cx="358.941" cy="-294" rx="129.177" ry="18"/>
<text text-anchor="middle" x="358.941" y="-290.3" font-family="Times New Roman,serif" font-size="14.00">http://example.org/range_nodes1</text>
</g>
<!-- http://example.org/i#5&#45;&gt;http://example.org/range_nodes1 -->
<g id="edge4" class="edge"><title>http://example.org/i#5&#45;&gt;http://example.org/range_nodes1</title>
<path fill="none" stroke="darkgreen" d="M320.129,-121.707C326.56,-142.821 337.568,-180.351 344.941,-213 348.877,-230.433 352.348,-250.214 354.849,-265.745"/>
<polygon fill="darkgreen" stroke="darkgreen" points="351.409,-266.402 356.419,-275.737 358.324,-265.315 351.409,-266.402"/>
<text text-anchor="middle" x="421.441" y="-180.8" font-family="Times New Roman,serif" font-size="14.00">der ref</text>
<text text-anchor="middle" x="421.441" y="-165.8" font-family="Times New Roman,serif" font-size="14.00">2018&#45;03&#45;03T19:40:16.240059</text>
</g>
<!-- &#45;attrs0 -->
<g id="node2" class="node"><title>&#45;attrs0</title>
<polygon fill="none" stroke="gray" points="347.941,-49 275.941,-49 275.941,-0 353.941,-0 353.941,-43 347.941,-49"/>
<polyline fill="none" stroke="gray" points="347.941,-49 347.941,-43 "/>
<polyline fill="none" stroke="gray" points="353.941,-43 347.941,-43 "/>
<text text-anchor="start" x="285.941" y="-34.5" font-family="Times New Roman,serif" font-size="10.00">value:</text>
<text text-anchor="start" x="312.941" y="-34.5" font-family="Times New Roman,serif" font-size="10.00">&quot;1&quot;</text>
<text text-anchor="start" x="285.941" y="-21.5" font-family="Times New Roman,serif" font-size="10.00">type:</text>
<text text-anchor="start" x="312.941" y="-21.5" font-family="Times New Roman,serif" font-size="10.00">&quot;name&quot;</text>
<text text-anchor="start" x="285.941" y="-8.5" font-family="Times New Roman,serif" font-size="10.00">label:</text>
<text text-anchor="start" x="312.941" y="-8.5" font-family="Times New Roman,serif" font-size="10.00">&quot;i&quot;</text>
</g>
<!-- &#45;attrs0&#45;&gt;http://example.org/i#5 -->
<g id="edge1" class="edge"><title>&#45;attrs0&#45;&gt;http://example.org/i#5</title>
<path fill="none" stroke="gray" stroke-dasharray="5,2" d="M314.941,-49.1737C314.941,-60.9254 314.941,-74.869 314.941,-85.6196"/>
</g>
<!-- http://example.org/access61&#45;&gt;http://example.org/range_nodes1 -->
<g id="edge3" class="edge"><title>http://example.org/access61&#45;&gt;http://example.org/range_nodes1</title>
<path fill="none" stroke="darkgreen" d="M175.507,-195.112C171.013,-212.923 167.459,-240.597 181.941,-258 187.654,-264.866 223.411,-272.561 261.307,-278.984"/>
<polygon fill="darkgreen" stroke="darkgreen" points="261.06,-282.491 271.498,-280.674 262.205,-275.585 261.06,-282.491"/>
<text text-anchor="middle" x="263.441" y="-246.8" font-family="Times New Roman,serif" font-size="14.00">use</text>
<text text-anchor="middle" x="263.441" y="-231.8" font-family="Times New Roman,serif" font-size="14.00">indexes[1]</text>
<text text-anchor="middle" x="263.441" y="-216.8" font-family="Times New Roman,serif" font-size="14.00">2018&#45;03&#45;03T19:40:16.240059</text>
</g>
<!-- http://example.org/indexes -->
<g id="node6" class="node"><title>http://example.org/indexes</title>
<ellipse fill="none" stroke="black" cx="105.941" cy="-294" rx="105.881" ry="18"/>
<text text-anchor="middle" x="105.941" y="-290.3" font-family="Times New Roman,serif" font-size="14.00">http://example.org/indexes</text>
</g>
<!-- http://example.org/access61&#45;&gt;http://example.org/indexes -->
<g id="edge6" class="edge"><title>http://example.org/access61&#45;&gt;http://example.org/indexes</title>
<path fill="none" stroke="black" d="M169.55,-195.466C157.088,-214.574 136.99,-245.391 122.723,-267.267"/>
<polygon fill="black" stroke="black" points="119.724,-265.458 117.193,-275.746 125.587,-269.282 119.724,-265.458"/>
<text text-anchor="middle" x="176.334" y="-206.944" font-family="Times New Roman,serif" font-size="8.00">use</text>
</g>
<!-- &#45;attrs1 -->
<g id="node4" class="node"><title>&#45;attrs1</title>
<polygon fill="none" stroke="gray" points="214.941,-122 140.941,-122 140.941,-86 220.941,-86 220.941,-116 214.941,-122"/>
<polyline fill="none" stroke="gray" points="214.941,-122 214.941,-116 "/>
<polyline fill="none" stroke="gray" points="220.941,-116 214.941,-116 "/>
<text text-anchor="start" x="150.941" y="-101" font-family="Times New Roman,serif" font-size="10.00">type:</text>
<text text-anchor="start" x="173.941" y="-101" font-family="Times New Roman,serif" font-size="10.00">&quot;access&quot;</text>
</g>
<!-- &#45;attrs1&#45;&gt;http://example.org/access61 -->
<g id="edge2" class="edge"><title>&#45;attrs1&#45;&gt;http://example.org/access61</title>
<path fill="none" stroke="gray" stroke-dasharray="5,2" d="M180.941,-122.187C180.941,-133.35 180.941,-147.84 180.941,-158.971"/>
</g>
</g>
</svg>
