<?xml version="1.0" encoding="UTF-8" standalone="no"?>
<!DOCTYPE svg PUBLIC "-//W3C//DTD SVG 1.1//EN"
 "http://www.w3.org/Graphics/SVG/1.1/DTD/svg11.dtd">
<!-- Generated by graphviz version 2.38.0 (20140413.2041)
 -->
<!-- Title: PROV Pages: 1 -->
<svg width="593pt" height="478pt"
 viewBox="0.00 0.00 593.33 478.00" xmlns="http://www.w3.org/2000/svg" xmlns:xlink="http://www.w3.org/1999/xlink">
<g id="graph0" class="graph" transform="scale(1 1) rotate(0) translate(4 474)">
<title>PROV</title>
<polygon fill="white" stroke="none" points="-4,4 -4,-474 589.334,-474 589.334,4 -4,4"/>
<!-- http://example.org/dist_ai#2 -->
<g id="node1" class="node"><title>http://example.org/dist_ai#2</title>
<g id="a_node1"><a xlink:href="http://example.org/dist_ai#2" xlink:title="dist_ai#2">
<ellipse fill="#fffc87" stroke="#808080" cx="153.642" cy="-263" rx="44.393" ry="18"/>
<text text-anchor="middle" x="153.642" y="-259.3" font-family="Times New Roman,serif" font-size="14.00">dist_ai#2</text>
</a>
</g>
</g>
<!-- http://example.org/access18 -->
<g id="node3" class="node"><title>http://example.org/access18</title>
<g id="a_node3"><a xlink:href="http://example.org/access18" xlink:title="access18">
<polygon fill="#9fb1fc" stroke="#0000ff" points="328.642,-383 260.642,-383 260.642,-347 328.642,-347 328.642,-383"/>
<text text-anchor="middle" x="294.642" y="-361.3" font-family="Times New Roman,serif" font-size="14.00">access18</text>
</a>
</g>
</g>
<!-- http://example.org/dist_ai#2&#45;&gt;http://example.org/access18 -->
<g id="edge7" class="edge"><title>http://example.org/dist_ai#2&#45;&gt;http://example.org/access18</title>
<path fill="none" stroke="black" d="M196.208,-268.186C219.75,-272.499 248.104,-281.25 267.642,-299 278.49,-308.855 285.099,-323.743 289.061,-336.785"/>
<polygon fill="black" stroke="black" points="285.749,-337.952 291.701,-346.717 292.515,-336.154 285.749,-337.952"/>
<text text-anchor="middle" x="206.099" y="-255.009" font-family="Times New Roman,serif" font-size="8.00">gen</text>
</g>
<!-- bn0 -->
<g id="node6" class="node"><title>bn0</title>
<ellipse fill="black" stroke="black" cx="103.642" cy="-365" rx="1.8" ry="1.8"/>
</g>
<!-- http://example.org/dist_ai#2&#45;&gt;bn0 -->
<g id="edge4" class="edge"><title>http://example.org/dist_ai#2&#45;&gt;bn0</title>
<path fill="none" stroke="darkgreen" d="M126.123,-277.171C117.696,-282.671 109.4,-289.927 104.642,-299 92.482,-322.189 101.541,-356.732 103.346,-363.005"/>
<text text-anchor="middle" x="186.142" y="-317.8" font-family="Times New Roman,serif" font-size="14.00">der ac&#45;r</text>
<text text-anchor="middle" x="186.142" y="-302.8" font-family="Times New Roman,serif" font-size="14.00">2018&#45;03&#45;04T13:54:41.047057</text>
</g>
<!-- &#45;attrs0 -->
<g id="node2" class="node"><title>&#45;attrs0</title>
<polygon fill="none" stroke="gray" points="97.1419,-208 0.141869,-208 0.141869,-159 103.142,-159 103.142,-202 97.1419,-208"/>
<polyline fill="none" stroke="gray" points="97.1419,-208 97.1419,-202 "/>
<polyline fill="none" stroke="gray" points="103.142,-202 97.1419,-202 "/>
<text text-anchor="start" x="10.6419" y="-193.5" font-family="Times New Roman,serif" font-size="10.00">value:</text>
<text text-anchor="start" x="37.6419" y="-193.5" font-family="Times New Roman,serif" font-size="10.00">&quot;[10000, 0, 2]&quot;</text>
<text text-anchor="start" x="10.6419" y="-180.5" font-family="Times New Roman,serif" font-size="10.00">type:</text>
<text text-anchor="start" x="37.6419" y="-180.5" font-family="Times New Roman,serif" font-size="10.00">&quot;access&quot;</text>
<text text-anchor="start" x="10.6419" y="-167.5" font-family="Times New Roman,serif" font-size="10.00">label:</text>
<text text-anchor="start" x="37.6419" y="-167.5" font-family="Times New Roman,serif" font-size="10.00">&quot;dist[i]&quot;</text>
</g>
<!-- &#45;attrs0&#45;&gt;http://example.org/dist_ai#2 -->
<g id="edge1" class="edge"><title>&#45;attrs0&#45;&gt;http://example.org/dist_ai#2</title>
<path fill="none" stroke="gray" stroke-dasharray="5,2" d="M82.7995,-208.174C99.3209,-220.727 119.134,-235.781 133.6,-246.772"/>
</g>
<!-- http://example.org/list1 -->
<g id="node5" class="node"><title>http://example.org/list1</title>
<ellipse fill="none" stroke="black" cx="294.642" cy="-452" rx="92.8835" ry="18"/>
<text text-anchor="middle" x="294.642" y="-448.3" font-family="Times New Roman,serif" font-size="14.00">http://example.org/list1</text>
</g>
<!-- http://example.org/access18&#45;&gt;http://example.org/list1 -->
<g id="edge3" class="edge"><title>http://example.org/access18&#45;&gt;http://example.org/list1</title>
<path fill="none" stroke="black" d="M294.642,-383.201C294.642,-394.837 294.642,-410.452 294.642,-423.763"/>
<polygon fill="black" stroke="black" points="291.142,-423.825 294.642,-433.825 298.142,-423.825 291.142,-423.825"/>
<text text-anchor="middle" x="307.632" y="-388.801" font-family="Times New Roman,serif" font-size="8.00">use</text>
</g>
<!-- http://example.org/dist -->
<g id="node7" class="node"><title>http://example.org/dist</title>
<ellipse fill="none" stroke="black" cx="91.6419" cy="-452" rx="91.784" ry="18"/>
<text text-anchor="middle" x="91.6419" y="-448.3" font-family="Times New Roman,serif" font-size="14.00">http://example.org/dist</text>
</g>
<!-- http://example.org/access18&#45;&gt;http://example.org/dist -->
<g id="edge8" class="edge"><title>http://example.org/access18&#45;&gt;http://example.org/dist</title>
<path fill="none" stroke="black" d="M260.206,-380.419C226.666,-394.463 175.441,-415.912 138.263,-431.479"/>
<polygon fill="black" stroke="black" points="136.528,-428.411 128.656,-435.502 139.232,-434.868 136.528,-428.411"/>
<text text-anchor="middle" x="258.305" y="-393.398" font-family="Times New Roman,serif" font-size="8.00">use</text>
</g>
<!-- http://example.org/i#2 -->
<g id="node8" class="node"><title>http://example.org/i#2</title>
<ellipse fill="none" stroke="black" cx="495.642" cy="-452" rx="89.8845" ry="18"/>
<text text-anchor="middle" x="495.642" y="-448.3" font-family="Times New Roman,serif" font-size="14.00">http://example.org/i#2</text>
</g>
<!-- http://example.org/access18&#45;&gt;http://example.org/i#2 -->
<g id="edge9" class="edge"><title>http://example.org/access18&#45;&gt;http://example.org/i#2</title>
<path fill="none" stroke="black" d="M328.739,-380.419C361.948,-394.463 412.668,-415.912 449.48,-431.479"/>
<polygon fill="black" stroke="black" points="448.419,-434.83 458.993,-435.502 451.146,-428.383 448.419,-434.83"/>
<text text-anchor="middle" x="340.706" y="-369.476" font-family="Times New Roman,serif" font-size="8.00">use</text>
</g>
<!-- &#45;attrs1 -->
<g id="node4" class="node"><title>&#45;attrs1</title>
<polygon fill="none" stroke="gray" points="340.642,-281 266.642,-281 266.642,-245 346.642,-245 346.642,-275 340.642,-281"/>
<polyline fill="none" stroke="gray" points="340.642,-281 340.642,-275 "/>
<polyline fill="none" stroke="gray" points="346.642,-275 340.642,-275 "/>
<text text-anchor="start" x="276.642" y="-260" font-family="Times New Roman,serif" font-size="10.00">type:</text>
<text text-anchor="start" x="299.642" y="-260" font-family="Times New Roman,serif" font-size="10.00">&quot;access&quot;</text>
</g>
<!-- &#45;attrs1&#45;&gt;http://example.org/access18 -->
<g id="edge2" class="edge"><title>&#45;attrs1&#45;&gt;http://example.org/access18</title>
<path fill="none" stroke="gray" stroke-dasharray="5,2" d="M304.552,-281.419C302.349,-299.773 298.902,-328.502 296.708,-346.781"/>
</g>
<!-- bn0&#45;&gt;http://example.org/list1 -->
<g id="edge6" class="edge"><title>bn0&#45;&gt;http://example.org/list1</title>
<path fill="none" stroke="darkgreen" d="M104.862,-366.543C115.771,-371.398 197.41,-407.729 249.999,-431.133"/>
<polygon fill="darkgreen" stroke="darkgreen" points="248.577,-434.331 259.136,-435.199 251.423,-427.935 248.577,-434.331"/>
</g>
<!-- bn0&#45;&gt;http://example.org/dist -->
<g id="edge5" class="edge"><title>bn0&#45;&gt;http://example.org/dist</title>
<path fill="none" stroke="darkgreen" d="M103.507,-366.955C102.72,-372.528 98.6455,-401.391 95.4882,-423.755"/>
<polygon fill="darkgreen" stroke="darkgreen" points="92.0062,-423.382 94.0739,-433.773 98.9375,-424.361 92.0062,-423.382"/>
<text text-anchor="middle" x="106.642" y="-404.8" font-family="Times New Roman,serif" font-size="14.00">[1]</text>
</g>
<!-- http://example.org/disti#2 -->
<g id="node9" class="node"><title>http://example.org/disti#2</title>
<g id="a_node9"><a xlink:href="http://example.org/disti#2" xlink:title="disti#2">
<ellipse fill="#fffc87" stroke="#808080" cx="222.642" cy="-104" rx="35.194" ry="18"/>
<text text-anchor="middle" x="222.642" y="-100.3" font-family="Times New Roman,serif" font-size="14.00">disti#2</text>
</a>
</g>
</g>
<!-- http://example.org/disti#2&#45;&gt;http://example.org/dist_ai#2 -->
<g id="edge13" class="edge"><title>http://example.org/disti#2&#45;&gt;http://example.org/dist_ai#2</title>
<path fill="none" stroke="darkgreen" d="M220.318,-122.151C216.984,-143.221 209.639,-179.657 195.642,-208 190.408,-218.599 182.895,-229.119 175.666,-238.02"/>
<polygon fill="darkgreen" stroke="darkgreen" points="172.962,-235.797 169.181,-245.694 178.309,-240.315 172.962,-235.797"/>
<text text-anchor="middle" x="294.142" y="-187.3" font-family="Times New Roman,serif" font-size="14.00">der ref</text>
<text text-anchor="middle" x="294.142" y="-172.3" font-family="Times New Roman,serif" font-size="14.00">2018&#45;03&#45;04T13:54:41.047057</text>
</g>
<!-- http://example.org/assign11 -->
<g id="node11" class="node"><title>http://example.org/assign11</title>
<g id="a_node11"><a xlink:href="http://example.org/assign11" xlink:title="assign11">
<polygon fill="#9fb1fc" stroke="#0000ff" points="186.142,-201.5 121.142,-201.5 121.142,-165.5 186.142,-165.5 186.142,-201.5"/>
<text text-anchor="middle" x="153.642" y="-179.8" font-family="Times New Roman,serif" font-size="14.00">assign11</text>
</a>
</g>
</g>
<!-- http://example.org/disti#2&#45;&gt;http://example.org/assign11 -->
<g id="edge14" class="edge"><title>http://example.org/disti#2&#45;&gt;http://example.org/assign11</title>
<path fill="none" stroke="black" d="M208.679,-120.683C199.182,-131.35 186.42,-145.684 175.577,-157.863"/>
<polygon fill="black" stroke="black" points="172.817,-155.699 168.782,-165.495 178.045,-160.354 172.817,-155.699"/>
<text text-anchor="middle" x="213.394" y="-133.023" font-family="Times New Roman,serif" font-size="8.00">gen</text>
</g>
<!-- &#45;attrs2 -->
<g id="node10" class="node"><title>&#45;attrs2</title>
<polygon fill="none" stroke="gray" points="268.142,-49 171.142,-49 171.142,-0 274.142,-0 274.142,-43 268.142,-49"/>
<polyline fill="none" stroke="gray" points="268.142,-49 268.142,-43 "/>
<polyline fill="none" stroke="gray" points="274.142,-43 268.142,-43 "/>
<text text-anchor="start" x="181.642" y="-34.5" font-family="Times New Roman,serif" font-size="10.00">value:</text>
<text text-anchor="start" x="208.642" y="-34.5" font-family="Times New Roman,serif" font-size="10.00">&quot;[10000, 0, 2]&quot;</text>
<text text-anchor="start" x="181.642" y="-21.5" font-family="Times New Roman,serif" font-size="10.00">type:</text>
<text text-anchor="start" x="208.642" y="-21.5" font-family="Times New Roman,serif" font-size="10.00">&quot;name&quot;</text>
<text text-anchor="start" x="181.642" y="-8.5" font-family="Times New Roman,serif" font-size="10.00">label:</text>
<text text-anchor="start" x="208.642" y="-8.5" font-family="Times New Roman,serif" font-size="10.00">&quot;disti&quot;</text>
</g>
<!-- &#45;attrs2&#45;&gt;http://example.org/disti#2 -->
<g id="edge10" class="edge"><title>&#45;attrs2&#45;&gt;http://example.org/disti#2</title>
<path fill="none" stroke="gray" stroke-dasharray="5,2" d="M222.642,-49.1737C222.642,-60.9254 222.642,-74.869 222.642,-85.6196"/>
</g>
<!-- http://example.org/assign11&#45;&gt;http://example.org/dist_ai#2 -->
<g id="edge12" class="edge"><title>http://example.org/assign11&#45;&gt;http://example.org/dist_ai#2</title>
<path fill="none" stroke="black" d="M153.642,-201.7C153.642,-211.432 153.642,-223.824 153.642,-234.84"/>
<polygon fill="black" stroke="black" points="150.142,-234.848 153.642,-244.848 157.142,-234.848 150.142,-234.848"/>
<text text-anchor="middle" x="166.632" y="-207.3" font-family="Times New Roman,serif" font-size="8.00">use</text>
</g>
<!-- &#45;attrs3 -->
<g id="node12" class="node"><title>&#45;attrs3</title>
<polygon fill="none" stroke="gray" points="163.142,-122 90.1419,-122 90.1419,-86 169.142,-86 169.142,-116 163.142,-122"/>
<polyline fill="none" stroke="gray" points="163.142,-122 163.142,-116 "/>
<polyline fill="none" stroke="gray" points="169.142,-116 163.142,-116 "/>
<text text-anchor="start" x="100.642" y="-101" font-family="Times New Roman,serif" font-size="10.00">type:</text>
<text text-anchor="start" x="123.642" y="-101" font-family="Times New Roman,serif" font-size="10.00">&quot;assign&quot;</text>
</g>
<!-- &#45;attrs3&#45;&gt;http://example.org/assign11 -->
<g id="edge11" class="edge"><title>&#45;attrs3&#45;&gt;http://example.org/assign11</title>
<path fill="none" stroke="gray" stroke-dasharray="5,2" d="M134.968,-122.2C138.945,-135.043 144.357,-152.517 148.33,-165.348"/>
</g>
</g>
</svg>
