<?xml version="1.0" encoding="UTF-8" standalone="no"?>
<!DOCTYPE svg PUBLIC "-//W3C//DTD SVG 1.1//EN"
 "http://www.w3.org/Graphics/SVG/1.1/DTD/svg11.dtd">
<!-- Generated by graphviz version 2.38.0 (20140413.2041)
 -->
<!-- Title: PROV Pages: 1 -->
<svg width="1152pt" height="600pt"
 viewBox="0.00 0.00 1152.00 599.81" xmlns="http://www.w3.org/2000/svg" xmlns:xlink="http://www.w3.org/1999/xlink">
<g id="graph0" class="graph" transform="scale(0.941612 0.941612) rotate(0) translate(4 633)">
<title>PROV</title>
<polygon fill="white" stroke="none" points="-4,4 -4,-633 1219.43,-633 1219.43,4 -4,4"/>
<!-- http://example.org/disti_ak#10 -->
<g id="node1" class="node"><title>http://example.org/disti_ak#10</title>
<g id="a_node1"><a xlink:href="http://example.org/disti_ak#10" xlink:title="disti_ak#10">
<ellipse fill="#fffc87" stroke="#808080" cx="440.193" cy="-422" rx="52.7911" ry="18"/>
<text text-anchor="middle" x="440.193" y="-418.3" font-family="Times New Roman,serif" font-size="14.00">disti_ak#10</text>
</a>
</g>
</g>
<!-- http://example.org/access50 -->
<g id="node3" class="node"><title>http://example.org/access50</title>
<g id="a_node3"><a xlink:href="http://example.org/access50" xlink:title="access50">
<polygon fill="#9fb1fc" stroke="#0000ff" points="481.193,-542 413.193,-542 413.193,-506 481.193,-506 481.193,-542"/>
<text text-anchor="middle" x="447.193" y="-520.3" font-family="Times New Roman,serif" font-size="14.00">access50</text>
</a>
</g>
</g>
<!-- http://example.org/disti_ak#10&#45;&gt;http://example.org/access50 -->
<g id="edge7" class="edge"><title>http://example.org/disti_ak#10&#45;&gt;http://example.org/access50</title>
<path fill="none" stroke="black" d="M441.412,-440.419C442.476,-455.618 444.038,-477.933 445.27,-495.536"/>
<polygon fill="black" stroke="black" points="441.797,-496.05 445.987,-505.781 448.78,-495.561 441.797,-496.05"/>
<text text-anchor="middle" x="454.894" y="-445.093" font-family="Times New Roman,serif" font-size="8.00">gen</text>
</g>
<!-- bn0 -->
<g id="node6" class="node"><title>bn0</title>
<ellipse fill="black" stroke="black" cx="269.193" cy="-524" rx="1.8" ry="1.8"/>
</g>
<!-- http://example.org/disti_ak#10&#45;&gt;bn0 -->
<g id="edge4" class="edge"><title>http://example.org/disti_ak#10&#45;&gt;bn0</title>
<path fill="none" stroke="darkgreen" d="M389.57,-427.36C347.14,-432.13 291.158,-441.408 276.193,-458 258.556,-477.553 267.137,-515.05 268.901,-521.909"/>
<text text-anchor="middle" x="357.693" y="-476.8" font-family="Times New Roman,serif" font-size="14.00">der ac&#45;r</text>
<text text-anchor="middle" x="357.693" y="-461.8" font-family="Times New Roman,serif" font-size="14.00">2018&#45;03&#45;04T13:54:44.476170</text>
</g>
<!-- &#45;attrs0 -->
<g id="node2" class="node"><title>&#45;attrs0</title>
<polygon fill="none" stroke="gray" points="522.193,-367 444.193,-367 444.193,-318 528.193,-318 528.193,-361 522.193,-367"/>
<polyline fill="none" stroke="gray" points="522.193,-367 522.193,-361 "/>
<polyline fill="none" stroke="gray" points="528.193,-361 522.193,-361 "/>
<text text-anchor="start" x="454.193" y="-352.5" font-family="Times New Roman,serif" font-size="10.00">value:</text>
<text text-anchor="start" x="481.193" y="-352.5" font-family="Times New Roman,serif" font-size="10.00">&quot;1&quot;</text>
<text text-anchor="start" x="454.193" y="-339.5" font-family="Times New Roman,serif" font-size="10.00">type:</text>
<text text-anchor="start" x="481.193" y="-339.5" font-family="Times New Roman,serif" font-size="10.00">&quot;access&quot;</text>
<text text-anchor="start" x="454.193" y="-326.5" font-family="Times New Roman,serif" font-size="10.00">label:</text>
<text text-anchor="start" x="481.193" y="-326.5" font-family="Times New Roman,serif" font-size="10.00">&quot;disti[k]&quot;</text>
</g>
<!-- &#45;attrs0&#45;&gt;http://example.org/disti_ak#10 -->
<g id="edge1" class="edge"><title>&#45;attrs0&#45;&gt;http://example.org/disti_ak#10</title>
<path fill="none" stroke="gray" stroke-dasharray="5,2" d="M472.141,-367.174C465.06,-379.104 456.639,-393.292 450.22,-404.106"/>
</g>
<!-- http://example.org/1 -->
<g id="node5" class="node"><title>http://example.org/1</title>
<ellipse fill="none" stroke="black" cx="83.1926" cy="-611" rx="83.3857" ry="18"/>
<text text-anchor="middle" x="83.1926" y="-607.3" font-family="Times New Roman,serif" font-size="14.00">http://example.org/1</text>
</g>
<!-- http://example.org/access50&#45;&gt;http://example.org/1 -->
<g id="edge3" class="edge"><title>http://example.org/access50&#45;&gt;http://example.org/1</title>
<path fill="none" stroke="black" d="M413.057,-531.252C377.881,-537.838 321.519,-548.791 273.193,-560 228.813,-570.294 179.023,-583.456 141.548,-593.693"/>
<polygon fill="black" stroke="black" points="140.528,-590.343 131.809,-596.363 142.379,-597.094 140.528,-590.343"/>
<text text-anchor="middle" x="408.092" y="-543.506" font-family="Times New Roman,serif" font-size="8.00">use</text>
</g>
<!-- http://example.org/disti#4 -->
<g id="node7" class="node"><title>http://example.org/disti#4</title>
<ellipse fill="none" stroke="black" cx="287.193" cy="-611" rx="102.882" ry="18"/>
<text text-anchor="middle" x="287.193" y="-607.3" font-family="Times New Roman,serif" font-size="14.00">http://example.org/disti#4</text>
</g>
<!-- http://example.org/access50&#45;&gt;http://example.org/disti#4 -->
<g id="edge8" class="edge"><title>http://example.org/access50&#45;&gt;http://example.org/disti#4</title>
<path fill="none" stroke="black" d="M414.814,-542.201C389.382,-555.712 353.854,-574.586 326.74,-588.99"/>
<polygon fill="black" stroke="black" points="325.083,-585.907 317.894,-593.69 328.368,-592.089 325.083,-585.907"/>
<text text-anchor="middle" x="414.285" y="-555.292" font-family="Times New Roman,serif" font-size="8.00">use</text>
</g>
<!-- http://example.org/k#2 -->
<g id="node8" class="node"><title>http://example.org/k#2</title>
<ellipse fill="none" stroke="black" cx="500.193" cy="-611" rx="92.0841" ry="18"/>
<text text-anchor="middle" x="500.193" y="-607.3" font-family="Times New Roman,serif" font-size="14.00">http://example.org/k#2</text>
</g>
<!-- http://example.org/access50&#45;&gt;http://example.org/k#2 -->
<g id="edge9" class="edge"><title>http://example.org/access50&#45;&gt;http://example.org/k#2</title>
<path fill="none" stroke="black" d="M457.918,-542.201C465.511,-554.378 475.82,-570.911 484.356,-584.602"/>
<polygon fill="black" stroke="black" points="481.403,-586.481 489.664,-593.115 487.343,-582.777 481.403,-586.481"/>
<text text-anchor="middle" x="472.909" y="-539.792" font-family="Times New Roman,serif" font-size="8.00">use</text>
</g>
<!-- &#45;attrs1 -->
<g id="node4" class="node"><title>&#45;attrs1</title>
<polygon fill="none" stroke="gray" points="585.193,-440 511.193,-440 511.193,-404 591.193,-404 591.193,-434 585.193,-440"/>
<polyline fill="none" stroke="gray" points="585.193,-440 585.193,-434 "/>
<polyline fill="none" stroke="gray" points="591.193,-434 585.193,-434 "/>
<text text-anchor="start" x="521.193" y="-419" font-family="Times New Roman,serif" font-size="10.00">type:</text>
<text text-anchor="start" x="544.193" y="-419" font-family="Times New Roman,serif" font-size="10.00">&quot;access&quot;</text>
</g>
<!-- &#45;attrs1&#45;&gt;http://example.org/access50 -->
<g id="edge2" class="edge"><title>&#45;attrs1&#45;&gt;http://example.org/access50</title>
<path fill="none" stroke="gray" stroke-dasharray="5,2" d="M533.077,-440.419C513.989,-458.773 484.11,-487.502 465.1,-505.781"/>
</g>
<!-- bn0&#45;&gt;http://example.org/1 -->
<g id="edge6" class="edge"><title>bn0&#45;&gt;http://example.org/1</title>
<path fill="none" stroke="darkgreen" d="M267.777,-525.262C257.93,-527.117 198.764,-538.821 155.193,-560 140.068,-567.351 124.586,-577.672 111.872,-587.029"/>
<polygon fill="darkgreen" stroke="darkgreen" points="109.428,-584.489 103.552,-593.305 113.643,-590.078 109.428,-584.489"/>
</g>
<!-- bn0&#45;&gt;http://example.org/disti#4 -->
<g id="edge5" class="edge"><title>bn0&#45;&gt;http://example.org/disti#4</title>
<path fill="none" stroke="darkgreen" d="M269.395,-525.955C270.575,-531.528 276.687,-560.391 281.423,-582.755"/>
<polygon fill="darkgreen" stroke="darkgreen" points="278.049,-583.715 283.545,-592.773 284.897,-582.265 278.049,-583.715"/>
<text text-anchor="middle" x="288.193" y="-563.8" font-family="Times New Roman,serif" font-size="14.00">[1]</text>
</g>
<!-- http://example.org/distk_aj#10 -->
<g id="node9" class="node"><title>http://example.org/distk_aj#10</title>
<g id="a_node9"><a xlink:href="http://example.org/distk_aj#10" xlink:title="distk_aj#10">
<ellipse fill="#fffc87" stroke="#808080" cx="695.193" cy="-422" rx="52.7911" ry="18"/>
<text text-anchor="middle" x="695.193" y="-418.3" font-family="Times New Roman,serif" font-size="14.00">distk_aj#10</text>
</a>
</g>
</g>
<!-- http://example.org/access51 -->
<g id="node11" class="node"><title>http://example.org/access51</title>
<g id="a_node11"><a xlink:href="http://example.org/access51" xlink:title="access51">
<polygon fill="#9fb1fc" stroke="#0000ff" points="934.193,-542 866.193,-542 866.193,-506 934.193,-506 934.193,-542"/>
<text text-anchor="middle" x="900.193" y="-520.3" font-family="Times New Roman,serif" font-size="14.00">access51</text>
</a>
</g>
</g>
<!-- http://example.org/distk_aj#10&#45;&gt;http://example.org/access51 -->
<g id="edge16" class="edge"><title>http://example.org/distk_aj#10&#45;&gt;http://example.org/access51</title>
<path fill="none" stroke="black" d="M747.751,-423.672C782.455,-426.485 827.404,-434.884 860.193,-458 873.613,-467.461 883.413,-482.994 889.954,-496.503"/>
<polygon fill="black" stroke="black" points="886.865,-498.169 894.145,-505.866 893.254,-495.309 886.865,-498.169"/>
<text text-anchor="middle" x="756.451" y="-409.553" font-family="Times New Roman,serif" font-size="8.00">gen</text>
</g>
<!-- bn1 -->
<g id="node14" class="node"><title>bn1</title>
<ellipse fill="black" stroke="black" cx="695.193" cy="-524" rx="1.8" ry="1.8"/>
</g>
<!-- http://example.org/distk_aj#10&#45;&gt;bn1 -->
<g id="edge13" class="edge"><title>http://example.org/distk_aj#10&#45;&gt;bn1</title>
<path fill="none" stroke="darkgreen" d="M695.193,-440.419C695.193,-466.831 695.193,-514.728 695.193,-522.05"/>
<text text-anchor="middle" x="776.693" y="-476.8" font-family="Times New Roman,serif" font-size="14.00">der ac&#45;r</text>
<text text-anchor="middle" x="776.693" y="-461.8" font-family="Times New Roman,serif" font-size="14.00">2018&#45;03&#45;04T13:54:44.476170</text>
</g>
<!-- &#45;attrs2 -->
<g id="node10" class="node"><title>&#45;attrs2</title>
<polygon fill="none" stroke="gray" points="696.193,-367 618.193,-367 618.193,-318 702.193,-318 702.193,-361 696.193,-367"/>
<polyline fill="none" stroke="gray" points="696.193,-367 696.193,-361 "/>
<polyline fill="none" stroke="gray" points="702.193,-361 696.193,-361 "/>
<text text-anchor="start" x="628.193" y="-352.5" font-family="Times New Roman,serif" font-size="10.00">value:</text>
<text text-anchor="start" x="655.193" y="-352.5" font-family="Times New Roman,serif" font-size="10.00">&quot;10000&quot;</text>
<text text-anchor="start" x="628.193" y="-339.5" font-family="Times New Roman,serif" font-size="10.00">type:</text>
<text text-anchor="start" x="655.193" y="-339.5" font-family="Times New Roman,serif" font-size="10.00">&quot;access&quot;</text>
<text text-anchor="start" x="628.193" y="-326.5" font-family="Times New Roman,serif" font-size="10.00">label:</text>
<text text-anchor="start" x="655.193" y="-326.5" font-family="Times New Roman,serif" font-size="10.00">&quot;distk[j]&quot;</text>
</g>
<!-- &#45;attrs2&#45;&gt;http://example.org/distk_aj#10 -->
<g id="edge10" class="edge"><title>&#45;attrs2&#45;&gt;http://example.org/distk_aj#10</title>
<path fill="none" stroke="gray" stroke-dasharray="5,2" d="M670.884,-367.174C676.272,-379.104 682.679,-393.292 687.563,-404.106"/>
</g>
<!-- http://example.org/m -->
<g id="node13" class="node"><title>http://example.org/m</title>
<ellipse fill="none" stroke="black" cx="695.193" cy="-611" rx="85.2851" ry="18"/>
<text text-anchor="middle" x="695.193" y="-607.3" font-family="Times New Roman,serif" font-size="14.00">http://example.org/m</text>
</g>
<!-- http://example.org/access51&#45;&gt;http://example.org/m -->
<g id="edge12" class="edge"><title>http://example.org/access51&#45;&gt;http://example.org/m</title>
<path fill="none" stroke="black" d="M865.88,-539.227C831.73,-553.387 779.099,-575.209 741.31,-590.878"/>
<polygon fill="black" stroke="black" points="739.94,-587.657 732.043,-594.721 742.621,-594.123 739.94,-587.657"/>
<text text-anchor="middle" x="863.928" y="-552.199" font-family="Times New Roman,serif" font-size="8.00">use</text>
</g>
<!-- http://example.org/distk#2 -->
<g id="node15" class="node"><title>http://example.org/distk#2</title>
<ellipse fill="none" stroke="black" cx="903.193" cy="-611" rx="105.082" ry="18"/>
<text text-anchor="middle" x="903.193" y="-607.3" font-family="Times New Roman,serif" font-size="14.00">http://example.org/distk#2</text>
</g>
<!-- http://example.org/access51&#45;&gt;http://example.org/distk#2 -->
<g id="edge17" class="edge"><title>http://example.org/access51&#45;&gt;http://example.org/distk#2</title>
<path fill="none" stroke="black" d="M900.8,-542.201C901.21,-553.837 901.762,-569.452 902.231,-582.763"/>
<polygon fill="black" stroke="black" points="898.736,-582.954 902.586,-592.825 905.731,-582.707 898.736,-582.954"/>
<text text-anchor="middle" x="914.047" y="-547.338" font-family="Times New Roman,serif" font-size="8.00">use</text>
</g>
<!-- http://example.org/j#10 -->
<g id="node16" class="node"><title>http://example.org/j#10</title>
<ellipse fill="none" stroke="black" cx="1121.19" cy="-611" rx="94.4839" ry="18"/>
<text text-anchor="middle" x="1121.19" y="-607.3" font-family="Times New Roman,serif" font-size="14.00">http://example.org/j#10</text>
</g>
<!-- http://example.org/access51&#45;&gt;http://example.org/j#10 -->
<g id="edge18" class="edge"><title>http://example.org/access51&#45;&gt;http://example.org/j#10</title>
<path fill="none" stroke="black" d="M934.24,-538.095C970.971,-552.222 1029.81,-574.853 1071.66,-590.95"/>
<polygon fill="black" stroke="black" points="1070.52,-594.262 1081.11,-594.585 1073.04,-587.729 1070.52,-594.262"/>
<text text-anchor="middle" x="945.903" y="-526.763" font-family="Times New Roman,serif" font-size="8.00">use</text>
</g>
<!-- &#45;attrs3 -->
<g id="node12" class="node"><title>&#45;attrs3</title>
<polygon fill="none" stroke="gray" points="934.193,-440 860.193,-440 860.193,-404 940.193,-404 940.193,-434 934.193,-440"/>
<polyline fill="none" stroke="gray" points="934.193,-440 934.193,-434 "/>
<polyline fill="none" stroke="gray" points="940.193,-434 934.193,-434 "/>
<text text-anchor="start" x="870.193" y="-419" font-family="Times New Roman,serif" font-size="10.00">type:</text>
<text text-anchor="start" x="893.193" y="-419" font-family="Times New Roman,serif" font-size="10.00">&quot;access&quot;</text>
</g>
<!-- &#45;attrs3&#45;&gt;http://example.org/access51 -->
<g id="edge11" class="edge"><title>&#45;attrs3&#45;&gt;http://example.org/access51</title>
<path fill="none" stroke="gray" stroke-dasharray="5,2" d="M900.193,-440.419C900.193,-458.773 900.193,-487.502 900.193,-505.781"/>
</g>
<!-- bn1&#45;&gt;http://example.org/m -->
<g id="edge15" class="edge"><title>bn1&#45;&gt;http://example.org/m</title>
<path fill="none" stroke="darkgreen" d="M695.193,-525.955C695.193,-531.528 695.193,-560.391 695.193,-582.755"/>
<polygon fill="darkgreen" stroke="darkgreen" points="691.693,-582.773 695.193,-592.773 698.693,-582.773 691.693,-582.773"/>
</g>
<!-- bn1&#45;&gt;http://example.org/distk#2 -->
<g id="edge14" class="edge"><title>bn1&#45;&gt;http://example.org/distk#2</title>
<path fill="none" stroke="darkgreen" d="M696.521,-525.543C708.426,-530.408 797.675,-566.88 854.932,-590.278"/>
<polygon fill="darkgreen" stroke="darkgreen" points="853.946,-593.656 864.526,-594.199 856.594,-587.176 853.946,-593.656"/>
<text text-anchor="middle" x="820.193" y="-563.8" font-family="Times New Roman,serif" font-size="14.00">[0]</text>
</g>
<!-- http://example.org/sum#10 -->
<g id="node17" class="node"><title>http://example.org/sum#10</title>
<g id="a_node17"><a xlink:href="http://example.org/sum#10" xlink:title="sum#10">
<ellipse fill="#fffc87" stroke="#808080" cx="656.193" cy="-263" rx="39.7935" ry="18"/>
<text text-anchor="middle" x="656.193" y="-259.3" font-family="Times New Roman,serif" font-size="14.00">sum#10</text>
</a>
</g>
</g>
<!-- http://example.org/sum#10&#45;&gt;http://example.org/disti_ak#10 -->
<g id="edge24" class="edge"><title>http://example.org/sum#10&#45;&gt;http://example.org/disti_ak#10</title>
<path fill="none" stroke="black" d="M626.316,-275.014C620.043,-277.143 613.436,-279.253 607.193,-281 531.893,-302.076 484.327,-257.172 435.193,-318 418.12,-339.135 423.046,-371.408 429.888,-394.187"/>
<polygon fill="black" stroke="black" points="426.639,-395.51 433.095,-403.91 433.287,-393.317 426.639,-395.51"/>
<text text-anchor="middle" x="623.361" y="-287.82" font-family="Times New Roman,serif" font-size="8.00">der</text>
</g>
<!-- http://example.org/sum#10&#45;&gt;http://example.org/distk_aj#10 -->
<g id="edge26" class="edge"><title>http://example.org/sum#10&#45;&gt;http://example.org/distk_aj#10</title>
<path fill="none" stroke="black" d="M677.594,-278.27C689.949,-287.864 704.358,-301.712 711.193,-318 721.529,-342.633 714.624,-373.107 706.925,-394.494"/>
<polygon fill="black" stroke="black" points="703.625,-393.323 703.273,-403.912 710.152,-395.854 703.625,-393.323"/>
<text text-anchor="middle" x="691.562" y="-270.905" font-family="Times New Roman,serif" font-size="8.00">der</text>
</g>
<!-- http://example.org/sum#10_v1 -->
<g id="node19" class="node"><title>http://example.org/sum#10_v1</title>
<g id="a_node19"><a xlink:href="http://example.org/sum#10_v1" xlink:title="sum#10_v1">
<ellipse fill="#32cd32" stroke="#808080" cx="814.193" cy="-342.5" rx="53.0913" ry="18"/>
<text text-anchor="middle" x="814.193" y="-338.8" font-family="Times New Roman,serif" font-size="14.00">sum#10_v1</text>
</a>
</g>
</g>
<!-- http://example.org/sum#10&#45;&gt;http://example.org/sum#10_v1 -->
<g id="edge21" class="edge"><title>http://example.org/sum#10&#45;&gt;http://example.org/sum#10_v1</title>
<path fill="none" stroke="black" d="M686.878,-274.765C704.041,-281.141 725.649,-289.764 744.193,-299 757.072,-305.415 770.708,-313.4 782.49,-320.711"/>
<polygon fill="black" stroke="black" points="780.768,-323.763 791.094,-326.133 784.5,-317.841 780.768,-323.763"/>
<text text-anchor="middle" x="698.462" y="-263.336" font-family="Times New Roman,serif" font-size="8.00">spe</text>
</g>
<!-- http://example.org/+10 -->
<g id="node21" class="node"><title>http://example.org/+10</title>
<g id="a_node21"><a xlink:href="http://example.org/+10" xlink:title="+10">
<polygon fill="#9fb1fc" stroke="#0000ff" points="600.193,-360.5 546.193,-360.5 546.193,-324.5 600.193,-324.5 600.193,-360.5"/>
<text text-anchor="middle" x="573.193" y="-338.8" font-family="Times New Roman,serif" font-size="14.00">+10</text>
</a>
</g>
</g>
<!-- http://example.org/sum#10&#45;&gt;http://example.org/+10 -->
<g id="edge27" class="edge"><title>http://example.org/sum#10&#45;&gt;http://example.org/+10</title>
<path fill="none" stroke="black" d="M639.396,-279.683C627.755,-290.553 612.035,-305.231 598.835,-317.557"/>
<polygon fill="black" stroke="black" points="596.325,-315.112 591.404,-324.495 601.102,-320.229 596.325,-315.112"/>
<text text-anchor="middle" x="642.78" y="-292.397" font-family="Times New Roman,serif" font-size="8.00">gen</text>
</g>
<!-- &#45;attrs4 -->
<g id="node18" class="node"><title>&#45;attrs4</title>
<polygon fill="none" stroke="gray" points="599.193,-208 483.193,-208 483.193,-159 605.193,-159 605.193,-202 599.193,-208"/>
<polyline fill="none" stroke="gray" points="599.193,-208 599.193,-202 "/>
<polyline fill="none" stroke="gray" points="605.193,-202 599.193,-202 "/>
<text text-anchor="start" x="493.193" y="-193.5" font-family="Times New Roman,serif" font-size="10.00">value:</text>
<text text-anchor="start" x="520.193" y="-193.5" font-family="Times New Roman,serif" font-size="10.00">&quot;10001&quot;</text>
<text text-anchor="start" x="493.193" y="-180.5" font-family="Times New Roman,serif" font-size="10.00">type:</text>
<text text-anchor="start" x="520.193" y="-180.5" font-family="Times New Roman,serif" font-size="10.00">&quot;operation&quot;</text>
<text text-anchor="start" x="493.193" y="-167.5" font-family="Times New Roman,serif" font-size="10.00">label:</text>
<text text-anchor="start" x="520.193" y="-167.5" font-family="Times New Roman,serif" font-size="10.00">&quot;disti[k] + distk[j]&quot;</text>
</g>
<!-- &#45;attrs4&#45;&gt;http://example.org/sum#10 -->
<g id="edge19" class="edge"><title>&#45;attrs4&#45;&gt;http://example.org/sum#10</title>
<path fill="none" stroke="gray" stroke-dasharray="5,2" d="M578.405,-208.174C596.932,-220.994 619.229,-236.422 635.192,-247.468"/>
</g>
<!-- &#45;attrs5 -->
<g id="node20" class="node"><title>&#45;attrs5</title>
<polygon fill="none" stroke="gray" points="920.693,-281 713.693,-281 713.693,-245 926.693,-245 926.693,-275 920.693,-281"/>
<polyline fill="none" stroke="gray" points="920.693,-281 920.693,-275 "/>
<polyline fill="none" stroke="gray" points="926.693,-275 920.693,-275 "/>
<text text-anchor="start" x="724.193" y="-267" font-family="Times New Roman,serif" font-size="10.00">generatedAtTime:</text>
<text text-anchor="start" x="799.193" y="-267" font-family="Times New Roman,serif" font-size="10.00">&quot;2018&#45;03&#45;04T13:54:44.476170&quot;</text>
<text text-anchor="start" x="724.193" y="-254" font-family="Times New Roman,serif" font-size="10.00">type:</text>
<text text-anchor="start" x="799.193" y="-254" font-family="Times New Roman,serif" font-size="10.00">&quot;Version&quot;</text>
</g>
<!-- &#45;attrs5&#45;&gt;http://example.org/sum#10_v1 -->
<g id="edge20" class="edge"><title>&#45;attrs5&#45;&gt;http://example.org/sum#10_v1</title>
<path fill="none" stroke="gray" stroke-dasharray="5,2" d="M818.861,-281.2C817.867,-294.043 816.514,-311.517 815.52,-324.348"/>
</g>
<!-- http://example.org/+10&#45;&gt;http://example.org/disti_ak#10 -->
<g id="edge23" class="edge"><title>http://example.org/+10&#45;&gt;http://example.org/disti_ak#10</title>
<path fill="none" stroke="black" d="M547.375,-360.664C543.973,-362.833 540.515,-364.994 537.193,-367 517.431,-378.93 494.93,-391.517 476.577,-401.534"/>
<polygon fill="black" stroke="black" points="474.78,-398.527 467.663,-406.376 478.121,-404.678 474.78,-398.527"/>
<text text-anchor="middle" x="548.023" y="-373.75" font-family="Times New Roman,serif" font-size="8.00">use</text>
</g>
<!-- http://example.org/+10&#45;&gt;http://example.org/distk_aj#10 -->
<g id="edge25" class="edge"><title>http://example.org/+10&#45;&gt;http://example.org/distk_aj#10</title>
<path fill="none" stroke="black" d="M599.504,-360.752C602.761,-362.865 606.05,-364.988 609.193,-367 626.731,-378.229 646.395,-390.593 662.488,-400.653"/>
<polygon fill="black" stroke="black" points="660.689,-403.656 671.025,-405.984 664.397,-397.719 660.689,-403.656"/>
<text text-anchor="middle" x="612.864" y="-352.033" font-family="Times New Roman,serif" font-size="8.00">use</text>
</g>
<!-- &#45;attrs6 -->
<g id="node22" class="node"><title>&#45;attrs6</title>
<polygon fill="none" stroke="gray" points="592.193,-281 540.193,-281 540.193,-245 598.193,-245 598.193,-275 592.193,-281"/>
<polyline fill="none" stroke="gray" points="592.193,-281 592.193,-275 "/>
<polyline fill="none" stroke="gray" points="598.193,-275 592.193,-275 "/>
<text text-anchor="start" x="550.193" y="-260" font-family="Times New Roman,serif" font-size="10.00">type:</text>
<text text-anchor="start" x="573.193" y="-260" font-family="Times New Roman,serif" font-size="10.00">&quot;+&quot;</text>
</g>
<!-- &#45;attrs6&#45;&gt;http://example.org/+10 -->
<g id="edge22" class="edge"><title>&#45;attrs6&#45;&gt;http://example.org/+10</title>
<path fill="none" stroke="gray" stroke-dasharray="5,2" d="M570.08,-281.2C570.743,-294.043 571.645,-311.517 572.307,-324.348"/>
</g>
<!-- http://example.org/ikj#10 -->
<g id="node23" class="node"><title>http://example.org/ikj#10</title>
<g id="a_node23"><a xlink:href="http://example.org/ikj#10" xlink:title="ikj#10">
<ellipse fill="#fffc87" stroke="#808080" cx="725.193" cy="-104" rx="32.4942" ry="18"/>
<text text-anchor="middle" x="725.193" y="-100.3" font-family="Times New Roman,serif" font-size="14.00">ikj#10</text>
</a>
</g>
</g>
<!-- http://example.org/ikj#10&#45;&gt;http://example.org/sum#10 -->
<g id="edge31" class="edge"><title>http://example.org/ikj#10&#45;&gt;http://example.org/sum#10</title>
<path fill="none" stroke="darkgreen" d="M722.61,-122.122C718.979,-143.164 711.187,-179.57 697.193,-208 691.939,-218.673 684.444,-229.335 677.295,-238.331"/>
<polygon fill="darkgreen" stroke="darkgreen" points="674.568,-236.137 670.902,-246.077 679.967,-240.593 674.568,-236.137"/>
<text text-anchor="middle" x="796.693" y="-187.3" font-family="Times New Roman,serif" font-size="14.00">der ref</text>
<text text-anchor="middle" x="796.693" y="-172.3" font-family="Times New Roman,serif" font-size="14.00">2018&#45;03&#45;04T13:54:44.476170</text>
</g>
<!-- http://example.org/assign22 -->
<g id="node25" class="node"><title>http://example.org/assign22</title>
<g id="a_node25"><a xlink:href="http://example.org/assign22" xlink:title="assign22">
<polygon fill="#9fb1fc" stroke="#0000ff" points="688.693,-201.5 623.693,-201.5 623.693,-165.5 688.693,-165.5 688.693,-201.5"/>
<text text-anchor="middle" x="656.193" y="-179.8" font-family="Times New Roman,serif" font-size="14.00">assign22</text>
</a>
</g>
</g>
<!-- http://example.org/ikj#10&#45;&gt;http://example.org/assign22 -->
<g id="edge32" class="edge"><title>http://example.org/ikj#10&#45;&gt;http://example.org/assign22</title>
<path fill="none" stroke="black" d="M711.229,-120.683C701.732,-131.35 688.971,-145.684 678.127,-157.863"/>
<polygon fill="black" stroke="black" points="675.368,-155.699 671.332,-165.495 680.596,-160.354 675.368,-155.699"/>
<text text-anchor="middle" x="715.944" y="-133.023" font-family="Times New Roman,serif" font-size="8.00">gen</text>
</g>
<!-- &#45;attrs7 -->
<g id="node24" class="node"><title>&#45;attrs7</title>
<polygon fill="none" stroke="gray" points="758.693,-49 685.693,-49 685.693,-0 764.693,-0 764.693,-43 758.693,-49"/>
<polyline fill="none" stroke="gray" points="758.693,-49 758.693,-43 "/>
<polyline fill="none" stroke="gray" points="764.693,-43 758.693,-43 "/>
<text text-anchor="start" x="696.193" y="-34.5" font-family="Times New Roman,serif" font-size="10.00">value:</text>
<text text-anchor="start" x="723.193" y="-34.5" font-family="Times New Roman,serif" font-size="10.00">&quot;10001&quot;</text>
<text text-anchor="start" x="696.193" y="-21.5" font-family="Times New Roman,serif" font-size="10.00">type:</text>
<text text-anchor="start" x="723.193" y="-21.5" font-family="Times New Roman,serif" font-size="10.00">&quot;name&quot;</text>
<text text-anchor="start" x="696.193" y="-8.5" font-family="Times New Roman,serif" font-size="10.00">label:</text>
<text text-anchor="start" x="723.193" y="-8.5" font-family="Times New Roman,serif" font-size="10.00">&quot;ikj&quot;</text>
</g>
<!-- &#45;attrs7&#45;&gt;http://example.org/ikj#10 -->
<g id="edge28" class="edge"><title>&#45;attrs7&#45;&gt;http://example.org/ikj#10</title>
<path fill="none" stroke="gray" stroke-dasharray="5,2" d="M725.193,-49.1737C725.193,-60.9254 725.193,-74.869 725.193,-85.6196"/>
</g>
<!-- http://example.org/assign22&#45;&gt;http://example.org/sum#10 -->
<g id="edge30" class="edge"><title>http://example.org/assign22&#45;&gt;http://example.org/sum#10</title>
<path fill="none" stroke="black" d="M656.193,-201.7C656.193,-211.432 656.193,-223.824 656.193,-234.84"/>
<polygon fill="black" stroke="black" points="652.693,-234.848 656.193,-244.848 659.693,-234.848 652.693,-234.848"/>
<text text-anchor="middle" x="669.183" y="-207.3" font-family="Times New Roman,serif" font-size="8.00">use</text>
</g>
<!-- &#45;attrs8 -->
<g id="node26" class="node"><title>&#45;attrs8</title>
<polygon fill="none" stroke="gray" points="668.693,-122 595.693,-122 595.693,-86 674.693,-86 674.693,-116 668.693,-122"/>
<polyline fill="none" stroke="gray" points="668.693,-122 668.693,-116 "/>
<polyline fill="none" stroke="gray" points="674.693,-116 668.693,-116 "/>
<text text-anchor="start" x="606.193" y="-101" font-family="Times New Roman,serif" font-size="10.00">type:</text>
<text text-anchor="start" x="629.193" y="-101" font-family="Times New Roman,serif" font-size="10.00">&quot;assign&quot;</text>
</g>
<!-- &#45;attrs8&#45;&gt;http://example.org/assign22 -->
<g id="edge29" class="edge"><title>&#45;attrs8&#45;&gt;http://example.org/assign22</title>
<path fill="none" stroke="gray" stroke-dasharray="5,2" d="M639.853,-122.2C643.333,-135.043 648.068,-152.517 651.545,-165.348"/>
</g>
</g>
</svg>
