<?xml version="1.0" encoding="UTF-8" standalone="no"?>
<!DOCTYPE svg PUBLIC "-//W3C//DTD SVG 1.1//EN"
 "http://www.w3.org/Graphics/SVG/1.1/DTD/svg11.dtd">
<!-- Generated by graphviz version 2.38.0 (20140413.2041)
 -->
<!-- Title: PROV Pages: 1 -->
<svg width="1152pt" height="582pt"
 viewBox="0.00 0.00 1152.00 582.42" xmlns="http://www.w3.org/2000/svg" xmlns:xlink="http://www.w3.org/1999/xlink">
<g id="graph0" class="graph" transform="scale(0.912886 0.912886) rotate(0) translate(4 634)">
<title>PROV</title>
<polygon fill="white" stroke="none" points="-4,4 -4,-634 1257.93,-634 1257.93,4 -4,4"/>
<!-- http://example.org/disti_ak#27 -->
<g id="node1" class="node"><title>http://example.org/disti_ak#27</title>
<g id="a_node1"><a xlink:href="http://example.org/disti_ak#27" xlink:title="disti_ak#27">
<ellipse fill="#fffc87" stroke="#808080" cx="526.691" cy="-422" rx="52.7911" ry="18"/>
<text text-anchor="middle" x="526.691" y="-418.3" font-family="Times New Roman,serif" font-size="14.00">disti_ak#27</text>
</a>
</g>
</g>
<!-- http://example.org/access130 -->
<g id="node3" class="node"><title>http://example.org/access130</title>
<g id="a_node3"><a xlink:href="http://example.org/access130" xlink:title="access130">
<polygon fill="#9fb1fc" stroke="#0000ff" points="369.691,-513 295.691,-513 295.691,-477 369.691,-477 369.691,-513"/>
<text text-anchor="middle" x="332.691" y="-491.3" font-family="Times New Roman,serif" font-size="14.00">access130</text>
</a>
</g>
</g>
<!-- http://example.org/disti_ak#27&#45;&gt;http://example.org/access130 -->
<g id="edge5" class="edge"><title>http://example.org/disti_ak#27&#45;&gt;http://example.org/access130</title>
<path fill="none" stroke="black" d="M492.008,-435.693C460.527,-447.214 413.862,-464.293 379.163,-476.992"/>
<polygon fill="black" stroke="black" points="377.904,-473.726 369.716,-480.45 380.31,-480.299 377.904,-473.726"/>
<text text-anchor="middle" x="489.429" y="-448.57" font-family="Times New Roman,serif" font-size="8.00">gen</text>
</g>
<!-- http://example.org/0 -->
<g id="node5" class="node"><title>http://example.org/0</title>
<ellipse fill="none" stroke="black" cx="626.691" cy="-612" rx="83.3857" ry="18"/>
<text text-anchor="middle" x="626.691" y="-608.3" font-family="Times New Roman,serif" font-size="14.00">http://example.org/0</text>
</g>
<!-- http://example.org/disti_ak#27&#45;&gt;http://example.org/0 -->
<g id="edge4" class="edge"><title>http://example.org/disti_ak#27&#45;&gt;http://example.org/0</title>
<path fill="none" stroke="darkgreen" d="M522.905,-440.022C519.591,-458.714 516.705,-489.231 526.691,-513 540.024,-544.735 569.205,-571.348 592.622,-588.795"/>
<polygon fill="darkgreen" stroke="darkgreen" points="590.79,-591.789 600.948,-594.8 594.885,-586.111 590.79,-591.789"/>
<text text-anchor="middle" x="608.191" y="-498.8" font-family="Times New Roman,serif" font-size="14.00">der ref</text>
<text text-anchor="middle" x="608.191" y="-483.8" font-family="Times New Roman,serif" font-size="14.00">2018&#45;03&#45;03T19:40:23.017165</text>
</g>
<!-- &#45;attrs0 -->
<g id="node2" class="node"><title>&#45;attrs0</title>
<polygon fill="none" stroke="gray" points="591.691,-367 513.691,-367 513.691,-318 597.691,-318 597.691,-361 591.691,-367"/>
<polyline fill="none" stroke="gray" points="591.691,-367 591.691,-361 "/>
<polyline fill="none" stroke="gray" points="597.691,-361 591.691,-361 "/>
<text text-anchor="start" x="523.691" y="-352.5" font-family="Times New Roman,serif" font-size="10.00">value:</text>
<text text-anchor="start" x="550.691" y="-352.5" font-family="Times New Roman,serif" font-size="10.00">&quot;0&quot;</text>
<text text-anchor="start" x="523.691" y="-339.5" font-family="Times New Roman,serif" font-size="10.00">type:</text>
<text text-anchor="start" x="550.691" y="-339.5" font-family="Times New Roman,serif" font-size="10.00">&quot;access&quot;</text>
<text text-anchor="start" x="523.691" y="-326.5" font-family="Times New Roman,serif" font-size="10.00">label:</text>
<text text-anchor="start" x="550.691" y="-326.5" font-family="Times New Roman,serif" font-size="10.00">&quot;disti[k]&quot;</text>
</g>
<!-- &#45;attrs0&#45;&gt;http://example.org/disti_ak#27 -->
<g id="edge1" class="edge"><title>&#45;attrs0&#45;&gt;http://example.org/disti_ak#27</title>
<path fill="none" stroke="gray" stroke-dasharray="5,2" d="M546.832,-367.174C542.368,-379.104 537.059,-393.292 533.013,-404.106"/>
</g>
<!-- http://example.org/access130&#45;&gt;http://example.org/0 -->
<g id="edge3" class="edge"><title>http://example.org/access130&#45;&gt;http://example.org/0</title>
<path fill="none" stroke="darkgreen" d="M331.071,-513.128C330.369,-531.492 332.446,-560.141 349.691,-576 363.563,-588.757 462.806,-598.931 538.577,-604.952"/>
<polygon fill="darkgreen" stroke="darkgreen" points="538.388,-608.448 548.631,-605.738 538.934,-601.47 538.388,-608.448"/>
<text text-anchor="middle" x="431.191" y="-564.8" font-family="Times New Roman,serif" font-size="14.00">use</text>
<text text-anchor="middle" x="431.191" y="-549.8" font-family="Times New Roman,serif" font-size="14.00">disti#9[2]</text>
<text text-anchor="middle" x="431.191" y="-534.8" font-family="Times New Roman,serif" font-size="14.00">2018&#45;03&#45;03T19:40:23.017165</text>
</g>
<!-- http://example.org/disti#9 -->
<g id="node6" class="node"><title>http://example.org/disti#9</title>
<ellipse fill="none" stroke="black" cx="102.691" cy="-612" rx="102.882" ry="18"/>
<text text-anchor="middle" x="102.691" y="-608.3" font-family="Times New Roman,serif" font-size="14.00">http://example.org/disti#9</text>
</g>
<!-- http://example.org/access130&#45;&gt;http://example.org/disti#9 -->
<g id="edge6" class="edge"><title>http://example.org/access130&#45;&gt;http://example.org/disti#9</title>
<path fill="none" stroke="black" d="M298.258,-513.217C257.075,-533.808 188.192,-568.25 144.132,-590.279"/>
<polygon fill="black" stroke="black" points="142.505,-587.18 135.126,-594.782 145.636,-593.441 142.505,-587.18"/>
<text text-anchor="middle" x="297.359" y="-526.29" font-family="Times New Roman,serif" font-size="8.00">use</text>
</g>
<!-- http://example.org/k#3 -->
<g id="node7" class="node"><title>http://example.org/k#3</title>
<ellipse fill="none" stroke="black" cx="315.691" cy="-612" rx="92.0841" ry="18"/>
<text text-anchor="middle" x="315.691" y="-608.3" font-family="Times New Roman,serif" font-size="14.00">http://example.org/k#3</text>
</g>
<!-- http://example.org/access130&#45;&gt;http://example.org/k#3 -->
<g id="edge7" class="edge"><title>http://example.org/access130&#45;&gt;http://example.org/k#3</title>
<path fill="none" stroke="black" d="M330.109,-513.466C327.347,-532.149 322.93,-562.027 319.712,-583.796"/>
<polygon fill="black" stroke="black" points="316.241,-583.342 318.241,-593.746 323.166,-584.366 316.241,-583.342"/>
<text text-anchor="middle" x="341.863" y="-520.885" font-family="Times New Roman,serif" font-size="8.00">use</text>
</g>
<!-- &#45;attrs1 -->
<g id="node4" class="node"><title>&#45;attrs1</title>
<polygon fill="none" stroke="gray" points="366.691,-440 292.691,-440 292.691,-404 372.691,-404 372.691,-434 366.691,-440"/>
<polyline fill="none" stroke="gray" points="366.691,-440 366.691,-434 "/>
<polyline fill="none" stroke="gray" points="372.691,-434 366.691,-434 "/>
<text text-anchor="start" x="302.691" y="-419" font-family="Times New Roman,serif" font-size="10.00">type:</text>
<text text-anchor="start" x="325.691" y="-419" font-family="Times New Roman,serif" font-size="10.00">&quot;access&quot;</text>
</g>
<!-- &#45;attrs1&#45;&gt;http://example.org/access130 -->
<g id="edge2" class="edge"><title>&#45;attrs1&#45;&gt;http://example.org/access130</title>
<path fill="none" stroke="gray" stroke-dasharray="5,2" d="M332.691,-440.187C332.691,-451.35 332.691,-465.84 332.691,-476.971"/>
</g>
<!-- http://example.org/distk_aj#27 -->
<g id="node8" class="node"><title>http://example.org/distk_aj#27</title>
<g id="a_node8"><a xlink:href="http://example.org/distk_aj#27" xlink:title="distk_aj#27">
<ellipse fill="#fffc87" stroke="#808080" cx="725.691" cy="-422" rx="52.7911" ry="18"/>
<text text-anchor="middle" x="725.691" y="-418.3" font-family="Times New Roman,serif" font-size="14.00">distk_aj#27</text>
</a>
</g>
</g>
<!-- http://example.org/distk_aj#27&#45;&gt;http://example.org/0 -->
<g id="edge11" class="edge"><title>http://example.org/distk_aj#27&#45;&gt;http://example.org/0</title>
<path fill="none" stroke="darkgreen" d="M721.041,-440.125C715.688,-458.642 706.024,-488.76 693.691,-513 680.318,-539.284 660.963,-566.801 646.491,-585.962"/>
<polygon fill="darkgreen" stroke="darkgreen" points="643.527,-584.077 640.224,-594.144 649.084,-588.333 643.527,-584.077"/>
<text text-anchor="middle" x="790.191" y="-498.8" font-family="Times New Roman,serif" font-size="14.00">der ref</text>
<text text-anchor="middle" x="790.191" y="-483.8" font-family="Times New Roman,serif" font-size="14.00">2018&#45;03&#45;03T19:40:23.017165</text>
</g>
<!-- http://example.org/access131 -->
<g id="node10" class="node"><title>http://example.org/access131</title>
<g id="a_node10"><a xlink:href="http://example.org/access131" xlink:title="access131">
<polygon fill="#9fb1fc" stroke="#0000ff" points="980.691,-513 906.691,-513 906.691,-477 980.691,-477 980.691,-513"/>
<text text-anchor="middle" x="943.691" y="-491.3" font-family="Times New Roman,serif" font-size="14.00">access131</text>
</a>
</g>
</g>
<!-- http://example.org/distk_aj#27&#45;&gt;http://example.org/access131 -->
<g id="edge12" class="edge"><title>http://example.org/distk_aj#27&#45;&gt;http://example.org/access131</title>
<path fill="none" stroke="black" d="M762.866,-434.915C796.73,-445.794 848.107,-462.362 892.691,-477 894.104,-477.464 895.539,-477.936 896.988,-478.414"/>
<polygon fill="black" stroke="black" points="896.063,-481.794 906.657,-481.612 898.262,-475.148 896.063,-481.794"/>
<text text-anchor="middle" x="773.982" y="-422.943" font-family="Times New Roman,serif" font-size="8.00">gen</text>
</g>
<!-- &#45;attrs2 -->
<g id="node9" class="node"><title>&#45;attrs2</title>
<polygon fill="none" stroke="gray" points="803.691,-367 725.691,-367 725.691,-318 809.691,-318 809.691,-361 803.691,-367"/>
<polyline fill="none" stroke="gray" points="803.691,-367 803.691,-361 "/>
<polyline fill="none" stroke="gray" points="809.691,-361 803.691,-361 "/>
<text text-anchor="start" x="735.691" y="-352.5" font-family="Times New Roman,serif" font-size="10.00">value:</text>
<text text-anchor="start" x="762.691" y="-352.5" font-family="Times New Roman,serif" font-size="10.00">&quot;0&quot;</text>
<text text-anchor="start" x="735.691" y="-339.5" font-family="Times New Roman,serif" font-size="10.00">type:</text>
<text text-anchor="start" x="762.691" y="-339.5" font-family="Times New Roman,serif" font-size="10.00">&quot;access&quot;</text>
<text text-anchor="start" x="735.691" y="-326.5" font-family="Times New Roman,serif" font-size="10.00">label:</text>
<text text-anchor="start" x="762.691" y="-326.5" font-family="Times New Roman,serif" font-size="10.00">&quot;distk[j]&quot;</text>
</g>
<!-- &#45;attrs2&#45;&gt;http://example.org/distk_aj#27 -->
<g id="edge8" class="edge"><title>&#45;attrs2&#45;&gt;http://example.org/distk_aj#27</title>
<path fill="none" stroke="gray" stroke-dasharray="5,2" d="M754.861,-367.174C748.396,-379.104 740.707,-393.292 734.846,-404.106"/>
</g>
<!-- http://example.org/access131&#45;&gt;http://example.org/0 -->
<g id="edge10" class="edge"><title>http://example.org/access131&#45;&gt;http://example.org/0</title>
<path fill="none" stroke="darkgreen" d="M906.58,-509.183C901.937,-510.591 897.227,-511.906 892.691,-513 841.117,-525.433 820.449,-504.155 774.691,-531 752.837,-543.821 760.53,-561.588 739.691,-576 726.943,-584.816 711.891,-591.476 697.001,-596.485"/>
<polygon fill="darkgreen" stroke="darkgreen" points="695.756,-593.207 687.265,-599.544 697.855,-599.885 695.756,-593.207"/>
<text text-anchor="middle" x="856.191" y="-564.8" font-family="Times New Roman,serif" font-size="14.00">use</text>
<text text-anchor="middle" x="856.191" y="-549.8" font-family="Times New Roman,serif" font-size="14.00">distk#3[2]</text>
<text text-anchor="middle" x="856.191" y="-534.8" font-family="Times New Roman,serif" font-size="14.00">2018&#45;03&#45;03T19:40:23.017165</text>
</g>
<!-- http://example.org/distk#3 -->
<g id="node12" class="node"><title>http://example.org/distk#3</title>
<ellipse fill="none" stroke="black" cx="941.691" cy="-612" rx="105.082" ry="18"/>
<text text-anchor="middle" x="941.691" y="-608.3" font-family="Times New Roman,serif" font-size="14.00">http://example.org/distk#3</text>
</g>
<!-- http://example.org/access131&#45;&gt;http://example.org/distk#3 -->
<g id="edge13" class="edge"><title>http://example.org/access131&#45;&gt;http://example.org/distk#3</title>
<path fill="none" stroke="black" d="M943.387,-513.466C943.064,-532.064 942.547,-561.756 942.169,-583.499"/>
<polygon fill="black" stroke="black" points="938.665,-583.687 941.991,-593.746 945.664,-583.809 938.665,-583.687"/>
<text text-anchor="middle" x="956.245" y="-519.291" font-family="Times New Roman,serif" font-size="8.00">use</text>
</g>
<!-- http://example.org/j#27 -->
<g id="node13" class="node"><title>http://example.org/j#27</title>
<ellipse fill="none" stroke="black" cx="1159.69" cy="-612" rx="94.4839" ry="18"/>
<text text-anchor="middle" x="1159.69" y="-608.3" font-family="Times New Roman,serif" font-size="14.00">http://example.org/j#27</text>
</g>
<!-- http://example.org/access131&#45;&gt;http://example.org/j#27 -->
<g id="edge14" class="edge"><title>http://example.org/access131&#45;&gt;http://example.org/j#27</title>
<path fill="none" stroke="black" d="M976.028,-513.217C1014.54,-533.722 1078.85,-567.962 1120.25,-590.002"/>
<polygon fill="black" stroke="black" points="1118.76,-593.172 1129.23,-594.782 1122.05,-586.993 1118.76,-593.172"/>
<text text-anchor="middle" x="988.753" y="-503.375" font-family="Times New Roman,serif" font-size="8.00">use</text>
</g>
<!-- &#45;attrs3 -->
<g id="node11" class="node"><title>&#45;attrs3</title>
<polygon fill="none" stroke="gray" points="977.691,-440 903.691,-440 903.691,-404 983.691,-404 983.691,-434 977.691,-440"/>
<polyline fill="none" stroke="gray" points="977.691,-440 977.691,-434 "/>
<polyline fill="none" stroke="gray" points="983.691,-434 977.691,-434 "/>
<text text-anchor="start" x="913.691" y="-419" font-family="Times New Roman,serif" font-size="10.00">type:</text>
<text text-anchor="start" x="936.691" y="-419" font-family="Times New Roman,serif" font-size="10.00">&quot;access&quot;</text>
</g>
<!-- &#45;attrs3&#45;&gt;http://example.org/access131 -->
<g id="edge9" class="edge"><title>&#45;attrs3&#45;&gt;http://example.org/access131</title>
<path fill="none" stroke="gray" stroke-dasharray="5,2" d="M943.691,-440.187C943.691,-451.35 943.691,-465.84 943.691,-476.971"/>
</g>
<!-- http://example.org/sum#27 -->
<g id="node14" class="node"><title>http://example.org/sum#27</title>
<g id="a_node14"><a xlink:href="http://example.org/sum#27" xlink:title="sum#27">
<ellipse fill="#fffc87" stroke="#808080" cx="697.691" cy="-263" rx="39.7935" ry="18"/>
<text text-anchor="middle" x="697.691" y="-259.3" font-family="Times New Roman,serif" font-size="14.00">sum#27</text>
</a>
</g>
</g>
<!-- http://example.org/sum#27&#45;&gt;http://example.org/disti_ak#27 -->
<g id="edge20" class="edge"><title>http://example.org/sum#27&#45;&gt;http://example.org/disti_ak#27</title>
<path fill="none" stroke="black" d="M667.759,-274.823C661.49,-276.966 654.898,-279.129 648.691,-281 585.423,-300.068 545.186,-265.784 504.691,-318 487.532,-340.125 498.771,-372.633 510.575,-395.188"/>
<polygon fill="black" stroke="black" points="507.663,-397.152 515.587,-404.185 513.778,-393.746 507.663,-397.152"/>
<text text-anchor="middle" x="664.845" y="-287.637" font-family="Times New Roman,serif" font-size="8.00">der</text>
</g>
<!-- http://example.org/sum#27&#45;&gt;http://example.org/distk_aj#27 -->
<g id="edge22" class="edge"><title>http://example.org/sum#27&#45;&gt;http://example.org/distk_aj#27</title>
<path fill="none" stroke="black" d="M700.741,-281.101C705.58,-308.234 715.059,-361.386 720.839,-393.793"/>
<polygon fill="black" stroke="black" points="717.443,-394.69 722.645,-403.92 724.335,-393.461 717.443,-394.69"/>
<text text-anchor="middle" x="714.846" y="-284.303" font-family="Times New Roman,serif" font-size="8.00">der</text>
</g>
<!-- http://example.org/sum#27_v1 -->
<g id="node16" class="node"><title>http://example.org/sum#27_v1</title>
<g id="a_node16"><a xlink:href="http://example.org/sum#27_v1" xlink:title="sum#27_v1">
<ellipse fill="#32cd32" stroke="#808080" cx="880.691" cy="-342.5" rx="53.0913" ry="18"/>
<text text-anchor="middle" x="880.691" y="-338.8" font-family="Times New Roman,serif" font-size="14.00">sum#27_v1</text>
</a>
</g>
</g>
<!-- http://example.org/sum#27&#45;&gt;http://example.org/sum#27_v1 -->
<g id="edge17" class="edge"><title>http://example.org/sum#27&#45;&gt;http://example.org/sum#27_v1</title>
<path fill="none" stroke="black" d="M725.884,-275.94C756.218,-288.786 804.759,-309.343 839.397,-324.012"/>
<polygon fill="black" stroke="black" points="838.198,-327.305 848.771,-327.982 840.928,-320.86 838.198,-327.305"/>
<text text-anchor="middle" x="737.856" y="-265.002" font-family="Times New Roman,serif" font-size="8.00">spe</text>
</g>
<!-- http://example.org/+27 -->
<g id="node18" class="node"><title>http://example.org/+27</title>
<g id="a_node18"><a xlink:href="http://example.org/+27" xlink:title="+27">
<polygon fill="#9fb1fc" stroke="#0000ff" points="669.691,-360.5 615.691,-360.5 615.691,-324.5 669.691,-324.5 669.691,-360.5"/>
<text text-anchor="middle" x="642.691" y="-338.8" font-family="Times New Roman,serif" font-size="14.00">+27</text>
</a>
</g>
</g>
<!-- http://example.org/sum#27&#45;&gt;http://example.org/+27 -->
<g id="edge23" class="edge"><title>http://example.org/sum#27&#45;&gt;http://example.org/+27</title>
<path fill="none" stroke="black" d="M686.027,-280.436C678.74,-290.704 669.202,-304.143 660.931,-315.799"/>
<polygon fill="black" stroke="black" points="657.843,-314.101 654.91,-324.282 663.552,-318.153 657.843,-314.101"/>
<text text-anchor="middle" x="692.28" y="-292.17" font-family="Times New Roman,serif" font-size="8.00">gen</text>
</g>
<!-- &#45;attrs4 -->
<g id="node15" class="node"><title>&#45;attrs4</title>
<polygon fill="none" stroke="gray" points="640.691,-208 524.691,-208 524.691,-159 646.691,-159 646.691,-202 640.691,-208"/>
<polyline fill="none" stroke="gray" points="640.691,-208 640.691,-202 "/>
<polyline fill="none" stroke="gray" points="646.691,-202 640.691,-202 "/>
<text text-anchor="start" x="534.691" y="-193.5" font-family="Times New Roman,serif" font-size="10.00">value:</text>
<text text-anchor="start" x="561.691" y="-193.5" font-family="Times New Roman,serif" font-size="10.00">&quot;0&quot;</text>
<text text-anchor="start" x="534.691" y="-180.5" font-family="Times New Roman,serif" font-size="10.00">type:</text>
<text text-anchor="start" x="561.691" y="-180.5" font-family="Times New Roman,serif" font-size="10.00">&quot;operation&quot;</text>
<text text-anchor="start" x="534.691" y="-167.5" font-family="Times New Roman,serif" font-size="10.00">label:</text>
<text text-anchor="start" x="561.691" y="-167.5" font-family="Times New Roman,serif" font-size="10.00">&quot;disti[k] + distk[j]&quot;</text>
</g>
<!-- &#45;attrs4&#45;&gt;http://example.org/sum#27 -->
<g id="edge15" class="edge"><title>&#45;attrs4&#45;&gt;http://example.org/sum#27</title>
<path fill="none" stroke="gray" stroke-dasharray="5,2" d="M619.903,-208.174C638.43,-220.994 660.727,-236.422 676.69,-247.468"/>
</g>
<!-- &#45;attrs5 -->
<g id="node17" class="node"><title>&#45;attrs5</title>
<polygon fill="none" stroke="gray" points="981.191,-281 774.191,-281 774.191,-245 987.191,-245 987.191,-275 981.191,-281"/>
<polyline fill="none" stroke="gray" points="981.191,-281 981.191,-275 "/>
<polyline fill="none" stroke="gray" points="987.191,-275 981.191,-275 "/>
<text text-anchor="start" x="784.691" y="-267" font-family="Times New Roman,serif" font-size="10.00">generatedAtTime:</text>
<text text-anchor="start" x="859.691" y="-267" font-family="Times New Roman,serif" font-size="10.00">&quot;2018&#45;03&#45;03T19:40:23.017165&quot;</text>
<text text-anchor="start" x="784.691" y="-254" font-family="Times New Roman,serif" font-size="10.00">type:</text>
<text text-anchor="start" x="859.691" y="-254" font-family="Times New Roman,serif" font-size="10.00">&quot;Version&quot;</text>
</g>
<!-- &#45;attrs5&#45;&gt;http://example.org/sum#27_v1 -->
<g id="edge16" class="edge"><title>&#45;attrs5&#45;&gt;http://example.org/sum#27_v1</title>
<path fill="none" stroke="gray" stroke-dasharray="5,2" d="M880.691,-281.2C880.691,-294.043 880.691,-311.517 880.691,-324.348"/>
</g>
<!-- http://example.org/+27&#45;&gt;http://example.org/disti_ak#27 -->
<g id="edge19" class="edge"><title>http://example.org/+27&#45;&gt;http://example.org/disti_ak#27</title>
<path fill="none" stroke="black" d="M617.234,-360.508C599.847,-372.124 576.69,-387.595 558.148,-399.983"/>
<polygon fill="black" stroke="black" points="556.097,-397.144 549.727,-405.61 559.986,-402.965 556.097,-397.144"/>
<text text-anchor="middle" x="618.214" y="-373.576" font-family="Times New Roman,serif" font-size="8.00">use</text>
</g>
<!-- http://example.org/+27&#45;&gt;http://example.org/distk_aj#27 -->
<g id="edge21" class="edge"><title>http://example.org/+27&#45;&gt;http://example.org/distk_aj#27</title>
<path fill="none" stroke="black" d="M658.64,-360.876C666.065,-368.743 675.132,-378.041 683.691,-386 688.144,-390.141 692.998,-394.401 697.775,-398.461"/>
<polygon fill="black" stroke="black" points="695.737,-401.32 705.654,-405.05 700.228,-395.95 695.737,-401.32"/>
<text text-anchor="middle" x="673.228" y="-355.485" font-family="Times New Roman,serif" font-size="8.00">use</text>
</g>
<!-- &#45;attrs6 -->
<g id="node19" class="node"><title>&#45;attrs6</title>
<polygon fill="none" stroke="gray" points="633.691,-281 581.691,-281 581.691,-245 639.691,-245 639.691,-275 633.691,-281"/>
<polyline fill="none" stroke="gray" points="633.691,-281 633.691,-275 "/>
<polyline fill="none" stroke="gray" points="639.691,-275 633.691,-275 "/>
<text text-anchor="start" x="591.691" y="-260" font-family="Times New Roman,serif" font-size="10.00">type:</text>
<text text-anchor="start" x="614.691" y="-260" font-family="Times New Roman,serif" font-size="10.00">&quot;+&quot;</text>
</g>
<!-- &#45;attrs6&#45;&gt;http://example.org/+27 -->
<g id="edge18" class="edge"><title>&#45;attrs6&#45;&gt;http://example.org/+27</title>
<path fill="none" stroke="gray" stroke-dasharray="5,2" d="M617.793,-281.2C623.096,-294.043 630.311,-311.517 635.609,-324.348"/>
</g>
<!-- http://example.org/ikj#27 -->
<g id="node20" class="node"><title>http://example.org/ikj#27</title>
<g id="a_node20"><a xlink:href="http://example.org/ikj#27" xlink:title="ikj#27">
<ellipse fill="#fffc87" stroke="#808080" cx="766.691" cy="-104" rx="32.4942" ry="18"/>
<text text-anchor="middle" x="766.691" y="-100.3" font-family="Times New Roman,serif" font-size="14.00">ikj#27</text>
</a>
</g>
</g>
<!-- http://example.org/ikj#27&#45;&gt;http://example.org/sum#27 -->
<g id="edge27" class="edge"><title>http://example.org/ikj#27&#45;&gt;http://example.org/sum#27</title>
<path fill="none" stroke="darkgreen" d="M764.109,-122.122C760.477,-143.164 752.685,-179.57 738.691,-208 733.437,-218.673 725.942,-229.335 718.793,-238.331"/>
<polygon fill="darkgreen" stroke="darkgreen" points="716.066,-236.137 712.4,-246.077 721.465,-240.593 716.066,-236.137"/>
<text text-anchor="middle" x="838.191" y="-187.3" font-family="Times New Roman,serif" font-size="14.00">der ref</text>
<text text-anchor="middle" x="838.191" y="-172.3" font-family="Times New Roman,serif" font-size="14.00">2018&#45;03&#45;03T19:40:23.017165</text>
</g>
<!-- http://example.org/assign47 -->
<g id="node22" class="node"><title>http://example.org/assign47</title>
<g id="a_node22"><a xlink:href="http://example.org/assign47" xlink:title="assign47">
<polygon fill="#9fb1fc" stroke="#0000ff" points="730.191,-201.5 665.191,-201.5 665.191,-165.5 730.191,-165.5 730.191,-201.5"/>
<text text-anchor="middle" x="697.691" y="-179.8" font-family="Times New Roman,serif" font-size="14.00">assign47</text>
</a>
</g>
</g>
<!-- http://example.org/ikj#27&#45;&gt;http://example.org/assign47 -->
<g id="edge28" class="edge"><title>http://example.org/ikj#27&#45;&gt;http://example.org/assign47</title>
<path fill="none" stroke="black" d="M752.728,-120.683C743.231,-131.35 730.469,-145.684 719.626,-157.863"/>
<polygon fill="black" stroke="black" points="716.866,-155.699 712.831,-165.495 722.094,-160.354 716.866,-155.699"/>
<text text-anchor="middle" x="757.443" y="-133.023" font-family="Times New Roman,serif" font-size="8.00">gen</text>
</g>
<!-- &#45;attrs7 -->
<g id="node21" class="node"><title>&#45;attrs7</title>
<polygon fill="none" stroke="gray" points="799.691,-49 727.691,-49 727.691,-0 805.691,-0 805.691,-43 799.691,-49"/>
<polyline fill="none" stroke="gray" points="799.691,-49 799.691,-43 "/>
<polyline fill="none" stroke="gray" points="805.691,-43 799.691,-43 "/>
<text text-anchor="start" x="737.691" y="-34.5" font-family="Times New Roman,serif" font-size="10.00">value:</text>
<text text-anchor="start" x="764.691" y="-34.5" font-family="Times New Roman,serif" font-size="10.00">&quot;0&quot;</text>
<text text-anchor="start" x="737.691" y="-21.5" font-family="Times New Roman,serif" font-size="10.00">type:</text>
<text text-anchor="start" x="764.691" y="-21.5" font-family="Times New Roman,serif" font-size="10.00">&quot;name&quot;</text>
<text text-anchor="start" x="737.691" y="-8.5" font-family="Times New Roman,serif" font-size="10.00">label:</text>
<text text-anchor="start" x="764.691" y="-8.5" font-family="Times New Roman,serif" font-size="10.00">&quot;ikj&quot;</text>
</g>
<!-- &#45;attrs7&#45;&gt;http://example.org/ikj#27 -->
<g id="edge24" class="edge"><title>&#45;attrs7&#45;&gt;http://example.org/ikj#27</title>
<path fill="none" stroke="gray" stroke-dasharray="5,2" d="M766.691,-49.1737C766.691,-60.9254 766.691,-74.869 766.691,-85.6196"/>
</g>
<!-- http://example.org/assign47&#45;&gt;http://example.org/sum#27 -->
<g id="edge26" class="edge"><title>http://example.org/assign47&#45;&gt;http://example.org/sum#27</title>
<path fill="none" stroke="black" d="M697.691,-201.7C697.691,-211.432 697.691,-223.824 697.691,-234.84"/>
<polygon fill="black" stroke="black" points="694.191,-234.848 697.691,-244.848 701.191,-234.848 694.191,-234.848"/>
<text text-anchor="middle" x="710.681" y="-207.3" font-family="Times New Roman,serif" font-size="8.00">use</text>
</g>
<!-- &#45;attrs8 -->
<g id="node23" class="node"><title>&#45;attrs8</title>
<polygon fill="none" stroke="gray" points="710.191,-122 637.191,-122 637.191,-86 716.191,-86 716.191,-116 710.191,-122"/>
<polyline fill="none" stroke="gray" points="710.191,-122 710.191,-116 "/>
<polyline fill="none" stroke="gray" points="716.191,-116 710.191,-116 "/>
<text text-anchor="start" x="647.691" y="-101" font-family="Times New Roman,serif" font-size="10.00">type:</text>
<text text-anchor="start" x="670.691" y="-101" font-family="Times New Roman,serif" font-size="10.00">&quot;assign&quot;</text>
</g>
<!-- &#45;attrs8&#45;&gt;http://example.org/assign47 -->
<g id="edge25" class="edge"><title>&#45;attrs8&#45;&gt;http://example.org/assign47</title>
<path fill="none" stroke="gray" stroke-dasharray="5,2" d="M681.351,-122.2C684.832,-135.043 689.566,-152.517 693.043,-165.348"/>
</g>
</g>
</svg>
