<?xml version="1.0" encoding="UTF-8" standalone="no"?>
<!DOCTYPE svg PUBLIC "-//W3C//DTD SVG 1.1//EN"
 "http://www.w3.org/Graphics/SVG/1.1/DTD/svg11.dtd">
<!-- Generated by graphviz version 2.38.0 (20140413.2041)
 -->
<!-- Title: PROV Pages: 1 -->
<svg width="604pt" height="319pt"
 viewBox="0.00 0.00 603.93 319.00" xmlns="http://www.w3.org/2000/svg" xmlns:xlink="http://www.w3.org/1999/xlink">
<g id="graph0" class="graph" transform="scale(1 1) rotate(0) translate(4 315)">
<title>PROV</title>
<polygon fill="white" stroke="none" points="-4,4 -4,-315 599.933,-315 599.933,4 -4,4"/>
<!-- http://example.org/disti_aj#17 -->
<g id="node1" class="node"><title>http://example.org/disti_aj#17</title>
<g id="a_node1"><a xlink:href="http://example.org/disti_aj#17" xlink:title="disti_aj#17">
<ellipse fill="#fffc87" stroke="#808080" cx="162.691" cy="-104" rx="50.0912" ry="18"/>
<text text-anchor="middle" x="162.691" y="-100.3" font-family="Times New Roman,serif" font-size="14.00">disti_aj#17</text>
</a>
</g>
</g>
<!-- http://example.org/access74 -->
<g id="node3" class="node"><title>http://example.org/access74</title>
<g id="a_node3"><a xlink:href="http://example.org/access74" xlink:title="access74">
<polygon fill="#9fb1fc" stroke="#0000ff" points="340.691,-224 272.691,-224 272.691,-188 340.691,-188 340.691,-224"/>
<text text-anchor="middle" x="306.691" y="-202.3" font-family="Times New Roman,serif" font-size="14.00">access74</text>
</a>
</g>
</g>
<!-- http://example.org/disti_aj#17&#45;&gt;http://example.org/access74 -->
<g id="edge7" class="edge"><title>http://example.org/disti_aj#17&#45;&gt;http://example.org/access74</title>
<path fill="none" stroke="black" d="M210.382,-109.655C233.685,-114.132 260.719,-122.889 279.691,-140 290.646,-149.88 297.273,-164.898 301.218,-178.009"/>
<polygon fill="black" stroke="black" points="297.912,-179.199 303.838,-187.982 304.682,-177.42 297.912,-179.199"/>
<text text-anchor="middle" x="220.371" y="-96.5648" font-family="Times New Roman,serif" font-size="8.00">gen</text>
</g>
<!-- bn0 -->
<g id="node6" class="node"><title>bn0</title>
<ellipse fill="black" stroke="black" cx="115.691" cy="-206" rx="1.8" ry="1.8"/>
</g>
<!-- http://example.org/disti_aj#17&#45;&gt;bn0 -->
<g id="edge4" class="edge"><title>http://example.org/disti_aj#17&#45;&gt;bn0</title>
<path fill="none" stroke="darkgreen" d="M135.853,-119.194C128.277,-124.626 120.945,-131.581 116.691,-140 104.882,-163.37 113.655,-197.766 115.404,-204.009"/>
<text text-anchor="middle" x="198.191" y="-158.8" font-family="Times New Roman,serif" font-size="14.00">der ac&#45;w</text>
<text text-anchor="middle" x="198.191" y="-143.8" font-family="Times New Roman,serif" font-size="14.00">2018&#45;03&#45;04T03:52:41.988914</text>
</g>
<!-- &#45;attrs0 -->
<g id="node2" class="node"><title>&#45;attrs0</title>
<polygon fill="none" stroke="gray" points="198.691,-49 120.691,-49 120.691,-0 204.691,-0 204.691,-43 198.691,-49"/>
<polyline fill="none" stroke="gray" points="198.691,-49 198.691,-43 "/>
<polyline fill="none" stroke="gray" points="204.691,-43 198.691,-43 "/>
<text text-anchor="start" x="130.691" y="-34.5" font-family="Times New Roman,serif" font-size="10.00">value:</text>
<text text-anchor="start" x="157.691" y="-34.5" font-family="Times New Roman,serif" font-size="10.00">&quot;2&quot;</text>
<text text-anchor="start" x="130.691" y="-21.5" font-family="Times New Roman,serif" font-size="10.00">type:</text>
<text text-anchor="start" x="157.691" y="-21.5" font-family="Times New Roman,serif" font-size="10.00">&quot;access&quot;</text>
<text text-anchor="start" x="130.691" y="-8.5" font-family="Times New Roman,serif" font-size="10.00">label:</text>
<text text-anchor="start" x="157.691" y="-8.5" font-family="Times New Roman,serif" font-size="10.00">&quot;disti[j]&quot;</text>
</g>
<!-- &#45;attrs0&#45;&gt;http://example.org/disti_aj#17 -->
<g id="edge1" class="edge"><title>&#45;attrs0&#45;&gt;http://example.org/disti_aj#17</title>
<path fill="none" stroke="gray" stroke-dasharray="5,2" d="M162.691,-49.1737C162.691,-60.9254 162.691,-74.869 162.691,-85.6196"/>
</g>
<!-- http://example.org/2 -->
<g id="node5" class="node"><title>http://example.org/2</title>
<ellipse fill="none" stroke="black" cx="306.691" cy="-293" rx="83.3857" ry="18"/>
<text text-anchor="middle" x="306.691" y="-289.3" font-family="Times New Roman,serif" font-size="14.00">http://example.org/2</text>
</g>
<!-- http://example.org/access74&#45;&gt;http://example.org/2 -->
<g id="edge3" class="edge"><title>http://example.org/access74&#45;&gt;http://example.org/2</title>
<path fill="none" stroke="black" d="M306.691,-224.201C306.691,-235.837 306.691,-251.452 306.691,-264.763"/>
<polygon fill="black" stroke="black" points="303.191,-264.825 306.691,-274.825 310.191,-264.825 303.191,-264.825"/>
<text text-anchor="middle" x="319.681" y="-229.801" font-family="Times New Roman,serif" font-size="8.00">use</text>
</g>
<!-- http://example.org/disti#5 -->
<g id="node7" class="node"><title>http://example.org/disti#5</title>
<ellipse fill="none" stroke="black" cx="102.691" cy="-293" rx="102.882" ry="18"/>
<text text-anchor="middle" x="102.691" y="-289.3" font-family="Times New Roman,serif" font-size="14.00">http://example.org/disti#5</text>
</g>
<!-- http://example.org/access74&#45;&gt;http://example.org/disti#5 -->
<g id="edge8" class="edge"><title>http://example.org/access74&#45;&gt;http://example.org/disti#5</title>
<path fill="none" stroke="black" d="M272.546,-221.227C239.123,-235.153 187.911,-256.492 150.456,-272.098"/>
<polygon fill="black" stroke="black" points="148.652,-269.058 140.767,-276.135 151.344,-275.519 148.652,-269.058"/>
<text text-anchor="middle" x="270.619" y="-234.203" font-family="Times New Roman,serif" font-size="8.00">use</text>
</g>
<!-- http://example.org/j#15 -->
<g id="node8" class="node"><title>http://example.org/j#15</title>
<ellipse fill="none" stroke="black" cx="501.691" cy="-293" rx="94.4839" ry="18"/>
<text text-anchor="middle" x="501.691" y="-289.3" font-family="Times New Roman,serif" font-size="14.00">http://example.org/j#15</text>
</g>
<!-- http://example.org/access74&#45;&gt;http://example.org/j#15 -->
<g id="edge9" class="edge"><title>http://example.org/access74&#45;&gt;http://example.org/j#15</title>
<path fill="none" stroke="black" d="M341.104,-222.001C373.085,-235.941 420.936,-256.799 456.087,-272.121"/>
<polygon fill="black" stroke="black" points="455.075,-275.498 465.641,-276.286 457.872,-269.081 455.075,-275.498"/>
<text text-anchor="middle" x="353.17" y="-211.189" font-family="Times New Roman,serif" font-size="8.00">use</text>
</g>
<!-- &#45;attrs1 -->
<g id="node4" class="node"><title>&#45;attrs1</title>
<polygon fill="none" stroke="gray" points="352.691,-122 278.691,-122 278.691,-86 358.691,-86 358.691,-116 352.691,-122"/>
<polyline fill="none" stroke="gray" points="352.691,-122 352.691,-116 "/>
<polyline fill="none" stroke="gray" points="358.691,-116 352.691,-116 "/>
<text text-anchor="start" x="288.691" y="-101" font-family="Times New Roman,serif" font-size="10.00">type:</text>
<text text-anchor="start" x="311.691" y="-101" font-family="Times New Roman,serif" font-size="10.00">&quot;access&quot;</text>
</g>
<!-- &#45;attrs1&#45;&gt;http://example.org/access74 -->
<g id="edge2" class="edge"><title>&#45;attrs1&#45;&gt;http://example.org/access74</title>
<path fill="none" stroke="gray" stroke-dasharray="5,2" d="M316.601,-122.419C314.398,-140.773 310.951,-169.502 308.757,-187.781"/>
</g>
<!-- bn0&#45;&gt;http://example.org/2 -->
<g id="edge6" class="edge"><title>bn0&#45;&gt;http://example.org/2</title>
<path fill="none" stroke="darkgreen" d="M116.911,-207.543C127.858,-212.414 210.017,-248.978 262.586,-272.372"/>
<polygon fill="darkgreen" stroke="darkgreen" points="261.474,-275.708 272.033,-276.576 264.32,-269.313 261.474,-275.708"/>
</g>
<!-- bn0&#45;&gt;http://example.org/disti#5 -->
<g id="edge5" class="edge"><title>bn0&#45;&gt;http://example.org/disti#5</title>
<path fill="none" stroke="darkgreen" d="M115.545,-207.955C114.692,-213.528 110.278,-242.391 106.858,-264.755"/>
<polygon fill="darkgreen" stroke="darkgreen" points="103.378,-264.359 105.326,-274.773 110.297,-265.417 103.378,-264.359"/>
<text text-anchor="middle" x="118.691" y="-245.8" font-family="Times New Roman,serif" font-size="14.00">[1]</text>
</g>
</g>
</svg>
