<?xml version="1.0" encoding="UTF-8" standalone="no"?>
<!DOCTYPE svg PUBLIC "-//W3C//DTD SVG 1.1//EN"
 "http://www.w3.org/Graphics/SVG/1.1/DTD/svg11.dtd">
<!-- Generated by graphviz version 2.38.0 (20140413.2041)
 -->
<!-- Title: PROV Pages: 1 -->
<svg width="682pt" height="320pt"
 viewBox="0.00 0.00 681.69 320.00" xmlns="http://www.w3.org/2000/svg" xmlns:xlink="http://www.w3.org/1999/xlink">
<g id="graph0" class="graph" transform="scale(1 1) rotate(0) translate(4 316)">
<title>PROV</title>
<polygon fill="white" stroke="none" points="-4,4 -4,-316 677.691,-316 677.691,4 -4,4"/>
<!-- http://example.org/disti_aj#27 -->
<g id="node1" class="node"><title>http://example.org/disti_aj#27</title>
<g id="a_node1"><a xlink:href="http://example.org/disti_aj#27" xlink:title="disti_aj#27">
<ellipse fill="#fffc87" stroke="#808080" cx="477.691" cy="-104" rx="50.0912" ry="18"/>
<text text-anchor="middle" x="477.691" y="-100.3" font-family="Times New Roman,serif" font-size="14.00">disti_aj#27</text>
</a>
</g>
</g>
<!-- http://example.org/access118 -->
<g id="node3" class="node"><title>http://example.org/access118</title>
<g id="a_node3"><a xlink:href="http://example.org/access118" xlink:title="access118">
<polygon fill="#9fb1fc" stroke="#0000ff" points="370.691,-195 296.691,-195 296.691,-159 370.691,-159 370.691,-195"/>
<text text-anchor="middle" x="333.691" y="-173.3" font-family="Times New Roman,serif" font-size="14.00">access118</text>
</a>
</g>
</g>
<!-- http://example.org/disti_aj#27&#45;&gt;http://example.org/access118 -->
<g id="edge5" class="edge"><title>http://example.org/disti_aj#27&#45;&gt;http://example.org/access118</title>
<path fill="none" stroke="black" d="M449.241,-119.027C428.691,-129.16 400.559,-143.03 377.199,-154.548"/>
<polygon fill="black" stroke="black" points="375.598,-151.435 368.177,-158.997 378.694,-157.713 375.598,-151.435"/>
<text text-anchor="middle" x="448.259" y="-132.095" font-family="Times New Roman,serif" font-size="8.00">gen</text>
</g>
<!-- http://example.org/2 -->
<g id="node5" class="node"><title>http://example.org/2</title>
<ellipse fill="none" stroke="black" cx="520.691" cy="-294" rx="83.3857" ry="18"/>
<text text-anchor="middle" x="520.691" y="-290.3" font-family="Times New Roman,serif" font-size="14.00">http://example.org/2</text>
</g>
<!-- http://example.org/disti_aj#27&#45;&gt;http://example.org/2 -->
<g id="edge4" class="edge"><title>http://example.org/disti_aj#27&#45;&gt;http://example.org/2</title>
<path fill="none" stroke="darkgreen" d="M484.965,-121.832C493.657,-142.766 507.876,-179.8 514.691,-213 518.263,-230.404 519.765,-250.327 520.373,-265.937"/>
<polygon fill="darkgreen" stroke="darkgreen" points="516.876,-266.078 520.666,-275.971 523.873,-265.874 516.876,-266.078"/>
<text text-anchor="middle" x="592.191" y="-180.8" font-family="Times New Roman,serif" font-size="14.00">der ref</text>
<text text-anchor="middle" x="592.191" y="-165.8" font-family="Times New Roman,serif" font-size="14.00">2018&#45;03&#45;03T19:40:21.710247</text>
</g>
<!-- &#45;attrs0 -->
<g id="node2" class="node"><title>&#45;attrs0</title>
<polygon fill="none" stroke="gray" points="513.691,-49 435.691,-49 435.691,-0 519.691,-0 519.691,-43 513.691,-49"/>
<polyline fill="none" stroke="gray" points="513.691,-49 513.691,-43 "/>
<polyline fill="none" stroke="gray" points="519.691,-43 513.691,-43 "/>
<text text-anchor="start" x="445.691" y="-34.5" font-family="Times New Roman,serif" font-size="10.00">value:</text>
<text text-anchor="start" x="472.691" y="-34.5" font-family="Times New Roman,serif" font-size="10.00">&quot;2&quot;</text>
<text text-anchor="start" x="445.691" y="-21.5" font-family="Times New Roman,serif" font-size="10.00">type:</text>
<text text-anchor="start" x="472.691" y="-21.5" font-family="Times New Roman,serif" font-size="10.00">&quot;access&quot;</text>
<text text-anchor="start" x="445.691" y="-8.5" font-family="Times New Roman,serif" font-size="10.00">label:</text>
<text text-anchor="start" x="472.691" y="-8.5" font-family="Times New Roman,serif" font-size="10.00">&quot;disti[j]&quot;</text>
</g>
<!-- &#45;attrs0&#45;&gt;http://example.org/disti_aj#27 -->
<g id="edge1" class="edge"><title>&#45;attrs0&#45;&gt;http://example.org/disti_aj#27</title>
<path fill="none" stroke="gray" stroke-dasharray="5,2" d="M477.691,-49.1737C477.691,-60.9254 477.691,-74.869 477.691,-85.6196"/>
</g>
<!-- http://example.org/access118&#45;&gt;http://example.org/2 -->
<g id="edge3" class="edge"><title>http://example.org/access118&#45;&gt;http://example.org/2</title>
<path fill="none" stroke="darkgreen" d="M332.543,-195.228C332.337,-213.404 335.041,-241.633 351.691,-258 355.391,-261.637 404.569,-271.586 448.925,-279.951"/>
<polygon fill="darkgreen" stroke="darkgreen" points="448.411,-283.415 458.885,-281.818 449.701,-276.535 448.411,-283.415"/>
<text text-anchor="middle" x="433.191" y="-246.8" font-family="Times New Roman,serif" font-size="14.00">use</text>
<text text-anchor="middle" x="433.191" y="-231.8" font-family="Times New Roman,serif" font-size="14.00">disti#8[2]</text>
<text text-anchor="middle" x="433.191" y="-216.8" font-family="Times New Roman,serif" font-size="14.00">2018&#45;03&#45;03T19:40:21.710247</text>
</g>
<!-- http://example.org/disti#8 -->
<g id="node6" class="node"><title>http://example.org/disti#8</title>
<ellipse fill="none" stroke="black" cx="102.691" cy="-294" rx="102.882" ry="18"/>
<text text-anchor="middle" x="102.691" y="-290.3" font-family="Times New Roman,serif" font-size="14.00">http://example.org/disti#8</text>
</g>
<!-- http://example.org/access118&#45;&gt;http://example.org/disti#8 -->
<g id="edge6" class="edge"><title>http://example.org/access118&#45;&gt;http://example.org/disti#8</title>
<path fill="none" stroke="black" d="M299.357,-195.092C258.055,-215.654 188.752,-250.156 144.408,-272.232"/>
<polygon fill="black" stroke="black" points="142.736,-269.155 135.343,-276.744 145.855,-275.421 142.736,-269.155"/>
<text text-anchor="middle" x="298.433" y="-208.164" font-family="Times New Roman,serif" font-size="8.00">use</text>
</g>
<!-- http://example.org/j#24 -->
<g id="node7" class="node"><title>http://example.org/j#24</title>
<ellipse fill="none" stroke="black" cx="317.691" cy="-294" rx="94.4839" ry="18"/>
<text text-anchor="middle" x="317.691" y="-290.3" font-family="Times New Roman,serif" font-size="14.00">http://example.org/j#24</text>
</g>
<!-- http://example.org/access118&#45;&gt;http://example.org/j#24 -->
<g id="edge7" class="edge"><title>http://example.org/access118&#45;&gt;http://example.org/j#24</title>
<path fill="none" stroke="black" d="M331.261,-195.466C328.661,-214.149 324.504,-244.027 321.476,-265.796"/>
<polygon fill="black" stroke="black" points="318.003,-265.359 320.091,-275.746 324.936,-266.324 318.003,-265.359"/>
<text text-anchor="middle" x="343.094" y="-202.785" font-family="Times New Roman,serif" font-size="8.00">use</text>
</g>
<!-- &#45;attrs1 -->
<g id="node4" class="node"><title>&#45;attrs1</title>
<polygon fill="none" stroke="gray" points="367.691,-122 293.691,-122 293.691,-86 373.691,-86 373.691,-116 367.691,-122"/>
<polyline fill="none" stroke="gray" points="367.691,-122 367.691,-116 "/>
<polyline fill="none" stroke="gray" points="373.691,-116 367.691,-116 "/>
<text text-anchor="start" x="303.691" y="-101" font-family="Times New Roman,serif" font-size="10.00">type:</text>
<text text-anchor="start" x="326.691" y="-101" font-family="Times New Roman,serif" font-size="10.00">&quot;access&quot;</text>
</g>
<!-- &#45;attrs1&#45;&gt;http://example.org/access118 -->
<g id="edge2" class="edge"><title>&#45;attrs1&#45;&gt;http://example.org/access118</title>
<path fill="none" stroke="gray" stroke-dasharray="5,2" d="M333.691,-122.187C333.691,-133.35 333.691,-147.84 333.691,-158.971"/>
</g>
</g>
</svg>
