<?xml version="1.0" encoding="UTF-8" standalone="no"?>
<!DOCTYPE svg PUBLIC "-//W3C//DTD SVG 1.1//EN"
 "http://www.w3.org/Graphics/SVG/1.1/DTD/svg11.dtd">
<!-- Generated by graphviz version 2.38.0 (20140413.2041)
 -->
<!-- Title: PROV Pages: 1 -->
<svg width="486pt" height="349pt"
 viewBox="0.00 0.00 485.50 349.00" xmlns="http://www.w3.org/2000/svg" xmlns:xlink="http://www.w3.org/1999/xlink">
<g id="graph0" class="graph" transform="scale(1 1) rotate(0) translate(4 345)">
<title>PROV</title>
<polygon fill="white" stroke="none" points="-4,4 -4,-345 481.5,-345 481.5,4 -4,4"/>
<!-- http://example.org/10000 -->
<g id="node1" class="node"><title>http://example.org/10000</title>
<g id="a_node1"><a xlink:href="http://example.org/10000" xlink:title="10000">
<ellipse fill="#fffc87" stroke="#808080" cx="263.5" cy="-250" rx="32.4942" ry="18"/>
<text text-anchor="middle" x="263.5" y="-246.3" font-family="Times New Roman,serif" font-size="14.00">10000</text>
</a>
</g>
</g>
<!-- http://example.org/10000_v1 -->
<g id="node3" class="node"><title>http://example.org/10000_v1</title>
<g id="a_node3"><a xlink:href="http://example.org/10000_v1" xlink:title="10000_v1">
<ellipse fill="#32cd32" stroke="#808080" cx="151.5" cy="-323" rx="46.2923" ry="18"/>
<text text-anchor="middle" x="151.5" y="-319.3" font-family="Times New Roman,serif" font-size="14.00">10000_v1</text>
</a>
</g>
</g>
<!-- http://example.org/10000&#45;&gt;http://example.org/10000_v1 -->
<g id="edge3" class="edge"><title>http://example.org/10000&#45;&gt;http://example.org/10000_v1</title>
<path fill="none" stroke="black" d="M242.957,-264.022C226.275,-274.598 202.461,-289.694 183.316,-301.831"/>
<polygon fill="black" stroke="black" points="181.189,-299.035 174.617,-307.345 184.937,-304.947 181.189,-299.035"/>
<text text-anchor="middle" x="243.578" y="-277.11" font-family="Times New Roman,serif" font-size="8.00">spe</text>
</g>
<!-- &#45;attrs0 -->
<g id="node2" class="node"><title>&#45;attrs0</title>
<polygon fill="none" stroke="gray" points="210,-195 137,-195 137,-159 216,-159 216,-189 210,-195"/>
<polyline fill="none" stroke="gray" points="210,-195 210,-189 "/>
<polyline fill="none" stroke="gray" points="216,-189 210,-189 "/>
<text text-anchor="start" x="147.5" y="-181" font-family="Times New Roman,serif" font-size="10.00">value:</text>
<text text-anchor="start" x="174.5" y="-181" font-family="Times New Roman,serif" font-size="10.00">&quot;10000&quot;</text>
<text text-anchor="start" x="147.5" y="-168" font-family="Times New Roman,serif" font-size="10.00">type:</text>
<text text-anchor="start" x="174.5" y="-168" font-family="Times New Roman,serif" font-size="10.00">&quot;literal&quot;</text>
</g>
<!-- &#45;attrs0&#45;&gt;http://example.org/10000 -->
<g id="edge1" class="edge"><title>&#45;attrs0&#45;&gt;http://example.org/10000</title>
<path fill="none" stroke="gray" stroke-dasharray="5,2" d="M197.56,-195.187C212.345,-207.253 231.893,-223.206 245.858,-234.603"/>
</g>
<!-- &#45;attrs1 -->
<g id="node4" class="node"><title>&#45;attrs1</title>
<polygon fill="none" stroke="gray" points="207,-268 0,-268 0,-232 213,-232 213,-262 207,-268"/>
<polyline fill="none" stroke="gray" points="207,-268 207,-262 "/>
<polyline fill="none" stroke="gray" points="213,-262 207,-262 "/>
<text text-anchor="start" x="10.5" y="-254" font-family="Times New Roman,serif" font-size="10.00">generatedAtTime:</text>
<text text-anchor="start" x="85.5" y="-254" font-family="Times New Roman,serif" font-size="10.00">&quot;2018&#45;03&#45;04T13:54:38.126826&quot;</text>
<text text-anchor="start" x="10.5" y="-241" font-family="Times New Roman,serif" font-size="10.00">type:</text>
<text text-anchor="start" x="85.5" y="-241" font-family="Times New Roman,serif" font-size="10.00">&quot;Version&quot;</text>
</g>
<!-- &#45;attrs1&#45;&gt;http://example.org/10000_v1 -->
<g id="edge2" class="edge"><title>&#45;attrs1&#45;&gt;http://example.org/10000_v1</title>
<path fill="none" stroke="gray" stroke-dasharray="5,2" d="M117.393,-268.187C124.572,-279.514 133.923,-294.267 141.017,-305.46"/>
</g>
<!-- http://example.org/m -->
<g id="node5" class="node"><title>http://example.org/m</title>
<g id="a_node5"><a xlink:href="http://example.org/m" xlink:title="m">
<ellipse fill="#fffc87" stroke="#808080" cx="328.5" cy="-104" rx="27" ry="18"/>
<text text-anchor="middle" x="328.5" y="-100.3" font-family="Times New Roman,serif" font-size="14.00">m</text>
</a>
</g>
</g>
<!-- http://example.org/m&#45;&gt;http://example.org/10000 -->
<g id="edge7" class="edge"><title>http://example.org/m&#45;&gt;http://example.org/10000</title>
<path fill="none" stroke="darkgreen" d="M325.076,-122.193C320.985,-140.769 313.193,-170.937 301.5,-195 296.412,-205.47 289.382,-216.131 282.75,-225.183"/>
<polygon fill="darkgreen" stroke="darkgreen" points="279.841,-223.227 276.591,-233.311 285.42,-227.455 279.841,-223.227"/>
<text text-anchor="middle" x="396" y="-180.8" font-family="Times New Roman,serif" font-size="14.00">der ref</text>
<text text-anchor="middle" x="396" y="-165.8" font-family="Times New Roman,serif" font-size="14.00">2018&#45;03&#45;04T13:54:38.126826</text>
</g>
<!-- http://example.org/assign1 -->
<g id="node7" class="node"><title>http://example.org/assign1</title>
<g id="a_node7"><a xlink:href="http://example.org/assign1" xlink:title="assign1">
<polygon fill="#9fb1fc" stroke="#0000ff" points="292.5,-195 234.5,-195 234.5,-159 292.5,-159 292.5,-195"/>
<text text-anchor="middle" x="263.5" y="-173.3" font-family="Times New Roman,serif" font-size="14.00">assign1</text>
</a>
</g>
</g>
<!-- http://example.org/m&#45;&gt;http://example.org/assign1 -->
<g id="edge8" class="edge"><title>http://example.org/m&#45;&gt;http://example.org/assign1</title>
<path fill="none" stroke="black" d="M315.032,-119.711C306.654,-128.863 295.67,-140.861 285.996,-151.427"/>
<polygon fill="black" stroke="black" points="283.411,-149.068 279.24,-158.807 288.574,-153.795 283.411,-149.068"/>
<text text-anchor="middle" x="319.549" y="-132.115" font-family="Times New Roman,serif" font-size="8.00">gen</text>
</g>
<!-- &#45;attrs2 -->
<g id="node6" class="node"><title>&#45;attrs2</title>
<polygon fill="none" stroke="gray" points="362,-49 289,-49 289,-0 368,-0 368,-43 362,-49"/>
<polyline fill="none" stroke="gray" points="362,-49 362,-43 "/>
<polyline fill="none" stroke="gray" points="368,-43 362,-43 "/>
<text text-anchor="start" x="299.5" y="-34.5" font-family="Times New Roman,serif" font-size="10.00">value:</text>
<text text-anchor="start" x="326.5" y="-34.5" font-family="Times New Roman,serif" font-size="10.00">&quot;10000&quot;</text>
<text text-anchor="start" x="299.5" y="-21.5" font-family="Times New Roman,serif" font-size="10.00">type:</text>
<text text-anchor="start" x="326.5" y="-21.5" font-family="Times New Roman,serif" font-size="10.00">&quot;name&quot;</text>
<text text-anchor="start" x="299.5" y="-8.5" font-family="Times New Roman,serif" font-size="10.00">label:</text>
<text text-anchor="start" x="326.5" y="-8.5" font-family="Times New Roman,serif" font-size="10.00">&quot;m&quot;</text>
</g>
<!-- &#45;attrs2&#45;&gt;http://example.org/m -->
<g id="edge4" class="edge"><title>&#45;attrs2&#45;&gt;http://example.org/m</title>
<path fill="none" stroke="gray" stroke-dasharray="5,2" d="M328.5,-49.1737C328.5,-60.9254 328.5,-74.869 328.5,-85.6196"/>
</g>
<!-- http://example.org/assign1&#45;&gt;http://example.org/10000 -->
<g id="edge6" class="edge"><title>http://example.org/assign1&#45;&gt;http://example.org/10000</title>
<path fill="none" stroke="black" d="M263.5,-195.187C263.5,-203.211 263.5,-212.953 263.5,-221.931"/>
<polygon fill="black" stroke="black" points="260,-221.971 263.5,-231.971 267,-221.971 260,-221.971"/>
<text text-anchor="middle" x="276.49" y="-200.787" font-family="Times New Roman,serif" font-size="8.00">use</text>
</g>
<!-- &#45;attrs3 -->
<g id="node8" class="node"><title>&#45;attrs3</title>
<polygon fill="none" stroke="gray" points="277,-122 204,-122 204,-86 283,-86 283,-116 277,-122"/>
<polyline fill="none" stroke="gray" points="277,-122 277,-116 "/>
<polyline fill="none" stroke="gray" points="283,-116 277,-116 "/>
<text text-anchor="start" x="214.5" y="-101" font-family="Times New Roman,serif" font-size="10.00">type:</text>
<text text-anchor="start" x="237.5" y="-101" font-family="Times New Roman,serif" font-size="10.00">&quot;assign&quot;</text>
</g>
<!-- &#45;attrs3&#45;&gt;http://example.org/assign1 -->
<g id="edge5" class="edge"><title>&#45;attrs3&#45;&gt;http://example.org/assign1</title>
<path fill="none" stroke="gray" stroke-dasharray="5,2" d="M248.341,-122.187C251.486,-133.35 255.568,-147.84 258.703,-158.971"/>
</g>
</g>
</svg>
