<?xml version="1.0" encoding="UTF-8" standalone="no"?>
<!DOCTYPE svg PUBLIC "-//W3C//DTD SVG 1.1//EN"
 "http://www.w3.org/Graphics/SVG/1.1/DTD/svg11.dtd">
<!-- Generated by graphviz version 2.38.0 (20140413.2041)
 -->
<!-- Title: PROV Pages: 1 -->
<svg width="488pt" height="795pt"
 viewBox="0.00 0.00 487.50 795.00" xmlns="http://www.w3.org/2000/svg" xmlns:xlink="http://www.w3.org/1999/xlink">
<g id="graph0" class="graph" transform="scale(1 1) rotate(0) translate(4 791)">
<title>PROV</title>
<polygon fill="white" stroke="none" points="-4,4 -4,-791 483.5,-791 483.5,4 -4,4"/>
<!-- http://example.org/10000 -->
<g id="node1" class="node"><title>http://example.org/10000</title>
<g id="a_node1"><a xlink:href="http://example.org/10000" xlink:title="10000">
<ellipse fill="#fffc87" stroke="#808080" cx="63" cy="-696" rx="32.4942" ry="18"/>
<text text-anchor="middle" x="63" y="-692.3" font-family="Times New Roman,serif" font-size="14.00">10000</text>
</a>
</g>
</g>
<!-- http://example.org/10000_v1 -->
<g id="node3" class="node"><title>http://example.org/10000_v1</title>
<g id="a_node3"><a xlink:href="http://example.org/10000_v1" xlink:title="10000_v1">
<ellipse fill="#32cd32" stroke="#808080" cx="132" cy="-769" rx="46.2923" ry="18"/>
<text text-anchor="middle" x="132" y="-765.3" font-family="Times New Roman,serif" font-size="14.00">10000_v1</text>
</a>
</g>
</g>
<!-- http://example.org/10000&#45;&gt;http://example.org/10000_v1 -->
<g id="edge3" class="edge"><title>http://example.org/10000&#45;&gt;http://example.org/10000_v1</title>
<path fill="none" stroke="black" d="M77.972,-712.406C87.0937,-721.792 98.9312,-733.973 109.2,-744.539"/>
<polygon fill="black" stroke="black" points="106.859,-747.153 116.339,-751.885 111.879,-742.274 106.859,-747.153"/>
<text text-anchor="middle" x="92.5148" y="-706.831" font-family="Times New Roman,serif" font-size="8.00">spe</text>
</g>
<!-- &#45;attrs0 -->
<g id="node2" class="node"><title>&#45;attrs0</title>
<polygon fill="none" stroke="gray" points="64,-612 0,-612 0,-576 70,-576 70,-606 64,-612"/>
<polyline fill="none" stroke="gray" points="64,-612 64,-606 "/>
<polyline fill="none" stroke="gray" points="70,-606 64,-606 "/>
<text text-anchor="start" x="10" y="-598" font-family="Times New Roman,serif" font-size="10.00">value:</text>
<text text-anchor="start" x="37" y="-598" font-family="Times New Roman,serif" font-size="10.00">10000</text>
<text text-anchor="start" x="10" y="-585" font-family="Times New Roman,serif" font-size="10.00">type:</text>
<text text-anchor="start" x="37" y="-585" font-family="Times New Roman,serif" font-size="10.00">literal</text>
</g>
<!-- &#45;attrs0&#45;&gt;http://example.org/10000 -->
<g id="edge1" class="edge"><title>&#45;attrs0&#45;&gt;http://example.org/10000</title>
<path fill="none" stroke="gray" stroke-dasharray="5,2" d="M39.8772,-612.419C45.0478,-630.885 53.1588,-659.853 58.272,-678.114"/>
</g>
<!-- &#45;attrs1 -->
<g id="node4" class="node"><title>&#45;attrs1</title>
<polygon fill="none" stroke="gray" points="207,-714 113,-714 113,-678 213,-678 213,-708 207,-714"/>
<polyline fill="none" stroke="gray" points="207,-714 207,-708 "/>
<polyline fill="none" stroke="gray" points="213,-708 207,-708 "/>
<text text-anchor="start" x="123" y="-700" font-family="Times New Roman,serif" font-size="10.00">checkpoint:</text>
<text text-anchor="start" x="172" y="-700" font-family="Times New Roman,serif" font-size="10.00">1</text>
<text text-anchor="start" x="123" y="-687" font-family="Times New Roman,serif" font-size="10.00">type:</text>
<text text-anchor="start" x="172" y="-687" font-family="Times New Roman,serif" font-size="10.00">Version</text>
</g>
<!-- &#45;attrs1&#45;&gt;http://example.org/10000_v1 -->
<g id="edge2" class="edge"><title>&#45;attrs1&#45;&gt;http://example.org/10000_v1</title>
<path fill="none" stroke="gray" stroke-dasharray="5,2" d="M155.496,-714.187C150.622,-725.35 144.295,-739.84 139.435,-750.971"/>
</g>
<!-- http://example.org/m -->
<g id="node5" class="node"><title>http://example.org/m</title>
<g id="a_node5"><a xlink:href="http://example.org/m" xlink:title="m">
<ellipse fill="#fffc87" stroke="#808080" cx="115" cy="-594" rx="27" ry="18"/>
<text text-anchor="middle" x="115" y="-590.3" font-family="Times New Roman,serif" font-size="14.00">m</text>
</a>
</g>
</g>
<!-- http://example.org/m&#45;&gt;http://example.org/10000 -->
<g id="edge5" class="edge"><title>http://example.org/m&#45;&gt;http://example.org/10000</title>
<path fill="none" stroke="darkgreen" d="M106.413,-611.513C98.2087,-627.291 85.7225,-651.303 76.2436,-669.531"/>
<polygon fill="darkgreen" stroke="darkgreen" points="73.1078,-667.976 71.5995,-678.463 79.3183,-671.205 73.1078,-667.976"/>
<text text-anchor="middle" x="115.5" y="-648.8" font-family="Times New Roman,serif" font-size="14.00">der ref</text>
<text text-anchor="middle" x="115.5" y="-633.8" font-family="Times New Roman,serif" font-size="14.00">2</text>
</g>
<!-- &#45;attrs2 -->
<g id="node6" class="node"><title>&#45;attrs2</title>
<polygon fill="none" stroke="gray" points="144,-525 80,-525 80,-476 150,-476 150,-519 144,-525"/>
<polyline fill="none" stroke="gray" points="144,-525 144,-519 "/>
<polyline fill="none" stroke="gray" points="150,-519 144,-519 "/>
<text text-anchor="start" x="90" y="-510.5" font-family="Times New Roman,serif" font-size="10.00">value:</text>
<text text-anchor="start" x="117" y="-510.5" font-family="Times New Roman,serif" font-size="10.00">10000</text>
<text text-anchor="start" x="90" y="-497.5" font-family="Times New Roman,serif" font-size="10.00">type:</text>
<text text-anchor="start" x="117" y="-497.5" font-family="Times New Roman,serif" font-size="10.00">name</text>
<text text-anchor="start" x="90" y="-484.5" font-family="Times New Roman,serif" font-size="10.00">label:</text>
<text text-anchor="start" x="117" y="-484.5" font-family="Times New Roman,serif" font-size="10.00">m</text>
</g>
<!-- &#45;attrs2&#45;&gt;http://example.org/m -->
<g id="edge4" class="edge"><title>&#45;attrs2&#45;&gt;http://example.org/m</title>
<path fill="none" stroke="gray" stroke-dasharray="5,2" d="M115,-525.064C115,-540.949 115,-561.543 115,-575.873"/>
</g>
<!-- http://example.org/sum -->
<g id="node7" class="node"><title>http://example.org/sum</title>
<g id="a_node7"><a xlink:href="http://example.org/sum" xlink:title="sum">
<ellipse fill="#fffc87" stroke="#808080" cx="241" cy="-594" rx="27" ry="18"/>
<text text-anchor="middle" x="241" y="-590.3" font-family="Times New Roman,serif" font-size="14.00">sum</text>
</a>
</g>
</g>
<!-- http://example.org/sum_v1 -->
<g id="node9" class="node"><title>http://example.org/sum_v1</title>
<g id="a_node9"><a xlink:href="http://example.org/sum_v1" xlink:title="sum_v1">
<ellipse fill="#32cd32" stroke="#808080" cx="303" cy="-696" rx="39.7935" ry="18"/>
<text text-anchor="middle" x="303" y="-692.3" font-family="Times New Roman,serif" font-size="14.00">sum_v1</text>
</a>
</g>
</g>
<!-- http://example.org/sum&#45;&gt;http://example.org/sum_v1 -->
<g id="edge8" class="edge"><title>http://example.org/sum&#45;&gt;http://example.org/sum_v1</title>
<path fill="none" stroke="black" d="M250.961,-611.067C260.787,-626.914 275.95,-651.372 287.379,-669.805"/>
<polygon fill="black" stroke="black" points="284.406,-671.652 292.65,-678.306 290.355,-667.963 284.406,-671.652"/>
<text text-anchor="middle" x="265.954" y="-608.696" font-family="Times New Roman,serif" font-size="8.00">spe</text>
</g>
<!-- &#45;attrs3 -->
<g id="node8" class="node"><title>&#45;attrs3</title>
<polygon fill="none" stroke="gray" points="334,-525 254,-525 254,-476 340,-476 340,-519 334,-525"/>
<polyline fill="none" stroke="gray" points="334,-525 334,-519 "/>
<polyline fill="none" stroke="gray" points="340,-519 334,-519 "/>
<text text-anchor="start" x="264" y="-510.5" font-family="Times New Roman,serif" font-size="10.00">value:</text>
<text text-anchor="start" x="291" y="-510.5" font-family="Times New Roman,serif" font-size="10.00">10001</text>
<text text-anchor="start" x="264" y="-497.5" font-family="Times New Roman,serif" font-size="10.00">type:</text>
<text text-anchor="start" x="291" y="-497.5" font-family="Times New Roman,serif" font-size="10.00">operation</text>
<text text-anchor="start" x="264" y="-484.5" font-family="Times New Roman,serif" font-size="10.00">label:</text>
<text text-anchor="start" x="291" y="-484.5" font-family="Times New Roman,serif" font-size="10.00">m + 1</text>
</g>
<!-- &#45;attrs3&#45;&gt;http://example.org/sum -->
<g id="edge6" class="edge"><title>&#45;attrs3&#45;&gt;http://example.org/sum</title>
<path fill="none" stroke="gray" stroke-dasharray="5,2" d="M282.579,-525.064C272.597,-541.372 259.578,-562.644 250.788,-577.006"/>
</g>
<!-- &#45;attrs4 -->
<g id="node10" class="node"><title>&#45;attrs4</title>
<polygon fill="none" stroke="gray" points="380,-612 286,-612 286,-576 386,-576 386,-606 380,-612"/>
<polyline fill="none" stroke="gray" points="380,-612 380,-606 "/>
<polyline fill="none" stroke="gray" points="386,-606 380,-606 "/>
<text text-anchor="start" x="296" y="-598" font-family="Times New Roman,serif" font-size="10.00">checkpoint:</text>
<text text-anchor="start" x="345" y="-598" font-family="Times New Roman,serif" font-size="10.00">4</text>
<text text-anchor="start" x="296" y="-585" font-family="Times New Roman,serif" font-size="10.00">type:</text>
<text text-anchor="start" x="345" y="-585" font-family="Times New Roman,serif" font-size="10.00">Version</text>
</g>
<!-- &#45;attrs4&#45;&gt;http://example.org/sum_v1 -->
<g id="edge7" class="edge"><title>&#45;attrs4&#45;&gt;http://example.org/sum_v1</title>
<path fill="none" stroke="gray" stroke-dasharray="5,2" d="M330.252,-612.419C324.158,-630.885 314.599,-659.853 308.572,-678.114"/>
</g>
<!-- http://example.org/list -->
<g id="node11" class="node"><title>http://example.org/list</title>
<g id="a_node11"><a xlink:href="http://example.org/list" xlink:title="list">
<ellipse fill="#fffc87" stroke="#808080" cx="235" cy="-421" rx="27" ry="18"/>
<text text-anchor="middle" x="235" y="-417.3" font-family="Times New Roman,serif" font-size="14.00">list</text>
</a>
</g>
</g>
<!-- http://example.org/list_v1 -->
<g id="node13" class="node"><title>http://example.org/list_v1</title>
<g id="a_node13"><a xlink:href="http://example.org/list_v1" xlink:title="list_v1">
<ellipse fill="#32cd32" stroke="#808080" cx="202" cy="-500.5" rx="34.394" ry="18"/>
<text text-anchor="middle" x="202" y="-496.8" font-family="Times New Roman,serif" font-size="14.00">list_v1</text>
</a>
</g>
</g>
<!-- http://example.org/list&#45;&gt;http://example.org/list_v1 -->
<g id="edge11" class="edge"><title>http://example.org/list&#45;&gt;http://example.org/list_v1</title>
<path fill="none" stroke="black" d="M228.002,-438.436C223.656,-448.641 217.976,-461.979 213.034,-473.586"/>
<polygon fill="black" stroke="black" points="209.8,-472.249 209.102,-482.821 216.24,-474.991 209.8,-472.249"/>
<text text-anchor="middle" x="237.015" y="-448.525" font-family="Times New Roman,serif" font-size="8.00">spe</text>
</g>
<!-- &#45;attrs5 -->
<g id="node12" class="node"><title>&#45;attrs5</title>
<polygon fill="none" stroke="gray" points="204,-337 80,-337 80,-288 210,-288 210,-331 204,-337"/>
<polyline fill="none" stroke="gray" points="204,-337 204,-331 "/>
<polyline fill="none" stroke="gray" points="210,-331 204,-331 "/>
<text text-anchor="start" x="90" y="-322.5" font-family="Times New Roman,serif" font-size="10.00">value:</text>
<text text-anchor="start" x="117" y="-322.5" font-family="Times New Roman,serif" font-size="10.00">[10000, 10001, 10000]</text>
<text text-anchor="start" x="90" y="-309.5" font-family="Times New Roman,serif" font-size="10.00">type:</text>
<text text-anchor="start" x="117" y="-309.5" font-family="Times New Roman,serif" font-size="10.00">list</text>
<text text-anchor="start" x="90" y="-296.5" font-family="Times New Roman,serif" font-size="10.00">label:</text>
<text text-anchor="start" x="117" y="-296.5" font-family="Times New Roman,serif" font-size="10.00">[m, m + 1, m]</text>
</g>
<!-- &#45;attrs5&#45;&gt;http://example.org/list -->
<g id="edge9" class="edge"><title>&#45;attrs5&#45;&gt;http://example.org/list</title>
<path fill="none" stroke="gray" stroke-dasharray="5,2" d="M164.974,-337.136C182.478,-357.849 207.389,-387.327 222.299,-404.971"/>
</g>
<!-- http://example.org/list_v1&#45;&gt;http://example.org/m -->
<g id="edge12" class="edge"><title>http://example.org/list_v1&#45;&gt;http://example.org/m</title>
<path fill="none" stroke="darkgreen" d="M186.225,-516.659C178.252,-524.427 168.493,-534.102 160,-543 151.604,-551.797 142.593,-561.709 134.857,-570.375"/>
<polygon fill="darkgreen" stroke="darkgreen" points="132.185,-568.112 128.165,-577.914 137.421,-572.759 132.185,-568.112"/>
<text text-anchor="middle" x="168" y="-546.8" font-family="Times New Roman,serif" font-size="14.00">[0]</text>
</g>
<!-- http://example.org/list_v1&#45;&gt;http://example.org/m -->
<g id="edge14" class="edge"><title>http://example.org/list_v1&#45;&gt;http://example.org/m</title>
<path fill="none" stroke="darkgreen" d="M197.279,-518.401C193.213,-530.537 186.345,-546.683 176,-558 167.99,-566.762 157.264,-573.918 147.042,-579.423"/>
<polygon fill="darkgreen" stroke="darkgreen" points="145.258,-576.402 137.888,-584.013 148.396,-582.659 145.258,-576.402"/>
<text text-anchor="middle" x="194" y="-546.8" font-family="Times New Roman,serif" font-size="14.00">[2]</text>
</g>
<!-- http://example.org/list_v1&#45;&gt;http://example.org/sum -->
<g id="edge13" class="edge"><title>http://example.org/list_v1&#45;&gt;http://example.org/sum</title>
<path fill="none" stroke="darkgreen" d="M209.153,-518.283C214.926,-531.825 223.15,-551.122 229.795,-566.712"/>
<polygon fill="darkgreen" stroke="darkgreen" points="226.751,-568.497 233.892,-576.324 233.191,-565.752 226.751,-568.497"/>
<text text-anchor="middle" x="233" y="-546.8" font-family="Times New Roman,serif" font-size="14.00">[1]</text>
</g>
<!-- &#45;attrs6 -->
<g id="node14" class="node"><title>&#45;attrs6</title>
<polygon fill="none" stroke="gray" points="184,-439 90,-439 90,-403 190,-403 190,-433 184,-439"/>
<polyline fill="none" stroke="gray" points="184,-439 184,-433 "/>
<polyline fill="none" stroke="gray" points="190,-433 184,-433 "/>
<text text-anchor="start" x="100" y="-425" font-family="Times New Roman,serif" font-size="10.00">checkpoint:</text>
<text text-anchor="start" x="149" y="-425" font-family="Times New Roman,serif" font-size="10.00">5</text>
<text text-anchor="start" x="100" y="-412" font-family="Times New Roman,serif" font-size="10.00">type:</text>
<text text-anchor="start" x="149" y="-412" font-family="Times New Roman,serif" font-size="10.00">Version</text>
</g>
<!-- &#45;attrs6&#45;&gt;http://example.org/list_v1 -->
<g id="edge10" class="edge"><title>&#45;attrs6&#45;&gt;http://example.org/list_v1</title>
<path fill="none" stroke="gray" stroke-dasharray="5,2" d="M153.76,-439.2C164.391,-452.489 178.989,-470.736 189.334,-483.668"/>
</g>
<!-- http://example.org/d -->
<g id="node15" class="node"><title>http://example.org/d</title>
<g id="a_node15"><a xlink:href="http://example.org/d" xlink:title="d">
<ellipse fill="#fffc87" stroke="#808080" cx="255" cy="-312.5" rx="27" ry="18"/>
<text text-anchor="middle" x="255" y="-308.8" font-family="Times New Roman,serif" font-size="14.00">d</text>
</a>
</g>
</g>
<!-- http://example.org/d&#45;&gt;http://example.org/list -->
<g id="edge16" class="edge"><title>http://example.org/d&#45;&gt;http://example.org/list</title>
<path fill="none" stroke="darkgreen" d="M251.787,-330.611C248.623,-347.457 243.744,-373.441 240.059,-393.06"/>
<polygon fill="darkgreen" stroke="darkgreen" points="236.611,-392.457 238.205,-402.931 243.491,-393.749 236.611,-392.457"/>
<text text-anchor="middle" x="264.5" y="-373.8" font-family="Times New Roman,serif" font-size="14.00">der ref</text>
<text text-anchor="middle" x="264.5" y="-358.8" font-family="Times New Roman,serif" font-size="14.00">6</text>
</g>
<!-- &#45;attrs7 -->
<g id="node16" class="node"><title>&#45;attrs7</title>
<polygon fill="none" stroke="gray" points="314,-237 190,-237 190,-188 320,-188 320,-231 314,-237"/>
<polyline fill="none" stroke="gray" points="314,-237 314,-231 "/>
<polyline fill="none" stroke="gray" points="320,-231 314,-231 "/>
<text text-anchor="start" x="200" y="-222.5" font-family="Times New Roman,serif" font-size="10.00">value:</text>
<text text-anchor="start" x="227" y="-222.5" font-family="Times New Roman,serif" font-size="10.00">[10000, 10001, 10000]</text>
<text text-anchor="start" x="200" y="-209.5" font-family="Times New Roman,serif" font-size="10.00">type:</text>
<text text-anchor="start" x="227" y="-209.5" font-family="Times New Roman,serif" font-size="10.00">name</text>
<text text-anchor="start" x="200" y="-196.5" font-family="Times New Roman,serif" font-size="10.00">label:</text>
<text text-anchor="start" x="227" y="-196.5" font-family="Times New Roman,serif" font-size="10.00">d</text>
</g>
<!-- &#45;attrs7&#45;&gt;http://example.org/d -->
<g id="edge15" class="edge"><title>&#45;attrs7&#45;&gt;http://example.org/d</title>
<path fill="none" stroke="gray" stroke-dasharray="5,2" d="M255,-237.223C255,-254.897 255,-278.613 255,-294.444"/>
</g>
<!-- http://example.org/0 -->
<g id="node17" class="node"><title>http://example.org/0</title>
<g id="a_node17"><a xlink:href="http://example.org/0" xlink:title="0">
<ellipse fill="#fffc87" stroke="#808080" cx="445" cy="-312.5" rx="27" ry="18"/>
<text text-anchor="middle" x="445" y="-308.8" font-family="Times New Roman,serif" font-size="14.00">0</text>
</a>
</g>
</g>
<!-- http://example.org/0_v1 -->
<g id="node19" class="node"><title>http://example.org/0_v1</title>
<g id="a_node19"><a xlink:href="http://example.org/0_v1" xlink:title="0_v1">
<ellipse fill="#32cd32" stroke="#808080" cx="362" cy="-421" rx="28.6953" ry="18"/>
<text text-anchor="middle" x="362" y="-417.3" font-family="Times New Roman,serif" font-size="14.00">0_v1</text>
</a>
</g>
</g>
<!-- http://example.org/0&#45;&gt;http://example.org/0_v1 -->
<g id="edge19" class="edge"><title>http://example.org/0&#45;&gt;http://example.org/0_v1</title>
<path fill="none" stroke="black" d="M433.108,-328.759C419.319,-346.452 396.431,-375.82 380.355,-396.448"/>
<polygon fill="black" stroke="black" points="377.526,-394.384 374.14,-404.423 383.048,-398.687 377.526,-394.384"/>
<text text-anchor="middle" x="438.744" y="-340.76" font-family="Times New Roman,serif" font-size="8.00">spe</text>
</g>
<!-- &#45;attrs8 -->
<g id="node18" class="node"><title>&#45;attrs8</title>
<polygon fill="none" stroke="gray" points="473.5,-230.5 410.5,-230.5 410.5,-194.5 479.5,-194.5 479.5,-224.5 473.5,-230.5"/>
<polyline fill="none" stroke="gray" points="473.5,-230.5 473.5,-224.5 "/>
<polyline fill="none" stroke="gray" points="479.5,-224.5 473.5,-224.5 "/>
<text text-anchor="start" x="421" y="-216.5" font-family="Times New Roman,serif" font-size="10.00">value:</text>
<text text-anchor="start" x="448" y="-216.5" font-family="Times New Roman,serif" font-size="10.00">0</text>
<text text-anchor="start" x="421" y="-203.5" font-family="Times New Roman,serif" font-size="10.00">type:</text>
<text text-anchor="start" x="448" y="-203.5" font-family="Times New Roman,serif" font-size="10.00">literal</text>
</g>
<!-- &#45;attrs8&#45;&gt;http://example.org/0 -->
<g id="edge17" class="edge"><title>&#45;attrs8&#45;&gt;http://example.org/0</title>
<path fill="none" stroke="gray" stroke-dasharray="5,2" d="M445,-230.57C445,-248.448 445,-276.369 445,-294.297"/>
</g>
<!-- &#45;attrs9 -->
<g id="node20" class="node"><title>&#45;attrs9</title>
<polygon fill="none" stroke="gray" points="394,-330.5 300,-330.5 300,-294.5 400,-294.5 400,-324.5 394,-330.5"/>
<polyline fill="none" stroke="gray" points="394,-330.5 394,-324.5 "/>
<polyline fill="none" stroke="gray" points="400,-324.5 394,-324.5 "/>
<text text-anchor="start" x="310" y="-316.5" font-family="Times New Roman,serif" font-size="10.00">checkpoint:</text>
<text text-anchor="start" x="359" y="-316.5" font-family="Times New Roman,serif" font-size="10.00">9</text>
<text text-anchor="start" x="310" y="-303.5" font-family="Times New Roman,serif" font-size="10.00">type:</text>
<text text-anchor="start" x="359" y="-303.5" font-family="Times New Roman,serif" font-size="10.00">Version</text>
</g>
<!-- &#45;attrs9&#45;&gt;http://example.org/0_v1 -->
<g id="edge18" class="edge"><title>&#45;attrs9&#45;&gt;http://example.org/0_v1</title>
<path fill="none" stroke="gray" stroke-dasharray="5,2" d="M351.928,-330.611C354.167,-350.485 357.839,-383.075 360.077,-402.931"/>
</g>
<!-- http://example.org/d_ac0 -->
<g id="node21" class="node"><title>http://example.org/d_ac0</title>
<g id="a_node21"><a xlink:href="http://example.org/d_ac0" xlink:title="d_ac0">
<ellipse fill="#fffc87" stroke="#808080" cx="39" cy="-104" rx="33.2948" ry="18"/>
<text text-anchor="middle" x="39" y="-100.3" font-family="Times New Roman,serif" font-size="14.00">d_ac0</text>
</a>
</g>
</g>
<!-- http://example.org/access1 -->
<g id="node23" class="node"><title>http://example.org/access1</title>
<g id="a_node23"><a xlink:href="http://example.org/access1" xlink:title="access1">
<polygon fill="#9fb1fc" stroke="#0000ff" points="157.5,-230.5 96.5,-230.5 96.5,-194.5 157.5,-194.5 157.5,-230.5"/>
<text text-anchor="middle" x="127" y="-208.8" font-family="Times New Roman,serif" font-size="14.00">access1</text>
</a>
</g>
</g>
<!-- http://example.org/d_ac0&#45;&gt;http://example.org/access1 -->
<g id="edge28" class="edge"><title>http://example.org/d_ac0&#45;&gt;http://example.org/access1</title>
<path fill="none" stroke="black" d="M60.1775,-117.998C68.8511,-123.989 78.5731,-131.629 86,-140 97.8822,-153.393 107.944,-170.775 115.126,-185.047"/>
<polygon fill="black" stroke="black" points="112.118,-186.867 119.625,-194.343 118.419,-183.817 112.118,-186.867"/>
<text text-anchor="middle" x="73.7787" y="-109.773" font-family="Times New Roman,serif" font-size="8.00">gen</text>
</g>
<!-- bn0 -->
<g id="node25" class="node"><title>bn0</title>
<ellipse fill="black" stroke="black" cx="34" cy="-212.5" rx="1.8" ry="1.8"/>
</g>
<!-- http://example.org/d_ac0&#45;&gt;bn0 -->
<g id="edge24" class="edge"><title>http://example.org/d_ac0&#45;&gt;bn0</title>
<path fill="none" stroke="darkgreen" d="M38.1967,-122.111C36.8937,-149.864 34.4265,-202.415 34.049,-210.457"/>
<text text-anchor="middle" x="60" y="-158.8" font-family="Times New Roman,serif" font-size="14.00">der ac&#45;r</text>
<text text-anchor="middle" x="60" y="-143.8" font-family="Times New Roman,serif" font-size="14.00">10</text>
</g>
<!-- &#45;attrs10 -->
<g id="node22" class="node"><title>&#45;attrs10</title>
<polygon fill="none" stroke="gray" points="70.5,-49 1.5,-49 1.5,-0 76.5,-0 76.5,-43 70.5,-49"/>
<polyline fill="none" stroke="gray" points="70.5,-49 70.5,-43 "/>
<polyline fill="none" stroke="gray" points="76.5,-43 70.5,-43 "/>
<text text-anchor="start" x="12" y="-34.5" font-family="Times New Roman,serif" font-size="10.00">value:</text>
<text text-anchor="start" x="39" y="-34.5" font-family="Times New Roman,serif" font-size="10.00">10000</text>
<text text-anchor="start" x="12" y="-21.5" font-family="Times New Roman,serif" font-size="10.00">type:</text>
<text text-anchor="start" x="39" y="-21.5" font-family="Times New Roman,serif" font-size="10.00">access</text>
<text text-anchor="start" x="12" y="-8.5" font-family="Times New Roman,serif" font-size="10.00">label:</text>
<text text-anchor="start" x="39" y="-8.5" font-family="Times New Roman,serif" font-size="10.00">d[0]</text>
</g>
<!-- &#45;attrs10&#45;&gt;http://example.org/d_ac0 -->
<g id="edge20" class="edge"><title>&#45;attrs10&#45;&gt;http://example.org/d_ac0</title>
<path fill="none" stroke="gray" stroke-dasharray="5,2" d="M39,-49.1737C39,-60.9254 39,-74.869 39,-85.6196"/>
</g>
<!-- http://example.org/access1&#45;&gt;http://example.org/m -->
<g id="edge27" class="edge"><title>http://example.org/access1&#45;&gt;http://example.org/m</title>
<path fill="none" stroke="black" d="M110.926,-230.509C98.2772,-244.797 81.1456,-266.308 71,-288 55.3341,-321.495 52,-332.023 52,-369 52,-369 52,-369 52,-501.5 52,-529.766 72.6471,-555.656 90.3013,-572.627"/>
<polygon fill="black" stroke="black" points="88.3753,-575.608 98.1172,-579.773 93.0988,-570.442 88.3753,-575.608"/>
<text text-anchor="middle" x="115.793" y="-242.797" font-family="Times New Roman,serif" font-size="8.00">use</text>
</g>
<!-- http://example.org/access1&#45;&gt;http://example.org/d -->
<g id="edge22" class="edge"><title>http://example.org/access1&#45;&gt;http://example.org/d</title>
<path fill="none" stroke="black" d="M147.94,-230.55C161.981,-241.887 180.954,-257.022 198,-270 208.018,-277.628 219.189,-285.826 228.968,-292.905"/>
<polygon fill="black" stroke="black" points="226.981,-295.787 237.14,-298.795 231.074,-290.109 226.981,-295.787"/>
<text text-anchor="middle" x="161.931" y="-223.243" font-family="Times New Roman,serif" font-size="8.00">use</text>
</g>
<!-- http://example.org/access1&#45;&gt;http://example.org/0 -->
<g id="edge23" class="edge"><title>http://example.org/access1&#45;&gt;http://example.org/0</title>
<path fill="none" stroke="black" d="M157.734,-228.076C165.239,-231.299 173.321,-234.496 181,-237 279.72,-269.197 313.327,-247.641 409,-288 412.434,-289.449 415.898,-291.226 419.25,-293.15"/>
<polygon fill="black" stroke="black" points="417.425,-296.136 427.763,-298.454 421.127,-290.195 417.425,-296.136"/>
<text text-anchor="middle" x="169.723" y="-217.161" font-family="Times New Roman,serif" font-size="8.00">use</text>
</g>
<!-- &#45;attrs11 -->
<g id="node24" class="node"><title>&#45;attrs11</title>
<polygon fill="none" stroke="gray" points="156.5,-122 91.5,-122 91.5,-86 162.5,-86 162.5,-116 156.5,-122"/>
<polyline fill="none" stroke="gray" points="156.5,-122 156.5,-116 "/>
<polyline fill="none" stroke="gray" points="162.5,-116 156.5,-116 "/>
<text text-anchor="start" x="102" y="-101" font-family="Times New Roman,serif" font-size="10.00">type:</text>
<text text-anchor="start" x="125" y="-101" font-family="Times New Roman,serif" font-size="10.00">access</text>
</g>
<!-- &#45;attrs11&#45;&gt;http://example.org/access1 -->
<g id="edge21" class="edge"><title>&#45;attrs11&#45;&gt;http://example.org/access1</title>
<path fill="none" stroke="gray" stroke-dasharray="5,2" d="M127,-122.111C127,-141.985 127,-174.575 127,-194.431"/>
</g>
<!-- bn0&#45;&gt;http://example.org/m -->
<g id="edge26" class="edge"><title>bn0&#45;&gt;http://example.org/m</title>
<path fill="none" stroke="darkgreen" d="M33.4272,-214.425C29.0452,-221.594 1,-269.132 1,-311.5 1,-311.5 1,-311.5 1,-501.5 1,-523.247 52.0951,-556.887 85.8711,-576.748"/>
<polygon fill="darkgreen" stroke="darkgreen" points="84.4734,-579.983 94.8815,-581.963 87.9799,-573.924 84.4734,-579.983"/>
</g>
<!-- bn0&#45;&gt;http://example.org/d -->
<g id="edge25" class="edge"><title>bn0&#45;&gt;http://example.org/d</title>
<path fill="none" stroke="darkgreen" d="M34.998,-213.999C43.6718,-218.323 107.242,-249.781 161,-270 186.263,-279.502 194.576,-276.513 219,-288 222.204,-289.507 225.457,-291.262 228.63,-293.122"/>
<polygon fill="darkgreen" stroke="darkgreen" points="226.923,-296.183 237.257,-298.522 230.637,-290.249 226.923,-296.183"/>
<text text-anchor="middle" x="169" y="-258.8" font-family="Times New Roman,serif" font-size="14.00">[0]</text>
</g>
</g>
</svg>
