<?xml version="1.0" encoding="UTF-8" standalone="no"?>
<!DOCTYPE svg PUBLIC "-//W3C//DTD SVG 1.1//EN"
 "http://www.w3.org/Graphics/SVG/1.1/DTD/svg11.dtd">
<!-- Generated by graphviz version 2.38.0 (20140413.2041)
 -->
<!-- Title: PROV Pages: 1 -->
<svg width="488pt" height="810pt"
 viewBox="0.00 0.00 487.50 810.00" xmlns="http://www.w3.org/2000/svg" xmlns:xlink="http://www.w3.org/1999/xlink">
<g id="graph0" class="graph" transform="scale(1 1) rotate(0) translate(4 806)">
<title>PROV</title>
<polygon fill="white" stroke="none" points="-4,4 -4,-806 483.5,-806 483.5,4 -4,4"/>
<!-- http://example.org/10000 -->
<g id="node1" class="node"><title>http://example.org/10000</title>
<g id="a_node1"><a xlink:href="http://example.org/10000" xlink:title="10000">
<ellipse fill="#fffc87" stroke="#808080" cx="63" cy="-711" rx="32.4942" ry="18"/>
<text text-anchor="middle" x="63" y="-707.3" font-family="Times New Roman,serif" font-size="14.00">10000</text>
</a>
</g>
</g>
<!-- http://example.org/10000_v1 -->
<g id="node3" class="node"><title>http://example.org/10000_v1</title>
<g id="a_node3"><a xlink:href="http://example.org/10000_v1" xlink:title="10000_v1">
<ellipse fill="#32cd32" stroke="#808080" cx="132" cy="-784" rx="46.2923" ry="18"/>
<text text-anchor="middle" x="132" y="-780.3" font-family="Times New Roman,serif" font-size="14.00">10000_v1</text>
</a>
</g>
</g>
<!-- http://example.org/10000&#45;&gt;http://example.org/10000_v1 -->
<g id="edge3" class="edge"><title>http://example.org/10000&#45;&gt;http://example.org/10000_v1</title>
<path fill="none" stroke="black" d="M77.972,-727.406C87.0937,-736.792 98.9312,-748.973 109.2,-759.539"/>
<polygon fill="black" stroke="black" points="106.859,-762.153 116.339,-766.885 111.879,-757.274 106.859,-762.153"/>
<text text-anchor="middle" x="92.5148" y="-721.831" font-family="Times New Roman,serif" font-size="8.00">spe</text>
</g>
<!-- http://example.org/10000&#45;attrs -->
<g id="node2" class="node"><title>http://example.org/10000&#45;attrs</title>
<polygon fill="none" stroke="gray" points="64,-627 0,-627 0,-591 70,-591 70,-621 64,-627"/>
<polyline fill="none" stroke="gray" points="64,-627 64,-621 "/>
<polyline fill="none" stroke="gray" points="70,-621 64,-621 "/>
<text text-anchor="start" x="10" y="-613" font-family="Times New Roman,serif" font-size="10.00">value:</text>
<text text-anchor="start" x="37" y="-613" font-family="Times New Roman,serif" font-size="10.00">10000</text>
<text text-anchor="start" x="10" y="-600" font-family="Times New Roman,serif" font-size="10.00">type:</text>
<text text-anchor="start" x="37" y="-600" font-family="Times New Roman,serif" font-size="10.00">literal</text>
</g>
<!-- http://example.org/10000&#45;attrs&#45;&gt;http://example.org/10000 -->
<g id="edge1" class="edge"><title>http://example.org/10000&#45;attrs&#45;&gt;http://example.org/10000</title>
<path fill="none" stroke="gray" stroke-dasharray="5,2" d="M39.8772,-627.419C45.0478,-645.885 53.1588,-674.853 58.272,-693.114"/>
</g>
<!-- http://example.org/10000_v1&#45;attrs -->
<g id="node4" class="node"><title>http://example.org/10000_v1&#45;attrs</title>
<polygon fill="none" stroke="gray" points="207,-729 113,-729 113,-693 213,-693 213,-723 207,-729"/>
<polyline fill="none" stroke="gray" points="207,-729 207,-723 "/>
<polyline fill="none" stroke="gray" points="213,-723 207,-723 "/>
<text text-anchor="start" x="123" y="-715" font-family="Times New Roman,serif" font-size="10.00">checkpoint:</text>
<text text-anchor="start" x="172" y="-715" font-family="Times New Roman,serif" font-size="10.00">1</text>
<text text-anchor="start" x="123" y="-702" font-family="Times New Roman,serif" font-size="10.00">type:</text>
<text text-anchor="start" x="172" y="-702" font-family="Times New Roman,serif" font-size="10.00">Version</text>
</g>
<!-- http://example.org/10000_v1&#45;attrs&#45;&gt;http://example.org/10000_v1 -->
<g id="edge2" class="edge"><title>http://example.org/10000_v1&#45;attrs&#45;&gt;http://example.org/10000_v1</title>
<path fill="none" stroke="gray" stroke-dasharray="5,2" d="M155.496,-729.187C150.622,-740.35 144.295,-754.84 139.435,-765.971"/>
</g>
<!-- http://example.org/m -->
<g id="node5" class="node"><title>http://example.org/m</title>
<g id="a_node5"><a xlink:href="http://example.org/m" xlink:title="m">
<ellipse fill="#fffc87" stroke="#808080" cx="115" cy="-609" rx="27" ry="18"/>
<text text-anchor="middle" x="115" y="-605.3" font-family="Times New Roman,serif" font-size="14.00">m</text>
</a>
</g>
</g>
<!-- http://example.org/m&#45;&gt;http://example.org/10000 -->
<g id="edge5" class="edge"><title>http://example.org/m&#45;&gt;http://example.org/10000</title>
<path fill="none" stroke="darkgreen" d="M106.413,-626.513C98.2087,-642.291 85.7225,-666.303 76.2436,-684.531"/>
<polygon fill="darkgreen" stroke="darkgreen" points="73.1078,-682.976 71.5995,-693.463 79.3183,-686.205 73.1078,-682.976"/>
<text text-anchor="middle" x="115.5" y="-663.8" font-family="Times New Roman,serif" font-size="14.00">der ref</text>
<text text-anchor="middle" x="115.5" y="-648.8" font-family="Times New Roman,serif" font-size="14.00">2</text>
</g>
<!-- http://example.org/m&#45;attrs -->
<g id="node6" class="node"><title>http://example.org/m&#45;attrs</title>
<polygon fill="none" stroke="gray" points="144,-540 80,-540 80,-491 150,-491 150,-534 144,-540"/>
<polyline fill="none" stroke="gray" points="144,-540 144,-534 "/>
<polyline fill="none" stroke="gray" points="150,-534 144,-534 "/>
<text text-anchor="start" x="90" y="-525.5" font-family="Times New Roman,serif" font-size="10.00">value:</text>
<text text-anchor="start" x="117" y="-525.5" font-family="Times New Roman,serif" font-size="10.00">10000</text>
<text text-anchor="start" x="90" y="-512.5" font-family="Times New Roman,serif" font-size="10.00">type:</text>
<text text-anchor="start" x="117" y="-512.5" font-family="Times New Roman,serif" font-size="10.00">name</text>
<text text-anchor="start" x="90" y="-499.5" font-family="Times New Roman,serif" font-size="10.00">label:</text>
<text text-anchor="start" x="117" y="-499.5" font-family="Times New Roman,serif" font-size="10.00">m</text>
</g>
<!-- http://example.org/m&#45;attrs&#45;&gt;http://example.org/m -->
<g id="edge4" class="edge"><title>http://example.org/m&#45;attrs&#45;&gt;http://example.org/m</title>
<path fill="none" stroke="gray" stroke-dasharray="5,2" d="M115,-540.064C115,-555.949 115,-576.543 115,-590.873"/>
</g>
<!-- http://example.org/sum -->
<g id="node7" class="node"><title>http://example.org/sum</title>
<g id="a_node7"><a xlink:href="http://example.org/sum" xlink:title="sum">
<ellipse fill="#fffc87" stroke="#808080" cx="241" cy="-609" rx="27" ry="18"/>
<text text-anchor="middle" x="241" y="-605.3" font-family="Times New Roman,serif" font-size="14.00">sum</text>
</a>
</g>
</g>
<!-- http://example.org/sum_v1 -->
<g id="node9" class="node"><title>http://example.org/sum_v1</title>
<g id="a_node9"><a xlink:href="http://example.org/sum_v1" xlink:title="sum_v1">
<ellipse fill="#32cd32" stroke="#808080" cx="303" cy="-711" rx="39.7935" ry="18"/>
<text text-anchor="middle" x="303" y="-707.3" font-family="Times New Roman,serif" font-size="14.00">sum_v1</text>
</a>
</g>
</g>
<!-- http://example.org/sum&#45;&gt;http://example.org/sum_v1 -->
<g id="edge8" class="edge"><title>http://example.org/sum&#45;&gt;http://example.org/sum_v1</title>
<path fill="none" stroke="black" d="M250.961,-626.067C260.787,-641.914 275.95,-666.372 287.379,-684.805"/>
<polygon fill="black" stroke="black" points="284.406,-686.652 292.65,-693.306 290.355,-682.963 284.406,-686.652"/>
<text text-anchor="middle" x="265.954" y="-623.696" font-family="Times New Roman,serif" font-size="8.00">spe</text>
</g>
<!-- http://example.org/sum&#45;attrs -->
<g id="node8" class="node"><title>http://example.org/sum&#45;attrs</title>
<polygon fill="none" stroke="gray" points="334,-540 254,-540 254,-491 340,-491 340,-534 334,-540"/>
<polyline fill="none" stroke="gray" points="334,-540 334,-534 "/>
<polyline fill="none" stroke="gray" points="340,-534 334,-534 "/>
<text text-anchor="start" x="264" y="-525.5" font-family="Times New Roman,serif" font-size="10.00">value:</text>
<text text-anchor="start" x="291" y="-525.5" font-family="Times New Roman,serif" font-size="10.00">10001</text>
<text text-anchor="start" x="264" y="-512.5" font-family="Times New Roman,serif" font-size="10.00">type:</text>
<text text-anchor="start" x="291" y="-512.5" font-family="Times New Roman,serif" font-size="10.00">operation</text>
<text text-anchor="start" x="264" y="-499.5" font-family="Times New Roman,serif" font-size="10.00">label:</text>
<text text-anchor="start" x="291" y="-499.5" font-family="Times New Roman,serif" font-size="10.00">m + 1</text>
</g>
<!-- http://example.org/sum&#45;attrs&#45;&gt;http://example.org/sum -->
<g id="edge6" class="edge"><title>http://example.org/sum&#45;attrs&#45;&gt;http://example.org/sum</title>
<path fill="none" stroke="gray" stroke-dasharray="5,2" d="M282.579,-540.064C272.597,-556.372 259.578,-577.644 250.788,-592.006"/>
</g>
<!-- http://example.org/sum_v1&#45;attrs -->
<g id="node10" class="node"><title>http://example.org/sum_v1&#45;attrs</title>
<polygon fill="none" stroke="gray" points="380,-627 286,-627 286,-591 386,-591 386,-621 380,-627"/>
<polyline fill="none" stroke="gray" points="380,-627 380,-621 "/>
<polyline fill="none" stroke="gray" points="386,-621 380,-621 "/>
<text text-anchor="start" x="296" y="-613" font-family="Times New Roman,serif" font-size="10.00">checkpoint:</text>
<text text-anchor="start" x="345" y="-613" font-family="Times New Roman,serif" font-size="10.00">4</text>
<text text-anchor="start" x="296" y="-600" font-family="Times New Roman,serif" font-size="10.00">type:</text>
<text text-anchor="start" x="345" y="-600" font-family="Times New Roman,serif" font-size="10.00">Version</text>
</g>
<!-- http://example.org/sum_v1&#45;attrs&#45;&gt;http://example.org/sum_v1 -->
<g id="edge7" class="edge"><title>http://example.org/sum_v1&#45;attrs&#45;&gt;http://example.org/sum_v1</title>
<path fill="none" stroke="gray" stroke-dasharray="5,2" d="M330.252,-627.419C324.158,-645.885 314.599,-674.853 308.572,-693.114"/>
</g>
<!-- http://example.org/list -->
<g id="node11" class="node"><title>http://example.org/list</title>
<g id="a_node11"><a xlink:href="http://example.org/list" xlink:title="list">
<ellipse fill="#fffc87" stroke="#808080" cx="240" cy="-436" rx="27" ry="18"/>
<text text-anchor="middle" x="240" y="-432.3" font-family="Times New Roman,serif" font-size="14.00">list</text>
</a>
</g>
</g>
<!-- http://example.org/list_v1 -->
<g id="node13" class="node"><title>http://example.org/list_v1</title>
<g id="a_node13"><a xlink:href="http://example.org/list_v1" xlink:title="list_v1">
<ellipse fill="#32cd32" stroke="#808080" cx="202" cy="-515.5" rx="34.394" ry="18"/>
<text text-anchor="middle" x="202" y="-511.8" font-family="Times New Roman,serif" font-size="14.00">list_v1</text>
</a>
</g>
</g>
<!-- http://example.org/list&#45;&gt;http://example.org/list_v1 -->
<g id="edge11" class="edge"><title>http://example.org/list&#45;&gt;http://example.org/list_v1</title>
<path fill="none" stroke="black" d="M231.941,-453.436C226.937,-463.641 220.397,-476.979 214.706,-488.586"/>
<polygon fill="black" stroke="black" points="211.438,-487.301 210.178,-497.821 217.723,-490.383 211.438,-487.301"/>
<text text-anchor="middle" x="240.303" y="-463.989" font-family="Times New Roman,serif" font-size="8.00">spe</text>
</g>
<!-- http://example.org/list&#45;attrs -->
<g id="node12" class="node"><title>http://example.org/list&#45;attrs</title>
<polygon fill="none" stroke="gray" points="204,-352 80,-352 80,-303 210,-303 210,-346 204,-352"/>
<polyline fill="none" stroke="gray" points="204,-352 204,-346 "/>
<polyline fill="none" stroke="gray" points="210,-346 204,-346 "/>
<text text-anchor="start" x="90" y="-337.5" font-family="Times New Roman,serif" font-size="10.00">value:</text>
<text text-anchor="start" x="117" y="-337.5" font-family="Times New Roman,serif" font-size="10.00">[10000, 10001, 10000]</text>
<text text-anchor="start" x="90" y="-324.5" font-family="Times New Roman,serif" font-size="10.00">type:</text>
<text text-anchor="start" x="117" y="-324.5" font-family="Times New Roman,serif" font-size="10.00">list</text>
<text text-anchor="start" x="90" y="-311.5" font-family="Times New Roman,serif" font-size="10.00">label:</text>
<text text-anchor="start" x="117" y="-311.5" font-family="Times New Roman,serif" font-size="10.00">[m, m + 1, m]</text>
</g>
<!-- http://example.org/list&#45;attrs&#45;&gt;http://example.org/list -->
<g id="edge9" class="edge"><title>http://example.org/list&#45;attrs&#45;&gt;http://example.org/list</title>
<path fill="none" stroke="gray" stroke-dasharray="5,2" d="M166.084,-352.136C184.56,-372.849 210.855,-402.327 226.593,-419.971"/>
</g>
<!-- http://example.org/list_v1&#45;&gt;http://example.org/m -->
<g id="edge12" class="edge"><title>http://example.org/list_v1&#45;&gt;http://example.org/m</title>
<path fill="none" stroke="darkgreen" d="M186.225,-531.659C178.252,-539.427 168.493,-549.102 160,-558 151.604,-566.797 142.593,-576.709 134.857,-585.375"/>
<polygon fill="darkgreen" stroke="darkgreen" points="132.185,-583.112 128.165,-592.914 137.421,-587.759 132.185,-583.112"/>
<text text-anchor="middle" x="168" y="-561.8" font-family="Times New Roman,serif" font-size="14.00">[0]</text>
</g>
<!-- http://example.org/list_v1&#45;&gt;http://example.org/m -->
<g id="edge14" class="edge"><title>http://example.org/list_v1&#45;&gt;http://example.org/m</title>
<path fill="none" stroke="darkgreen" d="M197.279,-533.401C193.213,-545.537 186.345,-561.683 176,-573 167.99,-581.762 157.264,-588.918 147.042,-594.423"/>
<polygon fill="darkgreen" stroke="darkgreen" points="145.258,-591.402 137.888,-599.013 148.396,-597.659 145.258,-591.402"/>
<text text-anchor="middle" x="194" y="-561.8" font-family="Times New Roman,serif" font-size="14.00">[2]</text>
</g>
<!-- http://example.org/list_v1&#45;&gt;http://example.org/sum -->
<g id="edge13" class="edge"><title>http://example.org/list_v1&#45;&gt;http://example.org/sum</title>
<path fill="none" stroke="darkgreen" d="M209.153,-533.283C214.926,-546.825 223.15,-566.122 229.795,-581.712"/>
<polygon fill="darkgreen" stroke="darkgreen" points="226.751,-583.497 233.892,-591.324 233.191,-580.752 226.751,-583.497"/>
<text text-anchor="middle" x="233" y="-561.8" font-family="Times New Roman,serif" font-size="14.00">[1]</text>
</g>
<!-- http://example.org/list_v1&#45;attrs -->
<g id="node14" class="node"><title>http://example.org/list_v1&#45;attrs</title>
<polygon fill="none" stroke="gray" points="189,-454 95,-454 95,-418 195,-418 195,-448 189,-454"/>
<polyline fill="none" stroke="gray" points="189,-454 189,-448 "/>
<polyline fill="none" stroke="gray" points="195,-448 189,-448 "/>
<text text-anchor="start" x="105" y="-440" font-family="Times New Roman,serif" font-size="10.00">checkpoint:</text>
<text text-anchor="start" x="154" y="-440" font-family="Times New Roman,serif" font-size="10.00">5</text>
<text text-anchor="start" x="105" y="-427" font-family="Times New Roman,serif" font-size="10.00">type:</text>
<text text-anchor="start" x="154" y="-427" font-family="Times New Roman,serif" font-size="10.00">Version</text>
</g>
<!-- http://example.org/list_v1&#45;attrs&#45;&gt;http://example.org/list_v1 -->
<g id="edge10" class="edge"><title>http://example.org/list_v1&#45;attrs&#45;&gt;http://example.org/list_v1</title>
<path fill="none" stroke="gray" stroke-dasharray="5,2" d="M157.65,-454.2C167.358,-467.4 180.664,-485.491 190.164,-498.407"/>
</g>
<!-- http://example.org/d -->
<g id="node15" class="node"><title>http://example.org/d</title>
<g id="a_node15"><a xlink:href="http://example.org/d" xlink:title="d">
<ellipse fill="#fffc87" stroke="#808080" cx="255" cy="-327.5" rx="27" ry="18"/>
<text text-anchor="middle" x="255" y="-323.8" font-family="Times New Roman,serif" font-size="14.00">d</text>
</a>
</g>
</g>
<!-- http://example.org/d&#45;&gt;http://example.org/list -->
<g id="edge16" class="edge"><title>http://example.org/d&#45;&gt;http://example.org/list</title>
<path fill="none" stroke="darkgreen" d="M252.59,-345.611C250.228,-362.38 246.591,-388.201 243.833,-407.788"/>
<polygon fill="darkgreen" stroke="darkgreen" points="240.333,-407.541 242.404,-417.931 247.265,-408.517 240.333,-407.541"/>
<text text-anchor="middle" x="266.5" y="-388.8" font-family="Times New Roman,serif" font-size="14.00">der ref</text>
<text text-anchor="middle" x="266.5" y="-373.8" font-family="Times New Roman,serif" font-size="14.00">6</text>
</g>
<!-- http://example.org/d&#45;attrs -->
<g id="node16" class="node"><title>http://example.org/d&#45;attrs</title>
<polygon fill="none" stroke="gray" points="314,-237 190,-237 190,-188 320,-188 320,-231 314,-237"/>
<polyline fill="none" stroke="gray" points="314,-237 314,-231 "/>
<polyline fill="none" stroke="gray" points="320,-231 314,-231 "/>
<text text-anchor="start" x="200" y="-222.5" font-family="Times New Roman,serif" font-size="10.00">value:</text>
<text text-anchor="start" x="227" y="-222.5" font-family="Times New Roman,serif" font-size="10.00">[10000, 10001, 10000]</text>
<text text-anchor="start" x="200" y="-209.5" font-family="Times New Roman,serif" font-size="10.00">type:</text>
<text text-anchor="start" x="227" y="-209.5" font-family="Times New Roman,serif" font-size="10.00">name</text>
<text text-anchor="start" x="200" y="-196.5" font-family="Times New Roman,serif" font-size="10.00">label:</text>
<text text-anchor="start" x="227" y="-196.5" font-family="Times New Roman,serif" font-size="10.00">d</text>
</g>
<!-- http://example.org/d&#45;attrs&#45;&gt;http://example.org/d -->
<g id="edge15" class="edge"><title>http://example.org/d&#45;attrs&#45;&gt;http://example.org/d</title>
<path fill="none" stroke="gray" stroke-dasharray="5,2" d="M255,-237.189C255,-258.804 255,-290.225 255,-309.459"/>
</g>
<!-- http://example.org/0 -->
<g id="node17" class="node"><title>http://example.org/0</title>
<g id="a_node17"><a xlink:href="http://example.org/0" xlink:title="0">
<ellipse fill="#fffc87" stroke="#808080" cx="445" cy="-327.5" rx="27" ry="18"/>
<text text-anchor="middle" x="445" y="-323.8" font-family="Times New Roman,serif" font-size="14.00">0</text>
</a>
</g>
</g>
<!-- http://example.org/0_v1 -->
<g id="node19" class="node"><title>http://example.org/0_v1</title>
<g id="a_node19"><a xlink:href="http://example.org/0_v1" xlink:title="0_v1">
<ellipse fill="#32cd32" stroke="#808080" cx="380" cy="-436" rx="28.6953" ry="18"/>
<text text-anchor="middle" x="380" y="-432.3" font-family="Times New Roman,serif" font-size="14.00">0_v1</text>
</a>
</g>
</g>
<!-- http://example.org/0&#45;&gt;http://example.org/0_v1 -->
<g id="edge19" class="edge"><title>http://example.org/0&#45;&gt;http://example.org/0_v1</title>
<path fill="none" stroke="black" d="M435.128,-344.675C424.472,-362.135 407.373,-390.151 395.042,-410.355"/>
<polygon fill="black" stroke="black" points="391.974,-408.662 389.752,-419.022 397.949,-412.309 391.974,-408.662"/>
<text text-anchor="middle" x="442.309" y="-355.944" font-family="Times New Roman,serif" font-size="8.00">spe</text>
</g>
<!-- http://example.org/0&#45;attrs -->
<g id="node18" class="node"><title>http://example.org/0&#45;attrs</title>
<polygon fill="none" stroke="gray" points="473.5,-230.5 410.5,-230.5 410.5,-194.5 479.5,-194.5 479.5,-224.5 473.5,-230.5"/>
<polyline fill="none" stroke="gray" points="473.5,-230.5 473.5,-224.5 "/>
<polyline fill="none" stroke="gray" points="479.5,-224.5 473.5,-224.5 "/>
<text text-anchor="start" x="421" y="-216.5" font-family="Times New Roman,serif" font-size="10.00">value:</text>
<text text-anchor="start" x="448" y="-216.5" font-family="Times New Roman,serif" font-size="10.00">0</text>
<text text-anchor="start" x="421" y="-203.5" font-family="Times New Roman,serif" font-size="10.00">type:</text>
<text text-anchor="start" x="448" y="-203.5" font-family="Times New Roman,serif" font-size="10.00">literal</text>
</g>
<!-- http://example.org/0&#45;attrs&#45;&gt;http://example.org/0 -->
<g id="edge17" class="edge"><title>http://example.org/0&#45;attrs&#45;&gt;http://example.org/0</title>
<path fill="none" stroke="gray" stroke-dasharray="5,2" d="M445,-230.662C445,-251.901 445,-287.863 445,-309.176"/>
</g>
<!-- http://example.org/0_v1&#45;attrs -->
<g id="node20" class="node"><title>http://example.org/0_v1&#45;attrs</title>
<polygon fill="none" stroke="gray" points="394,-345.5 300,-345.5 300,-309.5 400,-309.5 400,-339.5 394,-345.5"/>
<polyline fill="none" stroke="gray" points="394,-345.5 394,-339.5 "/>
<polyline fill="none" stroke="gray" points="400,-339.5 394,-339.5 "/>
<text text-anchor="start" x="310" y="-331.5" font-family="Times New Roman,serif" font-size="10.00">checkpoint:</text>
<text text-anchor="start" x="359" y="-331.5" font-family="Times New Roman,serif" font-size="10.00">10</text>
<text text-anchor="start" x="310" y="-318.5" font-family="Times New Roman,serif" font-size="10.00">type:</text>
<text text-anchor="start" x="359" y="-318.5" font-family="Times New Roman,serif" font-size="10.00">Version</text>
</g>
<!-- http://example.org/0_v1&#45;attrs&#45;&gt;http://example.org/0_v1 -->
<g id="edge18" class="edge"><title>http://example.org/0_v1&#45;attrs&#45;&gt;http://example.org/0_v1</title>
<path fill="none" stroke="gray" stroke-dasharray="5,2" d="M354.82,-345.611C360.418,-365.485 369.599,-398.075 375.192,-417.931"/>
</g>
<!-- http://example.org/d@0 -->
<g id="node21" class="node"><title>http://example.org/d@0</title>
<g id="a_node21"><a xlink:href="http://example.org/d@0" xlink:title="d@0">
<ellipse fill="#fffc87" stroke="#808080" cx="45" cy="-104" rx="28.6953" ry="18"/>
<text text-anchor="middle" x="45" y="-100.3" font-family="Times New Roman,serif" font-size="14.00">d@0</text>
</a>
</g>
</g>
<!-- http://example.org/access1 -->
<g id="node23" class="node"><title>http://example.org/access1</title>
<g id="a_node23"><a xlink:href="http://example.org/access1" xlink:title="access1">
<polygon fill="#9fb1fc" stroke="#0000ff" points="169.5,-230.5 108.5,-230.5 108.5,-194.5 169.5,-194.5 169.5,-230.5"/>
<text text-anchor="middle" x="139" y="-208.8" font-family="Times New Roman,serif" font-size="14.00">access1</text>
</a>
</g>
</g>
<!-- http://example.org/d@0&#45;&gt;http://example.org/access1 -->
<g id="edge28" class="edge"><title>http://example.org/d@0&#45;&gt;http://example.org/access1</title>
<path fill="none" stroke="darkgreen" d="M60.4595,-119.261C66.9745,-125.465 74.5309,-132.922 81,-140 94.4846,-154.753 108.634,-172.153 119.582,-186.094"/>
<polygon fill="darkgreen" stroke="darkgreen" points="117.045,-188.533 125.95,-194.273 122.568,-184.232 117.045,-188.533"/>
<text text-anchor="middle" x="116" y="-158.8" font-family="Times New Roman,serif" font-size="14.00">gen</text>
<text text-anchor="middle" x="116" y="-143.8" font-family="Times New Roman,serif" font-size="14.00">12</text>
</g>
<!-- bn0 -->
<g id="node25" class="node"><title>bn0</title>
<ellipse fill="black" stroke="black" cx="27" cy="-212.5" rx="1.8" ry="1.8"/>
</g>
<!-- http://example.org/d@0&#45;&gt;bn0 -->
<g id="edge24" class="edge"><title>http://example.org/d@0&#45;&gt;bn0</title>
<path fill="none" stroke="darkgreen" d="M40.7993,-122.029C39.4776,-127.722 38.0821,-134.115 37,-140 31.7415,-168.6 27.8011,-204.085 27.1085,-210.487"/>
<text text-anchor="middle" x="59" y="-158.8" font-family="Times New Roman,serif" font-size="14.00">der ac&#45;r</text>
<text text-anchor="middle" x="59" y="-143.8" font-family="Times New Roman,serif" font-size="14.00">12</text>
</g>
<!-- http://example.org/d@0&#45;attrs -->
<g id="node22" class="node"><title>http://example.org/d@0&#45;attrs</title>
<polygon fill="none" stroke="gray" points="76.5,-49 7.5,-49 7.5,-0 82.5,-0 82.5,-43 76.5,-49"/>
<polyline fill="none" stroke="gray" points="76.5,-49 76.5,-43 "/>
<polyline fill="none" stroke="gray" points="82.5,-43 76.5,-43 "/>
<text text-anchor="start" x="18" y="-34.5" font-family="Times New Roman,serif" font-size="10.00">value:</text>
<text text-anchor="start" x="45" y="-34.5" font-family="Times New Roman,serif" font-size="10.00">10000</text>
<text text-anchor="start" x="18" y="-21.5" font-family="Times New Roman,serif" font-size="10.00">type:</text>
<text text-anchor="start" x="45" y="-21.5" font-family="Times New Roman,serif" font-size="10.00">access</text>
<text text-anchor="start" x="18" y="-8.5" font-family="Times New Roman,serif" font-size="10.00">label:</text>
<text text-anchor="start" x="45" y="-8.5" font-family="Times New Roman,serif" font-size="10.00">d[0]</text>
</g>
<!-- http://example.org/d@0&#45;attrs&#45;&gt;http://example.org/d@0 -->
<g id="edge20" class="edge"><title>http://example.org/d@0&#45;attrs&#45;&gt;http://example.org/d@0</title>
<path fill="none" stroke="gray" stroke-dasharray="5,2" d="M45,-49.1737C45,-60.9254 45,-74.869 45,-85.6196"/>
</g>
<!-- http://example.org/access1&#45;&gt;http://example.org/m -->
<g id="edge27" class="edge"><title>http://example.org/access1&#45;&gt;http://example.org/m</title>
<path fill="none" stroke="darkgreen" d="M113.836,-230.698C88.1416,-250.514 52,-285.648 52,-326.5 52,-326.5 52,-326.5 52,-516.5 52,-544.766 72.6471,-570.656 90.3013,-587.627"/>
<polygon fill="darkgreen" stroke="darkgreen" points="88.3753,-590.608 98.1172,-594.773 93.0988,-585.442 88.3753,-590.608"/>
<text text-anchor="middle" x="61.5" y="-439.8" font-family="Times New Roman,serif" font-size="14.00">use</text>
<text text-anchor="middle" x="61.5" y="-424.8" font-family="Times New Roman,serif" font-size="14.00">12</text>
</g>
<!-- http://example.org/access1&#45;&gt;http://example.org/d -->
<g id="edge22" class="edge"><title>http://example.org/access1&#45;&gt;http://example.org/d</title>
<path fill="none" stroke="darkgreen" d="M145.218,-230.503C151.763,-246.375 163.429,-269.831 180,-285 194.081,-297.89 202.296,-293.758 219,-303 222.098,-304.714 225.284,-306.6 228.419,-308.535"/>
<polygon fill="darkgreen" stroke="darkgreen" points="226.692,-311.585 237.004,-314.017 230.459,-305.685 226.692,-311.585"/>
<text text-anchor="middle" x="189.5" y="-273.8" font-family="Times New Roman,serif" font-size="14.00">use</text>
<text text-anchor="middle" x="189.5" y="-258.8" font-family="Times New Roman,serif" font-size="14.00">11</text>
</g>
<!-- http://example.org/access1&#45;&gt;http://example.org/0 -->
<g id="edge23" class="edge"><title>http://example.org/access1&#45;&gt;http://example.org/0</title>
<path fill="none" stroke="black" d="M167.485,-230.573C171.928,-232.902 176.529,-235.131 181,-237 278.332,-277.687 313.112,-259.018 409,-303 412.388,-304.554 415.824,-306.396 419.16,-308.354"/>
<polygon fill="black" stroke="black" points="417.328,-311.337 427.658,-313.692 421.052,-305.409 417.328,-311.337"/>
<text text-anchor="middle" x="180.133" y="-220.609" font-family="Times New Roman,serif" font-size="8.00">use</text>
</g>
<!-- http://example.org/access1&#45;attrs -->
<g id="node24" class="node"><title>http://example.org/access1&#45;attrs</title>
<polygon fill="none" stroke="gray" points="168.5,-122 103.5,-122 103.5,-86 174.5,-86 174.5,-116 168.5,-122"/>
<polyline fill="none" stroke="gray" points="168.5,-122 168.5,-116 "/>
<polyline fill="none" stroke="gray" points="174.5,-116 168.5,-116 "/>
<text text-anchor="start" x="114" y="-101" font-family="Times New Roman,serif" font-size="10.00">type:</text>
<text text-anchor="start" x="137" y="-101" font-family="Times New Roman,serif" font-size="10.00">access</text>
</g>
<!-- http://example.org/access1&#45;attrs&#45;&gt;http://example.org/access1 -->
<g id="edge21" class="edge"><title>http://example.org/access1&#45;attrs&#45;&gt;http://example.org/access1</title>
<path fill="none" stroke="gray" stroke-dasharray="5,2" d="M139,-122.111C139,-141.985 139,-174.575 139,-194.431"/>
</g>
<!-- bn0&#45;&gt;http://example.org/m -->
<g id="edge26" class="edge"><title>bn0&#45;&gt;http://example.org/m</title>
<path fill="none" stroke="darkgreen" d="M26.5314,-214.59C22.946,-223.029 0,-278.898 0,-326.5 0,-326.5 0,-326.5 0,-516.5 0,-538.364 51.5433,-571.963 85.6156,-591.786"/>
<polygon fill="darkgreen" stroke="darkgreen" points="84.2877,-595.058 94.705,-596.99 87.766,-588.984 84.2877,-595.058"/>
<text text-anchor="middle" x="8" y="-432.3" font-family="Times New Roman,serif" font-size="14.00">[0]</text>
</g>
<!-- bn0&#45;&gt;http://example.org/d -->
<g id="edge25" class="edge"><title>bn0&#45;&gt;http://example.org/d</title>
<path fill="none" stroke="darkgreen" stroke-dasharray="5,2" d="M27.979,-214.168C36.4935,-219.948 99.0095,-261.867 155,-285 182.309,-296.283 192.096,-290.783 219,-303 222.394,-304.541 225.833,-306.375 229.172,-308.329"/>
<polygon fill="darkgreen" stroke="darkgreen" points="227.341,-311.312 237.671,-313.663 231.062,-305.383 227.341,-311.312"/>
</g>
</g>
</svg>
