<?xml version="1.0" encoding="UTF-8" standalone="no"?>
<!DOCTYPE svg PUBLIC "-//W3C//DTD SVG 1.1//EN"
 "http://www.w3.org/Graphics/SVG/1.1/DTD/svg11.dtd">
<!-- Generated by graphviz version 2.38.0 (20140413.2041)
 -->
<!-- Title: PROV Pages: 1 -->
<svg width="357pt" height="286pt"
 viewBox="0.00 0.00 357.00 286.00" xmlns="http://www.w3.org/2000/svg" xmlns:xlink="http://www.w3.org/1999/xlink">
<g id="graph0" class="graph" transform="scale(1 1) rotate(0) translate(4 282)">
<title>PROV</title>
<polygon fill="white" stroke="none" points="-4,4 -4,-282 353,-282 353,4 -4,4"/>
<!-- http://example.org/d -->
<g id="node1" class="node"><title>http://example.org/d</title>
<g id="a_node1"><a xlink:href="http://example.org/d" xlink:title="d">
<ellipse fill="#fffc87" stroke="#808080" cx="173" cy="-260" rx="27" ry="18"/>
<text text-anchor="middle" x="173" y="-256.3" font-family="Times New Roman,serif" font-size="14.00">d</text>
</a>
</g>
</g>
<!-- &#45;attrs0 -->
<g id="node2" class="node"><title>&#45;attrs0</title>
<polygon fill="none" stroke="gray" points="124,-206 0,-206 0,-157 130,-157 130,-200 124,-206"/>
<polyline fill="none" stroke="gray" points="124,-206 124,-200 "/>
<polyline fill="none" stroke="gray" points="130,-200 124,-200 "/>
<text text-anchor="start" x="10" y="-191.5" font-family="Times New Roman,serif" font-size="10.00">value:</text>
<text text-anchor="start" x="37" y="-191.5" font-family="Times New Roman,serif" font-size="10.00">[10000, 10001, 10000]</text>
<text text-anchor="start" x="10" y="-178.5" font-family="Times New Roman,serif" font-size="10.00">type:</text>
<text text-anchor="start" x="37" y="-178.5" font-family="Times New Roman,serif" font-size="10.00">name</text>
<text text-anchor="start" x="10" y="-165.5" font-family="Times New Roman,serif" font-size="10.00">label:</text>
<text text-anchor="start" x="37" y="-165.5" font-family="Times New Roman,serif" font-size="10.00">d</text>
</g>
<!-- &#45;attrs0&#45;&gt;http://example.org/d -->
<g id="edge1" class="edge"><title>&#45;attrs0&#45;&gt;http://example.org/d</title>
<path fill="none" stroke="gray" stroke-dasharray="5,2" d="M98.2848,-206.077C117.002,-219.335 139.634,-235.365 155.05,-246.285"/>
</g>
<!-- http://example.org/len_d -->
<g id="node3" class="node"><title>http://example.org/len_d</title>
<g id="a_node3"><a xlink:href="http://example.org/len_d" xlink:title="len_d">
<ellipse fill="#fffc87" stroke="#808080" cx="242" cy="-103" rx="30.5947" ry="18"/>
<text text-anchor="middle" x="242" y="-99.3" font-family="Times New Roman,serif" font-size="14.00">len_d</text>
</a>
</g>
</g>
<!-- http://example.org/len_d_v1 -->
<g id="node5" class="node"><title>http://example.org/len_d_v1</title>
<g id="a_node5"><a xlink:href="http://example.org/len_d_v1" xlink:title="len_d_v1">
<ellipse fill="#32cd32" stroke="#808080" cx="192" cy="-181.5" rx="44.393" ry="18"/>
<text text-anchor="middle" x="192" y="-177.8" font-family="Times New Roman,serif" font-size="14.00">len_d_v1</text>
</a>
</g>
</g>
<!-- http://example.org/len_d&#45;&gt;http://example.org/len_d_v1 -->
<g id="edge4" class="edge"><title>http://example.org/len_d&#45;&gt;http://example.org/len_d_v1</title>
<path fill="none" stroke="black" d="M231.396,-120.224C224.68,-130.499 215.862,-143.991 208.271,-155.605"/>
<polygon fill="black" stroke="black" points="205.302,-153.75 202.761,-164.036 211.162,-157.58 205.302,-153.75"/>
<text text-anchor="middle" x="238.167" y="-131.709" font-family="Times New Roman,serif" font-size="8.00">spe</text>
</g>
<!-- http://example.org/call1 -->
<g id="node7" class="node"><title>http://example.org/call1</title>
<g id="a_node7"><a xlink:href="http://example.org/call1" xlink:title="call1">
<polygon fill="#9fb1fc" stroke="#0000ff" points="308,-199.5 254,-199.5 254,-163.5 308,-163.5 308,-199.5"/>
<text text-anchor="middle" x="281" y="-177.8" font-family="Times New Roman,serif" font-size="14.00">call1</text>
</a>
</g>
</g>
<!-- http://example.org/len_d&#45;&gt;http://example.org/call1 -->
<g id="edge7" class="edge"><title>http://example.org/len_d&#45;&gt;http://example.org/call1</title>
<path fill="none" stroke="black" d="M250.462,-120.599C255.503,-130.487 262.011,-143.252 267.723,-154.456"/>
<polygon fill="black" stroke="black" points="264.624,-156.084 272.284,-163.403 270.86,-152.905 264.624,-156.084"/>
<text text-anchor="middle" x="265.442" y="-119.481" font-family="Times New Roman,serif" font-size="8.00">gen</text>
</g>
<!-- &#45;attrs1 -->
<g id="node4" class="node"><title>&#45;attrs1</title>
<polygon fill="none" stroke="gray" points="271.5,-49 206.5,-49 206.5,-0 277.5,-0 277.5,-43 271.5,-49"/>
<polyline fill="none" stroke="gray" points="271.5,-49 271.5,-43 "/>
<polyline fill="none" stroke="gray" points="277.5,-43 271.5,-43 "/>
<text text-anchor="start" x="217" y="-34.5" font-family="Times New Roman,serif" font-size="10.00">value:</text>
<text text-anchor="start" x="244" y="-34.5" font-family="Times New Roman,serif" font-size="10.00">3</text>
<text text-anchor="start" x="217" y="-21.5" font-family="Times New Roman,serif" font-size="10.00">type:</text>
<text text-anchor="start" x="244" y="-21.5" font-family="Times New Roman,serif" font-size="10.00">eval</text>
<text text-anchor="start" x="217" y="-8.5" font-family="Times New Roman,serif" font-size="10.00">label:</text>
<text text-anchor="start" x="244" y="-8.5" font-family="Times New Roman,serif" font-size="10.00">len(d)</text>
</g>
<!-- &#45;attrs1&#45;&gt;http://example.org/len_d -->
<g id="edge2" class="edge"><title>&#45;attrs1&#45;&gt;http://example.org/len_d</title>
<path fill="none" stroke="gray" stroke-dasharray="5,2" d="M242,-49.2857C242,-60.6896 242,-74.105 242,-84.5482"/>
</g>
<!-- &#45;attrs2 -->
<g id="node6" class="node"><title>&#45;attrs2</title>
<polygon fill="none" stroke="gray" points="187,-121 93,-121 93,-85 193,-85 193,-115 187,-121"/>
<polyline fill="none" stroke="gray" points="187,-121 187,-115 "/>
<polyline fill="none" stroke="gray" points="193,-115 187,-115 "/>
<text text-anchor="start" x="103" y="-107" font-family="Times New Roman,serif" font-size="10.00">checkpoint:</text>
<text text-anchor="start" x="152" y="-107" font-family="Times New Roman,serif" font-size="10.00">8</text>
<text text-anchor="start" x="103" y="-94" font-family="Times New Roman,serif" font-size="10.00">type:</text>
<text text-anchor="start" x="152" y="-94" font-family="Times New Roman,serif" font-size="10.00">Version</text>
</g>
<!-- &#45;attrs2&#45;&gt;http://example.org/len_d_v1 -->
<g id="edge3" class="edge"><title>&#45;attrs2&#45;&gt;http://example.org/len_d_v1</title>
<path fill="none" stroke="gray" stroke-dasharray="5,2" d="M154.119,-121.359C162.307,-134.143 173.373,-151.419 181.429,-163.996"/>
</g>
<!-- http://example.org/call1&#45;&gt;http://example.org/d -->
<g id="edge6" class="edge"><title>http://example.org/call1&#45;&gt;http://example.org/d</title>
<path fill="none" stroke="black" d="M256.763,-199.668C239.71,-211.747 216.898,-227.906 199.386,-240.31"/>
<polygon fill="black" stroke="black" points="196.908,-237.776 190.771,-246.412 200.954,-243.488 196.908,-237.776"/>
<text text-anchor="middle" x="258.151" y="-212.704" font-family="Times New Roman,serif" font-size="8.00">use</text>
</g>
<!-- &#45;attrs3 -->
<g id="node8" class="node"><title>&#45;attrs3</title>
<polygon fill="none" stroke="gray" points="343,-121 291,-121 291,-85 349,-85 349,-115 343,-121"/>
<polyline fill="none" stroke="gray" points="343,-121 343,-115 "/>
<polyline fill="none" stroke="gray" points="349,-115 343,-115 "/>
<text text-anchor="start" x="301" y="-107" font-family="Times New Roman,serif" font-size="10.00">type:</text>
<text text-anchor="start" x="325" y="-107" font-family="Times New Roman,serif" font-size="10.00">call</text>
<text text-anchor="start" x="301" y="-94" font-family="Times New Roman,serif" font-size="10.00">label:</text>
<text text-anchor="start" x="325" y="-94" font-family="Times New Roman,serif" font-size="10.00">len</text>
</g>
<!-- &#45;attrs3&#45;&gt;http://example.org/call1 -->
<g id="edge5" class="edge"><title>&#45;attrs3&#45;&gt;http://example.org/call1</title>
<path fill="none" stroke="gray" stroke-dasharray="5,2" d="M311.15,-121.359C304.723,-133.967 296.068,-150.943 289.68,-163.473"/>
</g>
</g>
</svg>
