<?xml version="1.0" encoding="UTF-8" standalone="no"?>
<!DOCTYPE svg PUBLIC "-//W3C//DTD SVG 1.1//EN"
 "http://www.w3.org/Graphics/SVG/1.1/DTD/svg11.dtd">
<!-- Generated by graphviz version 2.38.0 (20140413.2041)
 -->
<!-- Title: PROV Pages: 1 -->
<svg width="1152pt" height="162pt"
 viewBox="0.00 0.00 1152.00 162.15" xmlns="http://www.w3.org/2000/svg" xmlns:xlink="http://www.w3.org/1999/xlink">
<g id="graph0" class="graph" transform="scale(0.806723 0.806723) rotate(0) translate(4 197)">
<title>PROV</title>
<polygon fill="white" stroke="none" points="-4,4 -4,-197 1424,-197 1424,4 -4,4"/>
<!-- http://example.org/1 -->
<g id="node1" class="node"><title>http://example.org/1</title>
<g id="a_node1"><a xlink:href="http://example.org/1" xlink:title="1">
<ellipse fill="#fffc87" stroke="#808080" cx="190.5" cy="-103" rx="27" ry="18"/>
<text text-anchor="middle" x="190.5" y="-99.3" font-family="Times New Roman,serif" font-size="14.00">1</text>
</a>
</g>
</g>
<!-- http://example.org/1_v1 -->
<g id="node3" class="node"><title>http://example.org/1_v1</title>
<g id="a_node3"><a xlink:href="http://example.org/1_v1" xlink:title="1_v1">
<ellipse fill="#32cd32" stroke="#808080" cx="131.5" cy="-175" rx="28.6953" ry="18"/>
<text text-anchor="middle" x="131.5" y="-171.3" font-family="Times New Roman,serif" font-size="14.00">1_v1</text>
</a>
</g>
</g>
<!-- http://example.org/1&#45;&gt;http://example.org/1_v1 -->
<g id="edge3" class="edge"><title>http://example.org/1&#45;&gt;http://example.org/1_v1</title>
<path fill="none" stroke="black" d="M177.698,-119.189C169.889,-128.454 159.753,-140.48 150.965,-150.906"/>
<polygon fill="black" stroke="black" points="148.046,-148.939 144.277,-158.841 153.398,-153.45 148.046,-148.939"/>
<text text-anchor="middle" x="182.797" y="-131.396" font-family="Times New Roman,serif" font-size="8.00">spe</text>
</g>
<!-- http://example.org/1&#45;attrs -->
<g id="node2" class="node"><title>http://example.org/1&#45;attrs</title>
<polygon fill="none" stroke="gray" points="219,-42.5 156,-42.5 156,-6.5 225,-6.5 225,-36.5 219,-42.5"/>
<polyline fill="none" stroke="gray" points="219,-42.5 219,-36.5 "/>
<polyline fill="none" stroke="gray" points="225,-36.5 219,-36.5 "/>
<text text-anchor="start" x="166.5" y="-28.5" font-family="Times New Roman,serif" font-size="10.00">value:</text>
<text text-anchor="start" x="193.5" y="-28.5" font-family="Times New Roman,serif" font-size="10.00">1</text>
<text text-anchor="start" x="166.5" y="-15.5" font-family="Times New Roman,serif" font-size="10.00">type:</text>
<text text-anchor="start" x="193.5" y="-15.5" font-family="Times New Roman,serif" font-size="10.00">literal</text>
</g>
<!-- http://example.org/1&#45;attrs&#45;&gt;http://example.org/1 -->
<g id="edge1" class="edge"><title>http://example.org/1&#45;attrs&#45;&gt;http://example.org/1</title>
<path fill="none" stroke="gray" stroke-dasharray="5,2" d="M190.5,-42.859C190.5,-55.4669 190.5,-72.443 190.5,-84.9732"/>
</g>
<!-- http://example.org/1_v1&#45;attrs -->
<g id="node4" class="node"><title>http://example.org/1_v1&#45;attrs</title>
<polygon fill="none" stroke="gray" points="139,-121 0,-121 0,-85 145,-85 145,-115 139,-121"/>
<polyline fill="none" stroke="gray" points="139,-121 139,-115 "/>
<polyline fill="none" stroke="gray" points="145,-115 139,-115 "/>
<text text-anchor="start" x="10.5" y="-107" font-family="Times New Roman,serif" font-size="10.00">checkpoint:</text>
<text text-anchor="start" x="59.5" y="-107" font-family="Times New Roman,serif" font-size="10.00">2018&#45;02&#45;22 16:00:00</text>
<text text-anchor="start" x="10.5" y="-94" font-family="Times New Roman,serif" font-size="10.00">type:</text>
<text text-anchor="start" x="59.5" y="-94" font-family="Times New Roman,serif" font-size="10.00">Version</text>
</g>
<!-- http://example.org/1_v1&#45;attrs&#45;&gt;http://example.org/1_v1 -->
<g id="edge2" class="edge"><title>http://example.org/1_v1&#45;attrs&#45;&gt;http://example.org/1_v1</title>
<path fill="none" stroke="gray" stroke-dasharray="5,2" d="M87.0843,-121.303C96.7755,-132.801 109.381,-147.757 118.687,-158.798"/>
</g>
<!-- http://example.org/a -->
<g id="node5" class="node"><title>http://example.org/a</title>
<g id="a_node5"><a xlink:href="http://example.org/a" xlink:title="a">
<ellipse fill="#fffc87" stroke="#808080" cx="426.5" cy="-103" rx="27" ry="18"/>
<text text-anchor="middle" x="426.5" y="-99.3" font-family="Times New Roman,serif" font-size="14.00">a</text>
</a>
</g>
</g>
<!-- http://example.org/a_v1 -->
<g id="node7" class="node"><title>http://example.org/a_v1</title>
<g id="a_node7"><a xlink:href="http://example.org/a_v1" xlink:title="a_v1">
<ellipse fill="#32cd32" stroke="#808080" cx="367.5" cy="-175" rx="28.6953" ry="18"/>
<text text-anchor="middle" x="367.5" y="-171.3" font-family="Times New Roman,serif" font-size="14.00">a_v1</text>
</a>
</g>
</g>
<!-- http://example.org/a&#45;&gt;http://example.org/a_v1 -->
<g id="edge6" class="edge"><title>http://example.org/a&#45;&gt;http://example.org/a_v1</title>
<path fill="none" stroke="black" d="M413.698,-119.189C405.889,-128.454 395.753,-140.48 386.965,-150.906"/>
<polygon fill="black" stroke="black" points="384.046,-148.939 380.277,-158.841 389.398,-153.45 384.046,-148.939"/>
<text text-anchor="middle" x="418.797" y="-131.396" font-family="Times New Roman,serif" font-size="8.00">spe</text>
</g>
<!-- http://example.org/a&#45;attrs -->
<g id="node6" class="node"><title>http://example.org/a&#45;attrs</title>
<polygon fill="none" stroke="gray" points="455,-42.5 392,-42.5 392,-6.5 461,-6.5 461,-36.5 455,-42.5"/>
<polyline fill="none" stroke="gray" points="455,-42.5 455,-36.5 "/>
<polyline fill="none" stroke="gray" points="461,-36.5 455,-36.5 "/>
<text text-anchor="start" x="402.5" y="-28.5" font-family="Times New Roman,serif" font-size="10.00">value:</text>
<text text-anchor="start" x="429.5" y="-28.5" font-family="Times New Roman,serif" font-size="10.00">&#39;a&#39;</text>
<text text-anchor="start" x="402.5" y="-15.5" font-family="Times New Roman,serif" font-size="10.00">type:</text>
<text text-anchor="start" x="429.5" y="-15.5" font-family="Times New Roman,serif" font-size="10.00">literal</text>
</g>
<!-- http://example.org/a&#45;attrs&#45;&gt;http://example.org/a -->
<g id="edge4" class="edge"><title>http://example.org/a&#45;attrs&#45;&gt;http://example.org/a</title>
<path fill="none" stroke="gray" stroke-dasharray="5,2" d="M426.5,-42.859C426.5,-55.4669 426.5,-72.443 426.5,-84.9732"/>
</g>
<!-- http://example.org/a_v1&#45;attrs -->
<g id="node8" class="node"><title>http://example.org/a_v1&#45;attrs</title>
<polygon fill="none" stroke="gray" points="375,-121 236,-121 236,-85 381,-85 381,-115 375,-121"/>
<polyline fill="none" stroke="gray" points="375,-121 375,-115 "/>
<polyline fill="none" stroke="gray" points="381,-115 375,-115 "/>
<text text-anchor="start" x="246.5" y="-107" font-family="Times New Roman,serif" font-size="10.00">checkpoint:</text>
<text text-anchor="start" x="295.5" y="-107" font-family="Times New Roman,serif" font-size="10.00">2018&#45;02&#45;22 16:00:01</text>
<text text-anchor="start" x="246.5" y="-94" font-family="Times New Roman,serif" font-size="10.00">type:</text>
<text text-anchor="start" x="295.5" y="-94" font-family="Times New Roman,serif" font-size="10.00">Version</text>
</g>
<!-- http://example.org/a_v1&#45;attrs&#45;&gt;http://example.org/a_v1 -->
<g id="edge5" class="edge"><title>http://example.org/a_v1&#45;attrs&#45;&gt;http://example.org/a_v1</title>
<path fill="none" stroke="gray" stroke-dasharray="5,2" d="M323.084,-121.303C332.776,-132.801 345.381,-147.757 354.687,-158.798"/>
</g>
<!-- http://example.org/a#2 -->
<g id="node9" class="node"><title>http://example.org/a#2</title>
<g id="a_node9"><a xlink:href="http://example.org/a#2" xlink:title="a#2">
<ellipse fill="#fffc87" stroke="#808080" cx="662.5" cy="-103" rx="27" ry="18"/>
<text text-anchor="middle" x="662.5" y="-99.3" font-family="Times New Roman,serif" font-size="14.00">a#2</text>
</a>
</g>
</g>
<!-- http://example.org/a#2_v1 -->
<g id="node11" class="node"><title>http://example.org/a#2_v1</title>
<g id="a_node11"><a xlink:href="http://example.org/a#2_v1" xlink:title="a#2_v1">
<ellipse fill="#32cd32" stroke="#808080" cx="603.5" cy="-175" rx="37.8943" ry="18"/>
<text text-anchor="middle" x="603.5" y="-171.3" font-family="Times New Roman,serif" font-size="14.00">a#2_v1</text>
</a>
</g>
</g>
<!-- http://example.org/a#2&#45;&gt;http://example.org/a#2_v1 -->
<g id="edge9" class="edge"><title>http://example.org/a#2&#45;&gt;http://example.org/a#2_v1</title>
<path fill="none" stroke="black" d="M649.698,-119.189C642.103,-128.2 632.306,-139.823 623.69,-150.045"/>
<polygon fill="black" stroke="black" points="620.867,-147.964 617.098,-157.866 626.219,-152.476 620.867,-147.964"/>
<text text-anchor="middle" x="654.797" y="-131.396" font-family="Times New Roman,serif" font-size="8.00">spe</text>
</g>
<!-- http://example.org/a#2&#45;attrs -->
<g id="node10" class="node"><title>http://example.org/a#2&#45;attrs</title>
<polygon fill="none" stroke="gray" points="691,-42.5 628,-42.5 628,-6.5 697,-6.5 697,-36.5 691,-42.5"/>
<polyline fill="none" stroke="gray" points="691,-42.5 691,-36.5 "/>
<polyline fill="none" stroke="gray" points="697,-36.5 691,-36.5 "/>
<text text-anchor="start" x="638.5" y="-28.5" font-family="Times New Roman,serif" font-size="10.00">value:</text>
<text text-anchor="start" x="665.5" y="-28.5" font-family="Times New Roman,serif" font-size="10.00">b&#39;a&#39;</text>
<text text-anchor="start" x="638.5" y="-15.5" font-family="Times New Roman,serif" font-size="10.00">type:</text>
<text text-anchor="start" x="665.5" y="-15.5" font-family="Times New Roman,serif" font-size="10.00">literal</text>
</g>
<!-- http://example.org/a#2&#45;attrs&#45;&gt;http://example.org/a#2 -->
<g id="edge7" class="edge"><title>http://example.org/a#2&#45;attrs&#45;&gt;http://example.org/a#2</title>
<path fill="none" stroke="gray" stroke-dasharray="5,2" d="M662.5,-42.859C662.5,-55.4669 662.5,-72.443 662.5,-84.9732"/>
</g>
<!-- http://example.org/a#2_v1&#45;attrs -->
<g id="node12" class="node"><title>http://example.org/a#2_v1&#45;attrs</title>
<polygon fill="none" stroke="gray" points="611,-121 472,-121 472,-85 617,-85 617,-115 611,-121"/>
<polyline fill="none" stroke="gray" points="611,-121 611,-115 "/>
<polyline fill="none" stroke="gray" points="617,-115 611,-115 "/>
<text text-anchor="start" x="482.5" y="-107" font-family="Times New Roman,serif" font-size="10.00">checkpoint:</text>
<text text-anchor="start" x="531.5" y="-107" font-family="Times New Roman,serif" font-size="10.00">2018&#45;02&#45;22 16:00:02</text>
<text text-anchor="start" x="482.5" y="-94" font-family="Times New Roman,serif" font-size="10.00">type:</text>
<text text-anchor="start" x="531.5" y="-94" font-family="Times New Roman,serif" font-size="10.00">Version</text>
</g>
<!-- http://example.org/a#2_v1&#45;attrs&#45;&gt;http://example.org/a#2_v1 -->
<g id="edge8" class="edge"><title>http://example.org/a#2_v1&#45;attrs&#45;&gt;http://example.org/a#2_v1</title>
<path fill="none" stroke="gray" stroke-dasharray="5,2" d="M559.084,-121.303C568.503,-132.478 580.673,-146.918 589.892,-157.855"/>
</g>
<!-- http://example.org/True -->
<g id="node13" class="node"><title>http://example.org/True</title>
<g id="a_node13"><a xlink:href="http://example.org/True" xlink:title="True">
<ellipse fill="#fffc87" stroke="#808080" cx="898.5" cy="-103" rx="27.8951" ry="18"/>
<text text-anchor="middle" x="898.5" y="-99.3" font-family="Times New Roman,serif" font-size="14.00">True</text>
</a>
</g>
</g>
<!-- http://example.org/True_v1 -->
<g id="node15" class="node"><title>http://example.org/True_v1</title>
<g id="a_node15"><a xlink:href="http://example.org/True_v1" xlink:title="True_v1">
<ellipse fill="#32cd32" stroke="#808080" cx="839.5" cy="-175" rx="41.6928" ry="18"/>
<text text-anchor="middle" x="839.5" y="-171.3" font-family="Times New Roman,serif" font-size="14.00">True_v1</text>
</a>
</g>
</g>
<!-- http://example.org/True&#45;&gt;http://example.org/True_v1 -->
<g id="edge12" class="edge"><title>http://example.org/True&#45;&gt;http://example.org/True_v1</title>
<path fill="none" stroke="black" d="M885.698,-119.189C878.103,-128.2 868.306,-139.823 859.69,-150.045"/>
<polygon fill="black" stroke="black" points="856.867,-147.964 853.098,-157.866 862.219,-152.476 856.867,-147.964"/>
<text text-anchor="middle" x="890.797" y="-131.396" font-family="Times New Roman,serif" font-size="8.00">spe</text>
</g>
<!-- http://example.org/True&#45;attrs -->
<g id="node14" class="node"><title>http://example.org/True&#45;attrs</title>
<polygon fill="none" stroke="gray" points="934,-42.5 857,-42.5 857,-6.5 940,-6.5 940,-36.5 934,-42.5"/>
<polyline fill="none" stroke="gray" points="934,-42.5 934,-36.5 "/>
<polyline fill="none" stroke="gray" points="940,-36.5 934,-36.5 "/>
<text text-anchor="start" x="867.5" y="-28.5" font-family="Times New Roman,serif" font-size="10.00">value:</text>
<text text-anchor="start" x="894.5" y="-28.5" font-family="Times New Roman,serif" font-size="10.00">True</text>
<text text-anchor="start" x="867.5" y="-15.5" font-family="Times New Roman,serif" font-size="10.00">type:</text>
<text text-anchor="start" x="894.5" y="-15.5" font-family="Times New Roman,serif" font-size="10.00">constant</text>
</g>
<!-- http://example.org/True&#45;attrs&#45;&gt;http://example.org/True -->
<g id="edge10" class="edge"><title>http://example.org/True&#45;attrs&#45;&gt;http://example.org/True</title>
<path fill="none" stroke="gray" stroke-dasharray="5,2" d="M898.5,-42.859C898.5,-55.4669 898.5,-72.443 898.5,-84.9732"/>
</g>
<!-- http://example.org/True_v1&#45;attrs -->
<g id="node16" class="node"><title>http://example.org/True_v1&#45;attrs</title>
<polygon fill="none" stroke="gray" points="847,-121 708,-121 708,-85 853,-85 853,-115 847,-121"/>
<polyline fill="none" stroke="gray" points="847,-121 847,-115 "/>
<polyline fill="none" stroke="gray" points="853,-115 847,-115 "/>
<text text-anchor="start" x="718.5" y="-107" font-family="Times New Roman,serif" font-size="10.00">checkpoint:</text>
<text text-anchor="start" x="767.5" y="-107" font-family="Times New Roman,serif" font-size="10.00">2018&#45;02&#45;22 16:00:03</text>
<text text-anchor="start" x="718.5" y="-94" font-family="Times New Roman,serif" font-size="10.00">type:</text>
<text text-anchor="start" x="767.5" y="-94" font-family="Times New Roman,serif" font-size="10.00">Version</text>
</g>
<!-- http://example.org/True_v1&#45;attrs&#45;&gt;http://example.org/True_v1 -->
<g id="edge11" class="edge"><title>http://example.org/True_v1&#45;attrs&#45;&gt;http://example.org/True_v1</title>
<path fill="none" stroke="gray" stroke-dasharray="5,2" d="M795.084,-121.303C804.503,-132.478 816.673,-146.918 825.892,-157.855"/>
</g>
<!-- http://example.org/int -->
<g id="node17" class="node"><title>http://example.org/int</title>
<g id="a_node17"><a xlink:href="http://example.org/int" xlink:title="int">
<ellipse fill="#fffc87" stroke="#808080" cx="1134.5" cy="-103" rx="27" ry="18"/>
<text text-anchor="middle" x="1134.5" y="-99.3" font-family="Times New Roman,serif" font-size="14.00">int</text>
</a>
</g>
</g>
<!-- http://example.org/int_v1 -->
<g id="node19" class="node"><title>http://example.org/int_v1</title>
<g id="a_node19"><a xlink:href="http://example.org/int_v1" xlink:title="int_v1">
<ellipse fill="#32cd32" stroke="#808080" cx="1075.5" cy="-175" rx="33.2948" ry="18"/>
<text text-anchor="middle" x="1075.5" y="-171.3" font-family="Times New Roman,serif" font-size="14.00">int_v1</text>
</a>
</g>
</g>
<!-- http://example.org/int&#45;&gt;http://example.org/int_v1 -->
<g id="edge15" class="edge"><title>http://example.org/int&#45;&gt;http://example.org/int_v1</title>
<path fill="none" stroke="black" d="M1121.7,-119.189C1114,-128.327 1104.03,-140.151 1095.33,-150.476"/>
<polygon fill="black" stroke="black" points="1092.45,-148.454 1088.69,-158.356 1097.81,-152.965 1092.45,-148.454"/>
<text text-anchor="middle" x="1126.8" y="-131.396" font-family="Times New Roman,serif" font-size="8.00">spe</text>
</g>
<!-- http://example.org/int&#45;attrs -->
<g id="node18" class="node"><title>http://example.org/int&#45;attrs</title>
<polygon fill="none" stroke="gray" points="1175.5,-49 1087.5,-49 1087.5,-0 1181.5,-0 1181.5,-43 1175.5,-49"/>
<polyline fill="none" stroke="gray" points="1175.5,-49 1175.5,-43 "/>
<polyline fill="none" stroke="gray" points="1181.5,-43 1175.5,-43 "/>
<text text-anchor="start" x="1097.5" y="-34.5" font-family="Times New Roman,serif" font-size="10.00">value:</text>
<text text-anchor="start" x="1124.5" y="-34.5" font-family="Times New Roman,serif" font-size="10.00">&lt;class &#39;int&#39;&gt;</text>
<text text-anchor="start" x="1097.5" y="-21.5" font-family="Times New Roman,serif" font-size="10.00">type:</text>
<text text-anchor="start" x="1124.5" y="-21.5" font-family="Times New Roman,serif" font-size="10.00">name</text>
<text text-anchor="start" x="1097.5" y="-8.5" font-family="Times New Roman,serif" font-size="10.00">label:</text>
<text text-anchor="start" x="1124.5" y="-8.5" font-family="Times New Roman,serif" font-size="10.00">int</text>
</g>
<!-- http://example.org/int&#45;attrs&#45;&gt;http://example.org/int -->
<g id="edge13" class="edge"><title>http://example.org/int&#45;attrs&#45;&gt;http://example.org/int</title>
<path fill="none" stroke="gray" stroke-dasharray="5,2" d="M1134.5,-49.2857C1134.5,-60.6896 1134.5,-74.105 1134.5,-84.5482"/>
</g>
<!-- http://example.org/int_v1&#45;attrs -->
<g id="node20" class="node"><title>http://example.org/int_v1&#45;attrs</title>
<polygon fill="none" stroke="gray" points="1083,-121 944,-121 944,-85 1089,-85 1089,-115 1083,-121"/>
<polyline fill="none" stroke="gray" points="1083,-121 1083,-115 "/>
<polyline fill="none" stroke="gray" points="1089,-115 1083,-115 "/>
<text text-anchor="start" x="954.5" y="-107" font-family="Times New Roman,serif" font-size="10.00">checkpoint:</text>
<text text-anchor="start" x="1003.5" y="-107" font-family="Times New Roman,serif" font-size="10.00">2018&#45;02&#45;22 16:00:04</text>
<text text-anchor="start" x="954.5" y="-94" font-family="Times New Roman,serif" font-size="10.00">type:</text>
<text text-anchor="start" x="1003.5" y="-94" font-family="Times New Roman,serif" font-size="10.00">Version</text>
</g>
<!-- http://example.org/int_v1&#45;attrs&#45;&gt;http://example.org/int_v1 -->
<g id="edge14" class="edge"><title>http://example.org/int_v1&#45;attrs&#45;&gt;http://example.org/int_v1</title>
<path fill="none" stroke="gray" stroke-dasharray="5,2" d="M1031.08,-121.303C1040.64,-132.64 1053.03,-147.337 1062.29,-158.329"/>
</g>
<!-- http://example.org/ellipsis -->
<g id="node21" class="node"><title>http://example.org/ellipsis</title>
<g id="a_node21"><a xlink:href="http://example.org/ellipsis" xlink:title="ellipsis">
<ellipse fill="#fffc87" stroke="#808080" cx="1378.5" cy="-103" rx="35.194" ry="18"/>
<text text-anchor="middle" x="1378.5" y="-99.3" font-family="Times New Roman,serif" font-size="14.00">ellipsis</text>
</a>
</g>
</g>
<!-- http://example.org/ellipsis_v1 -->
<g id="node23" class="node"><title>http://example.org/ellipsis_v1</title>
<g id="a_node23"><a xlink:href="http://example.org/ellipsis_v1" xlink:title="ellipsis_v1">
<ellipse fill="#32cd32" stroke="#808080" cx="1315.5" cy="-175" rx="48.9926" ry="18"/>
<text text-anchor="middle" x="1315.5" y="-171.3" font-family="Times New Roman,serif" font-size="14.00">ellipsis_v1</text>
</a>
</g>
</g>
<!-- http://example.org/ellipsis&#45;&gt;http://example.org/ellipsis_v1 -->
<g id="edge18" class="edge"><title>http://example.org/ellipsis&#45;&gt;http://example.org/ellipsis_v1</title>
<path fill="none" stroke="black" d="M1364.52,-119.535C1356.51,-128.434 1346.28,-139.795 1337.25,-149.836"/>
<polygon fill="black" stroke="black" points="1334.41,-147.758 1330.32,-157.533 1339.61,-152.441 1334.41,-147.758"/>
<text text-anchor="middle" x="1369.16" y="-131.9" font-family="Times New Roman,serif" font-size="8.00">spe</text>
</g>
<!-- http://example.org/ellipsis&#45;attrs -->
<g id="node22" class="node"><title>http://example.org/ellipsis&#45;attrs</title>
<polygon fill="none" stroke="gray" points="1414,-49 1337,-49 1337,-0 1420,-0 1420,-43 1414,-49"/>
<polyline fill="none" stroke="gray" points="1414,-49 1414,-43 "/>
<polyline fill="none" stroke="gray" points="1420,-43 1414,-43 "/>
<text text-anchor="start" x="1347.5" y="-34.5" font-family="Times New Roman,serif" font-size="10.00">value:</text>
<text text-anchor="start" x="1374.5" y="-34.5" font-family="Times New Roman,serif" font-size="10.00">Ellipsis</text>
<text text-anchor="start" x="1347.5" y="-21.5" font-family="Times New Roman,serif" font-size="10.00">type:</text>
<text text-anchor="start" x="1374.5" y="-21.5" font-family="Times New Roman,serif" font-size="10.00">constant</text>
<text text-anchor="start" x="1347.5" y="-8.5" font-family="Times New Roman,serif" font-size="10.00">label:</text>
<text text-anchor="start" x="1374.5" y="-8.5" font-family="Times New Roman,serif" font-size="10.00">...</text>
</g>
<!-- http://example.org/ellipsis&#45;attrs&#45;&gt;http://example.org/ellipsis -->
<g id="edge16" class="edge"><title>http://example.org/ellipsis&#45;attrs&#45;&gt;http://example.org/ellipsis</title>
<path fill="none" stroke="gray" stroke-dasharray="5,2" d="M1378.5,-49.2857C1378.5,-60.6896 1378.5,-74.105 1378.5,-84.5482"/>
</g>
<!-- http://example.org/ellipsis_v1&#45;attrs -->
<g id="node24" class="node"><title>http://example.org/ellipsis_v1&#45;attrs</title>
<polygon fill="none" stroke="gray" points="1319,-121 1180,-121 1180,-85 1325,-85 1325,-115 1319,-121"/>
<polyline fill="none" stroke="gray" points="1319,-121 1319,-115 "/>
<polyline fill="none" stroke="gray" points="1325,-115 1319,-115 "/>
<text text-anchor="start" x="1190.5" y="-107" font-family="Times New Roman,serif" font-size="10.00">checkpoint:</text>
<text text-anchor="start" x="1239.5" y="-107" font-family="Times New Roman,serif" font-size="10.00">2018&#45;02&#45;22 16:00:05</text>
<text text-anchor="start" x="1190.5" y="-94" font-family="Times New Roman,serif" font-size="10.00">type:</text>
<text text-anchor="start" x="1239.5" y="-94" font-family="Times New Roman,serif" font-size="10.00">Version</text>
</g>
<!-- http://example.org/ellipsis_v1&#45;attrs&#45;&gt;http://example.org/ellipsis_v1 -->
<g id="edge17" class="edge"><title>http://example.org/ellipsis_v1&#45;attrs&#45;&gt;http://example.org/ellipsis_v1</title>
<path fill="none" stroke="gray" stroke-dasharray="5,2" d="M1268.07,-121.303C1277.98,-132.316 1290.75,-146.5 1300.54,-157.378"/>
</g>
</g>
</svg>
