<?xml version="1.0" encoding="UTF-8" standalone="no"?>
<!DOCTYPE svg PUBLIC "-//W3C//DTD SVG 1.1//EN"
 "http://www.w3.org/Graphics/SVG/1.1/DTD/svg11.dtd">
<!-- Generated by graphviz version 2.38.0 (20140413.2041)
 -->
<!-- Title: PROV Pages: 1 -->
<svg width="1152pt" height="161pt"
 viewBox="0.00 0.00 1152.00 160.90" xmlns="http://www.w3.org/2000/svg" xmlns:xlink="http://www.w3.org/1999/xlink">
<g id="graph0" class="graph" transform="scale(0.392924 0.392924) rotate(0) translate(4 405.5)">
<title>PROV</title>
<polygon fill="white" stroke="none" points="-4,4 -4,-405.5 2927.86,-405.5 2927.86,4 -4,4"/>
<!-- http://example.org/list1 -->
<g id="node1" class="node"><title>http://example.org/list1</title>
<g id="a_node1"><a xlink:href="http://example.org/list1" xlink:title="list1">
<ellipse fill="#fffc87" stroke="#808080" cx="27" cy="-258" rx="27" ry="18"/>
<text text-anchor="middle" x="27" y="-254.3" font-family="Times New Roman,serif" font-size="14.00">list1</text>
</a>
</g>
</g>
<!-- &#45;attrs0 -->
<g id="node2" class="node"><title>&#45;attrs0</title>
<polygon fill="none" stroke="gray" points="239,-297.5 151,-297.5 151,-248.5 245,-248.5 245,-291.5 239,-297.5"/>
<polyline fill="none" stroke="gray" points="239,-297.5 239,-291.5 "/>
<polyline fill="none" stroke="gray" points="245,-291.5 239,-291.5 "/>
<text text-anchor="start" x="161" y="-283" font-family="Times New Roman,serif" font-size="10.00">value:</text>
<text text-anchor="start" x="188" y="-283" font-family="Times New Roman,serif" font-size="10.00">[10000, 0, 2]</text>
<text text-anchor="start" x="161" y="-270" font-family="Times New Roman,serif" font-size="10.00">type:</text>
<text text-anchor="start" x="188" y="-270" font-family="Times New Roman,serif" font-size="10.00">list</text>
<text text-anchor="start" x="161" y="-257" font-family="Times New Roman,serif" font-size="10.00">label:</text>
<text text-anchor="start" x="188" y="-257" font-family="Times New Roman,serif" font-size="10.00">[m, 0, 2]</text>
</g>
<!-- &#45;attrs0&#45;&gt;http://example.org/list1 -->
<g id="edge1" class="edge"><title>&#45;attrs0&#45;&gt;http://example.org/list1</title>
<path fill="none" stroke="gray" stroke-dasharray="5,2" d="M150.82,-268.901C119.742,-266.143 79.8899,-262.606 54.1514,-260.321"/>
</g>
<!-- http://example.org/1 -->
<g id="node3" class="node"><title>http://example.org/1</title>
<g id="a_node3"><a xlink:href="http://example.org/1" xlink:title="1">
<ellipse fill="#fffc87" stroke="#808080" cx="842.89" cy="-246" rx="27" ry="18"/>
<text text-anchor="middle" x="842.89" y="-242.3" font-family="Times New Roman,serif" font-size="14.00">1</text>
</a>
</g>
</g>
<!-- &#45;attrs1 -->
<g id="node4" class="node"><title>&#45;attrs1</title>
<polygon fill="none" stroke="gray" points="1017.39,-253 954.39,-253 954.39,-217 1023.39,-217 1023.39,-247 1017.39,-253"/>
<polyline fill="none" stroke="gray" points="1017.39,-253 1017.39,-247 "/>
<polyline fill="none" stroke="gray" points="1023.39,-247 1017.39,-247 "/>
<text text-anchor="start" x="964.89" y="-239" font-family="Times New Roman,serif" font-size="10.00">value:</text>
<text text-anchor="start" x="991.89" y="-239" font-family="Times New Roman,serif" font-size="10.00">1</text>
<text text-anchor="start" x="964.89" y="-226" font-family="Times New Roman,serif" font-size="10.00">type:</text>
<text text-anchor="start" x="991.89" y="-226" font-family="Times New Roman,serif" font-size="10.00">literal</text>
</g>
<!-- &#45;attrs1&#45;&gt;http://example.org/1 -->
<g id="edge2" class="edge"><title>&#45;attrs1&#45;&gt;http://example.org/1</title>
<path fill="none" stroke="gray" stroke-dasharray="5,2" d="M954.129,-237.579C928.359,-239.548 893.382,-242.219 869.795,-244.021"/>
</g>
<!-- http://example.org/sum#5 -->
<g id="node5" class="node"><title>http://example.org/sum#5</title>
<g id="a_node5"><a xlink:href="http://example.org/sum#5" xlink:title="sum#5">
<ellipse fill="#fffc87" stroke="#808080" cx="1405.58" cy="-246" rx="35.194" ry="18"/>
<text text-anchor="middle" x="1405.58" y="-242.3" font-family="Times New Roman,serif" font-size="14.00">sum#5</text>
</a>
</g>
</g>
<!-- http://example.org/disti@k#5 -->
<g id="node6" class="node"><title>http://example.org/disti@k#5</title>
<g id="a_node6"><a xlink:href="http://example.org/disti@k#5" xlink:title="disti@k#5">
<ellipse fill="#fffc87" stroke="#808080" cx="1282.99" cy="-191" rx="48.1917" ry="18"/>
<text text-anchor="middle" x="1282.99" y="-187.3" font-family="Times New Roman,serif" font-size="14.00">disti@k#5</text>
</a>
</g>
</g>
<!-- http://example.org/sum#5&#45;&gt;http://example.org/disti@k#5 -->
<g id="edge3" class="edge"><title>http://example.org/sum#5&#45;&gt;http://example.org/disti@k#5</title>
<path fill="none" stroke="black" d="M1378.71,-234.201C1362.68,-226.89 1341.77,-217.352 1323.67,-209.099"/>
<polygon fill="black" stroke="black" points="1325.06,-205.884 1314.51,-204.919 1322.15,-212.253 1325.06,-205.884"/>
<text text-anchor="middle" x="1366.5" y="-241.008" font-family="Times New Roman,serif" font-size="8.00">der</text>
</g>
<!-- http://example.org/distk@j#5 -->
<g id="node33" class="node"><title>http://example.org/distk@j#5</title>
<g id="a_node33"><a xlink:href="http://example.org/distk@j#5" xlink:title="distk@j#5">
<ellipse fill="#fffc87" stroke="#808080" cx="1282.99" cy="-307" rx="48.1917" ry="18"/>
<text text-anchor="middle" x="1282.99" y="-303.3" font-family="Times New Roman,serif" font-size="14.00">distk@j#5</text>
</a>
</g>
</g>
<!-- http://example.org/sum#5&#45;&gt;http://example.org/distk@j#5 -->
<g id="edge31" class="edge"><title>http://example.org/sum#5&#45;&gt;http://example.org/distk@j#5</title>
<path fill="none" stroke="black" d="M1379.89,-258.491C1363.07,-266.999 1340.49,-278.418 1321.47,-288.04"/>
<polygon fill="black" stroke="black" points="1319.8,-284.961 1312.46,-292.598 1322.96,-291.208 1319.8,-284.961"/>
<text text-anchor="middle" x="1379.06" y="-271.569" font-family="Times New Roman,serif" font-size="8.00">der</text>
</g>
<!-- bn3 -->
<g id="node27" class="node"><title>bn3</title>
<ellipse fill="black" stroke="black" cx="988.89" cy="-191" rx="1.8" ry="1.8"/>
</g>
<!-- http://example.org/disti@k#5&#45;&gt;bn3 -->
<g id="edge21" class="edge"><title>http://example.org/disti@k#5&#45;&gt;bn3</title>
<path fill="none" stroke="darkgreen" d="M1234.73,-191C1155.94,-191 1004.92,-191 990.935,-191"/>
<text text-anchor="middle" x="1135.39" y="-209.8" font-family="Times New Roman,serif" font-size="14.00">der ac&#45;r</text>
<text text-anchor="middle" x="1135.39" y="-194.8" font-family="Times New Roman,serif" font-size="14.00">2018&#45;03&#45;21T14:46:27.313460</text>
</g>
<!-- bn0 -->
<g id="node7" class="node"><title>bn0</title>
<ellipse fill="black" stroke="black" cx="2444.57" cy="-88" rx="1.8" ry="1.8"/>
</g>
<!-- http://example.org/result@0 -->
<g id="node9" class="node"><title>http://example.org/result@0</title>
<g id="a_node9"><a xlink:href="http://example.org/result@0" xlink:title="result@0">
<ellipse fill="#fffc87" stroke="#808080" cx="2306.58" cy="-132" rx="42.7926" ry="18"/>
<text text-anchor="middle" x="2306.58" y="-128.3" font-family="Times New Roman,serif" font-size="14.00">result@0</text>
</a>
</g>
</g>
<!-- bn0&#45;&gt;http://example.org/result@0 -->
<g id="edge5" class="edge"><title>bn0&#45;&gt;http://example.org/result@0</title>
<path fill="none" stroke="darkgreen" stroke-dasharray="5,2" d="M2442.59,-88.2149C2438.11,-89.1982 2419.24,-93.4179 2404.07,-98 2385.74,-103.539 2365.73,-110.444 2348.71,-116.582"/>
<polygon fill="darkgreen" stroke="darkgreen" points="2347.27,-113.382 2339.07,-120.091 2349.66,-119.96 2347.27,-113.382"/>
</g>
<!-- http://example.org/disti@j#7 -->
<g id="node10" class="node"><title>http://example.org/disti@j#7</title>
<g id="a_node10"><a xlink:href="http://example.org/disti@j#7" xlink:title="disti@j#7">
<ellipse fill="#fffc87" stroke="#808080" cx="2306.58" cy="-44" rx="45.4919" ry="18"/>
<text text-anchor="middle" x="2306.58" y="-40.3" font-family="Times New Roman,serif" font-size="14.00">disti@j#7</text>
</a>
</g>
</g>
<!-- bn0&#45;&gt;http://example.org/disti@j#7 -->
<g id="edge6" class="edge"><title>bn0&#45;&gt;http://example.org/disti@j#7</title>
<path fill="none" stroke="darkgreen" d="M2442.59,-87.7486C2438.12,-86.6021 2419.3,-81.7207 2404.07,-77 2386.4,-71.5228 2367.08,-65.019 2350.4,-59.239"/>
<polygon fill="darkgreen" stroke="darkgreen" points="2351.51,-55.9198 2340.92,-55.9328 2349.21,-62.5296 2351.51,-55.9198"/>
<text text-anchor="middle" x="2378.07" y="-75.8" font-family="Times New Roman,serif" font-size="14.00">[2]</text>
</g>
<!-- http://example.org/result@0@2 -->
<g id="node8" class="node"><title>http://example.org/result@0@2</title>
<g id="a_node8"><a xlink:href="http://example.org/result@0@2" xlink:title="result@0@2">
<ellipse fill="#fffc87" stroke="#808080" cx="2739.97" cy="-88" rx="55.7903" ry="18"/>
<text text-anchor="middle" x="2739.97" y="-84.3" font-family="Times New Roman,serif" font-size="14.00">result@0@2</text>
</a>
</g>
</g>
<!-- http://example.org/result@0@2&#45;&gt;bn0 -->
<g id="edge4" class="edge"><title>http://example.org/result@0@2&#45;&gt;bn0</title>
<path fill="none" stroke="darkgreen" d="M2683.78,-88C2602.78,-88 2459.79,-88 2446.56,-88"/>
<text text-anchor="middle" x="2584.57" y="-106.8" font-family="Times New Roman,serif" font-size="14.00">der ac&#45;r</text>
<text text-anchor="middle" x="2584.57" y="-91.8" font-family="Times New Roman,serif" font-size="14.00">2018&#45;03&#45;21T14:46:35.261174</text>
</g>
<!-- bn1 -->
<g id="node19" class="node"><title>bn1</title>
<ellipse fill="black" stroke="black" cx="1970.08" cy="-132" rx="1.8" ry="1.8"/>
</g>
<!-- http://example.org/result@0&#45;&gt;bn1 -->
<g id="edge12" class="edge"><title>http://example.org/result@0&#45;&gt;bn1</title>
<path fill="none" stroke="darkgreen" d="M2263.55,-132C2177.22,-132 1986.74,-132 1971.99,-132"/>
<text text-anchor="middle" x="2161.58" y="-150.8" font-family="Times New Roman,serif" font-size="14.00">der ac&#45;r</text>
<text text-anchor="middle" x="2161.58" y="-135.8" font-family="Times New Roman,serif" font-size="14.00">2018&#45;03&#45;21T14:46:35.260673</text>
</g>
<!-- bn6 -->
<g id="node39" class="node"><title>bn6</title>
<ellipse fill="black" stroke="black" cx="1970.08" cy="-43" rx="1.8" ry="1.8"/>
</g>
<!-- http://example.org/disti@j#7&#45;&gt;bn6 -->
<g id="edge39" class="edge"><title>http://example.org/disti@j#7&#45;&gt;bn6</title>
<path fill="none" stroke="darkgreen" d="M2260.81,-43.8662C2173.23,-43.6043 1986.43,-43.0459 1971.97,-43.0027"/>
<text text-anchor="middle" x="2161.58" y="-62.8" font-family="Times New Roman,serif" font-size="14.00">der ac&#45;w</text>
<text text-anchor="middle" x="2161.58" y="-47.8" font-family="Times New Roman,serif" font-size="14.00">2018&#45;03&#45;21T14:46:27.698985</text>
</g>
<!-- http://example.org/dist -->
<g id="node11" class="node"><title>http://example.org/dist</title>
<g id="a_node11"><a xlink:href="http://example.org/dist" xlink:title="dist">
<ellipse fill="#fffc87" stroke="#808080" cx="27" cy="-185" rx="27" ry="18"/>
<text text-anchor="middle" x="27" y="-181.3" font-family="Times New Roman,serif" font-size="14.00">dist</text>
</a>
</g>
</g>
<!-- &#45;attrs2 -->
<g id="node12" class="node"><title>&#45;attrs2</title>
<polygon fill="none" stroke="gray" points="284,-209.5 106,-209.5 106,-160.5 290,-160.5 290,-203.5 284,-209.5"/>
<polyline fill="none" stroke="gray" points="284,-209.5 284,-203.5 "/>
<polyline fill="none" stroke="gray" points="290,-203.5 284,-203.5 "/>
<text text-anchor="start" x="116" y="-195" font-family="Times New Roman,serif" font-size="10.00">value:</text>
<text text-anchor="start" x="143" y="-195" font-family="Times New Roman,serif" font-size="10.00">[[0, 1, 4], [10000, 0, 2], [2, 10000, 0]]</text>
<text text-anchor="start" x="116" y="-182" font-family="Times New Roman,serif" font-size="10.00">type:</text>
<text text-anchor="start" x="143" y="-182" font-family="Times New Roman,serif" font-size="10.00">name</text>
<text text-anchor="start" x="116" y="-169" font-family="Times New Roman,serif" font-size="10.00">label:</text>
<text text-anchor="start" x="143" y="-169" font-family="Times New Roman,serif" font-size="10.00">dist</text>
</g>
<!-- &#45;attrs2&#45;&gt;http://example.org/dist -->
<g id="edge7" class="edge"><title>&#45;attrs2&#45;&gt;http://example.org/dist</title>
<path fill="none" stroke="gray" stroke-dasharray="5,2" d="M105.575,-185C86.7541,-185 68.3942,-185 54.2642,-185"/>
</g>
<!-- http://example.org/2 -->
<g id="node13" class="node"><title>http://example.org/2</title>
<g id="a_node13"><a xlink:href="http://example.org/2" xlink:title="2">
<ellipse fill="#fffc87" stroke="#808080" cx="842.89" cy="-300" rx="27" ry="18"/>
<text text-anchor="middle" x="842.89" y="-296.3" font-family="Times New Roman,serif" font-size="14.00">2</text>
</a>
</g>
</g>
<!-- &#45;attrs3 -->
<g id="node14" class="node"><title>&#45;attrs3</title>
<polygon fill="none" stroke="gray" points="1017.39,-307 954.39,-307 954.39,-271 1023.39,-271 1023.39,-301 1017.39,-307"/>
<polyline fill="none" stroke="gray" points="1017.39,-307 1017.39,-301 "/>
<polyline fill="none" stroke="gray" points="1023.39,-301 1017.39,-301 "/>
<text text-anchor="start" x="964.89" y="-293" font-family="Times New Roman,serif" font-size="10.00">value:</text>
<text text-anchor="start" x="991.89" y="-293" font-family="Times New Roman,serif" font-size="10.00">2</text>
<text text-anchor="start" x="964.89" y="-280" font-family="Times New Roman,serif" font-size="10.00">type:</text>
<text text-anchor="start" x="991.89" y="-280" font-family="Times New Roman,serif" font-size="10.00">literal</text>
</g>
<!-- &#45;attrs3&#45;&gt;http://example.org/2 -->
<g id="edge8" class="edge"><title>&#45;attrs3&#45;&gt;http://example.org/2</title>
<path fill="none" stroke="gray" stroke-dasharray="5,2" d="M954.129,-291.579C928.359,-293.548 893.382,-296.219 869.795,-298.021"/>
</g>
<!-- &#45;attrs4 -->
<g id="node15" class="node"><title>&#45;attrs4</title>
<polygon fill="none" stroke="gray" points="2476.07,-68.5 2407.07,-68.5 2407.07,-19.5 2482.07,-19.5 2482.07,-62.5 2476.07,-68.5"/>
<polyline fill="none" stroke="gray" points="2476.07,-68.5 2476.07,-62.5 "/>
<polyline fill="none" stroke="gray" points="2482.07,-62.5 2476.07,-62.5 "/>
<text text-anchor="start" x="2417.57" y="-54" font-family="Times New Roman,serif" font-size="10.00">value:</text>
<text text-anchor="start" x="2444.57" y="-54" font-family="Times New Roman,serif" font-size="10.00">3</text>
<text text-anchor="start" x="2417.57" y="-41" font-family="Times New Roman,serif" font-size="10.00">type:</text>
<text text-anchor="start" x="2444.57" y="-41" font-family="Times New Roman,serif" font-size="10.00">access</text>
<text text-anchor="start" x="2417.57" y="-28" font-family="Times New Roman,serif" font-size="10.00">label:</text>
<text text-anchor="start" x="2444.57" y="-28" font-family="Times New Roman,serif" font-size="10.00">disti[j]</text>
</g>
<!-- &#45;attrs4&#45;&gt;http://example.org/disti@j#7 -->
<g id="edge9" class="edge"><title>&#45;attrs4&#45;&gt;http://example.org/disti@j#7</title>
<path fill="none" stroke="gray" stroke-dasharray="5,2" d="M2406.77,-44C2389.94,-44 2369.85,-44 2352.16,-44"/>
</g>
<!-- http://example.org/disti#4 -->
<g id="node16" class="node"><title>http://example.org/disti#4</title>
<g id="a_node16"><a xlink:href="http://example.org/disti#4" xlink:title="disti#4">
<ellipse fill="#fffc87" stroke="#808080" cx="842.89" cy="-18" rx="35.194" ry="18"/>
<text text-anchor="middle" x="842.89" y="-14.3" font-family="Times New Roman,serif" font-size="14.00">disti#4</text>
</a>
</g>
</g>
<!-- http://example.org/dist@i#4 -->
<g id="node17" class="node"><title>http://example.org/dist@i#4</title>
<g id="a_node17"><a xlink:href="http://example.org/dist@i#4" xlink:title="dist@i#4">
<ellipse fill="#fffc87" stroke="#808080" cx="542.945" cy="-79" rx="43.5923" ry="18"/>
<text text-anchor="middle" x="542.945" y="-75.3" font-family="Times New Roman,serif" font-size="14.00">dist@i#4</text>
</a>
</g>
</g>
<!-- http://example.org/disti#4&#45;&gt;http://example.org/dist@i#4 -->
<g id="edge10" class="edge"><title>http://example.org/disti#4&#45;&gt;http://example.org/dist@i#4</title>
<path fill="none" stroke="darkgreen" d="M807.74,-18.5943C762.708,-20.1567 681.397,-25.6851 614.89,-45 602.491,-48.6009 589.576,-54.1786 578.215,-59.782"/>
<polygon fill="darkgreen" stroke="darkgreen" points="576.394,-56.7825 569.084,-64.4522 579.581,-63.0147 576.394,-56.7825"/>
<text text-anchor="middle" x="696.39" y="-63.8" font-family="Times New Roman,serif" font-size="14.00">der ref</text>
<text text-anchor="middle" x="696.39" y="-48.8" font-family="Times New Roman,serif" font-size="14.00">2018&#45;03&#45;21T14:46:26.697322</text>
</g>
<!-- bn4 -->
<g id="node32" class="node"><title>bn4</title>
<ellipse fill="black" stroke="black" cx="198" cy="-83" rx="1.8" ry="1.8"/>
</g>
<!-- http://example.org/dist@i#4&#45;&gt;bn4 -->
<g id="edge28" class="edge"><title>http://example.org/dist@i#4&#45;&gt;bn4</title>
<path fill="none" stroke="darkgreen" d="M499.204,-79.4985C410.863,-80.5289 215.094,-82.8123 199.934,-82.9891"/>
<text text-anchor="middle" x="389.5" y="-100.8" font-family="Times New Roman,serif" font-size="14.00">der ac&#45;r</text>
<text text-anchor="middle" x="389.5" y="-85.8" font-family="Times New Roman,serif" font-size="14.00">2018&#45;03&#45;21T14:46:26.697322</text>
</g>
<!-- &#45;attrs5 -->
<g id="node18" class="node"><title>&#45;attrs5</title>
<polygon fill="none" stroke="gray" points="2917.86,-112.5 2832.86,-112.5 2832.86,-63.5 2923.86,-63.5 2923.86,-106.5 2917.86,-112.5"/>
<polyline fill="none" stroke="gray" points="2917.86,-112.5 2917.86,-106.5 "/>
<polyline fill="none" stroke="gray" points="2923.86,-106.5 2917.86,-106.5 "/>
<text text-anchor="start" x="2843.36" y="-98" font-family="Times New Roman,serif" font-size="10.00">value:</text>
<text text-anchor="start" x="2870.36" y="-98" font-family="Times New Roman,serif" font-size="10.00">3</text>
<text text-anchor="start" x="2843.36" y="-85" font-family="Times New Roman,serif" font-size="10.00">type:</text>
<text text-anchor="start" x="2870.36" y="-85" font-family="Times New Roman,serif" font-size="10.00">access</text>
<text text-anchor="start" x="2843.36" y="-72" font-family="Times New Roman,serif" font-size="10.00">label:</text>
<text text-anchor="start" x="2870.36" y="-72" font-family="Times New Roman,serif" font-size="10.00">result[0][2]</text>
</g>
<!-- &#45;attrs5&#45;&gt;http://example.org/result@0@2 -->
<g id="edge11" class="edge"><title>&#45;attrs5&#45;&gt;http://example.org/result@0@2</title>
<path fill="none" stroke="gray" stroke-dasharray="5,2" d="M2832.7,-88C2821.05,-88 2808.35,-88 2796.22,-88"/>
</g>
<!-- http://example.org/result -->
<g id="node20" class="node"><title>http://example.org/result</title>
<g id="a_node20"><a xlink:href="http://example.org/result" xlink:title="result">
<ellipse fill="#fffc87" stroke="#808080" cx="1734.08" cy="-307" rx="30.5947" ry="18"/>
<text text-anchor="middle" x="1734.08" y="-303.3" font-family="Times New Roman,serif" font-size="14.00">result</text>
</a>
</g>
</g>
<!-- bn1&#45;&gt;http://example.org/result -->
<g id="edge13" class="edge"><title>bn1&#45;&gt;http://example.org/result</title>
<path fill="none" stroke="darkgreen" stroke-dasharray="5,2" d="M1968.33,-133.128C1960.88,-144.228 1898.98,-234.42 1826.08,-279 1810.2,-288.712 1790.68,-295.298 1773.8,-299.629"/>
<polygon fill="darkgreen" stroke="darkgreen" points="1772.59,-296.317 1763.68,-302.042 1774.22,-303.126 1772.59,-296.317"/>
</g>
<!-- http://example.org/list0 -->
<g id="node21" class="node"><title>http://example.org/list0</title>
<g id="a_node21"><a xlink:href="http://example.org/list0" xlink:title="list0">
<ellipse fill="#fffc87" stroke="#808080" cx="27" cy="-77" rx="27" ry="18"/>
<text text-anchor="middle" x="27" y="-73.3" font-family="Times New Roman,serif" font-size="14.00">list0</text>
</a>
</g>
</g>
<!-- bn1&#45;&gt;http://example.org/list0 -->
<g id="edge14" class="edge"><title>bn1&#45;&gt;http://example.org/list0</title>
<path fill="none" stroke="darkgreen" d="M1968.24,-132C1956.95,-132 1834.21,-132 1735.08,-132 1735.08,-132 1735.08,-132 197,-132 146.03,-132 90.4696,-109.098 57.4669,-92.8512"/>
<polygon fill="darkgreen" stroke="darkgreen" points="58.8833,-89.6456 48.3791,-88.2628 55.7283,-95.8943 58.8833,-89.6456"/>
<text text-anchor="middle" x="988.89" y="-135.8" font-family="Times New Roman,serif" font-size="14.00">[0]</text>
</g>
<!-- http://example.org/list#2 -->
<g id="node31" class="node"><title>http://example.org/list#2</title>
<g id="a_node31"><a xlink:href="http://example.org/list#2" xlink:title="list#2">
<ellipse fill="#fffc87" stroke="#808080" cx="1405.58" cy="-368" rx="30.5947" ry="18"/>
<text text-anchor="middle" x="1405.58" y="-364.3" font-family="Times New Roman,serif" font-size="14.00">list#2</text>
</a>
</g>
</g>
<!-- http://example.org/result&#45;&gt;http://example.org/list#2 -->
<g id="edge27" class="edge"><title>http://example.org/result&#45;&gt;http://example.org/list#2</title>
<path fill="none" stroke="darkgreen" d="M1703.58,-305.613C1652.64,-304.154 1545.53,-305.229 1461.08,-334 1451.37,-337.31 1441.59,-342.634 1433.06,-348.096"/>
<polygon fill="darkgreen" stroke="darkgreen" points="1431,-345.265 1424.67,-353.76 1434.91,-351.066 1431,-345.265"/>
<text text-anchor="middle" x="1542.58" y="-352.8" font-family="Times New Roman,serif" font-size="14.00">der ref</text>
<text text-anchor="middle" x="1542.58" y="-337.8" font-family="Times New Roman,serif" font-size="14.00">2018&#45;03&#45;21T14:46:20.758492</text>
</g>
<!-- &#45;attrs6 -->
<g id="node22" class="node"><title>&#45;attrs6</title>
<polygon fill="none" stroke="gray" points="2056.08,-331.5 1878.08,-331.5 1878.08,-282.5 2062.08,-282.5 2062.08,-325.5 2056.08,-331.5"/>
<polyline fill="none" stroke="gray" points="2056.08,-331.5 2056.08,-325.5 "/>
<polyline fill="none" stroke="gray" points="2062.08,-325.5 2056.08,-325.5 "/>
<text text-anchor="start" x="1888.08" y="-317" font-family="Times New Roman,serif" font-size="10.00">value:</text>
<text text-anchor="start" x="1915.08" y="-317" font-family="Times New Roman,serif" font-size="10.00">[[0, 1, 4], [10000, 0, 2], [2, 10000, 0]]</text>
<text text-anchor="start" x="1888.08" y="-304" font-family="Times New Roman,serif" font-size="10.00">type:</text>
<text text-anchor="start" x="1915.08" y="-304" font-family="Times New Roman,serif" font-size="10.00">name</text>
<text text-anchor="start" x="1888.08" y="-291" font-family="Times New Roman,serif" font-size="10.00">label:</text>
<text text-anchor="start" x="1915.08" y="-291" font-family="Times New Roman,serif" font-size="10.00">result</text>
</g>
<!-- &#45;attrs6&#45;&gt;http://example.org/result -->
<g id="edge15" class="edge"><title>&#45;attrs6&#45;&gt;http://example.org/result</title>
<path fill="none" stroke="gray" stroke-dasharray="5,2" d="M1877.94,-307C1837.78,-307 1793.33,-307 1764.85,-307"/>
</g>
<!-- bn2 -->
<g id="node23" class="node"><title>bn2</title>
<ellipse fill="black" stroke="black" cx="198" cy="-229" rx="1.8" ry="1.8"/>
</g>
<!-- bn2&#45;&gt;http://example.org/list1 -->
<g id="edge18" class="edge"><title>bn2&#45;&gt;http://example.org/list1</title>
<path fill="none" stroke="darkgreen" d="M196.195,-229.03C188.252,-229.34 123.111,-232.193 72,-244 68.3486,-244.844 64.5634,-245.846 60.8151,-246.921"/>
<polygon fill="darkgreen" stroke="darkgreen" points="59.6452,-243.618 51.0966,-249.877 61.6824,-250.315 59.6452,-243.618"/>
<text text-anchor="middle" x="80" y="-247.8" font-family="Times New Roman,serif" font-size="14.00">[1]</text>
</g>
<!-- bn2&#45;&gt;http://example.org/dist -->
<g id="edge17" class="edge"><title>bn2&#45;&gt;http://example.org/dist</title>
<path fill="none" stroke="darkgreen" stroke-dasharray="5,2" d="M196.085,-228.986C189.007,-228.858 142.291,-227.665 106,-218 89.7223,-213.665 72.3928,-206.601 58.2128,-200.119"/>
<polygon fill="darkgreen" stroke="darkgreen" points="59.4895,-196.852 48.9506,-195.765 56.5115,-203.187 59.4895,-196.852"/>
</g>
<!-- http://example.org/dist@k@#2 -->
<g id="node24" class="node"><title>http://example.org/dist@k@#2</title>
<g id="a_node24"><a xlink:href="http://example.org/dist@k@#2" xlink:title="dist@k@#2">
<ellipse fill="#fffc87" stroke="#808080" cx="542.945" cy="-229" rx="53.8905" ry="18"/>
<text text-anchor="middle" x="542.945" y="-225.3" font-family="Times New Roman,serif" font-size="14.00">dist@k@#2</text>
</a>
</g>
</g>
<!-- http://example.org/dist@k@#2&#45;&gt;bn2 -->
<g id="edge16" class="edge"><title>http://example.org/dist@k@#2&#45;&gt;bn2</title>
<path fill="none" stroke="darkgreen" d="M488.736,-229C396.172,-229 213.962,-229 199.868,-229"/>
<text text-anchor="middle" x="389.5" y="-247.8" font-family="Times New Roman,serif" font-size="14.00">der ac&#45;r</text>
<text text-anchor="middle" x="389.5" y="-232.8" font-family="Times New Roman,serif" font-size="14.00">2018&#45;03&#45;21T14:46:26.110762</text>
</g>
<!-- http://example.org/distk#2 -->
<g id="node25" class="node"><title>http://example.org/distk#2</title>
<g id="a_node25"><a xlink:href="http://example.org/distk#2" xlink:title="distk#2">
<ellipse fill="#fffc87" stroke="#808080" cx="842.89" cy="-354" rx="37.8943" ry="18"/>
<text text-anchor="middle" x="842.89" y="-350.3" font-family="Times New Roman,serif" font-size="14.00">distk#2</text>
</a>
</g>
</g>
<!-- http://example.org/distk#2&#45;&gt;http://example.org/dist@k@#2 -->
<g id="edge19" class="edge"><title>http://example.org/distk#2&#45;&gt;http://example.org/dist@k@#2</title>
<path fill="none" stroke="darkgreen" d="M814.128,-342.353C761.883,-320.434 648.641,-272.924 586.64,-246.912"/>
<polygon fill="darkgreen" stroke="darkgreen" points="587.722,-243.571 577.147,-242.929 585.014,-250.026 587.722,-243.571"/>
<text text-anchor="middle" x="696.39" y="-345.8" font-family="Times New Roman,serif" font-size="14.00">der ref</text>
<text text-anchor="middle" x="696.39" y="-330.8" font-family="Times New Roman,serif" font-size="14.00">2018&#45;03&#45;21T14:46:26.111264</text>
</g>
<!-- &#45;attrs7 -->
<g id="node26" class="node"><title>&#45;attrs7</title>
<polygon fill="none" stroke="gray" points="883.89,-209.5 795.89,-209.5 795.89,-160.5 889.89,-160.5 889.89,-203.5 883.89,-209.5"/>
<polyline fill="none" stroke="gray" points="883.89,-209.5 883.89,-203.5 "/>
<polyline fill="none" stroke="gray" points="889.89,-203.5 883.89,-203.5 "/>
<text text-anchor="start" x="805.89" y="-195" font-family="Times New Roman,serif" font-size="10.00">value:</text>
<text text-anchor="start" x="832.89" y="-195" font-family="Times New Roman,serif" font-size="10.00">[10000, 0, 2]</text>
<text text-anchor="start" x="805.89" y="-182" font-family="Times New Roman,serif" font-size="10.00">type:</text>
<text text-anchor="start" x="832.89" y="-182" font-family="Times New Roman,serif" font-size="10.00">access</text>
<text text-anchor="start" x="805.89" y="-169" font-family="Times New Roman,serif" font-size="10.00">label:</text>
<text text-anchor="start" x="832.89" y="-169" font-family="Times New Roman,serif" font-size="10.00">dist[k]</text>
</g>
<!-- &#45;attrs7&#45;&gt;http://example.org/dist@k@#2 -->
<g id="edge20" class="edge"><title>&#45;attrs7&#45;&gt;http://example.org/dist@k@#2</title>
<path fill="none" stroke="gray" stroke-dasharray="5,2" d="M795.663,-191.827C740.58,-199.961 648.957,-213.492 592.758,-221.791"/>
</g>
<!-- bn3&#45;&gt;http://example.org/1 -->
<g id="edge23" class="edge"><title>bn3&#45;&gt;http://example.org/1</title>
<path fill="none" stroke="darkgreen" d="M986.75,-191.414C981.568,-193.296 959.726,-201.247 941.89,-208 919.801,-216.364 894.996,-225.984 875.868,-233.453"/>
<polygon fill="darkgreen" stroke="darkgreen" points="874.466,-230.243 866.427,-237.144 877.015,-236.762 874.466,-230.243"/>
<text text-anchor="middle" x="915.89" y="-224.8" font-family="Times New Roman,serif" font-size="14.00">[1]</text>
</g>
<!-- bn3&#45;&gt;http://example.org/disti#4 -->
<g id="edge22" class="edge"><title>bn3&#45;&gt;http://example.org/disti#4</title>
<path fill="none" stroke="darkgreen" stroke-dasharray="5,2" d="M987.148,-190.524C982.476,-187.501 956.858,-170.463 941.89,-151 909.902,-109.403 925.584,-83.4648 889.89,-45 886.524,-41.3727 882.559,-38.0833 878.392,-35.1488"/>
<polygon fill="darkgreen" stroke="darkgreen" points="880.001,-32.025 869.681,-29.629 876.255,-37.9379 880.001,-32.025"/>
</g>
<!-- &#45;attrs8 -->
<g id="node28" class="node"><title>&#45;attrs8</title>
<polygon fill="none" stroke="gray" points="1020.89,-95.5 950.89,-95.5 950.89,-46.5 1026.89,-46.5 1026.89,-89.5 1020.89,-95.5"/>
<polyline fill="none" stroke="gray" points="1020.89,-95.5 1020.89,-89.5 "/>
<polyline fill="none" stroke="gray" points="1026.89,-89.5 1020.89,-89.5 "/>
<text text-anchor="start" x="960.89" y="-81" font-family="Times New Roman,serif" font-size="10.00">value:</text>
<text text-anchor="start" x="987.89" y="-81" font-family="Times New Roman,serif" font-size="10.00">[0, 1, 4]</text>
<text text-anchor="start" x="960.89" y="-68" font-family="Times New Roman,serif" font-size="10.00">type:</text>
<text text-anchor="start" x="987.89" y="-68" font-family="Times New Roman,serif" font-size="10.00">name</text>
<text text-anchor="start" x="960.89" y="-55" font-family="Times New Roman,serif" font-size="10.00">label:</text>
<text text-anchor="start" x="987.89" y="-55" font-family="Times New Roman,serif" font-size="10.00">disti</text>
</g>
<!-- &#45;attrs8&#45;&gt;http://example.org/disti#4 -->
<g id="edge24" class="edge"><title>&#45;attrs8&#45;&gt;http://example.org/disti#4</title>
<path fill="none" stroke="gray" stroke-dasharray="5,2" d="M950.807,-57.3512C926.14,-48.2726 894.26,-36.5388 871.751,-28.2543"/>
</g>
<!-- http://example.org/ikj#5 -->
<g id="node29" class="node"><title>http://example.org/ikj#5</title>
<g id="a_node29"><a xlink:href="http://example.org/ikj#5" xlink:title="ikj#5">
<ellipse fill="#fffc87" stroke="#808080" cx="1734.08" cy="-86" rx="28.6953" ry="18"/>
<text text-anchor="middle" x="1734.08" y="-82.3" font-family="Times New Roman,serif" font-size="14.00">ikj#5</text>
</a>
</g>
</g>
<!-- http://example.org/ikj#5&#45;&gt;http://example.org/sum#5 -->
<g id="edge25" class="edge"><title>http://example.org/ikj#5&#45;&gt;http://example.org/sum#5</title>
<path fill="none" stroke="darkgreen" d="M1709.68,-95.6756C1662.01,-115.64 1550.57,-163.598 1461.08,-212 1452.89,-216.433 1444.23,-221.594 1436.3,-226.536"/>
<polygon fill="darkgreen" stroke="darkgreen" points="1434.28,-223.668 1427.7,-231.972 1438.03,-229.584 1434.28,-223.668"/>
<text text-anchor="middle" x="1542.58" y="-230.8" font-family="Times New Roman,serif" font-size="14.00">der ref</text>
<text text-anchor="middle" x="1542.58" y="-215.8" font-family="Times New Roman,serif" font-size="14.00">2018&#45;03&#45;21T14:46:27.314463</text>
</g>
<!-- &#45;attrs9 -->
<g id="node30" class="node"><title>&#45;attrs9</title>
<polygon fill="none" stroke="gray" points="1784.58,-270.5 1677.58,-270.5 1677.58,-221.5 1790.58,-221.5 1790.58,-264.5 1784.58,-270.5"/>
<polyline fill="none" stroke="gray" points="1784.58,-270.5 1784.58,-264.5 "/>
<polyline fill="none" stroke="gray" points="1790.58,-264.5 1784.58,-264.5 "/>
<text text-anchor="start" x="1688.08" y="-256" font-family="Times New Roman,serif" font-size="10.00">value:</text>
<text text-anchor="start" x="1715.08" y="-256" font-family="Times New Roman,serif" font-size="10.00">3</text>
<text text-anchor="start" x="1688.08" y="-243" font-family="Times New Roman,serif" font-size="10.00">type:</text>
<text text-anchor="start" x="1715.08" y="-243" font-family="Times New Roman,serif" font-size="10.00">operation</text>
<text text-anchor="start" x="1688.08" y="-230" font-family="Times New Roman,serif" font-size="10.00">label:</text>
<text text-anchor="start" x="1715.08" y="-230" font-family="Times New Roman,serif" font-size="10.00">disti[k] + distk[j]</text>
</g>
<!-- &#45;attrs9&#45;&gt;http://example.org/sum#5 -->
<g id="edge26" class="edge"><title>&#45;attrs9&#45;&gt;http://example.org/sum#5</title>
<path fill="none" stroke="gray" stroke-dasharray="5,2" d="M1677.33,-246C1609.57,-246 1497.35,-246 1441.04,-246"/>
</g>
<!-- bn4&#45;&gt;http://example.org/dist -->
<g id="edge29" class="edge"><title>bn4&#45;&gt;http://example.org/dist</title>
<path fill="none" stroke="darkgreen" stroke-dasharray="5,2" d="M196.247,-83.4548C187.358,-88.8195 102,-140.337 56.4004,-167.859"/>
<polygon fill="darkgreen" stroke="darkgreen" points="54.3329,-165.019 47.58,-173.182 57.95,-171.012 54.3329,-165.019"/>
</g>
<!-- bn4&#45;&gt;http://example.org/list0 -->
<g id="edge30" class="edge"><title>bn4&#45;&gt;http://example.org/list0</title>
<path fill="none" stroke="darkgreen" d="M195.926,-82.9388C187.616,-82.4675 132.685,-79.397 88,-78 80.4115,-77.7628 72.2813,-77.5796 64.5327,-77.4388"/>
<polygon fill="darkgreen" stroke="darkgreen" points="64.3453,-73.9354 54.2896,-77.2722 64.2313,-80.9345 64.3453,-73.9354"/>
<text text-anchor="middle" x="80" y="-81.8" font-family="Times New Roman,serif" font-size="14.00">[0]</text>
</g>
<!-- bn5 -->
<g id="node37" class="node"><title>bn5</title>
<ellipse fill="black" stroke="black" cx="988.89" cy="-327" rx="1.8" ry="1.8"/>
</g>
<!-- http://example.org/distk@j#5&#45;&gt;bn5 -->
<g id="edge35" class="edge"><title>http://example.org/distk@j#5&#45;&gt;bn5</title>
<path fill="none" stroke="darkgreen" d="M1235.38,-310.191C1156.78,-315.573 1005,-325.966 990.94,-326.928"/>
<text text-anchor="middle" x="1135.39" y="-341.8" font-family="Times New Roman,serif" font-size="14.00">der ac&#45;r</text>
<text text-anchor="middle" x="1135.39" y="-326.8" font-family="Times New Roman,serif" font-size="14.00">2018&#45;03&#45;21T14:46:27.313962</text>
</g>
<!-- &#45;attrs10 -->
<g id="node34" class="node"><title>&#45;attrs10</title>
<polygon fill="none" stroke="gray" points="1437.08,-209.5 1368.08,-209.5 1368.08,-160.5 1443.08,-160.5 1443.08,-203.5 1437.08,-209.5"/>
<polyline fill="none" stroke="gray" points="1437.08,-209.5 1437.08,-203.5 "/>
<polyline fill="none" stroke="gray" points="1443.08,-203.5 1437.08,-203.5 "/>
<text text-anchor="start" x="1378.58" y="-195" font-family="Times New Roman,serif" font-size="10.00">value:</text>
<text text-anchor="start" x="1405.58" y="-195" font-family="Times New Roman,serif" font-size="10.00">1</text>
<text text-anchor="start" x="1378.58" y="-182" font-family="Times New Roman,serif" font-size="10.00">type:</text>
<text text-anchor="start" x="1405.58" y="-182" font-family="Times New Roman,serif" font-size="10.00">access</text>
<text text-anchor="start" x="1378.58" y="-169" font-family="Times New Roman,serif" font-size="10.00">label:</text>
<text text-anchor="start" x="1405.58" y="-169" font-family="Times New Roman,serif" font-size="10.00">disti[k]</text>
</g>
<!-- &#45;attrs10&#45;&gt;http://example.org/disti@k#5 -->
<g id="edge32" class="edge"><title>&#45;attrs10&#45;&gt;http://example.org/disti@k#5</title>
<path fill="none" stroke="gray" stroke-dasharray="5,2" d="M1368.07,-186.816C1356.43,-187.396 1343.37,-188.046 1331.08,-188.657"/>
</g>
<!-- &#45;attrs11 -->
<g id="node35" class="node"><title>&#45;attrs11</title>
<polygon fill="none" stroke="gray" points="1029.89,-401.5 941.89,-401.5 941.89,-352.5 1035.89,-352.5 1035.89,-395.5 1029.89,-401.5"/>
<polyline fill="none" stroke="gray" points="1029.89,-401.5 1029.89,-395.5 "/>
<polyline fill="none" stroke="gray" points="1035.89,-395.5 1029.89,-395.5 "/>
<text text-anchor="start" x="951.89" y="-387" font-family="Times New Roman,serif" font-size="10.00">value:</text>
<text text-anchor="start" x="978.89" y="-387" font-family="Times New Roman,serif" font-size="10.00">[10000, 0, 2]</text>
<text text-anchor="start" x="951.89" y="-374" font-family="Times New Roman,serif" font-size="10.00">type:</text>
<text text-anchor="start" x="978.89" y="-374" font-family="Times New Roman,serif" font-size="10.00">name</text>
<text text-anchor="start" x="951.89" y="-361" font-family="Times New Roman,serif" font-size="10.00">label:</text>
<text text-anchor="start" x="978.89" y="-361" font-family="Times New Roman,serif" font-size="10.00">distk</text>
</g>
<!-- &#45;attrs11&#45;&gt;http://example.org/distk#2 -->
<g id="edge33" class="edge"><title>&#45;attrs11&#45;&gt;http://example.org/distk#2</title>
<path fill="none" stroke="gray" stroke-dasharray="5,2" d="M941.535,-369.596C921.31,-366.366 897.978,-362.639 879.195,-359.639"/>
</g>
<!-- &#45;attrs12 -->
<g id="node36" class="node"><title>&#45;attrs12</title>
<polygon fill="none" stroke="gray" points="1437.08,-331.5 1368.08,-331.5 1368.08,-282.5 1443.08,-282.5 1443.08,-325.5 1437.08,-331.5"/>
<polyline fill="none" stroke="gray" points="1437.08,-331.5 1437.08,-325.5 "/>
<polyline fill="none" stroke="gray" points="1443.08,-325.5 1437.08,-325.5 "/>
<text text-anchor="start" x="1378.58" y="-317" font-family="Times New Roman,serif" font-size="10.00">value:</text>
<text text-anchor="start" x="1405.58" y="-317" font-family="Times New Roman,serif" font-size="10.00">2</text>
<text text-anchor="start" x="1378.58" y="-304" font-family="Times New Roman,serif" font-size="10.00">type:</text>
<text text-anchor="start" x="1405.58" y="-304" font-family="Times New Roman,serif" font-size="10.00">access</text>
<text text-anchor="start" x="1378.58" y="-291" font-family="Times New Roman,serif" font-size="10.00">label:</text>
<text text-anchor="start" x="1405.58" y="-291" font-family="Times New Roman,serif" font-size="10.00">distk[j]</text>
</g>
<!-- &#45;attrs12&#45;&gt;http://example.org/distk@j#5 -->
<g id="edge34" class="edge"><title>&#45;attrs12&#45;&gt;http://example.org/distk@j#5</title>
<path fill="none" stroke="gray" stroke-dasharray="5,2" d="M1368.07,-307C1356.56,-307 1343.68,-307 1331.52,-307"/>
</g>
<!-- bn5&#45;&gt;http://example.org/2 -->
<g id="edge37" class="edge"><title>bn5&#45;&gt;http://example.org/2</title>
<path fill="none" stroke="darkgreen" d="M986.971,-326.828C978.84,-325.303 918.599,-314.008 878.918,-306.568"/>
<polygon fill="darkgreen" stroke="darkgreen" points="879.545,-303.124 869.071,-304.721 878.255,-310.004 879.545,-303.124"/>
<text text-anchor="middle" x="915.89" y="-318.8" font-family="Times New Roman,serif" font-size="14.00">[2]</text>
</g>
<!-- bn5&#45;&gt;http://example.org/distk#2 -->
<g id="edge36" class="edge"><title>bn5&#45;&gt;http://example.org/distk#2</title>
<path fill="none" stroke="darkgreen" stroke-dasharray="5,2" d="M986.971,-327.172C979.457,-328.581 927.441,-338.334 888.274,-345.678"/>
<polygon fill="darkgreen" stroke="darkgreen" points="887.56,-342.251 878.376,-347.534 888.85,-349.131 887.56,-342.251"/>
</g>
<!-- &#45;attrs13 -->
<g id="node38" class="node"><title>&#45;attrs13</title>
<polygon fill="none" stroke="gray" points="1998.58,-111.5 1935.58,-111.5 1935.58,-62.5 2004.58,-62.5 2004.58,-105.5 1998.58,-111.5"/>
<polyline fill="none" stroke="gray" points="1998.58,-111.5 1998.58,-105.5 "/>
<polyline fill="none" stroke="gray" points="2004.58,-105.5 1998.58,-105.5 "/>
<text text-anchor="start" x="1946.08" y="-97" font-family="Times New Roman,serif" font-size="10.00">value:</text>
<text text-anchor="start" x="1973.08" y="-97" font-family="Times New Roman,serif" font-size="10.00">3</text>
<text text-anchor="start" x="1946.08" y="-84" font-family="Times New Roman,serif" font-size="10.00">type:</text>
<text text-anchor="start" x="1973.08" y="-84" font-family="Times New Roman,serif" font-size="10.00">name</text>
<text text-anchor="start" x="1946.08" y="-71" font-family="Times New Roman,serif" font-size="10.00">label:</text>
<text text-anchor="start" x="1973.08" y="-71" font-family="Times New Roman,serif" font-size="10.00">ikj</text>
</g>
<!-- &#45;attrs13&#45;&gt;http://example.org/ikj#5 -->
<g id="edge38" class="edge"><title>&#45;attrs13&#45;&gt;http://example.org/ikj#5</title>
<path fill="none" stroke="gray" stroke-dasharray="5,2" d="M1935.56,-86.8567C1889.05,-86.658 1805.83,-86.3023 1762.7,-86.118"/>
</g>
<!-- bn6&#45;&gt;http://example.org/disti#4 -->
<g id="edge40" class="edge"><title>bn6&#45;&gt;http://example.org/disti#4</title>
<path fill="none" stroke="darkgreen" stroke-dasharray="5,2" d="M1968.24,-42.8404C1957,-40.7112 1834.77,-18 1735.08,-18 1735.08,-18 1735.08,-18 987.89,-18 954.492,-18 916.736,-18 888.266,-18"/>
<polygon fill="darkgreen" stroke="darkgreen" points="888.223,-14.5001 878.223,-18 888.223,-21.5001 888.223,-14.5001"/>
</g>
<!-- bn6&#45;&gt;http://example.org/ikj#5 -->
<g id="edge41" class="edge"><title>bn6&#45;&gt;http://example.org/ikj#5</title>
<path fill="none" stroke="darkgreen" d="M1968.18,-43.0586C1961.2,-43.5208 1915.06,-46.7234 1878.08,-53 1841.17,-59.2653 1799.51,-69.2117 1770.72,-76.5484"/>
<polygon fill="darkgreen" stroke="darkgreen" points="1769.54,-73.2382 1760.73,-79.1217 1771.29,-80.017 1769.54,-73.2382"/>
<text text-anchor="middle" x="1852.08" y="-62.8" font-family="Times New Roman,serif" font-size="14.00">[2]</text>
</g>
<!-- &#45;attrs14 -->
<g id="node40" class="node"><title>&#45;attrs14</title>
<polygon fill="none" stroke="gray" points="230,-63.5 160,-63.5 160,-14.5 236,-14.5 236,-57.5 230,-63.5"/>
<polyline fill="none" stroke="gray" points="230,-63.5 230,-57.5 "/>
<polyline fill="none" stroke="gray" points="236,-57.5 230,-57.5 "/>
<text text-anchor="start" x="170" y="-49" font-family="Times New Roman,serif" font-size="10.00">value:</text>
<text text-anchor="start" x="197" y="-49" font-family="Times New Roman,serif" font-size="10.00">[0, 1, 4]</text>
<text text-anchor="start" x="170" y="-36" font-family="Times New Roman,serif" font-size="10.00">type:</text>
<text text-anchor="start" x="197" y="-36" font-family="Times New Roman,serif" font-size="10.00">list</text>
<text text-anchor="start" x="170" y="-23" font-family="Times New Roman,serif" font-size="10.00">label:</text>
<text text-anchor="start" x="197" y="-23" font-family="Times New Roman,serif" font-size="10.00">[0, 1, 4]</text>
</g>
<!-- &#45;attrs14&#45;&gt;http://example.org/list0 -->
<g id="edge42" class="edge"><title>&#45;attrs14&#45;&gt;http://example.org/list0</title>
<path fill="none" stroke="gray" stroke-dasharray="5,2" d="M159.912,-47.3393C127.362,-54.6582 80.9348,-65.0975 52.7246,-71.4406"/>
</g>
<!-- &#45;attrs15 -->
<g id="node41" class="node"><title>&#45;attrs15</title>
<polygon fill="none" stroke="gray" points="2479.07,-156.5 2404.07,-156.5 2404.07,-107.5 2485.07,-107.5 2485.07,-150.5 2479.07,-156.5"/>
<polyline fill="none" stroke="gray" points="2479.07,-156.5 2479.07,-150.5 "/>
<polyline fill="none" stroke="gray" points="2485.07,-150.5 2479.07,-150.5 "/>
<text text-anchor="start" x="2414.57" y="-142" font-family="Times New Roman,serif" font-size="10.00">value:</text>
<text text-anchor="start" x="2441.57" y="-142" font-family="Times New Roman,serif" font-size="10.00">[0, 1, 3]</text>
<text text-anchor="start" x="2414.57" y="-129" font-family="Times New Roman,serif" font-size="10.00">type:</text>
<text text-anchor="start" x="2441.57" y="-129" font-family="Times New Roman,serif" font-size="10.00">access</text>
<text text-anchor="start" x="2414.57" y="-116" font-family="Times New Roman,serif" font-size="10.00">label:</text>
<text text-anchor="start" x="2441.57" y="-116" font-family="Times New Roman,serif" font-size="10.00">result[0]</text>
</g>
<!-- &#45;attrs15&#45;&gt;http://example.org/result@0 -->
<g id="edge43" class="edge"><title>&#45;attrs15&#45;&gt;http://example.org/result@0</title>
<path fill="none" stroke="gray" stroke-dasharray="5,2" d="M2403.87,-132C2386.94,-132 2367.15,-132 2349.94,-132"/>
</g>
<!-- &#45;attrs16 -->
<g id="node42" class="node"><title>&#45;attrs16</title>
<polygon fill="none" stroke="gray" points="1820.08,-392.5 1642.08,-392.5 1642.08,-343.5 1826.08,-343.5 1826.08,-386.5 1820.08,-392.5"/>
<polyline fill="none" stroke="gray" points="1820.08,-392.5 1820.08,-386.5 "/>
<polyline fill="none" stroke="gray" points="1826.08,-386.5 1820.08,-386.5 "/>
<text text-anchor="start" x="1652.08" y="-378" font-family="Times New Roman,serif" font-size="10.00">value:</text>
<text text-anchor="start" x="1679.08" y="-378" font-family="Times New Roman,serif" font-size="10.00">[[0, 1, 4], [10000, 0, 2], [2, 10000, 0]]</text>
<text text-anchor="start" x="1652.08" y="-365" font-family="Times New Roman,serif" font-size="10.00">type:</text>
<text text-anchor="start" x="1679.08" y="-365" font-family="Times New Roman,serif" font-size="10.00">list</text>
<text text-anchor="start" x="1652.08" y="-352" font-family="Times New Roman,serif" font-size="10.00">label:</text>
<text text-anchor="start" x="1679.08" y="-352" font-family="Times New Roman,serif" font-size="10.00">[[0, 1, 4], [m, 0, 2], lastrow]</text>
</g>
<!-- &#45;attrs16&#45;&gt;http://example.org/list#2 -->
<g id="edge44" class="edge"><title>&#45;attrs16&#45;&gt;http://example.org/list#2</title>
<path fill="none" stroke="gray" stroke-dasharray="5,2" d="M1641.7,-368C1572.65,-368 1482.18,-368 1436.19,-368"/>
</g>
<!-- &#45;attrs17 -->
<g id="node43" class="node"><title>&#45;attrs17</title>
<polygon fill="none" stroke="gray" points="874.89,-103.5 804.89,-103.5 804.89,-54.5 880.89,-54.5 880.89,-97.5 874.89,-103.5"/>
<polyline fill="none" stroke="gray" points="874.89,-103.5 874.89,-97.5 "/>
<polyline fill="none" stroke="gray" points="880.89,-97.5 874.89,-97.5 "/>
<text text-anchor="start" x="814.89" y="-89" font-family="Times New Roman,serif" font-size="10.00">value:</text>
<text text-anchor="start" x="841.89" y="-89" font-family="Times New Roman,serif" font-size="10.00">[0, 1, 4]</text>
<text text-anchor="start" x="814.89" y="-76" font-family="Times New Roman,serif" font-size="10.00">type:</text>
<text text-anchor="start" x="841.89" y="-76" font-family="Times New Roman,serif" font-size="10.00">access</text>
<text text-anchor="start" x="814.89" y="-63" font-family="Times New Roman,serif" font-size="10.00">label:</text>
<text text-anchor="start" x="841.89" y="-63" font-family="Times New Roman,serif" font-size="10.00">dist[i]</text>
</g>
<!-- &#45;attrs17&#45;&gt;http://example.org/dist@i#4 -->
<g id="edge45" class="edge"><title>&#45;attrs17&#45;&gt;http://example.org/dist@i#4</title>
<path fill="none" stroke="gray" stroke-dasharray="5,2" d="M804.758,-79C749.38,-79 645.41,-79 586.855,-79"/>
</g>
</g>
</svg>
