<?xml version="1.0" encoding="UTF-8" standalone="no"?>
<!DOCTYPE svg PUBLIC "-//W3C//DTD SVG 1.1//EN"
 "http://www.w3.org/Graphics/SVG/1.1/DTD/svg11.dtd">
<!-- Generated by graphviz version 2.38.0 (20140413.2041)
 -->
<!-- Title: PROV Pages: 1 -->
<svg width="393pt" height="592pt"
 viewBox="0.00 0.00 393.00 592.00" xmlns="http://www.w3.org/2000/svg" xmlns:xlink="http://www.w3.org/1999/xlink">
<g id="graph0" class="graph" transform="scale(1 1) rotate(0) translate(4 588)">
<title>PROV</title>
<polygon fill="white" stroke="none" points="-4,4 -4,-588 389,-588 389,4 -4,4"/>
<!-- http://example.org/n10000 -->
<g id="node1" class="node"><title>http://example.org/n10000</title>
<g id="a_node1"><a xlink:href="http://example.org/n10000" xlink:title="n10000">
<ellipse fill="#fffc87" stroke="#808080" cx="248.5" cy="-479" rx="37.0935" ry="18"/>
<text text-anchor="middle" x="248.5" y="-475.3" font-family="Times New Roman,serif" font-size="14.00">n10000</text>
</a>
</g>
</g>
<!-- http://example.org/n10000_v1 -->
<g id="node3" class="node"><title>http://example.org/n10000_v1</title>
<g id="a_node3"><a xlink:href="http://example.org/n10000_v1" xlink:title="n10000_v1">
<ellipse fill="#32cd32" stroke="#808080" cx="102.5" cy="-566" rx="50.8918" ry="18"/>
<text text-anchor="middle" x="102.5" y="-562.3" font-family="Times New Roman,serif" font-size="14.00">n10000_v1</text>
</a>
</g>
</g>
<!-- http://example.org/n10000&#45;&gt;http://example.org/n10000_v1 -->
<g id="edge3" class="edge"><title>http://example.org/n10000&#45;&gt;http://example.org/n10000_v1</title>
<path fill="none" stroke="darkgreen" d="M225.688,-493.281C201.837,-507.167 164.134,-529.117 136.717,-545.079"/>
<polygon fill="darkgreen" stroke="darkgreen" points="134.729,-542.187 127.848,-550.243 138.251,-548.236 134.729,-542.187"/>
<text text-anchor="middle" x="192.5" y="-518.8" font-family="Times New Roman,serif" font-size="14.00">ver</text>
</g>
<!-- &#45;attrs0 -->
<g id="node2" class="node"><title>&#45;attrs0</title>
<polygon fill="none" stroke="gray" points="279,-395 206,-395 206,-346 285,-346 285,-389 279,-395"/>
<polyline fill="none" stroke="gray" points="279,-395 279,-389 "/>
<polyline fill="none" stroke="gray" points="285,-389 279,-389 "/>
<text text-anchor="start" x="216.5" y="-380.5" font-family="Times New Roman,serif" font-size="10.00">value:</text>
<text text-anchor="start" x="243.5" y="-380.5" font-family="Times New Roman,serif" font-size="10.00">&quot;10000&quot;</text>
<text text-anchor="start" x="216.5" y="-367.5" font-family="Times New Roman,serif" font-size="10.00">type:</text>
<text text-anchor="start" x="243.5" y="-367.5" font-family="Times New Roman,serif" font-size="10.00">&quot;literal&quot;</text>
<text text-anchor="start" x="216.5" y="-354.5" font-family="Times New Roman,serif" font-size="10.00">label:</text>
<text text-anchor="start" x="243.5" y="-354.5" font-family="Times New Roman,serif" font-size="10.00">&quot;10000&quot;</text>
</g>
<!-- &#45;attrs0&#45;&gt;http://example.org/n10000 -->
<g id="edge1" class="edge"><title>&#45;attrs0&#45;&gt;http://example.org/n10000</title>
<path fill="none" stroke="gray" stroke-dasharray="5,2" d="M246.166,-395.136C246.725,-414.991 247.511,-442.9 248.013,-460.719"/>
</g>
<!-- &#45;attrs1 -->
<g id="node4" class="node"><title>&#45;attrs1</title>
<polygon fill="none" stroke="gray" points="81,-497 0,-497 0,-461 87,-461 87,-491 81,-497"/>
<polyline fill="none" stroke="gray" points="81,-497 81,-491 "/>
<polyline fill="none" stroke="gray" points="87,-491 81,-491 "/>
<text text-anchor="start" x="10.5" y="-483" font-family="Times New Roman,serif" font-size="10.00">value:</text>
<text text-anchor="start" x="37.5" y="-483" font-family="Times New Roman,serif" font-size="10.00">&quot;T1&quot;</text>
<text text-anchor="start" x="10.5" y="-470" font-family="Times New Roman,serif" font-size="10.00">type:</text>
<text text-anchor="start" x="37.5" y="-470" font-family="Times New Roman,serif" font-size="10.00">&quot;Version&quot;</text>
</g>
<!-- &#45;attrs1&#45;&gt;http://example.org/n10000_v1 -->
<g id="edge2" class="edge"><title>&#45;attrs1&#45;&gt;http://example.org/n10000_v1</title>
<path fill="none" stroke="gray" stroke-dasharray="5,2" d="M55.4395,-497.201C65.8105,-512.142 80.734,-533.642 90.9798,-548.403"/>
</g>
<!-- http://example.org/m1 -->
<g id="node5" class="node"><title>http://example.org/m1</title>
<g id="a_node5"><a xlink:href="http://example.org/m1" xlink:title="m1">
<ellipse fill="#fffc87" stroke="#808080" cx="330.5" cy="-370.5" rx="27" ry="18"/>
<text text-anchor="middle" x="330.5" y="-366.8" font-family="Times New Roman,serif" font-size="14.00">m1</text>
</a>
</g>
</g>
<!-- http://example.org/m1&#45;&gt;http://example.org/n10000 -->
<g id="edge5" class="edge"><title>http://example.org/m1&#45;&gt;http://example.org/n10000</title>
<path fill="none" stroke="darkgreen" d="M318.751,-386.759C305.284,-404.25 283.032,-433.151 267.181,-453.738"/>
<polygon fill="darkgreen" stroke="darkgreen" points="264.361,-451.663 261.034,-461.722 269.907,-455.933 264.361,-451.663"/>
<text text-anchor="middle" x="315" y="-431.8" font-family="Times New Roman,serif" font-size="14.00">der ref</text>
<text text-anchor="middle" x="315" y="-416.8" font-family="Times New Roman,serif" font-size="14.00">T2</text>
</g>
<!-- &#45;attrs2 -->
<g id="node6" class="node"><title>&#45;attrs2</title>
<polygon fill="none" stroke="gray" points="379,-288.5 306,-288.5 306,-252.5 385,-252.5 385,-282.5 379,-288.5"/>
<polyline fill="none" stroke="gray" points="379,-288.5 379,-282.5 "/>
<polyline fill="none" stroke="gray" points="385,-282.5 379,-282.5 "/>
<text text-anchor="start" x="316.5" y="-274.5" font-family="Times New Roman,serif" font-size="10.00">value:</text>
<text text-anchor="start" x="343.5" y="-274.5" font-family="Times New Roman,serif" font-size="10.00">&quot;10000&quot;</text>
<text text-anchor="start" x="316.5" y="-261.5" font-family="Times New Roman,serif" font-size="10.00">type:</text>
<text text-anchor="start" x="343.5" y="-261.5" font-family="Times New Roman,serif" font-size="10.00">&quot;name&quot;</text>
</g>
<!-- &#45;attrs2&#45;&gt;http://example.org/m1 -->
<g id="edge4" class="edge"><title>&#45;attrs2&#45;&gt;http://example.org/m1</title>
<path fill="none" stroke="gray" stroke-dasharray="5,2" d="M342.887,-288.57C340.151,-306.448 335.877,-334.369 333.133,-352.297"/>
</g>
<!-- http://example.org/sum1 -->
<g id="node7" class="node"><title>http://example.org/sum1</title>
<g id="a_node7"><a xlink:href="http://example.org/sum1" xlink:title="sum1">
<ellipse fill="#fffc87" stroke="#808080" cx="157.5" cy="-370.5" rx="30.5947" ry="18"/>
<text text-anchor="middle" x="157.5" y="-366.8" font-family="Times New Roman,serif" font-size="14.00">sum1</text>
</a>
</g>
</g>
<!-- http://example.org/sum1_v1 -->
<g id="node9" class="node"><title>http://example.org/sum1_v1</title>
<g id="a_node9"><a xlink:href="http://example.org/sum1_v1" xlink:title="sum1_v1">
<ellipse fill="#32cd32" stroke="#808080" cx="149.5" cy="-479" rx="44.393" ry="18"/>
<text text-anchor="middle" x="149.5" y="-475.3" font-family="Times New Roman,serif" font-size="14.00">sum1_v1</text>
</a>
</g>
</g>
<!-- http://example.org/sum1&#45;&gt;http://example.org/sum1_v1 -->
<g id="edge8" class="edge"><title>http://example.org/sum1&#45;&gt;http://example.org/sum1_v1</title>
<path fill="none" stroke="darkgreen" d="M156.215,-388.611C154.955,-405.38 153.015,-431.201 151.544,-450.788"/>
<polygon fill="darkgreen" stroke="darkgreen" points="148.041,-450.697 150.782,-460.931 155.021,-451.222 148.041,-450.697"/>
<text text-anchor="middle" x="162.5" y="-424.3" font-family="Times New Roman,serif" font-size="14.00">ver</text>
</g>
<!-- &#45;attrs3 -->
<g id="node8" class="node"><title>&#45;attrs3</title>
<polygon fill="none" stroke="gray" points="199,-295 110,-295 110,-246 205,-246 205,-289 199,-295"/>
<polyline fill="none" stroke="gray" points="199,-295 199,-289 "/>
<polyline fill="none" stroke="gray" points="205,-289 199,-289 "/>
<text text-anchor="start" x="120.5" y="-280.5" font-family="Times New Roman,serif" font-size="10.00">value:</text>
<text text-anchor="start" x="147.5" y="-280.5" font-family="Times New Roman,serif" font-size="10.00">&quot;10001&quot;</text>
<text text-anchor="start" x="120.5" y="-267.5" font-family="Times New Roman,serif" font-size="10.00">type:</text>
<text text-anchor="start" x="147.5" y="-267.5" font-family="Times New Roman,serif" font-size="10.00">&quot;operation&quot;</text>
<text text-anchor="start" x="120.5" y="-254.5" font-family="Times New Roman,serif" font-size="10.00">label:</text>
<text text-anchor="start" x="147.5" y="-254.5" font-family="Times New Roman,serif" font-size="10.00">&quot;m + 1&quot;</text>
</g>
<!-- &#45;attrs3&#45;&gt;http://example.org/sum1 -->
<g id="edge6" class="edge"><title>&#45;attrs3&#45;&gt;http://example.org/sum1</title>
<path fill="none" stroke="gray" stroke-dasharray="5,2" d="M157.5,-295.223C157.5,-312.897 157.5,-336.613 157.5,-352.444"/>
</g>
<!-- &#45;attrs4 -->
<g id="node10" class="node"><title>&#45;attrs4</title>
<polygon fill="none" stroke="gray" points="103,-388.5 22,-388.5 22,-352.5 109,-352.5 109,-382.5 103,-388.5"/>
<polyline fill="none" stroke="gray" points="103,-388.5 103,-382.5 "/>
<polyline fill="none" stroke="gray" points="109,-382.5 103,-382.5 "/>
<text text-anchor="start" x="32.5" y="-374.5" font-family="Times New Roman,serif" font-size="10.00">value:</text>
<text text-anchor="start" x="59.5" y="-374.5" font-family="Times New Roman,serif" font-size="10.00">&quot;T4&quot;</text>
<text text-anchor="start" x="32.5" y="-361.5" font-family="Times New Roman,serif" font-size="10.00">type:</text>
<text text-anchor="start" x="59.5" y="-361.5" font-family="Times New Roman,serif" font-size="10.00">&quot;Version&quot;</text>
</g>
<!-- &#45;attrs4&#45;&gt;http://example.org/sum1_v1 -->
<g id="edge7" class="edge"><title>&#45;attrs4&#45;&gt;http://example.org/sum1_v1</title>
<path fill="none" stroke="gray" stroke-dasharray="5,2" d="M78.9961,-388.611C94.8569,-408.72 120.986,-441.849 136.589,-461.631"/>
</g>
<!-- http://example.org/list1 -->
<g id="node11" class="node"><title>http://example.org/list1</title>
<g id="a_node11"><a xlink:href="http://example.org/list1" xlink:title="list1">
<ellipse fill="#fffc87" stroke="#808080" cx="209.5" cy="-104" rx="27" ry="18"/>
<text text-anchor="middle" x="209.5" y="-100.3" font-family="Times New Roman,serif" font-size="14.00">list1</text>
</a>
</g>
</g>
<!-- http://example.org/list1_v1 -->
<g id="node13" class="node"><title>http://example.org/list1_v1</title>
<g id="a_node13"><a xlink:href="http://example.org/list1_v1" xlink:title="list1_v1">
<ellipse fill="#32cd32" stroke="#808080" cx="275.5" cy="-191" rx="38.9931" ry="18"/>
<text text-anchor="middle" x="275.5" y="-187.3" font-family="Times New Roman,serif" font-size="14.00">list1_v1</text>
</a>
</g>
</g>
<!-- http://example.org/list1&#45;&gt;http://example.org/list1_v1 -->
<g id="edge11" class="edge"><title>http://example.org/list1&#45;&gt;http://example.org/list1_v1</title>
<path fill="none" stroke="darkgreen" d="M221.299,-120.196C231.094,-132.81 245.209,-150.989 256.58,-165.633"/>
<polygon fill="darkgreen" stroke="darkgreen" points="254.006,-168.026 262.904,-173.778 259.535,-163.733 254.006,-168.026"/>
<text text-anchor="middle" x="254.5" y="-143.8" font-family="Times New Roman,serif" font-size="14.00">ver</text>
</g>
<!-- &#45;attrs5 -->
<g id="node12" class="node"><title>&#45;attrs5</title>
<polygon fill="none" stroke="gray" points="273,-49 140,-49 140,-0 279,-0 279,-43 273,-49"/>
<polyline fill="none" stroke="gray" points="273,-49 273,-43 "/>
<polyline fill="none" stroke="gray" points="279,-43 273,-43 "/>
<text text-anchor="start" x="150.5" y="-34.5" font-family="Times New Roman,serif" font-size="10.00">value:</text>
<text text-anchor="start" x="177.5" y="-34.5" font-family="Times New Roman,serif" font-size="10.00">&quot;[10000, 10001, 10000]&quot;</text>
<text text-anchor="start" x="150.5" y="-21.5" font-family="Times New Roman,serif" font-size="10.00">type:</text>
<text text-anchor="start" x="177.5" y="-21.5" font-family="Times New Roman,serif" font-size="10.00">&quot;list&quot;</text>
<text text-anchor="start" x="150.5" y="-8.5" font-family="Times New Roman,serif" font-size="10.00">label:</text>
<text text-anchor="start" x="177.5" y="-8.5" font-family="Times New Roman,serif" font-size="10.00">&quot;[m, m + 1, m]&quot;</text>
</g>
<!-- &#45;attrs5&#45;&gt;http://example.org/list1 -->
<g id="edge9" class="edge"><title>&#45;attrs5&#45;&gt;http://example.org/list1</title>
<path fill="none" stroke="gray" stroke-dasharray="5,2" d="M209.5,-49.1737C209.5,-60.9254 209.5,-74.869 209.5,-85.6196"/>
</g>
<!-- bn0 -->
<g id="node15" class="node"><title>bn0</title>
<ellipse fill="black" stroke="black" cx="275.5" cy="-270.5" rx="1.8" ry="1.8"/>
</g>
<!-- http://example.org/list1_v1&#45;&gt;bn0 -->
<g id="edge12" class="edge"><title>http://example.org/list1_v1&#45;&gt;bn0</title>
<path fill="none" stroke="darkgreen" d="M275.5,-209.2C275.5,-229.891 275.5,-262.603 275.5,-268.555"/>
<text text-anchor="middle" x="265" y="-213" font-family="Times New Roman,serif" font-size="14.00">had</text>
</g>
<!-- &#45;attrs6 -->
<g id="node14" class="node"><title>&#45;attrs6</title>
<polygon fill="none" stroke="gray" points="336,-122 255,-122 255,-86 342,-86 342,-116 336,-122"/>
<polyline fill="none" stroke="gray" points="336,-122 336,-116 "/>
<polyline fill="none" stroke="gray" points="342,-116 336,-116 "/>
<text text-anchor="start" x="265.5" y="-108" font-family="Times New Roman,serif" font-size="10.00">value:</text>
<text text-anchor="start" x="292.5" y="-108" font-family="Times New Roman,serif" font-size="10.00">&quot;T5&quot;</text>
<text text-anchor="start" x="265.5" y="-95" font-family="Times New Roman,serif" font-size="10.00">type:</text>
<text text-anchor="start" x="292.5" y="-95" font-family="Times New Roman,serif" font-size="10.00">&quot;Version&quot;</text>
</g>
<!-- &#45;attrs6&#45;&gt;http://example.org/list1_v1 -->
<g id="edge10" class="edge"><title>&#45;attrs6&#45;&gt;http://example.org/list1_v1</title>
<path fill="none" stroke="gray" stroke-dasharray="5,2" d="M293.846,-122.201C289.829,-137.045 284.061,-158.363 280.069,-173.115"/>
</g>
<!-- bn0&#45;&gt;http://example.org/m1 -->
<g id="edge13" class="edge"><title>bn0&#45;&gt;http://example.org/m1</title>
<path fill="none" stroke="darkgreen" d="M276.118,-272.601C280.028,-279.568 301.649,-318.093 316.423,-344.417"/>
<polygon fill="darkgreen" stroke="darkgreen" points="313.564,-346.474 321.51,-353.482 319.668,-343.048 313.564,-346.474"/>
<text text-anchor="middle" x="313.5" y="-316.8" font-family="Times New Roman,serif" font-size="14.00">[0]</text>
</g>
<!-- bn0&#45;&gt;http://example.org/m1 -->
<g id="edge15" class="edge"><title>bn0&#45;&gt;http://example.org/m1</title>
<path fill="none" stroke="darkgreen" d="M275.322,-272.363C274.243,-277.801 268.981,-307.756 279.5,-328 282.541,-333.852 293.226,-342.876 304.036,-351.016"/>
<polygon fill="darkgreen" stroke="darkgreen" points="302.068,-353.913 312.202,-357.001 306.206,-348.267 302.068,-353.913"/>
<text text-anchor="middle" x="287.5" y="-316.8" font-family="Times New Roman,serif" font-size="14.00">[2]</text>
</g>
<!-- bn0&#45;&gt;http://example.org/sum1 -->
<g id="edge14" class="edge"><title>bn0&#45;&gt;http://example.org/sum1</title>
<path fill="none" stroke="darkgreen" d="M274.175,-272.601C265.296,-279.975 213.85,-322.701 182.309,-348.896"/>
<polygon fill="darkgreen" stroke="darkgreen" points="179.832,-346.403 174.375,-355.485 184.304,-351.789 179.832,-346.403"/>
<text text-anchor="middle" x="231.5" y="-316.8" font-family="Times New Roman,serif" font-size="14.00">[1]</text>
</g>
</g>
</svg>
