<?xml version="1.0" encoding="UTF-8" standalone="no"?>
<!DOCTYPE svg PUBLIC "-//W3C//DTD SVG 1.1//EN"
 "http://www.w3.org/Graphics/SVG/1.1/DTD/svg11.dtd">
<!-- Generated by graphviz version 2.38.0 (20140413.2041)
 -->
<!-- Title: PROV Pages: 1 -->
<svg width="831pt" height="709pt"
 viewBox="0.00 0.00 830.55 709.00" xmlns="http://www.w3.org/2000/svg" xmlns:xlink="http://www.w3.org/1999/xlink">
<g id="graph0" class="graph" transform="scale(1 1) rotate(0) translate(4 705)">
<title>PROV</title>
<polygon fill="white" stroke="none" points="-4,4 -4,-705 826.547,-705 826.547,4 -4,4"/>
<!-- http://example.org/n10000 -->
<g id="node1" class="node"><title>http://example.org/n10000</title>
<g id="a_node1"><a xlink:href="http://example.org/n10000" xlink:title="n10000">
<ellipse fill="#fffc87" stroke="#808080" cx="37.0467" cy="-596" rx="37.0935" ry="18"/>
<text text-anchor="middle" x="37.0467" y="-592.3" font-family="Times New Roman,serif" font-size="14.00">n10000</text>
</a>
</g>
</g>
<!-- http://example.org/n10000_v1 -->
<g id="node3" class="node"><title>http://example.org/n10000_v1</title>
<g id="a_node3"><a xlink:href="http://example.org/n10000_v1" xlink:title="n10000_v1">
<ellipse fill="#32cd32" stroke="#808080" cx="103.047" cy="-683" rx="50.8918" ry="18"/>
<text text-anchor="middle" x="103.047" y="-679.3" font-family="Times New Roman,serif" font-size="14.00">n10000_v1</text>
</a>
</g>
</g>
<!-- http://example.org/n10000&#45;&gt;http://example.org/n10000_v1 -->
<g id="edge3" class="edge"><title>http://example.org/n10000&#45;&gt;http://example.org/n10000_v1</title>
<path fill="none" stroke="darkgreen" d="M49.4608,-612.988C59.1998,-625.53 72.9216,-643.203 84.0414,-657.523"/>
<polygon fill="darkgreen" stroke="darkgreen" points="81.3406,-659.752 90.2381,-665.504 86.8696,-655.459 81.3406,-659.752"/>
<text text-anchor="middle" x="83.0467" y="-635.8" font-family="Times New Roman,serif" font-size="14.00">ver</text>
</g>
<!-- &#45;attrs0 -->
<g id="node2" class="node"><title>&#45;attrs0</title>
<polygon fill="none" stroke="gray" points="161.547,-497 88.5467,-497 88.5467,-448 167.547,-448 167.547,-491 161.547,-497"/>
<polyline fill="none" stroke="gray" points="161.547,-497 161.547,-491 "/>
<polyline fill="none" stroke="gray" points="167.547,-491 161.547,-491 "/>
<text text-anchor="start" x="99.0467" y="-482.5" font-family="Times New Roman,serif" font-size="10.00">value:</text>
<text text-anchor="start" x="126.047" y="-482.5" font-family="Times New Roman,serif" font-size="10.00">&quot;10000&quot;</text>
<text text-anchor="start" x="99.0467" y="-469.5" font-family="Times New Roman,serif" font-size="10.00">type:</text>
<text text-anchor="start" x="126.047" y="-469.5" font-family="Times New Roman,serif" font-size="10.00">&quot;literal&quot;</text>
<text text-anchor="start" x="99.0467" y="-456.5" font-family="Times New Roman,serif" font-size="10.00">label:</text>
<text text-anchor="start" x="126.047" y="-456.5" font-family="Times New Roman,serif" font-size="10.00">&quot;10000&quot;</text>
</g>
<!-- &#45;attrs0&#45;&gt;http://example.org/n10000 -->
<g id="edge1" class="edge"><title>&#45;attrs0&#45;&gt;http://example.org/n10000</title>
<path fill="none" stroke="gray" stroke-dasharray="5,2" d="M129.971,-497.142C130.258,-515.993 127.714,-542.108 114.047,-560 110.749,-564.318 85.5284,-575.341 64.8357,-583.874"/>
</g>
<!-- &#45;attrs1 -->
<g id="node4" class="node"><title>&#45;attrs1</title>
<polygon fill="none" stroke="gray" points="173.547,-614 92.5467,-614 92.5467,-578 179.547,-578 179.547,-608 173.547,-614"/>
<polyline fill="none" stroke="gray" points="173.547,-614 173.547,-608 "/>
<polyline fill="none" stroke="gray" points="179.547,-608 173.547,-608 "/>
<text text-anchor="start" x="103.047" y="-600" font-family="Times New Roman,serif" font-size="10.00">value:</text>
<text text-anchor="start" x="130.047" y="-600" font-family="Times New Roman,serif" font-size="10.00">&quot;T1&quot;</text>
<text text-anchor="start" x="103.047" y="-587" font-family="Times New Roman,serif" font-size="10.00">type:</text>
<text text-anchor="start" x="130.047" y="-587" font-family="Times New Roman,serif" font-size="10.00">&quot;Version&quot;</text>
</g>
<!-- &#45;attrs1&#45;&gt;http://example.org/n10000_v1 -->
<g id="edge2" class="edge"><title>&#45;attrs1&#45;&gt;http://example.org/n10000_v1</title>
<path fill="none" stroke="gray" stroke-dasharray="5,2" d="M129.369,-614.201C123.606,-629.045 115.329,-650.363 109.602,-665.115"/>
</g>
<!-- http://example.org/sum1 -->
<g id="node5" class="node"><title>http://example.org/sum1</title>
<g id="a_node5"><a xlink:href="http://example.org/sum1" xlink:title="sum1">
<ellipse fill="#fffc87" stroke="#808080" cx="228.047" cy="-596" rx="30.5947" ry="18"/>
<text text-anchor="middle" x="228.047" y="-592.3" font-family="Times New Roman,serif" font-size="14.00">sum1</text>
</a>
</g>
</g>
<!-- http://example.org/sum1_v1 -->
<g id="node7" class="node"><title>http://example.org/sum1_v1</title>
<g id="a_node7"><a xlink:href="http://example.org/sum1_v1" xlink:title="sum1_v1">
<ellipse fill="#32cd32" stroke="#808080" cx="285.047" cy="-683" rx="44.393" ry="18"/>
<text text-anchor="middle" x="285.047" y="-679.3" font-family="Times New Roman,serif" font-size="14.00">sum1_v1</text>
</a>
</g>
</g>
<!-- http://example.org/sum1&#45;&gt;http://example.org/sum1_v1 -->
<g id="edge6" class="edge"><title>http://example.org/sum1&#45;&gt;http://example.org/sum1_v1</title>
<path fill="none" stroke="darkgreen" d="M238.768,-612.988C247.1,-625.413 258.808,-642.873 268.363,-657.121"/>
<polygon fill="darkgreen" stroke="darkgreen" points="265.508,-659.148 273.985,-665.504 271.322,-655.249 265.508,-659.148"/>
<text text-anchor="middle" x="269.047" y="-635.8" font-family="Times New Roman,serif" font-size="14.00">ver</text>
</g>
<!-- &#45;attrs2 -->
<g id="node6" class="node"><title>&#45;attrs2</title>
<polygon fill="none" stroke="gray" points="274.547,-497 185.547,-497 185.547,-448 280.547,-448 280.547,-491 274.547,-497"/>
<polyline fill="none" stroke="gray" points="274.547,-497 274.547,-491 "/>
<polyline fill="none" stroke="gray" points="280.547,-491 274.547,-491 "/>
<text text-anchor="start" x="196.047" y="-482.5" font-family="Times New Roman,serif" font-size="10.00">value:</text>
<text text-anchor="start" x="223.047" y="-482.5" font-family="Times New Roman,serif" font-size="10.00">&quot;10001&quot;</text>
<text text-anchor="start" x="196.047" y="-469.5" font-family="Times New Roman,serif" font-size="10.00">type:</text>
<text text-anchor="start" x="223.047" y="-469.5" font-family="Times New Roman,serif" font-size="10.00">&quot;operation&quot;</text>
<text text-anchor="start" x="196.047" y="-456.5" font-family="Times New Roman,serif" font-size="10.00">label:</text>
<text text-anchor="start" x="223.047" y="-456.5" font-family="Times New Roman,serif" font-size="10.00">&quot;m + 1&quot;</text>
</g>
<!-- &#45;attrs2&#45;&gt;http://example.org/sum1 -->
<g id="edge4" class="edge"><title>&#45;attrs2&#45;&gt;http://example.org/sum1</title>
<path fill="none" stroke="gray" stroke-dasharray="5,2" d="M232.071,-497.215C231.093,-520.971 229.613,-556.947 228.746,-577.998"/>
</g>
<!-- &#45;attrs3 -->
<g id="node8" class="node"><title>&#45;attrs3</title>
<polygon fill="none" stroke="gray" points="357.547,-614 276.547,-614 276.547,-578 363.547,-578 363.547,-608 357.547,-614"/>
<polyline fill="none" stroke="gray" points="357.547,-614 357.547,-608 "/>
<polyline fill="none" stroke="gray" points="363.547,-608 357.547,-608 "/>
<text text-anchor="start" x="287.047" y="-600" font-family="Times New Roman,serif" font-size="10.00">value:</text>
<text text-anchor="start" x="314.047" y="-600" font-family="Times New Roman,serif" font-size="10.00">&quot;T4&quot;</text>
<text text-anchor="start" x="287.047" y="-587" font-family="Times New Roman,serif" font-size="10.00">type:</text>
<text text-anchor="start" x="314.047" y="-587" font-family="Times New Roman,serif" font-size="10.00">&quot;Version&quot;</text>
</g>
<!-- &#45;attrs3&#45;&gt;http://example.org/sum1_v1 -->
<g id="edge5" class="edge"><title>&#45;attrs3&#45;&gt;http://example.org/sum1_v1</title>
<path fill="none" stroke="gray" stroke-dasharray="5,2" d="M312.964,-614.201C306.852,-629.045 298.074,-650.363 292,-665.115"/>
</g>
<!-- http://example.org/list1 -->
<g id="node9" class="node"><title>http://example.org/list1</title>
<g id="a_node9"><a xlink:href="http://example.org/list1" xlink:title="list1">
<ellipse fill="#fffc87" stroke="#808080" cx="329.047" cy="-104" rx="27" ry="18"/>
<text text-anchor="middle" x="329.047" y="-100.3" font-family="Times New Roman,serif" font-size="14.00">list1</text>
</a>
</g>
</g>
<!-- http://example.org/list1_v1 -->
<g id="node11" class="node"><title>http://example.org/list1_v1</title>
<g id="a_node11"><a xlink:href="http://example.org/list1_v1" xlink:title="list1_v1">
<ellipse fill="#32cd32" stroke="#808080" cx="235.047" cy="-393" rx="38.9931" ry="18"/>
<text text-anchor="middle" x="235.047" y="-389.3" font-family="Times New Roman,serif" font-size="14.00">list1_v1</text>
</a>
</g>
</g>
<!-- http://example.org/list1&#45;&gt;http://example.org/list1_v1 -->
<g id="edge9" class="edge"><title>http://example.org/list1&#45;&gt;http://example.org/list1_v1</title>
<path fill="none" stroke="darkgreen" d="M315.844,-119.839C304.895,-132.932 289.761,-152.996 281.047,-173 252.642,-238.203 241.339,-322.141 237.204,-364.678"/>
<polygon fill="darkgreen" stroke="darkgreen" points="233.703,-364.529 236.28,-374.805 240.674,-365.164 233.703,-364.529"/>
<text text-anchor="middle" x="271.047" y="-230.8" font-family="Times New Roman,serif" font-size="14.00">ver</text>
</g>
<!-- http://example.org/list1_v2 -->
<g id="node26" class="node"><title>http://example.org/list1_v2</title>
<g id="a_node26"><a xlink:href="http://example.org/list1_v2" xlink:title="list1_v2">
<ellipse fill="#32cd32" stroke="#808080" cx="329.047" cy="-191" rx="38.9931" ry="18"/>
<text text-anchor="middle" x="329.047" y="-187.3" font-family="Times New Roman,serif" font-size="14.00">list1_v2</text>
</a>
</g>
</g>
<!-- http://example.org/list1&#45;&gt;http://example.org/list1_v2 -->
<g id="edge27" class="edge"><title>http://example.org/list1&#45;&gt;http://example.org/list1_v2</title>
<path fill="none" stroke="darkgreen" d="M329.047,-122.201C329.047,-133.837 329.047,-149.452 329.047,-162.763"/>
<polygon fill="darkgreen" stroke="darkgreen" points="325.547,-162.825 329.047,-172.825 332.547,-162.825 325.547,-162.825"/>
<text text-anchor="middle" x="338.047" y="-143.8" font-family="Times New Roman,serif" font-size="14.00">ver</text>
</g>
<!-- &#45;attrs4 -->
<g id="node10" class="node"><title>&#45;attrs4</title>
<polygon fill="none" stroke="gray" points="392.547,-49 259.547,-49 259.547,-0 398.547,-0 398.547,-43 392.547,-49"/>
<polyline fill="none" stroke="gray" points="392.547,-49 392.547,-43 "/>
<polyline fill="none" stroke="gray" points="398.547,-43 392.547,-43 "/>
<text text-anchor="start" x="270.047" y="-34.5" font-family="Times New Roman,serif" font-size="10.00">value:</text>
<text text-anchor="start" x="297.047" y="-34.5" font-family="Times New Roman,serif" font-size="10.00">&quot;[10000, 10001, 10000]&quot;</text>
<text text-anchor="start" x="270.047" y="-21.5" font-family="Times New Roman,serif" font-size="10.00">type:</text>
<text text-anchor="start" x="297.047" y="-21.5" font-family="Times New Roman,serif" font-size="10.00">&quot;list&quot;</text>
<text text-anchor="start" x="270.047" y="-8.5" font-family="Times New Roman,serif" font-size="10.00">label:</text>
<text text-anchor="start" x="297.047" y="-8.5" font-family="Times New Roman,serif" font-size="10.00">&quot;[m, m + 1, m]&quot;</text>
</g>
<!-- &#45;attrs4&#45;&gt;http://example.org/list1 -->
<g id="edge7" class="edge"><title>&#45;attrs4&#45;&gt;http://example.org/list1</title>
<path fill="none" stroke="gray" stroke-dasharray="5,2" d="M329.047,-49.1737C329.047,-60.9254 329.047,-74.869 329.047,-85.6196"/>
</g>
<!-- bn0 -->
<g id="node13" class="node"><title>bn0</title>
<ellipse fill="black" stroke="black" cx="63.0467" cy="-472.5" rx="1.8" ry="1.8"/>
</g>
<!-- http://example.org/list1_v1&#45;&gt;bn0 -->
<g id="edge10" class="edge"><title>http://example.org/list1_v1&#45;&gt;bn0</title>
<path fill="none" stroke="darkgreen" d="M198.81,-399.779C165.037,-406.631 114.668,-420.744 79.0467,-448 70.5799,-454.479 65.0102,-466.755 63.4764,-470.433"/>
<text text-anchor="middle" x="188.31" y="-403.579" font-family="Times New Roman,serif" font-size="14.00">had</text>
</g>
<!-- &#45;attrs5 -->
<g id="node12" class="node"><title>&#45;attrs5</title>
<polygon fill="none" stroke="gray" points="227.547,-302.5 146.547,-302.5 146.547,-266.5 233.547,-266.5 233.547,-296.5 227.547,-302.5"/>
<polyline fill="none" stroke="gray" points="227.547,-302.5 227.547,-296.5 "/>
<polyline fill="none" stroke="gray" points="233.547,-296.5 227.547,-296.5 "/>
<text text-anchor="start" x="157.047" y="-288.5" font-family="Times New Roman,serif" font-size="10.00">value:</text>
<text text-anchor="start" x="184.047" y="-288.5" font-family="Times New Roman,serif" font-size="10.00">&quot;T5&quot;</text>
<text text-anchor="start" x="157.047" y="-275.5" font-family="Times New Roman,serif" font-size="10.00">type:</text>
<text text-anchor="start" x="184.047" y="-275.5" font-family="Times New Roman,serif" font-size="10.00">&quot;Version&quot;</text>
</g>
<!-- &#45;attrs5&#45;&gt;http://example.org/list1_v1 -->
<g id="edge8" class="edge"><title>&#45;attrs5&#45;&gt;http://example.org/list1_v1</title>
<path fill="none" stroke="gray" stroke-dasharray="5,2" d="M197.277,-302.611C205.724,-322.603 219.608,-355.462 227.983,-375.283"/>
</g>
<!-- bn0&#45;&gt;http://example.org/n10000 -->
<g id="edge11" class="edge"><title>bn0&#45;&gt;http://example.org/n10000</title>
<path fill="none" stroke="darkgreen" d="M62.7547,-474.865C60.8317,-483.851 49.846,-535.188 42.8718,-567.779"/>
<polygon fill="darkgreen" stroke="darkgreen" points="39.4351,-567.113 40.765,-577.624 46.2801,-568.578 39.4351,-567.113"/>
<text text-anchor="middle" x="62.0467" y="-533.8" font-family="Times New Roman,serif" font-size="14.00">[0]</text>
</g>
<!-- bn0&#45;&gt;http://example.org/n10000 -->
<g id="edge13" class="edge"><title>bn0&#45;&gt;http://example.org/n10000</title>
<path fill="none" stroke="darkgreen" d="M61.7855,-474.327C56.1223,-478.128 32.9741,-494.604 25.0467,-515 18.4107,-532.074 21.6516,-552.516 26.4277,-568.462"/>
<polygon fill="darkgreen" stroke="darkgreen" points="23.1997,-569.845 29.6995,-578.212 29.836,-567.618 23.1997,-569.845"/>
<text text-anchor="middle" x="33.0467" y="-533.8" font-family="Times New Roman,serif" font-size="14.00">[2]</text>
</g>
<!-- bn0&#45;&gt;http://example.org/sum1 -->
<g id="edge12" class="edge"><title>bn0&#45;&gt;http://example.org/sum1</title>
<path fill="none" stroke="darkgreen" d="M63.54,-474.494C65.2815,-477.933 71.4482,-489.522 79.0467,-497 114.597,-531.987 164.409,-561.748 196.455,-579.006"/>
<polygon fill="darkgreen" stroke="darkgreen" points="194.92,-582.154 205.395,-583.744 198.198,-575.969 194.92,-582.154"/>
<text text-anchor="middle" x="168.047" y="-533.8" font-family="Times New Roman,serif" font-size="14.00">[1]</text>
</g>
<!-- http://example.org/d1 -->
<g id="node14" class="node"><title>http://example.org/d1</title>
<g id="a_node14"><a xlink:href="http://example.org/d1" xlink:title="d1">
<ellipse fill="#fffc87" stroke="#808080" cx="662.047" cy="-596" rx="27" ry="18"/>
<text text-anchor="middle" x="662.047" y="-592.3" font-family="Times New Roman,serif" font-size="14.00">d1</text>
</a>
</g>
</g>
<!-- http://example.org/d1&#45;&gt;http://example.org/list1 -->
<g id="edge15" class="edge"><title>http://example.org/d1&#45;&gt;http://example.org/list1</title>
<path fill="none" stroke="darkgreen" d="M660.423,-577.715C658.355,-554.169 655.047,-510.687 655.047,-473.5 655.047,-190 655.047,-190 655.047,-190 655.047,-130.835 451.446,-112.098 366.047,-106.841"/>
<polygon fill="darkgreen" stroke="darkgreen" points="366.19,-103.343 356.002,-106.251 365.78,-110.331 366.19,-103.343"/>
<text text-anchor="middle" x="673.547" y="-345.8" font-family="Times New Roman,serif" font-size="14.00">der ref</text>
<text text-anchor="middle" x="673.547" y="-330.8" font-family="Times New Roman,serif" font-size="14.00">T6</text>
</g>
<!-- &#45;attrs6 -->
<g id="node15" class="node"><title>&#45;attrs6</title>
<polygon fill="none" stroke="gray" points="816.547,-497 683.547,-497 683.547,-448 822.547,-448 822.547,-491 816.547,-497"/>
<polyline fill="none" stroke="gray" points="816.547,-497 816.547,-491 "/>
<polyline fill="none" stroke="gray" points="822.547,-491 816.547,-491 "/>
<text text-anchor="start" x="694.047" y="-482.5" font-family="Times New Roman,serif" font-size="10.00">value:</text>
<text text-anchor="start" x="721.047" y="-482.5" font-family="Times New Roman,serif" font-size="10.00">&quot;[10000, 10001, 10000]&quot;</text>
<text text-anchor="start" x="694.047" y="-469.5" font-family="Times New Roman,serif" font-size="10.00">type:</text>
<text text-anchor="start" x="721.047" y="-469.5" font-family="Times New Roman,serif" font-size="10.00">&quot;name&quot;</text>
<text text-anchor="start" x="694.047" y="-456.5" font-family="Times New Roman,serif" font-size="10.00">label:</text>
<text text-anchor="start" x="721.047" y="-456.5" font-family="Times New Roman,serif" font-size="10.00">&quot;d&quot;</text>
</g>
<!-- &#45;attrs6&#45;&gt;http://example.org/d1 -->
<g id="edge14" class="edge"><title>&#45;attrs6&#45;&gt;http://example.org/d1</title>
<path fill="none" stroke="gray" stroke-dasharray="5,2" d="M735.285,-497.215C717.078,-521.524 689.289,-558.627 673.699,-579.442"/>
</g>
<!-- http://example.org/n3 -->
<g id="node16" class="node"><title>http://example.org/n3</title>
<g id="a_node16"><a xlink:href="http://example.org/n3" xlink:title="n3">
<ellipse fill="#fffc87" stroke="#808080" cx="409.047" cy="-596" rx="27" ry="18"/>
<text text-anchor="middle" x="409.047" y="-592.3" font-family="Times New Roman,serif" font-size="14.00">n3</text>
</a>
</g>
</g>
<!-- http://example.org/n3_v1 -->
<g id="node18" class="node"><title>http://example.org/n3_v1</title>
<g id="a_node18"><a xlink:href="http://example.org/n3_v1" xlink:title="n3_v1">
<ellipse fill="#32cd32" stroke="#808080" cx="467.047" cy="-683" rx="33.2948" ry="18"/>
<text text-anchor="middle" x="467.047" y="-679.3" font-family="Times New Roman,serif" font-size="14.00">n3_v1</text>
</a>
</g>
</g>
<!-- http://example.org/n3&#45;&gt;http://example.org/n3_v1 -->
<g id="edge18" class="edge"><title>http://example.org/n3&#45;&gt;http://example.org/n3_v1</title>
<path fill="none" stroke="darkgreen" d="M419.685,-612.59C428.243,-625.132 440.425,-642.986 450.291,-657.445"/>
<polygon fill="darkgreen" stroke="darkgreen" points="447.554,-659.643 456.082,-665.931 453.337,-655.698 447.554,-659.643"/>
<text text-anchor="middle" x="451.047" y="-635.8" font-family="Times New Roman,serif" font-size="14.00">ver</text>
</g>
<!-- &#45;attrs7 -->
<g id="node17" class="node"><title>&#45;attrs7</title>
<polygon fill="none" stroke="gray" points="449.047,-497 377.047,-497 377.047,-448 455.047,-448 455.047,-491 449.047,-497"/>
<polyline fill="none" stroke="gray" points="449.047,-497 449.047,-491 "/>
<polyline fill="none" stroke="gray" points="455.047,-491 449.047,-491 "/>
<text text-anchor="start" x="387.047" y="-482.5" font-family="Times New Roman,serif" font-size="10.00">value:</text>
<text text-anchor="start" x="414.047" y="-482.5" font-family="Times New Roman,serif" font-size="10.00">&quot;3&quot;</text>
<text text-anchor="start" x="387.047" y="-469.5" font-family="Times New Roman,serif" font-size="10.00">type:</text>
<text text-anchor="start" x="414.047" y="-469.5" font-family="Times New Roman,serif" font-size="10.00">&quot;literal&quot;</text>
<text text-anchor="start" x="387.047" y="-456.5" font-family="Times New Roman,serif" font-size="10.00">label:</text>
<text text-anchor="start" x="414.047" y="-456.5" font-family="Times New Roman,serif" font-size="10.00">&quot;3&quot;</text>
</g>
<!-- &#45;attrs7&#45;&gt;http://example.org/n3 -->
<g id="edge16" class="edge"><title>&#45;attrs7&#45;&gt;http://example.org/n3</title>
<path fill="none" stroke="gray" stroke-dasharray="5,2" d="M414.68,-497.215C413.312,-520.971 411.239,-556.947 410.026,-577.998"/>
</g>
<!-- &#45;attrs8 -->
<g id="node19" class="node"><title>&#45;attrs8</title>
<polygon fill="none" stroke="gray" points="535.547,-614 454.547,-614 454.547,-578 541.547,-578 541.547,-608 535.547,-614"/>
<polyline fill="none" stroke="gray" points="535.547,-614 535.547,-608 "/>
<polyline fill="none" stroke="gray" points="541.547,-608 535.547,-608 "/>
<text text-anchor="start" x="465.047" y="-600" font-family="Times New Roman,serif" font-size="10.00">value:</text>
<text text-anchor="start" x="492.047" y="-600" font-family="Times New Roman,serif" font-size="10.00">&quot;T10&quot;</text>
<text text-anchor="start" x="465.047" y="-587" font-family="Times New Roman,serif" font-size="10.00">type:</text>
<text text-anchor="start" x="492.047" y="-587" font-family="Times New Roman,serif" font-size="10.00">&quot;Version&quot;</text>
</g>
<!-- &#45;attrs8&#45;&gt;http://example.org/n3_v1 -->
<g id="edge17" class="edge"><title>&#45;attrs8&#45;&gt;http://example.org/n3_v1</title>
<path fill="none" stroke="gray" stroke-dasharray="5,2" d="M491.773,-614.201C486.36,-629.045 478.585,-650.363 473.205,-665.115"/>
</g>
<!-- http://example.org/n1_2 -->
<g id="node20" class="node"><title>http://example.org/n1_2</title>
<g id="a_node20"><a xlink:href="http://example.org/n1_2" xlink:title="n1_2">
<ellipse fill="#fffc87" stroke="#808080" cx="588.047" cy="-596" rx="28.6953" ry="18"/>
<text text-anchor="middle" x="588.047" y="-592.3" font-family="Times New Roman,serif" font-size="14.00">n1_2</text>
</a>
</g>
</g>
<!-- http://example.org/n1_2_v1 -->
<g id="node22" class="node"><title>http://example.org/n1_2_v1</title>
<g id="a_node22"><a xlink:href="http://example.org/n1_2_v1" xlink:title="n1_2_v1">
<ellipse fill="#32cd32" stroke="#808080" cx="590.047" cy="-683" rx="42.4939" ry="18"/>
<text text-anchor="middle" x="590.047" y="-679.3" font-family="Times New Roman,serif" font-size="14.00">n1_2_v1</text>
</a>
</g>
</g>
<!-- http://example.org/n1_2&#45;&gt;http://example.org/n1_2_v1 -->
<g id="edge21" class="edge"><title>http://example.org/n1_2&#45;&gt;http://example.org/n1_2_v1</title>
<path fill="none" stroke="darkgreen" d="M588.451,-614.201C588.725,-625.837 589.093,-641.452 589.406,-654.763"/>
<polygon fill="darkgreen" stroke="darkgreen" points="585.908,-654.91 589.643,-664.825 592.906,-654.745 585.908,-654.91"/>
<text text-anchor="middle" x="598.047" y="-635.8" font-family="Times New Roman,serif" font-size="14.00">ver</text>
</g>
<!-- &#45;attrs9 -->
<g id="node21" class="node"><title>&#45;attrs9</title>
<polygon fill="none" stroke="gray" points="621.047,-497 549.047,-497 549.047,-448 627.047,-448 627.047,-491 621.047,-497"/>
<polyline fill="none" stroke="gray" points="621.047,-497 621.047,-491 "/>
<polyline fill="none" stroke="gray" points="627.047,-491 621.047,-491 "/>
<text text-anchor="start" x="559.047" y="-482.5" font-family="Times New Roman,serif" font-size="10.00">value:</text>
<text text-anchor="start" x="586.047" y="-482.5" font-family="Times New Roman,serif" font-size="10.00">&quot;1&quot;</text>
<text text-anchor="start" x="559.047" y="-469.5" font-family="Times New Roman,serif" font-size="10.00">type:</text>
<text text-anchor="start" x="586.047" y="-469.5" font-family="Times New Roman,serif" font-size="10.00">&quot;literal&quot;</text>
<text text-anchor="start" x="559.047" y="-456.5" font-family="Times New Roman,serif" font-size="10.00">label:</text>
<text text-anchor="start" x="586.047" y="-456.5" font-family="Times New Roman,serif" font-size="10.00">&quot;1&quot;</text>
</g>
<!-- &#45;attrs9&#45;&gt;http://example.org/n1_2 -->
<g id="edge19" class="edge"><title>&#45;attrs9&#45;&gt;http://example.org/n1_2</title>
<path fill="none" stroke="gray" stroke-dasharray="5,2" d="M588.047,-497.215C588.047,-520.971 588.047,-556.947 588.047,-577.998"/>
</g>
<!-- &#45;attrs10 -->
<g id="node23" class="node"><title>&#45;attrs10</title>
<polygon fill="none" stroke="gray" points="788.547,-614 707.547,-614 707.547,-578 794.547,-578 794.547,-608 788.547,-614"/>
<polyline fill="none" stroke="gray" points="788.547,-614 788.547,-608 "/>
<polyline fill="none" stroke="gray" points="794.547,-608 788.547,-608 "/>
<text text-anchor="start" x="718.047" y="-600" font-family="Times New Roman,serif" font-size="10.00">value:</text>
<text text-anchor="start" x="745.047" y="-600" font-family="Times New Roman,serif" font-size="10.00">&quot;T11&quot;</text>
<text text-anchor="start" x="718.047" y="-587" font-family="Times New Roman,serif" font-size="10.00">type:</text>
<text text-anchor="start" x="745.047" y="-587" font-family="Times New Roman,serif" font-size="10.00">&quot;Version&quot;</text>
</g>
<!-- &#45;attrs10&#45;&gt;http://example.org/n1_2_v1 -->
<g id="edge20" class="edge"><title>&#45;attrs10&#45;&gt;http://example.org/n1_2_v1</title>
<path fill="none" stroke="gray" stroke-dasharray="5,2" d="M718.466,-614.201C688.052,-630.258 643.291,-653.89 615.444,-668.592"/>
</g>
<!-- http://example.org/d_ac1_1 -->
<g id="node24" class="node"><title>http://example.org/d_ac1_1</title>
<g id="a_node24"><a xlink:href="http://example.org/d_ac1_1" xlink:title="d_ac1_1">
<ellipse fill="#fffc87" stroke="#808080" cx="362.047" cy="-393" rx="42.4939" ry="18"/>
<text text-anchor="middle" x="362.047" y="-389.3" font-family="Times New Roman,serif" font-size="14.00">d_ac1_1</text>
</a>
</g>
</g>
<!-- http://example.org/d_ac1_1&#45;&gt;http://example.org/n3 -->
<g id="edge33" class="edge"><title>http://example.org/d_ac1_1&#45;&gt;http://example.org/n3</title>
<path fill="none" stroke="darkgreen" d="M349.541,-410.499C342.605,-420.708 334.667,-434.421 331.047,-448 325.436,-469.043 323.864,-476.441 331.047,-497 341.778,-527.715 366.611,-556.004 385.395,-574.21"/>
<polygon fill="darkgreen" stroke="darkgreen" points="383.332,-577.074 393.016,-581.372 388.126,-571.973 383.332,-577.074"/>
<text text-anchor="middle" x="349.547" y="-476.3" font-family="Times New Roman,serif" font-size="14.00">der ref</text>
<text text-anchor="middle" x="349.547" y="-461.3" font-family="Times New Roman,serif" font-size="14.00">T12</text>
</g>
<!-- http://example.org/assign4 -->
<g id="node29" class="node"><title>http://example.org/assign4</title>
<g id="a_node29"><a xlink:href="http://example.org/assign4" xlink:title="assign4">
<polygon fill="#9fb1fc" stroke="#0000ff" points="531.047,-490.5 473.047,-490.5 473.047,-454.5 531.047,-454.5 531.047,-490.5"/>
<text text-anchor="middle" x="502.047" y="-468.8" font-family="Times New Roman,serif" font-size="14.00">assign4</text>
</a>
</g>
</g>
<!-- http://example.org/d_ac1_1&#45;&gt;http://example.org/assign4 -->
<g id="edge32" class="edge"><title>http://example.org/d_ac1_1&#45;&gt;http://example.org/assign4</title>
<path fill="none" stroke="black" d="M388.301,-407.286C409.058,-417.936 438.665,-433.455 464.047,-448 464.703,-448.376 465.364,-448.758 466.029,-449.143"/>
<polygon fill="black" stroke="black" points="464.394,-452.243 474.78,-454.335 467.966,-446.223 464.394,-452.243"/>
<text text-anchor="middle" x="400.915" y="-397.268" font-family="Times New Roman,serif" font-size="8.00">gen</text>
</g>
<!-- &#45;attrs11 -->
<g id="node25" class="node"><title>&#45;attrs11</title>
<polygon fill="none" stroke="gray" points="415.047,-309 337.047,-309 337.047,-260 421.047,-260 421.047,-303 415.047,-309"/>
<polyline fill="none" stroke="gray" points="415.047,-309 415.047,-303 "/>
<polyline fill="none" stroke="gray" points="421.047,-303 415.047,-303 "/>
<text text-anchor="start" x="347.047" y="-294.5" font-family="Times New Roman,serif" font-size="10.00">value:</text>
<text text-anchor="start" x="374.047" y="-294.5" font-family="Times New Roman,serif" font-size="10.00">&quot;3&quot;</text>
<text text-anchor="start" x="347.047" y="-281.5" font-family="Times New Roman,serif" font-size="10.00">type:</text>
<text text-anchor="start" x="374.047" y="-281.5" font-family="Times New Roman,serif" font-size="10.00">&quot;access&quot;</text>
<text text-anchor="start" x="347.047" y="-268.5" font-family="Times New Roman,serif" font-size="10.00">label:</text>
<text text-anchor="start" x="374.047" y="-268.5" font-family="Times New Roman,serif" font-size="10.00">&quot;d[1]&quot;</text>
</g>
<!-- &#45;attrs11&#45;&gt;http://example.org/d_ac1_1 -->
<g id="edge22" class="edge"><title>&#45;attrs11&#45;&gt;http://example.org/d_ac1_1</title>
<path fill="none" stroke="gray" stroke-dasharray="5,2" d="M375.274,-309.136C372.105,-328.991 367.65,-356.9 364.805,-374.719"/>
</g>
<!-- bn1 -->
<g id="node28" class="node"><title>bn1</title>
<ellipse fill="black" stroke="black" cx="317.047" cy="-284.5" rx="1.8" ry="1.8"/>
</g>
<!-- http://example.org/list1_v2&#45;&gt;bn1 -->
<g id="edge24" class="edge"><title>http://example.org/list1_v2&#45;&gt;bn1</title>
<path fill="none" stroke="darkgreen" d="M326.79,-209.21C323.585,-233.645 318.009,-276.164 317.157,-282.658"/>
<text text-anchor="middle" x="307.29" y="-213.01" font-family="Times New Roman,serif" font-size="14.00">der&#45;ins</text>
</g>
<!-- &#45;attrs12 -->
<g id="node27" class="node"><title>&#45;attrs12</title>
<polygon fill="none" stroke="gray" points="274.547,-122 193.547,-122 193.547,-86 280.547,-86 280.547,-116 274.547,-122"/>
<polyline fill="none" stroke="gray" points="274.547,-122 274.547,-116 "/>
<polyline fill="none" stroke="gray" points="280.547,-116 274.547,-116 "/>
<text text-anchor="start" x="204.047" y="-108" font-family="Times New Roman,serif" font-size="10.00">value:</text>
<text text-anchor="start" x="231.047" y="-108" font-family="Times New Roman,serif" font-size="10.00">&quot;T12&quot;</text>
<text text-anchor="start" x="204.047" y="-95" font-family="Times New Roman,serif" font-size="10.00">type:</text>
<text text-anchor="start" x="231.047" y="-95" font-family="Times New Roman,serif" font-size="10.00">&quot;Version&quot;</text>
</g>
<!-- &#45;attrs12&#45;&gt;http://example.org/list1_v2 -->
<g id="edge23" class="edge"><title>&#45;attrs12&#45;&gt;http://example.org/list1_v2</title>
<path fill="none" stroke="gray" stroke-dasharray="5,2" d="M255.664,-122.201C272.256,-137.53 296.32,-159.763 312.313,-174.539"/>
</g>
<!-- bn1&#45;&gt;http://example.org/list1_v1 -->
<g id="edge25" class="edge"><title>bn1&#45;&gt;http://example.org/list1_v1</title>
<path fill="none" stroke="darkgreen" d="M316.592,-286.594C313.693,-293.487 297.24,-331.448 276.047,-357 272.143,-361.707 267.56,-366.292 262.9,-370.509"/>
<polygon fill="darkgreen" stroke="darkgreen" points="260.396,-368.047 255.091,-377.218 264.957,-373.357 260.396,-368.047"/>
<text text-anchor="middle" x="306.547" y="-338.3" font-family="Times New Roman,serif" font-size="14.00">der</text>
</g>
<!-- bn1&#45;&gt;http://example.org/d_ac1_1 -->
<g id="edge26" class="edge"><title>bn1&#45;&gt;http://example.org/d_ac1_1</title>
<path fill="none" stroke="darkgreen" d="M317.552,-286.696C320.783,-294.341 338.789,-336.957 350.882,-365.577"/>
<polygon fill="darkgreen" stroke="darkgreen" points="347.763,-367.187 354.879,-375.036 354.211,-364.463 347.763,-367.187"/>
<text text-anchor="middle" x="355.047" y="-338.3" font-family="Times New Roman,serif" font-size="14.00">[1]</text>
</g>
<!-- http://example.org/assign4&#45;&gt;http://example.org/d1 -->
<g id="edge29" class="edge"><title>http://example.org/assign4&#45;&gt;http://example.org/d1</title>
<path fill="none" stroke="black" d="M524.631,-490.65C554.237,-513.132 606.015,-552.451 636.858,-575.872"/>
<polygon fill="black" stroke="black" points="634.886,-578.769 644.967,-582.03 639.119,-573.195 634.886,-578.769"/>
<text text-anchor="middle" x="538.461" y="-482.94" font-family="Times New Roman,serif" font-size="8.00">use</text>
</g>
<!-- http://example.org/assign4&#45;&gt;http://example.org/n3 -->
<g id="edge31" class="edge"><title>http://example.org/assign4&#45;&gt;http://example.org/n3</title>
<path fill="none" stroke="darkgreen" d="M488.919,-490.65C472.777,-511.74 445.293,-547.646 427.152,-571.347"/>
<polygon fill="darkgreen" stroke="darkgreen" points="424.228,-569.408 420.929,-579.476 429.787,-573.663 424.228,-569.408"/>
<text text-anchor="middle" x="485.547" y="-548.8" font-family="Times New Roman,serif" font-size="14.00">use</text>
<text text-anchor="middle" x="485.547" y="-533.8" font-family="Times New Roman,serif" font-size="14.00">d1[1]</text>
<text text-anchor="middle" x="485.547" y="-518.8" font-family="Times New Roman,serif" font-size="14.00">T12</text>
</g>
<!-- http://example.org/assign4&#45;&gt;http://example.org/n1_2 -->
<g id="edge30" class="edge"><title>http://example.org/assign4&#45;&gt;http://example.org/n1_2</title>
<path fill="none" stroke="black" d="M504.269,-490.765C507.436,-509.524 514.781,-539.545 531.047,-560 537.66,-568.317 546.828,-575.159 555.879,-580.519"/>
<polygon fill="black" stroke="black" points="554.338,-583.666 564.792,-585.385 557.692,-577.521 554.338,-583.666"/>
<text text-anchor="middle" x="518.391" y="-493.922" font-family="Times New Roman,serif" font-size="8.00">use</text>
</g>
<!-- &#45;attrs13 -->
<g id="node30" class="node"><title>&#45;attrs13</title>
<polygon fill="none" stroke="gray" points="535.547,-411 462.547,-411 462.547,-375 541.547,-375 541.547,-405 535.547,-411"/>
<polyline fill="none" stroke="gray" points="535.547,-411 535.547,-405 "/>
<polyline fill="none" stroke="gray" points="541.547,-405 535.547,-405 "/>
<text text-anchor="start" x="473.047" y="-390" font-family="Times New Roman,serif" font-size="10.00">type:</text>
<text text-anchor="start" x="496.047" y="-390" font-family="Times New Roman,serif" font-size="10.00">&quot;assign&quot;</text>
</g>
<!-- &#45;attrs13&#45;&gt;http://example.org/assign4 -->
<g id="edge28" class="edge"><title>&#45;attrs13&#45;&gt;http://example.org/assign4</title>
<path fill="none" stroke="gray" stroke-dasharray="5,2" d="M502.047,-411.2C502.047,-424.043 502.047,-441.517 502.047,-454.348"/>
</g>
</g>
</svg>
