<?xml version="1.0" encoding="UTF-8" standalone="no"?>
<!DOCTYPE svg PUBLIC "-//W3C//DTD SVG 1.1//EN"
 "http://www.w3.org/Graphics/SVG/1.1/DTD/svg11.dtd">
<!-- Generated by graphviz version 2.38.0 (20140413.2041)
 -->
<!-- Title: PROV Pages: 1 -->
<svg width="416pt" height="307pt"
 viewBox="0.00 0.00 416.49 307.00" xmlns="http://www.w3.org/2000/svg" xmlns:xlink="http://www.w3.org/1999/xlink">
<g id="graph0" class="graph" transform="scale(1 1) rotate(0) translate(4 303)">
<title>PROV</title>
<polygon fill="white" stroke="none" points="-4,4 -4,-303 412.49,-303 412.49,4 -4,4"/>
<!-- http://example.org/j1 -->
<g id="node1" class="node"><title>http://example.org/j1</title>
<g id="a_node1"><a xlink:href="http://example.org/j1" xlink:title="j1">
<ellipse fill="#fffc87" stroke="#808080" cx="225.49" cy="-91" rx="27" ry="18"/>
<text text-anchor="middle" x="225.49" y="-87.3" font-family="Times New Roman,serif" font-size="14.00">j1</text>
</a>
</g>
</g>
<!-- http://example.org/v1_1 -->
<g id="node3" class="node"><title>http://example.org/v1_1</title>
<ellipse fill="none" stroke="black" cx="255.49" cy="-208" rx="96.6831" ry="18"/>
<text text-anchor="middle" x="255.49" y="-204.3" font-family="Times New Roman,serif" font-size="14.00">http://example.org/v1_1</text>
</g>
<!-- http://example.org/j1&#45;&gt;http://example.org/v1_1 -->
<g id="edge2" class="edge"><title>http://example.org/j1&#45;&gt;http://example.org/v1_1</title>
<path fill="none" stroke="darkgreen" d="M229.917,-108.969C234.813,-127.739 242.768,-158.233 248.507,-180.23"/>
<polygon fill="darkgreen" stroke="darkgreen" points="245.134,-181.169 251.045,-189.962 251.908,-179.402 245.134,-181.169"/>
<text text-anchor="middle" x="326.99" y="-160.8" font-family="Times New Roman,serif" font-size="14.00">part</text>
<text text-anchor="middle" x="326.99" y="-145.8" font-family="Times New Roman,serif" font-size="14.00">v_range[1]</text>
<text text-anchor="middle" x="326.99" y="-130.8" font-family="Times New Roman,serif" font-size="14.00">2018&#45;02&#45;26T14:16:28.232932</text>
</g>
<!-- http://example.org/access8 -->
<g id="node4" class="node"><title>http://example.org/access8</title>
<g id="a_node4"><a xlink:href="http://example.org/access8" xlink:title="access8">
<polygon fill="#9fb1fc" stroke="#0000ff" points="140.99,-226 79.9902,-226 79.9902,-190 140.99,-190 140.99,-226"/>
<text text-anchor="middle" x="110.49" y="-204.3" font-family="Times New Roman,serif" font-size="14.00">access8</text>
</a>
</g>
</g>
<!-- http://example.org/j1&#45;&gt;http://example.org/access8 -->
<g id="edge5" class="edge"><title>http://example.org/j1&#45;&gt;http://example.org/access8</title>
<path fill="none" stroke="black" d="M210.925,-106.565C191.728,-125.762 157.697,-159.793 134.625,-182.865"/>
<polygon fill="black" stroke="black" points="132.148,-180.393 127.552,-189.939 137.098,-185.342 132.148,-180.393"/>
<text text-anchor="middle" x="214.808" y="-119.154" font-family="Times New Roman,serif" font-size="8.00">gen</text>
</g>
<!-- &#45;attrs0 -->
<g id="node2" class="node"><title>&#45;attrs0</title>
<polygon fill="none" stroke="gray" points="258.49,-36 186.49,-36 186.49,-0 264.49,-0 264.49,-30 258.49,-36"/>
<polyline fill="none" stroke="gray" points="258.49,-36 258.49,-30 "/>
<polyline fill="none" stroke="gray" points="264.49,-30 258.49,-30 "/>
<text text-anchor="start" x="196.49" y="-22" font-family="Times New Roman,serif" font-size="10.00">value:</text>
<text text-anchor="start" x="223.49" y="-22" font-family="Times New Roman,serif" font-size="10.00">&quot;j&quot;</text>
<text text-anchor="start" x="196.49" y="-9" font-family="Times New Roman,serif" font-size="10.00">type:</text>
<text text-anchor="start" x="223.49" y="-9" font-family="Times New Roman,serif" font-size="10.00">&quot;name&quot;</text>
</g>
<!-- &#45;attrs0&#45;&gt;http://example.org/j1 -->
<g id="edge1" class="edge"><title>&#45;attrs0&#45;&gt;http://example.org/j1</title>
<path fill="none" stroke="gray" stroke-dasharray="5,2" d="M225.49,-36.1871C225.49,-47.3501 225.49,-61.8398 225.49,-72.9712"/>
</g>
<!-- http://example.org/indexes0 -->
<g id="node6" class="node"><title>http://example.org/indexes0</title>
<ellipse fill="none" stroke="black" cx="110.49" cy="-281" rx="110.48" ry="18"/>
<text text-anchor="middle" x="110.49" y="-277.3" font-family="Times New Roman,serif" font-size="14.00">http://example.org/indexes0</text>
</g>
<!-- http://example.org/access8&#45;&gt;http://example.org/indexes0 -->
<g id="edge4" class="edge"><title>http://example.org/access8&#45;&gt;http://example.org/indexes0</title>
<path fill="none" stroke="black" d="M110.49,-226.187C110.49,-234.211 110.49,-243.953 110.49,-252.931"/>
<polygon fill="black" stroke="black" points="106.99,-252.971 110.49,-262.971 113.99,-252.971 106.99,-252.971"/>
<text text-anchor="middle" x="123.481" y="-231.787" font-family="Times New Roman,serif" font-size="8.00">use</text>
</g>
<!-- &#45;attrs1 -->
<g id="node5" class="node"><title>&#45;attrs1</title>
<polygon fill="none" stroke="gray" points="144.49,-109 70.4902,-109 70.4902,-73 150.49,-73 150.49,-103 144.49,-109"/>
<polyline fill="none" stroke="gray" points="144.49,-109 144.49,-103 "/>
<polyline fill="none" stroke="gray" points="150.49,-103 144.49,-103 "/>
<text text-anchor="start" x="80.4902" y="-88" font-family="Times New Roman,serif" font-size="10.00">type:</text>
<text text-anchor="start" x="103.49" y="-88" font-family="Times New Roman,serif" font-size="10.00">&quot;access&quot;</text>
</g>
<!-- &#45;attrs1&#45;&gt;http://example.org/access8 -->
<g id="edge3" class="edge"><title>&#45;attrs1&#45;&gt;http://example.org/access8</title>
<path fill="none" stroke="gray" stroke-dasharray="5,2" d="M110.49,-109.466C110.49,-131.207 110.49,-168.105 110.49,-189.746"/>
</g>
</g>
</svg>
