<?xml version="1.0" encoding="UTF-8" standalone="no"?>
<!DOCTYPE svg PUBLIC "-//W3C//DTD SVG 1.1//EN"
 "http://www.w3.org/Graphics/SVG/1.1/DTD/svg11.dtd">
<!-- Generated by graphviz version 2.38.0 (20140413.2041)
 -->
<!-- Title: PROV Pages: 1 -->
<svg width="858pt" height="657pt"
 viewBox="0.00 0.00 858.23 657.00" xmlns="http://www.w3.org/2000/svg" xmlns:xlink="http://www.w3.org/1999/xlink">
<g id="graph0" class="graph" transform="scale(1 1) rotate(0) translate(4 653)">
<title>PROV</title>
<polygon fill="white" stroke="none" points="-4,4 -4,-653 854.235,-653 854.235,4 -4,4"/>
<!-- http://example.org/disti_ak1 -->
<g id="node1" class="node"><title>http://example.org/disti_ak1</title>
<g id="a_node1"><a xlink:href="http://example.org/disti_ak1" xlink:title="disti_ak1">
<ellipse fill="#fffc87" stroke="#808080" cx="192.092" cy="-441" rx="43.5923" ry="18"/>
<text text-anchor="middle" x="192.092" y="-437.3" font-family="Times New Roman,serif" font-size="14.00">disti_ak1</text>
</a>
</g>
</g>
<!-- http://example.org/v0 -->
<g id="node3" class="node"><title>http://example.org/v0</title>
<ellipse fill="none" stroke="black" cx="87.0923" cy="-558" rx="87.1846" ry="18"/>
<text text-anchor="middle" x="87.0923" y="-554.3" font-family="Times New Roman,serif" font-size="14.00">http://example.org/v0</text>
</g>
<!-- http://example.org/disti_ak1&#45;&gt;http://example.org/v0 -->
<g id="edge2" class="edge"><title>http://example.org/disti_ak1&#45;&gt;http://example.org/v0</title>
<path fill="none" stroke="darkgreen" d="M149.22,-444.196C125.929,-447.845 98.9292,-456.595 84.0923,-477 73.1267,-492.081 74.478,-513.325 78.2483,-530.132"/>
<polygon fill="darkgreen" stroke="darkgreen" points="74.8955,-531.145 80.82,-539.928 81.6661,-529.368 74.8955,-531.145"/>
<text text-anchor="middle" x="165.592" y="-510.8" font-family="Times New Roman,serif" font-size="14.00">part</text>
<text text-anchor="middle" x="165.592" y="-495.8" font-family="Times New Roman,serif" font-size="14.00">row0[0]</text>
<text text-anchor="middle" x="165.592" y="-480.8" font-family="Times New Roman,serif" font-size="14.00">2018&#45;02&#45;26T14:41:53.581236</text>
</g>
<!-- http://example.org/access9 -->
<g id="node4" class="node"><title>http://example.org/access9</title>
<g id="a_node4"><a xlink:href="http://example.org/access9" xlink:title="access9">
<polygon fill="#9fb1fc" stroke="#0000ff" points="295.592,-576 234.592,-576 234.592,-540 295.592,-540 295.592,-576"/>
<text text-anchor="middle" x="265.092" y="-554.3" font-family="Times New Roman,serif" font-size="14.00">access9</text>
</a>
</g>
</g>
<!-- http://example.org/disti_ak1&#45;&gt;http://example.org/access9 -->
<g id="edge6" class="edge"><title>http://example.org/disti_ak1&#45;&gt;http://example.org/access9</title>
<path fill="none" stroke="black" d="M222.963,-453.906C233.421,-459.417 244.19,-467.004 251.092,-477 261.673,-492.324 265.063,-513.129 265.865,-529.681"/>
<polygon fill="black" stroke="black" points="262.369,-529.915 266.068,-539.844 269.368,-529.776 262.369,-529.915"/>
<text text-anchor="middle" x="235.771" y="-444.199" font-family="Times New Roman,serif" font-size="8.00">gen</text>
</g>
<!-- &#45;attrs0 -->
<g id="node2" class="node"><title>&#45;attrs0</title>
<polygon fill="none" stroke="gray" points="199.092,-386 121.092,-386 121.092,-350 205.092,-350 205.092,-380 199.092,-386"/>
<polyline fill="none" stroke="gray" points="199.092,-386 199.092,-380 "/>
<polyline fill="none" stroke="gray" points="205.092,-380 199.092,-380 "/>
<text text-anchor="start" x="131.092" y="-372" font-family="Times New Roman,serif" font-size="10.00">value:</text>
<text text-anchor="start" x="158.092" y="-372" font-family="Times New Roman,serif" font-size="10.00">&quot;disti[k]&quot;</text>
<text text-anchor="start" x="131.092" y="-359" font-family="Times New Roman,serif" font-size="10.00">type:</text>
<text text-anchor="start" x="158.092" y="-359" font-family="Times New Roman,serif" font-size="10.00">&quot;access&quot;</text>
</g>
<!-- &#45;attrs0&#45;&gt;http://example.org/disti_ak1 -->
<g id="edge1" class="edge"><title>&#45;attrs0&#45;&gt;http://example.org/disti_ak1</title>
<path fill="none" stroke="gray" stroke-dasharray="5,2" d="M170.112,-386.187C174.672,-397.35 180.59,-411.84 185.137,-422.971"/>
</g>
<!-- http://example.org/disti0 -->
<g id="node6" class="node"><title>http://example.org/disti0</title>
<ellipse fill="none" stroke="black" cx="122.092" cy="-631" rx="98.2828" ry="18"/>
<text text-anchor="middle" x="122.092" y="-627.3" font-family="Times New Roman,serif" font-size="14.00">http://example.org/disti0</text>
</g>
<!-- http://example.org/access9&#45;&gt;http://example.org/disti0 -->
<g id="edge4" class="edge"><title>http://example.org/access9&#45;&gt;http://example.org/disti0</title>
<path fill="none" stroke="black" d="M234.415,-574.231C213.714,-584.509 186.147,-598.196 163.505,-609.439"/>
<polygon fill="black" stroke="black" points="161.857,-606.349 154.457,-613.931 164.97,-612.619 161.857,-606.349"/>
<text text-anchor="middle" x="233.475" y="-587.302" font-family="Times New Roman,serif" font-size="8.00">use</text>
</g>
<!-- http://example.org/k0 -->
<g id="node7" class="node"><title>http://example.org/k0</title>
<ellipse fill="none" stroke="black" cx="325.092" cy="-631" rx="87.1846" ry="18"/>
<text text-anchor="middle" x="325.092" y="-627.3" font-family="Times New Roman,serif" font-size="14.00">http://example.org/k0</text>
</g>
<!-- http://example.org/access9&#45;&gt;http://example.org/k0 -->
<g id="edge5" class="edge"><title>http://example.org/access9&#45;&gt;http://example.org/k0</title>
<path fill="none" stroke="black" d="M279.617,-576.187C286.987,-584.908 296.072,-595.66 304.18,-605.254"/>
<polygon fill="black" stroke="black" points="301.574,-607.592 310.702,-612.971 306.92,-603.074 301.574,-607.592"/>
<text text-anchor="middle" x="294.38" y="-571.631" font-family="Times New Roman,serif" font-size="8.00">use</text>
</g>
<!-- &#45;attrs1 -->
<g id="node5" class="node"><title>&#45;attrs1</title>
<polygon fill="none" stroke="gray" points="328.092,-459 254.092,-459 254.092,-423 334.092,-423 334.092,-453 328.092,-459"/>
<polyline fill="none" stroke="gray" points="328.092,-459 328.092,-453 "/>
<polyline fill="none" stroke="gray" points="334.092,-453 328.092,-453 "/>
<text text-anchor="start" x="264.092" y="-438" font-family="Times New Roman,serif" font-size="10.00">type:</text>
<text text-anchor="start" x="287.092" y="-438" font-family="Times New Roman,serif" font-size="10.00">&quot;access&quot;</text>
</g>
<!-- &#45;attrs1&#45;&gt;http://example.org/access9 -->
<g id="edge3" class="edge"><title>&#45;attrs1&#45;&gt;http://example.org/access9</title>
<path fill="none" stroke="gray" stroke-dasharray="5,2" d="M291.876,-459.081C289.524,-475.434 285.286,-500.696 279.092,-522 277.375,-527.907 275.031,-534.195 272.753,-539.788"/>
</g>
<!-- http://example.org/distk_aj1 -->
<g id="node8" class="node"><title>http://example.org/distk_aj1</title>
<g id="a_node8"><a xlink:href="http://example.org/distk_aj1" xlink:title="distk_aj1">
<ellipse fill="#fffc87" stroke="#808080" cx="401.092" cy="-441" rx="43.5923" ry="18"/>
<text text-anchor="middle" x="401.092" y="-437.3" font-family="Times New Roman,serif" font-size="14.00">distk_aj1</text>
</a>
</g>
</g>
<!-- http://example.org/v1 -->
<g id="node10" class="node"><title>http://example.org/v1</title>
<ellipse fill="none" stroke="black" cx="401.092" cy="-558" rx="87.1846" ry="18"/>
<text text-anchor="middle" x="401.092" y="-554.3" font-family="Times New Roman,serif" font-size="14.00">http://example.org/v1</text>
</g>
<!-- http://example.org/distk_aj1&#45;&gt;http://example.org/v1 -->
<g id="edge8" class="edge"><title>http://example.org/distk_aj1&#45;&gt;http://example.org/v1</title>
<path fill="none" stroke="darkgreen" d="M401.092,-459.466C401.092,-478.064 401.092,-507.756 401.092,-529.499"/>
<polygon fill="darkgreen" stroke="darkgreen" points="397.592,-529.746 401.092,-539.746 404.592,-529.746 397.592,-529.746"/>
<text text-anchor="middle" x="482.592" y="-510.8" font-family="Times New Roman,serif" font-size="14.00">part</text>
<text text-anchor="middle" x="482.592" y="-495.8" font-family="Times New Roman,serif" font-size="14.00">row0[1]</text>
<text text-anchor="middle" x="482.592" y="-480.8" font-family="Times New Roman,serif" font-size="14.00">2018&#45;02&#45;26T14:41:53.581236</text>
</g>
<!-- http://example.org/access10 -->
<g id="node11" class="node"><title>http://example.org/access10</title>
<g id="a_node11"><a xlink:href="http://example.org/access10" xlink:title="access10">
<polygon fill="#9fb1fc" stroke="#0000ff" points="626.092,-576 558.092,-576 558.092,-540 626.092,-540 626.092,-576"/>
<text text-anchor="middle" x="592.092" y="-554.3" font-family="Times New Roman,serif" font-size="14.00">access10</text>
</a>
</g>
</g>
<!-- http://example.org/distk_aj1&#45;&gt;http://example.org/access10 -->
<g id="edge12" class="edge"><title>http://example.org/distk_aj1&#45;&gt;http://example.org/access10</title>
<path fill="none" stroke="black" d="M442.893,-446.205C485.354,-451.282 547.322,-461.168 565.092,-477 580.047,-490.324 586.73,-512.216 589.71,-529.733"/>
<polygon fill="black" stroke="black" points="586.288,-530.535 591.128,-539.96 593.222,-529.574 586.288,-530.535"/>
<text text-anchor="middle" x="451.957" y="-432.353" font-family="Times New Roman,serif" font-size="8.00">gen</text>
</g>
<!-- &#45;attrs2 -->
<g id="node9" class="node"><title>&#45;attrs2</title>
<polygon fill="none" stroke="gray" points="698.092,-386 620.092,-386 620.092,-350 704.092,-350 704.092,-380 698.092,-386"/>
<polyline fill="none" stroke="gray" points="698.092,-386 698.092,-380 "/>
<polyline fill="none" stroke="gray" points="704.092,-380 698.092,-380 "/>
<text text-anchor="start" x="630.092" y="-372" font-family="Times New Roman,serif" font-size="10.00">value:</text>
<text text-anchor="start" x="657.092" y="-372" font-family="Times New Roman,serif" font-size="10.00">&quot;distk[j]&quot;</text>
<text text-anchor="start" x="630.092" y="-359" font-family="Times New Roman,serif" font-size="10.00">type:</text>
<text text-anchor="start" x="657.092" y="-359" font-family="Times New Roman,serif" font-size="10.00">&quot;access&quot;</text>
</g>
<!-- &#45;attrs2&#45;&gt;http://example.org/distk_aj1 -->
<g id="edge7" class="edge"><title>&#45;attrs2&#45;&gt;http://example.org/distk_aj1</title>
<path fill="none" stroke="gray" stroke-dasharray="5,2" d="M619.863,-383.33C616.902,-384.256 613.957,-385.155 611.092,-386 550.973,-403.726 480.224,-421.237 438.103,-431.314"/>
</g>
<!-- http://example.org/distk0 -->
<g id="node13" class="node"><title>http://example.org/distk0</title>
<ellipse fill="none" stroke="black" cx="561.092" cy="-631" rx="100.983" ry="18"/>
<text text-anchor="middle" x="561.092" y="-627.3" font-family="Times New Roman,serif" font-size="14.00">http://example.org/distk0</text>
</g>
<!-- http://example.org/access10&#45;&gt;http://example.org/distk0 -->
<g id="edge10" class="edge"><title>http://example.org/access10&#45;&gt;http://example.org/distk0</title>
<path fill="none" stroke="black" d="M584.588,-576.187C581.009,-584.385 576.646,-594.377 572.656,-603.515"/>
<polygon fill="black" stroke="black" points="569.321,-602.406 568.527,-612.971 575.736,-605.207 569.321,-602.406"/>
<text text-anchor="middle" x="593.492" y="-586.359" font-family="Times New Roman,serif" font-size="8.00">use</text>
</g>
<!-- http://example.org/j1 -->
<g id="node14" class="node"><title>http://example.org/j1</title>
<ellipse fill="none" stroke="black" cx="765.092" cy="-631" rx="85.2851" ry="18"/>
<text text-anchor="middle" x="765.092" y="-627.3" font-family="Times New Roman,serif" font-size="14.00">http://example.org/j1</text>
</g>
<!-- http://example.org/access10&#45;&gt;http://example.org/j1 -->
<g id="edge11" class="edge"><title>http://example.org/access10&#45;&gt;http://example.org/j1</title>
<path fill="none" stroke="black" d="M626.272,-573.027C652.636,-583.847 689.387,-598.93 718.453,-610.859"/>
<polygon fill="black" stroke="black" points="717.409,-614.214 727.989,-614.773 720.067,-607.738 717.409,-614.214"/>
<text text-anchor="middle" x="638.142" y="-561.957" font-family="Times New Roman,serif" font-size="8.00">use</text>
</g>
<!-- &#45;attrs3 -->
<g id="node12" class="node"><title>&#45;attrs3</title>
<polygon fill="none" stroke="gray" points="638.092,-459 564.092,-459 564.092,-423 644.092,-423 644.092,-453 638.092,-459"/>
<polyline fill="none" stroke="gray" points="638.092,-459 638.092,-453 "/>
<polyline fill="none" stroke="gray" points="644.092,-453 638.092,-453 "/>
<text text-anchor="start" x="574.092" y="-438" font-family="Times New Roman,serif" font-size="10.00">type:</text>
<text text-anchor="start" x="597.092" y="-438" font-family="Times New Roman,serif" font-size="10.00">&quot;access&quot;</text>
</g>
<!-- &#45;attrs3&#45;&gt;http://example.org/access10 -->
<g id="edge9" class="edge"><title>&#45;attrs3&#45;&gt;http://example.org/access10</title>
<path fill="none" stroke="gray" stroke-dasharray="5,2" d="M602.27,-459.466C600.001,-481.207 596.151,-518.105 593.893,-539.746"/>
</g>
<!-- http://example.org/sum1 -->
<g id="node15" class="node"><title>http://example.org/sum1</title>
<g id="a_node15"><a xlink:href="http://example.org/sum1" xlink:title="sum1">
<ellipse fill="#fffc87" stroke="#808080" cx="360.092" cy="-266" rx="30.5947" ry="18"/>
<text text-anchor="middle" x="360.092" y="-262.3" font-family="Times New Roman,serif" font-size="14.00">sum1</text>
</a>
</g>
</g>
<!-- http://example.org/sum1&#45;&gt;http://example.org/disti_ak1 -->
<g id="edge19" class="edge"><title>http://example.org/sum1&#45;&gt;http://example.org/disti_ak1</title>
<path fill="none" stroke="black" d="M352.916,-283.78C341.644,-308.589 317.768,-355.411 286.092,-386 270.183,-401.364 249.072,-414.001 230.887,-423.178"/>
<polygon fill="black" stroke="black" points="229.146,-420.133 221.687,-427.657 232.21,-426.426 229.146,-420.133"/>
<text text-anchor="middle" x="361.527" y="-294.162" font-family="Times New Roman,serif" font-size="8.00">der</text>
</g>
<!-- http://example.org/sum1&#45;&gt;http://example.org/distk_aj1 -->
<g id="edge21" class="edge"><title>http://example.org/sum1&#45;&gt;http://example.org/distk_aj1</title>
<path fill="none" stroke="black" d="M357.551,-283.995C356.06,-297.205 355.009,-315.922 358.092,-332 363.695,-361.22 377.105,-392.601 387.472,-413.965"/>
<polygon fill="black" stroke="black" points="384.395,-415.637 391.982,-423.032 390.662,-412.52 384.395,-415.637"/>
<text text-anchor="middle" x="369.692" y="-290.905" font-family="Times New Roman,serif" font-size="8.00">der</text>
</g>
<!-- http://example.org/vsum_1 -->
<g id="node17" class="node"><title>http://example.org/vsum_1</title>
<g id="a_node17"><a xlink:href="http://example.org/vsum_1" xlink:title="vsum_1">
<ellipse fill="#32cd32" stroke="#808080" cx="562.092" cy="-368" rx="39.7935" ry="18"/>
<text text-anchor="middle" x="562.092" y="-364.3" font-family="Times New Roman,serif" font-size="14.00">vsum_1</text>
</a>
</g>
</g>
<!-- http://example.org/sum1&#45;&gt;http://example.org/vsum_1 -->
<g id="edge15" class="edge"><title>http://example.org/sum1&#45;&gt;http://example.org/vsum_1</title>
<path fill="none" stroke="darkgreen" d="M359.798,-284.186C360.522,-298.983 364.046,-319.822 377.092,-332 396.349,-349.975 464.688,-359.189 512.673,-363.55"/>
<polygon fill="darkgreen" stroke="darkgreen" points="512.616,-367.058 522.88,-364.433 513.219,-360.084 512.616,-367.058"/>
<text text-anchor="middle" x="458.592" y="-320.8" font-family="Times New Roman,serif" font-size="14.00">defined</text>
<text text-anchor="middle" x="458.592" y="-305.8" font-family="Times New Roman,serif" font-size="14.00">2018&#45;02&#45;26T14:41:53.581236</text>
</g>
<!-- http://example.org/add1 -->
<g id="node19" class="node"><title>http://example.org/add1</title>
<g id="a_node19"><a xlink:href="http://example.org/add1" xlink:title="add1">
<polygon fill="#9fb1fc" stroke="#0000ff" points="277.092,-386 223.092,-386 223.092,-350 277.092,-350 277.092,-386"/>
<text text-anchor="middle" x="250.092" y="-364.3" font-family="Times New Roman,serif" font-size="14.00">add1</text>
</a>
</g>
</g>
<!-- http://example.org/sum1&#45;&gt;http://example.org/add1 -->
<g id="edge22" class="edge"><title>http://example.org/sum1&#45;&gt;http://example.org/add1</title>
<path fill="none" stroke="black" d="M334.886,-276.219C321.156,-282.112 304.489,-290.766 292.092,-302 280.075,-312.89 270.053,-327.961 262.817,-340.849"/>
<polygon fill="black" stroke="black" points="259.682,-339.289 258.051,-349.757 265.854,-342.591 259.682,-339.289"/>
<text text-anchor="middle" x="333.26" y="-289.231" font-family="Times New Roman,serif" font-size="8.00">gen</text>
</g>
<!-- &#45;attrs4 -->
<g id="node16" class="node"><title>&#45;attrs4</title>
<polygon fill="none" stroke="gray" points="560.092,-182 444.092,-182 444.092,-146 566.092,-146 566.092,-176 560.092,-182"/>
<polyline fill="none" stroke="gray" points="560.092,-182 560.092,-176 "/>
<polyline fill="none" stroke="gray" points="566.092,-176 560.092,-176 "/>
<text text-anchor="start" x="454.092" y="-168" font-family="Times New Roman,serif" font-size="10.00">value:</text>
<text text-anchor="start" x="481.092" y="-168" font-family="Times New Roman,serif" font-size="10.00">&quot;disti[k] + distk[j]&quot;</text>
<text text-anchor="start" x="454.092" y="-155" font-family="Times New Roman,serif" font-size="10.00">type:</text>
<text text-anchor="start" x="481.092" y="-155" font-family="Times New Roman,serif" font-size="10.00">&quot;sum&quot;</text>
</g>
<!-- &#45;attrs4&#45;&gt;http://example.org/sum1 -->
<g id="edge13" class="edge"><title>&#45;attrs4&#45;&gt;http://example.org/sum1</title>
<path fill="none" stroke="gray" stroke-dasharray="5,2" d="M480.166,-182.191C451.502,-201.959 405.074,-233.978 379.15,-251.857"/>
</g>
<!-- http://example.org/vsum_1&#45;&gt;http://example.org/sum1 -->
<g id="edge16" class="edge"><title>http://example.org/vsum_1&#45;&gt;http://example.org/sum1</title>
<path fill="none" stroke="darkgreen" d="M560.939,-349.726C558.995,-334.87 553.817,-313.995 540.092,-302 519.701,-284.179 446.913,-274.587 400.378,-270.157"/>
<polygon fill="darkgreen" stroke="darkgreen" points="400.58,-266.661 390.304,-269.239 399.945,-273.632 400.58,-266.661"/>
<text text-anchor="middle" x="639.592" y="-320.8" font-family="Times New Roman,serif" font-size="14.00">def by</text>
<text text-anchor="middle" x="639.592" y="-305.8" font-family="Times New Roman,serif" font-size="14.00">2018&#45;02&#45;26T14:41:53.581236</text>
</g>
<!-- &#45;attrs5 -->
<g id="node18" class="node"><title>&#45;attrs5</title>
<polygon fill="none" stroke="gray" points="817.592,-284 768.592,-284 768.592,-248 823.592,-248 823.592,-278 817.592,-284"/>
<polyline fill="none" stroke="gray" points="817.592,-284 817.592,-278 "/>
<polyline fill="none" stroke="gray" points="823.592,-278 817.592,-278 "/>
<text text-anchor="start" x="779.092" y="-263" font-family="Times New Roman,serif" font-size="10.00">repr:</text>
<text text-anchor="start" x="800.092" y="-263" font-family="Times New Roman,serif" font-size="10.00">&quot;1&quot;</text>
</g>
<!-- &#45;attrs5&#45;&gt;http://example.org/vsum_1 -->
<g id="edge14" class="edge"><title>&#45;attrs5&#45;&gt;http://example.org/vsum_1</title>
<path fill="none" stroke="gray" stroke-dasharray="5,2" d="M789.871,-284.194C783.401,-299.427 771.723,-320.917 754.092,-332 699.86,-366.09 673.469,-335.423 611.092,-350 604.604,-351.516 597.772,-353.577 591.338,-355.739"/>
</g>
<!-- http://example.org/add1&#45;&gt;http://example.org/disti_ak1 -->
<g id="edge18" class="edge"><title>http://example.org/add1&#45;&gt;http://example.org/disti_ak1</title>
<path fill="none" stroke="black" d="M236.052,-386.187C228.823,-395.036 219.886,-405.976 211.962,-415.677"/>
<polygon fill="black" stroke="black" points="209.22,-413.501 205.604,-423.46 214.641,-417.93 209.22,-413.501"/>
<text text-anchor="middle" x="241.368" y="-398.314" font-family="Times New Roman,serif" font-size="8.00">use</text>
</g>
<!-- http://example.org/add1&#45;&gt;http://example.org/distk_aj1 -->
<g id="edge20" class="edge"><title>http://example.org/add1&#45;&gt;http://example.org/distk_aj1</title>
<path fill="none" stroke="black" d="M277.437,-381.858C301.765,-393.297 337.542,-410.119 364.361,-422.729"/>
<polygon fill="black" stroke="black" points="362.902,-425.91 373.44,-426.998 365.88,-419.576 362.902,-425.91"/>
<text text-anchor="middle" x="289.752" y="-371.393" font-family="Times New Roman,serif" font-size="8.00">use</text>
</g>
<!-- &#45;attrs6 -->
<g id="node20" class="node"><title>&#45;attrs6</title>
<polygon fill="none" stroke="gray" points="278.092,-284 216.092,-284 216.092,-248 284.092,-248 284.092,-278 278.092,-284"/>
<polyline fill="none" stroke="gray" points="278.092,-284 278.092,-278 "/>
<polyline fill="none" stroke="gray" points="284.092,-278 278.092,-278 "/>
<text text-anchor="start" x="226.092" y="-263" font-family="Times New Roman,serif" font-size="10.00">type:</text>
<text text-anchor="start" x="249.092" y="-263" font-family="Times New Roman,serif" font-size="10.00">&quot;add&quot;</text>
</g>
<!-- &#45;attrs6&#45;&gt;http://example.org/add1 -->
<g id="edge17" class="edge"><title>&#45;attrs6&#45;&gt;http://example.org/add1</title>
<path fill="none" stroke="gray" stroke-dasharray="5,2" d="M250.092,-284.419C250.092,-302.773 250.092,-331.502 250.092,-349.781"/>
</g>
<!-- http://example.org/ikj1 -->
<g id="node21" class="node"><title>http://example.org/ikj1</title>
<g id="a_node21"><a xlink:href="http://example.org/ikj1" xlink:title="ikj1">
<ellipse fill="#fffc87" stroke="#808080" cx="399.092" cy="-91" rx="27" ry="18"/>
<text text-anchor="middle" x="399.092" y="-87.3" font-family="Times New Roman,serif" font-size="14.00">ikj1</text>
</a>
</g>
</g>
<!-- http://example.org/ikj1&#45;&gt;http://example.org/sum1 -->
<g id="edge27" class="edge"><title>http://example.org/ikj1&#45;&gt;http://example.org/sum1</title>
<path fill="none" stroke="black" d="M384.243,-106.54C375.043,-116.634 364.065,-130.932 359.092,-146 349.109,-176.25 351.514,-213.228 355.006,-237.857"/>
<polygon fill="black" stroke="black" points="351.577,-238.585 356.591,-247.918 358.492,-237.495 351.577,-238.585"/>
<text text-anchor="middle" x="388.958" y="-118.88" font-family="Times New Roman,serif" font-size="8.00">der</text>
</g>
<!-- http://example.org/ikj1&#45;&gt;http://example.org/vsum_1 -->
<g id="edge24" class="edge"><title>http://example.org/ikj1&#45;&gt;http://example.org/vsum_1</title>
<path fill="none" stroke="darkgreen" d="M425.262,-95.7872C461.215,-101.896 526.904,-116.366 575.092,-146 657.024,-196.385 689.157,-212.78 725.092,-302 730.074,-314.368 733.754,-321.863 725.092,-332 708.431,-351.498 635.972,-343.772 611.092,-350 607.904,-350.798 604.629,-351.714 601.356,-352.698"/>
<polygon fill="darkgreen" stroke="darkgreen" points="600.096,-349.427 591.636,-355.806 602.227,-356.094 600.096,-349.427"/>
<text text-anchor="middle" x="767.592" y="-218.8" font-family="Times New Roman,serif" font-size="14.00">access</text>
<text text-anchor="middle" x="767.592" y="-203.8" font-family="Times New Roman,serif" font-size="14.00">2018&#45;02&#45;26T14:41:53.581236</text>
</g>
<!-- http://example.org/assign8 -->
<g id="node23" class="node"><title>http://example.org/assign8</title>
<g id="a_node23"><a xlink:href="http://example.org/assign8" xlink:title="assign8">
<polygon fill="#9fb1fc" stroke="#0000ff" points="426.092,-182 368.092,-182 368.092,-146 426.092,-146 426.092,-182"/>
<text text-anchor="middle" x="397.092" y="-160.3" font-family="Times New Roman,serif" font-size="14.00">assign8</text>
</a>
</g>
</g>
<!-- http://example.org/ikj1&#45;&gt;http://example.org/assign8 -->
<g id="edge28" class="edge"><title>http://example.org/ikj1&#45;&gt;http://example.org/assign8</title>
<path fill="none" stroke="black" d="M398.608,-109.187C398.382,-117.211 398.108,-126.953 397.855,-135.931"/>
<polygon fill="black" stroke="black" points="394.355,-135.877 397.572,-145.971 401.352,-136.074 394.355,-135.877"/>
<text text-anchor="middle" x="411.382" y="-115.15" font-family="Times New Roman,serif" font-size="8.00">gen</text>
</g>
<!-- &#45;attrs7 -->
<g id="node22" class="node"><title>&#45;attrs7</title>
<polygon fill="none" stroke="gray" points="432.092,-36 360.092,-36 360.092,-0 438.092,-0 438.092,-30 432.092,-36"/>
<polyline fill="none" stroke="gray" points="432.092,-36 432.092,-30 "/>
<polyline fill="none" stroke="gray" points="438.092,-30 432.092,-30 "/>
<text text-anchor="start" x="370.092" y="-22" font-family="Times New Roman,serif" font-size="10.00">value:</text>
<text text-anchor="start" x="397.092" y="-22" font-family="Times New Roman,serif" font-size="10.00">&quot;ikj&quot;</text>
<text text-anchor="start" x="370.092" y="-9" font-family="Times New Roman,serif" font-size="10.00">type:</text>
<text text-anchor="start" x="397.092" y="-9" font-family="Times New Roman,serif" font-size="10.00">&quot;name&quot;</text>
</g>
<!-- &#45;attrs7&#45;&gt;http://example.org/ikj1 -->
<g id="edge23" class="edge"><title>&#45;attrs7&#45;&gt;http://example.org/ikj1</title>
<path fill="none" stroke="gray" stroke-dasharray="5,2" d="M399.092,-36.1871C399.092,-47.3501 399.092,-61.8398 399.092,-72.9712"/>
</g>
<!-- http://example.org/assign8&#45;&gt;http://example.org/sum1 -->
<g id="edge26" class="edge"><title>http://example.org/assign8&#45;&gt;http://example.org/sum1</title>
<path fill="none" stroke="black" d="M390.647,-182.419C384.936,-197.855 376.509,-220.631 369.951,-238.355"/>
<polygon fill="black" stroke="black" points="366.528,-237.521 366.34,-248.114 373.093,-239.95 366.528,-237.521"/>
<text text-anchor="middle" x="400.228" y="-192.06" font-family="Times New Roman,serif" font-size="8.00">use</text>
</g>
<!-- &#45;attrs8 -->
<g id="node24" class="node"><title>&#45;attrs8</title>
<polygon fill="none" stroke="gray" points="347.592,-109 274.592,-109 274.592,-73 353.592,-73 353.592,-103 347.592,-109"/>
<polyline fill="none" stroke="gray" points="347.592,-109 347.592,-103 "/>
<polyline fill="none" stroke="gray" points="353.592,-103 347.592,-103 "/>
<text text-anchor="start" x="285.092" y="-88" font-family="Times New Roman,serif" font-size="10.00">type:</text>
<text text-anchor="start" x="308.092" y="-88" font-family="Times New Roman,serif" font-size="10.00">&quot;assign&quot;</text>
</g>
<!-- &#45;attrs8&#45;&gt;http://example.org/assign8 -->
<g id="edge25" class="edge"><title>&#45;attrs8&#45;&gt;http://example.org/assign8</title>
<path fill="none" stroke="gray" stroke-dasharray="5,2" d="M334.184,-109.187C347.234,-120.35 364.173,-134.84 377.185,-145.971"/>
</g>
</g>
</svg>
