<?xml version="1.0" encoding="UTF-8" standalone="no"?>
<!DOCTYPE svg PUBLIC "-//W3C//DTD SVG 1.1//EN"
 "http://www.w3.org/Graphics/SVG/1.1/DTD/svg11.dtd">
<!-- Generated by graphviz version 2.38.0 (20140413.2041)
 -->
<!-- Title: PROV Pages: 1 -->
<svg width="900pt" height="657pt"
 viewBox="0.00 0.00 900.33 657.00" xmlns="http://www.w3.org/2000/svg" xmlns:xlink="http://www.w3.org/1999/xlink">
<g id="graph0" class="graph" transform="scale(1 1) rotate(0) translate(4 653)">
<title>PROV</title>
<polygon fill="white" stroke="none" points="-4,4 -4,-653 896.334,-653 896.334,4 -4,4"/>
<!-- http://example.org/disti_ak#13 -->
<g id="node1" class="node"><title>http://example.org/disti_ak#13</title>
<g id="a_node1"><a xlink:href="http://example.org/disti_ak#13" xlink:title="disti_ak#13">
<ellipse fill="#fffc87" stroke="#808080" cx="189.092" cy="-441" rx="52.7911" ry="18"/>
<text text-anchor="middle" x="189.092" y="-437.3" font-family="Times New Roman,serif" font-size="14.00">disti_ak#13</text>
</a>
</g>
</g>
<!-- http://example.org/v0 -->
<g id="node3" class="node"><title>http://example.org/v0</title>
<ellipse fill="none" stroke="black" cx="87.0923" cy="-558" rx="87.1846" ry="18"/>
<text text-anchor="middle" x="87.0923" y="-554.3" font-family="Times New Roman,serif" font-size="14.00">http://example.org/v0</text>
</g>
<!-- http://example.org/disti_ak#13&#45;&gt;http://example.org/v0 -->
<g id="edge2" class="edge"><title>http://example.org/disti_ak#13&#45;&gt;http://example.org/v0</title>
<path fill="none" stroke="darkgreen" d="M138.471,-446.252C118.153,-450.739 96.6197,-459.619 84.0923,-477 73.1898,-492.126 74.5381,-513.369 78.2912,-530.163"/>
<polygon fill="darkgreen" stroke="darkgreen" points="74.9345,-531.162 80.8508,-539.951 81.7068,-529.391 74.9345,-531.162"/>
<text text-anchor="middle" x="165.592" y="-510.8" font-family="Times New Roman,serif" font-size="14.00">part</text>
<text text-anchor="middle" x="165.592" y="-495.8" font-family="Times New Roman,serif" font-size="14.00">row1[1]</text>
<text text-anchor="middle" x="165.592" y="-480.8" font-family="Times New Roman,serif" font-size="14.00">2018&#45;03&#45;03T19:41:26.536361</text>
</g>
<!-- http://example.org/access64 -->
<g id="node4" class="node"><title>http://example.org/access64</title>
<g id="a_node4"><a xlink:href="http://example.org/access64" xlink:title="access64">
<polygon fill="#9fb1fc" stroke="#0000ff" points="299.092,-576 231.092,-576 231.092,-540 299.092,-540 299.092,-576"/>
<text text-anchor="middle" x="265.092" y="-554.3" font-family="Times New Roman,serif" font-size="14.00">access64</text>
</a>
</g>
</g>
<!-- http://example.org/disti_ak#13&#45;&gt;http://example.org/access64 -->
<g id="edge6" class="edge"><title>http://example.org/disti_ak#13&#45;&gt;http://example.org/access64</title>
<path fill="none" stroke="black" d="M223.775,-454.738C234.032,-460.117 244.317,-467.409 251.092,-477 261.837,-492.209 265.222,-513.018 265.98,-529.6"/>
<polygon fill="black" stroke="black" points="262.484,-529.846 266.151,-539.786 269.483,-529.729 262.484,-529.846"/>
<text text-anchor="middle" x="236.57" y="-445.008" font-family="Times New Roman,serif" font-size="8.00">gen</text>
</g>
<!-- &#45;attrs0 -->
<g id="node2" class="node"><title>&#45;attrs0</title>
<polygon fill="none" stroke="gray" points="194.592,-386 119.592,-386 119.592,-350 200.592,-350 200.592,-380 194.592,-386"/>
<polyline fill="none" stroke="gray" points="194.592,-386 194.592,-380 "/>
<polyline fill="none" stroke="gray" points="200.592,-380 194.592,-380 "/>
<text text-anchor="start" x="130.092" y="-372" font-family="Times New Roman,serif" font-size="10.00">type:</text>
<text text-anchor="start" x="154.092" y="-372" font-family="Times New Roman,serif" font-size="10.00">&quot;access&quot;</text>
<text text-anchor="start" x="130.092" y="-359" font-family="Times New Roman,serif" font-size="10.00">label:</text>
<text text-anchor="start" x="154.092" y="-359" font-family="Times New Roman,serif" font-size="10.00">&quot;disti[k]&quot;</text>
</g>
<!-- &#45;attrs0&#45;&gt;http://example.org/disti_ak#13 -->
<g id="edge1" class="edge"><title>&#45;attrs0&#45;&gt;http://example.org/disti_ak#13</title>
<path fill="none" stroke="gray" stroke-dasharray="5,2" d="M167.112,-386.187C171.672,-397.35 177.59,-411.84 182.137,-422.971"/>
</g>
<!-- http://example.org/disti#5 -->
<g id="node6" class="node"><title>http://example.org/disti#5</title>
<ellipse fill="none" stroke="black" cx="118.092" cy="-631" rx="102.882" ry="18"/>
<text text-anchor="middle" x="118.092" y="-627.3" font-family="Times New Roman,serif" font-size="14.00">http://example.org/disti#5</text>
</g>
<!-- http://example.org/access64&#45;&gt;http://example.org/disti#5 -->
<g id="edge4" class="edge"><title>http://example.org/access64&#45;&gt;http://example.org/disti#5</title>
<path fill="none" stroke="black" d="M230.998,-575.467C210.07,-585.575 183.09,-598.606 160.753,-609.395"/>
<polygon fill="black" stroke="black" points="158.977,-606.366 151.495,-613.867 162.022,-612.669 158.977,-606.366"/>
<text text-anchor="middle" x="229.894" y="-588.527" font-family="Times New Roman,serif" font-size="8.00">use</text>
</g>
<!-- http://example.org/k#2 -->
<g id="node7" class="node"><title>http://example.org/k#2</title>
<ellipse fill="none" stroke="black" cx="331.092" cy="-631" rx="92.0841" ry="18"/>
<text text-anchor="middle" x="331.092" y="-627.3" font-family="Times New Roman,serif" font-size="14.00">http://example.org/k#2</text>
</g>
<!-- http://example.org/access64&#45;&gt;http://example.org/k#2 -->
<g id="edge5" class="edge"><title>http://example.org/access64&#45;&gt;http://example.org/k#2</title>
<path fill="none" stroke="black" d="M281.069,-576.187C289.257,-584.995 299.37,-595.875 308.356,-605.542"/>
<polygon fill="black" stroke="black" points="305.891,-608.03 315.263,-612.971 311.018,-603.264 305.891,-608.03"/>
<text text-anchor="middle" x="295.69" y="-570.936" font-family="Times New Roman,serif" font-size="8.00">use</text>
</g>
<!-- &#45;attrs1 -->
<g id="node5" class="node"><title>&#45;attrs1</title>
<polygon fill="none" stroke="gray" points="334.092,-459 260.092,-459 260.092,-423 340.092,-423 340.092,-453 334.092,-459"/>
<polyline fill="none" stroke="gray" points="334.092,-459 334.092,-453 "/>
<polyline fill="none" stroke="gray" points="340.092,-453 334.092,-453 "/>
<text text-anchor="start" x="270.092" y="-438" font-family="Times New Roman,serif" font-size="10.00">type:</text>
<text text-anchor="start" x="293.092" y="-438" font-family="Times New Roman,serif" font-size="10.00">&quot;access&quot;</text>
</g>
<!-- &#45;attrs1&#45;&gt;http://example.org/access64 -->
<g id="edge3" class="edge"><title>&#45;attrs1&#45;&gt;http://example.org/access64</title>
<path fill="none" stroke="gray" stroke-dasharray="5,2" d="M296.268,-459.033C292.453,-475.352 286.154,-500.59 279.092,-522 277.165,-527.842 274.766,-534.113 272.501,-539.71"/>
</g>
<!-- http://example.org/distk_aj#13 -->
<g id="node8" class="node"><title>http://example.org/distk_aj#13</title>
<g id="a_node8"><a xlink:href="http://example.org/distk_aj#13" xlink:title="distk_aj#13">
<ellipse fill="#fffc87" stroke="#808080" cx="422.092" cy="-441" rx="52.7911" ry="18"/>
<text text-anchor="middle" x="422.092" y="-437.3" font-family="Times New Roman,serif" font-size="14.00">distk_aj#13</text>
</a>
</g>
</g>
<!-- http://example.org/v10000 -->
<g id="node10" class="node"><title>http://example.org/v10000</title>
<ellipse fill="none" stroke="black" cx="422.092" cy="-558" rx="104.782" ry="18"/>
<text text-anchor="middle" x="422.092" y="-554.3" font-family="Times New Roman,serif" font-size="14.00">http://example.org/v10000</text>
</g>
<!-- http://example.org/distk_aj#13&#45;&gt;http://example.org/v10000 -->
<g id="edge8" class="edge"><title>http://example.org/distk_aj#13&#45;&gt;http://example.org/v10000</title>
<path fill="none" stroke="darkgreen" d="M422.092,-459.466C422.092,-478.064 422.092,-507.756 422.092,-529.499"/>
<polygon fill="darkgreen" stroke="darkgreen" points="418.592,-529.746 422.092,-539.746 425.592,-529.746 418.592,-529.746"/>
<text text-anchor="middle" x="503.592" y="-510.8" font-family="Times New Roman,serif" font-size="14.00">part</text>
<text text-anchor="middle" x="503.592" y="-495.8" font-family="Times New Roman,serif" font-size="14.00">row1[0]</text>
<text text-anchor="middle" x="503.592" y="-480.8" font-family="Times New Roman,serif" font-size="14.00">2018&#45;03&#45;03T19:41:26.536361</text>
</g>
<!-- http://example.org/access65 -->
<g id="node11" class="node"><title>http://example.org/access65</title>
<g id="a_node11"><a xlink:href="http://example.org/access65" xlink:title="access65">
<polygon fill="#9fb1fc" stroke="#0000ff" points="647.092,-576 579.092,-576 579.092,-540 647.092,-540 647.092,-576"/>
<text text-anchor="middle" x="613.092" y="-554.3" font-family="Times New Roman,serif" font-size="14.00">access65</text>
</a>
</g>
</g>
<!-- http://example.org/distk_aj#13&#45;&gt;http://example.org/access65 -->
<g id="edge12" class="edge"><title>http://example.org/distk_aj#13&#45;&gt;http://example.org/access65</title>
<path fill="none" stroke="black" d="M471.889,-447.191C513.769,-452.514 569.409,-462.136 586.092,-477 601.047,-490.324 607.73,-512.216 610.71,-529.733"/>
<polygon fill="black" stroke="black" points="607.288,-530.535 612.128,-539.96 614.222,-529.574 607.288,-530.535"/>
<text text-anchor="middle" x="481.043" y="-433.408" font-family="Times New Roman,serif" font-size="8.00">gen</text>
</g>
<!-- &#45;attrs2 -->
<g id="node9" class="node"><title>&#45;attrs2</title>
<polygon fill="none" stroke="gray" points="695.592,-386 620.592,-386 620.592,-350 701.592,-350 701.592,-380 695.592,-386"/>
<polyline fill="none" stroke="gray" points="695.592,-386 695.592,-380 "/>
<polyline fill="none" stroke="gray" points="701.592,-380 695.592,-380 "/>
<text text-anchor="start" x="631.092" y="-372" font-family="Times New Roman,serif" font-size="10.00">type:</text>
<text text-anchor="start" x="655.092" y="-372" font-family="Times New Roman,serif" font-size="10.00">&quot;access&quot;</text>
<text text-anchor="start" x="631.092" y="-359" font-family="Times New Roman,serif" font-size="10.00">label:</text>
<text text-anchor="start" x="655.092" y="-359" font-family="Times New Roman,serif" font-size="10.00">&quot;distk[j]&quot;</text>
</g>
<!-- &#45;attrs2&#45;&gt;http://example.org/distk_aj#13 -->
<g id="edge7" class="edge"><title>&#45;attrs2&#45;&gt;http://example.org/distk_aj#13</title>
<path fill="none" stroke="gray" stroke-dasharray="5,2" d="M620.488,-382.993C617.315,-384.029 614.155,-385.042 611.092,-386 559.956,-401.988 500.456,-418.676 462.084,-429.192"/>
</g>
<!-- http://example.org/distk#2 -->
<g id="node13" class="node"><title>http://example.org/distk#2</title>
<ellipse fill="none" stroke="black" cx="580.092" cy="-631" rx="105.082" ry="18"/>
<text text-anchor="middle" x="580.092" y="-627.3" font-family="Times New Roman,serif" font-size="14.00">http://example.org/distk#2</text>
</g>
<!-- http://example.org/access65&#45;&gt;http://example.org/distk#2 -->
<g id="edge10" class="edge"><title>http://example.org/access65&#45;&gt;http://example.org/distk#2</title>
<path fill="none" stroke="black" d="M605.104,-576.187C601.253,-584.472 596.551,-594.59 592.267,-603.807"/>
<polygon fill="black" stroke="black" points="589.048,-602.428 588.007,-612.971 595.396,-605.378 589.048,-602.428"/>
<text text-anchor="middle" x="613.723" y="-586.564" font-family="Times New Roman,serif" font-size="8.00">use</text>
</g>
<!-- http://example.org/j#13 -->
<g id="node14" class="node"><title>http://example.org/j#13</title>
<ellipse fill="none" stroke="black" cx="798.092" cy="-631" rx="94.4839" ry="18"/>
<text text-anchor="middle" x="798.092" y="-627.3" font-family="Times New Roman,serif" font-size="14.00">http://example.org/j#13</text>
</g>
<!-- http://example.org/access65&#45;&gt;http://example.org/j#13 -->
<g id="edge11" class="edge"><title>http://example.org/access65&#45;&gt;http://example.org/j#13</title>
<path fill="none" stroke="black" d="M647.456,-572.188C675.865,-583.091 716.578,-598.716 748.517,-610.974"/>
<polygon fill="black" stroke="black" points="747.534,-614.346 758.124,-614.661 750.042,-607.81 747.534,-614.346"/>
<text text-anchor="middle" x="659.112" y="-560.848" font-family="Times New Roman,serif" font-size="8.00">use</text>
</g>
<!-- &#45;attrs3 -->
<g id="node12" class="node"><title>&#45;attrs3</title>
<polygon fill="none" stroke="gray" points="659.092,-459 585.092,-459 585.092,-423 665.092,-423 665.092,-453 659.092,-459"/>
<polyline fill="none" stroke="gray" points="659.092,-459 659.092,-453 "/>
<polyline fill="none" stroke="gray" points="665.092,-453 659.092,-453 "/>
<text text-anchor="start" x="595.092" y="-438" font-family="Times New Roman,serif" font-size="10.00">type:</text>
<text text-anchor="start" x="618.092" y="-438" font-family="Times New Roman,serif" font-size="10.00">&quot;access&quot;</text>
</g>
<!-- &#45;attrs3&#45;&gt;http://example.org/access65 -->
<g id="edge9" class="edge"><title>&#45;attrs3&#45;&gt;http://example.org/access65</title>
<path fill="none" stroke="gray" stroke-dasharray="5,2" d="M623.27,-459.466C621.001,-481.207 617.151,-518.105 614.893,-539.746"/>
</g>
<!-- http://example.org/sum#13 -->
<g id="node15" class="node"><title>http://example.org/sum#13</title>
<g id="a_node15"><a xlink:href="http://example.org/sum#13" xlink:title="sum#13">
<ellipse fill="#fffc87" stroke="#808080" cx="356.092" cy="-266" rx="39.7935" ry="18"/>
<text text-anchor="middle" x="356.092" y="-262.3" font-family="Times New Roman,serif" font-size="14.00">sum#13</text>
</a>
</g>
</g>
<!-- http://example.org/sum#13&#45;&gt;http://example.org/disti_ak#13 -->
<g id="edge19" class="edge"><title>http://example.org/sum#13&#45;&gt;http://example.org/disti_ak#13</title>
<path fill="none" stroke="black" d="M348.897,-283.762C337.603,-308.546 313.697,-355.338 282.092,-386 267.055,-400.589 247.33,-412.764 229.918,-421.838"/>
<polygon fill="black" stroke="black" points="227.891,-418.939 220.526,-426.556 231.033,-425.195 227.891,-418.939"/>
<text text-anchor="middle" x="357.495" y="-294.153" font-family="Times New Roman,serif" font-size="8.00">der</text>
</g>
<!-- http://example.org/sum#13&#45;&gt;http://example.org/distk_aj#13 -->
<g id="edge21" class="edge"><title>http://example.org/sum#13&#45;&gt;http://example.org/distk_aj#13</title>
<path fill="none" stroke="black" d="M352.73,-284.192C350.798,-297.507 349.553,-316.271 354.092,-332 363.218,-363.621 384.646,-394.906 401.028,-415.6"/>
<polygon fill="black" stroke="black" points="398.444,-417.97 407.467,-423.523 403.877,-413.555 398.444,-417.97"/>
<text text-anchor="middle" x="364.614" y="-291.446" font-family="Times New Roman,serif" font-size="8.00">der</text>
</g>
<!-- http://example.org/vsum#13 -->
<g id="node17" class="node"><title>http://example.org/vsum#13</title>
<g id="a_node17"><a xlink:href="http://example.org/vsum#13" xlink:title="vsum#13">
<ellipse fill="#32cd32" stroke="#808080" cx="558.092" cy="-368" rx="44.393" ry="18"/>
<text text-anchor="middle" x="558.092" y="-364.3" font-family="Times New Roman,serif" font-size="14.00">vsum#13</text>
</a>
</g>
</g>
<!-- http://example.org/sum#13&#45;&gt;http://example.org/vsum#13 -->
<g id="edge15" class="edge"><title>http://example.org/sum#13&#45;&gt;http://example.org/vsum#13</title>
<path fill="none" stroke="darkgreen" d="M355.798,-284.186C356.522,-298.983 360.046,-319.822 373.092,-332 391.792,-349.455 456.779,-358.649 504.464,-363.159"/>
<polygon fill="darkgreen" stroke="darkgreen" points="504.382,-366.666 514.656,-364.078 505.01,-359.694 504.382,-366.666"/>
<text text-anchor="middle" x="454.592" y="-320.8" font-family="Times New Roman,serif" font-size="14.00">defined</text>
<text text-anchor="middle" x="454.592" y="-305.8" font-family="Times New Roman,serif" font-size="14.00">2018&#45;03&#45;03T19:41:26.536361</text>
</g>
<!-- http://example.org/+13 -->
<g id="node19" class="node"><title>http://example.org/+13</title>
<g id="a_node19"><a xlink:href="http://example.org/+13" xlink:title="+13">
<polygon fill="#9fb1fc" stroke="#0000ff" points="273.092,-386 219.092,-386 219.092,-350 273.092,-350 273.092,-386"/>
<text text-anchor="middle" x="246.092" y="-364.3" font-family="Times New Roman,serif" font-size="14.00">+13</text>
</a>
</g>
</g>
<!-- http://example.org/sum#13&#45;&gt;http://example.org/+13 -->
<g id="edge22" class="edge"><title>http://example.org/sum#13&#45;&gt;http://example.org/+13</title>
<path fill="none" stroke="black" d="M326.55,-278.131C313.762,-283.925 299.21,-291.925 288.092,-302 276.075,-312.89 266.053,-327.961 258.817,-340.849"/>
<polygon fill="black" stroke="black" points="255.682,-339.289 254.051,-349.757 261.854,-342.591 255.682,-339.289"/>
<text text-anchor="middle" x="325.221" y="-291.172" font-family="Times New Roman,serif" font-size="8.00">gen</text>
</g>
<!-- &#45;attrs4 -->
<g id="node16" class="node"><title>&#45;attrs4</title>
<polygon fill="none" stroke="gray" points="559.592,-182 446.592,-182 446.592,-146 565.592,-146 565.592,-176 559.592,-182"/>
<polyline fill="none" stroke="gray" points="559.592,-182 559.592,-176 "/>
<polyline fill="none" stroke="gray" points="565.592,-176 559.592,-176 "/>
<text text-anchor="start" x="457.092" y="-168" font-family="Times New Roman,serif" font-size="10.00">type:</text>
<text text-anchor="start" x="481.092" y="-168" font-family="Times New Roman,serif" font-size="10.00">&quot;operation&quot;</text>
<text text-anchor="start" x="457.092" y="-155" font-family="Times New Roman,serif" font-size="10.00">label:</text>
<text text-anchor="start" x="481.092" y="-155" font-family="Times New Roman,serif" font-size="10.00">&quot;disti[k] + distk[j]&quot;</text>
</g>
<!-- &#45;attrs4&#45;&gt;http://example.org/sum#13 -->
<g id="edge13" class="edge"><title>&#45;attrs4&#45;&gt;http://example.org/sum#13</title>
<path fill="none" stroke="gray" stroke-dasharray="5,2" d="M480.306,-182.191C451.324,-201.512 404.787,-232.537 377.657,-250.623"/>
</g>
<!-- http://example.org/vsum#13&#45;&gt;http://example.org/sum#13 -->
<g id="edge16" class="edge"><title>http://example.org/vsum#13&#45;&gt;http://example.org/sum#13</title>
<path fill="none" stroke="darkgreen" d="M556.939,-349.726C554.995,-334.87 549.817,-313.995 536.092,-302 516.927,-285.25 451.474,-275.769 405.037,-271.012"/>
<polygon fill="darkgreen" stroke="darkgreen" points="405.149,-267.506 394.855,-270.013 404.466,-274.473 405.149,-267.506"/>
<text text-anchor="middle" x="635.592" y="-320.8" font-family="Times New Roman,serif" font-size="14.00">def by</text>
<text text-anchor="middle" x="635.592" y="-305.8" font-family="Times New Roman,serif" font-size="14.00">2018&#45;03&#45;03T19:41:26.536361</text>
</g>
<!-- &#45;attrs5 -->
<g id="node18" class="node"><title>&#45;attrs5</title>
<polygon fill="none" stroke="gray" points="831.592,-284 764.592,-284 764.592,-248 837.592,-248 837.592,-278 831.592,-284"/>
<polyline fill="none" stroke="gray" points="831.592,-284 831.592,-278 "/>
<polyline fill="none" stroke="gray" points="837.592,-278 831.592,-278 "/>
<text text-anchor="start" x="775.092" y="-263" font-family="Times New Roman,serif" font-size="10.00">repr:</text>
<text text-anchor="start" x="796.092" y="-263" font-family="Times New Roman,serif" font-size="10.00">&quot;10000&quot;</text>
</g>
<!-- &#45;attrs5&#45;&gt;http://example.org/vsum#13 -->
<g id="edge14" class="edge"><title>&#45;attrs5&#45;&gt;http://example.org/vsum#13</title>
<path fill="none" stroke="gray" stroke-dasharray="5,2" d="M792.565,-284.237C784.037,-299.498 769.418,-321.008 750.092,-332 695.944,-362.798 671.89,-336.431 611.092,-350 604.302,-351.515 597.139,-353.523 590.35,-355.626"/>
</g>
<!-- http://example.org/+13&#45;&gt;http://example.org/disti_ak#13 -->
<g id="edge18" class="edge"><title>http://example.org/+13&#45;&gt;http://example.org/disti_ak#13</title>
<path fill="none" stroke="black" d="M232.294,-386.187C225.261,-394.948 216.582,-405.758 208.853,-415.385"/>
<polygon fill="black" stroke="black" points="205.902,-413.471 202.371,-423.46 211.36,-417.853 205.902,-413.471"/>
<text text-anchor="middle" x="237.729" y="-398.268" font-family="Times New Roman,serif" font-size="8.00">use</text>
</g>
<!-- http://example.org/+13&#45;&gt;http://example.org/distk_aj#13 -->
<g id="edge20" class="edge"><title>http://example.org/+13&#45;&gt;http://example.org/distk_aj#13</title>
<path fill="none" stroke="black" d="M273.275,-382.048C288.401,-389.141 307.645,-397.891 325.092,-405 341.568,-411.713 359.869,-418.489 376.096,-424.266"/>
<polygon fill="black" stroke="black" points="375.301,-427.698 385.896,-427.725 377.631,-421.097 375.301,-427.698"/>
<text text-anchor="middle" x="285.567" y="-371.552" font-family="Times New Roman,serif" font-size="8.00">use</text>
</g>
<!-- &#45;attrs6 -->
<g id="node20" class="node"><title>&#45;attrs6</title>
<polygon fill="none" stroke="gray" points="269.092,-284 217.092,-284 217.092,-248 275.092,-248 275.092,-278 269.092,-284"/>
<polyline fill="none" stroke="gray" points="269.092,-284 269.092,-278 "/>
<polyline fill="none" stroke="gray" points="275.092,-278 269.092,-278 "/>
<text text-anchor="start" x="227.092" y="-263" font-family="Times New Roman,serif" font-size="10.00">type:</text>
<text text-anchor="start" x="250.092" y="-263" font-family="Times New Roman,serif" font-size="10.00">&quot;+&quot;</text>
</g>
<!-- &#45;attrs6&#45;&gt;http://example.org/+13 -->
<g id="edge17" class="edge"><title>&#45;attrs6&#45;&gt;http://example.org/+13</title>
<path fill="none" stroke="gray" stroke-dasharray="5,2" d="M246.092,-284.419C246.092,-302.773 246.092,-331.502 246.092,-349.781"/>
</g>
<!-- http://example.org/ikj#13 -->
<g id="node21" class="node"><title>http://example.org/ikj#13</title>
<g id="a_node21"><a xlink:href="http://example.org/ikj#13" xlink:title="ikj#13">
<ellipse fill="#fffc87" stroke="#808080" cx="399.092" cy="-91" rx="32.4942" ry="18"/>
<text text-anchor="middle" x="399.092" y="-87.3" font-family="Times New Roman,serif" font-size="14.00">ikj#13</text>
</a>
</g>
</g>
<!-- http://example.org/ikj#13&#45;&gt;http://example.org/sum#13 -->
<g id="edge27" class="edge"><title>http://example.org/ikj#13&#45;&gt;http://example.org/sum#13</title>
<path fill="none" stroke="black" d="M381.966,-106.627C371.728,-116.549 359.659,-130.624 354.092,-146 343.247,-175.956 346.191,-212.994 350.248,-237.718"/>
<polygon fill="black" stroke="black" points="346.852,-238.607 352.082,-247.821 353.74,-237.357 346.852,-238.607"/>
<text text-anchor="middle" x="385.803" y="-119.228" font-family="Times New Roman,serif" font-size="8.00">der</text>
</g>
<!-- http://example.org/ikj#13&#45;&gt;http://example.org/vsum#13 -->
<g id="edge24" class="edge"><title>http://example.org/ikj#13&#45;&gt;http://example.org/vsum#13</title>
<path fill="none" stroke="darkgreen" d="M430.187,-96.6257C466.828,-103.153 528.486,-117.585 574.092,-146 654.948,-196.377 685.946,-213.454 721.092,-302 726.011,-314.393 729.726,-321.839 721.092,-332 705.054,-350.876 635.174,-344.201 611.092,-350 607.653,-350.828 604.113,-351.767 600.573,-352.768"/>
<polygon fill="darkgreen" stroke="darkgreen" points="599.26,-349.507 590.673,-355.714 601.256,-356.216 599.26,-349.507"/>
<text text-anchor="middle" x="763.592" y="-218.8" font-family="Times New Roman,serif" font-size="14.00">access</text>
<text text-anchor="middle" x="763.592" y="-203.8" font-family="Times New Roman,serif" font-size="14.00">2018&#45;03&#45;03T19:41:26.536862</text>
</g>
<!-- http://example.org/assign27 -->
<g id="node23" class="node"><title>http://example.org/assign27</title>
<g id="a_node23"><a xlink:href="http://example.org/assign27" xlink:title="assign27">
<polygon fill="#9fb1fc" stroke="#0000ff" points="428.592,-182 363.592,-182 363.592,-146 428.592,-146 428.592,-182"/>
<text text-anchor="middle" x="396.092" y="-160.3" font-family="Times New Roman,serif" font-size="14.00">assign27</text>
</a>
</g>
</g>
<!-- http://example.org/ikj#13&#45;&gt;http://example.org/assign27 -->
<g id="edge28" class="edge"><title>http://example.org/ikj#13&#45;&gt;http://example.org/assign27</title>
<path fill="none" stroke="black" d="M398.366,-109.187C398.027,-117.211 397.615,-126.953 397.236,-135.931"/>
<polygon fill="black" stroke="black" points="393.737,-135.832 396.812,-145.971 400.731,-136.128 393.737,-135.832"/>
<text text-anchor="middle" x="411.028" y="-115.329" font-family="Times New Roman,serif" font-size="8.00">gen</text>
</g>
<!-- &#45;attrs7 -->
<g id="node22" class="node"><title>&#45;attrs7</title>
<polygon fill="none" stroke="gray" points="430.592,-36 361.592,-36 361.592,-0 436.592,-0 436.592,-30 430.592,-36"/>
<polyline fill="none" stroke="gray" points="430.592,-36 430.592,-30 "/>
<polyline fill="none" stroke="gray" points="436.592,-30 430.592,-30 "/>
<text text-anchor="start" x="372.092" y="-22" font-family="Times New Roman,serif" font-size="10.00">type:</text>
<text text-anchor="start" x="396.092" y="-22" font-family="Times New Roman,serif" font-size="10.00">&quot;name&quot;</text>
<text text-anchor="start" x="372.092" y="-9" font-family="Times New Roman,serif" font-size="10.00">label:</text>
<text text-anchor="start" x="396.092" y="-9" font-family="Times New Roman,serif" font-size="10.00">&quot;ikj&quot;</text>
</g>
<!-- &#45;attrs7&#45;&gt;http://example.org/ikj#13 -->
<g id="edge23" class="edge"><title>&#45;attrs7&#45;&gt;http://example.org/ikj#13</title>
<path fill="none" stroke="gray" stroke-dasharray="5,2" d="M399.092,-36.1871C399.092,-47.3501 399.092,-61.8398 399.092,-72.9712"/>
</g>
<!-- http://example.org/assign27&#45;&gt;http://example.org/sum#13 -->
<g id="edge26" class="edge"><title>http://example.org/assign27&#45;&gt;http://example.org/sum#13</title>
<path fill="none" stroke="black" d="M389.125,-182.419C382.95,-197.855 373.84,-220.631 366.75,-238.355"/>
<polygon fill="black" stroke="black" points="363.311,-237.529 362.847,-248.114 369.81,-240.129 363.311,-237.529"/>
<text text-anchor="middle" x="398.401" y="-192.307" font-family="Times New Roman,serif" font-size="8.00">use</text>
</g>
<!-- &#45;attrs8 -->
<g id="node24" class="node"><title>&#45;attrs8</title>
<polygon fill="none" stroke="gray" points="342.592,-109 269.592,-109 269.592,-73 348.592,-73 348.592,-103 342.592,-109"/>
<polyline fill="none" stroke="gray" points="342.592,-109 342.592,-103 "/>
<polyline fill="none" stroke="gray" points="348.592,-103 342.592,-103 "/>
<text text-anchor="start" x="280.092" y="-88" font-family="Times New Roman,serif" font-size="10.00">type:</text>
<text text-anchor="start" x="303.092" y="-88" font-family="Times New Roman,serif" font-size="10.00">&quot;assign&quot;</text>
</g>
<!-- &#45;attrs8&#45;&gt;http://example.org/assign27 -->
<g id="edge25" class="edge"><title>&#45;attrs8&#45;&gt;http://example.org/assign27</title>
<path fill="none" stroke="gray" stroke-dasharray="5,2" d="M330.153,-109.187C343.831,-120.35 361.586,-134.84 375.226,-145.971"/>
</g>
</g>
</svg>
