<?xml version="1.0" encoding="UTF-8" standalone="no"?>
<!DOCTYPE svg PUBLIC "-//W3C//DTD SVG 1.1//EN"
 "http://www.w3.org/Graphics/SVG/1.1/DTD/svg11.dtd">
<!-- Generated by graphviz version 2.38.0 (20140413.2041)
 -->
<!-- Title: PROV Pages: 1 -->
<svg width="888pt" height="657pt"
 viewBox="0.00 0.00 888.33 657.00" xmlns="http://www.w3.org/2000/svg" xmlns:xlink="http://www.w3.org/1999/xlink">
<g id="graph0" class="graph" transform="scale(1 1) rotate(0) translate(4 653)">
<title>PROV</title>
<polygon fill="white" stroke="none" points="-4,4 -4,-653 884.334,-653 884.334,4 -4,4"/>
<!-- http://example.org/disti_ak#25 -->
<g id="node1" class="node"><title>http://example.org/disti_ak#25</title>
<g id="a_node1"><a xlink:href="http://example.org/disti_ak#25" xlink:title="disti_ak#25">
<ellipse fill="#fffc87" stroke="#808080" cx="182.092" cy="-441" rx="52.7911" ry="18"/>
<text text-anchor="middle" x="182.092" y="-437.3" font-family="Times New Roman,serif" font-size="14.00">disti_ak#25</text>
</a>
</g>
</g>
<!-- http://example.org/v0 -->
<g id="node3" class="node"><title>http://example.org/v0</title>
<ellipse fill="none" stroke="black" cx="87.0923" cy="-558" rx="87.1846" ry="18"/>
<text text-anchor="middle" x="87.0923" y="-554.3" font-family="Times New Roman,serif" font-size="14.00">http://example.org/v0</text>
</g>
<!-- http://example.org/disti_ak#25&#45;&gt;http://example.org/v0 -->
<g id="edge2" class="edge"><title>http://example.org/disti_ak#25&#45;&gt;http://example.org/v0</title>
<path fill="none" stroke="darkgreen" d="M132.971,-447.576C114.53,-452.33 95.332,-461.051 84.0923,-477 73.3513,-492.241 74.6918,-513.478 78.4009,-530.241"/>
<polygon fill="darkgreen" stroke="darkgreen" points="75.0346,-531.204 80.9297,-540.007 81.8111,-529.449 75.0346,-531.204"/>
<text text-anchor="middle" x="165.592" y="-510.8" font-family="Times New Roman,serif" font-size="14.00">part</text>
<text text-anchor="middle" x="165.592" y="-495.8" font-family="Times New Roman,serif" font-size="14.00">row2[2]</text>
<text text-anchor="middle" x="165.592" y="-480.8" font-family="Times New Roman,serif" font-size="14.00">2018&#45;03&#45;03T19:41:32.861189</text>
</g>
<!-- http://example.org/access122 -->
<g id="node4" class="node"><title>http://example.org/access122</title>
<g id="a_node4"><a xlink:href="http://example.org/access122" xlink:title="access122">
<polygon fill="#9fb1fc" stroke="#0000ff" points="302.092,-576 228.092,-576 228.092,-540 302.092,-540 302.092,-576"/>
<text text-anchor="middle" x="265.092" y="-554.3" font-family="Times New Roman,serif" font-size="14.00">access122</text>
</a>
</g>
</g>
<!-- http://example.org/disti_ak#25&#45;&gt;http://example.org/access122 -->
<g id="edge6" class="edge"><title>http://example.org/disti_ak#25&#45;&gt;http://example.org/access122</title>
<path fill="none" stroke="black" d="M219.908,-453.615C231.556,-458.967 243.339,-466.528 251.092,-477 262.242,-492.059 265.588,-513.041 266.229,-529.739"/>
<polygon fill="black" stroke="black" points="262.731,-530.017 266.313,-539.988 269.73,-529.96 262.731,-530.017"/>
<text text-anchor="middle" x="232.282" y="-443.236" font-family="Times New Roman,serif" font-size="8.00">gen</text>
</g>
<!-- &#45;attrs0 -->
<g id="node2" class="node"><title>&#45;attrs0</title>
<polygon fill="none" stroke="gray" points="187.592,-386 112.592,-386 112.592,-350 193.592,-350 193.592,-380 187.592,-386"/>
<polyline fill="none" stroke="gray" points="187.592,-386 187.592,-380 "/>
<polyline fill="none" stroke="gray" points="193.592,-380 187.592,-380 "/>
<text text-anchor="start" x="123.092" y="-372" font-family="Times New Roman,serif" font-size="10.00">type:</text>
<text text-anchor="start" x="147.092" y="-372" font-family="Times New Roman,serif" font-size="10.00">&quot;access&quot;</text>
<text text-anchor="start" x="123.092" y="-359" font-family="Times New Roman,serif" font-size="10.00">label:</text>
<text text-anchor="start" x="147.092" y="-359" font-family="Times New Roman,serif" font-size="10.00">&quot;disti[k]&quot;</text>
</g>
<!-- &#45;attrs0&#45;&gt;http://example.org/disti_ak#25 -->
<g id="edge1" class="edge"><title>&#45;attrs0&#45;&gt;http://example.org/disti_ak#25</title>
<path fill="none" stroke="gray" stroke-dasharray="5,2" d="M160.112,-386.187C164.672,-397.35 170.59,-411.84 175.137,-422.971"/>
</g>
<!-- http://example.org/disti#9 -->
<g id="node6" class="node"><title>http://example.org/disti#9</title>
<ellipse fill="none" stroke="black" cx="110.092" cy="-631" rx="102.882" ry="18"/>
<text text-anchor="middle" x="110.092" y="-627.3" font-family="Times New Roman,serif" font-size="14.00">http://example.org/disti#9</text>
</g>
<!-- http://example.org/access122&#45;&gt;http://example.org/disti#9 -->
<g id="edge4" class="edge"><title>http://example.org/access122&#45;&gt;http://example.org/disti#9</title>
<path fill="none" stroke="black" d="M227.966,-576.006C205.847,-586.138 177.64,-599.059 154.365,-609.72"/>
<polygon fill="black" stroke="black" points="152.689,-606.638 145.055,-613.985 155.604,-613.002 152.689,-606.638"/>
<text text-anchor="middle" x="226.557" y="-589.04" font-family="Times New Roman,serif" font-size="8.00">use</text>
</g>
<!-- http://example.org/k#3 -->
<g id="node7" class="node"><title>http://example.org/k#3</title>
<ellipse fill="none" stroke="black" cx="323.092" cy="-631" rx="92.0841" ry="18"/>
<text text-anchor="middle" x="323.092" y="-627.3" font-family="Times New Roman,serif" font-size="14.00">http://example.org/k#3</text>
</g>
<!-- http://example.org/access122&#45;&gt;http://example.org/k#3 -->
<g id="edge5" class="edge"><title>http://example.org/access122&#45;&gt;http://example.org/k#3</title>
<path fill="none" stroke="black" d="M279.132,-576.187C286.185,-584.821 294.864,-595.445 302.642,-604.966"/>
<polygon fill="black" stroke="black" points="300.144,-607.441 309.181,-612.971 305.565,-603.012 300.144,-607.441"/>
<text text-anchor="middle" x="293.938" y="-571.877" font-family="Times New Roman,serif" font-size="8.00">use</text>
</g>
<!-- &#45;attrs1 -->
<g id="node5" class="node"><title>&#45;attrs1</title>
<polygon fill="none" stroke="gray" points="327.092,-459 253.092,-459 253.092,-423 333.092,-423 333.092,-453 327.092,-459"/>
<polyline fill="none" stroke="gray" points="327.092,-459 327.092,-453 "/>
<polyline fill="none" stroke="gray" points="333.092,-453 327.092,-453 "/>
<text text-anchor="start" x="263.092" y="-438" font-family="Times New Roman,serif" font-size="10.00">type:</text>
<text text-anchor="start" x="286.092" y="-438" font-family="Times New Roman,serif" font-size="10.00">&quot;access&quot;</text>
</g>
<!-- &#45;attrs1&#45;&gt;http://example.org/access122 -->
<g id="edge3" class="edge"><title>&#45;attrs1&#45;&gt;http://example.org/access122</title>
<path fill="none" stroke="gray" stroke-dasharray="5,2" d="M291.145,-459.085C289.038,-475.441 285.143,-500.706 279.092,-522 277.411,-527.918 275.076,-534.208 272.796,-539.8"/>
</g>
<!-- http://example.org/distk_aj#25 -->
<g id="node8" class="node"><title>http://example.org/distk_aj#25</title>
<g id="a_node8"><a xlink:href="http://example.org/distk_aj#25" xlink:title="distk_aj#25">
<ellipse fill="#fffc87" stroke="#808080" cx="407.092" cy="-441" rx="52.7911" ry="18"/>
<text text-anchor="middle" x="407.092" y="-437.3" font-family="Times New Roman,serif" font-size="14.00">distk_aj#25</text>
</a>
</g>
</g>
<!-- http://example.org/v2 -->
<g id="node10" class="node"><title>http://example.org/v2</title>
<ellipse fill="none" stroke="black" cx="407.092" cy="-558" rx="87.1846" ry="18"/>
<text text-anchor="middle" x="407.092" y="-554.3" font-family="Times New Roman,serif" font-size="14.00">http://example.org/v2</text>
</g>
<!-- http://example.org/distk_aj#25&#45;&gt;http://example.org/v2 -->
<g id="edge8" class="edge"><title>http://example.org/distk_aj#25&#45;&gt;http://example.org/v2</title>
<path fill="none" stroke="darkgreen" d="M407.092,-459.466C407.092,-478.064 407.092,-507.756 407.092,-529.499"/>
<polygon fill="darkgreen" stroke="darkgreen" points="403.592,-529.746 407.092,-539.746 410.592,-529.746 403.592,-529.746"/>
<text text-anchor="middle" x="488.592" y="-510.8" font-family="Times New Roman,serif" font-size="14.00">part</text>
<text text-anchor="middle" x="488.592" y="-495.8" font-family="Times New Roman,serif" font-size="14.00">row2[0]</text>
<text text-anchor="middle" x="488.592" y="-480.8" font-family="Times New Roman,serif" font-size="14.00">2018&#45;03&#45;03T19:41:32.861189</text>
</g>
<!-- http://example.org/access123 -->
<g id="node11" class="node"><title>http://example.org/access123</title>
<g id="a_node11"><a xlink:href="http://example.org/access123" xlink:title="access123">
<polygon fill="#9fb1fc" stroke="#0000ff" points="635.092,-576 561.092,-576 561.092,-540 635.092,-540 635.092,-576"/>
<text text-anchor="middle" x="598.092" y="-554.3" font-family="Times New Roman,serif" font-size="14.00">access123</text>
</a>
</g>
</g>
<!-- http://example.org/distk_aj#25&#45;&gt;http://example.org/access123 -->
<g id="edge12" class="edge"><title>http://example.org/distk_aj#25&#45;&gt;http://example.org/access123</title>
<path fill="none" stroke="black" d="M456.889,-447.191C498.769,-452.514 554.409,-462.136 571.092,-477 586.047,-490.324 592.73,-512.216 595.71,-529.733"/>
<polygon fill="black" stroke="black" points="592.288,-530.535 597.128,-539.96 599.222,-529.574 592.288,-530.535"/>
<text text-anchor="middle" x="466.043" y="-433.408" font-family="Times New Roman,serif" font-size="8.00">gen</text>
</g>
<!-- &#45;attrs2 -->
<g id="node9" class="node"><title>&#45;attrs2</title>
<polygon fill="none" stroke="gray" points="688.592,-386 613.592,-386 613.592,-350 694.592,-350 694.592,-380 688.592,-386"/>
<polyline fill="none" stroke="gray" points="688.592,-386 688.592,-380 "/>
<polyline fill="none" stroke="gray" points="694.592,-380 688.592,-380 "/>
<text text-anchor="start" x="624.092" y="-372" font-family="Times New Roman,serif" font-size="10.00">type:</text>
<text text-anchor="start" x="648.092" y="-372" font-family="Times New Roman,serif" font-size="10.00">&quot;access&quot;</text>
<text text-anchor="start" x="624.092" y="-359" font-family="Times New Roman,serif" font-size="10.00">label:</text>
<text text-anchor="start" x="648.092" y="-359" font-family="Times New Roman,serif" font-size="10.00">&quot;distk[j]&quot;</text>
</g>
<!-- &#45;attrs2&#45;&gt;http://example.org/distk_aj#25 -->
<g id="edge7" class="edge"><title>&#45;attrs2&#45;&gt;http://example.org/distk_aj#25</title>
<path fill="none" stroke="gray" stroke-dasharray="5,2" d="M613.5,-383.03C610.324,-384.057 607.16,-385.059 604.092,-386 550.524,-402.432 488.038,-419.15 448.047,-429.543"/>
</g>
<!-- http://example.org/distk#3 -->
<g id="node13" class="node"><title>http://example.org/distk#3</title>
<ellipse fill="none" stroke="black" cx="568.092" cy="-631" rx="105.082" ry="18"/>
<text text-anchor="middle" x="568.092" y="-627.3" font-family="Times New Roman,serif" font-size="14.00">http://example.org/distk#3</text>
</g>
<!-- http://example.org/access123&#45;&gt;http://example.org/distk#3 -->
<g id="edge10" class="edge"><title>http://example.org/access123&#45;&gt;http://example.org/distk#3</title>
<path fill="none" stroke="black" d="M590.83,-576.187C587.366,-584.385 583.144,-594.377 579.283,-603.515"/>
<polygon fill="black" stroke="black" points="575.956,-602.397 575.288,-612.971 582.404,-605.122 575.956,-602.397"/>
<text text-anchor="middle" x="599.877" y="-586.252" font-family="Times New Roman,serif" font-size="8.00">use</text>
</g>
<!-- http://example.org/j#25 -->
<g id="node14" class="node"><title>http://example.org/j#25</title>
<ellipse fill="none" stroke="black" cx="786.092" cy="-631" rx="94.4839" ry="18"/>
<text text-anchor="middle" x="786.092" y="-627.3" font-family="Times New Roman,serif" font-size="14.00">http://example.org/j#25</text>
</g>
<!-- http://example.org/access123&#45;&gt;http://example.org/j#25 -->
<g id="edge11" class="edge"><title>http://example.org/access123&#45;&gt;http://example.org/j#25</title>
<path fill="none" stroke="black" d="M635.235,-573.027C664.037,-583.905 704.247,-599.091 735.912,-611.049"/>
<polygon fill="black" stroke="black" points="734.85,-614.389 745.442,-614.648 737.323,-607.841 734.85,-614.389"/>
<text text-anchor="middle" x="646.841" y="-561.624" font-family="Times New Roman,serif" font-size="8.00">use</text>
</g>
<!-- &#45;attrs3 -->
<g id="node12" class="node"><title>&#45;attrs3</title>
<polygon fill="none" stroke="gray" points="644.092,-459 570.092,-459 570.092,-423 650.092,-423 650.092,-453 644.092,-459"/>
<polyline fill="none" stroke="gray" points="644.092,-459 644.092,-453 "/>
<polyline fill="none" stroke="gray" points="650.092,-453 644.092,-453 "/>
<text text-anchor="start" x="580.092" y="-438" font-family="Times New Roman,serif" font-size="10.00">type:</text>
<text text-anchor="start" x="603.092" y="-438" font-family="Times New Roman,serif" font-size="10.00">&quot;access&quot;</text>
</g>
<!-- &#45;attrs3&#45;&gt;http://example.org/access123 -->
<g id="edge9" class="edge"><title>&#45;attrs3&#45;&gt;http://example.org/access123</title>
<path fill="none" stroke="gray" stroke-dasharray="5,2" d="M608.27,-459.466C606.001,-481.207 602.151,-518.105 599.893,-539.746"/>
</g>
<!-- http://example.org/sum#25 -->
<g id="node15" class="node"><title>http://example.org/sum#25</title>
<g id="a_node15"><a xlink:href="http://example.org/sum#25" xlink:title="sum#25">
<ellipse fill="#fffc87" stroke="#808080" cx="349.092" cy="-266" rx="39.7935" ry="18"/>
<text text-anchor="middle" x="349.092" y="-262.3" font-family="Times New Roman,serif" font-size="14.00">sum#25</text>
</a>
</g>
</g>
<!-- http://example.org/sum#25&#45;&gt;http://example.org/disti_ak#25 -->
<g id="edge19" class="edge"><title>http://example.org/sum#25&#45;&gt;http://example.org/disti_ak#25</title>
<path fill="none" stroke="black" d="M341.897,-283.762C330.603,-308.546 306.697,-355.338 275.092,-386 260.055,-400.589 240.33,-412.764 222.918,-421.838"/>
<polygon fill="black" stroke="black" points="220.891,-418.939 213.526,-426.556 224.033,-425.195 220.891,-418.939"/>
<text text-anchor="middle" x="350.495" y="-294.153" font-family="Times New Roman,serif" font-size="8.00">der</text>
</g>
<!-- http://example.org/sum#25&#45;&gt;http://example.org/distk_aj#25 -->
<g id="edge21" class="edge"><title>http://example.org/sum#25&#45;&gt;http://example.org/distk_aj#25</title>
<path fill="none" stroke="black" d="M345.974,-284.125C344.173,-297.404 342.986,-316.153 347.092,-332 355.048,-362.704 373.833,-393.972 388.281,-414.908"/>
<polygon fill="black" stroke="black" points="385.529,-417.077 394.164,-423.216 391.242,-413.032 385.529,-417.077"/>
<text text-anchor="middle" x="357.934" y="-291.278" font-family="Times New Roman,serif" font-size="8.00">der</text>
</g>
<!-- http://example.org/vsum#25 -->
<g id="node17" class="node"><title>http://example.org/vsum#25</title>
<g id="a_node17"><a xlink:href="http://example.org/vsum#25" xlink:title="vsum#25">
<ellipse fill="#32cd32" stroke="#808080" cx="551.092" cy="-368" rx="44.393" ry="18"/>
<text text-anchor="middle" x="551.092" y="-364.3" font-family="Times New Roman,serif" font-size="14.00">vsum#25</text>
</a>
</g>
</g>
<!-- http://example.org/sum#25&#45;&gt;http://example.org/vsum#25 -->
<g id="edge15" class="edge"><title>http://example.org/sum#25&#45;&gt;http://example.org/vsum#25</title>
<path fill="none" stroke="darkgreen" d="M348.798,-284.186C349.522,-298.983 353.046,-319.822 366.092,-332 384.792,-349.455 449.779,-358.649 497.464,-363.159"/>
<polygon fill="darkgreen" stroke="darkgreen" points="497.382,-366.666 507.656,-364.078 498.01,-359.694 497.382,-366.666"/>
<text text-anchor="middle" x="447.592" y="-320.8" font-family="Times New Roman,serif" font-size="14.00">defined</text>
<text text-anchor="middle" x="447.592" y="-305.8" font-family="Times New Roman,serif" font-size="14.00">2018&#45;03&#45;03T19:41:32.861189</text>
</g>
<!-- http://example.org/+25 -->
<g id="node19" class="node"><title>http://example.org/+25</title>
<g id="a_node19"><a xlink:href="http://example.org/+25" xlink:title="+25">
<polygon fill="#9fb1fc" stroke="#0000ff" points="266.092,-386 212.092,-386 212.092,-350 266.092,-350 266.092,-386"/>
<text text-anchor="middle" x="239.092" y="-364.3" font-family="Times New Roman,serif" font-size="14.00">+25</text>
</a>
</g>
</g>
<!-- http://example.org/sum#25&#45;&gt;http://example.org/+25 -->
<g id="edge22" class="edge"><title>http://example.org/sum#25&#45;&gt;http://example.org/+25</title>
<path fill="none" stroke="black" d="M319.55,-278.131C306.762,-283.925 292.21,-291.925 281.092,-302 269.075,-312.89 259.053,-327.961 251.817,-340.849"/>
<polygon fill="black" stroke="black" points="248.682,-339.289 247.051,-349.757 254.854,-342.591 248.682,-339.289"/>
<text text-anchor="middle" x="318.221" y="-291.172" font-family="Times New Roman,serif" font-size="8.00">gen</text>
</g>
<!-- &#45;attrs4 -->
<g id="node16" class="node"><title>&#45;attrs4</title>
<polygon fill="none" stroke="gray" points="552.592,-182 439.592,-182 439.592,-146 558.592,-146 558.592,-176 552.592,-182"/>
<polyline fill="none" stroke="gray" points="552.592,-182 552.592,-176 "/>
<polyline fill="none" stroke="gray" points="558.592,-176 552.592,-176 "/>
<text text-anchor="start" x="450.092" y="-168" font-family="Times New Roman,serif" font-size="10.00">type:</text>
<text text-anchor="start" x="474.092" y="-168" font-family="Times New Roman,serif" font-size="10.00">&quot;operation&quot;</text>
<text text-anchor="start" x="450.092" y="-155" font-family="Times New Roman,serif" font-size="10.00">label:</text>
<text text-anchor="start" x="474.092" y="-155" font-family="Times New Roman,serif" font-size="10.00">&quot;disti[k] + distk[j]&quot;</text>
</g>
<!-- &#45;attrs4&#45;&gt;http://example.org/sum#25 -->
<g id="edge13" class="edge"><title>&#45;attrs4&#45;&gt;http://example.org/sum#25</title>
<path fill="none" stroke="gray" stroke-dasharray="5,2" d="M473.306,-182.191C444.324,-201.512 397.787,-232.537 370.657,-250.623"/>
</g>
<!-- http://example.org/vsum#25&#45;&gt;http://example.org/sum#25 -->
<g id="edge16" class="edge"><title>http://example.org/vsum#25&#45;&gt;http://example.org/sum#25</title>
<path fill="none" stroke="darkgreen" d="M549.939,-349.726C547.995,-334.87 542.817,-313.995 529.092,-302 509.927,-285.25 444.474,-275.769 398.037,-271.012"/>
<polygon fill="darkgreen" stroke="darkgreen" points="398.149,-267.506 387.855,-270.013 397.466,-274.473 398.149,-267.506"/>
<text text-anchor="middle" x="628.592" y="-320.8" font-family="Times New Roman,serif" font-size="14.00">def by</text>
<text text-anchor="middle" x="628.592" y="-305.8" font-family="Times New Roman,serif" font-size="14.00">2018&#45;03&#45;03T19:41:32.861189</text>
</g>
<!-- &#45;attrs5 -->
<g id="node18" class="node"><title>&#45;attrs5</title>
<polygon fill="none" stroke="gray" points="806.592,-284 757.592,-284 757.592,-248 812.592,-248 812.592,-278 806.592,-284"/>
<polyline fill="none" stroke="gray" points="806.592,-284 806.592,-278 "/>
<polyline fill="none" stroke="gray" points="812.592,-278 806.592,-278 "/>
<text text-anchor="start" x="768.092" y="-263" font-family="Times New Roman,serif" font-size="10.00">repr:</text>
<text text-anchor="start" x="789.092" y="-263" font-family="Times New Roman,serif" font-size="10.00">&quot;2&quot;</text>
</g>
<!-- &#45;attrs5&#45;&gt;http://example.org/vsum#25 -->
<g id="edge14" class="edge"><title>&#45;attrs5&#45;&gt;http://example.org/vsum#25</title>
<path fill="none" stroke="gray" stroke-dasharray="5,2" d="M778.862,-284.179C772.386,-299.402 760.704,-320.886 743.092,-332 690.412,-365.245 664.89,-336.431 604.092,-350 597.302,-351.515 590.139,-353.523 583.35,-355.626"/>
</g>
<!-- http://example.org/+25&#45;&gt;http://example.org/disti_ak#25 -->
<g id="edge18" class="edge"><title>http://example.org/+25&#45;&gt;http://example.org/disti_ak#25</title>
<path fill="none" stroke="black" d="M225.294,-386.187C218.261,-394.948 209.582,-405.758 201.853,-415.385"/>
<polygon fill="black" stroke="black" points="198.902,-413.471 195.371,-423.46 204.36,-417.853 198.902,-413.471"/>
<text text-anchor="middle" x="230.729" y="-398.268" font-family="Times New Roman,serif" font-size="8.00">use</text>
</g>
<!-- http://example.org/+25&#45;&gt;http://example.org/distk_aj#25 -->
<g id="edge20" class="edge"><title>http://example.org/+25&#45;&gt;http://example.org/distk_aj#25</title>
<path fill="none" stroke="black" d="M266.355,-381.854C281.506,-388.888 300.748,-397.644 318.092,-405 332.747,-411.215 348.908,-417.684 363.392,-423.345"/>
<polygon fill="black" stroke="black" points="362.523,-426.763 373.112,-427.122 365.058,-420.238 362.523,-426.763"/>
<text text-anchor="middle" x="278.62" y="-371.317" font-family="Times New Roman,serif" font-size="8.00">use</text>
</g>
<!-- &#45;attrs6 -->
<g id="node20" class="node"><title>&#45;attrs6</title>
<polygon fill="none" stroke="gray" points="262.092,-284 210.092,-284 210.092,-248 268.092,-248 268.092,-278 262.092,-284"/>
<polyline fill="none" stroke="gray" points="262.092,-284 262.092,-278 "/>
<polyline fill="none" stroke="gray" points="268.092,-278 262.092,-278 "/>
<text text-anchor="start" x="220.092" y="-263" font-family="Times New Roman,serif" font-size="10.00">type:</text>
<text text-anchor="start" x="243.092" y="-263" font-family="Times New Roman,serif" font-size="10.00">&quot;+&quot;</text>
</g>
<!-- &#45;attrs6&#45;&gt;http://example.org/+25 -->
<g id="edge17" class="edge"><title>&#45;attrs6&#45;&gt;http://example.org/+25</title>
<path fill="none" stroke="gray" stroke-dasharray="5,2" d="M239.092,-284.419C239.092,-302.773 239.092,-331.502 239.092,-349.781"/>
</g>
<!-- http://example.org/ikj#25 -->
<g id="node21" class="node"><title>http://example.org/ikj#25</title>
<g id="a_node21"><a xlink:href="http://example.org/ikj#25" xlink:title="ikj#25">
<ellipse fill="#fffc87" stroke="#808080" cx="392.092" cy="-91" rx="32.4942" ry="18"/>
<text text-anchor="middle" x="392.092" y="-87.3" font-family="Times New Roman,serif" font-size="14.00">ikj#25</text>
</a>
</g>
</g>
<!-- http://example.org/ikj#25&#45;&gt;http://example.org/sum#25 -->
<g id="edge27" class="edge"><title>http://example.org/ikj#25&#45;&gt;http://example.org/sum#25</title>
<path fill="none" stroke="black" d="M374.966,-106.627C364.728,-116.549 352.659,-130.624 347.092,-146 336.247,-175.956 339.191,-212.994 343.248,-237.718"/>
<polygon fill="black" stroke="black" points="339.852,-238.607 345.082,-247.821 346.74,-237.357 339.852,-238.607"/>
<text text-anchor="middle" x="378.803" y="-119.228" font-family="Times New Roman,serif" font-size="8.00">der</text>
</g>
<!-- http://example.org/ikj#25&#45;&gt;http://example.org/vsum#25 -->
<g id="edge24" class="edge"><title>http://example.org/ikj#25&#45;&gt;http://example.org/vsum#25</title>
<path fill="none" stroke="darkgreen" d="M423.187,-96.6257C459.828,-103.153 521.486,-117.585 567.092,-146 647.948,-196.377 678.946,-213.454 714.092,-302 719.011,-314.393 722.726,-321.839 714.092,-332 698.054,-350.876 628.174,-344.201 604.092,-350 600.653,-350.828 597.113,-351.767 593.573,-352.768"/>
<polygon fill="darkgreen" stroke="darkgreen" points="592.26,-349.507 583.673,-355.714 594.256,-356.216 592.26,-349.507"/>
<text text-anchor="middle" x="756.592" y="-218.8" font-family="Times New Roman,serif" font-size="14.00">access</text>
<text text-anchor="middle" x="756.592" y="-203.8" font-family="Times New Roman,serif" font-size="14.00">2018&#45;03&#45;03T19:41:32.861189</text>
</g>
<!-- http://example.org/assign45 -->
<g id="node23" class="node"><title>http://example.org/assign45</title>
<g id="a_node23"><a xlink:href="http://example.org/assign45" xlink:title="assign45">
<polygon fill="#9fb1fc" stroke="#0000ff" points="421.592,-182 356.592,-182 356.592,-146 421.592,-146 421.592,-182"/>
<text text-anchor="middle" x="389.092" y="-160.3" font-family="Times New Roman,serif" font-size="14.00">assign45</text>
</a>
</g>
</g>
<!-- http://example.org/ikj#25&#45;&gt;http://example.org/assign45 -->
<g id="edge28" class="edge"><title>http://example.org/ikj#25&#45;&gt;http://example.org/assign45</title>
<path fill="none" stroke="black" d="M391.366,-109.187C391.027,-117.211 390.615,-126.953 390.236,-135.931"/>
<polygon fill="black" stroke="black" points="386.737,-135.832 389.812,-145.971 393.731,-136.128 386.737,-135.832"/>
<text text-anchor="middle" x="404.028" y="-115.329" font-family="Times New Roman,serif" font-size="8.00">gen</text>
</g>
<!-- &#45;attrs7 -->
<g id="node22" class="node"><title>&#45;attrs7</title>
<polygon fill="none" stroke="gray" points="423.592,-36 354.592,-36 354.592,-0 429.592,-0 429.592,-30 423.592,-36"/>
<polyline fill="none" stroke="gray" points="423.592,-36 423.592,-30 "/>
<polyline fill="none" stroke="gray" points="429.592,-30 423.592,-30 "/>
<text text-anchor="start" x="365.092" y="-22" font-family="Times New Roman,serif" font-size="10.00">type:</text>
<text text-anchor="start" x="389.092" y="-22" font-family="Times New Roman,serif" font-size="10.00">&quot;name&quot;</text>
<text text-anchor="start" x="365.092" y="-9" font-family="Times New Roman,serif" font-size="10.00">label:</text>
<text text-anchor="start" x="389.092" y="-9" font-family="Times New Roman,serif" font-size="10.00">&quot;ikj&quot;</text>
</g>
<!-- &#45;attrs7&#45;&gt;http://example.org/ikj#25 -->
<g id="edge23" class="edge"><title>&#45;attrs7&#45;&gt;http://example.org/ikj#25</title>
<path fill="none" stroke="gray" stroke-dasharray="5,2" d="M392.092,-36.1871C392.092,-47.3501 392.092,-61.8398 392.092,-72.9712"/>
</g>
<!-- http://example.org/assign45&#45;&gt;http://example.org/sum#25 -->
<g id="edge26" class="edge"><title>http://example.org/assign45&#45;&gt;http://example.org/sum#25</title>
<path fill="none" stroke="black" d="M382.125,-182.419C375.95,-197.855 366.84,-220.631 359.75,-238.355"/>
<polygon fill="black" stroke="black" points="356.311,-237.529 355.847,-248.114 362.81,-240.129 356.311,-237.529"/>
<text text-anchor="middle" x="391.401" y="-192.307" font-family="Times New Roman,serif" font-size="8.00">use</text>
</g>
<!-- &#45;attrs8 -->
<g id="node24" class="node"><title>&#45;attrs8</title>
<polygon fill="none" stroke="gray" points="335.592,-109 262.592,-109 262.592,-73 341.592,-73 341.592,-103 335.592,-109"/>
<polyline fill="none" stroke="gray" points="335.592,-109 335.592,-103 "/>
<polyline fill="none" stroke="gray" points="341.592,-103 335.592,-103 "/>
<text text-anchor="start" x="273.092" y="-88" font-family="Times New Roman,serif" font-size="10.00">type:</text>
<text text-anchor="start" x="296.092" y="-88" font-family="Times New Roman,serif" font-size="10.00">&quot;assign&quot;</text>
</g>
<!-- &#45;attrs8&#45;&gt;http://example.org/assign45 -->
<g id="edge25" class="edge"><title>&#45;attrs8&#45;&gt;http://example.org/assign45</title>
<path fill="none" stroke="gray" stroke-dasharray="5,2" d="M323.153,-109.187C336.831,-120.35 354.586,-134.84 368.226,-145.971"/>
</g>
</g>
</svg>
