<?xml version="1.0" encoding="UTF-8" standalone="no"?>
<!DOCTYPE svg PUBLIC "-//W3C//DTD SVG 1.1//EN"
 "http://www.w3.org/Graphics/SVG/1.1/DTD/svg11.dtd">
<!-- Generated by graphviz version 2.38.0 (20140413.2041)
 -->
<!-- Title: PROV Pages: 1 -->
<svg width="894pt" height="657pt"
 viewBox="0.00 0.00 893.83 657.00" xmlns="http://www.w3.org/2000/svg" xmlns:xlink="http://www.w3.org/1999/xlink">
<g id="graph0" class="graph" transform="scale(1 1) rotate(0) translate(4 653)">
<title>PROV</title>
<polygon fill="white" stroke="none" points="-4,4 -4,-653 889.832,-653 889.832,4 -4,4"/>
<!-- http://example.org/disti_ak18 -->
<g id="node1" class="node"><title>http://example.org/disti_ak18</title>
<g id="a_node1"><a xlink:href="http://example.org/disti_ak18" xlink:title="disti_ak18">
<ellipse fill="#fffc87" stroke="#808080" cx="212.79" cy="-441" rx="48.1917" ry="18"/>
<text text-anchor="middle" x="212.79" y="-437.3" font-family="Times New Roman,serif" font-size="14.00">disti_ak18</text>
</a>
</g>
</g>
<!-- http://example.org/vsum_11 -->
<g id="node3" class="node"><title>http://example.org/vsum_11</title>
<ellipse fill="none" stroke="black" cx="111.79" cy="-558" rx="111.581" ry="18"/>
<text text-anchor="middle" x="111.79" y="-554.3" font-family="Times New Roman,serif" font-size="14.00">http://example.org/vsum_11</text>
</g>
<!-- http://example.org/disti_ak18&#45;&gt;http://example.org/vsum_11 -->
<g id="edge2" class="edge"><title>http://example.org/disti_ak18&#45;&gt;http://example.org/vsum_11</title>
<path fill="none" stroke="darkgreen" d="M166.144,-445.632C145.029,-449.882 121.908,-458.745 108.79,-477 97.9094,-492.142 99.2566,-513.384 103.004,-530.174"/>
<polygon fill="darkgreen" stroke="darkgreen" points="99.6458,-531.167 105.559,-539.958 106.419,-529.399 99.6458,-531.167"/>
<text text-anchor="middle" x="190.29" y="-510.8" font-family="Times New Roman,serif" font-size="14.00">part</text>
<text text-anchor="middle" x="190.29" y="-495.8" font-family="Times New Roman,serif" font-size="14.00">row0[2]</text>
<text text-anchor="middle" x="190.29" y="-480.8" font-family="Times New Roman,serif" font-size="14.00">2018&#45;02&#45;26T14:42:00.742410</text>
</g>
<!-- http://example.org/access93 -->
<g id="node4" class="node"><title>http://example.org/access93</title>
<g id="a_node4"><a xlink:href="http://example.org/access93" xlink:title="access93">
<polygon fill="#9fb1fc" stroke="#0000ff" points="323.79,-576 255.79,-576 255.79,-540 323.79,-540 323.79,-576"/>
<text text-anchor="middle" x="289.79" y="-554.3" font-family="Times New Roman,serif" font-size="14.00">access93</text>
</a>
</g>
</g>
<!-- http://example.org/disti_ak18&#45;&gt;http://example.org/access93 -->
<g id="edge6" class="edge"><title>http://example.org/disti_ak18&#45;&gt;http://example.org/access93</title>
<path fill="none" stroke="black" d="M246.708,-453.958C257.559,-459.387 268.608,-466.908 275.79,-477 286.587,-492.172 289.97,-512.982 290.715,-529.574"/>
<polygon fill="black" stroke="black" points="287.218,-529.824 290.875,-539.767 294.217,-529.714 287.218,-529.824"/>
<text text-anchor="middle" x="259.352" y="-443.987" font-family="Times New Roman,serif" font-size="8.00">gen</text>
</g>
<!-- &#45;attrs0 -->
<g id="node2" class="node"><title>&#45;attrs0</title>
<polygon fill="none" stroke="gray" points="219.79,-386 141.79,-386 141.79,-350 225.79,-350 225.79,-380 219.79,-386"/>
<polyline fill="none" stroke="gray" points="219.79,-386 219.79,-380 "/>
<polyline fill="none" stroke="gray" points="225.79,-380 219.79,-380 "/>
<text text-anchor="start" x="151.79" y="-372" font-family="Times New Roman,serif" font-size="10.00">value:</text>
<text text-anchor="start" x="178.79" y="-372" font-family="Times New Roman,serif" font-size="10.00">&quot;disti[k]&quot;</text>
<text text-anchor="start" x="151.79" y="-359" font-family="Times New Roman,serif" font-size="10.00">type:</text>
<text text-anchor="start" x="178.79" y="-359" font-family="Times New Roman,serif" font-size="10.00">&quot;access&quot;</text>
</g>
<!-- &#45;attrs0&#45;&gt;http://example.org/disti_ak18 -->
<g id="edge1" class="edge"><title>&#45;attrs0&#45;&gt;http://example.org/disti_ak18</title>
<path fill="none" stroke="gray" stroke-dasharray="5,2" d="M190.81,-386.187C195.37,-397.35 201.288,-411.84 205.835,-422.971"/>
</g>
<!-- http://example.org/disti6 -->
<g id="node6" class="node"><title>http://example.org/disti6</title>
<ellipse fill="none" stroke="black" cx="148.79" cy="-631" rx="98.2828" ry="18"/>
<text text-anchor="middle" x="148.79" y="-627.3" font-family="Times New Roman,serif" font-size="14.00">http://example.org/disti6</text>
</g>
<!-- http://example.org/access93&#45;&gt;http://example.org/disti6 -->
<g id="edge4" class="edge"><title>http://example.org/access93&#45;&gt;http://example.org/disti6</title>
<path fill="none" stroke="black" d="M256.017,-576.006C236.146,-586.012 210.873,-598.738 189.855,-609.322"/>
<polygon fill="black" stroke="black" points="188.192,-606.24 180.835,-613.864 191.34,-612.493 188.192,-606.24"/>
<text text-anchor="middle" x="255.161" y="-589.082" font-family="Times New Roman,serif" font-size="8.00">use</text>
</g>
<!-- http://example.org/k2 -->
<g id="node7" class="node"><title>http://example.org/k2</title>
<ellipse fill="none" stroke="black" cx="351.79" cy="-631" rx="87.1846" ry="18"/>
<text text-anchor="middle" x="351.79" y="-627.3" font-family="Times New Roman,serif" font-size="14.00">http://example.org/k2</text>
</g>
<!-- http://example.org/access93&#45;&gt;http://example.org/k2 -->
<g id="edge5" class="edge"><title>http://example.org/access93&#45;&gt;http://example.org/k2</title>
<path fill="none" stroke="black" d="M304.799,-576.187C312.414,-584.908 321.803,-595.66 330.181,-605.254"/>
<polygon fill="black" stroke="black" points="327.706,-607.741 336.92,-612.971 332.979,-603.137 327.706,-607.741"/>
<text text-anchor="middle" x="319.516" y="-571.392" font-family="Times New Roman,serif" font-size="8.00">use</text>
</g>
<!-- &#45;attrs1 -->
<g id="node5" class="node"><title>&#45;attrs1</title>
<polygon fill="none" stroke="gray" points="352.79,-459 278.79,-459 278.79,-423 358.79,-423 358.79,-453 352.79,-459"/>
<polyline fill="none" stroke="gray" points="352.79,-459 352.79,-453 "/>
<polyline fill="none" stroke="gray" points="358.79,-453 352.79,-453 "/>
<text text-anchor="start" x="288.79" y="-438" font-family="Times New Roman,serif" font-size="10.00">type:</text>
<text text-anchor="start" x="311.79" y="-438" font-family="Times New Roman,serif" font-size="10.00">&quot;access&quot;</text>
</g>
<!-- &#45;attrs1&#45;&gt;http://example.org/access93 -->
<g id="edge3" class="edge"><title>&#45;attrs1&#45;&gt;http://example.org/access93</title>
<path fill="none" stroke="gray" stroke-dasharray="5,2" d="M316.574,-459.081C314.222,-475.434 309.984,-500.696 303.79,-522 302.073,-527.907 299.729,-534.195 297.45,-539.788"/>
</g>
<!-- http://example.org/distk_aj18 -->
<g id="node8" class="node"><title>http://example.org/distk_aj18</title>
<g id="a_node8"><a xlink:href="http://example.org/distk_aj18" xlink:title="distk_aj18">
<ellipse fill="#fffc87" stroke="#808080" cx="428.79" cy="-441" rx="48.1917" ry="18"/>
<text text-anchor="middle" x="428.79" y="-437.3" font-family="Times New Roman,serif" font-size="14.00">distk_aj18</text>
</a>
</g>
</g>
<!-- http://example.org/v2 -->
<g id="node10" class="node"><title>http://example.org/v2</title>
<ellipse fill="none" stroke="black" cx="428.79" cy="-558" rx="87.1846" ry="18"/>
<text text-anchor="middle" x="428.79" y="-554.3" font-family="Times New Roman,serif" font-size="14.00">http://example.org/v2</text>
</g>
<!-- http://example.org/distk_aj18&#45;&gt;http://example.org/v2 -->
<g id="edge8" class="edge"><title>http://example.org/distk_aj18&#45;&gt;http://example.org/v2</title>
<path fill="none" stroke="darkgreen" d="M428.79,-459.466C428.79,-478.064 428.79,-507.756 428.79,-529.499"/>
<polygon fill="darkgreen" stroke="darkgreen" points="425.29,-529.746 428.79,-539.746 432.29,-529.746 425.29,-529.746"/>
<text text-anchor="middle" x="510.29" y="-510.8" font-family="Times New Roman,serif" font-size="14.00">part</text>
<text text-anchor="middle" x="510.29" y="-495.8" font-family="Times New Roman,serif" font-size="14.00">row2[0]</text>
<text text-anchor="middle" x="510.29" y="-480.8" font-family="Times New Roman,serif" font-size="14.00">2018&#45;02&#45;26T14:42:00.742410</text>
</g>
<!-- http://example.org/access94 -->
<g id="node11" class="node"><title>http://example.org/access94</title>
<g id="a_node11"><a xlink:href="http://example.org/access94" xlink:title="access94">
<polygon fill="#9fb1fc" stroke="#0000ff" points="653.79,-576 585.79,-576 585.79,-540 653.79,-540 653.79,-576"/>
<text text-anchor="middle" x="619.79" y="-554.3" font-family="Times New Roman,serif" font-size="14.00">access94</text>
</a>
</g>
</g>
<!-- http://example.org/distk_aj18&#45;&gt;http://example.org/access94 -->
<g id="edge12" class="edge"><title>http://example.org/distk_aj18&#45;&gt;http://example.org/access94</title>
<path fill="none" stroke="black" d="M474.54,-446.685C516.801,-451.892 575.563,-461.652 592.79,-477 607.745,-490.324 614.428,-512.216 617.408,-529.733"/>
<polygon fill="black" stroke="black" points="613.986,-530.535 618.826,-539.96 620.919,-529.574 613.986,-530.535"/>
<text text-anchor="middle" x="483.647" y="-432.866" font-family="Times New Roman,serif" font-size="8.00">gen</text>
</g>
<!-- &#45;attrs2 -->
<g id="node9" class="node"><title>&#45;attrs2</title>
<polygon fill="none" stroke="gray" points="722.79,-386 644.79,-386 644.79,-350 728.79,-350 728.79,-380 722.79,-386"/>
<polyline fill="none" stroke="gray" points="722.79,-386 722.79,-380 "/>
<polyline fill="none" stroke="gray" points="728.79,-380 722.79,-380 "/>
<text text-anchor="start" x="654.79" y="-372" font-family="Times New Roman,serif" font-size="10.00">value:</text>
<text text-anchor="start" x="681.79" y="-372" font-family="Times New Roman,serif" font-size="10.00">&quot;distk[j]&quot;</text>
<text text-anchor="start" x="654.79" y="-359" font-family="Times New Roman,serif" font-size="10.00">type:</text>
<text text-anchor="start" x="681.79" y="-359" font-family="Times New Roman,serif" font-size="10.00">&quot;access&quot;</text>
</g>
<!-- &#45;attrs2&#45;&gt;http://example.org/distk_aj18 -->
<g id="edge7" class="edge"><title>&#45;attrs2&#45;&gt;http://example.org/distk_aj18</title>
<path fill="none" stroke="gray" stroke-dasharray="5,2" d="M644.558,-383.318C641.598,-384.248 638.653,-385.15 635.79,-386 577.931,-403.169 510.12,-420.3 468.304,-430.523"/>
</g>
<!-- http://example.org/distk2 -->
<g id="node13" class="node"><title>http://example.org/distk2</title>
<ellipse fill="none" stroke="black" cx="588.79" cy="-631" rx="100.983" ry="18"/>
<text text-anchor="middle" x="588.79" y="-627.3" font-family="Times New Roman,serif" font-size="14.00">http://example.org/distk2</text>
</g>
<!-- http://example.org/access94&#45;&gt;http://example.org/distk2 -->
<g id="edge10" class="edge"><title>http://example.org/access94&#45;&gt;http://example.org/distk2</title>
<path fill="none" stroke="black" d="M612.286,-576.187C608.707,-584.385 604.344,-594.377 600.354,-603.515"/>
<polygon fill="black" stroke="black" points="597.019,-602.406 596.225,-612.971 603.434,-605.207 597.019,-602.406"/>
<text text-anchor="middle" x="621.19" y="-586.359" font-family="Times New Roman,serif" font-size="8.00">use</text>
</g>
<!-- http://example.org/j18 -->
<g id="node14" class="node"><title>http://example.org/j18</title>
<ellipse fill="none" stroke="black" cx="796.79" cy="-631" rx="89.0842" ry="18"/>
<text text-anchor="middle" x="796.79" y="-627.3" font-family="Times New Roman,serif" font-size="14.00">http://example.org/j18</text>
</g>
<!-- http://example.org/access94&#45;&gt;http://example.org/j18 -->
<g id="edge11" class="edge"><title>http://example.org/access94&#45;&gt;http://example.org/j18</title>
<path fill="none" stroke="black" d="M653.917,-572.69C680.93,-583.525 718.977,-598.787 749.018,-610.837"/>
<polygon fill="black" stroke="black" points="747.881,-614.152 758.465,-614.627 750.487,-607.655 747.881,-614.152"/>
<text text-anchor="middle" x="665.715" y="-561.525" font-family="Times New Roman,serif" font-size="8.00">use</text>
</g>
<!-- &#45;attrs3 -->
<g id="node12" class="node"><title>&#45;attrs3</title>
<polygon fill="none" stroke="gray" points="665.79,-459 591.79,-459 591.79,-423 671.79,-423 671.79,-453 665.79,-459"/>
<polyline fill="none" stroke="gray" points="665.79,-459 665.79,-453 "/>
<polyline fill="none" stroke="gray" points="671.79,-453 665.79,-453 "/>
<text text-anchor="start" x="601.79" y="-438" font-family="Times New Roman,serif" font-size="10.00">type:</text>
<text text-anchor="start" x="624.79" y="-438" font-family="Times New Roman,serif" font-size="10.00">&quot;access&quot;</text>
</g>
<!-- &#45;attrs3&#45;&gt;http://example.org/access94 -->
<g id="edge9" class="edge"><title>&#45;attrs3&#45;&gt;http://example.org/access94</title>
<path fill="none" stroke="gray" stroke-dasharray="5,2" d="M629.968,-459.466C627.699,-481.207 623.849,-518.105 621.59,-539.746"/>
</g>
<!-- http://example.org/sum18 -->
<g id="node15" class="node"><title>http://example.org/sum18</title>
<g id="a_node15"><a xlink:href="http://example.org/sum18" xlink:title="sum18">
<ellipse fill="#fffc87" stroke="#808080" cx="380.79" cy="-266" rx="34.394" ry="18"/>
<text text-anchor="middle" x="380.79" y="-262.3" font-family="Times New Roman,serif" font-size="14.00">sum18</text>
</a>
</g>
</g>
<!-- http://example.org/sum18&#45;&gt;http://example.org/disti_ak18 -->
<g id="edge19" class="edge"><title>http://example.org/sum18&#45;&gt;http://example.org/disti_ak18</title>
<path fill="none" stroke="black" d="M373.613,-283.78C362.342,-308.589 338.466,-355.411 306.79,-386 291.226,-401.03 270.685,-413.451 252.775,-422.575"/>
<polygon fill="black" stroke="black" points="251.119,-419.489 243.689,-427.042 254.207,-425.77 251.119,-419.489"/>
<text text-anchor="middle" x="382.225" y="-294.162" font-family="Times New Roman,serif" font-size="8.00">der</text>
</g>
<!-- http://example.org/sum18&#45;&gt;http://example.org/distk_aj18 -->
<g id="edge21" class="edge"><title>http://example.org/sum18&#45;&gt;http://example.org/distk_aj18</title>
<path fill="none" stroke="black" d="M378.002,-284.046C376.378,-297.283 375.269,-316.013 378.79,-332 385.371,-361.881 401.07,-393.331 413.135,-414.536"/>
<polygon fill="black" stroke="black" points="410.149,-416.364 418.211,-423.238 416.196,-412.837 410.149,-416.364"/>
<text text-anchor="middle" x="390.066" y="-291.061" font-family="Times New Roman,serif" font-size="8.00">der</text>
</g>
<!-- http://example.org/vsum_18 -->
<g id="node17" class="node"><title>http://example.org/vsum_18</title>
<g id="a_node17"><a xlink:href="http://example.org/vsum_18" xlink:title="vsum_18">
<ellipse fill="#32cd32" stroke="#808080" cx="582.79" cy="-368" rx="44.393" ry="18"/>
<text text-anchor="middle" x="582.79" y="-364.3" font-family="Times New Roman,serif" font-size="14.00">vsum_18</text>
</a>
</g>
</g>
<!-- http://example.org/sum18&#45;&gt;http://example.org/vsum_18 -->
<g id="edge15" class="edge"><title>http://example.org/sum18&#45;&gt;http://example.org/vsum_18</title>
<path fill="none" stroke="darkgreen" d="M380.496,-284.186C381.22,-298.983 384.744,-319.822 397.79,-332 416.49,-349.455 481.477,-358.649 529.161,-363.159"/>
<polygon fill="darkgreen" stroke="darkgreen" points="529.08,-366.666 539.353,-364.078 529.708,-359.694 529.08,-366.666"/>
<text text-anchor="middle" x="479.29" y="-320.8" font-family="Times New Roman,serif" font-size="14.00">defined</text>
<text text-anchor="middle" x="479.29" y="-305.8" font-family="Times New Roman,serif" font-size="14.00">2018&#45;02&#45;26T14:42:00.742912</text>
</g>
<!-- http://example.org/add18 -->
<g id="node19" class="node"><title>http://example.org/add18</title>
<g id="a_node19"><a xlink:href="http://example.org/add18" xlink:title="add18">
<polygon fill="#9fb1fc" stroke="#0000ff" points="297.79,-386 243.79,-386 243.79,-350 297.79,-350 297.79,-386"/>
<text text-anchor="middle" x="270.79" y="-364.3" font-family="Times New Roman,serif" font-size="14.00">add18</text>
</a>
</g>
</g>
<!-- http://example.org/sum18&#45;&gt;http://example.org/add18 -->
<g id="edge22" class="edge"><title>http://example.org/sum18&#45;&gt;http://example.org/add18</title>
<path fill="none" stroke="black" d="M353.603,-277.08C340.276,-282.942 324.597,-291.301 312.79,-302 300.773,-312.89 290.751,-327.961 283.514,-340.849"/>
<polygon fill="black" stroke="black" points="280.38,-339.289 278.748,-349.757 286.552,-342.591 280.38,-339.289"/>
<text text-anchor="middle" x="352.11" y="-290.105" font-family="Times New Roman,serif" font-size="8.00">gen</text>
</g>
<!-- &#45;attrs4 -->
<g id="node16" class="node"><title>&#45;attrs4</title>
<polygon fill="none" stroke="gray" points="587.79,-182 471.79,-182 471.79,-146 593.79,-146 593.79,-176 587.79,-182"/>
<polyline fill="none" stroke="gray" points="587.79,-182 587.79,-176 "/>
<polyline fill="none" stroke="gray" points="593.79,-176 587.79,-176 "/>
<text text-anchor="start" x="481.79" y="-168" font-family="Times New Roman,serif" font-size="10.00">value:</text>
<text text-anchor="start" x="508.79" y="-168" font-family="Times New Roman,serif" font-size="10.00">&quot;disti[k] + distk[j]&quot;</text>
<text text-anchor="start" x="481.79" y="-155" font-family="Times New Roman,serif" font-size="10.00">type:</text>
<text text-anchor="start" x="508.79" y="-155" font-family="Times New Roman,serif" font-size="10.00">&quot;sum&quot;</text>
</g>
<!-- &#45;attrs4&#45;&gt;http://example.org/sum18 -->
<g id="edge13" class="edge"><title>&#45;attrs4&#45;&gt;http://example.org/sum18</title>
<path fill="none" stroke="gray" stroke-dasharray="5,2" d="M506.66,-182.191C476.952,-201.736 429.041,-233.256 401.697,-251.245"/>
</g>
<!-- http://example.org/vsum_18&#45;&gt;http://example.org/sum18 -->
<g id="edge16" class="edge"><title>http://example.org/vsum_18&#45;&gt;http://example.org/sum18</title>
<path fill="none" stroke="darkgreen" d="M581.637,-349.726C579.693,-334.87 574.515,-313.995 560.79,-302 540.956,-284.666 471.549,-275.117 424.947,-270.531"/>
<polygon fill="darkgreen" stroke="darkgreen" points="425.081,-267.029 414.796,-269.575 424.424,-273.998 425.081,-267.029"/>
<text text-anchor="middle" x="660.29" y="-320.8" font-family="Times New Roman,serif" font-size="14.00">def by</text>
<text text-anchor="middle" x="660.29" y="-305.8" font-family="Times New Roman,serif" font-size="14.00">2018&#45;02&#45;26T14:42:00.742912</text>
</g>
<!-- &#45;attrs5 -->
<g id="node18" class="node"><title>&#45;attrs5</title>
<polygon fill="none" stroke="gray" points="838.29,-284 789.29,-284 789.29,-248 844.29,-248 844.29,-278 838.29,-284"/>
<polyline fill="none" stroke="gray" points="838.29,-284 838.29,-278 "/>
<polyline fill="none" stroke="gray" points="844.29,-278 838.29,-278 "/>
<text text-anchor="start" x="799.79" y="-263" font-family="Times New Roman,serif" font-size="10.00">repr:</text>
<text text-anchor="start" x="820.79" y="-263" font-family="Times New Roman,serif" font-size="10.00">&quot;5&quot;</text>
</g>
<!-- &#45;attrs5&#45;&gt;http://example.org/vsum_18 -->
<g id="edge14" class="edge"><title>&#45;attrs5&#45;&gt;http://example.org/vsum_18</title>
<path fill="none" stroke="gray" stroke-dasharray="5,2" d="M810.56,-284.179C804.083,-299.402 792.401,-320.886 774.79,-332 722.11,-365.245 696.588,-336.431 635.79,-350 629,-351.515 621.836,-353.523 615.047,-355.626"/>
</g>
<!-- http://example.org/add18&#45;&gt;http://example.org/disti_ak18 -->
<g id="edge18" class="edge"><title>http://example.org/add18&#45;&gt;http://example.org/disti_ak18</title>
<path fill="none" stroke="black" d="M256.75,-386.187C249.521,-395.036 240.584,-405.976 232.66,-415.677"/>
<polygon fill="black" stroke="black" points="229.918,-413.501 226.302,-423.46 235.339,-417.93 229.918,-413.501"/>
<text text-anchor="middle" x="262.065" y="-398.314" font-family="Times New Roman,serif" font-size="8.00">use</text>
</g>
<!-- http://example.org/add18&#45;&gt;http://example.org/distk_aj18 -->
<g id="edge20" class="edge"><title>http://example.org/add18&#45;&gt;http://example.org/distk_aj18</title>
<path fill="none" stroke="black" d="M297.815,-381.4C313.059,-388.374 332.468,-397.216 349.79,-405 362.656,-410.782 376.729,-417.038 389.387,-422.64"/>
<polygon fill="black" stroke="black" points="388.185,-425.936 398.746,-426.778 391.015,-419.534 388.185,-425.936"/>
<text text-anchor="middle" x="310.037" y="-370.804" font-family="Times New Roman,serif" font-size="8.00">use</text>
</g>
<!-- &#45;attrs6 -->
<g id="node20" class="node"><title>&#45;attrs6</title>
<polygon fill="none" stroke="gray" points="298.79,-284 236.79,-284 236.79,-248 304.79,-248 304.79,-278 298.79,-284"/>
<polyline fill="none" stroke="gray" points="298.79,-284 298.79,-278 "/>
<polyline fill="none" stroke="gray" points="304.79,-278 298.79,-278 "/>
<text text-anchor="start" x="246.79" y="-263" font-family="Times New Roman,serif" font-size="10.00">type:</text>
<text text-anchor="start" x="269.79" y="-263" font-family="Times New Roman,serif" font-size="10.00">&quot;add&quot;</text>
</g>
<!-- &#45;attrs6&#45;&gt;http://example.org/add18 -->
<g id="edge17" class="edge"><title>&#45;attrs6&#45;&gt;http://example.org/add18</title>
<path fill="none" stroke="gray" stroke-dasharray="5,2" d="M270.79,-284.419C270.79,-302.773 270.79,-331.502 270.79,-349.781"/>
</g>
<!-- http://example.org/ikj18 -->
<g id="node21" class="node"><title>http://example.org/ikj18</title>
<g id="a_node21"><a xlink:href="http://example.org/ikj18" xlink:title="ikj18">
<ellipse fill="#fffc87" stroke="#808080" cx="420.79" cy="-91" rx="27.8951" ry="18"/>
<text text-anchor="middle" x="420.79" y="-87.3" font-family="Times New Roman,serif" font-size="14.00">ikj18</text>
</a>
</g>
</g>
<!-- http://example.org/ikj18&#45;&gt;http://example.org/sum18 -->
<g id="edge27" class="edge"><title>http://example.org/ikj18&#45;&gt;http://example.org/sum18</title>
<path fill="none" stroke="black" d="M405.212,-106.401C395.558,-116.436 384.032,-130.722 378.79,-146 368.451,-176.134 371.291,-213.136 375.186,-237.802"/>
<polygon fill="black" stroke="black" points="371.778,-238.631 376.945,-247.88 378.674,-237.427 371.778,-238.631"/>
<text text-anchor="middle" x="409.547" y="-118.861" font-family="Times New Roman,serif" font-size="8.00">der</text>
</g>
<!-- http://example.org/ikj18&#45;&gt;http://example.org/vsum_18 -->
<g id="edge24" class="edge"><title>http://example.org/ikj18&#45;&gt;http://example.org/vsum_18</title>
<path fill="none" stroke="darkgreen" d="M447.956,-95.4198C485.255,-101.102 553.322,-115.08 602.79,-146 682.547,-195.852 711.693,-214.343 745.79,-302 750.624,-314.426 754.423,-321.839 745.79,-332 729.752,-350.876 659.871,-344.201 635.79,-350 632.351,-350.828 628.811,-351.767 625.271,-352.768"/>
<polygon fill="darkgreen" stroke="darkgreen" points="623.958,-349.507 615.371,-355.714 625.954,-356.216 623.958,-349.507"/>
<text text-anchor="middle" x="790.29" y="-218.8" font-family="Times New Roman,serif" font-size="14.00">access</text>
<text text-anchor="middle" x="790.29" y="-203.8" font-family="Times New Roman,serif" font-size="14.00">2018&#45;02&#45;26T14:42:00.742912</text>
</g>
<!-- http://example.org/assign35 -->
<g id="node23" class="node"><title>http://example.org/assign35</title>
<g id="a_node23"><a xlink:href="http://example.org/assign35" xlink:title="assign35">
<polygon fill="#9fb1fc" stroke="#0000ff" points="453.29,-182 388.29,-182 388.29,-146 453.29,-146 453.29,-182"/>
<text text-anchor="middle" x="420.79" y="-160.3" font-family="Times New Roman,serif" font-size="14.00">assign35</text>
</a>
</g>
</g>
<!-- http://example.org/ikj18&#45;&gt;http://example.org/assign35 -->
<g id="edge28" class="edge"><title>http://example.org/ikj18&#45;&gt;http://example.org/assign35</title>
<path fill="none" stroke="black" d="M420.79,-109.187C420.79,-117.211 420.79,-126.953 420.79,-135.931"/>
<polygon fill="black" stroke="black" points="417.29,-135.971 420.79,-145.971 424.29,-135.971 417.29,-135.971"/>
<text text-anchor="middle" x="433.78" y="-114.787" font-family="Times New Roman,serif" font-size="8.00">gen</text>
</g>
<!-- &#45;attrs7 -->
<g id="node22" class="node"><title>&#45;attrs7</title>
<polygon fill="none" stroke="gray" points="453.79,-36 381.79,-36 381.79,-0 459.79,-0 459.79,-30 453.79,-36"/>
<polyline fill="none" stroke="gray" points="453.79,-36 453.79,-30 "/>
<polyline fill="none" stroke="gray" points="459.79,-30 453.79,-30 "/>
<text text-anchor="start" x="391.79" y="-22" font-family="Times New Roman,serif" font-size="10.00">value:</text>
<text text-anchor="start" x="418.79" y="-22" font-family="Times New Roman,serif" font-size="10.00">&quot;ikj&quot;</text>
<text text-anchor="start" x="391.79" y="-9" font-family="Times New Roman,serif" font-size="10.00">type:</text>
<text text-anchor="start" x="418.79" y="-9" font-family="Times New Roman,serif" font-size="10.00">&quot;name&quot;</text>
</g>
<!-- &#45;attrs7&#45;&gt;http://example.org/ikj18 -->
<g id="edge23" class="edge"><title>&#45;attrs7&#45;&gt;http://example.org/ikj18</title>
<path fill="none" stroke="gray" stroke-dasharray="5,2" d="M420.79,-36.1871C420.79,-47.3501 420.79,-61.8398 420.79,-72.9712"/>
</g>
<!-- http://example.org/assign35&#45;&gt;http://example.org/sum18 -->
<g id="edge26" class="edge"><title>http://example.org/assign35&#45;&gt;http://example.org/sum18</title>
<path fill="none" stroke="black" d="M413.823,-182.419C407.648,-197.855 398.538,-220.631 391.448,-238.355"/>
<polygon fill="black" stroke="black" points="388.009,-237.529 387.544,-248.114 394.508,-240.129 388.009,-237.529"/>
<text text-anchor="middle" x="423.098" y="-192.307" font-family="Times New Roman,serif" font-size="8.00">use</text>
</g>
<!-- &#45;attrs8 -->
<g id="node24" class="node"><title>&#45;attrs8</title>
<polygon fill="none" stroke="gray" points="368.29,-109 295.29,-109 295.29,-73 374.29,-73 374.29,-103 368.29,-109"/>
<polyline fill="none" stroke="gray" points="368.29,-109 368.29,-103 "/>
<polyline fill="none" stroke="gray" points="374.29,-103 368.29,-103 "/>
<text text-anchor="start" x="305.79" y="-88" font-family="Times New Roman,serif" font-size="10.00">type:</text>
<text text-anchor="start" x="328.79" y="-88" font-family="Times New Roman,serif" font-size="10.00">&quot;assign&quot;</text>
</g>
<!-- &#45;attrs8&#45;&gt;http://example.org/assign35 -->
<g id="edge25" class="edge"><title>&#45;attrs8&#45;&gt;http://example.org/assign35</title>
<path fill="none" stroke="gray" stroke-dasharray="5,2" d="M355.608,-109.187C369.13,-120.35 386.681,-134.84 400.164,-145.971"/>
</g>
</g>
</svg>
