<?xml version="1.0" encoding="UTF-8" standalone="no"?>
<!DOCTYPE svg PUBLIC "-//W3C//DTD SVG 1.1//EN"
 "http://www.w3.org/Graphics/SVG/1.1/DTD/svg11.dtd">
<!-- Generated by graphviz version 2.38.0 (20140413.2041)
 -->
<!-- Title: PROV Pages: 1 -->
<svg width="950pt" height="657pt"
 viewBox="0.00 0.00 950.14 657.00" xmlns="http://www.w3.org/2000/svg" xmlns:xlink="http://www.w3.org/1999/xlink">
<g id="graph0" class="graph" transform="scale(1 1) rotate(0) translate(4 653)">
<title>PROV</title>
<polygon fill="white" stroke="none" points="-4,4 -4,-653 946.141,-653 946.141,4 -4,4"/>
<!-- http://example.org/disti_ak24 -->
<g id="node1" class="node"><title>http://example.org/disti_ak24</title>
<g id="a_node1"><a xlink:href="http://example.org/disti_ak24" xlink:title="disti_ak24">
<ellipse fill="#fffc87" stroke="#808080" cx="391.141" cy="-441" rx="48.1917" ry="18"/>
<text text-anchor="middle" x="391.141" y="-437.3" font-family="Times New Roman,serif" font-size="14.00">disti_ak24</text>
</a>
</g>
</g>
<!-- http://example.org/v0 -->
<g id="node3" class="node"><title>http://example.org/v0</title>
<ellipse fill="none" stroke="black" cx="386.141" cy="-558" rx="87.1846" ry="18"/>
<text text-anchor="middle" x="386.141" y="-554.3" font-family="Times New Roman,serif" font-size="14.00">http://example.org/v0</text>
</g>
<!-- http://example.org/disti_ak24&#45;&gt;http://example.org/v0 -->
<g id="edge2" class="edge"><title>http://example.org/disti_ak24&#45;&gt;http://example.org/v0</title>
<path fill="none" stroke="darkgreen" d="M390.382,-459.466C389.573,-478.064 388.282,-507.756 387.337,-529.499"/>
<polygon fill="darkgreen" stroke="darkgreen" points="383.829,-529.604 386.891,-539.746 390.823,-529.908 383.829,-529.604"/>
<text text-anchor="middle" x="471.641" y="-510.8" font-family="Times New Roman,serif" font-size="14.00">part</text>
<text text-anchor="middle" x="471.641" y="-495.8" font-family="Times New Roman,serif" font-size="14.00">row2[2]</text>
<text text-anchor="middle" x="471.641" y="-480.8" font-family="Times New Roman,serif" font-size="14.00">2018&#45;02&#45;26T14:16:38.156471</text>
</g>
<!-- http://example.org/access121 -->
<g id="node4" class="node"><title>http://example.org/access121</title>
<g id="a_node4"><a xlink:href="http://example.org/access121" xlink:title="access121">
<polygon fill="#9fb1fc" stroke="#0000ff" points="281.141,-576 207.141,-576 207.141,-540 281.141,-540 281.141,-576"/>
<text text-anchor="middle" x="244.141" y="-554.3" font-family="Times New Roman,serif" font-size="14.00">access121</text>
</a>
</g>
</g>
<!-- http://example.org/disti_ak24&#45;&gt;http://example.org/access121 -->
<g id="edge6" class="edge"><title>http://example.org/disti_ak24&#45;&gt;http://example.org/access121</title>
<path fill="none" stroke="black" d="M371.316,-457.509C346.352,-477.04 303.222,-510.781 274.195,-533.489"/>
<polygon fill="black" stroke="black" points="271.762,-530.948 266.042,-539.867 276.075,-536.462 271.762,-530.948"/>
<text text-anchor="middle" x="373.413" y="-470.462" font-family="Times New Roman,serif" font-size="8.00">gen</text>
</g>
<!-- &#45;attrs0 -->
<g id="node2" class="node"><title>&#45;attrs0</title>
<polygon fill="none" stroke="gray" points="427.141,-386 349.141,-386 349.141,-350 433.141,-350 433.141,-380 427.141,-386"/>
<polyline fill="none" stroke="gray" points="427.141,-386 427.141,-380 "/>
<polyline fill="none" stroke="gray" points="433.141,-380 427.141,-380 "/>
<text text-anchor="start" x="359.141" y="-372" font-family="Times New Roman,serif" font-size="10.00">value:</text>
<text text-anchor="start" x="386.141" y="-372" font-family="Times New Roman,serif" font-size="10.00">&quot;disti[k]&quot;</text>
<text text-anchor="start" x="359.141" y="-359" font-family="Times New Roman,serif" font-size="10.00">type:</text>
<text text-anchor="start" x="386.141" y="-359" font-family="Times New Roman,serif" font-size="10.00">&quot;access&quot;</text>
</g>
<!-- &#45;attrs0&#45;&gt;http://example.org/disti_ak24 -->
<g id="edge1" class="edge"><title>&#45;attrs0&#45;&gt;http://example.org/disti_ak24</title>
<path fill="none" stroke="gray" stroke-dasharray="5,2" d="M391.141,-386.187C391.141,-397.35 391.141,-411.84 391.141,-422.971"/>
</g>
<!-- http://example.org/disti8 -->
<g id="node6" class="node"><title>http://example.org/disti8</title>
<ellipse fill="none" stroke="black" cx="98.1413" cy="-631" rx="98.2828" ry="18"/>
<text text-anchor="middle" x="98.1413" y="-627.3" font-family="Times New Roman,serif" font-size="14.00">http://example.org/disti8</text>
</g>
<!-- http://example.org/access121&#45;&gt;http://example.org/disti8 -->
<g id="edge4" class="edge"><title>http://example.org/access121&#45;&gt;http://example.org/disti8</title>
<path fill="none" stroke="black" d="M209.171,-576.006C188.502,-586.057 162.191,-598.853 140.37,-609.464"/>
<polygon fill="black" stroke="black" points="138.785,-606.343 131.322,-613.864 141.846,-612.638 138.785,-606.343"/>
<text text-anchor="middle" x="208.107" y="-589.069" font-family="Times New Roman,serif" font-size="8.00">use</text>
</g>
<!-- http://example.org/k2 -->
<g id="node7" class="node"><title>http://example.org/k2</title>
<ellipse fill="none" stroke="black" cx="301.141" cy="-631" rx="87.1846" ry="18"/>
<text text-anchor="middle" x="301.141" y="-627.3" font-family="Times New Roman,serif" font-size="14.00">http://example.org/k2</text>
</g>
<!-- http://example.org/access121&#45;&gt;http://example.org/k2 -->
<g id="edge5" class="edge"><title>http://example.org/access121&#45;&gt;http://example.org/k2</title>
<path fill="none" stroke="black" d="M257.939,-576.187C264.871,-584.821 273.4,-595.445 281.044,-604.966"/>
<polygon fill="black" stroke="black" points="278.481,-607.364 287.47,-612.971 283.939,-602.982 278.481,-607.364"/>
<text text-anchor="middle" x="272.765" y="-572.003" font-family="Times New Roman,serif" font-size="8.00">use</text>
</g>
<!-- &#45;attrs1 -->
<g id="node5" class="node"><title>&#45;attrs1</title>
<polygon fill="none" stroke="gray" points="278.141,-459 204.141,-459 204.141,-423 284.141,-423 284.141,-453 278.141,-459"/>
<polyline fill="none" stroke="gray" points="278.141,-459 278.141,-453 "/>
<polyline fill="none" stroke="gray" points="284.141,-453 278.141,-453 "/>
<text text-anchor="start" x="214.141" y="-438" font-family="Times New Roman,serif" font-size="10.00">type:</text>
<text text-anchor="start" x="237.141" y="-438" font-family="Times New Roman,serif" font-size="10.00">&quot;access&quot;</text>
</g>
<!-- &#45;attrs1&#45;&gt;http://example.org/access121 -->
<g id="edge3" class="edge"><title>&#45;attrs1&#45;&gt;http://example.org/access121</title>
<path fill="none" stroke="gray" stroke-dasharray="5,2" d="M244.141,-459.466C244.141,-481.207 244.141,-518.105 244.141,-539.746"/>
</g>
<!-- http://example.org/distk_aj24 -->
<g id="node8" class="node"><title>http://example.org/distk_aj24</title>
<g id="a_node8"><a xlink:href="http://example.org/distk_aj24" xlink:title="distk_aj24">
<ellipse fill="#fffc87" stroke="#808080" cx="666.141" cy="-441" rx="48.1917" ry="18"/>
<text text-anchor="middle" x="666.141" y="-437.3" font-family="Times New Roman,serif" font-size="14.00">distk_aj24</text>
</a>
</g>
</g>
<!-- http://example.org/v2 -->
<g id="node10" class="node"><title>http://example.org/v2</title>
<ellipse fill="none" stroke="black" cx="706.141" cy="-558" rx="87.1846" ry="18"/>
<text text-anchor="middle" x="706.141" y="-554.3" font-family="Times New Roman,serif" font-size="14.00">http://example.org/v2</text>
</g>
<!-- http://example.org/distk_aj24&#45;&gt;http://example.org/v2 -->
<g id="edge8" class="edge"><title>http://example.org/distk_aj24&#45;&gt;http://example.org/v2</title>
<path fill="none" stroke="darkgreen" d="M672.043,-458.969C678.572,-477.739 689.179,-508.233 696.83,-530.23"/>
<polygon fill="darkgreen" stroke="darkgreen" points="693.624,-531.667 700.215,-539.962 700.235,-529.367 693.624,-531.667"/>
<text text-anchor="middle" x="775.641" y="-510.8" font-family="Times New Roman,serif" font-size="14.00">part</text>
<text text-anchor="middle" x="775.641" y="-495.8" font-family="Times New Roman,serif" font-size="14.00">row2[0]</text>
<text text-anchor="middle" x="775.641" y="-480.8" font-family="Times New Roman,serif" font-size="14.00">2018&#45;02&#45;26T14:16:38.156471</text>
</g>
<!-- http://example.org/access122 -->
<g id="node11" class="node"><title>http://example.org/access122</title>
<g id="a_node11"><a xlink:href="http://example.org/access122" xlink:title="access122">
<polygon fill="#9fb1fc" stroke="#0000ff" points="601.141,-576 527.141,-576 527.141,-540 601.141,-540 601.141,-576"/>
<text text-anchor="middle" x="564.141" y="-554.3" font-family="Times New Roman,serif" font-size="14.00">access122</text>
</a>
</g>
</g>
<!-- http://example.org/distk_aj24&#45;&gt;http://example.org/access122 -->
<g id="edge12" class="edge"><title>http://example.org/distk_aj24&#45;&gt;http://example.org/access122</title>
<path fill="none" stroke="black" d="M651.527,-458.477C634.454,-477.726 606.029,-509.773 586.252,-532.071"/>
<polygon fill="black" stroke="black" points="583.412,-529.999 579.394,-539.803 588.649,-534.644 583.412,-529.999"/>
<text text-anchor="middle" x="656.269" y="-470.807" font-family="Times New Roman,serif" font-size="8.00">gen</text>
</g>
<!-- &#45;attrs2 -->
<g id="node9" class="node"><title>&#45;attrs2</title>
<polygon fill="none" stroke="gray" points="702.141,-386 624.141,-386 624.141,-350 708.141,-350 708.141,-380 702.141,-386"/>
<polyline fill="none" stroke="gray" points="702.141,-386 702.141,-380 "/>
<polyline fill="none" stroke="gray" points="708.141,-380 702.141,-380 "/>
<text text-anchor="start" x="634.141" y="-372" font-family="Times New Roman,serif" font-size="10.00">value:</text>
<text text-anchor="start" x="661.141" y="-372" font-family="Times New Roman,serif" font-size="10.00">&quot;distk[j]&quot;</text>
<text text-anchor="start" x="634.141" y="-359" font-family="Times New Roman,serif" font-size="10.00">type:</text>
<text text-anchor="start" x="661.141" y="-359" font-family="Times New Roman,serif" font-size="10.00">&quot;access&quot;</text>
</g>
<!-- &#45;attrs2&#45;&gt;http://example.org/distk_aj24 -->
<g id="edge7" class="edge"><title>&#45;attrs2&#45;&gt;http://example.org/distk_aj24</title>
<path fill="none" stroke="gray" stroke-dasharray="5,2" d="M666.141,-386.187C666.141,-397.35 666.141,-411.84 666.141,-422.971"/>
</g>
<!-- http://example.org/distk2 -->
<g id="node13" class="node"><title>http://example.org/distk2</title>
<ellipse fill="none" stroke="black" cx="535.141" cy="-631" rx="100.983" ry="18"/>
<text text-anchor="middle" x="535.141" y="-627.3" font-family="Times New Roman,serif" font-size="14.00">http://example.org/distk2</text>
</g>
<!-- http://example.org/access122&#45;&gt;http://example.org/distk2 -->
<g id="edge10" class="edge"><title>http://example.org/access122&#45;&gt;http://example.org/distk2</title>
<path fill="none" stroke="black" d="M557.121,-576.187C553.773,-584.385 549.692,-594.377 545.959,-603.515"/>
<polygon fill="black" stroke="black" points="542.638,-602.39 542.097,-612.971 549.118,-605.037 542.638,-602.39"/>
<text text-anchor="middle" x="566.311" y="-586.142" font-family="Times New Roman,serif" font-size="8.00">use</text>
</g>
<!-- http://example.org/j24 -->
<g id="node14" class="node"><title>http://example.org/j24</title>
<ellipse fill="none" stroke="black" cx="743.141" cy="-631" rx="89.0842" ry="18"/>
<text text-anchor="middle" x="743.141" y="-627.3" font-family="Times New Roman,serif" font-size="14.00">http://example.org/j24</text>
</g>
<!-- http://example.org/access122&#45;&gt;http://example.org/j24 -->
<g id="edge11" class="edge"><title>http://example.org/access122&#45;&gt;http://example.org/j24</title>
<path fill="none" stroke="black" d="M601.23,-573.711C628.371,-584.477 665.44,-599.18 694.886,-610.86"/>
<polygon fill="black" stroke="black" points="693.968,-614.261 704.554,-614.694 696.549,-607.754 693.968,-614.261"/>
<text text-anchor="middle" x="612.991" y="-562.501" font-family="Times New Roman,serif" font-size="8.00">use</text>
</g>
<!-- &#45;attrs3 -->
<g id="node12" class="node"><title>&#45;attrs3</title>
<polygon fill="none" stroke="gray" points="594.141,-459 520.141,-459 520.141,-423 600.141,-423 600.141,-453 594.141,-459"/>
<polyline fill="none" stroke="gray" points="594.141,-459 594.141,-453 "/>
<polyline fill="none" stroke="gray" points="600.141,-453 594.141,-453 "/>
<text text-anchor="start" x="530.141" y="-438" font-family="Times New Roman,serif" font-size="10.00">type:</text>
<text text-anchor="start" x="553.141" y="-438" font-family="Times New Roman,serif" font-size="10.00">&quot;access&quot;</text>
</g>
<!-- &#45;attrs3&#45;&gt;http://example.org/access122 -->
<g id="edge9" class="edge"><title>&#45;attrs3&#45;&gt;http://example.org/access122</title>
<path fill="none" stroke="gray" stroke-dasharray="5,2" d="M560.749,-459.466C561.505,-481.207 562.788,-518.105 563.541,-539.746"/>
</g>
<!-- http://example.org/sum24 -->
<g id="node15" class="node"><title>http://example.org/sum24</title>
<g id="a_node15"><a xlink:href="http://example.org/sum24" xlink:title="sum24">
<ellipse fill="#fffc87" stroke="#808080" cx="579.141" cy="-266" rx="34.394" ry="18"/>
<text text-anchor="middle" x="579.141" y="-262.3" font-family="Times New Roman,serif" font-size="14.00">sum24</text>
</a>
</g>
</g>
<!-- http://example.org/sum24&#45;&gt;http://example.org/disti_ak24 -->
<g id="edge18" class="edge"><title>http://example.org/sum24&#45;&gt;http://example.org/disti_ak24</title>
<path fill="none" stroke="black" d="M575.199,-283.9C568.462,-309.292 552.431,-357.352 522.141,-386 499.955,-406.984 468.481,-420.315 441.944,-428.48"/>
<polygon fill="black" stroke="black" points="440.668,-425.207 432.045,-431.362 442.625,-431.928 440.668,-425.207"/>
<text text-anchor="middle" x="585.694" y="-292.717" font-family="Times New Roman,serif" font-size="8.00">der</text>
</g>
<!-- http://example.org/sum24&#45;&gt;http://example.org/distk_aj24 -->
<g id="edge20" class="edge"><title>http://example.org/sum24&#45;&gt;http://example.org/distk_aj24</title>
<path fill="none" stroke="black" d="M581.278,-284.003C584.962,-308.276 594.232,-353.511 615.141,-386 622.229,-397.013 631.72,-407.787 640.592,-416.778"/>
<polygon fill="black" stroke="black" points="638.242,-419.375 647.832,-423.877 643.142,-414.377 638.242,-419.375"/>
<text text-anchor="middle" x="595.302" y="-287.425" font-family="Times New Roman,serif" font-size="8.00">der</text>
</g>
<!-- http://example.org/vsum_24 -->
<g id="node17" class="node"><title>http://example.org/vsum_24</title>
<g id="a_node17"><a xlink:href="http://example.org/vsum_24" xlink:title="vsum_24">
<ellipse fill="#32cd32" stroke="#808080" cx="790.141" cy="-368" rx="44.393" ry="18"/>
<text text-anchor="middle" x="790.141" y="-364.3" font-family="Times New Roman,serif" font-size="14.00">vsum_24</text>
</a>
</g>
</g>
<!-- http://example.org/sum24&#45;&gt;http://example.org/vsum_24 -->
<g id="edge15" class="edge"><title>http://example.org/sum24&#45;&gt;http://example.org/vsum_24</title>
<path fill="none" stroke="darkgreen" d="M586.823,-293.76C592.072,-307.275 600.432,-322.731 613.141,-332 651.042,-359.641 671.168,-340.676 717.141,-350 725.574,-351.71 734.521,-353.671 743.154,-355.639"/>
<polygon fill="darkgreen" stroke="darkgreen" points="589.994,-292.226 583.395,-283.938 583.385,-294.533 589.994,-292.226"/>
<polygon fill="darkgreen" stroke="darkgreen" points="742.563,-359.095 753.094,-357.938 744.14,-352.275 742.563,-359.095"/>
<text text-anchor="middle" x="694.641" y="-320.8" font-family="Times New Roman,serif" font-size="14.00">defined</text>
<text text-anchor="middle" x="694.641" y="-305.8" font-family="Times New Roman,serif" font-size="14.00">2018&#45;02&#45;26T14:16:38.156471</text>
</g>
<!-- http://example.org/add24 -->
<g id="node19" class="node"><title>http://example.org/add24</title>
<g id="a_node19"><a xlink:href="http://example.org/add24" xlink:title="add24">
<polygon fill="#9fb1fc" stroke="#0000ff" points="513.141,-386 459.141,-386 459.141,-350 513.141,-350 513.141,-386"/>
<text text-anchor="middle" x="486.141" y="-364.3" font-family="Times New Roman,serif" font-size="14.00">add24</text>
</a>
</g>
</g>
<!-- http://example.org/sum24&#45;&gt;http://example.org/add24 -->
<g id="edge21" class="edge"><title>http://example.org/sum24&#45;&gt;http://example.org/add24</title>
<path fill="none" stroke="black" d="M556.59,-279.742C547.144,-285.74 536.452,-293.455 528.141,-302 516.91,-313.548 506.986,-328.537 499.609,-341.211"/>
<polygon fill="black" stroke="black" points="496.547,-339.514 494.705,-349.947 502.652,-342.94 496.547,-339.514"/>
<text text-anchor="middle" x="557.33" y="-292.823" font-family="Times New Roman,serif" font-size="8.00">gen</text>
</g>
<!-- &#45;attrs4 -->
<g id="node16" class="node"><title>&#45;attrs4</title>
<polygon fill="none" stroke="gray" points="628.141,-182 512.141,-182 512.141,-146 634.141,-146 634.141,-176 628.141,-182"/>
<polyline fill="none" stroke="gray" points="628.141,-182 628.141,-176 "/>
<polyline fill="none" stroke="gray" points="634.141,-176 628.141,-176 "/>
<text text-anchor="start" x="522.141" y="-168" font-family="Times New Roman,serif" font-size="10.00">value:</text>
<text text-anchor="start" x="549.141" y="-168" font-family="Times New Roman,serif" font-size="10.00">&quot;disti[k] + distk[j]&quot;</text>
<text text-anchor="start" x="522.141" y="-155" font-family="Times New Roman,serif" font-size="10.00">type:</text>
<text text-anchor="start" x="549.141" y="-155" font-family="Times New Roman,serif" font-size="10.00">&quot;sum&quot;</text>
</g>
<!-- &#45;attrs4&#45;&gt;http://example.org/sum24 -->
<g id="edge13" class="edge"><title>&#45;attrs4&#45;&gt;http://example.org/sum24</title>
<path fill="none" stroke="gray" stroke-dasharray="5,2" d="M574.186,-182.419C575.288,-200.773 577.011,-229.502 578.108,-247.781"/>
</g>
<!-- &#45;attrs5 -->
<g id="node18" class="node"><title>&#45;attrs5</title>
<polygon fill="none" stroke="gray" points="867.641,-284 818.641,-284 818.641,-248 873.641,-248 873.641,-278 867.641,-284"/>
<polyline fill="none" stroke="gray" points="867.641,-284 867.641,-278 "/>
<polyline fill="none" stroke="gray" points="873.641,-278 867.641,-278 "/>
<text text-anchor="start" x="829.141" y="-263" font-family="Times New Roman,serif" font-size="10.00">repr:</text>
<text text-anchor="start" x="850.141" y="-263" font-family="Times New Roman,serif" font-size="10.00">&quot;2&quot;</text>
</g>
<!-- &#45;attrs5&#45;&gt;http://example.org/vsum_24 -->
<g id="edge14" class="edge"><title>&#45;attrs5&#45;&gt;http://example.org/vsum_24</title>
<path fill="none" stroke="gray" stroke-dasharray="5,2" d="M836.387,-284.419C826.046,-302.885 809.824,-331.853 799.597,-350.114"/>
</g>
<!-- http://example.org/add24&#45;&gt;http://example.org/disti_ak24 -->
<g id="edge17" class="edge"><title>http://example.org/add24&#45;&gt;http://example.org/disti_ak24</title>
<path fill="none" stroke="black" d="M463.144,-386.187C450.139,-395.907 433.758,-408.15 419.907,-418.501"/>
<polygon fill="black" stroke="black" points="417.578,-415.872 411.663,-424.662 421.769,-421.479 417.578,-415.872"/>
<text text-anchor="middle" x="464.914" y="-399.182" font-family="Times New Roman,serif" font-size="8.00">use</text>
</g>
<!-- http://example.org/add24&#45;&gt;http://example.org/distk_aj24 -->
<g id="edge19" class="edge"><title>http://example.org/add24&#45;&gt;http://example.org/distk_aj24</title>
<path fill="none" stroke="black" d="M513.288,-382.135C528.404,-389.254 547.649,-398.002 565.141,-405 583.313,-412.27 603.655,-419.491 621.295,-425.469"/>
<polygon fill="black" stroke="black" points="620.191,-428.79 630.785,-428.654 622.419,-422.154 620.191,-428.79"/>
<text text-anchor="middle" x="525.593" y="-371.657" font-family="Times New Roman,serif" font-size="8.00">use</text>
</g>
<!-- &#45;attrs6 -->
<g id="node20" class="node"><title>&#45;attrs6</title>
<polygon fill="none" stroke="gray" points="514.141,-284 452.141,-284 452.141,-248 520.141,-248 520.141,-278 514.141,-284"/>
<polyline fill="none" stroke="gray" points="514.141,-284 514.141,-278 "/>
<polyline fill="none" stroke="gray" points="520.141,-278 514.141,-278 "/>
<text text-anchor="start" x="462.141" y="-263" font-family="Times New Roman,serif" font-size="10.00">type:</text>
<text text-anchor="start" x="485.141" y="-263" font-family="Times New Roman,serif" font-size="10.00">&quot;add&quot;</text>
</g>
<!-- &#45;attrs6&#45;&gt;http://example.org/add24 -->
<g id="edge16" class="edge"><title>&#45;attrs6&#45;&gt;http://example.org/add24</title>
<path fill="none" stroke="gray" stroke-dasharray="5,2" d="M486.141,-284.419C486.141,-302.773 486.141,-331.502 486.141,-349.781"/>
</g>
<!-- http://example.org/ikj24 -->
<g id="node21" class="node"><title>http://example.org/ikj24</title>
<g id="a_node21"><a xlink:href="http://example.org/ikj24" xlink:title="ikj24">
<ellipse fill="#fffc87" stroke="#808080" cx="758.141" cy="-91" rx="27.8951" ry="18"/>
<text text-anchor="middle" x="758.141" y="-87.3" font-family="Times New Roman,serif" font-size="14.00">ikj24</text>
</a>
</g>
</g>
<!-- http://example.org/ikj24&#45;&gt;http://example.org/sum24 -->
<g id="edge26" class="edge"><title>http://example.org/ikj24&#45;&gt;http://example.org/sum24</title>
<path fill="none" stroke="black" d="M755.653,-108.951C752.055,-128.419 743.789,-160.442 726.141,-182 697.67,-216.779 650.555,-239.676 617.353,-252.445"/>
<polygon fill="black" stroke="black" points="616.115,-249.171 607.958,-255.932 618.551,-255.733 616.115,-249.171"/>
<text text-anchor="middle" x="766.943" y="-116.927" font-family="Times New Roman,serif" font-size="8.00">der</text>
</g>
<!-- http://example.org/ikj24&#45;&gt;http://example.org/vsum_24 -->
<g id="edge23" class="edge"><title>http://example.org/ikj24&#45;&gt;http://example.org/vsum_24</title>
<path fill="none" stroke="darkgreen" d="M762.478,-109.006C763.808,-114.697 765.175,-121.095 766.141,-127 778.666,-203.545 785.631,-294.967 788.524,-339.665"/>
<polygon fill="darkgreen" stroke="darkgreen" points="785.037,-339.973 789.158,-349.733 792.023,-339.533 785.037,-339.973"/>
<text text-anchor="middle" x="860.641" y="-218.8" font-family="Times New Roman,serif" font-size="14.00">access</text>
<text text-anchor="middle" x="860.641" y="-203.8" font-family="Times New Roman,serif" font-size="14.00">2018&#45;02&#45;26T14:16:38.156471</text>
</g>
<!-- http://example.org/assign44 -->
<g id="node23" class="node"><title>http://example.org/assign44</title>
<g id="a_node23"><a xlink:href="http://example.org/assign44" xlink:title="assign44">
<polygon fill="#9fb1fc" stroke="#0000ff" points="717.641,-182 652.641,-182 652.641,-146 717.641,-146 717.641,-182"/>
<text text-anchor="middle" x="685.141" y="-160.3" font-family="Times New Roman,serif" font-size="14.00">assign44</text>
</a>
</g>
</g>
<!-- http://example.org/ikj24&#45;&gt;http://example.org/assign44 -->
<g id="edge27" class="edge"><title>http://example.org/ikj24&#45;&gt;http://example.org/assign44</title>
<path fill="none" stroke="black" d="M743.369,-106.368C733.823,-115.652 721.16,-127.968 710.081,-138.743"/>
<polygon fill="black" stroke="black" points="707.451,-136.419 702.722,-145.901 712.331,-141.437 707.451,-136.419"/>
<text text-anchor="middle" x="747.049" y="-119.009" font-family="Times New Roman,serif" font-size="8.00">gen</text>
</g>
<!-- &#45;attrs7 -->
<g id="node22" class="node"><title>&#45;attrs7</title>
<polygon fill="none" stroke="gray" points="791.141,-36 719.141,-36 719.141,-0 797.141,-0 797.141,-30 791.141,-36"/>
<polyline fill="none" stroke="gray" points="791.141,-36 791.141,-30 "/>
<polyline fill="none" stroke="gray" points="797.141,-30 791.141,-30 "/>
<text text-anchor="start" x="729.141" y="-22" font-family="Times New Roman,serif" font-size="10.00">value:</text>
<text text-anchor="start" x="756.141" y="-22" font-family="Times New Roman,serif" font-size="10.00">&quot;ikj&quot;</text>
<text text-anchor="start" x="729.141" y="-9" font-family="Times New Roman,serif" font-size="10.00">type:</text>
<text text-anchor="start" x="756.141" y="-9" font-family="Times New Roman,serif" font-size="10.00">&quot;name&quot;</text>
</g>
<!-- &#45;attrs7&#45;&gt;http://example.org/ikj24 -->
<g id="edge22" class="edge"><title>&#45;attrs7&#45;&gt;http://example.org/ikj24</title>
<path fill="none" stroke="gray" stroke-dasharray="5,2" d="M758.141,-36.1871C758.141,-47.3501 758.141,-61.8398 758.141,-72.9712"/>
</g>
<!-- http://example.org/assign44&#45;&gt;http://example.org/sum24 -->
<g id="edge25" class="edge"><title>http://example.org/assign44&#45;&gt;http://example.org/sum24</title>
<path fill="none" stroke="black" d="M666.678,-182.419C648.952,-199.141 622.099,-224.474 602.811,-242.671"/>
<polygon fill="black" stroke="black" points="600.185,-240.336 595.312,-249.744 604.988,-245.428 600.185,-240.336"/>
<text text-anchor="middle" x="670.136" y="-195.114" font-family="Times New Roman,serif" font-size="8.00">use</text>
</g>
<!-- &#45;attrs8 -->
<g id="node24" class="node"><title>&#45;attrs8</title>
<polygon fill="none" stroke="gray" points="706.641,-109 633.641,-109 633.641,-73 712.641,-73 712.641,-103 706.641,-109"/>
<polyline fill="none" stroke="gray" points="706.641,-109 706.641,-103 "/>
<polyline fill="none" stroke="gray" points="712.641,-103 706.641,-103 "/>
<text text-anchor="start" x="644.141" y="-88" font-family="Times New Roman,serif" font-size="10.00">type:</text>
<text text-anchor="start" x="667.141" y="-88" font-family="Times New Roman,serif" font-size="10.00">&quot;assign&quot;</text>
</g>
<!-- &#45;attrs8&#45;&gt;http://example.org/assign44 -->
<g id="edge24" class="edge"><title>&#45;attrs8&#45;&gt;http://example.org/assign44</title>
<path fill="none" stroke="gray" stroke-dasharray="5,2" d="M676.046,-109.187C677.933,-120.35 680.382,-134.84 682.263,-145.971"/>
</g>
</g>
</svg>
