<?xml version="1.0" encoding="UTF-8" standalone="no"?>
<!DOCTYPE svg PUBLIC "-//W3C//DTD SVG 1.1//EN"
 "http://www.w3.org/Graphics/SVG/1.1/DTD/svg11.dtd">
<!-- Generated by graphviz version 2.38.0 (20140413.2041)
 -->
<!-- Title: PROV Pages: 1 -->
<svg width="902pt" height="657pt"
 viewBox="0.00 0.00 902.28 657.00" xmlns="http://www.w3.org/2000/svg" xmlns:xlink="http://www.w3.org/1999/xlink">
<g id="graph0" class="graph" transform="scale(1 1) rotate(0) translate(4 653)">
<title>PROV</title>
<polygon fill="white" stroke="none" points="-4,4 -4,-653 898.283,-653 898.283,4 -4,4"/>
<!-- http://example.org/disti_ak15 -->
<g id="node1" class="node"><title>http://example.org/disti_ak15</title>
<g id="a_node1"><a xlink:href="http://example.org/disti_ak15" xlink:title="disti_ak15">
<ellipse fill="#fffc87" stroke="#808080" cx="217.24" cy="-441" rx="48.1917" ry="18"/>
<text text-anchor="middle" x="217.24" y="-437.3" font-family="Times New Roman,serif" font-size="14.00">disti_ak15</text>
</a>
</g>
</g>
<!-- http://example.org/vsum_7 -->
<g id="node3" class="node"><title>http://example.org/vsum_7</title>
<ellipse fill="none" stroke="black" cx="107.24" cy="-558" rx="107.482" ry="18"/>
<text text-anchor="middle" x="107.24" y="-554.3" font-family="Times New Roman,serif" font-size="14.00">http://example.org/vsum_7</text>
</g>
<!-- http://example.org/disti_ak15&#45;&gt;http://example.org/vsum_7 -->
<g id="edge2" class="edge"><title>http://example.org/disti_ak15&#45;&gt;http://example.org/vsum_7</title>
<path fill="none" stroke="darkgreen" d="M169.569,-444.06C145.901,-447.792 119.229,-456.666 104.24,-477 93.1769,-492.009 94.5329,-513.257 98.3299,-530.083"/>
<polygon fill="darkgreen" stroke="darkgreen" points="94.9832,-531.118 100.92,-539.893 101.751,-529.331 94.9832,-531.118"/>
<text text-anchor="middle" x="185.74" y="-510.8" font-family="Times New Roman,serif" font-size="14.00">part</text>
<text text-anchor="middle" x="185.74" y="-495.8" font-family="Times New Roman,serif" font-size="14.00">row2[1]</text>
<text text-anchor="middle" x="185.74" y="-480.8" font-family="Times New Roman,serif" font-size="14.00">2018&#45;02&#45;26T14:41:59.383359</text>
</g>
<!-- http://example.org/access77 -->
<g id="node4" class="node"><title>http://example.org/access77</title>
<g id="a_node4"><a xlink:href="http://example.org/access77" xlink:title="access77">
<polygon fill="#9fb1fc" stroke="#0000ff" points="319.24,-576 251.24,-576 251.24,-540 319.24,-540 319.24,-576"/>
<text text-anchor="middle" x="285.24" y="-554.3" font-family="Times New Roman,serif" font-size="14.00">access77</text>
</a>
</g>
</g>
<!-- http://example.org/disti_ak15&#45;&gt;http://example.org/access77 -->
<g id="edge6" class="edge"><title>http://example.org/disti_ak15&#45;&gt;http://example.org/access77</title>
<path fill="none" stroke="black" d="M246.937,-455.274C256.06,-460.748 265.261,-467.962 271.24,-477 281.515,-492.531 284.915,-513.329 285.798,-529.826"/>
<polygon fill="black" stroke="black" points="282.303,-530.042 286.062,-539.948 289.3,-529.86 282.303,-530.042"/>
<text text-anchor="middle" x="260.154" y="-446.28" font-family="Times New Roman,serif" font-size="8.00">gen</text>
</g>
<!-- &#45;attrs0 -->
<g id="node2" class="node"><title>&#45;attrs0</title>
<polygon fill="none" stroke="gray" points="224.24,-386 146.24,-386 146.24,-350 230.24,-350 230.24,-380 224.24,-386"/>
<polyline fill="none" stroke="gray" points="224.24,-386 224.24,-380 "/>
<polyline fill="none" stroke="gray" points="230.24,-380 224.24,-380 "/>
<text text-anchor="start" x="156.24" y="-372" font-family="Times New Roman,serif" font-size="10.00">value:</text>
<text text-anchor="start" x="183.24" y="-372" font-family="Times New Roman,serif" font-size="10.00">&quot;disti[k]&quot;</text>
<text text-anchor="start" x="156.24" y="-359" font-family="Times New Roman,serif" font-size="10.00">type:</text>
<text text-anchor="start" x="183.24" y="-359" font-family="Times New Roman,serif" font-size="10.00">&quot;access&quot;</text>
</g>
<!-- &#45;attrs0&#45;&gt;http://example.org/disti_ak15 -->
<g id="edge1" class="edge"><title>&#45;attrs0&#45;&gt;http://example.org/disti_ak15</title>
<path fill="none" stroke="gray" stroke-dasharray="5,2" d="M195.261,-386.187C199.82,-397.35 205.738,-411.84 210.285,-422.971"/>
</g>
<!-- http://example.org/disti5 -->
<g id="node6" class="node"><title>http://example.org/disti5</title>
<ellipse fill="none" stroke="black" cx="153.24" cy="-631" rx="98.2828" ry="18"/>
<text text-anchor="middle" x="153.24" y="-627.3" font-family="Times New Roman,serif" font-size="14.00">http://example.org/disti5</text>
</g>
<!-- http://example.org/access77&#45;&gt;http://example.org/disti5 -->
<g id="edge4" class="edge"><title>http://example.org/access77&#45;&gt;http://example.org/disti5</title>
<path fill="none" stroke="black" d="M253.623,-576.006C235.319,-585.852 212.119,-598.331 192.634,-608.811"/>
<polygon fill="black" stroke="black" points="190.84,-605.802 183.691,-613.621 194.156,-611.967 190.84,-605.802"/>
<text text-anchor="middle" x="253.172" y="-589.099" font-family="Times New Roman,serif" font-size="8.00">use</text>
</g>
<!-- http://example.org/k1 -->
<g id="node7" class="node"><title>http://example.org/k1</title>
<ellipse fill="none" stroke="black" cx="356.24" cy="-631" rx="87.1846" ry="18"/>
<text text-anchor="middle" x="356.24" y="-627.3" font-family="Times New Roman,serif" font-size="14.00">http://example.org/k1</text>
</g>
<!-- http://example.org/access77&#45;&gt;http://example.org/k1 -->
<g id="edge5" class="edge"><title>http://example.org/access77&#45;&gt;http://example.org/k1</title>
<path fill="none" stroke="black" d="M302.428,-576.187C311.323,-585.083 322.331,-596.091 332.069,-605.828"/>
<polygon fill="black" stroke="black" points="329.666,-608.375 339.212,-612.971 334.615,-603.425 329.666,-608.375"/>
<text text-anchor="middle" x="316.916" y="-570.405" font-family="Times New Roman,serif" font-size="8.00">use</text>
</g>
<!-- &#45;attrs1 -->
<g id="node5" class="node"><title>&#45;attrs1</title>
<polygon fill="none" stroke="gray" points="357.24,-459 283.24,-459 283.24,-423 363.24,-423 363.24,-453 357.24,-459"/>
<polyline fill="none" stroke="gray" points="357.24,-459 357.24,-453 "/>
<polyline fill="none" stroke="gray" points="363.24,-453 357.24,-453 "/>
<text text-anchor="start" x="293.24" y="-438" font-family="Times New Roman,serif" font-size="10.00">type:</text>
<text text-anchor="start" x="316.24" y="-438" font-family="Times New Roman,serif" font-size="10.00">&quot;access&quot;</text>
</g>
<!-- &#45;attrs1&#45;&gt;http://example.org/access77 -->
<g id="edge3" class="edge"><title>&#45;attrs1&#45;&gt;http://example.org/access77</title>
<path fill="none" stroke="gray" stroke-dasharray="5,2" d="M318.529,-459.308C313.979,-475.609 306.698,-500.644 299.24,-522 297.212,-527.808 294.786,-534.069 292.527,-539.669"/>
</g>
<!-- http://example.org/distk_aj15 -->
<g id="node8" class="node"><title>http://example.org/distk_aj15</title>
<g id="a_node8"><a xlink:href="http://example.org/distk_aj15" xlink:title="distk_aj15">
<ellipse fill="#fffc87" stroke="#808080" cx="442.24" cy="-441" rx="48.1917" ry="18"/>
<text text-anchor="middle" x="442.24" y="-437.3" font-family="Times New Roman,serif" font-size="14.00">distk_aj15</text>
</a>
</g>
</g>
<!-- http://example.org/v10000 -->
<g id="node10" class="node"><title>http://example.org/v10000</title>
<ellipse fill="none" stroke="black" cx="442.24" cy="-558" rx="104.782" ry="18"/>
<text text-anchor="middle" x="442.24" y="-554.3" font-family="Times New Roman,serif" font-size="14.00">http://example.org/v10000</text>
</g>
<!-- http://example.org/distk_aj15&#45;&gt;http://example.org/v10000 -->
<g id="edge8" class="edge"><title>http://example.org/distk_aj15&#45;&gt;http://example.org/v10000</title>
<path fill="none" stroke="darkgreen" d="M442.24,-459.466C442.24,-478.064 442.24,-507.756 442.24,-529.499"/>
<polygon fill="darkgreen" stroke="darkgreen" points="438.741,-529.746 442.24,-539.746 445.741,-529.746 438.741,-529.746"/>
<text text-anchor="middle" x="523.74" y="-510.8" font-family="Times New Roman,serif" font-size="14.00">part</text>
<text text-anchor="middle" x="523.74" y="-495.8" font-family="Times New Roman,serif" font-size="14.00">row1[0]</text>
<text text-anchor="middle" x="523.74" y="-480.8" font-family="Times New Roman,serif" font-size="14.00">2018&#45;02&#45;26T14:41:59.383359</text>
</g>
<!-- http://example.org/access78 -->
<g id="node11" class="node"><title>http://example.org/access78</title>
<g id="a_node11"><a xlink:href="http://example.org/access78" xlink:title="access78">
<polygon fill="#9fb1fc" stroke="#0000ff" points="667.24,-576 599.24,-576 599.24,-540 667.24,-540 667.24,-576"/>
<text text-anchor="middle" x="633.24" y="-554.3" font-family="Times New Roman,serif" font-size="14.00">access78</text>
</a>
</g>
</g>
<!-- http://example.org/distk_aj15&#45;&gt;http://example.org/access78 -->
<g id="edge12" class="edge"><title>http://example.org/distk_aj15&#45;&gt;http://example.org/access78</title>
<path fill="none" stroke="black" d="M487.99,-446.685C530.251,-451.892 589.013,-461.652 606.24,-477 621.196,-490.324 627.878,-512.216 630.859,-529.733"/>
<polygon fill="black" stroke="black" points="627.436,-530.535 632.277,-539.96 634.37,-529.574 627.436,-530.535"/>
<text text-anchor="middle" x="497.098" y="-432.866" font-family="Times New Roman,serif" font-size="8.00">gen</text>
</g>
<!-- &#45;attrs2 -->
<g id="node9" class="node"><title>&#45;attrs2</title>
<polygon fill="none" stroke="gray" points="727.24,-386 649.24,-386 649.24,-350 733.24,-350 733.24,-380 727.24,-386"/>
<polyline fill="none" stroke="gray" points="727.24,-386 727.24,-380 "/>
<polyline fill="none" stroke="gray" points="733.24,-380 727.24,-380 "/>
<text text-anchor="start" x="659.24" y="-372" font-family="Times New Roman,serif" font-size="10.00">value:</text>
<text text-anchor="start" x="686.24" y="-372" font-family="Times New Roman,serif" font-size="10.00">&quot;distk[j]&quot;</text>
<text text-anchor="start" x="659.24" y="-359" font-family="Times New Roman,serif" font-size="10.00">type:</text>
<text text-anchor="start" x="686.24" y="-359" font-family="Times New Roman,serif" font-size="10.00">&quot;access&quot;</text>
</g>
<!-- &#45;attrs2&#45;&gt;http://example.org/distk_aj15 -->
<g id="edge7" class="edge"><title>&#45;attrs2&#45;&gt;http://example.org/distk_aj15</title>
<path fill="none" stroke="gray" stroke-dasharray="5,2" d="M648.997,-383.282C646.04,-384.22 643.099,-385.135 640.24,-386 585.166,-402.675 520.78,-419.802 480.749,-430.174"/>
</g>
<!-- http://example.org/distk1 -->
<g id="node13" class="node"><title>http://example.org/distk1</title>
<ellipse fill="none" stroke="black" cx="597.24" cy="-631" rx="100.983" ry="18"/>
<text text-anchor="middle" x="597.24" y="-627.3" font-family="Times New Roman,serif" font-size="14.00">http://example.org/distk1</text>
</g>
<!-- http://example.org/access78&#45;&gt;http://example.org/distk1 -->
<g id="edge10" class="edge"><title>http://example.org/access78&#45;&gt;http://example.org/distk1</title>
<path fill="none" stroke="black" d="M624.526,-576.187C620.325,-584.472 615.195,-594.59 610.522,-603.807"/>
<polygon fill="black" stroke="black" points="607.276,-602.469 605.875,-612.971 613.519,-605.635 607.276,-602.469"/>
<text text-anchor="middle" x="632.72" y="-586.851" font-family="Times New Roman,serif" font-size="8.00">use</text>
</g>
<!-- http://example.org/j15 -->
<g id="node14" class="node"><title>http://example.org/j15</title>
<ellipse fill="none" stroke="black" cx="805.24" cy="-631" rx="89.0842" ry="18"/>
<text text-anchor="middle" x="805.24" y="-627.3" font-family="Times New Roman,serif" font-size="14.00">http://example.org/j15</text>
</g>
<!-- http://example.org/access78&#45;&gt;http://example.org/j15 -->
<g id="edge11" class="edge"><title>http://example.org/access78&#45;&gt;http://example.org/j15</title>
<path fill="none" stroke="black" d="M667.634,-573.197C693.705,-583.959 729.817,-598.866 758.506,-610.709"/>
<polygon fill="black" stroke="black" points="757.347,-614.016 767.926,-614.597 760.018,-607.546 757.347,-614.016"/>
<text text-anchor="middle" x="679.523" y="-562.151" font-family="Times New Roman,serif" font-size="8.00">use</text>
</g>
<!-- &#45;attrs3 -->
<g id="node12" class="node"><title>&#45;attrs3</title>
<polygon fill="none" stroke="gray" points="679.24,-459 605.24,-459 605.24,-423 685.24,-423 685.24,-453 679.24,-459"/>
<polyline fill="none" stroke="gray" points="679.24,-459 679.24,-453 "/>
<polyline fill="none" stroke="gray" points="685.24,-453 679.24,-453 "/>
<text text-anchor="start" x="615.24" y="-438" font-family="Times New Roman,serif" font-size="10.00">type:</text>
<text text-anchor="start" x="638.24" y="-438" font-family="Times New Roman,serif" font-size="10.00">&quot;access&quot;</text>
</g>
<!-- &#45;attrs3&#45;&gt;http://example.org/access78 -->
<g id="edge9" class="edge"><title>&#45;attrs3&#45;&gt;http://example.org/access78</title>
<path fill="none" stroke="gray" stroke-dasharray="5,2" d="M643.418,-459.466C641.149,-481.207 637.299,-518.105 635.041,-539.746"/>
</g>
<!-- http://example.org/sum15 -->
<g id="node15" class="node"><title>http://example.org/sum15</title>
<g id="a_node15"><a xlink:href="http://example.org/sum15" xlink:title="sum15">
<ellipse fill="#fffc87" stroke="#808080" cx="385.24" cy="-266" rx="34.394" ry="18"/>
<text text-anchor="middle" x="385.24" y="-262.3" font-family="Times New Roman,serif" font-size="14.00">sum15</text>
</a>
</g>
</g>
<!-- http://example.org/sum15&#45;&gt;http://example.org/disti_ak15 -->
<g id="edge19" class="edge"><title>http://example.org/sum15&#45;&gt;http://example.org/disti_ak15</title>
<path fill="none" stroke="black" d="M378.064,-283.78C366.793,-308.589 342.916,-355.411 311.24,-386 295.677,-401.03 275.135,-413.451 257.225,-422.575"/>
<polygon fill="black" stroke="black" points="255.569,-419.489 248.14,-427.042 258.658,-425.77 255.569,-419.489"/>
<text text-anchor="middle" x="386.675" y="-294.162" font-family="Times New Roman,serif" font-size="8.00">der</text>
</g>
<!-- http://example.org/sum15&#45;&gt;http://example.org/distk_aj15 -->
<g id="edge21" class="edge"><title>http://example.org/sum15&#45;&gt;http://example.org/distk_aj15</title>
<path fill="none" stroke="black" d="M382.154,-284.117C380.37,-297.392 379.19,-316.138 383.24,-332 391.103,-362.793 409.748,-394.265 423.991,-415.23"/>
<polygon fill="black" stroke="black" points="421.192,-417.336 429.781,-423.539 426.936,-413.333 421.192,-417.336"/>
<text text-anchor="middle" x="394.124" y="-291.257" font-family="Times New Roman,serif" font-size="8.00">der</text>
</g>
<!-- http://example.org/vsum_15 -->
<g id="node17" class="node"><title>http://example.org/vsum_15</title>
<g id="a_node17"><a xlink:href="http://example.org/vsum_15" xlink:title="vsum_15">
<ellipse fill="#32cd32" stroke="#808080" cx="587.24" cy="-368" rx="44.393" ry="18"/>
<text text-anchor="middle" x="587.24" y="-364.3" font-family="Times New Roman,serif" font-size="14.00">vsum_15</text>
</a>
</g>
</g>
<!-- http://example.org/sum15&#45;&gt;http://example.org/vsum_15 -->
<g id="edge15" class="edge"><title>http://example.org/sum15&#45;&gt;http://example.org/vsum_15</title>
<path fill="none" stroke="darkgreen" d="M384.946,-284.186C385.67,-298.983 389.194,-319.822 402.24,-332 420.94,-349.455 485.927,-358.649 533.612,-363.159"/>
<polygon fill="darkgreen" stroke="darkgreen" points="533.53,-366.666 543.804,-364.078 534.158,-359.694 533.53,-366.666"/>
<text text-anchor="middle" x="483.74" y="-320.8" font-family="Times New Roman,serif" font-size="14.00">defined</text>
<text text-anchor="middle" x="483.74" y="-305.8" font-family="Times New Roman,serif" font-size="14.00">2018&#45;02&#45;26T14:41:59.383359</text>
</g>
<!-- http://example.org/add15 -->
<g id="node19" class="node"><title>http://example.org/add15</title>
<g id="a_node19"><a xlink:href="http://example.org/add15" xlink:title="add15">
<polygon fill="#9fb1fc" stroke="#0000ff" points="302.24,-386 248.24,-386 248.24,-350 302.24,-350 302.24,-386"/>
<text text-anchor="middle" x="275.24" y="-364.3" font-family="Times New Roman,serif" font-size="14.00">add15</text>
</a>
</g>
</g>
<!-- http://example.org/sum15&#45;&gt;http://example.org/add15 -->
<g id="edge22" class="edge"><title>http://example.org/sum15&#45;&gt;http://example.org/add15</title>
<path fill="none" stroke="black" d="M358.053,-277.08C344.726,-282.942 329.047,-291.301 317.24,-302 305.224,-312.89 295.202,-327.961 287.965,-340.849"/>
<polygon fill="black" stroke="black" points="284.83,-339.289 283.199,-349.757 291.002,-342.591 284.83,-339.289"/>
<text text-anchor="middle" x="356.561" y="-290.105" font-family="Times New Roman,serif" font-size="8.00">gen</text>
</g>
<!-- &#45;attrs4 -->
<g id="node16" class="node"><title>&#45;attrs4</title>
<polygon fill="none" stroke="gray" points="592.24,-182 476.24,-182 476.24,-146 598.24,-146 598.24,-176 592.24,-182"/>
<polyline fill="none" stroke="gray" points="592.24,-182 592.24,-176 "/>
<polyline fill="none" stroke="gray" points="598.24,-176 592.24,-176 "/>
<text text-anchor="start" x="486.24" y="-168" font-family="Times New Roman,serif" font-size="10.00">value:</text>
<text text-anchor="start" x="513.24" y="-168" font-family="Times New Roman,serif" font-size="10.00">&quot;disti[k] + distk[j]&quot;</text>
<text text-anchor="start" x="486.24" y="-155" font-family="Times New Roman,serif" font-size="10.00">type:</text>
<text text-anchor="start" x="513.24" y="-155" font-family="Times New Roman,serif" font-size="10.00">&quot;sum&quot;</text>
</g>
<!-- &#45;attrs4&#45;&gt;http://example.org/sum15 -->
<g id="edge13" class="edge"><title>&#45;attrs4&#45;&gt;http://example.org/sum15</title>
<path fill="none" stroke="gray" stroke-dasharray="5,2" d="M511.111,-182.191C481.402,-201.736 433.492,-233.256 406.147,-251.245"/>
</g>
<!-- http://example.org/vsum_15&#45;&gt;http://example.org/sum15 -->
<g id="edge16" class="edge"><title>http://example.org/vsum_15&#45;&gt;http://example.org/sum15</title>
<path fill="none" stroke="darkgreen" d="M586.088,-349.726C584.143,-334.87 578.965,-313.995 565.24,-302 545.407,-284.666 475.999,-275.117 429.398,-270.531"/>
<polygon fill="darkgreen" stroke="darkgreen" points="429.531,-267.029 419.247,-269.575 428.874,-273.998 429.531,-267.029"/>
<text text-anchor="middle" x="664.74" y="-320.8" font-family="Times New Roman,serif" font-size="14.00">def by</text>
<text text-anchor="middle" x="664.74" y="-305.8" font-family="Times New Roman,serif" font-size="14.00">2018&#45;02&#45;26T14:41:59.383359</text>
</g>
<!-- &#45;attrs5 -->
<g id="node18" class="node"><title>&#45;attrs5</title>
<polygon fill="none" stroke="gray" points="860.74,-284 793.74,-284 793.74,-248 866.74,-248 866.74,-278 860.74,-284"/>
<polyline fill="none" stroke="gray" points="860.74,-284 860.74,-278 "/>
<polyline fill="none" stroke="gray" points="866.74,-278 860.74,-278 "/>
<text text-anchor="start" x="804.24" y="-263" font-family="Times New Roman,serif" font-size="10.00">repr:</text>
<text text-anchor="start" x="825.24" y="-263" font-family="Times New Roman,serif" font-size="10.00">&quot;10003&quot;</text>
</g>
<!-- &#45;attrs5&#45;&gt;http://example.org/vsum_15 -->
<g id="edge14" class="edge"><title>&#45;attrs5&#45;&gt;http://example.org/vsum_15</title>
<path fill="none" stroke="gray" stroke-dasharray="5,2" d="M821.713,-284.237C813.186,-299.498 798.566,-321.008 779.24,-332 725.093,-362.798 701.038,-336.431 640.24,-350 633.45,-351.515 626.287,-353.523 619.498,-355.626"/>
</g>
<!-- http://example.org/add15&#45;&gt;http://example.org/disti_ak15 -->
<g id="edge18" class="edge"><title>http://example.org/add15&#45;&gt;http://example.org/disti_ak15</title>
<path fill="none" stroke="black" d="M261.2,-386.187C253.971,-395.036 245.034,-405.976 237.11,-415.677"/>
<polygon fill="black" stroke="black" points="234.368,-413.501 230.752,-423.46 239.789,-417.93 234.368,-413.501"/>
<text text-anchor="middle" x="266.516" y="-398.314" font-family="Times New Roman,serif" font-size="8.00">use</text>
</g>
<!-- http://example.org/add15&#45;&gt;http://example.org/distk_aj15 -->
<g id="edge20" class="edge"><title>http://example.org/add15&#45;&gt;http://example.org/distk_aj15</title>
<path fill="none" stroke="black" d="M302.515,-381.827C317.669,-388.854 336.91,-397.61 354.24,-405 369.252,-411.401 385.853,-418.1 400.552,-423.904"/>
<polygon fill="black" stroke="black" points="399.315,-427.178 409.902,-427.576 401.874,-420.662 399.315,-427.178"/>
<text text-anchor="middle" x="314.775" y="-371.286" font-family="Times New Roman,serif" font-size="8.00">use</text>
</g>
<!-- &#45;attrs6 -->
<g id="node20" class="node"><title>&#45;attrs6</title>
<polygon fill="none" stroke="gray" points="303.24,-284 241.24,-284 241.24,-248 309.24,-248 309.24,-278 303.24,-284"/>
<polyline fill="none" stroke="gray" points="303.24,-284 303.24,-278 "/>
<polyline fill="none" stroke="gray" points="309.24,-278 303.24,-278 "/>
<text text-anchor="start" x="251.24" y="-263" font-family="Times New Roman,serif" font-size="10.00">type:</text>
<text text-anchor="start" x="274.24" y="-263" font-family="Times New Roman,serif" font-size="10.00">&quot;add&quot;</text>
</g>
<!-- &#45;attrs6&#45;&gt;http://example.org/add15 -->
<g id="edge17" class="edge"><title>&#45;attrs6&#45;&gt;http://example.org/add15</title>
<path fill="none" stroke="gray" stroke-dasharray="5,2" d="M275.24,-284.419C275.24,-302.773 275.24,-331.502 275.24,-349.781"/>
</g>
<!-- http://example.org/ikj15 -->
<g id="node21" class="node"><title>http://example.org/ikj15</title>
<g id="a_node21"><a xlink:href="http://example.org/ikj15" xlink:title="ikj15">
<ellipse fill="#fffc87" stroke="#808080" cx="425.24" cy="-91" rx="27.8951" ry="18"/>
<text text-anchor="middle" x="425.24" y="-87.3" font-family="Times New Roman,serif" font-size="14.00">ikj15</text>
</a>
</g>
</g>
<!-- http://example.org/ikj15&#45;&gt;http://example.org/sum15 -->
<g id="edge27" class="edge"><title>http://example.org/ikj15&#45;&gt;http://example.org/sum15</title>
<path fill="none" stroke="black" d="M409.662,-106.401C400.008,-116.436 388.483,-130.722 383.24,-146 372.901,-176.134 375.742,-213.136 379.637,-237.802"/>
<polygon fill="black" stroke="black" points="376.228,-238.631 381.396,-247.88 383.124,-237.427 376.228,-238.631"/>
<text text-anchor="middle" x="413.997" y="-118.861" font-family="Times New Roman,serif" font-size="8.00">der</text>
</g>
<!-- http://example.org/ikj15&#45;&gt;http://example.org/vsum_15 -->
<g id="edge24" class="edge"><title>http://example.org/ikj15&#45;&gt;http://example.org/vsum_15</title>
<path fill="none" stroke="darkgreen" d="M452.406,-95.4198C489.705,-101.102 557.772,-115.08 607.24,-146 686.997,-195.852 716.143,-214.343 750.24,-302 755.074,-314.426 758.874,-321.839 750.24,-332 734.202,-350.876 664.322,-344.201 640.24,-350 636.801,-350.828 633.262,-351.767 629.721,-352.768"/>
<polygon fill="darkgreen" stroke="darkgreen" points="628.408,-349.507 619.821,-355.714 630.404,-356.216 628.408,-349.507"/>
<text text-anchor="middle" x="794.74" y="-218.8" font-family="Times New Roman,serif" font-size="14.00">access</text>
<text text-anchor="middle" x="794.74" y="-203.8" font-family="Times New Roman,serif" font-size="14.00">2018&#45;02&#45;26T14:41:59.383359</text>
</g>
<!-- http://example.org/assign30 -->
<g id="node23" class="node"><title>http://example.org/assign30</title>
<g id="a_node23"><a xlink:href="http://example.org/assign30" xlink:title="assign30">
<polygon fill="#9fb1fc" stroke="#0000ff" points="457.74,-182 392.74,-182 392.74,-146 457.74,-146 457.74,-182"/>
<text text-anchor="middle" x="425.24" y="-160.3" font-family="Times New Roman,serif" font-size="14.00">assign30</text>
</a>
</g>
</g>
<!-- http://example.org/ikj15&#45;&gt;http://example.org/assign30 -->
<g id="edge28" class="edge"><title>http://example.org/ikj15&#45;&gt;http://example.org/assign30</title>
<path fill="none" stroke="black" d="M425.24,-109.187C425.24,-117.211 425.24,-126.953 425.24,-135.931"/>
<polygon fill="black" stroke="black" points="421.741,-135.971 425.24,-145.971 428.741,-135.971 421.741,-135.971"/>
<text text-anchor="middle" x="438.231" y="-114.787" font-family="Times New Roman,serif" font-size="8.00">gen</text>
</g>
<!-- &#45;attrs7 -->
<g id="node22" class="node"><title>&#45;attrs7</title>
<polygon fill="none" stroke="gray" points="458.24,-36 386.24,-36 386.24,-0 464.24,-0 464.24,-30 458.24,-36"/>
<polyline fill="none" stroke="gray" points="458.24,-36 458.24,-30 "/>
<polyline fill="none" stroke="gray" points="464.24,-30 458.24,-30 "/>
<text text-anchor="start" x="396.24" y="-22" font-family="Times New Roman,serif" font-size="10.00">value:</text>
<text text-anchor="start" x="423.24" y="-22" font-family="Times New Roman,serif" font-size="10.00">&quot;ikj&quot;</text>
<text text-anchor="start" x="396.24" y="-9" font-family="Times New Roman,serif" font-size="10.00">type:</text>
<text text-anchor="start" x="423.24" y="-9" font-family="Times New Roman,serif" font-size="10.00">&quot;name&quot;</text>
</g>
<!-- &#45;attrs7&#45;&gt;http://example.org/ikj15 -->
<g id="edge23" class="edge"><title>&#45;attrs7&#45;&gt;http://example.org/ikj15</title>
<path fill="none" stroke="gray" stroke-dasharray="5,2" d="M425.24,-36.1871C425.24,-47.3501 425.24,-61.8398 425.24,-72.9712"/>
</g>
<!-- http://example.org/assign30&#45;&gt;http://example.org/sum15 -->
<g id="edge26" class="edge"><title>http://example.org/assign30&#45;&gt;http://example.org/sum15</title>
<path fill="none" stroke="black" d="M418.273,-182.419C412.098,-197.855 402.988,-220.631 395.898,-238.355"/>
<polygon fill="black" stroke="black" points="392.459,-237.529 391.995,-248.114 398.958,-240.129 392.459,-237.529"/>
<text text-anchor="middle" x="427.549" y="-192.307" font-family="Times New Roman,serif" font-size="8.00">use</text>
</g>
<!-- &#45;attrs8 -->
<g id="node24" class="node"><title>&#45;attrs8</title>
<polygon fill="none" stroke="gray" points="372.74,-109 299.74,-109 299.74,-73 378.74,-73 378.74,-103 372.74,-109"/>
<polyline fill="none" stroke="gray" points="372.74,-109 372.74,-103 "/>
<polyline fill="none" stroke="gray" points="378.74,-103 372.74,-103 "/>
<text text-anchor="start" x="310.24" y="-88" font-family="Times New Roman,serif" font-size="10.00">type:</text>
<text text-anchor="start" x="333.24" y="-88" font-family="Times New Roman,serif" font-size="10.00">&quot;assign&quot;</text>
</g>
<!-- &#45;attrs8&#45;&gt;http://example.org/assign30 -->
<g id="edge25" class="edge"><title>&#45;attrs8&#45;&gt;http://example.org/assign30</title>
<path fill="none" stroke="gray" stroke-dasharray="5,2" d="M360.059,-109.187C373.58,-120.35 391.131,-134.84 404.614,-145.971"/>
</g>
</g>
</svg>
