<?xml version="1.0" encoding="UTF-8" standalone="no"?>
<!DOCTYPE svg PUBLIC "-//W3C//DTD SVG 1.1//EN"
 "http://www.w3.org/Graphics/SVG/1.1/DTD/svg11.dtd">
<!-- Generated by graphviz version 2.38.0 (20140413.2041)
 -->
<!-- Title: PROV Pages: 1 -->
<svg width="956pt" height="657pt"
 viewBox="0.00 0.00 956.14 657.00" xmlns="http://www.w3.org/2000/svg" xmlns:xlink="http://www.w3.org/1999/xlink">
<g id="graph0" class="graph" transform="scale(1 1) rotate(0) translate(4 653)">
<title>PROV</title>
<polygon fill="white" stroke="none" points="-4,4 -4,-653 952.141,-653 952.141,4 -4,4"/>
<!-- http://example.org/disti_ak4 -->
<g id="node1" class="node"><title>http://example.org/disti_ak4</title>
<g id="a_node1"><a xlink:href="http://example.org/disti_ak4" xlink:title="disti_ak4">
<ellipse fill="#fffc87" stroke="#808080" cx="398.141" cy="-441" rx="43.5923" ry="18"/>
<text text-anchor="middle" x="398.141" y="-437.3" font-family="Times New Roman,serif" font-size="14.00">disti_ak4</text>
</a>
</g>
</g>
<!-- http://example.org/v10000 -->
<g id="node3" class="node"><title>http://example.org/v10000</title>
<ellipse fill="none" stroke="black" cx="394.141" cy="-558" rx="104.782" ry="18"/>
<text text-anchor="middle" x="394.141" y="-554.3" font-family="Times New Roman,serif" font-size="14.00">http://example.org/v10000</text>
</g>
<!-- http://example.org/disti_ak4&#45;&gt;http://example.org/v10000 -->
<g id="edge2" class="edge"><title>http://example.org/disti_ak4&#45;&gt;http://example.org/v10000</title>
<path fill="none" stroke="darkgreen" d="M396.427,-459.073C395.922,-464.769 395.428,-471.152 395.141,-477 394.287,-494.415 394.03,-513.987 393.99,-529.413"/>
<polygon fill="darkgreen" stroke="darkgreen" points="390.49,-529.824 393.994,-539.823 397.49,-529.821 390.49,-529.824"/>
<text text-anchor="middle" x="476.641" y="-510.8" font-family="Times New Roman,serif" font-size="14.00">part</text>
<text text-anchor="middle" x="476.641" y="-495.8" font-family="Times New Roman,serif" font-size="14.00">row1[0]</text>
<text text-anchor="middle" x="476.641" y="-480.8" font-family="Times New Roman,serif" font-size="14.00">2018&#45;02&#45;26T14:16:29.309391</text>
</g>
<!-- http://example.org/access23 -->
<g id="node4" class="node"><title>http://example.org/access23</title>
<g id="a_node4"><a xlink:href="http://example.org/access23" xlink:title="access23">
<polygon fill="#9fb1fc" stroke="#0000ff" points="271.141,-576 203.141,-576 203.141,-540 271.141,-540 271.141,-576"/>
<text text-anchor="middle" x="237.141" y="-554.3" font-family="Times New Roman,serif" font-size="14.00">access23</text>
</a>
</g>
</g>
<!-- http://example.org/disti_ak4&#45;&gt;http://example.org/access23 -->
<g id="edge6" class="edge"><title>http://example.org/disti_ak4&#45;&gt;http://example.org/access23</title>
<path fill="none" stroke="black" d="M377.093,-457.034C349.63,-476.651 301.307,-511.167 269.255,-534.062"/>
<polygon fill="black" stroke="black" points="267.182,-531.241 261.079,-539.902 271.251,-536.937 267.182,-531.241"/>
<text text-anchor="middle" x="378.541" y="-470.064" font-family="Times New Roman,serif" font-size="8.00">gen</text>
</g>
<!-- &#45;attrs0 -->
<g id="node2" class="node"><title>&#45;attrs0</title>
<polygon fill="none" stroke="gray" points="434.141,-386 356.141,-386 356.141,-350 440.141,-350 440.141,-380 434.141,-386"/>
<polyline fill="none" stroke="gray" points="434.141,-386 434.141,-380 "/>
<polyline fill="none" stroke="gray" points="440.141,-380 434.141,-380 "/>
<text text-anchor="start" x="366.141" y="-372" font-family="Times New Roman,serif" font-size="10.00">value:</text>
<text text-anchor="start" x="393.141" y="-372" font-family="Times New Roman,serif" font-size="10.00">&quot;disti[k]&quot;</text>
<text text-anchor="start" x="366.141" y="-359" font-family="Times New Roman,serif" font-size="10.00">type:</text>
<text text-anchor="start" x="393.141" y="-359" font-family="Times New Roman,serif" font-size="10.00">&quot;access&quot;</text>
</g>
<!-- &#45;attrs0&#45;&gt;http://example.org/disti_ak4 -->
<g id="edge1" class="edge"><title>&#45;attrs0&#45;&gt;http://example.org/disti_ak4</title>
<path fill="none" stroke="gray" stroke-dasharray="5,2" d="M398.141,-386.187C398.141,-397.35 398.141,-411.84 398.141,-422.971"/>
</g>
<!-- http://example.org/disti1 -->
<g id="node6" class="node"><title>http://example.org/disti1</title>
<ellipse fill="none" stroke="black" cx="98.1413" cy="-631" rx="98.2828" ry="18"/>
<text text-anchor="middle" x="98.1413" y="-627.3" font-family="Times New Roman,serif" font-size="14.00">http://example.org/disti1</text>
</g>
<!-- http://example.org/access23&#45;&gt;http://example.org/disti1 -->
<g id="edge4" class="edge"><title>http://example.org/access23&#45;&gt;http://example.org/disti1</title>
<path fill="none" stroke="black" d="M203.847,-576.006C184.346,-585.968 159.567,-598.624 138.903,-609.179"/>
<polygon fill="black" stroke="black" points="137.045,-606.198 129.731,-613.864 140.229,-612.432 137.045,-606.198"/>
<text text-anchor="middle" x="203.077" y="-589.086" font-family="Times New Roman,serif" font-size="8.00">use</text>
</g>
<!-- http://example.org/k0 -->
<g id="node7" class="node"><title>http://example.org/k0</title>
<ellipse fill="none" stroke="black" cx="301.141" cy="-631" rx="87.1846" ry="18"/>
<text text-anchor="middle" x="301.141" y="-627.3" font-family="Times New Roman,serif" font-size="14.00">http://example.org/k0</text>
</g>
<!-- http://example.org/access23&#45;&gt;http://example.org/k0 -->
<g id="edge5" class="edge"><title>http://example.org/access23&#45;&gt;http://example.org/k0</title>
<path fill="none" stroke="black" d="M252.634,-576.187C260.574,-584.995 270.381,-595.875 279.094,-605.542"/>
<polygon fill="black" stroke="black" points="276.496,-607.887 285.791,-612.971 281.696,-603.2 276.496,-607.887"/>
<text text-anchor="middle" x="267.304" y="-571.16" font-family="Times New Roman,serif" font-size="8.00">use</text>
</g>
<!-- &#45;attrs1 -->
<g id="node5" class="node"><title>&#45;attrs1</title>
<polygon fill="none" stroke="gray" points="271.141,-459 197.141,-459 197.141,-423 277.141,-423 277.141,-453 271.141,-459"/>
<polyline fill="none" stroke="gray" points="271.141,-459 271.141,-453 "/>
<polyline fill="none" stroke="gray" points="277.141,-453 271.141,-453 "/>
<text text-anchor="start" x="207.141" y="-438" font-family="Times New Roman,serif" font-size="10.00">type:</text>
<text text-anchor="start" x="230.141" y="-438" font-family="Times New Roman,serif" font-size="10.00">&quot;access&quot;</text>
</g>
<!-- &#45;attrs1&#45;&gt;http://example.org/access23 -->
<g id="edge3" class="edge"><title>&#45;attrs1&#45;&gt;http://example.org/access23</title>
<path fill="none" stroke="gray" stroke-dasharray="5,2" d="M237.141,-459.466C237.141,-481.207 237.141,-518.105 237.141,-539.746"/>
</g>
<!-- http://example.org/distk_aj4 -->
<g id="node8" class="node"><title>http://example.org/distk_aj4</title>
<g id="a_node8"><a xlink:href="http://example.org/distk_aj4" xlink:title="distk_aj4">
<ellipse fill="#fffc87" stroke="#808080" cx="670.141" cy="-441" rx="43.5923" ry="18"/>
<text text-anchor="middle" x="670.141" y="-437.3" font-family="Times New Roman,serif" font-size="14.00">distk_aj4</text>
</a>
</g>
</g>
<!-- http://example.org/v1 -->
<g id="node10" class="node"><title>http://example.org/v1</title>
<ellipse fill="none" stroke="black" cx="711.141" cy="-558" rx="87.1846" ry="18"/>
<text text-anchor="middle" x="711.141" y="-554.3" font-family="Times New Roman,serif" font-size="14.00">http://example.org/v1</text>
</g>
<!-- http://example.org/distk_aj4&#45;&gt;http://example.org/v1 -->
<g id="edge8" class="edge"><title>http://example.org/distk_aj4&#45;&gt;http://example.org/v1</title>
<path fill="none" stroke="darkgreen" d="M676.191,-458.969C682.913,-477.824 693.853,-508.509 701.704,-530.528"/>
<polygon fill="darkgreen" stroke="darkgreen" points="698.412,-531.718 705.067,-539.962 705.005,-529.367 698.412,-531.718"/>
<text text-anchor="middle" x="779.641" y="-510.8" font-family="Times New Roman,serif" font-size="14.00">part</text>
<text text-anchor="middle" x="779.641" y="-495.8" font-family="Times New Roman,serif" font-size="14.00">row0[1]</text>
<text text-anchor="middle" x="779.641" y="-480.8" font-family="Times New Roman,serif" font-size="14.00">2018&#45;02&#45;26T14:16:29.309391</text>
</g>
<!-- http://example.org/access24 -->
<g id="node11" class="node"><title>http://example.org/access24</title>
<g id="a_node11"><a xlink:href="http://example.org/access24" xlink:title="access24">
<polygon fill="#9fb1fc" stroke="#0000ff" points="606.141,-576 538.141,-576 538.141,-540 606.141,-540 606.141,-576"/>
<text text-anchor="middle" x="572.141" y="-554.3" font-family="Times New Roman,serif" font-size="14.00">access24</text>
</a>
</g>
</g>
<!-- http://example.org/distk_aj4&#45;&gt;http://example.org/access24 -->
<g id="edge12" class="edge"><title>http://example.org/distk_aj4&#45;&gt;http://example.org/access24</title>
<path fill="none" stroke="black" d="M656.1,-458.477C639.697,-477.726 612.386,-509.773 593.385,-532.071"/>
<polygon fill="black" stroke="black" points="590.619,-529.921 586.796,-539.803 595.946,-534.462 590.619,-529.921"/>
<text text-anchor="middle" x="661.123" y="-470.711" font-family="Times New Roman,serif" font-size="8.00">gen</text>
</g>
<!-- &#45;attrs2 -->
<g id="node9" class="node"><title>&#45;attrs2</title>
<polygon fill="none" stroke="gray" points="706.141,-386 628.141,-386 628.141,-350 712.141,-350 712.141,-380 706.141,-386"/>
<polyline fill="none" stroke="gray" points="706.141,-386 706.141,-380 "/>
<polyline fill="none" stroke="gray" points="712.141,-380 706.141,-380 "/>
<text text-anchor="start" x="638.141" y="-372" font-family="Times New Roman,serif" font-size="10.00">value:</text>
<text text-anchor="start" x="665.141" y="-372" font-family="Times New Roman,serif" font-size="10.00">&quot;distk[j]&quot;</text>
<text text-anchor="start" x="638.141" y="-359" font-family="Times New Roman,serif" font-size="10.00">type:</text>
<text text-anchor="start" x="665.141" y="-359" font-family="Times New Roman,serif" font-size="10.00">&quot;access&quot;</text>
</g>
<!-- &#45;attrs2&#45;&gt;http://example.org/distk_aj4 -->
<g id="edge7" class="edge"><title>&#45;attrs2&#45;&gt;http://example.org/distk_aj4</title>
<path fill="none" stroke="gray" stroke-dasharray="5,2" d="M670.141,-386.187C670.141,-397.35 670.141,-411.84 670.141,-422.971"/>
</g>
<!-- http://example.org/distk0 -->
<g id="node13" class="node"><title>http://example.org/distk0</title>
<ellipse fill="none" stroke="black" cx="539.141" cy="-631" rx="100.983" ry="18"/>
<text text-anchor="middle" x="539.141" y="-627.3" font-family="Times New Roman,serif" font-size="14.00">http://example.org/distk0</text>
</g>
<!-- http://example.org/access24&#45;&gt;http://example.org/distk0 -->
<g id="edge10" class="edge"><title>http://example.org/access24&#45;&gt;http://example.org/distk0</title>
<path fill="none" stroke="black" d="M564.153,-576.187C560.302,-584.472 555.6,-594.59 551.316,-603.807"/>
<polygon fill="black" stroke="black" points="548.097,-602.428 547.056,-612.971 554.445,-605.378 548.097,-602.428"/>
<text text-anchor="middle" x="572.772" y="-586.564" font-family="Times New Roman,serif" font-size="8.00">use</text>
</g>
<!-- http://example.org/j4 -->
<g id="node14" class="node"><title>http://example.org/j4</title>
<ellipse fill="none" stroke="black" cx="743.141" cy="-631" rx="85.2851" ry="18"/>
<text text-anchor="middle" x="743.141" y="-627.3" font-family="Times New Roman,serif" font-size="14.00">http://example.org/j4</text>
</g>
<!-- http://example.org/access24&#45;&gt;http://example.org/j4 -->
<g id="edge11" class="edge"><title>http://example.org/access24&#45;&gt;http://example.org/j4</title>
<path fill="none" stroke="black" d="M606.335,-573.197C632.342,-583.996 668.399,-598.967 696.968,-610.828"/>
<polygon fill="black" stroke="black" points="695.766,-614.119 706.343,-614.721 698.45,-607.654 695.766,-614.119"/>
<text text-anchor="middle" x="618.243" y="-562.176" font-family="Times New Roman,serif" font-size="8.00">use</text>
</g>
<!-- &#45;attrs3 -->
<g id="node12" class="node"><title>&#45;attrs3</title>
<polygon fill="none" stroke="gray" points="602.141,-459 528.141,-459 528.141,-423 608.141,-423 608.141,-453 602.141,-459"/>
<polyline fill="none" stroke="gray" points="602.141,-459 602.141,-453 "/>
<polyline fill="none" stroke="gray" points="608.141,-453 602.141,-453 "/>
<text text-anchor="start" x="538.141" y="-438" font-family="Times New Roman,serif" font-size="10.00">type:</text>
<text text-anchor="start" x="561.141" y="-438" font-family="Times New Roman,serif" font-size="10.00">&quot;access&quot;</text>
</g>
<!-- &#45;attrs3&#45;&gt;http://example.org/access24 -->
<g id="edge9" class="edge"><title>&#45;attrs3&#45;&gt;http://example.org/access24</title>
<path fill="none" stroke="gray" stroke-dasharray="5,2" d="M568.749,-459.466C569.505,-481.207 570.788,-518.105 571.541,-539.746"/>
</g>
<!-- http://example.org/sum4 -->
<g id="node15" class="node"><title>http://example.org/sum4</title>
<g id="a_node15"><a xlink:href="http://example.org/sum4" xlink:title="sum4">
<ellipse fill="#fffc87" stroke="#808080" cx="585.141" cy="-266" rx="30.5947" ry="18"/>
<text text-anchor="middle" x="585.141" y="-262.3" font-family="Times New Roman,serif" font-size="14.00">sum4</text>
</a>
</g>
</g>
<!-- http://example.org/sum4&#45;&gt;http://example.org/disti_ak4 -->
<g id="edge18" class="edge"><title>http://example.org/sum4&#45;&gt;http://example.org/disti_ak4</title>
<path fill="none" stroke="black" d="M581.19,-283.89C574.44,-309.268 558.393,-357.311 528.141,-386 505.32,-407.643 472.59,-421.172 445.681,-429.276"/>
<polygon fill="black" stroke="black" points="444.716,-425.912 436.06,-432.021 446.636,-432.643 444.716,-425.912"/>
<text text-anchor="middle" x="591.679" y="-292.713" font-family="Times New Roman,serif" font-size="8.00">der</text>
</g>
<!-- http://example.org/sum4&#45;&gt;http://example.org/distk_aj4 -->
<g id="edge20" class="edge"><title>http://example.org/sum4&#45;&gt;http://example.org/distk_aj4</title>
<path fill="none" stroke="black" d="M587.067,-284.361C590.407,-308.67 598.963,-353.51 619.141,-386 626.157,-397.297 635.797,-408.255 644.808,-417.314"/>
<polygon fill="black" stroke="black" points="642.542,-419.993 652.157,-424.443 647.416,-414.968 642.542,-419.993"/>
<text text-anchor="middle" x="601.015" y="-287.98" font-family="Times New Roman,serif" font-size="8.00">der</text>
</g>
<!-- http://example.org/vsum_4 -->
<g id="node17" class="node"><title>http://example.org/vsum_4</title>
<g id="a_node17"><a xlink:href="http://example.org/vsum_4" xlink:title="vsum_4">
<ellipse fill="#32cd32" stroke="#808080" cx="796.141" cy="-368" rx="39.7935" ry="18"/>
<text text-anchor="middle" x="796.141" y="-364.3" font-family="Times New Roman,serif" font-size="14.00">vsum_4</text>
</a>
</g>
</g>
<!-- http://example.org/sum4&#45;&gt;http://example.org/vsum_4 -->
<g id="edge15" class="edge"><title>http://example.org/sum4&#45;&gt;http://example.org/vsum_4</title>
<path fill="none" stroke="darkgreen" d="M592.835,-293.743C598.088,-307.253 606.447,-322.71 619.141,-332 656.29,-359.186 676.014,-340.909 721.141,-350 731.154,-352.017 741.88,-354.347 751.998,-356.622"/>
<polygon fill="darkgreen" stroke="darkgreen" points="596.007,-292.211 589.404,-283.926 589.399,-294.52 596.007,-292.211"/>
<polygon fill="darkgreen" stroke="darkgreen" points="751.339,-360.061 761.866,-358.865 752.891,-353.235 751.339,-360.061"/>
<text text-anchor="middle" x="700.641" y="-320.8" font-family="Times New Roman,serif" font-size="14.00">defined</text>
<text text-anchor="middle" x="700.641" y="-305.8" font-family="Times New Roman,serif" font-size="14.00">2018&#45;02&#45;26T14:16:29.309391</text>
</g>
<!-- http://example.org/add4 -->
<g id="node19" class="node"><title>http://example.org/add4</title>
<g id="a_node19"><a xlink:href="http://example.org/add4" xlink:title="add4">
<polygon fill="#9fb1fc" stroke="#0000ff" points="519.141,-386 465.141,-386 465.141,-350 519.141,-350 519.141,-386"/>
<text text-anchor="middle" x="492.141" y="-364.3" font-family="Times New Roman,serif" font-size="14.00">add4</text>
</a>
</g>
</g>
<!-- http://example.org/sum4&#45;&gt;http://example.org/add4 -->
<g id="edge21" class="edge"><title>http://example.org/sum4&#45;&gt;http://example.org/add4</title>
<path fill="none" stroke="black" d="M563.858,-278.942C554.112,-285.047 542.826,-293.07 534.141,-302 522.91,-313.548 512.986,-328.537 505.609,-341.211"/>
<polygon fill="black" stroke="black" points="502.547,-339.514 500.705,-349.947 508.652,-342.94 502.547,-339.514"/>
<text text-anchor="middle" x="564.507" y="-292.028" font-family="Times New Roman,serif" font-size="8.00">gen</text>
</g>
<!-- &#45;attrs4 -->
<g id="node16" class="node"><title>&#45;attrs4</title>
<polygon fill="none" stroke="gray" points="634.141,-182 518.141,-182 518.141,-146 640.141,-146 640.141,-176 634.141,-182"/>
<polyline fill="none" stroke="gray" points="634.141,-182 634.141,-176 "/>
<polyline fill="none" stroke="gray" points="640.141,-176 634.141,-176 "/>
<text text-anchor="start" x="528.141" y="-168" font-family="Times New Roman,serif" font-size="10.00">value:</text>
<text text-anchor="start" x="555.141" y="-168" font-family="Times New Roman,serif" font-size="10.00">&quot;disti[k] + distk[j]&quot;</text>
<text text-anchor="start" x="528.141" y="-155" font-family="Times New Roman,serif" font-size="10.00">type:</text>
<text text-anchor="start" x="555.141" y="-155" font-family="Times New Roman,serif" font-size="10.00">&quot;sum&quot;</text>
</g>
<!-- &#45;attrs4&#45;&gt;http://example.org/sum4 -->
<g id="edge13" class="edge"><title>&#45;attrs4&#45;&gt;http://example.org/sum4</title>
<path fill="none" stroke="gray" stroke-dasharray="5,2" d="M580.186,-182.419C581.288,-200.773 583.011,-229.502 584.108,-247.781"/>
</g>
<!-- &#45;attrs5 -->
<g id="node18" class="node"><title>&#45;attrs5</title>
<polygon fill="none" stroke="gray" points="891.641,-284 824.641,-284 824.641,-248 897.641,-248 897.641,-278 891.641,-284"/>
<polyline fill="none" stroke="gray" points="891.641,-284 891.641,-278 "/>
<polyline fill="none" stroke="gray" points="897.641,-278 891.641,-278 "/>
<text text-anchor="start" x="835.141" y="-263" font-family="Times New Roman,serif" font-size="10.00">repr:</text>
<text text-anchor="start" x="856.141" y="-263" font-family="Times New Roman,serif" font-size="10.00">&quot;10001&quot;</text>
</g>
<!-- &#45;attrs5&#45;&gt;http://example.org/vsum_4 -->
<g id="edge14" class="edge"><title>&#45;attrs5&#45;&gt;http://example.org/vsum_4</title>
<path fill="none" stroke="gray" stroke-dasharray="5,2" d="M849.819,-284.419C837.743,-302.997 818.758,-332.205 806.902,-350.445"/>
</g>
<!-- http://example.org/add4&#45;&gt;http://example.org/disti_ak4 -->
<g id="edge17" class="edge"><title>http://example.org/add4&#45;&gt;http://example.org/disti_ak4</title>
<path fill="none" stroke="black" d="M469.387,-386.187C456.428,-395.975 440.082,-408.321 426.318,-418.718"/>
<polygon fill="black" stroke="black" points="424.004,-416.079 418.134,-424.899 428.223,-421.665 424.004,-416.079"/>
<text text-anchor="middle" x="471.231" y="-399.173" font-family="Times New Roman,serif" font-size="8.00">use</text>
</g>
<!-- http://example.org/add4&#45;&gt;http://example.org/distk_aj4 -->
<g id="edge19" class="edge"><title>http://example.org/add4&#45;&gt;http://example.org/distk_aj4</title>
<path fill="none" stroke="black" d="M519.306,-382.092C534.426,-389.199 553.671,-397.947 571.141,-405 589.229,-412.302 609.492,-419.615 626.951,-425.653"/>
<polygon fill="black" stroke="black" points="626.275,-429.121 636.87,-429.052 628.544,-422.499 626.275,-429.121"/>
<text text-anchor="middle" x="531.604" y="-371.605" font-family="Times New Roman,serif" font-size="8.00">use</text>
</g>
<!-- &#45;attrs6 -->
<g id="node20" class="node"><title>&#45;attrs6</title>
<polygon fill="none" stroke="gray" points="520.141,-284 458.141,-284 458.141,-248 526.141,-248 526.141,-278 520.141,-284"/>
<polyline fill="none" stroke="gray" points="520.141,-284 520.141,-278 "/>
<polyline fill="none" stroke="gray" points="526.141,-278 520.141,-278 "/>
<text text-anchor="start" x="468.141" y="-263" font-family="Times New Roman,serif" font-size="10.00">type:</text>
<text text-anchor="start" x="491.141" y="-263" font-family="Times New Roman,serif" font-size="10.00">&quot;add&quot;</text>
</g>
<!-- &#45;attrs6&#45;&gt;http://example.org/add4 -->
<g id="edge16" class="edge"><title>&#45;attrs6&#45;&gt;http://example.org/add4</title>
<path fill="none" stroke="gray" stroke-dasharray="5,2" d="M492.141,-284.419C492.141,-302.773 492.141,-331.502 492.141,-349.781"/>
</g>
<!-- http://example.org/ikj4 -->
<g id="node21" class="node"><title>http://example.org/ikj4</title>
<g id="a_node21"><a xlink:href="http://example.org/ikj4" xlink:title="ikj4">
<ellipse fill="#fffc87" stroke="#808080" cx="764.141" cy="-91" rx="27" ry="18"/>
<text text-anchor="middle" x="764.141" y="-87.3" font-family="Times New Roman,serif" font-size="14.00">ikj4</text>
</a>
</g>
</g>
<!-- http://example.org/ikj4&#45;&gt;http://example.org/sum4 -->
<g id="edge26" class="edge"><title>http://example.org/ikj4&#45;&gt;http://example.org/sum4</title>
<path fill="none" stroke="black" d="M761.653,-108.951C758.055,-128.419 749.789,-160.442 732.141,-182 703.119,-217.452 654.726,-240.557 621.442,-253.174"/>
<polygon fill="black" stroke="black" points="619.828,-250.037 611.635,-256.755 622.229,-256.613 619.828,-250.037"/>
<text text-anchor="middle" x="772.943" y="-116.927" font-family="Times New Roman,serif" font-size="8.00">der</text>
</g>
<!-- http://example.org/ikj4&#45;&gt;http://example.org/vsum_4 -->
<g id="edge23" class="edge"><title>http://example.org/ikj4&#45;&gt;http://example.org/vsum_4</title>
<path fill="none" stroke="darkgreen" d="M768.478,-109.006C769.808,-114.697 771.175,-121.095 772.141,-127 784.666,-203.545 791.631,-294.967 794.524,-339.665"/>
<polygon fill="darkgreen" stroke="darkgreen" points="791.037,-339.973 795.158,-349.733 798.023,-339.533 791.037,-339.973"/>
<text text-anchor="middle" x="866.641" y="-218.8" font-family="Times New Roman,serif" font-size="14.00">access</text>
<text text-anchor="middle" x="866.641" y="-203.8" font-family="Times New Roman,serif" font-size="14.00">2018&#45;02&#45;26T14:16:29.309391</text>
</g>
<!-- http://example.org/assign12 -->
<g id="node23" class="node"><title>http://example.org/assign12</title>
<g id="a_node23"><a xlink:href="http://example.org/assign12" xlink:title="assign12">
<polygon fill="#9fb1fc" stroke="#0000ff" points="723.641,-182 658.641,-182 658.641,-146 723.641,-146 723.641,-182"/>
<text text-anchor="middle" x="691.141" y="-160.3" font-family="Times New Roman,serif" font-size="14.00">assign12</text>
</a>
</g>
</g>
<!-- http://example.org/ikj4&#45;&gt;http://example.org/assign12 -->
<g id="edge27" class="edge"><title>http://example.org/ikj4&#45;&gt;http://example.org/assign12</title>
<path fill="none" stroke="black" d="M749.369,-106.368C739.823,-115.652 727.16,-127.968 716.081,-138.743"/>
<polygon fill="black" stroke="black" points="713.451,-136.419 708.722,-145.901 718.331,-141.437 713.451,-136.419"/>
<text text-anchor="middle" x="753.049" y="-119.009" font-family="Times New Roman,serif" font-size="8.00">gen</text>
</g>
<!-- &#45;attrs7 -->
<g id="node22" class="node"><title>&#45;attrs7</title>
<polygon fill="none" stroke="gray" points="797.141,-36 725.141,-36 725.141,-0 803.141,-0 803.141,-30 797.141,-36"/>
<polyline fill="none" stroke="gray" points="797.141,-36 797.141,-30 "/>
<polyline fill="none" stroke="gray" points="803.141,-30 797.141,-30 "/>
<text text-anchor="start" x="735.141" y="-22" font-family="Times New Roman,serif" font-size="10.00">value:</text>
<text text-anchor="start" x="762.141" y="-22" font-family="Times New Roman,serif" font-size="10.00">&quot;ikj&quot;</text>
<text text-anchor="start" x="735.141" y="-9" font-family="Times New Roman,serif" font-size="10.00">type:</text>
<text text-anchor="start" x="762.141" y="-9" font-family="Times New Roman,serif" font-size="10.00">&quot;name&quot;</text>
</g>
<!-- &#45;attrs7&#45;&gt;http://example.org/ikj4 -->
<g id="edge22" class="edge"><title>&#45;attrs7&#45;&gt;http://example.org/ikj4</title>
<path fill="none" stroke="gray" stroke-dasharray="5,2" d="M764.141,-36.1871C764.141,-47.3501 764.141,-61.8398 764.141,-72.9712"/>
</g>
<!-- http://example.org/assign12&#45;&gt;http://example.org/sum4 -->
<g id="edge25" class="edge"><title>http://example.org/assign12&#45;&gt;http://example.org/sum4</title>
<path fill="none" stroke="black" d="M672.678,-182.419C654.744,-199.337 627.466,-225.071 608.133,-243.31"/>
<polygon fill="black" stroke="black" points="605.512,-240.971 600.64,-250.379 610.315,-246.063 605.512,-240.971"/>
<text text-anchor="middle" x="676.136" y="-195.114" font-family="Times New Roman,serif" font-size="8.00">use</text>
</g>
<!-- &#45;attrs8 -->
<g id="node24" class="node"><title>&#45;attrs8</title>
<polygon fill="none" stroke="gray" points="712.641,-109 639.641,-109 639.641,-73 718.641,-73 718.641,-103 712.641,-109"/>
<polyline fill="none" stroke="gray" points="712.641,-109 712.641,-103 "/>
<polyline fill="none" stroke="gray" points="718.641,-103 712.641,-103 "/>
<text text-anchor="start" x="650.141" y="-88" font-family="Times New Roman,serif" font-size="10.00">type:</text>
<text text-anchor="start" x="673.141" y="-88" font-family="Times New Roman,serif" font-size="10.00">&quot;assign&quot;</text>
</g>
<!-- &#45;attrs8&#45;&gt;http://example.org/assign12 -->
<g id="edge24" class="edge"><title>&#45;attrs8&#45;&gt;http://example.org/assign12</title>
<path fill="none" stroke="gray" stroke-dasharray="5,2" d="M682.046,-109.187C683.933,-120.35 686.382,-134.84 688.263,-145.971"/>
</g>
</g>
</svg>
