<?xml version="1.0" encoding="UTF-8" standalone="no"?>
<!DOCTYPE svg PUBLIC "-//W3C//DTD SVG 1.1//EN"
 "http://www.w3.org/Graphics/SVG/1.1/DTD/svg11.dtd">
<!-- Generated by graphviz version 2.38.0 (20140413.2041)
 -->
<!-- Title: PROV Pages: 1 -->
<svg width="924pt" height="657pt"
 viewBox="0.00 0.00 924.14 657.00" xmlns="http://www.w3.org/2000/svg" xmlns:xlink="http://www.w3.org/1999/xlink">
<g id="graph0" class="graph" transform="scale(1 1) rotate(0) translate(4 653)">
<title>PROV</title>
<polygon fill="white" stroke="none" points="-4,4 -4,-653 920.141,-653 920.141,4 -4,4"/>
<!-- http://example.org/disti_ak0 -->
<g id="node1" class="node"><title>http://example.org/disti_ak0</title>
<g id="a_node1"><a xlink:href="http://example.org/disti_ak0" xlink:title="disti_ak0">
<ellipse fill="#fffc87" stroke="#808080" cx="263.141" cy="-441" rx="43.5923" ry="18"/>
<text text-anchor="middle" x="263.141" y="-437.3" font-family="Times New Roman,serif" font-size="14.00">disti_ak0</text>
</a>
</g>
</g>
<!-- http://example.org/v0 -->
<g id="node3" class="node"><title>http://example.org/v0</title>
<ellipse fill="none" stroke="black" cx="429.141" cy="-558" rx="87.1846" ry="18"/>
<text text-anchor="middle" x="429.141" y="-554.3" font-family="Times New Roman,serif" font-size="14.00">http://example.org/v0</text>
</g>
<!-- http://example.org/disti_ak0&#45;&gt;http://example.org/v0 -->
<g id="edge2" class="edge"><title>http://example.org/disti_ak0&#45;&gt;http://example.org/v0</title>
<path fill="none" stroke="darkgreen" d="M263.055,-459.195C263.928,-477.343 268.189,-505.548 285.141,-522 295.051,-531.617 321.968,-539.323 349.888,-545.029"/>
<polygon fill="darkgreen" stroke="darkgreen" points="349.293,-548.479 359.779,-546.964 350.637,-541.609 349.293,-548.479"/>
<text text-anchor="middle" x="366.641" y="-510.8" font-family="Times New Roman,serif" font-size="14.00">part</text>
<text text-anchor="middle" x="366.641" y="-495.8" font-family="Times New Roman,serif" font-size="14.00">row0[0]</text>
<text text-anchor="middle" x="366.641" y="-480.8" font-family="Times New Roman,serif" font-size="14.00">2018&#45;02&#45;26T14:41:53.291260</text>
</g>
<!-- http://example.org/access5 -->
<g id="node4" class="node"><title>http://example.org/access5</title>
<g id="a_node4"><a xlink:href="http://example.org/access5" xlink:title="access5">
<polygon fill="#9fb1fc" stroke="#0000ff" points="278.641,-576 217.641,-576 217.641,-540 278.641,-540 278.641,-576"/>
<text text-anchor="middle" x="248.141" y="-554.3" font-family="Times New Roman,serif" font-size="14.00">access5</text>
</a>
</g>
</g>
<!-- http://example.org/disti_ak0&#45;&gt;http://example.org/access5 -->
<g id="edge6" class="edge"><title>http://example.org/disti_ak0&#45;&gt;http://example.org/access5</title>
<path fill="none" stroke="black" d="M251.867,-458.741C248.727,-464.309 245.741,-470.701 244.141,-477 239.775,-494.193 240.754,-514.116 242.834,-529.778"/>
<polygon fill="black" stroke="black" points="239.406,-530.511 244.399,-539.855 246.323,-529.437 239.406,-530.511"/>
<text text-anchor="middle" x="259.61" y="-469.688" font-family="Times New Roman,serif" font-size="8.00">gen</text>
</g>
<!-- &#45;attrs0 -->
<g id="node2" class="node"><title>&#45;attrs0</title>
<polygon fill="none" stroke="gray" points="270.141,-386 192.141,-386 192.141,-350 276.141,-350 276.141,-380 270.141,-386"/>
<polyline fill="none" stroke="gray" points="270.141,-386 270.141,-380 "/>
<polyline fill="none" stroke="gray" points="276.141,-380 270.141,-380 "/>
<text text-anchor="start" x="202.141" y="-372" font-family="Times New Roman,serif" font-size="10.00">value:</text>
<text text-anchor="start" x="229.141" y="-372" font-family="Times New Roman,serif" font-size="10.00">&quot;disti[k]&quot;</text>
<text text-anchor="start" x="202.141" y="-359" font-family="Times New Roman,serif" font-size="10.00">type:</text>
<text text-anchor="start" x="229.141" y="-359" font-family="Times New Roman,serif" font-size="10.00">&quot;access&quot;</text>
</g>
<!-- &#45;attrs0&#45;&gt;http://example.org/disti_ak0 -->
<g id="edge1" class="edge"><title>&#45;attrs0&#45;&gt;http://example.org/disti_ak0</title>
<path fill="none" stroke="gray" stroke-dasharray="5,2" d="M241.161,-386.187C245.721,-397.35 251.639,-411.84 256.186,-422.971"/>
</g>
<!-- http://example.org/disti0 -->
<g id="node6" class="node"><title>http://example.org/disti0</title>
<ellipse fill="none" stroke="black" cx="98.1413" cy="-631" rx="98.2828" ry="18"/>
<text text-anchor="middle" x="98.1413" y="-627.3" font-family="Times New Roman,serif" font-size="14.00">http://example.org/disti0</text>
</g>
<!-- http://example.org/access5&#45;&gt;http://example.org/disti0 -->
<g id="edge4" class="edge"><title>http://example.org/access5&#45;&gt;http://example.org/disti0</title>
<path fill="none" stroke="black" d="M217.425,-573.539C195.384,-583.972 165.394,-598.167 140.999,-609.714"/>
<polygon fill="black" stroke="black" points="139.493,-606.555 131.952,-613.996 142.488,-612.882 139.493,-606.555"/>
<text text-anchor="middle" x="216.203" y="-586.589" font-family="Times New Roman,serif" font-size="8.00">use</text>
</g>
<!-- http://example.org/k0 -->
<g id="node7" class="node"><title>http://example.org/k0</title>
<ellipse fill="none" stroke="black" cx="301.141" cy="-631" rx="87.1846" ry="18"/>
<text text-anchor="middle" x="301.141" y="-627.3" font-family="Times New Roman,serif" font-size="14.00">http://example.org/k0</text>
</g>
<!-- http://example.org/access5&#45;&gt;http://example.org/k0 -->
<g id="edge5" class="edge"><title>http://example.org/access5&#45;&gt;http://example.org/k0</title>
<path fill="none" stroke="black" d="M260.971,-576.187C267.351,-584.734 275.187,-595.231 282.238,-604.677"/>
<polygon fill="black" stroke="black" points="279.643,-607.051 288.43,-612.971 285.252,-602.864 279.643,-607.051"/>
<text text-anchor="middle" x="275.867" y="-572.527" font-family="Times New Roman,serif" font-size="8.00">use</text>
</g>
<!-- &#45;attrs1 -->
<g id="node5" class="node"><title>&#45;attrs1</title>
<polygon fill="none" stroke="gray" points="475.141,-459 401.141,-459 401.141,-423 481.141,-423 481.141,-453 475.141,-459"/>
<polyline fill="none" stroke="gray" points="475.141,-459 475.141,-453 "/>
<polyline fill="none" stroke="gray" points="481.141,-453 475.141,-453 "/>
<text text-anchor="start" x="411.141" y="-438" font-family="Times New Roman,serif" font-size="10.00">type:</text>
<text text-anchor="start" x="434.141" y="-438" font-family="Times New Roman,serif" font-size="10.00">&quot;access&quot;</text>
</g>
<!-- &#45;attrs1&#45;&gt;http://example.org/access5 -->
<g id="edge3" class="edge"><title>&#45;attrs1&#45;&gt;http://example.org/access5</title>
<path fill="none" stroke="gray" stroke-dasharray="5,2" d="M443.301,-459.184C444.545,-477.322 443.361,-505.519 427.141,-522 397.304,-552.317 374.886,-531.829 333.141,-540 315.123,-543.527 294.974,-547.553 278.817,-550.802"/>
</g>
<!-- http://example.org/distk_aj0 -->
<g id="node8" class="node"><title>http://example.org/distk_aj0</title>
<g id="a_node8"><a xlink:href="http://example.org/distk_aj0" xlink:title="distk_aj0">
<ellipse fill="#fffc87" stroke="#808080" cx="543.141" cy="-441" rx="43.5923" ry="18"/>
<text text-anchor="middle" x="543.141" y="-437.3" font-family="Times New Roman,serif" font-size="14.00">distk_aj0</text>
</a>
</g>
</g>
<!-- http://example.org/distk_aj0&#45;&gt;http://example.org/v0 -->
<g id="edge8" class="edge"><title>http://example.org/distk_aj0&#45;&gt;http://example.org/v0</title>
<path fill="none" stroke="darkgreen" d="M511.39,-453.387C498.951,-459.03 485.267,-466.846 475.141,-477 459.282,-492.905 463.437,-502.586 452.141,-522 450.331,-525.111 448.361,-528.327 446.361,-531.492"/>
<polygon fill="darkgreen" stroke="darkgreen" points="443.255,-529.85 440.75,-540.144 449.128,-533.658 443.255,-529.85"/>
<text text-anchor="middle" x="556.641" y="-510.8" font-family="Times New Roman,serif" font-size="14.00">part</text>
<text text-anchor="middle" x="556.641" y="-495.8" font-family="Times New Roman,serif" font-size="14.00">row0[0]</text>
<text text-anchor="middle" x="556.641" y="-480.8" font-family="Times New Roman,serif" font-size="14.00">2018&#45;02&#45;26T14:41:53.291762</text>
</g>
<!-- http://example.org/access6 -->
<g id="node10" class="node"><title>http://example.org/access6</title>
<g id="a_node10"><a xlink:href="http://example.org/access6" xlink:title="access6">
<polygon fill="#9fb1fc" stroke="#0000ff" points="698.641,-576 637.641,-576 637.641,-540 698.641,-540 698.641,-576"/>
<text text-anchor="middle" x="668.141" y="-554.3" font-family="Times New Roman,serif" font-size="14.00">access6</text>
</a>
</g>
</g>
<!-- http://example.org/distk_aj0&#45;&gt;http://example.org/access6 -->
<g id="edge12" class="edge"><title>http://example.org/distk_aj0&#45;&gt;http://example.org/access6</title>
<path fill="none" stroke="black" d="M582.899,-448.672C601.738,-453.653 623.308,-462.253 638.141,-477 652.34,-491.117 659.906,-512.589 663.887,-529.735"/>
<polygon fill="black" stroke="black" points="660.501,-530.648 665.929,-539.747 667.36,-529.249 660.501,-530.648"/>
<text text-anchor="middle" x="593.628" y="-436.29" font-family="Times New Roman,serif" font-size="8.00">gen</text>
</g>
<!-- &#45;attrs2 -->
<g id="node9" class="node"><title>&#45;attrs2</title>
<polygon fill="none" stroke="gray" points="760.141,-386 682.141,-386 682.141,-350 766.141,-350 766.141,-380 760.141,-386"/>
<polyline fill="none" stroke="gray" points="760.141,-386 760.141,-380 "/>
<polyline fill="none" stroke="gray" points="766.141,-380 760.141,-380 "/>
<text text-anchor="start" x="692.141" y="-372" font-family="Times New Roman,serif" font-size="10.00">value:</text>
<text text-anchor="start" x="719.141" y="-372" font-family="Times New Roman,serif" font-size="10.00">&quot;distk[j]&quot;</text>
<text text-anchor="start" x="692.141" y="-359" font-family="Times New Roman,serif" font-size="10.00">type:</text>
<text text-anchor="start" x="719.141" y="-359" font-family="Times New Roman,serif" font-size="10.00">&quot;access&quot;</text>
</g>
<!-- &#45;attrs2&#45;&gt;http://example.org/distk_aj0 -->
<g id="edge7" class="edge"><title>&#45;attrs2&#45;&gt;http://example.org/distk_aj0</title>
<path fill="none" stroke="gray" stroke-dasharray="5,2" d="M681.705,-385.646C648.582,-398.639 603.358,-416.379 573.715,-428.007"/>
</g>
<!-- http://example.org/distk0 -->
<g id="node12" class="node"><title>http://example.org/distk0</title>
<ellipse fill="none" stroke="black" cx="560.141" cy="-631" rx="100.983" ry="18"/>
<text text-anchor="middle" x="560.141" y="-627.3" font-family="Times New Roman,serif" font-size="14.00">http://example.org/distk0</text>
</g>
<!-- http://example.org/access6&#45;&gt;http://example.org/distk0 -->
<g id="edge10" class="edge"><title>http://example.org/access6&#45;&gt;http://example.org/distk0</title>
<path fill="none" stroke="black" d="M642.273,-576.006C627.74,-585.56 609.437,-597.593 593.799,-607.873"/>
<polygon fill="black" stroke="black" points="591.86,-604.959 585.426,-613.377 595.705,-610.809 591.86,-604.959"/>
<text text-anchor="middle" x="643.142" y="-589.081" font-family="Times New Roman,serif" font-size="8.00">use</text>
</g>
<!-- http://example.org/j0 -->
<g id="node13" class="node"><title>http://example.org/j0</title>
<ellipse fill="none" stroke="black" cx="764.141" cy="-631" rx="85.2851" ry="18"/>
<text text-anchor="middle" x="764.141" y="-627.3" font-family="Times New Roman,serif" font-size="14.00">http://example.org/j0</text>
</g>
<!-- http://example.org/access6&#45;&gt;http://example.org/j0 -->
<g id="edge11" class="edge"><title>http://example.org/access6&#45;&gt;http://example.org/j0</title>
<path fill="none" stroke="black" d="M691.38,-576.187C704.063,-585.567 719.923,-597.297 733.595,-607.409"/>
<polygon fill="black" stroke="black" points="731.656,-610.328 741.777,-613.46 735.819,-604.7 731.656,-610.328"/>
<text text-anchor="middle" x="705.135" y="-568.303" font-family="Times New Roman,serif" font-size="8.00">use</text>
</g>
<!-- &#45;attrs3 -->
<g id="node11" class="node"><title>&#45;attrs3</title>
<polygon fill="none" stroke="gray" points="711.141,-459 637.141,-459 637.141,-423 717.141,-423 717.141,-453 711.141,-459"/>
<polyline fill="none" stroke="gray" points="711.141,-459 711.141,-453 "/>
<polyline fill="none" stroke="gray" points="717.141,-453 711.141,-453 "/>
<text text-anchor="start" x="647.141" y="-438" font-family="Times New Roman,serif" font-size="10.00">type:</text>
<text text-anchor="start" x="670.141" y="-438" font-family="Times New Roman,serif" font-size="10.00">&quot;access&quot;</text>
</g>
<!-- &#45;attrs3&#45;&gt;http://example.org/access6 -->
<g id="edge9" class="edge"><title>&#45;attrs3&#45;&gt;http://example.org/access6</title>
<path fill="none" stroke="gray" stroke-dasharray="5,2" d="M675.774,-459.466C674.073,-481.207 671.185,-518.105 669.492,-539.746"/>
</g>
<!-- http://example.org/sum0 -->
<g id="node14" class="node"><title>http://example.org/sum0</title>
<g id="a_node14"><a xlink:href="http://example.org/sum0" xlink:title="sum0">
<ellipse fill="#fffc87" stroke="#808080" cx="431.141" cy="-266" rx="30.5947" ry="18"/>
<text text-anchor="middle" x="431.141" y="-262.3" font-family="Times New Roman,serif" font-size="14.00">sum0</text>
</a>
</g>
</g>
<!-- http://example.org/sum0&#45;&gt;http://example.org/disti_ak0 -->
<g id="edge19" class="edge"><title>http://example.org/sum0&#45;&gt;http://example.org/disti_ak0</title>
<path fill="none" stroke="black" d="M423.965,-283.78C412.693,-308.589 388.817,-355.411 357.141,-386 341.232,-401.364 320.121,-414.001 301.936,-423.178"/>
<polygon fill="black" stroke="black" points="300.195,-420.133 292.736,-427.657 303.259,-426.426 300.195,-420.133"/>
<text text-anchor="middle" x="432.576" y="-294.162" font-family="Times New Roman,serif" font-size="8.00">der</text>
</g>
<!-- http://example.org/sum0&#45;&gt;http://example.org/distk_aj0 -->
<g id="edge21" class="edge"><title>http://example.org/sum0&#45;&gt;http://example.org/distk_aj0</title>
<path fill="none" stroke="black" d="M426.796,-284.025C424.216,-297.585 422.584,-316.754 429.141,-332 445.569,-370.192 482.877,-401.206 510.36,-420.042"/>
<polygon fill="black" stroke="black" points="508.635,-423.098 518.899,-425.723 512.512,-417.27 508.635,-423.098"/>
<text text-anchor="middle" x="438.302" y="-291.748" font-family="Times New Roman,serif" font-size="8.00">der</text>
</g>
<!-- http://example.org/vsum -->
<g id="node16" class="node"><title>http://example.org/vsum</title>
<g id="a_node16"><a xlink:href="http://example.org/vsum" xlink:title="vsum">
<ellipse fill="#32cd32" stroke="#808080" cx="633.141" cy="-368" rx="30.5947" ry="18"/>
<text text-anchor="middle" x="633.141" y="-364.3" font-family="Times New Roman,serif" font-size="14.00">vsum</text>
</a>
</g>
</g>
<!-- http://example.org/sum0&#45;&gt;http://example.org/vsum -->
<g id="edge15" class="edge"><title>http://example.org/sum0&#45;&gt;http://example.org/vsum</title>
<path fill="none" stroke="darkgreen" d="M430.847,-284.186C431.571,-298.983 435.095,-319.822 448.141,-332 468.622,-351.118 544.626,-360.326 592.611,-364.324"/>
<polygon fill="darkgreen" stroke="darkgreen" points="592.443,-367.821 602.688,-365.121 592.996,-360.843 592.443,-367.821"/>
<text text-anchor="middle" x="529.641" y="-320.8" font-family="Times New Roman,serif" font-size="14.00">defined</text>
<text text-anchor="middle" x="529.641" y="-305.8" font-family="Times New Roman,serif" font-size="14.00">2018&#45;02&#45;26T14:41:53.291762</text>
</g>
<!-- http://example.org/add0 -->
<g id="node18" class="node"><title>http://example.org/add0</title>
<g id="a_node18"><a xlink:href="http://example.org/add0" xlink:title="add0">
<polygon fill="#9fb1fc" stroke="#0000ff" points="348.141,-386 294.141,-386 294.141,-350 348.141,-350 348.141,-386"/>
<text text-anchor="middle" x="321.141" y="-364.3" font-family="Times New Roman,serif" font-size="14.00">add0</text>
</a>
</g>
</g>
<!-- http://example.org/sum0&#45;&gt;http://example.org/add0 -->
<g id="edge22" class="edge"><title>http://example.org/sum0&#45;&gt;http://example.org/add0</title>
<path fill="none" stroke="black" d="M405.935,-276.219C392.205,-282.112 375.538,-290.766 363.141,-302 351.124,-312.89 341.102,-327.961 333.866,-340.849"/>
<polygon fill="black" stroke="black" points="330.731,-339.289 329.1,-349.757 336.903,-342.591 330.731,-339.289"/>
<text text-anchor="middle" x="404.309" y="-289.231" font-family="Times New Roman,serif" font-size="8.00">gen</text>
</g>
<!-- &#45;attrs4 -->
<g id="node15" class="node"><title>&#45;attrs4</title>
<polygon fill="none" stroke="gray" points="623.141,-182 507.141,-182 507.141,-146 629.141,-146 629.141,-176 623.141,-182"/>
<polyline fill="none" stroke="gray" points="623.141,-182 623.141,-176 "/>
<polyline fill="none" stroke="gray" points="629.141,-176 623.141,-176 "/>
<text text-anchor="start" x="517.141" y="-168" font-family="Times New Roman,serif" font-size="10.00">value:</text>
<text text-anchor="start" x="544.141" y="-168" font-family="Times New Roman,serif" font-size="10.00">&quot;disti[k] + distk[j]&quot;</text>
<text text-anchor="start" x="517.141" y="-155" font-family="Times New Roman,serif" font-size="10.00">type:</text>
<text text-anchor="start" x="544.141" y="-155" font-family="Times New Roman,serif" font-size="10.00">&quot;sum&quot;</text>
</g>
<!-- &#45;attrs4&#45;&gt;http://example.org/sum0 -->
<g id="edge13" class="edge"><title>&#45;attrs4&#45;&gt;http://example.org/sum0</title>
<path fill="none" stroke="gray" stroke-dasharray="5,2" d="M544.59,-182.191C517.661,-201.847 474.137,-233.616 449.564,-251.553"/>
</g>
<!-- http://example.org/vsum&#45;&gt;http://example.org/sum0 -->
<g id="edge16" class="edge"><title>http://example.org/vsum&#45;&gt;http://example.org/sum0</title>
<path fill="none" stroke="darkgreen" d="M631.988,-349.726C630.044,-334.87 624.866,-313.995 611.141,-302 590.75,-284.179 517.962,-274.587 471.427,-270.157"/>
<polygon fill="darkgreen" stroke="darkgreen" points="471.629,-266.661 461.353,-269.239 470.994,-273.632 471.629,-266.661"/>
<text text-anchor="middle" x="709.641" y="-320.8" font-family="Times New Roman,serif" font-size="14.00">def by</text>
<text text-anchor="middle" x="709.641" y="-305.8" font-family="Times New Roman,serif" font-size="14.00">2018&#45;02&#45;26T14:41:53.291762</text>
</g>
<!-- &#45;attrs5 -->
<g id="node17" class="node"><title>&#45;attrs5</title>
<polygon fill="none" stroke="gray" points="888.641,-284 839.641,-284 839.641,-248 894.641,-248 894.641,-278 888.641,-284"/>
<polyline fill="none" stroke="gray" points="888.641,-284 888.641,-278 "/>
<polyline fill="none" stroke="gray" points="894.641,-278 888.641,-278 "/>
<text text-anchor="start" x="850.141" y="-263" font-family="Times New Roman,serif" font-size="10.00">repr:</text>
<text text-anchor="start" x="871.141" y="-263" font-family="Times New Roman,serif" font-size="10.00">&quot;0&quot;</text>
</g>
<!-- &#45;attrs5&#45;&gt;http://example.org/vsum -->
<g id="edge14" class="edge"><title>&#45;attrs5&#45;&gt;http://example.org/vsum</title>
<path fill="none" stroke="gray" stroke-dasharray="5,2" d="M860.939,-284.224C854.482,-299.478 842.813,-320.982 825.141,-332 767.414,-367.991 738.885,-332.52 673.141,-350 667.453,-351.512 661.518,-353.681 656.014,-355.966"/>
</g>
<!-- http://example.org/add0&#45;&gt;http://example.org/disti_ak0 -->
<g id="edge18" class="edge"><title>http://example.org/add0&#45;&gt;http://example.org/disti_ak0</title>
<path fill="none" stroke="black" d="M307.101,-386.187C299.872,-395.036 290.935,-405.976 283.011,-415.677"/>
<polygon fill="black" stroke="black" points="280.269,-413.501 276.653,-423.46 285.69,-417.93 280.269,-413.501"/>
<text text-anchor="middle" x="312.417" y="-398.314" font-family="Times New Roman,serif" font-size="8.00">use</text>
</g>
<!-- http://example.org/add0&#45;&gt;http://example.org/distk_aj0 -->
<g id="edge20" class="edge"><title>http://example.org/add0&#45;&gt;http://example.org/distk_aj0</title>
<path fill="none" stroke="black" d="M348.307,-383.261C363.266,-390.628 382.357,-399.254 400.141,-405 438.958,-417.541 450.657,-412.754 490.141,-423 493.565,-423.889 497.094,-424.871 500.628,-425.901"/>
<polygon fill="black" stroke="black" points="499.929,-429.347 510.514,-428.897 501.959,-422.648 499.929,-429.347"/>
<text text-anchor="middle" x="360.739" y="-372.967" font-family="Times New Roman,serif" font-size="8.00">use</text>
</g>
<!-- &#45;attrs6 -->
<g id="node19" class="node"><title>&#45;attrs6</title>
<polygon fill="none" stroke="gray" points="349.141,-284 287.141,-284 287.141,-248 355.141,-248 355.141,-278 349.141,-284"/>
<polyline fill="none" stroke="gray" points="349.141,-284 349.141,-278 "/>
<polyline fill="none" stroke="gray" points="355.141,-278 349.141,-278 "/>
<text text-anchor="start" x="297.141" y="-263" font-family="Times New Roman,serif" font-size="10.00">type:</text>
<text text-anchor="start" x="320.141" y="-263" font-family="Times New Roman,serif" font-size="10.00">&quot;add&quot;</text>
</g>
<!-- &#45;attrs6&#45;&gt;http://example.org/add0 -->
<g id="edge17" class="edge"><title>&#45;attrs6&#45;&gt;http://example.org/add0</title>
<path fill="none" stroke="gray" stroke-dasharray="5,2" d="M321.141,-284.419C321.141,-302.773 321.141,-331.502 321.141,-349.781"/>
</g>
<!-- http://example.org/ikj0 -->
<g id="node20" class="node"><title>http://example.org/ikj0</title>
<g id="a_node20"><a xlink:href="http://example.org/ikj0" xlink:title="ikj0">
<ellipse fill="#fffc87" stroke="#808080" cx="462.141" cy="-91" rx="27" ry="18"/>
<text text-anchor="middle" x="462.141" y="-87.3" font-family="Times New Roman,serif" font-size="14.00">ikj0</text>
</a>
</g>
</g>
<!-- http://example.org/ikj0&#45;&gt;http://example.org/sum0 -->
<g id="edge27" class="edge"><title>http://example.org/ikj0&#45;&gt;http://example.org/sum0</title>
<path fill="none" stroke="black" d="M447.292,-106.54C438.092,-116.634 427.114,-130.932 422.141,-146 412.085,-176.472 417.49,-213.628 423.33,-238.228"/>
<polygon fill="black" stroke="black" points="419.947,-239.125 425.816,-247.946 426.728,-237.391 419.947,-239.125"/>
<text text-anchor="middle" x="452.007" y="-118.88" font-family="Times New Roman,serif" font-size="8.00">der</text>
</g>
<!-- http://example.org/ikj0&#45;&gt;http://example.org/vsum -->
<g id="edge24" class="edge"><title>http://example.org/ikj0&#45;&gt;http://example.org/vsum</title>
<path fill="none" stroke="darkgreen" d="M488.216,-95.9446C524.058,-102.236 589.618,-116.917 638.141,-146 722.514,-196.57 757.353,-211.181 795.141,-302 800.263,-314.31 803.854,-321.907 795.141,-332 777.233,-352.744 699.522,-342.58 673.141,-350 670.663,-350.697 668.134,-351.511 665.613,-352.397"/>
<polygon fill="darkgreen" stroke="darkgreen" points="664.119,-349.222 656.047,-356.084 666.636,-355.753 664.119,-349.222"/>
<text text-anchor="middle" x="834.641" y="-218.8" font-family="Times New Roman,serif" font-size="14.00">access</text>
<text text-anchor="middle" x="834.641" y="-203.8" font-family="Times New Roman,serif" font-size="14.00">2018&#45;02&#45;26T14:41:53.291762</text>
</g>
<!-- http://example.org/assign7 -->
<g id="node22" class="node"><title>http://example.org/assign7</title>
<g id="a_node22"><a xlink:href="http://example.org/assign7" xlink:title="assign7">
<polygon fill="#9fb1fc" stroke="#0000ff" points="489.141,-182 431.141,-182 431.141,-146 489.141,-146 489.141,-182"/>
<text text-anchor="middle" x="460.141" y="-160.3" font-family="Times New Roman,serif" font-size="14.00">assign7</text>
</a>
</g>
</g>
<!-- http://example.org/ikj0&#45;&gt;http://example.org/assign7 -->
<g id="edge28" class="edge"><title>http://example.org/ikj0&#45;&gt;http://example.org/assign7</title>
<path fill="none" stroke="black" d="M461.657,-109.187C461.431,-117.211 461.157,-126.953 460.904,-135.931"/>
<polygon fill="black" stroke="black" points="457.404,-135.877 460.621,-145.971 464.401,-136.074 457.404,-135.877"/>
<text text-anchor="middle" x="474.431" y="-115.15" font-family="Times New Roman,serif" font-size="8.00">gen</text>
</g>
<!-- &#45;attrs7 -->
<g id="node21" class="node"><title>&#45;attrs7</title>
<polygon fill="none" stroke="gray" points="495.141,-36 423.141,-36 423.141,-0 501.141,-0 501.141,-30 495.141,-36"/>
<polyline fill="none" stroke="gray" points="495.141,-36 495.141,-30 "/>
<polyline fill="none" stroke="gray" points="501.141,-30 495.141,-30 "/>
<text text-anchor="start" x="433.141" y="-22" font-family="Times New Roman,serif" font-size="10.00">value:</text>
<text text-anchor="start" x="460.141" y="-22" font-family="Times New Roman,serif" font-size="10.00">&quot;ikj&quot;</text>
<text text-anchor="start" x="433.141" y="-9" font-family="Times New Roman,serif" font-size="10.00">type:</text>
<text text-anchor="start" x="460.141" y="-9" font-family="Times New Roman,serif" font-size="10.00">&quot;name&quot;</text>
</g>
<!-- &#45;attrs7&#45;&gt;http://example.org/ikj0 -->
<g id="edge23" class="edge"><title>&#45;attrs7&#45;&gt;http://example.org/ikj0</title>
<path fill="none" stroke="gray" stroke-dasharray="5,2" d="M462.141,-36.1871C462.141,-47.3501 462.141,-61.8398 462.141,-72.9712"/>
</g>
<!-- http://example.org/assign7&#45;&gt;http://example.org/sum0 -->
<g id="edge26" class="edge"><title>http://example.org/assign7&#45;&gt;http://example.org/sum0</title>
<path fill="none" stroke="black" d="M455.09,-182.419C450.613,-197.855 444.008,-220.631 438.868,-238.355"/>
<polygon fill="black" stroke="black" points="435.462,-237.535 436.038,-248.114 442.185,-239.485 435.462,-237.535"/>
<text text-anchor="middle" x="465.477" y="-191.34" font-family="Times New Roman,serif" font-size="8.00">use</text>
</g>
<!-- &#45;attrs8 -->
<g id="node23" class="node"><title>&#45;attrs8</title>
<polygon fill="none" stroke="gray" points="410.641,-109 337.641,-109 337.641,-73 416.641,-73 416.641,-103 410.641,-109"/>
<polyline fill="none" stroke="gray" points="410.641,-109 410.641,-103 "/>
<polyline fill="none" stroke="gray" points="416.641,-103 410.641,-103 "/>
<text text-anchor="start" x="348.141" y="-88" font-family="Times New Roman,serif" font-size="10.00">type:</text>
<text text-anchor="start" x="371.141" y="-88" font-family="Times New Roman,serif" font-size="10.00">&quot;assign&quot;</text>
</g>
<!-- &#45;attrs8&#45;&gt;http://example.org/assign7 -->
<g id="edge25" class="edge"><title>&#45;attrs8&#45;&gt;http://example.org/assign7</title>
<path fill="none" stroke="gray" stroke-dasharray="5,2" d="M397.233,-109.187C410.283,-120.35 427.222,-134.84 440.234,-145.971"/>
</g>
</g>
</svg>
