<?xml version="1.0" encoding="UTF-8" standalone="no"?>
<!DOCTYPE svg PUBLIC "-//W3C//DTD SVG 1.1//EN"
 "http://www.w3.org/Graphics/SVG/1.1/DTD/svg11.dtd">
<!-- Generated by graphviz version 2.38.0 (20140413.2041)
 -->
<!-- Title: PROV Pages: 1 -->
<svg width="499pt" height="307pt"
 viewBox="0.00 0.00 499.14 307.00" xmlns="http://www.w3.org/2000/svg" xmlns:xlink="http://www.w3.org/1999/xlink">
<g id="graph0" class="graph" transform="scale(1 1) rotate(0) translate(4 303)">
<title>PROV</title>
<polygon fill="white" stroke="none" points="-4,4 -4,-303 495.141,-303 495.141,4 -4,4"/>
<!-- http://example.org/disti_aj0 -->
<g id="node1" class="node"><title>http://example.org/disti_aj0</title>
<g id="a_node1"><a xlink:href="http://example.org/disti_aj0" xlink:title="disti_aj0">
<ellipse fill="#fffc87" stroke="#808080" cx="316.141" cy="-91" rx="40.8928" ry="18"/>
<text text-anchor="middle" x="316.141" y="-87.3" font-family="Times New Roman,serif" font-size="14.00">disti_aj0</text>
</a>
</g>
</g>
<!-- http://example.org/v0 -->
<g id="node3" class="node"><title>http://example.org/v0</title>
<ellipse fill="none" stroke="black" cx="334.141" cy="-208" rx="87.1846" ry="18"/>
<text text-anchor="middle" x="334.141" y="-204.3" font-family="Times New Roman,serif" font-size="14.00">http://example.org/v0</text>
</g>
<!-- http://example.org/disti_aj0&#45;&gt;http://example.org/v0 -->
<g id="edge2" class="edge"><title>http://example.org/disti_aj0&#45;&gt;http://example.org/v0</title>
<path fill="none" stroke="darkgreen" d="M318.797,-108.969C321.722,-127.654 326.465,-157.957 329.904,-179.931"/>
<polygon fill="darkgreen" stroke="darkgreen" points="326.47,-180.623 331.474,-189.962 333.386,-179.541 326.47,-180.623"/>
<text text-anchor="middle" x="409.641" y="-160.8" font-family="Times New Roman,serif" font-size="14.00">part</text>
<text text-anchor="middle" x="409.641" y="-145.8" font-family="Times New Roman,serif" font-size="14.00">row0[0]</text>
<text text-anchor="middle" x="409.641" y="-130.8" font-family="Times New Roman,serif" font-size="14.00">2018&#45;02&#45;26T14:41:53.414748</text>
</g>
<!-- http://example.org/access7 -->
<g id="node4" class="node"><title>http://example.org/access7</title>
<g id="a_node4"><a xlink:href="http://example.org/access7" xlink:title="access7">
<polygon fill="#9fb1fc" stroke="#0000ff" points="228.641,-226 167.641,-226 167.641,-190 228.641,-190 228.641,-226"/>
<text text-anchor="middle" x="198.141" y="-204.3" font-family="Times New Roman,serif" font-size="14.00">access7</text>
</a>
</g>
</g>
<!-- http://example.org/disti_aj0&#45;&gt;http://example.org/access7 -->
<g id="edge6" class="edge"><title>http://example.org/disti_aj0&#45;&gt;http://example.org/access7</title>
<path fill="none" stroke="black" d="M299.734,-107.99C279.934,-127.286 246.432,-159.937 223.346,-182.436"/>
<polygon fill="black" stroke="black" points="220.67,-180.157 215.951,-189.643 225.555,-185.17 220.67,-180.157"/>
<text text-anchor="middle" x="303.429" y="-120.628" font-family="Times New Roman,serif" font-size="8.00">gen</text>
</g>
<!-- &#45;attrs0 -->
<g id="node2" class="node"><title>&#45;attrs0</title>
<polygon fill="none" stroke="gray" points="352.141,-36 274.141,-36 274.141,-0 358.141,-0 358.141,-30 352.141,-36"/>
<polyline fill="none" stroke="gray" points="352.141,-36 352.141,-30 "/>
<polyline fill="none" stroke="gray" points="358.141,-30 352.141,-30 "/>
<text text-anchor="start" x="284.141" y="-22" font-family="Times New Roman,serif" font-size="10.00">value:</text>
<text text-anchor="start" x="311.141" y="-22" font-family="Times New Roman,serif" font-size="10.00">&quot;0&quot;</text>
<text text-anchor="start" x="284.141" y="-9" font-family="Times New Roman,serif" font-size="10.00">type:</text>
<text text-anchor="start" x="311.141" y="-9" font-family="Times New Roman,serif" font-size="10.00">&quot;access&quot;</text>
</g>
<!-- &#45;attrs0&#45;&gt;http://example.org/disti_aj0 -->
<g id="edge1" class="edge"><title>&#45;attrs0&#45;&gt;http://example.org/disti_aj0</title>
<path fill="none" stroke="gray" stroke-dasharray="5,2" d="M316.141,-36.1871C316.141,-47.3501 316.141,-61.8398 316.141,-72.9712"/>
</g>
<!-- http://example.org/disti0 -->
<g id="node6" class="node"><title>http://example.org/disti0</title>
<ellipse fill="none" stroke="black" cx="98.1413" cy="-281" rx="98.2828" ry="18"/>
<text text-anchor="middle" x="98.1413" y="-277.3" font-family="Times New Roman,serif" font-size="14.00">http://example.org/disti0</text>
</g>
<!-- http://example.org/access7&#45;&gt;http://example.org/disti0 -->
<g id="edge4" class="edge"><title>http://example.org/access7&#45;&gt;http://example.org/disti0</title>
<path fill="none" stroke="black" d="M174.189,-226.006C160.858,-235.471 144.099,-247.37 129.709,-257.587"/>
<polygon fill="black" stroke="black" points="127.681,-254.734 121.553,-263.377 131.733,-260.442 127.681,-254.734"/>
<text text-anchor="middle" x="175.594" y="-239.04" font-family="Times New Roman,serif" font-size="8.00">use</text>
</g>
<!-- http://example.org/j0 -->
<g id="node7" class="node"><title>http://example.org/j0</title>
<ellipse fill="none" stroke="black" cx="299.141" cy="-281" rx="85.2851" ry="18"/>
<text text-anchor="middle" x="299.141" y="-277.3" font-family="Times New Roman,serif" font-size="14.00">http://example.org/j0</text>
</g>
<!-- http://example.org/access7&#45;&gt;http://example.org/j0 -->
<g id="edge5" class="edge"><title>http://example.org/access7&#45;&gt;http://example.org/j0</title>
<path fill="none" stroke="black" d="M222.333,-226.006C235.895,-235.54 252.97,-247.543 267.574,-257.809"/>
<polygon fill="black" stroke="black" points="265.648,-260.734 275.842,-263.621 269.674,-255.007 265.648,-260.734"/>
<text text-anchor="middle" x="235.94" y="-217.792" font-family="Times New Roman,serif" font-size="8.00">use</text>
</g>
<!-- &#45;attrs1 -->
<g id="node5" class="node"><title>&#45;attrs1</title>
<polygon fill="none" stroke="gray" points="232.141,-109 158.141,-109 158.141,-73 238.141,-73 238.141,-103 232.141,-109"/>
<polyline fill="none" stroke="gray" points="232.141,-109 232.141,-103 "/>
<polyline fill="none" stroke="gray" points="238.141,-103 232.141,-103 "/>
<text text-anchor="start" x="168.141" y="-88" font-family="Times New Roman,serif" font-size="10.00">type:</text>
<text text-anchor="start" x="191.141" y="-88" font-family="Times New Roman,serif" font-size="10.00">&quot;access&quot;</text>
</g>
<!-- &#45;attrs1&#45;&gt;http://example.org/access7 -->
<g id="edge3" class="edge"><title>&#45;attrs1&#45;&gt;http://example.org/access7</title>
<path fill="none" stroke="gray" stroke-dasharray="5,2" d="M198.141,-109.466C198.141,-131.207 198.141,-168.105 198.141,-189.746"/>
</g>
</g>
</svg>
