<?xml version="1.0" encoding="UTF-8" standalone="no"?>
<!DOCTYPE svg PUBLIC "-//W3C//DTD SVG 1.1//EN"
 "http://www.w3.org/Graphics/SVG/1.1/DTD/svg11.dtd">
<!-- Generated by graphviz version 2.38.0 (20140413.2041)
 -->
<!-- Title: PROV Pages: 1 -->
<svg width="898pt" height="307pt"
 viewBox="0.00 0.00 897.69 307.00" xmlns="http://www.w3.org/2000/svg" xmlns:xlink="http://www.w3.org/1999/xlink">
<g id="graph0" class="graph" transform="scale(1 1) rotate(0) translate(4 303)">
<title>PROV</title>
<polygon fill="white" stroke="none" points="-4,4 -4,-303 893.691,-303 893.691,4 -4,4"/>
<!-- http://example.org/disti_aj#14 -->
<g id="node1" class="node"><title>http://example.org/disti_aj#14</title>
<g id="a_node1"><a xlink:href="http://example.org/disti_aj#14" xlink:title="disti_aj#14">
<ellipse fill="#fffc87" stroke="#808080" cx="356.691" cy="-91" rx="50.0912" ry="18"/>
<text text-anchor="middle" x="356.691" y="-87.3" font-family="Times New Roman,serif" font-size="14.00">disti_aj#14</text>
</a>
</g>
</g>
<!-- http://example.org/vsum#12 -->
<g id="node4" class="node"><title>http://example.org/vsum#12</title>
<ellipse fill="none" stroke="black" cx="542.691" cy="-208" rx="111.581" ry="18"/>
<text text-anchor="middle" x="542.691" y="-204.3" font-family="Times New Roman,serif" font-size="14.00">http://example.org/vsum#12</text>
</g>
<!-- http://example.org/disti_aj#14&#45;&gt;http://example.org/vsum#12 -->
<g id="edge4" class="edge"><title>http://example.org/disti_aj#14&#45;&gt;http://example.org/vsum#12</title>
<path fill="none" stroke="darkgreen" d="M350.055,-109.107C344.381,-126.913 339.203,-154.583 353.691,-172 364.663,-185.191 397.316,-193.432 432.462,-198.571"/>
<polygon fill="darkgreen" stroke="darkgreen" points="432.042,-202.046 442.425,-199.94 432.995,-195.111 432.042,-202.046"/>
<text text-anchor="middle" x="435.191" y="-153.3" font-family="Times New Roman,serif" font-size="14.00">access</text>
<text text-anchor="middle" x="435.191" y="-138.3" font-family="Times New Roman,serif" font-size="14.00">2018&#45;03&#45;03T19:41:25.971358</text>
</g>
<!-- http://example.org/assign25 -->
<g id="node5" class="node"><title>http://example.org/assign25</title>
<g id="a_node5"><a xlink:href="http://example.org/assign25" xlink:title="assign25">
<polygon fill="#9fb1fc" stroke="#0000ff" points="288.191,-226 223.191,-226 223.191,-190 288.191,-190 288.191,-226"/>
<text text-anchor="middle" x="255.691" y="-204.3" font-family="Times New Roman,serif" font-size="14.00">assign25</text>
</a>
</g>
</g>
<!-- http://example.org/disti_aj#14&#45;&gt;http://example.org/assign25 -->
<g id="edge8" class="edge"><title>http://example.org/disti_aj#14&#45;&gt;http://example.org/assign25</title>
<path fill="none" stroke="black" d="M333.429,-106.953C325.425,-112.691 316.716,-119.641 309.691,-127 294.214,-143.211 280.17,-164.32 270.285,-180.784"/>
<polygon fill="black" stroke="black" points="266.998,-179.47 264.966,-189.869 273.039,-183.007 266.998,-179.47"/>
<text text-anchor="middle" x="334.992" y="-119.971" font-family="Times New Roman,serif" font-size="8.00">gen</text>
</g>
<!-- http://example.org/ikj#12 -->
<g id="node7" class="node"><title>http://example.org/ikj#12</title>
<ellipse fill="none" stroke="black" cx="323.691" cy="-281" rx="100.983" ry="18"/>
<text text-anchor="middle" x="323.691" y="-277.3" font-family="Times New Roman,serif" font-size="14.00">http://example.org/ikj#12</text>
</g>
<!-- http://example.org/disti_aj#14&#45;&gt;http://example.org/ikj#12 -->
<g id="edge7" class="edge"><title>http://example.org/disti_aj#14&#45;&gt;http://example.org/ikj#12</title>
<path fill="none" stroke="black" d="M347.589,-109.037C344.966,-114.62 342.364,-120.947 340.691,-127 328.842,-169.86 325.214,-221.637 324.126,-252.635"/>
<polygon fill="black" stroke="black" points="320.626,-252.588 323.838,-262.685 327.623,-252.789 320.626,-252.588"/>
<text text-anchor="middle" x="356.226" y="-119.4" font-family="Times New Roman,serif" font-size="8.00">der</text>
</g>
<!-- &#45;attrs0 -->
<g id="node2" class="node"><title>&#45;attrs0</title>
<polygon fill="none" stroke="gray" points="391.191,-36 316.191,-36 316.191,-0 397.191,-0 397.191,-30 391.191,-36"/>
<polyline fill="none" stroke="gray" points="391.191,-36 391.191,-30 "/>
<polyline fill="none" stroke="gray" points="397.191,-30 391.191,-30 "/>
<text text-anchor="start" x="326.691" y="-22" font-family="Times New Roman,serif" font-size="10.00">type:</text>
<text text-anchor="start" x="350.691" y="-22" font-family="Times New Roman,serif" font-size="10.00">&quot;access&quot;</text>
<text text-anchor="start" x="326.691" y="-9" font-family="Times New Roman,serif" font-size="10.00">label:</text>
<text text-anchor="start" x="350.691" y="-9" font-family="Times New Roman,serif" font-size="10.00">&quot;disti[j]&quot;</text>
</g>
<!-- &#45;attrs0&#45;&gt;http://example.org/disti_aj#14 -->
<g id="edge1" class="edge"><title>&#45;attrs0&#45;&gt;http://example.org/disti_aj#14</title>
<path fill="none" stroke="gray" stroke-dasharray="5,2" d="M356.691,-36.1871C356.691,-47.3501 356.691,-61.8398 356.691,-72.9712"/>
</g>
<!-- http://example.org/row0 -->
<g id="node3" class="node"><title>http://example.org/row0</title>
<ellipse fill="none" stroke="black" cx="728.691" cy="-91" rx="96.6831" ry="18"/>
<text text-anchor="middle" x="728.691" y="-87.3" font-family="Times New Roman,serif" font-size="14.00">http://example.org/row0</text>
</g>
<!-- http://example.org/row0&#45;&gt;http://example.org/vsum#12 -->
<g id="edge2" class="edge"><title>http://example.org/row0&#45;&gt;http://example.org/vsum#12</title>
<path fill="none" stroke="darkgreen" d="M728.867,-109.289C728.07,-127.516 723.873,-155.788 706.691,-172 696.18,-181.918 669.157,-189.407 640.01,-194.859"/>
<polygon fill="darkgreen" stroke="darkgreen" points="639.296,-191.431 630.065,-196.631 640.523,-198.323 639.296,-191.431"/>
<text text-anchor="middle" x="808.191" y="-160.8" font-family="Times New Roman,serif" font-size="14.00">der&#45;ins&#45;v</text>
<text text-anchor="middle" x="808.191" y="-145.8" font-family="Times New Roman,serif" font-size="14.00">[2]</text>
<text text-anchor="middle" x="808.191" y="-130.8" font-family="Times New Roman,serif" font-size="14.00">2018&#45;03&#45;03T19:41:25.971358</text>
</g>
<!-- http://example.org/vsum#12&#45;&gt;http://example.org/disti_aj#14 -->
<g id="edge3" class="edge"><title>http://example.org/vsum#12&#45;&gt;http://example.org/disti_aj#14</title>
<path fill="none" stroke="darkgreen" stroke-dasharray="5,2" d="M540.111,-189.921C536.614,-169.079 529.754,-135.551 520.691,-127 505.416,-112.587 455.27,-103.303 414.409,-97.945"/>
<polygon fill="darkgreen" stroke="darkgreen" points="414.606,-94.4423 404.247,-96.6666 413.732,-101.388 414.606,-94.4423"/>
<text text-anchor="middle" x="618.191" y="-160.8" font-family="Times New Roman,serif" font-size="14.00">der&#45;ins&#45;e</text>
<text text-anchor="middle" x="618.191" y="-145.8" font-family="Times New Roman,serif" font-size="14.00">[2]</text>
<text text-anchor="middle" x="618.191" y="-130.8" font-family="Times New Roman,serif" font-size="14.00">2018&#45;03&#45;03T19:41:25.971358</text>
</g>
<!-- http://example.org/assign25&#45;&gt;http://example.org/ikj#12 -->
<g id="edge6" class="edge"><title>http://example.org/assign25&#45;&gt;http://example.org/ikj#12</title>
<path fill="none" stroke="black" d="M272.152,-226.187C280.588,-234.995 291.008,-245.875 300.266,-255.542"/>
<polygon fill="black" stroke="black" points="297.937,-258.17 307.382,-262.971 302.992,-253.328 297.937,-258.17"/>
<text text-anchor="middle" x="286.721" y="-220.718" font-family="Times New Roman,serif" font-size="8.00">use</text>
</g>
<!-- http://example.org/disti#4 -->
<g id="node8" class="node"><title>http://example.org/disti#4</title>
<ellipse fill="none" stroke="black" cx="102.691" cy="-281" rx="102.882" ry="18"/>
<text text-anchor="middle" x="102.691" y="-277.3" font-family="Times New Roman,serif" font-size="14.00">http://example.org/disti#4</text>
</g>
<!-- http://example.org/assign25&#45;&gt;http://example.org/disti#4 -->
<g id="edge9" class="edge"><title>http://example.org/assign25&#45;&gt;http://example.org/disti#4</title>
<path fill="none" stroke="black" d="M222.869,-224.231C200.622,-234.555 170.963,-248.318 146.676,-259.588"/>
<polygon fill="black" stroke="black" points="144.916,-256.547 137.319,-263.931 147.863,-262.896 144.916,-256.547"/>
<text text-anchor="middle" x="221.534" y="-237.272" font-family="Times New Roman,serif" font-size="8.00">use</text>
</g>
<!-- &#45;attrs1 -->
<g id="node6" class="node"><title>&#45;attrs1</title>
<polygon fill="none" stroke="gray" points="282.191,-109 209.191,-109 209.191,-73 288.191,-73 288.191,-103 282.191,-109"/>
<polyline fill="none" stroke="gray" points="282.191,-109 282.191,-103 "/>
<polyline fill="none" stroke="gray" points="288.191,-103 282.191,-103 "/>
<text text-anchor="start" x="219.691" y="-88" font-family="Times New Roman,serif" font-size="10.00">type:</text>
<text text-anchor="start" x="242.691" y="-88" font-family="Times New Roman,serif" font-size="10.00">&quot;assign&quot;</text>
</g>
<!-- &#45;attrs1&#45;&gt;http://example.org/assign25 -->
<g id="edge5" class="edge"><title>&#45;attrs1&#45;&gt;http://example.org/assign25</title>
<path fill="none" stroke="gray" stroke-dasharray="5,2" d="M249.754,-109.466C251.077,-131.207 253.323,-168.105 254.641,-189.746"/>
</g>
</g>
</svg>
