<?xml version="1.0" encoding="UTF-8" standalone="no"?>
<!DOCTYPE svg PUBLIC "-//W3C//DTD SVG 1.1//EN"
 "http://www.w3.org/Graphics/SVG/1.1/DTD/svg11.dtd">
<!-- Generated by graphviz version 2.38.0 (20140413.2041)
 -->
<!-- Title: PROV Pages: 1 -->
<svg width="884pt" height="307pt"
 viewBox="0.00 0.00 884.14 307.00" xmlns="http://www.w3.org/2000/svg" xmlns:xlink="http://www.w3.org/1999/xlink">
<g id="graph0" class="graph" transform="scale(1 1) rotate(0) translate(4 303)">
<title>PROV</title>
<polygon fill="white" stroke="none" points="-4,4 -4,-303 880.141,-303 880.141,4 -4,4"/>
<!-- http://example.org/disti_aj24 -->
<g id="node1" class="node"><title>http://example.org/disti_aj24</title>
<g id="a_node1"><a xlink:href="http://example.org/disti_aj24" xlink:title="disti_aj24">
<ellipse fill="#fffc87" stroke="#808080" cx="343.141" cy="-91" rx="45.4919" ry="18"/>
<text text-anchor="middle" x="343.141" y="-87.3" font-family="Times New Roman,serif" font-size="14.00">disti_aj24</text>
</a>
</g>
</g>
<!-- http://example.org/vsum_21 -->
<g id="node4" class="node"><title>http://example.org/vsum_21</title>
<ellipse fill="none" stroke="black" cx="529.141" cy="-208" rx="111.581" ry="18"/>
<text text-anchor="middle" x="529.141" y="-204.3" font-family="Times New Roman,serif" font-size="14.00">http://example.org/vsum_21</text>
</g>
<!-- http://example.org/disti_aj24&#45;&gt;http://example.org/vsum_21 -->
<g id="edge4" class="edge"><title>http://example.org/disti_aj24&#45;&gt;http://example.org/vsum_21</title>
<path fill="none" stroke="darkgreen" d="M336.505,-109.107C330.831,-126.913 325.654,-154.583 340.141,-172 351.114,-185.191 383.767,-193.432 418.912,-198.571"/>
<polygon fill="darkgreen" stroke="darkgreen" points="418.492,-202.046 428.875,-199.94 419.445,-195.111 418.492,-202.046"/>
<text text-anchor="middle" x="421.641" y="-153.3" font-family="Times New Roman,serif" font-size="14.00">access</text>
<text text-anchor="middle" x="421.641" y="-138.3" font-family="Times New Roman,serif" font-size="14.00">2018&#45;02&#45;26T14:42:02.150059</text>
</g>
<!-- http://example.org/assign40 -->
<g id="node5" class="node"><title>http://example.org/assign40</title>
<g id="a_node5"><a xlink:href="http://example.org/assign40" xlink:title="assign40">
<polygon fill="#9fb1fc" stroke="#0000ff" points="276.641,-226 211.641,-226 211.641,-190 276.641,-190 276.641,-226"/>
<text text-anchor="middle" x="244.141" y="-204.3" font-family="Times New Roman,serif" font-size="14.00">assign40</text>
</a>
</g>
</g>
<!-- http://example.org/disti_aj24&#45;&gt;http://example.org/assign40 -->
<g id="edge8" class="edge"><title>http://example.org/disti_aj24&#45;&gt;http://example.org/assign40</title>
<path fill="none" stroke="black" d="M319.808,-106.885C311.797,-112.617 303.102,-119.581 296.141,-127 280.982,-143.158 267.469,-164.269 258.019,-180.747"/>
<polygon fill="black" stroke="black" points="254.761,-179.404 252.944,-189.842 260.873,-182.815 254.761,-179.404"/>
<text text-anchor="middle" x="321.361" y="-119.905" font-family="Times New Roman,serif" font-size="8.00">gen</text>
</g>
<!-- http://example.org/ikj21 -->
<g id="node7" class="node"><title>http://example.org/ikj21</title>
<ellipse fill="none" stroke="black" cx="310.141" cy="-281" rx="95.5831" ry="18"/>
<text text-anchor="middle" x="310.141" y="-277.3" font-family="Times New Roman,serif" font-size="14.00">http://example.org/ikj21</text>
</g>
<!-- http://example.org/disti_aj24&#45;&gt;http://example.org/ikj21 -->
<g id="edge7" class="edge"><title>http://example.org/disti_aj24&#45;&gt;http://example.org/ikj21</title>
<path fill="none" stroke="black" d="M334.207,-108.681C331.528,-114.351 328.85,-120.818 327.141,-127 315.293,-169.86 311.665,-221.637 310.577,-252.635"/>
<polygon fill="black" stroke="black" points="307.077,-252.588 310.288,-262.685 314.074,-252.789 307.077,-252.588"/>
<text text-anchor="middle" x="342.817" y="-119.064" font-family="Times New Roman,serif" font-size="8.00">der</text>
</g>
<!-- &#45;attrs0 -->
<g id="node2" class="node"><title>&#45;attrs0</title>
<polygon fill="none" stroke="gray" points="379.141,-36 301.141,-36 301.141,-0 385.141,-0 385.141,-30 379.141,-36"/>
<polyline fill="none" stroke="gray" points="379.141,-36 379.141,-30 "/>
<polyline fill="none" stroke="gray" points="385.141,-30 379.141,-30 "/>
<text text-anchor="start" x="311.141" y="-22" font-family="Times New Roman,serif" font-size="10.00">value:</text>
<text text-anchor="start" x="338.141" y="-22" font-family="Times New Roman,serif" font-size="10.00">&quot;disti[j]&quot;</text>
<text text-anchor="start" x="311.141" y="-9" font-family="Times New Roman,serif" font-size="10.00">type:</text>
<text text-anchor="start" x="338.141" y="-9" font-family="Times New Roman,serif" font-size="10.00">&quot;access&quot;</text>
</g>
<!-- &#45;attrs0&#45;&gt;http://example.org/disti_aj24 -->
<g id="edge1" class="edge"><title>&#45;attrs0&#45;&gt;http://example.org/disti_aj24</title>
<path fill="none" stroke="gray" stroke-dasharray="5,2" d="M343.141,-36.1871C343.141,-47.3501 343.141,-61.8398 343.141,-72.9712"/>
</g>
<!-- http://example.org/row1 -->
<g id="node3" class="node"><title>http://example.org/row1</title>
<ellipse fill="none" stroke="black" cx="715.141" cy="-91" rx="96.6831" ry="18"/>
<text text-anchor="middle" x="715.141" y="-87.3" font-family="Times New Roman,serif" font-size="14.00">http://example.org/row1</text>
</g>
<!-- http://example.org/row1&#45;&gt;http://example.org/vsum_21 -->
<g id="edge2" class="edge"><title>http://example.org/row1&#45;&gt;http://example.org/vsum_21</title>
<path fill="none" stroke="darkgreen" d="M715.317,-109.289C714.52,-127.516 710.324,-155.788 693.141,-172 682.63,-181.918 655.607,-189.407 626.46,-194.859"/>
<polygon fill="darkgreen" stroke="darkgreen" points="625.746,-191.431 616.515,-196.631 626.974,-198.323 625.746,-191.431"/>
<text text-anchor="middle" x="794.641" y="-160.8" font-family="Times New Roman,serif" font-size="14.00">der&#45;ins&#45;v</text>
<text text-anchor="middle" x="794.641" y="-145.8" font-family="Times New Roman,serif" font-size="14.00">[0]</text>
<text text-anchor="middle" x="794.641" y="-130.8" font-family="Times New Roman,serif" font-size="14.00">2018&#45;02&#45;26T14:42:02.150059</text>
</g>
<!-- http://example.org/vsum_21&#45;&gt;http://example.org/disti_aj24 -->
<g id="edge3" class="edge"><title>http://example.org/vsum_21&#45;&gt;http://example.org/disti_aj24</title>
<path fill="none" stroke="darkgreen" stroke-dasharray="5,2" d="M526.561,-189.921C523.065,-169.079 516.204,-135.551 507.141,-127 491.393,-112.142 438.584,-102.734 397.095,-97.459"/>
<polygon fill="darkgreen" stroke="darkgreen" points="397.441,-93.9753 387.091,-96.2377 396.593,-100.924 397.441,-93.9753"/>
<text text-anchor="middle" x="604.641" y="-160.8" font-family="Times New Roman,serif" font-size="14.00">der&#45;ins&#45;e</text>
<text text-anchor="middle" x="604.641" y="-145.8" font-family="Times New Roman,serif" font-size="14.00">[0]</text>
<text text-anchor="middle" x="604.641" y="-130.8" font-family="Times New Roman,serif" font-size="14.00">2018&#45;02&#45;26T14:42:02.150059</text>
</g>
<!-- http://example.org/assign40&#45;&gt;http://example.org/ikj21 -->
<g id="edge6" class="edge"><title>http://example.org/assign40&#45;&gt;http://example.org/ikj21</title>
<path fill="none" stroke="black" d="M260.118,-226.187C268.306,-234.995 278.419,-245.875 287.405,-255.542"/>
<polygon fill="black" stroke="black" points="284.94,-258.03 294.312,-262.971 290.067,-253.264 284.94,-258.03"/>
<text text-anchor="middle" x="274.739" y="-220.936" font-family="Times New Roman,serif" font-size="8.00">use</text>
</g>
<!-- http://example.org/disti7 -->
<g id="node8" class="node"><title>http://example.org/disti7</title>
<ellipse fill="none" stroke="black" cx="98.1413" cy="-281" rx="98.2828" ry="18"/>
<text text-anchor="middle" x="98.1413" y="-277.3" font-family="Times New Roman,serif" font-size="14.00">http://example.org/disti7</text>
</g>
<!-- http://example.org/assign40&#45;&gt;http://example.org/disti7 -->
<g id="edge9" class="edge"><title>http://example.org/assign40&#45;&gt;http://example.org/disti7</title>
<path fill="none" stroke="black" d="M211.376,-224.934C190.317,-235.175 162.76,-248.576 140.105,-259.593"/>
<polygon fill="black" stroke="black" points="138.512,-256.476 131.049,-263.997 141.573,-262.771 138.512,-256.476"/>
<text text-anchor="middle" x="210.312" y="-237.996" font-family="Times New Roman,serif" font-size="8.00">use</text>
</g>
<!-- &#45;attrs1 -->
<g id="node6" class="node"><title>&#45;attrs1</title>
<polygon fill="none" stroke="gray" points="273.641,-109 200.641,-109 200.641,-73 279.641,-73 279.641,-103 273.641,-109"/>
<polyline fill="none" stroke="gray" points="273.641,-109 273.641,-103 "/>
<polyline fill="none" stroke="gray" points="279.641,-103 273.641,-103 "/>
<text text-anchor="start" x="211.141" y="-88" font-family="Times New Roman,serif" font-size="10.00">type:</text>
<text text-anchor="start" x="234.141" y="-88" font-family="Times New Roman,serif" font-size="10.00">&quot;assign&quot;</text>
</g>
<!-- &#45;attrs1&#45;&gt;http://example.org/assign40 -->
<g id="edge5" class="edge"><title>&#45;attrs1&#45;&gt;http://example.org/assign40</title>
<path fill="none" stroke="gray" stroke-dasharray="5,2" d="M240.749,-109.466C241.505,-131.207 242.788,-168.105 243.541,-189.746"/>
</g>
</g>
</svg>
