<?xml version="1.0" encoding="UTF-8" standalone="no"?>
<!DOCTYPE svg PUBLIC "-//W3C//DTD SVG 1.1//EN"
 "http://www.w3.org/Graphics/SVG/1.1/DTD/svg11.dtd">
<!-- Generated by graphviz version 2.38.0 (20140413.2041)
 -->
<!-- Title: PROV Pages: 1 -->
<svg width="464pt" height="467pt"
 viewBox="0.00 0.00 463.50 467.00" xmlns="http://www.w3.org/2000/svg" xmlns:xlink="http://www.w3.org/1999/xlink">
<g id="graph0" class="graph" transform="scale(1 1) rotate(0) translate(4 463)">
<title>PROV</title>
<polygon fill="white" stroke="none" points="-4,4 -4,-463 459.5,-463 459.5,4 -4,4"/>
<!-- http://example.org/len_dist0 -->
<g id="node1" class="node"><title>http://example.org/len_dist0</title>
<g id="a_node1"><a xlink:href="http://example.org/len_dist0" xlink:title="len_dist0">
<ellipse fill="#fffc87" stroke="#808080" cx="277.5" cy="-266" rx="43.5923" ry="18"/>
<text text-anchor="middle" x="277.5" y="-262.3" font-family="Times New Roman,serif" font-size="14.00">len_dist0</text>
</a>
</g>
</g>
<!-- http://example.org/v3 -->
<g id="node3" class="node"><title>http://example.org/v3</title>
<g id="a_node3"><a xlink:href="http://example.org/v3" xlink:title="v3">
<ellipse fill="#32cd32" stroke="#808080" cx="83.5" cy="-368" rx="27" ry="18"/>
<text text-anchor="middle" x="83.5" y="-364.3" font-family="Times New Roman,serif" font-size="14.00">v3</text>
</a>
</g>
</g>
<!-- http://example.org/len_dist0&#45;&gt;http://example.org/v3 -->
<g id="edge3" class="edge"><title>http://example.org/len_dist0&#45;&gt;http://example.org/v3</title>
<path fill="none" stroke="darkgreen" d="M225.637,-273.243C199.304,-278.141 167.652,-286.796 142.5,-302 125.435,-312.316 110.401,-329.067 99.7805,-342.98"/>
<polygon fill="darkgreen" stroke="darkgreen" points="226.557,-276.636 235.815,-271.485 225.365,-269.738 226.557,-276.636"/>
<polygon fill="darkgreen" stroke="darkgreen" points="96.849,-341.059 93.7591,-351.193 102.494,-345.198 96.849,-341.059"/>
<text text-anchor="middle" x="224" y="-320.8" font-family="Times New Roman,serif" font-size="14.00">defined</text>
<text text-anchor="middle" x="224" y="-305.8" font-family="Times New Roman,serif" font-size="14.00">2018&#45;02&#45;26T14:16:27.335013</text>
</g>
<!-- http://example.org/len0 -->
<g id="node5" class="node"><title>http://example.org/len0</title>
<g id="a_node5"><a xlink:href="http://example.org/len0" xlink:title="len0">
<polygon fill="#9fb1fc" stroke="#0000ff" points="379.5,-386 325.5,-386 325.5,-350 379.5,-350 379.5,-386"/>
<text text-anchor="middle" x="352.5" y="-364.3" font-family="Times New Roman,serif" font-size="14.00">len0</text>
</a>
</g>
</g>
<!-- http://example.org/len_dist0&#45;&gt;http://example.org/len0 -->
<g id="edge6" class="edge"><title>http://example.org/len_dist0&#45;&gt;http://example.org/len0</title>
<path fill="none" stroke="black" d="M293.024,-282.919C298.445,-288.748 304.435,-295.509 309.5,-302 319.183,-314.411 328.946,-328.967 336.717,-341.154"/>
<polygon fill="black" stroke="black" points="333.952,-343.332 342.236,-349.937 339.879,-339.608 333.952,-343.332"/>
<text text-anchor="middle" x="307.654" y="-277.706" font-family="Times New Roman,serif" font-size="8.00">gen</text>
</g>
<!-- &#45;attrs0 -->
<g id="node2" class="node"><title>&#45;attrs0</title>
<polygon fill="none" stroke="gray" points="449.5,-182 365.5,-182 365.5,-146 455.5,-146 455.5,-176 449.5,-182"/>
<polyline fill="none" stroke="gray" points="449.5,-182 449.5,-176 "/>
<polyline fill="none" stroke="gray" points="455.5,-176 449.5,-176 "/>
<text text-anchor="start" x="375.5" y="-168" font-family="Times New Roman,serif" font-size="10.00">value:</text>
<text text-anchor="start" x="402.5" y="-168" font-family="Times New Roman,serif" font-size="10.00">&quot;len(dist)&quot;</text>
<text text-anchor="start" x="375.5" y="-155" font-family="Times New Roman,serif" font-size="10.00">type:</text>
<text text-anchor="start" x="402.5" y="-155" font-family="Times New Roman,serif" font-size="10.00">&quot;eval&quot;</text>
</g>
<!-- &#45;attrs0&#45;&gt;http://example.org/len_dist0 -->
<g id="edge1" class="edge"><title>&#45;attrs0&#45;&gt;http://example.org/len_dist0</title>
<path fill="none" stroke="gray" stroke-dasharray="5,2" d="M387.636,-182.191C362.236,-201.289 321.628,-231.821 297.462,-249.991"/>
</g>
<!-- &#45;attrs1 -->
<g id="node4" class="node"><title>&#45;attrs1</title>
<polygon fill="none" stroke="gray" points="49,-284 0,-284 0,-248 55,-248 55,-278 49,-284"/>
<polyline fill="none" stroke="gray" points="49,-284 49,-278 "/>
<polyline fill="none" stroke="gray" points="55,-278 49,-278 "/>
<text text-anchor="start" x="10.5" y="-263" font-family="Times New Roman,serif" font-size="10.00">repr:</text>
<text text-anchor="start" x="31.5" y="-263" font-family="Times New Roman,serif" font-size="10.00">&quot;3&quot;</text>
</g>
<!-- &#45;attrs1&#45;&gt;http://example.org/v3 -->
<g id="edge2" class="edge"><title>&#45;attrs1&#45;&gt;http://example.org/v3</title>
<path fill="none" stroke="gray" stroke-dasharray="5,2" d="M37.2545,-284.419C47.7209,-303.109 64.2118,-332.557 74.4131,-350.773"/>
</g>
<!-- http://example.org/dist_0 -->
<g id="node7" class="node"><title>http://example.org/dist_0</title>
<ellipse fill="none" stroke="black" cx="352.5" cy="-441" rx="100.983" ry="18"/>
<text text-anchor="middle" x="352.5" y="-437.3" font-family="Times New Roman,serif" font-size="14.00">http://example.org/dist_0</text>
</g>
<!-- http://example.org/len0&#45;&gt;http://example.org/dist_0 -->
<g id="edge5" class="edge"><title>http://example.org/len0&#45;&gt;http://example.org/dist_0</title>
<path fill="none" stroke="black" d="M352.5,-386.187C352.5,-394.211 352.5,-403.953 352.5,-412.931"/>
<polygon fill="black" stroke="black" points="349,-412.971 352.5,-422.971 356,-412.971 349,-412.971"/>
<text text-anchor="middle" x="365.49" y="-391.787" font-family="Times New Roman,serif" font-size="8.00">use</text>
</g>
<!-- &#45;attrs2 -->
<g id="node6" class="node"><title>&#45;attrs2</title>
<polygon fill="none" stroke="gray" points="398,-284 339,-284 339,-248 404,-248 404,-278 398,-284"/>
<polyline fill="none" stroke="gray" points="398,-284 398,-278 "/>
<polyline fill="none" stroke="gray" points="404,-278 398,-278 "/>
<text text-anchor="start" x="349.5" y="-263" font-family="Times New Roman,serif" font-size="10.00">type:</text>
<text text-anchor="start" x="372.5" y="-263" font-family="Times New Roman,serif" font-size="10.00">&quot;len&quot;</text>
</g>
<!-- &#45;attrs2&#45;&gt;http://example.org/len0 -->
<g id="edge4" class="edge"><title>&#45;attrs2&#45;&gt;http://example.org/len0</title>
<path fill="none" stroke="gray" stroke-dasharray="5,2" d="M368.19,-284.419C364.703,-302.773 359.245,-331.502 355.772,-349.781"/>
</g>
<!-- http://example.org/nodes0 -->
<g id="node8" class="node"><title>http://example.org/nodes0</title>
<g id="a_node8"><a xlink:href="http://example.org/nodes0" xlink:title="nodes0">
<ellipse fill="#fffc87" stroke="#808080" cx="237.5" cy="-91" rx="37.0935" ry="18"/>
<text text-anchor="middle" x="237.5" y="-87.3" font-family="Times New Roman,serif" font-size="14.00">nodes0</text>
</a>
</g>
</g>
<!-- http://example.org/nodes0&#45;&gt;http://example.org/len_dist0 -->
<g id="edge11" class="edge"><title>http://example.org/nodes0&#45;&gt;http://example.org/len_dist0</title>
<path fill="none" stroke="black" d="M241.408,-108.903C248.368,-139.005 262.961,-202.118 271.302,-238.193"/>
<polygon fill="black" stroke="black" points="267.913,-239.074 273.576,-248.028 274.733,-237.497 267.913,-239.074"/>
<text text-anchor="middle" x="255.754" y="-111.384" font-family="Times New Roman,serif" font-size="8.00">der</text>
</g>
<!-- http://example.org/nodes0&#45;&gt;http://example.org/v3 -->
<g id="edge8" class="edge"><title>http://example.org/nodes0&#45;&gt;http://example.org/v3</title>
<path fill="none" stroke="darkgreen" d="M210.961,-103.771C177.718,-120.09 122.028,-152.985 96.5,-200 72.4594,-244.277 75.0041,-305.11 79.1611,-339.812"/>
<polygon fill="darkgreen" stroke="darkgreen" points="75.7429,-340.658 80.5358,-350.107 82.6813,-339.731 75.7429,-340.658"/>
<text text-anchor="middle" x="178" y="-218.8" font-family="Times New Roman,serif" font-size="14.00">access</text>
<text text-anchor="middle" x="178" y="-203.8" font-family="Times New Roman,serif" font-size="14.00">2018&#45;02&#45;26T14:16:27.335013</text>
</g>
<!-- http://example.org/assign3 -->
<g id="node10" class="node"><title>http://example.org/assign3</title>
<g id="a_node10"><a xlink:href="http://example.org/assign3" xlink:title="assign3">
<polygon fill="#9fb1fc" stroke="#0000ff" points="347.5,-182 289.5,-182 289.5,-146 347.5,-146 347.5,-182"/>
<text text-anchor="middle" x="318.5" y="-160.3" font-family="Times New Roman,serif" font-size="14.00">assign3</text>
</a>
</g>
</g>
<!-- http://example.org/nodes0&#45;&gt;http://example.org/assign3 -->
<g id="edge12" class="edge"><title>http://example.org/nodes0&#45;&gt;http://example.org/assign3</title>
<path fill="none" stroke="black" d="M254.678,-107.057C265.344,-116.407 279.285,-128.626 291.415,-139.259"/>
<polygon fill="black" stroke="black" points="289.246,-142.012 299.073,-145.971 293.86,-136.747 289.246,-142.012"/>
<text text-anchor="middle" x="268.881" y="-100.332" font-family="Times New Roman,serif" font-size="8.00">gen</text>
</g>
<!-- &#45;attrs3 -->
<g id="node9" class="node"><title>&#45;attrs3</title>
<polygon fill="none" stroke="gray" points="272,-36 197,-36 197,-0 278,-0 278,-30 272,-36"/>
<polyline fill="none" stroke="gray" points="272,-36 272,-30 "/>
<polyline fill="none" stroke="gray" points="278,-30 272,-30 "/>
<text text-anchor="start" x="207.5" y="-22" font-family="Times New Roman,serif" font-size="10.00">value:</text>
<text text-anchor="start" x="234.5" y="-22" font-family="Times New Roman,serif" font-size="10.00">&quot;nodes&quot;</text>
<text text-anchor="start" x="207.5" y="-9" font-family="Times New Roman,serif" font-size="10.00">type:</text>
<text text-anchor="start" x="234.5" y="-9" font-family="Times New Roman,serif" font-size="10.00">&quot;name&quot;</text>
</g>
<!-- &#45;attrs3&#45;&gt;http://example.org/nodes0 -->
<g id="edge7" class="edge"><title>&#45;attrs3&#45;&gt;http://example.org/nodes0</title>
<path fill="none" stroke="gray" stroke-dasharray="5,2" d="M237.5,-36.1871C237.5,-47.3501 237.5,-61.8398 237.5,-72.9712"/>
</g>
<!-- http://example.org/assign3&#45;&gt;http://example.org/len_dist0 -->
<g id="edge10" class="edge"><title>http://example.org/assign3&#45;&gt;http://example.org/len_dist0</title>
<path fill="none" stroke="black" d="M311.358,-182.419C304.97,-198 295.517,-221.057 288.221,-238.851"/>
<polygon fill="black" stroke="black" points="284.978,-237.534 284.423,-248.114 291.455,-240.189 284.978,-237.534"/>
<text text-anchor="middle" x="320.533" y="-192.386" font-family="Times New Roman,serif" font-size="8.00">use</text>
</g>
<!-- &#45;attrs4 -->
<g id="node11" class="node"><title>&#45;attrs4</title>
<polygon fill="none" stroke="gray" points="366,-109 293,-109 293,-73 372,-73 372,-103 366,-109"/>
<polyline fill="none" stroke="gray" points="366,-109 366,-103 "/>
<polyline fill="none" stroke="gray" points="372,-103 366,-103 "/>
<text text-anchor="start" x="303.5" y="-88" font-family="Times New Roman,serif" font-size="10.00">type:</text>
<text text-anchor="start" x="326.5" y="-88" font-family="Times New Roman,serif" font-size="10.00">&quot;assign&quot;</text>
</g>
<!-- &#45;attrs4&#45;&gt;http://example.org/assign3 -->
<g id="edge9" class="edge"><title>&#45;attrs4&#45;&gt;http://example.org/assign3</title>
<path fill="none" stroke="gray" stroke-dasharray="5,2" d="M329.111,-109.187C326.91,-120.35 324.053,-134.84 321.858,-145.971"/>
</g>
</g>
</svg>
