<?xml version="1.0" encoding="UTF-8" standalone="no"?>
<!DOCTYPE svg PUBLIC "-//W3C//DTD SVG 1.1//EN"
 "http://www.w3.org/Graphics/SVG/1.1/DTD/svg11.dtd">
<!-- Generated by graphviz version 2.38.0 (20140413.2041)
 -->
<!-- Title: PROV Pages: 1 -->
<svg width="658pt" height="605pt"
 viewBox="0.00 0.00 657.78 605.00" xmlns="http://www.w3.org/2000/svg" xmlns:xlink="http://www.w3.org/1999/xlink">
<g id="graph0" class="graph" transform="scale(1 1) rotate(0) translate(4 601)">
<title>PROV</title>
<polygon fill="white" stroke="none" points="-4,4 -4,-601 653.782,-601 653.782,4 -4,4"/>
<!-- http://example.org/range_nodes -->
<g id="node1" class="node"><title>http://example.org/range_nodes</title>
<g id="a_node1"><a xlink:href="http://example.org/range_nodes" xlink:title="range_nodes">
<ellipse fill="#fffc87" stroke="#808080" cx="448.745" cy="-271" rx="57.3905" ry="18"/>
<text text-anchor="middle" x="448.745" y="-267.3" font-family="Times New Roman,serif" font-size="14.00">range_nodes</text>
</a>
</g>
</g>
<!-- bn0 -->
<g id="node9" class="node"><title>bn0</title>
<ellipse fill="black" stroke="black" cx="382.745" cy="-352" rx="1.8" ry="1.8"/>
</g>
<!-- http://example.org/range_nodes&#45;&gt;bn0 -->
<g id="edge5" class="edge"><title>http://example.org/range_nodes&#45;&gt;bn0</title>
<path fill="none" stroke="black" d="M434.748,-288.754C417.19,-309.77 388.746,-343.816 383.567,-350.015"/>
<text text-anchor="middle" x="429.745" y="-309.6" font-family="Times New Roman,serif" font-size="8.00">der&#45;ins</text>
</g>
<!-- http://example.org/call2 -->
<g id="node11" class="node"><title>http://example.org/call2</title>
<g id="a_node11"><a xlink:href="http://example.org/call2" xlink:title="call2">
<polygon fill="#fafafa" stroke="#f0f0f0" points="367.745,-524 313.745,-524 313.745,-488 367.745,-488 367.745,-524"/>
<text text-anchor="middle" x="340.745" y="-502.3" font-family="Times New Roman,serif" font-size="14.00" fill="#f0f0f0">call2</text>
</a>
</g>
</g>
<!-- http://example.org/range_nodes&#45;&gt;http://example.org/call2 -->
<g id="edge11" class="edge"><title>http://example.org/range_nodes&#45;&gt;http://example.org/call2</title>
<path fill="none" stroke="#f0f0f0" d="M497.212,-280.576C531.099,-288.897 575.223,-304.733 603.745,-334 641.211,-372.446 668.092,-409.744 633.745,-451 601.636,-489.567 449.87,-500.693 378.286,-503.819"/>
<polygon fill="#f0f0f0" stroke="#f0f0f0" points="377.772,-500.337 367.922,-504.24 378.056,-507.331 377.772,-500.337"/>
<text text-anchor="middle" x="507.75" y="-268.001" font-family="Times New Roman,serif" font-size="8.00" fill="#f0f0f0">gen</text>
</g>
<!-- &#45;attrs0 -->
<g id="node2" class="node"><title>&#45;attrs0</title>
<polygon fill="none" stroke="gray" points="414.245,-208 319.245,-208 319.245,-159 420.245,-159 420.245,-202 414.245,-208"/>
<polyline fill="none" stroke="gray" points="414.245,-208 414.245,-202 "/>
<polyline fill="none" stroke="gray" points="420.245,-202 414.245,-202 "/>
<text text-anchor="start" x="329.745" y="-193.5" font-family="Times New Roman,serif" font-size="10.00">value:</text>
<text text-anchor="start" x="356.745" y="-193.5" font-family="Times New Roman,serif" font-size="10.00">[0, 1, 2]</text>
<text text-anchor="start" x="329.745" y="-180.5" font-family="Times New Roman,serif" font-size="10.00">type:</text>
<text text-anchor="start" x="356.745" y="-180.5" font-family="Times New Roman,serif" font-size="10.00">eval</text>
<text text-anchor="start" x="329.745" y="-167.5" font-family="Times New Roman,serif" font-size="10.00">label:</text>
<text text-anchor="start" x="356.745" y="-167.5" font-family="Times New Roman,serif" font-size="10.00">range(nodes)</text>
</g>
<!-- &#45;attrs0&#45;&gt;http://example.org/range_nodes -->
<g id="edge1" class="edge"><title>&#45;attrs0&#45;&gt;http://example.org/range_nodes</title>
<path fill="none" stroke="gray" stroke-dasharray="5,2" d="M391.75,-208.317C405.082,-222.745 421.745,-240.779 433.603,-253.613"/>
</g>
<!-- http://example.org/range_nodes0 -->
<g id="node3" class="node"><title>http://example.org/range_nodes0</title>
<g id="a_node3"><a xlink:href="http://example.org/range_nodes0" xlink:title="range_nodes0">
<ellipse fill="#fffc87" stroke="#808080" cx="562.745" cy="-433" rx="61.99" ry="18"/>
<text text-anchor="middle" x="562.745" y="-429.3" font-family="Times New Roman,serif" font-size="14.00">range_nodes0</text>
</a>
</g>
</g>
<!-- http://example.org/range_nodes0&#45;&gt;http://example.org/call2 -->
<g id="edge12" class="edge"><title>http://example.org/range_nodes0&#45;&gt;http://example.org/call2</title>
<path fill="none" stroke="#f0f0f0" d="M522.799,-446.775C481.485,-459.989 417.514,-480.448 377.439,-493.264"/>
<polygon fill="#f0f0f0" stroke="#f0f0f0" points="376.252,-489.969 367.794,-496.349 378.385,-496.636 376.252,-489.969"/>
<text text-anchor="middle" x="519.613" y="-459.533" font-family="Times New Roman,serif" font-size="8.00" fill="#f0f0f0">gen</text>
</g>
<!-- &#45;attrs1 -->
<g id="node4" class="node"><title>&#45;attrs1</title>
<polygon fill="none" stroke="gray" points="588.745,-370 530.745,-370 530.745,-334 594.745,-334 594.745,-364 588.745,-370"/>
<polyline fill="none" stroke="gray" points="588.745,-370 588.745,-364 "/>
<polyline fill="none" stroke="gray" points="594.745,-364 588.745,-364 "/>
<text text-anchor="start" x="540.745" y="-356" font-family="Times New Roman,serif" font-size="10.00">value:</text>
<text text-anchor="start" x="567.745" y="-356" font-family="Times New Roman,serif" font-size="10.00">0</text>
<text text-anchor="start" x="540.745" y="-343" font-family="Times New Roman,serif" font-size="10.00">type:</text>
<text text-anchor="start" x="567.745" y="-343" font-family="Times New Roman,serif" font-size="10.00">item</text>
</g>
<!-- &#45;attrs1&#45;&gt;http://example.org/range_nodes0 -->
<g id="edge2" class="edge"><title>&#45;attrs1&#45;&gt;http://example.org/range_nodes0</title>
<path fill="none" stroke="gray" stroke-dasharray="5,2" d="M562.745,-370.142C562.745,-383.393 562.745,-401.649 562.745,-414.892"/>
</g>
<!-- http://example.org/range_nodes1 -->
<g id="node5" class="node"><title>http://example.org/range_nodes1</title>
<g id="a_node5"><a xlink:href="http://example.org/range_nodes1" xlink:title="range_nodes1">
<ellipse fill="#fffc87" stroke="#808080" cx="202.745" cy="-433" rx="61.99" ry="18"/>
<text text-anchor="middle" x="202.745" y="-429.3" font-family="Times New Roman,serif" font-size="14.00">range_nodes1</text>
</a>
</g>
</g>
<!-- http://example.org/range_nodes1&#45;&gt;http://example.org/call2 -->
<g id="edge13" class="edge"><title>http://example.org/range_nodes1&#45;&gt;http://example.org/call2</title>
<path fill="none" stroke="#f0f0f0" d="M232.011,-449.057C253.15,-459.933 281.838,-474.693 304.438,-486.321"/>
<polygon fill="#f0f0f0" stroke="#f0f0f0" points="302.904,-489.468 313.398,-490.93 306.107,-483.243 302.904,-489.468"/>
<text text-anchor="middle" x="244.623" y="-439.037" font-family="Times New Roman,serif" font-size="8.00" fill="#f0f0f0">gen</text>
</g>
<!-- &#45;attrs2 -->
<g id="node6" class="node"><title>&#45;attrs2</title>
<polygon fill="none" stroke="gray" points="228.745,-370 170.745,-370 170.745,-334 234.745,-334 234.745,-364 228.745,-370"/>
<polyline fill="none" stroke="gray" points="228.745,-370 228.745,-364 "/>
<polyline fill="none" stroke="gray" points="234.745,-364 228.745,-364 "/>
<text text-anchor="start" x="180.745" y="-356" font-family="Times New Roman,serif" font-size="10.00">value:</text>
<text text-anchor="start" x="207.745" y="-356" font-family="Times New Roman,serif" font-size="10.00">1</text>
<text text-anchor="start" x="180.745" y="-343" font-family="Times New Roman,serif" font-size="10.00">type:</text>
<text text-anchor="start" x="207.745" y="-343" font-family="Times New Roman,serif" font-size="10.00">item</text>
</g>
<!-- &#45;attrs2&#45;&gt;http://example.org/range_nodes1 -->
<g id="edge3" class="edge"><title>&#45;attrs2&#45;&gt;http://example.org/range_nodes1</title>
<path fill="none" stroke="gray" stroke-dasharray="5,2" d="M202.745,-370.142C202.745,-383.393 202.745,-401.649 202.745,-414.892"/>
</g>
<!-- http://example.org/range_nodes2 -->
<g id="node7" class="node"><title>http://example.org/range_nodes2</title>
<g id="a_node7"><a xlink:href="http://example.org/range_nodes2" xlink:title="range_nodes2">
<ellipse fill="#fffc87" stroke="#808080" cx="61.7445" cy="-433" rx="61.99" ry="18"/>
<text text-anchor="middle" x="61.7445" y="-429.3" font-family="Times New Roman,serif" font-size="14.00">range_nodes2</text>
</a>
</g>
</g>
<!-- http://example.org/range_nodes2&#45;&gt;http://example.org/call2 -->
<g id="edge14" class="edge"><title>http://example.org/range_nodes2&#45;&gt;http://example.org/call2</title>
<path fill="none" stroke="#f0f0f0" d="M106.571,-445.407C161.188,-459.306 252.465,-482.535 303.432,-495.505"/>
<polygon fill="#f0f0f0" stroke="#f0f0f0" points="302.813,-498.959 313.367,-498.033 304.539,-492.175 302.813,-498.959"/>
<text text-anchor="middle" x="117.043" y="-432.768" font-family="Times New Roman,serif" font-size="8.00" fill="#f0f0f0">gen</text>
</g>
<!-- &#45;attrs3 -->
<g id="node8" class="node"><title>&#45;attrs3</title>
<polygon fill="none" stroke="gray" points="87.7445,-370 29.7445,-370 29.7445,-334 93.7445,-334 93.7445,-364 87.7445,-370"/>
<polyline fill="none" stroke="gray" points="87.7445,-370 87.7445,-364 "/>
<polyline fill="none" stroke="gray" points="93.7445,-364 87.7445,-364 "/>
<text text-anchor="start" x="39.7445" y="-356" font-family="Times New Roman,serif" font-size="10.00">value:</text>
<text text-anchor="start" x="66.7445" y="-356" font-family="Times New Roman,serif" font-size="10.00">2</text>
<text text-anchor="start" x="39.7445" y="-343" font-family="Times New Roman,serif" font-size="10.00">type:</text>
<text text-anchor="start" x="66.7445" y="-343" font-family="Times New Roman,serif" font-size="10.00">item</text>
</g>
<!-- &#45;attrs3&#45;&gt;http://example.org/range_nodes2 -->
<g id="edge4" class="edge"><title>&#45;attrs3&#45;&gt;http://example.org/range_nodes2</title>
<path fill="none" stroke="gray" stroke-dasharray="5,2" d="M61.7445,-370.142C61.7445,-383.393 61.7445,-401.649 61.7445,-414.892"/>
</g>
<!-- bn0&#45;&gt;http://example.org/range_nodes0 -->
<g id="edge7" class="edge"><title>bn0&#45;&gt;http://example.org/range_nodes0</title>
<path fill="none" stroke="black" d="M383.894,-353.504C394.189,-358.023 471.317,-391.874 520.871,-413.622"/>
<polygon fill="black" stroke="black" points="519.519,-416.851 530.083,-417.665 522.332,-410.441 519.519,-416.851"/>
<text text-anchor="middle" x="484.245" y="-390.6" font-family="Times New Roman,serif" font-size="8.00">[0]</text>
</g>
<!-- bn0&#45;&gt;http://example.org/range_nodes1 -->
<g id="edge8" class="edge"><title>bn0&#45;&gt;http://example.org/range_nodes1</title>
<path fill="none" stroke="black" d="M382.018,-353.743C377.413,-358.414 351.638,-383.935 325.745,-397 313.661,-403.097 285.187,-411.326 258.677,-418.272"/>
<polygon fill="black" stroke="black" points="257.456,-414.973 248.651,-420.865 259.209,-421.75 257.456,-414.973"/>
<text text-anchor="middle" x="347.245" y="-390.6" font-family="Times New Roman,serif" font-size="8.00">[1]</text>
</g>
<!-- bn0&#45;&gt;http://example.org/range_nodes2 -->
<g id="edge9" class="edge"><title>bn0&#45;&gt;http://example.org/range_nodes2</title>
<path fill="none" stroke="black" d="M381.345,-353.343C370.511,-355.999 298.901,-373.563 240.745,-388 224.738,-391.973 220.754,-393.04 204.745,-397 175.924,-404.13 143.816,-411.995 117.337,-418.461"/>
<polygon fill="black" stroke="black" points="116.368,-415.095 107.483,-420.866 118.028,-421.895 116.368,-415.095"/>
<text text-anchor="middle" x="246.245" y="-390.6" font-family="Times New Roman,serif" font-size="8.00">[2]</text>
</g>
<!-- http://example.org/empty -->
<g id="node10" class="node"><title>http://example.org/empty</title>
<ellipse fill="none" stroke="black" cx="382.745" cy="-433" rx="100.983" ry="18"/>
<text text-anchor="middle" x="382.745" y="-429.3" font-family="Times New Roman,serif" font-size="14.00">http://example.org/empty</text>
</g>
<!-- bn0&#45;&gt;http://example.org/empty -->
<g id="edge6" class="edge"><title>bn0&#45;&gt;http://example.org/empty</title>
<path fill="none" stroke="black" d="M382.745,-353.887C382.745,-358.911 382.745,-384.287 382.745,-404.773"/>
<polygon fill="black" stroke="black" points="379.245,-404.907 382.745,-414.907 386.245,-404.907 379.245,-404.907"/>
<text text-anchor="middle" x="388.245" y="-390.6" font-family="Times New Roman,serif" font-size="8.00">der</text>
</g>
<!-- http://example.org/nodes -->
<g id="node12" class="node"><title>http://example.org/nodes</title>
<ellipse fill="none" stroke="black" cx="340.745" cy="-579" rx="100.983" ry="18"/>
<text text-anchor="middle" x="340.745" y="-575.3" font-family="Times New Roman,serif" font-size="14.00">http://example.org/nodes</text>
</g>
<!-- http://example.org/call2&#45;&gt;http://example.org/nodes -->
<g id="edge10" class="edge"><title>http://example.org/call2&#45;&gt;http://example.org/nodes</title>
<path fill="none" stroke="#f0f0f0" d="M340.745,-524.187C340.745,-532.211 340.745,-541.953 340.745,-550.931"/>
<polygon fill="#f0f0f0" stroke="#f0f0f0" points="337.245,-550.971 340.745,-560.971 344.245,-550.971 337.245,-550.971"/>
<text text-anchor="middle" x="353.735" y="-529.787" font-family="Times New Roman,serif" font-size="8.00" fill="#f0f0f0">use</text>
</g>
<!-- http://example.org/indexes -->
<g id="node13" class="node"><title>http://example.org/indexes</title>
<g id="a_node13"><a xlink:href="http://example.org/indexes" xlink:title="indexes">
<ellipse fill="#fffc87" stroke="#808080" cx="448.745" cy="-104" rx="38.1938" ry="18"/>
<text text-anchor="middle" x="448.745" y="-100.3" font-family="Times New Roman,serif" font-size="14.00">indexes</text>
</a>
</g>
</g>
<!-- http://example.org/indexes&#45;&gt;http://example.org/range_nodes -->
<g id="edge21" class="edge"><title>http://example.org/indexes&#45;&gt;http://example.org/range_nodes</title>
<path fill="none" stroke="#f0f0f0" d="M448.745,-122.036C448.745,-150.567 448.745,-208.248 448.745,-242.558"/>
<polygon fill="#f0f0f0" stroke="#f0f0f0" points="445.245,-242.809 448.745,-252.809 452.245,-242.809 445.245,-242.809"/>
<text text-anchor="middle" x="461.735" y="-127.636" font-family="Times New Roman,serif" font-size="8.00" fill="#f0f0f0">der</text>
</g>
<!-- bn1 -->
<g id="node15" class="node"><title>bn1</title>
<ellipse fill="black" stroke="black" cx="290.745" cy="-352" rx="1.8" ry="1.8"/>
</g>
<!-- http://example.org/indexes&#45;&gt;bn1 -->
<g id="edge16" class="edge"><title>http://example.org/indexes&#45;&gt;bn1</title>
<path fill="none" stroke="black" d="M411.612,-108.764C379.259,-114.156 333.855,-127.247 309.745,-159 260.318,-224.092 287.85,-339.524 290.54,-350.203"/>
<text text-anchor="middle" x="295.745" y="-228.6" font-family="Times New Roman,serif" font-size="8.00">der&#45;ins</text>
</g>
<!-- http://example.org/assign6 -->
<g id="node16" class="node"><title>http://example.org/assign6</title>
<g id="a_node16"><a xlink:href="http://example.org/assign6" xlink:title="assign6">
<polygon fill="#fafafa" stroke="#f0f0f0" points="534.745,-201.5 476.745,-201.5 476.745,-165.5 534.745,-165.5 534.745,-201.5"/>
<text text-anchor="middle" x="505.745" y="-179.8" font-family="Times New Roman,serif" font-size="14.00" fill="#f0f0f0">assign6</text>
</a>
</g>
</g>
<!-- http://example.org/indexes&#45;&gt;http://example.org/assign6 -->
<g id="edge23" class="edge"><title>http://example.org/indexes&#45;&gt;http://example.org/assign6</title>
<path fill="none" stroke="#f0f0f0" d="M460.833,-121.436C468.459,-131.804 478.463,-145.407 487.093,-157.141"/>
<polygon fill="#f0f0f0" stroke="#f0f0f0" points="484.337,-159.3 493.081,-165.282 489.976,-155.153 484.337,-159.3"/>
<text text-anchor="middle" x="475.741" y="-117.881" font-family="Times New Roman,serif" font-size="8.00" fill="#f0f0f0">gen</text>
</g>
<!-- &#45;attrs4 -->
<g id="node14" class="node"><title>&#45;attrs4</title>
<polygon fill="none" stroke="gray" points="487.745,-49 403.745,-49 403.745,-0 493.745,-0 493.745,-43 487.745,-49"/>
<polyline fill="none" stroke="gray" points="487.745,-49 487.745,-43 "/>
<polyline fill="none" stroke="gray" points="493.745,-43 487.745,-43 "/>
<text text-anchor="start" x="413.745" y="-34.5" font-family="Times New Roman,serif" font-size="10.00">value:</text>
<text text-anchor="start" x="440.745" y="-34.5" font-family="Times New Roman,serif" font-size="10.00">[0, 1, 2]</text>
<text text-anchor="start" x="413.745" y="-21.5" font-family="Times New Roman,serif" font-size="10.00">type:</text>
<text text-anchor="start" x="440.745" y="-21.5" font-family="Times New Roman,serif" font-size="10.00">Dictionary</text>
<text text-anchor="start" x="413.745" y="-8.5" font-family="Times New Roman,serif" font-size="10.00">label:</text>
<text text-anchor="start" x="440.745" y="-8.5" font-family="Times New Roman,serif" font-size="10.00">indexes</text>
</g>
<!-- &#45;attrs4&#45;&gt;http://example.org/indexes -->
<g id="edge15" class="edge"><title>&#45;attrs4&#45;&gt;http://example.org/indexes</title>
<path fill="none" stroke="gray" stroke-dasharray="5,2" d="M448.745,-49.1737C448.745,-60.9254 448.745,-74.869 448.745,-85.6196"/>
</g>
<!-- bn1&#45;&gt;http://example.org/range_nodes0 -->
<g id="edge18" class="edge"><title>bn1&#45;&gt;http://example.org/range_nodes0</title>
<path fill="none" stroke="black" d="M291.957,-353.352C305.877,-357.395 436.307,-395.277 510.947,-416.956"/>
<polygon fill="black" stroke="black" points="510.068,-420.345 520.648,-419.773 512.021,-413.623 510.068,-420.345"/>
<text text-anchor="middle" x="441.245" y="-390.6" font-family="Times New Roman,serif" font-size="8.00">[0]</text>
</g>
<!-- bn1&#45;&gt;http://example.org/range_nodes1 -->
<g id="edge19" class="edge"><title>bn1&#45;&gt;http://example.org/range_nodes1</title>
<path fill="none" stroke="black" d="M289.997,-354.199C286.573,-359.622 271.872,-382.237 255.745,-397 250.32,-401.965 244.126,-406.718 237.93,-411.033"/>
<polygon fill="black" stroke="black" points="235.927,-408.162 229.553,-416.625 239.813,-413.984 235.927,-408.162"/>
<text text-anchor="middle" x="270.245" y="-390.6" font-family="Times New Roman,serif" font-size="8.00">[1]</text>
</g>
<!-- bn1&#45;&gt;http://example.org/range_nodes2 -->
<g id="edge20" class="edge"><title>bn1&#45;&gt;http://example.org/range_nodes2</title>
<path fill="none" stroke="black" d="M289.585,-353.429C284.314,-355.374 262.083,-363.56 243.745,-370 198.835,-385.77 147.488,-403.208 110.809,-415.563"/>
<polygon fill="black" stroke="black" points="109.232,-412.401 100.87,-418.907 111.465,-419.035 109.232,-412.401"/>
<text text-anchor="middle" x="195.245" y="-390.6" font-family="Times New Roman,serif" font-size="8.00">[2]</text>
</g>
<!-- bn1&#45;&gt;http://example.org/empty -->
<g id="edge17" class="edge"><title>bn1&#45;&gt;http://example.org/empty</title>
<path fill="none" stroke="black" d="M291.122,-354.252C292.883,-359.909 300.798,-383.384 314.745,-397 320.356,-402.478 326.997,-407.292 333.895,-411.455"/>
<polygon fill="black" stroke="black" points="332.275,-414.559 342.711,-416.383 335.69,-408.449 332.275,-414.559"/>
<text text-anchor="middle" x="320.245" y="-390.6" font-family="Times New Roman,serif" font-size="8.00">der</text>
</g>
<!-- http://example.org/assign6&#45;&gt;http://example.org/range_nodes -->
<g id="edge22" class="edge"><title>http://example.org/assign6&#45;&gt;http://example.org/range_nodes</title>
<path fill="none" stroke="#f0f0f0" d="M494.21,-201.802C485.991,-214.131 474.812,-230.899 465.596,-244.723"/>
<polygon fill="#f0f0f0" stroke="#f0f0f0" points="462.509,-243.043 459.874,-253.305 468.333,-246.926 462.509,-243.043"/>
<text text-anchor="middle" x="500.858" y="-213.348" font-family="Times New Roman,serif" font-size="8.00" fill="#f0f0f0">use</text>
</g>
</g>
</svg>
