<?xml version="1.0" encoding="UTF-8" standalone="no"?>
<!DOCTYPE svg PUBLIC "-//W3C//DTD SVG 1.1//EN"
 "http://www.w3.org/Graphics/SVG/1.1/DTD/svg11.dtd">
<!-- Generated by graphviz version 2.38.0 (20140413.2041)
 -->
<!-- Title: PROV Pages: 1 -->
<svg width="1152pt" height="352pt"
 viewBox="0.00 0.00 1152.00 352.19" xmlns="http://www.w3.org/2000/svg" xmlns:xlink="http://www.w3.org/1999/xlink">
<g id="graph0" class="graph" transform="scale(0.726157 0.726157) rotate(0) translate(4 481)">
<title>PROV</title>
<polygon fill="white" stroke="none" points="-4,4 -4,-481 1582.43,-481 1582.43,4 -4,4"/>
<!-- http://example.org/dist@i#6 -->
<g id="node1" class="node"><title>http://example.org/dist@i#6</title>
<g id="a_node1"><a xlink:href="http://example.org/dist@i#6" xlink:title="dist@i#6">
<ellipse fill="#fffc87" stroke="#808080" cx="654.692" cy="-297" rx="43.5923" ry="18"/>
<text text-anchor="middle" x="654.692" y="-293.3" font-family="Times New Roman,serif" font-size="14.00">dist@i#6</text>
</a>
</g>
</g>
<!-- bn0 -->
<g id="node3" class="node"><title>bn0</title>
<ellipse fill="black" stroke="black" cx="929.692" cy="-378" rx="1.8" ry="1.8"/>
</g>
<!-- http://example.org/dist@i#6&#45;&gt;bn0 -->
<g id="edge2" class="edge"><title>http://example.org/dist@i#6&#45;&gt;bn0</title>
<path fill="none" stroke="black" d="M689.521,-308.005C759.473,-328.101 911.793,-371.858 928.243,-376.584"/>
<text text-anchor="middle" x="812.692" y="-335.6" font-family="Times New Roman,serif" font-size="8.00">der&#45;ins</text>
</g>
<!-- http://example.org/access50 -->
<g id="node8" class="node"><title>http://example.org/access50</title>
<g id="a_node8"><a xlink:href="http://example.org/access50" xlink:title="access50">
<polygon fill="#fafafa" stroke="#f0f0f0" points="383.692,-396 315.692,-396 315.692,-360 383.692,-360 383.692,-396"/>
<text text-anchor="middle" x="349.692" y="-374.3" font-family="Times New Roman,serif" font-size="14.00" fill="#f0f0f0">access50</text>
</a>
</g>
</g>
<!-- http://example.org/dist@i#6&#45;&gt;http://example.org/access50 -->
<g id="edge20" class="edge"><title>http://example.org/dist@i#6&#45;&gt;http://example.org/access50</title>
<path fill="none" stroke="#f0f0f0" d="M618.808,-307.295C562.722,-321.822 454.436,-349.87 393.717,-365.597"/>
<polygon fill="#f0f0f0" stroke="#f0f0f0" points="392.839,-362.209 384.036,-368.104 394.594,-368.985 392.839,-362.209"/>
<text text-anchor="middle" x="614.805" y="-319.851" font-family="Times New Roman,serif" font-size="8.00" fill="#f0f0f0">gen</text>
</g>
<!-- http://example.org/matrix1#1 -->
<g id="node9" class="node"><title>http://example.org/matrix1#1</title>
<ellipse fill="none" stroke="black" cx="530.692" cy="-459" rx="114.28" ry="18"/>
<text text-anchor="middle" x="530.692" y="-455.3" font-family="Times New Roman,serif" font-size="14.00">http://example.org/matrix1#1</text>
</g>
<!-- http://example.org/dist@i#6&#45;&gt;http://example.org/matrix1#1 -->
<g id="edge7" class="edge"><title>http://example.org/dist@i#6&#45;&gt;http://example.org/matrix1#1</title>
<path fill="none" stroke="#f0f0f0" d="M641.889,-314.52C620.19,-342.518 576.054,-399.468 550.394,-432.579"/>
<polygon fill="#f0f0f0" stroke="#f0f0f0" points="547.345,-430.798 543.986,-440.846 552.878,-435.086 547.345,-430.798"/>
<text text-anchor="middle" x="647.562" y="-326.506" font-family="Times New Roman,serif" font-size="8.00" fill="#f0f0f0">der</text>
</g>
<!-- &#45;attrs0 -->
<g id="node2" class="node"><title>&#45;attrs0</title>
<polygon fill="none" stroke="gray" points="833.692,-234 745.692,-234 745.692,-172 839.692,-172 839.692,-228 833.692,-234"/>
<polyline fill="none" stroke="gray" points="833.692,-234 833.692,-228 "/>
<polyline fill="none" stroke="gray" points="839.692,-228 833.692,-228 "/>
<text text-anchor="start" x="755.692" y="-220" font-family="Times New Roman,serif" font-size="10.00">value:</text>
<text text-anchor="start" x="782.692" y="-220" font-family="Times New Roman,serif" font-size="10.00">[10000, 0, 2]</text>
<text text-anchor="start" x="755.692" y="-207" font-family="Times New Roman,serif" font-size="10.00">type:</text>
<text text-anchor="start" x="782.692" y="-207" font-family="Times New Roman,serif" font-size="10.00">Dictionary</text>
<text text-anchor="start" x="755.692" y="-194" font-family="Times New Roman,serif" font-size="10.00">label:</text>
<text text-anchor="start" x="782.692" y="-194" font-family="Times New Roman,serif" font-size="10.00">dist[i]</text>
<text text-anchor="start" x="755.692" y="-181" font-family="Times New Roman,serif" font-size="10.00">line:</text>
<text text-anchor="start" x="782.692" y="-181" font-family="Times New Roman,serif" font-size="10.00">12</text>
</g>
<!-- &#45;attrs0&#45;&gt;http://example.org/dist@i#6 -->
<g id="edge1" class="edge"><title>&#45;attrs0&#45;&gt;http://example.org/dist@i#6</title>
<path fill="none" stroke="gray" stroke-dasharray="5,2" d="M747.506,-234.124C723.766,-249.95 695.741,-268.634 676.745,-281.298"/>
</g>
<!-- http://example.org/empty -->
<g id="node4" class="node"><title>http://example.org/empty</title>
<ellipse fill="none" stroke="black" cx="1477.69" cy="-459" rx="100.983" ry="18"/>
<text text-anchor="middle" x="1477.69" y="-455.3" font-family="Times New Roman,serif" font-size="14.00">http://example.org/empty</text>
</g>
<!-- bn0&#45;&gt;http://example.org/empty -->
<g id="edge3" class="edge"><title>bn0&#45;&gt;http://example.org/empty</title>
<path fill="none" stroke="black" d="M931.084,-379.341C944.832,-382.695 1057.72,-409.931 1150.69,-423 1246.53,-436.47 1271.59,-429.603 1367.69,-441 1377.02,-442.106 1386.77,-443.406 1396.45,-444.784"/>
<polygon fill="black" stroke="black" points="1396.09,-448.269 1406.49,-446.246 1397.1,-441.342 1396.09,-448.269"/>
<text text-anchor="middle" x="1156.19" y="-416.6" font-family="Times New Roman,serif" font-size="8.00">der</text>
</g>
<!-- http://example.org/matrix10 -->
<g id="node5" class="node"><title>http://example.org/matrix10</title>
<ellipse fill="none" stroke="black" cx="1248.69" cy="-459" rx="109.681" ry="18"/>
<text text-anchor="middle" x="1248.69" y="-455.3" font-family="Times New Roman,serif" font-size="14.00">http://example.org/matrix10</text>
</g>
<!-- bn0&#45;&gt;http://example.org/matrix10 -->
<g id="edge4" class="edge"><title>bn0&#45;&gt;http://example.org/matrix10</title>
<path fill="none" stroke="black" d="M930.69,-379.782C937.008,-384.69 972.275,-411.407 1005.69,-423 1006.64,-423.328 1090.03,-435.306 1158.85,-445.159"/>
<polygon fill="black" stroke="black" points="1158.5,-448.643 1168.89,-446.595 1159.49,-441.714 1158.5,-448.643"/>
<text text-anchor="middle" x="1011.19" y="-416.6" font-family="Times New Roman,serif" font-size="8.00">[0]</text>
</g>
<!-- http://example.org/matrix11 -->
<g id="node6" class="node"><title>http://example.org/matrix11</title>
<ellipse fill="none" stroke="black" cx="772.692" cy="-459" rx="109.681" ry="18"/>
<text text-anchor="middle" x="772.692" y="-455.3" font-family="Times New Roman,serif" font-size="14.00">http://example.org/matrix11</text>
</g>
<!-- bn0&#45;&gt;http://example.org/matrix11 -->
<g id="edge5" class="edge"><title>bn0&#45;&gt;http://example.org/matrix11</title>
<path fill="none" stroke="black" d="M928.689,-379.504C920.052,-383.851 857.481,-415.335 814.259,-437.084"/>
<polygon fill="black" stroke="black" points="812.445,-434.079 805.086,-441.7 815.592,-440.332 812.445,-434.079"/>
<text text-anchor="middle" x="862.192" y="-416.6" font-family="Times New Roman,serif" font-size="8.00">[1]</text>
</g>
<!-- http://example.org/matrix12 -->
<g id="node7" class="node"><title>http://example.org/matrix12</title>
<ellipse fill="none" stroke="black" cx="1010.69" cy="-459" rx="109.681" ry="18"/>
<text text-anchor="middle" x="1010.69" y="-455.3" font-family="Times New Roman,serif" font-size="14.00">http://example.org/matrix12</text>
</g>
<!-- bn0&#45;&gt;http://example.org/matrix12 -->
<g id="edge6" class="edge"><title>bn0&#45;&gt;http://example.org/matrix12</title>
<path fill="none" stroke="black" d="M929.288,-380.224C927.544,-385.758 921.162,-408.783 930.692,-423 934.754,-429.06 940.117,-434.079 946.146,-438.233"/>
<polygon fill="black" stroke="black" points="944.348,-441.235 954.723,-443.379 947.949,-435.233 944.348,-441.235"/>
<text text-anchor="middle" x="936.192" y="-416.6" font-family="Times New Roman,serif" font-size="8.00">[2]</text>
</g>
<!-- http://example.org/access50&#45;&gt;http://example.org/matrix1#1 -->
<g id="edge17" class="edge"><title>http://example.org/access50&#45;&gt;http://example.org/matrix1#1</title>
<path fill="none" stroke="#f0f0f0" d="M383.737,-393.859C412.135,-406.254 452.881,-424.038 484.269,-437.738"/>
<polygon fill="#f0f0f0" stroke="#f0f0f0" points="483.12,-441.055 493.685,-441.848 485.92,-434.64 483.12,-441.055"/>
<text text-anchor="middle" x="395.807" y="-383.054" font-family="Times New Roman,serif" font-size="8.00" fill="#f0f0f0">use</text>
</g>
<!-- http://example.org/dist#3 -->
<g id="node10" class="node"><title>http://example.org/dist#3</title>
<ellipse fill="none" stroke="black" cx="297.692" cy="-459" rx="100.983" ry="18"/>
<text text-anchor="middle" x="297.692" y="-455.3" font-family="Times New Roman,serif" font-size="14.00">http://example.org/dist#3</text>
</g>
<!-- http://example.org/access50&#45;&gt;http://example.org/dist#3 -->
<g id="edge8" class="edge"><title>http://example.org/access50&#45;&gt;http://example.org/dist#3</title>
<path fill="none" stroke="#f0f0f0" d="M338.409,-396.142C331.458,-406.701 322.416,-420.439 314.618,-432.285"/>
<polygon fill="#f0f0f0" stroke="#f0f0f0" points="311.528,-430.614 308.953,-440.892 317.375,-434.463 311.528,-430.614"/>
<text text-anchor="middle" x="345.136" y="-407.649" font-family="Times New Roman,serif" font-size="8.00" fill="#f0f0f0">use</text>
</g>
<!-- http://example.org/i#8 -->
<g id="node11" class="node"><title>http://example.org/i#8</title>
<ellipse fill="none" stroke="black" cx="89.692" cy="-459" rx="89.8845" ry="18"/>
<text text-anchor="middle" x="89.692" y="-455.3" font-family="Times New Roman,serif" font-size="14.00">http://example.org/i#8</text>
</g>
<!-- http://example.org/access50&#45;&gt;http://example.org/i#8 -->
<g id="edge9" class="edge"><title>http://example.org/access50&#45;&gt;http://example.org/i#8</title>
<path fill="none" stroke="#f0f0f0" d="M315.434,-389.409C272.555,-402.438 198.492,-424.941 146.941,-440.605"/>
<polygon fill="#f0f0f0" stroke="#f0f0f0" points="145.819,-437.288 137.268,-443.544 147.854,-443.986 145.819,-437.288"/>
<text text-anchor="middle" x="312.035" y="-402.119" font-family="Times New Roman,serif" font-size="8.00" fill="#f0f0f0">use</text>
</g>
<!-- http://example.org/disti#8 -->
<g id="node12" class="node"><title>http://example.org/disti#8</title>
<g id="a_node12"><a xlink:href="http://example.org/disti#8" xlink:title="disti#8">
<ellipse fill="#fffc87" stroke="#808080" cx="694.692" cy="-117" rx="35.194" ry="18"/>
<text text-anchor="middle" x="694.692" y="-113.3" font-family="Times New Roman,serif" font-size="14.00">disti#8</text>
</a>
</g>
</g>
<!-- http://example.org/disti#8&#45;&gt;http://example.org/dist@i#6 -->
<g id="edge16" class="edge"><title>http://example.org/disti#8&#45;&gt;http://example.org/dist@i#6</title>
<path fill="none" stroke="#f0f0f0" d="M678.257,-133.297C668.787,-143.278 657.78,-157.171 652.692,-172 641.748,-203.897 644.944,-243.179 649.075,-268.87"/>
<polygon fill="#f0f0f0" stroke="#f0f0f0" points="645.676,-269.75 650.863,-278.988 652.569,-268.531 645.676,-269.75"/>
<text text-anchor="middle" x="682.69" y="-145.727" font-family="Times New Roman,serif" font-size="8.00" fill="#f0f0f0">der</text>
</g>
<!-- bn1 -->
<g id="node14" class="node"><title>bn1</title>
<ellipse fill="black" stroke="black" cx="1031.69" cy="-378" rx="1.8" ry="1.8"/>
</g>
<!-- http://example.org/disti#8&#45;&gt;bn1 -->
<g id="edge11" class="edge"><title>http://example.org/disti#8&#45;&gt;bn1</title>
<path fill="none" stroke="black" d="M726.912,-124.311C759.644,-131.816 810.78,-146.635 848.692,-172 945.443,-236.73 1024.01,-364.3 1031.16,-376.118"/>
<text text-anchor="middle" x="958.692" y="-254.6" font-family="Times New Roman,serif" font-size="8.00">der&#45;ins</text>
</g>
<!-- http://example.org/assign21 -->
<g id="node15" class="node"><title>http://example.org/assign21</title>
<g id="a_node15"><a xlink:href="http://example.org/assign21" xlink:title="assign21">
<polygon fill="#fafafa" stroke="#f0f0f0" points="727.192,-221 662.192,-221 662.192,-185 727.192,-185 727.192,-221"/>
<text text-anchor="middle" x="694.692" y="-199.3" font-family="Times New Roman,serif" font-size="14.00" fill="#f0f0f0">assign21</text>
</a>
</g>
</g>
<!-- http://example.org/disti#8&#45;&gt;http://example.org/assign21 -->
<g id="edge19" class="edge"><title>http://example.org/disti#8&#45;&gt;http://example.org/assign21</title>
<path fill="none" stroke="#f0f0f0" d="M694.692,-135.405C694.692,-146.743 694.692,-161.773 694.692,-174.685"/>
<polygon fill="#f0f0f0" stroke="#f0f0f0" points="691.192,-174.905 694.692,-184.905 698.192,-174.905 691.192,-174.905"/>
<text text-anchor="middle" x="707.682" y="-141.005" font-family="Times New Roman,serif" font-size="8.00" fill="#f0f0f0">gen</text>
</g>
<!-- &#45;attrs1 -->
<g id="node13" class="node"><title>&#45;attrs1</title>
<polygon fill="none" stroke="gray" points="735.692,-62 647.692,-62 647.692,-0 741.692,-0 741.692,-56 735.692,-62"/>
<polyline fill="none" stroke="gray" points="735.692,-62 735.692,-56 "/>
<polyline fill="none" stroke="gray" points="741.692,-56 735.692,-56 "/>
<text text-anchor="start" x="657.692" y="-48" font-family="Times New Roman,serif" font-size="10.00">value:</text>
<text text-anchor="start" x="684.692" y="-48" font-family="Times New Roman,serif" font-size="10.00">[10000, 0, 2]</text>
<text text-anchor="start" x="657.692" y="-35" font-family="Times New Roman,serif" font-size="10.00">type:</text>
<text text-anchor="start" x="684.692" y="-35" font-family="Times New Roman,serif" font-size="10.00">Dictionary</text>
<text text-anchor="start" x="657.692" y="-22" font-family="Times New Roman,serif" font-size="10.00">label:</text>
<text text-anchor="start" x="684.692" y="-22" font-family="Times New Roman,serif" font-size="10.00">disti</text>
<text text-anchor="start" x="657.692" y="-9" font-family="Times New Roman,serif" font-size="10.00">line:</text>
<text text-anchor="start" x="684.692" y="-9" font-family="Times New Roman,serif" font-size="10.00">12</text>
</g>
<!-- &#45;attrs1&#45;&gt;http://example.org/disti#8 -->
<g id="edge10" class="edge"><title>&#45;attrs1&#45;&gt;http://example.org/disti#8</title>
<path fill="none" stroke="gray" stroke-dasharray="5,2" d="M694.692,-62.3259C694.692,-74.5443 694.692,-88.1945 694.692,-98.6716"/>
</g>
<!-- bn1&#45;&gt;http://example.org/empty -->
<g id="edge12" class="edge"><title>bn1&#45;&gt;http://example.org/empty</title>
<path fill="none" stroke="black" d="M1033.31,-379.286C1054.38,-383.019 1276.61,-422.383 1398.59,-443.988"/>
<polygon fill="black" stroke="black" points="1398.17,-447.469 1408.63,-445.767 1399.4,-440.577 1398.17,-447.469"/>
<text text-anchor="middle" x="1273.19" y="-416.6" font-family="Times New Roman,serif" font-size="8.00">der</text>
</g>
<!-- bn1&#45;&gt;http://example.org/matrix10 -->
<g id="edge13" class="edge"><title>bn1&#45;&gt;http://example.org/matrix10</title>
<path fill="none" stroke="black" d="M1033.05,-379.23C1043.55,-381.037 1112.82,-393.403 1165.69,-414 1181.52,-420.167 1198.22,-428.602 1212.45,-436.437"/>
<polygon fill="black" stroke="black" points="1210.97,-439.625 1221.41,-441.469 1214.4,-433.521 1210.97,-439.625"/>
<text text-anchor="middle" x="1189.19" y="-416.6" font-family="Times New Roman,serif" font-size="8.00">[0]</text>
</g>
<!-- bn1&#45;&gt;http://example.org/matrix11 -->
<g id="edge14" class="edge"><title>bn1&#45;&gt;http://example.org/matrix11</title>
<path fill="none" stroke="black" d="M1030.47,-379.743C1022.77,-384.415 979.872,-409.945 941.692,-423 915.798,-431.854 886.87,-438.845 860.368,-444.176"/>
<polygon fill="black" stroke="black" points="859.483,-440.783 850.341,-446.138 860.827,-447.652 859.483,-440.783"/>
<text text-anchor="middle" x="970.192" y="-416.6" font-family="Times New Roman,serif" font-size="8.00">[1]</text>
</g>
<!-- bn1&#45;&gt;http://example.org/matrix12 -->
<g id="edge15" class="edge"><title>bn1&#45;&gt;http://example.org/matrix12</title>
<path fill="none" stroke="black" d="M1031.46,-379.887C1030.11,-384.934 1023.31,-410.52 1017.85,-431.055"/>
<polygon fill="black" stroke="black" points="1014.42,-430.343 1015.24,-440.907 1021.19,-432.142 1014.42,-430.343"/>
<text text-anchor="middle" x="1028.19" y="-416.6" font-family="Times New Roman,serif" font-size="8.00">[2]</text>
</g>
<!-- http://example.org/assign21&#45;&gt;http://example.org/dist@i#6 -->
<g id="edge18" class="edge"><title>http://example.org/assign21&#45;&gt;http://example.org/dist@i#6</title>
<path fill="none" stroke="#f0f0f0" d="M687.168,-221.304C681.265,-234.883 672.947,-254.014 666.207,-269.516"/>
<polygon fill="#f0f0f0" stroke="#f0f0f0" points="662.824,-268.518 662.047,-279.084 669.244,-271.309 662.824,-268.518"/>
<text text-anchor="middle" x="696.091" y="-231.462" font-family="Times New Roman,serif" font-size="8.00" fill="#f0f0f0">use</text>
</g>
</g>
</svg>
