<?xml version="1.0" encoding="UTF-8" standalone="no"?>
<!DOCTYPE svg PUBLIC "-//W3C//DTD SVG 1.1//EN"
 "http://www.w3.org/Graphics/SVG/1.1/DTD/svg11.dtd">
<!-- Generated by graphviz version 2.38.0 (20140413.2041)
 -->
<!-- Title: PROV Pages: 1 -->
<svg width="1152pt" height="344pt"
 viewBox="0.00 0.00 1152.00 343.82" xmlns="http://www.w3.org/2000/svg" xmlns:xlink="http://www.w3.org/1999/xlink">
<g id="graph0" class="graph" transform="scale(0.749057 0.749057) rotate(0) translate(4 455)">
<title>PROV</title>
<polygon fill="white" stroke="none" points="-4,4 -4,-455 1533.93,-455 1533.93,4 -4,4"/>
<!-- http://example.org/dist_ak -->
<g id="node1" class="node"><title>http://example.org/dist_ak</title>
<g id="a_node1"><a xlink:href="http://example.org/dist_ak" xlink:title="dist_ak">
<ellipse fill="#fffc87" stroke="#808080" cx="613.193" cy="-271" rx="37.0935" ry="18"/>
<text text-anchor="middle" x="613.193" y="-267.3" font-family="Times New Roman,serif" font-size="14.00">dist_ak</text>
</a>
</g>
</g>
<!-- bn0 -->
<g id="node3" class="node"><title>bn0</title>
<ellipse fill="black" stroke="black" cx="881.193" cy="-352" rx="1.8" ry="1.8"/>
</g>
<!-- http://example.org/dist_ak&#45;&gt;bn0 -->
<g id="edge2" class="edge"><title>http://example.org/dist_ak&#45;&gt;bn0</title>
<path fill="none" stroke="black" d="M643.936,-281.062C710.481,-300.678 863.231,-345.705 879.739,-350.571"/>
<text text-anchor="middle" x="768.193" y="-309.6" font-family="Times New Roman,serif" font-size="8.00">der&#45;ins</text>
</g>
<!-- http://example.org/access2 -->
<g id="node8" class="node"><title>http://example.org/access2</title>
<g id="a_node8"><a xlink:href="http://example.org/access2" xlink:title="access2">
<polygon fill="#fafafa" stroke="#f0f0f0" points="353.693,-370 292.693,-370 292.693,-334 353.693,-334 353.693,-370"/>
<text text-anchor="middle" x="323.193" y="-348.3" font-family="Times New Roman,serif" font-size="14.00" fill="#f0f0f0">access2</text>
</a>
</g>
</g>
<!-- http://example.org/dist_ak&#45;&gt;http://example.org/access2 -->
<g id="edge20" class="edge"><title>http://example.org/dist_ak&#45;&gt;http://example.org/access2</title>
<path fill="none" stroke="#f0f0f0" d="M581.605,-280.605C528.704,-295.016 422.257,-324.013 363.845,-339.926"/>
<polygon fill="#f0f0f0" stroke="#f0f0f0" points="362.594,-336.639 353.865,-342.644 364.434,-343.393 362.594,-336.639"/>
<text text-anchor="middle" x="577.784" y="-293.21" font-family="Times New Roman,serif" font-size="8.00" fill="#f0f0f0">gen</text>
</g>
<!-- http://example.org/matrix0 -->
<g id="node9" class="node"><title>http://example.org/matrix0</title>
<ellipse fill="none" stroke="black" cx="491.193" cy="-433" rx="105.082" ry="18"/>
<text text-anchor="middle" x="491.193" y="-429.3" font-family="Times New Roman,serif" font-size="14.00">http://example.org/matrix0</text>
</g>
<!-- http://example.org/dist_ak&#45;&gt;http://example.org/matrix0 -->
<g id="edge7" class="edge"><title>http://example.org/dist_ak&#45;&gt;http://example.org/matrix0</title>
<path fill="none" stroke="#f0f0f0" d="M600.823,-288.222C579.581,-316.081 536.011,-373.222 510.661,-406.467"/>
<polygon fill="#f0f0f0" stroke="#f0f0f0" points="507.611,-404.695 504.331,-414.769 513.178,-408.939 507.611,-404.695"/>
<text text-anchor="middle" x="606.606" y="-300.163" font-family="Times New Roman,serif" font-size="8.00" fill="#f0f0f0">der</text>
</g>
<!-- &#45;attrs0 -->
<g id="node2" class="node"><title>&#45;attrs0</title>
<polygon fill="none" stroke="gray" points="781.193,-208 697.193,-208 697.193,-159 787.193,-159 787.193,-202 781.193,-208"/>
<polyline fill="none" stroke="gray" points="781.193,-208 781.193,-202 "/>
<polyline fill="none" stroke="gray" points="787.193,-202 781.193,-202 "/>
<text text-anchor="start" x="707.193" y="-193.5" font-family="Times New Roman,serif" font-size="10.00">value:</text>
<text text-anchor="start" x="734.193" y="-193.5" font-family="Times New Roman,serif" font-size="10.00">[0, 1, 4]</text>
<text text-anchor="start" x="707.193" y="-180.5" font-family="Times New Roman,serif" font-size="10.00">type:</text>
<text text-anchor="start" x="734.193" y="-180.5" font-family="Times New Roman,serif" font-size="10.00">Dictionary</text>
<text text-anchor="start" x="707.193" y="-167.5" font-family="Times New Roman,serif" font-size="10.00">label:</text>
<text text-anchor="start" x="734.193" y="-167.5" font-family="Times New Roman,serif" font-size="10.00">dist[k]</text>
</g>
<!-- &#45;attrs0&#45;&gt;http://example.org/dist_ak -->
<g id="edge1" class="edge"><title>&#45;attrs0&#45;&gt;http://example.org/dist_ak</title>
<path fill="none" stroke="gray" stroke-dasharray="5,2" d="M706.601,-208.09C683.333,-223.511 653.737,-243.128 634.165,-256.099"/>
</g>
<!-- http://example.org/empty -->
<g id="node4" class="node"><title>http://example.org/empty</title>
<ellipse fill="none" stroke="black" cx="1429.19" cy="-433" rx="100.983" ry="18"/>
<text text-anchor="middle" x="1429.19" y="-429.3" font-family="Times New Roman,serif" font-size="14.00">http://example.org/empty</text>
</g>
<!-- bn0&#45;&gt;http://example.org/empty -->
<g id="edge3" class="edge"><title>bn0&#45;&gt;http://example.org/empty</title>
<path fill="none" stroke="black" d="M882.585,-353.341C896.332,-356.695 1009.22,-383.931 1102.19,-397 1198.03,-410.47 1223.09,-403.603 1319.19,-415 1328.52,-416.106 1338.27,-417.406 1347.95,-418.784"/>
<polygon fill="black" stroke="black" points="1347.59,-422.269 1357.99,-420.246 1348.6,-415.342 1347.59,-422.269"/>
<text text-anchor="middle" x="1107.69" y="-390.6" font-family="Times New Roman,serif" font-size="8.00">der</text>
</g>
<!-- http://example.org/matrix00 -->
<g id="node5" class="node"><title>http://example.org/matrix00</title>
<ellipse fill="none" stroke="black" cx="1200.19" cy="-433" rx="109.681" ry="18"/>
<text text-anchor="middle" x="1200.19" y="-429.3" font-family="Times New Roman,serif" font-size="14.00">http://example.org/matrix00</text>
</g>
<!-- bn0&#45;&gt;http://example.org/matrix00 -->
<g id="edge4" class="edge"><title>bn0&#45;&gt;http://example.org/matrix00</title>
<path fill="none" stroke="black" d="M882.19,-353.782C888.509,-358.69 923.775,-385.407 957.193,-397 958.137,-397.328 1041.53,-409.306 1110.36,-419.159"/>
<polygon fill="black" stroke="black" points="1110,-422.643 1120.39,-420.595 1110.99,-415.714 1110,-422.643"/>
<text text-anchor="middle" x="962.693" y="-390.6" font-family="Times New Roman,serif" font-size="8.00">[0]</text>
</g>
<!-- http://example.org/matrix01 -->
<g id="node6" class="node"><title>http://example.org/matrix01</title>
<ellipse fill="none" stroke="black" cx="724.193" cy="-433" rx="109.681" ry="18"/>
<text text-anchor="middle" x="724.193" y="-429.3" font-family="Times New Roman,serif" font-size="14.00">http://example.org/matrix01</text>
</g>
<!-- bn0&#45;&gt;http://example.org/matrix01 -->
<g id="edge5" class="edge"><title>bn0&#45;&gt;http://example.org/matrix01</title>
<path fill="none" stroke="black" d="M880.19,-353.504C871.553,-357.851 808.982,-389.335 765.759,-411.084"/>
<polygon fill="black" stroke="black" points="763.946,-408.079 756.586,-415.7 767.092,-414.332 763.946,-408.079"/>
<text text-anchor="middle" x="813.693" y="-390.6" font-family="Times New Roman,serif" font-size="8.00">[1]</text>
</g>
<!-- http://example.org/matrix02 -->
<g id="node7" class="node"><title>http://example.org/matrix02</title>
<ellipse fill="none" stroke="black" cx="962.193" cy="-433" rx="109.681" ry="18"/>
<text text-anchor="middle" x="962.193" y="-429.3" font-family="Times New Roman,serif" font-size="14.00">http://example.org/matrix02</text>
</g>
<!-- bn0&#45;&gt;http://example.org/matrix02 -->
<g id="edge6" class="edge"><title>bn0&#45;&gt;http://example.org/matrix02</title>
<path fill="none" stroke="black" d="M880.789,-354.224C879.044,-359.758 872.662,-382.783 882.193,-397 886.255,-403.06 891.617,-408.079 897.647,-412.233"/>
<polygon fill="black" stroke="black" points="895.848,-415.235 906.224,-417.379 899.45,-409.233 895.848,-415.235"/>
<text text-anchor="middle" x="887.693" y="-390.6" font-family="Times New Roman,serif" font-size="8.00">[2]</text>
</g>
<!-- http://example.org/access2&#45;&gt;http://example.org/matrix0 -->
<g id="edge18" class="edge"><title>http://example.org/access2&#45;&gt;http://example.org/matrix0</title>
<path fill="none" stroke="#f0f0f0" d="M354.006,-367.49C380.248,-379.829 418.253,-397.701 447.61,-411.506"/>
<polygon fill="#f0f0f0" stroke="#f0f0f0" points="446.273,-414.745 456.812,-415.833 449.252,-408.41 446.273,-414.745"/>
<text text-anchor="middle" x="366.321" y="-357.026" font-family="Times New Roman,serif" font-size="8.00" fill="#f0f0f0">use</text>
</g>
<!-- http://example.org/dist -->
<g id="node10" class="node"><title>http://example.org/dist</title>
<ellipse fill="none" stroke="black" cx="276.193" cy="-433" rx="91.784" ry="18"/>
<text text-anchor="middle" x="276.193" y="-429.3" font-family="Times New Roman,serif" font-size="14.00">http://example.org/dist</text>
</g>
<!-- http://example.org/access2&#45;&gt;http://example.org/dist -->
<g id="edge8" class="edge"><title>http://example.org/access2&#45;&gt;http://example.org/dist</title>
<path fill="none" stroke="#f0f0f0" d="M312.994,-370.142C306.712,-380.701 298.539,-394.439 291.491,-406.285"/>
<polygon fill="#f0f0f0" stroke="#f0f0f0" points="288.476,-404.508 286.371,-414.892 294.492,-408.087 288.476,-404.508"/>
<text text-anchor="middle" x="320.324" y="-381.329" font-family="Times New Roman,serif" font-size="8.00" fill="#f0f0f0">use</text>
</g>
<!-- http://example.org/k -->
<g id="node11" class="node"><title>http://example.org/k</title>
<ellipse fill="none" stroke="black" cx="83.1926" cy="-433" rx="83.3857" ry="18"/>
<text text-anchor="middle" x="83.1926" y="-429.3" font-family="Times New Roman,serif" font-size="14.00">http://example.org/k</text>
</g>
<!-- http://example.org/access2&#45;&gt;http://example.org/k -->
<g id="edge9" class="edge"><title>http://example.org/access2&#45;&gt;http://example.org/k</title>
<path fill="none" stroke="#f0f0f0" d="M292.308,-363.166C252.985,-376.11 184.414,-398.681 136.553,-414.435"/>
<polygon fill="#f0f0f0" stroke="#f0f0f0" points="135.377,-411.138 126.972,-417.589 137.565,-417.787 135.377,-411.138"/>
<text text-anchor="middle" x="289.246" y="-375.95" font-family="Times New Roman,serif" font-size="8.00" fill="#f0f0f0">use</text>
</g>
<!-- http://example.org/distk -->
<g id="node12" class="node"><title>http://example.org/distk</title>
<g id="a_node12"><a xlink:href="http://example.org/distk" xlink:title="distk">
<ellipse fill="#fffc87" stroke="#808080" cx="650.193" cy="-104" rx="28.6953" ry="18"/>
<text text-anchor="middle" x="650.193" y="-100.3" font-family="Times New Roman,serif" font-size="14.00">distk</text>
</a>
</g>
</g>
<!-- http://example.org/distk&#45;&gt;http://example.org/dist_ak -->
<g id="edge16" class="edge"><title>http://example.org/distk&#45;&gt;http://example.org/dist_ak</title>
<path fill="none" stroke="#f0f0f0" d="M636.073,-119.674C627.329,-129.825 616.898,-144.137 612.193,-159 603.455,-186.598 605.316,-220.025 608.345,-242.939"/>
<polygon fill="#f0f0f0" stroke="#f0f0f0" points="604.904,-243.593 609.835,-252.97 611.828,-242.564 604.904,-243.593"/>
<text text-anchor="middle" x="641.179" y="-131.879" font-family="Times New Roman,serif" font-size="8.00" fill="#f0f0f0">der</text>
</g>
<!-- bn1 -->
<g id="node14" class="node"><title>bn1</title>
<ellipse fill="black" stroke="black" cx="983.193" cy="-352" rx="1.8" ry="1.8"/>
</g>
<!-- http://example.org/distk&#45;&gt;bn1 -->
<g id="edge11" class="edge"><title>http://example.org/distk&#45;&gt;bn1</title>
<path fill="none" stroke="black" d="M676.594,-110.984C707.145,-118.731 758.126,-134.254 796.193,-159 891.382,-220.88 974.996,-339.223 982.626,-350.182"/>
<text text-anchor="middle" x="897.193" y="-228.6" font-family="Times New Roman,serif" font-size="8.00">der&#45;ins</text>
</g>
<!-- http://example.org/assign7 -->
<g id="node15" class="node"><title>http://example.org/assign7</title>
<g id="a_node15"><a xlink:href="http://example.org/assign7" xlink:title="assign7">
<polygon fill="#fafafa" stroke="#f0f0f0" points="679.193,-201.5 621.193,-201.5 621.193,-165.5 679.193,-165.5 679.193,-201.5"/>
<text text-anchor="middle" x="650.193" y="-179.8" font-family="Times New Roman,serif" font-size="14.00" fill="#f0f0f0">assign7</text>
</a>
</g>
</g>
<!-- http://example.org/distk&#45;&gt;http://example.org/assign7 -->
<g id="edge19" class="edge"><title>http://example.org/distk&#45;&gt;http://example.org/assign7</title>
<path fill="none" stroke="#f0f0f0" d="M650.193,-122.2C650.193,-131.932 650.193,-144.324 650.193,-155.34"/>
<polygon fill="#f0f0f0" stroke="#f0f0f0" points="646.693,-155.348 650.193,-165.348 653.693,-155.348 646.693,-155.348"/>
<text text-anchor="middle" x="663.183" y="-127.8" font-family="Times New Roman,serif" font-size="8.00" fill="#f0f0f0">gen</text>
</g>
<!-- &#45;attrs1 -->
<g id="node13" class="node"><title>&#45;attrs1</title>
<polygon fill="none" stroke="gray" points="689.193,-49 605.193,-49 605.193,-0 695.193,-0 695.193,-43 689.193,-49"/>
<polyline fill="none" stroke="gray" points="689.193,-49 689.193,-43 "/>
<polyline fill="none" stroke="gray" points="695.193,-43 689.193,-43 "/>
<text text-anchor="start" x="615.193" y="-34.5" font-family="Times New Roman,serif" font-size="10.00">value:</text>
<text text-anchor="start" x="642.193" y="-34.5" font-family="Times New Roman,serif" font-size="10.00">[0, 1, 4]</text>
<text text-anchor="start" x="615.193" y="-21.5" font-family="Times New Roman,serif" font-size="10.00">type:</text>
<text text-anchor="start" x="642.193" y="-21.5" font-family="Times New Roman,serif" font-size="10.00">Dictionary</text>
<text text-anchor="start" x="615.193" y="-8.5" font-family="Times New Roman,serif" font-size="10.00">label:</text>
<text text-anchor="start" x="642.193" y="-8.5" font-family="Times New Roman,serif" font-size="10.00">distk</text>
</g>
<!-- &#45;attrs1&#45;&gt;http://example.org/distk -->
<g id="edge10" class="edge"><title>&#45;attrs1&#45;&gt;http://example.org/distk</title>
<path fill="none" stroke="gray" stroke-dasharray="5,2" d="M650.193,-49.1737C650.193,-60.9254 650.193,-74.869 650.193,-85.6196"/>
</g>
<!-- bn1&#45;&gt;http://example.org/empty -->
<g id="edge12" class="edge"><title>bn1&#45;&gt;http://example.org/empty</title>
<path fill="none" stroke="black" d="M984.808,-353.286C1005.88,-357.019 1228.11,-396.383 1350.09,-417.988"/>
<polygon fill="black" stroke="black" points="1349.67,-421.469 1360.13,-419.767 1350.9,-414.577 1349.67,-421.469"/>
<text text-anchor="middle" x="1224.69" y="-390.6" font-family="Times New Roman,serif" font-size="8.00">der</text>
</g>
<!-- bn1&#45;&gt;http://example.org/matrix00 -->
<g id="edge13" class="edge"><title>bn1&#45;&gt;http://example.org/matrix00</title>
<path fill="none" stroke="black" d="M984.55,-353.23C995.051,-355.037 1064.32,-367.403 1117.19,-388 1133.02,-394.167 1149.72,-402.602 1163.95,-410.437"/>
<polygon fill="black" stroke="black" points="1162.48,-413.625 1172.91,-415.469 1165.9,-407.521 1162.48,-413.625"/>
<text text-anchor="middle" x="1140.69" y="-390.6" font-family="Times New Roman,serif" font-size="8.00">[0]</text>
</g>
<!-- bn1&#45;&gt;http://example.org/matrix01 -->
<g id="edge14" class="edge"><title>bn1&#45;&gt;http://example.org/matrix01</title>
<path fill="none" stroke="black" d="M981.975,-353.743C974.267,-358.415 931.373,-383.945 893.193,-397 867.299,-405.854 838.37,-412.845 811.868,-418.176"/>
<polygon fill="black" stroke="black" points="810.983,-414.783 801.842,-420.138 812.328,-421.652 810.983,-414.783"/>
<text text-anchor="middle" x="921.693" y="-390.6" font-family="Times New Roman,serif" font-size="8.00">[1]</text>
</g>
<!-- bn1&#45;&gt;http://example.org/matrix02 -->
<g id="edge15" class="edge"><title>bn1&#45;&gt;http://example.org/matrix02</title>
<path fill="none" stroke="black" d="M982.957,-353.887C981.615,-358.934 974.814,-384.52 969.355,-405.055"/>
<polygon fill="black" stroke="black" points="965.923,-404.343 966.736,-414.907 972.688,-406.142 965.923,-404.343"/>
<text text-anchor="middle" x="979.693" y="-390.6" font-family="Times New Roman,serif" font-size="8.00">[2]</text>
</g>
<!-- http://example.org/assign7&#45;&gt;http://example.org/dist_ak -->
<g id="edge17" class="edge"><title>http://example.org/assign7&#45;&gt;http://example.org/dist_ak</title>
<path fill="none" stroke="#f0f0f0" d="M642.705,-201.802C637.472,-213.896 630.389,-230.262 624.475,-243.929"/>
<polygon fill="#f0f0f0" stroke="#f0f0f0" points="621.177,-242.738 620.417,-253.305 627.601,-245.518 621.177,-242.738"/>
<text text-anchor="middle" x="651.648" y="-211.945" font-family="Times New Roman,serif" font-size="8.00" fill="#f0f0f0">use</text>
</g>
</g>
</svg>
