<?xml version="1.0" encoding="UTF-8" standalone="no"?>
<!DOCTYPE svg PUBLIC "-//W3C//DTD SVG 1.1//EN"
 "http://www.w3.org/Graphics/SVG/1.1/DTD/svg11.dtd">
<!-- Generated by graphviz version 2.38.0 (20140413.2041)
 -->
<!-- Title: PROV Pages: 1 -->
<svg width="1152pt" height="351pt"
 viewBox="0.00 0.00 1152.00 350.87" xmlns="http://www.w3.org/2000/svg" xmlns:xlink="http://www.w3.org/1999/xlink">
<g id="graph0" class="graph" transform="scale(0.764416 0.764416) rotate(0) translate(4 455)">
<title>PROV</title>
<polygon fill="white" stroke="none" points="-4,4 -4,-455 1503.03,-455 1503.03,4 -4,4"/>
<!-- http://example.org/dist@k#3 -->
<g id="node1" class="node"><title>http://example.org/dist@k#3</title>
<g id="a_node1"><a xlink:href="http://example.org/dist@k#3" xlink:title="dist@k#3">
<ellipse fill="#fffc87" stroke="#808080" cx="640.292" cy="-271" rx="46.2923" ry="18"/>
<text text-anchor="middle" x="640.292" y="-267.3" font-family="Times New Roman,serif" font-size="14.00">dist@k#3</text>
</a>
</g>
</g>
<!-- bn0 -->
<g id="node3" class="node"><title>bn0</title>
<ellipse fill="black" stroke="black" cx="897.292" cy="-352" rx="1.8" ry="1.8"/>
</g>
<!-- http://example.org/dist@k#3&#45;&gt;bn0 -->
<g id="edge2" class="edge"><title>http://example.org/dist@k#3&#45;&gt;bn0</title>
<path fill="none" stroke="black" d="M675.488,-282.819C742.024,-303.272 880.973,-345.984 895.971,-350.594"/>
<text text-anchor="middle" x="789.292" y="-309.6" font-family="Times New Roman,serif" font-size="8.00">der&#45;ins</text>
</g>
<!-- http://example.org/access40 -->
<g id="node8" class="node"><title>http://example.org/access40</title>
<g id="a_node8"><a xlink:href="http://example.org/access40" xlink:title="access40">
<polygon fill="#fafafa" stroke="#f0f0f0" points="386.292,-370 318.292,-370 318.292,-334 386.292,-334 386.292,-370"/>
<text text-anchor="middle" x="352.292" y="-348.3" font-family="Times New Roman,serif" font-size="14.00" fill="#f0f0f0">access40</text>
</a>
</g>
</g>
<!-- http://example.org/dist@k#3&#45;&gt;http://example.org/access40 -->
<g id="edge19" class="edge"><title>http://example.org/dist@k#3&#45;&gt;http://example.org/access40</title>
<path fill="none" stroke="#f0f0f0" d="M603.524,-282.086C550.594,-296.605 453.072,-323.356 396.355,-338.913"/>
<polygon fill="#f0f0f0" stroke="#f0f0f0" points="395.317,-335.569 386.599,-341.589 397.169,-342.319 395.317,-335.569"/>
<text text-anchor="middle" x="599.727" y="-294.697" font-family="Times New Roman,serif" font-size="8.00" fill="#f0f0f0">gen</text>
</g>
<!-- http://example.org/disti#3 -->
<g id="node9" class="node"><title>http://example.org/disti#3</title>
<ellipse fill="none" stroke="black" cx="524.292" cy="-433" rx="102.882" ry="18"/>
<text text-anchor="middle" x="524.292" y="-429.3" font-family="Times New Roman,serif" font-size="14.00">http://example.org/disti#3</text>
</g>
<!-- http://example.org/dist@k#3&#45;&gt;http://example.org/disti#3 -->
<g id="edge7" class="edge"><title>http://example.org/dist@k#3&#45;&gt;http://example.org/disti#3</title>
<path fill="none" stroke="#f0f0f0" d="M628.315,-288.52C608.016,-316.518 566.728,-373.468 542.722,-406.579"/>
<polygon fill="#f0f0f0" stroke="#f0f0f0" points="539.764,-404.696 536.728,-414.846 545.432,-408.805 539.764,-404.696"/>
<text text-anchor="middle" x="634.43" y="-300.317" font-family="Times New Roman,serif" font-size="8.00" fill="#f0f0f0">der</text>
</g>
<!-- &#45;attrs0 -->
<g id="node2" class="node"><title>&#45;attrs0</title>
<polygon fill="none" stroke="gray" points="815.292,-208 731.292,-208 731.292,-159 821.292,-159 821.292,-202 815.292,-208"/>
<polyline fill="none" stroke="gray" points="815.292,-208 815.292,-202 "/>
<polyline fill="none" stroke="gray" points="821.292,-202 815.292,-202 "/>
<text text-anchor="start" x="741.292" y="-193.5" font-family="Times New Roman,serif" font-size="10.00">value:</text>
<text text-anchor="start" x="768.292" y="-193.5" font-family="Times New Roman,serif" font-size="10.00">[2, 3, 0]</text>
<text text-anchor="start" x="741.292" y="-180.5" font-family="Times New Roman,serif" font-size="10.00">type:</text>
<text text-anchor="start" x="768.292" y="-180.5" font-family="Times New Roman,serif" font-size="10.00">Dictionary</text>
<text text-anchor="start" x="741.292" y="-167.5" font-family="Times New Roman,serif" font-size="10.00">label:</text>
<text text-anchor="start" x="768.292" y="-167.5" font-family="Times New Roman,serif" font-size="10.00">dist[k]</text>
</g>
<!-- &#45;attrs0&#45;&gt;http://example.org/dist@k#3 -->
<g id="edge1" class="edge"><title>&#45;attrs0&#45;&gt;http://example.org/dist@k#3</title>
<path fill="none" stroke="gray" stroke-dasharray="5,2" d="M738.769,-208.09C714.71,-223.215 684.234,-242.375 663.605,-255.344"/>
</g>
<!-- http://example.org/empty -->
<g id="node4" class="node"><title>http://example.org/empty</title>
<ellipse fill="none" stroke="black" cx="1398.29" cy="-433" rx="100.983" ry="18"/>
<text text-anchor="middle" x="1398.29" y="-429.3" font-family="Times New Roman,serif" font-size="14.00">http://example.org/empty</text>
</g>
<!-- bn0&#45;&gt;http://example.org/empty -->
<g id="edge3" class="edge"><title>bn0&#45;&gt;http://example.org/empty</title>
<path fill="none" stroke="black" d="M898.576,-353.338C911.255,-356.659 1015.37,-383.645 1101.29,-397 1183.8,-409.824 1205.44,-404.62 1288.29,-415 1297.37,-416.138 1306.86,-417.437 1316.29,-418.798"/>
<polygon fill="black" stroke="black" points="1316.08,-422.304 1326.48,-420.295 1317.1,-415.379 1316.08,-422.304"/>
<text text-anchor="middle" x="1106.79" y="-390.6" font-family="Times New Roman,serif" font-size="8.00">der</text>
</g>
<!-- http://example.org/list0 -->
<g id="node5" class="node"><title>http://example.org/list0</title>
<ellipse fill="none" stroke="black" cx="1186.29" cy="-433" rx="92.8835" ry="18"/>
<text text-anchor="middle" x="1186.29" y="-429.3" font-family="Times New Roman,serif" font-size="14.00">http://example.org/list0</text>
</g>
<!-- bn0&#45;&gt;http://example.org/list0 -->
<g id="edge4" class="edge"><title>bn0&#45;&gt;http://example.org/list0</title>
<path fill="none" stroke="black" d="M898.323,-353.772C904.852,-358.617 941.27,-385.017 975.292,-397 1021.6,-413.311 1035.85,-406.964 1084.29,-415 1092.1,-416.295 1100.24,-417.648 1108.37,-419.001"/>
<polygon fill="black" stroke="black" points="1107.82,-422.457 1118.26,-420.647 1108.97,-415.552 1107.82,-422.457"/>
<text text-anchor="middle" x="980.792" y="-390.6" font-family="Times New Roman,serif" font-size="8.00">[0]</text>
</g>
<!-- http://example.org/disti@j#3 -->
<g id="node6" class="node"><title>http://example.org/disti@j#3</title>
<ellipse fill="none" stroke="black" cx="758.292" cy="-433" rx="113.18" ry="18"/>
<text text-anchor="middle" x="758.292" y="-429.3" font-family="Times New Roman,serif" font-size="14.00">http://example.org/disti@j#3</text>
</g>
<!-- bn0&#45;&gt;http://example.org/disti@j#3 -->
<g id="edge5" class="edge"><title>bn0&#45;&gt;http://example.org/disti@j#3</title>
<path fill="none" stroke="black" d="M895.731,-353.887C886.08,-359.372 833.733,-389.123 796.512,-410.278"/>
<polygon fill="black" stroke="black" points="794.374,-407.467 787.41,-415.451 797.833,-413.553 794.374,-407.467"/>
<text text-anchor="middle" x="837.792" y="-390.6" font-family="Times New Roman,serif" font-size="8.00">[1]</text>
</g>
<!-- http://example.org/list2 -->
<g id="node7" class="node"><title>http://example.org/list2</title>
<ellipse fill="none" stroke="black" cx="982.292" cy="-433" rx="92.8835" ry="18"/>
<text text-anchor="middle" x="982.292" y="-429.3" font-family="Times New Roman,serif" font-size="14.00">http://example.org/list2</text>
</g>
<!-- bn0&#45;&gt;http://example.org/list2 -->
<g id="edge6" class="edge"><title>bn0&#45;&gt;http://example.org/list2</title>
<path fill="none" stroke="black" d="M896.882,-354.228C895.112,-359.779 888.637,-382.868 898.292,-397 902.929,-403.787 909.151,-409.262 916.122,-413.676"/>
<polygon fill="black" stroke="black" points="914.842,-416.966 925.291,-418.72 918.216,-410.833 914.842,-416.966"/>
<text text-anchor="middle" x="903.792" y="-390.6" font-family="Times New Roman,serif" font-size="8.00">[2]</text>
</g>
<!-- http://example.org/access40&#45;&gt;http://example.org/disti#3 -->
<g id="edge17" class="edge"><title>http://example.org/access40&#45;&gt;http://example.org/disti#3</title>
<path fill="none" stroke="#f0f0f0" d="M386.685,-368.797C413.577,-381.149 451.153,-398.407 480.245,-411.769"/>
<polygon fill="#f0f0f0" stroke="#f0f0f0" points="478.82,-414.966 489.368,-415.96 481.742,-408.605 478.82,-414.966"/>
<text text-anchor="middle" x="398.923" y="-358.223" font-family="Times New Roman,serif" font-size="8.00" fill="#f0f0f0">use</text>
</g>
<!-- http://example.org/dist#3 -->
<g id="node10" class="node"><title>http://example.org/dist#3</title>
<ellipse fill="none" stroke="black" cx="303.292" cy="-433" rx="100.983" ry="18"/>
<text text-anchor="middle" x="303.292" y="-429.3" font-family="Times New Roman,serif" font-size="14.00">http://example.org/dist#3</text>
</g>
<!-- http://example.org/access40&#45;&gt;http://example.org/dist#3 -->
<g id="edge8" class="edge"><title>http://example.org/access40&#45;&gt;http://example.org/dist#3</title>
<path fill="none" stroke="#f0f0f0" d="M341.66,-370.142C335.11,-380.701 326.589,-394.439 319.241,-406.285"/>
<polygon fill="#f0f0f0" stroke="#f0f0f0" points="316.2,-404.549 313.903,-414.892 322.149,-408.238 316.2,-404.549"/>
<text text-anchor="middle" x="348.746" y="-381.463" font-family="Times New Roman,serif" font-size="8.00" fill="#f0f0f0">use</text>
</g>
<!-- http://example.org/k#3 -->
<g id="node11" class="node"><title>http://example.org/k#3</title>
<ellipse fill="none" stroke="black" cx="92.2918" cy="-433" rx="92.0841" ry="18"/>
<text text-anchor="middle" x="92.2918" y="-429.3" font-family="Times New Roman,serif" font-size="14.00">http://example.org/k#3</text>
</g>
<!-- http://example.org/access40&#45;&gt;http://example.org/k#3 -->
<g id="edge9" class="edge"><title>http://example.org/access40&#45;&gt;http://example.org/k#3</title>
<path fill="none" stroke="#f0f0f0" d="M318.034,-363.409C275.155,-376.438 201.092,-398.941 149.541,-414.605"/>
<polygon fill="#f0f0f0" stroke="#f0f0f0" points="148.419,-411.288 139.868,-417.544 150.454,-417.986 148.419,-411.288"/>
<text text-anchor="middle" x="314.635" y="-376.119" font-family="Times New Roman,serif" font-size="8.00" fill="#f0f0f0">use</text>
</g>
<!-- http://example.org/distk#3 -->
<g id="node12" class="node"><title>http://example.org/distk#3</title>
<g id="a_node12"><a xlink:href="http://example.org/distk#3" xlink:title="distk#3">
<ellipse fill="#fffc87" stroke="#808080" cx="680.292" cy="-104" rx="37.8943" ry="18"/>
<text text-anchor="middle" x="680.292" y="-100.3" font-family="Times New Roman,serif" font-size="14.00">distk#3</text>
</a>
</g>
</g>
<!-- http://example.org/distk#3&#45;&gt;http://example.org/dist@k#3 -->
<g id="edge16" class="edge"><title>http://example.org/distk#3&#45;&gt;http://example.org/dist@k#3</title>
<path fill="none" stroke="#f0f0f0" d="M663.857,-120.297C654.387,-130.278 643.38,-144.171 638.292,-159 628.896,-186.385 631.215,-219.849 634.736,-242.83"/>
<polygon fill="#f0f0f0" stroke="#f0f0f0" points="631.321,-243.627 636.458,-252.894 638.221,-242.447 631.321,-243.627"/>
<text text-anchor="middle" x="668.29" y="-132.727" font-family="Times New Roman,serif" font-size="8.00" fill="#f0f0f0">der</text>
</g>
<!-- bn1 -->
<g id="node14" class="node"><title>bn1</title>
<ellipse fill="black" stroke="black" cx="999.292" cy="-352" rx="1.8" ry="1.8"/>
</g>
<!-- http://example.org/distk#3&#45;&gt;bn1 -->
<g id="edge11" class="edge"><title>http://example.org/distk#3&#45;&gt;bn1</title>
<path fill="none" stroke="black" d="M714.119,-112.017C746.085,-119.788 794.361,-134.561 830.292,-159 919.885,-219.938 992.219,-339.135 998.803,-350.176"/>
<text text-anchor="middle" x="926.292" y="-228.6" font-family="Times New Roman,serif" font-size="8.00">der&#45;ins</text>
</g>
<!-- http://example.org/assign19 -->
<g id="node15" class="node"><title>http://example.org/assign19</title>
<g id="a_node15"><a xlink:href="http://example.org/assign19" xlink:title="assign19">
<polygon fill="#fafafa" stroke="#f0f0f0" points="712.792,-201.5 647.792,-201.5 647.792,-165.5 712.792,-165.5 712.792,-201.5"/>
<text text-anchor="middle" x="680.292" y="-179.8" font-family="Times New Roman,serif" font-size="14.00" fill="#f0f0f0">assign19</text>
</a>
</g>
</g>
<!-- http://example.org/distk#3&#45;&gt;http://example.org/assign19 -->
<g id="edge20" class="edge"><title>http://example.org/distk#3&#45;&gt;http://example.org/assign19</title>
<path fill="none" stroke="#f0f0f0" d="M680.292,-122.2C680.292,-131.932 680.292,-144.324 680.292,-155.34"/>
<polygon fill="#f0f0f0" stroke="#f0f0f0" points="676.792,-155.348 680.292,-165.348 683.792,-155.348 676.792,-155.348"/>
<text text-anchor="middle" x="693.282" y="-127.8" font-family="Times New Roman,serif" font-size="8.00" fill="#f0f0f0">gen</text>
</g>
<!-- &#45;attrs1 -->
<g id="node13" class="node"><title>&#45;attrs1</title>
<polygon fill="none" stroke="gray" points="719.292,-49 635.292,-49 635.292,-0 725.292,-0 725.292,-43 719.292,-49"/>
<polyline fill="none" stroke="gray" points="719.292,-49 719.292,-43 "/>
<polyline fill="none" stroke="gray" points="725.292,-43 719.292,-43 "/>
<text text-anchor="start" x="645.292" y="-34.5" font-family="Times New Roman,serif" font-size="10.00">value:</text>
<text text-anchor="start" x="672.292" y="-34.5" font-family="Times New Roman,serif" font-size="10.00">[2, 3, 0]</text>
<text text-anchor="start" x="645.292" y="-21.5" font-family="Times New Roman,serif" font-size="10.00">type:</text>
<text text-anchor="start" x="672.292" y="-21.5" font-family="Times New Roman,serif" font-size="10.00">Dictionary</text>
<text text-anchor="start" x="645.292" y="-8.5" font-family="Times New Roman,serif" font-size="10.00">label:</text>
<text text-anchor="start" x="672.292" y="-8.5" font-family="Times New Roman,serif" font-size="10.00">distk</text>
</g>
<!-- &#45;attrs1&#45;&gt;http://example.org/distk#3 -->
<g id="edge10" class="edge"><title>&#45;attrs1&#45;&gt;http://example.org/distk#3</title>
<path fill="none" stroke="gray" stroke-dasharray="5,2" d="M680.292,-49.1737C680.292,-60.9254 680.292,-74.869 680.292,-85.6196"/>
</g>
<!-- bn1&#45;&gt;http://example.org/empty -->
<g id="edge12" class="edge"><title>bn1&#45;&gt;http://example.org/empty</title>
<path fill="none" stroke="black" d="M1000.74,-353.286C1019.36,-356.973 1213.58,-395.428 1323.49,-417.19"/>
<polygon fill="black" stroke="black" points="1323.04,-420.669 1333.53,-419.178 1324.4,-413.802 1323.04,-420.669"/>
<text text-anchor="middle" x="1215.79" y="-390.6" font-family="Times New Roman,serif" font-size="8.00">der</text>
</g>
<!-- bn1&#45;&gt;http://example.org/list0 -->
<g id="edge13" class="edge"><title>bn1&#45;&gt;http://example.org/list0</title>
<path fill="none" stroke="black" d="M1000.73,-353.277C1010.77,-355.234 1071.11,-367.502 1116.29,-388 1129.52,-394.002 1143.23,-402.135 1154.97,-409.776"/>
<polygon fill="black" stroke="black" points="1153.27,-412.845 1163.53,-415.48 1157.15,-407.02 1153.27,-412.845"/>
<text text-anchor="middle" x="1137.79" y="-390.6" font-family="Times New Roman,serif" font-size="8.00">[0]</text>
</g>
<!-- bn1&#45;&gt;http://example.org/disti@j#3 -->
<g id="edge14" class="edge"><title>bn1&#45;&gt;http://example.org/disti@j#3</title>
<path fill="none" stroke="black" d="M998.07,-353.732C990.337,-358.331 947.315,-383.496 909.292,-397 887.092,-404.884 862.416,-411.469 839.555,-416.721"/>
<polygon fill="black" stroke="black" points="838.532,-413.364 829.539,-418.965 840.062,-420.194 838.532,-413.364"/>
<text text-anchor="middle" x="935.792" y="-390.6" font-family="Times New Roman,serif" font-size="8.00">[1]</text>
</g>
<!-- bn1&#45;&gt;http://example.org/list2 -->
<g id="edge15" class="edge"><title>bn1&#45;&gt;http://example.org/list2</title>
<path fill="none" stroke="black" d="M999.101,-353.887C998.015,-358.934 992.509,-384.52 988.09,-405.055"/>
<polygon fill="black" stroke="black" points="984.652,-404.394 985.97,-414.907 991.496,-405.867 984.652,-404.394"/>
<text text-anchor="middle" x="997.792" y="-390.6" font-family="Times New Roman,serif" font-size="8.00">[2]</text>
</g>
<!-- http://example.org/assign19&#45;&gt;http://example.org/dist@k#3 -->
<g id="edge18" class="edge"><title>http://example.org/assign19&#45;&gt;http://example.org/dist@k#3</title>
<path fill="none" stroke="#f0f0f0" d="M672.197,-201.802C666.576,-213.817 658.982,-230.049 652.613,-243.663"/>
<polygon fill="#f0f0f0" stroke="#f0f0f0" points="649.305,-242.474 648.238,-253.015 655.646,-245.441 649.305,-242.474"/>
<text text-anchor="middle" x="680.785" y="-212.2" font-family="Times New Roman,serif" font-size="8.00" fill="#f0f0f0">use</text>
</g>
</g>
</svg>
