<?xml version="1.0" encoding="UTF-8" standalone="no"?>
<!DOCTYPE svg PUBLIC "-//W3C//DTD SVG 1.1//EN"
 "http://www.w3.org/Graphics/SVG/1.1/DTD/svg11.dtd">
<!-- Generated by graphviz version 2.38.0 (20140413.2041)
 -->
<!-- Title: PROV Pages: 1 -->
<svg width="1152pt" height="352pt"
 viewBox="0.00 0.00 1152.00 352.18" xmlns="http://www.w3.org/2000/svg" xmlns:xlink="http://www.w3.org/1999/xlink">
<g id="graph0" class="graph" transform="scale(0.767267 0.767267) rotate(0) translate(4 455)">
<title>PROV</title>
<polygon fill="white" stroke="none" points="-4,4 -4,-455 1497.43,-455 1497.43,4 -4,4"/>
<!-- http://example.org/dist@i#4 -->
<g id="node1" class="node"><title>http://example.org/dist@i#4</title>
<g id="a_node1"><a xlink:href="http://example.org/dist@i#4" xlink:title="dist@i#4">
<ellipse fill="#fffc87" stroke="#808080" cx="634.692" cy="-271" rx="43.5923" ry="18"/>
<text text-anchor="middle" x="634.692" y="-267.3" font-family="Times New Roman,serif" font-size="14.00">dist@i#4</text>
</a>
</g>
</g>
<!-- bn0 -->
<g id="node3" class="node"><title>bn0</title>
<ellipse fill="black" stroke="black" cx="891.692" cy="-352" rx="1.8" ry="1.8"/>
</g>
<!-- http://example.org/dist@i#4&#45;&gt;bn0 -->
<g id="edge2" class="edge"><title>http://example.org/dist@i#4&#45;&gt;bn0</title>
<path fill="none" stroke="black" d="M668.555,-282.409C734.525,-302.688 875.169,-345.921 890.355,-350.589"/>
<text text-anchor="middle" x="783.692" y="-309.6" font-family="Times New Roman,serif" font-size="8.00">der&#45;ins</text>
</g>
<!-- http://example.org/access32 -->
<g id="node8" class="node"><title>http://example.org/access32</title>
<g id="a_node8"><a xlink:href="http://example.org/access32" xlink:title="access32">
<polygon fill="#fafafa" stroke="#f0f0f0" points="380.692,-370 312.692,-370 312.692,-334 380.692,-334 380.692,-370"/>
<text text-anchor="middle" x="346.692" y="-348.3" font-family="Times New Roman,serif" font-size="14.00" fill="#f0f0f0">access32</text>
</a>
</g>
</g>
<!-- http://example.org/dist@i#4&#45;&gt;http://example.org/access32 -->
<g id="edge19" class="edge"><title>http://example.org/dist@i#4&#45;&gt;http://example.org/access32</title>
<path fill="none" stroke="#f0f0f0" d="M599.378,-281.687C546.808,-296.107 448.037,-323.2 390.793,-338.903"/>
<polygon fill="#f0f0f0" stroke="#f0f0f0" points="389.667,-335.582 380.949,-341.603 391.519,-342.333 389.667,-335.582"/>
<text text-anchor="middle" x="595.581" y="-294.299" font-family="Times New Roman,serif" font-size="8.00" fill="#f0f0f0">gen</text>
</g>
<!-- http://example.org/disti#3 -->
<g id="node9" class="node"><title>http://example.org/disti#3</title>
<ellipse fill="none" stroke="black" cx="518.692" cy="-433" rx="102.882" ry="18"/>
<text text-anchor="middle" x="518.692" y="-429.3" font-family="Times New Roman,serif" font-size="14.00">http://example.org/disti#3</text>
</g>
<!-- http://example.org/dist@i#4&#45;&gt;http://example.org/disti#3 -->
<g id="edge7" class="edge"><title>http://example.org/dist@i#4&#45;&gt;http://example.org/disti#3</title>
<path fill="none" stroke="#f0f0f0" d="M622.715,-288.52C602.416,-316.518 561.128,-373.468 537.123,-406.579"/>
<polygon fill="#f0f0f0" stroke="#f0f0f0" points="534.165,-404.696 531.128,-414.846 539.832,-408.805 534.165,-404.696"/>
<text text-anchor="middle" x="628.83" y="-300.317" font-family="Times New Roman,serif" font-size="8.00" fill="#f0f0f0">der</text>
</g>
<!-- &#45;attrs0 -->
<g id="node2" class="node"><title>&#45;attrs0</title>
<polygon fill="none" stroke="gray" points="809.692,-208 725.692,-208 725.692,-159 815.692,-159 815.692,-202 809.692,-208"/>
<polyline fill="none" stroke="gray" points="809.692,-208 809.692,-202 "/>
<polyline fill="none" stroke="gray" points="815.692,-202 809.692,-202 "/>
<text text-anchor="start" x="735.692" y="-193.5" font-family="Times New Roman,serif" font-size="10.00">value:</text>
<text text-anchor="start" x="762.692" y="-193.5" font-family="Times New Roman,serif" font-size="10.00">[2, 3, 0]</text>
<text text-anchor="start" x="735.692" y="-180.5" font-family="Times New Roman,serif" font-size="10.00">type:</text>
<text text-anchor="start" x="762.692" y="-180.5" font-family="Times New Roman,serif" font-size="10.00">Dictionary</text>
<text text-anchor="start" x="735.692" y="-167.5" font-family="Times New Roman,serif" font-size="10.00">label:</text>
<text text-anchor="start" x="762.692" y="-167.5" font-family="Times New Roman,serif" font-size="10.00">dist[i]</text>
</g>
<!-- &#45;attrs0&#45;&gt;http://example.org/dist@i#4 -->
<g id="edge1" class="edge"><title>&#45;attrs0&#45;&gt;http://example.org/dist@i#4</title>
<path fill="none" stroke="gray" stroke-dasharray="5,2" d="M733.169,-208.09C708.953,-223.314 678.236,-242.625 657.602,-255.597"/>
</g>
<!-- http://example.org/empty -->
<g id="node4" class="node"><title>http://example.org/empty</title>
<ellipse fill="none" stroke="black" cx="1392.69" cy="-433" rx="100.983" ry="18"/>
<text text-anchor="middle" x="1392.69" y="-429.3" font-family="Times New Roman,serif" font-size="14.00">http://example.org/empty</text>
</g>
<!-- bn0&#45;&gt;http://example.org/empty -->
<g id="edge3" class="edge"><title>bn0&#45;&gt;http://example.org/empty</title>
<path fill="none" stroke="black" d="M892.976,-353.338C905.655,-356.659 1009.77,-383.645 1095.69,-397 1178.2,-409.824 1199.84,-404.62 1282.69,-415 1291.77,-416.138 1301.26,-417.437 1310.69,-418.798"/>
<polygon fill="black" stroke="black" points="1310.48,-422.304 1320.88,-420.295 1311.5,-415.379 1310.48,-422.304"/>
<text text-anchor="middle" x="1101.19" y="-390.6" font-family="Times New Roman,serif" font-size="8.00">der</text>
</g>
<!-- http://example.org/list0 -->
<g id="node5" class="node"><title>http://example.org/list0</title>
<ellipse fill="none" stroke="black" cx="1180.69" cy="-433" rx="92.8835" ry="18"/>
<text text-anchor="middle" x="1180.69" y="-429.3" font-family="Times New Roman,serif" font-size="14.00">http://example.org/list0</text>
</g>
<!-- bn0&#45;&gt;http://example.org/list0 -->
<g id="edge4" class="edge"><title>bn0&#45;&gt;http://example.org/list0</title>
<path fill="none" stroke="black" d="M892.723,-353.772C899.252,-358.617 935.67,-385.017 969.692,-397 1016,-413.311 1030.25,-406.964 1078.69,-415 1086.5,-416.295 1094.64,-417.648 1102.77,-419.001"/>
<polygon fill="black" stroke="black" points="1102.22,-422.457 1112.66,-420.647 1103.37,-415.552 1102.22,-422.457"/>
<text text-anchor="middle" x="975.192" y="-390.6" font-family="Times New Roman,serif" font-size="8.00">[0]</text>
</g>
<!-- http://example.org/disti@j#3 -->
<g id="node6" class="node"><title>http://example.org/disti@j#3</title>
<ellipse fill="none" stroke="black" cx="752.692" cy="-433" rx="113.18" ry="18"/>
<text text-anchor="middle" x="752.692" y="-429.3" font-family="Times New Roman,serif" font-size="14.00">http://example.org/disti@j#3</text>
</g>
<!-- bn0&#45;&gt;http://example.org/disti@j#3 -->
<g id="edge5" class="edge"><title>bn0&#45;&gt;http://example.org/disti@j#3</title>
<path fill="none" stroke="black" d="M890.131,-353.887C880.48,-359.372 828.133,-389.123 790.912,-410.278"/>
<polygon fill="black" stroke="black" points="788.774,-407.467 781.81,-415.451 792.233,-413.553 788.774,-407.467"/>
<text text-anchor="middle" x="832.192" y="-390.6" font-family="Times New Roman,serif" font-size="8.00">[1]</text>
</g>
<!-- http://example.org/list2 -->
<g id="node7" class="node"><title>http://example.org/list2</title>
<ellipse fill="none" stroke="black" cx="976.692" cy="-433" rx="92.8835" ry="18"/>
<text text-anchor="middle" x="976.692" y="-429.3" font-family="Times New Roman,serif" font-size="14.00">http://example.org/list2</text>
</g>
<!-- bn0&#45;&gt;http://example.org/list2 -->
<g id="edge6" class="edge"><title>bn0&#45;&gt;http://example.org/list2</title>
<path fill="none" stroke="black" d="M891.282,-354.228C889.513,-359.779 883.037,-382.868 892.692,-397 897.329,-403.787 903.551,-409.262 910.523,-413.676"/>
<polygon fill="black" stroke="black" points="909.242,-416.966 919.691,-418.72 912.616,-410.833 909.242,-416.966"/>
<text text-anchor="middle" x="898.192" y="-390.6" font-family="Times New Roman,serif" font-size="8.00">[2]</text>
</g>
<!-- http://example.org/access32&#45;&gt;http://example.org/disti#3 -->
<g id="edge18" class="edge"><title>http://example.org/access32&#45;&gt;http://example.org/disti#3</title>
<path fill="none" stroke="#f0f0f0" d="M381.085,-368.797C407.978,-381.149 445.553,-398.407 474.646,-411.769"/>
<polygon fill="#f0f0f0" stroke="#f0f0f0" points="473.221,-414.966 483.769,-415.96 476.142,-408.605 473.221,-414.966"/>
<text text-anchor="middle" x="393.323" y="-358.223" font-family="Times New Roman,serif" font-size="8.00" fill="#f0f0f0">use</text>
</g>
<!-- http://example.org/dist#3 -->
<g id="node10" class="node"><title>http://example.org/dist#3</title>
<ellipse fill="none" stroke="black" cx="297.692" cy="-433" rx="100.983" ry="18"/>
<text text-anchor="middle" x="297.692" y="-429.3" font-family="Times New Roman,serif" font-size="14.00">http://example.org/dist#3</text>
</g>
<!-- http://example.org/access32&#45;&gt;http://example.org/dist#3 -->
<g id="edge8" class="edge"><title>http://example.org/access32&#45;&gt;http://example.org/dist#3</title>
<path fill="none" stroke="#f0f0f0" d="M336.06,-370.142C329.51,-380.701 320.989,-394.439 313.642,-406.285"/>
<polygon fill="#f0f0f0" stroke="#f0f0f0" points="310.6,-404.549 308.304,-414.892 316.549,-408.238 310.6,-404.549"/>
<text text-anchor="middle" x="343.146" y="-381.463" font-family="Times New Roman,serif" font-size="8.00" fill="#f0f0f0">use</text>
</g>
<!-- http://example.org/i#6 -->
<g id="node11" class="node"><title>http://example.org/i#6</title>
<ellipse fill="none" stroke="black" cx="89.692" cy="-433" rx="89.8845" ry="18"/>
<text text-anchor="middle" x="89.692" y="-429.3" font-family="Times New Roman,serif" font-size="14.00">http://example.org/i#6</text>
</g>
<!-- http://example.org/access32&#45;&gt;http://example.org/i#6 -->
<g id="edge9" class="edge"><title>http://example.org/access32&#45;&gt;http://example.org/i#6</title>
<path fill="none" stroke="#f0f0f0" d="M312.564,-363.491C270.194,-376.515 197.315,-398.917 146.473,-414.546"/>
<polygon fill="#f0f0f0" stroke="#f0f0f0" points="145.144,-411.293 136.614,-417.577 147.201,-417.984 145.144,-411.293"/>
<text text-anchor="middle" x="309.212" y="-376.211" font-family="Times New Roman,serif" font-size="8.00" fill="#f0f0f0">use</text>
</g>
<!-- http://example.org/disti#6 -->
<g id="node12" class="node"><title>http://example.org/disti#6</title>
<g id="a_node12"><a xlink:href="http://example.org/disti#6" xlink:title="disti#6">
<ellipse fill="#fffc87" stroke="#808080" cx="674.692" cy="-104" rx="35.194" ry="18"/>
<text text-anchor="middle" x="674.692" y="-100.3" font-family="Times New Roman,serif" font-size="14.00">disti#6</text>
</a>
</g>
</g>
<!-- http://example.org/disti#6&#45;&gt;http://example.org/dist@i#4 -->
<g id="edge16" class="edge"><title>http://example.org/disti#6&#45;&gt;http://example.org/dist@i#4</title>
<path fill="none" stroke="#f0f0f0" d="M658.257,-120.297C648.787,-130.278 637.78,-144.171 632.692,-159 623.296,-186.385 625.615,-219.849 629.136,-242.83"/>
<polygon fill="#f0f0f0" stroke="#f0f0f0" points="625.722,-243.627 630.858,-252.894 632.621,-242.447 625.722,-243.627"/>
<text text-anchor="middle" x="662.69" y="-132.727" font-family="Times New Roman,serif" font-size="8.00" fill="#f0f0f0">der</text>
</g>
<!-- bn1 -->
<g id="node14" class="node"><title>bn1</title>
<ellipse fill="black" stroke="black" cx="993.692" cy="-352" rx="1.8" ry="1.8"/>
</g>
<!-- http://example.org/disti#6&#45;&gt;bn1 -->
<g id="edge11" class="edge"><title>http://example.org/disti#6&#45;&gt;bn1</title>
<path fill="none" stroke="black" d="M706.705,-111.579C738.635,-119.227 788.075,-134.094 824.692,-159 914.285,-219.938 986.619,-339.135 993.203,-350.176"/>
<text text-anchor="middle" x="920.692" y="-228.6" font-family="Times New Roman,serif" font-size="8.00">der&#45;ins</text>
</g>
<!-- http://example.org/assign17 -->
<g id="node15" class="node"><title>http://example.org/assign17</title>
<g id="a_node15"><a xlink:href="http://example.org/assign17" xlink:title="assign17">
<polygon fill="#fafafa" stroke="#f0f0f0" points="707.192,-201.5 642.192,-201.5 642.192,-165.5 707.192,-165.5 707.192,-201.5"/>
<text text-anchor="middle" x="674.692" y="-179.8" font-family="Times New Roman,serif" font-size="14.00" fill="#f0f0f0">assign17</text>
</a>
</g>
</g>
<!-- http://example.org/disti#6&#45;&gt;http://example.org/assign17 -->
<g id="edge20" class="edge"><title>http://example.org/disti#6&#45;&gt;http://example.org/assign17</title>
<path fill="none" stroke="#f0f0f0" d="M674.692,-122.2C674.692,-131.932 674.692,-144.324 674.692,-155.34"/>
<polygon fill="#f0f0f0" stroke="#f0f0f0" points="671.192,-155.348 674.692,-165.348 678.192,-155.348 671.192,-155.348"/>
<text text-anchor="middle" x="687.682" y="-127.8" font-family="Times New Roman,serif" font-size="8.00" fill="#f0f0f0">gen</text>
</g>
<!-- &#45;attrs1 -->
<g id="node13" class="node"><title>&#45;attrs1</title>
<polygon fill="none" stroke="gray" points="713.692,-49 629.692,-49 629.692,-0 719.692,-0 719.692,-43 713.692,-49"/>
<polyline fill="none" stroke="gray" points="713.692,-49 713.692,-43 "/>
<polyline fill="none" stroke="gray" points="719.692,-43 713.692,-43 "/>
<text text-anchor="start" x="639.692" y="-34.5" font-family="Times New Roman,serif" font-size="10.00">value:</text>
<text text-anchor="start" x="666.692" y="-34.5" font-family="Times New Roman,serif" font-size="10.00">[2, 3, 0]</text>
<text text-anchor="start" x="639.692" y="-21.5" font-family="Times New Roman,serif" font-size="10.00">type:</text>
<text text-anchor="start" x="666.692" y="-21.5" font-family="Times New Roman,serif" font-size="10.00">Dictionary</text>
<text text-anchor="start" x="639.692" y="-8.5" font-family="Times New Roman,serif" font-size="10.00">label:</text>
<text text-anchor="start" x="666.692" y="-8.5" font-family="Times New Roman,serif" font-size="10.00">disti</text>
</g>
<!-- &#45;attrs1&#45;&gt;http://example.org/disti#6 -->
<g id="edge10" class="edge"><title>&#45;attrs1&#45;&gt;http://example.org/disti#6</title>
<path fill="none" stroke="gray" stroke-dasharray="5,2" d="M674.692,-49.1737C674.692,-60.9254 674.692,-74.869 674.692,-85.6196"/>
</g>
<!-- bn1&#45;&gt;http://example.org/empty -->
<g id="edge12" class="edge"><title>bn1&#45;&gt;http://example.org/empty</title>
<path fill="none" stroke="black" d="M995.137,-353.286C1013.76,-356.973 1207.98,-395.428 1317.89,-417.19"/>
<polygon fill="black" stroke="black" points="1317.44,-420.669 1327.93,-419.178 1318.8,-413.802 1317.44,-420.669"/>
<text text-anchor="middle" x="1210.19" y="-390.6" font-family="Times New Roman,serif" font-size="8.00">der</text>
</g>
<!-- bn1&#45;&gt;http://example.org/list0 -->
<g id="edge13" class="edge"><title>bn1&#45;&gt;http://example.org/list0</title>
<path fill="none" stroke="black" d="M995.135,-353.277C1005.17,-355.234 1065.51,-367.502 1110.69,-388 1123.92,-394.002 1137.63,-402.135 1149.37,-409.776"/>
<polygon fill="black" stroke="black" points="1147.67,-412.845 1157.93,-415.48 1151.55,-407.02 1147.67,-412.845"/>
<text text-anchor="middle" x="1132.19" y="-390.6" font-family="Times New Roman,serif" font-size="8.00">[0]</text>
</g>
<!-- bn1&#45;&gt;http://example.org/disti@j#3 -->
<g id="edge14" class="edge"><title>bn1&#45;&gt;http://example.org/disti@j#3</title>
<path fill="none" stroke="black" d="M992.47,-353.732C984.737,-358.331 941.716,-383.496 903.692,-397 881.492,-404.884 856.817,-411.469 833.955,-416.721"/>
<polygon fill="black" stroke="black" points="832.932,-413.364 823.939,-418.965 834.463,-420.194 832.932,-413.364"/>
<text text-anchor="middle" x="930.192" y="-390.6" font-family="Times New Roman,serif" font-size="8.00">[1]</text>
</g>
<!-- bn1&#45;&gt;http://example.org/list2 -->
<g id="edge15" class="edge"><title>bn1&#45;&gt;http://example.org/list2</title>
<path fill="none" stroke="black" d="M993.501,-353.887C992.415,-358.934 986.909,-384.52 982.49,-405.055"/>
<polygon fill="black" stroke="black" points="979.052,-404.394 980.37,-414.907 985.896,-405.867 979.052,-404.394"/>
<text text-anchor="middle" x="992.192" y="-390.6" font-family="Times New Roman,serif" font-size="8.00">[2]</text>
</g>
<!-- http://example.org/assign17&#45;&gt;http://example.org/dist@i#4 -->
<g id="edge17" class="edge"><title>http://example.org/assign17&#45;&gt;http://example.org/dist@i#4</title>
<path fill="none" stroke="#f0f0f0" d="M666.597,-201.802C660.976,-213.817 653.382,-230.049 647.013,-243.663"/>
<polygon fill="#f0f0f0" stroke="#f0f0f0" points="643.705,-242.474 642.638,-253.015 650.046,-245.441 643.705,-242.474"/>
<text text-anchor="middle" x="675.186" y="-212.2" font-family="Times New Roman,serif" font-size="8.00" fill="#f0f0f0">use</text>
</g>
</g>
</svg>
