<?xml version="1.0" encoding="UTF-8" standalone="no"?>
<!DOCTYPE svg PUBLIC "-//W3C//DTD SVG 1.1//EN"
 "http://www.w3.org/Graphics/SVG/1.1/DTD/svg11.dtd">
<!-- Generated by graphviz version 2.38.0 (20140413.2041)
 -->
<!-- Title: PROV Pages: 1 -->
<svg width="1152pt" height="333pt"
 viewBox="0.00 0.00 1152.00 333.31" xmlns="http://www.w3.org/2000/svg" xmlns:xlink="http://www.w3.org/1999/xlink">
<g id="graph0" class="graph" transform="scale(0.726157 0.726157) rotate(0) translate(4 455)">
<title>PROV</title>
<polygon fill="white" stroke="none" points="-4,4 -4,-455 1582.43,-455 1582.43,4 -4,4"/>
<!-- http://example.org/dist@i#3 -->
<g id="node1" class="node"><title>http://example.org/dist@i#3</title>
<g id="a_node1"><a xlink:href="http://example.org/dist@i#3" xlink:title="dist@i#3">
<ellipse fill="#fffc87" stroke="#808080" cx="655.692" cy="-271" rx="43.5923" ry="18"/>
<text text-anchor="middle" x="655.692" y="-267.3" font-family="Times New Roman,serif" font-size="14.00">dist@i#3</text>
</a>
</g>
</g>
<!-- bn0 -->
<g id="node3" class="node"><title>bn0</title>
<ellipse fill="black" stroke="black" cx="929.692" cy="-352" rx="1.8" ry="1.8"/>
</g>
<!-- http://example.org/dist@i#3&#45;&gt;bn0 -->
<g id="edge2" class="edge"><title>http://example.org/dist@i#3&#45;&gt;bn0</title>
<path fill="none" stroke="black" d="M690.394,-282.005C760.092,-302.101 911.858,-345.858 928.249,-350.584"/>
<text text-anchor="middle" x="813.692" y="-309.6" font-family="Times New Roman,serif" font-size="8.00">der&#45;ins</text>
</g>
<!-- http://example.org/access23 -->
<g id="node8" class="node"><title>http://example.org/access23</title>
<g id="a_node8"><a xlink:href="http://example.org/access23" xlink:title="access23">
<polygon fill="#fafafa" stroke="#f0f0f0" points="383.692,-370 315.692,-370 315.692,-334 383.692,-334 383.692,-370"/>
<text text-anchor="middle" x="349.692" y="-348.3" font-family="Times New Roman,serif" font-size="14.00" fill="#f0f0f0">access23</text>
</a>
</g>
</g>
<!-- http://example.org/dist@i#3&#45;&gt;http://example.org/access23 -->
<g id="edge19" class="edge"><title>http://example.org/dist@i#3&#45;&gt;http://example.org/access23</title>
<path fill="none" stroke="#f0f0f0" d="M619.69,-281.295C563.42,-295.822 454.779,-323.87 393.861,-339.597"/>
<polygon fill="#f0f0f0" stroke="#f0f0f0" points="392.956,-336.216 384.148,-342.104 394.706,-342.993 392.956,-336.216"/>
<text text-anchor="middle" x="615.675" y="-293.847" font-family="Times New Roman,serif" font-size="8.00" fill="#f0f0f0">gen</text>
</g>
<!-- http://example.org/matrix0#1 -->
<g id="node9" class="node"><title>http://example.org/matrix0#1</title>
<ellipse fill="none" stroke="black" cx="530.692" cy="-433" rx="114.28" ry="18"/>
<text text-anchor="middle" x="530.692" y="-429.3" font-family="Times New Roman,serif" font-size="14.00">http://example.org/matrix0#1</text>
</g>
<!-- http://example.org/dist@i#3&#45;&gt;http://example.org/matrix0#1 -->
<g id="edge7" class="edge"><title>http://example.org/dist@i#3&#45;&gt;http://example.org/matrix0#1</title>
<path fill="none" stroke="#f0f0f0" d="M643.018,-288.222C621.254,-316.081 576.612,-373.222 550.64,-406.467"/>
<polygon fill="#f0f0f0" stroke="#f0f0f0" points="547.552,-404.734 544.154,-414.769 553.068,-409.044 547.552,-404.734"/>
<text text-anchor="middle" x="648.638" y="-300.23" font-family="Times New Roman,serif" font-size="8.00" fill="#f0f0f0">der</text>
</g>
<!-- &#45;attrs0 -->
<g id="node2" class="node"><title>&#45;attrs0</title>
<polygon fill="none" stroke="gray" points="830.692,-208 746.692,-208 746.692,-159 836.692,-159 836.692,-202 830.692,-208"/>
<polyline fill="none" stroke="gray" points="830.692,-208 830.692,-202 "/>
<polyline fill="none" stroke="gray" points="836.692,-202 830.692,-202 "/>
<text text-anchor="start" x="756.692" y="-193.5" font-family="Times New Roman,serif" font-size="10.00">value:</text>
<text text-anchor="start" x="783.692" y="-193.5" font-family="Times New Roman,serif" font-size="10.00">[0, 1, 4]</text>
<text text-anchor="start" x="756.692" y="-180.5" font-family="Times New Roman,serif" font-size="10.00">type:</text>
<text text-anchor="start" x="783.692" y="-180.5" font-family="Times New Roman,serif" font-size="10.00">Dictionary</text>
<text text-anchor="start" x="756.692" y="-167.5" font-family="Times New Roman,serif" font-size="10.00">label:</text>
<text text-anchor="start" x="783.692" y="-167.5" font-family="Times New Roman,serif" font-size="10.00">dist[i]</text>
</g>
<!-- &#45;attrs0&#45;&gt;http://example.org/dist@i#3 -->
<g id="edge1" class="edge"><title>&#45;attrs0&#45;&gt;http://example.org/dist@i#3</title>
<path fill="none" stroke="gray" stroke-dasharray="5,2" d="M754.169,-208.09C729.953,-223.314 699.236,-242.625 678.602,-255.597"/>
</g>
<!-- http://example.org/empty -->
<g id="node4" class="node"><title>http://example.org/empty</title>
<ellipse fill="none" stroke="black" cx="1477.69" cy="-433" rx="100.983" ry="18"/>
<text text-anchor="middle" x="1477.69" y="-429.3" font-family="Times New Roman,serif" font-size="14.00">http://example.org/empty</text>
</g>
<!-- bn0&#45;&gt;http://example.org/empty -->
<g id="edge3" class="edge"><title>bn0&#45;&gt;http://example.org/empty</title>
<path fill="none" stroke="black" d="M931.084,-353.341C944.832,-356.695 1057.72,-383.931 1150.69,-397 1246.53,-410.47 1271.59,-403.603 1367.69,-415 1377.02,-416.106 1386.77,-417.406 1396.45,-418.784"/>
<polygon fill="black" stroke="black" points="1396.09,-422.269 1406.49,-420.246 1397.1,-415.342 1396.09,-422.269"/>
<text text-anchor="middle" x="1156.19" y="-390.6" font-family="Times New Roman,serif" font-size="8.00">der</text>
</g>
<!-- http://example.org/matrix00 -->
<g id="node5" class="node"><title>http://example.org/matrix00</title>
<ellipse fill="none" stroke="black" cx="1248.69" cy="-433" rx="109.681" ry="18"/>
<text text-anchor="middle" x="1248.69" y="-429.3" font-family="Times New Roman,serif" font-size="14.00">http://example.org/matrix00</text>
</g>
<!-- bn0&#45;&gt;http://example.org/matrix00 -->
<g id="edge4" class="edge"><title>bn0&#45;&gt;http://example.org/matrix00</title>
<path fill="none" stroke="black" d="M930.69,-353.782C937.008,-358.69 972.275,-385.407 1005.69,-397 1006.64,-397.328 1090.03,-409.306 1158.85,-419.159"/>
<polygon fill="black" stroke="black" points="1158.5,-422.643 1168.89,-420.595 1159.49,-415.714 1158.5,-422.643"/>
<text text-anchor="middle" x="1011.19" y="-390.6" font-family="Times New Roman,serif" font-size="8.00">[0]</text>
</g>
<!-- http://example.org/matrix01 -->
<g id="node6" class="node"><title>http://example.org/matrix01</title>
<ellipse fill="none" stroke="black" cx="772.692" cy="-433" rx="109.681" ry="18"/>
<text text-anchor="middle" x="772.692" y="-429.3" font-family="Times New Roman,serif" font-size="14.00">http://example.org/matrix01</text>
</g>
<!-- bn0&#45;&gt;http://example.org/matrix01 -->
<g id="edge5" class="edge"><title>bn0&#45;&gt;http://example.org/matrix01</title>
<path fill="none" stroke="black" d="M928.689,-353.504C920.052,-357.851 857.481,-389.335 814.259,-411.084"/>
<polygon fill="black" stroke="black" points="812.445,-408.079 805.086,-415.7 815.592,-414.332 812.445,-408.079"/>
<text text-anchor="middle" x="862.192" y="-390.6" font-family="Times New Roman,serif" font-size="8.00">[1]</text>
</g>
<!-- http://example.org/matrix02 -->
<g id="node7" class="node"><title>http://example.org/matrix02</title>
<ellipse fill="none" stroke="black" cx="1010.69" cy="-433" rx="109.681" ry="18"/>
<text text-anchor="middle" x="1010.69" y="-429.3" font-family="Times New Roman,serif" font-size="14.00">http://example.org/matrix02</text>
</g>
<!-- bn0&#45;&gt;http://example.org/matrix02 -->
<g id="edge6" class="edge"><title>bn0&#45;&gt;http://example.org/matrix02</title>
<path fill="none" stroke="black" d="M929.288,-354.224C927.544,-359.758 921.162,-382.783 930.692,-397 934.754,-403.06 940.117,-408.079 946.146,-412.233"/>
<polygon fill="black" stroke="black" points="944.348,-415.235 954.723,-417.379 947.949,-409.233 944.348,-415.235"/>
<text text-anchor="middle" x="936.192" y="-390.6" font-family="Times New Roman,serif" font-size="8.00">[2]</text>
</g>
<!-- http://example.org/access23&#45;&gt;http://example.org/matrix0#1 -->
<g id="edge18" class="edge"><title>http://example.org/access23&#45;&gt;http://example.org/matrix0#1</title>
<path fill="none" stroke="#f0f0f0" d="M383.737,-367.859C412.135,-380.254 452.881,-398.038 484.269,-411.738"/>
<polygon fill="#f0f0f0" stroke="#f0f0f0" points="483.12,-415.055 493.685,-415.848 485.92,-408.64 483.12,-415.055"/>
<text text-anchor="middle" x="395.807" y="-357.054" font-family="Times New Roman,serif" font-size="8.00" fill="#f0f0f0">use</text>
</g>
<!-- http://example.org/dist#2 -->
<g id="node10" class="node"><title>http://example.org/dist#2</title>
<ellipse fill="none" stroke="black" cx="297.692" cy="-433" rx="100.983" ry="18"/>
<text text-anchor="middle" x="297.692" y="-429.3" font-family="Times New Roman,serif" font-size="14.00">http://example.org/dist#2</text>
</g>
<!-- http://example.org/access23&#45;&gt;http://example.org/dist#2 -->
<g id="edge8" class="edge"><title>http://example.org/access23&#45;&gt;http://example.org/dist#2</title>
<path fill="none" stroke="#f0f0f0" d="M338.409,-370.142C331.458,-380.701 322.416,-394.439 314.618,-406.285"/>
<polygon fill="#f0f0f0" stroke="#f0f0f0" points="311.528,-404.614 308.953,-414.892 317.375,-408.463 311.528,-404.614"/>
<text text-anchor="middle" x="345.136" y="-381.649" font-family="Times New Roman,serif" font-size="8.00" fill="#f0f0f0">use</text>
</g>
<!-- http://example.org/i#4 -->
<g id="node11" class="node"><title>http://example.org/i#4</title>
<ellipse fill="none" stroke="black" cx="89.692" cy="-433" rx="89.8845" ry="18"/>
<text text-anchor="middle" x="89.692" y="-429.3" font-family="Times New Roman,serif" font-size="14.00">http://example.org/i#4</text>
</g>
<!-- http://example.org/access23&#45;&gt;http://example.org/i#4 -->
<g id="edge9" class="edge"><title>http://example.org/access23&#45;&gt;http://example.org/i#4</title>
<path fill="none" stroke="#f0f0f0" d="M315.434,-363.409C272.555,-376.438 198.492,-398.941 146.941,-414.605"/>
<polygon fill="#f0f0f0" stroke="#f0f0f0" points="145.819,-411.288 137.268,-417.544 147.854,-417.986 145.819,-411.288"/>
<text text-anchor="middle" x="312.035" y="-376.119" font-family="Times New Roman,serif" font-size="8.00" fill="#f0f0f0">use</text>
</g>
<!-- http://example.org/disti#4 -->
<g id="node12" class="node"><title>http://example.org/disti#4</title>
<g id="a_node12"><a xlink:href="http://example.org/disti#4" xlink:title="disti#4">
<ellipse fill="#fffc87" stroke="#808080" cx="695.692" cy="-104" rx="35.194" ry="18"/>
<text text-anchor="middle" x="695.692" y="-100.3" font-family="Times New Roman,serif" font-size="14.00">disti#4</text>
</a>
</g>
</g>
<!-- http://example.org/disti#4&#45;&gt;http://example.org/dist@i#3 -->
<g id="edge16" class="edge"><title>http://example.org/disti#4&#45;&gt;http://example.org/dist@i#3</title>
<path fill="none" stroke="#f0f0f0" d="M679.257,-120.297C669.787,-130.278 658.78,-144.171 653.692,-159 644.296,-186.385 646.615,-219.849 650.136,-242.83"/>
<polygon fill="#f0f0f0" stroke="#f0f0f0" points="646.722,-243.627 651.858,-252.894 653.621,-242.447 646.722,-243.627"/>
<text text-anchor="middle" x="683.69" y="-132.727" font-family="Times New Roman,serif" font-size="8.00" fill="#f0f0f0">der</text>
</g>
<!-- bn1 -->
<g id="node14" class="node"><title>bn1</title>
<ellipse fill="black" stroke="black" cx="1031.69" cy="-352" rx="1.8" ry="1.8"/>
</g>
<!-- http://example.org/disti#4&#45;&gt;bn1 -->
<g id="edge11" class="edge"><title>http://example.org/disti#4&#45;&gt;bn1</title>
<path fill="none" stroke="black" d="M727.459,-111.951C759.197,-119.888 808.491,-134.976 845.692,-159 940.82,-220.433 1023.58,-339.181 1031.13,-350.179"/>
<text text-anchor="middle" x="948.692" y="-228.6" font-family="Times New Roman,serif" font-size="8.00">der&#45;ins</text>
</g>
<!-- http://example.org/assign14 -->
<g id="node15" class="node"><title>http://example.org/assign14</title>
<g id="a_node15"><a xlink:href="http://example.org/assign14" xlink:title="assign14">
<polygon fill="#fafafa" stroke="#f0f0f0" points="728.192,-201.5 663.192,-201.5 663.192,-165.5 728.192,-165.5 728.192,-201.5"/>
<text text-anchor="middle" x="695.692" y="-179.8" font-family="Times New Roman,serif" font-size="14.00" fill="#f0f0f0">assign14</text>
</a>
</g>
</g>
<!-- http://example.org/disti#4&#45;&gt;http://example.org/assign14 -->
<g id="edge20" class="edge"><title>http://example.org/disti#4&#45;&gt;http://example.org/assign14</title>
<path fill="none" stroke="#f0f0f0" d="M695.692,-122.2C695.692,-131.932 695.692,-144.324 695.692,-155.34"/>
<polygon fill="#f0f0f0" stroke="#f0f0f0" points="692.192,-155.348 695.692,-165.348 699.192,-155.348 692.192,-155.348"/>
<text text-anchor="middle" x="708.682" y="-127.8" font-family="Times New Roman,serif" font-size="8.00" fill="#f0f0f0">gen</text>
</g>
<!-- &#45;attrs1 -->
<g id="node13" class="node"><title>&#45;attrs1</title>
<polygon fill="none" stroke="gray" points="734.692,-49 650.692,-49 650.692,-0 740.692,-0 740.692,-43 734.692,-49"/>
<polyline fill="none" stroke="gray" points="734.692,-49 734.692,-43 "/>
<polyline fill="none" stroke="gray" points="740.692,-43 734.692,-43 "/>
<text text-anchor="start" x="660.692" y="-34.5" font-family="Times New Roman,serif" font-size="10.00">value:</text>
<text text-anchor="start" x="687.692" y="-34.5" font-family="Times New Roman,serif" font-size="10.00">[0, 1, 4]</text>
<text text-anchor="start" x="660.692" y="-21.5" font-family="Times New Roman,serif" font-size="10.00">type:</text>
<text text-anchor="start" x="687.692" y="-21.5" font-family="Times New Roman,serif" font-size="10.00">Dictionary</text>
<text text-anchor="start" x="660.692" y="-8.5" font-family="Times New Roman,serif" font-size="10.00">label:</text>
<text text-anchor="start" x="687.692" y="-8.5" font-family="Times New Roman,serif" font-size="10.00">disti</text>
</g>
<!-- &#45;attrs1&#45;&gt;http://example.org/disti#4 -->
<g id="edge10" class="edge"><title>&#45;attrs1&#45;&gt;http://example.org/disti#4</title>
<path fill="none" stroke="gray" stroke-dasharray="5,2" d="M695.692,-49.1737C695.692,-60.9254 695.692,-74.869 695.692,-85.6196"/>
</g>
<!-- bn1&#45;&gt;http://example.org/empty -->
<g id="edge12" class="edge"><title>bn1&#45;&gt;http://example.org/empty</title>
<path fill="none" stroke="black" d="M1033.31,-353.286C1054.38,-357.019 1276.61,-396.383 1398.59,-417.988"/>
<polygon fill="black" stroke="black" points="1398.17,-421.469 1408.63,-419.767 1399.4,-414.577 1398.17,-421.469"/>
<text text-anchor="middle" x="1273.19" y="-390.6" font-family="Times New Roman,serif" font-size="8.00">der</text>
</g>
<!-- bn1&#45;&gt;http://example.org/matrix00 -->
<g id="edge13" class="edge"><title>bn1&#45;&gt;http://example.org/matrix00</title>
<path fill="none" stroke="black" d="M1033.05,-353.23C1043.55,-355.037 1112.82,-367.403 1165.69,-388 1181.52,-394.167 1198.22,-402.602 1212.45,-410.437"/>
<polygon fill="black" stroke="black" points="1210.97,-413.625 1221.41,-415.469 1214.4,-407.521 1210.97,-413.625"/>
<text text-anchor="middle" x="1189.19" y="-390.6" font-family="Times New Roman,serif" font-size="8.00">[0]</text>
</g>
<!-- bn1&#45;&gt;http://example.org/matrix01 -->
<g id="edge14" class="edge"><title>bn1&#45;&gt;http://example.org/matrix01</title>
<path fill="none" stroke="black" d="M1030.47,-353.743C1022.77,-358.415 979.872,-383.945 941.692,-397 915.798,-405.854 886.87,-412.845 860.368,-418.176"/>
<polygon fill="black" stroke="black" points="859.483,-414.783 850.341,-420.138 860.827,-421.652 859.483,-414.783"/>
<text text-anchor="middle" x="970.192" y="-390.6" font-family="Times New Roman,serif" font-size="8.00">[1]</text>
</g>
<!-- bn1&#45;&gt;http://example.org/matrix02 -->
<g id="edge15" class="edge"><title>bn1&#45;&gt;http://example.org/matrix02</title>
<path fill="none" stroke="black" d="M1031.46,-353.887C1030.11,-358.934 1023.31,-384.52 1017.85,-405.055"/>
<polygon fill="black" stroke="black" points="1014.42,-404.343 1015.24,-414.907 1021.19,-406.142 1014.42,-404.343"/>
<text text-anchor="middle" x="1028.19" y="-390.6" font-family="Times New Roman,serif" font-size="8.00">[2]</text>
</g>
<!-- http://example.org/assign14&#45;&gt;http://example.org/dist@i#3 -->
<g id="edge17" class="edge"><title>http://example.org/assign14&#45;&gt;http://example.org/dist@i#3</title>
<path fill="none" stroke="#f0f0f0" d="M687.597,-201.802C681.976,-213.817 674.382,-230.049 668.013,-243.663"/>
<polygon fill="#f0f0f0" stroke="#f0f0f0" points="664.705,-242.474 663.638,-253.015 671.046,-245.441 664.705,-242.474"/>
<text text-anchor="middle" x="696.186" y="-212.2" font-family="Times New Roman,serif" font-size="8.00" fill="#f0f0f0">use</text>
</g>
</g>
</svg>
