<?xml version="1.0" encoding="UTF-8" standalone="no"?>
<!DOCTYPE svg PUBLIC "-//W3C//DTD SVG 1.1//EN"
 "http://www.w3.org/Graphics/SVG/1.1/DTD/svg11.dtd">
<!-- Generated by graphviz version 2.38.0 (20140413.2041)
 -->
<!-- Title: PROV Pages: 1 -->
<svg width="1152pt" height="611pt"
 viewBox="0.00 0.00 1152.00 611.22" xmlns="http://www.w3.org/2000/svg" xmlns:xlink="http://www.w3.org/1999/xlink">
<g id="graph0" class="graph" transform="scale(0.869446 0.869446) rotate(0) translate(4 699)">
<title>PROV</title>
<polygon fill="white" stroke="none" points="-4,4 -4,-699 1320.98,-699 1320.98,4 -4,4"/>
<!-- http://example.org/disti@j#9 -->
<g id="node1" class="node"><title>http://example.org/disti@j#9</title>
<g id="a_node1"><a xlink:href="http://example.org/disti@j#9" xlink:title="disti@j#9">
<ellipse fill="#fffc87" stroke="#808080" cx="750.741" cy="-517" rx="45.4919" ry="18"/>
<text text-anchor="middle" x="750.741" y="-513.3" font-family="Times New Roman,serif" font-size="14.00">disti@j#9</text>
</a>
</g>
</g>
<!-- http://example.org/assign23 -->
<g id="node15" class="node"><title>http://example.org/assign23</title>
<g id="a_node15"><a xlink:href="http://example.org/assign23" xlink:title="assign23">
<polygon fill="#9fb1fc" stroke="#0000ff" points="710.241,-622 645.241,-622 645.241,-586 710.241,-586 710.241,-622"/>
<text text-anchor="middle" x="677.741" y="-600.3" font-family="Times New Roman,serif" font-size="14.00">assign23</text>
</a>
</g>
</g>
<!-- http://example.org/disti@j#9&#45;&gt;http://example.org/assign23 -->
<g id="edge29" class="edge"><title>http://example.org/disti@j#9&#45;&gt;http://example.org/assign23</title>
<path fill="none" stroke="black" d="M736.666,-534.389C726.068,-546.729 711.352,-563.864 699.277,-577.923"/>
<polygon fill="black" stroke="black" points="696.385,-575.92 692.525,-585.786 701.695,-580.48 696.385,-575.92"/>
<text text-anchor="middle" x="741.634" y="-546.642" font-family="Times New Roman,serif" font-size="8.00">gen</text>
</g>
<!-- http://example.org/ikj#6 -->
<g id="node17" class="node"><title>http://example.org/ikj#6</title>
<ellipse fill="none" stroke="black" cx="988.741" cy="-677" rx="96.3833" ry="18"/>
<text text-anchor="middle" x="988.741" y="-673.3" font-family="Times New Roman,serif" font-size="14.00">http://example.org/ikj#6</text>
</g>
<!-- http://example.org/disti@j#9&#45;&gt;http://example.org/ikj#6 -->
<g id="edge15" class="edge"><title>http://example.org/disti@j#9&#45;&gt;http://example.org/ikj#6</title>
<path fill="none" stroke="black" d="M760.617,-534.738C777.223,-561.388 813.321,-613.277 857.741,-641 872.599,-650.273 889.885,-657.112 906.933,-662.149"/>
<polygon fill="black" stroke="black" points="906.352,-665.62 916.923,-664.911 908.217,-658.873 906.352,-665.62"/>
<text text-anchor="middle" x="775.602" y="-532.17" font-family="Times New Roman,serif" font-size="8.00">der</text>
</g>
<!-- http://example.org/disti@j#9&#45;attrs -->
<g id="node2" class="node"><title>http://example.org/disti@j#9&#45;attrs</title>
<polygon fill="none" stroke="gray" points="782.241,-448 713.241,-448 713.241,-386 788.241,-386 788.241,-442 782.241,-448"/>
<polyline fill="none" stroke="gray" points="782.241,-448 782.241,-442 "/>
<polyline fill="none" stroke="gray" points="788.241,-442 782.241,-442 "/>
<text text-anchor="start" x="723.741" y="-434" font-family="Times New Roman,serif" font-size="10.00">value:</text>
<text text-anchor="start" x="750.741" y="-434" font-family="Times New Roman,serif" font-size="10.00">4</text>
<text text-anchor="start" x="723.741" y="-421" font-family="Times New Roman,serif" font-size="10.00">type:</text>
<text text-anchor="start" x="750.741" y="-421" font-family="Times New Roman,serif" font-size="10.00">access</text>
<text text-anchor="start" x="723.741" y="-408" font-family="Times New Roman,serif" font-size="10.00">label:</text>
<text text-anchor="start" x="750.741" y="-408" font-family="Times New Roman,serif" font-size="10.00">disti[j]</text>
<text text-anchor="start" x="723.741" y="-395" font-family="Times New Roman,serif" font-size="10.00">line:</text>
<text text-anchor="start" x="750.741" y="-395" font-family="Times New Roman,serif" font-size="10.00">17</text>
</g>
<!-- http://example.org/disti@j#9&#45;attrs&#45;&gt;http://example.org/disti@j#9 -->
<g id="edge1" class="edge"><title>http://example.org/disti@j#9&#45;attrs&#45;&gt;http://example.org/disti@j#9</title>
<path fill="none" stroke="gray" stroke-dasharray="5,2" d="M750.741,-448.203C750.741,-464.85 750.741,-484.908 750.741,-498.87"/>
</g>
<!-- http://example.org/disti#9 -->
<g id="node3" class="node"><title>http://example.org/disti#9</title>
<g id="a_node3"><a xlink:href="http://example.org/disti#9" xlink:title="disti#9">
<ellipse fill="#fffc87" stroke="#808080" cx="650.741" cy="-317" rx="35.194" ry="18"/>
<text text-anchor="middle" x="650.741" y="-313.3" font-family="Times New Roman,serif" font-size="14.00">disti#9</text>
</a>
</g>
</g>
<!-- bn0 -->
<g id="node5" class="node"><title>bn0</title>
<ellipse fill="black" stroke="black" cx="623.741" cy="-417" rx="1.8" ry="1.8"/>
</g>
<!-- http://example.org/disti#9&#45;&gt;bn0 -->
<g id="edge3" class="edge"><title>http://example.org/disti#9&#45;&gt;bn0</title>
<path fill="none" stroke="black" d="M635.98,-333.513C631.496,-339.201 627.127,-345.976 624.741,-353 616.58,-377.03 622.39,-409.247 623.551,-415.076"/>
<text text-anchor="middle" x="644.241" y="-356.8" font-family="Times New Roman,serif" font-size="14.00">der&#45;ins</text>
</g>
<!-- http://example.org/disti#8 -->
<g id="node6" class="node"><title>http://example.org/disti#8</title>
<ellipse fill="none" stroke="black" cx="321.741" cy="-677" rx="102.882" ry="18"/>
<text text-anchor="middle" x="321.741" y="-673.3" font-family="Times New Roman,serif" font-size="14.00">http://example.org/disti#8</text>
</g>
<!-- http://example.org/disti#9&#45;&gt;http://example.org/disti#8 -->
<g id="edge16" class="edge"><title>http://example.org/disti#9&#45;&gt;http://example.org/disti#8</title>
<path fill="none" stroke="black" d="M620.7,-326.455C566.001,-343.893 455.741,-389.355 455.741,-472.5 455.741,-472.5 455.741,-472.5 455.741,-605 455.741,-633.621 431.577,-650.738 403.771,-660.959"/>
<polygon fill="black" stroke="black" points="402.594,-657.662 394.232,-664.168 404.826,-664.297 402.594,-657.662"/>
<text text-anchor="middle" x="617.775" y="-339.267" font-family="Times New Roman,serif" font-size="8.00">der</text>
</g>
<!-- http://example.org/disti#9&#45;&gt;http://example.org/assign23 -->
<g id="edge30" class="edge"><title>http://example.org/disti#9&#45;&gt;http://example.org/assign23</title>
<path fill="none" stroke="black" d="M658.138,-334.787C660.324,-340.464 662.47,-346.909 663.741,-353 680.353,-432.578 680.165,-529.3 678.858,-575.654"/>
<polygon fill="black" stroke="black" points="675.355,-575.688 678.53,-585.796 682.352,-575.914 675.355,-575.688"/>
<text text-anchor="middle" x="672.943" y="-335.297" font-family="Times New Roman,serif" font-size="8.00">gen</text>
</g>
<!-- http://example.org/disti#9&#45;&gt;http://example.org/ikj#6 -->
<g id="edge17" class="edge"><title>http://example.org/disti#9&#45;&gt;http://example.org/ikj#6</title>
<path fill="none" stroke="black" d="M682.876,-324.701C744.17,-339.567 871.741,-381.446 871.741,-472.5 871.741,-472.5 871.741,-472.5 871.741,-605 871.741,-631.663 894.223,-648.593 919.477,-659.2"/>
<polygon fill="black" stroke="black" points="918.281,-662.49 928.87,-662.828 920.803,-655.96 918.281,-662.49"/>
<text text-anchor="middle" x="693.426" y="-312.138" font-family="Times New Roman,serif" font-size="8.00">der</text>
</g>
<!-- http://example.org/disti#9&#45;attrs -->
<g id="node4" class="node"><title>http://example.org/disti#9&#45;attrs</title>
<polygon fill="none" stroke="gray" points="689.741,-248 605.741,-248 605.741,-186 695.741,-186 695.741,-242 689.741,-248"/>
<polyline fill="none" stroke="gray" points="689.741,-248 689.741,-242 "/>
<polyline fill="none" stroke="gray" points="695.741,-242 689.741,-242 "/>
<text text-anchor="start" x="615.741" y="-234" font-family="Times New Roman,serif" font-size="10.00">value:</text>
<text text-anchor="start" x="642.741" y="-234" font-family="Times New Roman,serif" font-size="10.00">[4, 0, 2]</text>
<text text-anchor="start" x="615.741" y="-221" font-family="Times New Roman,serif" font-size="10.00">type:</text>
<text text-anchor="start" x="642.741" y="-221" font-family="Times New Roman,serif" font-size="10.00">Dictionary</text>
<text text-anchor="start" x="615.741" y="-208" font-family="Times New Roman,serif" font-size="10.00">label:</text>
<text text-anchor="start" x="642.741" y="-208" font-family="Times New Roman,serif" font-size="10.00">disti</text>
<text text-anchor="start" x="615.741" y="-195" font-family="Times New Roman,serif" font-size="10.00">line:</text>
<text text-anchor="start" x="642.741" y="-195" font-family="Times New Roman,serif" font-size="10.00">17</text>
</g>
<!-- http://example.org/disti#9&#45;attrs&#45;&gt;http://example.org/disti#9 -->
<g id="edge2" class="edge"><title>http://example.org/disti#9&#45;attrs&#45;&gt;http://example.org/disti#9</title>
<path fill="none" stroke="gray" stroke-dasharray="5,2" d="M650.741,-248.203C650.741,-264.85 650.741,-284.908 650.741,-298.87"/>
</g>
<!-- bn0&#45;&gt;http://example.org/disti@j#9 -->
<g id="edge5" class="edge"><title>bn0&#45;&gt;http://example.org/disti@j#9</title>
<path fill="none" stroke="black" d="M624.552,-418.626C631.945,-424.33 688.182,-467.726 723.04,-494.625"/>
<polygon fill="black" stroke="black" points="720.921,-497.41 730.976,-500.748 725.197,-491.868 720.921,-497.41"/>
<text text-anchor="middle" x="710.741" y="-469.8" font-family="Times New Roman,serif" font-size="14.00">[0]</text>
</g>
<!-- bn0&#45;&gt;http://example.org/disti#8 -->
<g id="edge4" class="edge"><title>bn0&#45;&gt;http://example.org/disti#8</title>
<path fill="none" stroke="black" d="M623.109,-418.957C612.878,-434.444 481.687,-632.839 469.741,-641 454.053,-651.717 435.492,-659.174 416.911,-664.358"/>
<polygon fill="black" stroke="black" points="416.013,-660.975 407.208,-666.867 417.766,-667.752 416.013,-660.975"/>
<text text-anchor="middle" x="542.241" y="-556.8" font-family="Times New Roman,serif" font-size="14.00">der</text>
</g>
<!-- http://example.org/dist#4 -->
<g id="node7" class="node"><title>http://example.org/dist#4</title>
<g id="a_node7"><a xlink:href="http://example.org/dist#4" xlink:title="dist#4">
<ellipse fill="#fffc87" stroke="#808080" cx="472.741" cy="-117" rx="33.2948" ry="18"/>
<text text-anchor="middle" x="472.741" y="-113.3" font-family="Times New Roman,serif" font-size="14.00">dist#4</text>
</a>
</g>
</g>
<!-- bn1 -->
<g id="node9" class="node"><title>bn1</title>
<ellipse fill="black" stroke="black" cx="488.741" cy="-217" rx="1.8" ry="1.8"/>
</g>
<!-- http://example.org/dist#4&#45;&gt;bn1 -->
<g id="edge7" class="edge"><title>http://example.org/dist#4&#45;&gt;bn1</title>
<path fill="none" stroke="black" d="M475.528,-135.07C479.754,-160.954 487.417,-207.893 488.589,-215.069"/>
<text text-anchor="middle" x="500.241" y="-156.8" font-family="Times New Roman,serif" font-size="14.00">der&#45;ins</text>
</g>
<!-- http://example.org/dist#3 -->
<g id="node10" class="node"><title>http://example.org/dist#3</title>
<ellipse fill="none" stroke="black" cx="100.741" cy="-677" rx="100.983" ry="18"/>
<text text-anchor="middle" x="100.741" y="-673.3" font-family="Times New Roman,serif" font-size="14.00">http://example.org/dist#3</text>
</g>
<!-- http://example.org/dist#4&#45;&gt;http://example.org/dist#3 -->
<g id="edge18" class="edge"><title>http://example.org/dist#4&#45;&gt;http://example.org/dist#3</title>
<path fill="none" stroke="black" d="M439.152,-117.58C375.084,-118.719 241.741,-131.268 241.741,-216 241.741,-216 241.741,-216 241.741,-605 241.741,-634.801 216.305,-652.095 187.039,-662.131"/>
<polygon fill="black" stroke="black" points="185.927,-658.811 177.43,-665.141 188.019,-665.491 185.927,-658.811"/>
<text text-anchor="middle" x="432.115" y="-128.927" font-family="Times New Roman,serif" font-size="8.00">der</text>
</g>
<!-- http://example.org/dist#4&#45;&gt;http://example.org/assign23 -->
<g id="edge31" class="edge"><title>http://example.org/dist#4&#45;&gt;http://example.org/assign23</title>
<path fill="none" stroke="black" d="M471.991,-135.202C470.217,-196.503 471.922,-407.415 570.741,-535 587.605,-556.773 613.546,-573.507 635.662,-584.926"/>
<polygon fill="black" stroke="black" points="634.354,-588.185 644.868,-589.494 637.465,-581.914 634.354,-588.185"/>
<text text-anchor="middle" x="484.869" y="-140.993" font-family="Times New Roman,serif" font-size="8.00">gen</text>
</g>
<!-- http://example.org/dist#4&#45;&gt;http://example.org/ikj#6 -->
<g id="edge19" class="edge"><title>http://example.org/dist#4&#45;&gt;http://example.org/ikj#6</title>
<path fill="none" stroke="black" d="M506.122,-117.521C610.179,-117.93 921.741,-134.323 921.741,-316 921.741,-316 921.741,-316 921.741,-605 921.741,-625.061 936.065,-641.75 951.467,-653.896"/>
<polygon fill="black" stroke="black" points="949.416,-656.732 959.549,-659.827 953.558,-651.089 949.416,-656.732"/>
<text text-anchor="middle" x="513.885" y="-102.786" font-family="Times New Roman,serif" font-size="8.00">der</text>
</g>
<!-- http://example.org/dist#4&#45;attrs -->
<g id="node8" class="node"><title>http://example.org/dist#4&#45;attrs</title>
<polygon fill="none" stroke="gray" points="540.741,-62 398.741,-62 398.741,-0 546.741,-0 546.741,-56 540.741,-62"/>
<polyline fill="none" stroke="gray" points="540.741,-62 540.741,-56 "/>
<polyline fill="none" stroke="gray" points="546.741,-56 540.741,-56 "/>
<text text-anchor="start" x="408.741" y="-48" font-family="Times New Roman,serif" font-size="10.00">value:</text>
<text text-anchor="start" x="435.741" y="-48" font-family="Times New Roman,serif" font-size="10.00">[[0, 1, 3], [4, 0, 2], [2, 3, 0]]</text>
<text text-anchor="start" x="408.741" y="-35" font-family="Times New Roman,serif" font-size="10.00">type:</text>
<text text-anchor="start" x="435.741" y="-35" font-family="Times New Roman,serif" font-size="10.00">Dictionary</text>
<text text-anchor="start" x="408.741" y="-22" font-family="Times New Roman,serif" font-size="10.00">label:</text>
<text text-anchor="start" x="435.741" y="-22" font-family="Times New Roman,serif" font-size="10.00">dist</text>
<text text-anchor="start" x="408.741" y="-9" font-family="Times New Roman,serif" font-size="10.00">line:</text>
<text text-anchor="start" x="435.741" y="-9" font-family="Times New Roman,serif" font-size="10.00">17</text>
</g>
<!-- http://example.org/dist#4&#45;attrs&#45;&gt;http://example.org/dist#4 -->
<g id="edge6" class="edge"><title>http://example.org/dist#4&#45;attrs&#45;&gt;http://example.org/dist#4</title>
<path fill="none" stroke="gray" stroke-dasharray="5,2" d="M472.741,-62.3259C472.741,-74.5443 472.741,-88.1945 472.741,-98.6716"/>
</g>
<!-- bn1&#45;&gt;http://example.org/disti#9 -->
<g id="edge9" class="edge"><title>bn1&#45;&gt;http://example.org/disti#9</title>
<path fill="none" stroke="black" d="M489.776,-218.626C499.557,-224.543 576.376,-271.014 620.261,-297.562"/>
<polygon fill="black" stroke="black" points="618.462,-300.564 628.83,-302.745 622.085,-294.574 618.462,-300.564"/>
<text text-anchor="middle" x="597.741" y="-269.8" font-family="Times New Roman,serif" font-size="14.00">[1]</text>
</g>
<!-- bn1&#45;&gt;http://example.org/dist#3 -->
<g id="edge8" class="edge"><title>bn1&#45;&gt;http://example.org/dist#3</title>
<path fill="none" stroke="black" d="M487.944,-218.816C480.143,-226.889 417.741,-293.536 417.741,-359.5 417.741,-359.5 417.741,-359.5 417.741,-605 417.741,-617.141 274.268,-645.081 180.366,-662.067"/>
<polygon fill="black" stroke="black" points="179.529,-658.661 170.308,-663.879 180.77,-665.55 179.529,-658.661"/>
<text text-anchor="middle" x="427.241" y="-469.8" font-family="Times New Roman,serif" font-size="14.00">der</text>
</g>
<!-- http://example.org/result#4 -->
<g id="node11" class="node"><title>http://example.org/result#4</title>
<g id="a_node11"><a xlink:href="http://example.org/result#4" xlink:title="result#4">
<ellipse fill="#fffc87" stroke="#808080" cx="970.741" cy="-117" rx="39.7935" ry="18"/>
<text text-anchor="middle" x="970.741" y="-113.3" font-family="Times New Roman,serif" font-size="14.00">result#4</text>
</a>
</g>
</g>
<!-- bn2 -->
<g id="node13" class="node"><title>bn2</title>
<ellipse fill="black" stroke="black" cx="943.741" cy="-217" rx="1.8" ry="1.8"/>
</g>
<!-- http://example.org/result#4&#45;&gt;bn2 -->
<g id="edge11" class="edge"><title>http://example.org/result#4&#45;&gt;bn2</title>
<path fill="none" stroke="black" d="M955.706,-133.862C951.318,-139.477 947.078,-146.119 944.741,-153 936.58,-177.03 942.39,-209.247 943.551,-215.076"/>
<text text-anchor="middle" x="964.241" y="-156.8" font-family="Times New Roman,serif" font-size="14.00">der&#45;ins</text>
</g>
<!-- http://example.org/result#3 -->
<g id="node14" class="node"><title>http://example.org/result#3</title>
<ellipse fill="none" stroke="black" cx="1209.74" cy="-677" rx="107.482" ry="18"/>
<text text-anchor="middle" x="1209.74" y="-673.3" font-family="Times New Roman,serif" font-size="14.00">http://example.org/result#3</text>
</g>
<!-- http://example.org/result#4&#45;&gt;http://example.org/result#3 -->
<g id="edge20" class="edge"><title>http://example.org/result#4&#45;&gt;http://example.org/result#3</title>
<path fill="none" stroke="black" d="M1007.62,-124.01C1054.59,-134.011 1129.74,-158.93 1129.74,-216 1129.74,-216 1129.74,-216 1129.74,-605 1129.74,-626.384 1145.93,-642.897 1163.74,-654.593"/>
<polygon fill="black" stroke="black" points="1162.19,-657.745 1172.55,-659.948 1165.82,-651.764 1162.19,-657.745"/>
<text text-anchor="middle" x="1017.88" y="-111.166" font-family="Times New Roman,serif" font-size="8.00">der</text>
</g>
<!-- http://example.org/result#4&#45;&gt;http://example.org/assign23 -->
<g id="edge28" class="edge"><title>http://example.org/result#4&#45;&gt;http://example.org/assign23</title>
<path fill="none" stroke="black" d="M953.937,-133.618C948.148,-139.418 941.844,-146.238 936.741,-153 901.841,-199.248 893.396,-212.261 871.741,-266 825.692,-380.279 880.443,-437.792 804.741,-535 783.435,-562.36 747.953,-580.03 719.902,-590.481"/>
<polygon fill="black" stroke="black" points="718.578,-587.237 710.325,-593.881 720.92,-593.834 718.578,-587.237"/>
<text text-anchor="middle" x="957.899" y="-146.185" font-family="Times New Roman,serif" font-size="8.00">gen</text>
</g>
<!-- http://example.org/result#4&#45;&gt;http://example.org/ikj#6 -->
<g id="edge21" class="edge"><title>http://example.org/result#4&#45;&gt;http://example.org/ikj#6</title>
<path fill="none" stroke="black" d="M978.406,-134.958C986.388,-154.196 997.741,-186.705 997.741,-216 997.741,-216 997.741,-216 997.741,-561.5 997.741,-591.452 994.642,-625.676 992.082,-648.846"/>
<polygon fill="black" stroke="black" points="988.584,-648.628 990.92,-658.962 995.538,-649.427 988.584,-648.628"/>
<text text-anchor="middle" x="993.259" y="-135.156" font-family="Times New Roman,serif" font-size="8.00">der</text>
</g>
<!-- http://example.org/result#4&#45;attrs -->
<g id="node12" class="node"><title>http://example.org/result#4&#45;attrs</title>
<polygon fill="none" stroke="gray" points="1038.74,-62 896.741,-62 896.741,-0 1044.74,-0 1044.74,-56 1038.74,-62"/>
<polyline fill="none" stroke="gray" points="1038.74,-62 1038.74,-56 "/>
<polyline fill="none" stroke="gray" points="1044.74,-56 1038.74,-56 "/>
<text text-anchor="start" x="906.741" y="-48" font-family="Times New Roman,serif" font-size="10.00">value:</text>
<text text-anchor="start" x="933.741" y="-48" font-family="Times New Roman,serif" font-size="10.00">[[0, 1, 3], [4, 0, 2], [2, 3, 0]]</text>
<text text-anchor="start" x="906.741" y="-35" font-family="Times New Roman,serif" font-size="10.00">type:</text>
<text text-anchor="start" x="933.741" y="-35" font-family="Times New Roman,serif" font-size="10.00">Dictionary</text>
<text text-anchor="start" x="906.741" y="-22" font-family="Times New Roman,serif" font-size="10.00">label:</text>
<text text-anchor="start" x="933.741" y="-22" font-family="Times New Roman,serif" font-size="10.00">result</text>
<text text-anchor="start" x="906.741" y="-9" font-family="Times New Roman,serif" font-size="10.00">line:</text>
<text text-anchor="start" x="933.741" y="-9" font-family="Times New Roman,serif" font-size="10.00">17</text>
</g>
<!-- http://example.org/result#4&#45;attrs&#45;&gt;http://example.org/result#4 -->
<g id="edge10" class="edge"><title>http://example.org/result#4&#45;attrs&#45;&gt;http://example.org/result#4</title>
<path fill="none" stroke="gray" stroke-dasharray="5,2" d="M970.741,-62.3259C970.741,-74.5443 970.741,-88.1945 970.741,-98.6716"/>
</g>
<!-- bn2&#45;&gt;http://example.org/disti#9 -->
<g id="edge13" class="edge"><title>bn2&#45;&gt;http://example.org/disti#9</title>
<path fill="none" stroke="black" d="M942.435,-218.437C926.275,-223.842 764.339,-278.005 688.964,-303.216"/>
<polygon fill="black" stroke="black" points="687.729,-299.938 679.356,-306.429 689.95,-306.576 687.729,-299.938"/>
<text text-anchor="middle" x="805.741" y="-269.8" font-family="Times New Roman,serif" font-size="14.00">[1]</text>
</g>
<!-- bn2&#45;&gt;http://example.org/result#3 -->
<g id="edge12" class="edge"><title>bn2&#45;&gt;http://example.org/result#3</title>
<path fill="none" stroke="black" d="M944.019,-218.956C946.143,-226.357 959.741,-275.316 959.741,-316 959.741,-316 959.741,-316 959.741,-561.5 959.741,-601.705 1067.97,-638.571 1142.01,-659.088"/>
<polygon fill="black" stroke="black" points="1141.19,-662.493 1151.76,-661.751 1143.03,-655.74 1141.19,-662.493"/>
<text text-anchor="middle" x="969.241" y="-469.8" font-family="Times New Roman,serif" font-size="14.00">der</text>
</g>
<!-- http://example.org/assign23&#45;&gt;http://example.org/disti#8 -->
<g id="edge24" class="edge"><title>http://example.org/assign23&#45;&gt;http://example.org/disti#8</title>
<path fill="none" stroke="black" d="M645.142,-612.715C612.679,-620.297 561.384,-632.007 516.741,-641 479.608,-648.48 438.336,-656.002 403.358,-662.145"/>
<polygon fill="black" stroke="black" points="402.442,-658.752 393.194,-663.923 403.647,-665.648 402.442,-658.752"/>
<text text-anchor="middle" x="640.781" y="-625.167" font-family="Times New Roman,serif" font-size="8.00">use</text>
</g>
<!-- http://example.org/assign23&#45;&gt;http://example.org/dist#3 -->
<g id="edge26" class="edge"><title>http://example.org/assign23&#45;&gt;http://example.org/dist#3</title>
<path fill="none" stroke="black" d="M645.198,-610.445C598.193,-618.154 508.51,-632.28 431.741,-641 333.383,-652.173 308.045,-647.365 209.741,-659 200.662,-660.075 191.179,-661.339 181.759,-662.686"/>
<polygon fill="black" stroke="black" points="180.971,-659.264 171.583,-664.175 181.984,-666.191 180.971,-659.264"/>
<text text-anchor="middle" x="639.882" y="-622.571" font-family="Times New Roman,serif" font-size="8.00">use</text>
</g>
<!-- http://example.org/assign23&#45;&gt;http://example.org/result#3 -->
<g id="edge25" class="edge"><title>http://example.org/assign23&#45;&gt;http://example.org/result#3</title>
<path fill="none" stroke="black" d="M710.395,-609.053C780.593,-617.808 951.079,-639.288 1093.74,-659 1103.02,-660.282 1112.71,-661.652 1122.36,-663.038"/>
<polygon fill="black" stroke="black" points="1122,-666.521 1132.39,-664.484 1123,-659.593 1122,-666.521"/>
<text text-anchor="middle" x="719.449" y="-595.194" font-family="Times New Roman,serif" font-size="8.00">use</text>
</g>
<!-- http://example.org/assign23&#45;&gt;http://example.org/ikj#6 -->
<g id="edge27" class="edge"><title>http://example.org/assign23&#45;&gt;http://example.org/ikj#6</title>
<path fill="none" stroke="black" d="M710.327,-615.838C734.313,-623.555 767.82,-633.793 797.741,-641 833.537,-649.621 873.555,-657.257 907.677,-663.179"/>
<polygon fill="black" stroke="black" points="907.151,-666.64 917.599,-664.882 908.335,-659.741 907.151,-666.64"/>
<text text-anchor="middle" x="721.424" y="-603.845" font-family="Times New Roman,serif" font-size="8.00">use</text>
</g>
<!-- http://example.org/j#16 -->
<g id="node18" class="node"><title>http://example.org/j#16</title>
<ellipse fill="none" stroke="black" cx="536.741" cy="-677" rx="94.4839" ry="18"/>
<text text-anchor="middle" x="536.741" y="-673.3" font-family="Times New Roman,serif" font-size="14.00">http://example.org/j#16</text>
</g>
<!-- http://example.org/assign23&#45;&gt;http://example.org/j#16 -->
<g id="edge22" class="edge"><title>http://example.org/assign23&#45;&gt;http://example.org/j#16</title>
<path fill="none" stroke="black" d="M645.038,-621.467C625.054,-631.53 599.317,-644.49 577.947,-655.251"/>
<polygon fill="black" stroke="black" points="576.138,-652.243 568.78,-659.867 579.286,-658.495 576.138,-652.243"/>
<text text-anchor="middle" x="644.182" y="-634.543" font-family="Times New Roman,serif" font-size="8.00">use</text>
</g>
<!-- http://example.org/disti@j#8 -->
<g id="node19" class="node"><title>http://example.org/disti@j#8</title>
<ellipse fill="none" stroke="black" cx="761.741" cy="-677" rx="113.18" ry="18"/>
<text text-anchor="middle" x="761.741" y="-673.3" font-family="Times New Roman,serif" font-size="14.00">http://example.org/disti@j#8</text>
</g>
<!-- http://example.org/assign23&#45;&gt;http://example.org/disti@j#8 -->
<g id="edge23" class="edge"><title>http://example.org/assign23&#45;&gt;http://example.org/disti@j#8</title>
<path fill="none" stroke="black" d="M698.075,-622.187C708.885,-631.324 722.331,-642.689 734.077,-652.617"/>
<polygon fill="black" stroke="black" points="731.987,-655.434 741.884,-659.216 736.506,-650.088 731.987,-655.434"/>
<text text-anchor="middle" x="712.189" y="-615.207" font-family="Times New Roman,serif" font-size="8.00">use</text>
</g>
<!-- http://example.org/assign23&#45;attrs -->
<g id="node16" class="node"><title>http://example.org/assign23&#45;attrs</title>
<polygon fill="none" stroke="gray" points="643.741,-535 579.741,-535 579.741,-499 649.741,-499 649.741,-529 643.741,-535"/>
<polyline fill="none" stroke="gray" points="643.741,-535 643.741,-529 "/>
<polyline fill="none" stroke="gray" points="649.741,-529 643.741,-529 "/>
<text text-anchor="start" x="589.741" y="-514" font-family="Times New Roman,serif" font-size="10.00">type:</text>
<text text-anchor="start" x="612.741" y="-514" font-family="Times New Roman,serif" font-size="10.00">assign</text>
</g>
<!-- http://example.org/assign23&#45;attrs&#45;&gt;http://example.org/assign23 -->
<g id="edge14" class="edge"><title>http://example.org/assign23&#45;attrs&#45;&gt;http://example.org/assign23</title>
<path fill="none" stroke="gray" stroke-dasharray="5,2" d="M627.49,-535.201C638.42,-549.948 654.086,-571.085 665.011,-585.825"/>
</g>
</g>
</svg>
