<?xml version="1.0" encoding="UTF-8" standalone="no"?>
<!DOCTYPE svg PUBLIC "-//W3C//DTD SVG 1.1//EN"
 "http://www.w3.org/Graphics/SVG/1.1/DTD/svg11.dtd">
<!-- Generated by graphviz version 2.38.0 (20140413.2041)
 -->
<!-- Title: PROV Pages: 1 -->
<svg width="1152pt" height="434pt"
 viewBox="0.00 0.00 1152.00 434.33" xmlns="http://www.w3.org/2000/svg" xmlns:xlink="http://www.w3.org/1999/xlink">
<g id="graph0" class="graph" transform="scale(0.912452 0.912452) rotate(0) translate(4 472)">
<title>PROV</title>
<polygon fill="white" stroke="none" points="-4,4 -4,-472 1258.53,-472 1258.53,4 -4,4"/>
<!-- http://example.org/disti_ak -->
<g id="node1" class="node"><title>http://example.org/disti_ak</title>
<g id="a_node1"><a xlink:href="http://example.org/disti_ak" xlink:title="disti_ak">
<ellipse fill="#fafafa" stroke="#f0f0f0" cx="363.84" cy="-306" rx="38.9931" ry="18"/>
<text text-anchor="middle" x="363.84" y="-302.3" font-family="Times New Roman,serif" font-size="14.00" fill="#f0f0f0">disti_ak</text>
</a>
</g>
</g>
<!-- http://example.org/access9 -->
<g id="node2" class="node"><title>http://example.org/access9</title>
<g id="a_node2"><a xlink:href="http://example.org/access9" xlink:title="access9">
<polygon fill="#fafafa" stroke="#f0f0f0" points="379.34,-396 318.34,-396 318.34,-360 379.34,-360 379.34,-396"/>
<text text-anchor="middle" x="348.84" y="-374.3" font-family="Times New Roman,serif" font-size="14.00" fill="#f0f0f0">access9</text>
</a>
</g>
</g>
<!-- http://example.org/disti_ak&#45;&gt;http://example.org/access9 -->
<g id="edge16" class="edge"><title>http://example.org/disti_ak&#45;&gt;http://example.org/access9</title>
<path fill="none" stroke="#f0f0f0" d="M360.209,-323.945C358.539,-331.739 356.516,-341.178 354.643,-349.921"/>
<polygon fill="#f0f0f0" stroke="#f0f0f0" points="351.215,-349.213 352.542,-359.725 358.06,-350.68 351.215,-349.213"/>
<text text-anchor="middle" x="371.34" y="-332.1" font-family="Times New Roman,serif" font-size="8.00" fill="#f0f0f0">gen</text>
</g>
<!-- http://example.org/matrix10 -->
<g id="node3" class="node"><title>http://example.org/matrix10</title>
<ellipse fill="none" stroke="black" cx="109.84" cy="-450" rx="109.681" ry="18"/>
<text text-anchor="middle" x="109.84" y="-446.3" font-family="Times New Roman,serif" font-size="14.00">http://example.org/matrix10</text>
</g>
<!-- http://example.org/disti_ak&#45;&gt;http://example.org/matrix10 -->
<g id="edge1" class="edge"><title>http://example.org/disti_ak&#45;&gt;http://example.org/matrix10</title>
<path fill="none" stroke="#f0f0f0" d="M339.945,-320.359C295.816,-345.029 201.205,-397.922 148.069,-427.628"/>
<polygon fill="#f0f0f0" stroke="#f0f0f0" points="146.302,-424.606 139.282,-432.541 149.718,-430.716 146.302,-424.606"/>
<text text-anchor="middle" x="339.737" y="-333.458" font-family="Times New Roman,serif" font-size="8.00" fill="#f0f0f0">der</text>
</g>
<!-- http://example.org/access9&#45;&gt;http://example.org/matrix10 -->
<g id="edge14" class="edge"><title>http://example.org/access9&#45;&gt;http://example.org/matrix10</title>
<path fill="none" stroke="#f0f0f0" d="M318.084,-388.008C281.008,-398.867 217.822,-417.374 170.751,-431.16"/>
<polygon fill="#f0f0f0" stroke="#f0f0f0" points="169.579,-427.856 160.966,-434.026 171.547,-434.574 169.579,-427.856"/>
<text text-anchor="middle" x="314.538" y="-400.683" font-family="Times New Roman,serif" font-size="8.00" fill="#f0f0f0">use</text>
</g>
<!-- http://example.org/disti -->
<g id="node4" class="node"><title>http://example.org/disti</title>
<ellipse fill="none" stroke="black" cx="330.84" cy="-450" rx="93.6835" ry="18"/>
<text text-anchor="middle" x="330.84" y="-446.3" font-family="Times New Roman,serif" font-size="14.00">http://example.org/disti</text>
</g>
<!-- http://example.org/access9&#45;&gt;http://example.org/disti -->
<g id="edge2" class="edge"><title>http://example.org/access9&#45;&gt;http://example.org/disti</title>
<path fill="none" stroke="#f0f0f0" d="M344.391,-396.303C342.385,-404.102 339.971,-413.491 337.739,-422.171"/>
<polygon fill="#f0f0f0" stroke="#f0f0f0" points="334.339,-421.339 335.239,-431.896 341.119,-423.082 334.339,-421.339"/>
<text text-anchor="middle" x="355.104" y="-404.902" font-family="Times New Roman,serif" font-size="8.00" fill="#f0f0f0">use</text>
</g>
<!-- http://example.org/k -->
<g id="node5" class="node"><title>http://example.org/k</title>
<ellipse fill="none" stroke="black" cx="525.84" cy="-450" rx="83.3857" ry="18"/>
<text text-anchor="middle" x="525.84" y="-446.3" font-family="Times New Roman,serif" font-size="14.00">http://example.org/k</text>
</g>
<!-- http://example.org/access9&#45;&gt;http://example.org/k -->
<g id="edge3" class="edge"><title>http://example.org/access9&#45;&gt;http://example.org/k</title>
<path fill="none" stroke="#f0f0f0" d="M379.671,-391.193C406.869,-401.949 446.937,-417.795 478.247,-430.178"/>
<polygon fill="#f0f0f0" stroke="#f0f0f0" points="477.072,-433.477 487.659,-433.9 479.647,-426.967 477.072,-433.477"/>
<text text-anchor="middle" x="391.423" y="-379.971" font-family="Times New Roman,serif" font-size="8.00" fill="#f0f0f0">use</text>
</g>
<!-- http://example.org/distk_aj -->
<g id="node6" class="node"><title>http://example.org/distk_aj</title>
<g id="a_node6"><a xlink:href="http://example.org/distk_aj" xlink:title="distk_aj">
<ellipse fill="#fafafa" stroke="#f0f0f0" cx="696.84" cy="-306" rx="38.9931" ry="18"/>
<text text-anchor="middle" x="696.84" y="-302.3" font-family="Times New Roman,serif" font-size="14.00" fill="#f0f0f0">distk_aj</text>
</a>
</g>
</g>
<!-- http://example.org/access10 -->
<g id="node7" class="node"><title>http://example.org/access10</title>
<g id="a_node7"><a xlink:href="http://example.org/access10" xlink:title="access10">
<polygon fill="#fafafa" stroke="#f0f0f0" points="803.84,-396 735.84,-396 735.84,-360 803.84,-360 803.84,-396"/>
<text text-anchor="middle" x="769.84" y="-374.3" font-family="Times New Roman,serif" font-size="14.00" fill="#f0f0f0">access10</text>
</a>
</g>
</g>
<!-- http://example.org/distk_aj&#45;&gt;http://example.org/access10 -->
<g id="edge17" class="edge"><title>http://example.org/distk_aj&#45;&gt;http://example.org/access10</title>
<path fill="none" stroke="#f0f0f0" d="M713.041,-322.535C722.303,-331.416 734.121,-342.748 744.576,-352.774"/>
<polygon fill="#f0f0f0" stroke="#f0f0f0" points="742.252,-355.394 751.892,-359.789 747.096,-350.342 742.252,-355.394"/>
<text text-anchor="middle" x="727.446" y="-316.45" font-family="Times New Roman,serif" font-size="8.00" fill="#f0f0f0">gen</text>
</g>
<!-- http://example.org/matrix02 -->
<g id="node8" class="node"><title>http://example.org/matrix02</title>
<ellipse fill="none" stroke="black" cx="736.84" cy="-450" rx="109.681" ry="18"/>
<text text-anchor="middle" x="736.84" y="-446.3" font-family="Times New Roman,serif" font-size="14.00">http://example.org/matrix02</text>
</g>
<!-- http://example.org/distk_aj&#45;&gt;http://example.org/matrix02 -->
<g id="edge4" class="edge"><title>http://example.org/distk_aj&#45;&gt;http://example.org/matrix02</title>
<path fill="none" stroke="#f0f0f0" d="M701.665,-324.129C708.512,-348.436 721.117,-393.181 729.231,-421.987"/>
<polygon fill="#f0f0f0" stroke="#f0f0f0" points="725.918,-423.134 731.998,-431.811 732.656,-421.236 725.918,-423.134"/>
<text text-anchor="middle" x="716.202" y="-325.925" font-family="Times New Roman,serif" font-size="8.00" fill="#f0f0f0">der</text>
</g>
<!-- http://example.org/access10&#45;&gt;http://example.org/matrix02 -->
<g id="edge10" class="edge"><title>http://example.org/access10&#45;&gt;http://example.org/matrix02</title>
<path fill="none" stroke="#f0f0f0" d="M761.683,-396.303C757.927,-404.272 753.387,-413.9 749.222,-422.736"/>
<polygon fill="#f0f0f0" stroke="#f0f0f0" points="746.002,-421.358 744.904,-431.896 752.334,-424.343 746.002,-421.358"/>
<text text-anchor="middle" x="770.235" y="-406.727" font-family="Times New Roman,serif" font-size="8.00" fill="#f0f0f0">use</text>
</g>
<!-- http://example.org/distk -->
<g id="node9" class="node"><title>http://example.org/distk</title>
<ellipse fill="none" stroke="black" cx="960.84" cy="-450" rx="96.3833" ry="18"/>
<text text-anchor="middle" x="960.84" y="-446.3" font-family="Times New Roman,serif" font-size="14.00">http://example.org/distk</text>
</g>
<!-- http://example.org/access10&#45;&gt;http://example.org/distk -->
<g id="edge5" class="edge"><title>http://example.org/access10&#45;&gt;http://example.org/distk</title>
<path fill="none" stroke="#f0f0f0" d="M803.987,-391.515C833.286,-402.252 875.944,-417.886 909.38,-430.14"/>
<polygon fill="#f0f0f0" stroke="#f0f0f0" points="908.397,-433.508 918.991,-433.663 910.806,-426.935 908.397,-433.508"/>
<text text-anchor="middle" x="815.499" y="-379.998" font-family="Times New Roman,serif" font-size="8.00" fill="#f0f0f0">use</text>
</g>
<!-- http://example.org/j#3 -->
<g id="node10" class="node"><title>http://example.org/j#3</title>
<ellipse fill="none" stroke="black" cx="1164.84" cy="-450" rx="89.8845" ry="18"/>
<text text-anchor="middle" x="1164.84" y="-446.3" font-family="Times New Roman,serif" font-size="14.00">http://example.org/j#3</text>
</g>
<!-- http://example.org/access10&#45;&gt;http://example.org/j#3 -->
<g id="edge6" class="edge"><title>http://example.org/access10&#45;&gt;http://example.org/j#3</title>
<path fill="none" stroke="#f0f0f0" d="M803.86,-385.029C867.132,-396.242 1004.26,-420.543 1090.11,-435.756"/>
<polygon fill="#f0f0f0" stroke="#f0f0f0" points="1089.6,-439.22 1100.05,-437.519 1090.82,-432.327 1089.6,-439.22"/>
<text text-anchor="middle" x="813.511" y="-371.646" font-family="Times New Roman,serif" font-size="8.00" fill="#f0f0f0">use</text>
</g>
<!-- http://example.org/sum -->
<g id="node11" class="node"><title>http://example.org/sum</title>
<g id="a_node11"><a xlink:href="http://example.org/sum" xlink:title="sum">
<ellipse fill="#fafafa" stroke="#f0f0f0" cx="593.84" cy="-162" rx="27" ry="18"/>
<text text-anchor="middle" x="593.84" y="-158.3" font-family="Times New Roman,serif" font-size="14.00" fill="#f0f0f0">sum</text>
</a>
</g>
</g>
<!-- http://example.org/sum&#45;&gt;http://example.org/disti_ak -->
<g id="edge7" class="edge"><title>http://example.org/sum&#45;&gt;http://example.org/disti_ak</title>
<path fill="none" stroke="#f0f0f0" d="M574.626,-174.863C534.866,-199.41 443.253,-255.971 394.949,-285.794"/>
<polygon fill="#f0f0f0" stroke="#f0f0f0" points="392.845,-282.979 386.175,-291.211 396.522,-288.936 392.845,-282.979"/>
<text text-anchor="middle" x="575.069" y="-187.956" font-family="Times New Roman,serif" font-size="8.00" fill="#f0f0f0">der</text>
</g>
<!-- http://example.org/sum&#45;&gt;http://example.org/distk_aj -->
<g id="edge8" class="edge"><title>http://example.org/sum&#45;&gt;http://example.org/distk_aj</title>
<path fill="none" stroke="#f0f0f0" d="M605.059,-178.467C622.826,-202.96 657.596,-250.897 678.868,-280.223"/>
<polygon fill="#f0f0f0" stroke="#f0f0f0" points="676.298,-282.641 685.003,-288.68 681.964,-278.531 676.298,-282.641"/>
<text text-anchor="middle" x="619.978" y="-175.011" font-family="Times New Roman,serif" font-size="8.00" fill="#f0f0f0">der</text>
</g>
<!-- http://example.org/+1 -->
<g id="node12" class="node"><title>http://example.org/+1</title>
<g id="a_node12"><a xlink:href="http://example.org/+1" xlink:title="+1">
<polygon fill="#fafafa" stroke="#f0f0f0" points="620.84,-252 566.84,-252 566.84,-216 620.84,-216 620.84,-252"/>
<text text-anchor="middle" x="593.84" y="-230.3" font-family="Times New Roman,serif" font-size="14.00" fill="#f0f0f0">+1</text>
</a>
</g>
</g>
<!-- http://example.org/sum&#45;&gt;http://example.org/+1 -->
<g id="edge15" class="edge"><title>http://example.org/sum&#45;&gt;http://example.org/+1</title>
<path fill="none" stroke="#f0f0f0" d="M593.84,-180.303C593.84,-188.017 593.84,-197.288 593.84,-205.888"/>
<polygon fill="#f0f0f0" stroke="#f0f0f0" points="590.34,-205.896 593.84,-215.896 597.34,-205.896 590.34,-205.896"/>
<text text-anchor="middle" x="606.831" y="-185.903" font-family="Times New Roman,serif" font-size="8.00" fill="#f0f0f0">gen</text>
</g>
<!-- http://example.org/+1&#45;&gt;http://example.org/disti_ak -->
<g id="edge11" class="edge"><title>http://example.org/+1&#45;&gt;http://example.org/disti_ak</title>
<path fill="none" stroke="#f0f0f0" d="M566.553,-243.305C526.644,-255.451 452.036,-278.158 405.314,-292.378"/>
<polygon fill="#f0f0f0" stroke="#f0f0f0" points="404.052,-289.103 395.504,-295.363 406.09,-295.8 404.052,-289.103"/>
<text text-anchor="middle" x="563.16" y="-256.016" font-family="Times New Roman,serif" font-size="8.00" fill="#f0f0f0">use</text>
</g>
<!-- http://example.org/+1&#45;&gt;http://example.org/distk_aj -->
<g id="edge13" class="edge"><title>http://example.org/+1&#45;&gt;http://example.org/distk_aj</title>
<path fill="none" stroke="#f0f0f0" d="M619.037,-252.124C633.574,-262.004 651.934,-274.481 667.167,-284.834"/>
<polygon fill="#f0f0f0" stroke="#f0f0f0" points="665.485,-287.922 675.723,-290.648 669.419,-282.133 665.485,-287.922"/>
<text text-anchor="middle" x="632.542" y="-243.696" font-family="Times New Roman,serif" font-size="8.00" fill="#f0f0f0">use</text>
</g>
<!-- http://example.org/ikj -->
<g id="node13" class="node"><title>http://example.org/ikj</title>
<g id="a_node13"><a xlink:href="http://example.org/ikj" xlink:title="ikj">
<ellipse fill="#fafafa" stroke="#f0f0f0" cx="593.84" cy="-18" rx="27" ry="18"/>
<text text-anchor="middle" x="593.84" y="-14.3" font-family="Times New Roman,serif" font-size="14.00" fill="#f0f0f0">ikj</text>
</a>
</g>
</g>
<!-- http://example.org/ikj&#45;&gt;http://example.org/sum -->
<g id="edge9" class="edge"><title>http://example.org/ikj&#45;&gt;http://example.org/sum</title>
<path fill="none" stroke="#f0f0f0" d="M590.186,-36.0925C588.164,-46.4315 585.859,-59.9098 584.84,-72 583.496,-87.9434 583.496,-92.0566 584.84,-108 585.557,-116.501 586.909,-125.688 588.352,-133.988"/>
<polygon fill="#f0f0f0" stroke="#f0f0f0" points="584.926,-134.711 590.186,-143.908 591.809,-133.438 584.926,-134.711"/>
<text text-anchor="middle" x="601.527" y="-44.0101" font-family="Times New Roman,serif" font-size="8.00" fill="#f0f0f0">der</text>
</g>
<!-- http://example.org/assign9 -->
<g id="node14" class="node"><title>http://example.org/assign9</title>
<g id="a_node14"><a xlink:href="http://example.org/assign9" xlink:title="assign9">
<polygon fill="#fafafa" stroke="#f0f0f0" points="651.84,-108 593.84,-108 593.84,-72 651.84,-72 651.84,-108"/>
<text text-anchor="middle" x="622.84" y="-86.3" font-family="Times New Roman,serif" font-size="14.00" fill="#f0f0f0">assign9</text>
</a>
</g>
</g>
<!-- http://example.org/ikj&#45;&gt;http://example.org/assign9 -->
<g id="edge18" class="edge"><title>http://example.org/ikj&#45;&gt;http://example.org/assign9</title>
<path fill="none" stroke="#f0f0f0" d="M600.713,-35.589C604.009,-43.5461 608.041,-53.2779 611.756,-62.2443"/>
<polygon fill="#f0f0f0" stroke="#f0f0f0" points="608.551,-63.6543 615.612,-71.5532 615.018,-60.975 608.551,-63.6543"/>
<text text-anchor="middle" x="615.585" y="-35.646" font-family="Times New Roman,serif" font-size="8.00" fill="#f0f0f0">gen</text>
</g>
<!-- http://example.org/assign9&#45;&gt;http://example.org/sum -->
<g id="edge12" class="edge"><title>http://example.org/assign9&#45;&gt;http://example.org/sum</title>
<path fill="none" stroke="#f0f0f0" d="M615.672,-108.303C612.321,-116.391 608.262,-126.188 604.557,-135.131"/>
<polygon fill="#f0f0f0" stroke="#f0f0f0" points="601.321,-133.8 600.727,-144.378 607.788,-136.479 601.321,-133.8"/>
<text text-anchor="middle" x="624.802" y="-118.304" font-family="Times New Roman,serif" font-size="8.00" fill="#f0f0f0">use</text>
</g>
</g>
</svg>
