<?xml version="1.0" encoding="UTF-8" standalone="no"?>
<!DOCTYPE svg PUBLIC "-//W3C//DTD SVG 1.1//EN"
 "http://www.w3.org/Graphics/SVG/1.1/DTD/svg11.dtd">
<!-- Generated by graphviz version 2.38.0 (20140413.2041)
 -->
<!-- Title: PROV Pages: 1 -->
<svg width="1152pt" height="296pt"
 viewBox="0.00 0.00 1152.00 295.54" xmlns="http://www.w3.org/2000/svg" xmlns:xlink="http://www.w3.org/1999/xlink">
<g id="graph0" class="graph" transform="scale(0.968979 0.968979) rotate(0) translate(4 301)">
<title>PROV</title>
<polygon fill="white" stroke="none" points="-4,4 -4,-301 1184.88,-301 1184.88,4 -4,4"/>
<!-- http://example.org/dist#1 -->
<g id="node1" class="node"><title>http://example.org/dist#1</title>
<g id="a_node1"><a xlink:href="http://example.org/dist#1" xlink:title="dist#1">
<ellipse fill="#fffc87" stroke="#808080" cx="847.39" cy="-117" rx="33.2948" ry="18"/>
<text text-anchor="middle" x="847.39" y="-113.3" font-family="Times New Roman,serif" font-size="14.00">dist#1</text>
</a>
</g>
</g>
<!-- bn0 -->
<g id="node3" class="node"><title>bn0</title>
<ellipse fill="black" stroke="black" cx="543.39" cy="-198" rx="1.8" ry="1.8"/>
</g>
<!-- http://example.org/dist#1&#45;&gt;bn0 -->
<g id="edge2" class="edge"><title>http://example.org/dist#1&#45;&gt;bn0</title>
<path fill="none" stroke="black" d="M818.241,-125.575C745.719,-144.421 561.754,-192.228 544.667,-196.668"/>
<text text-anchor="middle" x="717.39" y="-155.6" font-family="Times New Roman,serif" font-size="8.00">der&#45;ins</text>
</g>
<!-- http://example.org/assign2 -->
<g id="node8" class="node"><title>http://example.org/assign2</title>
<g id="a_node8"><a xlink:href="http://example.org/assign2" xlink:title="assign2">
<polygon fill="#fafafa" stroke="#f0f0f0" points="877.39,-216 819.39,-216 819.39,-180 877.39,-180 877.39,-216"/>
<text text-anchor="middle" x="848.39" y="-194.3" font-family="Times New Roman,serif" font-size="14.00" fill="#f0f0f0">assign2</text>
</a>
</g>
</g>
<!-- http://example.org/dist#1&#45;&gt;http://example.org/assign2 -->
<g id="edge18" class="edge"><title>http://example.org/dist#1&#45;&gt;http://example.org/assign2</title>
<path fill="none" stroke="#f0f0f0" d="M847.607,-135.142C847.735,-145.287 847.901,-158.366 848.047,-169.883"/>
<polygon fill="#f0f0f0" stroke="#f0f0f0" points="844.547,-169.937 848.173,-179.892 851.546,-169.848 844.547,-169.937"/>
<text text-anchor="middle" x="860.691" y="-140.577" font-family="Times New Roman,serif" font-size="8.00" fill="#f0f0f0">gen</text>
</g>
<!-- http://example.org/matrix#1 -->
<g id="node9" class="node"><title>http://example.org/matrix#1</title>
<ellipse fill="none" stroke="black" cx="1070.39" cy="-279" rx="110.48" ry="18"/>
<text text-anchor="middle" x="1070.39" y="-275.3" font-family="Times New Roman,serif" font-size="14.00">http://example.org/matrix#1</text>
</g>
<!-- http://example.org/dist#1&#45;&gt;http://example.org/matrix#1 -->
<g id="edge7" class="edge"><title>http://example.org/dist#1&#45;&gt;http://example.org/matrix#1</title>
<path fill="none" stroke="#f0f0f0" d="M866.79,-131.919C905.395,-159.618 992.149,-221.863 1038.98,-255.465"/>
<polygon fill="#f0f0f0" stroke="#f0f0f0" points="1037.08,-258.406 1047.24,-261.392 1041.16,-252.718 1037.08,-258.406"/>
<text text-anchor="middle" x="880.456" y="-123.837" font-family="Times New Roman,serif" font-size="8.00" fill="#f0f0f0">der</text>
</g>
<!-- &#45;attrs0 -->
<g id="node2" class="node"><title>&#45;attrs0</title>
<polygon fill="none" stroke="gray" points="931.39,-62 753.39,-62 753.39,-0 937.39,-0 937.39,-56 931.39,-62"/>
<polyline fill="none" stroke="gray" points="931.39,-62 931.39,-56 "/>
<polyline fill="none" stroke="gray" points="937.39,-56 931.39,-56 "/>
<text text-anchor="start" x="763.39" y="-48" font-family="Times New Roman,serif" font-size="10.00">value:</text>
<text text-anchor="start" x="790.39" y="-48" font-family="Times New Roman,serif" font-size="10.00">[[0, 1, 4], [10000, 0, 2], [2, 10000, 0]]</text>
<text text-anchor="start" x="763.39" y="-35" font-family="Times New Roman,serif" font-size="10.00">type:</text>
<text text-anchor="start" x="790.39" y="-35" font-family="Times New Roman,serif" font-size="10.00">Dictionary</text>
<text text-anchor="start" x="763.39" y="-22" font-family="Times New Roman,serif" font-size="10.00">label:</text>
<text text-anchor="start" x="790.39" y="-22" font-family="Times New Roman,serif" font-size="10.00">dist</text>
<text text-anchor="start" x="763.39" y="-9" font-family="Times New Roman,serif" font-size="10.00">line:</text>
<text text-anchor="start" x="790.39" y="-9" font-family="Times New Roman,serif" font-size="10.00">2</text>
</g>
<!-- &#45;attrs0&#45;&gt;http://example.org/dist#1 -->
<g id="edge1" class="edge"><title>&#45;attrs0&#45;&gt;http://example.org/dist#1</title>
<path fill="none" stroke="gray" stroke-dasharray="5,2" d="M846.112,-62.3259C846.403,-74.5443 846.728,-88.1945 846.977,-98.6716"/>
</g>
<!-- http://example.org/empty -->
<g id="node4" class="node"><title>http://example.org/empty</title>
<ellipse fill="none" stroke="black" cx="594.39" cy="-279" rx="100.983" ry="18"/>
<text text-anchor="middle" x="594.39" y="-275.3" font-family="Times New Roman,serif" font-size="14.00">http://example.org/empty</text>
</g>
<!-- bn0&#45;&gt;http://example.org/empty -->
<g id="edge3" class="edge"><title>bn0&#45;&gt;http://example.org/empty</title>
<path fill="none" stroke="black" d="M543.054,-200.183C541.605,-205.54 536.314,-227.91 544.39,-243 546.858,-247.611 550.233,-251.745 554.073,-255.415"/>
<polygon fill="black" stroke="black" points="551.98,-258.226 561.917,-261.903 556.442,-252.832 551.98,-258.226"/>
<text text-anchor="middle" x="549.89" y="-236.6" font-family="Times New Roman,serif" font-size="8.00">der</text>
</g>
<!-- http://example.org/matrix0#1 -->
<g id="node5" class="node"><title>http://example.org/matrix0#1</title>
<ellipse fill="none" stroke="black" cx="114.39" cy="-279" rx="114.28" ry="18"/>
<text text-anchor="middle" x="114.39" y="-275.3" font-family="Times New Roman,serif" font-size="14.00">http://example.org/matrix0#1</text>
</g>
<!-- bn0&#45;&gt;http://example.org/matrix0#1 -->
<g id="edge4" class="edge"><title>bn0&#45;&gt;http://example.org/matrix0#1</title>
<path fill="none" stroke="black" d="M541.836,-199.286C521.879,-202.961 314.371,-241.174 195.989,-262.974"/>
<polygon fill="black" stroke="black" points="195.073,-259.583 185.872,-264.837 196.341,-266.468 195.073,-259.583"/>
<text text-anchor="middle" x="347.89" y="-236.6" font-family="Times New Roman,serif" font-size="8.00">[0]</text>
</g>
<!-- http://example.org/matrix1#1 -->
<g id="node6" class="node"><title>http://example.org/matrix1#1</title>
<ellipse fill="none" stroke="black" cx="361.39" cy="-279" rx="114.28" ry="18"/>
<text text-anchor="middle" x="361.39" y="-275.3" font-family="Times New Roman,serif" font-size="14.00">http://example.org/matrix1#1</text>
</g>
<!-- bn0&#45;&gt;http://example.org/matrix1#1 -->
<g id="edge5" class="edge"><title>bn0&#45;&gt;http://example.org/matrix1#1</title>
<path fill="none" stroke="black" d="M541.98,-199.422C533.075,-202.102 483.784,-217.186 445.39,-234 430.05,-240.718 413.639,-249.043 399.43,-256.639"/>
<polygon fill="black" stroke="black" points="397.573,-253.664 390.443,-261.501 400.904,-259.821 397.573,-253.664"/>
<text text-anchor="middle" x="450.89" y="-236.6" font-family="Times New Roman,serif" font-size="8.00">[1]</text>
</g>
<!-- http://example.org/matrix2#1 -->
<g id="node7" class="node"><title>http://example.org/matrix2#1</title>
<ellipse fill="none" stroke="black" cx="827.39" cy="-279" rx="114.28" ry="18"/>
<text text-anchor="middle" x="827.39" y="-275.3" font-family="Times New Roman,serif" font-size="14.00">http://example.org/matrix2#1</text>
</g>
<!-- bn0&#45;&gt;http://example.org/matrix2#1 -->
<g id="edge6" class="edge"><title>bn0&#45;&gt;http://example.org/matrix2#1</title>
<path fill="none" stroke="black" d="M544.253,-199.779C549.721,-204.671 580.295,-231.31 610.39,-243 622.361,-247.65 681.75,-257.088 735.375,-264.993"/>
<polygon fill="black" stroke="black" points="734.906,-268.461 745.308,-266.449 735.922,-261.535 734.906,-268.461"/>
<text text-anchor="middle" x="615.89" y="-236.6" font-family="Times New Roman,serif" font-size="8.00">[2]</text>
</g>
<!-- http://example.org/assign2&#45;&gt;http://example.org/matrix#1 -->
<g id="edge15" class="edge"><title>http://example.org/assign2&#45;&gt;http://example.org/matrix#1</title>
<path fill="none" stroke="#f0f0f0" d="M860.867,-216.129C868.609,-225.506 879.359,-236.506 891.39,-243 906.926,-251.387 942.893,-259.108 978.543,-265.153"/>
<polygon fill="#f0f0f0" stroke="#f0f0f0" points="978.135,-268.633 988.572,-266.812 979.278,-261.727 978.135,-268.633"/>
<text text-anchor="middle" x="875.631" y="-211.579" font-family="Times New Roman,serif" font-size="8.00" fill="#f0f0f0">use</text>
</g>
<!-- http://example.org/result#1 -->
<g id="node10" class="node"><title>http://example.org/result#1</title>
<g id="a_node10"><a xlink:href="http://example.org/result#1" xlink:title="result#1">
<ellipse fill="#fffc87" stroke="#808080" cx="1042.39" cy="-117" rx="39.7935" ry="18"/>
<text text-anchor="middle" x="1042.39" y="-113.3" font-family="Times New Roman,serif" font-size="14.00">result#1</text>
</a>
</g>
</g>
<!-- http://example.org/result#1&#45;&gt;http://example.org/matrix#1 -->
<g id="edge14" class="edge"><title>http://example.org/result#1&#45;&gt;http://example.org/matrix#1</title>
<path fill="none" stroke="#f0f0f0" d="M1045.39,-135.123C1050.25,-162.911 1059.9,-218.041 1065.68,-251.104"/>
<polygon fill="#f0f0f0" stroke="#f0f0f0" points="1062.24,-251.753 1067.41,-261 1069.14,-250.547 1062.24,-251.753"/>
<text text-anchor="middle" x="1059.48" y="-138.371" font-family="Times New Roman,serif" font-size="8.00" fill="#f0f0f0">der</text>
</g>
<!-- bn1 -->
<g id="node12" class="node"><title>bn1</title>
<ellipse fill="black" stroke="black" cx="645.39" cy="-198" rx="1.8" ry="1.8"/>
</g>
<!-- http://example.org/result#1&#45;&gt;bn1 -->
<g id="edge9" class="edge"><title>http://example.org/result#1&#45;&gt;bn1</title>
<path fill="none" stroke="black" d="M1006.81,-125.08C913.552,-143.638 667.768,-192.547 646.818,-196.716"/>
<text text-anchor="middle" x="868.39" y="-155.6" font-family="Times New Roman,serif" font-size="8.00">der&#45;ins</text>
</g>
<!-- http://example.org/assign3 -->
<g id="node13" class="node"><title>http://example.org/assign3</title>
<g id="a_node13"><a xlink:href="http://example.org/assign3" xlink:title="assign3">
<polygon fill="#fafafa" stroke="#f0f0f0" points="1127.39,-216 1069.39,-216 1069.39,-180 1127.39,-180 1127.39,-216"/>
<text text-anchor="middle" x="1098.39" y="-194.3" font-family="Times New Roman,serif" font-size="14.00" fill="#f0f0f0">assign3</text>
</a>
</g>
</g>
<!-- http://example.org/result#1&#45;&gt;http://example.org/assign3 -->
<g id="edge17" class="edge"><title>http://example.org/result#1&#45;&gt;http://example.org/assign3</title>
<path fill="none" stroke="#f0f0f0" d="M1053.99,-134.369C1061.57,-145.061 1071.63,-159.244 1080.25,-171.409"/>
<polygon fill="#f0f0f0" stroke="#f0f0f0" points="1077.58,-173.698 1086.22,-179.832 1083.29,-169.65 1077.58,-173.698"/>
<text text-anchor="middle" x="1068.93" y="-131.075" font-family="Times New Roman,serif" font-size="8.00" fill="#f0f0f0">gen</text>
</g>
<!-- &#45;attrs1 -->
<g id="node11" class="node"><title>&#45;attrs1</title>
<polygon fill="none" stroke="gray" points="1133.39,-62 955.39,-62 955.39,-0 1139.39,-0 1139.39,-56 1133.39,-62"/>
<polyline fill="none" stroke="gray" points="1133.39,-62 1133.39,-56 "/>
<polyline fill="none" stroke="gray" points="1139.39,-56 1133.39,-56 "/>
<text text-anchor="start" x="965.39" y="-48" font-family="Times New Roman,serif" font-size="10.00">value:</text>
<text text-anchor="start" x="992.39" y="-48" font-family="Times New Roman,serif" font-size="10.00">[[0, 1, 4], [10000, 0, 2], [2, 10000, 0]]</text>
<text text-anchor="start" x="965.39" y="-35" font-family="Times New Roman,serif" font-size="10.00">type:</text>
<text text-anchor="start" x="992.39" y="-35" font-family="Times New Roman,serif" font-size="10.00">Dictionary</text>
<text text-anchor="start" x="965.39" y="-22" font-family="Times New Roman,serif" font-size="10.00">label:</text>
<text text-anchor="start" x="992.39" y="-22" font-family="Times New Roman,serif" font-size="10.00">result</text>
<text text-anchor="start" x="965.39" y="-9" font-family="Times New Roman,serif" font-size="10.00">line:</text>
<text text-anchor="start" x="992.39" y="-9" font-family="Times New Roman,serif" font-size="10.00">2</text>
</g>
<!-- &#45;attrs1&#45;&gt;http://example.org/result#1 -->
<g id="edge8" class="edge"><title>&#45;attrs1&#45;&gt;http://example.org/result#1</title>
<path fill="none" stroke="gray" stroke-dasharray="5,2" d="M1045.58,-62.3259C1044.86,-74.5443 1044.04,-88.1945 1043.42,-98.6716"/>
</g>
<!-- bn1&#45;&gt;http://example.org/empty -->
<g id="edge10" class="edge"><title>bn1&#45;&gt;http://example.org/empty</title>
<path fill="none" stroke="black" d="M644.934,-200.139C642.846,-205.306 633.839,-226.975 623.39,-243 621.174,-246.398 618.679,-249.843 616.106,-253.178"/>
<polygon fill="black" stroke="black" points="613.223,-251.177 609.664,-261.156 618.67,-255.575 613.223,-251.177"/>
<text text-anchor="middle" x="633.89" y="-236.6" font-family="Times New Roman,serif" font-size="8.00">der</text>
</g>
<!-- bn1&#45;&gt;http://example.org/matrix0#1 -->
<g id="edge11" class="edge"><title>bn1&#45;&gt;http://example.org/matrix0#1</title>
<path fill="none" stroke="black" d="M643.893,-199.438C630.886,-203.223 535.604,-230.577 456.39,-243 360.345,-258.062 335.028,-250.394 238.39,-261 227.723,-262.171 216.558,-263.522 205.483,-264.941"/>
<polygon fill="black" stroke="black" points="204.819,-261.498 195.354,-266.261 205.723,-268.44 204.819,-261.498"/>
<text text-anchor="middle" x="509.89" y="-236.6" font-family="Times New Roman,serif" font-size="8.00">[0]</text>
</g>
<!-- bn1&#45;&gt;http://example.org/matrix1#1 -->
<g id="edge12" class="edge"><title>bn1&#45;&gt;http://example.org/matrix1#1</title>
<path fill="none" stroke="black" d="M644.409,-199.526C635.944,-204.064 575.058,-236.556 555.39,-243 535.822,-249.411 491.789,-257.528 450.612,-264.33"/>
<polygon fill="black" stroke="black" points="449.804,-260.916 440.5,-265.985 450.934,-267.824 449.804,-260.916"/>
<text text-anchor="middle" x="580.89" y="-236.6" font-family="Times New Roman,serif" font-size="8.00">[1]</text>
</g>
<!-- bn1&#45;&gt;http://example.org/matrix2#1 -->
<g id="edge13" class="edge"><title>bn1&#45;&gt;http://example.org/matrix2#1</title>
<path fill="none" stroke="black" d="M646.552,-199.504C656.677,-203.899 730.736,-236.046 780.883,-257.813"/>
<polygon fill="black" stroke="black" points="779.691,-261.111 790.258,-261.882 782.478,-254.69 779.691,-261.111"/>
<text text-anchor="middle" x="747.89" y="-236.6" font-family="Times New Roman,serif" font-size="8.00">[2]</text>
</g>
<!-- http://example.org/assign3&#45;&gt;http://example.org/matrix#1 -->
<g id="edge16" class="edge"><title>http://example.org/assign3&#45;&gt;http://example.org/matrix#1</title>
<path fill="none" stroke="#f0f0f0" d="M1092.31,-216.142C1088.68,-226.391 1083.99,-239.634 1079.88,-251.235"/>
<polygon fill="#f0f0f0" stroke="#f0f0f0" points="1076.5,-250.297 1076.45,-260.892 1083.09,-252.635 1076.5,-250.297"/>
<text text-anchor="middle" x="1102.05" y="-225.651" font-family="Times New Roman,serif" font-size="8.00" fill="#f0f0f0">use</text>
</g>
</g>
</svg>
