<?xml version="1.0" encoding="UTF-8" standalone="no"?>
<!DOCTYPE svg PUBLIC "-//W3C//DTD SVG 1.1//EN"
 "http://www.w3.org/Graphics/SVG/1.1/DTD/svg11.dtd">
<!-- Generated by graphviz version 2.38.0 (20140413.2041)
 -->
<!-- Title: %3 Pages: 1 -->
<svg width="125pt" height="218pt"
 viewBox="0.00 0.00 125.00 218.00" xmlns="http://www.w3.org/2000/svg" xmlns:xlink="http://www.w3.org/1999/xlink">
<g id="graph0" class="graph" transform="scale(1 1) rotate(0) translate(4 214)">
<title>%3</title>
<polygon fill="white" stroke="none" points="-4,4 -4,-214 121,-214 121,4 -4,4"/>
<!-- 0 -->
<g id="node1" class="node"><title>0</title>
<ellipse fill="none" stroke="black" cx="90" cy="-192" rx="27" ry="18"/>
<text text-anchor="middle" x="90" y="-188.3" font-family="Times New Roman,serif" font-size="14.00">0</text>
</g>
<!-- 1 -->
<g id="node2" class="node"><title>1</title>
<ellipse fill="none" stroke="black" cx="27" cy="-105" rx="27" ry="18"/>
<text text-anchor="middle" x="27" y="-101.3" font-family="Times New Roman,serif" font-size="14.00">1</text>
</g>
<!-- 0&#45;&gt;1 -->
<g id="edge1" class="edge"><title>0&#45;&gt;1</title>
<path fill="none" stroke="black" d="M78.4448,-175.41C68.9425,-162.589 55.3267,-144.219 44.4895,-129.597"/>
<polygon fill="black" stroke="black" points="47.2484,-127.441 38.4819,-121.491 41.6246,-131.609 47.2484,-127.441"/>
<text text-anchor="middle" x="66.5" y="-144.8" font-family="Times New Roman,serif" font-size="14.00">1</text>
</g>
<!-- 2 -->
<g id="node3" class="node"><title>2</title>
<ellipse fill="none" stroke="black" cx="90" cy="-18" rx="27" ry="18"/>
<text text-anchor="middle" x="90" y="-14.3" font-family="Times New Roman,serif" font-size="14.00">2</text>
</g>
<!-- 0&#45;&gt;2 -->
<g id="edge2" class="edge"><title>0&#45;&gt;2</title>
<path fill="none" stroke="black" d="M90,-173.879C90,-144.001 90,-82.1129 90,-46.2736"/>
<polygon fill="black" stroke="black" points="93.5001,-46.0516 90,-36.0516 86.5001,-46.0516 93.5001,-46.0516"/>
<text text-anchor="middle" x="93.5" y="-101.3" font-family="Times New Roman,serif" font-size="14.00">4</text>
</g>
<!-- 1&#45;&gt;2 -->
<g id="edge3" class="edge"><title>1&#45;&gt;2</title>
<path fill="none" stroke="black" d="M38.5552,-88.4097C48.0575,-75.5891 61.6733,-57.2186 72.5105,-42.597"/>
<polygon fill="black" stroke="black" points="75.3754,-44.6095 78.5181,-34.4915 69.7516,-40.4413 75.3754,-44.6095"/>
<text text-anchor="middle" x="66.5" y="-57.8" font-family="Times New Roman,serif" font-size="14.00">2</text>
</g>
<!-- 2&#45;&gt;0 -->
<g id="edge4" class="edge"><title>2&#45;&gt;0</title>
<path fill="none" stroke="black" d="M98.0299,-35.3427C100.451,-41.097 102.787,-47.7021 104,-54 112.573,-98.5154 112.573,-111.485 104,-156 103.413,-159.051 102.562,-162.173 101.565,-165.236"/>
<polygon fill="black" stroke="black" points="98.2663,-164.065 98.0299,-174.657 104.82,-166.524 98.2663,-164.065"/>
<text text-anchor="middle" x="113.5" y="-101.3" font-family="Times New Roman,serif" font-size="14.00">2</text>
</g>
</g>
</svg>
