<?xml version="1.0" encoding="UTF-8" standalone="no"?>
<!DOCTYPE svg PUBLIC "-//W3C//DTD SVG 1.1//EN"
 "http://www.w3.org/Graphics/SVG/1.1/DTD/svg11.dtd">
<!-- Generated by graphviz version 2.38.0 (20140413.2041)
 -->
<!-- Title: PROV Pages: 1 -->
<svg width="567pt" height="601pt"
 viewBox="0.00 0.00 566.50 601.00" xmlns="http://www.w3.org/2000/svg" xmlns:xlink="http://www.w3.org/1999/xlink">
<g id="graph0" class="graph" transform="scale(1 1) rotate(0) translate(4 597)">
<title>PROV</title>
<polygon fill="white" stroke="none" points="-4,4 -4,-597 562.5,-597 562.5,4 -4,4"/>
<!-- http://example.org/m -->
<g id="node1" class="node"><title>http://example.org/m</title>
<g id="a_node1"><a xlink:href="http://example.org/m" xlink:title="m">
<ellipse fill="#fffc87" stroke="#808080" cx="187" cy="-575" rx="27" ry="18"/>
<text text-anchor="middle" x="187" y="-571.3" font-family="Times New Roman,serif" font-size="14.00">m</text>
</a>
</g>
</g>
<!-- &#45;attrs0 -->
<g id="node2" class="node"><title>&#45;attrs0</title>
<polygon fill="none" stroke="gray" points="152.5,-476 31.5,-476 31.5,-414 158.5,-414 158.5,-470 152.5,-476"/>
<polyline fill="none" stroke="gray" points="152.5,-476 152.5,-470 "/>
<polyline fill="none" stroke="gray" points="158.5,-470 152.5,-470 "/>
<text text-anchor="start" x="42" y="-462" font-family="Times New Roman,serif" font-size="10.00">value:</text>
<text text-anchor="start" x="117" y="-462" font-family="Times New Roman,serif" font-size="10.00">&quot;10000&quot;</text>
<text text-anchor="start" x="42" y="-449" font-family="Times New Roman,serif" font-size="10.00">type:</text>
<text text-anchor="start" x="117" y="-449" font-family="Times New Roman,serif" font-size="10.00">&quot;name&quot;</text>
<text text-anchor="start" x="42" y="-436" font-family="Times New Roman,serif" font-size="10.00">label:</text>
<text text-anchor="start" x="117" y="-436" font-family="Times New Roman,serif" font-size="10.00">&quot;m&quot;</text>
<text text-anchor="start" x="42" y="-423" font-family="Times New Roman,serif" font-size="10.00">generatedAtTime:</text>
<text text-anchor="start" x="117" y="-423" font-family="Times New Roman,serif" font-size="10.00">&quot;T2&quot;</text>
</g>
<!-- &#45;attrs0&#45;&gt;http://example.org/m -->
<g id="edge1" class="edge"><title>&#45;attrs0&#45;&gt;http://example.org/m</title>
<path fill="none" stroke="gray" stroke-dasharray="5,2" d="M116.57,-476.01C135.158,-501.873 161.245,-538.167 175.892,-558.545"/>
</g>
<!-- http://example.org/sum -->
<g id="node3" class="node"><title>http://example.org/sum</title>
<g id="a_node3"><a xlink:href="http://example.org/sum" xlink:title="sum">
<ellipse fill="#fffc87" stroke="#808080" cx="372" cy="-575" rx="27" ry="18"/>
<text text-anchor="middle" x="372" y="-571.3" font-family="Times New Roman,serif" font-size="14.00">sum</text>
</a>
</g>
</g>
<!-- &#45;attrs1 -->
<g id="node4" class="node"><title>&#45;attrs1</title>
<polygon fill="none" stroke="gray" points="464.5,-476 327.5,-476 327.5,-414 470.5,-414 470.5,-470 464.5,-476"/>
<polyline fill="none" stroke="gray" points="464.5,-476 464.5,-470 "/>
<polyline fill="none" stroke="gray" points="470.5,-470 464.5,-470 "/>
<text text-anchor="start" x="338" y="-462" font-family="Times New Roman,serif" font-size="10.00">value:</text>
<text text-anchor="start" x="413" y="-462" font-family="Times New Roman,serif" font-size="10.00">&quot;10001&quot;</text>
<text text-anchor="start" x="338" y="-449" font-family="Times New Roman,serif" font-size="10.00">type:</text>
<text text-anchor="start" x="413" y="-449" font-family="Times New Roman,serif" font-size="10.00">&quot;operation&quot;</text>
<text text-anchor="start" x="338" y="-436" font-family="Times New Roman,serif" font-size="10.00">label:</text>
<text text-anchor="start" x="413" y="-436" font-family="Times New Roman,serif" font-size="10.00">&quot;m + 1&quot;</text>
<text text-anchor="start" x="338" y="-423" font-family="Times New Roman,serif" font-size="10.00">generatedAtTime:</text>
<text text-anchor="start" x="413" y="-423" font-family="Times New Roman,serif" font-size="10.00">&quot;T4&quot;</text>
</g>
<!-- &#45;attrs1&#45;&gt;http://example.org/sum -->
<g id="edge2" class="edge"><title>&#45;attrs1&#45;&gt;http://example.org/sum</title>
<path fill="none" stroke="gray" stroke-dasharray="5,2" d="M396.068,-476.052C393.885,-494.422 390.344,-518.289 385,-539 383.413,-545.151 381.136,-551.722 378.93,-557.489"/>
</g>
<!-- http://example.org/list -->
<g id="node5" class="node"><title>http://example.org/list</title>
<g id="a_node5"><a xlink:href="http://example.org/list" xlink:title="list">
<ellipse fill="#fffc87" stroke="#808080" cx="282" cy="-445" rx="27" ry="18"/>
<text text-anchor="middle" x="282" y="-441.3" font-family="Times New Roman,serif" font-size="14.00">list</text>
</a>
</g>
</g>
<!-- http://example.org/list&#45;&gt;http://example.org/m -->
<g id="edge4" class="edge"><title>http://example.org/list&#45;&gt;http://example.org/m</title>
<path fill="none" stroke="darkgreen" d="M262.553,-457.591C249.386,-466.25 232.38,-479.122 221,-494 214.254,-502.819 204.031,-527.928 196.556,-547.689"/>
<polygon fill="darkgreen" stroke="darkgreen" points="193.246,-546.55 193.033,-557.142 199.805,-548.994 193.246,-546.55"/>
<text text-anchor="middle" x="240.5" y="-527.8" font-family="Times New Roman,serif" font-size="14.00">der&#45;ins</text>
<text text-anchor="middle" x="240.5" y="-512.8" font-family="Times New Roman,serif" font-size="14.00">[0]</text>
<text text-anchor="middle" x="240.5" y="-497.8" font-family="Times New Roman,serif" font-size="14.00">T5</text>
</g>
<!-- http://example.org/list&#45;&gt;http://example.org/m -->
<g id="edge6" class="edge"><title>http://example.org/list&#45;&gt;http://example.org/m</title>
<path fill="none" stroke="darkgreen" d="M282.198,-463.356C281.542,-483.627 277.588,-517.162 260,-539 250.352,-550.979 235.612,-559.113 221.897,-564.499"/>
<polygon fill="darkgreen" stroke="darkgreen" points="220.431,-561.306 212.179,-567.952 222.774,-567.902 220.431,-561.306"/>
<text text-anchor="middle" x="298.5" y="-527.8" font-family="Times New Roman,serif" font-size="14.00">der&#45;ins</text>
<text text-anchor="middle" x="298.5" y="-512.8" font-family="Times New Roman,serif" font-size="14.00">[2]</text>
<text text-anchor="middle" x="298.5" y="-497.8" font-family="Times New Roman,serif" font-size="14.00">T5</text>
</g>
<!-- http://example.org/list&#45;&gt;http://example.org/sum -->
<g id="edge5" class="edge"><title>http://example.org/list&#45;&gt;http://example.org/sum</title>
<path fill="none" stroke="darkgreen" d="M296.579,-460.628C305.058,-469.689 315.514,-481.878 323,-494 334.407,-512.471 330.577,-520.538 342,-539 344.65,-543.283 347.811,-547.576 351.07,-551.615"/>
<polygon fill="darkgreen" stroke="darkgreen" points="348.614,-554.129 357.768,-559.463 353.939,-549.584 348.614,-554.129"/>
<text text-anchor="middle" x="361.5" y="-527.8" font-family="Times New Roman,serif" font-size="14.00">der&#45;ins</text>
<text text-anchor="middle" x="361.5" y="-512.8" font-family="Times New Roman,serif" font-size="14.00">[1]</text>
<text text-anchor="middle" x="361.5" y="-497.8" font-family="Times New Roman,serif" font-size="14.00">T5</text>
</g>
<!-- &#45;attrs2 -->
<g id="node6" class="node"><title>&#45;attrs2</title>
<polygon fill="none" stroke="gray" points="552.5,-333 371.5,-333 371.5,-271 558.5,-271 558.5,-327 552.5,-333"/>
<polyline fill="none" stroke="gray" points="552.5,-333 552.5,-327 "/>
<polyline fill="none" stroke="gray" points="558.5,-327 552.5,-327 "/>
<text text-anchor="start" x="382" y="-319" font-family="Times New Roman,serif" font-size="10.00">value:</text>
<text text-anchor="start" x="457" y="-319" font-family="Times New Roman,serif" font-size="10.00">&quot;[10000, 10001, 10000]&quot;</text>
<text text-anchor="start" x="382" y="-306" font-family="Times New Roman,serif" font-size="10.00">type:</text>
<text text-anchor="start" x="457" y="-306" font-family="Times New Roman,serif" font-size="10.00">&quot;list&quot;</text>
<text text-anchor="start" x="382" y="-293" font-family="Times New Roman,serif" font-size="10.00">label:</text>
<text text-anchor="start" x="457" y="-293" font-family="Times New Roman,serif" font-size="10.00">&quot;[m, m + 1, m]&quot;</text>
<text text-anchor="start" x="382" y="-280" font-family="Times New Roman,serif" font-size="10.00">generatedAtTime:</text>
<text text-anchor="start" x="457" y="-280" font-family="Times New Roman,serif" font-size="10.00">&quot;T5&quot;</text>
</g>
<!-- &#45;attrs2&#45;&gt;http://example.org/list -->
<g id="edge3" class="edge"><title>&#45;attrs2&#45;&gt;http://example.org/list</title>
<path fill="none" stroke="gray" stroke-dasharray="5,2" d="M424.043,-333.107C394.329,-355.146 353.322,-385.973 318,-414 311.372,-419.259 304.188,-425.196 297.993,-430.393"/>
</g>
<!-- http://example.org/d -->
<g id="node7" class="node"><title>http://example.org/d</title>
<g id="a_node7"><a xlink:href="http://example.org/d" xlink:title="d">
<ellipse fill="#fffc87" stroke="#808080" cx="254" cy="-302" rx="27" ry="18"/>
<text text-anchor="middle" x="254" y="-298.3" font-family="Times New Roman,serif" font-size="14.00">d</text>
</a>
</g>
</g>
<!-- http://example.org/d&#45;&gt;http://example.org/list -->
<g id="edge8" class="edge"><title>http://example.org/d&#45;&gt;http://example.org/list</title>
<path fill="none" stroke="darkgreen" d="M257.377,-320.008C262.15,-344.039 270.916,-388.185 276.599,-416.8"/>
<polygon fill="darkgreen" stroke="darkgreen" points="273.23,-417.805 278.611,-426.932 280.096,-416.442 273.23,-417.805"/>
<text text-anchor="middle" x="291.5" y="-377.3" font-family="Times New Roman,serif" font-size="14.00">der ref</text>
<text text-anchor="middle" x="291.5" y="-362.3" font-family="Times New Roman,serif" font-size="14.00">T6</text>
</g>
<!-- &#45;attrs3 -->
<g id="node8" class="node"><title>&#45;attrs3</title>
<polygon fill="none" stroke="gray" points="209.5,-234 28.5,-234 28.5,-172 215.5,-172 215.5,-228 209.5,-234"/>
<polyline fill="none" stroke="gray" points="209.5,-234 209.5,-228 "/>
<polyline fill="none" stroke="gray" points="215.5,-228 209.5,-228 "/>
<text text-anchor="start" x="39" y="-220" font-family="Times New Roman,serif" font-size="10.00">value:</text>
<text text-anchor="start" x="114" y="-220" font-family="Times New Roman,serif" font-size="10.00">&quot;[10000, 10001, 10000]&quot;</text>
<text text-anchor="start" x="39" y="-207" font-family="Times New Roman,serif" font-size="10.00">type:</text>
<text text-anchor="start" x="114" y="-207" font-family="Times New Roman,serif" font-size="10.00">&quot;name&quot;</text>
<text text-anchor="start" x="39" y="-194" font-family="Times New Roman,serif" font-size="10.00">label:</text>
<text text-anchor="start" x="114" y="-194" font-family="Times New Roman,serif" font-size="10.00">&quot;d&quot;</text>
<text text-anchor="start" x="39" y="-181" font-family="Times New Roman,serif" font-size="10.00">generatedAtTime:</text>
<text text-anchor="start" x="114" y="-181" font-family="Times New Roman,serif" font-size="10.00">&quot;T6&quot;</text>
</g>
<!-- &#45;attrs3&#45;&gt;http://example.org/d -->
<g id="edge7" class="edge"><title>&#45;attrs3&#45;&gt;http://example.org/d</title>
<path fill="none" stroke="gray" stroke-dasharray="5,2" d="M163.042,-234.16C187.714,-252.29 217.843,-274.43 236.478,-288.124"/>
</g>
<!-- http://example.org/0 -->
<g id="node9" class="node"><title>http://example.org/0</title>
<g id="a_node9"><a xlink:href="http://example.org/0" xlink:title="0">
<ellipse fill="#fffc87" stroke="#808080" cx="326" cy="-302" rx="27" ry="18"/>
<text text-anchor="middle" x="326" y="-298.3" font-family="Times New Roman,serif" font-size="14.00">0</text>
</a>
</g>
</g>
<!-- &#45;attrs4 -->
<g id="node10" class="node"><title>&#45;attrs4</title>
<polygon fill="none" stroke="gray" points="433,-227.5 313,-227.5 313,-178.5 439,-178.5 439,-221.5 433,-227.5"/>
<polyline fill="none" stroke="gray" points="433,-227.5 433,-221.5 "/>
<polyline fill="none" stroke="gray" points="439,-221.5 433,-221.5 "/>
<text text-anchor="start" x="323" y="-213" font-family="Times New Roman,serif" font-size="10.00">value:</text>
<text text-anchor="start" x="398" y="-213" font-family="Times New Roman,serif" font-size="10.00">&quot;0&quot;</text>
<text text-anchor="start" x="323" y="-200" font-family="Times New Roman,serif" font-size="10.00">type:</text>
<text text-anchor="start" x="398" y="-200" font-family="Times New Roman,serif" font-size="10.00">&quot;literal&quot;</text>
<text text-anchor="start" x="323" y="-187" font-family="Times New Roman,serif" font-size="10.00">generatedAtTime:</text>
<text text-anchor="start" x="398" y="-187" font-family="Times New Roman,serif" font-size="10.00">&quot;T9&quot;</text>
</g>
<!-- &#45;attrs4&#45;&gt;http://example.org/0 -->
<g id="edge9" class="edge"><title>&#45;attrs4&#45;&gt;http://example.org/0</title>
<path fill="none" stroke="gray" stroke-dasharray="5,2" d="M363.64,-227.978C354.56,-245.594 342.46,-269.067 334.46,-284.588"/>
</g>
<!-- http://example.org/d_ac0 -->
<g id="node11" class="node"><title>http://example.org/d_ac0</title>
<g id="a_node11"><a xlink:href="http://example.org/d_ac0" xlink:title="d_ac0">
<ellipse fill="#fffc87" stroke="#808080" cx="87" cy="-117" rx="33.2948" ry="18"/>
<text text-anchor="middle" x="87" y="-113.3" font-family="Times New Roman,serif" font-size="14.00">d_ac0</text>
</a>
</g>
</g>
<!-- http://example.org/d_ac0&#45;&gt;http://example.org/m -->
<g id="edge16" class="edge"><title>http://example.org/d_ac0&#45;&gt;http://example.org/m</title>
<path fill="none" stroke="darkgreen" d="M61.836,-129.164C36.1416,-142.476 0,-167.357 0,-202 0,-202 0,-202 0,-446 0,-518.627 97.2382,-553.07 151.477,-566.632"/>
<polygon fill="darkgreen" stroke="darkgreen" points="150.851,-570.081 161.391,-568.999 152.477,-563.272 150.851,-570.081"/>
<text text-anchor="middle" x="18.5" y="-305.8" font-family="Times New Roman,serif" font-size="14.00">der ref</text>
<text text-anchor="middle" x="18.5" y="-290.8" font-family="Times New Roman,serif" font-size="14.00">T10</text>
</g>
<!-- http://example.org/access1 -->
<g id="node13" class="node"><title>http://example.org/access1</title>
<g id="a_node13"><a xlink:href="http://example.org/access1" xlink:title="access1">
<polygon fill="#9fb1fc" stroke="#0000ff" points="294.5,-221 233.5,-221 233.5,-185 294.5,-185 294.5,-221"/>
<text text-anchor="middle" x="264" y="-199.3" font-family="Times New Roman,serif" font-size="14.00">access1</text>
</a>
</g>
</g>
<!-- http://example.org/d_ac0&#45;&gt;http://example.org/access1 -->
<g id="edge15" class="edge"><title>http://example.org/d_ac0&#45;&gt;http://example.org/access1</title>
<path fill="none" stroke="black" d="M115.282,-126.669C143.702,-135.943 188.29,-152.05 224,-172 227.666,-174.048 231.375,-176.393 234.979,-178.85"/>
<polygon fill="black" stroke="black" points="232.966,-181.713 243.131,-184.699 237.046,-176.026 232.966,-181.713"/>
<text text-anchor="middle" x="126.494" y="-114.805" font-family="Times New Roman,serif" font-size="8.00">gen</text>
</g>
<!-- &#45;attrs5 -->
<g id="node12" class="node"><title>&#45;attrs5</title>
<polygon fill="none" stroke="gray" points="147,-62 21,-62 21,-0 153,-0 153,-56 147,-62"/>
<polyline fill="none" stroke="gray" points="147,-62 147,-56 "/>
<polyline fill="none" stroke="gray" points="153,-56 147,-56 "/>
<text text-anchor="start" x="31" y="-48" font-family="Times New Roman,serif" font-size="10.00">value:</text>
<text text-anchor="start" x="106" y="-48" font-family="Times New Roman,serif" font-size="10.00">&quot;10000&quot;</text>
<text text-anchor="start" x="31" y="-35" font-family="Times New Roman,serif" font-size="10.00">type:</text>
<text text-anchor="start" x="106" y="-35" font-family="Times New Roman,serif" font-size="10.00">&quot;access&quot;</text>
<text text-anchor="start" x="31" y="-22" font-family="Times New Roman,serif" font-size="10.00">label:</text>
<text text-anchor="start" x="106" y="-22" font-family="Times New Roman,serif" font-size="10.00">&quot;d[0]&quot;</text>
<text text-anchor="start" x="31" y="-9" font-family="Times New Roman,serif" font-size="10.00">generatedAtTime:</text>
<text text-anchor="start" x="106" y="-9" font-family="Times New Roman,serif" font-size="10.00">&quot;T10&quot;</text>
</g>
<!-- &#45;attrs5&#45;&gt;http://example.org/d_ac0 -->
<g id="edge10" class="edge"><title>&#45;attrs5&#45;&gt;http://example.org/d_ac0</title>
<path fill="none" stroke="gray" stroke-dasharray="5,2" d="M87,-62.3259C87,-74.5443 87,-88.1945 87,-98.6716"/>
</g>
<!-- http://example.org/access1&#45;&gt;http://example.org/m -->
<g id="edge14" class="edge"><title>http://example.org/access1&#45;&gt;http://example.org/m</title>
<path fill="none" stroke="darkgreen" d="M248.642,-221.108C238.114,-233.896 224.855,-252.324 218,-271 182.542,-367.596 183.078,-492.414 185.375,-546.736"/>
<polygon fill="darkgreen" stroke="darkgreen" points="181.888,-547.107 185.863,-556.927 188.88,-546.771 181.888,-547.107"/>
<text text-anchor="middle" x="209" y="-384.8" font-family="Times New Roman,serif" font-size="14.00">use</text>
<text text-anchor="middle" x="209" y="-369.8" font-family="Times New Roman,serif" font-size="14.00">d[0]</text>
<text text-anchor="middle" x="209" y="-354.8" font-family="Times New Roman,serif" font-size="14.00">T10</text>
</g>
<!-- http://example.org/access1&#45;&gt;http://example.org/d -->
<g id="edge12" class="edge"><title>http://example.org/access1&#45;&gt;http://example.org/d</title>
<path fill="none" stroke="black" d="M262.212,-221.342C260.719,-235.825 258.563,-256.737 256.835,-273.501"/>
<polygon fill="black" stroke="black" points="253.316,-273.502 255.772,-283.808 260.279,-274.22 253.316,-273.502"/>
<text text-anchor="middle" x="274.365" y="-228.234" font-family="Times New Roman,serif" font-size="8.00">use</text>
</g>
<!-- http://example.org/access1&#45;&gt;http://example.org/0 -->
<g id="edge13" class="edge"><title>http://example.org/access1&#45;&gt;http://example.org/0</title>
<path fill="none" stroke="black" d="M275.084,-221.342C284.932,-236.748 299.429,-259.429 310.438,-276.652"/>
<polygon fill="black" stroke="black" points="307.499,-278.554 315.834,-285.094 313.397,-274.784 307.499,-278.554"/>
<text text-anchor="middle" x="290.069" y="-218.765" font-family="Times New Roman,serif" font-size="8.00">use</text>
</g>
<!-- &#45;attrs6 -->
<g id="node14" class="node"><title>&#45;attrs6</title>
<polygon fill="none" stroke="gray" points="298,-135 224,-135 224,-99 304,-99 304,-129 298,-135"/>
<polyline fill="none" stroke="gray" points="298,-135 298,-129 "/>
<polyline fill="none" stroke="gray" points="304,-129 298,-129 "/>
<text text-anchor="start" x="234" y="-114" font-family="Times New Roman,serif" font-size="10.00">type:</text>
<text text-anchor="start" x="257" y="-114" font-family="Times New Roman,serif" font-size="10.00">&quot;access&quot;</text>
</g>
<!-- &#45;attrs6&#45;&gt;http://example.org/access1 -->
<g id="edge11" class="edge"><title>&#45;attrs6&#45;&gt;http://example.org/access1</title>
<path fill="none" stroke="gray" stroke-dasharray="5,2" d="M264,-135.405C264,-149.917 264,-170.479 264,-184.905"/>
</g>
</g>
</svg>
