<?xml version="1.0" encoding="UTF-8" standalone="no"?>
<!DOCTYPE svg PUBLIC "-//W3C//DTD SVG 1.1//EN"
 "http://www.w3.org/Graphics/SVG/1.1/DTD/svg11.dtd">
<!-- Generated by graphviz version 2.38.0 (20140413.2041)
 -->
<!-- Title: PROV Pages: 1 -->
<svg width="311pt" height="302pt"
 viewBox="0.00 0.00 311.00 302.00" xmlns="http://www.w3.org/2000/svg" xmlns:xlink="http://www.w3.org/1999/xlink">
<g id="graph0" class="graph" transform="scale(1 1) rotate(0) translate(4 298)">
<title>PROV</title>
<polygon fill="white" stroke="none" points="-4,4 -4,-298 307,-298 307,4 -4,4"/>
<!-- http://example.org/10000 -->
<g id="node1" class="node"><title>http://example.org/10000</title>
<g id="a_node1"><a xlink:href="http://example.org/10000" xlink:title="10000">
<ellipse fill="#fffc87" stroke="#808080" cx="174.5" cy="-276" rx="32.4942" ry="18"/>
<text text-anchor="middle" x="174.5" y="-272.3" font-family="Times New Roman,serif" font-size="14.00">10000</text>
</a>
</g>
</g>
<!-- &#45;attrs0 -->
<g id="node2" class="node"><title>&#45;attrs0</title>
<polygon fill="none" stroke="gray" points="121,-221 -7.10543e-015,-221 -7.10543e-015,-172 127,-172 127,-215 121,-221"/>
<polyline fill="none" stroke="gray" points="121,-221 121,-215 "/>
<polyline fill="none" stroke="gray" points="127,-215 121,-215 "/>
<text text-anchor="start" x="10.5" y="-206.5" font-family="Times New Roman,serif" font-size="10.00">value:</text>
<text text-anchor="start" x="85.5" y="-206.5" font-family="Times New Roman,serif" font-size="10.00">&quot;10000&quot;</text>
<text text-anchor="start" x="10.5" y="-193.5" font-family="Times New Roman,serif" font-size="10.00">type:</text>
<text text-anchor="start" x="85.5" y="-193.5" font-family="Times New Roman,serif" font-size="10.00">&quot;literal&quot;</text>
<text text-anchor="start" x="10.5" y="-180.5" font-family="Times New Roman,serif" font-size="10.00">generatedAtTime:</text>
<text text-anchor="start" x="85.5" y="-180.5" font-family="Times New Roman,serif" font-size="10.00">&quot;T1&quot;</text>
</g>
<!-- &#45;attrs0&#45;&gt;http://example.org/10000 -->
<g id="edge1" class="edge"><title>&#45;attrs0&#45;&gt;http://example.org/10000</title>
<path fill="none" stroke="gray" stroke-dasharray="5,2" d="M97.4068,-221.174C116.279,-234.35 139.097,-250.281 154.991,-261.379"/>
</g>
<!-- http://example.org/m -->
<g id="node3" class="node"><title>http://example.org/m</title>
<g id="a_node3"><a xlink:href="http://example.org/m" xlink:title="m">
<ellipse fill="#fffc87" stroke="#808080" cx="239.5" cy="-117" rx="27" ry="18"/>
<text text-anchor="middle" x="239.5" y="-113.3" font-family="Times New Roman,serif" font-size="14.00">m</text>
</a>
</g>
</g>
<!-- http://example.org/m&#45;&gt;http://example.org/10000 -->
<g id="edge6" class="edge"><title>http://example.org/m&#45;&gt;http://example.org/10000</title>
<path fill="none" stroke="darkgreen" d="M236.951,-135.043C233.389,-156.004 225.815,-192.33 212.5,-221 207.597,-231.558 200.604,-242.236 193.951,-251.279"/>
<polygon fill="darkgreen" stroke="darkgreen" points="191.045,-249.318 187.757,-259.389 196.608,-253.567 191.045,-249.318"/>
<text text-anchor="middle" x="247" y="-200.3" font-family="Times New Roman,serif" font-size="14.00">der ref</text>
<text text-anchor="middle" x="247" y="-185.3" font-family="Times New Roman,serif" font-size="14.00">T2</text>
</g>
<!-- http://example.org/assign1 -->
<g id="node5" class="node"><title>http://example.org/assign1</title>
<g id="a_node5"><a xlink:href="http://example.org/assign1" xlink:title="assign1">
<polygon fill="#9fb1fc" stroke="#0000ff" points="203.5,-214.5 145.5,-214.5 145.5,-178.5 203.5,-178.5 203.5,-214.5"/>
<text text-anchor="middle" x="174.5" y="-192.8" font-family="Times New Roman,serif" font-size="14.00">assign1</text>
</a>
</g>
</g>
<!-- http://example.org/m&#45;&gt;http://example.org/assign1 -->
<g id="edge5" class="edge"><title>http://example.org/m&#45;&gt;http://example.org/assign1</title>
<path fill="none" stroke="black" d="M226.658,-133.312C217.735,-143.95 205.646,-158.365 195.352,-170.637"/>
<polygon fill="black" stroke="black" points="192.644,-168.421 188.899,-178.332 198.007,-172.919 192.644,-168.421"/>
<text text-anchor="middle" x="231.792" y="-145.506" font-family="Times New Roman,serif" font-size="8.00">gen</text>
</g>
<!-- &#45;attrs1 -->
<g id="node4" class="node"><title>&#45;attrs1</title>
<polygon fill="none" stroke="gray" points="297,-62 176,-62 176,-0 303,-0 303,-56 297,-62"/>
<polyline fill="none" stroke="gray" points="297,-62 297,-56 "/>
<polyline fill="none" stroke="gray" points="303,-56 297,-56 "/>
<text text-anchor="start" x="186.5" y="-48" font-family="Times New Roman,serif" font-size="10.00">value:</text>
<text text-anchor="start" x="261.5" y="-48" font-family="Times New Roman,serif" font-size="10.00">&quot;10000&quot;</text>
<text text-anchor="start" x="186.5" y="-35" font-family="Times New Roman,serif" font-size="10.00">type:</text>
<text text-anchor="start" x="261.5" y="-35" font-family="Times New Roman,serif" font-size="10.00">&quot;name&quot;</text>
<text text-anchor="start" x="186.5" y="-22" font-family="Times New Roman,serif" font-size="10.00">label:</text>
<text text-anchor="start" x="261.5" y="-22" font-family="Times New Roman,serif" font-size="10.00">&quot;m&quot;</text>
<text text-anchor="start" x="186.5" y="-9" font-family="Times New Roman,serif" font-size="10.00">generatedAtTime:</text>
<text text-anchor="start" x="261.5" y="-9" font-family="Times New Roman,serif" font-size="10.00">&quot;T2&quot;</text>
</g>
<!-- &#45;attrs1&#45;&gt;http://example.org/m -->
<g id="edge2" class="edge"><title>&#45;attrs1&#45;&gt;http://example.org/m</title>
<path fill="none" stroke="gray" stroke-dasharray="5,2" d="M239.5,-62.3259C239.5,-74.5443 239.5,-88.1945 239.5,-98.6716"/>
</g>
<!-- http://example.org/assign1&#45;&gt;http://example.org/10000 -->
<g id="edge4" class="edge"><title>http://example.org/assign1&#45;&gt;http://example.org/10000</title>
<path fill="none" stroke="black" d="M174.5,-214.7C174.5,-224.432 174.5,-236.824 174.5,-247.84"/>
<polygon fill="black" stroke="black" points="171,-247.848 174.5,-257.848 178,-247.848 171,-247.848"/>
<text text-anchor="middle" x="187.49" y="-220.3" font-family="Times New Roman,serif" font-size="8.00">use</text>
</g>
<!-- &#45;attrs2 -->
<g id="node6" class="node"><title>&#45;attrs2</title>
<polygon fill="none" stroke="gray" points="188,-135 115,-135 115,-99 194,-99 194,-129 188,-135"/>
<polyline fill="none" stroke="gray" points="188,-135 188,-129 "/>
<polyline fill="none" stroke="gray" points="194,-129 188,-129 "/>
<text text-anchor="start" x="125.5" y="-114" font-family="Times New Roman,serif" font-size="10.00">type:</text>
<text text-anchor="start" x="148.5" y="-114" font-family="Times New Roman,serif" font-size="10.00">&quot;assign&quot;</text>
</g>
<!-- &#45;attrs2&#45;&gt;http://example.org/assign1 -->
<g id="edge3" class="edge"><title>&#45;attrs2&#45;&gt;http://example.org/assign1</title>
<path fill="none" stroke="gray" stroke-dasharray="5,2" d="M158.939,-135.2C162.253,-148.043 166.762,-165.517 170.074,-178.348"/>
</g>
</g>
</svg>
