<?xml version="1.0" encoding="UTF-8" standalone="no"?>
<!DOCTYPE svg PUBLIC "-//W3C//DTD SVG 1.1//EN"
 "http://www.w3.org/Graphics/SVG/1.1/DTD/svg11.dtd">
<!-- Generated by graphviz version 2.38.0 (20140413.2041)
 -->
<!-- Title: PROV Pages: 1 -->
<svg width="425pt" height="414pt"
 viewBox="0.00 0.00 425.00 414.00" xmlns="http://www.w3.org/2000/svg" xmlns:xlink="http://www.w3.org/1999/xlink">
<g id="graph0" class="graph" transform="scale(1 1) rotate(0) translate(4 410)">
<title>PROV</title>
<polygon fill="white" stroke="none" points="-4,4 -4,-410 421,-410 421,4 -4,4"/>
<!-- http://example.org/n10000 -->
<g id="node1" class="node"><title>http://example.org/n10000</title>
<g id="a_node1"><a xlink:href="http://example.org/n10000" xlink:title="n10000">
<ellipse fill="#fffc87" stroke="#808080" cx="130.5" cy="-388" rx="37.0935" ry="18"/>
<text text-anchor="middle" x="130.5" y="-384.3" font-family="Times New Roman,serif" font-size="14.00">n10000</text>
</a>
</g>
</g>
<!-- &#45;attrs0 -->
<g id="node2" class="node"><title>&#45;attrs0</title>
<polygon fill="none" stroke="gray" points="121,-304 -7.10543e-015,-304 -7.10543e-015,-242 127,-242 127,-298 121,-304"/>
<polyline fill="none" stroke="gray" points="121,-304 121,-298 "/>
<polyline fill="none" stroke="gray" points="127,-298 121,-298 "/>
<text text-anchor="start" x="10.5" y="-290" font-family="Times New Roman,serif" font-size="10.00">value:</text>
<text text-anchor="start" x="85.5" y="-290" font-family="Times New Roman,serif" font-size="10.00">&quot;10000&quot;</text>
<text text-anchor="start" x="10.5" y="-277" font-family="Times New Roman,serif" font-size="10.00">type:</text>
<text text-anchor="start" x="85.5" y="-277" font-family="Times New Roman,serif" font-size="10.00">&quot;literal&quot;</text>
<text text-anchor="start" x="10.5" y="-264" font-family="Times New Roman,serif" font-size="10.00">label:</text>
<text text-anchor="start" x="85.5" y="-264" font-family="Times New Roman,serif" font-size="10.00">&quot;10000&quot;</text>
<text text-anchor="start" x="10.5" y="-251" font-family="Times New Roman,serif" font-size="10.00">generatedAtTime:</text>
<text text-anchor="start" x="85.5" y="-251" font-family="Times New Roman,serif" font-size="10.00">&quot;T1&quot;</text>
</g>
<!-- &#45;attrs0&#45;&gt;http://example.org/n10000 -->
<g id="edge1" class="edge"><title>&#45;attrs0&#45;&gt;http://example.org/n10000</title>
<path fill="none" stroke="gray" stroke-dasharray="5,2" d="M81.4548,-304.282C94.0912,-325.594 110.519,-353.301 120.788,-370.62"/>
</g>
<!-- http://example.org/m1 -->
<g id="node3" class="node"><title>http://example.org/m1</title>
<g id="a_node3"><a xlink:href="http://example.org/m1" xlink:title="m1">
<ellipse fill="#fffc87" stroke="#808080" cx="275.5" cy="-273" rx="27" ry="18"/>
<text text-anchor="middle" x="275.5" y="-269.3" font-family="Times New Roman,serif" font-size="14.00">m1</text>
</a>
</g>
</g>
<!-- http://example.org/m1&#45;&gt;http://example.org/n10000 -->
<g id="edge3" class="edge"><title>http://example.org/m1&#45;&gt;http://example.org/n10000</title>
<path fill="none" stroke="darkgreen" d="M258.583,-287.184C233.833,-306.471 187.485,-342.591 157.853,-365.684"/>
<polygon fill="darkgreen" stroke="darkgreen" points="155.339,-363.205 149.603,-372.113 159.642,-368.727 155.339,-363.205"/>
<text text-anchor="middle" x="230" y="-340.8" font-family="Times New Roman,serif" font-size="14.00">der ref</text>
<text text-anchor="middle" x="230" y="-325.8" font-family="Times New Roman,serif" font-size="14.00">T2</text>
</g>
<!-- &#45;attrs1 -->
<g id="node4" class="node"><title>&#45;attrs1</title>
<polygon fill="none" stroke="gray" points="411,-154.5 290,-154.5 290,-105.5 417,-105.5 417,-148.5 411,-154.5"/>
<polyline fill="none" stroke="gray" points="411,-154.5 411,-148.5 "/>
<polyline fill="none" stroke="gray" points="417,-148.5 411,-148.5 "/>
<text text-anchor="start" x="300.5" y="-140" font-family="Times New Roman,serif" font-size="10.00">value:</text>
<text text-anchor="start" x="375.5" y="-140" font-family="Times New Roman,serif" font-size="10.00">&quot;10000&quot;</text>
<text text-anchor="start" x="300.5" y="-127" font-family="Times New Roman,serif" font-size="10.00">type:</text>
<text text-anchor="start" x="375.5" y="-127" font-family="Times New Roman,serif" font-size="10.00">&quot;name&quot;</text>
<text text-anchor="start" x="300.5" y="-114" font-family="Times New Roman,serif" font-size="10.00">generatedAtTime:</text>
<text text-anchor="start" x="375.5" y="-114" font-family="Times New Roman,serif" font-size="10.00">&quot;T2&quot;</text>
</g>
<!-- &#45;attrs1&#45;&gt;http://example.org/m1 -->
<g id="edge2" class="edge"><title>&#45;attrs1&#45;&gt;http://example.org/m1</title>
<path fill="none" stroke="gray" stroke-dasharray="5,2" d="M349.864,-154.533C346.045,-174.205 338.701,-202.426 325.5,-224 317.084,-237.754 303.779,-250.26 293.009,-259.057"/>
</g>
<!-- http://example.org/sum1 -->
<g id="node5" class="node"><title>http://example.org/sum1</title>
<g id="a_node5"><a xlink:href="http://example.org/sum1" xlink:title="sum1">
<ellipse fill="#fffc87" stroke="#808080" cx="175.5" cy="-273" rx="30.5947" ry="18"/>
<text text-anchor="middle" x="175.5" y="-269.3" font-family="Times New Roman,serif" font-size="14.00">sum1</text>
</a>
</g>
</g>
<!-- &#45;attrs2 -->
<g id="node6" class="node"><title>&#45;attrs2</title>
<polygon fill="none" stroke="gray" points="190,-161 53,-161 53,-99 196,-99 196,-155 190,-161"/>
<polyline fill="none" stroke="gray" points="190,-161 190,-155 "/>
<polyline fill="none" stroke="gray" points="196,-155 190,-155 "/>
<text text-anchor="start" x="63.5" y="-147" font-family="Times New Roman,serif" font-size="10.00">value:</text>
<text text-anchor="start" x="138.5" y="-147" font-family="Times New Roman,serif" font-size="10.00">&quot;10001&quot;</text>
<text text-anchor="start" x="63.5" y="-134" font-family="Times New Roman,serif" font-size="10.00">type:</text>
<text text-anchor="start" x="138.5" y="-134" font-family="Times New Roman,serif" font-size="10.00">&quot;operation&quot;</text>
<text text-anchor="start" x="63.5" y="-121" font-family="Times New Roman,serif" font-size="10.00">label:</text>
<text text-anchor="start" x="138.5" y="-121" font-family="Times New Roman,serif" font-size="10.00">&quot;m + 1&quot;</text>
<text text-anchor="start" x="63.5" y="-108" font-family="Times New Roman,serif" font-size="10.00">generatedAtTime:</text>
<text text-anchor="start" x="138.5" y="-108" font-family="Times New Roman,serif" font-size="10.00">&quot;T4&quot;</text>
</g>
<!-- &#45;attrs2&#45;&gt;http://example.org/sum1 -->
<g id="edge4" class="edge"><title>&#45;attrs2&#45;&gt;http://example.org/sum1</title>
<path fill="none" stroke="gray" stroke-dasharray="5,2" d="M132.819,-161.068C138.163,-179.444 145.571,-203.312 153.5,-224 157.568,-234.614 162.857,-246.207 167.229,-255.341"/>
</g>
<!-- http://example.org/list1 -->
<g id="node7" class="node"><title>http://example.org/list1</title>
<g id="a_node7"><a xlink:href="http://example.org/list1" xlink:title="list1">
<ellipse fill="#fffc87" stroke="#808080" cx="241.5" cy="-130" rx="27" ry="18"/>
<text text-anchor="middle" x="241.5" y="-126.3" font-family="Times New Roman,serif" font-size="14.00">list1</text>
</a>
</g>
</g>
<!-- http://example.org/list1&#45;&gt;http://example.org/m1 -->
<g id="edge6" class="edge"><title>http://example.org/list1&#45;&gt;http://example.org/m1</title>
<path fill="none" stroke="darkgreen" d="M256.338,-145.513C264.284,-154.351 273.284,-166.351 277.5,-179 284.62,-200.359 283.392,-226.036 280.797,-244.993"/>
<polygon fill="darkgreen" stroke="darkgreen" points="277.315,-244.605 279.211,-255.029 284.229,-245.697 277.315,-244.605"/>
<text text-anchor="middle" x="302" y="-212.8" font-family="Times New Roman,serif" font-size="14.00">der&#45;ins</text>
<text text-anchor="middle" x="302" y="-197.8" font-family="Times New Roman,serif" font-size="14.00">[0]</text>
<text text-anchor="middle" x="302" y="-182.8" font-family="Times New Roman,serif" font-size="14.00">T5</text>
</g>
<!-- http://example.org/list1&#45;&gt;http://example.org/m1 -->
<g id="edge8" class="edge"><title>http://example.org/list1&#45;&gt;http://example.org/m1</title>
<path fill="none" stroke="darkgreen" d="M236.156,-147.707C230.971,-166.785 225.14,-198.632 234.5,-224 238.199,-234.025 245.027,-243.376 252.065,-251.113"/>
<polygon fill="darkgreen" stroke="darkgreen" points="249.572,-253.57 259.064,-258.277 254.579,-248.678 249.572,-253.57"/>
<text text-anchor="middle" x="254" y="-212.8" font-family="Times New Roman,serif" font-size="14.00">der&#45;ins</text>
<text text-anchor="middle" x="254" y="-197.8" font-family="Times New Roman,serif" font-size="14.00">[2]</text>
<text text-anchor="middle" x="254" y="-182.8" font-family="Times New Roman,serif" font-size="14.00">T5</text>
</g>
<!-- http://example.org/list1&#45;&gt;http://example.org/sum1 -->
<g id="edge7" class="edge"><title>http://example.org/list1&#45;&gt;http://example.org/sum1</title>
<path fill="none" stroke="darkgreen" d="M225.475,-144.497C209.673,-157.881 187.705,-176.716 186.5,-179 175.81,-199.262 173.555,-225.394 173.689,-244.795"/>
<polygon fill="darkgreen" stroke="darkgreen" points="170.19,-244.904 173.97,-254.802 177.187,-244.707 170.19,-244.904"/>
<text text-anchor="middle" x="206" y="-212.8" font-family="Times New Roman,serif" font-size="14.00">der&#45;ins</text>
<text text-anchor="middle" x="206" y="-197.8" font-family="Times New Roman,serif" font-size="14.00">[1]</text>
<text text-anchor="middle" x="206" y="-182.8" font-family="Times New Roman,serif" font-size="14.00">T5</text>
</g>
<!-- &#45;attrs3 -->
<g id="node8" class="node"><title>&#45;attrs3</title>
<polygon fill="none" stroke="gray" points="329,-62 148,-62 148,-0 335,-0 335,-56 329,-62"/>
<polyline fill="none" stroke="gray" points="329,-62 329,-56 "/>
<polyline fill="none" stroke="gray" points="335,-56 329,-56 "/>
<text text-anchor="start" x="158.5" y="-48" font-family="Times New Roman,serif" font-size="10.00">value:</text>
<text text-anchor="start" x="233.5" y="-48" font-family="Times New Roman,serif" font-size="10.00">&quot;[10000, 10001, 10000]&quot;</text>
<text text-anchor="start" x="158.5" y="-35" font-family="Times New Roman,serif" font-size="10.00">type:</text>
<text text-anchor="start" x="233.5" y="-35" font-family="Times New Roman,serif" font-size="10.00">&quot;list&quot;</text>
<text text-anchor="start" x="158.5" y="-22" font-family="Times New Roman,serif" font-size="10.00">label:</text>
<text text-anchor="start" x="233.5" y="-22" font-family="Times New Roman,serif" font-size="10.00">&quot;[m, m + 1, m]&quot;</text>
<text text-anchor="start" x="158.5" y="-9" font-family="Times New Roman,serif" font-size="10.00">generatedAtTime:</text>
<text text-anchor="start" x="233.5" y="-9" font-family="Times New Roman,serif" font-size="10.00">&quot;T5&quot;</text>
</g>
<!-- &#45;attrs3&#45;&gt;http://example.org/list1 -->
<g id="edge5" class="edge"><title>&#45;attrs3&#45;&gt;http://example.org/list1</title>
<path fill="none" stroke="gray" stroke-dasharray="5,2" d="M241.5,-62.1597C241.5,-78.5103 241.5,-98.1223 241.5,-111.859"/>
</g>
</g>
</svg>
