<?xml version="1.0" encoding="UTF-8" standalone="no"?>
<!DOCTYPE svg PUBLIC "-//W3C//DTD SVG 1.1//EN"
 "http://www.w3.org/Graphics/SVG/1.1/DTD/svg11.dtd">
<!-- Generated by graphviz version 2.38.0 (20140413.2041)
 -->
<!-- Title: PROV Pages: 1 -->
<svg width="676pt" height="531pt"
 viewBox="0.00 0.00 675.50 531.00" xmlns="http://www.w3.org/2000/svg" xmlns:xlink="http://www.w3.org/1999/xlink">
<g id="graph0" class="graph" transform="scale(1 1) rotate(0) translate(4 527)">
<title>PROV</title>
<polygon fill="white" stroke="none" points="-4,4 -4,-527 671.5,-527 671.5,4 -4,4"/>
<!-- http://example.org/n10000 -->
<g id="node1" class="node"><title>http://example.org/n10000</title>
<g id="a_node1"><a xlink:href="http://example.org/n10000" xlink:title="n10000">
<ellipse fill="#fffc87" stroke="#808080" cx="547" cy="-260" rx="37.0935" ry="18"/>
<text text-anchor="middle" x="547" y="-256.3" font-family="Times New Roman,serif" font-size="14.00">n10000</text>
</a>
</g>
</g>
<!-- &#45;attrs0 -->
<g id="node2" class="node"><title>&#45;attrs0</title>
<polygon fill="none" stroke="gray" points="658.5,-161 537.5,-161 537.5,-99 664.5,-99 664.5,-155 658.5,-161"/>
<polyline fill="none" stroke="gray" points="658.5,-161 658.5,-155 "/>
<polyline fill="none" stroke="gray" points="664.5,-155 658.5,-155 "/>
<text text-anchor="start" x="548" y="-147" font-family="Times New Roman,serif" font-size="10.00">value:</text>
<text text-anchor="start" x="623" y="-147" font-family="Times New Roman,serif" font-size="10.00">&quot;10000&quot;</text>
<text text-anchor="start" x="548" y="-134" font-family="Times New Roman,serif" font-size="10.00">type:</text>
<text text-anchor="start" x="623" y="-134" font-family="Times New Roman,serif" font-size="10.00">&quot;literal&quot;</text>
<text text-anchor="start" x="548" y="-121" font-family="Times New Roman,serif" font-size="10.00">label:</text>
<text text-anchor="start" x="623" y="-121" font-family="Times New Roman,serif" font-size="10.00">&quot;10000&quot;</text>
<text text-anchor="start" x="548" y="-108" font-family="Times New Roman,serif" font-size="10.00">generatedAtTime:</text>
<text text-anchor="start" x="623" y="-108" font-family="Times New Roman,serif" font-size="10.00">&quot;T1&quot;</text>
</g>
<!-- &#45;attrs0&#45;&gt;http://example.org/n10000 -->
<g id="edge1" class="edge"><title>&#45;attrs0&#45;&gt;http://example.org/n10000</title>
<path fill="none" stroke="gray" stroke-dasharray="5,2" d="M601.648,-161.156C600.846,-180.225 597.503,-204.806 587,-224 582.482,-232.257 575.214,-239.49 568.105,-245.205"/>
</g>
<!-- http://example.org/sum1 -->
<g id="node3" class="node"><title>http://example.org/sum1</title>
<g id="a_node3"><a xlink:href="http://example.org/sum1" xlink:title="sum1">
<ellipse fill="#fffc87" stroke="#808080" cx="296" cy="-260" rx="30.5947" ry="18"/>
<text text-anchor="middle" x="296" y="-256.3" font-family="Times New Roman,serif" font-size="14.00">sum1</text>
</a>
</g>
</g>
<!-- &#45;attrs1 -->
<g id="node4" class="node"><title>&#45;attrs1</title>
<polygon fill="none" stroke="gray" points="362.5,-161 225.5,-161 225.5,-99 368.5,-99 368.5,-155 362.5,-161"/>
<polyline fill="none" stroke="gray" points="362.5,-161 362.5,-155 "/>
<polyline fill="none" stroke="gray" points="368.5,-155 362.5,-155 "/>
<text text-anchor="start" x="236" y="-147" font-family="Times New Roman,serif" font-size="10.00">value:</text>
<text text-anchor="start" x="311" y="-147" font-family="Times New Roman,serif" font-size="10.00">&quot;10001&quot;</text>
<text text-anchor="start" x="236" y="-134" font-family="Times New Roman,serif" font-size="10.00">type:</text>
<text text-anchor="start" x="311" y="-134" font-family="Times New Roman,serif" font-size="10.00">&quot;operation&quot;</text>
<text text-anchor="start" x="236" y="-121" font-family="Times New Roman,serif" font-size="10.00">label:</text>
<text text-anchor="start" x="311" y="-121" font-family="Times New Roman,serif" font-size="10.00">&quot;m + 1&quot;</text>
<text text-anchor="start" x="236" y="-108" font-family="Times New Roman,serif" font-size="10.00">generatedAtTime:</text>
<text text-anchor="start" x="311" y="-108" font-family="Times New Roman,serif" font-size="10.00">&quot;T4&quot;</text>
</g>
<!-- &#45;attrs1&#45;&gt;http://example.org/sum1 -->
<g id="edge2" class="edge"><title>&#45;attrs1&#45;&gt;http://example.org/sum1</title>
<path fill="none" stroke="gray" stroke-dasharray="5,2" d="M296.766,-161.01C296.569,-186.134 296.296,-221.102 296.135,-241.76"/>
</g>
<!-- http://example.org/list1 -->
<g id="node5" class="node"><title>http://example.org/list1</title>
<g id="a_node5"><a xlink:href="http://example.org/list1" xlink:title="list1">
<ellipse fill="#fffc87" stroke="#808080" cx="452" cy="-130" rx="27" ry="18"/>
<text text-anchor="middle" x="452" y="-126.3" font-family="Times New Roman,serif" font-size="14.00">list1</text>
</a>
</g>
</g>
<!-- http://example.org/list1&#45;&gt;http://example.org/n10000 -->
<g id="edge4" class="edge"><title>http://example.org/list1&#45;&gt;http://example.org/n10000</title>
<path fill="none" stroke="darkgreen" d="M456.687,-147.986C463.413,-171.454 476.086,-212.234 486,-224 492.481,-231.692 501.109,-238.058 509.829,-243.155"/>
<polygon fill="darkgreen" stroke="darkgreen" points="508.399,-246.359 518.865,-248.009 511.712,-240.193 508.399,-246.359"/>
<text text-anchor="middle" x="505.5" y="-212.8" font-family="Times New Roman,serif" font-size="14.00">der&#45;ins</text>
<text text-anchor="middle" x="505.5" y="-197.8" font-family="Times New Roman,serif" font-size="14.00">[0]</text>
<text text-anchor="middle" x="505.5" y="-182.8" font-family="Times New Roman,serif" font-size="14.00">T5</text>
</g>
<!-- http://example.org/list1&#45;&gt;http://example.org/n10000 -->
<g id="edge6" class="edge"><title>http://example.org/list1&#45;&gt;http://example.org/n10000</title>
<path fill="none" stroke="darkgreen" d="M474.315,-140.38C490.662,-148.356 512.154,-161.335 525,-179 536.189,-194.386 541.688,-215.189 544.391,-231.725"/>
<polygon fill="darkgreen" stroke="darkgreen" points="540.958,-232.449 545.795,-241.875 547.892,-231.49 540.958,-232.449"/>
<text text-anchor="middle" x="561.5" y="-212.8" font-family="Times New Roman,serif" font-size="14.00">der&#45;ins</text>
<text text-anchor="middle" x="561.5" y="-197.8" font-family="Times New Roman,serif" font-size="14.00">[2]</text>
<text text-anchor="middle" x="561.5" y="-182.8" font-family="Times New Roman,serif" font-size="14.00">T5</text>
</g>
<!-- http://example.org/list1&#45;&gt;http://example.org/sum1 -->
<g id="edge5" class="edge"><title>http://example.org/list1&#45;&gt;http://example.org/sum1</title>
<path fill="none" stroke="darkgreen" d="M434.826,-143.978C423.693,-152.973 409.383,-165.687 399,-179 385.06,-196.873 391.601,-208.567 375,-224 373.094,-225.771 350.048,-235.904 329.336,-244.814"/>
<polygon fill="darkgreen" stroke="darkgreen" points="327.881,-241.63 320.069,-248.788 330.639,-248.064 327.881,-241.63"/>
<text text-anchor="middle" x="418.5" y="-212.8" font-family="Times New Roman,serif" font-size="14.00">der&#45;ins</text>
<text text-anchor="middle" x="418.5" y="-197.8" font-family="Times New Roman,serif" font-size="14.00">[1]</text>
<text text-anchor="middle" x="418.5" y="-182.8" font-family="Times New Roman,serif" font-size="14.00">T5</text>
</g>
<!-- http://example.org/d_ac1_1 -->
<g id="node13" class="node"><title>http://example.org/d_ac1_1</title>
<g id="a_node13"><a xlink:href="http://example.org/d_ac1_1" xlink:title="d_ac1_1">
<ellipse fill="#fffc87" stroke="#808080" cx="181" cy="-260" rx="42.4939" ry="18"/>
<text text-anchor="middle" x="181" y="-256.3" font-family="Times New Roman,serif" font-size="14.00">d_ac1_1</text>
</a>
</g>
</g>
<!-- http://example.org/list1&#45;&gt;http://example.org/d_ac1_1 -->
<g id="edge12" class="edge"><title>http://example.org/list1&#45;&gt;http://example.org/d_ac1_1</title>
<path fill="none" stroke="darkgreen" d="M429.358,-140.262C414.724,-146.228 395.257,-154.126 378,-161 357.605,-169.124 351.955,-169.846 332,-179 290.457,-198.057 244.228,-223.151 213.998,-240.113"/>
<polygon fill="darkgreen" stroke="darkgreen" points="212.145,-237.14 205.153,-245.101 215.583,-243.237 212.145,-237.14"/>
<text text-anchor="middle" x="351.5" y="-212.8" font-family="Times New Roman,serif" font-size="14.00">der&#45;ins</text>
<text text-anchor="middle" x="351.5" y="-197.8" font-family="Times New Roman,serif" font-size="14.00">[1]</text>
<text text-anchor="middle" x="351.5" y="-182.8" font-family="Times New Roman,serif" font-size="14.00">T12</text>
</g>
<!-- &#45;attrs2 -->
<g id="node6" class="node"><title>&#45;attrs2</title>
<polygon fill="none" stroke="gray" points="539.5,-62 358.5,-62 358.5,-0 545.5,-0 545.5,-56 539.5,-62"/>
<polyline fill="none" stroke="gray" points="539.5,-62 539.5,-56 "/>
<polyline fill="none" stroke="gray" points="545.5,-56 539.5,-56 "/>
<text text-anchor="start" x="369" y="-48" font-family="Times New Roman,serif" font-size="10.00">value:</text>
<text text-anchor="start" x="444" y="-48" font-family="Times New Roman,serif" font-size="10.00">&quot;[10000, 10001, 10000]&quot;</text>
<text text-anchor="start" x="369" y="-35" font-family="Times New Roman,serif" font-size="10.00">type:</text>
<text text-anchor="start" x="444" y="-35" font-family="Times New Roman,serif" font-size="10.00">&quot;list&quot;</text>
<text text-anchor="start" x="369" y="-22" font-family="Times New Roman,serif" font-size="10.00">label:</text>
<text text-anchor="start" x="444" y="-22" font-family="Times New Roman,serif" font-size="10.00">&quot;[m, m + 1, m]&quot;</text>
<text text-anchor="start" x="369" y="-9" font-family="Times New Roman,serif" font-size="10.00">generatedAtTime:</text>
<text text-anchor="start" x="444" y="-9" font-family="Times New Roman,serif" font-size="10.00">&quot;T5&quot;</text>
</g>
<!-- &#45;attrs2&#45;&gt;http://example.org/list1 -->
<g id="edge3" class="edge"><title>&#45;attrs2&#45;&gt;http://example.org/list1</title>
<path fill="none" stroke="gray" stroke-dasharray="5,2" d="M452,-62.1597C452,-78.5103 452,-98.1223 452,-111.859"/>
</g>
<!-- http://example.org/d1 -->
<g id="node7" class="node"><title>http://example.org/d1</title>
<g id="a_node7"><a xlink:href="http://example.org/d1" xlink:title="d1">
<ellipse fill="#fffc87" stroke="#808080" cx="452" cy="-505" rx="27" ry="18"/>
<text text-anchor="middle" x="452" y="-501.3" font-family="Times New Roman,serif" font-size="14.00">d1</text>
</a>
</g>
</g>
<!-- http://example.org/d1&#45;&gt;http://example.org/list1 -->
<g id="edge8" class="edge"><title>http://example.org/d1&#45;&gt;http://example.org/list1</title>
<path fill="none" stroke="darkgreen" d="M452,-486.977C452,-427.964 452,-231.79 452,-158.733"/>
<polygon fill="darkgreen" stroke="darkgreen" points="455.5,-158.49 452,-148.49 448.5,-158.49 455.5,-158.49"/>
<text text-anchor="middle" x="470.5" y="-314.8" font-family="Times New Roman,serif" font-size="14.00">der ref</text>
<text text-anchor="middle" x="470.5" y="-299.8" font-family="Times New Roman,serif" font-size="14.00">T6</text>
</g>
<!-- &#45;attrs3 -->
<g id="node8" class="node"><title>&#45;attrs3</title>
<polygon fill="none" stroke="gray" points="661.5,-406 480.5,-406 480.5,-344 667.5,-344 667.5,-400 661.5,-406"/>
<polyline fill="none" stroke="gray" points="661.5,-406 661.5,-400 "/>
<polyline fill="none" stroke="gray" points="667.5,-400 661.5,-400 "/>
<text text-anchor="start" x="491" y="-392" font-family="Times New Roman,serif" font-size="10.00">value:</text>
<text text-anchor="start" x="566" y="-392" font-family="Times New Roman,serif" font-size="10.00">&quot;[10000, 10001, 10000]&quot;</text>
<text text-anchor="start" x="491" y="-379" font-family="Times New Roman,serif" font-size="10.00">type:</text>
<text text-anchor="start" x="566" y="-379" font-family="Times New Roman,serif" font-size="10.00">&quot;name&quot;</text>
<text text-anchor="start" x="491" y="-366" font-family="Times New Roman,serif" font-size="10.00">label:</text>
<text text-anchor="start" x="566" y="-366" font-family="Times New Roman,serif" font-size="10.00">&quot;d&quot;</text>
<text text-anchor="start" x="491" y="-353" font-family="Times New Roman,serif" font-size="10.00">generatedAtTime:</text>
<text text-anchor="start" x="566" y="-353" font-family="Times New Roman,serif" font-size="10.00">&quot;T6&quot;</text>
</g>
<!-- &#45;attrs3&#45;&gt;http://example.org/d1 -->
<g id="edge7" class="edge"><title>&#45;attrs3&#45;&gt;http://example.org/d1</title>
<path fill="none" stroke="gray" stroke-dasharray="5,2" d="M545.396,-406.01C520.465,-432.168 485.361,-468.998 466.07,-489.238"/>
</g>
<!-- http://example.org/n3 -->
<g id="node9" class="node"><title>http://example.org/n3</title>
<g id="a_node9"><a xlink:href="http://example.org/n3" xlink:title="n3">
<ellipse fill="#fffc87" stroke="#808080" cx="162" cy="-505" rx="27" ry="18"/>
<text text-anchor="middle" x="162" y="-501.3" font-family="Times New Roman,serif" font-size="14.00">n3</text>
</a>
</g>
</g>
<!-- &#45;attrs4 -->
<g id="node10" class="node"><title>&#45;attrs4</title>
<polygon fill="none" stroke="gray" points="120,-406 0,-406 0,-344 126,-344 126,-400 120,-406"/>
<polyline fill="none" stroke="gray" points="120,-406 120,-400 "/>
<polyline fill="none" stroke="gray" points="126,-400 120,-400 "/>
<text text-anchor="start" x="10" y="-392" font-family="Times New Roman,serif" font-size="10.00">value:</text>
<text text-anchor="start" x="85" y="-392" font-family="Times New Roman,serif" font-size="10.00">&quot;3&quot;</text>
<text text-anchor="start" x="10" y="-379" font-family="Times New Roman,serif" font-size="10.00">type:</text>
<text text-anchor="start" x="85" y="-379" font-family="Times New Roman,serif" font-size="10.00">&quot;literal&quot;</text>
<text text-anchor="start" x="10" y="-366" font-family="Times New Roman,serif" font-size="10.00">label:</text>
<text text-anchor="start" x="85" y="-366" font-family="Times New Roman,serif" font-size="10.00">&quot;3&quot;</text>
<text text-anchor="start" x="10" y="-353" font-family="Times New Roman,serif" font-size="10.00">generatedAtTime:</text>
<text text-anchor="start" x="85" y="-353" font-family="Times New Roman,serif" font-size="10.00">&quot;T10&quot;</text>
</g>
<!-- &#45;attrs4&#45;&gt;http://example.org/n3 -->
<g id="edge9" class="edge"><title>&#45;attrs4&#45;&gt;http://example.org/n3</title>
<path fill="none" stroke="gray" stroke-dasharray="5,2" d="M86.2111,-406.01C106.214,-431.873 134.285,-468.167 150.047,-488.545"/>
</g>
<!-- http://example.org/n1_2 -->
<g id="node11" class="node"><title>http://example.org/n1_2</title>
<g id="a_node11"><a xlink:href="http://example.org/n1_2" xlink:title="n1_2">
<ellipse fill="#fffc87" stroke="#808080" cx="329" cy="-505" rx="28.6953" ry="18"/>
<text text-anchor="middle" x="329" y="-501.3" font-family="Times New Roman,serif" font-size="14.00">n1_2</text>
</a>
</g>
</g>
<!-- &#45;attrs5 -->
<g id="node12" class="node"><title>&#45;attrs5</title>
<polygon fill="none" stroke="gray" points="337,-406 217,-406 217,-344 343,-344 343,-400 337,-406"/>
<polyline fill="none" stroke="gray" points="337,-406 337,-400 "/>
<polyline fill="none" stroke="gray" points="343,-400 337,-400 "/>
<text text-anchor="start" x="227" y="-392" font-family="Times New Roman,serif" font-size="10.00">value:</text>
<text text-anchor="start" x="302" y="-392" font-family="Times New Roman,serif" font-size="10.00">&quot;1&quot;</text>
<text text-anchor="start" x="227" y="-379" font-family="Times New Roman,serif" font-size="10.00">type:</text>
<text text-anchor="start" x="302" y="-379" font-family="Times New Roman,serif" font-size="10.00">&quot;literal&quot;</text>
<text text-anchor="start" x="227" y="-366" font-family="Times New Roman,serif" font-size="10.00">label:</text>
<text text-anchor="start" x="302" y="-366" font-family="Times New Roman,serif" font-size="10.00">&quot;1&quot;</text>
<text text-anchor="start" x="227" y="-353" font-family="Times New Roman,serif" font-size="10.00">generatedAtTime:</text>
<text text-anchor="start" x="302" y="-353" font-family="Times New Roman,serif" font-size="10.00">&quot;T11&quot;</text>
</g>
<!-- &#45;attrs5&#45;&gt;http://example.org/n1_2 -->
<g id="edge10" class="edge"><title>&#45;attrs5&#45;&gt;http://example.org/n1_2</title>
<path fill="none" stroke="gray" stroke-dasharray="5,2" d="M283.275,-406.038C286.161,-424.835 291.456,-449.162 301,-469 304.509,-476.293 309.787,-483.437 314.819,-489.349"/>
</g>
<!-- http://example.org/d_ac1_1&#45;&gt;http://example.org/n3 -->
<g id="edge18" class="edge"><title>http://example.org/d_ac1_1&#45;&gt;http://example.org/n3</title>
<path fill="none" stroke="darkgreen" d="M178.612,-278.135C176.353,-294.894 173.016,-321.157 171,-344 166.908,-390.359 164.321,-444.448 163.019,-476.372"/>
<polygon fill="darkgreen" stroke="darkgreen" points="159.509,-476.56 162.612,-486.69 166.504,-476.836 159.509,-476.56"/>
<text text-anchor="middle" x="189.5" y="-378.8" font-family="Times New Roman,serif" font-size="14.00">der ref</text>
<text text-anchor="middle" x="189.5" y="-363.8" font-family="Times New Roman,serif" font-size="14.00">T12</text>
</g>
<!-- http://example.org/assign4 -->
<g id="node15" class="node"><title>http://example.org/assign4</title>
<g id="a_node15"><a xlink:href="http://example.org/assign4" xlink:title="assign4">
<polygon fill="#9fb1fc" stroke="#0000ff" points="419,-393 361,-393 361,-357 419,-357 419,-393"/>
<text text-anchor="middle" x="390" y="-371.3" font-family="Times New Roman,serif" font-size="14.00">assign4</text>
</a>
</g>
</g>
<!-- http://example.org/d_ac1_1&#45;&gt;http://example.org/assign4 -->
<g id="edge17" class="edge"><title>http://example.org/d_ac1_1&#45;&gt;http://example.org/assign4</title>
<path fill="none" stroke="black" d="M210.454,-272.977C245.363,-287.69 304.751,-314.372 352,-344 355.349,-346.1 358.75,-348.441 362.071,-350.864"/>
<polygon fill="black" stroke="black" points="360.008,-353.692 370.086,-356.963 364.247,-348.122 360.008,-353.692"/>
<text text-anchor="middle" x="222.449" y="-262.07" font-family="Times New Roman,serif" font-size="8.00">gen</text>
</g>
<!-- &#45;attrs6 -->
<g id="node14" class="node"><title>&#45;attrs6</title>
<polygon fill="none" stroke="gray" points="201,-161 75,-161 75,-99 207,-99 207,-155 201,-161"/>
<polyline fill="none" stroke="gray" points="201,-161 201,-155 "/>
<polyline fill="none" stroke="gray" points="207,-155 201,-155 "/>
<text text-anchor="start" x="85" y="-147" font-family="Times New Roman,serif" font-size="10.00">value:</text>
<text text-anchor="start" x="160" y="-147" font-family="Times New Roman,serif" font-size="10.00">&quot;3&quot;</text>
<text text-anchor="start" x="85" y="-134" font-family="Times New Roman,serif" font-size="10.00">type:</text>
<text text-anchor="start" x="160" y="-134" font-family="Times New Roman,serif" font-size="10.00">&quot;access&quot;</text>
<text text-anchor="start" x="85" y="-121" font-family="Times New Roman,serif" font-size="10.00">label:</text>
<text text-anchor="start" x="160" y="-121" font-family="Times New Roman,serif" font-size="10.00">&quot;d[1]&quot;</text>
<text text-anchor="start" x="85" y="-108" font-family="Times New Roman,serif" font-size="10.00">generatedAtTime:</text>
<text text-anchor="start" x="160" y="-108" font-family="Times New Roman,serif" font-size="10.00">&quot;T12&quot;</text>
</g>
<!-- &#45;attrs6&#45;&gt;http://example.org/d_ac1_1 -->
<g id="edge11" class="edge"><title>&#45;attrs6&#45;&gt;http://example.org/d_ac1_1</title>
<path fill="none" stroke="gray" stroke-dasharray="5,2" d="M150.378,-161.01C158.275,-186.282 169.285,-221.513 175.726,-242.123"/>
</g>
<!-- http://example.org/assign4&#45;&gt;http://example.org/d1 -->
<g id="edge14" class="edge"><title>http://example.org/assign4&#45;&gt;http://example.org/d1</title>
<path fill="none" stroke="black" d="M398.362,-393.263C408.971,-415.167 427.361,-453.131 439.604,-478.409"/>
<polygon fill="black" stroke="black" points="436.458,-479.942 443.967,-487.416 442.758,-476.89 436.458,-479.942"/>
<text text-anchor="middle" x="413.322" y="-392.45" font-family="Times New Roman,serif" font-size="8.00">use</text>
</g>
<!-- http://example.org/assign4&#45;&gt;http://example.org/n3 -->
<g id="edge16" class="edge"><title>http://example.org/assign4&#45;&gt;http://example.org/n3</title>
<path fill="none" stroke="darkgreen" d="M369.627,-393.252C364.067,-397.632 357.936,-402.177 352,-406 298.641,-440.37 231.787,-472.552 193.278,-490.132"/>
<polygon fill="darkgreen" stroke="darkgreen" points="191.788,-486.964 184.123,-494.279 194.676,-493.341 191.788,-486.964"/>
<text text-anchor="middle" x="337.5" y="-457.8" font-family="Times New Roman,serif" font-size="14.00">use</text>
<text text-anchor="middle" x="337.5" y="-442.8" font-family="Times New Roman,serif" font-size="14.00">d1[1]</text>
<text text-anchor="middle" x="337.5" y="-427.8" font-family="Times New Roman,serif" font-size="14.00">T12</text>
</g>
<!-- http://example.org/assign4&#45;&gt;http://example.org/n1_2 -->
<g id="edge15" class="edge"><title>http://example.org/assign4&#45;&gt;http://example.org/n1_2</title>
<path fill="none" stroke="black" d="M386.062,-393.237C381.213,-412.519 371.878,-444.286 358,-469 355.614,-473.249 352.692,-477.484 349.631,-481.466"/>
<polygon fill="black" stroke="black" points="346.919,-479.253 343.281,-489.204 352.33,-483.694 346.919,-479.253"/>
<text text-anchor="middle" x="396.758" y="-401.853" font-family="Times New Roman,serif" font-size="8.00">use</text>
</g>
<!-- &#45;attrs7 -->
<g id="node16" class="node"><title>&#45;attrs7</title>
<polygon fill="none" stroke="gray" points="417.5,-278 344.5,-278 344.5,-242 423.5,-242 423.5,-272 417.5,-278"/>
<polyline fill="none" stroke="gray" points="417.5,-278 417.5,-272 "/>
<polyline fill="none" stroke="gray" points="423.5,-272 417.5,-272 "/>
<text text-anchor="start" x="355" y="-257" font-family="Times New Roman,serif" font-size="10.00">type:</text>
<text text-anchor="start" x="378" y="-257" font-family="Times New Roman,serif" font-size="10.00">&quot;assign&quot;</text>
</g>
<!-- &#45;attrs7&#45;&gt;http://example.org/assign4 -->
<g id="edge13" class="edge"><title>&#45;attrs7&#45;&gt;http://example.org/assign4</title>
<path fill="none" stroke="gray" stroke-dasharray="5,2" d="M384.911,-278.162C386.039,-299.401 387.948,-335.363 389.08,-356.676"/>
</g>
</g>
</svg>
