<?xml version="1.0" encoding="UTF-8" standalone="no"?>
<!DOCTYPE svg PUBLIC "-//W3C//DTD SVG 1.1//EN"
 "http://www.w3.org/Graphics/SVG/1.1/DTD/svg11.dtd">
<!-- Generated by graphviz version 2.38.0 (20140413.2041)
 -->
<!-- Title: PROV Pages: 1 -->
<svg width="390pt" height="274pt"
 viewBox="0.00 0.00 390.00 274.00" xmlns="http://www.w3.org/2000/svg" xmlns:xlink="http://www.w3.org/1999/xlink">
<g id="graph0" class="graph" transform="scale(1 1) rotate(0) translate(4 270)">
<title>PROV</title>
<polygon fill="white" stroke="none" points="-4,4 -4,-270 386,-270 386,4 -4,4"/>
<!-- http://example.org/matrix0 -->
<g id="node1" class="node"><title>http://example.org/matrix0</title>
<g id="a_node1"><a xlink:href="http://example.org/matrix0" xlink:title="matrix0">
<ellipse fill="#fffc87" stroke="#808080" cx="106" cy="-248" rx="37.8943" ry="18"/>
<text text-anchor="middle" x="106" y="-244.3" font-family="Times New Roman,serif" font-size="14.00">matrix0</text>
</a>
</g>
</g>
<!-- &#45;attrs0 -->
<g id="node2" class="node"><title>&#45;attrs0</title>
<polygon fill="none" stroke="gray" points="104,-164 34,-164 34,-115 110,-115 110,-158 104,-164"/>
<polyline fill="none" stroke="gray" points="104,-164 104,-158 "/>
<polyline fill="none" stroke="gray" points="110,-158 104,-158 "/>
<text text-anchor="start" x="44" y="-149.5" font-family="Times New Roman,serif" font-size="10.00">value:</text>
<text text-anchor="start" x="71" y="-149.5" font-family="Times New Roman,serif" font-size="10.00">[0, 1, 4]</text>
<text text-anchor="start" x="44" y="-136.5" font-family="Times New Roman,serif" font-size="10.00">type:</text>
<text text-anchor="start" x="71" y="-136.5" font-family="Times New Roman,serif" font-size="10.00">list</text>
<text text-anchor="start" x="44" y="-123.5" font-family="Times New Roman,serif" font-size="10.00">label:</text>
<text text-anchor="start" x="71" y="-123.5" font-family="Times New Roman,serif" font-size="10.00">[0, 1, 4]</text>
</g>
<!-- &#45;attrs0&#45;&gt;http://example.org/matrix0 -->
<g id="edge1" class="edge"><title>&#45;attrs0&#45;&gt;http://example.org/matrix0</title>
<path fill="none" stroke="gray" stroke-dasharray="5,2" d="M79.5457,-164.136C85.9235,-184.113 94.9044,-212.245 100.588,-230.048"/>
</g>
<!-- http://example.org/dist -->
<g id="node3" class="node"><title>http://example.org/dist</title>
<g id="a_node3"><a xlink:href="http://example.org/dist" xlink:title="dist">
<ellipse fill="#fffc87" stroke="#808080" cx="189" cy="-248" rx="27" ry="18"/>
<text text-anchor="middle" x="189" y="-244.3" font-family="Times New Roman,serif" font-size="14.00">dist</text>
</a>
</g>
</g>
<!-- &#45;attrs1 -->
<g id="node4" class="node"><title>&#45;attrs1</title>
<polygon fill="none" stroke="gray" points="212.5,-164 149.5,-164 149.5,-115 218.5,-115 218.5,-158 212.5,-164"/>
<polyline fill="none" stroke="gray" points="212.5,-164 212.5,-158 "/>
<polyline fill="none" stroke="gray" points="218.5,-158 212.5,-158 "/>
<text text-anchor="start" x="160" y="-149.5" font-family="Times New Roman,serif" font-size="10.00">value:</text>
<text text-anchor="start" x="187" y="-149.5" font-family="Times New Roman,serif" font-size="10.00">[[...]]</text>
<text text-anchor="start" x="160" y="-136.5" font-family="Times New Roman,serif" font-size="10.00">type:</text>
<text text-anchor="start" x="187" y="-136.5" font-family="Times New Roman,serif" font-size="10.00">name</text>
<text text-anchor="start" x="160" y="-123.5" font-family="Times New Roman,serif" font-size="10.00">label:</text>
<text text-anchor="start" x="187" y="-123.5" font-family="Times New Roman,serif" font-size="10.00">dist</text>
</g>
<!-- &#45;attrs1&#45;&gt;http://example.org/dist -->
<g id="edge2" class="edge"><title>&#45;attrs1&#45;&gt;http://example.org/dist</title>
<path fill="none" stroke="gray" stroke-dasharray="5,2" d="M185.11,-164.136C186.042,-183.991 187.352,-211.9 188.189,-229.719"/>
</g>
<!-- http://example.org/k#1 -->
<g id="node5" class="node"><title>http://example.org/k#1</title>
<g id="a_node5"><a xlink:href="http://example.org/k#1" xlink:title="k#1">
<ellipse fill="#fffc87" stroke="#808080" cx="326" cy="-248" rx="27" ry="18"/>
<text text-anchor="middle" x="326" y="-244.3" font-family="Times New Roman,serif" font-size="14.00">k#1</text>
</a>
</g>
</g>
<!-- &#45;attrs2 -->
<g id="node6" class="node"><title>&#45;attrs2</title>
<polygon fill="none" stroke="gray" points="376,-157.5 316,-157.5 316,-121.5 382,-121.5 382,-151.5 376,-157.5"/>
<polyline fill="none" stroke="gray" points="376,-157.5 376,-151.5 "/>
<polyline fill="none" stroke="gray" points="382,-151.5 376,-151.5 "/>
<text text-anchor="start" x="326" y="-143.5" font-family="Times New Roman,serif" font-size="10.00">type:</text>
<text text-anchor="start" x="350" y="-143.5" font-family="Times New Roman,serif" font-size="10.00">name</text>
<text text-anchor="start" x="326" y="-130.5" font-family="Times New Roman,serif" font-size="10.00">label:</text>
<text text-anchor="start" x="350" y="-130.5" font-family="Times New Roman,serif" font-size="10.00">k</text>
</g>
<!-- &#45;attrs2&#45;&gt;http://example.org/k#1 -->
<g id="edge3" class="edge"><title>&#45;attrs2&#45;&gt;http://example.org/k#1</title>
<path fill="none" stroke="gray" stroke-dasharray="5,2" d="M345.305,-157.611C341.013,-177.485 333.974,-210.075 329.686,-229.931"/>
</g>
<!-- http://example.org/dist\[k\]#1 -->
<g id="node7" class="node"><title>http://example.org/dist\[k\]#1</title>
<g id="a_node7"><a xlink:href="http://example.org/dist\[k\]#1" xlink:title="dist\[k\]#1">
<ellipse fill="#fffc87" stroke="#808080" cx="155" cy="-24.5" rx="43.5923" ry="18"/>
<text text-anchor="middle" x="155" y="-20.8" font-family="Times New Roman,serif" font-size="14.00">dist[k]#1</text>
</a>
</g>
</g>
<!-- http://example.org/access2 -->
<g id="node9" class="node"><title>http://example.org/access2</title>
<g id="a_node9"><a xlink:href="http://example.org/access2" xlink:title="access2">
<polygon fill="#9fb1fc" stroke="#0000ff" points="297.5,-157.5 236.5,-157.5 236.5,-121.5 297.5,-121.5 297.5,-157.5"/>
<text text-anchor="middle" x="267" y="-135.8" font-family="Times New Roman,serif" font-size="14.00">access2</text>
</a>
</g>
</g>
<!-- http://example.org/dist\[k\]#1&#45;&gt;http://example.org/access2 -->
<g id="edge12" class="edge"><title>http://example.org/dist\[k\]#1&#45;&gt;http://example.org/access2</title>
<path fill="none" stroke="darkgreen" d="M171.047,-41.6901C189.768,-60.5783 220.919,-92.0075 242.631,-113.913"/>
<polygon fill="darkgreen" stroke="darkgreen" points="240.356,-116.59 249.881,-121.228 245.327,-111.662 240.356,-116.59"/>
<text text-anchor="middle" x="234" y="-85.8" font-family="Times New Roman,serif" font-size="14.00">gen</text>
<text text-anchor="middle" x="234" y="-70.8" font-family="Times New Roman,serif" font-size="14.00">14</text>
</g>
<!-- bn0 -->
<g id="node11" class="node"><title>bn0</title>
<ellipse fill="black" stroke="black" cx="130" cy="-139.5" rx="1.8" ry="1.8"/>
</g>
<!-- http://example.org/dist\[k\]#1&#45;&gt;bn0 -->
<g id="edge6" class="edge"><title>http://example.org/dist\[k\]#1&#45;&gt;bn0</title>
<path fill="none" stroke="darkgreen" d="M151.203,-42.6623C144.756,-71.804 132.176,-128.664 130.25,-137.37"/>
<text text-anchor="middle" x="167" y="-85.8" font-family="Times New Roman,serif" font-size="14.00">der ac&#45;r</text>
<text text-anchor="middle" x="167" y="-70.8" font-family="Times New Roman,serif" font-size="14.00">14</text>
</g>
<!-- &#45;attrs3 -->
<g id="node8" class="node"><title>&#45;attrs3</title>
<polygon fill="none" stroke="gray" points="70,-49 0,-49 0,-0 76,-0 76,-43 70,-49"/>
<polyline fill="none" stroke="gray" points="70,-49 70,-43 "/>
<polyline fill="none" stroke="gray" points="76,-43 70,-43 "/>
<text text-anchor="start" x="10" y="-34.5" font-family="Times New Roman,serif" font-size="10.00">value:</text>
<text text-anchor="start" x="37" y="-34.5" font-family="Times New Roman,serif" font-size="10.00">[0, 1, 4]</text>
<text text-anchor="start" x="10" y="-21.5" font-family="Times New Roman,serif" font-size="10.00">type:</text>
<text text-anchor="start" x="37" y="-21.5" font-family="Times New Roman,serif" font-size="10.00">access</text>
<text text-anchor="start" x="10" y="-8.5" font-family="Times New Roman,serif" font-size="10.00">label:</text>
<text text-anchor="start" x="37" y="-8.5" font-family="Times New Roman,serif" font-size="10.00">dist[k]</text>
</g>
<!-- &#45;attrs3&#45;&gt;http://example.org/dist\[k\]#1 -->
<g id="edge4" class="edge"><title>&#45;attrs3&#45;&gt;http://example.org/dist\[k\]#1</title>
<path fill="none" stroke="gray" stroke-dasharray="5,2" d="M76.3906,-24.5C88.0592,-24.5 99.7278,-24.5 111.396,-24.5"/>
</g>
<!-- http://example.org/access2&#45;&gt;http://example.org/matrix0 -->
<g id="edge11" class="edge"><title>http://example.org/access2&#45;&gt;http://example.org/matrix0</title>
<path fill="none" stroke="darkgreen" d="M241.133,-157.611C212.331,-176.663 165.864,-207.4 135.625,-227.403"/>
<polygon fill="darkgreen" stroke="darkgreen" points="133.587,-224.555 127.177,-232.991 137.449,-230.393 133.587,-224.555"/>
<text text-anchor="middle" x="209.5" y="-200.8" font-family="Times New Roman,serif" font-size="14.00">use</text>
<text text-anchor="middle" x="209.5" y="-185.8" font-family="Times New Roman,serif" font-size="14.00">14</text>
</g>
<!-- http://example.org/access2&#45;&gt;http://example.org/dist -->
<g id="edge10" class="edge"><title>http://example.org/access2&#45;&gt;http://example.org/dist</title>
<path fill="none" stroke="black" d="M264.854,-157.637C262.18,-173.167 256.354,-196.004 244,-212 237.684,-220.177 228.879,-226.973 220.163,-232.333"/>
<polygon fill="black" stroke="black" points="218.198,-229.424 211.22,-237.397 221.647,-235.515 218.198,-229.424"/>
<text text-anchor="middle" x="276.263" y="-165.475" font-family="Times New Roman,serif" font-size="8.00">use</text>
</g>
<!-- http://example.org/access2&#45;&gt;http://example.org/k#1 -->
<g id="edge9" class="edge"><title>http://example.org/access2&#45;&gt;http://example.org/k#1</title>
<path fill="none" stroke="black" d="M276.479,-157.611C286.153,-175.073 301.264,-202.35 312.251,-222.183"/>
<polygon fill="black" stroke="black" points="309.216,-223.925 317.123,-230.977 315.339,-220.533 309.216,-223.925"/>
<text text-anchor="middle" x="291.477" y="-155.977" font-family="Times New Roman,serif" font-size="8.00">use</text>
</g>
<!-- &#45;attrs4 -->
<g id="node10" class="node"><title>&#45;attrs4</title>
<polygon fill="none" stroke="gray" points="296.5,-42.5 231.5,-42.5 231.5,-6.5 302.5,-6.5 302.5,-36.5 296.5,-42.5"/>
<polyline fill="none" stroke="gray" points="296.5,-42.5 296.5,-36.5 "/>
<polyline fill="none" stroke="gray" points="302.5,-36.5 296.5,-36.5 "/>
<text text-anchor="start" x="242" y="-21.5" font-family="Times New Roman,serif" font-size="10.00">type:</text>
<text text-anchor="start" x="265" y="-21.5" font-family="Times New Roman,serif" font-size="10.00">access</text>
</g>
<!-- &#45;attrs4&#45;&gt;http://example.org/access2 -->
<g id="edge5" class="edge"><title>&#45;attrs4&#45;&gt;http://example.org/access2</title>
<path fill="none" stroke="gray" stroke-dasharray="5,2" d="M267,-42.6623C267,-63.9012 267,-99.863 267,-121.176"/>
</g>
<!-- bn0&#45;&gt;http://example.org/matrix0 -->
<g id="edge8" class="edge"><title>bn0&#45;&gt;http://example.org/matrix0</title>
<path fill="none" stroke="darkgreen" d="M129.73,-141.696C128.015,-149.308 118.488,-191.585 112.039,-220.201"/>
<polygon fill="darkgreen" stroke="darkgreen" points="108.607,-219.512 109.823,-230.036 115.436,-221.051 108.607,-219.512"/>
<text text-anchor="middle" x="128" y="-193.3" font-family="Times New Roman,serif" font-size="14.00">[0]</text>
</g>
<!-- bn0&#45;&gt;http://example.org/dist -->
<g id="edge7" class="edge"><title>bn0&#45;&gt;http://example.org/dist</title>
<path fill="none" stroke="darkgreen" stroke-dasharray="5,2" d="M130.392,-141.41C131.762,-144.574 136.498,-155.374 141,-164 151.366,-183.86 164.099,-205.779 173.846,-222.102"/>
<polygon fill="darkgreen" stroke="darkgreen" points="171.047,-224.24 179.199,-231.009 177.047,-220.634 171.047,-224.24"/>
</g>
</g>
</svg>
