<?xml version="1.0" encoding="UTF-8" standalone="no"?>
<!DOCTYPE svg PUBLIC "-//W3C//DTD SVG 1.1//EN"
 "http://www.w3.org/Graphics/SVG/1.1/DTD/svg11.dtd">
<!-- Generated by graphviz version 2.38.0 (20140413.2041)
 -->
<!-- Title: PROV Pages: 1 -->
<svg width="395pt" height="274pt"
 viewBox="0.00 0.00 395.00 274.00" xmlns="http://www.w3.org/2000/svg" xmlns:xlink="http://www.w3.org/1999/xlink">
<g id="graph0" class="graph" transform="scale(1 1) rotate(0) translate(4 270)">
<title>PROV</title>
<polygon fill="white" stroke="none" points="-4,4 -4,-270 391,-270 391,4 -4,4"/>
<!-- http://example.org/matrix0 -->
<g id="node1" class="node"><title>http://example.org/matrix0</title>
<g id="a_node1"><a xlink:href="http://example.org/matrix0" xlink:title="matrix0">
<ellipse fill="#fffc87" stroke="#808080" cx="111" cy="-248" rx="37.8943" ry="18"/>
<text text-anchor="middle" x="111" y="-244.3" font-family="Times New Roman,serif" font-size="14.00">matrix0</text>
</a>
</g>
</g>
<!-- &#45;attrs0 -->
<g id="node2" class="node"><title>&#45;attrs0</title>
<polygon fill="none" stroke="gray" points="109,-164 39,-164 39,-115 115,-115 115,-158 109,-164"/>
<polyline fill="none" stroke="gray" points="109,-164 109,-158 "/>
<polyline fill="none" stroke="gray" points="115,-158 109,-158 "/>
<text text-anchor="start" x="49" y="-149.5" font-family="Times New Roman,serif" font-size="10.00">value:</text>
<text text-anchor="start" x="76" y="-149.5" font-family="Times New Roman,serif" font-size="10.00">[0, 1, 4]</text>
<text text-anchor="start" x="49" y="-136.5" font-family="Times New Roman,serif" font-size="10.00">type:</text>
<text text-anchor="start" x="76" y="-136.5" font-family="Times New Roman,serif" font-size="10.00">list</text>
<text text-anchor="start" x="49" y="-123.5" font-family="Times New Roman,serif" font-size="10.00">label:</text>
<text text-anchor="start" x="76" y="-123.5" font-family="Times New Roman,serif" font-size="10.00">[0, 1, 4]</text>
</g>
<!-- &#45;attrs0&#45;&gt;http://example.org/matrix0 -->
<g id="edge1" class="edge"><title>&#45;attrs0&#45;&gt;http://example.org/matrix0</title>
<path fill="none" stroke="gray" stroke-dasharray="5,2" d="M84.5457,-164.136C90.9235,-184.113 99.9044,-212.245 105.588,-230.048"/>
</g>
<!-- http://example.org/dist -->
<g id="node3" class="node"><title>http://example.org/dist</title>
<g id="a_node3"><a xlink:href="http://example.org/dist" xlink:title="dist">
<ellipse fill="#fffc87" stroke="#808080" cx="194" cy="-248" rx="27" ry="18"/>
<text text-anchor="middle" x="194" y="-244.3" font-family="Times New Roman,serif" font-size="14.00">dist</text>
</a>
</g>
</g>
<!-- &#45;attrs1 -->
<g id="node4" class="node"><title>&#45;attrs1</title>
<polygon fill="none" stroke="gray" points="217.5,-164 154.5,-164 154.5,-115 223.5,-115 223.5,-158 217.5,-164"/>
<polyline fill="none" stroke="gray" points="217.5,-164 217.5,-158 "/>
<polyline fill="none" stroke="gray" points="223.5,-158 217.5,-158 "/>
<text text-anchor="start" x="165" y="-149.5" font-family="Times New Roman,serif" font-size="10.00">value:</text>
<text text-anchor="start" x="192" y="-149.5" font-family="Times New Roman,serif" font-size="10.00">[[...]]</text>
<text text-anchor="start" x="165" y="-136.5" font-family="Times New Roman,serif" font-size="10.00">type:</text>
<text text-anchor="start" x="192" y="-136.5" font-family="Times New Roman,serif" font-size="10.00">name</text>
<text text-anchor="start" x="165" y="-123.5" font-family="Times New Roman,serif" font-size="10.00">label:</text>
<text text-anchor="start" x="192" y="-123.5" font-family="Times New Roman,serif" font-size="10.00">dist</text>
</g>
<!-- &#45;attrs1&#45;&gt;http://example.org/dist -->
<g id="edge2" class="edge"><title>&#45;attrs1&#45;&gt;http://example.org/dist</title>
<path fill="none" stroke="gray" stroke-dasharray="5,2" d="M190.11,-164.136C191.042,-183.991 192.352,-211.9 193.189,-229.719"/>
</g>
<!-- http://example.org/k#1 -->
<g id="node5" class="node"><title>http://example.org/k#1</title>
<g id="a_node5"><a xlink:href="http://example.org/k#1" xlink:title="k#1">
<ellipse fill="#fffc87" stroke="#808080" cx="331" cy="-248" rx="27" ry="18"/>
<text text-anchor="middle" x="331" y="-244.3" font-family="Times New Roman,serif" font-size="14.00">k#1</text>
</a>
</g>
</g>
<!-- &#45;attrs2 -->
<g id="node6" class="node"><title>&#45;attrs2</title>
<polygon fill="none" stroke="gray" points="381,-157.5 321,-157.5 321,-121.5 387,-121.5 387,-151.5 381,-157.5"/>
<polyline fill="none" stroke="gray" points="381,-157.5 381,-151.5 "/>
<polyline fill="none" stroke="gray" points="387,-151.5 381,-151.5 "/>
<text text-anchor="start" x="331" y="-143.5" font-family="Times New Roman,serif" font-size="10.00">type:</text>
<text text-anchor="start" x="355" y="-143.5" font-family="Times New Roman,serif" font-size="10.00">name</text>
<text text-anchor="start" x="331" y="-130.5" font-family="Times New Roman,serif" font-size="10.00">label:</text>
<text text-anchor="start" x="355" y="-130.5" font-family="Times New Roman,serif" font-size="10.00">k</text>
</g>
<!-- &#45;attrs2&#45;&gt;http://example.org/k#1 -->
<g id="edge3" class="edge"><title>&#45;attrs2&#45;&gt;http://example.org/k#1</title>
<path fill="none" stroke="gray" stroke-dasharray="5,2" d="M350.305,-157.611C346.013,-177.485 338.974,-210.075 334.686,-229.931"/>
</g>
<!-- http://example.org/dist@k#1 -->
<g id="node7" class="node"><title>http://example.org/dist@k#1</title>
<g id="a_node7"><a xlink:href="http://example.org/dist@k#1" xlink:title="dist@k#1">
<ellipse fill="#fffc87" stroke="#808080" cx="158" cy="-24.5" rx="46.2923" ry="18"/>
<text text-anchor="middle" x="158" y="-20.8" font-family="Times New Roman,serif" font-size="14.00">dist@k#1</text>
</a>
</g>
</g>
<!-- http://example.org/access2 -->
<g id="node9" class="node"><title>http://example.org/access2</title>
<g id="a_node9"><a xlink:href="http://example.org/access2" xlink:title="access2">
<polygon fill="#9fb1fc" stroke="#0000ff" points="302.5,-157.5 241.5,-157.5 241.5,-121.5 302.5,-121.5 302.5,-157.5"/>
<text text-anchor="middle" x="272" y="-135.8" font-family="Times New Roman,serif" font-size="14.00">access2</text>
</a>
</g>
</g>
<!-- http://example.org/dist@k#1&#45;&gt;http://example.org/access2 -->
<g id="edge12" class="edge"><title>http://example.org/dist@k#1&#45;&gt;http://example.org/access2</title>
<path fill="none" stroke="darkgreen" d="M174.333,-41.6901C193.389,-60.5783 225.096,-92.0075 247.196,-113.913"/>
<polygon fill="darkgreen" stroke="darkgreen" points="245.009,-116.674 254.575,-121.228 249.937,-111.703 245.009,-116.674"/>
<text text-anchor="middle" x="238" y="-85.8" font-family="Times New Roman,serif" font-size="14.00">gen</text>
<text text-anchor="middle" x="238" y="-70.8" font-family="Times New Roman,serif" font-size="14.00">13</text>
</g>
<!-- bn0 -->
<g id="node11" class="node"><title>bn0</title>
<ellipse fill="black" stroke="black" cx="135" cy="-139.5" rx="1.8" ry="1.8"/>
</g>
<!-- http://example.org/dist@k#1&#45;&gt;bn0 -->
<g id="edge6" class="edge"><title>http://example.org/dist@k#1&#45;&gt;bn0</title>
<path fill="none" stroke="darkgreen" d="M154.507,-42.6623C148.575,-71.804 137.002,-128.664 135.23,-137.37"/>
<text text-anchor="middle" x="171" y="-85.8" font-family="Times New Roman,serif" font-size="14.00">der ac&#45;r</text>
<text text-anchor="middle" x="171" y="-70.8" font-family="Times New Roman,serif" font-size="14.00">13</text>
</g>
<!-- &#45;attrs3 -->
<g id="node8" class="node"><title>&#45;attrs3</title>
<polygon fill="none" stroke="gray" points="70,-49 0,-49 0,-0 76,-0 76,-43 70,-49"/>
<polyline fill="none" stroke="gray" points="70,-49 70,-43 "/>
<polyline fill="none" stroke="gray" points="76,-43 70,-43 "/>
<text text-anchor="start" x="10" y="-34.5" font-family="Times New Roman,serif" font-size="10.00">value:</text>
<text text-anchor="start" x="37" y="-34.5" font-family="Times New Roman,serif" font-size="10.00">[0, 1, 4]</text>
<text text-anchor="start" x="10" y="-21.5" font-family="Times New Roman,serif" font-size="10.00">type:</text>
<text text-anchor="start" x="37" y="-21.5" font-family="Times New Roman,serif" font-size="10.00">access</text>
<text text-anchor="start" x="10" y="-8.5" font-family="Times New Roman,serif" font-size="10.00">label:</text>
<text text-anchor="start" x="37" y="-8.5" font-family="Times New Roman,serif" font-size="10.00">dist[k]</text>
</g>
<!-- &#45;attrs3&#45;&gt;http://example.org/dist@k#1 -->
<g id="edge4" class="edge"><title>&#45;attrs3&#45;&gt;http://example.org/dist@k#1</title>
<path fill="none" stroke="gray" stroke-dasharray="5,2" d="M76.4375,-24.5C88.2258,-24.5 100.014,-24.5 111.802,-24.5"/>
</g>
<!-- http://example.org/access2&#45;&gt;http://example.org/matrix0 -->
<g id="edge11" class="edge"><title>http://example.org/access2&#45;&gt;http://example.org/matrix0</title>
<path fill="none" stroke="darkgreen" d="M246.133,-157.611C217.331,-176.663 170.864,-207.4 140.625,-227.403"/>
<polygon fill="darkgreen" stroke="darkgreen" points="138.587,-224.555 132.177,-232.991 142.449,-230.393 138.587,-224.555"/>
<text text-anchor="middle" x="214.5" y="-200.8" font-family="Times New Roman,serif" font-size="14.00">use</text>
<text text-anchor="middle" x="214.5" y="-185.8" font-family="Times New Roman,serif" font-size="14.00">13</text>
</g>
<!-- http://example.org/access2&#45;&gt;http://example.org/dist -->
<g id="edge10" class="edge"><title>http://example.org/access2&#45;&gt;http://example.org/dist</title>
<path fill="none" stroke="black" d="M269.854,-157.637C267.18,-173.167 261.354,-196.004 249,-212 242.684,-220.177 233.879,-226.973 225.163,-232.333"/>
<polygon fill="black" stroke="black" points="223.198,-229.424 216.22,-237.397 226.647,-235.515 223.198,-229.424"/>
<text text-anchor="middle" x="281.263" y="-165.475" font-family="Times New Roman,serif" font-size="8.00">use</text>
</g>
<!-- http://example.org/access2&#45;&gt;http://example.org/k#1 -->
<g id="edge9" class="edge"><title>http://example.org/access2&#45;&gt;http://example.org/k#1</title>
<path fill="none" stroke="black" d="M281.479,-157.611C291.153,-175.073 306.264,-202.35 317.251,-222.183"/>
<polygon fill="black" stroke="black" points="314.216,-223.925 322.123,-230.977 320.339,-220.533 314.216,-223.925"/>
<text text-anchor="middle" x="296.477" y="-155.977" font-family="Times New Roman,serif" font-size="8.00">use</text>
</g>
<!-- &#45;attrs4 -->
<g id="node10" class="node"><title>&#45;attrs4</title>
<polygon fill="none" stroke="gray" points="301.5,-42.5 236.5,-42.5 236.5,-6.5 307.5,-6.5 307.5,-36.5 301.5,-42.5"/>
<polyline fill="none" stroke="gray" points="301.5,-42.5 301.5,-36.5 "/>
<polyline fill="none" stroke="gray" points="307.5,-36.5 301.5,-36.5 "/>
<text text-anchor="start" x="247" y="-21.5" font-family="Times New Roman,serif" font-size="10.00">type:</text>
<text text-anchor="start" x="270" y="-21.5" font-family="Times New Roman,serif" font-size="10.00">access</text>
</g>
<!-- &#45;attrs4&#45;&gt;http://example.org/access2 -->
<g id="edge5" class="edge"><title>&#45;attrs4&#45;&gt;http://example.org/access2</title>
<path fill="none" stroke="gray" stroke-dasharray="5,2" d="M272,-42.6623C272,-63.9012 272,-99.863 272,-121.176"/>
</g>
<!-- bn0&#45;&gt;http://example.org/matrix0 -->
<g id="edge8" class="edge"><title>bn0&#45;&gt;http://example.org/matrix0</title>
<path fill="none" stroke="darkgreen" d="M134.73,-141.696C133.015,-149.308 123.488,-191.585 117.039,-220.201"/>
<polygon fill="darkgreen" stroke="darkgreen" points="113.607,-219.512 114.823,-230.036 120.436,-221.051 113.607,-219.512"/>
<text text-anchor="middle" x="133" y="-193.3" font-family="Times New Roman,serif" font-size="14.00">[0]</text>
</g>
<!-- bn0&#45;&gt;http://example.org/dist -->
<g id="edge7" class="edge"><title>bn0&#45;&gt;http://example.org/dist</title>
<path fill="none" stroke="darkgreen" stroke-dasharray="5,2" d="M135.392,-141.41C136.762,-144.574 141.498,-155.374 146,-164 156.366,-183.86 169.099,-205.779 178.846,-222.102"/>
<polygon fill="darkgreen" stroke="darkgreen" points="176.047,-224.24 184.199,-231.009 182.047,-220.634 176.047,-224.24"/>
</g>
</g>
</svg>
