<?xml version="1.0" encoding="UTF-8" standalone="no"?>
<!DOCTYPE svg PUBLIC "-//W3C//DTD SVG 1.1//EN"
 "http://www.w3.org/Graphics/SVG/1.1/DTD/svg11.dtd">
<!-- Generated by graphviz version 2.38.0 (20140413.2041)
 -->
<!-- Title: PROV Pages: 1 -->
<svg width="278pt" height="258pt"
 viewBox="0.00 0.00 278.00 258.00" xmlns="http://www.w3.org/2000/svg" xmlns:xlink="http://www.w3.org/1999/xlink">
<g id="graph0" class="graph" transform="scale(1 1) rotate(0) translate(4 254)">
<title>PROV</title>
<polygon fill="white" stroke="none" points="-4,4 -4,-254 274,-254 274,4 -4,4"/>
<!-- http://example.org/10000 -->
<g id="node1" class="node"><title>http://example.org/10000</title>
<g id="a_node1"><a xlink:href="http://example.org/10000" xlink:title="10000">
<ellipse fill="#fffc87" stroke="#808080" cx="178" cy="-232" rx="32.4942" ry="18"/>
<text text-anchor="middle" x="178" y="-228.3" font-family="Times New Roman,serif" font-size="14.00">10000</text>
</a>
</g>
</g>
<!-- &#45;attrs0 -->
<g id="node2" class="node"><title>&#45;attrs0</title>
<polygon fill="none" stroke="gray" points="125,-148 39,-148 39,-99 131,-99 131,-142 125,-148"/>
<polyline fill="none" stroke="gray" points="125,-148 125,-142 "/>
<polyline fill="none" stroke="gray" points="131,-142 125,-142 "/>
<text text-anchor="start" x="49" y="-133.5" font-family="Times New Roman,serif" font-size="10.00">value:</text>
<text text-anchor="start" x="98" y="-133.5" font-family="Times New Roman,serif" font-size="10.00">10000</text>
<text text-anchor="start" x="49" y="-120.5" font-family="Times New Roman,serif" font-size="10.00">type:</text>
<text text-anchor="start" x="98" y="-120.5" font-family="Times New Roman,serif" font-size="10.00">literal</text>
<text text-anchor="start" x="49" y="-107.5" font-family="Times New Roman,serif" font-size="10.00">checkpoint:</text>
<text text-anchor="start" x="98" y="-107.5" font-family="Times New Roman,serif" font-size="10.00">1</text>
</g>
<!-- &#45;attrs0&#45;&gt;http://example.org/10000 -->
<g id="edge1" class="edge"><title>&#45;attrs0&#45;&gt;http://example.org/10000</title>
<path fill="none" stroke="gray" stroke-dasharray="5,2" d="M105.64,-148.136C123.513,-168.604 148.86,-197.63 164.324,-215.339"/>
</g>
<!-- http://example.org/m -->
<g id="node3" class="node"><title>http://example.org/m</title>
<g id="a_node3"><a xlink:href="http://example.org/m" xlink:title="m">
<ellipse fill="#fffc87" stroke="#808080" cx="243" cy="-31" rx="27" ry="18"/>
<text text-anchor="middle" x="243" y="-27.3" font-family="Times New Roman,serif" font-size="14.00">m</text>
</a>
</g>
</g>
<!-- http://example.org/m&#45;&gt;http://example.org/10000 -->
<g id="edge4" class="edge"><title>http://example.org/m&#45;&gt;http://example.org/10000</title>
<path fill="none" stroke="darkgreen" d="M240.829,-49.0168C236.455,-79.6366 224.893,-145.527 201,-196 199.347,-199.491 197.39,-203.041 195.326,-206.474"/>
<polygon fill="darkgreen" stroke="darkgreen" points="192.201,-204.864 189.748,-215.17 198.093,-208.643 192.201,-204.864"/>
<text text-anchor="middle" x="249.5" y="-127.3" font-family="Times New Roman,serif" font-size="14.00">der ref</text>
<text text-anchor="middle" x="249.5" y="-112.3" font-family="Times New Roman,serif" font-size="14.00">2</text>
</g>
<!-- http://example.org/assign1 -->
<g id="node5" class="node"><title>http://example.org/assign1</title>
<g id="a_node5"><a xlink:href="http://example.org/assign1" xlink:title="assign1">
<polygon fill="#9fb1fc" stroke="#0000ff" points="207,-141.5 149,-141.5 149,-105.5 207,-105.5 207,-141.5"/>
<text text-anchor="middle" x="178" y="-119.8" font-family="Times New Roman,serif" font-size="14.00">assign1</text>
</a>
</g>
</g>
<!-- http://example.org/m&#45;&gt;http://example.org/assign1 -->
<g id="edge6" class="edge"><title>http://example.org/m&#45;&gt;http://example.org/assign1</title>
<path fill="none" stroke="black" d="M231.678,-47.7639C221.919,-61.3519 207.647,-81.2228 196.272,-97.06"/>
<polygon fill="black" stroke="black" points="193.289,-95.214 190.298,-105.378 198.974,-99.2975 193.289,-95.214"/>
<text text-anchor="middle" x="237.854" y="-59.5336" font-family="Times New Roman,serif" font-size="8.00">gen</text>
</g>
<!-- &#45;attrs1 -->
<g id="node4" class="node"><title>&#45;attrs1</title>
<polygon fill="none" stroke="gray" points="174,-62 88,-62 88,-0 180,-0 180,-56 174,-62"/>
<polyline fill="none" stroke="gray" points="174,-62 174,-56 "/>
<polyline fill="none" stroke="gray" points="180,-56 174,-56 "/>
<text text-anchor="start" x="98" y="-48" font-family="Times New Roman,serif" font-size="10.00">value:</text>
<text text-anchor="start" x="147" y="-48" font-family="Times New Roman,serif" font-size="10.00">10000</text>
<text text-anchor="start" x="98" y="-35" font-family="Times New Roman,serif" font-size="10.00">type:</text>
<text text-anchor="start" x="147" y="-35" font-family="Times New Roman,serif" font-size="10.00">name</text>
<text text-anchor="start" x="98" y="-22" font-family="Times New Roman,serif" font-size="10.00">label:</text>
<text text-anchor="start" x="147" y="-22" font-family="Times New Roman,serif" font-size="10.00">m</text>
<text text-anchor="start" x="98" y="-9" font-family="Times New Roman,serif" font-size="10.00">checkpoint:</text>
<text text-anchor="start" x="147" y="-9" font-family="Times New Roman,serif" font-size="10.00">2</text>
</g>
<!-- &#45;attrs1&#45;&gt;http://example.org/m -->
<g id="edge2" class="edge"><title>&#45;attrs1&#45;&gt;http://example.org/m</title>
<path fill="none" stroke="gray" stroke-dasharray="5,2" d="M180.41,-31C192.146,-31 203.881,-31 215.617,-31"/>
</g>
<!-- http://example.org/assign1&#45;&gt;http://example.org/10000 -->
<g id="edge5" class="edge"><title>http://example.org/assign1&#45;&gt;http://example.org/10000</title>
<path fill="none" stroke="darkgreen" d="M178,-141.611C178,-158.38 178,-184.201 178,-203.788"/>
<polygon fill="darkgreen" stroke="darkgreen" points="174.5,-203.931 178,-213.931 181.5,-203.931 174.5,-203.931"/>
<text text-anchor="middle" x="187.5" y="-184.8" font-family="Times New Roman,serif" font-size="14.00">use</text>
<text text-anchor="middle" x="187.5" y="-169.8" font-family="Times New Roman,serif" font-size="14.00">2</text>
</g>
<!-- &#45;attrs2 -->
<g id="node6" class="node"><title>&#45;attrs2</title>
<polygon fill="none" stroke="gray" points="64,-49 0,-49 0,-13 70,-13 70,-43 64,-49"/>
<polyline fill="none" stroke="gray" points="64,-49 64,-43 "/>
<polyline fill="none" stroke="gray" points="70,-43 64,-43 "/>
<text text-anchor="start" x="10" y="-28" font-family="Times New Roman,serif" font-size="10.00">type:</text>
<text text-anchor="start" x="33" y="-28" font-family="Times New Roman,serif" font-size="10.00">assign</text>
</g>
<!-- &#45;attrs2&#45;&gt;http://example.org/assign1 -->
<g id="edge3" class="edge"><title>&#45;attrs2&#45;&gt;http://example.org/assign1</title>
<path fill="none" stroke="gray" stroke-dasharray="5,2" d="M59.5132,-49.0517C65.8192,-53.3448 72.6248,-57.8973 79,-62 105.664,-79.1596 112.96,-82.4388 140,-99 143.307,-101.026 146.772,-103.157 150.207,-105.274"/>
</g>
</g>
</svg>
