<?xml version="1.0" encoding="UTF-8" standalone="no"?>
<!DOCTYPE svg PUBLIC "-//W3C//DTD SVG 1.1//EN"
 "http://www.w3.org/Graphics/SVG/1.1/DTD/svg11.dtd">
<!-- Generated by graphviz version 2.38.0 (20140413.2041)
 -->
<!-- Title: PROV Pages: 1 -->
<svg width="421pt" height="404pt"
 viewBox="0.00 0.00 421.00 404.00" xmlns="http://www.w3.org/2000/svg" xmlns:xlink="http://www.w3.org/1999/xlink">
<g id="graph0" class="graph" transform="scale(1 1) rotate(0) translate(4 400)">
<title>PROV</title>
<polygon fill="white" stroke="none" points="-4,4 -4,-400 417,-400 417,4 -4,4"/>
<!-- http://example.org/list -->
<g id="node1" class="node"><title>http://example.org/list</title>
<g id="a_node1"><a xlink:href="http://example.org/list" xlink:title="list">
<ellipse fill="#fffc87" stroke="#808080" cx="280.5" cy="-24.5" rx="27" ry="18"/>
<text text-anchor="middle" x="280.5" y="-20.8" font-family="Times New Roman,serif" font-size="14.00">list</text>
</a>
</g>
</g>
<!-- http://example.org/disti\[j\]#3 -->
<g id="node11" class="node"><title>http://example.org/disti\[j\]#3</title>
<g id="a_node11"><a xlink:href="http://example.org/disti\[j\]#3" xlink:title="disti\[j\]#3">
<ellipse fill="#fffc87" stroke="#808080" cx="129.5" cy="-154.5" rx="42.7926" ry="18"/>
<text text-anchor="middle" x="129.5" y="-150.8" font-family="Times New Roman,serif" font-size="14.00">disti[j]#3</text>
</a>
</g>
</g>
<!-- http://example.org/list&#45;&gt;http://example.org/disti\[j\]#3 -->
<g id="edge13" class="edge"><title>http://example.org/list&#45;&gt;http://example.org/disti\[j\]#3</title>
<path fill="none" stroke="darkgreen" d="M264.34,-39.1982C238.36,-61.2217 187.053,-104.713 155.761,-131.239"/>
<polygon fill="darkgreen" stroke="darkgreen" points="153.248,-128.781 147.883,-137.917 157.775,-134.12 153.248,-128.781"/>
<text text-anchor="middle" x="247" y="-100.8" font-family="Times New Roman,serif" font-size="14.00">der&#45;ins</text>
<text text-anchor="middle" x="247" y="-85.8" font-family="Times New Roman,serif" font-size="14.00">[1]</text>
<text text-anchor="middle" x="247" y="-70.8" font-family="Times New Roman,serif" font-size="14.00">38</text>
</g>
<!-- &#45;attrs0 -->
<g id="node2" class="node"><title>&#45;attrs0</title>
<polygon fill="none" stroke="gray" points="211.5,-49 123.5,-49 123.5,-0 217.5,-0 217.5,-43 211.5,-49"/>
<polyline fill="none" stroke="gray" points="211.5,-49 211.5,-43 "/>
<polyline fill="none" stroke="gray" points="217.5,-43 211.5,-43 "/>
<text text-anchor="start" x="133.5" y="-34.5" font-family="Times New Roman,serif" font-size="10.00">value:</text>
<text text-anchor="start" x="160.5" y="-34.5" font-family="Times New Roman,serif" font-size="10.00">[2, 10000, 0]</text>
<text text-anchor="start" x="133.5" y="-21.5" font-family="Times New Roman,serif" font-size="10.00">type:</text>
<text text-anchor="start" x="160.5" y="-21.5" font-family="Times New Roman,serif" font-size="10.00">list</text>
<text text-anchor="start" x="133.5" y="-8.5" font-family="Times New Roman,serif" font-size="10.00">label:</text>
<text text-anchor="start" x="160.5" y="-8.5" font-family="Times New Roman,serif" font-size="10.00">[2, m, 0]</text>
</g>
<!-- &#45;attrs0&#45;&gt;http://example.org/list -->
<g id="edge1" class="edge"><title>&#45;attrs0&#45;&gt;http://example.org/list</title>
<path fill="none" stroke="gray" stroke-dasharray="5,2" d="M217.766,-24.5C229.528,-24.5 241.291,-24.5 253.054,-24.5"/>
</g>
<!-- http://example.org/disti#2 -->
<g id="node3" class="node"><title>http://example.org/disti#2</title>
<g id="a_node3"><a xlink:href="http://example.org/disti#2" xlink:title="disti#2">
<ellipse fill="#fffc87" stroke="#808080" cx="147.5" cy="-378" rx="35.194" ry="18"/>
<text text-anchor="middle" x="147.5" y="-374.3" font-family="Times New Roman,serif" font-size="14.00">disti#2</text>
</a>
</g>
</g>
<!-- &#45;attrs1 -->
<g id="node4" class="node"><title>&#45;attrs1</title>
<polygon fill="none" stroke="gray" points="184.5,-294 96.5,-294 96.5,-245 190.5,-245 190.5,-288 184.5,-294"/>
<polyline fill="none" stroke="gray" points="184.5,-294 184.5,-288 "/>
<polyline fill="none" stroke="gray" points="190.5,-288 184.5,-288 "/>
<text text-anchor="start" x="106.5" y="-279.5" font-family="Times New Roman,serif" font-size="10.00">value:</text>
<text text-anchor="start" x="133.5" y="-279.5" font-family="Times New Roman,serif" font-size="10.00">[2, 10000, 0]</text>
<text text-anchor="start" x="106.5" y="-266.5" font-family="Times New Roman,serif" font-size="10.00">type:</text>
<text text-anchor="start" x="133.5" y="-266.5" font-family="Times New Roman,serif" font-size="10.00">name</text>
<text text-anchor="start" x="106.5" y="-253.5" font-family="Times New Roman,serif" font-size="10.00">label:</text>
<text text-anchor="start" x="133.5" y="-253.5" font-family="Times New Roman,serif" font-size="10.00">disti</text>
</g>
<!-- &#45;attrs1&#45;&gt;http://example.org/disti#2 -->
<g id="edge2" class="edge"><title>&#45;attrs1&#45;&gt;http://example.org/disti#2</title>
<path fill="none" stroke="gray" stroke-dasharray="5,2" d="M144.388,-294.136C145.133,-313.991 146.182,-341.9 146.851,-359.719"/>
</g>
<!-- http://example.org/j#5 -->
<g id="node5" class="node"><title>http://example.org/j#5</title>
<g id="a_node5"><a xlink:href="http://example.org/j#5" xlink:title="j#5">
<ellipse fill="#fffc87" stroke="#808080" cx="355.5" cy="-378" rx="27" ry="18"/>
<text text-anchor="middle" x="355.5" y="-374.3" font-family="Times New Roman,serif" font-size="14.00">j#5</text>
</a>
</g>
</g>
<!-- &#45;attrs2 -->
<g id="node6" class="node"><title>&#45;attrs2</title>
<polygon fill="none" stroke="gray" points="407,-294 344,-294 344,-245 413,-245 413,-288 407,-294"/>
<polyline fill="none" stroke="gray" points="407,-294 407,-288 "/>
<polyline fill="none" stroke="gray" points="413,-288 407,-288 "/>
<text text-anchor="start" x="354.5" y="-279.5" font-family="Times New Roman,serif" font-size="10.00">value:</text>
<text text-anchor="start" x="381.5" y="-279.5" font-family="Times New Roman,serif" font-size="10.00">1</text>
<text text-anchor="start" x="354.5" y="-266.5" font-family="Times New Roman,serif" font-size="10.00">type:</text>
<text text-anchor="start" x="381.5" y="-266.5" font-family="Times New Roman,serif" font-size="10.00">name</text>
<text text-anchor="start" x="354.5" y="-253.5" font-family="Times New Roman,serif" font-size="10.00">label:</text>
<text text-anchor="start" x="381.5" y="-253.5" font-family="Times New Roman,serif" font-size="10.00">j</text>
</g>
<!-- &#45;attrs2&#45;&gt;http://example.org/j#5 -->
<g id="edge3" class="edge"><title>&#45;attrs2&#45;&gt;http://example.org/j#5</title>
<path fill="none" stroke="gray" stroke-dasharray="5,2" d="M373.674,-294.031C370.784,-307.987 367.003,-326.018 363.5,-342 362.219,-347.845 360.774,-354.228 359.468,-359.924"/>
</g>
<!-- http://example.org/ikj#2 -->
<g id="node7" class="node"><title>http://example.org/ikj#2</title>
<g id="a_node7"><a xlink:href="http://example.org/ikj#2" xlink:title="ikj#2">
<ellipse fill="#fffc87" stroke="#808080" cx="65.5" cy="-378" rx="28.6953" ry="18"/>
<text text-anchor="middle" x="65.5" y="-374.3" font-family="Times New Roman,serif" font-size="14.00">ikj#2</text>
</a>
</g>
</g>
<!-- &#45;attrs3 -->
<g id="node8" class="node"><title>&#45;attrs3</title>
<polygon fill="none" stroke="gray" points="63,-179 0,-179 0,-130 69,-130 69,-173 63,-179"/>
<polyline fill="none" stroke="gray" points="63,-179 63,-173 "/>
<polyline fill="none" stroke="gray" points="69,-173 63,-173 "/>
<text text-anchor="start" x="10.5" y="-164.5" font-family="Times New Roman,serif" font-size="10.00">value:</text>
<text text-anchor="start" x="37.5" y="-164.5" font-family="Times New Roman,serif" font-size="10.00">3</text>
<text text-anchor="start" x="10.5" y="-151.5" font-family="Times New Roman,serif" font-size="10.00">type:</text>
<text text-anchor="start" x="37.5" y="-151.5" font-family="Times New Roman,serif" font-size="10.00">name</text>
<text text-anchor="start" x="10.5" y="-138.5" font-family="Times New Roman,serif" font-size="10.00">label:</text>
<text text-anchor="start" x="37.5" y="-138.5" font-family="Times New Roman,serif" font-size="10.00">ikj</text>
</g>
<!-- &#45;attrs3&#45;&gt;http://example.org/ikj#2 -->
<g id="edge4" class="edge"><title>&#45;attrs3&#45;&gt;http://example.org/ikj#2</title>
<path fill="none" stroke="gray" stroke-dasharray="5,2" d="M37.8175,-179.204C44.1122,-224.181 57.6481,-320.897 63.1262,-360.039"/>
</g>
<!-- http://example.org/disti\[j\]#2 -->
<g id="node9" class="node"><title>http://example.org/disti\[j\]#2</title>
<g id="a_node9"><a xlink:href="http://example.org/disti\[j\]#2" xlink:title="disti\[j\]#2">
<ellipse fill="#fffc87" stroke="#808080" cx="265.5" cy="-378" rx="42.7926" ry="18"/>
<text text-anchor="middle" x="265.5" y="-374.3" font-family="Times New Roman,serif" font-size="14.00">disti[j]#2</text>
</a>
</g>
</g>
<!-- &#45;attrs4 -->
<g id="node10" class="node"><title>&#45;attrs4</title>
<polygon fill="none" stroke="gray" points="348,-179 279,-179 279,-130 354,-130 354,-173 348,-179"/>
<polyline fill="none" stroke="gray" points="348,-179 348,-173 "/>
<polyline fill="none" stroke="gray" points="354,-173 348,-173 "/>
<text text-anchor="start" x="289.5" y="-164.5" font-family="Times New Roman,serif" font-size="10.00">value:</text>
<text text-anchor="start" x="316.5" y="-164.5" font-family="Times New Roman,serif" font-size="10.00">10000</text>
<text text-anchor="start" x="289.5" y="-151.5" font-family="Times New Roman,serif" font-size="10.00">type:</text>
<text text-anchor="start" x="316.5" y="-151.5" font-family="Times New Roman,serif" font-size="10.00">access</text>
<text text-anchor="start" x="289.5" y="-138.5" font-family="Times New Roman,serif" font-size="10.00">label:</text>
<text text-anchor="start" x="316.5" y="-138.5" font-family="Times New Roman,serif" font-size="10.00">disti[j]</text>
</g>
<!-- &#45;attrs4&#45;&gt;http://example.org/disti\[j\]#2 -->
<g id="edge5" class="edge"><title>&#45;attrs4&#45;&gt;http://example.org/disti\[j\]#2</title>
<path fill="none" stroke="gray" stroke-dasharray="5,2" d="M311.042,-179.204C300.686,-224.181 278.418,-320.897 269.405,-360.039"/>
</g>
<!-- http://example.org/assign12 -->
<g id="node13" class="node"><title>http://example.org/assign12</title>
<g id="a_node13"><a xlink:href="http://example.org/assign12" xlink:title="assign12">
<polygon fill="#9fb1fc" stroke="#0000ff" points="274,-287.5 209,-287.5 209,-251.5 274,-251.5 274,-287.5"/>
<text text-anchor="middle" x="241.5" y="-265.8" font-family="Times New Roman,serif" font-size="14.00">assign12</text>
</a>
</g>
</g>
<!-- http://example.org/disti\[j\]#3&#45;&gt;http://example.org/assign12 -->
<g id="edge16" class="edge"><title>http://example.org/disti\[j\]#3&#45;&gt;http://example.org/assign12</title>
<path fill="none" stroke="darkgreen" d="M145.547,-171.69C164.268,-190.578 195.419,-222.008 217.131,-243.913"/>
<polygon fill="darkgreen" stroke="darkgreen" points="214.856,-246.59 224.381,-251.228 219.827,-241.662 214.856,-246.59"/>
<text text-anchor="middle" x="209.5" y="-215.8" font-family="Times New Roman,serif" font-size="14.00">gen</text>
<text text-anchor="middle" x="209.5" y="-200.8" font-family="Times New Roman,serif" font-size="14.00">38</text>
</g>
<!-- bn0 -->
<g id="node15" class="node"><title>bn0</title>
<ellipse fill="black" stroke="black" cx="76.5" cy="-269.5" rx="1.8" ry="1.8"/>
</g>
<!-- http://example.org/disti\[j\]#3&#45;&gt;bn0 -->
<g id="edge8" class="edge"><title>http://example.org/disti\[j\]#3&#45;&gt;bn0</title>
<path fill="none" stroke="darkgreen" d="M119.677,-172.241C115.433,-179.718 110.527,-188.699 106.5,-197 92.8686,-225.099 79.3054,-260.991 76.8822,-267.473"/>
<text text-anchor="middle" x="131" y="-215.8" font-family="Times New Roman,serif" font-size="14.00">der ac&#45;w</text>
<text text-anchor="middle" x="131" y="-200.8" font-family="Times New Roman,serif" font-size="14.00">38</text>
</g>
<!-- &#45;attrs5 -->
<g id="node12" class="node"><title>&#45;attrs5</title>
<polygon fill="none" stroke="gray" points="99,-49 30,-49 30,-0 105,-0 105,-43 99,-49"/>
<polyline fill="none" stroke="gray" points="99,-49 99,-43 "/>
<polyline fill="none" stroke="gray" points="105,-43 99,-43 "/>
<text text-anchor="start" x="40.5" y="-34.5" font-family="Times New Roman,serif" font-size="10.00">value:</text>
<text text-anchor="start" x="67.5" y="-34.5" font-family="Times New Roman,serif" font-size="10.00">3</text>
<text text-anchor="start" x="40.5" y="-21.5" font-family="Times New Roman,serif" font-size="10.00">type:</text>
<text text-anchor="start" x="67.5" y="-21.5" font-family="Times New Roman,serif" font-size="10.00">access</text>
<text text-anchor="start" x="40.5" y="-8.5" font-family="Times New Roman,serif" font-size="10.00">label:</text>
<text text-anchor="start" x="67.5" y="-8.5" font-family="Times New Roman,serif" font-size="10.00">disti[j]</text>
</g>
<!-- &#45;attrs5&#45;&gt;http://example.org/disti\[j\]#3 -->
<g id="edge6" class="edge"><title>&#45;attrs5&#45;&gt;http://example.org/disti\[j\]#3</title>
<path fill="none" stroke="gray" stroke-dasharray="5,2" d="M79.0164,-49.2758C91.3433,-74.7248 110.582,-114.444 121.403,-136.783"/>
</g>
<!-- http://example.org/assign12&#45;&gt;http://example.org/disti#2 -->
<g id="edge12" class="edge"><title>http://example.org/assign12&#45;&gt;http://example.org/disti#2</title>
<path fill="none" stroke="darkgreen" d="M236.239,-287.755C230.794,-303.367 221.028,-326.257 206.5,-342 199.726,-349.34 191.058,-355.628 182.464,-360.764"/>
<polygon fill="darkgreen" stroke="darkgreen" points="180.648,-357.769 173.618,-365.696 184.057,-363.883 180.648,-357.769"/>
<text text-anchor="middle" x="236" y="-330.8" font-family="Times New Roman,serif" font-size="14.00">use</text>
<text text-anchor="middle" x="236" y="-315.8" font-family="Times New Roman,serif" font-size="14.00">37</text>
</g>
<!-- http://example.org/assign12&#45;&gt;http://example.org/j#5 -->
<g id="edge11" class="edge"><title>http://example.org/assign12&#45;&gt;http://example.org/j#5</title>
<path fill="none" stroke="black" d="M259.816,-287.611C279.772,-306.254 311.705,-336.087 333.129,-356.101"/>
<polygon fill="black" stroke="black" points="330.808,-358.722 340.505,-362.991 335.587,-353.607 330.808,-358.722"/>
<text text-anchor="middle" x="274.165" y="-281.338" font-family="Times New Roman,serif" font-size="8.00">use</text>
</g>
<!-- http://example.org/assign12&#45;&gt;http://example.org/ikj#2 -->
<g id="edge15" class="edge"><title>http://example.org/assign12&#45;&gt;http://example.org/ikj#2</title>
<path fill="none" stroke="darkgreen" d="M213.223,-287.611C180.537,-307.39 127.038,-339.762 94.182,-359.644"/>
<polygon fill="darkgreen" stroke="darkgreen" points="92.2403,-356.728 85.4967,-364.9 95.8643,-362.717 92.2403,-356.728"/>
<text text-anchor="middle" x="179" y="-330.8" font-family="Times New Roman,serif" font-size="14.00">use</text>
<text text-anchor="middle" x="179" y="-315.8" font-family="Times New Roman,serif" font-size="14.00">38</text>
</g>
<!-- http://example.org/assign12&#45;&gt;http://example.org/disti\[j\]#2 -->
<g id="edge14" class="edge"><title>http://example.org/assign12&#45;&gt;http://example.org/disti\[j\]#2</title>
<path fill="none" stroke="black" d="M245.356,-287.611C249.152,-304.457 255.008,-330.441 259.429,-350.06"/>
<polygon fill="black" stroke="black" points="256.041,-350.945 261.654,-359.931 262.869,-349.407 256.041,-350.945"/>
<text text-anchor="middle" x="259.677" y="-290.172" font-family="Times New Roman,serif" font-size="8.00">use</text>
</g>
<!-- &#45;attrs6 -->
<g id="node14" class="node"><title>&#45;attrs6</title>
<polygon fill="none" stroke="gray" points="254.5,-172.5 190.5,-172.5 190.5,-136.5 260.5,-136.5 260.5,-166.5 254.5,-172.5"/>
<polyline fill="none" stroke="gray" points="254.5,-172.5 254.5,-166.5 "/>
<polyline fill="none" stroke="gray" points="260.5,-166.5 254.5,-166.5 "/>
<text text-anchor="start" x="200.5" y="-151.5" font-family="Times New Roman,serif" font-size="10.00">type:</text>
<text text-anchor="start" x="223.5" y="-151.5" font-family="Times New Roman,serif" font-size="10.00">assign</text>
</g>
<!-- &#45;attrs6&#45;&gt;http://example.org/assign12 -->
<g id="edge7" class="edge"><title>&#45;attrs6&#45;&gt;http://example.org/assign12</title>
<path fill="none" stroke="gray" stroke-dasharray="5,2" d="M227.93,-172.662C230.937,-193.901 236.029,-229.863 239.047,-251.176"/>
</g>
<!-- bn0&#45;&gt;http://example.org/disti#2 -->
<g id="edge9" class="edge"><title>bn0&#45;&gt;http://example.org/disti#2</title>
<path fill="none" stroke="darkgreen" stroke-dasharray="5,2" d="M76.8603,-271.428C78.1269,-274.649 82.5655,-285.614 87.5,-294 99.6731,-314.688 115.693,-336.638 128.117,-352.766"/>
<polygon fill="darkgreen" stroke="darkgreen" points="125.693,-355.349 134.602,-361.082 131.213,-351.044 125.693,-355.349"/>
</g>
<!-- bn0&#45;&gt;http://example.org/ikj#2 -->
<g id="edge10" class="edge"><title>bn0&#45;&gt;http://example.org/ikj#2</title>
<path fill="none" stroke="darkgreen" d="M76.3765,-271.696C75.5979,-279.234 71.3081,-320.767 68.3544,-349.364"/>
<polygon fill="darkgreen" stroke="darkgreen" points="64.844,-349.286 67.298,-359.592 71.8069,-350.005 64.844,-349.286"/>
<text text-anchor="middle" x="80.5" y="-323.3" font-family="Times New Roman,serif" font-size="14.00">[1]</text>
</g>
</g>
</svg>
