<?xml version="1.0" encoding="UTF-8" standalone="no"?>
<!DOCTYPE svg PUBLIC "-//W3C//DTD SVG 1.1//EN"
 "http://www.w3.org/Graphics/SVG/1.1/DTD/svg11.dtd">
<!-- Generated by graphviz version 2.38.0 (20140413.2041)
 -->
<!-- Title: PROV Pages: 1 -->
<svg width="1152pt" height="737pt"
 viewBox="0.00 0.00 1152.00 737.11" xmlns="http://www.w3.org/2000/svg" xmlns:xlink="http://www.w3.org/1999/xlink">
<g id="graph0" class="graph" transform="scale(0.548049 0.548049) rotate(0) translate(4 1340.96)">
<title>PROV</title>
<polygon fill="white" stroke="none" points="-4,4 -4,-1340.96 2098,-1340.96 2098,4 -4,4"/>
<g id="clust2" class="cluster"><title>cluster_1</title>
<polygon fill="none" stroke="#333333" points="8,-452.659 8,-1328.96 829,-1328.96 829,-452.659 8,-452.659"/>
<text text-anchor="middle" x="808.5" y="-1296.16" font-family="Times New Roman,serif" font-size="36.00" fill="#333333">B</text>
</g>
<g id="clust1" class="cluster"><title>cluster_0</title>
<polygon fill="none" stroke="#333333" points="837,-247.6 837,-1107.08 1486,-1107.08 1486,-247.6 837,-247.6"/>
<text text-anchor="middle" x="1465" y="-1074.28" font-family="Times New Roman,serif" font-size="36.00" fill="#333333">A</text>
</g>
<g id="clust3" class="cluster"><title>cluster_2</title>
<polygon fill="none" stroke="#333333" points="1494,-8 1494,-647.6 2067,-647.6 2067,-8 1494,-8"/>
<text text-anchor="middle" x="2046.5" y="-614.8" font-family="Times New Roman,serif" font-size="36.00" fill="#333333">C</text>
</g>
<!-- g/disti@j#3 -->
<g id="node1" class="node"><title>g/disti@j#3</title>
<g id="a_node1"><a xlink:href="g/disti@j#3" xlink:title="disti@j#3">
<ellipse fill="#fffc87" stroke="#808080" cx="1374" cy="-310.6" rx="109.703" ry="33.8824"/>
<text text-anchor="middle" x="1374" y="-301.8" font-family="Times New Roman,serif" font-size="36.00">disti@j#3</text>
</a>
</g>
</g>
<!-- g/assign11 -->
<g id="node3" class="node"><title>g/assign11</title>
<g id="a_node3"><a xlink:href="g/assign11" xlink:title="assign11">
<polygon fill="#9fb1fc" stroke="#0000ff" points="1134.5,-512.6 993.5,-512.6 993.5,-464.6 1134.5,-464.6 1134.5,-512.6"/>
<text text-anchor="middle" x="1064" y="-479.8" font-family="Times New Roman,serif" font-size="36.00">assign11</text>
</a>
</g>
</g>
<!-- g/disti@j#3&#45;&gt;g/assign11 -->
<g id="edge60" class="edge"><title>g/disti@j#3&#45;&gt;g/assign11</title>
<path fill="none" stroke="black" d="M1312.85,-338.831C1265.57,-360.738 1199.1,-393.413 1144,-427.6 1129.22,-436.771 1113.75,-447.956 1100.4,-458.172"/>
<polygon fill="black" stroke="black" points="1098.15,-455.49 1092.39,-464.381 1102.43,-461.023 1098.15,-455.49"/>
<text text-anchor="middle" x="1308.54" y="-381.145" font-family="Times New Roman,serif" font-size="30.00">gen</text>
</g>
<!-- g/ikj#2 -->
<g id="node5" class="node"><title>g/ikj#2</title>
<g id="a_node5"><a xlink:href="g/ikj#2" xlink:title="ikj#2">
<ellipse fill="#fffc87" stroke="#808080" cx="1244" cy="-737.541" rx="62.4516" ry="33.8824"/>
<text text-anchor="middle" x="1244" y="-728.741" font-family="Times New Roman,serif" font-size="36.00">ikj#2</text>
</a>
</g>
</g>
<!-- g/disti@j#3&#45;&gt;g/ikj#2 -->
<g id="edge45" class="edge"><title>g/disti@j#3&#45;&gt;g/ikj#2</title>
<path fill="none" stroke="black" d="M1334.13,-342.31C1323.35,-352.861 1313.01,-365.585 1307,-379.6 1279.33,-444.179 1328.97,-633.036 1297,-695.6 1295.47,-698.603 1293.6,-701.45 1291.5,-704.14"/>
<polygon fill="black" stroke="black" points="1288.72,-701.985 1284.56,-711.729 1293.89,-706.705 1288.72,-701.985"/>
<text text-anchor="middle" x="1347.16" y="-383.085" font-family="Times New Roman,serif" font-size="30.00">der</text>
</g>
<!-- g/disti@j#3&#45;attrs -->
<g id="node2" class="node"><title>g/disti@j#3&#45;attrs</title>
<polygon fill="none" stroke="gray" points="1223,-371.6 1085,-371.6 1085,-249.6 1229,-249.6 1229,-365.6 1223,-371.6"/>
<polyline fill="none" stroke="gray" points="1223,-371.6 1223,-365.6 "/>
<polyline fill="none" stroke="gray" points="1229,-365.6 1223,-365.6 "/>
<text text-anchor="start" x="1095" y="-346.4" font-family="Times New Roman,serif" font-size="24.00">value:</text>
<text text-anchor="start" x="1155" y="-346.4" font-family="Times New Roman,serif" font-size="24.00">3</text>
<text text-anchor="start" x="1095" y="-318.4" font-family="Times New Roman,serif" font-size="24.00">type:</text>
<text text-anchor="start" x="1155" y="-318.4" font-family="Times New Roman,serif" font-size="24.00">access</text>
<text text-anchor="start" x="1095" y="-290.4" font-family="Times New Roman,serif" font-size="24.00">label:</text>
<text text-anchor="start" x="1155" y="-290.4" font-family="Times New Roman,serif" font-size="24.00">disti[j]</text>
<text text-anchor="start" x="1095" y="-262.4" font-family="Times New Roman,serif" font-size="24.00">line:</text>
<text text-anchor="start" x="1155" y="-262.4" font-family="Times New Roman,serif" font-size="24.00">17</text>
</g>
<!-- g/disti@j#3&#45;attrs&#45;&gt;g/disti@j#3 -->
<g id="edge43" class="edge"><title>g/disti@j#3&#45;attrs&#45;&gt;g/disti@j#3</title>
<path fill="none" stroke="gray" stroke-dasharray="5,2" d="M1229.05,-310.6C1240.75,-310.6 1252.45,-310.6 1264.16,-310.6"/>
</g>
<!-- g/assign11&#45;&gt;g/ikj#2 -->
<g id="edge58" class="edge"><title>g/assign11&#45;&gt;g/ikj#2</title>
<path fill="none" stroke="black" d="M1072.56,-512.862C1085.12,-545.125 1110.7,-604.362 1144,-647.6 1159.88,-668.217 1181,-687.818 1199.75,-703.346"/>
<polygon fill="black" stroke="black" points="1197.64,-706.147 1207.61,-709.742 1202.06,-700.717 1197.64,-706.147"/>
<text text-anchor="middle" x="1122.03" y="-512.595" font-family="Times New Roman,serif" font-size="30.00">use</text>
</g>
<!-- g/j#5 -->
<g id="node7" class="node"><title>g/j#5</title>
<g id="a_node7"><a xlink:href="g/j#5" xlink:title="j#5">
<ellipse fill="#fffc87" stroke="#808080" cx="883" cy="-737.541" rx="43.6818" ry="33.8824"/>
<text text-anchor="middle" x="883" y="-728.741" font-family="Times New Roman,serif" font-size="36.00">j#5</text>
</a>
</g>
</g>
<!-- g/assign11&#45;&gt;g/j#5 -->
<g id="edge46" class="edge"><title>g/assign11&#45;&gt;g/j#5</title>
<path fill="none" stroke="black" d="M1055.58,-512.613C1043.09,-544.841 1017.5,-604.323 984,-647.6 966.528,-670.171 942.73,-691.455 922.623,-707.54"/>
<polygon fill="black" stroke="black" points="920.251,-704.952 914.549,-713.882 924.575,-710.457 920.251,-704.952"/>
<text text-anchor="middle" x="1086.64" y="-544.294" font-family="Times New Roman,serif" font-size="30.00">use</text>
</g>
<!-- g/disti@j#2 -->
<g id="node9" class="node"><title>g/disti@j#2</title>
<g id="a_node9"><a xlink:href="g/disti@j#2" xlink:title="disti@j#2">
<ellipse fill="#fafafa" stroke="#999999" cx="1054" cy="-737.541" rx="109.703" ry="33.8824"/>
<text text-anchor="middle" x="1054" y="-728.741" font-family="Times New Roman,serif" font-size="36.00" fill="#999999">disti@j#2</text>
</a>
</g>
</g>
<!-- g/assign11&#45;&gt;g/disti@j#2 -->
<g id="edge47" class="edge"><title>g/assign11&#45;&gt;g/disti@j#2</title>
<path fill="none" stroke="#999999" d="M1063.06,-512.832C1061.39,-554.141 1057.87,-640.954 1055.74,-693.459"/>
<polygon fill="#999999" stroke="#999999" points="1052.25,-693.345 1055.34,-703.479 1059.24,-693.629 1052.25,-693.345"/>
<text text-anchor="middle" x="1105.31" y="-532.063" font-family="Times New Roman,serif" font-size="30.00" fill="#999999">use</text>
</g>
<!-- g/disti#2 -->
<g id="node11" class="node"><title>g/disti#2</title>
<g id="a_node11"><a xlink:href="g/disti#2" xlink:title="disti#2">
<ellipse fill="#fffc87" stroke="#808080" cx="1404" cy="-737.541" rx="79.8063" ry="33.8824"/>
<text text-anchor="middle" x="1404" y="-728.741" font-family="Times New Roman,serif" font-size="36.00">disti#2</text>
</a>
</g>
</g>
<!-- g/assign11&#45;&gt;g/disti#2 -->
<g id="edge57" class="edge"><title>g/assign11&#45;&gt;g/disti#2</title>
<path fill="none" stroke="#800000" d="M1069.23,-512.824C1078.28,-547.563 1100.26,-612.696 1144,-647.6 1155.46,-656.744 1161.95,-651.426 1176,-655.6 1238.65,-674.21 1253.46,-681.589 1315,-703.6 1321.72,-706.003 1328.71,-708.536 1335.69,-711.086"/>
<polygon fill="#800000" stroke="#800000" points="1334.59,-714.409 1345.18,-714.564 1337,-707.836 1334.59,-714.409"/>
<text text-anchor="middle" x="1316.5" y="-666.8" font-family="Times New Roman,serif" font-size="36.00" fill="#800000">use</text>
</g>
<!-- g/dist#1 -->
<g id="node20" class="node"><title>g/dist#1</title>
<g id="a_node20"><a xlink:href="g/dist#1" xlink:title="dist#1">
<ellipse fill="#fafafa" stroke="#999999" cx="753" cy="-488.6" rx="73.5782" ry="33.8824"/>
<text text-anchor="middle" x="753" y="-479.8" font-family="Times New Roman,serif" font-size="36.00" fill="#999999">dist#1</text>
</a>
</g>
</g>
<!-- g/assign11&#45;&gt;g/dist#1 -->
<g id="edge56" class="edge"><title>g/assign11&#45;&gt;g/dist#1</title>
<path fill="none" stroke="#800000" d="M1051.6,-464.278C1037.19,-439.004 1010.8,-400.91 975.5,-384.6 965.615,-380.032 937.137,-382.271 926.5,-384.6 877.322,-395.366 828.817,-426.686 795.651,-452.164"/>
<polygon fill="#800000" stroke="#800000" points="793.275,-449.579 787.559,-458.5 797.591,-455.091 793.275,-449.579"/>
<text text-anchor="middle" x="951" y="-390.8" font-family="Times New Roman,serif" font-size="36.00" fill="#800000">use</text>
</g>
<!-- g/result#1 -->
<g id="node21" class="node"><title>g/result#1</title>
<g id="a_node21"><a xlink:href="g/result#1" xlink:title="result#1">
<ellipse fill="#fafafa" stroke="#999999" cx="569" cy="-488.6" rx="92.7622" ry="33.8824"/>
<text text-anchor="middle" x="569" y="-479.8" font-family="Times New Roman,serif" font-size="36.00" fill="#999999">result#1</text>
</a>
</g>
</g>
<!-- g/assign11&#45;&gt;g/result#1 -->
<g id="edge55" class="edge"><title>g/assign11&#45;&gt;g/result#1</title>
<path fill="none" stroke="#800000" d="M1037.63,-464.535C1006.43,-438.049 951.615,-397.511 895.5,-384.6 845.785,-373.162 717.161,-408.151 670,-427.6 653.378,-434.455 636.281,-443.78 620.989,-453.076"/>
<polygon fill="#800000" stroke="#800000" points="618.86,-450.278 612.211,-458.527 622.552,-456.225 618.86,-450.278"/>
<text text-anchor="middle" x="871" y="-390.8" font-family="Times New Roman,serif" font-size="36.00" fill="#800000">use</text>
</g>
<!-- g/assign11&#45;attrs -->
<g id="node4" class="node"><title>g/assign11&#45;attrs</title>
<polygon fill="none" stroke="gray" points="1060.5,-329.6 939.5,-329.6 939.5,-291.6 1066.5,-291.6 1066.5,-323.6 1060.5,-329.6"/>
<polyline fill="none" stroke="gray" points="1060.5,-329.6 1060.5,-323.6 "/>
<polyline fill="none" stroke="gray" points="1066.5,-323.6 1060.5,-323.6 "/>
<text text-anchor="start" x="950" y="-304.4" font-family="Times New Roman,serif" font-size="24.00">type:</text>
<text text-anchor="start" x="1000" y="-304.4" font-family="Times New Roman,serif" font-size="24.00">assign</text>
</g>
<!-- g/assign11&#45;attrs&#45;&gt;g/assign11 -->
<g id="edge44" class="edge"><title>g/assign11&#45;attrs&#45;&gt;g/assign11</title>
<path fill="none" stroke="gray" stroke-dasharray="5,2" d="M1009.3,-329.772C1020.47,-362.005 1043.73,-429.121 1056.01,-464.55"/>
</g>
<!-- g/ikj#2&#45;attrs -->
<g id="node6" class="node"><title>g/ikj#2&#45;attrs</title>
<polygon fill="none" stroke="gray" points="1277,-549.6 1153,-549.6 1153,-427.6 1283,-427.6 1283,-543.6 1277,-549.6"/>
<polyline fill="none" stroke="gray" points="1277,-549.6 1277,-543.6 "/>
<polyline fill="none" stroke="gray" points="1283,-543.6 1277,-543.6 "/>
<text text-anchor="start" x="1163" y="-524.4" font-family="Times New Roman,serif" font-size="24.00">value:</text>
<text text-anchor="start" x="1223" y="-524.4" font-family="Times New Roman,serif" font-size="24.00">3</text>
<text text-anchor="start" x="1163" y="-496.4" font-family="Times New Roman,serif" font-size="24.00">type:</text>
<text text-anchor="start" x="1223" y="-496.4" font-family="Times New Roman,serif" font-size="24.00">name</text>
<text text-anchor="start" x="1163" y="-468.4" font-family="Times New Roman,serif" font-size="24.00">label:</text>
<text text-anchor="start" x="1223" y="-468.4" font-family="Times New Roman,serif" font-size="24.00">ikj</text>
<text text-anchor="start" x="1163" y="-440.4" font-family="Times New Roman,serif" font-size="24.00">line:</text>
<text text-anchor="start" x="1223" y="-440.4" font-family="Times New Roman,serif" font-size="24.00">15</text>
</g>
<!-- g/ikj#2&#45;attrs&#45;&gt;g/ikj#2 -->
<g id="edge23" class="edge"><title>g/ikj#2&#45;attrs&#45;&gt;g/ikj#2</title>
<path fill="none" stroke="gray" stroke-dasharray="5,2" d="M1213.11,-549.998C1211.36,-591.545 1212.18,-647.661 1224,-695.6 1224.76,-698.672 1225.77,-701.784 1226.93,-704.848"/>
</g>
<!-- g/j#5&#45;attrs -->
<g id="node8" class="node"><title>g/j#5&#45;attrs</title>
<polygon fill="none" stroke="gray" points="969,-549.6 845,-549.6 845,-427.6 975,-427.6 975,-543.6 969,-549.6"/>
<polyline fill="none" stroke="gray" points="969,-549.6 969,-543.6 "/>
<polyline fill="none" stroke="gray" points="975,-543.6 969,-543.6 "/>
<text text-anchor="start" x="855" y="-524.4" font-family="Times New Roman,serif" font-size="24.00">value:</text>
<text text-anchor="start" x="915" y="-524.4" font-family="Times New Roman,serif" font-size="24.00">1</text>
<text text-anchor="start" x="855" y="-496.4" font-family="Times New Roman,serif" font-size="24.00">type:</text>
<text text-anchor="start" x="915" y="-496.4" font-family="Times New Roman,serif" font-size="24.00">name</text>
<text text-anchor="start" x="855" y="-468.4" font-family="Times New Roman,serif" font-size="24.00">label:</text>
<text text-anchor="start" x="915" y="-468.4" font-family="Times New Roman,serif" font-size="24.00">j</text>
<text text-anchor="start" x="855" y="-440.4" font-family="Times New Roman,serif" font-size="24.00">line:</text>
<text text-anchor="start" x="915" y="-440.4" font-family="Times New Roman,serif" font-size="24.00">13</text>
</g>
<!-- g/j#5&#45;attrs&#45;&gt;g/j#5 -->
<g id="edge22" class="edge"><title>g/j#5&#45;attrs&#45;&gt;g/j#5</title>
<path fill="none" stroke="gray" stroke-dasharray="5,2" d="M903.43,-549.693C898.138,-598.09 890.898,-664.311 886.609,-703.536"/>
</g>
<!-- g/disti@j#2&#45;attrs -->
<g id="node10" class="node"><title>g/disti@j#2&#45;attrs</title>
<polygon fill="none" stroke="#999999" points="1119,-949.482 981,-949.482 981,-827.482 1125,-827.482 1125,-943.482 1119,-949.482"/>
<polyline fill="none" stroke="#999999" points="1119,-949.482 1119,-943.482 "/>
<polyline fill="none" stroke="#999999" points="1125,-943.482 1119,-943.482 "/>
<text text-anchor="start" x="991" y="-924.282" font-family="Times New Roman,serif" font-size="24.00" fill="#999999">value:</text>
<text text-anchor="start" x="1051" y="-924.282" font-family="Times New Roman,serif" font-size="24.00" fill="#999999">10000</text>
<text text-anchor="start" x="991" y="-896.282" font-family="Times New Roman,serif" font-size="24.00" fill="#999999">type:</text>
<text text-anchor="start" x="1051" y="-896.282" font-family="Times New Roman,serif" font-size="24.00" fill="#999999">access</text>
<text text-anchor="start" x="991" y="-868.282" font-family="Times New Roman,serif" font-size="24.00" fill="#999999">label:</text>
<text text-anchor="start" x="1051" y="-868.282" font-family="Times New Roman,serif" font-size="24.00" fill="#999999">disti[j]</text>
<text text-anchor="start" x="991" y="-840.282" font-family="Times New Roman,serif" font-size="24.00" fill="#999999">line:</text>
<text text-anchor="start" x="1051" y="-840.282" font-family="Times New Roman,serif" font-size="24.00" fill="#999999">16</text>
</g>
<!-- g/disti@j#2&#45;&gt;g/disti@j#2&#45;attrs -->
<!-- g/disti@j#2&#45;&gt;g/disti@j#2&#45;attrs -->
<!-- g/disti@j#2&#45;attrs&#45;&gt;g/disti@j#2 -->
<g id="edge24" class="edge"><title>g/disti@j#2&#45;attrs&#45;&gt;g/disti@j#2</title>
<path fill="none" stroke="#999999" stroke-dasharray="5,2" d="M1053.4,-827.248C1053.53,-808.248 1053.67,-787.965 1053.78,-771.596"/>
</g>
<!-- g/disti#2&#45;attrs -->
<g id="node12" class="node"><title>g/disti#2&#45;attrs</title>
<polygon fill="none" stroke="gray" points="1342.5,-949.482 1143.5,-949.482 1143.5,-827.482 1348.5,-827.482 1348.5,-943.482 1342.5,-949.482"/>
<polyline fill="none" stroke="gray" points="1342.5,-949.482 1342.5,-943.482 "/>
<polyline fill="none" stroke="gray" points="1348.5,-943.482 1342.5,-943.482 "/>
<text text-anchor="start" x="1154" y="-924.282" font-family="Times New Roman,serif" font-size="24.00">value:</text>
<text text-anchor="start" x="1214" y="-924.282" font-family="Times New Roman,serif" font-size="24.00">[2, 10000, 0]</text>
<text text-anchor="start" x="1154" y="-896.282" font-family="Times New Roman,serif" font-size="24.00">type:</text>
<text text-anchor="start" x="1214" y="-896.282" font-family="Times New Roman,serif" font-size="24.00">Dictionary</text>
<text text-anchor="start" x="1154" y="-868.282" font-family="Times New Roman,serif" font-size="24.00">label:</text>
<text text-anchor="start" x="1214" y="-868.282" font-family="Times New Roman,serif" font-size="24.00">disti</text>
<text text-anchor="start" x="1154" y="-840.282" font-family="Times New Roman,serif" font-size="24.00">line:</text>
<text text-anchor="start" x="1214" y="-840.282" font-family="Times New Roman,serif" font-size="24.00">12</text>
</g>
<!-- g/disti#2&#45;&gt;g/disti#2&#45;attrs -->
<!-- bn3 -->
<g id="node13" class="node"><title>bn3</title>
<ellipse fill="#999999" stroke="#999999" cx="841" cy="-1007.28" rx="1.8" ry="1.8"/>
</g>
<!-- g/disti#2&#45;&gt;bn3 -->
<g id="edge17" class="edge"><title>g/disti#2&#45;&gt;bn3</title>
<path fill="none" stroke="#999999" d="M1407.35,-771.753C1410.08,-818.915 1407.16,-904.54 1357,-949.482 1315.55,-986.62 873.729,-1004.97 842.715,-1006.21"/>
<text text-anchor="middle" x="1456.5" y="-879.682" font-family="Times New Roman,serif" font-size="36.00" fill="#999999">der&#45;ins</text>
</g>
<!-- g/disti#2&#45;attrs&#45;&gt;g/disti#2 -->
<g id="edge16" class="edge"><title>g/disti#2&#45;attrs&#45;&gt;g/disti#2</title>
<path fill="none" stroke="gray" stroke-dasharray="5,2" d="M1316.36,-827.415C1337.64,-807.653 1359.75,-786.483 1376.49,-769.764"/>
</g>
<!-- g/matrix20 -->
<g id="node17" class="node"><title>g/matrix20</title>
<g id="a_node17"><a xlink:href="g/matrix20" xlink:title="matrix20">
<ellipse fill="#fafafa" stroke="#999999" cx="501" cy="-1197.02" rx="102.561" ry="33.8824"/>
<text text-anchor="middle" x="501" y="-1188.22" font-family="Times New Roman,serif" font-size="36.00" fill="#999999">matrix20</text>
</a>
</g>
</g>
<!-- bn3&#45;&gt;g/matrix20 -->
<g id="edge19" class="edge"><title>bn3&#45;&gt;g/matrix20</title>
<path fill="none" stroke="#999999" d="M841.306,-1009.24C843.889,-1017.52 861.265,-1077.44 833,-1107.08 813.826,-1127.19 793.486,-1098.76 771,-1115.08 755.072,-1126.64 768.33,-1144.1 752,-1155.08 739.072,-1163.78 627.349,-1160.4 612,-1163.08 602.021,-1164.82 591.669,-1167.16 581.478,-1169.78"/>
<polygon fill="#999999" stroke="#999999" points="580.531,-1166.41 571.774,-1172.37 582.339,-1173.17 580.531,-1166.41"/>
<text text-anchor="middle" x="792.5" y="-1126.28" font-family="Times New Roman,serif" font-size="36.00" fill="#999999">[0]</text>
</g>
<!-- g/matrix21 -->
<g id="node18" class="node"><title>g/matrix21</title>
<g id="a_node18"><a xlink:href="g/matrix21" xlink:title="matrix21">
<ellipse fill="#fafafa" stroke="#999999" cx="278" cy="-1197.02" rx="102.561" ry="33.8824"/>
<text text-anchor="middle" x="278" y="-1188.22" font-family="Times New Roman,serif" font-size="36.00" fill="#999999">matrix21</text>
</a>
</g>
</g>
<!-- bn3&#45;&gt;g/matrix21 -->
<g id="edge20" class="edge"><title>bn3&#45;&gt;g/matrix21</title>
<path fill="none" stroke="#999999" d="M841.32,-1009.25C844.024,-1017.65 862.226,-1078.39 833,-1107.08 812.663,-1127.05 728.604,-1099.11 705,-1115.08 688.7,-1126.11 702.494,-1144.34 686,-1155.08 672.168,-1164.09 405.301,-1160.49 389,-1163.08 378.845,-1164.7 368.317,-1166.98 357.97,-1169.6"/>
<polygon fill="#999999" stroke="#999999" points="356.894,-1166.27 348.123,-1172.21 358.685,-1173.04 356.894,-1166.27"/>
<text text-anchor="middle" x="726.5" y="-1126.28" font-family="Times New Roman,serif" font-size="36.00" fill="#999999">[1]</text>
</g>
<!-- g/matrix22 -->
<g id="node19" class="node"><title>g/matrix22</title>
<g id="a_node19"><a xlink:href="g/matrix22" xlink:title="matrix22">
<ellipse fill="#fafafa" stroke="#999999" cx="724" cy="-1197.02" rx="102.561" ry="33.8824"/>
<text text-anchor="middle" x="724" y="-1188.22" font-family="Times New Roman,serif" font-size="36.00" fill="#999999">matrix22</text>
</a>
</g>
</g>
<!-- bn3&#45;&gt;g/matrix22 -->
<g id="edge21" class="edge"><title>bn3&#45;&gt;g/matrix22</title>
<path fill="none" stroke="#999999" d="M841.226,-1009.39C843.384,-1020.3 859.355,-1109.01 818,-1155.08 814.039,-1159.5 809.518,-1163.45 804.648,-1167"/>
<polygon fill="#999999" stroke="#999999" points="802.59,-1164.16 796.162,-1172.59 806.439,-1170.01 802.59,-1164.16"/>
<text text-anchor="middle" x="860.5" y="-1126.28" font-family="Times New Roman,serif" font-size="36.00" fill="#999999">[2]</text>
</g>
<!-- g/empty -->
<g id="node22" class="node"><title>g/empty</title>
<g id="a_node22"><a xlink:href="g/empty" xlink:title="empty">
<ellipse fill="#fafafa" stroke="#999999" cx="84" cy="-1197.02" rx="73.5782" ry="33.8824"/>
<text text-anchor="middle" x="84" y="-1188.22" font-family="Times New Roman,serif" font-size="36.00" fill="#999999">empty</text>
</a>
</g>
</g>
<!-- bn3&#45;&gt;g/empty -->
<g id="edge18" class="edge"><title>bn3&#45;&gt;g/empty</title>
<path fill="none" stroke="#999999" d="M841.325,-1009.26C844.069,-1017.7 862.54,-1078.71 833,-1107.08 817.12,-1122.33 653.37,-1102.94 635,-1115.08 618.579,-1125.93 632.543,-1144.42 616,-1155.08 594.984,-1168.63 190.506,-1158.12 166,-1163.08 158.867,-1164.53 151.562,-1166.57 144.394,-1168.93"/>
<polygon fill="#999999" stroke="#999999" points="143.002,-1165.71 134.732,-1172.34 145.327,-1172.32 143.002,-1165.71"/>
<text text-anchor="middle" x="658" y="-1126.28" font-family="Times New Roman,serif" font-size="36.00" fill="#999999">der</text>
</g>
<!-- g/matrix0#1 -->
<g id="node14" class="node"><title>g/matrix0#1</title>
<g id="a_node14"><a xlink:href="g/matrix0#1" xlink:title="matrix0#1">
<ellipse fill="#fafafa" stroke="#999999" cx="669" cy="-888.482" rx="115.017" ry="33.8824"/>
<text text-anchor="middle" x="669" y="-879.682" font-family="Times New Roman,serif" font-size="36.00" fill="#999999">matrix0#1</text>
</a>
</g>
</g>
<!-- g/matrix1#1 -->
<g id="node15" class="node"><title>g/matrix1#1</title>
<g id="a_node15"><a xlink:href="g/matrix1#1" xlink:title="matrix1#1">
<ellipse fill="#fafafa" stroke="#999999" cx="171" cy="-888.482" rx="115.017" ry="33.8824"/>
<text text-anchor="middle" x="171" y="-879.682" font-family="Times New Roman,serif" font-size="36.00" fill="#999999">matrix1#1</text>
</a>
</g>
</g>
<!-- g/matrix2#1 -->
<g id="node16" class="node"><title>g/matrix2#1</title>
<g id="a_node16"><a xlink:href="g/matrix2#1" xlink:title="matrix2#1">
<ellipse fill="#fafafa" stroke="#999999" cx="420" cy="-888.482" rx="115.017" ry="33.8824"/>
<text text-anchor="middle" x="420" y="-879.682" font-family="Times New Roman,serif" font-size="36.00" fill="#999999">matrix2#1</text>
</a>
</g>
</g>
<!-- bn0 -->
<g id="node23" class="node"><title>bn0</title>
<ellipse fill="#999999" stroke="#999999" cx="435" cy="-1007.28" rx="1.8" ry="1.8"/>
</g>
<!-- g/matrix2#1&#45;&gt;bn0 -->
<g id="edge1" class="edge"><title>g/matrix2#1&#45;&gt;bn0</title>
<path fill="none" stroke="#999999" d="M424.258,-922.64C428.346,-954.473 434.026,-998.698 434.888,-1005.41"/>
<text text-anchor="middle" x="483.5" y="-968.682" font-family="Times New Roman,serif" font-size="36.00" fill="#999999">der&#45;ins</text>
</g>
<!-- bn1 -->
<g id="node24" class="node"><title>bn1</title>
<ellipse fill="#999999" stroke="#999999" cx="669" cy="-737.541" rx="1.8" ry="1.8"/>
</g>
<!-- g/dist#1&#45;&gt;bn1 -->
<g id="edge6" class="edge"><title>g/dist#1&#45;&gt;bn1</title>
<path fill="none" stroke="#999999" d="M741.845,-522.392C720.067,-586.416 673.627,-722.937 669.322,-735.596"/>
<text text-anchor="middle" x="746.5" y="-666.8" font-family="Times New Roman,serif" font-size="36.00" fill="#999999">der&#45;ins</text>
</g>
<!-- bn2 -->
<g id="node25" class="node"><title>bn2</title>
<ellipse fill="#999999" stroke="#999999" cx="420" cy="-737.541" rx="1.8" ry="1.8"/>
</g>
<!-- g/result#1&#45;&gt;bn2 -->
<g id="edge11" class="edge"><title>g/result#1&#45;&gt;bn2</title>
<path fill="none" stroke="#999999" d="M549.521,-521.883C511.026,-585.682 428.249,-722.87 420.573,-735.591"/>
<text text-anchor="middle" x="518.5" y="-666.8" font-family="Times New Roman,serif" font-size="36.00" fill="#999999">der&#45;ins</text>
</g>
<!-- bn0&#45;&gt;g/matrix20 -->
<g id="edge3" class="edge"><title>bn0&#45;&gt;g/matrix20</title>
<path fill="none" stroke="#999999" d="M435.484,-1009.32C439.224,-1017.32 463.75,-1070.28 479,-1115.08 483.184,-1127.37 487.122,-1140.92 490.478,-1153.36"/>
<polygon fill="#999999" stroke="#999999" points="487.101,-1154.28 493.039,-1163.05 493.869,-1152.49 487.101,-1154.28"/>
<text text-anchor="middle" x="512.5" y="-1126.28" font-family="Times New Roman,serif" font-size="36.00" fill="#999999">[0]</text>
</g>
<!-- bn0&#45;&gt;g/matrix21 -->
<g id="edge4" class="edge"><title>bn0&#45;&gt;g/matrix21</title>
<path fill="none" stroke="#999999" d="M434.99,-1009.66C434.863,-1023.13 433.218,-1131.68 413,-1155.08 412.472,-1155.69 389.428,-1162.76 362.525,-1170.86"/>
<polygon fill="#999999" stroke="#999999" points="361.45,-1167.53 352.879,-1173.75 363.464,-1174.23 361.45,-1167.53"/>
<text text-anchor="middle" x="448.5" y="-1126.28" font-family="Times New Roman,serif" font-size="36.00" fill="#999999">[1]</text>
</g>
<!-- bn0&#45;&gt;g/matrix22 -->
<g id="edge5" class="edge"><title>bn0&#45;&gt;g/matrix22</title>
<path fill="none" stroke="#999999" d="M436.035,-1009.32C444.039,-1017.32 496.871,-1070.31 538,-1115.08 553.982,-1132.48 552.555,-1143.25 573,-1155.08 588.691,-1164.16 595.403,-1158.72 613,-1163.08 622.051,-1165.33 631.466,-1167.84 640.816,-1170.45"/>
<polygon fill="#999999" stroke="#999999" points="639.944,-1173.84 650.519,-1173.19 641.851,-1167.1 639.944,-1173.84"/>
<text text-anchor="middle" x="595.5" y="-1126.28" font-family="Times New Roman,serif" font-size="36.00" fill="#999999">[2]</text>
</g>
<!-- bn0&#45;&gt;g/empty -->
<g id="edge2" class="edge"><title>bn0&#45;&gt;g/empty</title>
<path fill="none" stroke="#999999" d="M434.208,-1009.29C428.091,-1017.09 387.931,-1068.86 362,-1115.08 352.462,-1132.08 360.129,-1144.13 344,-1155.08 327.62,-1166.2 185.348,-1158.89 166,-1163.08 158.99,-1164.6 151.806,-1166.66 144.745,-1169.02"/>
<polygon fill="#999999" stroke="#999999" points="143.478,-1165.76 135.221,-1172.4 145.816,-1172.36 143.478,-1165.76"/>
<text text-anchor="middle" x="385" y="-1126.28" font-family="Times New Roman,serif" font-size="36.00" fill="#999999">der</text>
</g>
<!-- bn1&#45;&gt;g/matrix0#1 -->
<g id="edge8" class="edge"><title>bn1&#45;&gt;g/matrix0#1</title>
<path fill="none" stroke="#999999" d="M669,-739.492C669,-747.424 669,-803.293 669,-844.053"/>
<polygon fill="#999999" stroke="#999999" points="665.5,-844.312 669,-854.312 672.5,-844.312 665.5,-844.312"/>
<text text-anchor="middle" x="690.5" y="-790.682" font-family="Times New Roman,serif" font-size="36.00" fill="#999999">[0]</text>
</g>
<!-- bn1&#45;&gt;g/matrix1#1 -->
<g id="edge9" class="edge"><title>bn1&#45;&gt;g/matrix1#1</title>
<path fill="none" stroke="#999999" d="M667.489,-738.75C652.576,-740.817 530.17,-757.78 431,-771.482 405.223,-775.044 397.749,-771.444 373,-779.482 319.904,-796.726 264.297,-827.535 224.899,-851.846"/>
<polygon fill="#999999" stroke="#999999" points="222.88,-848.98 216.247,-857.241 226.584,-854.92 222.88,-848.98"/>
<text text-anchor="middle" x="394.5" y="-790.682" font-family="Times New Roman,serif" font-size="36.00" fill="#999999">[1]</text>
</g>
<!-- bn1&#45;&gt;g/matrix2#1 -->
<g id="edge10" class="edge"><title>bn1&#45;&gt;g/matrix2#1</title>
<path fill="none" stroke="#999999" d="M668.036,-739.223C659.656,-745.136 598.231,-788.283 546,-819.482 526.384,-831.2 504.609,-843.27 484.756,-853.928"/>
<polygon fill="#999999" stroke="#999999" points="482.956,-850.922 475.784,-858.72 486.254,-857.096 482.956,-850.922"/>
<text text-anchor="middle" x="629.5" y="-790.682" font-family="Times New Roman,serif" font-size="36.00" fill="#999999">[2]</text>
</g>
<!-- bn1&#45;&gt;g/empty -->
<g id="edge7" class="edge"><title>bn1&#45;&gt;g/empty</title>
<path fill="none" stroke="#999999" d="M670.326,-738.966C681.775,-742.721 764.203,-771.389 793,-827.482 817.764,-875.719 830.969,-910.773 793,-949.482 776.891,-965.905 400.612,-949.602 379,-957.482 267.007,-998.318 165.92,-1100.64 116.295,-1157.1"/>
<polygon fill="#999999" stroke="#999999" points="113.562,-1154.91 109.639,-1164.75 118.843,-1159.51 113.562,-1154.91"/>
<text text-anchor="middle" x="402" y="-968.682" font-family="Times New Roman,serif" font-size="36.00" fill="#999999">der</text>
</g>
<!-- bn2&#45;&gt;g/matrix0#1 -->
<g id="edge13" class="edge"><title>bn2&#45;&gt;g/matrix0#1</title>
<path fill="none" stroke="#999999" d="M421.233,-739.48C426.821,-743.763 450.222,-761.987 467,-779.482 482.758,-795.914 479.426,-807.855 499,-819.482 516.465,-829.856 524.665,-821.252 544,-827.482 565.164,-834.302 587.329,-844.012 607.018,-853.638"/>
<polygon fill="#999999" stroke="#999999" points="605.66,-856.872 616.172,-858.194 608.779,-850.605 605.66,-856.872"/>
<text text-anchor="middle" x="520.5" y="-790.682" font-family="Times New Roman,serif" font-size="36.00" fill="#999999">[0]</text>
</g>
<!-- bn2&#45;&gt;g/matrix1#1 -->
<g id="edge14" class="edge"><title>bn2&#45;&gt;g/matrix1#1</title>
<path fill="none" stroke="#999999" d="M418.28,-738.414C403.379,-737.399 295.162,-731.859 231,-779.482 209.148,-795.702 194.218,-822.372 184.717,-845.15"/>
<polygon fill="#999999" stroke="#999999" points="181.39,-844.045 180.973,-854.632 187.901,-846.616 181.39,-844.045"/>
<text text-anchor="middle" x="252.5" y="-790.682" font-family="Times New Roman,serif" font-size="36.00" fill="#999999">[1]</text>
</g>
<!-- bn2&#45;&gt;g/matrix2#1 -->
<g id="edge15" class="edge"><title>bn2&#45;&gt;g/matrix2#1</title>
<path fill="none" stroke="#999999" d="M420,-739.492C420,-747.424 420,-803.293 420,-844.053"/>
<polygon fill="#999999" stroke="#999999" points="416.5,-844.312 420,-854.312 423.5,-844.312 416.5,-844.312"/>
<text text-anchor="middle" x="441.5" y="-790.682" font-family="Times New Roman,serif" font-size="36.00" fill="#999999">[2]</text>
</g>
<!-- bn2&#45;&gt;g/empty -->
<g id="edge12" class="edge"><title>bn2&#45;&gt;g/empty</title>
<path fill="none" stroke="#999999" d="M418.557,-738.634C395.19,-740.18 95.1481,-761.25 47,-827.482 -24.6493,-926.043 30.0439,-1080.62 63.298,-1154.28"/>
<polygon fill="#999999" stroke="#999999" points="60.2735,-1156.08 67.6341,-1163.7 66.6322,-1153.15 60.2735,-1156.08"/>
<text text-anchor="middle" x="39" y="-968.682" font-family="Times New Roman,serif" font-size="36.00" fill="#999999">der</text>
</g>
<!-- g/disti#3 -->
<g id="node26" class="node"><title>g/disti#3</title>
<g id="a_node26"><a xlink:href="g/disti#3" xlink:title="disti#3">
<ellipse fill="#ffe6e6" stroke="#800000" cx="1582" cy="-310.6" rx="79.8063" ry="33.8824"/>
<text text-anchor="middle" x="1582" y="-301.8" font-family="Times New Roman,serif" font-size="36.00" fill="#800000">disti#3</text>
</a>
</g>
</g>
<!-- g/disti#3&#45;&gt;g/assign11 -->
<g id="edge59" class="edge"><title>g/disti#3&#45;&gt;g/assign11</title>
<path fill="none" stroke="#800000" d="M1546.23,-341.148C1530.06,-352.795 1510.1,-364.958 1490,-371.6 1462.1,-380.822 1387.04,-375.128 1358,-379.6 1285.55,-390.753 1269.9,-405.323 1198,-419.6 1174.2,-424.326 1166.39,-418.257 1144,-427.6 1126.72,-434.809 1109.81,-446.591 1096.01,-457.814"/>
<polygon fill="#800000" stroke="#800000" points="1093.67,-455.206 1088.27,-464.319 1098.18,-460.565 1093.67,-455.206"/>
<text text-anchor="middle" x="1384" y="-390.8" font-family="Times New Roman,serif" font-size="36.00" fill="#800000">gen</text>
</g>
<!-- g/disti#3&#45;&gt;g/ikj#2 -->
<g id="edge30" class="edge"><title>g/disti#3&#45;&gt;g/ikj#2</title>
<path fill="none" stroke="#800000" d="M1544.43,-340.665C1529.26,-352.57 1511.66,-366.584 1496,-379.6 1471.05,-400.334 1460.85,-401.938 1441,-427.6 1359.51,-532.93 1395.72,-596.284 1307,-695.6 1303.51,-699.513 1299.55,-703.206 1295.37,-706.653"/>
<polygon fill="#800000" stroke="#800000" points="1292.93,-704.114 1287.12,-712.971 1297.19,-709.673 1292.93,-704.114"/>
<text text-anchor="middle" x="1464" y="-479.8" font-family="Times New Roman,serif" font-size="36.00" fill="#800000">der</text>
</g>
<!-- g/disti#3&#45;&gt;g/disti#2 -->
<g id="edge29" class="edge"><title>g/disti#3&#45;&gt;g/disti#2</title>
<path fill="none" stroke="#800000" d="M1661.28,-315.016C1738.85,-323.086 1853.22,-348.631 1909,-427.6 1965.41,-507.465 1971.86,-572.704 1909,-647.6 1856.99,-709.573 1624.25,-728.379 1493.65,-734.075"/>
<polygon fill="#800000" stroke="#800000" points="1493.5,-730.578 1483.65,-734.494 1493.79,-737.572 1493.5,-730.578"/>
<text text-anchor="middle" x="1976" y="-479.8" font-family="Times New Roman,serif" font-size="36.00" fill="#800000">der</text>
</g>
<!-- g/disti#3&#45;attrs -->
<g id="node27" class="node"><title>g/disti#3&#45;attrs</title>
<polygon fill="none" stroke="#800000" points="1694,-549.6 1518,-549.6 1518,-427.6 1700,-427.6 1700,-543.6 1694,-549.6"/>
<polyline fill="none" stroke="#800000" points="1694,-549.6 1694,-543.6 "/>
<polyline fill="none" stroke="#800000" points="1700,-543.6 1694,-543.6 "/>
<text text-anchor="start" x="1528" y="-524.4" font-family="Times New Roman,serif" font-size="24.00" fill="#800000">value:</text>
<text text-anchor="start" x="1588" y="-524.4" font-family="Times New Roman,serif" font-size="24.00" fill="#800000">[2, 3, 0]</text>
<text text-anchor="start" x="1528" y="-496.4" font-family="Times New Roman,serif" font-size="24.00" fill="#800000">type:</text>
<text text-anchor="start" x="1588" y="-496.4" font-family="Times New Roman,serif" font-size="24.00" fill="#800000">Dictionary</text>
<text text-anchor="start" x="1528" y="-468.4" font-family="Times New Roman,serif" font-size="24.00" fill="#800000">label:</text>
<text text-anchor="start" x="1588" y="-468.4" font-family="Times New Roman,serif" font-size="24.00" fill="#800000">disti</text>
<text text-anchor="start" x="1528" y="-440.4" font-family="Times New Roman,serif" font-size="24.00" fill="#800000">line:</text>
<text text-anchor="start" x="1588" y="-440.4" font-family="Times New Roman,serif" font-size="24.00" fill="#800000">17</text>
</g>
<!-- g/disti#3&#45;&gt;g/disti#3&#45;attrs -->
<!-- bn4 -->
<g id="node32" class="node"><title>bn4</title>
<ellipse fill="#800000" stroke="#800000" cx="1498" cy="-488.6" rx="1.8" ry="1.8"/>
</g>
<!-- g/disti#3&#45;&gt;bn4 -->
<g id="edge26" class="edge"><title>g/disti#3&#45;&gt;bn4</title>
<path fill="none" stroke="#800000" d="M1542.79,-340.236C1530.63,-351.165 1518.48,-364.637 1511,-379.6 1491.08,-419.469 1496.84,-477.614 1497.86,-486.455"/>
<text text-anchor="middle" x="1560.5" y="-390.8" font-family="Times New Roman,serif" font-size="36.00" fill="#800000">der&#45;ins</text>
</g>
<!-- g/disti#3&#45;attrs&#45;&gt;g/disti#3 -->
<g id="edge25" class="edge"><title>g/disti#3&#45;attrs&#45;&gt;g/disti#3</title>
<path fill="none" stroke="#800000" stroke-dasharray="5,2" d="M1626.1,-427.409C1627.08,-411.703 1626.42,-394.896 1623,-379.6 1620.18,-366.994 1614.76,-353.969 1608.64,-342.733"/>
</g>
<!-- g/result#2 -->
<g id="node28" class="node"><title>g/result#2</title>
<g id="a_node28"><a xlink:href="g/result#2" xlink:title="result#2">
<ellipse fill="#ffe6e6" stroke="#800000" cx="1589" cy="-71" rx="92.7622" ry="33.8824"/>
<text text-anchor="middle" x="1589" y="-62.2" font-family="Times New Roman,serif" font-size="36.00" fill="#800000">result#2</text>
</a>
</g>
</g>
<!-- g/result#2&#45;&gt;g/assign11 -->
<g id="edge62" class="edge"><title>g/result#2&#45;&gt;g/assign11</title>
<path fill="none" stroke="#800000" d="M1637.95,-99.867C1659.01,-111.014 1684.22,-123.255 1708,-132 1722.16,-137.209 1731.67,-128.138 1741,-140 1751.99,-153.973 1753.07,-166.947 1741,-180 1718.6,-204.222 1625.91,-189.298 1593,-191.6 1535.25,-195.64 1520.73,-195.376 1463,-199.6 1459.07,-199.888 900.164,-245.244 897,-247.6 864.973,-271.449 817.588,-390.565 845,-419.6 855.62,-430.849 969.471,-422.288 984,-427.6 1001.99,-434.178 1019.34,-446.232 1033.25,-457.82"/>
<polygon fill="#800000" stroke="#800000" points="1031.17,-460.65 1041.02,-464.544 1035.75,-455.355 1031.17,-460.65"/>
<text text-anchor="middle" x="1489" y="-210.8" font-family="Times New Roman,serif" font-size="36.00" fill="#800000">gen</text>
</g>
<!-- g/result#2&#45;&gt;g/ikj#2 -->
<g id="edge42" class="edge"><title>g/result#2&#45;&gt;g/ikj#2</title>
<path fill="none" stroke="#800000" d="M1636.46,-100.251C1657.69,-111.738 1683.43,-124.134 1708,-132 1730.27,-139.129 1738.74,-130.274 1760,-140 1797.16,-156.996 1802.23,-169.631 1830,-199.6 1915.2,-291.536 1957.21,-308.408 1996,-427.6 2026.26,-520.577 2063.44,-576.806 1996,-647.6 1989.67,-654.245 1840.15,-654.953 1831,-655.6 1601.25,-671.848 1537.37,-643.592 1315,-703.6 1309.2,-705.165 1303.29,-707.172 1297.47,-709.421"/>
<polygon fill="#800000" stroke="#800000" points="1295.73,-706.354 1287.82,-713.4 1298.4,-712.826 1295.73,-706.354"/>
<text text-anchor="middle" x="1997" y="-301.8" font-family="Times New Roman,serif" font-size="36.00" fill="#800000">der</text>
</g>
<!-- g/result#2&#45;&gt;g/result#1 -->
<g id="edge41" class="edge"><title>g/result#2&#45;&gt;g/result#1</title>
<path fill="none" stroke="#800000" d="M1496.68,-74.7702C1274.36,-81.9926 722.084,-103.419 647,-140 539.78,-192.238 549.834,-363.019 561.322,-444.106"/>
<polygon fill="#800000" stroke="#800000" points="557.93,-445.093 562.867,-454.467 564.854,-444.06 557.93,-445.093"/>
<text text-anchor="middle" x="609" y="-210.8" font-family="Times New Roman,serif" font-size="36.00" fill="#800000">der</text>
</g>
<!-- g/result#2&#45;attrs -->
<g id="node29" class="node"><title>g/result#2&#45;attrs</title>
<polygon fill="none" stroke="#800000" points="1893,-132 1717,-132 1717,-10 1899,-10 1899,-126 1893,-132"/>
<polyline fill="none" stroke="#800000" points="1893,-132 1893,-126 "/>
<polyline fill="none" stroke="#800000" points="1899,-126 1893,-126 "/>
<text text-anchor="start" x="1727" y="-106.8" font-family="Times New Roman,serif" font-size="24.00" fill="#800000">value:</text>
<text text-anchor="start" x="1787" y="-106.8" font-family="Times New Roman,serif" font-size="24.00" fill="#800000">[[...]]</text>
<text text-anchor="start" x="1727" y="-78.8" font-family="Times New Roman,serif" font-size="24.00" fill="#800000">type:</text>
<text text-anchor="start" x="1787" y="-78.8" font-family="Times New Roman,serif" font-size="24.00" fill="#800000">Dictionary</text>
<text text-anchor="start" x="1727" y="-50.8" font-family="Times New Roman,serif" font-size="24.00" fill="#800000">label:</text>
<text text-anchor="start" x="1787" y="-50.8" font-family="Times New Roman,serif" font-size="24.00" fill="#800000">result</text>
<text text-anchor="start" x="1727" y="-22.8" font-family="Times New Roman,serif" font-size="24.00" fill="#800000">line:</text>
<text text-anchor="start" x="1787" y="-22.8" font-family="Times New Roman,serif" font-size="24.00" fill="#800000">17</text>
</g>
<!-- g/result#2&#45;&gt;g/result#2&#45;attrs -->
<!-- bn6 -->
<g id="node34" class="node"><title>bn6</title>
<ellipse fill="#800000" stroke="#800000" cx="1515" cy="-189.8" rx="1.8" ry="1.8"/>
</g>
<!-- g/result#2&#45;&gt;bn6 -->
<g id="edge38" class="edge"><title>g/result#2&#45;&gt;bn6</title>
<path fill="none" stroke="#800000" d="M1546.29,-101.374C1534.26,-112.023 1522.65,-125.138 1516,-140 1508.25,-157.327 1513.3,-181.694 1514.68,-187.515"/>
<text text-anchor="middle" x="1565.5" y="-151.2" font-family="Times New Roman,serif" font-size="36.00" fill="#800000">der&#45;ins</text>
</g>
<!-- g/result#2&#45;attrs&#45;&gt;g/result#2 -->
<g id="edge37" class="edge"><title>g/result#2&#45;attrs&#45;&gt;g/result#2</title>
<path fill="none" stroke="#800000" stroke-dasharray="5,2" d="M1716.71,-95.7517C1697.52,-97.2355 1678.34,-96.3743 1659.15,-93.1682"/>
</g>
<!-- g/dist#2 -->
<g id="node30" class="node"><title>g/dist#2</title>
<g id="a_node30"><a xlink:href="g/dist#2" xlink:title="dist#2">
<ellipse fill="#ffe6e6" stroke="#800000" cx="1991" cy="-71" rx="73.5782" ry="33.8824"/>
<text text-anchor="middle" x="1991" y="-62.2" font-family="Times New Roman,serif" font-size="36.00" fill="#800000">dist#2</text>
</a>
</g>
</g>
<!-- g/dist#2&#45;&gt;g/assign11 -->
<g id="edge61" class="edge"><title>g/dist#2&#45;&gt;g/assign11</title>
<path fill="none" stroke="#800000" d="M1955.16,-101.014C1941,-111.628 1924.25,-123.183 1908,-132 1791.18,-195.367 1759.52,-214.531 1629,-239.6 1609.93,-243.263 943.911,-234.052 930,-247.6 875.213,-300.958 874.687,-362.004 925,-419.6 933.705,-429.565 971.758,-422.58 984,-427.6 1001.46,-434.758 1018.51,-446.651 1032.35,-457.969"/>
<polygon fill="#800000" stroke="#800000" points="1030.22,-460.745 1040.11,-464.526 1034.73,-455.398 1030.22,-460.745"/>
<text text-anchor="middle" x="1800" y="-210.8" font-family="Times New Roman,serif" font-size="36.00" fill="#800000">gen</text>
</g>
<!-- g/dist#2&#45;&gt;g/ikj#2 -->
<g id="edge36" class="edge"><title>g/dist#2&#45;&gt;g/ikj#2</title>
<path fill="none" stroke="#800000" d="M2015.84,-103.237C2031.2,-125.697 2048,-157.437 2048,-188.8 2048,-188.8 2048,-188.8 2048,-400.6 2048,-510.737 2105.24,-569.083 2028,-647.6 1950.96,-725.914 1645.61,-688.276 1536,-695.6 1486.97,-698.876 1362.79,-692.143 1315,-703.6 1308.93,-705.055 1302.75,-707.049 1296.7,-709.341"/>
<polygon fill="#800000" stroke="#800000" points="1295.27,-706.143 1287.33,-713.154 1297.91,-712.627 1295.27,-706.143"/>
<text text-anchor="middle" x="2071" y="-301.8" font-family="Times New Roman,serif" font-size="36.00" fill="#800000">der</text>
</g>
<!-- g/dist#2&#45;&gt;g/dist#1 -->
<g id="edge35" class="edge"><title>g/dist#2&#45;&gt;g/dist#1</title>
<path fill="none" stroke="#800000" d="M1959.29,-101.913C1944.81,-113.624 1926.72,-125.736 1908,-132 1886.92,-139.054 1530.2,-138.908 1508,-140 1169.59,-156.639 1068.54,-89.8231 748,-199.6 711.265,-212.181 693.431,-213.423 675,-247.6 648.841,-296.107 658.925,-318.885 675,-371.6 683.662,-400.005 701.865,-427.759 718.508,-448.994"/>
<polygon fill="#800000" stroke="#800000" points="715.793,-451.202 724.787,-456.801 721.247,-446.815 715.793,-451.202"/>
<text text-anchor="middle" x="771" y="-210.8" font-family="Times New Roman,serif" font-size="36.00" fill="#800000">der</text>
</g>
<!-- g/dist#2&#45;&gt;g/result#2 -->
<!-- g/dist#2&#45;attrs -->
<g id="node31" class="node"><title>g/dist#2&#45;attrs</title>
<polygon fill="none" stroke="#800000" points="1894,-549.6 1718,-549.6 1718,-427.6 1900,-427.6 1900,-543.6 1894,-549.6"/>
<polyline fill="none" stroke="#800000" points="1894,-549.6 1894,-543.6 "/>
<polyline fill="none" stroke="#800000" points="1900,-543.6 1894,-543.6 "/>
<text text-anchor="start" x="1728" y="-524.4" font-family="Times New Roman,serif" font-size="24.00" fill="#800000">value:</text>
<text text-anchor="start" x="1788" y="-524.4" font-family="Times New Roman,serif" font-size="24.00" fill="#800000">[[...]]</text>
<text text-anchor="start" x="1728" y="-496.4" font-family="Times New Roman,serif" font-size="24.00" fill="#800000">type:</text>
<text text-anchor="start" x="1788" y="-496.4" font-family="Times New Roman,serif" font-size="24.00" fill="#800000">Dictionary</text>
<text text-anchor="start" x="1728" y="-468.4" font-family="Times New Roman,serif" font-size="24.00" fill="#800000">label:</text>
<text text-anchor="start" x="1788" y="-468.4" font-family="Times New Roman,serif" font-size="24.00" fill="#800000">dist</text>
<text text-anchor="start" x="1728" y="-440.4" font-family="Times New Roman,serif" font-size="24.00" fill="#800000">line:</text>
<text text-anchor="start" x="1788" y="-440.4" font-family="Times New Roman,serif" font-size="24.00" fill="#800000">17</text>
</g>
<!-- g/dist#2&#45;&gt;g/dist#2&#45;attrs -->
<!-- bn5 -->
<g id="node33" class="node"><title>bn5</title>
<ellipse fill="#800000" stroke="#800000" cx="1582" cy="-189.8" rx="1.8" ry="1.8"/>
</g>
<!-- g/dist#2&#45;&gt;bn5 -->
<g id="edge32" class="edge"><title>g/dist#2&#45;&gt;bn5</title>
<path fill="none" stroke="#800000" d="M1959.27,-101.826C1944.77,-113.522 1926.69,-125.646 1908,-132 1879.58,-141.662 1663.75,-124.587 1638,-140 1620.4,-150.531 1631.27,-167.511 1615,-180 1605.03,-187.655 1588.94,-188.666 1583.71,-188.788"/>
<text text-anchor="middle" x="1687.5" y="-151.2" font-family="Times New Roman,serif" font-size="36.00" fill="#800000">der&#45;ins</text>
</g>
<!-- g/dist#2&#45;attrs&#45;&gt;g/dist#2 -->
<g id="edge31" class="edge"><title>g/dist#2&#45;attrs&#45;&gt;g/dist#2</title>
<path fill="none" stroke="#800000" stroke-dasharray="5,2" d="M1785.14,-427.358C1760.7,-365.503 1732.46,-268.765 1776,-199.6 1813.03,-140.788 1857.27,-167.521 1917,-132 1931.98,-123.094 1947.65,-112.214 1960.79,-102.176"/>
</g>
<!-- bn4&#45;&gt;g/disti@j#3 -->
<g id="edge28" class="edge"><title>bn4&#45;&gt;g/disti@j#3</title>
<path fill="none" stroke="#800000" d="M1498.24,-486.589C1499.67,-480.237 1506.53,-445.518 1490,-427.6 1478.59,-415.235 1467.11,-428.765 1453,-419.6 1427.98,-403.345 1408.18,-376.212 1394.66,-353.21"/>
<polygon fill="#800000" stroke="#800000" points="1397.58,-351.276 1389.61,-344.303 1391.49,-354.728 1397.58,-351.276"/>
<text text-anchor="middle" x="1474.5" y="-390.8" font-family="Times New Roman,serif" font-size="36.00" fill="#800000">[1]</text>
</g>
<!-- bn4&#45;&gt;g/disti#2 -->
<g id="edge27" class="edge"><title>bn4&#45;&gt;g/disti#2</title>
<path fill="none" stroke="#800000" d="M1498.21,-490.662C1500.21,-501.132 1515.44,-586.79 1490,-647.6 1481.52,-667.864 1466.09,-686.131 1450.62,-700.763"/>
<polygon fill="#800000" stroke="#800000" points="1448.09,-698.329 1443.05,-707.647 1452.8,-703.508 1448.09,-698.329"/>
<text text-anchor="middle" x="1509" y="-666.8" font-family="Times New Roman,serif" font-size="36.00" fill="#800000">der</text>
</g>
<!-- bn5&#45;&gt;g/dist#1 -->
<g id="edge33" class="edge"><title>bn5&#45;&gt;g/dist#1</title>
<path fill="none" stroke="#800000" d="M1580.46,-190.825C1552.61,-191.274 1156.05,-197.699 1132,-199.6 1054.84,-205.701 841.802,-192.934 787,-247.6 773.319,-261.247 761.767,-378.856 756.332,-444.222"/>
<polygon fill="#800000" stroke="#800000" points="752.84,-443.988 755.513,-454.24 759.816,-444.559 752.84,-443.988"/>
<text text-anchor="middle" x="810" y="-301.8" font-family="Times New Roman,serif" font-size="36.00" fill="#800000">der</text>
</g>
<!-- bn5&#45;&gt;g/disti#3 -->
<g id="edge34" class="edge"><title>bn5&#45;&gt;g/disti#3</title>
<path fill="none" stroke="#800000" d="M1582,-192.134C1582,-199.509 1582,-236.052 1582,-266.447"/>
<polygon fill="#800000" stroke="#800000" points="1578.5,-266.468 1582,-276.468 1585.5,-266.468 1578.5,-266.468"/>
<text text-anchor="middle" x="1603.5" y="-210.8" font-family="Times New Roman,serif" font-size="36.00" fill="#800000">[2]</text>
</g>
<!-- bn6&#45;&gt;g/result#1 -->
<g id="edge39" class="edge"><title>bn6&#45;&gt;g/result#1</title>
<path fill="none" stroke="#800000" d="M1513.5,-190.796C1478.16,-190.693 831.485,-188.97 794,-199.6 754.108,-210.912 743.365,-218.325 714,-247.6 654.932,-306.488 609.979,-394.056 586.706,-445.535"/>
<polygon fill="#800000" stroke="#800000" points="583.49,-444.154 582.615,-454.713 589.883,-447.005 583.49,-444.154"/>
<text text-anchor="middle" x="737" y="-301.8" font-family="Times New Roman,serif" font-size="36.00" fill="#800000">der</text>
</g>
<!-- bn6&#45;&gt;g/disti#3 -->
<g id="edge40" class="edge"><title>bn6&#45;&gt;g/disti#3</title>
<path fill="none" stroke="#800000" d="M1515.41,-192.049C1517.27,-197.714 1525.35,-221.505 1535,-239.6 1540.33,-249.587 1546.73,-259.927 1553.06,-269.496"/>
<polygon fill="#800000" stroke="#800000" points="1550.33,-271.708 1558.83,-278.035 1556.13,-267.79 1550.33,-271.708"/>
<text text-anchor="middle" x="1556.5" y="-210.8" font-family="Times New Roman,serif" font-size="36.00" fill="#800000">[2]</text>
</g>
</g>
</svg>
