<?xml version="1.0" encoding="UTF-8" standalone="no"?>
<!DOCTYPE svg PUBLIC "-//W3C//DTD SVG 1.1//EN"
 "http://www.w3.org/Graphics/SVG/1.1/DTD/svg11.dtd">
<!-- Generated by graphviz version 2.38.0 (20140413.2041)
 -->
<!-- Title: PROV Pages: 1 -->
<svg width="710pt" height="343pt"
 viewBox="0.00 0.00 710.00 343.00" xmlns="http://www.w3.org/2000/svg" xmlns:xlink="http://www.w3.org/1999/xlink">
<g id="graph0" class="graph" transform="scale(1 1) rotate(0) translate(4 339)">
<title>PROV</title>
<polygon fill="white" stroke="none" points="-4,4 -4,-339 706,-339 706,4 -4,4"/>
<g id="clust1" class="cluster"><title>cluster_0</title>
<polygon fill="none" stroke="red" points="8,-8 8,-327 478,-327 478,-8 8,-8"/>
<text text-anchor="middle" x="463.5" y="-308.6" font-family="Times New Roman,serif" font-size="18.00" fill="red">A</text>
</g>
<g id="clust3" class="cluster"><title>cluster_1</title>
<polygon fill="none" stroke="red" points="492,-21 492,-214 694,-214 694,-21 492,-21"/>
<text text-anchor="middle" x="679.5" y="-195.6" font-family="Times New Roman,serif" font-size="18.00" fill="red">B</text>
</g>
<!-- g/disti@j#3 -->
<g id="node1" class="node"><title>g/disti@j#3</title>
<g id="a_node1"><a xlink:href="g/disti@j#3" xlink:title="disti@j#3">
<ellipse fill="#fffc87" stroke="#808080" cx="390" cy="-41" rx="45.4919" ry="18"/>
<text text-anchor="middle" x="390" y="-37.3" font-family="Times New Roman,serif" font-size="14.00">disti@j#3</text>
</a>
</g>
</g>
<!-- g/assign11 -->
<g id="node3" class="node"><title>g/assign11</title>
<g id="a_node3"><a xlink:href="g/assign11" xlink:title="assign11">
<polygon fill="#9fb1fc" stroke="#0000ff" points="255.5,-184 190.5,-184 190.5,-148 255.5,-148 255.5,-184"/>
<text text-anchor="middle" x="223" y="-162.3" font-family="Times New Roman,serif" font-size="14.00">assign11</text>
</a>
</g>
</g>
<!-- g/disti@j#3&#45;&gt;g/assign11 -->
<g id="edge18" class="edge"><title>g/disti@j#3&#45;&gt;g/assign11</title>
<path fill="none" stroke="black" d="M369.523,-57.0822C340.778,-78.2536 288.21,-116.971 254.475,-141.818"/>
<polygon fill="black" stroke="black" points="252.307,-139.068 246.33,-147.816 256.458,-144.704 252.307,-139.068"/>
<text text-anchor="middle" x="346" y="-107.3" font-family="Times New Roman,serif" font-size="14.00">gen</text>
<text text-anchor="middle" x="346" y="-92.3" font-family="Times New Roman,serif" font-size="14.00">36</text>
</g>
<!-- bn0 -->
<g id="node13" class="node"><title>bn0</title>
<ellipse fill="black" stroke="black" cx="362" cy="-166" rx="1.8" ry="1.8"/>
</g>
<!-- g/disti@j#3&#45;&gt;bn0 -->
<g id="edge12" class="edge"><title>g/disti@j#3&#45;&gt;bn0</title>
<path fill="none" stroke="black" d="M386.107,-59.1026C378.894,-90.7873 364.018,-156.137 362.186,-164.182"/>
<text text-anchor="middle" x="405.5" y="-107.3" font-family="Times New Roman,serif" font-size="14.00">der ac&#45;w</text>
<text text-anchor="middle" x="405.5" y="-92.3" font-family="Times New Roman,serif" font-size="14.00">36</text>
</g>
<!-- g/disti@j#3&#45;attrs -->
<g id="node2" class="node"><title>g/disti@j#3&#45;attrs</title>
<polygon fill="none" stroke="gray" points="303.5,-72 234.5,-72 234.5,-10 309.5,-10 309.5,-66 303.5,-72"/>
<polyline fill="none" stroke="gray" points="303.5,-72 303.5,-66 "/>
<polyline fill="none" stroke="gray" points="309.5,-66 303.5,-66 "/>
<text text-anchor="start" x="245" y="-58" font-family="Times New Roman,serif" font-size="10.00">value:</text>
<text text-anchor="start" x="272" y="-58" font-family="Times New Roman,serif" font-size="10.00">3</text>
<text text-anchor="start" x="245" y="-45" font-family="Times New Roman,serif" font-size="10.00">type:</text>
<text text-anchor="start" x="272" y="-45" font-family="Times New Roman,serif" font-size="10.00">access</text>
<text text-anchor="start" x="245" y="-32" font-family="Times New Roman,serif" font-size="10.00">label:</text>
<text text-anchor="start" x="272" y="-32" font-family="Times New Roman,serif" font-size="10.00">disti[j]</text>
<text text-anchor="start" x="245" y="-19" font-family="Times New Roman,serif" font-size="10.00">line:</text>
<text text-anchor="start" x="272" y="-19" font-family="Times New Roman,serif" font-size="10.00">17</text>
</g>
<!-- g/disti@j#3&#45;attrs&#45;&gt;g/disti@j#3 -->
<g id="edge10" class="edge"><title>g/disti@j#3&#45;attrs&#45;&gt;g/disti@j#3</title>
<path fill="none" stroke="gray" stroke-dasharray="5,2" d="M309.797,-41C321.284,-41 332.772,-41 344.259,-41"/>
</g>
<!-- g/ikj#2 -->
<g id="node5" class="node"><title>g/ikj#2</title>
<g id="a_node5"><a xlink:href="g/ikj#2" xlink:title="ikj#2">
<ellipse fill="#fffc87" stroke="#808080" cx="282" cy="-279" rx="28.6953" ry="18"/>
<text text-anchor="middle" x="282" y="-275.3" font-family="Times New Roman,serif" font-size="14.00">ikj#2</text>
</a>
</g>
</g>
<!-- g/assign11&#45;&gt;g/ikj#2 -->
<g id="edge17" class="edge"><title>g/assign11&#45;&gt;g/ikj#2</title>
<path fill="none" stroke="black" d="M228.733,-184.009C235.071,-201.703 246.23,-229.86 260,-252 260.668,-253.073 261.377,-254.149 262.117,-255.218"/>
<polygon fill="black" stroke="black" points="259.338,-257.346 268.186,-263.174 264.903,-253.1 259.338,-257.346"/>
<text text-anchor="middle" x="269.5" y="-240.8" font-family="Times New Roman,serif" font-size="14.00">use</text>
<text text-anchor="middle" x="269.5" y="-225.8" font-family="Times New Roman,serif" font-size="14.00">36</text>
</g>
<!-- g/j#5 -->
<g id="node7" class="node"><title>g/j#5</title>
<g id="a_node7"><a xlink:href="g/j#5" xlink:title="j#5">
<ellipse fill="#fffc87" stroke="#808080" cx="199" cy="-279" rx="27" ry="18"/>
<text text-anchor="middle" x="199" y="-275.3" font-family="Times New Roman,serif" font-size="14.00">j#5</text>
</a>
</g>
</g>
<!-- g/assign11&#45;&gt;g/j#5 -->
<g id="edge15" class="edge"><title>g/assign11&#45;&gt;g/j#5</title>
<path fill="none" stroke="black" d="M219.25,-184.344C215.37,-202.287 209.261,-230.544 204.766,-251.331"/>
<polygon fill="black" stroke="black" points="201.338,-250.628 202.645,-261.141 208.179,-252.107 201.338,-250.628"/>
<text text-anchor="middle" x="230.362" y="-192.52" font-family="Times New Roman,serif" font-size="8.00">use</text>
</g>
<!-- g/disti@j#2 -->
<g id="node9" class="node"><title>g/disti@j#2</title>
<g id="a_node9"><a xlink:href="g/disti@j#2" xlink:title="disti@j#2">
<ellipse fill="#fafafa" stroke="#999999" cx="92" cy="-279" rx="45.4919" ry="18"/>
<text text-anchor="middle" x="92" y="-275.3" font-family="Times New Roman,serif" font-size="14.00" fill="#999999">disti@j#2</text>
</a>
</g>
</g>
<!-- g/assign11&#45;&gt;g/disti@j#2 -->
<g id="edge16" class="edge"><title>g/assign11&#45;&gt;g/disti@j#2</title>
<path fill="none" stroke="#999999" d="M209.063,-184.364C201.258,-193.615 191.089,-204.926 181,-214 163.287,-229.931 141.616,-245.585 124.094,-257.423"/>
<polygon fill="#999999" stroke="#999999" points="121.733,-254.79 115.351,-263.247 125.614,-260.616 121.733,-254.79"/>
<text text-anchor="middle" x="214.098" y="-196.593" font-family="Times New Roman,serif" font-size="8.00" fill="#999999">use</text>
</g>
<!-- g/disti#2 -->
<g id="node11" class="node"><title>g/disti#2</title>
<g id="a_node11"><a xlink:href="g/disti#2" xlink:title="disti#2">
<ellipse fill="#fffc87" stroke="#808080" cx="370" cy="-279" rx="35.194" ry="18"/>
<text text-anchor="middle" x="370" y="-275.3" font-family="Times New Roman,serif" font-size="14.00">disti#2</text>
</a>
</g>
</g>
<!-- g/assign11&#45;&gt;g/disti#2 -->
<g id="edge9" class="edge"><title>g/assign11&#45;&gt;g/disti#2</title>
<path fill="none" stroke="#006600" d="M235.076,-184.41C242.518,-194.129 252.768,-205.879 264,-214 271.425,-219.368 275.937,-216.163 283,-222 295.352,-232.208 290.504,-241.968 303,-252 307.875,-255.914 319.2,-260.748 331.178,-265.181"/>
<polygon fill="#006600" stroke="#006600" points="330.219,-268.555 340.814,-268.626 332.576,-261.964 330.219,-268.555"/>
<text text-anchor="middle" x="312.5" y="-240.8" font-family="Times New Roman,serif" font-size="14.00" fill="#006600">use</text>
<text text-anchor="middle" x="312.5" y="-225.8" font-family="Times New Roman,serif" font-size="14.00" fill="#006600">35</text>
</g>
<!-- g/assign11&#45;attrs -->
<g id="node4" class="node"><title>g/assign11&#45;attrs</title>
<polygon fill="none" stroke="gray" points="210,-59 146,-59 146,-23 216,-23 216,-53 210,-59"/>
<polyline fill="none" stroke="gray" points="210,-59 210,-53 "/>
<polyline fill="none" stroke="gray" points="216,-53 210,-53 "/>
<text text-anchor="start" x="156" y="-38" font-family="Times New Roman,serif" font-size="10.00">type:</text>
<text text-anchor="start" x="179" y="-38" font-family="Times New Roman,serif" font-size="10.00">assign</text>
</g>
<!-- g/assign11&#45;attrs&#45;&gt;g/assign11 -->
<g id="edge11" class="edge"><title>g/assign11&#45;attrs&#45;&gt;g/assign11</title>
<path fill="none" stroke="gray" stroke-dasharray="5,2" d="M186.84,-59.1026C194.819,-82.4701 209.051,-124.148 217.074,-147.646"/>
</g>
<!-- g/ikj#2&#45;attrs -->
<g id="node6" class="node"><title>g/ikj#2&#45;attrs</title>
<polygon fill="none" stroke="gray" points="336.5,-197 273.5,-197 273.5,-135 342.5,-135 342.5,-191 336.5,-197"/>
<polyline fill="none" stroke="gray" points="336.5,-197 336.5,-191 "/>
<polyline fill="none" stroke="gray" points="342.5,-191 336.5,-191 "/>
<text text-anchor="start" x="284" y="-183" font-family="Times New Roman,serif" font-size="10.00">value:</text>
<text text-anchor="start" x="311" y="-183" font-family="Times New Roman,serif" font-size="10.00">3</text>
<text text-anchor="start" x="284" y="-170" font-family="Times New Roman,serif" font-size="10.00">type:</text>
<text text-anchor="start" x="311" y="-170" font-family="Times New Roman,serif" font-size="10.00">name</text>
<text text-anchor="start" x="284" y="-157" font-family="Times New Roman,serif" font-size="10.00">label:</text>
<text text-anchor="start" x="311" y="-157" font-family="Times New Roman,serif" font-size="10.00">ikj</text>
<text text-anchor="start" x="284" y="-144" font-family="Times New Roman,serif" font-size="10.00">line:</text>
<text text-anchor="start" x="311" y="-144" font-family="Times New Roman,serif" font-size="10.00">15</text>
</g>
<!-- g/ikj#2&#45;attrs&#45;&gt;g/ikj#2 -->
<g id="edge6" class="edge"><title>g/ikj#2&#45;attrs&#45;&gt;g/ikj#2</title>
<path fill="none" stroke="gray" stroke-dasharray="5,2" d="M294.806,-197.08C291.787,-205.047 288.908,-213.734 287,-222 284.036,-234.839 282.807,-249.71 282.308,-260.9"/>
</g>
<!-- g/j#5&#45;attrs -->
<g id="node8" class="node"><title>g/j#5&#45;attrs</title>
<polygon fill="none" stroke="gray" points="166.5,-197 103.5,-197 103.5,-135 172.5,-135 172.5,-191 166.5,-197"/>
<polyline fill="none" stroke="gray" points="166.5,-197 166.5,-191 "/>
<polyline fill="none" stroke="gray" points="172.5,-191 166.5,-191 "/>
<text text-anchor="start" x="114" y="-183" font-family="Times New Roman,serif" font-size="10.00">value:</text>
<text text-anchor="start" x="141" y="-183" font-family="Times New Roman,serif" font-size="10.00">1</text>
<text text-anchor="start" x="114" y="-170" font-family="Times New Roman,serif" font-size="10.00">type:</text>
<text text-anchor="start" x="141" y="-170" font-family="Times New Roman,serif" font-size="10.00">name</text>
<text text-anchor="start" x="114" y="-157" font-family="Times New Roman,serif" font-size="10.00">label:</text>
<text text-anchor="start" x="141" y="-157" font-family="Times New Roman,serif" font-size="10.00">j</text>
<text text-anchor="start" x="114" y="-144" font-family="Times New Roman,serif" font-size="10.00">line:</text>
<text text-anchor="start" x="141" y="-144" font-family="Times New Roman,serif" font-size="10.00">13</text>
</g>
<!-- g/j#5&#45;attrs&#45;&gt;g/j#5 -->
<g id="edge5" class="edge"><title>g/j#5&#45;attrs&#45;&gt;g/j#5</title>
<path fill="none" stroke="gray" stroke-dasharray="5,2" d="M154.507,-197.038C165.939,-217.841 180.72,-244.736 190.033,-261.683"/>
</g>
<!-- g/disti@j#2&#45;attrs -->
<g id="node10" class="node"><title>g/disti@j#2&#45;attrs</title>
<polygon fill="none" stroke="#999999" points="79.5,-197 10.5,-197 10.5,-135 85.5,-135 85.5,-191 79.5,-197"/>
<polyline fill="none" stroke="#999999" points="79.5,-197 79.5,-191 "/>
<polyline fill="none" stroke="#999999" points="85.5,-191 79.5,-191 "/>
<text text-anchor="start" x="21" y="-183" font-family="Times New Roman,serif" font-size="10.00" fill="#999999">value:</text>
<text text-anchor="start" x="48" y="-183" font-family="Times New Roman,serif" font-size="10.00" fill="#999999">10000</text>
<text text-anchor="start" x="21" y="-170" font-family="Times New Roman,serif" font-size="10.00" fill="#999999">type:</text>
<text text-anchor="start" x="48" y="-170" font-family="Times New Roman,serif" font-size="10.00" fill="#999999">access</text>
<text text-anchor="start" x="21" y="-157" font-family="Times New Roman,serif" font-size="10.00" fill="#999999">label:</text>
<text text-anchor="start" x="48" y="-157" font-family="Times New Roman,serif" font-size="10.00" fill="#999999">disti[j]</text>
<text text-anchor="start" x="21" y="-144" font-family="Times New Roman,serif" font-size="10.00" fill="#999999">line:</text>
<text text-anchor="start" x="48" y="-144" font-family="Times New Roman,serif" font-size="10.00" fill="#999999">16</text>
</g>
<!-- g/disti@j#2&#45;attrs&#45;&gt;g/disti@j#2 -->
<g id="edge7" class="edge"><title>g/disti@j#2&#45;attrs&#45;&gt;g/disti@j#2</title>
<path fill="none" stroke="#999999" stroke-dasharray="5,2" d="M59.907,-197.038C68.0513,-217.584 78.5515,-244.073 85.2814,-261.051"/>
</g>
<!-- g/disti#2&#45;attrs -->
<g id="node12" class="node"><title>g/disti#2&#45;attrs</title>
<polygon fill="none" stroke="gray" points="470,-197 382,-197 382,-135 476,-135 476,-191 470,-197"/>
<polyline fill="none" stroke="gray" points="470,-197 470,-191 "/>
<polyline fill="none" stroke="gray" points="476,-191 470,-191 "/>
<text text-anchor="start" x="392" y="-183" font-family="Times New Roman,serif" font-size="10.00">value:</text>
<text text-anchor="start" x="419" y="-183" font-family="Times New Roman,serif" font-size="10.00">[2, 10000, 0]</text>
<text text-anchor="start" x="392" y="-170" font-family="Times New Roman,serif" font-size="10.00">type:</text>
<text text-anchor="start" x="419" y="-170" font-family="Times New Roman,serif" font-size="10.00">name</text>
<text text-anchor="start" x="392" y="-157" font-family="Times New Roman,serif" font-size="10.00">label:</text>
<text text-anchor="start" x="419" y="-157" font-family="Times New Roman,serif" font-size="10.00">disti</text>
<text text-anchor="start" x="392" y="-144" font-family="Times New Roman,serif" font-size="10.00">line:</text>
<text text-anchor="start" x="419" y="-144" font-family="Times New Roman,serif" font-size="10.00">12</text>
</g>
<!-- g/disti#2&#45;attrs&#45;&gt;g/disti#2 -->
<g id="edge4" class="edge"><title>g/disti#2&#45;attrs&#45;&gt;g/disti#2</title>
<path fill="none" stroke="gray" stroke-dasharray="5,2" d="M413.034,-197.038C402.045,-217.712 387.857,-244.405 378.84,-261.368"/>
</g>
<!-- bn0&#45;&gt;g/ikj#2 -->
<g id="edge14" class="edge"><title>bn0&#45;&gt;g/ikj#2</title>
<path fill="none" stroke="black" d="M361.875,-168.211C361.275,-173.704 358.412,-196.754 351,-214 350.501,-215.161 326.915,-251.128 326,-252 322.164,-255.655 317.723,-259.02 313.169,-262.031"/>
<polygon fill="black" stroke="black" points="311.122,-259.18 304.399,-267.368 314.761,-265.159 311.122,-259.18"/>
<text text-anchor="middle" x="354" y="-233.3" font-family="Times New Roman,serif" font-size="14.00">[1]</text>
</g>
<!-- bn0&#45;&gt;g/disti#2 -->
<g id="edge13" class="edge"><title>bn0&#45;&gt;g/disti#2</title>
<path fill="none" stroke="#006600" stroke-dasharray="5,2" d="M362.09,-168.247C362.665,-176.223 365.871,-220.716 368.021,-250.546"/>
<polygon fill="#006600" stroke="#006600" points="364.549,-251.056 368.759,-260.778 371.531,-250.552 364.549,-251.056"/>
</g>
<!-- g/matrix2 -->
<g id="node14" class="node"><title>g/matrix2</title>
<g id="a_node14"><a xlink:href="g/matrix2" xlink:title="matrix2">
<ellipse fill="#fafafa" stroke="#999999" cx="547" cy="-41" rx="37.8943" ry="18"/>
<text text-anchor="middle" x="547" y="-37.3" font-family="Times New Roman,serif" font-size="14.00" fill="#999999">matrix2</text>
</a>
</g>
</g>
<!-- g/matrix2&#45;&gt;g/disti@j#3 -->
<g id="edge8" class="edge"><title>g/matrix2&#45;&gt;g/disti@j#3</title>
<path fill="none" stroke="#006600" d="M509.052,-41C490.112,-41 466.83,-41 445.893,-41"/>
<polygon fill="#006600" stroke="#006600" points="445.833,-37.5001 435.833,-41 445.833,-44.5001 445.833,-37.5001"/>
<text text-anchor="middle" x="472.4" y="-26.8" font-family="Times New Roman,serif" font-size="14.00" fill="#006600">put</text>
<text text-anchor="middle" x="472.4" y="-11.8" font-family="Times New Roman,serif" font-size="14.00" fill="#006600">[1]</text>
<text text-anchor="middle" x="472.4" y="3.2" font-family="Times New Roman,serif" font-size="14.00" fill="#006600">36</text>
</g>
<!-- g/m -->
<g id="node15" class="node"><title>g/m</title>
<g id="a_node15"><a xlink:href="g/m" xlink:title="m">
<ellipse fill="#fafafa" stroke="#999999" cx="521" cy="-166" rx="27" ry="18"/>
<text text-anchor="middle" x="521" y="-162.3" font-family="Times New Roman,serif" font-size="14.00" fill="#999999">m</text>
</a>
</g>
</g>
<!-- g/matrix2&#45;&gt;g/m -->
<g id="edge2" class="edge"><title>g/matrix2&#45;&gt;g/m</title>
<path fill="none" stroke="#999999" d="M543.385,-59.1026C539.058,-79.5729 531.76,-114.095 526.678,-138.137"/>
<polygon fill="#999999" stroke="#999999" points="523.228,-137.535 524.584,-148.043 530.077,-138.983 523.228,-137.535"/>
<text text-anchor="middle" x="548.5" y="-114.8" font-family="Times New Roman,serif" font-size="14.00" fill="#999999">put</text>
<text text-anchor="middle" x="548.5" y="-99.8" font-family="Times New Roman,serif" font-size="14.00" fill="#999999">[1]</text>
<text text-anchor="middle" x="548.5" y="-84.8" font-family="Times New Roman,serif" font-size="14.00" fill="#999999">2</text>
</g>
<!-- g/0 -->
<g id="node16" class="node"><title>g/0</title>
<g id="a_node16"><a xlink:href="g/0" xlink:title="0">
<ellipse fill="#fafafa" stroke="#999999" cx="593" cy="-166" rx="27" ry="18"/>
<text text-anchor="middle" x="593" y="-162.3" font-family="Times New Roman,serif" font-size="14.00" fill="#999999">0</text>
</a>
</g>
</g>
<!-- g/matrix2&#45;&gt;g/0 -->
<g id="edge3" class="edge"><title>g/matrix2&#45;&gt;g/0</title>
<path fill="none" stroke="#999999" d="M553.622,-59.0665C556.251,-65.881 559.289,-73.8043 562,-81 569.263,-100.274 577.312,-122.099 583.388,-138.671"/>
<polygon fill="#999999" stroke="#999999" points="580.167,-140.053 586.891,-148.241 586.74,-137.647 580.167,-140.053"/>
<text text-anchor="middle" x="588.5" y="-114.8" font-family="Times New Roman,serif" font-size="14.00" fill="#999999">put</text>
<text text-anchor="middle" x="588.5" y="-99.8" font-family="Times New Roman,serif" font-size="14.00" fill="#999999">[2]</text>
<text text-anchor="middle" x="588.5" y="-84.8" font-family="Times New Roman,serif" font-size="14.00" fill="#999999">2</text>
</g>
<!-- g/2 -->
<g id="node17" class="node"><title>g/2</title>
<g id="a_node17"><a xlink:href="g/2" xlink:title="2">
<ellipse fill="#fafafa" stroke="#999999" cx="665" cy="-166" rx="27" ry="18"/>
<text text-anchor="middle" x="665" y="-162.3" font-family="Times New Roman,serif" font-size="14.00" fill="#999999">2</text>
</a>
</g>
</g>
<!-- g/matrix2&#45;&gt;g/2 -->
<g id="edge1" class="edge"><title>g/matrix2&#45;&gt;g/2</title>
<path fill="none" stroke="#999999" d="M569.357,-55.5575C579.856,-62.4787 592.187,-71.446 602,-81 620.463,-98.9763 637.745,-122.712 649.521,-140.366"/>
<polygon fill="#999999" stroke="#999999" points="646.752,-142.527 655.154,-148.981 652.611,-138.696 646.752,-142.527"/>
<text text-anchor="middle" x="647.5" y="-114.8" font-family="Times New Roman,serif" font-size="14.00" fill="#999999">put</text>
<text text-anchor="middle" x="647.5" y="-99.8" font-family="Times New Roman,serif" font-size="14.00" fill="#999999">[0]</text>
<text text-anchor="middle" x="647.5" y="-84.8" font-family="Times New Roman,serif" font-size="14.00" fill="#999999">2</text>
</g>
</g>
</svg>
