<?xml version="1.0" encoding="UTF-8" standalone="no"?>
<!DOCTYPE svg PUBLIC "-//W3C//DTD SVG 1.1//EN"
 "http://www.w3.org/Graphics/SVG/1.1/DTD/svg11.dtd">
<!-- Generated by graphviz version 2.38.0 (20140413.2041)
 -->
<!-- Title: PROV Pages: 1 -->
<svg width="792pt" height="324pt"
 viewBox="0.00 0.00 792.00 324.00" xmlns="http://www.w3.org/2000/svg" xmlns:xlink="http://www.w3.org/1999/xlink">
<g id="graph0" class="graph" transform="scale(1 1) rotate(0) translate(4 320)">
<title>PROV</title>
<polygon fill="white" stroke="none" points="-4,4 -4,-320 788,-320 788,4 -4,4"/>
<g id="clust1" class="cluster"><title>cluster_0</title>
<polygon fill="none" stroke="#333333" points="8,-8 8,-308 478,-308 478,-8 8,-8"/>
<text text-anchor="middle" x="463.5" y="-289.6" font-family="Times New Roman,serif" font-size="18.00" fill="#333333">A</text>
</g>
<g id="clust3" class="cluster"><title>cluster_1</title>
<polygon fill="none" stroke="#333333" points="492,-21 492,-308 776,-308 776,-21 492,-21"/>
<text text-anchor="middle" x="761.5" y="-289.6" font-family="Times New Roman,serif" font-size="18.00" fill="#333333">B</text>
</g>
<!-- g/disti@j#3 -->
<g id="node1" class="node"><title>g/disti@j#3</title>
<g id="a_node1"><a xlink:href="g/disti@j#3" xlink:title="disti@j#3">
<ellipse fill="#fffc87" stroke="#808080" cx="414" cy="-41" rx="45.4919" ry="18"/>
<text text-anchor="middle" x="414" y="-37.3" font-family="Times New Roman,serif" font-size="14.00">disti@j#3</text>
</a>
</g>
</g>
<!-- g/assign11 -->
<g id="node3" class="node"><title>g/assign11</title>
<g id="a_node3"><a xlink:href="g/assign11" xlink:title="assign11">
<polygon fill="#9fb1fc" stroke="#0000ff" points="255.5,-181 190.5,-181 190.5,-145 255.5,-145 255.5,-181"/>
<text text-anchor="middle" x="223" y="-159.3" font-family="Times New Roman,serif" font-size="14.00">assign11</text>
</a>
</g>
</g>
<!-- g/disti@j#3&#45;&gt;g/assign11 -->
<g id="edge20" class="edge"><title>g/disti@j#3&#45;&gt;g/assign11</title>
<path fill="none" stroke="black" d="M382.475,-54.2273C365.809,-61.1991 345.281,-70.6082 328,-81 299.957,-97.8638 270.686,-120.97 250.196,-138.189"/>
<polygon fill="black" stroke="black" points="247.879,-135.565 242.524,-144.707 252.411,-140.9 247.879,-135.565"/>
<text text-anchor="start" x="341" y="-105.8" font-family="Times New Roman,serif" font-size="14.00">gen</text>
<text text-anchor="start" x="328" y="-90.8" font-family="Times New Roman,serif" font-size="14.00" fill="#800000">ckpt: 36</text>
</g>
<!-- bn0 -->
<g id="node13" class="node"><title>bn0</title>
<ellipse fill="black" stroke="black" cx="362" cy="-163" rx="1.8" ry="1.8"/>
</g>
<!-- g/disti@j#3&#45;&gt;bn0 -->
<g id="edge14" class="edge"><title>g/disti@j#3&#45;&gt;bn0</title>
<path fill="none" stroke="black" d="M405.906,-58.7521C397.342,-76.7014 383.626,-106.109 373,-132 368.45,-143.085 363.747,-156.822 362.389,-160.844"/>
<text text-anchor="start" x="399" y="-112.8" font-family="Times New Roman,serif" font-size="14.00">der</text>
<text text-anchor="start" x="418" y="-112.8" font-family="Times New Roman,serif" font-size="14.00" fill="#800000"> ref</text>
<text text-anchor="start" x="395.5" y="-98.8" font-family="Times New Roman,serif" font-size="14.00" fill="#800000">ac&#45;write</text>
<text text-anchor="start" x="395" y="-84.8" font-family="Times New Roman,serif" font-size="14.00" fill="#800000">ckpt: 36</text>
</g>
<!-- g/disti@j#3&#45;attrs -->
<g id="node2" class="node"><title>g/disti@j#3&#45;attrs</title>
<polygon fill="none" stroke="gray" points="327.5,-72 258.5,-72 258.5,-10 333.5,-10 333.5,-66 327.5,-72"/>
<polyline fill="none" stroke="gray" points="327.5,-72 327.5,-66 "/>
<polyline fill="none" stroke="gray" points="333.5,-66 327.5,-66 "/>
<text text-anchor="start" x="269" y="-58" font-family="Times New Roman,serif" font-size="10.00">value:</text>
<text text-anchor="start" x="296" y="-58" font-family="Times New Roman,serif" font-size="10.00">3</text>
<text text-anchor="start" x="269" y="-45" font-family="Times New Roman,serif" font-size="10.00">type:</text>
<text text-anchor="start" x="296" y="-45" font-family="Times New Roman,serif" font-size="10.00">access</text>
<text text-anchor="start" x="269" y="-32" font-family="Times New Roman,serif" font-size="10.00">label:</text>
<text text-anchor="start" x="296" y="-32" font-family="Times New Roman,serif" font-size="10.00">disti[j]</text>
<text text-anchor="start" x="269" y="-19" font-family="Times New Roman,serif" font-size="10.00">line:</text>
<text text-anchor="start" x="296" y="-19" font-family="Times New Roman,serif" font-size="10.00">17</text>
</g>
<!-- g/disti@j#3&#45;attrs&#45;&gt;g/disti@j#3 -->
<g id="edge12" class="edge"><title>g/disti@j#3&#45;attrs&#45;&gt;g/disti@j#3</title>
<path fill="none" stroke="gray" stroke-dasharray="5,2" d="M333.797,-41C345.284,-41 356.772,-41 368.259,-41"/>
</g>
<!-- g/ikj#2 -->
<g id="node5" class="node"><title>g/ikj#2</title>
<g id="a_node5"><a xlink:href="g/ikj#2" xlink:title="ikj#2">
<ellipse fill="#fffc87" stroke="#808080" cx="275" cy="-260" rx="28.6953" ry="18"/>
<text text-anchor="middle" x="275" y="-256.3" font-family="Times New Roman,serif" font-size="14.00">ikj#2</text>
</a>
</g>
</g>
<!-- g/assign11&#45;&gt;g/ikj#2 -->
<g id="edge19" class="edge"><title>g/assign11&#45;&gt;g/ikj#2</title>
<path fill="none" stroke="black" d="M218.93,-181.27C216.432,-196.136 215.322,-217.568 225,-233 228.702,-238.903 234.214,-243.534 240.242,-247.144"/>
<polygon fill="black" stroke="black" points="238.791,-250.332 249.293,-251.731 241.956,-244.088 238.791,-250.332"/>
<text text-anchor="start" x="238.5" y="-221.8" font-family="Times New Roman,serif" font-size="14.00">use</text>
<text text-anchor="start" x="225" y="-206.8" font-family="Times New Roman,serif" font-size="14.00" fill="#800000">ckpt: 36</text>
</g>
<!-- g/j#5 -->
<g id="node7" class="node"><title>g/j#5</title>
<g id="a_node7"><a xlink:href="g/j#5" xlink:title="j#5">
<ellipse fill="#fffc87" stroke="#808080" cx="75" cy="-260" rx="27" ry="18"/>
<text text-anchor="middle" x="75" y="-256.3" font-family="Times New Roman,serif" font-size="14.00">j#5</text>
</a>
</g>
</g>
<!-- g/assign11&#45;&gt;g/j#5 -->
<g id="edge17" class="edge"><title>g/assign11&#45;&gt;g/j#5</title>
<path fill="none" stroke="black" d="M199.656,-181.113C193.636,-185.405 187.125,-189.942 181,-194 155.176,-211.11 124.997,-229.462 103.459,-242.287"/>
<polygon fill="black" stroke="black" points="101.611,-239.314 94.7954,-247.426 105.182,-245.335 101.611,-239.314"/>
<text text-anchor="middle" x="201.072" y="-194.146" font-family="Times New Roman,serif" font-size="8.00">use</text>
</g>
<!-- g/disti@j#2 -->
<g id="node9" class="node"><title>g/disti@j#2</title>
<g id="a_node9"><a xlink:href="g/disti@j#2" xlink:title="disti@j#2">
<ellipse fill="#fafafa" stroke="#999999" cx="177" cy="-260" rx="45.4919" ry="18"/>
<text text-anchor="middle" x="177" y="-256.3" font-family="Times New Roman,serif" font-size="14.00" fill="#999999">disti@j#2</text>
</a>
</g>
</g>
<!-- g/assign11&#45;&gt;g/disti@j#2 -->
<g id="edge18" class="edge"><title>g/assign11&#45;&gt;g/disti@j#2</title>
<path fill="none" stroke="#999999" d="M212.733,-181.255C208.887,-187.958 204.584,-195.753 201,-203 196.267,-212.57 191.536,-223.3 187.54,-232.786"/>
<polygon fill="#999999" stroke="#999999" points="184.266,-231.543 183.673,-242.122 190.734,-234.222 184.266,-231.543"/>
<text text-anchor="middle" x="220.292" y="-192.311" font-family="Times New Roman,serif" font-size="8.00" fill="#999999">use</text>
</g>
<!-- g/disti#2 -->
<g id="node11" class="node"><title>g/disti#2</title>
<g id="a_node11"><a xlink:href="g/disti#2" xlink:title="disti#2">
<ellipse fill="#fffc87" stroke="#808080" cx="394" cy="-260" rx="35.194" ry="18"/>
<text text-anchor="middle" x="394" y="-256.3" font-family="Times New Roman,serif" font-size="14.00">disti#2</text>
</a>
</g>
</g>
<!-- g/assign11&#45;&gt;g/disti#2 -->
<g id="edge11" class="edge"><title>g/assign11&#45;&gt;g/disti#2</title>
<path fill="none" stroke="#800000" d="M246.537,-181.128C259.08,-190.349 272.45,-200.365 275,-203 286.318,-214.695 282.657,-223.68 296,-233 305.198,-239.425 329.536,-245.898 351.654,-250.778"/>
<polygon fill="#800000" stroke="#800000" points="351.088,-254.236 361.599,-252.903 352.551,-247.391 351.088,-254.236"/>
<text text-anchor="middle" x="319" y="-221.8" font-family="Times New Roman,serif" font-size="14.00" fill="#800000">use</text>
<text text-anchor="middle" x="319" y="-206.8" font-family="Times New Roman,serif" font-size="14.00" fill="#800000">ckpt: 35</text>
</g>
<!-- g/assign11&#45;attrs -->
<g id="node4" class="node"><title>g/assign11&#45;attrs</title>
<polygon fill="none" stroke="gray" points="234,-59 170,-59 170,-23 240,-23 240,-53 234,-59"/>
<polyline fill="none" stroke="gray" points="234,-59 234,-53 "/>
<polyline fill="none" stroke="gray" points="240,-53 234,-53 "/>
<text text-anchor="start" x="180" y="-38" font-family="Times New Roman,serif" font-size="10.00">type:</text>
<text text-anchor="start" x="203" y="-38" font-family="Times New Roman,serif" font-size="10.00">assign</text>
</g>
<!-- g/assign11&#45;attrs&#45;&gt;g/assign11 -->
<g id="edge13" class="edge"><title>g/assign11&#45;attrs&#45;&gt;g/assign11</title>
<path fill="none" stroke="gray" stroke-dasharray="5,2" d="M207.579,-59.1931C211.001,-82.0051 217.006,-122.043 220.426,-144.839"/>
</g>
<!-- g/ikj#2&#45;attrs -->
<g id="node6" class="node"><title>g/ikj#2&#45;attrs</title>
<polygon fill="none" stroke="gray" points="336.5,-194 273.5,-194 273.5,-132 342.5,-132 342.5,-188 336.5,-194"/>
<polyline fill="none" stroke="gray" points="336.5,-194 336.5,-188 "/>
<polyline fill="none" stroke="gray" points="342.5,-188 336.5,-188 "/>
<text text-anchor="start" x="284" y="-180" font-family="Times New Roman,serif" font-size="10.00">value:</text>
<text text-anchor="start" x="311" y="-180" font-family="Times New Roman,serif" font-size="10.00">3</text>
<text text-anchor="start" x="284" y="-167" font-family="Times New Roman,serif" font-size="10.00">type:</text>
<text text-anchor="start" x="311" y="-167" font-family="Times New Roman,serif" font-size="10.00">name</text>
<text text-anchor="start" x="284" y="-154" font-family="Times New Roman,serif" font-size="10.00">label:</text>
<text text-anchor="start" x="311" y="-154" font-family="Times New Roman,serif" font-size="10.00">ikj</text>
<text text-anchor="start" x="284" y="-141" font-family="Times New Roman,serif" font-size="10.00">line:</text>
<text text-anchor="start" x="311" y="-141" font-family="Times New Roman,serif" font-size="10.00">15</text>
</g>
<!-- g/ikj#2&#45;attrs&#45;&gt;g/ikj#2 -->
<g id="edge8" class="edge"><title>g/ikj#2&#45;attrs&#45;&gt;g/ikj#2</title>
<path fill="none" stroke="gray" stroke-dasharray="5,2" d="M284.068,-194.218C282.496,-197.084 281.103,-200.031 280,-203 275.375,-215.443 274.253,-230.47 274.217,-241.824"/>
</g>
<!-- g/j#5&#45;attrs -->
<g id="node8" class="node"><title>g/j#5&#45;attrs</title>
<polygon fill="none" stroke="gray" points="73.5,-194 10.5,-194 10.5,-132 79.5,-132 79.5,-188 73.5,-194"/>
<polyline fill="none" stroke="gray" points="73.5,-194 73.5,-188 "/>
<polyline fill="none" stroke="gray" points="79.5,-188 73.5,-188 "/>
<text text-anchor="start" x="21" y="-180" font-family="Times New Roman,serif" font-size="10.00">value:</text>
<text text-anchor="start" x="48" y="-180" font-family="Times New Roman,serif" font-size="10.00">1</text>
<text text-anchor="start" x="21" y="-167" font-family="Times New Roman,serif" font-size="10.00">type:</text>
<text text-anchor="start" x="48" y="-167" font-family="Times New Roman,serif" font-size="10.00">name</text>
<text text-anchor="start" x="21" y="-154" font-family="Times New Roman,serif" font-size="10.00">label:</text>
<text text-anchor="start" x="48" y="-154" font-family="Times New Roman,serif" font-size="10.00">j</text>
<text text-anchor="start" x="21" y="-141" font-family="Times New Roman,serif" font-size="10.00">line:</text>
<text text-anchor="start" x="48" y="-141" font-family="Times New Roman,serif" font-size="10.00">13</text>
</g>
<!-- g/j#5&#45;attrs&#45;&gt;g/j#5 -->
<g id="edge7" class="edge"><title>g/j#5&#45;attrs&#45;&gt;g/j#5</title>
<path fill="none" stroke="gray" stroke-dasharray="5,2" d="M54.4922,-194.059C59.5047,-209.932 65.4701,-228.822 69.6712,-242.125"/>
</g>
<!-- g/disti@j#2&#45;attrs -->
<g id="node10" class="node"><title>g/disti@j#2&#45;attrs</title>
<polygon fill="none" stroke="#999999" points="166.5,-194 97.5,-194 97.5,-132 172.5,-132 172.5,-188 166.5,-194"/>
<polyline fill="none" stroke="#999999" points="166.5,-194 166.5,-188 "/>
<polyline fill="none" stroke="#999999" points="172.5,-188 166.5,-188 "/>
<text text-anchor="start" x="108" y="-180" font-family="Times New Roman,serif" font-size="10.00" fill="#999999">value:</text>
<text text-anchor="start" x="135" y="-180" font-family="Times New Roman,serif" font-size="10.00" fill="#999999">10000</text>
<text text-anchor="start" x="108" y="-167" font-family="Times New Roman,serif" font-size="10.00" fill="#999999">type:</text>
<text text-anchor="start" x="135" y="-167" font-family="Times New Roman,serif" font-size="10.00" fill="#999999">access</text>
<text text-anchor="start" x="108" y="-154" font-family="Times New Roman,serif" font-size="10.00" fill="#999999">label:</text>
<text text-anchor="start" x="135" y="-154" font-family="Times New Roman,serif" font-size="10.00" fill="#999999">disti[j]</text>
<text text-anchor="start" x="108" y="-141" font-family="Times New Roman,serif" font-size="10.00" fill="#999999">line:</text>
<text text-anchor="start" x="135" y="-141" font-family="Times New Roman,serif" font-size="10.00" fill="#999999">16</text>
</g>
<!-- g/disti@j#2&#45;attrs&#45;&gt;g/disti@j#2 -->
<g id="edge9" class="edge"><title>g/disti@j#2&#45;attrs&#45;&gt;g/disti@j#2</title>
<path fill="none" stroke="#999999" stroke-dasharray="5,2" d="M148.289,-194.059C155.307,-209.932 163.658,-228.822 169.54,-242.125"/>
</g>
<!-- g/dist@i#2 -->
<g id="node14" class="node"><title>g/dist@i#2</title>
<g id="a_node14"><a xlink:href="g/dist@i#2" xlink:title="dist@i#2">
<ellipse fill="#fafafa" stroke="#999999" cx="538" cy="-260" rx="43.5923" ry="18"/>
<text text-anchor="middle" x="538" y="-256.3" font-family="Times New Roman,serif" font-size="14.00" fill="#999999">dist@i#2</text>
</a>
</g>
</g>
<!-- g/disti#2&#45;&gt;g/dist@i#2 -->
<g id="edge6" class="edge"><title>g/disti#2&#45;&gt;g/dist@i#2</title>
<path fill="none" stroke="#999999" d="M429.226,-260C445.806,-260 465.942,-260 484.361,-260"/>
<polygon fill="#999999" stroke="#999999" points="484.383,-263.5 494.383,-260 484.383,-256.5 484.383,-263.5"/>
<text text-anchor="middle" x="461.775" y="-245.8" font-family="Times New Roman,serif" font-size="14.00" fill="#999999">der ref</text>
<text text-anchor="middle" x="461.775" y="-230.8" font-family="Times New Roman,serif" font-size="14.00" fill="#999999">ckpt: 27</text>
</g>
<!-- g/disti#2&#45;attrs -->
<g id="node12" class="node"><title>g/disti#2&#45;attrs</title>
<polygon fill="none" stroke="gray" points="470,-194 382,-194 382,-132 476,-132 476,-188 470,-194"/>
<polyline fill="none" stroke="gray" points="470,-194 470,-188 "/>
<polyline fill="none" stroke="gray" points="476,-188 470,-188 "/>
<text text-anchor="start" x="392" y="-180" font-family="Times New Roman,serif" font-size="10.00">value:</text>
<text text-anchor="start" x="419" y="-180" font-family="Times New Roman,serif" font-size="10.00">[2, 10000, 0]</text>
<text text-anchor="start" x="392" y="-167" font-family="Times New Roman,serif" font-size="10.00">type:</text>
<text text-anchor="start" x="419" y="-167" font-family="Times New Roman,serif" font-size="10.00">name</text>
<text text-anchor="start" x="392" y="-154" font-family="Times New Roman,serif" font-size="10.00">label:</text>
<text text-anchor="start" x="419" y="-154" font-family="Times New Roman,serif" font-size="10.00">disti</text>
<text text-anchor="start" x="392" y="-141" font-family="Times New Roman,serif" font-size="10.00">line:</text>
<text text-anchor="start" x="419" y="-141" font-family="Times New Roman,serif" font-size="10.00">12</text>
</g>
<!-- g/disti#2&#45;attrs&#45;&gt;g/disti#2 -->
<g id="edge5" class="edge"><title>g/disti#2&#45;attrs&#45;&gt;g/disti#2</title>
<path fill="none" stroke="gray" stroke-dasharray="5,2" d="M417.926,-194.059C412.078,-209.932 405.118,-228.822 400.217,-242.125"/>
</g>
<!-- bn0&#45;&gt;g/ikj#2 -->
<g id="edge16" class="edge"><title>bn0&#45;&gt;g/ikj#2</title>
<path fill="none" stroke="black" d="M362.074,-164.799C362.601,-170.962 365.219,-211.255 346,-233 337.443,-242.682 324.968,-248.763 312.855,-252.58"/>
<polygon fill="black" stroke="black" points="311.598,-249.294 302.858,-255.283 313.425,-256.051 311.598,-249.294"/>
<text text-anchor="start" x="360" y="-214.3" font-family="Times New Roman,serif" font-size="14.00">[1]</text>
</g>
<!-- bn0&#45;&gt;g/disti#2 -->
<g id="edge15" class="edge"><title>bn0&#45;&gt;g/disti#2</title>
<path fill="none" stroke="#800000" stroke-dasharray="5,2" d="M362.101,-164.84C362.599,-168.637 365.082,-184.424 373,-194 377.954,-199.992 383.814,-196.449 388,-203 393.374,-211.411 395.416,-222.018 395.929,-231.732"/>
<polygon fill="#800000" stroke="#800000" points="392.429,-231.792 395.971,-241.777 399.429,-231.763 392.429,-231.792"/>
</g>
<!-- g/matrix2 -->
<g id="node15" class="node"><title>g/matrix2</title>
<g id="a_node15"><a xlink:href="g/matrix2" xlink:title="matrix2">
<ellipse fill="#fafafa" stroke="#999999" cx="603" cy="-41" rx="37.8943" ry="18"/>
<text text-anchor="middle" x="603" y="-37.3" font-family="Times New Roman,serif" font-size="14.00" fill="#999999">matrix2</text>
</a>
</g>
</g>
<!-- g/dist@i#2&#45;&gt;g/matrix2 -->
<g id="edge4" class="edge"><title>g/dist@i#2&#45;&gt;g/matrix2</title>
<path fill="none" stroke="#999999" d="M530.572,-241.939C520.819,-216.957 506.541,-169.34 521,-132 531.82,-104.059 555.799,-79.4668 575.046,-63.0815"/>
<polygon fill="#999999" stroke="#999999" points="577.455,-65.6322 582.953,-56.5759 573.007,-60.2266 577.455,-65.6322"/>
<text text-anchor="middle" x="544" y="-166.8" font-family="Times New Roman,serif" font-size="14.00" fill="#999999">der ref</text>
<text text-anchor="middle" x="544" y="-151.8" font-family="Times New Roman,serif" font-size="14.00" fill="#999999">ckpt: 26</text>
</g>
<!-- g/matrix2&#45;&gt;g/disti@j#3 -->
<g id="edge10" class="edge"><title>g/matrix2&#45;&gt;g/disti@j#3</title>
<path fill="none" stroke="#800000" d="M565.292,-41C537.999,-41 500.66,-41 469.905,-41"/>
<polygon fill="#800000" stroke="#800000" points="469.752,-37.5001 459.752,-41 469.752,-44.5001 469.752,-37.5001"/>
<text text-anchor="middle" x="512.4" y="-26.8" font-family="Times New Roman,serif" font-size="14.00" fill="#800000">put [1]</text>
<text text-anchor="middle" x="512.4" y="-11.8" font-family="Times New Roman,serif" font-size="14.00" fill="#800000">ckpt: 36</text>
</g>
<!-- g/m -->
<g id="node16" class="node"><title>g/m</title>
<g id="a_node16"><a xlink:href="g/m" xlink:title="m">
<ellipse fill="#fafafa" stroke="#999999" cx="603" cy="-163" rx="27" ry="18"/>
<text text-anchor="middle" x="603" y="-159.3" font-family="Times New Roman,serif" font-size="14.00" fill="#999999">m</text>
</a>
</g>
</g>
<!-- g/matrix2&#45;&gt;g/m -->
<g id="edge2" class="edge"><title>g/matrix2&#45;&gt;g/m</title>
<path fill="none" stroke="#999999" d="M603,-59.1931C603,-78.8862 603,-111.417 603,-134.61"/>
<polygon fill="#999999" stroke="#999999" points="599.5,-134.839 603,-144.839 606.5,-134.839 599.5,-134.839"/>
<text text-anchor="middle" x="622.5" y="-105.8" font-family="Times New Roman,serif" font-size="14.00" fill="#999999">put [1]</text>
<text text-anchor="middle" x="622.5" y="-90.8" font-family="Times New Roman,serif" font-size="14.00" fill="#999999">ckpt: 2</text>
</g>
<!-- g/0 -->
<g id="node17" class="node"><title>g/0</title>
<g id="a_node17"><a xlink:href="g/0" xlink:title="0">
<ellipse fill="#fafafa" stroke="#999999" cx="675" cy="-163" rx="27" ry="18"/>
<text text-anchor="middle" x="675" y="-159.3" font-family="Times New Roman,serif" font-size="14.00" fill="#999999">0</text>
</a>
</g>
</g>
<!-- g/matrix2&#45;&gt;g/0 -->
<g id="edge3" class="edge"><title>g/matrix2&#45;&gt;g/0</title>
<path fill="none" stroke="#999999" d="M622.996,-56.5912C631.036,-63.2847 639.842,-71.7816 646,-81 656.958,-97.4031 664.328,-118.44 668.896,-134.964"/>
<polygon fill="#999999" stroke="#999999" points="665.617,-136.266 671.502,-145.076 672.396,-134.519 665.617,-136.266"/>
<text text-anchor="middle" x="683.5" y="-105.8" font-family="Times New Roman,serif" font-size="14.00" fill="#999999">put [2]</text>
<text text-anchor="middle" x="683.5" y="-90.8" font-family="Times New Roman,serif" font-size="14.00" fill="#999999">ckpt: 2</text>
</g>
<!-- g/2 -->
<g id="node18" class="node"><title>g/2</title>
<g id="a_node18"><a xlink:href="g/2" xlink:title="2">
<ellipse fill="#fafafa" stroke="#999999" cx="747" cy="-163" rx="27" ry="18"/>
<text text-anchor="middle" x="747" y="-159.3" font-family="Times New Roman,serif" font-size="14.00" fill="#999999">2</text>
</a>
</g>
</g>
<!-- g/matrix2&#45;&gt;g/2 -->
<g id="edge1" class="edge"><title>g/matrix2&#45;&gt;g/2</title>
<path fill="none" stroke="#999999" d="M637.801,-48.1964C659.83,-53.6441 687.696,-63.5345 707,-81 723.041,-95.5135 733.409,-117.901 739.559,-135.465"/>
<polygon fill="#999999" stroke="#999999" points="736.288,-136.722 742.705,-145.153 742.946,-134.561 736.288,-136.722"/>
<text text-anchor="middle" x="752.5" y="-105.8" font-family="Times New Roman,serif" font-size="14.00" fill="#999999">put [0]</text>
<text text-anchor="middle" x="752.5" y="-90.8" font-family="Times New Roman,serif" font-size="14.00" fill="#999999">ckpt: 2</text>
</g>
</g>
</svg>
