<?xml version="1.0" encoding="UTF-8" standalone="no"?>
<!DOCTYPE svg PUBLIC "-//W3C//DTD SVG 1.1//EN"
 "http://www.w3.org/Graphics/SVG/1.1/DTD/svg11.dtd">
<!-- Generated by graphviz version 2.38.0 (20140413.2041)
 -->
<!-- Title: PROV Pages: 1 -->
<svg width="1135pt" height="430pt"
 viewBox="0.00 0.00 1135.23 430.00" xmlns="http://www.w3.org/2000/svg" xmlns:xlink="http://www.w3.org/1999/xlink">
<g id="graph0" class="graph" transform="scale(1 1) rotate(0) translate(4 426)">
<title>PROV</title>
<polygon fill="white" stroke="none" points="-4,4 -4,-426 1131.23,-426 1131.23,4 -4,4"/>
<!-- http://example.org/dist_ak#2 -->
<g id="node1" class="node"><title>http://example.org/dist_ak#2</title>
<g id="a_node1"><a xlink:href="http://example.org/dist_ak#2" xlink:title="dist_ak#2">
<ellipse fill="#fffc87" stroke="#808080" cx="495.491" cy="-260" rx="46.2923" ry="18"/>
<text text-anchor="middle" x="495.491" y="-256.3" font-family="Times New Roman,serif" font-size="14.00">dist_ak#2</text>
</a>
</g>
</g>
<!-- http://example.org/list10 -->
<g id="node3" class="node"><title>http://example.org/list10</title>
<ellipse fill="none" stroke="black" cx="97.4913" cy="-332" rx="97.4827" ry="18"/>
<text text-anchor="middle" x="97.4913" y="-328.3" font-family="Times New Roman,serif" font-size="14.00">http://example.org/list10</text>
</g>
<!-- http://example.org/dist_ak#2&#45;&gt;http://example.org/list10 -->
<g id="edge2" class="edge"><title>http://example.org/dist_ak#2&#45;&gt;http://example.org/list10</title>
<path fill="none" stroke="black" d="M454.397,-268.228C388.744,-279.775 259.094,-302.577 175.451,-317.289"/>
<polygon fill="black" stroke="black" points="174.729,-313.862 165.486,-319.041 175.941,-320.756 174.729,-313.862"/>
<text text-anchor="middle" x="449.261" y="-280.421" font-family="Times New Roman,serif" font-size="8.00">[ ]</text>
</g>
<!-- http://example.org/list11 -->
<g id="node4" class="node"><title>http://example.org/list11</title>
<ellipse fill="none" stroke="black" cx="523.491" cy="-332" rx="97.4827" ry="18"/>
<text text-anchor="middle" x="523.491" y="-328.3" font-family="Times New Roman,serif" font-size="14.00">http://example.org/list11</text>
</g>
<!-- http://example.org/dist_ak#2&#45;&gt;http://example.org/list11 -->
<g id="edge3" class="edge"><title>http://example.org/dist_ak#2&#45;&gt;http://example.org/list11</title>
<path fill="none" stroke="black" d="M502.269,-277.945C505.421,-285.824 509.245,-295.383 512.774,-304.206"/>
<polygon fill="black" stroke="black" points="509.618,-305.74 516.581,-313.725 516.117,-303.14 509.618,-305.74"/>
<text text-anchor="middle" x="517.116" y="-278.184" font-family="Times New Roman,serif" font-size="8.00">[ ]</text>
</g>
<!-- http://example.org/list12 -->
<g id="node5" class="node"><title>http://example.org/list12</title>
<ellipse fill="none" stroke="black" cx="310.491" cy="-332" rx="97.4827" ry="18"/>
<text text-anchor="middle" x="310.491" y="-328.3" font-family="Times New Roman,serif" font-size="14.00">http://example.org/list12</text>
</g>
<!-- http://example.org/dist_ak#2&#45;&gt;http://example.org/list12 -->
<g id="edge4" class="edge"><title>http://example.org/dist_ak#2&#45;&gt;http://example.org/list12</title>
<path fill="none" stroke="black" d="M463.267,-273.193C435,-283.889 393.433,-299.617 360.79,-311.968"/>
<polygon fill="black" stroke="black" points="359.52,-308.707 351.405,-315.519 361.997,-315.254 359.52,-308.707"/>
<text text-anchor="middle" x="460.849" y="-286.097" font-family="Times New Roman,serif" font-size="8.00">[ ]</text>
</g>
<!-- http://example.org/access46 -->
<g id="node6" class="node"><title>http://example.org/access46</title>
<g id="a_node6"><a xlink:href="http://example.org/access46" xlink:title="access46">
<polygon fill="#9fb1fc" stroke="#0000ff" points="814.491,-350 746.491,-350 746.491,-314 814.491,-314 814.491,-350"/>
<text text-anchor="middle" x="780.491" y="-328.3" font-family="Times New Roman,serif" font-size="14.00">access46</text>
</a>
</g>
</g>
<!-- http://example.org/dist_ak#2&#45;&gt;http://example.org/access46 -->
<g id="edge8" class="edge"><title>http://example.org/dist_ak#2&#45;&gt;http://example.org/access46</title>
<path fill="none" stroke="black" d="M533.632,-270.368C586.179,-283.274 680.637,-306.474 736.231,-320.129"/>
<polygon fill="black" stroke="black" points="735.594,-323.577 746.14,-322.563 737.264,-316.779 735.594,-323.577"/>
<text text-anchor="middle" x="544.014" y="-257.641" font-family="Times New Roman,serif" font-size="8.00">gen</text>
</g>
<!-- http://example.org/list1 -->
<g id="node8" class="node"><title>http://example.org/list1</title>
<ellipse fill="none" stroke="black" cx="612.491" cy="-404" rx="92.8835" ry="18"/>
<text text-anchor="middle" x="612.491" y="-400.3" font-family="Times New Roman,serif" font-size="14.00">http://example.org/list1</text>
</g>
<!-- http://example.org/dist_ak#2&#45;&gt;http://example.org/list1 -->
<g id="edge7" class="edge"><title>http://example.org/dist_ak#2&#45;&gt;http://example.org/list1</title>
<path fill="none" stroke="black" d="M539.336,-265.631C570.199,-271.436 609.448,-284.518 629.491,-314 642.069,-332.5 635.426,-357.911 627.036,-376.846"/>
<polygon fill="black" stroke="black" points="623.772,-375.558 622.582,-386.086 630.077,-378.598 623.772,-375.558"/>
<text text-anchor="middle" x="549.32" y="-252.536" font-family="Times New Roman,serif" font-size="8.00">der</text>
</g>
<!-- &#45;attrs0 -->
<g id="node2" class="node"><title>&#45;attrs0</title>
<polygon fill="none" stroke="gray" points="532.991,-206 435.991,-206 435.991,-157 538.991,-157 538.991,-200 532.991,-206"/>
<polyline fill="none" stroke="gray" points="532.991,-206 532.991,-200 "/>
<polyline fill="none" stroke="gray" points="538.991,-200 532.991,-200 "/>
<text text-anchor="start" x="446.491" y="-191.5" font-family="Times New Roman,serif" font-size="10.00">value:</text>
<text text-anchor="start" x="473.491" y="-191.5" font-family="Times New Roman,serif" font-size="10.00">&quot;[10000, 0, 2]&quot;</text>
<text text-anchor="start" x="446.491" y="-178.5" font-family="Times New Roman,serif" font-size="10.00">type:</text>
<text text-anchor="start" x="473.491" y="-178.5" font-family="Times New Roman,serif" font-size="10.00">&quot;access&quot;</text>
<text text-anchor="start" x="446.491" y="-165.5" font-family="Times New Roman,serif" font-size="10.00">label:</text>
<text text-anchor="start" x="473.491" y="-165.5" font-family="Times New Roman,serif" font-size="10.00">&quot;dist[k]&quot;</text>
</g>
<!-- &#45;attrs0&#45;&gt;http://example.org/dist_ak#2 -->
<g id="edge1" class="edge"><title>&#45;attrs0&#45;&gt;http://example.org/dist_ak#2</title>
<path fill="none" stroke="gray" stroke-dasharray="5,2" d="M489.979,-206.286C491.171,-217.69 492.574,-231.105 493.666,-241.548"/>
</g>
<!-- http://example.org/access46&#45;&gt;http://example.org/list1 -->
<g id="edge6" class="edge"><title>http://example.org/access46&#45;&gt;http://example.org/list1</title>
<path fill="none" stroke="black" d="M746.089,-347.334C721.014,-357.782 686.753,-372.058 659.204,-383.536"/>
<polygon fill="black" stroke="black" points="657.651,-380.392 649.766,-387.469 660.343,-386.853 657.651,-380.392"/>
<text text-anchor="middle" x="744.162" y="-360.31" font-family="Times New Roman,serif" font-size="8.00">use</text>
</g>
<!-- http://example.org/dist#2 -->
<g id="node9" class="node"><title>http://example.org/dist#2</title>
<ellipse fill="none" stroke="black" cx="1026.49" cy="-404" rx="100.983" ry="18"/>
<text text-anchor="middle" x="1026.49" y="-400.3" font-family="Times New Roman,serif" font-size="14.00">http://example.org/dist#2</text>
</g>
<!-- http://example.org/access46&#45;&gt;http://example.org/dist#2 -->
<g id="edge9" class="edge"><title>http://example.org/access46&#45;&gt;http://example.org/dist#2</title>
<path fill="none" stroke="black" d="M814.697,-342.733C853.521,-353.781 917.619,-372.02 965.149,-385.545"/>
<polygon fill="black" stroke="black" points="964.449,-388.984 975.025,-388.355 966.364,-382.252 964.449,-388.984"/>
<text text-anchor="middle" x="825.466" y="-330.391" font-family="Times New Roman,serif" font-size="8.00">use</text>
</g>
<!-- http://example.org/k#2 -->
<g id="node10" class="node"><title>http://example.org/k#2</title>
<ellipse fill="none" stroke="black" cx="815.491" cy="-404" rx="92.0841" ry="18"/>
<text text-anchor="middle" x="815.491" y="-400.3" font-family="Times New Roman,serif" font-size="14.00">http://example.org/k#2</text>
</g>
<!-- http://example.org/access46&#45;&gt;http://example.org/k#2 -->
<g id="edge10" class="edge"><title>http://example.org/access46&#45;&gt;http://example.org/k#2</title>
<path fill="none" stroke="black" d="M789.143,-350.303C793.127,-358.272 797.942,-367.9 802.359,-376.736"/>
<polygon fill="black" stroke="black" points="799.336,-378.517 806.939,-385.896 805.597,-375.386 799.336,-378.517"/>
<text text-anchor="middle" x="804.116" y="-349.302" font-family="Times New Roman,serif" font-size="8.00">use</text>
</g>
<!-- &#45;attrs1 -->
<g id="node7" class="node"><title>&#45;attrs1</title>
<polygon fill="none" stroke="gray" points="814.491,-278 740.491,-278 740.491,-242 820.491,-242 820.491,-272 814.491,-278"/>
<polyline fill="none" stroke="gray" points="814.491,-278 814.491,-272 "/>
<polyline fill="none" stroke="gray" points="820.491,-272 814.491,-272 "/>
<text text-anchor="start" x="750.491" y="-257" font-family="Times New Roman,serif" font-size="10.00">type:</text>
<text text-anchor="start" x="773.491" y="-257" font-family="Times New Roman,serif" font-size="10.00">&quot;access&quot;</text>
</g>
<!-- &#45;attrs1&#45;&gt;http://example.org/access46 -->
<g id="edge5" class="edge"><title>&#45;attrs1&#45;&gt;http://example.org/access46</title>
<path fill="none" stroke="gray" stroke-dasharray="5,2" d="M780.491,-278.303C780.491,-289.154 780.491,-303.083 780.491,-313.896"/>
</g>
<!-- http://example.org/distk#2 -->
<g id="node11" class="node"><title>http://example.org/distk#2</title>
<g id="a_node11"><a xlink:href="http://example.org/distk#2" xlink:title="distk#2">
<ellipse fill="#fffc87" stroke="#808080" cx="369.491" cy="-103" rx="37.8943" ry="18"/>
<text text-anchor="middle" x="369.491" y="-99.3" font-family="Times New Roman,serif" font-size="14.00">distk#2</text>
</a>
</g>
</g>
<!-- http://example.org/distk#2&#45;&gt;http://example.org/dist_ak#2 -->
<g id="edge17" class="edge"><title>http://example.org/distk#2&#45;&gt;http://example.org/dist_ak#2</title>
<path fill="none" stroke="black" d="M376.345,-120.84C385.581,-142.201 403.544,-179.448 426.491,-206 437.084,-218.257 450.912,-229.546 463.405,-238.528"/>
<polygon fill="black" stroke="black" points="461.577,-241.52 471.785,-244.36 465.576,-235.775 461.577,-241.52"/>
<text text-anchor="middle" x="391.258" y="-120.553" font-family="Times New Roman,serif" font-size="8.00">der</text>
</g>
<!-- http://example.org/distk#2&#45;&gt;http://example.org/list10 -->
<g id="edge12" class="edge"><title>http://example.org/distk#2&#45;&gt;http://example.org/list10</title>
<path fill="none" stroke="black" d="M351.645,-118.894C305.346,-157.533 181.116,-261.21 125.309,-307.785"/>
<polygon fill="black" stroke="black" points="123.024,-305.133 117.589,-314.227 127.509,-310.507 123.024,-305.133"/>
<text text-anchor="middle" x="354.21" y="-131.773" font-family="Times New Roman,serif" font-size="8.00">[ ]</text>
</g>
<!-- http://example.org/distk#2&#45;&gt;http://example.org/list11 -->
<g id="edge13" class="edge"><title>http://example.org/distk#2&#45;&gt;http://example.org/list11</title>
<path fill="none" stroke="black" d="M371.163,-121.216C373.637,-142.003 379.357,-177.695 391.491,-206 406.743,-241.576 412.723,-251.033 440.491,-278 452.984,-290.133 468.676,-301.001 483.043,-309.691"/>
<polygon fill="black" stroke="black" points="481.38,-312.773 491.777,-314.811 484.92,-306.734 481.38,-312.773"/>
<text text-anchor="middle" x="384.992" y="-125.126" font-family="Times New Roman,serif" font-size="8.00">[ ]</text>
</g>
<!-- http://example.org/distk#2&#45;&gt;http://example.org/list12 -->
<g id="edge14" class="edge"><title>http://example.org/distk#2&#45;&gt;http://example.org/list12</title>
<path fill="none" stroke="black" d="M364.929,-121.18C362.181,-131.55 358.62,-145.03 355.491,-157 341.905,-208.98 326.237,-269.753 317.434,-303.975"/>
<polygon fill="black" stroke="black" points="314.033,-303.148 314.933,-313.705 320.813,-304.891 314.033,-303.148"/>
<text text-anchor="middle" x="375.566" y="-129.856" font-family="Times New Roman,serif" font-size="8.00">[ ]</text>
</g>
<!-- http://example.org/assign20 -->
<g id="node13" class="node"><title>http://example.org/assign20</title>
<g id="a_node13"><a xlink:href="http://example.org/assign20" xlink:title="assign20">
<polygon fill="#9fb1fc" stroke="#0000ff" points="621.991,-199.5 556.991,-199.5 556.991,-163.5 621.991,-163.5 621.991,-199.5"/>
<text text-anchor="middle" x="589.491" y="-177.8" font-family="Times New Roman,serif" font-size="14.00">assign20</text>
</a>
</g>
</g>
<!-- http://example.org/distk#2&#45;&gt;http://example.org/assign20 -->
<g id="edge18" class="edge"><title>http://example.org/distk#2&#45;&gt;http://example.org/assign20</title>
<path fill="none" stroke="black" d="M402.73,-111.561C439.068,-120.359 498.633,-136.357 547.491,-157 548.886,-157.589 550.294,-158.213 551.707,-158.863"/>
<polygon fill="black" stroke="black" points="550.478,-162.161 560.993,-163.457 553.582,-155.886 550.478,-162.161"/>
<text text-anchor="middle" x="413.123" y="-98.8449" font-family="Times New Roman,serif" font-size="8.00">gen</text>
</g>
<!-- &#45;attrs2 -->
<g id="node12" class="node"><title>&#45;attrs2</title>
<polygon fill="none" stroke="gray" points="414.991,-49 317.991,-49 317.991,-0 420.991,-0 420.991,-43 414.991,-49"/>
<polyline fill="none" stroke="gray" points="414.991,-49 414.991,-43 "/>
<polyline fill="none" stroke="gray" points="420.991,-43 414.991,-43 "/>
<text text-anchor="start" x="328.491" y="-34.5" font-family="Times New Roman,serif" font-size="10.00">value:</text>
<text text-anchor="start" x="355.491" y="-34.5" font-family="Times New Roman,serif" font-size="10.00">&quot;[10000, 0, 2]&quot;</text>
<text text-anchor="start" x="328.491" y="-21.5" font-family="Times New Roman,serif" font-size="10.00">type:</text>
<text text-anchor="start" x="355.491" y="-21.5" font-family="Times New Roman,serif" font-size="10.00">&quot;name&quot;</text>
<text text-anchor="start" x="328.491" y="-8.5" font-family="Times New Roman,serif" font-size="10.00">label:</text>
<text text-anchor="start" x="355.491" y="-8.5" font-family="Times New Roman,serif" font-size="10.00">&quot;distk&quot;</text>
</g>
<!-- &#45;attrs2&#45;&gt;http://example.org/distk#2 -->
<g id="edge11" class="edge"><title>&#45;attrs2&#45;&gt;http://example.org/distk#2</title>
<path fill="none" stroke="gray" stroke-dasharray="5,2" d="M369.491,-49.2857C369.491,-60.6896 369.491,-74.105 369.491,-84.5482"/>
</g>
<!-- http://example.org/assign20&#45;&gt;http://example.org/dist_ak#2 -->
<g id="edge16" class="edge"><title>http://example.org/assign20&#45;&gt;http://example.org/dist_ak#2</title>
<path fill="none" stroke="black" d="M568.161,-199.859C554.668,-210.841 537.102,-225.136 522.621,-236.921"/>
<polygon fill="black" stroke="black" points="520.052,-234.499 514.505,-243.526 524.47,-239.929 520.052,-234.499"/>
<text text-anchor="middle" x="570.544" y="-212.769" font-family="Times New Roman,serif" font-size="8.00">use</text>
</g>
<!-- &#45;attrs3 -->
<g id="node14" class="node"><title>&#45;attrs3</title>
<polygon fill="none" stroke="gray" points="622.991,-121 549.991,-121 549.991,-85 628.991,-85 628.991,-115 622.991,-121"/>
<polyline fill="none" stroke="gray" points="622.991,-121 622.991,-115 "/>
<polyline fill="none" stroke="gray" points="628.991,-115 622.991,-115 "/>
<text text-anchor="start" x="560.491" y="-100" font-family="Times New Roman,serif" font-size="10.00">type:</text>
<text text-anchor="start" x="583.491" y="-100" font-family="Times New Roman,serif" font-size="10.00">&quot;assign&quot;</text>
</g>
<!-- &#45;attrs3&#45;&gt;http://example.org/assign20 -->
<g id="edge15" class="edge"><title>&#45;attrs3&#45;&gt;http://example.org/assign20</title>
<path fill="none" stroke="gray" stroke-dasharray="5,2" d="M589.491,-121.359C589.491,-133.967 589.491,-150.943 589.491,-163.473"/>
</g>
</g>
</svg>
