<?xml version="1.0" encoding="UTF-8" standalone="no"?>
<!DOCTYPE svg PUBLIC "-//W3C//DTD SVG 1.1//EN"
 "http://www.w3.org/Graphics/SVG/1.1/DTD/svg11.dtd">
<!-- Generated by graphviz version 2.38.0 (20140413.2041)
 -->
<!-- Title: PROV Pages: 1 -->
<svg width="623pt" height="273pt"
 viewBox="0.00 0.00 623.18 273.00" xmlns="http://www.w3.org/2000/svg" xmlns:xlink="http://www.w3.org/1999/xlink">
<g id="graph0" class="graph" transform="scale(1 1) rotate(0) translate(4 269)">
<title>PROV</title>
<polygon fill="white" stroke="none" points="-4,4 -4,-269 619.183,-269 619.183,4 -4,4"/>
<!-- http://example.org/disti_aj#4 -->
<g id="node1" class="node"><title>http://example.org/disti_aj#4</title>
<g id="a_node1"><a xlink:href="http://example.org/disti_aj#4" xlink:title="disti_aj#4">
<ellipse fill="#fffc87" stroke="#808080" cx="139.491" cy="-103" rx="46.2923" ry="18"/>
<text text-anchor="middle" x="139.491" y="-99.3" font-family="Times New Roman,serif" font-size="14.00">disti_aj#4</text>
</a>
</g>
</g>
<!-- http://example.org/access22 -->
<g id="node3" class="node"><title>http://example.org/access22</title>
<g id="a_node3"><a xlink:href="http://example.org/access22" xlink:title="access22">
<polygon fill="#9fb1fc" stroke="#0000ff" points="334.491,-193 266.491,-193 266.491,-157 334.491,-157 334.491,-193"/>
<text text-anchor="middle" x="300.491" y="-171.3" font-family="Times New Roman,serif" font-size="14.00">access22</text>
</a>
</g>
</g>
<!-- http://example.org/disti_aj#4&#45;&gt;http://example.org/access22 -->
<g id="edge5" class="edge"><title>http://example.org/disti_aj#4&#45;&gt;http://example.org/access22</title>
<path fill="none" stroke="black" d="M169.021,-116.839C193.626,-127.537 229.024,-142.927 256.893,-155.044"/>
<polygon fill="black" stroke="black" points="255.84,-158.403 266.406,-159.18 258.631,-151.983 255.84,-158.403"/>
<text text-anchor="middle" x="181.079" y="-106.016" font-family="Times New Roman,serif" font-size="8.00">gen</text>
</g>
<!-- http://example.org/list10 -->
<g id="node5" class="node"><title>http://example.org/list10</title>
<ellipse fill="none" stroke="black" cx="97.4913" cy="-247" rx="97.4827" ry="18"/>
<text text-anchor="middle" x="97.4913" y="-243.3" font-family="Times New Roman,serif" font-size="14.00">http://example.org/list10</text>
</g>
<!-- http://example.org/disti_aj#4&#45;&gt;http://example.org/list10 -->
<g id="edge4" class="edge"><title>http://example.org/disti_aj#4&#45;&gt;http://example.org/list10</title>
<path fill="none" stroke="black" d="M134.425,-121.129C127.236,-145.436 114.001,-190.181 105.481,-218.987"/>
<polygon fill="black" stroke="black" points="102.056,-218.229 102.575,-228.811 108.768,-220.214 102.056,-218.229"/>
<text text-anchor="middle" x="144.755" y="-130.105" font-family="Times New Roman,serif" font-size="8.00">der</text>
</g>
<!-- &#45;attrs0 -->
<g id="node2" class="node"><title>&#45;attrs0</title>
<polygon fill="none" stroke="gray" points="175.491,-49 97.4913,-49 97.4913,-0 181.491,-0 181.491,-43 175.491,-49"/>
<polyline fill="none" stroke="gray" points="175.491,-49 175.491,-43 "/>
<polyline fill="none" stroke="gray" points="181.491,-43 175.491,-43 "/>
<text text-anchor="start" x="107.491" y="-34.5" font-family="Times New Roman,serif" font-size="10.00">value:</text>
<text text-anchor="start" x="134.491" y="-34.5" font-family="Times New Roman,serif" font-size="10.00">&quot;10000&quot;</text>
<text text-anchor="start" x="107.491" y="-21.5" font-family="Times New Roman,serif" font-size="10.00">type:</text>
<text text-anchor="start" x="134.491" y="-21.5" font-family="Times New Roman,serif" font-size="10.00">&quot;access&quot;</text>
<text text-anchor="start" x="107.491" y="-8.5" font-family="Times New Roman,serif" font-size="10.00">label:</text>
<text text-anchor="start" x="134.491" y="-8.5" font-family="Times New Roman,serif" font-size="10.00">&quot;disti[j]&quot;</text>
</g>
<!-- &#45;attrs0&#45;&gt;http://example.org/disti_aj#4 -->
<g id="edge1" class="edge"><title>&#45;attrs0&#45;&gt;http://example.org/disti_aj#4</title>
<path fill="none" stroke="gray" stroke-dasharray="5,2" d="M139.491,-49.2857C139.491,-60.6896 139.491,-74.105 139.491,-84.5482"/>
</g>
<!-- http://example.org/access22&#45;&gt;http://example.org/list10 -->
<g id="edge3" class="edge"><title>http://example.org/access22&#45;&gt;http://example.org/list10</title>
<path fill="none" stroke="black" d="M266.055,-187.875C234.488,-198.76 187.256,-215.047 150.813,-227.613"/>
<polygon fill="black" stroke="black" points="149.633,-224.318 141.321,-230.886 151.915,-230.935 149.633,-224.318"/>
<text text-anchor="middle" x="263.2" y="-200.7" font-family="Times New Roman,serif" font-size="8.00">use</text>
</g>
<!-- http://example.org/disti#2 -->
<g id="node6" class="node"><title>http://example.org/disti#2</title>
<ellipse fill="none" stroke="black" cx="315.491" cy="-247" rx="102.882" ry="18"/>
<text text-anchor="middle" x="315.491" y="-243.3" font-family="Times New Roman,serif" font-size="14.00">http://example.org/disti#2</text>
</g>
<!-- http://example.org/access22&#45;&gt;http://example.org/disti#2 -->
<g id="edge6" class="edge"><title>http://example.org/access22&#45;&gt;http://example.org/disti#2</title>
<path fill="none" stroke="black" d="M304.199,-193.303C305.852,-201.017 307.839,-210.288 309.682,-218.888"/>
<polygon fill="black" stroke="black" points="306.308,-219.851 311.826,-228.896 313.153,-218.384 306.308,-219.851"/>
<text text-anchor="middle" x="318.473" y="-196.015" font-family="Times New Roman,serif" font-size="8.00">use</text>
</g>
<!-- http://example.org/j#4 -->
<g id="node7" class="node"><title>http://example.org/j#4</title>
<ellipse fill="none" stroke="black" cx="525.491" cy="-247" rx="89.8845" ry="18"/>
<text text-anchor="middle" x="525.491" y="-243.3" font-family="Times New Roman,serif" font-size="14.00">http://example.org/j#4</text>
</g>
<!-- http://example.org/access22&#45;&gt;http://example.org/j#4 -->
<g id="edge7" class="edge"><title>http://example.org/access22&#45;&gt;http://example.org/j#4</title>
<path fill="none" stroke="black" d="M334.664,-186.631C370.362,-197.738 426.949,-215.342 469.248,-228.502"/>
<polygon fill="black" stroke="black" points="468.268,-231.863 478.856,-231.491 470.347,-225.179 468.268,-231.863"/>
<text text-anchor="middle" x="345.684" y="-174.556" font-family="Times New Roman,serif" font-size="8.00">use</text>
</g>
<!-- &#45;attrs1 -->
<g id="node4" class="node"><title>&#45;attrs1</title>
<polygon fill="none" stroke="gray" points="334.491,-121 260.491,-121 260.491,-85 340.491,-85 340.491,-115 334.491,-121"/>
<polyline fill="none" stroke="gray" points="334.491,-121 334.491,-115 "/>
<polyline fill="none" stroke="gray" points="340.491,-115 334.491,-115 "/>
<text text-anchor="start" x="270.491" y="-100" font-family="Times New Roman,serif" font-size="10.00">type:</text>
<text text-anchor="start" x="293.491" y="-100" font-family="Times New Roman,serif" font-size="10.00">&quot;access&quot;</text>
</g>
<!-- &#45;attrs1&#45;&gt;http://example.org/access22 -->
<g id="edge2" class="edge"><title>&#45;attrs1&#45;&gt;http://example.org/access22</title>
<path fill="none" stroke="gray" stroke-dasharray="5,2" d="M300.491,-121.303C300.491,-132.154 300.491,-146.083 300.491,-156.896"/>
</g>
</g>
</svg>
