<?xml version="1.0" encoding="UTF-8" standalone="no"?>
<!DOCTYPE svg PUBLIC "-//W3C//DTD SVG 1.1//EN"
 "http://www.w3.org/Graphics/SVG/1.1/DTD/svg11.dtd">
<!-- Generated by graphviz version 2.38.0 (20140413.2041)
 -->
<!-- Title: PROV Pages: 1 -->
<svg width="821pt" height="430pt"
 viewBox="0.00 0.00 820.68 430.00" xmlns="http://www.w3.org/2000/svg" xmlns:xlink="http://www.w3.org/1999/xlink">
<g id="graph0" class="graph" transform="scale(1 1) rotate(0) translate(4 426)">
<title>PROV</title>
<polygon fill="white" stroke="none" points="-4,4 -4,-426 816.681,-426 816.681,4 -4,4"/>
<!-- http://example.org/dist_ai -->
<g id="node1" class="node"><title>http://example.org/dist_ai</title>
<g id="a_node1"><a xlink:href="http://example.org/dist_ai" xlink:title="dist_ai">
<ellipse fill="#fffc87" stroke="#808080" cx="317.84" cy="-260" rx="34.394" ry="18"/>
<text text-anchor="middle" x="317.84" y="-256.3" font-family="Times New Roman,serif" font-size="14.00">dist_ai</text>
</a>
</g>
</g>
<!-- http://example.org/matrix10 -->
<g id="node3" class="node"><title>http://example.org/matrix10</title>
<ellipse fill="none" stroke="black" cx="109.84" cy="-332" rx="109.681" ry="18"/>
<text text-anchor="middle" x="109.84" y="-328.3" font-family="Times New Roman,serif" font-size="14.00">http://example.org/matrix10</text>
</g>
<!-- http://example.org/dist_ai&#45;&gt;http://example.org/matrix10 -->
<g id="edge2" class="edge"><title>http://example.org/dist_ai&#45;&gt;http://example.org/matrix10</title>
<path fill="none" stroke="green" d="M289.355,-270.586C257.491,-281.31 205.108,-298.939 165.13,-312.393"/>
<polygon fill="green" stroke="green" points="163.874,-309.123 155.513,-315.629 166.107,-315.757 163.874,-309.123"/>
<text text-anchor="middle" x="286.39" y="-283.39" font-family="Times New Roman,serif" font-size="8.00" fill="green">[ ]</text>
</g>
<!-- http://example.org/matrix11 -->
<g id="node4" class="node"><title>http://example.org/matrix11</title>
<ellipse fill="none" stroke="black" cx="464.84" cy="-332" rx="109.681" ry="18"/>
<text text-anchor="middle" x="464.84" y="-328.3" font-family="Times New Roman,serif" font-size="14.00">http://example.org/matrix11</text>
</g>
<!-- http://example.org/dist_ai&#45;&gt;http://example.org/matrix11 -->
<g id="edge3" class="edge"><title>http://example.org/dist_ai&#45;&gt;http://example.org/matrix11</title>
<path fill="none" stroke="green" d="M342.445,-272.716C363.992,-282.977 395.799,-298.123 421.588,-310.404"/>
<polygon fill="green" stroke="green" points="420.253,-313.645 430.786,-314.784 423.263,-307.325 420.253,-313.645"/>
<text text-anchor="middle" x="354.801" y="-262.312" font-family="Times New Roman,serif" font-size="8.00" fill="green">[ ]</text>
</g>
<!-- http://example.org/matrix12 -->
<g id="node5" class="node"><title>http://example.org/matrix12</title>
<ellipse fill="none" stroke="black" cx="702.84" cy="-332" rx="109.681" ry="18"/>
<text text-anchor="middle" x="702.84" y="-328.3" font-family="Times New Roman,serif" font-size="14.00">http://example.org/matrix12</text>
</g>
<!-- http://example.org/dist_ai&#45;&gt;http://example.org/matrix12 -->
<g id="edge4" class="edge"><title>http://example.org/dist_ai&#45;&gt;http://example.org/matrix12</title>
<path fill="none" stroke="green" d="M350.003,-266.848C409.309,-277.631 537.538,-300.945 621.977,-316.298"/>
<polygon fill="green" stroke="green" points="621.584,-319.784 632.049,-318.129 622.837,-312.896 621.584,-319.784"/>
<text text-anchor="middle" x="359.706" y="-253.509" font-family="Times New Roman,serif" font-size="8.00" fill="green">[ ]</text>
</g>
<!-- http://example.org/access5 -->
<g id="node6" class="node"><title>http://example.org/access5</title>
<g id="a_node6"><a xlink:href="http://example.org/access5" xlink:title="access5">
<polygon fill="#fafafa" stroke="#f0f0f0" points="337.34,-350 276.34,-350 276.34,-314 337.34,-314 337.34,-350"/>
<text text-anchor="middle" x="306.84" y="-328.3" font-family="Times New Roman,serif" font-size="14.00" fill="#f0f0f0">access5</text>
</a>
</g>
</g>
<!-- http://example.org/dist_ai&#45;&gt;http://example.org/access5 -->
<g id="edge7" class="edge"><title>http://example.org/dist_ai&#45;&gt;http://example.org/access5</title>
<path fill="none" stroke="#f0f0f0" d="M315.121,-278.303C313.909,-286.017 312.452,-295.288 311.101,-303.888"/>
<polygon fill="#f0f0f0" stroke="#f0f0f0" points="307.623,-303.474 309.528,-313.896 314.538,-304.56 307.623,-303.474"/>
<text text-anchor="middle" x="326.79" y="-285.829" font-family="Times New Roman,serif" font-size="8.00" fill="#f0f0f0">gen</text>
</g>
<!-- http://example.org/matrix1 -->
<g id="node7" class="node"><title>http://example.org/matrix1</title>
<ellipse fill="none" stroke="black" cx="169.84" cy="-404" rx="105.082" ry="18"/>
<text text-anchor="middle" x="169.84" y="-400.3" font-family="Times New Roman,serif" font-size="14.00">http://example.org/matrix1</text>
</g>
<!-- http://example.org/dist_ai&#45;&gt;http://example.org/matrix1 -->
<g id="edge6" class="edge"><title>http://example.org/dist_ai&#45;&gt;http://example.org/matrix1</title>
<path fill="none" stroke="#f0f0f0" d="M302.966,-276.367C285.487,-294.308 255.484,-324.746 228.84,-350 218.589,-359.716 207.081,-370.156 196.968,-379.178"/>
<polygon fill="#f0f0f0" stroke="#f0f0f0" points="194.361,-376.813 189.208,-386.07 199.009,-382.047 194.361,-376.813"/>
<text text-anchor="middle" x="307.021" y="-288.908" font-family="Times New Roman,serif" font-size="8.00" fill="#f0f0f0">der</text>
</g>
<!-- &#45;attrs0 -->
<g id="node2" class="node"><title>&#45;attrs0</title>
<polygon fill="none" stroke="gray" points="288.84,-206 200.84,-206 200.84,-157 294.84,-157 294.84,-200 288.84,-206"/>
<polyline fill="none" stroke="gray" points="288.84,-206 288.84,-200 "/>
<polyline fill="none" stroke="gray" points="294.84,-200 288.84,-200 "/>
<text text-anchor="start" x="210.84" y="-191.5" font-family="Times New Roman,serif" font-size="10.00">value:</text>
<text text-anchor="start" x="237.84" y="-191.5" font-family="Times New Roman,serif" font-size="10.00">[10000, 0, 2]</text>
<text text-anchor="start" x="210.84" y="-178.5" font-family="Times New Roman,serif" font-size="10.00">type:</text>
<text text-anchor="start" x="237.84" y="-178.5" font-family="Times New Roman,serif" font-size="10.00">access</text>
<text text-anchor="start" x="210.84" y="-165.5" font-family="Times New Roman,serif" font-size="10.00">label:</text>
<text text-anchor="start" x="237.84" y="-165.5" font-family="Times New Roman,serif" font-size="10.00">dist[i]</text>
</g>
<!-- &#45;attrs0&#45;&gt;http://example.org/dist_ai -->
<g id="edge1" class="edge"><title>&#45;attrs0&#45;&gt;http://example.org/dist_ai</title>
<path fill="none" stroke="gray" stroke-dasharray="5,2" d="M269.605,-206.286C280.682,-218.391 293.833,-232.764 303.604,-243.441"/>
</g>
<!-- http://example.org/access5&#45;&gt;http://example.org/matrix1 -->
<g id="edge5" class="edge"><title>http://example.org/access5&#45;&gt;http://example.org/matrix1</title>
<path fill="none" stroke="#f0f0f0" d="M276.095,-348.709C256.853,-358.541 231.831,-371.326 210.902,-382.019"/>
<polygon fill="#f0f0f0" stroke="#f0f0f0" points="209.224,-378.946 201.912,-386.613 212.409,-385.18 209.224,-378.946"/>
<text text-anchor="middle" x="275.327" y="-361.79" font-family="Times New Roman,serif" font-size="8.00" fill="#f0f0f0">use</text>
</g>
<!-- http://example.org/dist -->
<g id="node8" class="node"><title>http://example.org/dist</title>
<ellipse fill="none" stroke="black" cx="384.84" cy="-404" rx="91.784" ry="18"/>
<text text-anchor="middle" x="384.84" y="-400.3" font-family="Times New Roman,serif" font-size="14.00">http://example.org/dist</text>
</g>
<!-- http://example.org/access5&#45;&gt;http://example.org/dist -->
<g id="edge8" class="edge"><title>http://example.org/access5&#45;&gt;http://example.org/dist</title>
<path fill="none" stroke="#f0f0f0" d="M326.121,-350.303C335.828,-359.014 347.745,-369.71 358.302,-379.184"/>
<polygon fill="#f0f0f0" stroke="#f0f0f0" points="356.27,-382.063 366.05,-386.137 360.946,-376.853 356.27,-382.063"/>
<text text-anchor="middle" x="340.379" y="-343.745" font-family="Times New Roman,serif" font-size="8.00" fill="#f0f0f0">use</text>
</g>
<!-- http://example.org/i#2 -->
<g id="node9" class="node"><title>http://example.org/i#2</title>
<ellipse fill="none" stroke="black" cx="583.84" cy="-404" rx="89.8845" ry="18"/>
<text text-anchor="middle" x="583.84" y="-400.3" font-family="Times New Roman,serif" font-size="14.00">http://example.org/i#2</text>
</g>
<!-- http://example.org/access5&#45;&gt;http://example.org/i#2 -->
<g id="edge9" class="edge"><title>http://example.org/access5&#45;&gt;http://example.org/i#2</title>
<path fill="none" stroke="#f0f0f0" d="M337.712,-347.095C340.436,-348.144 343.172,-349.13 345.84,-350 399.009,-367.33 460.68,-380.888 507.921,-389.951"/>
<polygon fill="#f0f0f0" stroke="#f0f0f0" points="507.298,-393.396 517.775,-391.817 508.6,-386.518 507.298,-393.396"/>
<text text-anchor="middle" x="349.358" y="-335.742" font-family="Times New Roman,serif" font-size="8.00" fill="#f0f0f0">use</text>
</g>
<!-- http://example.org/disti -->
<g id="node10" class="node"><title>http://example.org/disti</title>
<g id="a_node10"><a xlink:href="http://example.org/disti" xlink:title="disti">
<ellipse fill="#fffc87" stroke="#808080" cx="379.84" cy="-103" rx="27" ry="18"/>
<text text-anchor="middle" x="379.84" y="-99.3" font-family="Times New Roman,serif" font-size="14.00">disti</text>
</a>
</g>
</g>
<!-- http://example.org/disti&#45;&gt;http://example.org/dist_ai -->
<g id="edge15" class="edge"><title>http://example.org/disti&#45;&gt;http://example.org/dist_ai</title>
<path fill="none" stroke="#f0f0f0" d="M366.819,-118.778C358.537,-128.9 348.211,-142.982 341.84,-157 330.894,-181.086 324.639,-210.724 321.278,-231.832"/>
<polygon fill="#f0f0f0" stroke="#f0f0f0" points="317.815,-231.328 319.814,-241.733 324.739,-232.353 317.815,-231.328"/>
<text text-anchor="middle" x="372.227" y="-130.869" font-family="Times New Roman,serif" font-size="8.00" fill="#f0f0f0">der</text>
</g>
<!-- http://example.org/disti&#45;&gt;http://example.org/matrix10 -->
<g id="edge11" class="edge"><title>http://example.org/disti&#45;&gt;http://example.org/matrix10</title>
<path fill="none" stroke="green" d="M352.948,-104.769C313.267,-107.266 238.683,-117.337 191.84,-157 146.181,-195.661 124.269,-265.428 115.228,-303.829"/>
<polygon fill="green" stroke="green" points="111.77,-303.254 113.01,-313.776 118.602,-304.777 111.77,-303.254"/>
<text text-anchor="middle" x="346.474" y="-116.399" font-family="Times New Roman,serif" font-size="8.00" fill="green">[ ]</text>
</g>
<!-- http://example.org/disti&#45;&gt;http://example.org/matrix11 -->
<g id="edge12" class="edge"><title>http://example.org/disti&#45;&gt;http://example.org/matrix11</title>
<path fill="none" stroke="green" d="M392.711,-118.848C400.929,-128.999 411.241,-143.088 417.84,-157 441.175,-206.192 454.502,-268.897 460.645,-304.021"/>
<polygon fill="green" stroke="green" points="457.212,-304.71 462.324,-313.99 464.115,-303.548 457.212,-304.71"/>
<text text-anchor="middle" x="407.542" y="-114.705" font-family="Times New Roman,serif" font-size="8.00" fill="green">[ ]</text>
</g>
<!-- http://example.org/disti&#45;&gt;http://example.org/matrix12 -->
<g id="edge13" class="edge"><title>http://example.org/disti&#45;&gt;http://example.org/matrix12</title>
<path fill="none" stroke="green" d="M397.666,-116.528C449.94,-153.265 603.375,-261.097 670.629,-308.362"/>
<polygon fill="green" stroke="green" points="668.956,-311.464 679.15,-314.351 672.981,-305.737 668.956,-311.464"/>
<text text-anchor="middle" x="411.272" y="-108.312" font-family="Times New Roman,serif" font-size="8.00" fill="green">[ ]</text>
</g>
<!-- http://example.org/assign8 -->
<g id="node12" class="node"><title>http://example.org/assign8</title>
<g id="a_node12"><a xlink:href="http://example.org/assign8" xlink:title="assign8">
<polygon fill="#fafafa" stroke="#f0f0f0" points="408.84,-199.5 350.84,-199.5 350.84,-163.5 408.84,-163.5 408.84,-199.5"/>
<text text-anchor="middle" x="379.84" y="-177.8" font-family="Times New Roman,serif" font-size="14.00" fill="#f0f0f0">assign8</text>
</a>
</g>
</g>
<!-- http://example.org/disti&#45;&gt;http://example.org/assign8 -->
<g id="edge16" class="edge"><title>http://example.org/disti&#45;&gt;http://example.org/assign8</title>
<path fill="none" stroke="#f0f0f0" d="M379.84,-121.359C379.84,-130.815 379.84,-142.728 379.84,-153.38"/>
<polygon fill="#f0f0f0" stroke="#f0f0f0" points="376.34,-153.473 379.84,-163.473 383.34,-153.473 376.34,-153.473"/>
<text text-anchor="middle" x="392.831" y="-126.959" font-family="Times New Roman,serif" font-size="8.00" fill="#f0f0f0">gen</text>
</g>
<!-- &#45;attrs1 -->
<g id="node11" class="node"><title>&#45;attrs1</title>
<polygon fill="none" stroke="gray" points="420.84,-49 332.84,-49 332.84,-0 426.84,-0 426.84,-43 420.84,-49"/>
<polyline fill="none" stroke="gray" points="420.84,-49 420.84,-43 "/>
<polyline fill="none" stroke="gray" points="426.84,-43 420.84,-43 "/>
<text text-anchor="start" x="342.84" y="-34.5" font-family="Times New Roman,serif" font-size="10.00">value:</text>
<text text-anchor="start" x="369.84" y="-34.5" font-family="Times New Roman,serif" font-size="10.00">[10000, 0, 2]</text>
<text text-anchor="start" x="342.84" y="-21.5" font-family="Times New Roman,serif" font-size="10.00">type:</text>
<text text-anchor="start" x="369.84" y="-21.5" font-family="Times New Roman,serif" font-size="10.00">name</text>
<text text-anchor="start" x="342.84" y="-8.5" font-family="Times New Roman,serif" font-size="10.00">label:</text>
<text text-anchor="start" x="369.84" y="-8.5" font-family="Times New Roman,serif" font-size="10.00">disti</text>
</g>
<!-- &#45;attrs1&#45;&gt;http://example.org/disti -->
<g id="edge10" class="edge"><title>&#45;attrs1&#45;&gt;http://example.org/disti</title>
<path fill="none" stroke="gray" stroke-dasharray="5,2" d="M379.84,-49.2857C379.84,-60.6896 379.84,-74.105 379.84,-84.5482"/>
</g>
<!-- http://example.org/assign8&#45;&gt;http://example.org/dist_ai -->
<g id="edge14" class="edge"><title>http://example.org/assign8&#45;&gt;http://example.org/dist_ai</title>
<path fill="none" stroke="#f0f0f0" d="M365.771,-199.859C357.262,-210.359 346.296,-223.889 337.002,-235.357"/>
<polygon fill="#f0f0f0" stroke="#f0f0f0" points="334.165,-233.298 330.588,-243.271 339.604,-237.706 334.165,-233.298"/>
<text text-anchor="middle" x="371.141" y="-211.965" font-family="Times New Roman,serif" font-size="8.00" fill="#f0f0f0">use</text>
</g>
</g>
</svg>
