<?xml version="1.0" encoding="UTF-8" standalone="no"?>
<!DOCTYPE svg PUBLIC "-//W3C//DTD SVG 1.1//EN"
 "http://www.w3.org/Graphics/SVG/1.1/DTD/svg11.dtd">
<!-- Generated by graphviz version 2.38.0 (20140413.2041)
 -->
<!-- Title: PROV Pages: 1 -->
<svg width="1152pt" height="379pt"
 viewBox="0.00 0.00 1152.00 379.15" xmlns="http://www.w3.org/2000/svg" xmlns:xlink="http://www.w3.org/1999/xlink">
<g id="graph0" class="graph" transform="scale(0.85588 0.85588) rotate(0) translate(4 439)">
<title>PROV</title>
<polygon fill="white" stroke="none" points="-4,4 -4,-439 1341.98,-439 1341.98,4 -4,4"/>
<!-- http://example.org/disti_aj#14 -->
<g id="node1" class="node"><title>http://example.org/disti_aj#14</title>
<g id="a_node1"><a xlink:href="http://example.org/disti_aj#14" xlink:title="disti_aj#14">
<ellipse fill="#fffc87" stroke="#808080" cx="100.741" cy="-273" rx="50.0912" ry="18"/>
<text text-anchor="middle" x="100.741" y="-269.3" font-family="Times New Roman,serif" font-size="14.00">disti_aj#14</text>
</a>
</g>
</g>
<!-- http://example.org/assign25 -->
<g id="node13" class="node"><title>http://example.org/assign25</title>
<g id="a_node13"><a xlink:href="http://example.org/assign25" xlink:title="assign25">
<polygon fill="#9fb1fc" stroke="#0000ff" points="704.241,-363 639.241,-363 639.241,-327 704.241,-327 704.241,-363"/>
<text text-anchor="middle" x="671.741" y="-341.3" font-family="Times New Roman,serif" font-size="14.00">assign25</text>
</a>
</g>
</g>
<!-- http://example.org/disti_aj#14&#45;&gt;http://example.org/assign25 -->
<g id="edge17" class="edge"><title>http://example.org/disti_aj#14&#45;&gt;http://example.org/assign25</title>
<path fill="none" stroke="black" d="M138.423,-285.051C147.016,-287.279 156.148,-289.419 164.741,-291 335.158,-322.344 541.463,-336.745 629.079,-341.785"/>
<polygon fill="black" stroke="black" points="628.983,-345.285 639.165,-342.354 629.378,-338.297 628.983,-345.285"/>
<text text-anchor="middle" x="148.917" y="-272.432" font-family="Times New Roman,serif" font-size="8.00">gen</text>
</g>
<!-- http://example.org/ikj#12 -->
<g id="node15" class="node"><title>http://example.org/ikj#12</title>
<ellipse fill="none" stroke="black" cx="100.741" cy="-417" rx="100.983" ry="18"/>
<text text-anchor="middle" x="100.741" y="-413.3" font-family="Times New Roman,serif" font-size="14.00">http://example.org/ikj#12</text>
</g>
<!-- http://example.org/disti_aj#14&#45;&gt;http://example.org/ikj#12 -->
<g id="edge16" class="edge"><title>http://example.org/disti_aj#14&#45;&gt;http://example.org/ikj#12</title>
<path fill="none" stroke="black" d="M100.741,-291.129C100.741,-315.33 100.741,-359.789 100.741,-388.607"/>
<polygon fill="black" stroke="black" points="97.2412,-388.811 100.741,-398.811 104.241,-388.811 97.2412,-388.811"/>
<text text-anchor="middle" x="113.731" y="-296.729" font-family="Times New Roman,serif" font-size="8.00">der</text>
</g>
<!-- &#45;attrs0 -->
<g id="node2" class="node"><title>&#45;attrs0</title>
<polygon fill="none" stroke="gray" points="136.741,-219 58.7411,-219 58.7411,-170 142.741,-170 142.741,-213 136.741,-219"/>
<polyline fill="none" stroke="gray" points="136.741,-219 136.741,-213 "/>
<polyline fill="none" stroke="gray" points="142.741,-213 136.741,-213 "/>
<text text-anchor="start" x="68.7411" y="-204.5" font-family="Times New Roman,serif" font-size="10.00">value:</text>
<text text-anchor="start" x="95.7411" y="-204.5" font-family="Times New Roman,serif" font-size="10.00">&quot;3&quot;</text>
<text text-anchor="start" x="68.7411" y="-191.5" font-family="Times New Roman,serif" font-size="10.00">type:</text>
<text text-anchor="start" x="95.7411" y="-191.5" font-family="Times New Roman,serif" font-size="10.00">&quot;access&quot;</text>
<text text-anchor="start" x="68.7411" y="-178.5" font-family="Times New Roman,serif" font-size="10.00">label:</text>
<text text-anchor="start" x="95.7411" y="-178.5" font-family="Times New Roman,serif" font-size="10.00">&quot;disti[j]&quot;</text>
</g>
<!-- &#45;attrs0&#45;&gt;http://example.org/disti_aj#14 -->
<g id="edge1" class="edge"><title>&#45;attrs0&#45;&gt;http://example.org/disti_aj#14</title>
<path fill="none" stroke="gray" stroke-dasharray="5,2" d="M100.741,-219.286C100.741,-230.69 100.741,-244.105 100.741,-254.548"/>
</g>
<!-- http://example.org/disti#6 -->
<g id="node3" class="node"><title>http://example.org/disti#6</title>
<g id="a_node3"><a xlink:href="http://example.org/disti#6" xlink:title="disti#6">
<ellipse fill="#fffc87" stroke="#808080" cx="410.741" cy="-194.5" rx="35.194" ry="18"/>
<text text-anchor="middle" x="410.741" y="-190.8" font-family="Times New Roman,serif" font-size="14.00">disti#6</text>
</a>
</g>
</g>
<!-- http://example.org/disti#6&#45;&gt;http://example.org/disti_aj#14 -->
<g id="edge5" class="edge"><title>http://example.org/disti#6&#45;&gt;http://example.org/disti_aj#14</title>
<path fill="none" stroke="black" d="M379.231,-202.884C332.381,-213.916 241.617,-235.496 164.741,-255 159.784,-256.258 154.617,-257.592 149.463,-258.937"/>
<polygon fill="black" stroke="black" points="148.408,-255.596 139.626,-261.523 150.188,-262.366 148.408,-255.596"/>
<text text-anchor="middle" x="374.915" y="-215.349" font-family="Times New Roman,serif" font-size="8.00">[ ]</text>
</g>
<!-- http://example.org/list00 -->
<g id="node5" class="node"><title>http://example.org/list00</title>
<ellipse fill="none" stroke="black" cx="303.741" cy="-273" rx="97.4827" ry="18"/>
<text text-anchor="middle" x="303.741" y="-269.3" font-family="Times New Roman,serif" font-size="14.00">http://example.org/list00</text>
</g>
<!-- http://example.org/disti#6&#45;&gt;http://example.org/list00 -->
<g id="edge3" class="edge"><title>http://example.org/disti#6&#45;&gt;http://example.org/list00</title>
<path fill="none" stroke="black" d="M391.116,-209.531C375.561,-220.652 353.517,-236.412 335.463,-249.32"/>
<polygon fill="black" stroke="black" points="333.066,-246.732 326.967,-255.395 337.137,-252.426 333.066,-246.732"/>
<text text-anchor="middle" x="392.57" y="-222.561" font-family="Times New Roman,serif" font-size="8.00">[ ]</text>
</g>
<!-- http://example.org/list01 -->
<g id="node6" class="node"><title>http://example.org/list01</title>
<ellipse fill="none" stroke="black" cx="516.741" cy="-273" rx="97.4827" ry="18"/>
<text text-anchor="middle" x="516.741" y="-269.3" font-family="Times New Roman,serif" font-size="14.00">http://example.org/list01</text>
</g>
<!-- http://example.org/disti#6&#45;&gt;http://example.org/list01 -->
<g id="edge4" class="edge"><title>http://example.org/disti#6&#45;&gt;http://example.org/list01</title>
<path fill="none" stroke="black" d="M430.183,-209.531C445.592,-220.652 467.43,-236.412 485.315,-249.32"/>
<polygon fill="black" stroke="black" points="483.575,-252.381 493.732,-255.395 487.672,-246.705 483.575,-252.381"/>
<text text-anchor="middle" x="443.867" y="-201.487" font-family="Times New Roman,serif" font-size="8.00">[ ]</text>
</g>
<!-- http://example.org/disti#6&#45;&gt;http://example.org/assign25 -->
<g id="edge23" class="edge"><title>http://example.org/disti#6&#45;&gt;http://example.org/assign25</title>
<path fill="none" stroke="black" d="M376.319,-198.596C303.305,-206.403 143.842,-230.738 197.741,-291 226.251,-322.876 517.421,-337.82 628.764,-342.401"/>
<polygon fill="black" stroke="black" points="628.83,-345.907 638.963,-342.812 629.113,-338.912 628.83,-345.907"/>
<text text-anchor="middle" x="370.394" y="-210.476" font-family="Times New Roman,serif" font-size="8.00">gen</text>
</g>
<!-- &#45;attrs1 -->
<g id="node4" class="node"><title>&#45;attrs1</title>
<polygon fill="none" stroke="gray" points="447.241,-134 368.241,-134 368.241,-85 453.241,-85 453.241,-128 447.241,-134"/>
<polyline fill="none" stroke="gray" points="447.241,-134 447.241,-128 "/>
<polyline fill="none" stroke="gray" points="453.241,-128 447.241,-128 "/>
<text text-anchor="start" x="378.741" y="-119.5" font-family="Times New Roman,serif" font-size="10.00">value:</text>
<text text-anchor="start" x="405.741" y="-119.5" font-family="Times New Roman,serif" font-size="10.00">&quot;[0, 1, 3]&quot;</text>
<text text-anchor="start" x="378.741" y="-106.5" font-family="Times New Roman,serif" font-size="10.00">type:</text>
<text text-anchor="start" x="405.741" y="-106.5" font-family="Times New Roman,serif" font-size="10.00">&quot;list&quot;</text>
<text text-anchor="start" x="378.741" y="-93.5" font-family="Times New Roman,serif" font-size="10.00">label:</text>
<text text-anchor="start" x="405.741" y="-93.5" font-family="Times New Roman,serif" font-size="10.00">&quot;disti&quot;</text>
</g>
<!-- &#45;attrs1&#45;&gt;http://example.org/disti#6 -->
<g id="edge2" class="edge"><title>&#45;attrs1&#45;&gt;http://example.org/disti#6</title>
<path fill="none" stroke="gray" stroke-dasharray="5,2" d="M410.741,-134.062C410.741,-147.578 410.741,-164.236 410.741,-176.475"/>
</g>
<!-- http://example.org/dist#3 -->
<g id="node7" class="node"><title>http://example.org/dist#3</title>
<g id="a_node7"><a xlink:href="http://example.org/dist#3" xlink:title="dist#3">
<ellipse fill="#fffc87" stroke="#808080" cx="799.741" cy="-109.5" rx="33.2948" ry="18"/>
<text text-anchor="middle" x="799.741" y="-105.8" font-family="Times New Roman,serif" font-size="14.00">dist#3</text>
</a>
</g>
</g>
<!-- http://example.org/dist#3&#45;&gt;http://example.org/disti#6 -->
<g id="edge9" class="edge"><title>http://example.org/dist#3&#45;&gt;http://example.org/disti#6</title>
<path fill="none" stroke="black" d="M769.541,-116.944C700.607,-131.652 531.552,-167.723 452.616,-184.565"/>
<polygon fill="black" stroke="black" points="451.596,-181.204 442.547,-186.714 453.057,-188.05 451.596,-181.204"/>
<text text-anchor="middle" x="764.916" y="-129.313" font-family="Times New Roman,serif" font-size="8.00">[ ]</text>
</g>
<!-- http://example.org/list1 -->
<g id="node9" class="node"><title>http://example.org/list1</title>
<ellipse fill="none" stroke="black" cx="860.741" cy="-194.5" rx="92.8835" ry="18"/>
<text text-anchor="middle" x="860.741" y="-190.8" font-family="Times New Roman,serif" font-size="14.00">http://example.org/list1</text>
</g>
<!-- http://example.org/dist#3&#45;&gt;http://example.org/list1 -->
<g id="edge7" class="edge"><title>http://example.org/dist#3&#45;&gt;http://example.org/list1</title>
<path fill="none" stroke="black" d="M811.502,-126.503C820.136,-138.251 832.04,-154.448 841.981,-167.974"/>
<polygon fill="black" stroke="black" points="839.433,-170.418 848.176,-176.403 845.074,-166.272 839.433,-170.418"/>
<text text-anchor="middle" x="826.411" y="-122.954" font-family="Times New Roman,serif" font-size="8.00">[ ]</text>
</g>
<!-- http://example.org/disti#4 -->
<g id="node10" class="node"><title>http://example.org/disti#4</title>
<ellipse fill="none" stroke="black" cx="1074.74" cy="-194.5" rx="102.882" ry="18"/>
<text text-anchor="middle" x="1074.74" y="-190.8" font-family="Times New Roman,serif" font-size="14.00">http://example.org/disti#4</text>
</g>
<!-- http://example.org/dist#3&#45;&gt;http://example.org/disti#4 -->
<g id="edge8" class="edge"><title>http://example.org/dist#3&#45;&gt;http://example.org/disti#4</title>
<path fill="none" stroke="black" d="M828.135,-119.07C872.177,-132.362 957.899,-158.235 1015.75,-175.694"/>
<polygon fill="black" stroke="black" points="1014.91,-179.097 1025.49,-178.635 1016.93,-172.395 1014.91,-179.097"/>
<text text-anchor="middle" x="839.069" y="-106.901" font-family="Times New Roman,serif" font-size="8.00">[ ]</text>
</g>
<!-- http://example.org/dist#3&#45;&gt;http://example.org/assign25 -->
<g id="edge24" class="edge"><title>http://example.org/dist#3&#45;&gt;http://example.org/assign25</title>
<path fill="none" stroke="black" d="M786.895,-126.373C778.034,-137.926 766.5,-154.244 758.741,-170 733.78,-220.689 748.005,-242.075 719.741,-291 713.846,-301.205 705.721,-311.13 697.832,-319.579"/>
<polygon fill="black" stroke="black" points="695.186,-317.28 690.724,-326.89 700.205,-322.16 695.186,-317.28"/>
<text text-anchor="middle" x="792.716" y="-138.298" font-family="Times New Roman,serif" font-size="8.00">gen</text>
</g>
<!-- &#45;attrs2 -->
<g id="node8" class="node"><title>&#45;attrs2</title>
<polygon fill="none" stroke="gray" points="881.241,-49 712.241,-49 712.241,-0 887.241,-0 887.241,-43 881.241,-49"/>
<polyline fill="none" stroke="gray" points="881.241,-49 881.241,-43 "/>
<polyline fill="none" stroke="gray" points="887.241,-43 881.241,-43 "/>
<text text-anchor="start" x="722.741" y="-34.5" font-family="Times New Roman,serif" font-size="10.00">value:</text>
<text text-anchor="start" x="749.741" y="-34.5" font-family="Times New Roman,serif" font-size="10.00">&quot;[[0, 1, 3], [10000, 0, 2], [2, 3, 0]]&quot;</text>
<text text-anchor="start" x="722.741" y="-21.5" font-family="Times New Roman,serif" font-size="10.00">type:</text>
<text text-anchor="start" x="749.741" y="-21.5" font-family="Times New Roman,serif" font-size="10.00">&quot;list&quot;</text>
<text text-anchor="start" x="722.741" y="-8.5" font-family="Times New Roman,serif" font-size="10.00">label:</text>
<text text-anchor="start" x="749.741" y="-8.5" font-family="Times New Roman,serif" font-size="10.00">&quot;dist&quot;</text>
</g>
<!-- &#45;attrs2&#45;&gt;http://example.org/dist#3 -->
<g id="edge6" class="edge"><title>&#45;attrs2&#45;&gt;http://example.org/dist#3</title>
<path fill="none" stroke="gray" stroke-dasharray="5,2" d="M799.741,-49.0625C799.741,-62.5778 799.741,-79.2361 799.741,-91.4752"/>
</g>
<!-- http://example.org/result#3 -->
<g id="node11" class="node"><title>http://example.org/result#3</title>
<g id="a_node11"><a xlink:href="http://example.org/result#3" xlink:title="result#3">
<ellipse fill="#fffc87" stroke="#808080" cx="1033.74" cy="-109.5" rx="39.7935" ry="18"/>
<text text-anchor="middle" x="1033.74" y="-105.8" font-family="Times New Roman,serif" font-size="14.00">result#3</text>
</a>
</g>
</g>
<!-- http://example.org/result#3&#45;&gt;http://example.org/disti#6 -->
<g id="edge13" class="edge"><title>http://example.org/result#3&#45;&gt;http://example.org/disti#6</title>
<path fill="none" stroke="black" d="M996.173,-115.505C887.132,-130.032 570.963,-172.154 454.49,-187.671"/>
<polygon fill="black" stroke="black" points="453.951,-184.212 444.501,-189.002 454.876,-191.151 453.951,-184.212"/>
<text text-anchor="middle" x="990.454" y="-127.472" font-family="Times New Roman,serif" font-size="8.00">[ ]</text>
</g>
<!-- http://example.org/result#3&#45;&gt;http://example.org/list1 -->
<g id="edge11" class="edge"><title>http://example.org/result#3&#45;&gt;http://example.org/list1</title>
<path fill="none" stroke="black" d="M1007.47,-123.106C979.764,-136.397 935.702,-157.536 903.085,-173.185"/>
<polygon fill="black" stroke="black" points="901.289,-170.164 893.787,-177.646 904.317,-176.475 901.289,-170.164"/>
<text text-anchor="middle" x="1006.32" y="-136.162" font-family="Times New Roman,serif" font-size="8.00">[ ]</text>
</g>
<!-- http://example.org/result#3&#45;&gt;http://example.org/disti#4 -->
<g id="edge12" class="edge"><title>http://example.org/result#3&#45;&gt;http://example.org/disti#4</title>
<path fill="none" stroke="black" d="M1042.04,-127.296C1047.72,-138.808 1055.38,-154.306 1061.85,-167.413"/>
<polygon fill="black" stroke="black" points="1058.75,-169.028 1066.32,-176.444 1065.02,-165.928 1058.75,-169.028"/>
<text text-anchor="middle" x="1057.01" y="-126.367" font-family="Times New Roman,serif" font-size="8.00">[ ]</text>
</g>
<!-- http://example.org/result#3&#45;&gt;http://example.org/assign25 -->
<g id="edge25" class="edge"><title>http://example.org/result#3&#45;&gt;http://example.org/assign25</title>
<path fill="none" stroke="black" d="M1072.66,-113.643C1108.99,-118.88 1161.32,-132.833 1186.74,-170 1199.04,-187.975 1200.2,-201.881 1186.74,-219 1127.87,-293.869 827.383,-329.396 714.592,-340.248"/>
<polygon fill="black" stroke="black" points="714.217,-336.767 704.591,-341.192 714.875,-343.736 714.217,-336.767"/>
<text text-anchor="middle" x="1082.15" y="-100.127" font-family="Times New Roman,serif" font-size="8.00">gen</text>
</g>
<!-- &#45;attrs3 -->
<g id="node12" class="node"><title>&#45;attrs3</title>
<polygon fill="none" stroke="gray" points="1115.24,-49 946.241,-49 946.241,-0 1121.24,-0 1121.24,-43 1115.24,-49"/>
<polyline fill="none" stroke="gray" points="1115.24,-49 1115.24,-43 "/>
<polyline fill="none" stroke="gray" points="1121.24,-43 1115.24,-43 "/>
<text text-anchor="start" x="956.741" y="-34.5" font-family="Times New Roman,serif" font-size="10.00">value:</text>
<text text-anchor="start" x="983.741" y="-34.5" font-family="Times New Roman,serif" font-size="10.00">&quot;[[0, 1, 3], [10000, 0, 2], [2, 3, 0]]&quot;</text>
<text text-anchor="start" x="956.741" y="-21.5" font-family="Times New Roman,serif" font-size="10.00">type:</text>
<text text-anchor="start" x="983.741" y="-21.5" font-family="Times New Roman,serif" font-size="10.00">&quot;name&quot;</text>
<text text-anchor="start" x="956.741" y="-8.5" font-family="Times New Roman,serif" font-size="10.00">label:</text>
<text text-anchor="start" x="983.741" y="-8.5" font-family="Times New Roman,serif" font-size="10.00">&quot;result&quot;</text>
</g>
<!-- &#45;attrs3&#45;&gt;http://example.org/result#3 -->
<g id="edge10" class="edge"><title>&#45;attrs3&#45;&gt;http://example.org/result#3</title>
<path fill="none" stroke="gray" stroke-dasharray="5,2" d="M1033.74,-49.0625C1033.74,-62.5778 1033.74,-79.2361 1033.74,-91.4752"/>
</g>
<!-- http://example.org/assign25&#45;&gt;http://example.org/ikj#12 -->
<g id="edge15" class="edge"><title>http://example.org/assign25&#45;&gt;http://example.org/ikj#12</title>
<path fill="none" stroke="black" d="M638.988,-349.323C563.411,-357.089 371.021,-377.409 210.741,-399 201.81,-400.203 192.483,-401.532 183.201,-402.901"/>
<polygon fill="black" stroke="black" points="182.54,-399.46 173.166,-404.398 183.573,-406.384 182.54,-399.46"/>
<text text-anchor="middle" x="632.866" y="-361.117" font-family="Times New Roman,serif" font-size="8.00">use</text>
</g>
<!-- http://example.org/disti#5 -->
<g id="node16" class="node"><title>http://example.org/disti#5</title>
<ellipse fill="none" stroke="black" cx="1028.74" cy="-417" rx="102.882" ry="18"/>
<text text-anchor="middle" x="1028.74" y="-413.3" font-family="Times New Roman,serif" font-size="14.00">http://example.org/disti#5</text>
</g>
<!-- http://example.org/assign25&#45;&gt;http://example.org/disti#5 -->
<g id="edge18" class="edge"><title>http://example.org/assign25&#45;&gt;http://example.org/disti#5</title>
<path fill="none" stroke="black" d="M704.369,-352.398C760.295,-363.364 875.868,-386.025 952.863,-401.122"/>
<polygon fill="black" stroke="black" points="952.505,-404.618 962.992,-403.108 953.852,-397.749 952.505,-404.618"/>
<text text-anchor="middle" x="714.228" y="-339.193" font-family="Times New Roman,serif" font-size="8.00">use</text>
</g>
<!-- http://example.org/j#12 -->
<g id="node17" class="node"><title>http://example.org/j#12</title>
<ellipse fill="none" stroke="black" cx="1243.74" cy="-417" rx="94.4839" ry="18"/>
<text text-anchor="middle" x="1243.74" y="-413.3" font-family="Times New Roman,serif" font-size="14.00">http://example.org/j#12</text>
</g>
<!-- http://example.org/assign25&#45;&gt;http://example.org/j#12 -->
<g id="edge19" class="edge"><title>http://example.org/assign25&#45;&gt;http://example.org/j#12</title>
<path fill="none" stroke="black" d="M704.507,-349.122C781.031,-356.539 977.402,-376.306 1140.74,-399 1149,-400.147 1157.61,-401.431 1166.19,-402.765"/>
<polygon fill="black" stroke="black" points="1165.8,-406.247 1176.22,-404.35 1166.89,-399.332 1165.8,-406.247"/>
<text text-anchor="middle" x="713.238" y="-335.024" font-family="Times New Roman,serif" font-size="8.00">use</text>
</g>
<!-- http://example.org/disti_aj#13 -->
<g id="node18" class="node"><title>http://example.org/disti_aj#13</title>
<ellipse fill="none" stroke="black" cx="337.741" cy="-417" rx="118.079" ry="18"/>
<text text-anchor="middle" x="337.741" y="-413.3" font-family="Times New Roman,serif" font-size="14.00">http://example.org/disti_aj#13</text>
</g>
<!-- http://example.org/assign25&#45;&gt;http://example.org/disti_aj#13 -->
<g id="edge20" class="edge"><title>http://example.org/assign25&#45;&gt;http://example.org/disti_aj#13</title>
<path fill="none" stroke="black" d="M639.108,-352.839C587.373,-363.682 485.133,-385.11 414.172,-399.982"/>
<polygon fill="black" stroke="black" points="413.444,-396.558 404.375,-402.035 414.88,-403.409 413.444,-396.558"/>
<text text-anchor="middle" x="634.432" y="-365.192" font-family="Times New Roman,serif" font-size="8.00">use</text>
</g>
<!-- http://example.org/dist#2 -->
<g id="node19" class="node"><title>http://example.org/dist#2</title>
<ellipse fill="none" stroke="black" cx="574.741" cy="-417" rx="100.983" ry="18"/>
<text text-anchor="middle" x="574.741" y="-413.3" font-family="Times New Roman,serif" font-size="14.00">http://example.org/dist#2</text>
</g>
<!-- http://example.org/assign25&#45;&gt;http://example.org/dist#2 -->
<g id="edge21" class="edge"><title>http://example.org/assign25&#45;&gt;http://example.org/dist#2</title>
<path fill="none" stroke="black" d="M647.764,-363.303C635.126,-372.423 619.475,-383.718 605.908,-393.509"/>
<polygon fill="black" stroke="black" points="603.836,-390.688 597.775,-399.378 607.932,-396.364 603.836,-390.688"/>
<text text-anchor="middle" x="649.284" y="-376.326" font-family="Times New Roman,serif" font-size="8.00">use</text>
</g>
<!-- http://example.org/result#2 -->
<g id="node20" class="node"><title>http://example.org/result#2</title>
<ellipse fill="none" stroke="black" cx="800.741" cy="-417" rx="107.482" ry="18"/>
<text text-anchor="middle" x="800.741" y="-413.3" font-family="Times New Roman,serif" font-size="14.00">http://example.org/result#2</text>
</g>
<!-- http://example.org/assign25&#45;&gt;http://example.org/result#2 -->
<g id="edge22" class="edge"><title>http://example.org/assign25&#45;&gt;http://example.org/result#2</title>
<path fill="none" stroke="black" d="M703.298,-363.124C720.862,-372.655 742.88,-384.603 761.541,-394.729"/>
<polygon fill="black" stroke="black" points="759.94,-397.842 770.398,-399.535 763.278,-391.689 759.94,-397.842"/>
<text text-anchor="middle" x="716.086" y="-353.383" font-family="Times New Roman,serif" font-size="8.00">use</text>
</g>
<!-- &#45;attrs4 -->
<g id="node14" class="node"><title>&#45;attrs4</title>
<polygon fill="none" stroke="gray" points="705.241,-291 632.241,-291 632.241,-255 711.241,-255 711.241,-285 705.241,-291"/>
<polyline fill="none" stroke="gray" points="705.241,-291 705.241,-285 "/>
<polyline fill="none" stroke="gray" points="711.241,-285 705.241,-285 "/>
<text text-anchor="start" x="642.741" y="-270" font-family="Times New Roman,serif" font-size="10.00">type:</text>
<text text-anchor="start" x="665.741" y="-270" font-family="Times New Roman,serif" font-size="10.00">&quot;assign&quot;</text>
</g>
<!-- &#45;attrs4&#45;&gt;http://example.org/assign25 -->
<g id="edge14" class="edge"><title>&#45;attrs4&#45;&gt;http://example.org/assign25</title>
<path fill="none" stroke="gray" stroke-dasharray="5,2" d="M671.741,-291.303C671.741,-302.154 671.741,-316.083 671.741,-326.896"/>
</g>
</g>
</svg>
