<?xml version="1.0" encoding="UTF-8" standalone="no"?>
<!DOCTYPE svg PUBLIC "-//W3C//DTD SVG 1.1//EN"
 "http://www.w3.org/Graphics/SVG/1.1/DTD/svg11.dtd">
<!-- Generated by graphviz version 2.38.0 (20140413.2041)
 -->
<!-- Title: PROV Pages: 1 -->
<svg width="1152pt" height="383pt"
 viewBox="0.00 0.00 1152.00 382.61" xmlns="http://www.w3.org/2000/svg" xmlns:xlink="http://www.w3.org/1999/xlink">
<g id="graph0" class="graph" transform="scale(0.863673 0.863673) rotate(0) translate(4 439)">
<title>PROV</title>
<polygon fill="white" stroke="none" points="-4,4 -4,-439 1329.84,-439 1329.84,4 -4,4"/>
<!-- http://example.org/disti_aj#5 -->
<g id="node1" class="node"><title>http://example.org/disti_aj#5</title>
<g id="a_node1"><a xlink:href="http://example.org/disti_aj#5" xlink:title="disti_aj#5">
<ellipse fill="#fffc87" stroke="#808080" cx="46.1459" cy="-273" rx="46.2923" ry="18"/>
<text text-anchor="middle" x="46.1459" y="-269.3" font-family="Times New Roman,serif" font-size="14.00">disti_aj#5</text>
</a>
</g>
</g>
<!-- http://example.org/assign15 -->
<g id="node13" class="node"><title>http://example.org/assign15</title>
<g id="a_node13"><a xlink:href="http://example.org/assign15" xlink:title="assign15">
<polygon fill="#9fb1fc" stroke="#0000ff" points="631.646,-363 566.646,-363 566.646,-327 631.646,-327 631.646,-363"/>
<text text-anchor="middle" x="599.146" y="-341.3" font-family="Times New Roman,serif" font-size="14.00">assign15</text>
</a>
</g>
</g>
<!-- http://example.org/disti_aj#5&#45;&gt;http://example.org/assign15 -->
<g id="edge17" class="edge"><title>http://example.org/disti_aj#5&#45;&gt;http://example.org/assign15</title>
<path fill="none" stroke="black" d="M80.8059,-284.895C89.0471,-287.186 97.8556,-289.392 106.146,-291 270.829,-322.944 470.463,-336.966 556.411,-341.842"/>
<polygon fill="black" stroke="black" points="556.383,-345.345 566.562,-342.404 556.771,-338.356 556.383,-345.345"/>
<text text-anchor="middle" x="91.4815" y="-272.458" font-family="Times New Roman,serif" font-size="8.00">gen</text>
</g>
<!-- http://example.org/ikj#3 -->
<g id="node15" class="node"><title>http://example.org/ikj#3</title>
<ellipse fill="none" stroke="black" cx="112.146" cy="-417" rx="96.3833" ry="18"/>
<text text-anchor="middle" x="112.146" y="-413.3" font-family="Times New Roman,serif" font-size="14.00">http://example.org/ikj#3</text>
</g>
<!-- http://example.org/disti_aj#5&#45;&gt;http://example.org/ikj#3 -->
<g id="edge16" class="edge"><title>http://example.org/disti_aj#5&#45;&gt;http://example.org/ikj#3</title>
<path fill="none" stroke="black" d="M53.9761,-290.847C65.327,-315.268 86.4594,-360.735 99.887,-389.625"/>
<polygon fill="black" stroke="black" points="96.7312,-391.139 104.12,-398.732 103.079,-388.189 96.7312,-391.139"/>
<text text-anchor="middle" x="68.9174" y="-290.273" font-family="Times New Roman,serif" font-size="8.00">der</text>
</g>
<!-- &#45;attrs0 -->
<g id="node2" class="node"><title>&#45;attrs0</title>
<polygon fill="none" stroke="gray" points="82.1459,-219 4.14591,-219 4.14591,-170 88.1459,-170 88.1459,-213 82.1459,-219"/>
<polyline fill="none" stroke="gray" points="82.1459,-219 82.1459,-213 "/>
<polyline fill="none" stroke="gray" points="88.1459,-213 82.1459,-213 "/>
<text text-anchor="start" x="14.1459" y="-204.5" font-family="Times New Roman,serif" font-size="10.00">value:</text>
<text text-anchor="start" x="41.1459" y="-204.5" font-family="Times New Roman,serif" font-size="10.00">&quot;3&quot;</text>
<text text-anchor="start" x="14.1459" y="-191.5" font-family="Times New Roman,serif" font-size="10.00">type:</text>
<text text-anchor="start" x="41.1459" y="-191.5" font-family="Times New Roman,serif" font-size="10.00">&quot;access&quot;</text>
<text text-anchor="start" x="14.1459" y="-178.5" font-family="Times New Roman,serif" font-size="10.00">label:</text>
<text text-anchor="start" x="41.1459" y="-178.5" font-family="Times New Roman,serif" font-size="10.00">&quot;disti[j]&quot;</text>
</g>
<!-- &#45;attrs0&#45;&gt;http://example.org/disti_aj#5 -->
<g id="edge1" class="edge"><title>&#45;attrs0&#45;&gt;http://example.org/disti_aj#5</title>
<path fill="none" stroke="gray" stroke-dasharray="5,2" d="M46.1459,-219.286C46.1459,-230.69 46.1459,-244.105 46.1459,-254.548"/>
</g>
<!-- http://example.org/disti#5 -->
<g id="node3" class="node"><title>http://example.org/disti#5</title>
<g id="a_node3"><a xlink:href="http://example.org/disti#5" xlink:title="disti#5">
<ellipse fill="#fffc87" stroke="#808080" cx="352.146" cy="-194.5" rx="35.194" ry="18"/>
<text text-anchor="middle" x="352.146" y="-190.8" font-family="Times New Roman,serif" font-size="14.00">disti#5</text>
</a>
</g>
</g>
<!-- http://example.org/disti#5&#45;&gt;http://example.org/disti_aj#5 -->
<g id="edge5" class="edge"><title>http://example.org/disti#5&#45;&gt;http://example.org/disti_aj#5</title>
<path fill="none" stroke="black" d="M320.593,-202.719C273.69,-213.543 182.858,-234.863 106.146,-255 101.483,-256.224 96.6262,-257.537 91.7849,-258.87"/>
<polygon fill="black" stroke="black" points="90.6292,-255.559 81.9355,-261.614 92.5079,-262.302 90.6292,-255.559"/>
</g>
<!-- http://example.org/list00 -->
<g id="node5" class="node"><title>http://example.org/list00</title>
<ellipse fill="none" stroke="black" cx="245.146" cy="-273" rx="97.4827" ry="18"/>
<text text-anchor="middle" x="245.146" y="-269.3" font-family="Times New Roman,serif" font-size="14.00">http://example.org/list00</text>
</g>
<!-- http://example.org/disti#5&#45;&gt;http://example.org/list00 -->
<g id="edge3" class="edge"><title>http://example.org/disti#5&#45;&gt;http://example.org/list00</title>
<path fill="none" stroke="black" d="M332.52,-209.531C316.966,-220.652 294.922,-236.412 276.868,-249.32"/>
<polygon fill="black" stroke="black" points="274.471,-246.732 268.372,-255.395 278.542,-252.426 274.471,-246.732"/>
</g>
<!-- http://example.org/list01 -->
<g id="node6" class="node"><title>http://example.org/list01</title>
<ellipse fill="none" stroke="black" cx="458.146" cy="-273" rx="97.4827" ry="18"/>
<text text-anchor="middle" x="458.146" y="-269.3" font-family="Times New Roman,serif" font-size="14.00">http://example.org/list01</text>
</g>
<!-- http://example.org/disti#5&#45;&gt;http://example.org/list01 -->
<g id="edge4" class="edge"><title>http://example.org/disti#5&#45;&gt;http://example.org/list01</title>
<path fill="none" stroke="black" d="M371.588,-209.531C386.997,-220.652 408.835,-236.412 426.72,-249.32"/>
<polygon fill="black" stroke="black" points="424.98,-252.381 435.137,-255.395 429.077,-246.705 424.98,-252.381"/>
</g>
<!-- http://example.org/disti#5&#45;&gt;http://example.org/assign15 -->
<g id="edge24" class="edge"><title>http://example.org/disti#5&#45;&gt;http://example.org/assign15</title>
<path fill="none" stroke="black" d="M317.739,-198.583C244.755,-206.363 85.3481,-230.648 139.146,-291 166.68,-321.889 447.477,-337.375 556.342,-342.254"/>
<polygon fill="black" stroke="black" points="556.486,-345.763 566.63,-342.706 556.793,-338.77 556.486,-345.763"/>
<text text-anchor="middle" x="311.809" y="-210.461" font-family="Times New Roman,serif" font-size="8.00">gen</text>
</g>
<!-- &#45;attrs1 -->
<g id="node4" class="node"><title>&#45;attrs1</title>
<polygon fill="none" stroke="gray" points="388.646,-134 309.646,-134 309.646,-85 394.646,-85 394.646,-128 388.646,-134"/>
<polyline fill="none" stroke="gray" points="388.646,-134 388.646,-128 "/>
<polyline fill="none" stroke="gray" points="394.646,-128 388.646,-128 "/>
<text text-anchor="start" x="320.146" y="-119.5" font-family="Times New Roman,serif" font-size="10.00">value:</text>
<text text-anchor="start" x="347.146" y="-119.5" font-family="Times New Roman,serif" font-size="10.00">&quot;[0, 1, 3]&quot;</text>
<text text-anchor="start" x="320.146" y="-106.5" font-family="Times New Roman,serif" font-size="10.00">type:</text>
<text text-anchor="start" x="347.146" y="-106.5" font-family="Times New Roman,serif" font-size="10.00">&quot;list&quot;</text>
<text text-anchor="start" x="320.146" y="-93.5" font-family="Times New Roman,serif" font-size="10.00">label:</text>
<text text-anchor="start" x="347.146" y="-93.5" font-family="Times New Roman,serif" font-size="10.00">&quot;disti&quot;</text>
</g>
<!-- &#45;attrs1&#45;&gt;http://example.org/disti#5 -->
<g id="edge2" class="edge"><title>&#45;attrs1&#45;&gt;http://example.org/disti#5</title>
<path fill="none" stroke="gray" stroke-dasharray="5,2" d="M352.146,-134.062C352.146,-147.578 352.146,-164.236 352.146,-176.475"/>
</g>
<!-- http://example.org/dist#3 -->
<g id="node7" class="node"><title>http://example.org/dist#3</title>
<g id="a_node7"><a xlink:href="http://example.org/dist#3" xlink:title="dist#3">
<ellipse fill="#fffc87" stroke="#808080" cx="741.146" cy="-109.5" rx="33.2948" ry="18"/>
<text text-anchor="middle" x="741.146" y="-105.8" font-family="Times New Roman,serif" font-size="14.00">dist#3</text>
</a>
</g>
</g>
<!-- http://example.org/dist#3&#45;&gt;http://example.org/disti#5 -->
<g id="edge9" class="edge"><title>http://example.org/dist#3&#45;&gt;http://example.org/disti#5</title>
<path fill="none" stroke="black" d="M710.945,-116.944C642.012,-131.652 472.957,-167.723 394.021,-184.565"/>
<polygon fill="black" stroke="black" points="393.001,-181.204 383.951,-186.714 394.462,-188.05 393.001,-181.204"/>
</g>
<!-- http://example.org/list1 -->
<g id="node9" class="node"><title>http://example.org/list1</title>
<ellipse fill="none" stroke="black" cx="802.146" cy="-194.5" rx="92.8835" ry="18"/>
<text text-anchor="middle" x="802.146" y="-190.8" font-family="Times New Roman,serif" font-size="14.00">http://example.org/list1</text>
</g>
<!-- http://example.org/dist#3&#45;&gt;http://example.org/list1 -->
<g id="edge7" class="edge"><title>http://example.org/dist#3&#45;&gt;http://example.org/list1</title>
<path fill="none" stroke="black" d="M752.907,-126.503C761.541,-138.251 773.445,-154.448 783.386,-167.974"/>
<polygon fill="black" stroke="black" points="780.838,-170.418 789.581,-176.403 786.479,-166.272 780.838,-170.418"/>
</g>
<!-- http://example.org/disti#3 -->
<g id="node10" class="node"><title>http://example.org/disti#3</title>
<ellipse fill="none" stroke="black" cx="1016.15" cy="-194.5" rx="102.882" ry="18"/>
<text text-anchor="middle" x="1016.15" y="-190.8" font-family="Times New Roman,serif" font-size="14.00">http://example.org/disti#3</text>
</g>
<!-- http://example.org/dist#3&#45;&gt;http://example.org/disti#3 -->
<g id="edge8" class="edge"><title>http://example.org/dist#3&#45;&gt;http://example.org/disti#3</title>
<path fill="none" stroke="black" d="M769.54,-119.07C813.582,-132.362 899.304,-158.235 957.15,-175.694"/>
<polygon fill="black" stroke="black" points="956.311,-179.097 966.896,-178.635 958.334,-172.395 956.311,-179.097"/>
</g>
<!-- http://example.org/dist#3&#45;&gt;http://example.org/assign15 -->
<g id="edge25" class="edge"><title>http://example.org/dist#3&#45;&gt;http://example.org/assign15</title>
<path fill="none" stroke="black" d="M728.299,-126.373C719.439,-137.926 707.905,-154.244 700.146,-170 675.185,-220.689 692.471,-243.976 661.146,-291 653.712,-302.159 643.296,-312.314 633.12,-320.681"/>
<polygon fill="black" stroke="black" points="630.78,-318.067 625.072,-326.993 635.1,-323.575 630.78,-318.067"/>
<text text-anchor="middle" x="734.12" y="-138.298" font-family="Times New Roman,serif" font-size="8.00">gen</text>
</g>
<!-- &#45;attrs2 -->
<g id="node8" class="node"><title>&#45;attrs2</title>
<polygon fill="none" stroke="gray" points="822.646,-49 653.646,-49 653.646,-0 828.646,-0 828.646,-43 822.646,-49"/>
<polyline fill="none" stroke="gray" points="822.646,-49 822.646,-43 "/>
<polyline fill="none" stroke="gray" points="828.646,-43 822.646,-43 "/>
<text text-anchor="start" x="664.146" y="-34.5" font-family="Times New Roman,serif" font-size="10.00">value:</text>
<text text-anchor="start" x="691.146" y="-34.5" font-family="Times New Roman,serif" font-size="10.00">&quot;[[0, 1, 3], [10000, 0, 2], [2, 3, 0]]&quot;</text>
<text text-anchor="start" x="664.146" y="-21.5" font-family="Times New Roman,serif" font-size="10.00">type:</text>
<text text-anchor="start" x="691.146" y="-21.5" font-family="Times New Roman,serif" font-size="10.00">&quot;list&quot;</text>
<text text-anchor="start" x="664.146" y="-8.5" font-family="Times New Roman,serif" font-size="10.00">label:</text>
<text text-anchor="start" x="691.146" y="-8.5" font-family="Times New Roman,serif" font-size="10.00">&quot;dist&quot;</text>
</g>
<!-- &#45;attrs2&#45;&gt;http://example.org/dist#3 -->
<g id="edge6" class="edge"><title>&#45;attrs2&#45;&gt;http://example.org/dist#3</title>
<path fill="none" stroke="gray" stroke-dasharray="5,2" d="M741.146,-49.0625C741.146,-62.5778 741.146,-79.2361 741.146,-91.4752"/>
</g>
<!-- http://example.org/result#3 -->
<g id="node11" class="node"><title>http://example.org/result#3</title>
<g id="a_node11"><a xlink:href="http://example.org/result#3" xlink:title="result#3">
<ellipse fill="#fffc87" stroke="#808080" cx="975.146" cy="-109.5" rx="39.7935" ry="18"/>
<text text-anchor="middle" x="975.146" y="-105.8" font-family="Times New Roman,serif" font-size="14.00">result#3</text>
</a>
</g>
</g>
<!-- http://example.org/result#3&#45;&gt;http://example.org/disti#5 -->
<g id="edge13" class="edge"><title>http://example.org/result#3&#45;&gt;http://example.org/disti#5</title>
<path fill="none" stroke="black" d="M937.577,-115.505C828.536,-130.032 512.368,-172.154 395.895,-187.671"/>
<polygon fill="black" stroke="black" points="395.356,-184.212 385.906,-189.002 396.281,-191.151 395.356,-184.212"/>
</g>
<!-- http://example.org/result#3&#45;&gt;http://example.org/list1 -->
<g id="edge11" class="edge"><title>http://example.org/result#3&#45;&gt;http://example.org/list1</title>
<path fill="none" stroke="black" d="M948.871,-123.106C921.169,-136.397 877.106,-157.536 844.49,-173.185"/>
<polygon fill="black" stroke="black" points="842.694,-170.164 835.192,-177.646 845.722,-176.475 842.694,-170.164"/>
</g>
<!-- http://example.org/result#3&#45;&gt;http://example.org/disti#3 -->
<g id="edge12" class="edge"><title>http://example.org/result#3&#45;&gt;http://example.org/disti#3</title>
<path fill="none" stroke="black" d="M983.443,-127.296C989.129,-138.808 996.785,-154.306 1003.26,-167.413"/>
<polygon fill="black" stroke="black" points="1000.15,-169.028 1007.72,-176.444 1006.43,-165.928 1000.15,-169.028"/>
</g>
<!-- http://example.org/result#3&#45;&gt;http://example.org/assign15 -->
<g id="edge26" class="edge"><title>http://example.org/result#3&#45;&gt;http://example.org/assign15</title>
<path fill="none" stroke="black" d="M1014.07,-113.643C1050.4,-118.88 1102.72,-132.833 1128.15,-170 1140.44,-187.975 1141.66,-201.922 1128.15,-219 1067.32,-295.878 756.792,-330.303 641.933,-340.547"/>
<polygon fill="black" stroke="black" points="641.418,-337.079 631.761,-341.436 642.028,-344.052 641.418,-337.079"/>
<text text-anchor="middle" x="1023.56" y="-100.127" font-family="Times New Roman,serif" font-size="8.00">gen</text>
</g>
<!-- &#45;attrs3 -->
<g id="node12" class="node"><title>&#45;attrs3</title>
<polygon fill="none" stroke="gray" points="1056.65,-49 887.646,-49 887.646,-0 1062.65,-0 1062.65,-43 1056.65,-49"/>
<polyline fill="none" stroke="gray" points="1056.65,-49 1056.65,-43 "/>
<polyline fill="none" stroke="gray" points="1062.65,-43 1056.65,-43 "/>
<text text-anchor="start" x="898.146" y="-34.5" font-family="Times New Roman,serif" font-size="10.00">value:</text>
<text text-anchor="start" x="925.146" y="-34.5" font-family="Times New Roman,serif" font-size="10.00">&quot;[[0, 1, 3], [10000, 0, 2], [2, 3, 0]]&quot;</text>
<text text-anchor="start" x="898.146" y="-21.5" font-family="Times New Roman,serif" font-size="10.00">type:</text>
<text text-anchor="start" x="925.146" y="-21.5" font-family="Times New Roman,serif" font-size="10.00">&quot;name&quot;</text>
<text text-anchor="start" x="898.146" y="-8.5" font-family="Times New Roman,serif" font-size="10.00">label:</text>
<text text-anchor="start" x="925.146" y="-8.5" font-family="Times New Roman,serif" font-size="10.00">&quot;result&quot;</text>
</g>
<!-- &#45;attrs3&#45;&gt;http://example.org/result#3 -->
<g id="edge10" class="edge"><title>&#45;attrs3&#45;&gt;http://example.org/result#3</title>
<path fill="none" stroke="gray" stroke-dasharray="5,2" d="M975.146,-49.0625C975.146,-62.5778 975.146,-79.2361 975.146,-91.4752"/>
</g>
<!-- http://example.org/assign15&#45;&gt;http://example.org/ikj#3 -->
<g id="edge15" class="edge"><title>http://example.org/assign15&#45;&gt;http://example.org/ikj#3</title>
<path fill="none" stroke="black" d="M566.607,-349.642C499.235,-357.944 340.568,-379.096 208.146,-399 201.459,-400.005 194.537,-401.07 187.61,-402.158"/>
<polygon fill="black" stroke="black" points="186.813,-398.741 177.485,-403.764 187.909,-405.654 186.813,-398.741"/>
<text text-anchor="middle" x="560.78" y="-361.564" font-family="Times New Roman,serif" font-size="8.00">use</text>
</g>
<!-- http://example.org/assign15&#45;&gt;http://example.org/ikj#3 -->
<g id="edge21" class="edge"><title>http://example.org/assign15&#45;&gt;http://example.org/ikj#3</title>
<path fill="none" stroke="black" d="M566.472,-350.981C501.434,-360.056 351.947,-380.092 226.146,-399 216.251,-400.487 205.841,-402.106 195.492,-403.735"/>
<polygon fill="black" stroke="black" points="194.939,-400.279 185.607,-405.296 196.031,-407.193 194.939,-400.279"/>
<text text-anchor="middle" x="560.825" y="-362.978" font-family="Times New Roman,serif" font-size="8.00">use</text>
</g>
<!-- http://example.org/disti#4 -->
<g id="node16" class="node"><title>http://example.org/disti#4</title>
<ellipse fill="none" stroke="black" cx="1026.15" cy="-417" rx="102.882" ry="18"/>
<text text-anchor="middle" x="1026.15" y="-413.3" font-family="Times New Roman,serif" font-size="14.00">http://example.org/disti#4</text>
</g>
<!-- http://example.org/assign15&#45;&gt;http://example.org/disti#4 -->
<g id="edge18" class="edge"><title>http://example.org/assign15&#45;&gt;http://example.org/disti#4</title>
<path fill="none" stroke="black" d="M631.943,-351.377C697.985,-362.203 848.762,-386.921 943.526,-402.456"/>
<polygon fill="black" stroke="black" points="943.221,-405.952 953.655,-404.116 944.353,-399.045 943.221,-405.952"/>
<text text-anchor="middle" x="641.446" y="-337.871" font-family="Times New Roman,serif" font-size="8.00">use</text>
</g>
<!-- http://example.org/j#9 -->
<g id="node17" class="node"><title>http://example.org/j#9</title>
<ellipse fill="none" stroke="black" cx="1236.15" cy="-417" rx="89.8845" ry="18"/>
<text text-anchor="middle" x="1236.15" y="-413.3" font-family="Times New Roman,serif" font-size="14.00">http://example.org/j#9</text>
</g>
<!-- http://example.org/assign15&#45;&gt;http://example.org/j#9 -->
<g id="edge19" class="edge"><title>http://example.org/assign15&#45;&gt;http://example.org/j#9</title>
<path fill="none" stroke="black" d="M631.748,-348.363C715.845,-354.641 946.907,-373.047 1138.15,-399 1146.05,-400.073 1154.3,-401.313 1162.5,-402.624"/>
<polygon fill="black" stroke="black" points="1162.03,-406.093 1172.47,-404.252 1163.16,-399.185 1162.03,-406.093"/>
<text text-anchor="middle" x="640.213" y="-334.08" font-family="Times New Roman,serif" font-size="8.00">use</text>
</g>
<!-- http://example.org/disti_aj#4 -->
<g id="node18" class="node"><title>http://example.org/disti_aj#4</title>
<ellipse fill="none" stroke="black" cx="340.146" cy="-417" rx="113.98" ry="18"/>
<text text-anchor="middle" x="340.146" y="-413.3" font-family="Times New Roman,serif" font-size="14.00">http://example.org/disti_aj#4</text>
</g>
<!-- http://example.org/assign15&#45;&gt;http://example.org/disti_aj#4 -->
<g id="edge20" class="edge"><title>http://example.org/assign15&#45;&gt;http://example.org/disti_aj#4</title>
<path fill="none" stroke="black" d="M566.606,-354.795C526.145,-365.73 456.136,-384.651 404.642,-398.569"/>
<polygon fill="black" stroke="black" points="403.669,-395.206 394.929,-401.194 405.496,-401.963 403.669,-395.206"/>
<text text-anchor="middle" x="562.755" y="-367.392" font-family="Times New Roman,serif" font-size="8.00">use</text>
</g>
<!-- http://example.org/dist#2 -->
<g id="node19" class="node"><title>http://example.org/dist#2</title>
<ellipse fill="none" stroke="black" cx="572.146" cy="-417" rx="100.983" ry="18"/>
<text text-anchor="middle" x="572.146" y="-413.3" font-family="Times New Roman,serif" font-size="14.00">http://example.org/dist#2</text>
</g>
<!-- http://example.org/assign15&#45;&gt;http://example.org/dist#2 -->
<g id="edge22" class="edge"><title>http://example.org/assign15&#45;&gt;http://example.org/dist#2</title>
<path fill="none" stroke="black" d="M592.472,-363.303C589.431,-371.187 585.763,-380.696 582.385,-389.454"/>
<polygon fill="black" stroke="black" points="579.077,-388.306 578.743,-398.896 585.608,-390.825 579.077,-388.306"/>
<text text-anchor="middle" x="601.893" y="-373.076" font-family="Times New Roman,serif" font-size="8.00">use</text>
</g>
<!-- http://example.org/result#2 -->
<g id="node20" class="node"><title>http://example.org/result#2</title>
<ellipse fill="none" stroke="black" cx="798.146" cy="-417" rx="107.482" ry="18"/>
<text text-anchor="middle" x="798.146" y="-413.3" font-family="Times New Roman,serif" font-size="14.00">http://example.org/result#2</text>
</g>
<!-- http://example.org/assign15&#45;&gt;http://example.org/result#2 -->
<g id="edge23" class="edge"><title>http://example.org/assign15&#45;&gt;http://example.org/result#2</title>
<path fill="none" stroke="black" d="M632.007,-357.559C662.481,-368.279 708.389,-384.427 744.23,-397.035"/>
<polygon fill="black" stroke="black" points="743.456,-400.473 754.051,-400.489 745.779,-393.869 743.456,-400.473"/>
<text text-anchor="middle" x="643.392" y="-345.893" font-family="Times New Roman,serif" font-size="8.00">use</text>
</g>
<!-- &#45;attrs4 -->
<g id="node14" class="node"><title>&#45;attrs4</title>
<polygon fill="none" stroke="gray" points="646.646,-291 573.646,-291 573.646,-255 652.646,-255 652.646,-285 646.646,-291"/>
<polyline fill="none" stroke="gray" points="646.646,-291 646.646,-285 "/>
<polyline fill="none" stroke="gray" points="652.646,-285 646.646,-285 "/>
<text text-anchor="start" x="584.146" y="-270" font-family="Times New Roman,serif" font-size="10.00">type:</text>
<text text-anchor="start" x="607.146" y="-270" font-family="Times New Roman,serif" font-size="10.00">&quot;assign&quot;</text>
</g>
<!-- &#45;attrs4&#45;&gt;http://example.org/assign15 -->
<g id="edge14" class="edge"><title>&#45;attrs4&#45;&gt;http://example.org/assign15</title>
<path fill="none" stroke="gray" stroke-dasharray="5,2" d="M609.685,-291.303C607.515,-302.154 604.729,-316.083 602.567,-326.896"/>
</g>
</g>
</svg>
