<?xml version="1.0" encoding="UTF-8" standalone="no"?>
<!DOCTYPE svg PUBLIC "-//W3C//DTD SVG 1.1//EN"
 "http://www.w3.org/Graphics/SVG/1.1/DTD/svg11.dtd">
<!-- Generated by graphviz version 2.38.0 (20140413.2041)
 -->
<!-- Title: PROV Pages: 1 -->
<svg width="1152pt" height="392pt"
 viewBox="0.00 0.00 1152.00 392.31" xmlns="http://www.w3.org/2000/svg" xmlns:xlink="http://www.w3.org/1999/xlink">
<g id="graph0" class="graph" transform="scale(0.885583 0.885583) rotate(0) translate(4 439)">
<title>PROV</title>
<polygon fill="white" stroke="none" points="-4,4 -4,-439 1296.84,-439 1296.84,4 -4,4"/>
<!-- http://example.org/disti_aj#3 -->
<g id="node1" class="node"><title>http://example.org/disti_aj#3</title>
<g id="a_node1"><a xlink:href="http://example.org/disti_aj#3" xlink:title="disti_aj#3">
<ellipse fill="#fffc87" stroke="#808080" cx="46.1459" cy="-273" rx="46.2923" ry="18"/>
<text text-anchor="middle" x="46.1459" y="-269.3" font-family="Times New Roman,serif" font-size="14.00">disti_aj#3</text>
</a>
</g>
</g>
<!-- http://example.org/assign11 -->
<g id="node13" class="node"><title>http://example.org/assign11</title>
<g id="a_node13"><a xlink:href="http://example.org/assign11" xlink:title="assign11">
<polygon fill="#9fb1fc" stroke="#0000ff" points="626.646,-363 561.646,-363 561.646,-327 626.646,-327 626.646,-363"/>
<text text-anchor="middle" x="594.146" y="-341.3" font-family="Times New Roman,serif" font-size="14.00">assign11</text>
</a>
</g>
</g>
<!-- http://example.org/disti_aj#3&#45;&gt;http://example.org/assign11 -->
<g id="edge17" class="edge"><title>http://example.org/disti_aj#3&#45;&gt;http://example.org/assign11</title>
<path fill="none" stroke="black" d="M80.8071,-284.888C89.0483,-287.179 97.8565,-289.387 106.146,-291 268.96,-322.674 466.283,-336.821 551.53,-341.784"/>
<polygon fill="black" stroke="black" points="551.419,-345.283 561.602,-342.357 551.817,-338.294 551.419,-345.283"/>
<text text-anchor="middle" x="91.4833" y="-272.452" font-family="Times New Roman,serif" font-size="8.00">gen</text>
</g>
<!-- http://example.org/ikj#2 -->
<g id="node15" class="node"><title>http://example.org/ikj#2</title>
<ellipse fill="none" stroke="black" cx="115.146" cy="-417" rx="96.3833" ry="18"/>
<text text-anchor="middle" x="115.146" y="-413.3" font-family="Times New Roman,serif" font-size="14.00">http://example.org/ikj#2</text>
</g>
<!-- http://example.org/disti_aj#3&#45;&gt;http://example.org/ikj#2 -->
<g id="edge16" class="edge"><title>http://example.org/disti_aj#3&#45;&gt;http://example.org/ikj#2</title>
<path fill="none" stroke="black" d="M54.3321,-290.847C66.1989,-315.268 88.2919,-360.735 102.33,-389.625"/>
<polygon fill="black" stroke="black" points="99.2366,-391.268 106.755,-398.732 105.533,-388.208 99.2366,-391.268"/>
<text text-anchor="middle" x="69.294" y="-290.015" font-family="Times New Roman,serif" font-size="8.00">der</text>
</g>
<!-- &#45;attrs0 -->
<g id="node2" class="node"><title>&#45;attrs0</title>
<polygon fill="none" stroke="gray" points="77.6459,-219 8.64591,-219 8.64591,-170 83.6459,-170 83.6459,-213 77.6459,-219"/>
<polyline fill="none" stroke="gray" points="77.6459,-219 77.6459,-213 "/>
<polyline fill="none" stroke="gray" points="83.6459,-213 77.6459,-213 "/>
<text text-anchor="start" x="19.1459" y="-204.5" font-family="Times New Roman,serif" font-size="10.00">value:</text>
<text text-anchor="start" x="46.1459" y="-204.5" font-family="Times New Roman,serif" font-size="10.00">3</text>
<text text-anchor="start" x="19.1459" y="-191.5" font-family="Times New Roman,serif" font-size="10.00">type:</text>
<text text-anchor="start" x="46.1459" y="-191.5" font-family="Times New Roman,serif" font-size="10.00">access</text>
<text text-anchor="start" x="19.1459" y="-178.5" font-family="Times New Roman,serif" font-size="10.00">label:</text>
<text text-anchor="start" x="46.1459" y="-178.5" font-family="Times New Roman,serif" font-size="10.00">disti[j]</text>
</g>
<!-- &#45;attrs0&#45;&gt;http://example.org/disti_aj#3 -->
<g id="edge1" class="edge"><title>&#45;attrs0&#45;&gt;http://example.org/disti_aj#3</title>
<path fill="none" stroke="gray" stroke-dasharray="5,2" d="M46.1459,-219.286C46.1459,-230.69 46.1459,-244.105 46.1459,-254.548"/>
</g>
<!-- http://example.org/disti#3 -->
<g id="node3" class="node"><title>http://example.org/disti#3</title>
<g id="a_node3"><a xlink:href="http://example.org/disti#3" xlink:title="disti#3">
<ellipse fill="#fffc87" stroke="#808080" cx="352.146" cy="-194.5" rx="35.194" ry="18"/>
<text text-anchor="middle" x="352.146" y="-190.8" font-family="Times New Roman,serif" font-size="14.00">disti#3</text>
</a>
</g>
</g>
<!-- http://example.org/disti#3&#45;&gt;http://example.org/disti_aj#3 -->
<g id="edge5" class="edge"><title>http://example.org/disti#3&#45;&gt;http://example.org/disti_aj#3</title>
<path fill="none" stroke="black" d="M320.593,-202.719C273.69,-213.543 182.858,-234.863 106.146,-255 101.483,-256.224 96.6262,-257.537 91.7849,-258.87"/>
<polygon fill="black" stroke="black" points="90.6292,-255.559 81.9355,-261.614 92.5079,-262.302 90.6292,-255.559"/>
<text text-anchor="middle" x="316.218" y="-215.166" font-family="Times New Roman,serif" font-size="8.00">[ ]</text>
</g>
<!-- http://example.org/list20 -->
<g id="node5" class="node"><title>http://example.org/list20</title>
<ellipse fill="none" stroke="black" cx="245.146" cy="-273" rx="97.4827" ry="18"/>
<text text-anchor="middle" x="245.146" y="-269.3" font-family="Times New Roman,serif" font-size="14.00">http://example.org/list20</text>
</g>
<!-- http://example.org/disti#3&#45;&gt;http://example.org/list20 -->
<g id="edge3" class="edge"><title>http://example.org/disti#3&#45;&gt;http://example.org/list20</title>
<path fill="none" stroke="black" d="M332.52,-209.531C316.966,-220.652 294.922,-236.412 276.868,-249.32"/>
<polygon fill="black" stroke="black" points="274.471,-246.732 268.372,-255.395 278.542,-252.426 274.471,-246.732"/>
<text text-anchor="middle" x="333.975" y="-222.561" font-family="Times New Roman,serif" font-size="8.00">[ ]</text>
</g>
<!-- http://example.org/list22 -->
<g id="node6" class="node"><title>http://example.org/list22</title>
<ellipse fill="none" stroke="black" cx="458.146" cy="-273" rx="97.4827" ry="18"/>
<text text-anchor="middle" x="458.146" y="-269.3" font-family="Times New Roman,serif" font-size="14.00">http://example.org/list22</text>
</g>
<!-- http://example.org/disti#3&#45;&gt;http://example.org/list22 -->
<g id="edge4" class="edge"><title>http://example.org/disti#3&#45;&gt;http://example.org/list22</title>
<path fill="none" stroke="black" d="M371.588,-209.531C386.997,-220.652 408.835,-236.412 426.72,-249.32"/>
<polygon fill="black" stroke="black" points="424.98,-252.381 435.137,-255.395 429.077,-246.705 424.98,-252.381"/>
<text text-anchor="middle" x="385.272" y="-201.487" font-family="Times New Roman,serif" font-size="8.00">[ ]</text>
</g>
<!-- http://example.org/disti#3&#45;&gt;http://example.org/assign11 -->
<g id="edge24" class="edge"><title>http://example.org/disti#3&#45;&gt;http://example.org/assign11</title>
<path fill="none" stroke="black" d="M317.744,-198.578C244.772,-206.348 85.3858,-230.614 139.146,-291 166.334,-321.538 443.468,-337.215 551.425,-342.2"/>
<polygon fill="black" stroke="black" points="551.484,-345.706 561.632,-342.663 551.801,-338.713 551.484,-345.706"/>
<text text-anchor="middle" x="311.813" y="-210.456" font-family="Times New Roman,serif" font-size="8.00">gen</text>
</g>
<!-- &#45;attrs1 -->
<g id="node4" class="node"><title>&#45;attrs1</title>
<polygon fill="none" stroke="gray" points="384.146,-134 314.146,-134 314.146,-85 390.146,-85 390.146,-128 384.146,-134"/>
<polyline fill="none" stroke="gray" points="384.146,-134 384.146,-128 "/>
<polyline fill="none" stroke="gray" points="390.146,-128 384.146,-128 "/>
<text text-anchor="start" x="324.146" y="-119.5" font-family="Times New Roman,serif" font-size="10.00">value:</text>
<text text-anchor="start" x="351.146" y="-119.5" font-family="Times New Roman,serif" font-size="10.00">[2, 3, 0]</text>
<text text-anchor="start" x="324.146" y="-106.5" font-family="Times New Roman,serif" font-size="10.00">type:</text>
<text text-anchor="start" x="351.146" y="-106.5" font-family="Times New Roman,serif" font-size="10.00">list</text>
<text text-anchor="start" x="324.146" y="-93.5" font-family="Times New Roman,serif" font-size="10.00">label:</text>
<text text-anchor="start" x="351.146" y="-93.5" font-family="Times New Roman,serif" font-size="10.00">disti</text>
</g>
<!-- &#45;attrs1&#45;&gt;http://example.org/disti#3 -->
<g id="edge2" class="edge"><title>&#45;attrs1&#45;&gt;http://example.org/disti#3</title>
<path fill="none" stroke="gray" stroke-dasharray="5,2" d="M352.146,-134.062C352.146,-147.578 352.146,-164.236 352.146,-176.475"/>
</g>
<!-- http://example.org/dist#2 -->
<g id="node7" class="node"><title>http://example.org/dist#2</title>
<g id="a_node7"><a xlink:href="http://example.org/dist#2" xlink:title="dist#2">
<ellipse fill="#fffc87" stroke="#808080" cx="731.146" cy="-109.5" rx="33.2948" ry="18"/>
<text text-anchor="middle" x="731.146" y="-105.8" font-family="Times New Roman,serif" font-size="14.00">dist#2</text>
</a>
</g>
</g>
<!-- http://example.org/dist#2&#45;&gt;http://example.org/disti#3 -->
<g id="edge9" class="edge"><title>http://example.org/dist#2&#45;&gt;http://example.org/disti#3</title>
<path fill="none" stroke="black" d="M700.771,-117.152C633.192,-131.952 470.329,-167.618 393.535,-184.436"/>
<polygon fill="black" stroke="black" points="392.749,-181.025 383.729,-186.583 394.246,-187.863 392.749,-181.025"/>
<text text-anchor="middle" x="696.224" y="-129.546" font-family="Times New Roman,serif" font-size="8.00">[ ]</text>
</g>
<!-- http://example.org/list0 -->
<g id="node9" class="node"><title>http://example.org/list0</title>
<ellipse fill="none" stroke="black" cx="792.146" cy="-194.5" rx="92.8835" ry="18"/>
<text text-anchor="middle" x="792.146" y="-190.8" font-family="Times New Roman,serif" font-size="14.00">http://example.org/list0</text>
</g>
<!-- http://example.org/dist#2&#45;&gt;http://example.org/list0 -->
<g id="edge7" class="edge"><title>http://example.org/dist#2&#45;&gt;http://example.org/list0</title>
<path fill="none" stroke="black" d="M742.907,-126.503C751.541,-138.251 763.445,-154.448 773.386,-167.974"/>
<polygon fill="black" stroke="black" points="770.838,-170.418 779.581,-176.403 776.479,-166.272 770.838,-170.418"/>
<text text-anchor="middle" x="757.816" y="-122.954" font-family="Times New Roman,serif" font-size="8.00">[ ]</text>
</g>
<!-- http://example.org/list1 -->
<g id="node10" class="node"><title>http://example.org/list1</title>
<ellipse fill="none" stroke="black" cx="996.146" cy="-194.5" rx="92.8835" ry="18"/>
<text text-anchor="middle" x="996.146" y="-190.8" font-family="Times New Roman,serif" font-size="14.00">http://example.org/list1</text>
</g>
<!-- http://example.org/dist#2&#45;&gt;http://example.org/list1 -->
<g id="edge8" class="edge"><title>http://example.org/dist#2&#45;&gt;http://example.org/list1</title>
<path fill="none" stroke="black" d="M759.506,-119.382C802.331,-132.796 884.368,-158.49 939.681,-175.815"/>
<polygon fill="black" stroke="black" points="938.752,-179.191 949.341,-178.84 940.844,-172.511 938.752,-179.191"/>
<text text-anchor="middle" x="770.545" y="-107.328" font-family="Times New Roman,serif" font-size="8.00">[ ]</text>
</g>
<!-- http://example.org/dist#2&#45;&gt;http://example.org/assign11 -->
<g id="edge25" class="edge"><title>http://example.org/dist#2&#45;&gt;http://example.org/assign11</title>
<path fill="none" stroke="black" d="M718.263,-126.356C709.386,-137.9 697.846,-154.215 690.146,-170 665.434,-220.662 682.438,-243.464 652.146,-291 645.216,-301.874 635.496,-311.944 625.991,-320.321"/>
<polygon fill="black" stroke="black" points="623.522,-317.825 618.123,-326.941 628.028,-323.181 623.522,-317.825"/>
<text text-anchor="middle" x="724.068" y="-138.287" font-family="Times New Roman,serif" font-size="8.00">gen</text>
</g>
<!-- &#45;attrs2 -->
<g id="node8" class="node"><title>&#45;attrs2</title>
<polygon fill="none" stroke="gray" points="808.146,-49 648.146,-49 648.146,-0 814.146,-0 814.146,-43 808.146,-49"/>
<polyline fill="none" stroke="gray" points="808.146,-49 808.146,-43 "/>
<polyline fill="none" stroke="gray" points="814.146,-43 808.146,-43 "/>
<text text-anchor="start" x="658.146" y="-34.5" font-family="Times New Roman,serif" font-size="10.00">value:</text>
<text text-anchor="start" x="685.146" y="-34.5" font-family="Times New Roman,serif" font-size="10.00">[[0, 1, 4], [10000, 0, 2], [2, 3, 0]]</text>
<text text-anchor="start" x="658.146" y="-21.5" font-family="Times New Roman,serif" font-size="10.00">type:</text>
<text text-anchor="start" x="685.146" y="-21.5" font-family="Times New Roman,serif" font-size="10.00">list</text>
<text text-anchor="start" x="658.146" y="-8.5" font-family="Times New Roman,serif" font-size="10.00">label:</text>
<text text-anchor="start" x="685.146" y="-8.5" font-family="Times New Roman,serif" font-size="10.00">dist</text>
</g>
<!-- &#45;attrs2&#45;&gt;http://example.org/dist#2 -->
<g id="edge6" class="edge"><title>&#45;attrs2&#45;&gt;http://example.org/dist#2</title>
<path fill="none" stroke="gray" stroke-dasharray="5,2" d="M731.146,-49.0625C731.146,-62.5778 731.146,-79.2361 731.146,-91.4752"/>
</g>
<!-- http://example.org/result#2 -->
<g id="node11" class="node"><title>http://example.org/result#2</title>
<g id="a_node11"><a xlink:href="http://example.org/result#2" xlink:title="result#2">
<ellipse fill="#fffc87" stroke="#808080" cx="955.146" cy="-109.5" rx="39.7935" ry="18"/>
<text text-anchor="middle" x="955.146" y="-105.8" font-family="Times New Roman,serif" font-size="14.00">result#2</text>
</a>
</g>
</g>
<!-- http://example.org/result#2&#45;&gt;http://example.org/disti#3 -->
<g id="edge13" class="edge"><title>http://example.org/result#2&#45;&gt;http://example.org/disti#3</title>
<path fill="none" stroke="black" d="M917.426,-115.692C811.038,-130.336 508.994,-171.911 395.746,-187.499"/>
<polygon fill="black" stroke="black" points="395.133,-184.05 385.704,-188.881 396.088,-190.985 395.133,-184.05"/>
<text text-anchor="middle" x="911.767" y="-127.684" font-family="Times New Roman,serif" font-size="8.00">[ ]</text>
</g>
<!-- http://example.org/result#2&#45;&gt;http://example.org/list0 -->
<g id="edge11" class="edge"><title>http://example.org/result#2&#45;&gt;http://example.org/list0</title>
<path fill="none" stroke="black" d="M929.677,-123.469C903.711,-136.691 863.037,-157.402 832.647,-172.877"/>
<polygon fill="black" stroke="black" points="830.897,-169.84 823.574,-177.497 834.073,-176.078 830.897,-169.84"/>
<text text-anchor="middle" x="928.888" y="-136.548" font-family="Times New Roman,serif" font-size="8.00">[ ]</text>
</g>
<!-- http://example.org/result#2&#45;&gt;http://example.org/list1 -->
<g id="edge12" class="edge"><title>http://example.org/result#2&#45;&gt;http://example.org/list1</title>
<path fill="none" stroke="black" d="M963.443,-127.296C969.129,-138.808 976.785,-154.306 983.26,-167.413"/>
<polygon fill="black" stroke="black" points="980.154,-169.028 987.721,-176.444 986.43,-165.928 980.154,-169.028"/>
<text text-anchor="middle" x="978.411" y="-126.367" font-family="Times New Roman,serif" font-size="8.00">[ ]</text>
</g>
<!-- http://example.org/result#2&#45;&gt;http://example.org/assign11 -->
<g id="edge26" class="edge"><title>http://example.org/result#2&#45;&gt;http://example.org/assign11</title>
<path fill="none" stroke="black" d="M993.231,-114.727C1027.17,-120.735 1074.94,-135.215 1098.15,-170 1110.23,-188.117 1111.56,-201.847 1098.15,-219 1040.77,-292.344 747.786,-328.716 636.818,-340.024"/>
<polygon fill="black" stroke="black" points="636.263,-336.562 626.661,-341.041 636.96,-343.527 636.263,-336.562"/>
<text text-anchor="middle" x="1003.09" y="-101.521" font-family="Times New Roman,serif" font-size="8.00">gen</text>
</g>
<!-- &#45;attrs3 -->
<g id="node12" class="node"><title>&#45;attrs3</title>
<polygon fill="none" stroke="gray" points="1032.15,-49 872.146,-49 872.146,-0 1038.15,-0 1038.15,-43 1032.15,-49"/>
<polyline fill="none" stroke="gray" points="1032.15,-49 1032.15,-43 "/>
<polyline fill="none" stroke="gray" points="1038.15,-43 1032.15,-43 "/>
<text text-anchor="start" x="882.146" y="-34.5" font-family="Times New Roman,serif" font-size="10.00">value:</text>
<text text-anchor="start" x="909.146" y="-34.5" font-family="Times New Roman,serif" font-size="10.00">[[0, 1, 4], [10000, 0, 2], [2, 3, 0]]</text>
<text text-anchor="start" x="882.146" y="-21.5" font-family="Times New Roman,serif" font-size="10.00">type:</text>
<text text-anchor="start" x="909.146" y="-21.5" font-family="Times New Roman,serif" font-size="10.00">name</text>
<text text-anchor="start" x="882.146" y="-8.5" font-family="Times New Roman,serif" font-size="10.00">label:</text>
<text text-anchor="start" x="909.146" y="-8.5" font-family="Times New Roman,serif" font-size="10.00">result</text>
</g>
<!-- &#45;attrs3&#45;&gt;http://example.org/result#2 -->
<g id="edge10" class="edge"><title>&#45;attrs3&#45;&gt;http://example.org/result#2</title>
<path fill="none" stroke="gray" stroke-dasharray="5,2" d="M955.146,-49.0625C955.146,-62.5778 955.146,-79.2361 955.146,-91.4752"/>
</g>
<!-- http://example.org/assign11&#45;&gt;http://example.org/ikj#2 -->
<g id="edge15" class="edge"><title>http://example.org/assign11&#45;&gt;http://example.org/ikj#2</title>
<path fill="none" stroke="black" d="M561.446,-349.768C494.985,-358.199 340.333,-379.39 211.146,-399 204.522,-400.005 197.666,-401.067 190.804,-402.15"/>
<polygon fill="black" stroke="black" points="190.096,-398.718 180.77,-403.745 191.196,-405.631 190.096,-398.718"/>
<text text-anchor="middle" x="555.669" y="-361.711" font-family="Times New Roman,serif" font-size="8.00">use</text>
</g>
<!-- http://example.org/assign11&#45;&gt;http://example.org/ikj#2 -->
<g id="edge21" class="edge"><title>http://example.org/assign11&#45;&gt;http://example.org/ikj#2</title>
<path fill="none" stroke="black" d="M561.515,-351.132C497.526,-360.322 351.849,-380.375 229.146,-399 219.253,-400.502 208.845,-402.129 198.496,-403.762"/>
<polygon fill="black" stroke="black" points="197.942,-400.306 188.612,-405.325 199.036,-407.22 197.942,-400.306"/>
<text text-anchor="middle" x="555.923" y="-363.151" font-family="Times New Roman,serif" font-size="8.00">use</text>
</g>
<!-- http://example.org/disti#2 -->
<g id="node16" class="node"><title>http://example.org/disti#2</title>
<ellipse fill="none" stroke="black" cx="993.146" cy="-417" rx="102.882" ry="18"/>
<text text-anchor="middle" x="993.146" y="-413.3" font-family="Times New Roman,serif" font-size="14.00">http://example.org/disti#2</text>
</g>
<!-- http://example.org/assign11&#45;&gt;http://example.org/disti#2 -->
<g id="edge18" class="edge"><title>http://example.org/assign11&#45;&gt;http://example.org/disti#2</title>
<path fill="none" stroke="black" d="M626.798,-351.728C688.895,-362.623 825.627,-386.611 913.355,-402.002"/>
<polygon fill="black" stroke="black" points="912.818,-405.461 923.273,-403.742 914.028,-398.566 912.818,-405.461"/>
<text text-anchor="middle" x="636.43" y="-338.329" font-family="Times New Roman,serif" font-size="8.00">use</text>
</g>
<!-- http://example.org/j#5 -->
<g id="node17" class="node"><title>http://example.org/j#5</title>
<ellipse fill="none" stroke="black" cx="1203.15" cy="-417" rx="89.8845" ry="18"/>
<text text-anchor="middle" x="1203.15" y="-413.3" font-family="Times New Roman,serif" font-size="14.00">http://example.org/j#5</text>
</g>
<!-- http://example.org/assign11&#45;&gt;http://example.org/j#5 -->
<g id="edge19" class="edge"><title>http://example.org/assign11&#45;&gt;http://example.org/j#5</title>
<path fill="none" stroke="black" d="M626.821,-348.608C707.97,-355.255 925.135,-374.081 1105.15,-399 1113.05,-400.094 1121.29,-401.347 1129.5,-402.666"/>
<polygon fill="black" stroke="black" points="1129.02,-406.135 1139.46,-404.302 1130.16,-399.228 1129.02,-406.135"/>
<text text-anchor="middle" x="635.374" y="-334.385" font-family="Times New Roman,serif" font-size="8.00">use</text>
</g>
<!-- http://example.org/disti_aj#2 -->
<g id="node18" class="node"><title>http://example.org/disti_aj#2</title>
<ellipse fill="none" stroke="black" cx="343.146" cy="-417" rx="113.98" ry="18"/>
<text text-anchor="middle" x="343.146" y="-413.3" font-family="Times New Roman,serif" font-size="14.00">http://example.org/disti_aj#2</text>
</g>
<!-- http://example.org/assign11&#45;&gt;http://example.org/disti_aj#2 -->
<g id="edge20" class="edge"><title>http://example.org/assign11&#45;&gt;http://example.org/disti_aj#2</title>
<path fill="none" stroke="black" d="M561.589,-355.08C522.418,-366.004 455.762,-384.593 406.358,-398.371"/>
<polygon fill="black" stroke="black" points="405.413,-395.001 396.72,-401.059 407.293,-401.744 405.413,-395.001"/>
<text text-anchor="middle" x="557.855" y="-367.707" font-family="Times New Roman,serif" font-size="8.00">use</text>
</g>
<!-- http://example.org/dist -->
<g id="node19" class="node"><title>http://example.org/dist</title>
<ellipse fill="none" stroke="black" cx="566.146" cy="-417" rx="91.784" ry="18"/>
<text text-anchor="middle" x="566.146" y="-413.3" font-family="Times New Roman,serif" font-size="14.00">http://example.org/dist</text>
</g>
<!-- http://example.org/assign11&#45;&gt;http://example.org/dist -->
<g id="edge22" class="edge"><title>http://example.org/assign11&#45;&gt;http://example.org/dist</title>
<path fill="none" stroke="black" d="M587.225,-363.303C584.071,-371.187 580.268,-380.696 576.764,-389.454"/>
<polygon fill="black" stroke="black" points="573.452,-388.311 572.988,-398.896 579.951,-390.911 573.452,-388.311"/>
<text text-anchor="middle" x="596.5" y="-373.191" font-family="Times New Roman,serif" font-size="8.00">use</text>
</g>
<!-- http://example.org/result -->
<g id="node20" class="node"><title>http://example.org/result</title>
<ellipse fill="none" stroke="black" cx="774.146" cy="-417" rx="98.2828" ry="18"/>
<text text-anchor="middle" x="774.146" y="-413.3" font-family="Times New Roman,serif" font-size="14.00">http://example.org/result</text>
</g>
<!-- http://example.org/assign11&#45;&gt;http://example.org/result -->
<g id="edge23" class="edge"><title>http://example.org/assign11&#45;&gt;http://example.org/result</title>
<path fill="none" stroke="black" d="M626.743,-358.676C654.103,-369.317 693.61,-384.681 724.839,-396.825"/>
<polygon fill="black" stroke="black" points="723.653,-400.119 734.242,-400.482 726.19,-393.595 723.653,-400.119"/>
<text text-anchor="middle" x="638.441" y="-347.388" font-family="Times New Roman,serif" font-size="8.00">use</text>
</g>
<!-- &#45;attrs4 -->
<g id="node14" class="node"><title>&#45;attrs4</title>
<polygon fill="none" stroke="gray" points="637.146,-291 573.146,-291 573.146,-255 643.146,-255 643.146,-285 637.146,-291"/>
<polyline fill="none" stroke="gray" points="637.146,-291 637.146,-285 "/>
<polyline fill="none" stroke="gray" points="643.146,-285 637.146,-285 "/>
<text text-anchor="start" x="583.146" y="-270" font-family="Times New Roman,serif" font-size="10.00">type:</text>
<text text-anchor="start" x="606.146" y="-270" font-family="Times New Roman,serif" font-size="10.00">assign</text>
</g>
<!-- &#45;attrs4&#45;&gt;http://example.org/assign11 -->
<g id="edge14" class="edge"><title>&#45;attrs4&#45;&gt;http://example.org/assign11</title>
<path fill="none" stroke="gray" stroke-dasharray="5,2" d="M604.685,-291.303C602.515,-302.154 599.729,-316.083 597.567,-326.896"/>
</g>
</g>
</svg>
