<?xml version="1.0" encoding="UTF-8" standalone="no"?>
<!DOCTYPE svg PUBLIC "-//W3C//DTD SVG 1.1//EN"
 "http://www.w3.org/Graphics/SVG/1.1/DTD/svg11.dtd">
<!-- Generated by graphviz version 2.38.0 (20140413.2041)
 -->
<!-- Title: PROV Pages: 1 -->
<svg width="1152pt" height="409pt"
 viewBox="0.00 0.00 1152.00 408.61" xmlns="http://www.w3.org/2000/svg" xmlns:xlink="http://www.w3.org/1999/xlink">
<g id="graph0" class="graph" transform="scale(0.858432 0.858432) rotate(0) translate(4 472)">
<title>PROV</title>
<polygon fill="white" stroke="none" points="-4,4 -4,-472 1337.98,-472 1337.98,4 -4,4"/>
<!-- http://example.org/disti_ak#5 -->
<g id="node1" class="node"><title>http://example.org/disti_ak#5</title>
<g id="a_node1"><a xlink:href="http://example.org/disti_ak#5" xlink:title="disti_ak#5">
<ellipse fill="#fafafa" stroke="#f0f0f0" cx="383.74" cy="-306" rx="48.1917" ry="18"/>
<text text-anchor="middle" x="383.74" y="-302.3" font-family="Times New Roman,serif" font-size="14.00" fill="#f0f0f0">disti_ak#5</text>
</a>
</g>
</g>
<!-- http://example.org/access45 -->
<g id="node2" class="node"><title>http://example.org/access45</title>
<g id="a_node2"><a xlink:href="http://example.org/access45" xlink:title="access45">
<polygon fill="#fafafa" stroke="#f0f0f0" points="400.74,-396 332.74,-396 332.74,-360 400.74,-360 400.74,-396"/>
<text text-anchor="middle" x="366.74" y="-374.3" font-family="Times New Roman,serif" font-size="14.00" fill="#f0f0f0">access45</text>
</a>
</g>
</g>
<!-- http://example.org/disti_ak#5&#45;&gt;http://example.org/access45 -->
<g id="edge16" class="edge"><title>http://example.org/disti_ak#5&#45;&gt;http://example.org/access45</title>
<path fill="none" stroke="#f0f0f0" d="M379.625,-323.945C377.732,-331.739 375.44,-341.178 373.316,-349.921"/>
<polygon fill="#f0f0f0" stroke="#f0f0f0" points="369.894,-349.181 370.935,-359.725 376.697,-350.833 369.894,-349.181"/>
<text text-anchor="middle" x="390.478" y="-332.399" font-family="Times New Roman,serif" font-size="8.00" fill="#f0f0f0">gen</text>
</g>
<!-- http://example.org/disti_aj#5 -->
<g id="node3" class="node"><title>http://example.org/disti_aj#5</title>
<ellipse fill="none" stroke="black" cx="113.74" cy="-450" rx="113.98" ry="18"/>
<text text-anchor="middle" x="113.74" y="-446.3" font-family="Times New Roman,serif" font-size="14.00">http://example.org/disti_aj#5</text>
</g>
<!-- http://example.org/disti_ak#5&#45;&gt;http://example.org/disti_aj#5 -->
<g id="edge1" class="edge"><title>http://example.org/disti_ak#5&#45;&gt;http://example.org/disti_aj#5</title>
<path fill="none" stroke="#f0f0f0" d="M356.864,-321.135C309.23,-346.187 209.764,-398.498 153.946,-427.854"/>
<polygon fill="#f0f0f0" stroke="#f0f0f0" points="152.268,-424.783 145.046,-432.535 155.526,-430.978 152.268,-424.783"/>
<text text-anchor="middle" x="356.273" y="-334.223" font-family="Times New Roman,serif" font-size="8.00" fill="#f0f0f0">der</text>
</g>
<!-- http://example.org/access45&#45;&gt;http://example.org/disti_aj#5 -->
<g id="edge11" class="edge"><title>http://example.org/access45&#45;&gt;http://example.org/disti_aj#5</title>
<path fill="none" stroke="#f0f0f0" d="M332.619,-388.441C292.997,-399.403 226.788,-417.722 177.544,-431.347"/>
<polygon fill="#f0f0f0" stroke="#f0f0f0" points="176.327,-428.052 167.622,-434.092 178.193,-434.798 176.327,-428.052"/>
<text text-anchor="middle" x="328.855" y="-401.06" font-family="Times New Roman,serif" font-size="8.00" fill="#f0f0f0">use</text>
</g>
<!-- http://example.org/disti#7 -->
<g id="node4" class="node"><title>http://example.org/disti#7</title>
<ellipse fill="none" stroke="black" cx="347.74" cy="-450" rx="102.882" ry="18"/>
<text text-anchor="middle" x="347.74" y="-446.3" font-family="Times New Roman,serif" font-size="14.00">http://example.org/disti#7</text>
</g>
<!-- http://example.org/access45&#45;&gt;http://example.org/disti#7 -->
<g id="edge2" class="edge"><title>http://example.org/access45&#45;&gt;http://example.org/disti#7</title>
<path fill="none" stroke="#f0f0f0" d="M362.043,-396.303C359.926,-404.102 357.378,-413.491 355.022,-422.171"/>
<polygon fill="#f0f0f0" stroke="#f0f0f0" points="351.624,-421.328 352.383,-431.896 358.38,-423.162 351.624,-421.328"/>
<text text-anchor="middle" x="372.615" y="-405.044" font-family="Times New Roman,serif" font-size="8.00" fill="#f0f0f0">use</text>
</g>
<!-- http://example.org/k#3 -->
<g id="node5" class="node"><title>http://example.org/k#3</title>
<ellipse fill="none" stroke="black" cx="560.74" cy="-450" rx="92.0841" ry="18"/>
<text text-anchor="middle" x="560.74" y="-446.3" font-family="Times New Roman,serif" font-size="14.00">http://example.org/k#3</text>
</g>
<!-- http://example.org/access45&#45;&gt;http://example.org/k#3 -->
<g id="edge3" class="edge"><title>http://example.org/access45&#45;&gt;http://example.org/k#3</title>
<path fill="none" stroke="#f0f0f0" d="M400.977,-391.353C430.876,-402.142 474.717,-417.961 508.914,-430.3"/>
<polygon fill="#f0f0f0" stroke="#f0f0f0" points="508.142,-433.742 518.736,-433.844 510.518,-427.158 508.142,-433.742"/>
<text text-anchor="middle" x="412.44" y="-379.78" font-family="Times New Roman,serif" font-size="8.00" fill="#f0f0f0">use</text>
</g>
<!-- http://example.org/distk_aj#5 -->
<g id="node6" class="node"><title>http://example.org/distk_aj#5</title>
<g id="a_node6"><a xlink:href="http://example.org/distk_aj#5" xlink:title="distk_aj#5">
<ellipse fill="#fafafa" stroke="#f0f0f0" cx="743.74" cy="-306" rx="48.1917" ry="18"/>
<text text-anchor="middle" x="743.74" y="-302.3" font-family="Times New Roman,serif" font-size="14.00" fill="#f0f0f0">distk_aj#5</text>
</a>
</g>
</g>
<!-- http://example.org/access46 -->
<g id="node7" class="node"><title>http://example.org/access46</title>
<g id="a_node7"><a xlink:href="http://example.org/access46" xlink:title="access46">
<polygon fill="#fafafa" stroke="#f0f0f0" points="851.74,-396 783.74,-396 783.74,-360 851.74,-360 851.74,-396"/>
<text text-anchor="middle" x="817.74" y="-374.3" font-family="Times New Roman,serif" font-size="14.00" fill="#f0f0f0">access46</text>
</a>
</g>
</g>
<!-- http://example.org/distk_aj#5&#45;&gt;http://example.org/access46 -->
<g id="edge18" class="edge"><title>http://example.org/distk_aj#5&#45;&gt;http://example.org/access46</title>
<path fill="none" stroke="#f0f0f0" d="M760.532,-322.884C769.934,-331.778 781.847,-343.047 792.365,-352.997"/>
<polygon fill="#f0f0f0" stroke="#f0f0f0" points="790.052,-355.626 799.722,-359.956 794.862,-350.541 790.052,-355.626"/>
<text text-anchor="middle" x="774.907" y="-316.701" font-family="Times New Roman,serif" font-size="8.00" fill="#f0f0f0">gen</text>
</g>
<!-- http://example.org/disti_aj#3 -->
<g id="node8" class="node"><title>http://example.org/disti_aj#3</title>
<ellipse fill="none" stroke="black" cx="784.74" cy="-450" rx="113.98" ry="18"/>
<text text-anchor="middle" x="784.74" y="-446.3" font-family="Times New Roman,serif" font-size="14.00">http://example.org/disti_aj#3</text>
</g>
<!-- http://example.org/distk_aj#5&#45;&gt;http://example.org/disti_aj#3 -->
<g id="edge4" class="edge"><title>http://example.org/distk_aj#5&#45;&gt;http://example.org/disti_aj#3</title>
<path fill="none" stroke="#f0f0f0" d="M748.685,-324.129C755.704,-348.436 768.623,-393.181 776.94,-421.987"/>
<polygon fill="#f0f0f0" stroke="#f0f0f0" points="773.64,-423.174 779.777,-431.811 780.365,-421.232 773.64,-423.174"/>
<text text-anchor="middle" x="763.247" y="-325.831" font-family="Times New Roman,serif" font-size="8.00" fill="#f0f0f0">der</text>
</g>
<!-- http://example.org/access46&#45;&gt;http://example.org/disti_aj#3 -->
<g id="edge13" class="edge"><title>http://example.org/access46&#45;&gt;http://example.org/disti_aj#3</title>
<path fill="none" stroke="#f0f0f0" d="M809.583,-396.303C805.826,-404.272 801.287,-413.9 797.122,-422.736"/>
<polygon fill="#f0f0f0" stroke="#f0f0f0" points="793.902,-421.358 792.803,-431.896 800.233,-424.343 793.902,-421.358"/>
<text text-anchor="middle" x="818.135" y="-406.727" font-family="Times New Roman,serif" font-size="8.00" fill="#f0f0f0">use</text>
</g>
<!-- http://example.org/distk#3 -->
<g id="node9" class="node"><title>http://example.org/distk#3</title>
<ellipse fill="none" stroke="black" cx="1021.74" cy="-450" rx="105.082" ry="18"/>
<text text-anchor="middle" x="1021.74" y="-446.3" font-family="Times New Roman,serif" font-size="14.00">http://example.org/distk#3</text>
</g>
<!-- http://example.org/access46&#45;&gt;http://example.org/distk#3 -->
<g id="edge5" class="edge"><title>http://example.org/access46&#45;&gt;http://example.org/distk#3</title>
<path fill="none" stroke="#f0f0f0" d="M851.885,-390.716C883.434,-401.542 930.832,-417.806 967.55,-430.405"/>
<polygon fill="#f0f0f0" stroke="#f0f0f0" points="966.523,-433.753 977.118,-433.689 968.795,-427.132 966.523,-433.753"/>
<text text-anchor="middle" x="863.195" y="-378.963" font-family="Times New Roman,serif" font-size="8.00" fill="#f0f0f0">use</text>
</g>
<!-- http://example.org/j#14 -->
<g id="node10" class="node"><title>http://example.org/j#14</title>
<ellipse fill="none" stroke="black" cx="1239.74" cy="-450" rx="94.4839" ry="18"/>
<text text-anchor="middle" x="1239.74" y="-446.3" font-family="Times New Roman,serif" font-size="14.00">http://example.org/j#14</text>
</g>
<!-- http://example.org/access46&#45;&gt;http://example.org/j#14 -->
<g id="edge6" class="edge"><title>http://example.org/access46&#45;&gt;http://example.org/j#14</title>
<path fill="none" stroke="#f0f0f0" d="M851.916,-384.669C918.841,-395.77 1068.7,-420.629 1161.31,-435.99"/>
<polygon fill="#f0f0f0" stroke="#f0f0f0" points="1160.76,-439.446 1171.19,-437.63 1161.9,-432.54 1160.76,-439.446"/>
<text text-anchor="middle" x="861.441" y="-371.181" font-family="Times New Roman,serif" font-size="8.00" fill="#f0f0f0">use</text>
</g>
<!-- http://example.org/sum#5 -->
<g id="node11" class="node"><title>http://example.org/sum#5</title>
<g id="a_node11"><a xlink:href="http://example.org/sum#5" xlink:title="sum#5">
<ellipse fill="#fafafa" stroke="#f0f0f0" cx="603.74" cy="-162" rx="35.194" ry="18"/>
<text text-anchor="middle" x="603.74" y="-158.3" font-family="Times New Roman,serif" font-size="14.00" fill="#f0f0f0">sum#5</text>
</a>
</g>
</g>
<!-- http://example.org/sum#5&#45;&gt;http://example.org/disti_ak#5 -->
<g id="edge7" class="edge"><title>http://example.org/sum#5&#45;&gt;http://example.org/disti_ak#5</title>
<path fill="none" stroke="#f0f0f0" d="M582.645,-176.616C543.828,-201.671 460.891,-255.203 415.33,-284.61"/>
<polygon fill="#f0f0f0" stroke="#f0f0f0" points="413.244,-281.791 406.74,-290.154 417.04,-287.672 413.244,-281.791"/>
<text text-anchor="middle" x="583.389" y="-189.697" font-family="Times New Roman,serif" font-size="8.00" fill="#f0f0f0">der</text>
</g>
<!-- http://example.org/sum#5&#45;&gt;http://example.org/distk_aj#5 -->
<g id="edge8" class="edge"><title>http://example.org/sum#5&#45;&gt;http://example.org/distk_aj#5</title>
<path fill="none" stroke="#f0f0f0" d="M618.989,-178.467C643.45,-203.277 691.625,-252.14 720.424,-281.351"/>
<polygon fill="#f0f0f0" stroke="#f0f0f0" points="718.137,-284.017 727.65,-288.68 723.122,-279.102 718.137,-284.017"/>
<text text-anchor="middle" x="633.505" y="-172.787" font-family="Times New Roman,serif" font-size="8.00" fill="#f0f0f0">der</text>
</g>
<!-- http://example.org/+5 -->
<g id="node12" class="node"><title>http://example.org/+5</title>
<g id="a_node12"><a xlink:href="http://example.org/+5" xlink:title="+5">
<polygon fill="#fafafa" stroke="#f0f0f0" points="630.74,-252 576.74,-252 576.74,-216 630.74,-216 630.74,-252"/>
<text text-anchor="middle" x="603.74" y="-230.3" font-family="Times New Roman,serif" font-size="14.00" fill="#f0f0f0">+5</text>
</a>
</g>
</g>
<!-- http://example.org/sum#5&#45;&gt;http://example.org/+5 -->
<g id="edge15" class="edge"><title>http://example.org/sum#5&#45;&gt;http://example.org/+5</title>
<path fill="none" stroke="#f0f0f0" d="M603.74,-180.303C603.74,-188.017 603.74,-197.288 603.74,-205.888"/>
<polygon fill="#f0f0f0" stroke="#f0f0f0" points="600.24,-205.896 603.74,-215.896 607.24,-205.896 600.24,-205.896"/>
<text text-anchor="middle" x="616.73" y="-185.903" font-family="Times New Roman,serif" font-size="8.00" fill="#f0f0f0">gen</text>
</g>
<!-- http://example.org/+5&#45;&gt;http://example.org/disti_ak#5 -->
<g id="edge10" class="edge"><title>http://example.org/+5&#45;&gt;http://example.org/disti_ak#5</title>
<path fill="none" stroke="#f0f0f0" d="M576.322,-243.724C539.377,-255.479 473.144,-276.553 428.816,-290.658"/>
<polygon fill="#f0f0f0" stroke="#f0f0f0" points="427.624,-287.364 419.156,-293.731 429.747,-294.034 427.624,-287.364"/>
<text text-anchor="middle" x="573.113" y="-256.477" font-family="Times New Roman,serif" font-size="8.00" fill="#f0f0f0">use</text>
</g>
<!-- http://example.org/+5&#45;&gt;http://example.org/distk_aj#5 -->
<g id="edge12" class="edge"><title>http://example.org/+5&#45;&gt;http://example.org/distk_aj#5</title>
<path fill="none" stroke="#f0f0f0" d="M631.066,-248.663C652.703,-259.481 683.136,-274.698 706.921,-286.59"/>
<polygon fill="#f0f0f0" stroke="#f0f0f0" points="705.495,-289.791 716.005,-291.132 708.626,-283.53 705.495,-289.791"/>
<text text-anchor="middle" x="643.583" y="-238.498" font-family="Times New Roman,serif" font-size="8.00" fill="#f0f0f0">use</text>
</g>
<!-- http://example.org/ikj#5 -->
<g id="node13" class="node"><title>http://example.org/ikj#5</title>
<g id="a_node13"><a xlink:href="http://example.org/ikj#5" xlink:title="ikj#5">
<ellipse fill="#fafafa" stroke="#f0f0f0" cx="603.74" cy="-18" rx="28.6953" ry="18"/>
<text text-anchor="middle" x="603.74" y="-14.3" font-family="Times New Roman,serif" font-size="14.00" fill="#f0f0f0">ikj#5</text>
</a>
</g>
</g>
<!-- http://example.org/ikj#5&#45;&gt;http://example.org/sum#5 -->
<g id="edge9" class="edge"><title>http://example.org/ikj#5&#45;&gt;http://example.org/sum#5</title>
<path fill="none" stroke="#f0f0f0" d="M599.276,-36.0469C596.805,-46.3698 593.988,-59.8472 592.74,-72 591.106,-87.9163 591.106,-92.0837 592.74,-108 593.617,-116.545 595.271,-125.745 597.034,-134.042"/>
<polygon fill="#f0f0f0" stroke="#f0f0f0" points="593.655,-134.972 599.276,-143.953 600.483,-133.427 593.655,-134.972"/>
<text text-anchor="middle" x="610.203" y="-44.4223" font-family="Times New Roman,serif" font-size="8.00" fill="#f0f0f0">der</text>
</g>
<!-- http://example.org/assign21 -->
<g id="node14" class="node"><title>http://example.org/assign21</title>
<g id="a_node14"><a xlink:href="http://example.org/assign21" xlink:title="assign21">
<polygon fill="#fafafa" stroke="#f0f0f0" points="667.24,-108 602.24,-108 602.24,-72 667.24,-72 667.24,-108"/>
<text text-anchor="middle" x="634.74" y="-86.3" font-family="Times New Roman,serif" font-size="14.00" fill="#f0f0f0">assign21</text>
</a>
</g>
</g>
<!-- http://example.org/ikj#5&#45;&gt;http://example.org/assign21 -->
<g id="edge17" class="edge"><title>http://example.org/ikj#5&#45;&gt;http://example.org/assign21</title>
<path fill="none" stroke="#f0f0f0" d="M611.086,-35.589C614.61,-43.5461 618.92,-53.2779 622.891,-62.2443"/>
<polygon fill="#f0f0f0" stroke="#f0f0f0" points="619.764,-63.827 627.013,-71.5532 626.164,-60.9925 619.764,-63.827"/>
<text text-anchor="middle" x="626.001" y="-35.2865" font-family="Times New Roman,serif" font-size="8.00" fill="#f0f0f0">gen</text>
</g>
<!-- http://example.org/assign21&#45;&gt;http://example.org/sum#5 -->
<g id="edge14" class="edge"><title>http://example.org/assign21&#45;&gt;http://example.org/sum#5</title>
<path fill="none" stroke="#f0f0f0" d="M627.077,-108.303C623.496,-116.391 619.157,-126.188 615.196,-135.131"/>
<polygon fill="#f0f0f0" stroke="#f0f0f0" points="611.95,-133.817 611.101,-144.378 618.351,-136.651 611.95,-133.817"/>
<text text-anchor="middle" x="635.918" y="-118.521" font-family="Times New Roman,serif" font-size="8.00" fill="#f0f0f0">use</text>
</g>
</g>
</svg>
