<?xml version="1.0" encoding="UTF-8" standalone="no"?>
<!DOCTYPE svg PUBLIC "-//W3C//DTD SVG 1.1//EN"
 "http://www.w3.org/Graphics/SVG/1.1/DTD/svg11.dtd">
<!-- Generated by graphviz version 2.38.0 (20140413.2041)
 -->
<!-- Title: PROV Pages: 1 -->
<svg width="658pt" height="188pt"
 viewBox="0.00 0.00 658.08 188.00" xmlns="http://www.w3.org/2000/svg" xmlns:xlink="http://www.w3.org/1999/xlink">
<g id="graph0" class="graph" transform="scale(1 1) rotate(0) translate(4 184)">
<title>PROV</title>
<polygon fill="white" stroke="none" points="-4,4 -4,-184 654.082,-184 654.082,4 -4,4"/>
<!-- http://example.org/disti_aj#8 -->
<g id="node1" class="node"><title>http://example.org/disti_aj#8</title>
<g id="a_node1"><a xlink:href="http://example.org/disti_aj#8" xlink:title="disti_aj#8">
<ellipse fill="#fafafa" stroke="#f0f0f0" cx="245.84" cy="-18" rx="46.2923" ry="18"/>
<text text-anchor="middle" x="245.84" y="-14.3" font-family="Times New Roman,serif" font-size="14.00" fill="#f0f0f0">disti_aj#8</text>
</a>
</g>
</g>
<!-- http://example.org/access54 -->
<g id="node2" class="node"><title>http://example.org/access54</title>
<g id="a_node2"><a xlink:href="http://example.org/access54" xlink:title="access54">
<polygon fill="#fafafa" stroke="#f0f0f0" points="331.84,-108 263.84,-108 263.84,-72 331.84,-72 331.84,-108"/>
<text text-anchor="middle" x="297.84" y="-86.3" font-family="Times New Roman,serif" font-size="14.00" fill="#f0f0f0">access54</text>
</a>
</g>
</g>
<!-- http://example.org/disti_aj#8&#45;&gt;http://example.org/access54 -->
<g id="edge5" class="edge"><title>http://example.org/disti_aj#8&#45;&gt;http://example.org/access54</title>
<path fill="none" stroke="#f0f0f0" d="M258.164,-35.589C264.326,-43.8847 271.921,-54.1094 278.812,-63.3846"/>
<polygon fill="#f0f0f0" stroke="#f0f0f0" points="276.107,-65.6129 284.88,-71.5532 281.726,-61.4386 276.107,-65.6129"/>
<text text-anchor="middle" x="273.064" y="-31.9631" font-family="Times New Roman,serif" font-size="8.00" fill="#f0f0f0">gen</text>
</g>
<!-- http://example.org/matrix10 -->
<g id="node3" class="node"><title>http://example.org/matrix10</title>
<ellipse fill="none" stroke="black" cx="109.84" cy="-162" rx="109.681" ry="18"/>
<text text-anchor="middle" x="109.84" y="-158.3" font-family="Times New Roman,serif" font-size="14.00">http://example.org/matrix10</text>
</g>
<!-- http://example.org/disti_aj#8&#45;&gt;http://example.org/matrix10 -->
<g id="edge1" class="edge"><title>http://example.org/disti_aj#8&#45;&gt;http://example.org/matrix10</title>
<path fill="none" stroke="#f0f0f0" d="M230.504,-35.0132C206.782,-59.7819 161.027,-107.555 133.183,-136.628"/>
<polygon fill="#f0f0f0" stroke="#f0f0f0" points="130.564,-134.301 126.175,-143.944 135.62,-139.143 130.564,-134.301"/>
<text text-anchor="middle" x="234.698" y="-47.5149" font-family="Times New Roman,serif" font-size="8.00" fill="#f0f0f0">der</text>
</g>
<!-- http://example.org/access54&#45;&gt;http://example.org/matrix10 -->
<g id="edge4" class="edge"><title>http://example.org/access54&#45;&gt;http://example.org/matrix10</title>
<path fill="none" stroke="#f0f0f0" d="M263.795,-103.676C235.192,-114.327 193.878,-129.71 161.247,-141.859"/>
<polygon fill="#f0f0f0" stroke="#f0f0f0" points="160.008,-138.586 151.858,-145.355 162.451,-145.146 160.008,-138.586"/>
<text text-anchor="middle" x="261.299" y="-116.567" font-family="Times New Roman,serif" font-size="8.00" fill="#f0f0f0">use</text>
</g>
<!-- http://example.org/disti#8 -->
<g id="node4" class="node"><title>http://example.org/disti#8</title>
<ellipse fill="none" stroke="black" cx="340.84" cy="-162" rx="102.882" ry="18"/>
<text text-anchor="middle" x="340.84" y="-158.3" font-family="Times New Roman,serif" font-size="14.00">http://example.org/disti#8</text>
</g>
<!-- http://example.org/access54&#45;&gt;http://example.org/disti#8 -->
<g id="edge2" class="edge"><title>http://example.org/access54&#45;&gt;http://example.org/disti#8</title>
<path fill="none" stroke="#f0f0f0" d="M308.469,-108.303C313.468,-116.441 319.531,-126.311 325.052,-135.299"/>
<polygon fill="#f0f0f0" stroke="#f0f0f0" points="322.117,-137.207 330.333,-143.896 328.081,-133.543 322.117,-137.207"/>
<text text-anchor="middle" x="323.464" y="-105.995" font-family="Times New Roman,serif" font-size="8.00" fill="#f0f0f0">use</text>
</g>
<!-- http://example.org/j#16 -->
<g id="node5" class="node"><title>http://example.org/j#16</title>
<ellipse fill="none" stroke="black" cx="555.84" cy="-162" rx="94.4839" ry="18"/>
<text text-anchor="middle" x="555.84" y="-158.3" font-family="Times New Roman,serif" font-size="14.00">http://example.org/j#16</text>
</g>
<!-- http://example.org/access54&#45;&gt;http://example.org/j#16 -->
<g id="edge3" class="edge"><title>http://example.org/access54&#45;&gt;http://example.org/j#16</title>
<path fill="none" stroke="#f0f0f0" d="M332.101,-100.295C373.351,-111.487 443.406,-130.494 494.153,-144.263"/>
<polygon fill="#f0f0f0" stroke="#f0f0f0" points="493.464,-147.703 504.031,-146.943 495.297,-140.947 493.464,-147.703"/>
<text text-anchor="middle" x="342.741" y="-87.8222" font-family="Times New Roman,serif" font-size="8.00" fill="#f0f0f0">use</text>
</g>
</g>
</svg>
