<?xml version="1.0" encoding="UTF-8" standalone="no"?>
<!DOCTYPE svg PUBLIC "-//W3C//DTD SVG 1.1//EN"
 "http://www.w3.org/Graphics/SVG/1.1/DTD/svg11.dtd">
<!-- Generated by graphviz version 2.38.0 (20140413.2041)
 -->
<!-- Title: PROV Pages: 1 -->
<svg width="1152pt" height="364pt"
 viewBox="0.00 0.00 1152.00 363.96" xmlns="http://www.w3.org/2000/svg" xmlns:xlink="http://www.w3.org/1999/xlink">
<g id="graph0" class="graph" transform="scale(0.821579 0.821579) rotate(0) translate(4 439)">
<title>PROV</title>
<polygon fill="white" stroke="none" points="-4,4 -4,-439 1398.18,-439 1398.18,4 -4,4"/>
<!-- http://example.org/disti_aj#9 -->
<g id="node1" class="node"><title>http://example.org/disti_aj#9</title>
<g id="a_node1"><a xlink:href="http://example.org/disti_aj#9" xlink:title="disti_aj#9">
<ellipse fill="#fffc87" stroke="#808080" cx="890.741" cy="-273" rx="46.2923" ry="18"/>
<text text-anchor="middle" x="890.741" y="-269.3" font-family="Times New Roman,serif" font-size="14.00">disti_aj#9</text>
</a>
</g>
</g>
<!-- http://example.org/assign24 -->
<g id="node13" class="node"><title>http://example.org/assign24</title>
<g id="a_node13"><a xlink:href="http://example.org/assign24" xlink:title="assign24">
<polygon fill="#9fb1fc" stroke="#0000ff" points="788.241,-363 723.241,-363 723.241,-327 788.241,-327 788.241,-363"/>
<text text-anchor="middle" x="755.741" y="-341.3" font-family="Times New Roman,serif" font-size="14.00">assign24</text>
</a>
</g>
</g>
<!-- http://example.org/disti_aj#9&#45;&gt;http://example.org/assign24 -->
<g id="edge30" class="edge"><title>http://example.org/disti_aj#9&#45;&gt;http://example.org/assign24</title>
<path fill="none" stroke="black" d="M864.069,-287.83C845.109,-297.661 819.263,-311.063 797.573,-322.309"/>
<polygon fill="black" stroke="black" points="795.83,-319.271 788.564,-326.981 799.052,-325.485 795.83,-319.271"/>
<text text-anchor="middle" x="863.391" y="-300.914" font-family="Times New Roman,serif" font-size="8.00">gen</text>
</g>
<!-- http://example.org/ikj#6 -->
<g id="node15" class="node"><title>http://example.org/ikj#6</title>
<ellipse fill="none" stroke="black" cx="989.741" cy="-417" rx="96.3833" ry="18"/>
<text text-anchor="middle" x="989.741" y="-413.3" font-family="Times New Roman,serif" font-size="14.00">http://example.org/ikj#6</text>
</g>
<!-- http://example.org/disti_aj#9&#45;&gt;http://example.org/ikj#6 -->
<g id="edge15" class="edge"><title>http://example.org/disti_aj#9&#45;&gt;http://example.org/ikj#6</title>
<path fill="none" stroke="black" d="M901.599,-290.542C913.466,-308.518 933.139,-338.017 950.741,-363 957.156,-372.105 964.342,-381.963 970.781,-390.679"/>
<polygon fill="black" stroke="black" points="968.145,-393 976.914,-398.944 973.766,-388.828 968.145,-393"/>
<text text-anchor="middle" x="916.571" y="-287.732" font-family="Times New Roman,serif" font-size="8.00">der</text>
</g>
<!-- &#45;attrs0 -->
<g id="node2" class="node"><title>&#45;attrs0</title>
<polygon fill="none" stroke="gray" points="788.241,-219 719.241,-219 719.241,-170 794.241,-170 794.241,-213 788.241,-219"/>
<polyline fill="none" stroke="gray" points="788.241,-219 788.241,-213 "/>
<polyline fill="none" stroke="gray" points="794.241,-213 788.241,-213 "/>
<text text-anchor="start" x="729.741" y="-204.5" font-family="Times New Roman,serif" font-size="10.00">value:</text>
<text text-anchor="start" x="756.741" y="-204.5" font-family="Times New Roman,serif" font-size="10.00">4</text>
<text text-anchor="start" x="729.741" y="-191.5" font-family="Times New Roman,serif" font-size="10.00">type:</text>
<text text-anchor="start" x="756.741" y="-191.5" font-family="Times New Roman,serif" font-size="10.00">access</text>
<text text-anchor="start" x="729.741" y="-178.5" font-family="Times New Roman,serif" font-size="10.00">label:</text>
<text text-anchor="start" x="756.741" y="-178.5" font-family="Times New Roman,serif" font-size="10.00">disti[j]</text>
</g>
<!-- &#45;attrs0&#45;&gt;http://example.org/disti_aj#9 -->
<g id="edge1" class="edge"><title>&#45;attrs0&#45;&gt;http://example.org/disti_aj#9</title>
<path fill="none" stroke="gray" stroke-dasharray="5,2" d="M794.424,-217.013C817.183,-230.006 845.563,-246.208 865.604,-257.65"/>
</g>
<!-- http://example.org/disti#9 -->
<g id="node3" class="node"><title>http://example.org/disti#9</title>
<g id="a_node3"><a xlink:href="http://example.org/disti#9" xlink:title="disti#9">
<ellipse fill="darkgreen" stroke="green" cx="665.741" cy="-194.5" rx="35.194" ry="18"/>
<text text-anchor="middle" x="665.741" y="-190.8" font-family="Times New Roman,serif" font-size="14.00" fill="green">disti#9</text>
</a>
</g>
</g>
<!-- http://example.org/disti#9&#45;&gt;http://example.org/disti_aj#9 -->
<g id="edge5" class="edge"><title>http://example.org/disti#9&#45;&gt;http://example.org/disti_aj#9</title>
<path fill="none" stroke="green" d="M688.148,-208.612C694.945,-212.274 702.525,-216.053 709.741,-219 716.153,-221.618 793.173,-243.933 844.655,-258.761"/>
<polygon fill="green" stroke="green" points="844.004,-262.215 854.582,-261.618 845.941,-255.488 844.004,-262.215"/>
<text text-anchor="middle" x="700.884" y="-198.788" font-family="Times New Roman,serif" font-size="8.00" fill="green">[ ]</text>
</g>
<!-- http://example.org/matrix11 -->
<g id="node5" class="node"><title>http://example.org/matrix11</title>
<ellipse fill="none" stroke="black" cx="552.741" cy="-273" rx="109.681" ry="18"/>
<text text-anchor="middle" x="552.741" y="-269.3" font-family="Times New Roman,serif" font-size="14.00">http://example.org/matrix11</text>
</g>
<!-- http://example.org/disti#9&#45;&gt;http://example.org/matrix11 -->
<g id="edge3" class="edge"><title>http://example.org/disti#9&#45;&gt;http://example.org/matrix11</title>
<path fill="none" stroke="green" d="M645.278,-209.354C628.732,-220.555 605.109,-236.548 585.873,-249.57"/>
<polygon fill="green" stroke="green" points="583.703,-246.812 577.384,-255.317 587.627,-252.609 583.703,-246.812"/>
<text text-anchor="middle" x="646.349" y="-222.415" font-family="Times New Roman,serif" font-size="8.00" fill="green">[ ]</text>
</g>
<!-- http://example.org/matrix12 -->
<g id="node6" class="node"><title>http://example.org/matrix12</title>
<ellipse fill="none" stroke="black" cx="276.741" cy="-273" rx="109.681" ry="18"/>
<text text-anchor="middle" x="276.741" y="-269.3" font-family="Times New Roman,serif" font-size="14.00">http://example.org/matrix12</text>
</g>
<!-- http://example.org/disti#9&#45;&gt;http://example.org/matrix12 -->
<g id="edge4" class="edge"><title>http://example.org/disti#9&#45;&gt;http://example.org/matrix12</title>
<path fill="none" stroke="green" d="M633.577,-201.825C572.818,-213.774 439.623,-239.968 354.26,-256.755"/>
<polygon fill="green" stroke="green" points="353.49,-253.34 344.353,-258.704 354.84,-260.208 353.49,-253.34"/>
<text text-anchor="middle" x="628.724" y="-214.119" font-family="Times New Roman,serif" font-size="8.00" fill="green">[ ]</text>
</g>
<!-- http://example.org/disti#9&#45;&gt;http://example.org/assign24 -->
<g id="edge31" class="edge"><title>http://example.org/disti#9&#45;&gt;http://example.org/assign24</title>
<path fill="none" stroke="green" d="M688.631,-208.43C715.156,-223.649 755.759,-247.767 759.741,-255 770.078,-273.776 768.052,-298.303 764.018,-316.853"/>
<polygon fill="green" stroke="green" points="760.578,-316.183 761.564,-326.732 767.372,-317.871 760.578,-316.183"/>
<text text-anchor="middle" x="701.62" y="-199.028" font-family="Times New Roman,serif" font-size="8.00" fill="green">gen</text>
</g>
<!-- http://example.org/disti#9&#45;&gt;http://example.org/ikj#6 -->
<g id="edge17" class="edge"><title>http://example.org/disti#9&#45;&gt;http://example.org/ikj#6</title>
<path fill="none" stroke="green" d="M689.481,-208.2C696.042,-211.704 703.165,-215.503 709.741,-219 739.934,-235.055 748.918,-236.598 777.741,-255 814.381,-278.392 911.648,-354.342 960.656,-392.977"/>
<polygon fill="green" stroke="green" points="958.637,-395.842 968.656,-399.29 962.974,-390.347 958.637,-395.842"/>
<text text-anchor="middle" x="702.216" y="-198.374" font-family="Times New Roman,serif" font-size="8.00" fill="green">der</text>
</g>
<!-- http://example.org/disti#8 -->
<g id="node16" class="node"><title>http://example.org/disti#8</title>
<ellipse fill="none" stroke="black" cx="321.741" cy="-417" rx="102.882" ry="18"/>
<text text-anchor="middle" x="321.741" y="-413.3" font-family="Times New Roman,serif" font-size="14.00">http://example.org/disti#8</text>
</g>
<!-- http://example.org/disti#9&#45;&gt;http://example.org/disti#8 -->
<g id="edge16" class="edge"><title>http://example.org/disti#9&#45;&gt;http://example.org/disti#8</title>
<path fill="none" stroke="green" d="M630.776,-196.977C582.452,-200.576 494.362,-212.899 433.741,-255 407.796,-273.019 360.624,-349.495 336.625,-390.224"/>
<polygon fill="green" stroke="green" points="333.492,-388.648 331.46,-399.046 339.533,-392.185 333.492,-388.648"/>
<text text-anchor="middle" x="624.433" y="-208.67" font-family="Times New Roman,serif" font-size="8.00" fill="green">der</text>
</g>
<!-- &#45;attrs1 -->
<g id="node4" class="node"><title>&#45;attrs1</title>
<polygon fill="none" stroke="green" points="697.741,-134 627.741,-134 627.741,-85 703.741,-85 703.741,-128 697.741,-134"/>
<polyline fill="none" stroke="green" points="697.741,-134 697.741,-128 "/>
<polyline fill="none" stroke="green" points="703.741,-128 697.741,-128 "/>
<text text-anchor="start" x="637.741" y="-119.5" font-family="Times New Roman,serif" font-size="10.00" fill="green">value:</text>
<text text-anchor="start" x="664.741" y="-119.5" font-family="Times New Roman,serif" font-size="10.00" fill="green">[4, 0, 2]</text>
<text text-anchor="start" x="637.741" y="-106.5" font-family="Times New Roman,serif" font-size="10.00" fill="green">type:</text>
<text text-anchor="start" x="664.741" y="-106.5" font-family="Times New Roman,serif" font-size="10.00" fill="green">list</text>
<text text-anchor="start" x="637.741" y="-93.5" font-family="Times New Roman,serif" font-size="10.00" fill="green">label:</text>
<text text-anchor="start" x="664.741" y="-93.5" font-family="Times New Roman,serif" font-size="10.00" fill="green">disti</text>
</g>
<!-- &#45;attrs1&#45;&gt;http://example.org/disti#9 -->
<g id="edge2" class="edge"><title>&#45;attrs1&#45;&gt;http://example.org/disti#9</title>
<path fill="none" stroke="green" stroke-dasharray="5,2" d="M665.741,-134.062C665.741,-147.578 665.741,-164.236 665.741,-176.475"/>
</g>
<!-- http://example.org/dist#4 -->
<g id="node7" class="node"><title>http://example.org/dist#4</title>
<g id="a_node7"><a xlink:href="http://example.org/dist#4" xlink:title="dist#4">
<ellipse fill="darkgreen" stroke="green" cx="788.741" cy="-109.5" rx="33.2948" ry="18"/>
<text text-anchor="middle" x="788.741" y="-105.8" font-family="Times New Roman,serif" font-size="14.00" fill="green">dist#4</text>
</a>
</g>
</g>
<!-- http://example.org/dist#4&#45;&gt;http://example.org/disti#9 -->
<g id="edge9" class="edge"><title>http://example.org/dist#4&#45;&gt;http://example.org/disti#9</title>
<path fill="none" stroke="green" d="M768.705,-124.02C748.633,-137.565 717.531,-158.552 694.76,-173.918"/>
<polygon fill="green" stroke="green" points="692.51,-171.214 686.178,-179.709 696.425,-177.017 692.51,-171.214"/>
<text text-anchor="middle" x="769.755" y="-137.083" font-family="Times New Roman,serif" font-size="8.00" fill="green">[ ]</text>
</g>
<!-- http://example.org/disti#3 -->
<g id="node9" class="node"><title>http://example.org/disti#3</title>
<ellipse fill="none" stroke="black" cx="953.741" cy="-194.5" rx="102.882" ry="18"/>
<text text-anchor="middle" x="953.741" y="-190.8" font-family="Times New Roman,serif" font-size="14.00">http://example.org/disti#3</text>
</g>
<!-- http://example.org/dist#4&#45;&gt;http://example.org/disti#3 -->
<g id="edge7" class="edge"><title>http://example.org/dist#4&#45;&gt;http://example.org/disti#3</title>
<path fill="none" stroke="green" d="M812.382,-122.392C838.497,-135.529 881.031,-156.925 912.631,-172.82"/>
<polygon fill="green" stroke="green" points="911.137,-175.987 921.643,-177.354 914.282,-169.733 911.137,-175.987"/>
<text text-anchor="middle" x="824.919" y="-112.257" font-family="Times New Roman,serif" font-size="8.00" fill="green">[ ]</text>
</g>
<!-- http://example.org/disti#5 -->
<g id="node10" class="node"><title>http://example.org/disti#5</title>
<ellipse fill="none" stroke="black" cx="1176.74" cy="-194.5" rx="102.882" ry="18"/>
<text text-anchor="middle" x="1176.74" y="-190.8" font-family="Times New Roman,serif" font-size="14.00">http://example.org/disti#5</text>
</g>
<!-- http://example.org/dist#4&#45;&gt;http://example.org/disti#5 -->
<g id="edge8" class="edge"><title>http://example.org/dist#4&#45;&gt;http://example.org/disti#5</title>
<path fill="none" stroke="green" d="M819.187,-117.013C880.191,-130.063 1018.87,-159.729 1104.48,-178.042"/>
<polygon fill="green" stroke="green" points="1103.88,-181.492 1114.39,-180.162 1105.34,-174.647 1103.88,-181.492"/>
<text text-anchor="middle" x="829.238" y="-103.979" font-family="Times New Roman,serif" font-size="8.00" fill="green">[ ]</text>
</g>
<!-- http://example.org/dist#4&#45;&gt;http://example.org/assign24 -->
<g id="edge28" class="edge"><title>http://example.org/dist#4&#45;&gt;http://example.org/assign24</title>
<path fill="none" stroke="green" d="M761.11,-119.666C746.765,-124.265 728.902,-129.748 712.741,-134 464.832,-199.226 -15.337,-101.904 157.741,-291 195.125,-331.844 582.469,-341.399 713.04,-343.467"/>
<polygon fill="green" stroke="green" points="713.019,-346.967 723.071,-343.619 713.125,-339.968 713.019,-346.967"/>
<text text-anchor="middle" x="757.911" y="-132.421" font-family="Times New Roman,serif" font-size="8.00" fill="green">gen</text>
</g>
<!-- http://example.org/dist#4&#45;&gt;http://example.org/ikj#6 -->
<g id="edge19" class="edge"><title>http://example.org/dist#4&#45;&gt;http://example.org/ikj#6</title>
<path fill="none" stroke="green" d="M792.723,-127.689C799.095,-151.468 813.806,-194.259 841.741,-219 878.358,-251.43 912.323,-219.283 945.741,-255 980.368,-292.008 988.218,-353.601 989.717,-388.909"/>
<polygon fill="green" stroke="green" points="986.22,-389.07 990,-398.967 993.217,-388.872 986.22,-389.07"/>
<text text-anchor="middle" x="807.264" y="-129.474" font-family="Times New Roman,serif" font-size="8.00" fill="green">der</text>
</g>
<!-- http://example.org/dist#3 -->
<g id="node17" class="node"><title>http://example.org/dist#3</title>
<ellipse fill="none" stroke="black" cx="100.741" cy="-417" rx="100.983" ry="18"/>
<text text-anchor="middle" x="100.741" y="-413.3" font-family="Times New Roman,serif" font-size="14.00">http://example.org/dist#3</text>
</g>
<!-- http://example.org/dist#4&#45;&gt;http://example.org/dist#3 -->
<g id="edge18" class="edge"><title>http://example.org/dist#4&#45;&gt;http://example.org/dist#3</title>
<path fill="none" stroke="green" d="M762.048,-120.473C747.651,-125.411 729.453,-130.955 712.741,-134 647.691,-145.851 165.787,-123.539 118.741,-170 60.001,-228.01 79.5241,-338.16 92.747,-389.021"/>
<polygon fill="green" stroke="green" points="89.4413,-390.203 95.4426,-398.934 96.196,-388.366 89.4413,-390.203"/>
<text text-anchor="middle" x="759.103" y="-133.281" font-family="Times New Roman,serif" font-size="8.00" fill="green">der</text>
</g>
<!-- &#45;attrs2 -->
<g id="node8" class="node"><title>&#45;attrs2</title>
<polygon fill="none" stroke="green" points="856.741,-49 714.741,-49 714.741,-0 862.741,-0 862.741,-43 856.741,-49"/>
<polyline fill="none" stroke="green" points="856.741,-49 856.741,-43 "/>
<polyline fill="none" stroke="green" points="862.741,-43 856.741,-43 "/>
<text text-anchor="start" x="724.741" y="-34.5" font-family="Times New Roman,serif" font-size="10.00" fill="green">value:</text>
<text text-anchor="start" x="751.741" y="-34.5" font-family="Times New Roman,serif" font-size="10.00" fill="green">[[0, 1, 3], [4, 0, 2], [2, 3, 0]]</text>
<text text-anchor="start" x="724.741" y="-21.5" font-family="Times New Roman,serif" font-size="10.00" fill="green">type:</text>
<text text-anchor="start" x="751.741" y="-21.5" font-family="Times New Roman,serif" font-size="10.00" fill="green">list</text>
<text text-anchor="start" x="724.741" y="-8.5" font-family="Times New Roman,serif" font-size="10.00" fill="green">label:</text>
<text text-anchor="start" x="751.741" y="-8.5" font-family="Times New Roman,serif" font-size="10.00" fill="green">dist</text>
</g>
<!-- &#45;attrs2&#45;&gt;http://example.org/dist#4 -->
<g id="edge6" class="edge"><title>&#45;attrs2&#45;&gt;http://example.org/dist#4</title>
<path fill="none" stroke="green" stroke-dasharray="5,2" d="M788.741,-49.0625C788.741,-62.5778 788.741,-79.2361 788.741,-91.4752"/>
</g>
<!-- http://example.org/result#4 -->
<g id="node11" class="node"><title>http://example.org/result#4</title>
<g id="a_node11"><a xlink:href="http://example.org/result#4" xlink:title="result#4">
<ellipse fill="darkgreen" stroke="green" cx="1241.74" cy="-109.5" rx="39.7935" ry="18"/>
<text text-anchor="middle" x="1241.74" y="-105.8" font-family="Times New Roman,serif" font-size="14.00" fill="green">result#4</text>
</a>
</g>
</g>
<!-- http://example.org/result#4&#45;&gt;http://example.org/disti#9 -->
<g id="edge13" class="edge"><title>http://example.org/result#4&#45;&gt;http://example.org/disti#9</title>
<path fill="none" stroke="green" d="M1201.99,-109.886C1112.11,-109.578 887.26,-114.899 709.741,-170 705.125,-171.433 700.43,-173.358 695.91,-175.492"/>
<polygon fill="green" stroke="green" points="694.265,-172.403 686.96,-180.078 697.456,-178.633 694.265,-172.403"/>
<text text-anchor="middle" x="1194.54" y="-121.006" font-family="Times New Roman,serif" font-size="8.00" fill="green">[ ]</text>
</g>
<!-- http://example.org/result#4&#45;&gt;http://example.org/disti#3 -->
<g id="edge11" class="edge"><title>http://example.org/result#4&#45;&gt;http://example.org/disti#3</title>
<path fill="none" stroke="green" d="M1209.26,-119.86C1162.09,-133.454 1073.79,-158.904 1014.37,-176.027"/>
<polygon fill="green" stroke="green" points="1013.37,-172.674 1004.73,-178.806 1015.3,-179.4 1013.37,-172.674"/>
<text text-anchor="middle" x="1205.65" y="-132.519" font-family="Times New Roman,serif" font-size="8.00" fill="green">[ ]</text>
</g>
<!-- http://example.org/result#4&#45;&gt;http://example.org/disti#5 -->
<g id="edge12" class="edge"><title>http://example.org/result#4&#45;&gt;http://example.org/disti#5</title>
<path fill="none" stroke="green" d="M1228.9,-126.898C1219.58,-138.792 1206.82,-155.091 1196.25,-168.589"/>
<polygon fill="green" stroke="green" points="1193.41,-166.535 1190,-176.566 1198.92,-170.851 1193.41,-166.535"/>
<text text-anchor="middle" x="1234.5" y="-138.912" font-family="Times New Roman,serif" font-size="8.00" fill="green">[ ]</text>
</g>
<!-- http://example.org/result#4&#45;&gt;http://example.org/assign24 -->
<g id="edge29" class="edge"><title>http://example.org/result#4&#45;&gt;http://example.org/assign24</title>
<path fill="none" stroke="green" d="M1258.13,-126.227C1279.49,-148.63 1311.57,-190.203 1288.74,-219 1227.41,-296.377 914.564,-330.491 798.847,-340.6"/>
<polygon fill="green" stroke="green" points="798.265,-337.137 788.599,-341.477 798.862,-344.112 798.265,-337.137"/>
<text text-anchor="middle" x="1272.78" y="-121.073" font-family="Times New Roman,serif" font-size="8.00" fill="green">gen</text>
</g>
<!-- http://example.org/result#4&#45;&gt;http://example.org/ikj#6 -->
<g id="edge21" class="edge"><title>http://example.org/result#4&#45;&gt;http://example.org/ikj#6</title>
<path fill="none" stroke="green" d="M1264.69,-124.229C1279.75,-134.669 1298.17,-150.538 1306.74,-170 1315.52,-189.931 1317.06,-199.821 1306.74,-219 1253.57,-317.848 1127.21,-373.123 1051.06,-398.534"/>
<polygon fill="green" stroke="green" points="1049.54,-395.348 1041.12,-401.777 1051.71,-402.003 1049.54,-395.348"/>
<text text-anchor="middle" x="1278.35" y="-116.126" font-family="Times New Roman,serif" font-size="8.00" fill="green">der</text>
</g>
<!-- http://example.org/result#3 -->
<g id="node18" class="node"><title>http://example.org/result#3</title>
<ellipse fill="none" stroke="black" cx="1240.74" cy="-417" rx="107.482" ry="18"/>
<text text-anchor="middle" x="1240.74" y="-413.3" font-family="Times New Roman,serif" font-size="14.00">http://example.org/result#3</text>
</g>
<!-- http://example.org/result#4&#45;&gt;http://example.org/result#3 -->
<g id="edge20" class="edge"><title>http://example.org/result#4&#45;&gt;http://example.org/result#3</title>
<path fill="none" stroke="green" d="M1277.24,-117.816C1305.03,-125.613 1341.88,-140.988 1359.74,-170 1404.71,-243.043 1406.45,-291.058 1359.74,-363 1349.1,-379.395 1332.07,-390.761 1314.19,-398.624"/>
<polygon fill="green" stroke="green" points="1312.75,-395.432 1304.79,-402.425 1315.38,-401.921 1312.75,-395.432"/>
<text text-anchor="middle" x="1288.15" y="-105.627" font-family="Times New Roman,serif" font-size="8.00" fill="green">der</text>
</g>
<!-- &#45;attrs3 -->
<g id="node12" class="node"><title>&#45;attrs3</title>
<polygon fill="none" stroke="green" points="1309.74,-49 1167.74,-49 1167.74,-0 1315.74,-0 1315.74,-43 1309.74,-49"/>
<polyline fill="none" stroke="green" points="1309.74,-49 1309.74,-43 "/>
<polyline fill="none" stroke="green" points="1315.74,-43 1309.74,-43 "/>
<text text-anchor="start" x="1177.74" y="-34.5" font-family="Times New Roman,serif" font-size="10.00" fill="green">value:</text>
<text text-anchor="start" x="1204.74" y="-34.5" font-family="Times New Roman,serif" font-size="10.00" fill="green">[[0, 1, 3], [4, 0, 2], [2, 3, 0]]</text>
<text text-anchor="start" x="1177.74" y="-21.5" font-family="Times New Roman,serif" font-size="10.00" fill="green">type:</text>
<text text-anchor="start" x="1204.74" y="-21.5" font-family="Times New Roman,serif" font-size="10.00" fill="green">name</text>
<text text-anchor="start" x="1177.74" y="-8.5" font-family="Times New Roman,serif" font-size="10.00" fill="green">label:</text>
<text text-anchor="start" x="1204.74" y="-8.5" font-family="Times New Roman,serif" font-size="10.00" fill="green">result</text>
</g>
<!-- &#45;attrs3&#45;&gt;http://example.org/result#4 -->
<g id="edge10" class="edge"><title>&#45;attrs3&#45;&gt;http://example.org/result#4</title>
<path fill="none" stroke="green" stroke-dasharray="5,2" d="M1241.74,-49.0625C1241.74,-62.5778 1241.74,-79.2361 1241.74,-91.4752"/>
</g>
<!-- http://example.org/assign24&#45;&gt;http://example.org/ikj#6 -->
<g id="edge26" class="edge"><title>http://example.org/assign24&#45;&gt;http://example.org/ikj#6</title>
<path fill="none" stroke="green" d="M788.254,-358.098C793.092,-359.8 798.033,-361.484 802.741,-363 843.55,-376.145 889.913,-389.297 926.265,-399.211"/>
<polygon fill="green" stroke="green" points="925.673,-402.677 936.24,-401.919 927.506,-395.922 925.673,-402.677"/>
<text text-anchor="middle" x="799.63" y="-346.421" font-family="Times New Roman,serif" font-size="8.00" fill="green">use</text>
</g>
<!-- http://example.org/assign24&#45;&gt;http://example.org/disti#8 -->
<g id="edge27" class="edge"><title>http://example.org/assign24&#45;&gt;http://example.org/disti#8</title>
<path fill="none" stroke="green" d="M723.121,-351.261C656.102,-362.071 501.117,-387.068 404.533,-402.646"/>
<polygon fill="green" stroke="green" points="403.82,-399.216 394.505,-404.264 404.935,-406.127 403.82,-399.216"/>
<text text-anchor="middle" x="717.785" y="-363.38" font-family="Times New Roman,serif" font-size="8.00" fill="green">use</text>
</g>
<!-- http://example.org/assign24&#45;&gt;http://example.org/dist#3 -->
<g id="edge24" class="edge"><title>http://example.org/assign24&#45;&gt;http://example.org/dist#3</title>
<path fill="none" stroke="green" d="M723.05,-348.508C638.179,-355.164 403.908,-374.456 209.741,-399 200.811,-400.129 191.485,-401.416 182.211,-402.766"/>
<polygon fill="green" stroke="green" points="181.568,-399.323 172.189,-404.25 182.593,-406.247 181.568,-399.323"/>
<text text-anchor="middle" x="716.605" y="-360.153" font-family="Times New Roman,serif" font-size="8.00" fill="green">use</text>
</g>
<!-- http://example.org/assign24&#45;&gt;http://example.org/result#3 -->
<g id="edge25" class="edge"><title>http://example.org/assign24&#45;&gt;http://example.org/result#3</title>
<path fill="none" stroke="green" d="M788.316,-350.702C861.844,-361.314 1042.78,-387.429 1152.26,-403.23"/>
<polygon fill="green" stroke="green" points="1151.9,-406.714 1162.3,-404.679 1152.9,-399.786 1151.9,-406.714"/>
<text text-anchor="middle" x="797.595" y="-337.016" font-family="Times New Roman,serif" font-size="8.00" fill="green">use</text>
</g>
<!-- http://example.org/j#16 -->
<g id="node19" class="node"><title>http://example.org/j#16</title>
<ellipse fill="none" stroke="black" cx="781.741" cy="-417" rx="94.4839" ry="18"/>
<text text-anchor="middle" x="781.741" y="-413.3" font-family="Times New Roman,serif" font-size="14.00">http://example.org/j#16</text>
</g>
<!-- http://example.org/assign24&#45;&gt;http://example.org/j#16 -->
<g id="edge22" class="edge"><title>http://example.org/assign24&#45;&gt;http://example.org/j#16</title>
<path fill="none" stroke="black" d="M762.168,-363.303C765.096,-371.187 768.628,-380.696 771.881,-389.454"/>
<polygon fill="black" stroke="black" points="768.625,-390.74 775.388,-398.896 775.187,-388.303 768.625,-390.74"/>
<text text-anchor="middle" x="776.957" y="-363.911" font-family="Times New Roman,serif" font-size="8.00">use</text>
</g>
<!-- http://example.org/disti_aj#8 -->
<g id="node20" class="node"><title>http://example.org/disti_aj#8</title>
<ellipse fill="none" stroke="black" cx="555.741" cy="-417" rx="113.98" ry="18"/>
<text text-anchor="middle" x="555.741" y="-413.3" font-family="Times New Roman,serif" font-size="14.00">http://example.org/disti_aj#8</text>
</g>
<!-- http://example.org/assign24&#45;&gt;http://example.org/disti_aj#8 -->
<g id="edge23" class="edge"><title>http://example.org/assign24&#45;&gt;http://example.org/disti_aj#8</title>
<path fill="none" stroke="black" d="M723.162,-357.403C692.477,-368.143 645.937,-384.431 609.708,-397.112"/>
<polygon fill="black" stroke="black" points="608.544,-393.811 600.261,-400.418 610.856,-400.418 608.544,-393.811"/>
<text text-anchor="middle" x="720.375" y="-370.241" font-family="Times New Roman,serif" font-size="8.00">use</text>
</g>
<!-- &#45;attrs4 -->
<g id="node14" class="node"><title>&#45;attrs4</title>
<polygon fill="none" stroke="gray" points="744.741,-291 680.741,-291 680.741,-255 750.741,-255 750.741,-285 744.741,-291"/>
<polyline fill="none" stroke="gray" points="744.741,-291 744.741,-285 "/>
<polyline fill="none" stroke="gray" points="750.741,-285 744.741,-285 "/>
<text text-anchor="start" x="690.741" y="-270" font-family="Times New Roman,serif" font-size="10.00">type:</text>
<text text-anchor="start" x="713.741" y="-270" font-family="Times New Roman,serif" font-size="10.00">assign</text>
</g>
<!-- &#45;attrs4&#45;&gt;http://example.org/assign24 -->
<g id="edge14" class="edge"><title>&#45;attrs4&#45;&gt;http://example.org/assign24</title>
<path fill="none" stroke="gray" stroke-dasharray="5,2" d="M725.629,-291.303C731.829,-302.154 739.789,-316.083 745.967,-326.896"/>
</g>
</g>
</svg>
