<?xml version="1.0" encoding="UTF-8" standalone="no"?>
<!DOCTYPE svg PUBLIC "-//W3C//DTD SVG 1.1//EN"
 "http://www.w3.org/Graphics/SVG/1.1/DTD/svg11.dtd">
<!-- Generated by graphviz version 2.38.0 (20140413.2041)
 -->
<!-- Title: PROV Pages: 1 -->
<svg width="98pt" height="188pt"
 viewBox="0.00 0.00 98.50 188.00" xmlns="http://www.w3.org/2000/svg" xmlns:xlink="http://www.w3.org/1999/xlink">
<g id="graph0" class="graph" transform="scale(1 1) rotate(0) translate(4 184)">
<title>PROV</title>
<polygon fill="white" stroke="none" points="-4,4 -4,-184 94.4971,-184 94.4971,4 -4,4"/>
<!-- http://example.org/10000 -->
<g id="node1" class="node"><title>http://example.org/10000</title>
<g id="a_node1"><a xlink:href="http://example.org/10000" xlink:title="10000">
<ellipse fill="#fafafa" stroke="#f0f0f0" cx="32.4971" cy="-162" rx="32.4942" ry="18"/>
<text text-anchor="middle" x="32.4971" y="-158.3" font-family="Times New Roman,serif" font-size="14.00" fill="#f0f0f0">10000</text>
</a>
</g>
</g>
<!-- http://example.org/m -->
<g id="node2" class="node"><title>http://example.org/m</title>
<g id="a_node2"><a xlink:href="http://example.org/m" xlink:title="m">
<ellipse fill="#fafafa" stroke="#f0f0f0" cx="32.4971" cy="-18" rx="27" ry="18"/>
<text text-anchor="middle" x="32.4971" y="-14.3" font-family="Times New Roman,serif" font-size="14.00" fill="#f0f0f0">m</text>
</a>
</g>
</g>
<!-- http://example.org/m&#45;&gt;http://example.org/10000 -->
<g id="edge2" class="edge"><title>http://example.org/m&#45;&gt;http://example.org/10000</title>
<path fill="none" stroke="#f0f0f0" d="M28.8433,-36.0925C26.8213,-46.4315 24.5163,-59.9098 23.4971,-72 22.153,-87.9434 22.153,-92.0566 23.4971,-108 24.2138,-116.501 25.566,-125.688 27.0087,-133.988"/>
<polygon fill="#f0f0f0" stroke="#f0f0f0" points="23.583,-134.711 28.8433,-143.908 30.4662,-133.438 23.583,-134.711"/>
<text text-anchor="middle" x="40.1842" y="-44.0101" font-family="Times New Roman,serif" font-size="8.00" fill="#f0f0f0">der</text>
</g>
<!-- http://example.org/assign1 -->
<g id="node3" class="node"><title>http://example.org/assign1</title>
<g id="a_node3"><a xlink:href="http://example.org/assign1" xlink:title="assign1">
<polygon fill="#fafafa" stroke="#f0f0f0" points="90.4971,-108 32.4971,-108 32.4971,-72 90.4971,-72 90.4971,-108"/>
<text text-anchor="middle" x="61.4971" y="-86.3" font-family="Times New Roman,serif" font-size="14.00" fill="#f0f0f0">assign1</text>
</a>
</g>
</g>
<!-- http://example.org/m&#45;&gt;http://example.org/assign1 -->
<g id="edge3" class="edge"><title>http://example.org/m&#45;&gt;http://example.org/assign1</title>
<path fill="none" stroke="#f0f0f0" d="M39.3697,-35.589C42.6662,-43.5461 46.698,-53.2779 50.4126,-62.2443"/>
<polygon fill="#f0f0f0" stroke="#f0f0f0" points="47.2082,-63.6543 54.2692,-71.5532 53.6752,-60.975 47.2082,-63.6543"/>
<text text-anchor="middle" x="54.2415" y="-35.646" font-family="Times New Roman,serif" font-size="8.00" fill="#f0f0f0">gen</text>
</g>
<!-- http://example.org/assign1&#45;&gt;http://example.org/10000 -->
<g id="edge1" class="edge"><title>http://example.org/assign1&#45;&gt;http://example.org/10000</title>
<path fill="none" stroke="#f0f0f0" d="M54.3286,-108.303C50.9782,-116.391 46.9191,-126.188 43.2143,-135.131"/>
<polygon fill="#f0f0f0" stroke="#f0f0f0" points="39.9775,-133.8 39.3835,-144.378 46.4445,-136.479 39.9775,-133.8"/>
<text text-anchor="middle" x="63.4593" y="-118.304" font-family="Times New Roman,serif" font-size="8.00" fill="#f0f0f0">use</text>
</g>
</g>
</svg>
