<?xml version="1.0" encoding="UTF-8" standalone="no"?>
<!DOCTYPE svg PUBLIC "-//W3C//DTD SVG 1.1//EN"
 "http://www.w3.org/Graphics/SVG/1.1/DTD/svg11.dtd">
<!-- Generated by graphviz version 2.38.0 (20140413.2041)
 -->
<!-- Title: PROV Pages: 1 -->
<svg width="251pt" height="286pt"
 viewBox="0.00 0.00 251.00 286.00" xmlns="http://www.w3.org/2000/svg" xmlns:xlink="http://www.w3.org/1999/xlink">
<g id="graph0" class="graph" transform="scale(1 1) rotate(0) translate(4 282)">
<title>PROV</title>
<polygon fill="white" stroke="none" points="-4,4 -4,-282 247,-282 247,4 -4,4"/>
<!-- http://example.org/d -->
<g id="node1" class="node"><title>http://example.org/d</title>
<g id="a_node1"><a xlink:href="http://example.org/d" xlink:title="d">
<ellipse fill="#fffc87" stroke="#808080" cx="120" cy="-260" rx="27" ry="18"/>
<text text-anchor="middle" x="120" y="-256.3" font-family="Times New Roman,serif" font-size="14.00">d</text>
</a>
</g>
</g>
<!-- http://example.org/d&#45;attrs -->
<g id="node2" class="node"><title>http://example.org/d&#45;attrs</title>
<polygon fill="none" stroke="gray" points="124,-206 0,-206 0,-157 130,-157 130,-200 124,-206"/>
<polyline fill="none" stroke="gray" points="124,-206 124,-200 "/>
<polyline fill="none" stroke="gray" points="130,-200 124,-200 "/>
<text text-anchor="start" x="10" y="-191.5" font-family="Times New Roman,serif" font-size="10.00">value:</text>
<text text-anchor="start" x="37" y="-191.5" font-family="Times New Roman,serif" font-size="10.00">[10000, 10001, 10000]</text>
<text text-anchor="start" x="10" y="-178.5" font-family="Times New Roman,serif" font-size="10.00">type:</text>
<text text-anchor="start" x="37" y="-178.5" font-family="Times New Roman,serif" font-size="10.00">Dictionary</text>
<text text-anchor="start" x="10" y="-165.5" font-family="Times New Roman,serif" font-size="10.00">label:</text>
<text text-anchor="start" x="37" y="-165.5" font-family="Times New Roman,serif" font-size="10.00">d</text>
</g>
<!-- http://example.org/d&#45;attrs&#45;&gt;http://example.org/d -->
<g id="edge1" class="edge"><title>http://example.org/d&#45;attrs&#45;&gt;http://example.org/d</title>
<path fill="none" stroke="gray" stroke-dasharray="5,2" d="M82.1009,-206.286C90.8042,-218.391 101.137,-232.764 108.814,-243.441"/>
</g>
<!-- http://example.org/len_d -->
<g id="node3" class="node"><title>http://example.org/len_d</title>
<g id="a_node3"><a xlink:href="http://example.org/len_d" xlink:title="len_d">
<ellipse fill="#fffc87" stroke="#808080" cx="136" cy="-103" rx="30.5947" ry="18"/>
<text text-anchor="middle" x="136" y="-99.3" font-family="Times New Roman,serif" font-size="14.00">len_d</text>
</a>
</g>
</g>
<!-- http://example.org/call1 -->
<g id="node5" class="node"><title>http://example.org/call1</title>
<g id="a_node5"><a xlink:href="http://example.org/call1" xlink:title="call1">
<polygon fill="#9fb1fc" stroke="#0000ff" points="202,-199.5 148,-199.5 148,-163.5 202,-163.5 202,-199.5"/>
<text text-anchor="middle" x="175" y="-177.8" font-family="Times New Roman,serif" font-size="14.00">call1</text>
</a>
</g>
</g>
<!-- http://example.org/len_d&#45;&gt;http://example.org/call1 -->
<g id="edge5" class="edge"><title>http://example.org/len_d&#45;&gt;http://example.org/call1</title>
<path fill="none" stroke="black" d="M144.462,-120.599C149.503,-130.487 156.011,-143.252 161.723,-154.456"/>
<polygon fill="black" stroke="black" points="158.624,-156.084 166.284,-163.403 164.86,-152.905 158.624,-156.084"/>
<text text-anchor="middle" x="159.442" y="-119.481" font-family="Times New Roman,serif" font-size="8.00">gen</text>
</g>
<!-- http://example.org/len_d&#45;attrs -->
<g id="node4" class="node"><title>http://example.org/len_d&#45;attrs</title>
<polygon fill="none" stroke="gray" points="165.5,-49 100.5,-49 100.5,-0 171.5,-0 171.5,-43 165.5,-49"/>
<polyline fill="none" stroke="gray" points="165.5,-49 165.5,-43 "/>
<polyline fill="none" stroke="gray" points="171.5,-43 165.5,-43 "/>
<text text-anchor="start" x="111" y="-34.5" font-family="Times New Roman,serif" font-size="10.00">value:</text>
<text text-anchor="start" x="138" y="-34.5" font-family="Times New Roman,serif" font-size="10.00">3</text>
<text text-anchor="start" x="111" y="-21.5" font-family="Times New Roman,serif" font-size="10.00">type:</text>
<text text-anchor="start" x="138" y="-21.5" font-family="Times New Roman,serif" font-size="10.00">eval</text>
<text text-anchor="start" x="111" y="-8.5" font-family="Times New Roman,serif" font-size="10.00">label:</text>
<text text-anchor="start" x="138" y="-8.5" font-family="Times New Roman,serif" font-size="10.00">len(d)</text>
</g>
<!-- http://example.org/len_d&#45;attrs&#45;&gt;http://example.org/len_d -->
<g id="edge2" class="edge"><title>http://example.org/len_d&#45;attrs&#45;&gt;http://example.org/len_d</title>
<path fill="none" stroke="gray" stroke-dasharray="5,2" d="M136,-49.2857C136,-60.6896 136,-74.105 136,-84.5482"/>
</g>
<!-- http://example.org/call1&#45;&gt;http://example.org/d -->
<g id="edge4" class="edge"><title>http://example.org/call1&#45;&gt;http://example.org/d</title>
<path fill="none" stroke="black" d="M162.52,-199.859C154.993,-210.327 145.302,-223.807 137.073,-235.253"/>
<polygon fill="black" stroke="black" points="134.121,-233.364 131.125,-243.526 139.804,-237.45 134.121,-233.364"/>
<text text-anchor="middle" x="168.689" y="-211.632" font-family="Times New Roman,serif" font-size="8.00">use</text>
</g>
<!-- http://example.org/call1&#45;attrs -->
<g id="node6" class="node"><title>http://example.org/call1&#45;attrs</title>
<polygon fill="none" stroke="gray" points="237,-121 185,-121 185,-85 243,-85 243,-115 237,-121"/>
<polyline fill="none" stroke="gray" points="237,-121 237,-115 "/>
<polyline fill="none" stroke="gray" points="243,-115 237,-115 "/>
<text text-anchor="start" x="195" y="-107" font-family="Times New Roman,serif" font-size="10.00">type:</text>
<text text-anchor="start" x="219" y="-107" font-family="Times New Roman,serif" font-size="10.00">call</text>
<text text-anchor="start" x="195" y="-94" font-family="Times New Roman,serif" font-size="10.00">label:</text>
<text text-anchor="start" x="219" y="-94" font-family="Times New Roman,serif" font-size="10.00">len</text>
</g>
<!-- http://example.org/call1&#45;attrs&#45;&gt;http://example.org/call1 -->
<g id="edge3" class="edge"><title>http://example.org/call1&#45;attrs&#45;&gt;http://example.org/call1</title>
<path fill="none" stroke="gray" stroke-dasharray="5,2" d="M205.15,-121.359C198.723,-133.967 190.068,-150.943 183.68,-163.473"/>
</g>
</g>
</svg>
