<?xml version="1.0" encoding="UTF-8" standalone="no"?>
<!DOCTYPE svg PUBLIC "-//W3C//DTD SVG 1.1//EN"
 "http://www.w3.org/Graphics/SVG/1.1/DTD/svg11.dtd">
<!-- Generated by graphviz version 2.38.0 (20140413.2041)
 -->
<!-- Title: PROV Pages: 1 -->
<svg width="496pt" height="224pt"
 viewBox="0.00 0.00 496.28 224.00" xmlns="http://www.w3.org/2000/svg" xmlns:xlink="http://www.w3.org/1999/xlink">
<g id="graph0" class="graph" transform="scale(1 1) rotate(0) translate(4 220)">
<title>PROV</title>
<polygon fill="white" stroke="none" points="-4,4 -4,-220 492.279,-220 492.279,4 -4,4"/>
<!-- http://example.org/i#2 -->
<g id="node1" class="node"><title>http://example.org/i#2</title>
<g id="a_node1"><a xlink:href="http://example.org/i#2" xlink:title="i#2">
<ellipse fill="#fafafa" stroke="#f0f0f0" cx="255.941" cy="-18" rx="27" ry="18"/>
<text text-anchor="middle" x="255.941" y="-14.3" font-family="Times New Roman,serif" font-size="14.00" fill="#f0f0f0">i#2</text>
</a>
</g>
</g>
<!-- http://example.org/access4 -->
<g id="node2" class="node"><title>http://example.org/access4</title>
<g id="a_node2"><a xlink:href="http://example.org/access4" xlink:title="access4">
<polygon fill="#fafafa" stroke="#f0f0f0" points="262.441,-126 201.441,-126 201.441,-90 262.441,-90 262.441,-126"/>
<text text-anchor="middle" x="231.941" y="-104.3" font-family="Times New Roman,serif" font-size="14.00" fill="#f0f0f0">access4</text>
</a>
</g>
</g>
<!-- http://example.org/i#2&#45;&gt;http://example.org/access4 -->
<g id="edge6" class="edge"><title>http://example.org/i#2&#45;&gt;http://example.org/access4</title>
<path fill="none" stroke="#f0f0f0" d="M249.204,-35.5634C247.014,-41.3354 244.697,-47.8953 242.941,-54 240.566,-62.255 238.484,-71.3719 236.79,-79.6829"/>
<polygon fill="#f0f0f0" stroke="#f0f0f0" points="233.324,-79.17 234.857,-89.6534 240.196,-80.5022 233.324,-79.17"/>
<text text-anchor="middle" x="249.441" y="-65.6" font-family="Times New Roman,serif" font-size="8.00" fill="#f0f0f0">gen</text>
<text text-anchor="middle" x="249.441" y="-56.6" font-family="Times New Roman,serif" font-size="8.00" fill="#f0f0f0">14</text>
</g>
<!-- bn0 -->
<g id="node3" class="node"><title>bn0</title>
<ellipse fill="#f0f0f0" stroke="#f0f0f0" cx="281.941" cy="-108" rx="1.8" ry="1.8"/>
</g>
<!-- http://example.org/i#2&#45;&gt;bn0 -->
<g id="edge1" class="edge"><title>http://example.org/i#2&#45;&gt;bn0</title>
<path fill="none" stroke="#f0f0f0" d="M260.954,-35.9673C267.919,-59.5413 279.878,-100.018 281.704,-106.199"/>
<text text-anchor="middle" x="284.441" y="-65.6" font-family="Times New Roman,serif" font-size="8.00" fill="#f0f0f0">der ac&#45;r</text>
<text text-anchor="middle" x="284.441" y="-56.6" font-family="Times New Roman,serif" font-size="8.00" fill="#f0f0f0">14</text>
</g>
<!-- http://example.org/indexes -->
<g id="node4" class="node"><title>http://example.org/indexes</title>
<ellipse fill="none" stroke="black" cx="105.941" cy="-198" rx="105.881" ry="18"/>
<text text-anchor="middle" x="105.941" y="-194.3" font-family="Times New Roman,serif" font-size="14.00">http://example.org/indexes</text>
</g>
<!-- http://example.org/access4&#45;&gt;http://example.org/indexes -->
<g id="edge4" class="edge"><title>http://example.org/access4&#45;&gt;http://example.org/indexes</title>
<path fill="none" stroke="#f0f0f0" d="M207.347,-126.176C187.621,-139.953 159.771,-159.404 138.247,-174.437"/>
<polygon fill="#f0f0f0" stroke="#f0f0f0" points="136.238,-171.571 130.044,-180.166 140.246,-177.31 136.238,-171.571"/>
<text text-anchor="middle" x="208.637" y="-139.221" font-family="Times New Roman,serif" font-size="8.00" fill="#f0f0f0">use</text>
</g>
<!-- http://example.org/range_nodes1 -->
<g id="node5" class="node"><title>http://example.org/range_nodes1</title>
<ellipse fill="none" stroke="black" cx="358.941" cy="-198" rx="129.177" ry="18"/>
<text text-anchor="middle" x="358.941" y="-194.3" font-family="Times New Roman,serif" font-size="14.00">http://example.org/range_nodes1</text>
</g>
<!-- http://example.org/access4&#45;&gt;http://example.org/range_nodes1 -->
<g id="edge5" class="edge"><title>http://example.org/access4&#45;&gt;http://example.org/range_nodes1</title>
<path fill="none" stroke="#f0f0f0" d="M251.539,-126.076C264.354,-136.9 281.674,-150.901 297.941,-162 304.607,-166.548 311.897,-171.081 319.044,-175.303"/>
<polygon fill="#f0f0f0" stroke="#f0f0f0" points="317.555,-178.485 327.964,-180.462 321.06,-172.426 317.555,-178.485"/>
<text text-anchor="middle" x="303.441" y="-155.6" font-family="Times New Roman,serif" font-size="8.00" fill="#f0f0f0">use</text>
<text text-anchor="middle" x="303.441" y="-146.6" font-family="Times New Roman,serif" font-size="8.00" fill="#f0f0f0">14</text>
</g>
<!-- bn0&#45;&gt;http://example.org/indexes -->
<g id="edge2" class="edge"><title>bn0&#45;&gt;http://example.org/indexes</title>
<path fill="none" stroke="#f0f0f0" stroke-dasharray="5,2" d="M281.789,-109.92C280.783,-115.696 274.549,-147.198 255.941,-162 245.317,-170.451 219.525,-177.704 192.269,-183.38"/>
<polygon fill="#f0f0f0" stroke="#f0f0f0" points="191.304,-180.004 182.186,-185.399 192.678,-186.867 191.304,-180.004"/>
</g>
<!-- bn0&#45;&gt;http://example.org/range_nodes1 -->
<g id="edge3" class="edge"><title>bn0&#45;&gt;http://example.org/range_nodes1</title>
<path fill="none" stroke="#f0f0f0" d="M282.805,-109.988C288.12,-116.062 316.803,-148.843 337.397,-172.379"/>
<polygon fill="#f0f0f0" stroke="#f0f0f0" points="334.807,-174.733 344.026,-179.954 340.075,-170.124 334.807,-174.733"/>
<text text-anchor="middle" x="332.441" y="-151.1" font-family="Times New Roman,serif" font-size="8.00" fill="#f0f0f0">[1]</text>
</g>
</g>
</svg>
