<?xml version="1.0" encoding="UTF-8" standalone="no"?>
<!DOCTYPE svg PUBLIC "-//W3C//DTD SVG 1.1//EN"
 "http://www.w3.org/Graphics/SVG/1.1/DTD/svg11.dtd">
<!-- Generated by graphviz version 2.38.0 (20140413.2041)
 -->
<!-- Title: PROV Pages: 1 -->
<svg width="623pt" height="503pt"
 viewBox="0.00 0.00 622.58 503.00" xmlns="http://www.w3.org/2000/svg" xmlns:xlink="http://www.w3.org/1999/xlink">
<g id="graph0" class="graph" transform="scale(1 1) rotate(0) translate(4 499)">
<title>PROV</title>
<polygon fill="white" stroke="none" points="-4,4 -4,-499 618.582,-499 618.582,4 -4,4"/>
<!-- http://example.org/dist@k#1 -->
<g id="node1" class="node"><title>http://example.org/dist@k#1</title>
<g id="a_node1"><a xlink:href="http://example.org/dist@k#1" xlink:title="dist@k#1">
<ellipse fill="#fffc87" stroke="#808080" cx="290.291" cy="-297" rx="46.2923" ry="18"/>
<text text-anchor="middle" x="290.291" y="-293.3" font-family="Times New Roman,serif" font-size="14.00">dist@k#1</text>
</a>
</g>
</g>
<!-- http://example.org/access2 -->
<g id="node3" class="node"><title>http://example.org/access2</title>
<g id="a_node3"><a xlink:href="http://example.org/access2" xlink:title="access2">
<polygon fill="#fafafa" stroke="#f0f0f0" points="345.791,-405 284.791,-405 284.791,-369 345.791,-369 345.791,-405"/>
<text text-anchor="middle" x="315.291" y="-383.3" font-family="Times New Roman,serif" font-size="14.00" fill="#f0f0f0">access2</text>
</a>
</g>
</g>
<!-- http://example.org/dist@k#1&#45;&gt;http://example.org/access2 -->
<g id="edge12" class="edge"><title>http://example.org/dist@k#1&#45;&gt;http://example.org/access2</title>
<path fill="none" stroke="#f0f0f0" d="M295.111,-314.967C298.65,-327.426 303.531,-344.606 307.606,-358.95"/>
<polygon fill="#f0f0f0" stroke="#f0f0f0" points="304.3,-360.122 310.4,-368.785 311.034,-358.209 304.3,-360.122"/>
<text text-anchor="middle" x="311.791" y="-344.6" font-family="Times New Roman,serif" font-size="8.00" fill="#f0f0f0">gen</text>
<text text-anchor="middle" x="311.791" y="-335.6" font-family="Times New Roman,serif" font-size="8.00" fill="#f0f0f0">13</text>
</g>
<!-- bn0 -->
<g id="node4" class="node"><title>bn0</title>
<ellipse fill="#f0f0f0" stroke="#f0f0f0" cx="261.291" cy="-387" rx="1.8" ry="1.8"/>
</g>
<!-- http://example.org/dist@k#1&#45;&gt;bn0 -->
<g id="edge2" class="edge"><title>http://example.org/dist@k#1&#45;&gt;bn0</title>
<path fill="none" stroke="#f0f0f0" d="M279.272,-314.513C275.933,-320.171 272.554,-326.674 270.291,-333 263.246,-352.684 261.639,-378.499 261.347,-384.645"/>
<text text-anchor="middle" x="283.791" y="-344.6" font-family="Times New Roman,serif" font-size="8.00" fill="#f0f0f0">der ac&#45;r</text>
<text text-anchor="middle" x="283.791" y="-335.6" font-family="Times New Roman,serif" font-size="8.00" fill="#f0f0f0">13</text>
</g>
<!-- &#45;attrs0 -->
<g id="node2" class="node"><title>&#45;attrs0</title>
<polygon fill="none" stroke="gray" points="248.291,-225 178.291,-225 178.291,-176 254.291,-176 254.291,-219 248.291,-225"/>
<polyline fill="none" stroke="gray" points="248.291,-225 248.291,-219 "/>
<polyline fill="none" stroke="gray" points="254.291,-219 248.291,-219 "/>
<text text-anchor="start" x="188.291" y="-210.5" font-family="Times New Roman,serif" font-size="10.00">value:</text>
<text text-anchor="start" x="215.291" y="-210.5" font-family="Times New Roman,serif" font-size="10.00">[0, 1, 4]</text>
<text text-anchor="start" x="188.291" y="-197.5" font-family="Times New Roman,serif" font-size="10.00">type:</text>
<text text-anchor="start" x="215.291" y="-197.5" font-family="Times New Roman,serif" font-size="10.00">access</text>
<text text-anchor="start" x="188.291" y="-184.5" font-family="Times New Roman,serif" font-size="10.00">label:</text>
<text text-anchor="start" x="215.291" y="-184.5" font-family="Times New Roman,serif" font-size="10.00">dist[k]</text>
</g>
<!-- &#45;attrs0&#45;&gt;http://example.org/dist@k#1 -->
<g id="edge1" class="edge"><title>&#45;attrs0&#45;&gt;http://example.org/dist@k#1</title>
<path fill="none" stroke="gray" stroke-dasharray="5,2" d="M234.964,-225.346C248.237,-242.296 265.72,-264.622 277.448,-279.6"/>
</g>
<!-- http://example.org/dist -->
<g id="node5" class="node"><title>http://example.org/dist</title>
<ellipse fill="none" stroke="black" cx="320.291" cy="-477" rx="91.784" ry="18"/>
<text text-anchor="middle" x="320.291" y="-473.3" font-family="Times New Roman,serif" font-size="14.00">http://example.org/dist</text>
</g>
<!-- http://example.org/access2&#45;&gt;http://example.org/dist -->
<g id="edge5" class="edge"><title>http://example.org/access2&#45;&gt;http://example.org/dist</title>
<path fill="none" stroke="#f0f0f0" d="M316.278,-405.386C316.982,-417.76 317.94,-434.631 318.744,-448.78"/>
<polygon fill="#f0f0f0" stroke="#f0f0f0" points="315.26,-449.164 319.322,-458.95 322.249,-448.767 315.26,-449.164"/>
<text text-anchor="middle" x="329.673" y="-410.237" font-family="Times New Roman,serif" font-size="8.00" fill="#f0f0f0">use</text>
</g>
<!-- http://example.org/matrix0 -->
<g id="node6" class="node"><title>http://example.org/matrix0</title>
<ellipse fill="none" stroke="black" cx="105.291" cy="-477" rx="105.082" ry="18"/>
<text text-anchor="middle" x="105.291" y="-473.3" font-family="Times New Roman,serif" font-size="14.00">http://example.org/matrix0</text>
</g>
<!-- http://example.org/access2&#45;&gt;http://example.org/matrix0 -->
<g id="edge10" class="edge"><title>http://example.org/access2&#45;&gt;http://example.org/matrix0</title>
<path fill="none" stroke="#f0f0f0" d="M285.248,-405.07C265.02,-416.159 237.528,-430.458 212.291,-441 197.57,-447.149 181.36,-452.935 166.106,-457.964"/>
<polygon fill="#f0f0f0" stroke="#f0f0f0" points="164.681,-454.746 156.245,-461.156 166.837,-461.406 164.681,-454.746"/>
<text text-anchor="middle" x="255.791" y="-434.6" font-family="Times New Roman,serif" font-size="8.00" fill="#f0f0f0">use</text>
<text text-anchor="middle" x="255.791" y="-425.6" font-family="Times New Roman,serif" font-size="8.00" fill="#f0f0f0">13</text>
</g>
<!-- http://example.org/k#1 -->
<g id="node7" class="node"><title>http://example.org/k#1</title>
<ellipse fill="none" stroke="black" cx="522.291" cy="-477" rx="92.0841" ry="18"/>
<text text-anchor="middle" x="522.291" y="-473.3" font-family="Times New Roman,serif" font-size="14.00">http://example.org/k#1</text>
</g>
<!-- http://example.org/access2&#45;&gt;http://example.org/k#1 -->
<g id="edge6" class="edge"><title>http://example.org/access2&#45;&gt;http://example.org/k#1</title>
<path fill="none" stroke="#f0f0f0" d="M345.834,-400.985C380.296,-415.635 436.715,-439.62 476.463,-456.518"/>
<polygon fill="#f0f0f0" stroke="#f0f0f0" points="475.109,-459.745 485.682,-460.437 477.848,-453.303 475.109,-459.745"/>
<text text-anchor="middle" x="357.819" y="-390.064" font-family="Times New Roman,serif" font-size="8.00" fill="#f0f0f0">use</text>
</g>
<!-- bn0&#45;&gt;http://example.org/dist -->
<g id="edge3" class="edge"><title>bn0&#45;&gt;http://example.org/dist</title>
<path fill="none" stroke="#f0f0f0" stroke-dasharray="5,2" d="M261.316,-388.824C261.51,-394.018 263.117,-422.58 275.291,-441 278.151,-445.327 281.725,-449.349 285.602,-453.01"/>
<polygon fill="#f0f0f0" stroke="#f0f0f0" points="283.441,-455.767 293.323,-459.59 287.982,-450.44 283.441,-455.767"/>
</g>
<!-- bn0&#45;&gt;http://example.org/matrix0 -->
<g id="edge4" class="edge"><title>bn0&#45;&gt;http://example.org/matrix0</title>
<path fill="none" stroke="#f0f0f0" d="M260.294,-388.562C251.476,-393.536 186.079,-430.427 143.094,-454.675"/>
<polygon fill="#f0f0f0" stroke="#f0f0f0" points="141.28,-451.68 134.29,-459.641 144.72,-457.776 141.28,-451.68"/>
<text text-anchor="middle" x="202.791" y="-430.1" font-family="Times New Roman,serif" font-size="8.00" fill="#f0f0f0">[0]</text>
</g>
<!-- http://example.org/distk#1 -->
<g id="node8" class="node"><title>http://example.org/distk#1</title>
<g id="a_node8"><a xlink:href="http://example.org/distk#1" xlink:title="distk#1">
<ellipse fill="#fffc87" stroke="#808080" cx="306.291" cy="-104" rx="37.8943" ry="18"/>
<text text-anchor="middle" x="306.291" y="-100.3" font-family="Times New Roman,serif" font-size="14.00">distk#1</text>
</a>
</g>
</g>
<!-- http://example.org/distk#1&#45;&gt;http://example.org/dist@k#1 -->
<g id="edge8" class="edge"><title>http://example.org/distk#1&#45;&gt;http://example.org/dist@k#1</title>
<path fill="none" stroke="#f0f0f0" d="M304.481,-122.206C302.996,-136.578 300.886,-157.614 299.291,-176 296.534,-207.767 293.865,-244.309 292.159,-268.641"/>
<polygon fill="#f0f0f0" stroke="#f0f0f0" points="288.648,-268.681 291.447,-278.9 295.631,-269.167 288.648,-268.681"/>
<text text-anchor="middle" x="310.791" y="-203.1" font-family="Times New Roman,serif" font-size="8.00" fill="#f0f0f0">der ref</text>
<text text-anchor="middle" x="310.791" y="-194.1" font-family="Times New Roman,serif" font-size="8.00" fill="#f0f0f0">14</text>
</g>
<!-- http://example.org/assign7 -->
<g id="node10" class="node"><title>http://example.org/assign7</title>
<g id="a_node10"><a xlink:href="http://example.org/assign7" xlink:title="assign7">
<polygon fill="#fafafa" stroke="#f0f0f0" points="389.291,-218.5 331.291,-218.5 331.291,-182.5 389.291,-182.5 389.291,-218.5"/>
<text text-anchor="middle" x="360.291" y="-196.8" font-family="Times New Roman,serif" font-size="14.00" fill="#f0f0f0">assign7</text>
</a>
</g>
</g>
<!-- http://example.org/distk#1&#45;&gt;http://example.org/assign7 -->
<g id="edge11" class="edge"><title>http://example.org/distk#1&#45;&gt;http://example.org/assign7</title>
<path fill="none" stroke="#f0f0f0" d="M315.697,-121.461C323.906,-135.828 335.96,-156.921 345.466,-173.558"/>
<polygon fill="#f0f0f0" stroke="#f0f0f0" points="342.445,-175.324 350.445,-182.27 348.523,-171.851 342.445,-175.324"/>
<text text-anchor="middle" x="343.791" y="-151.6" font-family="Times New Roman,serif" font-size="8.00" fill="#f0f0f0">gen</text>
<text text-anchor="middle" x="343.791" y="-142.6" font-family="Times New Roman,serif" font-size="8.00" fill="#f0f0f0">14</text>
</g>
<!-- &#45;attrs1 -->
<g id="node9" class="node"><title>&#45;attrs1</title>
<polygon fill="none" stroke="gray" points="338.291,-49 268.291,-49 268.291,-0 344.291,-0 344.291,-43 338.291,-49"/>
<polyline fill="none" stroke="gray" points="338.291,-49 338.291,-43 "/>
<polyline fill="none" stroke="gray" points="344.291,-43 338.291,-43 "/>
<text text-anchor="start" x="278.291" y="-34.5" font-family="Times New Roman,serif" font-size="10.00">value:</text>
<text text-anchor="start" x="305.291" y="-34.5" font-family="Times New Roman,serif" font-size="10.00">[0, 1, 4]</text>
<text text-anchor="start" x="278.291" y="-21.5" font-family="Times New Roman,serif" font-size="10.00">type:</text>
<text text-anchor="start" x="305.291" y="-21.5" font-family="Times New Roman,serif" font-size="10.00">name</text>
<text text-anchor="start" x="278.291" y="-8.5" font-family="Times New Roman,serif" font-size="10.00">label:</text>
<text text-anchor="start" x="305.291" y="-8.5" font-family="Times New Roman,serif" font-size="10.00">distk</text>
</g>
<!-- &#45;attrs1&#45;&gt;http://example.org/distk#1 -->
<g id="edge7" class="edge"><title>&#45;attrs1&#45;&gt;http://example.org/distk#1</title>
<path fill="none" stroke="gray" stroke-dasharray="5,2" d="M306.291,-49.1737C306.291,-60.9254 306.291,-74.869 306.291,-85.6196"/>
</g>
<!-- http://example.org/assign7&#45;&gt;http://example.org/dist@k#1 -->
<g id="edge9" class="edge"><title>http://example.org/assign7&#45;&gt;http://example.org/dist@k#1</title>
<path fill="none" stroke="#f0f0f0" d="M347.452,-218.833C336.562,-233.534 320.809,-254.8 308.598,-271.286"/>
<polygon fill="#f0f0f0" stroke="#f0f0f0" points="305.719,-269.292 302.579,-279.411 311.344,-273.459 305.719,-269.292"/>
<text text-anchor="middle" x="335.791" y="-254.6" font-family="Times New Roman,serif" font-size="8.00" fill="#f0f0f0">use</text>
<text text-anchor="middle" x="335.791" y="-245.6" font-family="Times New Roman,serif" font-size="8.00" fill="#f0f0f0">14</text>
</g>
</g>
</svg>
