<?xml version="1.0" encoding="UTF-8" standalone="no"?>
<!DOCTYPE svg PUBLIC "-//W3C//DTD SVG 1.1//EN"
 "http://www.w3.org/Graphics/SVG/1.1/DTD/svg11.dtd">
<!-- Generated by graphviz version 2.38.0 (20140413.2041)
 -->
<!-- Title: PROV Pages: 1 -->
<svg width="604pt" height="503pt"
 viewBox="0.00 0.00 604.48 503.00" xmlns="http://www.w3.org/2000/svg" xmlns:xlink="http://www.w3.org/1999/xlink">
<g id="graph0" class="graph" transform="scale(1 1) rotate(0) translate(4 499)">
<title>PROV</title>
<polygon fill="white" stroke="none" points="-4,4 -4,-499 600.483,-499 600.483,4 -4,4"/>
<!-- http://example.org/dist_ak -->
<g id="node1" class="node"><title>http://example.org/dist_ak</title>
<g id="a_node1"><a xlink:href="http://example.org/dist_ak" xlink:title="dist_ak">
<ellipse fill="#fffc87" stroke="#808080" cx="235.291" cy="-297" rx="37.0935" ry="18"/>
<text text-anchor="middle" x="235.291" y="-293.3" font-family="Times New Roman,serif" font-size="14.00">dist_ak</text>
</a>
</g>
</g>
<!-- http://example.org/access2 -->
<g id="node3" class="node"><title>http://example.org/access2</title>
<g id="a_node3"><a xlink:href="http://example.org/access2" xlink:title="access2">
<polygon fill="#fafafa" stroke="#f0f0f0" points="346.791,-405 285.791,-405 285.791,-369 346.791,-369 346.791,-405"/>
<text text-anchor="middle" x="316.291" y="-383.3" font-family="Times New Roman,serif" font-size="14.00" fill="#f0f0f0">access2</text>
</a>
</g>
</g>
<!-- http://example.org/dist_ak&#45;&gt;http://example.org/access2 -->
<g id="edge11" class="edge"><title>http://example.org/dist_ak&#45;&gt;http://example.org/access2</title>
<path fill="none" stroke="#f0f0f0" d="M260.984,-309.968C271.396,-315.785 282.914,-323.573 291.291,-333 298.04,-340.596 303.328,-350.331 307.268,-359.382"/>
<polygon fill="#f0f0f0" stroke="#f0f0f0" points="304.067,-360.804 311.019,-368.799 310.57,-358.214 304.067,-360.804"/>
<text text-anchor="middle" x="357.791" y="-344.6" font-family="Times New Roman,serif" font-size="8.00" fill="#f0f0f0">gen</text>
<text text-anchor="middle" x="357.791" y="-335.6" font-family="Times New Roman,serif" font-size="8.00" fill="#f0f0f0">2018&#45;03&#45;19T11:45:39.359750</text>
</g>
<!-- bn0 -->
<g id="node4" class="node"><title>bn0</title>
<ellipse fill="#f0f0f0" stroke="#f0f0f0" cx="163.291" cy="-387" rx="1.8" ry="1.8"/>
</g>
<!-- http://example.org/dist_ak&#45;&gt;bn0 -->
<g id="edge2" class="edge"><title>http://example.org/dist_ak&#45;&gt;bn0</title>
<path fill="none" stroke="#f0f0f0" d="M210.005,-310.177C200.228,-315.941 189.646,-323.634 182.291,-333 168.285,-350.836 164.06,-379.873 163.391,-385.16"/>
<text text-anchor="middle" x="236.791" y="-344.6" font-family="Times New Roman,serif" font-size="8.00" fill="#f0f0f0">der ac&#45;r</text>
<text text-anchor="middle" x="236.791" y="-335.6" font-family="Times New Roman,serif" font-size="8.00" fill="#f0f0f0">2018&#45;03&#45;19T11:45:39.359750</text>
</g>
<!-- &#45;attrs0 -->
<g id="node2" class="node"><title>&#45;attrs0</title>
<polygon fill="none" stroke="gray" points="193.291,-225 123.291,-225 123.291,-176 199.291,-176 199.291,-219 193.291,-225"/>
<polyline fill="none" stroke="gray" points="193.291,-225 193.291,-219 "/>
<polyline fill="none" stroke="gray" points="199.291,-219 193.291,-219 "/>
<text text-anchor="start" x="133.291" y="-210.5" font-family="Times New Roman,serif" font-size="10.00">value:</text>
<text text-anchor="start" x="160.291" y="-210.5" font-family="Times New Roman,serif" font-size="10.00">[0, 1, 4]</text>
<text text-anchor="start" x="133.291" y="-197.5" font-family="Times New Roman,serif" font-size="10.00">type:</text>
<text text-anchor="start" x="160.291" y="-197.5" font-family="Times New Roman,serif" font-size="10.00">access</text>
<text text-anchor="start" x="133.291" y="-184.5" font-family="Times New Roman,serif" font-size="10.00">label:</text>
<text text-anchor="start" x="160.291" y="-184.5" font-family="Times New Roman,serif" font-size="10.00">dist[k]</text>
</g>
<!-- &#45;attrs0&#45;&gt;http://example.org/dist_ak -->
<g id="edge1" class="edge"><title>&#45;attrs0&#45;&gt;http://example.org/dist_ak</title>
<path fill="none" stroke="gray" stroke-dasharray="5,2" d="M179.964,-225.346C193.323,-242.406 210.945,-264.91 222.675,-279.889"/>
</g>
<!-- http://example.org/dist -->
<g id="node5" class="node"><title>http://example.org/dist</title>
<ellipse fill="none" stroke="black" cx="320.291" cy="-477" rx="91.784" ry="18"/>
<text text-anchor="middle" x="320.291" y="-473.3" font-family="Times New Roman,serif" font-size="14.00">http://example.org/dist</text>
</g>
<!-- http://example.org/access2&#45;&gt;http://example.org/dist -->
<g id="edge5" class="edge"><title>http://example.org/access2&#45;&gt;http://example.org/dist</title>
<path fill="none" stroke="#f0f0f0" d="M317.081,-405.386C317.643,-417.76 318.41,-434.631 319.053,-448.78"/>
<polygon fill="#f0f0f0" stroke="#f0f0f0" points="315.565,-449.119 319.516,-458.95 322.558,-448.801 315.565,-449.119"/>
<text text-anchor="middle" x="330.398" y="-410.388" font-family="Times New Roman,serif" font-size="8.00" fill="#f0f0f0">use</text>
</g>
<!-- http://example.org/matrix0 -->
<g id="node6" class="node"><title>http://example.org/matrix0</title>
<ellipse fill="none" stroke="black" cx="105.291" cy="-477" rx="105.082" ry="18"/>
<text text-anchor="middle" x="105.291" y="-473.3" font-family="Times New Roman,serif" font-size="14.00">http://example.org/matrix0</text>
</g>
<!-- http://example.org/access2&#45;&gt;http://example.org/matrix0 -->
<g id="edge9" class="edge"><title>http://example.org/access2&#45;&gt;http://example.org/matrix0</title>
<path fill="none" stroke="#f0f0f0" d="M285.606,-396.05C263.016,-402.365 231.758,-411.922 205.291,-423 183.64,-432.062 160.421,-444.207 141.812,-454.584"/>
<polygon fill="#f0f0f0" stroke="#f0f0f0" points="140.063,-451.553 133.074,-459.516 143.503,-457.649 140.063,-451.553"/>
<text text-anchor="middle" x="259.791" y="-434.6" font-family="Times New Roman,serif" font-size="8.00" fill="#f0f0f0">use</text>
<text text-anchor="middle" x="259.791" y="-425.6" font-family="Times New Roman,serif" font-size="8.00" fill="#f0f0f0">2018&#45;03&#45;19T11:45:39.359750</text>
</g>
<!-- http://example.org/k -->
<g id="node7" class="node"><title>http://example.org/k</title>
<ellipse fill="none" stroke="black" cx="513.291" cy="-477" rx="83.3857" ry="18"/>
<text text-anchor="middle" x="513.291" y="-473.3" font-family="Times New Roman,serif" font-size="14.00">http://example.org/k</text>
</g>
<!-- http://example.org/access2&#45;&gt;http://example.org/k -->
<g id="edge6" class="edge"><title>http://example.org/access2&#45;&gt;http://example.org/k</title>
<path fill="none" stroke="#f0f0f0" d="M347.072,-401.75C379.854,-416.394 432.031,-439.701 469.177,-456.294"/>
<polygon fill="#f0f0f0" stroke="#f0f0f0" points="468.192,-459.688 478.75,-460.571 471.048,-453.297 468.192,-459.688"/>
<text text-anchor="middle" x="359.218" y="-391.048" font-family="Times New Roman,serif" font-size="8.00" fill="#f0f0f0">use</text>
</g>
<!-- bn0&#45;&gt;http://example.org/dist -->
<g id="edge3" class="edge"><title>bn0&#45;&gt;http://example.org/dist</title>
<path fill="none" stroke="#f0f0f0" stroke-dasharray="5,2" d="M163.221,-388.902C162.839,-394.571 161.537,-425.53 177.291,-441 186.792,-450.33 212.252,-457.864 239.104,-463.517"/>
<polygon fill="#f0f0f0" stroke="#f0f0f0" points="238.538,-466.974 249.032,-465.515 239.919,-460.111 238.538,-466.974"/>
</g>
<!-- bn0&#45;&gt;http://example.org/matrix0 -->
<g id="edge4" class="edge"><title>bn0&#45;&gt;http://example.org/matrix0</title>
<path fill="none" stroke="#f0f0f0" d="M162.652,-388.852C159.753,-392.725 147.577,-409.088 138.291,-423 132.485,-431.698 126.367,-441.369 120.998,-450.042"/>
<polygon fill="#f0f0f0" stroke="#f0f0f0" points="117.97,-448.286 115.719,-458.638 123.935,-451.949 117.97,-448.286"/>
<text text-anchor="middle" x="143.791" y="-430.1" font-family="Times New Roman,serif" font-size="8.00" fill="#f0f0f0">[0]</text>
</g>
<!-- http://example.org/distk -->
<g id="node8" class="node"><title>http://example.org/distk</title>
<g id="a_node8"><a xlink:href="http://example.org/distk" xlink:title="distk">
<ellipse fill="#fffc87" stroke="#808080" cx="251.291" cy="-104" rx="28.6953" ry="18"/>
<text text-anchor="middle" x="251.291" y="-100.3" font-family="Times New Roman,serif" font-size="14.00">distk</text>
</a>
</g>
</g>
<!-- http://example.org/distk&#45;&gt;http://example.org/dist_ak -->
<g id="edge8" class="edge"><title>http://example.org/distk&#45;&gt;http://example.org/dist_ak</title>
<path fill="none" stroke="#f0f0f0" d="M249.481,-122.206C247.996,-136.578 245.886,-157.614 244.291,-176 241.534,-207.767 238.865,-244.309 237.159,-268.641"/>
<polygon fill="#f0f0f0" stroke="#f0f0f0" points="233.648,-268.681 236.447,-278.9 240.631,-269.167 233.648,-268.681"/>
<text text-anchor="middle" x="298.791" y="-203.1" font-family="Times New Roman,serif" font-size="8.00" fill="#f0f0f0">der ref</text>
<text text-anchor="middle" x="298.791" y="-194.1" font-family="Times New Roman,serif" font-size="8.00" fill="#f0f0f0">2018&#45;03&#45;19T11:45:39.360753</text>
</g>
<!-- http://example.org/assign7 -->
<g id="node10" class="node"><title>http://example.org/assign7</title>
<g id="a_node10"><a xlink:href="http://example.org/assign7" xlink:title="assign7">
<polygon fill="#fafafa" stroke="#f0f0f0" points="420.291,-218.5 362.291,-218.5 362.291,-182.5 420.291,-182.5 420.291,-218.5"/>
<text text-anchor="middle" x="391.291" y="-196.8" font-family="Times New Roman,serif" font-size="14.00" fill="#f0f0f0">assign7</text>
</a>
</g>
</g>
<!-- http://example.org/distk&#45;&gt;http://example.org/assign7 -->
<g id="edge12" class="edge"><title>http://example.org/distk&#45;&gt;http://example.org/assign7</title>
<path fill="none" stroke="#f0f0f0" d="M270.172,-117.745C292.531,-132.837 330.191,-158.258 357.591,-176.753"/>
<polygon fill="#f0f0f0" stroke="#f0f0f0" points="355.848,-179.799 366.095,-182.493 359.764,-173.997 355.848,-179.799"/>
<text text-anchor="middle" x="384.791" y="-151.6" font-family="Times New Roman,serif" font-size="8.00" fill="#f0f0f0">gen</text>
<text text-anchor="middle" x="384.791" y="-142.6" font-family="Times New Roman,serif" font-size="8.00" fill="#f0f0f0">2018&#45;03&#45;19T11:45:39.360753</text>
</g>
<!-- &#45;attrs1 -->
<g id="node9" class="node"><title>&#45;attrs1</title>
<polygon fill="none" stroke="gray" points="283.291,-49 213.291,-49 213.291,-0 289.291,-0 289.291,-43 283.291,-49"/>
<polyline fill="none" stroke="gray" points="283.291,-49 283.291,-43 "/>
<polyline fill="none" stroke="gray" points="289.291,-43 283.291,-43 "/>
<text text-anchor="start" x="223.291" y="-34.5" font-family="Times New Roman,serif" font-size="10.00">value:</text>
<text text-anchor="start" x="250.291" y="-34.5" font-family="Times New Roman,serif" font-size="10.00">[0, 1, 4]</text>
<text text-anchor="start" x="223.291" y="-21.5" font-family="Times New Roman,serif" font-size="10.00">type:</text>
<text text-anchor="start" x="250.291" y="-21.5" font-family="Times New Roman,serif" font-size="10.00">name</text>
<text text-anchor="start" x="223.291" y="-8.5" font-family="Times New Roman,serif" font-size="10.00">label:</text>
<text text-anchor="start" x="250.291" y="-8.5" font-family="Times New Roman,serif" font-size="10.00">distk</text>
</g>
<!-- &#45;attrs1&#45;&gt;http://example.org/distk -->
<g id="edge7" class="edge"><title>&#45;attrs1&#45;&gt;http://example.org/distk</title>
<path fill="none" stroke="gray" stroke-dasharray="5,2" d="M251.291,-49.1737C251.291,-60.9254 251.291,-74.869 251.291,-85.6196"/>
</g>
<!-- http://example.org/assign7&#45;&gt;http://example.org/dist_ak -->
<g id="edge10" class="edge"><title>http://example.org/assign7&#45;&gt;http://example.org/dist_ak</title>
<path fill="none" stroke="#f0f0f0" d="M363.04,-218.613C335.786,-235.123 294.623,-260.058 266.434,-277.134"/>
<polygon fill="#f0f0f0" stroke="#f0f0f0" points="264.511,-274.207 257.771,-282.382 268.138,-280.194 264.511,-274.207"/>
<text text-anchor="middle" x="377.791" y="-254.6" font-family="Times New Roman,serif" font-size="8.00" fill="#f0f0f0">use</text>
<text text-anchor="middle" x="377.791" y="-245.6" font-family="Times New Roman,serif" font-size="8.00" fill="#f0f0f0">2018&#45;03&#45;19T11:45:39.360753</text>
</g>
</g>
</svg>
