<?xml version="1.0" encoding="UTF-8" standalone="no"?>
<!DOCTYPE svg PUBLIC "-//W3C//DTD SVG 1.1//EN"
 "http://www.w3.org/Graphics/SVG/1.1/DTD/svg11.dtd">
<!-- Generated by graphviz version 2.38.0 (20140413.2041)
 -->
<!-- Title: PROV Pages: 1 -->
<svg width="496pt" height="215pt"
 viewBox="0.00 0.00 496.28 215.00" xmlns="http://www.w3.org/2000/svg" xmlns:xlink="http://www.w3.org/1999/xlink">
<g id="graph0" class="graph" transform="scale(1 1) rotate(0) translate(4 211)">
<title>PROV</title>
<polygon fill="white" stroke="none" points="-4,4 -4,-211 492.279,-211 492.279,4 -4,4"/>
<!-- http://example.org/i#8 -->
<g id="node1" class="node"><title>http://example.org/i#8</title>
<g id="a_node1"><a xlink:href="http://example.org/i#8" xlink:title="i#8">
<ellipse fill="#fafafa" stroke="#f0f0f0" cx="182.941" cy="-18" rx="27" ry="18"/>
<text text-anchor="middle" x="182.941" y="-14.3" font-family="Times New Roman,serif" font-size="14.00" fill="#f0f0f0">i#8</text>
</a>
</g>
</g>
<!-- http://example.org/access49 -->
<g id="node2" class="node"><title>http://example.org/access49</title>
<g id="a_node2"><a xlink:href="http://example.org/access49" xlink:title="access49">
<polygon fill="#fafafa" stroke="#f0f0f0" points="190.941,-126 122.941,-126 122.941,-90 190.941,-90 190.941,-126"/>
<text text-anchor="middle" x="156.941" y="-104.3" font-family="Times New Roman,serif" font-size="14.00" fill="#f0f0f0">access49</text>
</a>
</g>
</g>
<!-- http://example.org/i#8&#45;&gt;http://example.org/access49 -->
<g id="edge6" class="edge"><title>http://example.org/i#8&#45;&gt;http://example.org/access49</title>
<path fill="none" stroke="#f0f0f0" d="M177.928,-35.9673C174.246,-48.4262 169.171,-65.6063 164.933,-79.9497"/>
<polygon fill="#f0f0f0" stroke="#f0f0f0" points="161.504,-79.2026 162.027,-89.7845 168.217,-81.1861 161.504,-79.2026"/>
<text text-anchor="middle" x="188.26" y="-44.9407" font-family="Times New Roman,serif" font-size="8.00" fill="#f0f0f0">gen</text>
</g>
<!-- bn0 -->
<g id="node3" class="node"><title>bn0</title>
<ellipse fill="#f0f0f0" stroke="#f0f0f0" cx="210.941" cy="-108" rx="1.8" ry="1.8"/>
</g>
<!-- http://example.org/i#8&#45;&gt;bn0 -->
<g id="edge1" class="edge"><title>http://example.org/i#8&#45;&gt;bn0</title>
<path fill="none" stroke="#f0f0f0" d="M188.339,-35.9673C195.84,-59.5413 208.719,-100.018 210.686,-106.199"/>
<text text-anchor="middle" x="254.441" y="-65.6" font-family="Times New Roman,serif" font-size="8.00" fill="#f0f0f0">der ac&#45;r</text>
<text text-anchor="middle" x="254.441" y="-56.6" font-family="Times New Roman,serif" font-size="8.00" fill="#f0f0f0">2018&#45;03&#45;12T13:12:19.630538</text>
</g>
<!-- http://example.org/indexes -->
<g id="node4" class="node"><title>http://example.org/indexes</title>
<ellipse fill="none" stroke="black" cx="105.941" cy="-189" rx="105.881" ry="18"/>
<text text-anchor="middle" x="105.941" y="-185.3" font-family="Times New Roman,serif" font-size="14.00">http://example.org/indexes</text>
</g>
<!-- http://example.org/access49&#45;&gt;http://example.org/indexes -->
<g id="edge4" class="edge"><title>http://example.org/access49&#45;&gt;http://example.org/indexes</title>
<path fill="none" stroke="#f0f0f0" d="M145.874,-126.142C139.058,-136.701 130.189,-150.439 122.541,-162.285"/>
<polygon fill="#f0f0f0" stroke="#f0f0f0" points="119.468,-160.592 116.985,-170.892 125.349,-164.389 119.468,-160.592"/>
<text text-anchor="middle" x="152.72" y="-137.588" font-family="Times New Roman,serif" font-size="8.00" fill="#f0f0f0">use</text>
</g>
<!-- http://example.org/range_nodes1 -->
<g id="node5" class="node"><title>http://example.org/range_nodes1</title>
<ellipse fill="none" stroke="black" cx="358.941" cy="-189" rx="129.177" ry="18"/>
<text text-anchor="middle" x="358.941" y="-185.3" font-family="Times New Roman,serif" font-size="14.00">http://example.org/range_nodes1</text>
</g>
<!-- http://example.org/access49&#45;&gt;http://example.org/range_nodes1 -->
<g id="edge5" class="edge"><title>http://example.org/access49&#45;&gt;http://example.org/range_nodes1</title>
<path fill="none" stroke="#f0f0f0" d="M191.202,-122.562C194.157,-123.727 197.101,-124.885 199.941,-126 236.056,-140.18 276.828,-156.077 308.042,-168.223"/>
<polygon fill="#f0f0f0" stroke="#f0f0f0" points="306.819,-171.502 317.407,-171.866 309.356,-164.978 306.819,-171.502"/>
<text text-anchor="middle" x="202.943" y="-111.326" font-family="Times New Roman,serif" font-size="8.00" fill="#f0f0f0">use</text>
</g>
<!-- bn0&#45;&gt;http://example.org/indexes -->
<g id="edge2" class="edge"><title>bn0&#45;&gt;http://example.org/indexes</title>
<path fill="none" stroke="#f0f0f0" stroke-dasharray="5,2" d="M210.468,-110.021C209.133,-112.83 205.088,-120.807 199.941,-126 184.353,-141.725 164.159,-155.671 146.486,-166.335"/>
<polygon fill="#f0f0f0" stroke="#f0f0f0" points="144.363,-163.523 137.511,-171.604 147.907,-169.559 144.363,-163.523"/>
</g>
<!-- bn0&#45;&gt;http://example.org/range_nodes1 -->
<g id="edge3" class="edge"><title>bn0&#45;&gt;http://example.org/range_nodes1</title>
<path fill="none" stroke="#f0f0f0" d="M212.22,-109.683C221.446,-114.608 278.591,-145.111 318.774,-166.56"/>
<polygon fill="#f0f0f0" stroke="#f0f0f0" points="317.355,-169.769 327.825,-171.391 320.651,-163.594 317.355,-169.769"/>
<text text-anchor="middle" x="294.441" y="-146.6" font-family="Times New Roman,serif" font-size="8.00" fill="#f0f0f0">[1]</text>
</g>
</g>
</svg>
