<?xml version="1.0" encoding="UTF-8" standalone="no"?>
<!DOCTYPE svg PUBLIC "-//W3C//DTD SVG 1.1//EN"
 "http://www.w3.org/Graphics/SVG/1.1/DTD/svg11.dtd">
<!-- Generated by graphviz version 2.38.0 (20140413.2041)
 -->
<!-- Title: PROV Pages: 1 -->
<svg width="1152pt" height="560pt"
 viewBox="0.00 0.00 1152.00 560.02" xmlns="http://www.w3.org/2000/svg" xmlns:xlink="http://www.w3.org/1999/xlink">
<g id="graph0" class="graph" transform="scale(0.834606 0.834606) rotate(0) translate(4 667)">
<title>PROV</title>
<polygon fill="white" stroke="none" points="-4,4 -4,-667 1376.29,-667 1376.29,4 -4,4"/>
<!-- http://example.org/disti@k#5 -->
<g id="node1" class="node"><title>http://example.org/disti@k#5</title>
<g id="a_node1"><a xlink:href="http://example.org/disti@k#5" xlink:title="disti@k#5">
<ellipse fill="#fafafa" stroke="#f0f0f0" cx="505.292" cy="-426" rx="48.1917" ry="18"/>
<text text-anchor="middle" x="505.292" y="-422.3" font-family="Times New Roman,serif" font-size="14.00" fill="#f0f0f0">disti@k#5</text>
</a>
</g>
</g>
<!-- http://example.org/access45 -->
<g id="node2" class="node"><title>http://example.org/access45</title>
<g id="a_node2"><a xlink:href="http://example.org/access45" xlink:title="access45">
<polygon fill="#fafafa" stroke="#f0f0f0" points="303.292,-561 235.292,-561 235.292,-525 303.292,-525 303.292,-561"/>
<text text-anchor="middle" x="269.292" y="-539.3" font-family="Times New Roman,serif" font-size="14.00" fill="#f0f0f0">access45</text>
</a>
</g>
</g>
<!-- http://example.org/disti@k#5&#45;&gt;http://example.org/access45 -->
<g id="edge19" class="edge"><title>http://example.org/disti@k#5&#45;&gt;http://example.org/access45</title>
<path fill="none" stroke="#f0f0f0" d="M458.544,-430.344C407.671,-434.822 330.476,-444.333 307.292,-462 290.423,-474.854 280.701,-497.081 275.321,-514.848"/>
<polygon fill="#f0f0f0" stroke="#f0f0f0" points="271.891,-514.121 272.634,-524.69 278.644,-515.965 271.891,-514.121"/>
<text text-anchor="middle" x="404.792" y="-488.3" font-family="Times New Roman,serif" font-size="14.00" fill="#f0f0f0">gen</text>
<text text-anchor="middle" x="404.792" y="-473.3" font-family="Times New Roman,serif" font-size="14.00" fill="#f0f0f0">ckpt: 2018&#45;06&#45;09T21:11:17.008270</text>
</g>
<!-- bn0 -->
<g id="node3" class="node"><title>bn0</title>
<ellipse fill="#f0f0f0" stroke="#f0f0f0" cx="506.292" cy="-543" rx="1.8" ry="1.8"/>
</g>
<!-- http://example.org/disti@k#5&#45;&gt;bn0 -->
<g id="edge1" class="edge"><title>http://example.org/disti@k#5&#45;&gt;bn0</title>
<path fill="none" stroke="#f0f0f0" d="M505.444,-444.466C505.702,-474.124 506.205,-531.99 506.282,-540.85"/>
<text text-anchor="middle" x="603.792" y="-495.8" font-family="Times New Roman,serif" font-size="14.00" fill="#f0f0f0">der ref</text>
<text text-anchor="middle" x="603.792" y="-480.8" font-family="Times New Roman,serif" font-size="14.00" fill="#f0f0f0">ac&#45;read</text>
<text text-anchor="middle" x="603.792" y="-465.8" font-family="Times New Roman,serif" font-size="14.00" fill="#f0f0f0">ckpt: 2018&#45;06&#45;09T21:11:17.008270</text>
</g>
<!-- http://example.org/disti#5 -->
<g id="node4" class="node"><title>http://example.org/disti#5</title>
<ellipse fill="none" stroke="black" cx="305.292" cy="-645" rx="102.882" ry="18"/>
<text text-anchor="middle" x="305.292" y="-641.3" font-family="Times New Roman,serif" font-size="14.00">http://example.org/disti#5</text>
</g>
<!-- http://example.org/access45&#45;&gt;http://example.org/disti#5 -->
<g id="edge4" class="edge"><title>http://example.org/access45&#45;&gt;http://example.org/disti#5</title>
<path fill="none" stroke="#f0f0f0" d="M268.885,-561.216C269.153,-574.711 270.849,-593.701 277.292,-609 278.736,-612.429 280.617,-615.798 282.722,-619.01"/>
<polygon fill="#f0f0f0" stroke="#f0f0f0" points="279.919,-621.105 288.669,-627.078 285.553,-616.951 279.919,-621.105"/>
<text text-anchor="middle" x="282.095" y="-566.422" font-family="Times New Roman,serif" font-size="8.00" fill="#f0f0f0">use</text>
</g>
<!-- http://example.org/disti@j#5 -->
<g id="node5" class="node"><title>http://example.org/disti@j#5</title>
<ellipse fill="none" stroke="black" cx="539.292" cy="-645" rx="113.18" ry="18"/>
<text text-anchor="middle" x="539.292" y="-641.3" font-family="Times New Roman,serif" font-size="14.00">http://example.org/disti@j#5</text>
</g>
<!-- http://example.org/access45&#45;&gt;http://example.org/disti@j#5 -->
<g id="edge15" class="edge"><title>http://example.org/access45&#45;&gt;http://example.org/disti@j#5</title>
<path fill="none" stroke="#f0f0f0" d="M277.642,-561.103C285.995,-576.272 300.324,-597.722 319.292,-609 325.096,-612.451 390.052,-622.554 447.889,-631.024"/>
<polygon fill="#f0f0f0" stroke="#f0f0f0" points="447.441,-634.496 457.842,-632.476 448.452,-627.569 447.441,-634.496"/>
<text text-anchor="middle" x="416.792" y="-597.8" font-family="Times New Roman,serif" font-size="14.00" fill="#f0f0f0">use</text>
<text text-anchor="middle" x="416.792" y="-582.8" font-family="Times New Roman,serif" font-size="14.00" fill="#f0f0f0">ckpt: 2018&#45;06&#45;09T21:11:17.008270</text>
</g>
<!-- http://example.org/k#3 -->
<g id="node6" class="node"><title>http://example.org/k#3</title>
<ellipse fill="none" stroke="black" cx="92.2918" cy="-645" rx="92.0841" ry="18"/>
<text text-anchor="middle" x="92.2918" y="-641.3" font-family="Times New Roman,serif" font-size="14.00">http://example.org/k#3</text>
</g>
<!-- http://example.org/access45&#45;&gt;http://example.org/k#3 -->
<g id="edge5" class="edge"><title>http://example.org/access45&#45;&gt;http://example.org/k#3</title>
<path fill="none" stroke="#f0f0f0" d="M238.864,-561.191C208.598,-578.29 162.107,-604.556 129.625,-622.908"/>
<polygon fill="#f0f0f0" stroke="#f0f0f0" points="127.845,-619.894 120.86,-627.86 131.288,-625.988 127.845,-619.894"/>
<text text-anchor="middle" x="238.724" y="-574.29" font-family="Times New Roman,serif" font-size="8.00" fill="#f0f0f0">use</text>
</g>
<!-- bn0&#45;&gt;http://example.org/disti#5 -->
<g id="edge2" class="edge"><title>bn0&#45;&gt;http://example.org/disti#5</title>
<path fill="none" stroke="#f0f0f0" stroke-dasharray="5,2" d="M506.452,-545.114C507.388,-552.114 511.484,-590.322 492.292,-609 488.285,-612.899 436.19,-622.467 388.004,-630.615"/>
<polygon fill="#f0f0f0" stroke="#f0f0f0" points="387.399,-627.168 378.117,-632.277 388.559,-634.071 387.399,-627.168"/>
</g>
<!-- bn0&#45;&gt;http://example.org/disti@j#5 -->
<g id="edge3" class="edge"><title>bn0&#45;&gt;http://example.org/disti@j#5</title>
<path fill="none" stroke="#f0f0f0" d="M506.662,-545.123C508.973,-552.125 521.592,-590.364 530.441,-617.18"/>
<polygon fill="#f0f0f0" stroke="#f0f0f0" points="527.161,-618.41 533.619,-626.809 533.809,-616.216 527.161,-618.41"/>
<text text-anchor="middle" x="536.292" y="-590.3" font-family="Times New Roman,serif" font-size="14.00" fill="#f0f0f0">[2]</text>
</g>
<!-- http://example.org/distk@j#5 -->
<g id="node7" class="node"><title>http://example.org/distk@j#5</title>
<g id="a_node7"><a xlink:href="http://example.org/distk@j#5" xlink:title="distk@j#5">
<ellipse fill="#fafafa" stroke="#f0f0f0" cx="951.292" cy="-426" rx="48.1917" ry="18"/>
<text text-anchor="middle" x="951.292" y="-422.3" font-family="Times New Roman,serif" font-size="14.00" fill="#f0f0f0">distk@j#5</text>
</a>
</g>
</g>
<!-- http://example.org/access46 -->
<g id="node8" class="node"><title>http://example.org/access46</title>
<g id="a_node8"><a xlink:href="http://example.org/access46" xlink:title="access46">
<polygon fill="#fafafa" stroke="#f0f0f0" points="978.292,-561 910.292,-561 910.292,-525 978.292,-525 978.292,-561"/>
<text text-anchor="middle" x="944.292" y="-539.3" font-family="Times New Roman,serif" font-size="14.00" fill="#f0f0f0">access46</text>
</a>
</g>
</g>
<!-- http://example.org/distk@j#5&#45;&gt;http://example.org/access46 -->
<g id="edge21" class="edge"><title>http://example.org/distk@j#5&#45;&gt;http://example.org/access46</title>
<path fill="none" stroke="#f0f0f0" d="M950.229,-444.466C949.097,-463.064 947.289,-492.756 945.966,-514.499"/>
<polygon fill="#f0f0f0" stroke="#f0f0f0" points="942.456,-514.552 945.342,-524.746 949.443,-514.978 942.456,-514.552"/>
<text text-anchor="middle" x="1046.79" y="-488.3" font-family="Times New Roman,serif" font-size="14.00" fill="#f0f0f0">gen</text>
<text text-anchor="middle" x="1046.79" y="-473.3" font-family="Times New Roman,serif" font-size="14.00" fill="#f0f0f0">ckpt: 2018&#45;06&#45;09T21:11:17.008697</text>
</g>
<!-- bn1 -->
<g id="node9" class="node"><title>bn1</title>
<ellipse fill="#f0f0f0" stroke="#f0f0f0" cx="1185.29" cy="-543" rx="1.8" ry="1.8"/>
</g>
<!-- http://example.org/distk@j#5&#45;&gt;bn1 -->
<g id="edge6" class="edge"><title>http://example.org/distk@j#5&#45;&gt;bn1</title>
<path fill="none" stroke="#f0f0f0" d="M998.293,-430.369C1048.94,-434.85 1125.39,-444.345 1148.29,-462 1176.89,-484.048 1184.21,-533.433 1185.17,-541.015"/>
<text text-anchor="middle" x="1274.79" y="-495.8" font-family="Times New Roman,serif" font-size="14.00" fill="#f0f0f0">der ref</text>
<text text-anchor="middle" x="1274.79" y="-480.8" font-family="Times New Roman,serif" font-size="14.00" fill="#f0f0f0">ac&#45;read</text>
<text text-anchor="middle" x="1274.79" y="-465.8" font-family="Times New Roman,serif" font-size="14.00" fill="#f0f0f0">ckpt: 2018&#45;06&#45;09T21:11:17.008697</text>
</g>
<!-- http://example.org/distk#3 -->
<g id="node10" class="node"><title>http://example.org/distk#3</title>
<ellipse fill="none" stroke="black" cx="982.292" cy="-645" rx="105.082" ry="18"/>
<text text-anchor="middle" x="982.292" y="-641.3" font-family="Times New Roman,serif" font-size="14.00">http://example.org/distk#3</text>
</g>
<!-- http://example.org/access46&#45;&gt;http://example.org/distk#3 -->
<g id="edge9" class="edge"><title>http://example.org/access46&#45;&gt;http://example.org/distk#3</title>
<path fill="none" stroke="#f0f0f0" d="M945.329,-561.182C946.64,-574.658 949.602,-593.639 956.292,-609 957.726,-612.292 959.521,-615.566 961.494,-618.715"/>
<polygon fill="#f0f0f0" stroke="#f0f0f0" points="958.793,-620.961 967.376,-627.173 964.54,-616.964 958.793,-620.961"/>
<text text-anchor="middle" x="959.037" y="-565.371" font-family="Times New Roman,serif" font-size="8.00" fill="#f0f0f0">use</text>
</g>
<!-- http://example.org/disti@j#3 -->
<g id="node11" class="node"><title>http://example.org/disti@j#3</title>
<ellipse fill="none" stroke="black" cx="1218.29" cy="-645" rx="113.18" ry="18"/>
<text text-anchor="middle" x="1218.29" y="-641.3" font-family="Times New Roman,serif" font-size="14.00">http://example.org/disti@j#3</text>
</g>
<!-- http://example.org/access46&#45;&gt;http://example.org/disti@j#3 -->
<g id="edge18" class="edge"><title>http://example.org/access46&#45;&gt;http://example.org/disti@j#3</title>
<path fill="none" stroke="#f0f0f0" d="M953.648,-561.115C962.904,-576.292 978.531,-597.747 998.292,-609 1004.16,-612.341 1069.11,-622.455 1126.93,-630.957"/>
<polygon fill="#f0f0f0" stroke="#f0f0f0" points="1126.48,-634.428 1136.88,-632.414 1127.49,-627.502 1126.48,-634.428"/>
<text text-anchor="middle" x="1095.79" y="-597.8" font-family="Times New Roman,serif" font-size="14.00" fill="#f0f0f0">use</text>
<text text-anchor="middle" x="1095.79" y="-582.8" font-family="Times New Roman,serif" font-size="14.00" fill="#f0f0f0">ckpt: 2018&#45;06&#45;09T21:11:17.008697</text>
</g>
<!-- http://example.org/j#14 -->
<g id="node12" class="node"><title>http://example.org/j#14</title>
<ellipse fill="none" stroke="black" cx="764.292" cy="-645" rx="94.4839" ry="18"/>
<text text-anchor="middle" x="764.292" y="-641.3" font-family="Times New Roman,serif" font-size="14.00">http://example.org/j#14</text>
</g>
<!-- http://example.org/access46&#45;&gt;http://example.org/j#14 -->
<g id="edge10" class="edge"><title>http://example.org/access46&#45;&gt;http://example.org/j#14</title>
<path fill="none" stroke="#f0f0f0" d="M913.349,-561.191C882.569,-578.29 835.291,-604.556 802.258,-622.908"/>
<polygon fill="#f0f0f0" stroke="#f0f0f0" points="800.386,-619.944 793.344,-627.86 803.785,-626.063 800.386,-619.944"/>
<text text-anchor="middle" x="913.101" y="-574.289" font-family="Times New Roman,serif" font-size="8.00" fill="#f0f0f0">use</text>
</g>
<!-- bn1&#45;&gt;http://example.org/distk#3 -->
<g id="edge7" class="edge"><title>bn1&#45;&gt;http://example.org/distk#3</title>
<path fill="none" stroke="#f0f0f0" stroke-dasharray="5,2" d="M1185.45,-545.115C1186.39,-552.117 1190.5,-590.34 1171.29,-609 1167.25,-612.922 1114.95,-622.436 1066.39,-630.555"/>
<polygon fill="#f0f0f0" stroke="#f0f0f0" points="1065.72,-627.119 1056.43,-632.211 1066.86,-634.025 1065.72,-627.119"/>
</g>
<!-- bn1&#45;&gt;http://example.org/disti@j#3 -->
<g id="edge8" class="edge"><title>bn1&#45;&gt;http://example.org/disti@j#3</title>
<path fill="none" stroke="#f0f0f0" d="M1185.66,-545.123C1187.97,-552.125 1200.59,-590.364 1209.44,-617.18"/>
<polygon fill="#f0f0f0" stroke="#f0f0f0" points="1206.16,-618.41 1212.62,-626.809 1212.81,-616.216 1206.16,-618.41"/>
<text text-anchor="middle" x="1215.29" y="-590.3" font-family="Times New Roman,serif" font-size="14.00" fill="#f0f0f0">[1]</text>
</g>
<!-- http://example.org/sum#5 -->
<g id="node13" class="node"><title>http://example.org/sum#5</title>
<g id="a_node13"><a xlink:href="http://example.org/sum#5" xlink:title="sum#5">
<ellipse fill="#fafafa" stroke="#f0f0f0" cx="738.292" cy="-222" rx="35.194" ry="18"/>
<text text-anchor="middle" x="738.292" y="-218.3" font-family="Times New Roman,serif" font-size="14.00" fill="#f0f0f0">sum#5</text>
</a>
</g>
</g>
<!-- http://example.org/sum#5&#45;&gt;http://example.org/disti@k#5 -->
<g id="edge11" class="edge"><title>http://example.org/sum#5&#45;&gt;http://example.org/disti@k#5</title>
<path fill="none" stroke="#f0f0f0" d="M703.296,-223.959C650.685,-227.507 552.564,-242.764 507.292,-306 488.263,-332.58 491.989,-371.754 497.613,-397.806"/>
<polygon fill="#f0f0f0" stroke="#f0f0f0" points="494.263,-398.846 499.991,-407.759 501.072,-397.22 494.263,-398.846"/>
<text text-anchor="middle" x="604.792" y="-327.8" font-family="Times New Roman,serif" font-size="14.00" fill="#f0f0f0">der</text>
<text text-anchor="middle" x="604.792" y="-312.8" font-family="Times New Roman,serif" font-size="14.00" fill="#f0f0f0">ckpt: 2018&#45;06&#45;09T21:11:17.009699</text>
</g>
<!-- http://example.org/sum#5&#45;&gt;http://example.org/distk@j#5 -->
<g id="edge12" class="edge"><title>http://example.org/sum#5&#45;&gt;http://example.org/distk@j#5</title>
<path fill="none" stroke="#f0f0f0" d="M773.166,-224.175C824.265,-226.684 915.763,-234.43 937.292,-258 972.027,-296.029 965.418,-361.32 958.034,-397.984"/>
<polygon fill="#f0f0f0" stroke="#f0f0f0" points="954.572,-397.435 955.864,-407.951 961.411,-398.925 954.572,-397.435"/>
<text text-anchor="middle" x="1061.79" y="-327.8" font-family="Times New Roman,serif" font-size="14.00" fill="#f0f0f0">der</text>
<text text-anchor="middle" x="1061.79" y="-312.8" font-family="Times New Roman,serif" font-size="14.00" fill="#f0f0f0">ckpt: 2018&#45;06&#45;09T21:11:17.009699</text>
</g>
<!-- http://example.org/+5 -->
<g id="node14" class="node"><title>http://example.org/+5</title>
<g id="a_node14"><a xlink:href="http://example.org/+5" xlink:title="+5">
<polygon fill="#fafafa" stroke="#f0f0f0" points="765.292,-342 711.292,-342 711.292,-306 765.292,-306 765.292,-342"/>
<text text-anchor="middle" x="738.292" y="-320.3" font-family="Times New Roman,serif" font-size="14.00" fill="#f0f0f0">+5</text>
</a>
</g>
</g>
<!-- http://example.org/sum#5&#45;&gt;http://example.org/+5 -->
<g id="edge22" class="edge"><title>http://example.org/sum#5&#45;&gt;http://example.org/+5</title>
<path fill="none" stroke="#f0f0f0" d="M738.292,-240.419C738.292,-255.618 738.292,-277.933 738.292,-295.536"/>
<polygon fill="#f0f0f0" stroke="#f0f0f0" points="734.792,-295.781 738.292,-305.781 741.792,-295.781 734.792,-295.781"/>
<text text-anchor="middle" x="835.792" y="-276.8" font-family="Times New Roman,serif" font-size="14.00" fill="#f0f0f0">gen</text>
<text text-anchor="middle" x="835.792" y="-261.8" font-family="Times New Roman,serif" font-size="14.00" fill="#f0f0f0">ckpt: 2018&#45;06&#45;09T21:11:17.009699</text>
</g>
<!-- http://example.org/+5&#45;&gt;http://example.org/disti@k#5 -->
<g id="edge17" class="edge"><title>http://example.org/+5&#45;&gt;http://example.org/disti@k#5</title>
<path fill="none" stroke="#f0f0f0" d="M710.893,-336.341C704.849,-338.499 698.42,-340.536 692.292,-342 658.35,-350.106 564.687,-339.714 536.292,-360 523.726,-368.977 516.07,-384.423 511.51,-398.005"/>
<polygon fill="#f0f0f0" stroke="#f0f0f0" points="508.066,-397.309 508.597,-407.891 514.781,-399.288 508.066,-397.309"/>
<text text-anchor="middle" x="633.792" y="-378.8" font-family="Times New Roman,serif" font-size="14.00" fill="#f0f0f0">use</text>
<text text-anchor="middle" x="633.792" y="-363.8" font-family="Times New Roman,serif" font-size="14.00" fill="#f0f0f0">ckpt: 2018&#45;06&#45;09T21:11:17.009699</text>
</g>
<!-- http://example.org/+5&#45;&gt;http://example.org/distk@j#5 -->
<g id="edge14" class="edge"><title>http://example.org/+5&#45;&gt;http://example.org/distk@j#5</title>
<path fill="none" stroke="#f0f0f0" d="M734.966,-342.245C733.219,-356.876 733.471,-377.435 745.292,-390 765.024,-410.975 839.515,-419.395 893.254,-422.766"/>
<polygon fill="#f0f0f0" stroke="#f0f0f0" points="893.178,-426.267 903.365,-423.356 893.586,-419.279 893.178,-426.267"/>
<text text-anchor="middle" x="842.792" y="-378.8" font-family="Times New Roman,serif" font-size="14.00" fill="#f0f0f0">use</text>
<text text-anchor="middle" x="842.792" y="-363.8" font-family="Times New Roman,serif" font-size="14.00" fill="#f0f0f0">ckpt: 2018&#45;06&#45;09T21:11:17.009699</text>
</g>
<!-- http://example.org/ikj#5 -->
<g id="node15" class="node"><title>http://example.org/ikj#5</title>
<g id="a_node15"><a xlink:href="http://example.org/ikj#5" xlink:title="ikj#5">
<ellipse fill="#fafafa" stroke="#f0f0f0" cx="791.292" cy="-18" rx="28.6953" ry="18"/>
<text text-anchor="middle" x="791.292" y="-14.3" font-family="Times New Roman,serif" font-size="14.00" fill="#f0f0f0">ikj#5</text>
</a>
</g>
</g>
<!-- http://example.org/ikj#5&#45;&gt;http://example.org/sum#5 -->
<g id="edge13" class="edge"><title>http://example.org/ikj#5&#45;&gt;http://example.org/sum#5</title>
<path fill="none" stroke="#f0f0f0" d="M776.277,-33.5546C761.564,-48.9573 740.105,-74.7639 731.292,-102 721.468,-132.359 726.017,-169.315 731.189,-193.909"/>
<polygon fill="#f0f0f0" stroke="#f0f0f0" points="727.844,-194.983 733.481,-203.954 734.668,-193.426 727.844,-194.983"/>
<text text-anchor="middle" x="828.792" y="-123.8" font-family="Times New Roman,serif" font-size="14.00" fill="#f0f0f0">der ref</text>
<text text-anchor="middle" x="828.792" y="-108.8" font-family="Times New Roman,serif" font-size="14.00" fill="#f0f0f0">ckpt: 2018&#45;06&#45;09T21:11:17.010693</text>
</g>
<!-- http://example.org/assign20 -->
<g id="node16" class="node"><title>http://example.org/assign20</title>
<g id="a_node16"><a xlink:href="http://example.org/assign20" xlink:title="assign20">
<polygon fill="#fafafa" stroke="#f0f0f0" points="1000.79,-138 935.792,-138 935.792,-102 1000.79,-102 1000.79,-138"/>
<text text-anchor="middle" x="968.292" y="-116.3" font-family="Times New Roman,serif" font-size="14.00" fill="#f0f0f0">assign20</text>
</a>
</g>
</g>
<!-- http://example.org/ikj#5&#45;&gt;http://example.org/assign20 -->
<g id="edge20" class="edge"><title>http://example.org/ikj#5&#45;&gt;http://example.org/assign20</title>
<path fill="none" stroke="#f0f0f0" d="M811.942,-30.667C840.61,-46.8632 893.014,-76.4704 929.201,-96.9147"/>
<polygon fill="#f0f0f0" stroke="#f0f0f0" points="927.599,-100.03 938.027,-101.901 931.042,-93.935 927.599,-100.03"/>
<text text-anchor="middle" x="1003.79" y="-72.8" font-family="Times New Roman,serif" font-size="14.00" fill="#f0f0f0">gen</text>
<text text-anchor="middle" x="1003.79" y="-57.8" font-family="Times New Roman,serif" font-size="14.00" fill="#f0f0f0">ckpt: 2018&#45;06&#45;09T21:11:17.010693</text>
</g>
<!-- http://example.org/assign20&#45;&gt;http://example.org/sum#5 -->
<g id="edge16" class="edge"><title>http://example.org/assign20&#45;&gt;http://example.org/sum#5</title>
<path fill="none" stroke="#f0f0f0" d="M935.338,-135.328C892.406,-153.994 817.639,-186.501 773.585,-205.655"/>
<polygon fill="#f0f0f0" stroke="#f0f0f0" points="772.183,-202.448 764.408,-209.645 774.974,-208.867 772.183,-202.448"/>
<text text-anchor="middle" x="985.792" y="-174.8" font-family="Times New Roman,serif" font-size="14.00" fill="#f0f0f0">use</text>
<text text-anchor="middle" x="985.792" y="-159.8" font-family="Times New Roman,serif" font-size="14.00" fill="#f0f0f0">ckpt: 2018&#45;06&#45;09T21:11:17.010693</text>
</g>
</g>
</svg>
