<?xml version="1.0" encoding="UTF-8" standalone="no"?>
<!DOCTYPE svg PUBLIC "-//W3C//DTD SVG 1.1//EN"
 "http://www.w3.org/Graphics/SVG/1.1/DTD/svg11.dtd">
<!-- Generated by graphviz version 2.38.0 (20140413.2041)
 -->
<!-- Title: PROV Pages: 1 -->
<svg width="1152pt" height="600pt"
 viewBox="0.00 0.00 1152.00 600.48" xmlns="http://www.w3.org/2000/svg" xmlns:xlink="http://www.w3.org/1999/xlink">
<g id="graph0" class="graph" transform="scale(0.894902 0.894902) rotate(0) translate(4 667)">
<title>PROV</title>
<polygon fill="white" stroke="none" points="-4,4 -4,-667 1283.29,-667 1283.29,4 -4,4"/>
<!-- http://example.org/disti@k#3 -->
<g id="node1" class="node"><title>http://example.org/disti@k#3</title>
<g id="a_node1"><a xlink:href="http://example.org/disti@k#3" xlink:title="disti@k#3">
<ellipse fill="#fafafa" stroke="#f0f0f0" cx="464.292" cy="-426" rx="48.1917" ry="18"/>
<text text-anchor="middle" x="464.292" y="-422.3" font-family="Times New Roman,serif" font-size="14.00" fill="#f0f0f0">disti@k#3</text>
</a>
</g>
</g>
<!-- http://example.org/access27 -->
<g id="node2" class="node"><title>http://example.org/access27</title>
<g id="a_node2"><a xlink:href="http://example.org/access27" xlink:title="access27">
<polygon fill="#fafafa" stroke="#f0f0f0" points="270.292,-561 202.292,-561 202.292,-525 270.292,-525 270.292,-561"/>
<text text-anchor="middle" x="236.292" y="-539.3" font-family="Times New Roman,serif" font-size="14.00" fill="#f0f0f0">access27</text>
</a>
</g>
</g>
<!-- http://example.org/disti@k#3&#45;&gt;http://example.org/access27 -->
<g id="edge21" class="edge"><title>http://example.org/disti@k#3&#45;&gt;http://example.org/access27</title>
<path fill="none" stroke="#f0f0f0" d="M417.175,-430.292C366.91,-434.684 291.515,-444.081 269.292,-462 253.16,-475.007 244.832,-497.222 240.581,-514.946"/>
<polygon fill="#f0f0f0" stroke="#f0f0f0" points="237.15,-514.253 238.521,-524.759 244.001,-515.691 237.15,-514.253"/>
<text text-anchor="middle" x="366.792" y="-488.3" font-family="Times New Roman,serif" font-size="14.00" fill="#f0f0f0">gen</text>
<text text-anchor="middle" x="366.792" y="-473.3" font-family="Times New Roman,serif" font-size="14.00" fill="#f0f0f0">ckpt: 2018&#45;06&#45;09T21:11:13.161003</text>
</g>
<!-- bn0 -->
<g id="node3" class="node"><title>bn0</title>
<ellipse fill="#f0f0f0" stroke="#f0f0f0" cx="476.292" cy="-543" rx="1.8" ry="1.8"/>
</g>
<!-- http://example.org/disti@k#3&#45;&gt;bn0 -->
<g id="edge1" class="edge"><title>http://example.org/disti@k#3&#45;&gt;bn0</title>
<path fill="none" stroke="#f0f0f0" d="M466.114,-444.466C469.209,-474.124 475.247,-531.99 476.172,-540.85"/>
<text text-anchor="middle" x="570.792" y="-495.8" font-family="Times New Roman,serif" font-size="14.00" fill="#f0f0f0">der ref</text>
<text text-anchor="middle" x="570.792" y="-480.8" font-family="Times New Roman,serif" font-size="14.00" fill="#f0f0f0">ac&#45;read</text>
<text text-anchor="middle" x="570.792" y="-465.8" font-family="Times New Roman,serif" font-size="14.00" fill="#f0f0f0">ckpt: 2018&#45;06&#45;09T21:11:13.161003</text>
</g>
<!-- http://example.org/disti#3 -->
<g id="node4" class="node"><title>http://example.org/disti#3</title>
<ellipse fill="none" stroke="black" cx="305.292" cy="-645" rx="102.882" ry="18"/>
<text text-anchor="middle" x="305.292" y="-641.3" font-family="Times New Roman,serif" font-size="14.00">http://example.org/disti#3</text>
</g>
<!-- http://example.org/access27&#45;&gt;http://example.org/disti#3 -->
<g id="edge4" class="edge"><title>http://example.org/access27&#45;&gt;http://example.org/disti#3</title>
<path fill="none" stroke="#f0f0f0" d="M235.421,-561.186C235.543,-575.197 237.695,-594.904 247.292,-609 250.684,-613.982 255.042,-618.372 259.844,-622.208"/>
<polygon fill="#f0f0f0" stroke="#f0f0f0" points="258.065,-625.236 268.252,-628.146 262.103,-619.518 258.065,-625.236"/>
<text text-anchor="middle" x="248.584" y="-566.477" font-family="Times New Roman,serif" font-size="8.00" fill="#f0f0f0">use</text>
</g>
<!-- http://example.org/1 -->
<g id="node5" class="node"><title>http://example.org/1</title>
<ellipse fill="none" stroke="black" cx="509.292" cy="-645" rx="83.3857" ry="18"/>
<text text-anchor="middle" x="509.292" y="-641.3" font-family="Times New Roman,serif" font-size="14.00">http://example.org/1</text>
</g>
<!-- http://example.org/access27&#45;&gt;http://example.org/1 -->
<g id="edge16" class="edge"><title>http://example.org/access27&#45;&gt;http://example.org/1</title>
<path fill="none" stroke="#f0f0f0" d="M245.35,-561.195C254.348,-576.428 269.631,-597.919 289.292,-609 339.339,-637.207 360.588,-617.778 417.292,-627 424.346,-628.147 431.693,-629.402 439.024,-630.694"/>
<polygon fill="#f0f0f0" stroke="#f0f0f0" points="438.522,-634.16 448.981,-632.472 439.752,-627.269 438.522,-634.16"/>
<text text-anchor="middle" x="386.792" y="-597.8" font-family="Times New Roman,serif" font-size="14.00" fill="#f0f0f0">use</text>
<text text-anchor="middle" x="386.792" y="-582.8" font-family="Times New Roman,serif" font-size="14.00" fill="#f0f0f0">ckpt: 2018&#45;06&#45;09T21:11:13.161003</text>
</g>
<!-- http://example.org/k#2 -->
<g id="node6" class="node"><title>http://example.org/k#2</title>
<ellipse fill="none" stroke="black" cx="92.2918" cy="-645" rx="92.0841" ry="18"/>
<text text-anchor="middle" x="92.2918" y="-641.3" font-family="Times New Roman,serif" font-size="14.00">http://example.org/k#2</text>
</g>
<!-- http://example.org/access27&#45;&gt;http://example.org/k#2 -->
<g id="edge5" class="edge"><title>http://example.org/access27&#45;&gt;http://example.org/k#2</title>
<path fill="none" stroke="#f0f0f0" d="M211.537,-561.191C187.551,-577.847 151.041,-603.202 124.74,-621.467"/>
<polygon fill="#f0f0f0" stroke="#f0f0f0" points="122.462,-618.787 116.245,-627.366 126.455,-624.537 122.462,-618.787"/>
<text text-anchor="middle" x="212.787" y="-574.238" font-family="Times New Roman,serif" font-size="8.00" fill="#f0f0f0">use</text>
</g>
<!-- bn0&#45;&gt;http://example.org/disti#3 -->
<g id="edge2" class="edge"><title>bn0&#45;&gt;http://example.org/disti#3</title>
<path fill="none" stroke="#f0f0f0" stroke-dasharray="5,2" d="M476.443,-545.106C477.328,-552.053 481.161,-589.995 462.292,-609 456.379,-614.955 421.407,-623.034 385.968,-629.93"/>
<polygon fill="#f0f0f0" stroke="#f0f0f0" points="385.147,-626.523 375.983,-631.84 386.463,-633.398 385.147,-626.523"/>
</g>
<!-- bn0&#45;&gt;http://example.org/1 -->
<g id="edge3" class="edge"><title>bn0&#45;&gt;http://example.org/1</title>
<path fill="none" stroke="#f0f0f0" d="M476.662,-545.123C478.973,-552.125 491.592,-590.364 500.441,-617.18"/>
<polygon fill="#f0f0f0" stroke="#f0f0f0" points="497.161,-618.41 503.619,-626.809 503.809,-616.216 497.161,-618.41"/>
<text text-anchor="middle" x="506.292" y="-590.3" font-family="Times New Roman,serif" font-size="14.00" fill="#f0f0f0">[1]</text>
</g>
<!-- http://example.org/distk@j#3 -->
<g id="node7" class="node"><title>http://example.org/distk@j#3</title>
<g id="a_node7"><a xlink:href="http://example.org/distk@j#3" xlink:title="distk@j#3">
<ellipse fill="#fafafa" stroke="#f0f0f0" cx="896.292" cy="-426" rx="48.1917" ry="18"/>
<text text-anchor="middle" x="896.292" y="-422.3" font-family="Times New Roman,serif" font-size="14.00" fill="#f0f0f0">distk@j#3</text>
</a>
</g>
</g>
<!-- http://example.org/access28 -->
<g id="node8" class="node"><title>http://example.org/access28</title>
<g id="a_node8"><a xlink:href="http://example.org/access28" xlink:title="access28">
<polygon fill="#fafafa" stroke="#f0f0f0" points="888.292,-561 820.292,-561 820.292,-525 888.292,-525 888.292,-561"/>
<text text-anchor="middle" x="854.292" y="-539.3" font-family="Times New Roman,serif" font-size="14.00" fill="#f0f0f0">access28</text>
</a>
</g>
</g>
<!-- http://example.org/distk@j#3&#45;&gt;http://example.org/access28 -->
<g id="edge20" class="edge"><title>http://example.org/distk@j#3&#45;&gt;http://example.org/access28</title>
<path fill="none" stroke="#f0f0f0" d="M876.712,-442.634C871.126,-448.143 865.65,-454.779 862.292,-462 854.688,-478.351 852.721,-498.572 852.639,-514.593"/>
<polygon fill="#f0f0f0" stroke="#f0f0f0" points="849.145,-514.984 852.836,-524.915 856.144,-514.849 849.145,-514.984"/>
<text text-anchor="middle" x="959.792" y="-488.3" font-family="Times New Roman,serif" font-size="14.00" fill="#f0f0f0">gen</text>
<text text-anchor="middle" x="959.792" y="-473.3" font-family="Times New Roman,serif" font-size="14.00" fill="#f0f0f0">ckpt: 2018&#45;06&#45;09T21:11:13.161986</text>
</g>
<!-- bn1 -->
<g id="node9" class="node"><title>bn1</title>
<ellipse fill="#f0f0f0" stroke="#f0f0f0" cx="1091.29" cy="-543" rx="1.8" ry="1.8"/>
</g>
<!-- http://example.org/distk@j#3&#45;&gt;bn1 -->
<g id="edge6" class="edge"><title>http://example.org/distk@j#3&#45;&gt;bn1</title>
<path fill="none" stroke="#f0f0f0" d="M941.749,-432.178C982.999,-437.698 1039.94,-447.636 1057.29,-462 1084.73,-484.711 1090.47,-533.537 1091.2,-541.027"/>
<text text-anchor="middle" x="1181.79" y="-495.8" font-family="Times New Roman,serif" font-size="14.00" fill="#f0f0f0">der ref</text>
<text text-anchor="middle" x="1181.79" y="-480.8" font-family="Times New Roman,serif" font-size="14.00" fill="#f0f0f0">ac&#45;read</text>
<text text-anchor="middle" x="1181.79" y="-465.8" font-family="Times New Roman,serif" font-size="14.00" fill="#f0f0f0">ckpt: 2018&#45;06&#45;09T21:11:13.161986</text>
</g>
<!-- http://example.org/distk#2 -->
<g id="node10" class="node"><title>http://example.org/distk#2</title>
<ellipse fill="none" stroke="black" cx="918.292" cy="-645" rx="105.082" ry="18"/>
<text text-anchor="middle" x="918.292" y="-641.3" font-family="Times New Roman,serif" font-size="14.00">http://example.org/distk#2</text>
</g>
<!-- http://example.org/access28&#45;&gt;http://example.org/distk#2 -->
<g id="edge9" class="edge"><title>http://example.org/access28&#45;&gt;http://example.org/distk#2</title>
<path fill="none" stroke="#f0f0f0" d="M852.545,-561.086C851.971,-575.037 853.188,-594.713 862.292,-609 865.449,-613.955 869.587,-618.329 874.186,-622.156"/>
<polygon fill="#f0f0f0" stroke="#f0f0f0" points="872.136,-624.993 882.269,-628.086 876.276,-619.349 872.136,-624.993"/>
<text text-anchor="middle" x="865.337" y="-567.019" font-family="Times New Roman,serif" font-size="8.00" fill="#f0f0f0">use</text>
</g>
<!-- http://example.org/2 -->
<g id="node11" class="node"><title>http://example.org/2</title>
<ellipse fill="none" stroke="black" cx="1124.29" cy="-645" rx="83.3857" ry="18"/>
<text text-anchor="middle" x="1124.29" y="-641.3" font-family="Times New Roman,serif" font-size="14.00">http://example.org/2</text>
</g>
<!-- http://example.org/access28&#45;&gt;http://example.org/2 -->
<g id="edge14" class="edge"><title>http://example.org/access28&#45;&gt;http://example.org/2</title>
<path fill="none" stroke="#f0f0f0" d="M862.594,-561.183C870.916,-576.408 885.223,-597.894 904.292,-609 953.934,-637.913 975.588,-617.778 1032.29,-627 1039.35,-628.147 1046.69,-629.402 1054.02,-630.694"/>
<polygon fill="#f0f0f0" stroke="#f0f0f0" points="1053.52,-634.16 1063.98,-632.472 1054.75,-627.269 1053.52,-634.16"/>
<text text-anchor="middle" x="1001.79" y="-597.8" font-family="Times New Roman,serif" font-size="14.00" fill="#f0f0f0">use</text>
<text text-anchor="middle" x="1001.79" y="-582.8" font-family="Times New Roman,serif" font-size="14.00" fill="#f0f0f0">ckpt: 2018&#45;06&#45;09T21:11:13.161986</text>
</g>
<!-- http://example.org/j#9 -->
<g id="node12" class="node"><title>http://example.org/j#9</title>
<ellipse fill="none" stroke="black" cx="705.292" cy="-645" rx="89.8845" ry="18"/>
<text text-anchor="middle" x="705.292" y="-641.3" font-family="Times New Roman,serif" font-size="14.00">http://example.org/j#9</text>
</g>
<!-- http://example.org/access28&#45;&gt;http://example.org/j#9 -->
<g id="edge10" class="edge"><title>http://example.org/access28&#45;&gt;http://example.org/j#9</title>
<path fill="none" stroke="#f0f0f0" d="M828.678,-561.191C803.751,-577.92 765.752,-603.423 738.512,-621.704"/>
<polygon fill="#f0f0f0" stroke="#f0f0f0" points="736.429,-618.887 730.076,-627.366 740.33,-624.699 736.429,-618.887"/>
<text text-anchor="middle" x="829.689" y="-574.256" font-family="Times New Roman,serif" font-size="8.00" fill="#f0f0f0">use</text>
</g>
<!-- bn1&#45;&gt;http://example.org/distk#2 -->
<g id="edge7" class="edge"><title>bn1&#45;&gt;http://example.org/distk#2</title>
<path fill="none" stroke="#f0f0f0" stroke-dasharray="5,2" d="M1091.44,-545.106C1092.33,-552.057 1096.19,-590.02 1077.29,-609 1071.32,-614.997 1036.15,-623.041 1000.4,-629.905"/>
<polygon fill="#f0f0f0" stroke="#f0f0f0" points="999.503,-626.513 990.326,-631.807 1000.8,-633.391 999.503,-626.513"/>
</g>
<!-- bn1&#45;&gt;http://example.org/2 -->
<g id="edge8" class="edge"><title>bn1&#45;&gt;http://example.org/2</title>
<path fill="none" stroke="#f0f0f0" d="M1091.66,-545.123C1093.97,-552.125 1106.59,-590.364 1115.44,-617.18"/>
<polygon fill="#f0f0f0" stroke="#f0f0f0" points="1112.16,-618.41 1118.62,-626.809 1118.81,-616.216 1112.16,-618.41"/>
<text text-anchor="middle" x="1121.29" y="-590.3" font-family="Times New Roman,serif" font-size="14.00" fill="#f0f0f0">[2]</text>
</g>
<!-- http://example.org/sum#3 -->
<g id="node13" class="node"><title>http://example.org/sum#3</title>
<g id="a_node13"><a xlink:href="http://example.org/sum#3" xlink:title="sum#3">
<ellipse fill="#fafafa" stroke="#f0f0f0" cx="693.292" cy="-222" rx="35.194" ry="18"/>
<text text-anchor="middle" x="693.292" y="-218.3" font-family="Times New Roman,serif" font-size="14.00" fill="#f0f0f0">sum#3</text>
</a>
</g>
</g>
<!-- http://example.org/sum#3&#45;&gt;http://example.org/disti@k#3 -->
<g id="edge11" class="edge"><title>http://example.org/sum#3&#45;&gt;http://example.org/disti@k#3</title>
<path fill="none" stroke="#f0f0f0" d="M658.164,-223.865C605.379,-227.29 507.031,-242.386 462.292,-306 443.487,-332.738 448.688,-371.875 455.406,-397.875"/>
<polygon fill="#f0f0f0" stroke="#f0f0f0" points="452.125,-399.134 458.211,-407.807 458.861,-397.232 452.125,-399.134"/>
<text text-anchor="middle" x="559.792" y="-327.8" font-family="Times New Roman,serif" font-size="14.00" fill="#f0f0f0">der</text>
<text text-anchor="middle" x="559.792" y="-312.8" font-family="Times New Roman,serif" font-size="14.00" fill="#f0f0f0">ckpt: 2018&#45;06&#45;09T21:11:13.162984</text>
</g>
<!-- http://example.org/sum#3&#45;&gt;http://example.org/distk@j#3 -->
<g id="edge12" class="edge"><title>http://example.org/sum#3&#45;&gt;http://example.org/distk@j#3</title>
<path fill="none" stroke="#f0f0f0" d="M728.328,-224.03C779.639,-226.351 871.41,-233.855 892.292,-258 925.875,-296.832 914.925,-361.815 904.973,-398.213"/>
<polygon fill="#f0f0f0" stroke="#f0f0f0" points="901.528,-397.524 902.099,-408.104 908.25,-399.478 901.528,-397.524"/>
<text text-anchor="middle" x="1012.79" y="-327.8" font-family="Times New Roman,serif" font-size="14.00" fill="#f0f0f0">der</text>
<text text-anchor="middle" x="1012.79" y="-312.8" font-family="Times New Roman,serif" font-size="14.00" fill="#f0f0f0">ckpt: 2018&#45;06&#45;09T21:11:13.162984</text>
</g>
<!-- http://example.org/+3 -->
<g id="node14" class="node"><title>http://example.org/+3</title>
<g id="a_node14"><a xlink:href="http://example.org/+3" xlink:title="+3">
<polygon fill="#fafafa" stroke="#f0f0f0" points="720.292,-342 666.292,-342 666.292,-306 720.292,-306 720.292,-342"/>
<text text-anchor="middle" x="693.292" y="-320.3" font-family="Times New Roman,serif" font-size="14.00" fill="#f0f0f0">+3</text>
</a>
</g>
</g>
<!-- http://example.org/sum#3&#45;&gt;http://example.org/+3 -->
<g id="edge19" class="edge"><title>http://example.org/sum#3&#45;&gt;http://example.org/+3</title>
<path fill="none" stroke="#f0f0f0" d="M693.292,-240.419C693.292,-255.618 693.292,-277.933 693.292,-295.536"/>
<polygon fill="#f0f0f0" stroke="#f0f0f0" points="689.792,-295.781 693.292,-305.781 696.792,-295.781 689.792,-295.781"/>
<text text-anchor="middle" x="790.792" y="-276.8" font-family="Times New Roman,serif" font-size="14.00" fill="#f0f0f0">gen</text>
<text text-anchor="middle" x="790.792" y="-261.8" font-family="Times New Roman,serif" font-size="14.00" fill="#f0f0f0">ckpt: 2018&#45;06&#45;09T21:11:13.162984</text>
</g>
<!-- http://example.org/+3&#45;&gt;http://example.org/disti@k#3 -->
<g id="edge18" class="edge"><title>http://example.org/+3&#45;&gt;http://example.org/disti@k#3</title>
<path fill="none" stroke="#f0f0f0" d="M665.893,-336.341C659.849,-338.499 653.42,-340.536 647.292,-342 613.35,-350.106 519.157,-338.993 491.292,-360 479.24,-369.086 472.532,-384.535 468.818,-398.093"/>
<polygon fill="#f0f0f0" stroke="#f0f0f0" points="465.38,-397.422 466.521,-407.955 472.198,-399.009 465.38,-397.422"/>
<text text-anchor="middle" x="588.792" y="-378.8" font-family="Times New Roman,serif" font-size="14.00" fill="#f0f0f0">use</text>
<text text-anchor="middle" x="588.792" y="-363.8" font-family="Times New Roman,serif" font-size="14.00" fill="#f0f0f0">ckpt: 2018&#45;06&#45;09T21:11:13.162984</text>
</g>
<!-- http://example.org/+3&#45;&gt;http://example.org/distk@j#3 -->
<g id="edge15" class="edge"><title>http://example.org/+3&#45;&gt;http://example.org/distk@j#3</title>
<path fill="none" stroke="#f0f0f0" d="M689.992,-342.221C688.262,-356.835 688.524,-377.385 700.292,-390 718.711,-409.745 787.651,-418.425 838.585,-422.192"/>
<polygon fill="#f0f0f0" stroke="#f0f0f0" points="838.616,-425.703 848.834,-422.903 839.1,-418.72 838.616,-425.703"/>
<text text-anchor="middle" x="797.792" y="-378.8" font-family="Times New Roman,serif" font-size="14.00" fill="#f0f0f0">use</text>
<text text-anchor="middle" x="797.792" y="-363.8" font-family="Times New Roman,serif" font-size="14.00" fill="#f0f0f0">ckpt: 2018&#45;06&#45;09T21:11:13.162984</text>
</g>
<!-- http://example.org/ikj#3 -->
<g id="node15" class="node"><title>http://example.org/ikj#3</title>
<g id="a_node15"><a xlink:href="http://example.org/ikj#3" xlink:title="ikj#3">
<ellipse fill="#fafafa" stroke="#f0f0f0" cx="746.292" cy="-18" rx="28.6953" ry="18"/>
<text text-anchor="middle" x="746.292" y="-14.3" font-family="Times New Roman,serif" font-size="14.00" fill="#f0f0f0">ikj#3</text>
</a>
</g>
</g>
<!-- http://example.org/ikj#3&#45;&gt;http://example.org/sum#3 -->
<g id="edge13" class="edge"><title>http://example.org/ikj#3&#45;&gt;http://example.org/sum#3</title>
<path fill="none" stroke="#f0f0f0" d="M731.277,-33.5546C716.564,-48.9573 695.105,-74.7639 686.292,-102 676.468,-132.359 681.017,-169.315 686.189,-193.909"/>
<polygon fill="#f0f0f0" stroke="#f0f0f0" points="682.844,-194.983 688.481,-203.954 689.668,-193.426 682.844,-194.983"/>
<text text-anchor="middle" x="783.792" y="-123.8" font-family="Times New Roman,serif" font-size="14.00" fill="#f0f0f0">der ref</text>
<text text-anchor="middle" x="783.792" y="-108.8" font-family="Times New Roman,serif" font-size="14.00" fill="#f0f0f0">ckpt: 2018&#45;06&#45;09T21:11:13.163982</text>
</g>
<!-- http://example.org/assign14 -->
<g id="node16" class="node"><title>http://example.org/assign14</title>
<g id="a_node16"><a xlink:href="http://example.org/assign14" xlink:title="assign14">
<polygon fill="#fafafa" stroke="#f0f0f0" points="955.792,-138 890.792,-138 890.792,-102 955.792,-102 955.792,-138"/>
<text text-anchor="middle" x="923.292" y="-116.3" font-family="Times New Roman,serif" font-size="14.00" fill="#f0f0f0">assign14</text>
</a>
</g>
</g>
<!-- http://example.org/ikj#3&#45;&gt;http://example.org/assign14 -->
<g id="edge22" class="edge"><title>http://example.org/ikj#3&#45;&gt;http://example.org/assign14</title>
<path fill="none" stroke="#f0f0f0" d="M766.942,-30.667C795.61,-46.8632 848.014,-76.4704 884.201,-96.9147"/>
<polygon fill="#f0f0f0" stroke="#f0f0f0" points="882.599,-100.03 893.027,-101.901 886.042,-93.935 882.599,-100.03"/>
<text text-anchor="middle" x="958.792" y="-72.8" font-family="Times New Roman,serif" font-size="14.00" fill="#f0f0f0">gen</text>
<text text-anchor="middle" x="958.792" y="-57.8" font-family="Times New Roman,serif" font-size="14.00" fill="#f0f0f0">ckpt: 2018&#45;06&#45;09T21:11:13.163982</text>
</g>
<!-- http://example.org/assign14&#45;&gt;http://example.org/sum#3 -->
<g id="edge17" class="edge"><title>http://example.org/assign14&#45;&gt;http://example.org/sum#3</title>
<path fill="none" stroke="#f0f0f0" d="M890.338,-135.328C847.406,-153.994 772.639,-186.501 728.585,-205.655"/>
<polygon fill="#f0f0f0" stroke="#f0f0f0" points="727.183,-202.448 719.408,-209.645 729.974,-208.867 727.183,-202.448"/>
<text text-anchor="middle" x="940.792" y="-174.8" font-family="Times New Roman,serif" font-size="14.00" fill="#f0f0f0">use</text>
<text text-anchor="middle" x="940.792" y="-159.8" font-family="Times New Roman,serif" font-size="14.00" fill="#f0f0f0">ckpt: 2018&#45;06&#45;09T21:11:13.163982</text>
</g>
</g>
</svg>
