<?xml version="1.0" encoding="UTF-8" standalone="no"?>
<!DOCTYPE svg PUBLIC "-//W3C//DTD SVG 1.1//EN"
 "http://www.w3.org/Graphics/SVG/1.1/DTD/svg11.dtd">
<!-- Generated by graphviz version 2.38.0 (20140413.2041)
 -->
<!-- Title: PROV Pages: 1 -->
<svg width="615pt" height="503pt"
 viewBox="0.00 0.00 615.33 503.00" xmlns="http://www.w3.org/2000/svg" xmlns:xlink="http://www.w3.org/1999/xlink">
<g id="graph0" class="graph" transform="scale(1 1) rotate(0) translate(4 499)">
<title>PROV</title>
<polygon fill="white" stroke="none" points="-4,4 -4,-499 611.333,-499 611.333,4 -4,4"/>
<!-- http://example.org/dist@i#4 -->
<g id="node1" class="node"><title>http://example.org/dist@i#4</title>
<g id="a_node1"><a xlink:href="http://example.org/dist@i#4" xlink:title="dist@i#4">
<ellipse fill="#fffc87" stroke="#808080" cx="285.641" cy="-297" rx="43.5923" ry="18"/>
<text text-anchor="middle" x="285.641" y="-293.3" font-family="Times New Roman,serif" font-size="14.00">dist@i#4</text>
</a>
</g>
</g>
<!-- http://example.org/access32 -->
<g id="node3" class="node"><title>http://example.org/access32</title>
<g id="a_node3"><a xlink:href="http://example.org/access32" xlink:title="access32">
<polygon fill="#fafafa" stroke="#f0f0f0" points="349.641,-405 281.641,-405 281.641,-369 349.641,-369 349.641,-405"/>
<text text-anchor="middle" x="315.641" y="-383.3" font-family="Times New Roman,serif" font-size="14.00" fill="#f0f0f0">access32</text>
</a>
</g>
</g>
<!-- http://example.org/dist@i#4&#45;&gt;http://example.org/access32 -->
<g id="edge12" class="edge"><title>http://example.org/dist@i#4&#45;&gt;http://example.org/access32</title>
<path fill="none" stroke="#f0f0f0" d="M291.425,-314.967C295.672,-327.426 301.529,-344.606 306.419,-358.95"/>
<polygon fill="#f0f0f0" stroke="#f0f0f0" points="303.232,-360.449 309.772,-368.785 309.858,-358.19 303.232,-360.449"/>
<text text-anchor="middle" x="310.141" y="-344.6" font-family="Times New Roman,serif" font-size="8.00" fill="#f0f0f0">gen</text>
<text text-anchor="middle" x="310.141" y="-335.6" font-family="Times New Roman,serif" font-size="8.00" fill="#f0f0f0">58</text>
</g>
<!-- bn0 -->
<g id="node4" class="node"><title>bn0</title>
<ellipse fill="#f0f0f0" stroke="#f0f0f0" cx="259.641" cy="-387" rx="1.8" ry="1.8"/>
</g>
<!-- http://example.org/dist@i#4&#45;&gt;bn0 -->
<g id="edge2" class="edge"><title>http://example.org/dist@i#4&#45;&gt;bn0</title>
<path fill="none" stroke="#f0f0f0" d="M273.128,-314.257C269.429,-319.898 265.797,-326.456 263.641,-333 257.173,-352.632 258.961,-378.486 259.509,-384.643"/>
<text text-anchor="middle" x="277.141" y="-344.6" font-family="Times New Roman,serif" font-size="8.00" fill="#f0f0f0">der ac&#45;r</text>
<text text-anchor="middle" x="277.141" y="-335.6" font-family="Times New Roman,serif" font-size="8.00" fill="#f0f0f0">58</text>
</g>
<!-- &#45;attrs0 -->
<g id="node2" class="node"><title>&#45;attrs0</title>
<polygon fill="none" stroke="gray" points="243.641,-225 173.641,-225 173.641,-176 249.641,-176 249.641,-219 243.641,-225"/>
<polyline fill="none" stroke="gray" points="243.641,-225 243.641,-219 "/>
<polyline fill="none" stroke="gray" points="249.641,-219 243.641,-219 "/>
<text text-anchor="start" x="183.641" y="-210.5" font-family="Times New Roman,serif" font-size="10.00">value:</text>
<text text-anchor="start" x="210.641" y="-210.5" font-family="Times New Roman,serif" font-size="10.00">[2, 3, 0]</text>
<text text-anchor="start" x="183.641" y="-197.5" font-family="Times New Roman,serif" font-size="10.00">type:</text>
<text text-anchor="start" x="210.641" y="-197.5" font-family="Times New Roman,serif" font-size="10.00">access</text>
<text text-anchor="start" x="183.641" y="-184.5" font-family="Times New Roman,serif" font-size="10.00">label:</text>
<text text-anchor="start" x="210.641" y="-184.5" font-family="Times New Roman,serif" font-size="10.00">dist[i]</text>
</g>
<!-- &#45;attrs0&#45;&gt;http://example.org/dist@i#4 -->
<g id="edge1" class="edge"><title>&#45;attrs0&#45;&gt;http://example.org/dist@i#4</title>
<path fill="none" stroke="gray" stroke-dasharray="5,2" d="M230.314,-225.346C243.587,-242.296 261.07,-264.622 272.798,-279.6"/>
</g>
<!-- http://example.org/dist -->
<g id="node5" class="node"><title>http://example.org/dist</title>
<ellipse fill="none" stroke="black" cx="318.641" cy="-477" rx="91.784" ry="18"/>
<text text-anchor="middle" x="318.641" y="-473.3" font-family="Times New Roman,serif" font-size="14.00">http://example.org/dist</text>
</g>
<!-- http://example.org/access32&#45;&gt;http://example.org/dist -->
<g id="edge5" class="edge"><title>http://example.org/access32&#45;&gt;http://example.org/dist</title>
<path fill="none" stroke="#f0f0f0" d="M316.233,-405.386C316.655,-417.76 317.23,-434.631 317.713,-448.78"/>
<polygon fill="#f0f0f0" stroke="#f0f0f0" points="314.221,-449.075 318.059,-458.95 321.217,-448.836 314.221,-449.075"/>
<text text-anchor="middle" x="329.472" y="-410.539" font-family="Times New Roman,serif" font-size="8.00" fill="#f0f0f0">use</text>
</g>
<!-- http://example.org/lastrow -->
<g id="node6" class="node"><title>http://example.org/lastrow</title>
<ellipse fill="none" stroke="black" cx="104.641" cy="-477" rx="104.782" ry="18"/>
<text text-anchor="middle" x="104.641" y="-473.3" font-family="Times New Roman,serif" font-size="14.00">http://example.org/lastrow</text>
</g>
<!-- http://example.org/access32&#45;&gt;http://example.org/lastrow -->
<g id="edge9" class="edge"><title>http://example.org/access32&#45;&gt;http://example.org/lastrow</title>
<path fill="none" stroke="#f0f0f0" d="M285.287,-405.049C264.853,-416.13 237.092,-430.427 211.641,-441 196.834,-447.151 180.531,-452.953 165.209,-457.999"/>
<polygon fill="#f0f0f0" stroke="#f0f0f0" points="163.745,-454.794 155.308,-461.202 165.9,-461.454 163.745,-454.794"/>
<text text-anchor="middle" x="255.141" y="-434.6" font-family="Times New Roman,serif" font-size="8.00" fill="#f0f0f0">use</text>
<text text-anchor="middle" x="255.141" y="-425.6" font-family="Times New Roman,serif" font-size="8.00" fill="#f0f0f0">58</text>
</g>
<!-- http://example.org/i#6 -->
<g id="node7" class="node"><title>http://example.org/i#6</title>
<ellipse fill="none" stroke="black" cx="517.641" cy="-477" rx="89.8845" ry="18"/>
<text text-anchor="middle" x="517.641" y="-473.3" font-family="Times New Roman,serif" font-size="14.00">http://example.org/i#6</text>
</g>
<!-- http://example.org/access32&#45;&gt;http://example.org/i#6 -->
<g id="edge6" class="edge"><title>http://example.org/access32&#45;&gt;http://example.org/i#6</title>
<path fill="none" stroke="#f0f0f0" d="M349.907,-402.928C383.592,-417.603 435.202,-440.086 472.276,-456.237"/>
<polygon fill="#f0f0f0" stroke="#f0f0f0" points="471.278,-459.62 481.843,-460.405 474.074,-453.202 471.278,-459.62"/>
<text text-anchor="middle" x="361.971" y="-392.114" font-family="Times New Roman,serif" font-size="8.00" fill="#f0f0f0">use</text>
</g>
<!-- bn0&#45;&gt;http://example.org/dist -->
<g id="edge3" class="edge"><title>bn0&#45;&gt;http://example.org/dist</title>
<path fill="none" stroke="#f0f0f0" stroke-dasharray="5,2" d="M259.666,-388.824C259.86,-394.018 261.467,-422.58 273.641,-441 276.501,-445.327 280.075,-449.349 283.952,-453.01"/>
<polygon fill="#f0f0f0" stroke="#f0f0f0" points="281.791,-455.767 291.673,-459.59 286.332,-450.44 281.791,-455.767"/>
</g>
<!-- bn0&#45;&gt;http://example.org/lastrow -->
<g id="edge4" class="edge"><title>bn0&#45;&gt;http://example.org/lastrow</title>
<path fill="none" stroke="#f0f0f0" d="M258.651,-388.562C249.889,-393.536 184.912,-430.427 142.202,-454.675"/>
<polygon fill="#f0f0f0" stroke="#f0f0f0" points="140.423,-451.66 133.454,-459.641 143.879,-457.748 140.423,-451.66"/>
<text text-anchor="middle" x="202.141" y="-430.1" font-family="Times New Roman,serif" font-size="8.00" fill="#f0f0f0">[2]</text>
</g>
<!-- http://example.org/disti#4 -->
<g id="node8" class="node"><title>http://example.org/disti#4</title>
<g id="a_node8"><a xlink:href="http://example.org/disti#4" xlink:title="disti#4">
<ellipse fill="#fffc87" stroke="#808080" cx="301.641" cy="-104" rx="35.194" ry="18"/>
<text text-anchor="middle" x="301.641" y="-100.3" font-family="Times New Roman,serif" font-size="14.00">disti#4</text>
</a>
</g>
</g>
<!-- http://example.org/disti#4&#45;&gt;http://example.org/dist@i#4 -->
<g id="edge8" class="edge"><title>http://example.org/disti#4&#45;&gt;http://example.org/dist@i#4</title>
<path fill="none" stroke="#f0f0f0" d="M299.831,-122.206C298.346,-136.578 296.236,-157.614 294.641,-176 291.884,-207.767 289.215,-244.309 287.51,-268.641"/>
<polygon fill="#f0f0f0" stroke="#f0f0f0" points="283.998,-268.681 286.797,-278.9 290.982,-269.167 283.998,-268.681"/>
<text text-anchor="middle" x="306.141" y="-203.1" font-family="Times New Roman,serif" font-size="8.00" fill="#f0f0f0">der ref</text>
<text text-anchor="middle" x="306.141" y="-194.1" font-family="Times New Roman,serif" font-size="8.00" fill="#f0f0f0">59</text>
</g>
<!-- http://example.org/assign17 -->
<g id="node10" class="node"><title>http://example.org/assign17</title>
<g id="a_node10"><a xlink:href="http://example.org/assign17" xlink:title="assign17">
<polygon fill="#fafafa" stroke="#f0f0f0" points="392.141,-218.5 327.141,-218.5 327.141,-182.5 392.141,-182.5 392.141,-218.5"/>
<text text-anchor="middle" x="359.641" y="-196.8" font-family="Times New Roman,serif" font-size="14.00" fill="#f0f0f0">assign17</text>
</a>
</g>
</g>
<!-- http://example.org/disti#4&#45;&gt;http://example.org/assign17 -->
<g id="edge11" class="edge"><title>http://example.org/disti#4&#45;&gt;http://example.org/assign17</title>
<path fill="none" stroke="#f0f0f0" d="M311.744,-121.461C320.561,-135.828 333.508,-156.921 343.718,-173.558"/>
<polygon fill="#f0f0f0" stroke="#f0f0f0" points="340.852,-175.578 349.066,-182.27 346.818,-171.917 340.852,-175.578"/>
<text text-anchor="middle" x="341.141" y="-151.6" font-family="Times New Roman,serif" font-size="8.00" fill="#f0f0f0">gen</text>
<text text-anchor="middle" x="341.141" y="-142.6" font-family="Times New Roman,serif" font-size="8.00" fill="#f0f0f0">59</text>
</g>
<!-- &#45;attrs1 -->
<g id="node9" class="node"><title>&#45;attrs1</title>
<polygon fill="none" stroke="gray" points="333.641,-49 263.641,-49 263.641,-0 339.641,-0 339.641,-43 333.641,-49"/>
<polyline fill="none" stroke="gray" points="333.641,-49 333.641,-43 "/>
<polyline fill="none" stroke="gray" points="339.641,-43 333.641,-43 "/>
<text text-anchor="start" x="273.641" y="-34.5" font-family="Times New Roman,serif" font-size="10.00">value:</text>
<text text-anchor="start" x="300.641" y="-34.5" font-family="Times New Roman,serif" font-size="10.00">[2, 3, 0]</text>
<text text-anchor="start" x="273.641" y="-21.5" font-family="Times New Roman,serif" font-size="10.00">type:</text>
<text text-anchor="start" x="300.641" y="-21.5" font-family="Times New Roman,serif" font-size="10.00">name</text>
<text text-anchor="start" x="273.641" y="-8.5" font-family="Times New Roman,serif" font-size="10.00">label:</text>
<text text-anchor="start" x="300.641" y="-8.5" font-family="Times New Roman,serif" font-size="10.00">disti</text>
</g>
<!-- &#45;attrs1&#45;&gt;http://example.org/disti#4 -->
<g id="edge7" class="edge"><title>&#45;attrs1&#45;&gt;http://example.org/disti#4</title>
<path fill="none" stroke="gray" stroke-dasharray="5,2" d="M301.641,-49.1737C301.641,-60.9254 301.641,-74.869 301.641,-85.6196"/>
</g>
<!-- http://example.org/assign17&#45;&gt;http://example.org/dist@i#4 -->
<g id="edge10" class="edge"><title>http://example.org/assign17&#45;&gt;http://example.org/dist@i#4</title>
<path fill="none" stroke="#f0f0f0" d="M346.068,-218.833C334.485,-233.625 317.698,-255.062 304.755,-271.59"/>
<polygon fill="#f0f0f0" stroke="#f0f0f0" points="301.795,-269.693 298.385,-279.725 307.306,-274.009 301.795,-269.693"/>
<text text-anchor="middle" x="333.141" y="-254.6" font-family="Times New Roman,serif" font-size="8.00" fill="#f0f0f0">use</text>
<text text-anchor="middle" x="333.141" y="-245.6" font-family="Times New Roman,serif" font-size="8.00" fill="#f0f0f0">59</text>
</g>
</g>
</svg>
