<?xml version="1.0" encoding="UTF-8" standalone="no"?>
<!DOCTYPE svg PUBLIC "-//W3C//DTD SVG 1.1//EN"
 "http://www.w3.org/Graphics/SVG/1.1/DTD/svg11.dtd">
<!-- Generated by graphviz version 2.38.0 (20140413.2041)
 -->
<!-- Title: PROV Pages: 1 -->
<svg width="615pt" height="486pt"
 viewBox="0.00 0.00 615.33 486.00" xmlns="http://www.w3.org/2000/svg" xmlns:xlink="http://www.w3.org/1999/xlink">
<g id="graph0" class="graph" transform="scale(1 1) rotate(0) translate(4 482)">
<title>PROV</title>
<polygon fill="white" stroke="none" points="-4,4 -4,-482 611.333,-482 611.333,4 -4,4"/>
<!-- http://example.org/dist_ai#2 -->
<g id="node1" class="node"><title>http://example.org/dist_ai#2</title>
<g id="a_node1"><a xlink:href="http://example.org/dist_ai#2" xlink:title="dist_ai#2">
<ellipse fill="#fffc87" stroke="#808080" cx="256.641" cy="-289" rx="44.393" ry="18"/>
<text text-anchor="middle" x="256.641" y="-285.3" font-family="Times New Roman,serif" font-size="14.00">dist_ai#2</text>
</a>
</g>
</g>
<!-- http://example.org/access13 -->
<g id="node3" class="node"><title>http://example.org/access13</title>
<g id="a_node3"><a xlink:href="http://example.org/access13" xlink:title="access13">
<polygon fill="#fafafa" stroke="#f0f0f0" points="352.641,-397 284.641,-397 284.641,-361 352.641,-361 352.641,-397"/>
<text text-anchor="middle" x="318.641" y="-375.3" font-family="Times New Roman,serif" font-size="14.00" fill="#f0f0f0">access13</text>
</a>
</g>
</g>
<!-- http://example.org/dist_ai#2&#45;&gt;http://example.org/access13 -->
<g id="edge12" class="edge"><title>http://example.org/dist_ai#2&#45;&gt;http://example.org/access13</title>
<path fill="none" stroke="#f0f0f0" d="M282.407,-304.004C290.567,-309.571 298.938,-316.655 304.641,-325 309.813,-332.568 313.074,-341.943 315.132,-350.694"/>
<polygon fill="#f0f0f0" stroke="#f0f0f0" points="311.7,-351.382 317.035,-360.536 318.572,-350.053 311.7,-351.382"/>
<text text-anchor="middle" x="295.999" y="-295.76" font-family="Times New Roman,serif" font-size="8.00" fill="#f0f0f0">gen</text>
</g>
<!-- bn0 -->
<g id="node4" class="node"><title>bn0</title>
<ellipse fill="#f0f0f0" stroke="#f0f0f0" cx="194.641" cy="-379" rx="1.8" ry="1.8"/>
</g>
<!-- http://example.org/dist_ai#2&#45;&gt;bn0 -->
<g id="edge2" class="edge"><title>http://example.org/dist_ai#2&#45;&gt;bn0</title>
<path fill="none" stroke="#f0f0f0" d="M223.862,-301.123C212.956,-306.549 201.984,-314.282 195.641,-325 184.767,-343.374 192.781,-371.974 194.379,-377.174"/>
<text text-anchor="middle" x="250.141" y="-336.6" font-family="Times New Roman,serif" font-size="8.00" fill="#f0f0f0">der ac&#45;r</text>
<text text-anchor="middle" x="250.141" y="-327.6" font-family="Times New Roman,serif" font-size="8.00" fill="#f0f0f0">2018&#45;03&#45;12T13:12:16.446826</text>
</g>
<!-- &#45;attrs0 -->
<g id="node2" class="node"><title>&#45;attrs0</title>
<polygon fill="none" stroke="gray" points="214.141,-234 45.1407,-234 45.1407,-172 220.141,-172 220.141,-228 214.141,-234"/>
<polyline fill="none" stroke="gray" points="214.141,-234 214.141,-228 "/>
<polyline fill="none" stroke="gray" points="220.141,-228 214.141,-228 "/>
<text text-anchor="start" x="55.6407" y="-220" font-family="Times New Roman,serif" font-size="10.00">value:</text>
<text text-anchor="start" x="104.641" y="-220" font-family="Times New Roman,serif" font-size="10.00">[2, 10000, 0]</text>
<text text-anchor="start" x="55.6407" y="-207" font-family="Times New Roman,serif" font-size="10.00">type:</text>
<text text-anchor="start" x="104.641" y="-207" font-family="Times New Roman,serif" font-size="10.00">access</text>
<text text-anchor="start" x="55.6407" y="-194" font-family="Times New Roman,serif" font-size="10.00">label:</text>
<text text-anchor="start" x="104.641" y="-194" font-family="Times New Roman,serif" font-size="10.00">dist[i]</text>
<text text-anchor="start" x="55.6407" y="-181" font-family="Times New Roman,serif" font-size="10.00">checkpoint:</text>
<text text-anchor="start" x="104.641" y="-181" font-family="Times New Roman,serif" font-size="10.00">2018&#45;03&#45;12 13:12:16.446826</text>
</g>
<!-- &#45;attrs0&#45;&gt;http://example.org/dist_ai#2 -->
<g id="edge1" class="edge"><title>&#45;attrs0&#45;&gt;http://example.org/dist_ai#2</title>
<path fill="none" stroke="gray" stroke-dasharray="5,2" d="M177.057,-234.089C196.654,-247.364 218.806,-262.37 234.754,-273.174"/>
</g>
<!-- http://example.org/dist -->
<g id="node5" class="node"><title>http://example.org/dist</title>
<ellipse fill="none" stroke="black" cx="318.641" cy="-460" rx="91.784" ry="18"/>
<text text-anchor="middle" x="318.641" y="-456.3" font-family="Times New Roman,serif" font-size="14.00">http://example.org/dist</text>
</g>
<!-- http://example.org/access13&#45;&gt;http://example.org/dist -->
<g id="edge5" class="edge"><title>http://example.org/access13&#45;&gt;http://example.org/dist</title>
<path fill="none" stroke="#f0f0f0" d="M318.641,-397.142C318.641,-407.287 318.641,-420.366 318.641,-431.883"/>
<polygon fill="#f0f0f0" stroke="#f0f0f0" points="315.141,-431.892 318.641,-441.892 322.141,-431.892 315.141,-431.892"/>
<text text-anchor="middle" x="331.631" y="-402.742" font-family="Times New Roman,serif" font-size="8.00" fill="#f0f0f0">use</text>
</g>
<!-- http://example.org/lastrow -->
<g id="node6" class="node"><title>http://example.org/lastrow</title>
<ellipse fill="none" stroke="black" cx="104.641" cy="-460" rx="104.782" ry="18"/>
<text text-anchor="middle" x="104.641" y="-456.3" font-family="Times New Roman,serif" font-size="14.00">http://example.org/lastrow</text>
</g>
<!-- http://example.org/access13&#45;&gt;http://example.org/lastrow -->
<g id="edge10" class="edge"><title>http://example.org/access13&#45;&gt;http://example.org/lastrow</title>
<path fill="none" stroke="#f0f0f0" d="M284.258,-392.693C249.657,-405.466 195.875,-425.32 156.173,-439.976"/>
<polygon fill="#f0f0f0" stroke="#f0f0f0" points="154.828,-436.742 146.659,-443.489 157.252,-443.309 154.828,-436.742"/>
<text text-anchor="middle" x="281.721" y="-405.577" font-family="Times New Roman,serif" font-size="8.00" fill="#f0f0f0">use</text>
</g>
<!-- http://example.org/i#3 -->
<g id="node7" class="node"><title>http://example.org/i#3</title>
<ellipse fill="none" stroke="black" cx="517.641" cy="-460" rx="89.8845" ry="18"/>
<text text-anchor="middle" x="517.641" y="-456.3" font-family="Times New Roman,serif" font-size="14.00">http://example.org/i#3</text>
</g>
<!-- http://example.org/access13&#45;&gt;http://example.org/i#3 -->
<g id="edge6" class="edge"><title>http://example.org/access13&#45;&gt;http://example.org/i#3</title>
<path fill="none" stroke="#f0f0f0" d="M352.85,-393.581C385.086,-406.378 433.69,-425.673 469.769,-439.996"/>
<polygon fill="#f0f0f0" stroke="#f0f0f0" points="468.535,-443.271 479.12,-443.708 471.117,-436.765 468.535,-443.271"/>
<text text-anchor="middle" x="364.614" y="-382.374" font-family="Times New Roman,serif" font-size="8.00" fill="#f0f0f0">use</text>
</g>
<!-- bn0&#45;&gt;http://example.org/dist -->
<g id="edge3" class="edge"><title>bn0&#45;&gt;http://example.org/dist</title>
<path fill="none" stroke="#f0f0f0" stroke-dasharray="5,2" d="M196.033,-380.887C204.631,-386.365 251.21,-416.04 284.406,-437.189"/>
<polygon fill="#f0f0f0" stroke="#f0f0f0" points="282.633,-440.21 292.948,-442.631 286.395,-434.306 282.633,-440.21"/>
</g>
<!-- bn0&#45;&gt;http://example.org/lastrow -->
<g id="edge4" class="edge"><title>bn0&#45;&gt;http://example.org/lastrow</title>
<path fill="none" stroke="#f0f0f0" d="M193.63,-380.887C187.557,-386.218 155.377,-414.465 131.449,-435.469"/>
<polygon fill="#f0f0f0" stroke="#f0f0f0" points="128.906,-433.043 123.7,-442.27 133.524,-438.304 128.906,-433.043"/>
<text text-anchor="middle" x="158.141" y="-417.6" font-family="Times New Roman,serif" font-size="8.00" fill="#f0f0f0">[2]</text>
</g>
<!-- http://example.org/disti#2 -->
<g id="node8" class="node"><title>http://example.org/disti#2</title>
<g id="a_node8"><a xlink:href="http://example.org/disti#2" xlink:title="disti#2">
<ellipse fill="#fffc87" stroke="#808080" cx="268.641" cy="-117" rx="35.194" ry="18"/>
<text text-anchor="middle" x="268.641" y="-113.3" font-family="Times New Roman,serif" font-size="14.00">disti#2</text>
</a>
</g>
</g>
<!-- http://example.org/disti#2&#45;&gt;http://example.org/dist_ai#2 -->
<g id="edge8" class="edge"><title>http://example.org/disti#2&#45;&gt;http://example.org/dist_ai#2</title>
<path fill="none" stroke="#f0f0f0" d="M267.424,-135.236C265.334,-164.841 261.048,-225.567 258.555,-260.888"/>
<polygon fill="#f0f0f0" stroke="#f0f0f0" points="255.056,-260.749 257.843,-270.971 262.038,-261.242 255.056,-260.749"/>
<text text-anchor="middle" x="319.141" y="-205.6" font-family="Times New Roman,serif" font-size="8.00" fill="#f0f0f0">der ref</text>
<text text-anchor="middle" x="319.141" y="-196.6" font-family="Times New Roman,serif" font-size="8.00" fill="#f0f0f0">2018&#45;03&#45;12T13:12:16.446826</text>
</g>
<!-- http://example.org/assign10 -->
<g id="node10" class="node"><title>http://example.org/assign10</title>
<g id="a_node10"><a xlink:href="http://example.org/assign10" xlink:title="assign10">
<polygon fill="#fafafa" stroke="#f0f0f0" points="449.141,-221 384.141,-221 384.141,-185 449.141,-185 449.141,-221"/>
<text text-anchor="middle" x="416.641" y="-199.3" font-family="Times New Roman,serif" font-size="14.00" fill="#f0f0f0">assign10</text>
</a>
</g>
</g>
<!-- http://example.org/disti#2&#45;&gt;http://example.org/assign10 -->
<g id="edge11" class="edge"><title>http://example.org/disti#2&#45;&gt;http://example.org/assign10</title>
<path fill="none" stroke="#f0f0f0" d="M293.01,-130.359C313.649,-140.984 343.9,-156.934 369.641,-172 373.601,-174.318 377.707,-176.806 381.767,-179.322"/>
<polygon fill="#f0f0f0" stroke="#f0f0f0" points="380.184,-182.461 390.513,-184.819 383.909,-176.534 380.184,-182.461"/>
<text text-anchor="middle" x="305.636" y="-120.361" font-family="Times New Roman,serif" font-size="8.00" fill="#f0f0f0">gen</text>
</g>
<!-- &#45;attrs1 -->
<g id="node9" class="node"><title>&#45;attrs1</title>
<polygon fill="none" stroke="gray" points="350.141,-62 181.141,-62 181.141,-0 356.141,-0 356.141,-56 350.141,-62"/>
<polyline fill="none" stroke="gray" points="350.141,-62 350.141,-56 "/>
<polyline fill="none" stroke="gray" points="356.141,-56 350.141,-56 "/>
<text text-anchor="start" x="191.641" y="-48" font-family="Times New Roman,serif" font-size="10.00">value:</text>
<text text-anchor="start" x="240.641" y="-48" font-family="Times New Roman,serif" font-size="10.00">[2, 10000, 0]</text>
<text text-anchor="start" x="191.641" y="-35" font-family="Times New Roman,serif" font-size="10.00">type:</text>
<text text-anchor="start" x="240.641" y="-35" font-family="Times New Roman,serif" font-size="10.00">name</text>
<text text-anchor="start" x="191.641" y="-22" font-family="Times New Roman,serif" font-size="10.00">label:</text>
<text text-anchor="start" x="240.641" y="-22" font-family="Times New Roman,serif" font-size="10.00">disti</text>
<text text-anchor="start" x="191.641" y="-9" font-family="Times New Roman,serif" font-size="10.00">checkpoint:</text>
<text text-anchor="start" x="240.641" y="-9" font-family="Times New Roman,serif" font-size="10.00">2018&#45;03&#45;12 13:12:16.446826</text>
</g>
<!-- &#45;attrs1&#45;&gt;http://example.org/disti#2 -->
<g id="edge7" class="edge"><title>&#45;attrs1&#45;&gt;http://example.org/disti#2</title>
<path fill="none" stroke="gray" stroke-dasharray="5,2" d="M268.641,-62.3259C268.641,-74.5443 268.641,-88.1945 268.641,-98.6716"/>
</g>
<!-- http://example.org/assign10&#45;&gt;http://example.org/dist_ai#2 -->
<g id="edge9" class="edge"><title>http://example.org/assign10&#45;&gt;http://example.org/dist_ai#2</title>
<path fill="none" stroke="#f0f0f0" d="M391.128,-221.083C384.253,-225.465 376.749,-230.052 369.641,-234 345.466,-247.426 317.422,-260.839 295.32,-270.939"/>
<polygon fill="#f0f0f0" stroke="#f0f0f0" points="293.593,-267.879 285.929,-275.195 296.483,-274.255 293.593,-267.879"/>
<text text-anchor="middle" x="391.754" y="-234.17" font-family="Times New Roman,serif" font-size="8.00" fill="#f0f0f0">use</text>
</g>
</g>
</svg>
