<?xml version="1.0" encoding="UTF-8" standalone="no"?>
<!DOCTYPE svg PUBLIC "-//W3C//DTD SVG 1.1//EN"
 "http://www.w3.org/Graphics/SVG/1.1/DTD/svg11.dtd">
<!-- Generated by graphviz version 2.38.0 (20140413.2041)
 -->
<!-- Title: PROV Pages: 1 -->
<svg width="617pt" height="486pt"
 viewBox="0.00 0.00 616.98 486.00" xmlns="http://www.w3.org/2000/svg" xmlns:xlink="http://www.w3.org/1999/xlink">
<g id="graph0" class="graph" transform="scale(1 1) rotate(0) translate(4 482)">
<title>PROV</title>
<polygon fill="white" stroke="none" points="-4,4 -4,-482 612.983,-482 612.983,4 -4,4"/>
<!-- http://example.org/dist_ai#5 -->
<g id="node1" class="node"><title>http://example.org/dist_ai#5</title>
<g id="a_node1"><a xlink:href="http://example.org/dist_ai#5" xlink:title="dist_ai#5">
<ellipse fill="#fffc87" stroke="#808080" cx="258.291" cy="-289" rx="44.393" ry="18"/>
<text text-anchor="middle" x="258.291" y="-285.3" font-family="Times New Roman,serif" font-size="14.00">dist_ai#5</text>
</a>
</g>
</g>
<!-- http://example.org/access42 -->
<g id="node3" class="node"><title>http://example.org/access42</title>
<g id="a_node3"><a xlink:href="http://example.org/access42" xlink:title="access42">
<polygon fill="#fafafa" stroke="#f0f0f0" points="354.291,-397 286.291,-397 286.291,-361 354.291,-361 354.291,-397"/>
<text text-anchor="middle" x="320.291" y="-375.3" font-family="Times New Roman,serif" font-size="14.00" fill="#f0f0f0">access42</text>
</a>
</g>
</g>
<!-- http://example.org/dist_ai#5&#45;&gt;http://example.org/access42 -->
<g id="edge12" class="edge"><title>http://example.org/dist_ai#5&#45;&gt;http://example.org/access42</title>
<path fill="none" stroke="#f0f0f0" d="M284.057,-304.004C292.217,-309.571 300.588,-316.655 306.291,-325 311.462,-332.568 314.724,-341.943 316.781,-350.694"/>
<polygon fill="#f0f0f0" stroke="#f0f0f0" points="313.35,-351.382 318.685,-360.536 320.222,-350.053 313.35,-351.382"/>
<text text-anchor="middle" x="297.649" y="-295.76" font-family="Times New Roman,serif" font-size="8.00" fill="#f0f0f0">gen</text>
</g>
<!-- bn0 -->
<g id="node4" class="node"><title>bn0</title>
<ellipse fill="#f0f0f0" stroke="#f0f0f0" cx="196.291" cy="-379" rx="1.8" ry="1.8"/>
</g>
<!-- http://example.org/dist_ai#5&#45;&gt;bn0 -->
<g id="edge2" class="edge"><title>http://example.org/dist_ai#5&#45;&gt;bn0</title>
<path fill="none" stroke="#f0f0f0" d="M225.511,-301.123C214.606,-306.549 203.633,-314.282 197.291,-325 186.416,-343.374 194.43,-371.974 196.029,-377.174"/>
<text text-anchor="middle" x="251.791" y="-336.6" font-family="Times New Roman,serif" font-size="8.00" fill="#f0f0f0">der ac&#45;r</text>
<text text-anchor="middle" x="251.791" y="-327.6" font-family="Times New Roman,serif" font-size="8.00" fill="#f0f0f0">2018&#45;03&#45;12T13:12:19.021100</text>
</g>
<!-- &#45;attrs0 -->
<g id="node2" class="node"><title>&#45;attrs0</title>
<polygon fill="none" stroke="gray" points="215.791,-234 46.7907,-234 46.7907,-172 221.791,-172 221.791,-228 215.791,-234"/>
<polyline fill="none" stroke="gray" points="215.791,-234 215.791,-228 "/>
<polyline fill="none" stroke="gray" points="221.791,-228 215.791,-228 "/>
<text text-anchor="start" x="57.2907" y="-220" font-family="Times New Roman,serif" font-size="10.00">value:</text>
<text text-anchor="start" x="106.291" y="-220" font-family="Times New Roman,serif" font-size="10.00">[0, 1, 3]</text>
<text text-anchor="start" x="57.2907" y="-207" font-family="Times New Roman,serif" font-size="10.00">type:</text>
<text text-anchor="start" x="106.291" y="-207" font-family="Times New Roman,serif" font-size="10.00">access</text>
<text text-anchor="start" x="57.2907" y="-194" font-family="Times New Roman,serif" font-size="10.00">label:</text>
<text text-anchor="start" x="106.291" y="-194" font-family="Times New Roman,serif" font-size="10.00">dist[i]</text>
<text text-anchor="start" x="57.2907" y="-181" font-family="Times New Roman,serif" font-size="10.00">checkpoint:</text>
<text text-anchor="start" x="106.291" y="-181" font-family="Times New Roman,serif" font-size="10.00">2018&#45;03&#45;12 13:12:19.021100</text>
</g>
<!-- &#45;attrs0&#45;&gt;http://example.org/dist_ai#5 -->
<g id="edge1" class="edge"><title>&#45;attrs0&#45;&gt;http://example.org/dist_ai#5</title>
<path fill="none" stroke="gray" stroke-dasharray="5,2" d="M178.707,-234.089C198.304,-247.364 220.456,-262.37 236.404,-273.174"/>
</g>
<!-- http://example.org/dist -->
<g id="node5" class="node"><title>http://example.org/dist</title>
<ellipse fill="none" stroke="black" cx="320.291" cy="-460" rx="91.784" ry="18"/>
<text text-anchor="middle" x="320.291" y="-456.3" font-family="Times New Roman,serif" font-size="14.00">http://example.org/dist</text>
</g>
<!-- http://example.org/access42&#45;&gt;http://example.org/dist -->
<g id="edge5" class="edge"><title>http://example.org/access42&#45;&gt;http://example.org/dist</title>
<path fill="none" stroke="#f0f0f0" d="M320.291,-397.142C320.291,-407.287 320.291,-420.366 320.291,-431.883"/>
<polygon fill="#f0f0f0" stroke="#f0f0f0" points="316.791,-431.892 320.291,-441.892 323.791,-431.892 316.791,-431.892"/>
<text text-anchor="middle" x="333.281" y="-402.742" font-family="Times New Roman,serif" font-size="8.00" fill="#f0f0f0">use</text>
</g>
<!-- http://example.org/matrix0 -->
<g id="node6" class="node"><title>http://example.org/matrix0</title>
<ellipse fill="none" stroke="black" cx="105.291" cy="-460" rx="105.082" ry="18"/>
<text text-anchor="middle" x="105.291" y="-456.3" font-family="Times New Roman,serif" font-size="14.00">http://example.org/matrix0</text>
</g>
<!-- http://example.org/access42&#45;&gt;http://example.org/matrix0 -->
<g id="edge10" class="edge"><title>http://example.org/access42&#45;&gt;http://example.org/matrix0</title>
<path fill="none" stroke="#f0f0f0" d="M286.223,-392.518C251.547,-405.259 197.345,-425.175 157.299,-439.89"/>
<polygon fill="#f0f0f0" stroke="#f0f0f0" points="155.88,-436.683 147.701,-443.417 158.294,-443.253 155.88,-436.683"/>
<text text-anchor="middle" x="283.664" y="-405.398" font-family="Times New Roman,serif" font-size="8.00" fill="#f0f0f0">use</text>
</g>
<!-- http://example.org/i#7 -->
<g id="node7" class="node"><title>http://example.org/i#7</title>
<ellipse fill="none" stroke="black" cx="519.291" cy="-460" rx="89.8845" ry="18"/>
<text text-anchor="middle" x="519.291" y="-456.3" font-family="Times New Roman,serif" font-size="14.00">http://example.org/i#7</text>
</g>
<!-- http://example.org/access42&#45;&gt;http://example.org/i#7 -->
<g id="edge6" class="edge"><title>http://example.org/access42&#45;&gt;http://example.org/i#7</title>
<path fill="none" stroke="#f0f0f0" d="M354.5,-393.581C386.735,-406.378 435.34,-425.673 471.419,-439.996"/>
<polygon fill="#f0f0f0" stroke="#f0f0f0" points="470.185,-443.271 480.77,-443.708 472.767,-436.765 470.185,-443.271"/>
<text text-anchor="middle" x="366.264" y="-382.374" font-family="Times New Roman,serif" font-size="8.00" fill="#f0f0f0">use</text>
</g>
<!-- bn0&#45;&gt;http://example.org/dist -->
<g id="edge3" class="edge"><title>bn0&#45;&gt;http://example.org/dist</title>
<path fill="none" stroke="#f0f0f0" stroke-dasharray="5,2" d="M197.683,-380.887C206.281,-386.365 252.86,-416.04 286.056,-437.189"/>
<polygon fill="#f0f0f0" stroke="#f0f0f0" points="284.283,-440.21 294.598,-442.631 288.045,-434.306 284.283,-440.21"/>
</g>
<!-- bn0&#45;&gt;http://example.org/matrix0 -->
<g id="edge4" class="edge"><title>bn0&#45;&gt;http://example.org/matrix0</title>
<path fill="none" stroke="#f0f0f0" d="M195.269,-380.887C189.129,-386.218 156.591,-414.465 132.397,-435.469"/>
<polygon fill="#f0f0f0" stroke="#f0f0f0" points="129.819,-433.072 124.562,-442.27 134.408,-438.358 129.819,-433.072"/>
<text text-anchor="middle" x="159.791" y="-417.6" font-family="Times New Roman,serif" font-size="8.00" fill="#f0f0f0">[0]</text>
</g>
<!-- http://example.org/disti#5 -->
<g id="node8" class="node"><title>http://example.org/disti#5</title>
<g id="a_node8"><a xlink:href="http://example.org/disti#5" xlink:title="disti#5">
<ellipse fill="#fffc87" stroke="#808080" cx="270.291" cy="-117" rx="35.194" ry="18"/>
<text text-anchor="middle" x="270.291" y="-113.3" font-family="Times New Roman,serif" font-size="14.00">disti#5</text>
</a>
</g>
</g>
<!-- http://example.org/disti#5&#45;&gt;http://example.org/dist_ai#5 -->
<g id="edge8" class="edge"><title>http://example.org/disti#5&#45;&gt;http://example.org/dist_ai#5</title>
<path fill="none" stroke="#f0f0f0" d="M269.074,-135.236C266.984,-164.841 262.698,-225.567 260.204,-260.888"/>
<polygon fill="#f0f0f0" stroke="#f0f0f0" points="256.706,-260.749 259.493,-270.971 263.688,-261.242 256.706,-260.749"/>
<text text-anchor="middle" x="320.791" y="-205.6" font-family="Times New Roman,serif" font-size="8.00" fill="#f0f0f0">der ref</text>
<text text-anchor="middle" x="320.791" y="-196.6" font-family="Times New Roman,serif" font-size="8.00" fill="#f0f0f0">2018&#45;03&#45;12T13:12:19.021100</text>
</g>
<!-- http://example.org/assign20 -->
<g id="node10" class="node"><title>http://example.org/assign20</title>
<g id="a_node10"><a xlink:href="http://example.org/assign20" xlink:title="assign20">
<polygon fill="#fafafa" stroke="#f0f0f0" points="450.791,-221 385.791,-221 385.791,-185 450.791,-185 450.791,-221"/>
<text text-anchor="middle" x="418.291" y="-199.3" font-family="Times New Roman,serif" font-size="14.00" fill="#f0f0f0">assign20</text>
</a>
</g>
</g>
<!-- http://example.org/disti#5&#45;&gt;http://example.org/assign20 -->
<g id="edge11" class="edge"><title>http://example.org/disti#5&#45;&gt;http://example.org/assign20</title>
<path fill="none" stroke="#f0f0f0" d="M294.66,-130.359C315.299,-140.984 345.55,-156.934 371.291,-172 375.251,-174.318 379.357,-176.806 383.417,-179.322"/>
<polygon fill="#f0f0f0" stroke="#f0f0f0" points="381.834,-182.461 392.163,-184.819 385.559,-176.534 381.834,-182.461"/>
<text text-anchor="middle" x="307.286" y="-120.361" font-family="Times New Roman,serif" font-size="8.00" fill="#f0f0f0">gen</text>
</g>
<!-- &#45;attrs1 -->
<g id="node9" class="node"><title>&#45;attrs1</title>
<polygon fill="none" stroke="gray" points="351.791,-62 182.791,-62 182.791,-0 357.791,-0 357.791,-56 351.791,-62"/>
<polyline fill="none" stroke="gray" points="351.791,-62 351.791,-56 "/>
<polyline fill="none" stroke="gray" points="357.791,-56 351.791,-56 "/>
<text text-anchor="start" x="193.291" y="-48" font-family="Times New Roman,serif" font-size="10.00">value:</text>
<text text-anchor="start" x="242.291" y="-48" font-family="Times New Roman,serif" font-size="10.00">[0, 1, 3]</text>
<text text-anchor="start" x="193.291" y="-35" font-family="Times New Roman,serif" font-size="10.00">type:</text>
<text text-anchor="start" x="242.291" y="-35" font-family="Times New Roman,serif" font-size="10.00">name</text>
<text text-anchor="start" x="193.291" y="-22" font-family="Times New Roman,serif" font-size="10.00">label:</text>
<text text-anchor="start" x="242.291" y="-22" font-family="Times New Roman,serif" font-size="10.00">disti</text>
<text text-anchor="start" x="193.291" y="-9" font-family="Times New Roman,serif" font-size="10.00">checkpoint:</text>
<text text-anchor="start" x="242.291" y="-9" font-family="Times New Roman,serif" font-size="10.00">2018&#45;03&#45;12 13:12:19.021100</text>
</g>
<!-- &#45;attrs1&#45;&gt;http://example.org/disti#5 -->
<g id="edge7" class="edge"><title>&#45;attrs1&#45;&gt;http://example.org/disti#5</title>
<path fill="none" stroke="gray" stroke-dasharray="5,2" d="M270.291,-62.3259C270.291,-74.5443 270.291,-88.1945 270.291,-98.6716"/>
</g>
<!-- http://example.org/assign20&#45;&gt;http://example.org/dist_ai#5 -->
<g id="edge9" class="edge"><title>http://example.org/assign20&#45;&gt;http://example.org/dist_ai#5</title>
<path fill="none" stroke="#f0f0f0" d="M392.778,-221.083C385.903,-225.465 378.399,-230.052 371.291,-234 347.116,-247.426 319.072,-260.839 296.97,-270.939"/>
<polygon fill="#f0f0f0" stroke="#f0f0f0" points="295.243,-267.879 287.579,-275.195 298.133,-274.255 295.243,-267.879"/>
<text text-anchor="middle" x="393.404" y="-234.17" font-family="Times New Roman,serif" font-size="8.00" fill="#f0f0f0">use</text>
</g>
</g>
</svg>
