<?xml version="1.0" encoding="UTF-8" standalone="no"?>
<!DOCTYPE svg PUBLIC "-//W3C//DTD SVG 1.1//EN"
 "http://www.w3.org/Graphics/SVG/1.1/DTD/svg11.dtd">
<!-- Generated by graphviz version 2.38.0 (20140413.2041)
 -->
<!-- Title: PROV Pages: 1 -->
<svg width="874pt" height="391pt"
 viewBox="0.00 0.00 874.43 391.00" xmlns="http://www.w3.org/2000/svg" xmlns:xlink="http://www.w3.org/1999/xlink">
<g id="graph0" class="graph" transform="scale(1 1) rotate(0) translate(4 387)">
<title>PROV</title>
<polygon fill="white" stroke="none" points="-4,4 -4,-387 870.433,-387 870.433,4 -4,4"/>
<!-- http://example.org/disti@j#9 -->
<g id="node1" class="node"><title>http://example.org/disti@j#9</title>
<g id="a_node1"><a xlink:href="http://example.org/disti@j#9" xlink:title="disti@j#9">
<ellipse fill="#fffc87" stroke="#808080" cx="592.242" cy="-146" rx="45.4919" ry="18"/>
<text text-anchor="middle" x="592.242" y="-142.3" font-family="Times New Roman,serif" font-size="14.00">disti@j#9</text>
</a>
</g>
</g>
<!-- http://example.org/assign23 -->
<g id="node4" class="node"><title>http://example.org/assign23</title>
<g id="a_node4"><a xlink:href="http://example.org/assign23" xlink:title="assign23">
<polygon fill="#9fb1fc" stroke="#0000ff" points="458.742,-281 393.742,-281 393.742,-245 458.742,-245 458.742,-281"/>
<text text-anchor="middle" x="426.242" y="-259.3" font-family="Times New Roman,serif" font-size="14.00">assign23</text>
</a>
</g>
</g>
<!-- http://example.org/disti@j#9&#45;&gt;http://example.org/assign23 -->
<g id="edge11" class="edge"><title>http://example.org/disti@j#9&#45;&gt;http://example.org/assign23</title>
<path fill="none" stroke="black" d="M549.725,-152.506C512.643,-158.148 462.596,-168.069 448.242,-182 440.628,-189.39 434.491,-214.767 430.653,-234.983"/>
<polygon fill="black" stroke="black" points="427.184,-234.5 428.86,-244.961 434.074,-235.738 427.184,-234.5"/>
<text text-anchor="middle" x="545.742" y="-208.3" font-family="Times New Roman,serif" font-size="14.00">gen</text>
<text text-anchor="middle" x="545.742" y="-193.3" font-family="Times New Roman,serif" font-size="14.00">ckpt: 2018&#45;03&#45;25T18:43:00.321103</text>
</g>
<!-- bn0 -->
<g id="node6" class="node"><title>bn0</title>
<ellipse fill="black" stroke="black" cx="669.242" cy="-263" rx="1.8" ry="1.8"/>
</g>
<!-- http://example.org/disti@j#9&#45;&gt;bn0 -->
<g id="edge4" class="edge"><title>http://example.org/disti@j#9&#45;&gt;bn0</title>
<path fill="none" stroke="black" d="M621.13,-160.009C630.654,-165.564 640.517,-172.896 647.242,-182 667.44,-209.344 669.094,-254.261 669.23,-261.112"/>
<text text-anchor="middle" x="762.742" y="-215.8" font-family="Times New Roman,serif" font-size="14.00">der ref</text>
<text text-anchor="middle" x="762.742" y="-200.8" font-family="Times New Roman,serif" font-size="14.00">ac&#45;write</text>
<text text-anchor="middle" x="762.742" y="-185.8" font-family="Times New Roman,serif" font-size="14.00">ckpt: 2018&#45;03&#45;25T18:43:00.321103</text>
</g>
<!-- http://example.org/disti@j#9&#45;attrs -->
<g id="node2" class="node"><title>http://example.org/disti@j#9&#45;attrs</title>
<polygon fill="none" stroke="gray" points="538.742,-62 469.742,-62 469.742,-0 544.742,-0 544.742,-56 538.742,-62"/>
<polyline fill="none" stroke="gray" points="538.742,-62 538.742,-56 "/>
<polyline fill="none" stroke="gray" points="544.742,-56 538.742,-56 "/>
<text text-anchor="start" x="480.242" y="-48" font-family="Times New Roman,serif" font-size="10.00">value:</text>
<text text-anchor="start" x="507.242" y="-48" font-family="Times New Roman,serif" font-size="10.00">4</text>
<text text-anchor="start" x="480.242" y="-35" font-family="Times New Roman,serif" font-size="10.00">type:</text>
<text text-anchor="start" x="507.242" y="-35" font-family="Times New Roman,serif" font-size="10.00">access</text>
<text text-anchor="start" x="480.242" y="-22" font-family="Times New Roman,serif" font-size="10.00">label:</text>
<text text-anchor="start" x="507.242" y="-22" font-family="Times New Roman,serif" font-size="10.00">disti[j]</text>
<text text-anchor="start" x="480.242" y="-9" font-family="Times New Roman,serif" font-size="10.00">line:</text>
<text text-anchor="start" x="507.242" y="-9" font-family="Times New Roman,serif" font-size="10.00">17</text>
</g>
<!-- http://example.org/disti@j#9&#45;attrs&#45;&gt;http://example.org/disti@j#9 -->
<g id="edge1" class="edge"><title>http://example.org/disti@j#9&#45;attrs&#45;&gt;http://example.org/disti@j#9</title>
<path fill="none" stroke="gray" stroke-dasharray="5,2" d="M530.02,-62.2819C546.051,-83.5942 566.893,-111.301 579.92,-128.62"/>
</g>
<!-- http://example.org/matrix1#1 -->
<g id="node3" class="node"><title>http://example.org/matrix1#1</title>
<ellipse fill="none" stroke="black" cx="677.242" cy="-31" rx="114.28" ry="18"/>
<text text-anchor="middle" x="677.242" y="-27.3" font-family="Times New Roman,serif" font-size="14.00">http://example.org/matrix1#1</text>
</g>
<!-- http://example.org/matrix1#1&#45;&gt;http://example.org/disti@j#9 -->
<g id="edge2" class="edge"><title>http://example.org/matrix1#1&#45;&gt;http://example.org/disti@j#9</title>
<path fill="none" stroke="black" d="M664.332,-49.1623C650.064,-68.1303 626.963,-98.8411 610.766,-120.373"/>
<polygon fill="black" stroke="black" points="607.932,-118.318 604.718,-128.414 613.526,-122.526 607.932,-118.318"/>
<text text-anchor="middle" x="737.742" y="-98.8" font-family="Times New Roman,serif" font-size="14.00">put [0]</text>
<text text-anchor="middle" x="737.742" y="-83.8" font-family="Times New Roman,serif" font-size="14.00">ckpt: 2018&#45;03&#45;25T18:43:00.321103</text>
</g>
<!-- http://example.org/disti#6 -->
<g id="node7" class="node"><title>http://example.org/disti#6</title>
<ellipse fill="none" stroke="black" cx="553.242" cy="-365" rx="102.882" ry="18"/>
<text text-anchor="middle" x="553.242" y="-361.3" font-family="Times New Roman,serif" font-size="14.00">http://example.org/disti#6</text>
</g>
<!-- http://example.org/assign23&#45;&gt;http://example.org/disti#6 -->
<g id="edge7" class="edge"><title>http://example.org/assign23&#45;&gt;http://example.org/disti#6</title>
<path fill="none" stroke="black" d="M422.307,-281.121C420.071,-295.474 419.54,-315.699 430.242,-329 437.907,-338.528 447.968,-345.575 459.038,-350.77"/>
<polygon fill="black" stroke="black" points="457.966,-354.114 468.544,-354.711 460.647,-347.648 457.966,-354.114"/>
<text text-anchor="middle" x="527.742" y="-317.8" font-family="Times New Roman,serif" font-size="14.00">use</text>
<text text-anchor="middle" x="527.742" y="-302.8" font-family="Times New Roman,serif" font-size="14.00">ckpt: 2018&#45;03&#45;25T18:43:00.320101</text>
</g>
<!-- http://example.org/ikj#6 -->
<g id="node8" class="node"><title>http://example.org/ikj#6</title>
<ellipse fill="none" stroke="black" cx="770.242" cy="-365" rx="96.3833" ry="18"/>
<text text-anchor="middle" x="770.242" y="-361.3" font-family="Times New Roman,serif" font-size="14.00">http://example.org/ikj#6</text>
</g>
<!-- http://example.org/assign23&#45;&gt;http://example.org/ikj#6 -->
<g id="edge10" class="edge"><title>http://example.org/assign23&#45;&gt;http://example.org/ikj#6</title>
<path fill="none" stroke="black" d="M458.873,-267.233C498.777,-271.754 568.064,-281.453 625.242,-299 645.336,-305.167 692.884,-327.022 728.083,-343.705"/>
<polygon fill="black" stroke="black" points="726.661,-346.904 737.195,-348.038 729.667,-340.583 726.661,-346.904"/>
<text text-anchor="middle" x="467.846" y="-253.313" font-family="Times New Roman,serif" font-size="8.00">use</text>
</g>
<!-- http://example.org/j#16 -->
<g id="node9" class="node"><title>http://example.org/j#16</title>
<ellipse fill="none" stroke="black" cx="94.2416" cy="-365" rx="94.4839" ry="18"/>
<text text-anchor="middle" x="94.2416" y="-361.3" font-family="Times New Roman,serif" font-size="14.00">http://example.org/j#16</text>
</g>
<!-- http://example.org/assign23&#45;&gt;http://example.org/j#16 -->
<g id="edge8" class="edge"><title>http://example.org/assign23&#45;&gt;http://example.org/j#16</title>
<path fill="none" stroke="black" d="M393.5,-273.862C337.445,-290.746 222.388,-325.402 152.406,-346.481"/>
<polygon fill="black" stroke="black" points="150.986,-343.253 142.421,-349.488 153.005,-349.955 150.986,-343.253"/>
<text text-anchor="middle" x="390.065" y="-286.564" font-family="Times New Roman,serif" font-size="8.00">use</text>
</g>
<!-- http://example.org/disti@j#8 -->
<g id="node10" class="node"><title>http://example.org/disti@j#8</title>
<ellipse fill="none" stroke="black" cx="319.242" cy="-365" rx="113.18" ry="18"/>
<text text-anchor="middle" x="319.242" y="-361.3" font-family="Times New Roman,serif" font-size="14.00">http://example.org/disti@j#8</text>
</g>
<!-- http://example.org/assign23&#45;&gt;http://example.org/disti@j#8 -->
<g id="edge9" class="edge"><title>http://example.org/assign23&#45;&gt;http://example.org/disti@j#8</title>
<path fill="none" stroke="black" d="M407.604,-281.419C390.237,-297.649 364.191,-321.991 344.872,-340.047"/>
<polygon fill="black" stroke="black" points="342.226,-337.729 337.31,-347.114 347.005,-342.843 342.226,-337.729"/>
<text text-anchor="middle" x="410.994" y="-294.13" font-family="Times New Roman,serif" font-size="8.00">use</text>
</g>
<!-- http://example.org/assign23&#45;attrs -->
<g id="node5" class="node"><title>http://example.org/assign23&#45;attrs</title>
<polygon fill="none" stroke="gray" points="447.242,-164 383.242,-164 383.242,-128 453.242,-128 453.242,-158 447.242,-164"/>
<polyline fill="none" stroke="gray" points="447.242,-164 447.242,-158 "/>
<polyline fill="none" stroke="gray" points="453.242,-158 447.242,-158 "/>
<text text-anchor="start" x="393.242" y="-143" font-family="Times New Roman,serif" font-size="10.00">type:</text>
<text text-anchor="start" x="416.242" y="-143" font-family="Times New Roman,serif" font-size="10.00">assign</text>
</g>
<!-- http://example.org/assign23&#45;attrs&#45;&gt;http://example.org/assign23 -->
<g id="edge3" class="edge"><title>http://example.org/assign23&#45;attrs&#45;&gt;http://example.org/assign23</title>
<path fill="none" stroke="gray" stroke-dasharray="5,2" d="M419.457,-164.466C420.969,-186.207 423.536,-223.105 425.041,-244.746"/>
</g>
<!-- bn0&#45;&gt;http://example.org/disti#6 -->
<g id="edge5" class="edge"><title>bn0&#45;&gt;http://example.org/disti#6</title>
<path fill="none" stroke="black" stroke-dasharray="5,2" d="M668.803,-265.063C665.995,-271.75 649.909,-308.379 626.242,-329 619.768,-334.641 612.226,-339.582 604.495,-343.838"/>
<polygon fill="black" stroke="black" points="602.68,-340.835 595.385,-348.518 605.88,-347.061 602.68,-340.835"/>
</g>
<!-- bn0&#45;&gt;http://example.org/ikj#6 -->
<g id="edge6" class="edge"><title>bn0&#45;&gt;http://example.org/ikj#6</title>
<path fill="none" stroke="black" d="M670.376,-265.123C677.706,-272.38 718.926,-313.193 746.066,-340.064"/>
<polygon fill="black" stroke="black" points="743.739,-342.685 753.308,-347.234 748.664,-337.711 743.739,-342.685"/>
<text text-anchor="middle" x="743.242" y="-310.3" font-family="Times New Roman,serif" font-size="14.00">[0]</text>
</g>
</g>
</svg>
