<?xml version="1.0" encoding="UTF-8" standalone="no"?>
<!DOCTYPE svg PUBLIC "-//W3C//DTD SVG 1.1//EN"
 "http://www.w3.org/Graphics/SVG/1.1/DTD/svg11.dtd">
<!-- Generated by graphviz version 2.38.0 (20140413.2041)
 -->
<!-- Title: PROV Pages: 1 -->
<svg width="1152pt" height="497pt"
 viewBox="0.00 0.00 1152.00 497.34" xmlns="http://www.w3.org/2000/svg" xmlns:xlink="http://www.w3.org/1999/xlink">
<g id="graph0" class="graph" transform="scale(0.980939 0.980939) rotate(0) translate(4 503)">
<title>PROV</title>
<polygon fill="white" stroke="none" points="-4,4 -4,-503 1170.39,-503 1170.39,4 -4,4"/>
<!-- http://example.org/disti_ak#2 -->
<g id="node1" class="node"><title>http://example.org/disti_ak#2</title>
<g id="a_node1"><a xlink:href="http://example.org/disti_ak#2" xlink:title="disti_ak#2">
<ellipse fill="#fafafa" stroke="#f0f0f0" cx="539.193" cy="-310" rx="48.1917" ry="18"/>
<text text-anchor="middle" x="539.193" y="-306.3" font-family="Times New Roman,serif" font-size="14.00" fill="#f0f0f0">disti_ak#2</text>
</a>
</g>
</g>
<!-- http://example.org/access16 -->
<g id="node2" class="node"><title>http://example.org/access16</title>
<g id="a_node2"><a xlink:href="http://example.org/access16" xlink:title="access16">
<polygon fill="#fafafa" stroke="#f0f0f0" points="340.193,-418 272.193,-418 272.193,-382 340.193,-382 340.193,-418"/>
<text text-anchor="middle" x="306.193" y="-396.3" font-family="Times New Roman,serif" font-size="14.00" fill="#f0f0f0">access16</text>
</a>
</g>
</g>
<!-- http://example.org/disti_ak#2&#45;&gt;http://example.org/access16 -->
<g id="edge19" class="edge"><title>http://example.org/disti_ak#2&#45;&gt;http://example.org/access16</title>
<path fill="none" stroke="#f0f0f0" d="M506.304,-323.422C465.4,-338.87 395.432,-365.296 350.011,-382.451"/>
<polygon fill="#f0f0f0" stroke="#f0f0f0" points="348.548,-379.262 340.43,-386.069 351.021,-385.81 348.548,-379.262"/>
<text text-anchor="middle" x="503.877" y="-336.324" font-family="Times New Roman,serif" font-size="8.00" fill="#f0f0f0">gen</text>
</g>
<!-- bn0 -->
<g id="node3" class="node"><title>bn0</title>
<ellipse fill="#f0f0f0" stroke="#f0f0f0" cx="491.193" cy="-400" rx="1.8" ry="1.8"/>
</g>
<!-- http://example.org/disti_ak#2&#45;&gt;bn0 -->
<g id="edge1" class="edge"><title>http://example.org/disti_ak#2&#45;&gt;bn0</title>
<path fill="none" stroke="#f0f0f0" d="M529.938,-327.967C517.079,-351.541 495.001,-392.018 491.63,-398.199"/>
<text text-anchor="middle" x="574.693" y="-357.6" font-family="Times New Roman,serif" font-size="8.00" fill="#f0f0f0">der ac&#45;r</text>
<text text-anchor="middle" x="574.693" y="-348.6" font-family="Times New Roman,serif" font-size="8.00" fill="#f0f0f0">2018&#45;03&#45;12T13:12:16.712453</text>
</g>
<!-- http://example.org/disti#2 -->
<g id="node4" class="node"><title>http://example.org/disti#2</title>
<ellipse fill="none" stroke="black" cx="287.193" cy="-481" rx="102.882" ry="18"/>
<text text-anchor="middle" x="287.193" y="-477.3" font-family="Times New Roman,serif" font-size="14.00">http://example.org/disti#2</text>
</g>
<!-- http://example.org/access16&#45;&gt;http://example.org/disti#2 -->
<g id="edge4" class="edge"><title>http://example.org/access16&#45;&gt;http://example.org/disti#2</title>
<path fill="none" stroke="#f0f0f0" d="M302.07,-418.142C299.63,-428.287 296.484,-441.366 293.714,-452.883"/>
<polygon fill="#f0f0f0" stroke="#f0f0f0" points="290.243,-452.35 291.307,-462.892 297.049,-453.987 290.243,-452.35"/>
<text text-anchor="middle" x="312.946" y="-426.572" font-family="Times New Roman,serif" font-size="8.00" fill="#f0f0f0">use</text>
</g>
<!-- http://example.org/2 -->
<g id="node5" class="node"><title>http://example.org/2</title>
<ellipse fill="none" stroke="black" cx="491.193" cy="-481" rx="83.3857" ry="18"/>
<text text-anchor="middle" x="491.193" y="-477.3" font-family="Times New Roman,serif" font-size="14.00">http://example.org/2</text>
</g>
<!-- http://example.org/access16&#45;&gt;http://example.org/2 -->
<g id="edge16" class="edge"><title>http://example.org/access16&#45;&gt;http://example.org/2</title>
<path fill="none" stroke="#f0f0f0" d="M340.556,-415.674C370.324,-428.386 413.601,-446.866 446.138,-460.76"/>
<polygon fill="#f0f0f0" stroke="#f0f0f0" points="444.865,-464.023 455.436,-464.731 447.614,-457.585 444.865,-464.023"/>
<text text-anchor="middle" x="352.555" y="-404.773" font-family="Times New Roman,serif" font-size="8.00" fill="#f0f0f0">use</text>
</g>
<!-- http://example.org/k -->
<g id="node6" class="node"><title>http://example.org/k</title>
<ellipse fill="none" stroke="black" cx="83.1926" cy="-481" rx="83.3857" ry="18"/>
<text text-anchor="middle" x="83.1926" y="-477.3" font-family="Times New Roman,serif" font-size="14.00">http://example.org/k</text>
</g>
<!-- http://example.org/access16&#45;&gt;http://example.org/k -->
<g id="edge5" class="edge"><title>http://example.org/access16&#45;&gt;http://example.org/k</title>
<path fill="none" stroke="#f0f0f0" d="M271.838,-413.171C235.114,-426.18 176.49,-446.948 134.338,-461.881"/>
<polygon fill="#f0f0f0" stroke="#f0f0f0" points="133.063,-458.62 124.806,-465.258 135.401,-465.218 133.063,-458.62"/>
<text text-anchor="middle" x="269.106" y="-426.02" font-family="Times New Roman,serif" font-size="8.00" fill="#f0f0f0">use</text>
</g>
<!-- bn0&#45;&gt;http://example.org/disti#2 -->
<g id="edge2" class="edge"><title>bn0&#45;&gt;http://example.org/disti#2</title>
<path fill="none" stroke="#f0f0f0" stroke-dasharray="5,2" d="M489.89,-401.504C478.374,-405.964 393.071,-438.998 336.857,-460.767"/>
<polygon fill="#f0f0f0" stroke="#f0f0f0" points="335.474,-457.549 327.413,-464.425 338.002,-464.077 335.474,-457.549"/>
</g>
<!-- bn0&#45;&gt;http://example.org/2 -->
<g id="edge3" class="edge"><title>bn0&#45;&gt;http://example.org/2</title>
<path fill="none" stroke="#f0f0f0" d="M491.193,-401.887C491.193,-406.911 491.193,-432.287 491.193,-452.773"/>
<polygon fill="#f0f0f0" stroke="#f0f0f0" points="487.693,-452.907 491.193,-462.907 494.693,-452.907 487.693,-452.907"/>
<text text-anchor="middle" x="496.693" y="-438.6" font-family="Times New Roman,serif" font-size="8.00" fill="#f0f0f0">[0]</text>
</g>
<!-- http://example.org/distk_aj#2 -->
<g id="node7" class="node"><title>http://example.org/distk_aj#2</title>
<g id="a_node7"><a xlink:href="http://example.org/distk_aj#2" xlink:title="distk_aj#2">
<ellipse fill="#fafafa" stroke="#f0f0f0" cx="691.193" cy="-310" rx="48.1917" ry="18"/>
<text text-anchor="middle" x="691.193" y="-306.3" font-family="Times New Roman,serif" font-size="14.00" fill="#f0f0f0">distk_aj#2</text>
</a>
</g>
</g>
<!-- http://example.org/access17 -->
<g id="node8" class="node"><title>http://example.org/access17</title>
<g id="a_node8"><a xlink:href="http://example.org/access17" xlink:title="access17">
<polygon fill="#fafafa" stroke="#f0f0f0" points="764.193,-418 696.193,-418 696.193,-382 764.193,-382 764.193,-418"/>
<text text-anchor="middle" x="730.193" y="-396.3" font-family="Times New Roman,serif" font-size="14.00" fill="#f0f0f0">access17</text>
</a>
</g>
</g>
<!-- http://example.org/distk_aj#2&#45;&gt;http://example.org/access17 -->
<g id="edge22" class="edge"><title>http://example.org/distk_aj#2&#45;&gt;http://example.org/access17</title>
<path fill="none" stroke="#f0f0f0" d="M698.712,-327.967C704.287,-340.547 711.996,-357.94 718.389,-372.367"/>
<polygon fill="#f0f0f0" stroke="#f0f0f0" points="715.311,-374.06 722.563,-381.785 721.711,-371.224 715.311,-374.06"/>
<text text-anchor="middle" x="713.627" y="-327.661" font-family="Times New Roman,serif" font-size="8.00" fill="#f0f0f0">gen</text>
</g>
<!-- bn1 -->
<g id="node9" class="node"><title>bn1</title>
<ellipse fill="#f0f0f0" stroke="#f0f0f0" cx="886.193" cy="-400" rx="1.8" ry="1.8"/>
</g>
<!-- http://example.org/distk_aj#2&#45;&gt;bn1 -->
<g id="edge6" class="edge"><title>http://example.org/distk_aj#2&#45;&gt;bn1</title>
<path fill="none" stroke="#f0f0f0" d="M720.809,-324.365C771.95,-347.444 872.558,-392.847 884.935,-398.432"/>
<text text-anchor="middle" x="860.693" y="-357.6" font-family="Times New Roman,serif" font-size="8.00" fill="#f0f0f0">der ac&#45;r</text>
<text text-anchor="middle" x="860.693" y="-348.6" font-family="Times New Roman,serif" font-size="8.00" fill="#f0f0f0">2018&#45;03&#45;12T13:12:16.712453</text>
</g>
<!-- http://example.org/distk -->
<g id="node10" class="node"><title>http://example.org/distk</title>
<ellipse fill="none" stroke="black" cx="886.193" cy="-481" rx="96.3833" ry="18"/>
<text text-anchor="middle" x="886.193" y="-477.3" font-family="Times New Roman,serif" font-size="14.00">http://example.org/distk</text>
</g>
<!-- http://example.org/access17&#45;&gt;http://example.org/distk -->
<g id="edge9" class="edge"><title>http://example.org/access17&#45;&gt;http://example.org/distk</title>
<path fill="none" stroke="#f0f0f0" d="M764.042,-418.142C787.985,-430.267 820.204,-446.583 845.54,-459.413"/>
<polygon fill="#f0f0f0" stroke="#f0f0f0" points="844.033,-462.573 854.536,-463.969 847.196,-456.328 844.033,-462.573"/>
<text text-anchor="middle" x="776.602" y="-408.041" font-family="Times New Roman,serif" font-size="8.00" fill="#f0f0f0">use</text>
</g>
<!-- http://example.org/1 -->
<g id="node11" class="node"><title>http://example.org/1</title>
<ellipse fill="none" stroke="black" cx="1083.19" cy="-481" rx="83.3857" ry="18"/>
<text text-anchor="middle" x="1083.19" y="-477.3" font-family="Times New Roman,serif" font-size="14.00">http://example.org/1</text>
</g>
<!-- http://example.org/access17&#45;&gt;http://example.org/1 -->
<g id="edge17" class="edge"><title>http://example.org/access17&#45;&gt;http://example.org/1</title>
<path fill="none" stroke="#f0f0f0" d="M764.36,-408.647C822.814,-421.728 942.94,-448.612 1017.9,-465.388"/>
<polygon fill="#f0f0f0" stroke="#f0f0f0" points="1017.19,-468.816 1027.72,-467.585 1018.72,-461.985 1017.19,-468.816"/>
<text text-anchor="middle" x="774.516" y="-395.708" font-family="Times New Roman,serif" font-size="8.00" fill="#f0f0f0">use</text>
</g>
<!-- http://example.org/j#5 -->
<g id="node12" class="node"><title>http://example.org/j#5</title>
<ellipse fill="none" stroke="black" cx="682.193" cy="-481" rx="89.8845" ry="18"/>
<text text-anchor="middle" x="682.193" y="-477.3" font-family="Times New Roman,serif" font-size="14.00">http://example.org/j#5</text>
</g>
<!-- http://example.org/access17&#45;&gt;http://example.org/j#5 -->
<g id="edge10" class="edge"><title>http://example.org/access17&#45;&gt;http://example.org/j#5</title>
<path fill="none" stroke="#f0f0f0" d="M719.777,-418.142C713.362,-428.701 705.014,-442.439 697.817,-454.285"/>
<polygon fill="#f0f0f0" stroke="#f0f0f0" points="694.789,-452.528 692.588,-462.892 700.771,-456.163 694.789,-452.528"/>
<text text-anchor="middle" x="726.985" y="-429.397" font-family="Times New Roman,serif" font-size="8.00" fill="#f0f0f0">use</text>
</g>
<!-- bn1&#45;&gt;http://example.org/distk -->
<g id="edge7" class="edge"><title>bn1&#45;&gt;http://example.org/distk</title>
<path fill="none" stroke="#f0f0f0" stroke-dasharray="5,2" d="M886.193,-401.887C886.193,-406.911 886.193,-432.287 886.193,-452.773"/>
<polygon fill="#f0f0f0" stroke="#f0f0f0" points="882.693,-452.907 886.193,-462.907 889.693,-452.907 882.693,-452.907"/>
</g>
<!-- bn1&#45;&gt;http://example.org/1 -->
<g id="edge8" class="edge"><title>bn1&#45;&gt;http://example.org/1</title>
<path fill="none" stroke="#f0f0f0" d="M887.451,-401.504C898.61,-405.98 981.523,-439.229 1035.8,-460.995"/>
<polygon fill="#f0f0f0" stroke="#f0f0f0" points="1034.66,-464.309 1045.25,-464.783 1037.27,-457.812 1034.66,-464.309"/>
<text text-anchor="middle" x="995.693" y="-438.6" font-family="Times New Roman,serif" font-size="8.00" fill="#f0f0f0">[1]</text>
</g>
<!-- http://example.org/sum#2 -->
<g id="node13" class="node"><title>http://example.org/sum#2</title>
<g id="a_node13"><a xlink:href="http://example.org/sum#2" xlink:title="sum#2">
<ellipse fill="#fafafa" stroke="#f0f0f0" cx="596.193" cy="-164" rx="35.194" ry="18"/>
<text text-anchor="middle" x="596.193" y="-160.3" font-family="Times New Roman,serif" font-size="14.00" fill="#f0f0f0">sum#2</text>
</a>
</g>
</g>
<!-- http://example.org/sum#2&#45;&gt;http://example.org/disti_ak#2 -->
<g id="edge11" class="edge"><title>http://example.org/sum#2&#45;&gt;http://example.org/disti_ak#2</title>
<path fill="none" stroke="#f0f0f0" d="M583.196,-181.128C575.489,-191.421 566.102,-205.352 560.193,-219 551.453,-239.185 546.051,-263.562 542.919,-281.852"/>
<polygon fill="#f0f0f0" stroke="#f0f0f0" points="539.445,-281.414 541.329,-291.84 546.358,-282.514 539.445,-281.414"/>
<text text-anchor="middle" x="589.192" y="-192.977" font-family="Times New Roman,serif" font-size="8.00" fill="#f0f0f0">der</text>
</g>
<!-- http://example.org/sum#2&#45;&gt;http://example.org/distk_aj#2 -->
<g id="edge12" class="edge"><title>http://example.org/sum#2&#45;&gt;http://example.org/distk_aj#2</title>
<path fill="none" stroke="#f0f0f0" d="M607.255,-181.522C614.393,-192.2 623.866,-206.405 632.193,-219 646.582,-240.766 662.83,-265.568 674.627,-283.616"/>
<polygon fill="#f0f0f0" stroke="#f0f0f0" points="671.957,-285.929 680.357,-292.387 677.818,-282.101 671.957,-285.929"/>
<text text-anchor="middle" x="622.223" y="-178.64" font-family="Times New Roman,serif" font-size="8.00" fill="#f0f0f0">der</text>
</g>
<!-- http://example.org/+2 -->
<g id="node14" class="node"><title>http://example.org/+2</title>
<g id="a_node14"><a xlink:href="http://example.org/+2" xlink:title="+2">
<polygon fill="#fafafa" stroke="#f0f0f0" points="623.193,-255 569.193,-255 569.193,-219 623.193,-219 623.193,-255"/>
<text text-anchor="middle" x="596.193" y="-233.3" font-family="Times New Roman,serif" font-size="14.00" fill="#f0f0f0">+2</text>
</a>
</g>
</g>
<!-- http://example.org/sum#2&#45;&gt;http://example.org/+2 -->
<g id="edge20" class="edge"><title>http://example.org/sum#2&#45;&gt;http://example.org/+2</title>
<path fill="none" stroke="#f0f0f0" d="M596.193,-182.187C596.193,-190.211 596.193,-199.953 596.193,-208.931"/>
<polygon fill="#f0f0f0" stroke="#f0f0f0" points="592.693,-208.971 596.193,-218.971 599.693,-208.971 592.693,-208.971"/>
<text text-anchor="middle" x="609.183" y="-187.787" font-family="Times New Roman,serif" font-size="8.00" fill="#f0f0f0">gen</text>
</g>
<!-- http://example.org/+2&#45;&gt;http://example.org/disti_ak#2 -->
<g id="edge15" class="edge"><title>http://example.org/+2&#45;&gt;http://example.org/disti_ak#2</title>
<path fill="none" stroke="#f0f0f0" d="M582.395,-255.187C575.361,-263.948 566.683,-274.758 558.954,-284.385"/>
<polygon fill="#f0f0f0" stroke="#f0f0f0" points="556.002,-282.471 552.471,-292.46 561.461,-286.853 556.002,-282.471"/>
<text text-anchor="middle" x="587.829" y="-267.268" font-family="Times New Roman,serif" font-size="8.00" fill="#f0f0f0">use</text>
</g>
<!-- http://example.org/+2&#45;&gt;http://example.org/distk_aj#2 -->
<g id="edge14" class="edge"><title>http://example.org/+2&#45;&gt;http://example.org/distk_aj#2</title>
<path fill="none" stroke="#f0f0f0" d="M615.012,-255.006C622.115,-261.189 630.371,-268.102 638.193,-274 644.754,-278.948 651.988,-283.982 658.945,-288.632"/>
<polygon fill="#f0f0f0" stroke="#f0f0f0" points="657.261,-291.713 667.54,-294.281 661.106,-285.864 657.261,-291.713"/>
<text text-anchor="middle" x="629.187" y="-248.2" font-family="Times New Roman,serif" font-size="8.00" fill="#f0f0f0">use</text>
</g>
<!-- http://example.org/ikj#2 -->
<g id="node15" class="node"><title>http://example.org/ikj#2</title>
<g id="a_node15"><a xlink:href="http://example.org/ikj#2" xlink:title="ikj#2">
<ellipse fill="#fafafa" stroke="#f0f0f0" cx="630.193" cy="-18" rx="28.6953" ry="18"/>
<text text-anchor="middle" x="630.193" y="-14.3" font-family="Times New Roman,serif" font-size="14.00" fill="#f0f0f0">ikj#2</text>
</a>
</g>
</g>
<!-- http://example.org/ikj#2&#45;&gt;http://example.org/sum#2 -->
<g id="edge13" class="edge"><title>http://example.org/ikj#2&#45;&gt;http://example.org/sum#2</title>
<path fill="none" stroke="#f0f0f0" d="M616.062,-34.1917C607.624,-44.3398 597.698,-58.4532 593.193,-73 586.851,-93.4733 588.162,-117.829 590.748,-136.038"/>
<polygon fill="#f0f0f0" stroke="#f0f0f0" points="587.304,-136.667 592.37,-145.973 594.213,-135.54 587.304,-136.667"/>
<text text-anchor="middle" x="647.693" y="-93.6" font-family="Times New Roman,serif" font-size="8.00" fill="#f0f0f0">der ref</text>
<text text-anchor="middle" x="647.693" y="-84.6" font-family="Times New Roman,serif" font-size="8.00" fill="#f0f0f0">2018&#45;03&#45;12T13:12:16.712453</text>
</g>
<!-- http://example.org/assign11 -->
<g id="node16" class="node"><title>http://example.org/assign11</title>
<g id="a_node16"><a xlink:href="http://example.org/assign11" xlink:title="assign11">
<polygon fill="#fafafa" stroke="#f0f0f0" points="776.693,-109 711.693,-109 711.693,-73 776.693,-73 776.693,-109"/>
<text text-anchor="middle" x="744.193" y="-87.3" font-family="Times New Roman,serif" font-size="14.00" fill="#f0f0f0">assign11</text>
</a>
</g>
</g>
<!-- http://example.org/ikj#2&#45;&gt;http://example.org/assign11 -->
<g id="edge21" class="edge"><title>http://example.org/ikj#2&#45;&gt;http://example.org/assign11</title>
<path fill="none" stroke="#f0f0f0" d="M649.79,-31.2053C665.8,-41.1763 688.857,-55.5368 708.177,-67.5693"/>
<polygon fill="#f0f0f0" stroke="#f0f0f0" points="706.413,-70.594 716.752,-72.9097 710.114,-64.6522 706.413,-70.594"/>
<text text-anchor="middle" x="663.024" y="-22.2436" font-family="Times New Roman,serif" font-size="8.00" fill="#f0f0f0">gen</text>
</g>
<!-- http://example.org/assign11&#45;&gt;http://example.org/sum#2 -->
<g id="edge18" class="edge"><title>http://example.org/assign11&#45;&gt;http://example.org/sum#2</title>
<path fill="none" stroke="#f0f0f0" d="M711.347,-107.757C687.289,-119.298 654.722,-134.922 630.36,-146.609"/>
<polygon fill="#f0f0f0" stroke="#f0f0f0" points="628.634,-143.555 621.131,-151.036 631.662,-149.866 628.634,-143.555"/>
<text text-anchor="middle" x="710.203" y="-120.814" font-family="Times New Roman,serif" font-size="8.00" fill="#f0f0f0">use</text>
</g>
</g>
</svg>
