<?xml version="1.0" encoding="UTF-8" standalone="no"?>
<!DOCTYPE svg PUBLIC "-//W3C//DTD SVG 1.1//EN"
 "http://www.w3.org/Graphics/SVG/1.1/DTD/svg11.dtd">
<!-- Generated by graphviz version 2.38.0 (20140413.2041)
 -->
<!-- Title: PROV Pages: 1 -->
<svg width="1152pt" height="556pt"
 viewBox="0.00 0.00 1152.00 555.78" xmlns="http://www.w3.org/2000/svg" xmlns:xlink="http://www.w3.org/1999/xlink">
<g id="graph0" class="graph" transform="scale(0.951685 0.951685) rotate(0) translate(4 580)">
<title>PROV</title>
<polygon fill="white" stroke="none" points="-4,4 -4,-580 1206.48,-580 1206.48,4 -4,4"/>
<!-- http://example.org/disti@k#3 -->
<g id="node1" class="node"><title>http://example.org/disti@k#3</title>
<g id="a_node1"><a xlink:href="http://example.org/disti@k#3" xlink:title="disti@k#3">
<ellipse fill="#fafafa" stroke="#f0f0f0" cx="549.292" cy="-378" rx="48.1917" ry="18"/>
<text text-anchor="middle" x="549.292" y="-374.3" font-family="Times New Roman,serif" font-size="14.00" fill="#f0f0f0">disti@k#3</text>
</a>
</g>
</g>
<!-- http://example.org/access27 -->
<g id="node2" class="node"><title>http://example.org/access27</title>
<g id="a_node2"><a xlink:href="http://example.org/access27" xlink:title="access27">
<polygon fill="#fafafa" stroke="#f0f0f0" points="370.292,-486 302.292,-486 302.292,-450 370.292,-450 370.292,-486"/>
<text text-anchor="middle" x="336.292" y="-464.3" font-family="Times New Roman,serif" font-size="14.00" fill="#f0f0f0">access27</text>
</a>
</g>
</g>
<!-- http://example.org/disti@k#3&#45;&gt;http://example.org/access27 -->
<g id="edge22" class="edge"><title>http://example.org/disti@k#3&#45;&gt;http://example.org/access27</title>
<path fill="none" stroke="#f0f0f0" d="M518.32,-391.796C481.818,-406.876 420.929,-432.032 379.726,-449.056"/>
<polygon fill="#f0f0f0" stroke="#f0f0f0" points="378.382,-445.824 370.476,-452.877 381.055,-452.293 378.382,-445.824"/>
<text text-anchor="middle" x="468.792" y="-425.6" font-family="Times New Roman,serif" font-size="8.00" fill="#f0f0f0">gen</text>
<text text-anchor="middle" x="468.792" y="-416.6" font-family="Times New Roman,serif" font-size="8.00" fill="#f0f0f0">49</text>
</g>
<!-- bn0 -->
<g id="node3" class="node"><title>bn0</title>
<ellipse fill="#f0f0f0" stroke="#f0f0f0" cx="509.292" cy="-468" rx="1.8" ry="1.8"/>
</g>
<!-- http://example.org/disti@k#3&#45;&gt;bn0 -->
<g id="edge1" class="edge"><title>http://example.org/disti@k#3&#45;&gt;bn0</title>
<path fill="none" stroke="#f0f0f0" d="M541.579,-395.967C530.864,-419.541 512.465,-460.018 509.656,-466.199"/>
<text text-anchor="middle" x="546.792" y="-425.6" font-family="Times New Roman,serif" font-size="8.00" fill="#f0f0f0">der ac&#45;r</text>
<text text-anchor="middle" x="546.792" y="-416.6" font-family="Times New Roman,serif" font-size="8.00" fill="#f0f0f0">49</text>
</g>
<!-- http://example.org/disti#3 -->
<g id="node4" class="node"><title>http://example.org/disti#3</title>
<ellipse fill="none" stroke="black" cx="305.292" cy="-558" rx="102.882" ry="18"/>
<text text-anchor="middle" x="305.292" y="-554.3" font-family="Times New Roman,serif" font-size="14.00">http://example.org/disti#3</text>
</g>
<!-- http://example.org/access27&#45;&gt;http://example.org/disti#3 -->
<g id="edge4" class="edge"><title>http://example.org/access27&#45;&gt;http://example.org/disti#3</title>
<path fill="none" stroke="#f0f0f0" d="M330.167,-486.386C325.766,-498.881 319.748,-515.963 314.734,-530.196"/>
<polygon fill="#f0f0f0" stroke="#f0f0f0" points="311.32,-529.355 311.298,-539.95 317.922,-531.681 311.32,-529.355"/>
<text text-anchor="middle" x="339.928" y="-495.876" font-family="Times New Roman,serif" font-size="8.00" fill="#f0f0f0">use</text>
</g>
<!-- http://example.org/1 -->
<g id="node5" class="node"><title>http://example.org/1</title>
<ellipse fill="none" stroke="black" cx="509.292" cy="-558" rx="83.3857" ry="18"/>
<text text-anchor="middle" x="509.292" y="-554.3" font-family="Times New Roman,serif" font-size="14.00">http://example.org/1</text>
</g>
<!-- http://example.org/access27&#45;&gt;http://example.org/1 -->
<g id="edge16" class="edge"><title>http://example.org/access27&#45;&gt;http://example.org/1</title>
<path fill="none" stroke="#f0f0f0" d="M370.059,-486.176C398.486,-500.636 439.201,-521.347 469.264,-536.639"/>
<polygon fill="#f0f0f0" stroke="#f0f0f0" points="467.726,-539.784 478.226,-541.198 470.9,-533.544 467.726,-539.784"/>
<text text-anchor="middle" x="443.792" y="-515.6" font-family="Times New Roman,serif" font-size="8.00" fill="#f0f0f0">use</text>
<text text-anchor="middle" x="443.792" y="-506.6" font-family="Times New Roman,serif" font-size="8.00" fill="#f0f0f0">49</text>
</g>
<!-- http://example.org/k#2 -->
<g id="node6" class="node"><title>http://example.org/k#2</title>
<ellipse fill="none" stroke="black" cx="92.2918" cy="-558" rx="92.0841" ry="18"/>
<text text-anchor="middle" x="92.2918" y="-554.3" font-family="Times New Roman,serif" font-size="14.00">http://example.org/k#2</text>
</g>
<!-- http://example.org/access27&#45;&gt;http://example.org/k#2 -->
<g id="edge5" class="edge"><title>http://example.org/access27&#45;&gt;http://example.org/k#2</title>
<path fill="none" stroke="#f0f0f0" d="M302.108,-481.329C261.002,-496.154 191.603,-521.183 143.95,-538.369"/>
<polygon fill="#f0f0f0" stroke="#f0f0f0" points="142.647,-535.118 134.427,-541.804 145.022,-541.703 142.647,-535.118"/>
<text text-anchor="middle" x="299.46" y="-494.193" font-family="Times New Roman,serif" font-size="8.00" fill="#f0f0f0">use</text>
</g>
<!-- bn0&#45;&gt;http://example.org/disti#3 -->
<g id="edge2" class="edge"><title>bn0&#45;&gt;http://example.org/disti#3</title>
<path fill="none" stroke="#f0f0f0" stroke-dasharray="5,2" d="M508.32,-469.895C502.163,-475.517 467.757,-506.242 434.292,-522 417.385,-529.961 398.351,-536.376 380.2,-541.431"/>
<polygon fill="#f0f0f0" stroke="#f0f0f0" points="379.27,-538.057 370.517,-544.026 381.082,-544.818 379.27,-538.057"/>
</g>
<!-- bn0&#45;&gt;http://example.org/1 -->
<g id="edge3" class="edge"><title>bn0&#45;&gt;http://example.org/1</title>
<path fill="none" stroke="#f0f0f0" d="M509.292,-469.988C509.292,-475.85 509.292,-506.595 509.292,-529.891"/>
<polygon fill="#f0f0f0" stroke="#f0f0f0" points="505.792,-529.954 509.292,-539.954 512.792,-529.955 505.792,-529.954"/>
<text text-anchor="middle" x="514.792" y="-511.1" font-family="Times New Roman,serif" font-size="8.00" fill="#f0f0f0">[1]</text>
</g>
<!-- http://example.org/distk@j#3 -->
<g id="node7" class="node"><title>http://example.org/distk@j#3</title>
<g id="a_node7"><a xlink:href="http://example.org/distk@j#3" xlink:title="distk@j#3">
<ellipse fill="#fafafa" stroke="#f0f0f0" cx="735.292" cy="-378" rx="48.1917" ry="18"/>
<text text-anchor="middle" x="735.292" y="-374.3" font-family="Times New Roman,serif" font-size="14.00" fill="#f0f0f0">distk@j#3</text>
</a>
</g>
</g>
<!-- http://example.org/access28 -->
<g id="node8" class="node"><title>http://example.org/access28</title>
<g id="a_node8"><a xlink:href="http://example.org/access28" xlink:title="access28">
<polygon fill="#fafafa" stroke="#f0f0f0" points="811.292,-486 743.292,-486 743.292,-450 811.292,-450 811.292,-486"/>
<text text-anchor="middle" x="777.292" y="-464.3" font-family="Times New Roman,serif" font-size="14.00" fill="#f0f0f0">access28</text>
</a>
</g>
</g>
<!-- http://example.org/distk@j#3&#45;&gt;http://example.org/access28 -->
<g id="edge19" class="edge"><title>http://example.org/distk@j#3&#45;&gt;http://example.org/access28</title>
<path fill="none" stroke="#f0f0f0" d="M743.39,-395.967C749.394,-408.547 757.695,-425.94 764.58,-440.367"/>
<polygon fill="#f0f0f0" stroke="#f0f0f0" points="761.609,-442.267 769.075,-449.785 767.927,-439.252 761.609,-442.267"/>
<text text-anchor="middle" x="766.792" y="-425.6" font-family="Times New Roman,serif" font-size="8.00" fill="#f0f0f0">gen</text>
<text text-anchor="middle" x="766.792" y="-416.6" font-family="Times New Roman,serif" font-size="8.00" fill="#f0f0f0">50</text>
</g>
<!-- bn1 -->
<g id="node9" class="node"><title>bn1</title>
<ellipse fill="#f0f0f0" stroke="#f0f0f0" cx="913.292" cy="-468" rx="1.8" ry="1.8"/>
</g>
<!-- http://example.org/distk@j#3&#45;&gt;bn1 -->
<g id="edge6" class="edge"><title>http://example.org/distk@j#3&#45;&gt;bn1</title>
<path fill="none" stroke="#f0f0f0" d="M763.104,-392.75C810.038,-415.953 900.972,-460.909 912.155,-466.438"/>
<text text-anchor="middle" x="853.792" y="-425.6" font-family="Times New Roman,serif" font-size="8.00" fill="#f0f0f0">der ac&#45;r</text>
<text text-anchor="middle" x="853.792" y="-416.6" font-family="Times New Roman,serif" font-size="8.00" fill="#f0f0f0">50</text>
</g>
<!-- http://example.org/distk#2 -->
<g id="node10" class="node"><title>http://example.org/distk#2</title>
<ellipse fill="none" stroke="black" cx="913.292" cy="-558" rx="105.082" ry="18"/>
<text text-anchor="middle" x="913.292" y="-554.3" font-family="Times New Roman,serif" font-size="14.00">http://example.org/distk#2</text>
</g>
<!-- http://example.org/access28&#45;&gt;http://example.org/distk#2 -->
<g id="edge9" class="edge"><title>http://example.org/access28&#45;&gt;http://example.org/distk#2</title>
<path fill="none" stroke="#f0f0f0" d="M797.744,-486.217C811.126,-497.097 829.231,-511.108 846.292,-522 853.927,-526.874 862.315,-531.665 870.496,-536.062"/>
<polygon fill="#f0f0f0" stroke="#f0f0f0" points="869.112,-539.289 879.593,-540.843 872.369,-533.092 869.112,-539.289"/>
<text text-anchor="middle" x="811.74" y="-478.923" font-family="Times New Roman,serif" font-size="8.00" fill="#f0f0f0">use</text>
</g>
<!-- http://example.org/2 -->
<g id="node11" class="node"><title>http://example.org/2</title>
<ellipse fill="none" stroke="black" cx="1119.29" cy="-558" rx="83.3857" ry="18"/>
<text text-anchor="middle" x="1119.29" y="-554.3" font-family="Times New Roman,serif" font-size="14.00">http://example.org/2</text>
</g>
<!-- http://example.org/access28&#45;&gt;http://example.org/2 -->
<g id="edge14" class="edge"><title>http://example.org/access28&#45;&gt;http://example.org/2</title>
<path fill="none" stroke="#f0f0f0" d="M811.38,-477.845C852.055,-488.392 922.122,-506.536 982.292,-522 1006.94,-528.336 1034.1,-535.281 1057.69,-541.303"/>
<polygon fill="#f0f0f0" stroke="#f0f0f0" points="1057.01,-544.741 1067.56,-543.822 1058.74,-537.958 1057.01,-544.741"/>
<text text-anchor="middle" x="987.792" y="-515.6" font-family="Times New Roman,serif" font-size="8.00" fill="#f0f0f0">use</text>
<text text-anchor="middle" x="987.792" y="-506.6" font-family="Times New Roman,serif" font-size="8.00" fill="#f0f0f0">50</text>
</g>
<!-- http://example.org/j#9 -->
<g id="node12" class="node"><title>http://example.org/j#9</title>
<ellipse fill="none" stroke="black" cx="700.292" cy="-558" rx="89.8845" ry="18"/>
<text text-anchor="middle" x="700.292" y="-554.3" font-family="Times New Roman,serif" font-size="14.00">http://example.org/j#9</text>
</g>
<!-- http://example.org/access28&#45;&gt;http://example.org/j#9 -->
<g id="edge10" class="edge"><title>http://example.org/access28&#45;&gt;http://example.org/j#9</title>
<path fill="none" stroke="#f0f0f0" d="M762.079,-486.386C750.615,-499.488 734.739,-517.632 721.95,-532.247"/>
<polygon fill="#f0f0f0" stroke="#f0f0f0" points="719.162,-530.119 715.211,-539.95 724.43,-534.729 719.162,-530.119"/>
<text text-anchor="middle" x="766.917" y="-498.685" font-family="Times New Roman,serif" font-size="8.00" fill="#f0f0f0">use</text>
</g>
<!-- bn1&#45;&gt;http://example.org/distk#2 -->
<g id="edge7" class="edge"><title>bn1&#45;&gt;http://example.org/distk#2</title>
<path fill="none" stroke="#f0f0f0" stroke-dasharray="5,2" d="M913.292,-469.988C913.292,-475.85 913.292,-506.595 913.292,-529.891"/>
<polygon fill="#f0f0f0" stroke="#f0f0f0" points="909.792,-529.954 913.292,-539.954 916.792,-529.955 909.792,-529.954"/>
</g>
<!-- bn1&#45;&gt;http://example.org/2 -->
<g id="edge8" class="edge"><title>bn1&#45;&gt;http://example.org/2</title>
<path fill="none" stroke="#f0f0f0" d="M914.607,-469.562C926.56,-474.668 1017.23,-513.402 1073.81,-537.572"/>
<polygon fill="#f0f0f0" stroke="#f0f0f0" points="1072.7,-540.902 1083.27,-541.612 1075.45,-534.465 1072.7,-540.902"/>
<text text-anchor="middle" x="1039.79" y="-511.1" font-family="Times New Roman,serif" font-size="8.00" fill="#f0f0f0">[2]</text>
</g>
<!-- http://example.org/sum#3 -->
<g id="node13" class="node"><title>http://example.org/sum#3</title>
<g id="a_node13"><a xlink:href="http://example.org/sum#3" xlink:title="sum#3">
<ellipse fill="#fafafa" stroke="#f0f0f0" cx="645.292" cy="-198" rx="35.194" ry="18"/>
<text text-anchor="middle" x="645.292" y="-194.3" font-family="Times New Roman,serif" font-size="14.00" fill="#f0f0f0">sum#3</text>
</a>
</g>
</g>
<!-- http://example.org/sum#3&#45;&gt;http://example.org/disti@k#3 -->
<g id="edge11" class="edge"><title>http://example.org/sum#3&#45;&gt;http://example.org/disti@k#3</title>
<path fill="none" stroke="#f0f0f0" d="M633.528,-215.187C623.536,-229.292 609.132,-250.487 598.292,-270 583.492,-296.64 569.304,-328.56 560.039,-350.564"/>
<polygon fill="#f0f0f0" stroke="#f0f0f0" points="556.756,-349.345 556.144,-359.922 563.218,-352.035 556.756,-349.345"/>
<text text-anchor="middle" x="603.792" y="-290.6" font-family="Times New Roman,serif" font-size="8.00" fill="#f0f0f0">der</text>
<text text-anchor="middle" x="603.792" y="-281.6" font-family="Times New Roman,serif" font-size="8.00" fill="#f0f0f0">51</text>
</g>
<!-- http://example.org/sum#3&#45;&gt;http://example.org/distk@j#3 -->
<g id="edge12" class="edge"><title>http://example.org/sum#3&#45;&gt;http://example.org/distk@j#3</title>
<path fill="none" stroke="#f0f0f0" d="M654.619,-215.356C667.985,-239.021 693.092,-284.328 712.292,-324 716.482,-332.659 720.761,-342.269 724.474,-350.901"/>
<polygon fill="#f0f0f0" stroke="#f0f0f0" points="721.262,-352.292 728.39,-360.13 727.706,-349.558 721.262,-352.292"/>
<text text-anchor="middle" x="708.792" y="-290.6" font-family="Times New Roman,serif" font-size="8.00" fill="#f0f0f0">der</text>
<text text-anchor="middle" x="708.792" y="-281.6" font-family="Times New Roman,serif" font-size="8.00" fill="#f0f0f0">51</text>
</g>
<!-- http://example.org/+3 -->
<g id="node14" class="node"><title>http://example.org/+3</title>
<g id="a_node14"><a xlink:href="http://example.org/+3" xlink:title="+3">
<polygon fill="#fafafa" stroke="#f0f0f0" points="672.292,-306 618.292,-306 618.292,-270 672.292,-270 672.292,-306"/>
<text text-anchor="middle" x="645.292" y="-284.3" font-family="Times New Roman,serif" font-size="14.00" fill="#f0f0f0">+3</text>
</a>
</g>
</g>
<!-- http://example.org/sum#3&#45;&gt;http://example.org/+3 -->
<g id="edge20" class="edge"><title>http://example.org/sum#3&#45;&gt;http://example.org/+3</title>
<path fill="none" stroke="#f0f0f0" d="M645.292,-216.386C645.292,-228.76 645.292,-245.631 645.292,-259.78"/>
<polygon fill="#f0f0f0" stroke="#f0f0f0" points="641.792,-259.95 645.292,-269.95 648.792,-259.95 641.792,-259.95"/>
<text text-anchor="middle" x="651.792" y="-245.6" font-family="Times New Roman,serif" font-size="8.00" fill="#f0f0f0">gen</text>
<text text-anchor="middle" x="651.792" y="-236.6" font-family="Times New Roman,serif" font-size="8.00" fill="#f0f0f0">51</text>
</g>
<!-- http://example.org/+3&#45;&gt;http://example.org/disti@k#3 -->
<g id="edge15" class="edge"><title>http://example.org/+3&#45;&gt;http://example.org/disti@k#3</title>
<path fill="none" stroke="#f0f0f0" d="M626.325,-306.386C611.392,-320.075 590.454,-339.268 574.176,-354.19"/>
<polygon fill="#f0f0f0" stroke="#f0f0f0" points="571.612,-351.792 566.605,-361.129 576.342,-356.952 571.612,-351.792"/>
<text text-anchor="middle" x="611.792" y="-335.6" font-family="Times New Roman,serif" font-size="8.00" fill="#f0f0f0">use</text>
<text text-anchor="middle" x="611.792" y="-326.6" font-family="Times New Roman,serif" font-size="8.00" fill="#f0f0f0">51</text>
</g>
<!-- http://example.org/+3&#45;&gt;http://example.org/distk@j#3 -->
<g id="edge17" class="edge"><title>http://example.org/+3&#45;&gt;http://example.org/distk@j#3</title>
<path fill="none" stroke="#f0f0f0" d="M663.073,-306.386C676.858,-319.865 696.102,-338.681 711.259,-353.501"/>
<polygon fill="#f0f0f0" stroke="#f0f0f0" points="709.164,-356.348 718.762,-360.837 714.058,-351.343 709.164,-356.348"/>
<text text-anchor="middle" x="704.792" y="-335.6" font-family="Times New Roman,serif" font-size="8.00" fill="#f0f0f0">use</text>
<text text-anchor="middle" x="704.792" y="-326.6" font-family="Times New Roman,serif" font-size="8.00" fill="#f0f0f0">51</text>
</g>
<!-- http://example.org/ikj#3 -->
<g id="node15" class="node"><title>http://example.org/ikj#3</title>
<g id="a_node15"><a xlink:href="http://example.org/ikj#3" xlink:title="ikj#3">
<ellipse fill="#fafafa" stroke="#f0f0f0" cx="655.292" cy="-18" rx="28.6953" ry="18"/>
<text text-anchor="middle" x="655.292" y="-14.3" font-family="Times New Roman,serif" font-size="14.00" fill="#f0f0f0">ikj#3</text>
</a>
</g>
</g>
<!-- http://example.org/ikj#3&#45;&gt;http://example.org/sum#3 -->
<g id="edge13" class="edge"><title>http://example.org/ikj#3&#45;&gt;http://example.org/sum#3</title>
<path fill="none" stroke="#f0f0f0" d="M650.108,-35.7264C645.974,-49.9882 640.521,-71.1189 638.292,-90 635.099,-117.045 637.841,-148.12 640.777,-169.788"/>
<polygon fill="#f0f0f0" stroke="#f0f0f0" points="637.346,-170.512 642.255,-179.901 644.272,-169.5 637.346,-170.512"/>
<text text-anchor="middle" x="649.792" y="-110.6" font-family="Times New Roman,serif" font-size="8.00" fill="#f0f0f0">der ref</text>
<text text-anchor="middle" x="649.792" y="-101.6" font-family="Times New Roman,serif" font-size="8.00" fill="#f0f0f0">52</text>
</g>
<!-- http://example.org/assign15 -->
<g id="node16" class="node"><title>http://example.org/assign15</title>
<g id="a_node16"><a xlink:href="http://example.org/assign15" xlink:title="assign15">
<polygon fill="#fafafa" stroke="#f0f0f0" points="735.792,-126 670.792,-126 670.792,-90 735.792,-90 735.792,-126"/>
<text text-anchor="middle" x="703.292" y="-104.3" font-family="Times New Roman,serif" font-size="14.00" fill="#f0f0f0">assign15</text>
</a>
</g>
</g>
<!-- http://example.org/ikj#3&#45;&gt;http://example.org/assign15 -->
<g id="edge21" class="edge"><title>http://example.org/ikj#3&#45;&gt;http://example.org/assign15</title>
<path fill="none" stroke="#f0f0f0" d="M664.096,-35.1406C671.023,-47.8399 680.819,-65.7991 688.884,-80.5863"/>
<polygon fill="#f0f0f0" stroke="#f0f0f0" points="686.026,-82.6554 693.887,-89.7583 692.171,-79.3034 686.026,-82.6554"/>
<text text-anchor="middle" x="690.792" y="-65.6" font-family="Times New Roman,serif" font-size="8.00" fill="#f0f0f0">gen</text>
<text text-anchor="middle" x="690.792" y="-56.6" font-family="Times New Roman,serif" font-size="8.00" fill="#f0f0f0">52</text>
</g>
<!-- http://example.org/assign15&#45;&gt;http://example.org/sum#3 -->
<g id="edge18" class="edge"><title>http://example.org/assign15&#45;&gt;http://example.org/sum#3</title>
<path fill="none" stroke="#f0f0f0" d="M691.833,-126.386C683.194,-139.494 671.228,-157.649 661.592,-172.268"/>
<polygon fill="#f0f0f0" stroke="#f0f0f0" points="658.525,-170.561 655.945,-180.837 664.37,-174.414 658.525,-170.561"/>
<text text-anchor="middle" x="685.792" y="-155.6" font-family="Times New Roman,serif" font-size="8.00" fill="#f0f0f0">use</text>
<text text-anchor="middle" x="685.792" y="-146.6" font-family="Times New Roman,serif" font-size="8.00" fill="#f0f0f0">52</text>
</g>
</g>
</svg>
