<?xml version="1.0" encoding="UTF-8" standalone="no"?>
<!DOCTYPE svg PUBLIC "-//W3C//DTD SVG 1.1//EN"
 "http://www.w3.org/Graphics/SVG/1.1/DTD/svg11.dtd">
<!-- Generated by graphviz version 2.38.0 (20140413.2041)
 -->
<!-- Title: PROV Pages: 1 -->
<svg width="126pt" height="323pt"
 viewBox="0.00 0.00 126.00 323.00" xmlns="http://www.w3.org/2000/svg" xmlns:xlink="http://www.w3.org/1999/xlink">
<g id="graph0" class="graph" transform="scale(1 1) rotate(0) translate(4 319)">
<title>PROV</title>
<polygon fill="white" stroke="none" points="-4,4 -4,-319 122,-319 122,4 -4,4"/>
<!-- http://example.org/10000 -->
<g id="node1" class="node"><title>http://example.org/10000</title>
<g id="a_node1"><a xlink:href="http://example.org/10000" xlink:title="10000">
<ellipse fill="#fafafa" stroke="#f0f0f0" cx="44" cy="-297" rx="32.4942" ry="18"/>
<text text-anchor="middle" x="44" y="-293.3" font-family="Times New Roman,serif" font-size="14.00" fill="#f0f0f0">10000</text>
</a>
</g>
</g>
<!-- http://example.org/m -->
<g id="node2" class="node"><title>http://example.org/m</title>
<g id="a_node2"><a xlink:href="http://example.org/m" xlink:title="m">
<ellipse fill="#fffc87" stroke="#808080" cx="35" cy="-117" rx="27" ry="18"/>
<text text-anchor="middle" x="35" y="-113.3" font-family="Times New Roman,serif" font-size="14.00">m</text>
</a>
</g>
</g>
<!-- http://example.org/m&#45;&gt;http://example.org/10000 -->
<g id="edge2" class="edge"><title>http://example.org/m&#45;&gt;http://example.org/10000</title>
<path fill="none" stroke="#f0f0f0" d="M32.0329,-135.091C28.7853,-156.249 24.4793,-193.362 28,-225 29.643,-239.764 33.1516,-255.943 36.4656,-269.122"/>
<polygon fill="#f0f0f0" stroke="#f0f0f0" points="33.1237,-270.177 39.0424,-278.964 39.8955,-268.404 33.1237,-270.177"/>
<text text-anchor="middle" x="39.5" y="-209.6" font-family="Times New Roman,serif" font-size="8.00" fill="#f0f0f0">der ref</text>
<text text-anchor="middle" x="39.5" y="-200.6" font-family="Times New Roman,serif" font-size="8.00" fill="#f0f0f0">1</text>
</g>
<!-- http://example.org/assign1 -->
<g id="node4" class="node"><title>http://example.org/assign1</title>
<g id="a_node4"><a xlink:href="http://example.org/assign1" xlink:title="assign1">
<polygon fill="#fafafa" stroke="#f0f0f0" points="118,-225 60,-225 60,-189 118,-189 118,-225"/>
<text text-anchor="middle" x="89" y="-203.3" font-family="Times New Roman,serif" font-size="14.00" fill="#f0f0f0">assign1</text>
</a>
</g>
</g>
<!-- http://example.org/m&#45;&gt;http://example.org/assign1 -->
<g id="edge4" class="edge"><title>http://example.org/m&#45;&gt;http://example.org/assign1</title>
<path fill="none" stroke="#f0f0f0" d="M44.9044,-134.141C52.7714,-146.961 63.9278,-165.142 73.0503,-180.008"/>
<polygon fill="#f0f0f0" stroke="#f0f0f0" points="70.2066,-182.066 78.4199,-188.758 76.1728,-178.405 70.2066,-182.066"/>
<text text-anchor="middle" x="72.5" y="-164.6" font-family="Times New Roman,serif" font-size="8.00" fill="#f0f0f0">gen</text>
<text text-anchor="middle" x="72.5" y="-155.6" font-family="Times New Roman,serif" font-size="8.00" fill="#f0f0f0">1</text>
</g>
<!-- &#45;attrs0 -->
<g id="node3" class="node"><title>&#45;attrs0</title>
<polygon fill="none" stroke="gray" points="64,-62 0,-62 0,-0 70,-0 70,-56 64,-62"/>
<polyline fill="none" stroke="gray" points="64,-62 64,-56 "/>
<polyline fill="none" stroke="gray" points="70,-56 64,-56 "/>
<text text-anchor="start" x="10" y="-48" font-family="Times New Roman,serif" font-size="10.00">value:</text>
<text text-anchor="start" x="37" y="-48" font-family="Times New Roman,serif" font-size="10.00">10000</text>
<text text-anchor="start" x="10" y="-35" font-family="Times New Roman,serif" font-size="10.00">type:</text>
<text text-anchor="start" x="37" y="-35" font-family="Times New Roman,serif" font-size="10.00">name</text>
<text text-anchor="start" x="10" y="-22" font-family="Times New Roman,serif" font-size="10.00">label:</text>
<text text-anchor="start" x="37" y="-22" font-family="Times New Roman,serif" font-size="10.00">m</text>
<text text-anchor="start" x="10" y="-9" font-family="Times New Roman,serif" font-size="10.00">line:</text>
<text text-anchor="start" x="37" y="-9" font-family="Times New Roman,serif" font-size="10.00">1</text>
</g>
<!-- &#45;attrs0&#45;&gt;http://example.org/m -->
<g id="edge1" class="edge"><title>&#45;attrs0&#45;&gt;http://example.org/m</title>
<path fill="none" stroke="gray" stroke-dasharray="5,2" d="M35,-62.3259C35,-74.5443 35,-88.1945 35,-98.6716"/>
</g>
<!-- http://example.org/assign1&#45;&gt;http://example.org/10000 -->
<g id="edge3" class="edge"><title>http://example.org/assign1&#45;&gt;http://example.org/10000</title>
<path fill="none" stroke="#f0f0f0" d="M80.1094,-225.386C73.5118,-238.288 64.4135,-256.08 57.0004,-270.577"/>
<polygon fill="#f0f0f0" stroke="#f0f0f0" points="53.8522,-269.046 52.4155,-279.543 60.0846,-272.233 53.8522,-269.046"/>
<text text-anchor="middle" x="75.5" y="-254.6" font-family="Times New Roman,serif" font-size="8.00" fill="#f0f0f0">use</text>
<text text-anchor="middle" x="75.5" y="-245.6" font-family="Times New Roman,serif" font-size="8.00" fill="#f0f0f0">1</text>
</g>
</g>
</svg>
