<?xml version="1.0" encoding="UTF-8" standalone="no"?>
<!DOCTYPE svg PUBLIC "-//W3C//DTD SVG 1.1//EN"
 "http://www.w3.org/Graphics/SVG/1.1/DTD/svg11.dtd">
<!-- Generated by graphviz version 2.38.0 (20140413.2041)
 -->
<!-- Title: PROV Pages: 1 -->
<svg width="604pt" height="215pt"
 viewBox="0.00 0.00 604.43 215.00" xmlns="http://www.w3.org/2000/svg" xmlns:xlink="http://www.w3.org/1999/xlink">
<g id="graph0" class="graph" transform="scale(1 1) rotate(0) translate(4 211)">
<title>PROV</title>
<polygon fill="white" stroke="none" points="-4,4 -4,-211 600.434,-211 600.434,4 -4,4"/>
<!-- http://example.org/disti_aj#6 -->
<g id="node1" class="node"><title>http://example.org/disti_aj#6</title>
<g id="a_node1"><a xlink:href="http://example.org/disti_aj#6" xlink:title="disti_aj#6">
<ellipse fill="#fafafa" stroke="#f0f0f0" cx="225.193" cy="-18" rx="46.2923" ry="18"/>
<text text-anchor="middle" x="225.193" y="-14.3" font-family="Times New Roman,serif" font-size="14.00" fill="#f0f0f0">disti_aj#6</text>
</a>
</g>
</g>
<!-- http://example.org/access36 -->
<g id="node2" class="node"><title>http://example.org/access36</title>
<g id="a_node2"><a xlink:href="http://example.org/access36" xlink:title="access36">
<polygon fill="#fafafa" stroke="#f0f0f0" points="321.193,-126 253.193,-126 253.193,-90 321.193,-90 321.193,-126"/>
<text text-anchor="middle" x="287.193" y="-104.3" font-family="Times New Roman,serif" font-size="14.00" fill="#f0f0f0">access36</text>
</a>
</g>
</g>
<!-- http://example.org/disti_aj#6&#45;&gt;http://example.org/access36 -->
<g id="edge7" class="edge"><title>http://example.org/disti_aj#6&#45;&gt;http://example.org/access36</title>
<path fill="none" stroke="#f0f0f0" d="M250.959,-33.0038C259.119,-38.5705 267.49,-45.6554 273.193,-54 278.364,-61.5676 281.626,-70.9428 283.683,-79.6943"/>
<polygon fill="#f0f0f0" stroke="#f0f0f0" points="280.252,-80.3823 285.587,-89.5356 287.124,-79.0529 280.252,-80.3823"/>
<text text-anchor="middle" x="264.551" y="-24.7597" font-family="Times New Roman,serif" font-size="8.00" fill="#f0f0f0">gen</text>
</g>
<!-- bn0 -->
<g id="node3" class="node"><title>bn0</title>
<ellipse fill="#f0f0f0" stroke="#f0f0f0" cx="163.193" cy="-108" rx="1.8" ry="1.8"/>
</g>
<!-- http://example.org/disti_aj#6&#45;&gt;bn0 -->
<g id="edge1" class="edge"><title>http://example.org/disti_aj#6&#45;&gt;bn0</title>
<path fill="none" stroke="#f0f0f0" d="M191.772,-30.4451C181.079,-35.8534 170.411,-43.4925 164.193,-54 153.318,-72.3744 161.332,-100.974 162.931,-106.174"/>
<text text-anchor="middle" x="218.693" y="-65.6" font-family="Times New Roman,serif" font-size="8.00" fill="#f0f0f0">der ac&#45;r</text>
<text text-anchor="middle" x="218.693" y="-56.6" font-family="Times New Roman,serif" font-size="8.00" fill="#f0f0f0">2018&#45;03&#45;12T13:12:18.468547</text>
</g>
<!-- http://example.org/disti#4 -->
<g id="node4" class="node"><title>http://example.org/disti#4</title>
<ellipse fill="none" stroke="black" cx="287.193" cy="-189" rx="102.882" ry="18"/>
<text text-anchor="middle" x="287.193" y="-185.3" font-family="Times New Roman,serif" font-size="14.00">http://example.org/disti#4</text>
</g>
<!-- http://example.org/access36&#45;&gt;http://example.org/disti#4 -->
<g id="edge4" class="edge"><title>http://example.org/access36&#45;&gt;http://example.org/disti#4</title>
<path fill="none" stroke="#f0f0f0" d="M287.193,-126.142C287.193,-136.287 287.193,-149.366 287.193,-160.883"/>
<polygon fill="#f0f0f0" stroke="#f0f0f0" points="283.693,-160.892 287.193,-170.892 290.693,-160.892 283.693,-160.892"/>
<text text-anchor="middle" x="300.183" y="-131.742" font-family="Times New Roman,serif" font-size="8.00" fill="#f0f0f0">use</text>
</g>
<!-- http://example.org/2 -->
<g id="node5" class="node"><title>http://example.org/2</title>
<ellipse fill="none" stroke="black" cx="83.1926" cy="-189" rx="83.3857" ry="18"/>
<text text-anchor="middle" x="83.1926" y="-185.3" font-family="Times New Roman,serif" font-size="14.00">http://example.org/2</text>
</g>
<!-- http://example.org/access36&#45;&gt;http://example.org/2 -->
<g id="edge6" class="edge"><title>http://example.org/access36&#45;&gt;http://example.org/2</title>
<path fill="none" stroke="#f0f0f0" d="M253.048,-122.223C219.833,-135.085 169.05,-154.751 131.66,-169.231"/>
<polygon fill="#f0f0f0" stroke="#f0f0f0" points="130.04,-166.105 121.979,-172.98 132.568,-172.632 130.04,-166.105"/>
<text text-anchor="middle" x="250.745" y="-135.145" font-family="Times New Roman,serif" font-size="8.00" fill="#f0f0f0">use</text>
</g>
<!-- http://example.org/j#10 -->
<g id="node6" class="node"><title>http://example.org/j#10</title>
<ellipse fill="none" stroke="black" cx="502.193" cy="-189" rx="94.4839" ry="18"/>
<text text-anchor="middle" x="502.193" y="-185.3" font-family="Times New Roman,serif" font-size="14.00">http://example.org/j#10</text>
</g>
<!-- http://example.org/access36&#45;&gt;http://example.org/j#10 -->
<g id="edge5" class="edge"><title>http://example.org/access36&#45;&gt;http://example.org/j#10</title>
<path fill="none" stroke="#f0f0f0" d="M321.26,-121.518C356.155,-134.34 410.823,-154.427 450.941,-169.168"/>
<polygon fill="#f0f0f0" stroke="#f0f0f0" points="449.955,-172.534 460.548,-172.698 452.369,-165.964 449.955,-172.534"/>
<text text-anchor="middle" x="332.78" y="-110.011" font-family="Times New Roman,serif" font-size="8.00" fill="#f0f0f0">use</text>
</g>
<!-- bn0&#45;&gt;http://example.org/disti#4 -->
<g id="edge2" class="edge"><title>bn0&#45;&gt;http://example.org/disti#4</title>
<path fill="none" stroke="#f0f0f0" stroke-dasharray="5,2" d="M164.585,-109.887C173.158,-115.349 219.498,-144.872 252.674,-166.009"/>
<polygon fill="#f0f0f0" stroke="#f0f0f0" points="250.903,-169.03 261.217,-171.451 254.664,-163.126 250.903,-169.03"/>
</g>
<!-- bn0&#45;&gt;http://example.org/2 -->
<g id="edge3" class="edge"><title>bn0&#45;&gt;http://example.org/2</title>
<path fill="none" stroke="#f0f0f0" d="M162.294,-109.887C156.92,-115.195 128.54,-143.22 107.3,-164.194"/>
<polygon fill="#f0f0f0" stroke="#f0f0f0" points="104.79,-161.753 100.134,-171.27 109.709,-166.734 104.79,-161.753"/>
<text text-anchor="middle" x="131.693" y="-146.6" font-family="Times New Roman,serif" font-size="8.00" fill="#f0f0f0">[1]</text>
</g>
</g>
</svg>
