<?xml version="1.0" encoding="UTF-8" standalone="no"?>
<!DOCTYPE svg PUBLIC "-//W3C//DTD SVG 1.1//EN"
 "http://www.w3.org/Graphics/SVG/1.1/DTD/svg11.dtd">
<!-- Generated by graphviz version 2.38.0 (20140413.2041)
 -->
<!-- Title: PROV Pages: 1 -->
<svg width="599pt" height="224pt"
 viewBox="0.00 0.00 598.83 224.00" xmlns="http://www.w3.org/2000/svg" xmlns:xlink="http://www.w3.org/1999/xlink">
<g id="graph0" class="graph" transform="scale(1 1) rotate(0) translate(4 220)">
<title>PROV</title>
<polygon fill="white" stroke="none" points="-4,4 -4,-220 594.834,-220 594.834,4 -4,4"/>
<!-- http://example.org/disti@j#2 -->
<g id="node1" class="node"><title>http://example.org/disti@j#2</title>
<g id="a_node1"><a xlink:href="http://example.org/disti@j#2" xlink:title="disti@j#2">
<ellipse fill="#fafafa" stroke="#f0f0f0" cx="260.142" cy="-18" rx="45.4919" ry="18"/>
<text text-anchor="middle" x="260.142" y="-14.3" font-family="Times New Roman,serif" font-size="14.00" fill="#f0f0f0">disti@j#2</text>
</a>
</g>
</g>
<!-- http://example.org/access18 -->
<g id="node2" class="node"><title>http://example.org/access18</title>
<g id="a_node2"><a xlink:href="http://example.org/access18" xlink:title="access18">
<polygon fill="#fafafa" stroke="#f0f0f0" points="322.142,-126 254.142,-126 254.142,-90 322.142,-90 322.142,-126"/>
<text text-anchor="middle" x="288.142" y="-104.3" font-family="Times New Roman,serif" font-size="14.00" fill="#f0f0f0">access18</text>
</a>
</g>
</g>
<!-- http://example.org/disti@j#2&#45;&gt;http://example.org/access18 -->
<g id="edge7" class="edge"><title>http://example.org/disti@j#2&#45;&gt;http://example.org/access18</title>
<path fill="none" stroke="#f0f0f0" d="M265.541,-35.9673C269.505,-48.4262 274.972,-65.6063 279.536,-79.9497"/>
<polygon fill="#f0f0f0" stroke="#f0f0f0" points="276.297,-81.3165 282.665,-89.7845 282.968,-79.194 276.297,-81.3165"/>
<text text-anchor="middle" x="283.642" y="-65.6" font-family="Times New Roman,serif" font-size="8.00" fill="#f0f0f0">gen</text>
<text text-anchor="middle" x="283.642" y="-56.6" font-family="Times New Roman,serif" font-size="8.00" fill="#f0f0f0">36</text>
</g>
<!-- bn0 -->
<g id="node3" class="node"><title>bn0</title>
<ellipse fill="#f0f0f0" stroke="#f0f0f0" cx="232.142" cy="-108" rx="1.8" ry="1.8"/>
</g>
<!-- http://example.org/disti@j#2&#45;&gt;bn0 -->
<g id="edge1" class="edge"><title>http://example.org/disti@j#2&#45;&gt;bn0</title>
<path fill="none" stroke="#f0f0f0" d="M246.889,-35.5616C243.11,-41.1195 239.407,-47.5514 237.142,-54 230.283,-73.5332 231.599,-99.4614 232.036,-105.638"/>
<text text-anchor="middle" x="250.642" y="-65.6" font-family="Times New Roman,serif" font-size="8.00" fill="#f0f0f0">der ac&#45;r</text>
<text text-anchor="middle" x="250.642" y="-56.6" font-family="Times New Roman,serif" font-size="8.00" fill="#f0f0f0">36</text>
</g>
<!-- http://example.org/disti#2 -->
<g id="node4" class="node"><title>http://example.org/disti#2</title>
<ellipse fill="none" stroke="black" cx="291.142" cy="-198" rx="102.882" ry="18"/>
<text text-anchor="middle" x="291.142" y="-194.3" font-family="Times New Roman,serif" font-size="14.00">http://example.org/disti#2</text>
</g>
<!-- http://example.org/access18&#45;&gt;http://example.org/disti#2 -->
<g id="edge4" class="edge"><title>http://example.org/access18&#45;&gt;http://example.org/disti#2</title>
<path fill="none" stroke="#f0f0f0" d="M288.735,-126.386C289.157,-138.76 289.732,-155.631 290.214,-169.78"/>
<polygon fill="#f0f0f0" stroke="#f0f0f0" points="286.722,-170.075 290.561,-179.95 293.718,-169.836 286.722,-170.075"/>
<text text-anchor="middle" x="301.974" y="-131.539" font-family="Times New Roman,serif" font-size="8.00" fill="#f0f0f0">use</text>
</g>
<!-- http://example.org/m -->
<g id="node5" class="node"><title>http://example.org/m</title>
<ellipse fill="none" stroke="black" cx="85.1424" cy="-198" rx="85.2851" ry="18"/>
<text text-anchor="middle" x="85.1424" y="-194.3" font-family="Times New Roman,serif" font-size="14.00">http://example.org/m</text>
</g>
<!-- http://example.org/access18&#45;&gt;http://example.org/m -->
<g id="edge6" class="edge"><title>http://example.org/access18&#45;&gt;http://example.org/m</title>
<path fill="none" stroke="#f0f0f0" d="M258.235,-126.237C238.438,-137.26 211.693,-151.42 187.142,-162 172.474,-168.321 156.255,-174.316 141.147,-179.501"/>
<polygon fill="#f0f0f0" stroke="#f0f0f0" points="139.764,-176.273 131.407,-182.786 142.001,-182.906 139.764,-176.273"/>
<text text-anchor="middle" x="229.642" y="-155.6" font-family="Times New Roman,serif" font-size="8.00" fill="#f0f0f0">use</text>
<text text-anchor="middle" x="229.642" y="-146.6" font-family="Times New Roman,serif" font-size="8.00" fill="#f0f0f0">36</text>
</g>
<!-- http://example.org/j#5 -->
<g id="node6" class="node"><title>http://example.org/j#5</title>
<ellipse fill="none" stroke="black" cx="501.142" cy="-198" rx="89.8845" ry="18"/>
<text text-anchor="middle" x="501.142" y="-194.3" font-family="Times New Roman,serif" font-size="14.00">http://example.org/j#5</text>
</g>
<!-- http://example.org/access18&#45;&gt;http://example.org/j#5 -->
<g id="edge5" class="edge"><title>http://example.org/access18&#45;&gt;http://example.org/j#5</title>
<path fill="none" stroke="#f0f0f0" d="M322.365,-123.139C358.183,-137.937 414.653,-161.267 454.529,-177.742"/>
<polygon fill="#f0f0f0" stroke="#f0f0f0" points="453.201,-180.98 463.78,-181.564 455.874,-174.511 453.201,-180.98"/>
<text text-anchor="middle" x="334.257" y="-112.096" font-family="Times New Roman,serif" font-size="8.00" fill="#f0f0f0">use</text>
</g>
<!-- bn0&#45;&gt;http://example.org/disti#2 -->
<g id="edge2" class="edge"><title>bn0&#45;&gt;http://example.org/disti#2</title>
<path fill="none" stroke="#f0f0f0" stroke-dasharray="5,2" d="M232.168,-109.824C232.362,-115.018 233.969,-143.58 246.142,-162 249.002,-166.327 252.577,-170.349 256.454,-174.01"/>
<polygon fill="#f0f0f0" stroke="#f0f0f0" points="254.293,-176.767 264.174,-180.59 258.834,-171.44 254.293,-176.767"/>
</g>
<!-- bn0&#45;&gt;http://example.org/m -->
<g id="edge3" class="edge"><title>bn0&#45;&gt;http://example.org/m</title>
<path fill="none" stroke="#f0f0f0" d="M231.204,-109.562C222.906,-114.529 161.449,-151.32 120.941,-175.569"/>
<polygon fill="#f0f0f0" stroke="#f0f0f0" points="118.924,-172.698 112.142,-180.837 122.52,-178.704 118.924,-172.698"/>
<text text-anchor="middle" x="177.642" y="-151.1" font-family="Times New Roman,serif" font-size="8.00" fill="#f0f0f0">[0]</text>
</g>
</g>
</svg>
