<?xml version="1.0" encoding="UTF-8" standalone="no"?>
<!DOCTYPE svg PUBLIC "-//W3C//DTD SVG 1.1//EN"
 "http://www.w3.org/Graphics/SVG/1.1/DTD/svg11.dtd">
<!-- Generated by graphviz version 2.38.0 (20140413.2041)
 -->
<!-- Title: PROV Pages: 1 -->
<svg width="599pt" height="224pt"
 viewBox="0.00 0.00 598.83 224.00" xmlns="http://www.w3.org/2000/svg" xmlns:xlink="http://www.w3.org/1999/xlink">
<g id="graph0" class="graph" transform="scale(1 1) rotate(0) translate(4 220)">
<title>PROV</title>
<polygon fill="white" stroke="none" points="-4,4 -4,-220 594.834,-220 594.834,4 -4,4"/>
<!-- http://example.org/disti_aj#2 -->
<g id="node1" class="node"><title>http://example.org/disti_aj#2</title>
<g id="a_node1"><a xlink:href="http://example.org/disti_aj#2" xlink:title="disti_aj#2">
<ellipse fill="#fafafa" stroke="#f0f0f0" cx="207.142" cy="-18" rx="46.2923" ry="18"/>
<text text-anchor="middle" x="207.142" y="-14.3" font-family="Times New Roman,serif" font-size="14.00" fill="#f0f0f0">disti_aj#2</text>
</a>
</g>
</g>
<!-- http://example.org/access18 -->
<g id="node2" class="node"><title>http://example.org/access18</title>
<g id="a_node2"><a xlink:href="http://example.org/access18" xlink:title="access18">
<polygon fill="#fafafa" stroke="#f0f0f0" points="321.142,-126 253.142,-126 253.142,-90 321.142,-90 321.142,-126"/>
<text text-anchor="middle" x="287.142" y="-104.3" font-family="Times New Roman,serif" font-size="14.00" fill="#f0f0f0">access18</text>
</a>
</g>
</g>
<!-- http://example.org/disti_aj#2&#45;&gt;http://example.org/access18 -->
<g id="edge7" class="edge"><title>http://example.org/disti_aj#2&#45;&gt;http://example.org/access18</title>
<path fill="none" stroke="#f0f0f0" d="M229.987,-33.9359C237.828,-39.6724 246.336,-46.626 253.142,-54 260.594,-62.0733 267.435,-71.9761 272.996,-81.0276"/>
<polygon fill="#f0f0f0" stroke="#f0f0f0" points="270.013,-82.8589 278.106,-89.6961 276.043,-79.3041 270.013,-82.8589"/>
<text text-anchor="middle" x="321.642" y="-65.6" font-family="Times New Roman,serif" font-size="8.00" fill="#f0f0f0">gen</text>
<text text-anchor="middle" x="321.642" y="-56.6" font-family="Times New Roman,serif" font-size="8.00" fill="#f0f0f0">2018&#45;03&#45;19T11:45:43.377431</text>
</g>
<!-- bn0 -->
<g id="node3" class="node"><title>bn0</title>
<ellipse fill="#f0f0f0" stroke="#f0f0f0" cx="134.142" cy="-108" rx="1.8" ry="1.8"/>
</g>
<!-- http://example.org/disti_aj#2&#45;&gt;bn0 -->
<g id="edge1" class="edge"><title>http://example.org/disti_aj#2&#45;&gt;bn0</title>
<path fill="none" stroke="#f0f0f0" d="M173.956,-30.6849C162.903,-36.1429 151.537,-43.7524 144.142,-54 131.43,-71.6161 133.546,-100.831 134.054,-106.154"/>
<text text-anchor="middle" x="198.642" y="-65.6" font-family="Times New Roman,serif" font-size="8.00" fill="#f0f0f0">der ac&#45;r</text>
<text text-anchor="middle" x="198.642" y="-56.6" font-family="Times New Roman,serif" font-size="8.00" fill="#f0f0f0">2018&#45;03&#45;19T11:45:43.377431</text>
</g>
<!-- http://example.org/disti#2 -->
<g id="node4" class="node"><title>http://example.org/disti#2</title>
<ellipse fill="none" stroke="black" cx="291.142" cy="-198" rx="102.882" ry="18"/>
<text text-anchor="middle" x="291.142" y="-194.3" font-family="Times New Roman,serif" font-size="14.00">http://example.org/disti#2</text>
</g>
<!-- http://example.org/access18&#45;&gt;http://example.org/disti#2 -->
<g id="edge4" class="edge"><title>http://example.org/access18&#45;&gt;http://example.org/disti#2</title>
<path fill="none" stroke="#f0f0f0" d="M287.933,-126.386C288.495,-138.76 289.262,-155.631 289.905,-169.78"/>
<polygon fill="#f0f0f0" stroke="#f0f0f0" points="286.417,-170.119 290.367,-179.95 293.41,-169.801 286.417,-170.119"/>
<text text-anchor="middle" x="301.25" y="-131.388" font-family="Times New Roman,serif" font-size="8.00" fill="#f0f0f0">use</text>
</g>
<!-- http://example.org/m -->
<g id="node5" class="node"><title>http://example.org/m</title>
<ellipse fill="none" stroke="black" cx="85.1424" cy="-198" rx="85.2851" ry="18"/>
<text text-anchor="middle" x="85.1424" y="-194.3" font-family="Times New Roman,serif" font-size="14.00">http://example.org/m</text>
</g>
<!-- http://example.org/access18&#45;&gt;http://example.org/m -->
<g id="edge6" class="edge"><title>http://example.org/access18&#45;&gt;http://example.org/m</title>
<path fill="none" stroke="#f0f0f0" d="M252.911,-117.671C230.593,-123.836 201.09,-132.966 176.142,-144 156.391,-152.736 135.493,-164.694 118.71,-175.041"/>
<polygon fill="#f0f0f0" stroke="#f0f0f0" points="116.462,-172.319 109.844,-180.593 120.177,-178.252 116.462,-172.319"/>
<text text-anchor="middle" x="230.642" y="-155.6" font-family="Times New Roman,serif" font-size="8.00" fill="#f0f0f0">use</text>
<text text-anchor="middle" x="230.642" y="-146.6" font-family="Times New Roman,serif" font-size="8.00" fill="#f0f0f0">2018&#45;03&#45;19T11:45:43.377431</text>
</g>
<!-- http://example.org/j#5 -->
<g id="node6" class="node"><title>http://example.org/j#5</title>
<ellipse fill="none" stroke="black" cx="501.142" cy="-198" rx="89.8845" ry="18"/>
<text text-anchor="middle" x="501.142" y="-194.3" font-family="Times New Roman,serif" font-size="14.00">http://example.org/j#5</text>
</g>
<!-- http://example.org/access18&#45;&gt;http://example.org/j#5 -->
<g id="edge5" class="edge"><title>http://example.org/access18&#45;&gt;http://example.org/j#5</title>
<path fill="none" stroke="#f0f0f0" d="M321.525,-123.139C357.512,-137.937 414.247,-161.267 454.31,-177.742"/>
<polygon fill="#f0f0f0" stroke="#f0f0f0" points="453.025,-180.998 463.604,-181.564 455.687,-174.524 453.025,-180.998"/>
<text text-anchor="middle" x="333.402" y="-112.077" font-family="Times New Roman,serif" font-size="8.00" fill="#f0f0f0">use</text>
</g>
<!-- bn0&#45;&gt;http://example.org/disti#2 -->
<g id="edge2" class="edge"><title>bn0&#45;&gt;http://example.org/disti#2</title>
<path fill="none" stroke="#f0f0f0" stroke-dasharray="5,2" d="M134.073,-109.902C133.691,-115.571 132.388,-146.53 148.142,-162 157.118,-170.814 180.333,-178.024 205.51,-183.561"/>
<polygon fill="#f0f0f0" stroke="#f0f0f0" points="205.107,-187.052 215.612,-185.677 206.542,-180.201 205.107,-187.052"/>
</g>
<!-- bn0&#45;&gt;http://example.org/m -->
<g id="edge3" class="edge"><title>bn0&#45;&gt;http://example.org/m</title>
<path fill="none" stroke="#f0f0f0" d="M133.46,-109.825C130.371,-113.58 117.493,-129.507 109.142,-144 104.306,-152.394 99.7251,-161.937 95.8868,-170.59"/>
<polygon fill="#f0f0f0" stroke="#f0f0f0" points="92.6301,-169.304 91.8949,-179.873 99.0607,-172.069 92.6301,-169.304"/>
<text text-anchor="middle" x="114.642" y="-151.1" font-family="Times New Roman,serif" font-size="8.00" fill="#f0f0f0">[0]</text>
</g>
</g>
</svg>
