<?xml version="1.0" encoding="UTF-8" standalone="no"?>
<!DOCTYPE svg PUBLIC "-//W3C//DTD SVG 1.1//EN"
 "http://www.w3.org/Graphics/SVG/1.1/DTD/svg11.dtd">
<!-- Generated by graphviz version 2.38.0 (20140413.2041)
 -->
<!-- Title: PROV Pages: 1 -->
<svg width="604pt" height="224pt"
 viewBox="0.00 0.00 604.43 224.00" xmlns="http://www.w3.org/2000/svg" xmlns:xlink="http://www.w3.org/1999/xlink">
<g id="graph0" class="graph" transform="scale(1 1) rotate(0) translate(4 220)">
<title>PROV</title>
<polygon fill="white" stroke="none" points="-4,4 -4,-220 600.434,-220 600.434,4 -4,4"/>
<!-- http://example.org/disti_aj#7 -->
<g id="node1" class="node"><title>http://example.org/disti_aj#7</title>
<g id="a_node1"><a xlink:href="http://example.org/disti_aj#7" xlink:title="disti_aj#7">
<ellipse fill="#fafafa" stroke="#f0f0f0" cx="203.193" cy="-18" rx="46.2923" ry="18"/>
<text text-anchor="middle" x="203.193" y="-14.3" font-family="Times New Roman,serif" font-size="14.00" fill="#f0f0f0">disti_aj#7</text>
</a>
</g>
</g>
<!-- http://example.org/access47 -->
<g id="node2" class="node"><title>http://example.org/access47</title>
<g id="a_node2"><a xlink:href="http://example.org/access47" xlink:title="access47">
<polygon fill="#fafafa" stroke="#f0f0f0" points="317.193,-126 249.193,-126 249.193,-90 317.193,-90 317.193,-126"/>
<text text-anchor="middle" x="283.193" y="-104.3" font-family="Times New Roman,serif" font-size="14.00" fill="#f0f0f0">access47</text>
</a>
</g>
</g>
<!-- http://example.org/disti_aj#7&#45;&gt;http://example.org/access47 -->
<g id="edge7" class="edge"><title>http://example.org/disti_aj#7&#45;&gt;http://example.org/access47</title>
<path fill="none" stroke="#f0f0f0" d="M226.037,-33.9359C233.878,-39.6724 242.386,-46.626 249.193,-54 256.644,-62.0733 263.485,-71.9761 269.047,-81.0276"/>
<polygon fill="#f0f0f0" stroke="#f0f0f0" points="266.063,-82.8589 274.157,-89.6961 272.093,-79.3041 266.063,-82.8589"/>
<text text-anchor="middle" x="317.693" y="-65.6" font-family="Times New Roman,serif" font-size="8.00" fill="#f0f0f0">gen</text>
<text text-anchor="middle" x="317.693" y="-56.6" font-family="Times New Roman,serif" font-size="8.00" fill="#f0f0f0">2018&#45;03&#45;19T11:45:51.615327</text>
</g>
<!-- bn0 -->
<g id="node3" class="node"><title>bn0</title>
<ellipse fill="#f0f0f0" stroke="#f0f0f0" cx="130.193" cy="-108" rx="1.8" ry="1.8"/>
</g>
<!-- http://example.org/disti_aj#7&#45;&gt;bn0 -->
<g id="edge1" class="edge"><title>http://example.org/disti_aj#7&#45;&gt;bn0</title>
<path fill="none" stroke="#f0f0f0" d="M170.006,-30.6849C158.954,-36.1429 147.588,-43.7524 140.193,-54 127.48,-71.6161 129.596,-100.831 130.105,-106.154"/>
<text text-anchor="middle" x="194.693" y="-65.6" font-family="Times New Roman,serif" font-size="8.00" fill="#f0f0f0">der ac&#45;r</text>
<text text-anchor="middle" x="194.693" y="-56.6" font-family="Times New Roman,serif" font-size="8.00" fill="#f0f0f0">2018&#45;03&#45;19T11:45:51.615327</text>
</g>
<!-- http://example.org/disti#5 -->
<g id="node4" class="node"><title>http://example.org/disti#5</title>
<ellipse fill="none" stroke="black" cx="287.193" cy="-198" rx="102.882" ry="18"/>
<text text-anchor="middle" x="287.193" y="-194.3" font-family="Times New Roman,serif" font-size="14.00">http://example.org/disti#5</text>
</g>
<!-- http://example.org/access47&#45;&gt;http://example.org/disti#5 -->
<g id="edge4" class="edge"><title>http://example.org/access47&#45;&gt;http://example.org/disti#5</title>
<path fill="none" stroke="#f0f0f0" d="M283.983,-126.386C284.545,-138.76 285.312,-155.631 285.955,-169.78"/>
<polygon fill="#f0f0f0" stroke="#f0f0f0" points="282.467,-170.119 286.418,-179.95 289.46,-169.801 282.467,-170.119"/>
<text text-anchor="middle" x="297.3" y="-131.388" font-family="Times New Roman,serif" font-size="8.00" fill="#f0f0f0">use</text>
</g>
<!-- http://example.org/1 -->
<g id="node5" class="node"><title>http://example.org/1</title>
<ellipse fill="none" stroke="black" cx="83.1926" cy="-198" rx="83.3857" ry="18"/>
<text text-anchor="middle" x="83.1926" y="-194.3" font-family="Times New Roman,serif" font-size="14.00">http://example.org/1</text>
</g>
<!-- http://example.org/access47&#45;&gt;http://example.org/1 -->
<g id="edge6" class="edge"><title>http://example.org/access47&#45;&gt;http://example.org/1</title>
<path fill="none" stroke="#f0f0f0" d="M248.925,-117.59C226.593,-123.722 197.086,-132.845 172.193,-144 152.807,-152.687 132.362,-164.642 115.963,-174.999"/>
<polygon fill="#f0f0f0" stroke="#f0f0f0" points="113.827,-172.211 107.301,-180.557 117.607,-178.102 113.827,-172.211"/>
<text text-anchor="middle" x="226.693" y="-155.6" font-family="Times New Roman,serif" font-size="8.00" fill="#f0f0f0">use</text>
<text text-anchor="middle" x="226.693" y="-146.6" font-family="Times New Roman,serif" font-size="8.00" fill="#f0f0f0">2018&#45;03&#45;19T11:45:51.615327</text>
</g>
<!-- http://example.org/j#14 -->
<g id="node6" class="node"><title>http://example.org/j#14</title>
<ellipse fill="none" stroke="black" cx="502.193" cy="-198" rx="94.4839" ry="18"/>
<text text-anchor="middle" x="502.193" y="-194.3" font-family="Times New Roman,serif" font-size="14.00">http://example.org/j#14</text>
</g>
<!-- http://example.org/access47&#45;&gt;http://example.org/j#14 -->
<g id="edge5" class="edge"><title>http://example.org/access47&#45;&gt;http://example.org/j#14</title>
<path fill="none" stroke="#f0f0f0" d="M317.411,-122.75C354.13,-137.505 412.738,-161.055 454.088,-177.67"/>
<polygon fill="#f0f0f0" stroke="#f0f0f0" points="452.834,-180.938 463.418,-181.419 455.444,-174.443 452.834,-180.938"/>
<text text-anchor="middle" x="329.214" y="-111.593" font-family="Times New Roman,serif" font-size="8.00" fill="#f0f0f0">use</text>
</g>
<!-- bn0&#45;&gt;http://example.org/disti#5 -->
<g id="edge2" class="edge"><title>bn0&#45;&gt;http://example.org/disti#5</title>
<path fill="none" stroke="#f0f0f0" stroke-dasharray="5,2" d="M130.123,-109.902C129.741,-115.571 128.439,-146.53 144.193,-162 153.168,-170.814 176.383,-178.024 201.561,-183.561"/>
<polygon fill="#f0f0f0" stroke="#f0f0f0" points="201.157,-187.052 211.662,-185.677 202.592,-180.201 201.157,-187.052"/>
</g>
<!-- bn0&#45;&gt;http://example.org/1 -->
<g id="edge3" class="edge"><title>bn0&#45;&gt;http://example.org/1</title>
<path fill="none" stroke="#f0f0f0" d="M129.499,-109.818C126.363,-113.547 113.312,-129.376 105.193,-144 100.604,-152.264 96.3953,-161.682 92.9146,-170.263"/>
<polygon fill="#f0f0f0" stroke="#f0f0f0" points="89.5548,-169.246 89.184,-179.834 96.0768,-171.788 89.5548,-169.246"/>
<text text-anchor="middle" x="110.693" y="-151.1" font-family="Times New Roman,serif" font-size="8.00" fill="#f0f0f0">[2]</text>
</g>
</g>
</svg>
