<?xml version="1.0" encoding="UTF-8" standalone="no"?>
<!DOCTYPE svg PUBLIC "-//W3C//DTD SVG 1.1//EN"
 "http://www.w3.org/Graphics/SVG/1.1/DTD/svg11.dtd">
<!-- Generated by graphviz version 2.38.0 (20140413.2041)
 -->
<!-- Title: PROV Pages: 1 -->
<svg width="866pt" height="336pt"
 viewBox="0.00 0.00 865.88 336.00" xmlns="http://www.w3.org/2000/svg" xmlns:xlink="http://www.w3.org/1999/xlink">
<g id="graph0" class="graph" transform="scale(1 1) rotate(0) translate(4 332)">
<title>PROV</title>
<polygon fill="white" stroke="none" points="-4,4 -4,-332 861.884,-332 861.884,4 -4,4"/>
<!-- http://example.org/disti@j#3 -->
<g id="node1" class="node"><title>http://example.org/disti@j#3</title>
<g id="a_node1"><a xlink:href="http://example.org/disti@j#3" xlink:title="disti@j#3">
<ellipse fill="#fffc87" stroke="#808080" cx="586.692" cy="-130" rx="45.4919" ry="18"/>
<text text-anchor="middle" x="586.692" y="-126.3" font-family="Times New Roman,serif" font-size="14.00">disti@j#3</text>
</a>
</g>
</g>
<!-- http://example.org/assign12 -->
<g id="node4" class="node"><title>http://example.org/assign12</title>
<g id="a_node4"><a xlink:href="http://example.org/assign12" xlink:title="assign12">
<polygon fill="#9fb1fc" stroke="#0000ff" points="544.192,-238 479.192,-238 479.192,-202 544.192,-202 544.192,-238"/>
<text text-anchor="middle" x="511.692" y="-216.3" font-family="Times New Roman,serif" font-size="14.00">assign12</text>
</a>
</g>
</g>
<!-- http://example.org/disti@j#3&#45;&gt;http://example.org/assign12 -->
<g id="edge11" class="edge"><title>http://example.org/disti@j#3&#45;&gt;http://example.org/assign12</title>
<path fill="none" stroke="black" d="M572.585,-147.552C561.415,-160.659 545.633,-179.176 532.935,-194.074"/>
<polygon fill="black" stroke="black" points="530.07,-192.041 526.247,-201.922 535.398,-196.581 530.07,-192.041"/>
<text text-anchor="middle" x="563.192" y="-177.6" font-family="Times New Roman,serif" font-size="8.00">gen</text>
<text text-anchor="middle" x="563.192" y="-168.6" font-family="Times New Roman,serif" font-size="8.00">38</text>
</g>
<!-- bn0 -->
<g id="node6" class="node"><title>bn0</title>
<ellipse fill="black" stroke="black" cx="586.692" cy="-220" rx="1.8" ry="1.8"/>
</g>
<!-- http://example.org/disti@j#3&#45;&gt;bn0 -->
<g id="edge4" class="edge"><title>http://example.org/disti@j#3&#45;&gt;bn0</title>
<path fill="none" stroke="black" d="M586.692,-148.386C586.692,-171.628 586.692,-210.738 586.692,-217.867"/>
<text text-anchor="middle" x="601.192" y="-177.6" font-family="Times New Roman,serif" font-size="8.00">der ac&#45;w</text>
<text text-anchor="middle" x="601.192" y="-168.6" font-family="Times New Roman,serif" font-size="8.00">38</text>
</g>
<!-- &#45;attrs0 -->
<g id="node2" class="node"><title>&#45;attrs0</title>
<polygon fill="none" stroke="gray" points="545.192,-49 476.192,-49 476.192,-0 551.192,-0 551.192,-43 545.192,-49"/>
<polyline fill="none" stroke="gray" points="545.192,-49 545.192,-43 "/>
<polyline fill="none" stroke="gray" points="551.192,-43 545.192,-43 "/>
<text text-anchor="start" x="486.692" y="-34.5" font-family="Times New Roman,serif" font-size="10.00">value:</text>
<text text-anchor="start" x="513.692" y="-34.5" font-family="Times New Roman,serif" font-size="10.00">3</text>
<text text-anchor="start" x="486.692" y="-21.5" font-family="Times New Roman,serif" font-size="10.00">type:</text>
<text text-anchor="start" x="513.692" y="-21.5" font-family="Times New Roman,serif" font-size="10.00">access</text>
<text text-anchor="start" x="486.692" y="-8.5" font-family="Times New Roman,serif" font-size="10.00">label:</text>
<text text-anchor="start" x="513.692" y="-8.5" font-family="Times New Roman,serif" font-size="10.00">disti[j]</text>
</g>
<!-- &#45;attrs0&#45;&gt;http://example.org/disti@j#3 -->
<g id="edge1" class="edge"><title>&#45;attrs0&#45;&gt;http://example.org/disti@j#3</title>
<path fill="none" stroke="gray" stroke-dasharray="5,2" d="M530.44,-49.245C544.078,-68.5817 562.982,-95.3834 575.025,-112.459"/>
</g>
<!-- http://example.org/list -->
<g id="node3" class="node"><title>http://example.org/list</title>
<ellipse fill="none" stroke="black" cx="658.692" cy="-24.5" rx="89.0842" ry="18"/>
<text text-anchor="middle" x="658.692" y="-20.8" font-family="Times New Roman,serif" font-size="14.00">http://example.org/list</text>
</g>
<!-- http://example.org/list&#45;&gt;http://example.org/disti@j#3 -->
<g id="edge2" class="edge"><title>http://example.org/list&#45;&gt;http://example.org/disti@j#3</title>
<path fill="none" stroke="black" d="M646.803,-42.5909C635.095,-59.42 617.092,-85.2996 603.839,-104.352"/>
<polygon fill="black" stroke="black" points="600.961,-102.36 598.123,-112.568 606.707,-106.358 600.961,-102.36"/>
<text text-anchor="middle" x="642.192" y="-87.6" font-family="Times New Roman,serif" font-size="8.00">der&#45;put</text>
<text text-anchor="middle" x="642.192" y="-78.6" font-family="Times New Roman,serif" font-size="8.00">[1]</text>
<text text-anchor="middle" x="642.192" y="-69.6" font-family="Times New Roman,serif" font-size="8.00">38</text>
</g>
<!-- http://example.org/disti#2 -->
<g id="node7" class="node"><title>http://example.org/disti#2</title>
<ellipse fill="none" stroke="black" cx="544.692" cy="-310" rx="102.882" ry="18"/>
<text text-anchor="middle" x="544.692" y="-306.3" font-family="Times New Roman,serif" font-size="14.00">http://example.org/disti#2</text>
</g>
<!-- http://example.org/assign12&#45;&gt;http://example.org/disti#2 -->
<g id="edge7" class="edge"><title>http://example.org/assign12&#45;&gt;http://example.org/disti#2</title>
<path fill="none" stroke="black" d="M513.199,-238.192C514.548,-248.807 517.062,-262.54 521.692,-274 522.945,-277.101 524.49,-280.218 526.182,-283.244"/>
<polygon fill="black" stroke="black" points="523.323,-285.276 531.553,-291.948 529.28,-281.6 523.323,-285.276"/>
<text text-anchor="middle" x="527.192" y="-267.6" font-family="Times New Roman,serif" font-size="8.00">use</text>
<text text-anchor="middle" x="527.192" y="-258.6" font-family="Times New Roman,serif" font-size="8.00">37</text>
</g>
<!-- http://example.org/ikj#2 -->
<g id="node8" class="node"><title>http://example.org/ikj#2</title>
<ellipse fill="none" stroke="black" cx="761.692" cy="-310" rx="96.3833" ry="18"/>
<text text-anchor="middle" x="761.692" y="-306.3" font-family="Times New Roman,serif" font-size="14.00">http://example.org/ikj#2</text>
</g>
<!-- http://example.org/assign12&#45;&gt;http://example.org/ikj#2 -->
<g id="edge10" class="edge"><title>http://example.org/assign12&#45;&gt;http://example.org/ikj#2</title>
<path fill="none" stroke="black" d="M544.219,-233.465C573.119,-244.442 616.567,-260.705 654.692,-274 671.045,-279.703 688.897,-285.651 705.25,-290.991"/>
<polygon fill="black" stroke="black" points="704.62,-294.467 715.213,-294.23 706.785,-287.81 704.62,-294.467"/>
<text text-anchor="middle" x="555.836" y="-222.075" font-family="Times New Roman,serif" font-size="8.00">use</text>
</g>
<!-- http://example.org/j#5 -->
<g id="node9" class="node"><title>http://example.org/j#5</title>
<ellipse fill="none" stroke="black" cx="89.692" cy="-310" rx="89.8845" ry="18"/>
<text text-anchor="middle" x="89.692" y="-306.3" font-family="Times New Roman,serif" font-size="14.00">http://example.org/j#5</text>
</g>
<!-- http://example.org/assign12&#45;&gt;http://example.org/j#5 -->
<g id="edge8" class="edge"><title>http://example.org/assign12&#45;&gt;http://example.org/j#5</title>
<path fill="none" stroke="black" d="M478.93,-227.832C410.637,-242.073 251.764,-275.203 159.488,-294.445"/>
<polygon fill="black" stroke="black" points="158.748,-291.024 149.673,-296.492 160.177,-297.877 158.748,-291.024"/>
<text text-anchor="middle" x="474.239" y="-240.18" font-family="Times New Roman,serif" font-size="8.00">use</text>
</g>
<!-- http://example.org/disti@j#2 -->
<g id="node10" class="node"><title>http://example.org/disti@j#2</title>
<ellipse fill="none" stroke="black" cx="310.692" cy="-310" rx="113.18" ry="18"/>
<text text-anchor="middle" x="310.692" y="-306.3" font-family="Times New Roman,serif" font-size="14.00">http://example.org/disti@j#2</text>
</g>
<!-- http://example.org/assign12&#45;&gt;http://example.org/disti@j#2 -->
<g id="edge9" class="edge"><title>http://example.org/assign12&#45;&gt;http://example.org/disti@j#2</title>
<path fill="none" stroke="black" d="M478.951,-235.335C445.724,-249.881 394.002,-272.526 356.672,-288.87"/>
<polygon fill="black" stroke="black" points="355.268,-285.663 347.511,-292.88 358.075,-292.076 355.268,-285.663"/>
<text text-anchor="middle" x="477.29" y="-248.342" font-family="Times New Roman,serif" font-size="8.00">use</text>
</g>
<!-- &#45;attrs1 -->
<g id="node5" class="node"><title>&#45;attrs1</title>
<polygon fill="none" stroke="gray" points="517.692,-148 453.692,-148 453.692,-112 523.692,-112 523.692,-142 517.692,-148"/>
<polyline fill="none" stroke="gray" points="517.692,-148 517.692,-142 "/>
<polyline fill="none" stroke="gray" points="523.692,-142 517.692,-142 "/>
<text text-anchor="start" x="463.692" y="-127" font-family="Times New Roman,serif" font-size="10.00">type:</text>
<text text-anchor="start" x="486.692" y="-127" font-family="Times New Roman,serif" font-size="10.00">assign</text>
</g>
<!-- &#45;attrs1&#45;&gt;http://example.org/assign12 -->
<g id="edge3" class="edge"><title>&#45;attrs1&#45;&gt;http://example.org/assign12</title>
<path fill="none" stroke="gray" stroke-dasharray="5,2" d="M493.236,-148.386C497.295,-163.914 503.204,-186.525 507.236,-201.95"/>
</g>
<!-- bn0&#45;&gt;http://example.org/disti#2 -->
<g id="edge5" class="edge"><title>bn0&#45;&gt;http://example.org/disti#2</title>
<path fill="none" stroke="black" stroke-dasharray="5,2" d="M586.22,-221.988C583.385,-227.93 568.35,-259.43 557.182,-282.831"/>
<polygon fill="black" stroke="black" points="553.976,-281.422 552.827,-291.954 560.293,-284.437 553.976,-281.422"/>
</g>
<!-- bn0&#45;&gt;http://example.org/ikj#2 -->
<g id="edge6" class="edge"><title>bn0&#45;&gt;http://example.org/ikj#2</title>
<path fill="none" stroke="black" d="M587.81,-221.562C597.791,-226.581 672.395,-264.096 720.586,-288.329"/>
<polygon fill="black" stroke="black" points="719.043,-291.471 729.55,-292.837 722.188,-285.218 719.043,-291.471"/>
<text text-anchor="middle" x="696.192" y="-263.1" font-family="Times New Roman,serif" font-size="8.00">[1]</text>
</g>
</g>
</svg>
