<?xml version="1.0" encoding="UTF-8" standalone="no"?>
<!DOCTYPE svg PUBLIC "-//W3C//DTD SVG 1.1//EN"
 "http://www.w3.org/Graphics/SVG/1.1/DTD/svg11.dtd">
<!-- Generated by graphviz version 2.38.0 (20140413.2041)
 -->
<!-- Title: PROV Pages: 1 -->
<svg width="866pt" height="336pt"
 viewBox="0.00 0.00 865.88 336.00" xmlns="http://www.w3.org/2000/svg" xmlns:xlink="http://www.w3.org/1999/xlink">
<g id="graph0" class="graph" transform="scale(1 1) rotate(0) translate(4 332)">
<title>PROV</title>
<polygon fill="white" stroke="none" points="-4,4 -4,-332 861.884,-332 861.884,4 -4,4"/>
<!-- http://example.org/disti_aj#5 -->
<g id="node1" class="node"><title>http://example.org/disti_aj#5</title>
<g id="a_node1"><a xlink:href="http://example.org/disti_aj#5" xlink:title="disti_aj#5">
<ellipse fill="#fffc87" stroke="#808080" cx="561.692" cy="-130" rx="46.2923" ry="18"/>
<text text-anchor="middle" x="561.692" y="-126.3" font-family="Times New Roman,serif" font-size="14.00">disti_aj#5</text>
</a>
</g>
</g>
<!-- http://example.org/assign16 -->
<g id="node4" class="node"><title>http://example.org/assign16</title>
<g id="a_node4"><a xlink:href="http://example.org/assign16" xlink:title="assign16">
<polygon fill="#9fb1fc" stroke="#0000ff" points="470.192,-238 405.192,-238 405.192,-202 470.192,-202 470.192,-238"/>
<text text-anchor="middle" x="437.692" y="-216.3" font-family="Times New Roman,serif" font-size="14.00">assign16</text>
</a>
</g>
</g>
<!-- http://example.org/disti_aj#5&#45;&gt;http://example.org/assign16 -->
<g id="edge11" class="edge"><title>http://example.org/disti_aj#5&#45;&gt;http://example.org/assign16</title>
<path fill="none" stroke="black" d="M520.315,-137.972C500.931,-143.013 478.651,-151.576 462.692,-166 454.962,-172.987 449.415,-182.867 445.543,-192.206"/>
<polygon fill="black" stroke="black" points="442.255,-191.006 442.091,-201.6 448.825,-193.42 442.255,-191.006"/>
<text text-anchor="middle" x="517.192" y="-177.6" font-family="Times New Roman,serif" font-size="8.00">gen</text>
<text text-anchor="middle" x="517.192" y="-168.6" font-family="Times New Roman,serif" font-size="8.00">2018&#45;03&#45;19T11:45:46.798524</text>
</g>
<!-- bn0 -->
<g id="node6" class="node"><title>bn0</title>
<ellipse fill="black" stroke="black" cx="594.692" cy="-220" rx="1.8" ry="1.8"/>
</g>
<!-- http://example.org/disti_aj#5&#45;&gt;bn0 -->
<g id="edge4" class="edge"><title>http://example.org/disti_aj#5&#45;&gt;bn0</title>
<path fill="none" stroke="black" d="M568.055,-147.967C576.895,-171.541 592.074,-212.018 594.392,-218.199"/>
<text text-anchor="middle" x="636.192" y="-177.6" font-family="Times New Roman,serif" font-size="8.00">der ac&#45;w</text>
<text text-anchor="middle" x="636.192" y="-168.6" font-family="Times New Roman,serif" font-size="8.00">2018&#45;03&#45;19T11:45:46.798524</text>
</g>
<!-- &#45;attrs0 -->
<g id="node2" class="node"><title>&#45;attrs0</title>
<polygon fill="none" stroke="gray" points="512.192,-49 443.192,-49 443.192,-0 518.192,-0 518.192,-43 512.192,-49"/>
<polyline fill="none" stroke="gray" points="512.192,-49 512.192,-43 "/>
<polyline fill="none" stroke="gray" points="518.192,-43 512.192,-43 "/>
<text text-anchor="start" x="453.692" y="-34.5" font-family="Times New Roman,serif" font-size="10.00">value:</text>
<text text-anchor="start" x="480.692" y="-34.5" font-family="Times New Roman,serif" font-size="10.00">3</text>
<text text-anchor="start" x="453.692" y="-21.5" font-family="Times New Roman,serif" font-size="10.00">type:</text>
<text text-anchor="start" x="480.692" y="-21.5" font-family="Times New Roman,serif" font-size="10.00">access</text>
<text text-anchor="start" x="453.692" y="-8.5" font-family="Times New Roman,serif" font-size="10.00">label:</text>
<text text-anchor="start" x="480.692" y="-8.5" font-family="Times New Roman,serif" font-size="10.00">disti[j]</text>
</g>
<!-- &#45;attrs0&#45;&gt;http://example.org/disti_aj#5 -->
<g id="edge1" class="edge"><title>&#45;attrs0&#45;&gt;http://example.org/disti_aj#5</title>
<path fill="none" stroke="gray" stroke-dasharray="5,2" d="M499.275,-49.245C514.408,-68.5817 535.383,-95.3834 548.747,-112.459"/>
</g>
<!-- http://example.org/matrix0 -->
<g id="node3" class="node"><title>http://example.org/matrix0</title>
<ellipse fill="none" stroke="black" cx="641.692" cy="-24.5" rx="105.082" ry="18"/>
<text text-anchor="middle" x="641.692" y="-20.8" font-family="Times New Roman,serif" font-size="14.00">http://example.org/matrix0</text>
</g>
<!-- http://example.org/matrix0&#45;&gt;http://example.org/disti_aj#5 -->
<g id="edge2" class="edge"><title>http://example.org/matrix0&#45;&gt;http://example.org/disti_aj#5</title>
<path fill="none" stroke="black" d="M628.482,-42.5909C615.415,-59.4958 595.29,-85.5329 580.545,-104.609"/>
<polygon fill="black" stroke="black" points="577.74,-102.515 574.393,-112.568 583.278,-106.796 577.74,-102.515"/>
<text text-anchor="middle" x="664.192" y="-87.6" font-family="Times New Roman,serif" font-size="8.00">der&#45;ins</text>
<text text-anchor="middle" x="664.192" y="-78.6" font-family="Times New Roman,serif" font-size="8.00">[2]</text>
<text text-anchor="middle" x="664.192" y="-69.6" font-family="Times New Roman,serif" font-size="8.00">2018&#45;03&#45;19T11:45:46.798524</text>
</g>
<!-- http://example.org/disti#3 -->
<g id="node7" class="node"><title>http://example.org/disti#3</title>
<ellipse fill="none" stroke="black" cx="544.692" cy="-310" rx="102.882" ry="18"/>
<text text-anchor="middle" x="544.692" y="-306.3" font-family="Times New Roman,serif" font-size="14.00">http://example.org/disti#3</text>
</g>
<!-- http://example.org/assign16&#45;&gt;http://example.org/disti#3 -->
<g id="edge7" class="edge"><title>http://example.org/assign16&#45;&gt;http://example.org/disti#3</title>
<path fill="none" stroke="black" d="M434.438,-238.48C433.356,-249.742 434.005,-264.08 441.692,-274 447.702,-281.756 455.515,-287.805 464.152,-292.521"/>
<polygon fill="black" stroke="black" points="462.879,-295.793 473.409,-296.969 465.911,-289.483 462.879,-295.793"/>
<text text-anchor="middle" x="496.192" y="-267.6" font-family="Times New Roman,serif" font-size="8.00">use</text>
<text text-anchor="middle" x="496.192" y="-258.6" font-family="Times New Roman,serif" font-size="8.00">2018&#45;03&#45;19T11:45:46.797523</text>
</g>
<!-- http://example.org/ikj#3 -->
<g id="node8" class="node"><title>http://example.org/ikj#3</title>
<ellipse fill="none" stroke="black" cx="761.692" cy="-310" rx="96.3833" ry="18"/>
<text text-anchor="middle" x="761.692" y="-306.3" font-family="Times New Roman,serif" font-size="14.00">http://example.org/ikj#3</text>
</g>
<!-- http://example.org/assign16&#45;&gt;http://example.org/ikj#3 -->
<g id="edge10" class="edge"><title>http://example.org/assign16&#45;&gt;http://example.org/ikj#3</title>
<path fill="none" stroke="black" d="M470.242,-229.841C523.775,-244.38 631.275,-273.578 699.691,-292.16"/>
<polygon fill="black" stroke="black" points="698.923,-295.578 709.491,-294.822 700.758,-288.823 698.923,-295.578"/>
<text text-anchor="middle" x="480.885" y="-217.37" font-family="Times New Roman,serif" font-size="8.00">use</text>
</g>
<!-- http://example.org/j#9 -->
<g id="node9" class="node"><title>http://example.org/j#9</title>
<ellipse fill="none" stroke="black" cx="89.692" cy="-310" rx="89.8845" ry="18"/>
<text text-anchor="middle" x="89.692" y="-306.3" font-family="Times New Roman,serif" font-size="14.00">http://example.org/j#9</text>
</g>
<!-- http://example.org/assign16&#45;&gt;http://example.org/j#9 -->
<g id="edge8" class="edge"><title>http://example.org/assign16&#45;&gt;http://example.org/j#9</title>
<path fill="none" stroke="black" d="M404.953,-229.279C347.387,-243.836 227.119,-274.248 152.899,-293.017"/>
<polygon fill="black" stroke="black" points="152.028,-289.627 143.191,-295.472 153.744,-296.413 152.028,-289.627"/>
<text text-anchor="middle" x="400.867" y="-241.811" font-family="Times New Roman,serif" font-size="8.00">use</text>
</g>
<!-- http://example.org/disti_aj#4 -->
<g id="node10" class="node"><title>http://example.org/disti_aj#4</title>
<ellipse fill="none" stroke="black" cx="310.692" cy="-310" rx="113.98" ry="18"/>
<text text-anchor="middle" x="310.692" y="-306.3" font-family="Times New Roman,serif" font-size="14.00">http://example.org/disti_aj#4</text>
</g>
<!-- http://example.org/assign16&#45;&gt;http://example.org/disti_aj#4 -->
<g id="edge9" class="edge"><title>http://example.org/assign16&#45;&gt;http://example.org/disti_aj#4</title>
<path fill="none" stroke="black" d="M412.904,-238.176C393.021,-251.953 364.95,-271.404 343.255,-286.437"/>
<polygon fill="black" stroke="black" points="341.213,-283.594 334.986,-292.166 345.199,-289.347 341.213,-283.594"/>
<text text-anchor="middle" x="414.138" y="-251.225" font-family="Times New Roman,serif" font-size="8.00">use</text>
</g>
<!-- &#45;attrs1 -->
<g id="node5" class="node"><title>&#45;attrs1</title>
<polygon fill="none" stroke="gray" points="458.692,-148 394.692,-148 394.692,-112 464.692,-112 464.692,-142 458.692,-148"/>
<polyline fill="none" stroke="gray" points="458.692,-148 458.692,-142 "/>
<polyline fill="none" stroke="gray" points="464.692,-142 458.692,-142 "/>
<text text-anchor="start" x="404.692" y="-127" font-family="Times New Roman,serif" font-size="10.00">type:</text>
<text text-anchor="start" x="427.692" y="-127" font-family="Times New Roman,serif" font-size="10.00">assign</text>
</g>
<!-- &#45;attrs1&#45;&gt;http://example.org/assign16 -->
<g id="edge3" class="edge"><title>&#45;attrs1&#45;&gt;http://example.org/assign16</title>
<path fill="none" stroke="gray" stroke-dasharray="5,2" d="M431.273,-148.386C432.684,-163.914 434.74,-186.525 436.142,-201.95"/>
</g>
<!-- bn0&#45;&gt;http://example.org/disti#3 -->
<g id="edge5" class="edge"><title>bn0&#45;&gt;http://example.org/disti#3</title>
<path fill="none" stroke="black" stroke-dasharray="5,2" d="M594.131,-221.988C590.74,-227.956 572.697,-259.711 559.384,-283.143"/>
<polygon fill="black" stroke="black" points="556.274,-281.531 554.377,-291.954 562.36,-284.989 556.274,-281.531"/>
</g>
<!-- bn0&#45;&gt;http://example.org/ikj#3 -->
<g id="edge6" class="edge"><title>bn0&#45;&gt;http://example.org/ikj#3</title>
<path fill="none" stroke="black" d="M595.758,-221.562C605.244,-226.56 675.886,-263.785 721.89,-288.026"/>
<polygon fill="black" stroke="black" points="720.541,-291.272 731.019,-292.837 723.804,-285.079 720.541,-291.272"/>
<text text-anchor="middle" x="699.192" y="-263.1" font-family="Times New Roman,serif" font-size="8.00">[2]</text>
</g>
</g>
</svg>
