<?xml version="1.0" encoding="UTF-8" standalone="no"?>
<!DOCTYPE svg PUBLIC "-//W3C//DTD SVG 1.1//EN"
 "http://www.w3.org/Graphics/SVG/1.1/DTD/svg11.dtd">
<!-- Generated by graphviz version 2.38.0 (20140413.2041)
 -->
<!-- Title: PROV Pages: 1 -->
<svg width="875pt" height="340pt"
 viewBox="0.00 0.00 875.43 340.00" xmlns="http://www.w3.org/2000/svg" xmlns:xlink="http://www.w3.org/1999/xlink">
<g id="graph0" class="graph" transform="scale(1 1) rotate(0) translate(4 336)">
<title>PROV</title>
<polygon fill="white" stroke="none" points="-4,4 -4,-336 871.433,-336 871.433,4 -4,4"/>
<!-- http://example.org/disti_aj#9 -->
<g id="node1" class="node"><title>http://example.org/disti_aj#9</title>
<g id="a_node1"><a xlink:href="http://example.org/disti_aj#9" xlink:title="disti_aj#9">
<ellipse fill="#fffc87" stroke="#808080" cx="596.242" cy="-143" rx="46.2923" ry="18"/>
<text text-anchor="middle" x="596.242" y="-139.3" font-family="Times New Roman,serif" font-size="14.00">disti_aj#9</text>
</a>
</g>
</g>
<!-- http://example.org/assign24 -->
<g id="node4" class="node"><title>http://example.org/assign24</title>
<g id="a_node4"><a xlink:href="http://example.org/assign24" xlink:title="assign24">
<polygon fill="#9fb1fc" stroke="#0000ff" points="552.742,-251 487.742,-251 487.742,-215 552.742,-215 552.742,-251"/>
<text text-anchor="middle" x="520.242" y="-229.3" font-family="Times New Roman,serif" font-size="14.00">assign24</text>
</a>
</g>
</g>
<!-- http://example.org/disti_aj#9&#45;&gt;http://example.org/assign24 -->
<g id="edge11" class="edge"><title>http://example.org/disti_aj#9&#45;&gt;http://example.org/assign24</title>
<path fill="none" stroke="black" d="M581.947,-160.552C570.627,-173.659 554.635,-192.176 541.768,-207.074"/>
<polygon fill="black" stroke="black" points="538.878,-205.066 534.991,-214.922 544.176,-209.641 538.878,-205.066"/>
<text text-anchor="middle" x="586.876" y="-172.819" font-family="Times New Roman,serif" font-size="8.00">gen</text>
</g>
<!-- bn0 -->
<g id="node6" class="node"><title>bn0</title>
<ellipse fill="black" stroke="black" cx="596.242" cy="-233" rx="1.8" ry="1.8"/>
</g>
<!-- http://example.org/disti_aj#9&#45;&gt;bn0 -->
<g id="edge4" class="edge"><title>http://example.org/disti_aj#9&#45;&gt;bn0</title>
<path fill="none" stroke="black" d="M596.242,-161.386C596.242,-184.628 596.242,-223.738 596.242,-230.867"/>
<text text-anchor="middle" x="650.742" y="-190.6" font-family="Times New Roman,serif" font-size="8.00">der ac&#45;w</text>
<text text-anchor="middle" x="650.742" y="-181.6" font-family="Times New Roman,serif" font-size="8.00">2018&#45;03&#45;12T13:12:20.161845</text>
</g>
<!-- &#45;attrs0 -->
<g id="node2" class="node"><title>&#45;attrs0</title>
<polygon fill="none" stroke="gray" points="571.742,-62 402.742,-62 402.742,-0 577.742,-0 577.742,-56 571.742,-62"/>
<polyline fill="none" stroke="gray" points="571.742,-62 571.742,-56 "/>
<polyline fill="none" stroke="gray" points="577.742,-56 571.742,-56 "/>
<text text-anchor="start" x="413.242" y="-48" font-family="Times New Roman,serif" font-size="10.00">value:</text>
<text text-anchor="start" x="462.242" y="-48" font-family="Times New Roman,serif" font-size="10.00">4</text>
<text text-anchor="start" x="413.242" y="-35" font-family="Times New Roman,serif" font-size="10.00">type:</text>
<text text-anchor="start" x="462.242" y="-35" font-family="Times New Roman,serif" font-size="10.00">access</text>
<text text-anchor="start" x="413.242" y="-22" font-family="Times New Roman,serif" font-size="10.00">label:</text>
<text text-anchor="start" x="462.242" y="-22" font-family="Times New Roman,serif" font-size="10.00">disti[j]</text>
<text text-anchor="start" x="413.242" y="-9" font-family="Times New Roman,serif" font-size="10.00">checkpoint:</text>
<text text-anchor="start" x="462.242" y="-9" font-family="Times New Roman,serif" font-size="10.00">2018&#45;03&#45;12 13:12:20.161845</text>
</g>
<!-- &#45;attrs0&#45;&gt;http://example.org/disti_aj#9 -->
<g id="edge1" class="edge"><title>&#45;attrs0&#45;&gt;http://example.org/disti_aj#9</title>
<path fill="none" stroke="gray" stroke-dasharray="5,2" d="M519.207,-62.058C539.067,-82.668 564.641,-109.206 580.743,-125.917"/>
</g>
<!-- http://example.org/matrix1 -->
<g id="node3" class="node"><title>http://example.org/matrix1</title>
<ellipse fill="none" stroke="black" cx="701.242" cy="-31" rx="105.082" ry="18"/>
<text text-anchor="middle" x="701.242" y="-27.3" font-family="Times New Roman,serif" font-size="14.00">http://example.org/matrix1</text>
</g>
<!-- http://example.org/matrix1&#45;&gt;http://example.org/disti_aj#9 -->
<g id="edge2" class="edge"><title>http://example.org/matrix1&#45;&gt;http://example.org/disti_aj#9</title>
<path fill="none" stroke="black" d="M684.835,-49.1875C667.037,-67.8333 638.512,-97.7167 618.655,-118.519"/>
<polygon fill="black" stroke="black" points="615.883,-116.355 611.51,-126.005 620.946,-121.188 615.883,-116.355"/>
<text text-anchor="middle" x="709.742" y="-100.6" font-family="Times New Roman,serif" font-size="8.00">der&#45;ins</text>
<text text-anchor="middle" x="709.742" y="-91.6" font-family="Times New Roman,serif" font-size="8.00">[0]</text>
<text text-anchor="middle" x="709.742" y="-82.6" font-family="Times New Roman,serif" font-size="8.00">2018&#45;03&#45;12T13:12:20.161845</text>
</g>
<!-- http://example.org/disti#6 -->
<g id="node7" class="node"><title>http://example.org/disti#6</title>
<ellipse fill="none" stroke="black" cx="554.242" cy="-314" rx="102.882" ry="18"/>
<text text-anchor="middle" x="554.242" y="-310.3" font-family="Times New Roman,serif" font-size="14.00">http://example.org/disti#6</text>
</g>
<!-- http://example.org/assign24&#45;&gt;http://example.org/disti#6 -->
<g id="edge7" class="edge"><title>http://example.org/assign24&#45;&gt;http://example.org/disti#6</title>
<path fill="none" stroke="black" d="M527.619,-251.142C532.075,-261.494 537.845,-274.901 542.874,-286.586"/>
<polygon fill="black" stroke="black" points="539.71,-288.09 546.879,-295.892 546.14,-285.323 539.71,-288.09"/>
<text text-anchor="middle" x="542.516" y="-250.996" font-family="Times New Roman,serif" font-size="8.00">use</text>
</g>
<!-- http://example.org/ikj#6 -->
<g id="node8" class="node"><title>http://example.org/ikj#6</title>
<ellipse fill="none" stroke="black" cx="771.242" cy="-314" rx="96.3833" ry="18"/>
<text text-anchor="middle" x="771.242" y="-310.3" font-family="Times New Roman,serif" font-size="14.00">http://example.org/ikj#6</text>
</g>
<!-- http://example.org/assign24&#45;&gt;http://example.org/ikj#6 -->
<g id="edge10" class="edge"><title>http://example.org/assign24&#45;&gt;http://example.org/ikj#6</title>
<path fill="none" stroke="black" d="M552.798,-244.247C593.711,-257.124 664.605,-279.437 714.511,-295.144"/>
<polygon fill="black" stroke="black" points="713.607,-298.529 724.197,-298.193 715.709,-291.852 713.607,-298.529"/>
<text text-anchor="middle" x="563.852" y="-232.207" font-family="Times New Roman,serif" font-size="8.00">use</text>
</g>
<!-- http://example.org/j#16 -->
<g id="node9" class="node"><title>http://example.org/j#16</title>
<ellipse fill="none" stroke="black" cx="94.2416" cy="-314" rx="94.4839" ry="18"/>
<text text-anchor="middle" x="94.2416" y="-310.3" font-family="Times New Roman,serif" font-size="14.00">http://example.org/j#16</text>
</g>
<!-- http://example.org/assign24&#45;&gt;http://example.org/j#16 -->
<g id="edge8" class="edge"><title>http://example.org/assign24&#45;&gt;http://example.org/j#16</title>
<path fill="none" stroke="black" d="M487.521,-240.068C419.942,-252.6 263.43,-281.625 169.498,-299.044"/>
<polygon fill="black" stroke="black" points="168.68,-295.636 159.486,-300.901 169.957,-302.519 168.68,-295.636"/>
<text text-anchor="middle" x="482.516" y="-252.308" font-family="Times New Roman,serif" font-size="8.00">use</text>
</g>
<!-- http://example.org/disti_aj#8 -->
<g id="node10" class="node"><title>http://example.org/disti_aj#8</title>
<ellipse fill="none" stroke="black" cx="320.242" cy="-314" rx="113.98" ry="18"/>
<text text-anchor="middle" x="320.242" y="-310.3" font-family="Times New Roman,serif" font-size="14.00">http://example.org/disti_aj#8</text>
</g>
<!-- http://example.org/assign24&#45;&gt;http://example.org/disti_aj#8 -->
<g id="edge9" class="edge"><title>http://example.org/assign24&#45;&gt;http://example.org/disti_aj#8</title>
<path fill="none" stroke="black" d="M487.663,-246.869C455.758,-259.471 406.714,-278.843 369.941,-293.369"/>
<polygon fill="black" stroke="black" points="368.412,-290.21 360.397,-297.139 370.984,-296.72 368.412,-290.21"/>
<text text-anchor="middle" x="485.46" y="-259.806" font-family="Times New Roman,serif" font-size="8.00">use</text>
</g>
<!-- &#45;attrs1 -->
<g id="node5" class="node"><title>&#45;attrs1</title>
<polygon fill="none" stroke="gray" points="526.242,-161 462.242,-161 462.242,-125 532.242,-125 532.242,-155 526.242,-161"/>
<polyline fill="none" stroke="gray" points="526.242,-161 526.242,-155 "/>
<polyline fill="none" stroke="gray" points="532.242,-155 526.242,-155 "/>
<text text-anchor="start" x="472.242" y="-140" font-family="Times New Roman,serif" font-size="10.00">type:</text>
<text text-anchor="start" x="495.242" y="-140" font-family="Times New Roman,serif" font-size="10.00">assign</text>
</g>
<!-- &#45;attrs1&#45;&gt;http://example.org/assign24 -->
<g id="edge3" class="edge"><title>&#45;attrs1&#45;&gt;http://example.org/assign24</title>
<path fill="none" stroke="gray" stroke-dasharray="5,2" d="M501.786,-161.386C505.844,-176.914 511.754,-199.525 515.785,-214.95"/>
</g>
<!-- bn0&#45;&gt;http://example.org/disti#6 -->
<g id="edge5" class="edge"><title>bn0&#45;&gt;http://example.org/disti#6</title>
<path fill="none" stroke="black" stroke-dasharray="5,2" d="M595.77,-234.887C593.05,-240.003 579.109,-266.225 568.12,-286.896"/>
<polygon fill="black" stroke="black" points="564.933,-285.434 563.329,-295.907 571.114,-288.72 564.933,-285.434"/>
</g>
<!-- bn0&#45;&gt;http://example.org/ikj#6 -->
<g id="edge6" class="edge"><title>bn0&#45;&gt;http://example.org/ikj#6</title>
<path fill="none" stroke="black" d="M597.359,-234.504C607.102,-238.903 678.408,-271.092 726.629,-292.86"/>
<polygon fill="black" stroke="black" points="725.385,-296.139 735.94,-297.064 728.265,-289.759 725.385,-296.139"/>
<text text-anchor="middle" x="694.742" y="-271.6" font-family="Times New Roman,serif" font-size="8.00">[0]</text>
</g>
</g>
</svg>
