<?xml version="1.0" encoding="UTF-8" standalone="no"?>
<!DOCTYPE svg PUBLIC "-//W3C//DTD SVG 1.1//EN"
 "http://www.w3.org/Graphics/SVG/1.1/DTD/svg11.dtd">
<!-- Generated by graphviz version 2.38.0 (20140413.2041)
 -->
<!-- Title: PROV Pages: 1 -->
<svg width="813pt" height="347pt"
 viewBox="0.00 0.00 812.73 347.00" xmlns="http://www.w3.org/2000/svg" xmlns:xlink="http://www.w3.org/1999/xlink">
<g id="graph0" class="graph" transform="scale(1 1) rotate(0) translate(4 343)">
<title>PROV</title>
<polygon fill="white" stroke="none" points="-4,4 -4,-343 808.735,-343 808.735,4 -4,4"/>
<!-- http://example.org/dist#1 -->
<g id="node1" class="node"><title>http://example.org/dist#1</title>
<g id="a_node1"><a xlink:href="http://example.org/dist#1" xlink:title="dist#1">
<ellipse fill="#fffc87" stroke="#808080" cx="492.735" cy="-117" rx="33.2948" ry="18"/>
<text text-anchor="middle" x="492.735" y="-113.3" font-family="Times New Roman,serif" font-size="14.00">dist#1</text>
</a>
</g>
</g>
<!-- http://example.org/assign2 -->
<g id="node3" class="node"><title>http://example.org/assign2</title>
<g id="a_node3"><a xlink:href="http://example.org/assign2" xlink:title="assign2">
<polygon fill="#fafafa" stroke="#f0f0f0" points="416.735,-237 358.735,-237 358.735,-201 416.735,-201 416.735,-237"/>
<text text-anchor="middle" x="387.735" y="-215.3" font-family="Times New Roman,serif" font-size="14.00" fill="#f0f0f0">assign2</text>
</a>
</g>
</g>
<!-- http://example.org/dist#1&#45;&gt;http://example.org/assign2 -->
<g id="edge7" class="edge"><title>http://example.org/dist#1&#45;&gt;http://example.org/assign2</title>
<path fill="none" stroke="#f0f0f0" d="M459.724,-119.515C435.798,-122.541 404.914,-130.846 388.735,-153 380.934,-163.681 380.066,-178.204 381.418,-190.813"/>
<polygon fill="#f0f0f0" stroke="#f0f0f0" points="377.98,-191.483 382.972,-200.828 384.897,-190.41 377.98,-191.483"/>
<text text-anchor="middle" x="486.235" y="-171.8" font-family="Times New Roman,serif" font-size="14.00" fill="#f0f0f0">gen</text>
<text text-anchor="middle" x="486.235" y="-156.8" font-family="Times New Roman,serif" font-size="14.00" fill="#f0f0f0">ckpt: 2018&#45;06&#45;09T21:11:07.686642</text>
</g>
<!-- http://example.org/matrix#1 -->
<g id="node4" class="node"><title>http://example.org/matrix#1</title>
<ellipse fill="none" stroke="black" cx="278.735" cy="-321" rx="110.48" ry="18"/>
<text text-anchor="middle" x="278.735" y="-317.3" font-family="Times New Roman,serif" font-size="14.00">http://example.org/matrix#1</text>
</g>
<!-- http://example.org/dist#1&#45;&gt;http://example.org/matrix#1 -->
<g id="edge2" class="edge"><title>http://example.org/dist#1&#45;&gt;http://example.org/matrix#1</title>
<path fill="none" stroke="#f0f0f0" d="M525.384,-121.353C545.834,-125.332 570.702,-134.024 583.735,-153 600.569,-177.511 633.605,-227.377 580.735,-285 567.795,-299.103 472.57,-308.46 392.457,-313.923"/>
<polygon fill="#f0f0f0" stroke="#f0f0f0" points="392.013,-310.444 382.268,-314.602 392.479,-317.429 392.013,-310.444"/>
<text text-anchor="middle" x="707.235" y="-222.8" font-family="Times New Roman,serif" font-size="14.00" fill="#f0f0f0">der ref</text>
<text text-anchor="middle" x="707.235" y="-207.8" font-family="Times New Roman,serif" font-size="14.00" fill="#f0f0f0">ckpt: 2018&#45;06&#45;09T21:11:07.686642</text>
</g>
<!-- http://example.org/dist#1&#45;attrs -->
<g id="node2" class="node"><title>http://example.org/dist#1&#45;attrs</title>
<polygon fill="none" stroke="gray" points="578.735,-62 400.735,-62 400.735,-0 584.735,-0 584.735,-56 578.735,-62"/>
<polyline fill="none" stroke="gray" points="578.735,-62 578.735,-56 "/>
<polyline fill="none" stroke="gray" points="584.735,-56 578.735,-56 "/>
<text text-anchor="start" x="410.735" y="-48" font-family="Times New Roman,serif" font-size="10.00">value:</text>
<text text-anchor="start" x="437.735" y="-48" font-family="Times New Roman,serif" font-size="10.00">[[0, 1, 4], [10000, 0, 2], [2, 10000, 0]]</text>
<text text-anchor="start" x="410.735" y="-35" font-family="Times New Roman,serif" font-size="10.00">type:</text>
<text text-anchor="start" x="437.735" y="-35" font-family="Times New Roman,serif" font-size="10.00">name</text>
<text text-anchor="start" x="410.735" y="-22" font-family="Times New Roman,serif" font-size="10.00">label:</text>
<text text-anchor="start" x="437.735" y="-22" font-family="Times New Roman,serif" font-size="10.00">dist</text>
<text text-anchor="start" x="410.735" y="-9" font-family="Times New Roman,serif" font-size="10.00">line:</text>
<text text-anchor="start" x="437.735" y="-9" font-family="Times New Roman,serif" font-size="10.00">2</text>
</g>
<!-- http://example.org/dist#1&#45;attrs&#45;&gt;http://example.org/dist#1 -->
<g id="edge1" class="edge"><title>http://example.org/dist#1&#45;attrs&#45;&gt;http://example.org/dist#1</title>
<path fill="none" stroke="gray" stroke-dasharray="5,2" d="M492.735,-62.3259C492.735,-74.5443 492.735,-88.1945 492.735,-98.6716"/>
</g>
<!-- http://example.org/assign2&#45;&gt;http://example.org/matrix#1 -->
<g id="edge6" class="edge"><title>http://example.org/assign2&#45;&gt;http://example.org/matrix#1</title>
<path fill="none" stroke="#f0f0f0" d="M385.905,-237.237C383.527,-251.662 378.093,-271.928 365.735,-285 359.721,-291.361 352.396,-296.594 344.576,-300.892"/>
<polygon fill="#f0f0f0" stroke="#f0f0f0" points="342.98,-297.776 335.579,-305.357 346.093,-304.046 342.98,-297.776"/>
<text text-anchor="middle" x="479.235" y="-273.8" font-family="Times New Roman,serif" font-size="14.00" fill="#f0f0f0">use</text>
<text text-anchor="middle" x="479.235" y="-258.8" font-family="Times New Roman,serif" font-size="14.00" fill="#f0f0f0">ckpt: 2018&#45;06&#45;09T21:11:07.686642</text>
</g>
<!-- http://example.org/result#1 -->
<g id="node5" class="node"><title>http://example.org/result#1</title>
<g id="a_node5"><a xlink:href="http://example.org/result#1" xlink:title="result#1">
<ellipse fill="#fffc87" stroke="#808080" cx="94.7346" cy="-117" rx="39.7935" ry="18"/>
<text text-anchor="middle" x="94.7346" y="-113.3" font-family="Times New Roman,serif" font-size="14.00">result#1</text>
</a>
</g>
</g>
<!-- http://example.org/result#1&#45;&gt;http://example.org/matrix#1 -->
<g id="edge4" class="edge"><title>http://example.org/result#1&#45;&gt;http://example.org/matrix#1</title>
<path fill="none" stroke="#f0f0f0" d="M71.6173,-131.763C37.2926,-153.945 -20.2481,-198.968 7.73462,-237 30.2592,-267.614 124.285,-291.505 195.314,-305.638"/>
<polygon fill="#f0f0f0" stroke="#f0f0f0" points="194.688,-309.082 205.174,-307.567 196.032,-302.212 194.688,-309.082"/>
<text text-anchor="middle" x="105.235" y="-222.8" font-family="Times New Roman,serif" font-size="14.00" fill="#f0f0f0">der ref</text>
<text text-anchor="middle" x="105.235" y="-207.8" font-family="Times New Roman,serif" font-size="14.00" fill="#f0f0f0">ckpt: 2018&#45;06&#45;09T21:11:07.687624</text>
</g>
<!-- http://example.org/assign3 -->
<g id="node7" class="node"><title>http://example.org/assign3</title>
<g id="a_node7"><a xlink:href="http://example.org/assign3" xlink:title="assign3">
<polygon fill="#fafafa" stroke="#f0f0f0" points="269.735,-237 211.735,-237 211.735,-201 269.735,-201 269.735,-237"/>
<text text-anchor="middle" x="240.735" y="-215.3" font-family="Times New Roman,serif" font-size="14.00" fill="#f0f0f0">assign3</text>
</a>
</g>
</g>
<!-- http://example.org/result#1&#45;&gt;http://example.org/assign3 -->
<g id="edge8" class="edge"><title>http://example.org/result#1&#45;&gt;http://example.org/assign3</title>
<path fill="none" stroke="#f0f0f0" d="M113.934,-132.988C131.516,-146.518 158.423,-166.737 182.735,-183 189.052,-187.226 195.876,-191.549 202.548,-195.65"/>
<polygon fill="#f0f0f0" stroke="#f0f0f0" points="201.126,-198.881 211.491,-201.076 204.757,-192.896 201.126,-198.881"/>
<text text-anchor="middle" x="280.235" y="-171.8" font-family="Times New Roman,serif" font-size="14.00" fill="#f0f0f0">gen</text>
<text text-anchor="middle" x="280.235" y="-156.8" font-family="Times New Roman,serif" font-size="14.00" fill="#f0f0f0">ckpt: 2018&#45;06&#45;09T21:11:07.687624</text>
</g>
<!-- http://example.org/result#1&#45;attrs -->
<g id="node6" class="node"><title>http://example.org/result#1&#45;attrs</title>
<polygon fill="none" stroke="gray" points="180.735,-62 2.73462,-62 2.73462,-0 186.735,-0 186.735,-56 180.735,-62"/>
<polyline fill="none" stroke="gray" points="180.735,-62 180.735,-56 "/>
<polyline fill="none" stroke="gray" points="186.735,-56 180.735,-56 "/>
<text text-anchor="start" x="12.7346" y="-48" font-family="Times New Roman,serif" font-size="10.00">value:</text>
<text text-anchor="start" x="39.7346" y="-48" font-family="Times New Roman,serif" font-size="10.00">[[0, 1, 4], [10000, 0, 2], [2, 10000, 0]]</text>
<text text-anchor="start" x="12.7346" y="-35" font-family="Times New Roman,serif" font-size="10.00">type:</text>
<text text-anchor="start" x="39.7346" y="-35" font-family="Times New Roman,serif" font-size="10.00">name</text>
<text text-anchor="start" x="12.7346" y="-22" font-family="Times New Roman,serif" font-size="10.00">label:</text>
<text text-anchor="start" x="39.7346" y="-22" font-family="Times New Roman,serif" font-size="10.00">result</text>
<text text-anchor="start" x="12.7346" y="-9" font-family="Times New Roman,serif" font-size="10.00">line:</text>
<text text-anchor="start" x="39.7346" y="-9" font-family="Times New Roman,serif" font-size="10.00">2</text>
</g>
<!-- http://example.org/result#1&#45;attrs&#45;&gt;http://example.org/result#1 -->
<g id="edge3" class="edge"><title>http://example.org/result#1&#45;attrs&#45;&gt;http://example.org/result#1</title>
<path fill="none" stroke="gray" stroke-dasharray="5,2" d="M94.7346,-62.3259C94.7346,-74.5443 94.7346,-88.1945 94.7346,-98.6716"/>
</g>
<!-- http://example.org/assign3&#45;&gt;http://example.org/matrix#1 -->
<g id="edge5" class="edge"><title>http://example.org/assign3&#45;&gt;http://example.org/matrix#1</title>
<path fill="none" stroke="#f0f0f0" d="M211.455,-230.994C194.475,-238.03 175.521,-247.256 170.735,-255 163.725,-266.342 162.893,-274.216 170.735,-285 176.413,-292.809 183.872,-298.911 192.223,-303.673"/>
<polygon fill="#f0f0f0" stroke="#f0f0f0" points="190.701,-306.825 201.211,-308.166 193.831,-300.564 190.701,-306.825"/>
<text text-anchor="middle" x="268.235" y="-273.8" font-family="Times New Roman,serif" font-size="14.00" fill="#f0f0f0">use</text>
<text text-anchor="middle" x="268.235" y="-258.8" font-family="Times New Roman,serif" font-size="14.00" fill="#f0f0f0">ckpt: 2018&#45;06&#45;09T21:11:07.687624</text>
</g>
</g>
</svg>
