<?xml version="1.0" encoding="UTF-8" standalone="no"?>
<!DOCTYPE svg PUBLIC "-//W3C//DTD SVG 1.1//EN"
 "http://www.w3.org/Graphics/SVG/1.1/DTD/svg11.dtd">
<!-- Generated by graphviz version 2.38.0 (20140413.2041)
 -->
<!-- Title: PROV Pages: 1 -->
<svg width="625pt" height="586pt"
 viewBox="0.00 0.00 624.50 586.00" xmlns="http://www.w3.org/2000/svg" xmlns:xlink="http://www.w3.org/1999/xlink">
<g id="graph0" class="graph" transform="scale(1 1) rotate(0) translate(4 582)">
<title>PROV</title>
<polygon fill="white" stroke="none" points="-4,4 -4,-582 620.5,-582 620.5,4 -4,4"/>
<!-- http://example.org/0 -->
<g id="node1" class="node"><title>http://example.org/0</title>
<g id="a_node1"><a xlink:href="http://example.org/0" xlink:title="0">
<ellipse fill="#fffc87" stroke="#808080" cx="301.5" cy="-560" rx="27" ry="18"/>
<text text-anchor="middle" x="301.5" y="-556.3" font-family="Times New Roman,serif" font-size="14.00">0</text>
</a>
</g>
</g>
<!-- &#45;attrs0 -->
<g id="node2" class="node"><title>&#45;attrs0</title>
<polygon fill="none" stroke="gray" points="330,-479 267,-479 267,-430 336,-430 336,-473 330,-479"/>
<polyline fill="none" stroke="gray" points="330,-479 330,-473 "/>
<polyline fill="none" stroke="gray" points="336,-473 330,-473 "/>
<text text-anchor="start" x="277.5" y="-464.5" font-family="Times New Roman,serif" font-size="10.00">value:</text>
<text text-anchor="start" x="304.5" y="-464.5" font-family="Times New Roman,serif" font-size="10.00">0</text>
<text text-anchor="start" x="277.5" y="-451.5" font-family="Times New Roman,serif" font-size="10.00">type:</text>
<text text-anchor="start" x="304.5" y="-451.5" font-family="Times New Roman,serif" font-size="10.00">literal</text>
<text text-anchor="start" x="277.5" y="-438.5" font-family="Times New Roman,serif" font-size="10.00">line:</text>
<text text-anchor="start" x="304.5" y="-438.5" font-family="Times New Roman,serif" font-size="10.00">3</text>
</g>
<!-- &#45;attrs0&#45;&gt;http://example.org/0 -->
<g id="edge1" class="edge"><title>&#45;attrs0&#45;&gt;http://example.org/0</title>
<path fill="none" stroke="gray" stroke-dasharray="5,2" d="M301.5,-479.245C301.5,-498.343 301.5,-524.723 301.5,-541.822"/>
</g>
<!-- http://example.org/1 -->
<g id="node3" class="node"><title>http://example.org/1</title>
<g id="a_node3"><a xlink:href="http://example.org/1" xlink:title="1">
<ellipse fill="#fffc87" stroke="#808080" cx="164.5" cy="-560" rx="27" ry="18"/>
<text text-anchor="middle" x="164.5" y="-556.3" font-family="Times New Roman,serif" font-size="14.00">1</text>
</a>
</g>
</g>
<!-- &#45;attrs1 -->
<g id="node4" class="node"><title>&#45;attrs1</title>
<polygon fill="none" stroke="gray" points="243,-479 180,-479 180,-430 249,-430 249,-473 243,-479"/>
<polyline fill="none" stroke="gray" points="243,-479 243,-473 "/>
<polyline fill="none" stroke="gray" points="249,-473 243,-473 "/>
<text text-anchor="start" x="190.5" y="-464.5" font-family="Times New Roman,serif" font-size="10.00">value:</text>
<text text-anchor="start" x="217.5" y="-464.5" font-family="Times New Roman,serif" font-size="10.00">1</text>
<text text-anchor="start" x="190.5" y="-451.5" font-family="Times New Roman,serif" font-size="10.00">type:</text>
<text text-anchor="start" x="217.5" y="-451.5" font-family="Times New Roman,serif" font-size="10.00">literal</text>
<text text-anchor="start" x="190.5" y="-438.5" font-family="Times New Roman,serif" font-size="10.00">line:</text>
<text text-anchor="start" x="217.5" y="-438.5" font-family="Times New Roman,serif" font-size="10.00">3</text>
</g>
<!-- &#45;attrs1&#45;&gt;http://example.org/1 -->
<g id="edge2" class="edge"><title>&#45;attrs1&#45;&gt;http://example.org/1</title>
<path fill="none" stroke="gray" stroke-dasharray="5,2" d="M203.029,-479.245C193.63,-498.701 180.58,-525.715 172.339,-542.774"/>
</g>
<!-- http://example.org/4 -->
<g id="node5" class="node"><title>http://example.org/4</title>
<g id="a_node5"><a xlink:href="http://example.org/4" xlink:title="4">
<ellipse fill="#fffc87" stroke="#808080" cx="63.5" cy="-560" rx="27" ry="18"/>
<text text-anchor="middle" x="63.5" y="-556.3" font-family="Times New Roman,serif" font-size="14.00">4</text>
</a>
</g>
</g>
<!-- &#45;attrs2 -->
<g id="node6" class="node"><title>&#45;attrs2</title>
<polygon fill="none" stroke="gray" points="63,-479 0,-479 0,-430 69,-430 69,-473 63,-479"/>
<polyline fill="none" stroke="gray" points="63,-479 63,-473 "/>
<polyline fill="none" stroke="gray" points="69,-473 63,-473 "/>
<text text-anchor="start" x="10.5" y="-464.5" font-family="Times New Roman,serif" font-size="10.00">value:</text>
<text text-anchor="start" x="37.5" y="-464.5" font-family="Times New Roman,serif" font-size="10.00">4</text>
<text text-anchor="start" x="10.5" y="-451.5" font-family="Times New Roman,serif" font-size="10.00">type:</text>
<text text-anchor="start" x="37.5" y="-451.5" font-family="Times New Roman,serif" font-size="10.00">literal</text>
<text text-anchor="start" x="10.5" y="-438.5" font-family="Times New Roman,serif" font-size="10.00">line:</text>
<text text-anchor="start" x="37.5" y="-438.5" font-family="Times New Roman,serif" font-size="10.00">3</text>
</g>
<!-- &#45;attrs2&#45;&gt;http://example.org/4 -->
<g id="edge3" class="edge"><title>&#45;attrs2&#45;&gt;http://example.org/4</title>
<path fill="none" stroke="gray" stroke-dasharray="5,2" d="M41.1532,-479.245C46.5377,-498.462 53.9882,-525.053 58.7764,-542.141"/>
</g>
<!-- http://example.org/2 -->
<g id="node7" class="node"><title>http://example.org/2</title>
<g id="a_node7"><a xlink:href="http://example.org/2" xlink:title="2">
<ellipse fill="#fffc87" stroke="#808080" cx="561.5" cy="-560" rx="27" ry="18"/>
<text text-anchor="middle" x="561.5" y="-556.3" font-family="Times New Roman,serif" font-size="14.00">2</text>
</a>
</g>
</g>
<!-- &#45;attrs3 -->
<g id="node8" class="node"><title>&#45;attrs3</title>
<polygon fill="none" stroke="gray" points="603,-479 540,-479 540,-430 609,-430 609,-473 603,-479"/>
<polyline fill="none" stroke="gray" points="603,-479 603,-473 "/>
<polyline fill="none" stroke="gray" points="609,-473 603,-473 "/>
<text text-anchor="start" x="550.5" y="-464.5" font-family="Times New Roman,serif" font-size="10.00">value:</text>
<text text-anchor="start" x="577.5" y="-464.5" font-family="Times New Roman,serif" font-size="10.00">2</text>
<text text-anchor="start" x="550.5" y="-451.5" font-family="Times New Roman,serif" font-size="10.00">type:</text>
<text text-anchor="start" x="577.5" y="-451.5" font-family="Times New Roman,serif" font-size="10.00">literal</text>
<text text-anchor="start" x="550.5" y="-438.5" font-family="Times New Roman,serif" font-size="10.00">line:</text>
<text text-anchor="start" x="577.5" y="-438.5" font-family="Times New Roman,serif" font-size="10.00">4</text>
</g>
<!-- &#45;attrs3&#45;&gt;http://example.org/2 -->
<g id="edge4" class="edge"><title>&#45;attrs3&#45;&gt;http://example.org/2</title>
<path fill="none" stroke="gray" stroke-dasharray="5,2" d="M571.518,-479.245C569.119,-498.343 565.805,-524.723 563.658,-541.822"/>
</g>
<!-- http://example.org/matrix -->
<g id="node9" class="node"><title>http://example.org/matrix</title>
<g id="a_node9"><a xlink:href="http://example.org/matrix" xlink:title="matrix">
<ellipse fill="#fffc87" stroke="#808080" cx="391.5" cy="-336" rx="33.2948" ry="18"/>
<text text-anchor="middle" x="391.5" y="-332.3" font-family="Times New Roman,serif" font-size="14.00">matrix</text>
</a>
</g>
</g>
<!-- http://example.org/matrix0 -->
<g id="node11" class="node"><title>http://example.org/matrix0</title>
<g id="a_node11"><a xlink:href="http://example.org/matrix0" xlink:title="matrix0">
<ellipse fill="#fffc87" stroke="#808080" cx="124.5" cy="-454.5" rx="37.8943" ry="18"/>
<text text-anchor="middle" x="124.5" y="-450.8" font-family="Times New Roman,serif" font-size="14.00">matrix0</text>
</a>
</g>
</g>
<!-- http://example.org/matrix&#45;&gt;http://example.org/matrix0 -->
<g id="edge10" class="edge"><title>http://example.org/matrix&#45;&gt;http://example.org/matrix0</title>
<path fill="none" stroke="black" d="M373.82,-351.317C366.577,-356.723 357.928,-362.619 349.5,-367 274.666,-405.896 248.004,-396.741 170.5,-430 166.307,-431.799 161.964,-433.811 157.696,-435.881"/>
<polygon fill="black" stroke="black" points="155.944,-432.844 148.561,-440.442 159.071,-439.107 155.944,-432.844"/>
<text text-anchor="middle" x="316.5" y="-405.6" font-family="Times New Roman,serif" font-size="8.00">put</text>
<text text-anchor="middle" x="316.5" y="-396.6" font-family="Times New Roman,serif" font-size="8.00">[0]</text>
<text text-anchor="middle" x="316.5" y="-387.6" font-family="Times New Roman,serif" font-size="8.00">2</text>
</g>
<!-- http://example.org/matrix1 -->
<g id="node13" class="node"><title>http://example.org/matrix1</title>
<g id="a_node13"><a xlink:href="http://example.org/matrix1" xlink:title="matrix1">
<ellipse fill="#fffc87" stroke="#808080" cx="484.5" cy="-454.5" rx="37.8943" ry="18"/>
<text text-anchor="middle" x="484.5" y="-450.8" font-family="Times New Roman,serif" font-size="14.00">matrix1</text>
</a>
</g>
</g>
<!-- http://example.org/matrix&#45;&gt;http://example.org/matrix1 -->
<g id="edge15" class="edge"><title>http://example.org/matrix&#45;&gt;http://example.org/matrix1</title>
<path fill="none" stroke="black" d="M404.042,-352.712C419.762,-372.404 446.867,-406.358 465.228,-429.358"/>
<polygon fill="black" stroke="black" points="462.585,-431.658 471.56,-437.29 468.056,-427.291 462.585,-431.658"/>
<text text-anchor="middle" x="455.5" y="-405.6" font-family="Times New Roman,serif" font-size="8.00">put</text>
<text text-anchor="middle" x="455.5" y="-396.6" font-family="Times New Roman,serif" font-size="8.00">[1]</text>
<text text-anchor="middle" x="455.5" y="-387.6" font-family="Times New Roman,serif" font-size="8.00">2</text>
</g>
<!-- http://example.org/matrix2 -->
<g id="node16" class="node"><title>http://example.org/matrix2</title>
<g id="a_node16"><a xlink:href="http://example.org/matrix2" xlink:title="matrix2">
<ellipse fill="#fffc87" stroke="#808080" cx="391.5" cy="-454.5" rx="37.8943" ry="18"/>
<text text-anchor="middle" x="391.5" y="-450.8" font-family="Times New Roman,serif" font-size="14.00">matrix2</text>
</a>
</g>
</g>
<!-- http://example.org/matrix&#45;&gt;http://example.org/matrix2 -->
<g id="edge20" class="edge"><title>http://example.org/matrix&#45;&gt;http://example.org/matrix2</title>
<path fill="none" stroke="black" d="M391.5,-354.19C391.5,-373.119 391.5,-403.817 391.5,-426.078"/>
<polygon fill="black" stroke="black" points="388,-426.239 391.5,-436.239 395,-426.24 388,-426.239"/>
<text text-anchor="middle" x="397.5" y="-405.6" font-family="Times New Roman,serif" font-size="8.00">put</text>
<text text-anchor="middle" x="397.5" y="-396.6" font-family="Times New Roman,serif" font-size="8.00">[2]</text>
<text text-anchor="middle" x="397.5" y="-387.6" font-family="Times New Roman,serif" font-size="8.00">2</text>
</g>
<!-- &#45;attrs4 -->
<g id="node10" class="node"><title>&#45;attrs4</title>
<polygon fill="none" stroke="gray" points="279.5,-251 101.5,-251 101.5,-189 285.5,-189 285.5,-245 279.5,-251"/>
<polyline fill="none" stroke="gray" points="279.5,-251 279.5,-245 "/>
<polyline fill="none" stroke="gray" points="285.5,-245 279.5,-245 "/>
<text text-anchor="start" x="111.5" y="-237" font-family="Times New Roman,serif" font-size="10.00">value:</text>
<text text-anchor="start" x="138.5" y="-237" font-family="Times New Roman,serif" font-size="10.00">[[0, 1, 4], [10000, 0, 2], [2, 10000, 0]]</text>
<text text-anchor="start" x="111.5" y="-224" font-family="Times New Roman,serif" font-size="10.00">type:</text>
<text text-anchor="start" x="138.5" y="-224" font-family="Times New Roman,serif" font-size="10.00">list</text>
<text text-anchor="start" x="111.5" y="-211" font-family="Times New Roman,serif" font-size="10.00">label:</text>
<text text-anchor="start" x="138.5" y="-211" font-family="Times New Roman,serif" font-size="10.00">[[0, 1, 4], [m, 0, 2], [2, m, 0]]</text>
<text text-anchor="start" x="111.5" y="-198" font-family="Times New Roman,serif" font-size="10.00">line:</text>
<text text-anchor="start" x="138.5" y="-198" font-family="Times New Roman,serif" font-size="10.00">2</text>
</g>
<!-- &#45;attrs4&#45;&gt;http://example.org/matrix -->
<g id="edge5" class="edge"><title>&#45;attrs4&#45;&gt;http://example.org/matrix</title>
<path fill="none" stroke="gray" stroke-dasharray="5,2" d="M242.452,-251.066C262.342,-262.825 285.729,-276.082 307.5,-287 325.654,-296.104 331.801,-295.04 349.5,-305 357.622,-309.57 366.076,-315.378 373.252,-320.664"/>
</g>
<!-- http://example.org/matrix0&#45;&gt;http://example.org/0 -->
<g id="edge7" class="edge"><title>http://example.org/matrix0&#45;&gt;http://example.org/0</title>
<path fill="none" stroke="black" d="M147.64,-469.031C179.897,-487.893 238.33,-522.062 273.159,-542.428"/>
<polygon fill="black" stroke="black" points="271.496,-545.51 281.895,-547.536 275.029,-539.467 271.496,-545.51"/>
<text text-anchor="middle" x="245.5" y="-517.6" font-family="Times New Roman,serif" font-size="8.00">put</text>
<text text-anchor="middle" x="245.5" y="-508.6" font-family="Times New Roman,serif" font-size="8.00">[0]</text>
<text text-anchor="middle" x="245.5" y="-499.6" font-family="Times New Roman,serif" font-size="8.00">2</text>
</g>
<!-- http://example.org/matrix0&#45;&gt;http://example.org/1 -->
<g id="edge8" class="edge"><title>http://example.org/matrix0&#45;&gt;http://example.org/1</title>
<path fill="none" stroke="black" d="M131.105,-472.591C137.425,-488.944 147.048,-513.842 154.343,-532.718"/>
<polygon fill="black" stroke="black" points="151.148,-534.161 158.018,-542.227 157.677,-531.638 151.148,-534.161"/>
<text text-anchor="middle" x="156.5" y="-517.6" font-family="Times New Roman,serif" font-size="8.00">put</text>
<text text-anchor="middle" x="156.5" y="-508.6" font-family="Times New Roman,serif" font-size="8.00">[1]</text>
<text text-anchor="middle" x="156.5" y="-499.6" font-family="Times New Roman,serif" font-size="8.00">2</text>
</g>
<!-- http://example.org/matrix0&#45;&gt;http://example.org/4 -->
<g id="edge9" class="edge"><title>http://example.org/matrix0&#45;&gt;http://example.org/4</title>
<path fill="none" stroke="black" d="M114.699,-472.129C104.801,-488.924 89.3956,-515.062 78.0674,-534.283"/>
<polygon fill="black" stroke="black" points="74.9379,-532.7 72.8757,-543.092 80.9685,-536.254 74.9379,-532.7"/>
<text text-anchor="middle" x="105.5" y="-517.6" font-family="Times New Roman,serif" font-size="8.00">put</text>
<text text-anchor="middle" x="105.5" y="-508.6" font-family="Times New Roman,serif" font-size="8.00">[2]</text>
<text text-anchor="middle" x="105.5" y="-499.6" font-family="Times New Roman,serif" font-size="8.00">2</text>
</g>
<!-- &#45;attrs5 -->
<g id="node12" class="node"><title>&#45;attrs5</title>
<polygon fill="none" stroke="gray" points="156.5,-367 86.5,-367 86.5,-305 162.5,-305 162.5,-361 156.5,-367"/>
<polyline fill="none" stroke="gray" points="156.5,-367 156.5,-361 "/>
<polyline fill="none" stroke="gray" points="162.5,-361 156.5,-361 "/>
<text text-anchor="start" x="96.5" y="-353" font-family="Times New Roman,serif" font-size="10.00">value:</text>
<text text-anchor="start" x="123.5" y="-353" font-family="Times New Roman,serif" font-size="10.00">[0, 1, 4]</text>
<text text-anchor="start" x="96.5" y="-340" font-family="Times New Roman,serif" font-size="10.00">type:</text>
<text text-anchor="start" x="123.5" y="-340" font-family="Times New Roman,serif" font-size="10.00">list</text>
<text text-anchor="start" x="96.5" y="-327" font-family="Times New Roman,serif" font-size="10.00">label:</text>
<text text-anchor="start" x="123.5" y="-327" font-family="Times New Roman,serif" font-size="10.00">[0, 1, 4]</text>
<text text-anchor="start" x="96.5" y="-314" font-family="Times New Roman,serif" font-size="10.00">line:</text>
<text text-anchor="start" x="123.5" y="-314" font-family="Times New Roman,serif" font-size="10.00">3</text>
</g>
<!-- &#45;attrs5&#45;&gt;http://example.org/matrix0 -->
<g id="edge6" class="edge"><title>&#45;attrs5&#45;&gt;http://example.org/matrix0</title>
<path fill="none" stroke="gray" stroke-dasharray="5,2" d="M124.5,-367.002C124.5,-388.98 124.5,-418.038 124.5,-436.249"/>
</g>
<!-- http://example.org/matrix1&#45;&gt;http://example.org/0 -->
<g id="edge13" class="edge"><title>http://example.org/matrix1&#45;&gt;http://example.org/0</title>
<path fill="none" stroke="black" d="M460.369,-468.396C453.382,-471.975 445.697,-475.763 438.5,-479 418.478,-488.005 410.982,-485.151 392.5,-497 377.946,-506.33 378.396,-513.715 364.5,-524 354.466,-531.427 342.683,-538.381 332.04,-544.103"/>
<polygon fill="black" stroke="black" points="330.297,-541.064 323.052,-548.795 333.537,-547.27 330.297,-541.064"/>
<text text-anchor="middle" x="398.5" y="-517.6" font-family="Times New Roman,serif" font-size="8.00">put</text>
<text text-anchor="middle" x="398.5" y="-508.6" font-family="Times New Roman,serif" font-size="8.00">[1]</text>
<text text-anchor="middle" x="398.5" y="-499.6" font-family="Times New Roman,serif" font-size="8.00">2</text>
</g>
<!-- http://example.org/matrix1&#45;&gt;http://example.org/2 -->
<g id="edge14" class="edge"><title>http://example.org/matrix1&#45;&gt;http://example.org/2</title>
<path fill="none" stroke="black" d="M500.981,-470.884C508.578,-478.391 517.452,-487.777 524.5,-497 533.328,-508.552 541.752,-522.364 548.326,-534.017"/>
<polygon fill="black" stroke="black" points="545.282,-535.745 553.174,-542.814 551.413,-532.367 545.282,-535.745"/>
<text text-anchor="middle" x="547.5" y="-517.6" font-family="Times New Roman,serif" font-size="8.00">put</text>
<text text-anchor="middle" x="547.5" y="-508.6" font-family="Times New Roman,serif" font-size="8.00">[2]</text>
<text text-anchor="middle" x="547.5" y="-499.6" font-family="Times New Roman,serif" font-size="8.00">2</text>
</g>
<!-- http://example.org/m -->
<g id="node15" class="node"><title>http://example.org/m</title>
<ellipse fill="none" stroke="black" cx="431.5" cy="-560" rx="85.2851" ry="18"/>
<text text-anchor="middle" x="431.5" y="-556.3" font-family="Times New Roman,serif" font-size="14.00">http://example.org/m</text>
</g>
<!-- http://example.org/matrix1&#45;&gt;http://example.org/m -->
<g id="edge12" class="edge"><title>http://example.org/matrix1&#45;&gt;http://example.org/m</title>
<path fill="none" stroke="black" d="M475.985,-472.129C467.574,-488.554 454.586,-513.916 444.812,-533.004"/>
<polygon fill="black" stroke="black" points="441.613,-531.572 440.17,-542.068 447.844,-534.763 441.613,-531.572"/>
<text text-anchor="middle" x="468.5" y="-517.6" font-family="Times New Roman,serif" font-size="8.00">put</text>
<text text-anchor="middle" x="468.5" y="-508.6" font-family="Times New Roman,serif" font-size="8.00">[0]</text>
<text text-anchor="middle" x="468.5" y="-499.6" font-family="Times New Roman,serif" font-size="8.00">2</text>
</g>
<!-- &#45;attrs6 -->
<g id="node14" class="node"><title>&#45;attrs6</title>
<polygon fill="none" stroke="gray" points="530.5,-367 442.5,-367 442.5,-305 536.5,-305 536.5,-361 530.5,-367"/>
<polyline fill="none" stroke="gray" points="530.5,-367 530.5,-361 "/>
<polyline fill="none" stroke="gray" points="536.5,-361 530.5,-361 "/>
<text text-anchor="start" x="452.5" y="-353" font-family="Times New Roman,serif" font-size="10.00">value:</text>
<text text-anchor="start" x="479.5" y="-353" font-family="Times New Roman,serif" font-size="10.00">[10000, 0, 2]</text>
<text text-anchor="start" x="452.5" y="-340" font-family="Times New Roman,serif" font-size="10.00">type:</text>
<text text-anchor="start" x="479.5" y="-340" font-family="Times New Roman,serif" font-size="10.00">list</text>
<text text-anchor="start" x="452.5" y="-327" font-family="Times New Roman,serif" font-size="10.00">label:</text>
<text text-anchor="start" x="479.5" y="-327" font-family="Times New Roman,serif" font-size="10.00">[m, 0, 2]</text>
<text text-anchor="start" x="452.5" y="-314" font-family="Times New Roman,serif" font-size="10.00">line:</text>
<text text-anchor="start" x="479.5" y="-314" font-family="Times New Roman,serif" font-size="10.00">4</text>
</g>
<!-- &#45;attrs6&#45;&gt;http://example.org/matrix1 -->
<g id="edge11" class="edge"><title>&#45;attrs6&#45;&gt;http://example.org/matrix1</title>
<path fill="none" stroke="gray" stroke-dasharray="5,2" d="M488.212,-367.002C487.269,-388.98 486.022,-418.038 485.24,-436.249"/>
</g>
<!-- http://example.org/matrix2&#45;&gt;http://example.org/0 -->
<g id="edge19" class="edge"><title>http://example.org/matrix2&#45;&gt;http://example.org/0</title>
<path fill="none" stroke="black" d="M376.436,-471.039C369.093,-478.738 360.205,-488.239 352.5,-497 341.464,-509.548 329.578,-523.943 320.06,-535.701"/>
<polygon fill="black" stroke="black" points="317.138,-533.749 313.593,-543.733 322.591,-538.139 317.138,-533.749"/>
<text text-anchor="middle" x="358.5" y="-517.6" font-family="Times New Roman,serif" font-size="8.00">put</text>
<text text-anchor="middle" x="358.5" y="-508.6" font-family="Times New Roman,serif" font-size="8.00">[2]</text>
<text text-anchor="middle" x="358.5" y="-499.6" font-family="Times New Roman,serif" font-size="8.00">2</text>
</g>
<!-- http://example.org/matrix2&#45;&gt;http://example.org/2 -->
<g id="edge17" class="edge"><title>http://example.org/matrix2&#45;&gt;http://example.org/2</title>
<path fill="none" stroke="black" d="M416.196,-468.452C423.054,-471.957 430.532,-475.694 437.5,-479 455.48,-487.531 461.78,-486.206 478.5,-497 493.571,-506.729 494.309,-513.027 508.5,-524 516.379,-530.093 525.297,-536.243 533.539,-541.653"/>
<polygon fill="black" stroke="black" points="531.834,-544.718 542.136,-547.193 535.626,-538.834 531.834,-544.718"/>
<text text-anchor="middle" x="514.5" y="-517.6" font-family="Times New Roman,serif" font-size="8.00">put</text>
<text text-anchor="middle" x="514.5" y="-508.6" font-family="Times New Roman,serif" font-size="8.00">[0]</text>
<text text-anchor="middle" x="514.5" y="-499.6" font-family="Times New Roman,serif" font-size="8.00">2</text>
</g>
<!-- http://example.org/matrix2&#45;&gt;http://example.org/m -->
<g id="edge18" class="edge"><title>http://example.org/matrix2&#45;&gt;http://example.org/m</title>
<path fill="none" stroke="black" d="M398.105,-472.591C404.387,-488.846 413.933,-513.546 421.212,-532.38"/>
<polygon fill="black" stroke="black" points="418.015,-533.818 424.885,-541.884 424.545,-531.294 418.015,-533.818"/>
<text text-anchor="middle" x="423.5" y="-517.6" font-family="Times New Roman,serif" font-size="8.00">put</text>
<text text-anchor="middle" x="423.5" y="-508.6" font-family="Times New Roman,serif" font-size="8.00">[1]</text>
<text text-anchor="middle" x="423.5" y="-499.6" font-family="Times New Roman,serif" font-size="8.00">2</text>
</g>
<!-- &#45;attrs7 -->
<g id="node17" class="node"><title>&#45;attrs7</title>
<polygon fill="none" stroke="gray" points="334.5,-367 246.5,-367 246.5,-305 340.5,-305 340.5,-361 334.5,-367"/>
<polyline fill="none" stroke="gray" points="334.5,-367 334.5,-361 "/>
<polyline fill="none" stroke="gray" points="340.5,-361 334.5,-361 "/>
<text text-anchor="start" x="256.5" y="-353" font-family="Times New Roman,serif" font-size="10.00">value:</text>
<text text-anchor="start" x="283.5" y="-353" font-family="Times New Roman,serif" font-size="10.00">[2, 10000, 0]</text>
<text text-anchor="start" x="256.5" y="-340" font-family="Times New Roman,serif" font-size="10.00">type:</text>
<text text-anchor="start" x="283.5" y="-340" font-family="Times New Roman,serif" font-size="10.00">list</text>
<text text-anchor="start" x="256.5" y="-327" font-family="Times New Roman,serif" font-size="10.00">label:</text>
<text text-anchor="start" x="283.5" y="-327" font-family="Times New Roman,serif" font-size="10.00">[2, m, 0]</text>
<text text-anchor="start" x="256.5" y="-314" font-family="Times New Roman,serif" font-size="10.00">line:</text>
<text text-anchor="start" x="283.5" y="-314" font-family="Times New Roman,serif" font-size="10.00">5</text>
</g>
<!-- &#45;attrs7&#45;&gt;http://example.org/matrix2 -->
<g id="edge16" class="edge"><title>&#45;attrs7&#45;&gt;http://example.org/matrix2</title>
<path fill="none" stroke="gray" stroke-dasharray="5,2" d="M318.737,-367.002C337.679,-389.519 362.872,-419.468 378.1,-437.57"/>
</g>
<!-- http://example.org/dist -->
<g id="node18" class="node"><title>http://example.org/dist</title>
<g id="a_node18"><a xlink:href="http://example.org/dist" xlink:title="dist">
<ellipse fill="#fffc87" stroke="#808080" cx="322.5" cy="-117" rx="27" ry="18"/>
<text text-anchor="middle" x="322.5" y="-113.3" font-family="Times New Roman,serif" font-size="14.00">dist</text>
</a>
</g>
</g>
<!-- http://example.org/dist&#45;&gt;http://example.org/matrix -->
<g id="edge22" class="edge"><title>http://example.org/dist&#45;&gt;http://example.org/matrix</title>
<path fill="none" stroke="#f0f0f0" d="M320.559,-134.98C318.246,-160.865 316.298,-211.367 330.5,-251 338.784,-274.117 355.529,-296.421 369.382,-312.23"/>
<polygon fill="#f0f0f0" stroke="#f0f0f0" points="366.997,-314.81 376.303,-319.874 372.186,-310.112 366.997,-314.81"/>
<text text-anchor="middle" x="342" y="-222.6" font-family="Times New Roman,serif" font-size="8.00" fill="#f0f0f0">der ref</text>
<text text-anchor="middle" x="342" y="-213.6" font-family="Times New Roman,serif" font-size="8.00" fill="#f0f0f0">3</text>
</g>
<!-- http://example.org/assign2 -->
<g id="node20" class="node"><title>http://example.org/assign2</title>
<g id="a_node20"><a xlink:href="http://example.org/assign2" xlink:title="assign2">
<polygon fill="#fafafa" stroke="#f0f0f0" points="420.5,-238 362.5,-238 362.5,-202 420.5,-202 420.5,-238"/>
<text text-anchor="middle" x="391.5" y="-216.3" font-family="Times New Roman,serif" font-size="14.00" fill="#f0f0f0">assign2</text>
</a>
</g>
</g>
<!-- http://example.org/dist&#45;&gt;http://example.org/assign2 -->
<g id="edge27" class="edge"><title>http://example.org/dist&#45;&gt;http://example.org/assign2</title>
<path fill="none" stroke="#f0f0f0" d="M333.281,-133.781C344.21,-149.778 361.293,-174.784 374.133,-193.579"/>
<polygon fill="#f0f0f0" stroke="#f0f0f0" points="371.342,-195.698 379.873,-201.981 377.122,-191.749 371.342,-195.698"/>
<text text-anchor="middle" x="364" y="-164.6" font-family="Times New Roman,serif" font-size="8.00" fill="#f0f0f0">gen</text>
<text text-anchor="middle" x="364" y="-155.6" font-family="Times New Roman,serif" font-size="8.00" fill="#f0f0f0">3</text>
</g>
<!-- &#45;attrs8 -->
<g id="node19" class="node"><title>&#45;attrs8</title>
<polygon fill="none" stroke="gray" points="408.5,-62 230.5,-62 230.5,-0 414.5,-0 414.5,-56 408.5,-62"/>
<polyline fill="none" stroke="gray" points="408.5,-62 408.5,-56 "/>
<polyline fill="none" stroke="gray" points="414.5,-56 408.5,-56 "/>
<text text-anchor="start" x="240.5" y="-48" font-family="Times New Roman,serif" font-size="10.00">value:</text>
<text text-anchor="start" x="267.5" y="-48" font-family="Times New Roman,serif" font-size="10.00">[[0, 1, 4], [10000, 0, 2], [2, 10000, 0]]</text>
<text text-anchor="start" x="240.5" y="-35" font-family="Times New Roman,serif" font-size="10.00">type:</text>
<text text-anchor="start" x="267.5" y="-35" font-family="Times New Roman,serif" font-size="10.00">name</text>
<text text-anchor="start" x="240.5" y="-22" font-family="Times New Roman,serif" font-size="10.00">label:</text>
<text text-anchor="start" x="267.5" y="-22" font-family="Times New Roman,serif" font-size="10.00">dist</text>
<text text-anchor="start" x="240.5" y="-9" font-family="Times New Roman,serif" font-size="10.00">line:</text>
<text text-anchor="start" x="267.5" y="-9" font-family="Times New Roman,serif" font-size="10.00">2</text>
</g>
<!-- &#45;attrs8&#45;&gt;http://example.org/dist -->
<g id="edge21" class="edge"><title>&#45;attrs8&#45;&gt;http://example.org/dist</title>
<path fill="none" stroke="gray" stroke-dasharray="5,2" d="M322.5,-62.3259C322.5,-74.5443 322.5,-88.1945 322.5,-98.6716"/>
</g>
<!-- http://example.org/assign2&#45;&gt;http://example.org/matrix -->
<g id="edge25" class="edge"><title>http://example.org/assign2&#45;&gt;http://example.org/matrix</title>
<path fill="none" stroke="#f0f0f0" d="M391.5,-238.314C391.5,-256.751 391.5,-286.184 391.5,-307.738"/>
<polygon fill="#f0f0f0" stroke="#f0f0f0" points="388,-307.896 391.5,-317.896 395,-307.896 388,-307.896"/>
<text text-anchor="middle" x="397" y="-280.6" font-family="Times New Roman,serif" font-size="8.00" fill="#f0f0f0">use</text>
<text text-anchor="middle" x="397" y="-271.6" font-family="Times New Roman,serif" font-size="8.00" fill="#f0f0f0">3</text>
</g>
<!-- http://example.org/result -->
<g id="node21" class="node"><title>http://example.org/result</title>
<g id="a_node21"><a xlink:href="http://example.org/result" xlink:title="result">
<ellipse fill="#fffc87" stroke="#808080" cx="524.5" cy="-117" rx="30.5947" ry="18"/>
<text text-anchor="middle" x="524.5" y="-113.3" font-family="Times New Roman,serif" font-size="14.00">result</text>
</a>
</g>
</g>
<!-- http://example.org/result&#45;&gt;http://example.org/matrix -->
<g id="edge24" class="edge"><title>http://example.org/result&#45;&gt;http://example.org/matrix</title>
<path fill="none" stroke="#f0f0f0" d="M510.319,-133.008C497.65,-146.868 479.051,-168.372 465.5,-189 439.427,-228.69 415.861,-278.775 402.639,-308.772"/>
<polygon fill="#f0f0f0" stroke="#f0f0f0" points="399.348,-307.564 398.563,-318.13 405.765,-310.36 399.348,-307.564"/>
<text text-anchor="middle" x="477" y="-222.6" font-family="Times New Roman,serif" font-size="8.00" fill="#f0f0f0">der ref</text>
<text text-anchor="middle" x="477" y="-213.6" font-family="Times New Roman,serif" font-size="8.00" fill="#f0f0f0">4</text>
</g>
<!-- http://example.org/assign3 -->
<g id="node23" class="node"><title>http://example.org/assign3</title>
<g id="a_node23"><a xlink:href="http://example.org/assign3" xlink:title="assign3">
<polygon fill="#fafafa" stroke="#f0f0f0" points="555.5,-238 497.5,-238 497.5,-202 555.5,-202 555.5,-238"/>
<text text-anchor="middle" x="526.5" y="-216.3" font-family="Times New Roman,serif" font-size="14.00" fill="#f0f0f0">assign3</text>
</a>
</g>
</g>
<!-- http://example.org/result&#45;&gt;http://example.org/assign3 -->
<g id="edge28" class="edge"><title>http://example.org/result&#45;&gt;http://example.org/assign3</title>
<path fill="none" stroke="#f0f0f0" d="M524.839,-135.133C525.145,-150.586 525.601,-173.584 525.957,-191.591"/>
<polygon fill="#f0f0f0" stroke="#f0f0f0" points="522.462,-191.854 526.159,-201.783 529.46,-191.715 522.462,-191.854"/>
<text text-anchor="middle" x="532" y="-164.6" font-family="Times New Roman,serif" font-size="8.00" fill="#f0f0f0">gen</text>
<text text-anchor="middle" x="532" y="-155.6" font-family="Times New Roman,serif" font-size="8.00" fill="#f0f0f0">4</text>
</g>
<!-- &#45;attrs9 -->
<g id="node22" class="node"><title>&#45;attrs9</title>
<polygon fill="none" stroke="gray" points="610.5,-62 432.5,-62 432.5,-0 616.5,-0 616.5,-56 610.5,-62"/>
<polyline fill="none" stroke="gray" points="610.5,-62 610.5,-56 "/>
<polyline fill="none" stroke="gray" points="616.5,-56 610.5,-56 "/>
<text text-anchor="start" x="442.5" y="-48" font-family="Times New Roman,serif" font-size="10.00">value:</text>
<text text-anchor="start" x="469.5" y="-48" font-family="Times New Roman,serif" font-size="10.00">[[0, 1, 4], [10000, 0, 2], [2, 10000, 0]]</text>
<text text-anchor="start" x="442.5" y="-35" font-family="Times New Roman,serif" font-size="10.00">type:</text>
<text text-anchor="start" x="469.5" y="-35" font-family="Times New Roman,serif" font-size="10.00">name</text>
<text text-anchor="start" x="442.5" y="-22" font-family="Times New Roman,serif" font-size="10.00">label:</text>
<text text-anchor="start" x="469.5" y="-22" font-family="Times New Roman,serif" font-size="10.00">result</text>
<text text-anchor="start" x="442.5" y="-9" font-family="Times New Roman,serif" font-size="10.00">line:</text>
<text text-anchor="start" x="469.5" y="-9" font-family="Times New Roman,serif" font-size="10.00">2</text>
</g>
<!-- &#45;attrs9&#45;&gt;http://example.org/result -->
<g id="edge23" class="edge"><title>&#45;attrs9&#45;&gt;http://example.org/result</title>
<path fill="none" stroke="gray" stroke-dasharray="5,2" d="M524.5,-62.3259C524.5,-74.5443 524.5,-88.1945 524.5,-98.6716"/>
</g>
<!-- http://example.org/assign3&#45;&gt;http://example.org/matrix -->
<g id="edge26" class="edge"><title>http://example.org/assign3&#45;&gt;http://example.org/matrix</title>
<path fill="none" stroke="#f0f0f0" d="M515.013,-238.18C504.688,-252.625 488.426,-273.088 470.5,-287 456.053,-298.212 449.218,-295.653 433.5,-305 428.369,-308.052 423.064,-311.547 418.023,-315.048"/>
<polygon fill="#f0f0f0" stroke="#f0f0f0" points="415.973,-312.211 409.866,-320.869 420.039,-317.909 415.973,-312.211"/>
<text text-anchor="middle" x="495" y="-280.6" font-family="Times New Roman,serif" font-size="8.00" fill="#f0f0f0">use</text>
<text text-anchor="middle" x="495" y="-271.6" font-family="Times New Roman,serif" font-size="8.00" fill="#f0f0f0">4</text>
</g>
</g>
</svg>
