<?xml version="1.0" encoding="UTF-8" standalone="no"?>
<!DOCTYPE svg PUBLIC "-//W3C//DTD SVG 1.1//EN"
 "http://www.w3.org/Graphics/SVG/1.1/DTD/svg11.dtd">
<!-- Generated by graphviz version 2.38.0 (20140413.2041)
 -->
<!-- Title: PROV Pages: 1 -->
<svg width="1152pt" height="210pt"
 viewBox="0.00 0.00 1152.00 210.35" xmlns="http://www.w3.org/2000/svg" xmlns:xlink="http://www.w3.org/1999/xlink">
<g id="graph0" class="graph" transform="scale(0.544939 0.544939) rotate(0) translate(4 382)">
<title>PROV</title>
<polygon fill="white" stroke="none" points="-4,4 -4,-382 2110,-382 2110,4 -4,4"/>
<!-- http://example.org/0 -->
<g id="node1" class="node"><title>http://example.org/0</title>
<g id="a_node1"><a xlink:href="http://example.org/0" xlink:title="0">
<ellipse fill="#fffc87" stroke="#808080" cx="754.5" cy="-360" rx="27" ry="18"/>
<text text-anchor="middle" x="754.5" y="-356.3" font-family="Times New Roman,serif" font-size="14.00">0</text>
</a>
</g>
</g>
<!-- http://example.org/0&#45;attrs -->
<g id="node2" class="node"><title>http://example.org/0&#45;attrs</title>
<polygon fill="none" stroke="gray" points="767,-276 704,-276 704,-227 773,-227 773,-270 767,-276"/>
<polyline fill="none" stroke="gray" points="767,-276 767,-270 "/>
<polyline fill="none" stroke="gray" points="773,-270 767,-270 "/>
<text text-anchor="start" x="714.5" y="-261.5" font-family="Times New Roman,serif" font-size="10.00">value:</text>
<text text-anchor="start" x="741.5" y="-261.5" font-family="Times New Roman,serif" font-size="10.00">0</text>
<text text-anchor="start" x="714.5" y="-248.5" font-family="Times New Roman,serif" font-size="10.00">type:</text>
<text text-anchor="start" x="741.5" y="-248.5" font-family="Times New Roman,serif" font-size="10.00">literal</text>
<text text-anchor="start" x="714.5" y="-235.5" font-family="Times New Roman,serif" font-size="10.00">line:</text>
<text text-anchor="start" x="741.5" y="-235.5" font-family="Times New Roman,serif" font-size="10.00">3</text>
</g>
<!-- http://example.org/0&#45;attrs&#45;&gt;http://example.org/0 -->
<g id="edge1" class="edge"><title>http://example.org/0&#45;attrs&#45;&gt;http://example.org/0</title>
<path fill="none" stroke="gray" stroke-dasharray="5,2" d="M742.051,-276.136C745.052,-296.113 749.279,-324.245 751.953,-342.048"/>
</g>
<!-- http://example.org/1 -->
<g id="node3" class="node"><title>http://example.org/1</title>
<g id="a_node3"><a xlink:href="http://example.org/1" xlink:title="1">
<ellipse fill="#fffc87" stroke="#808080" cx="390.5" cy="-360" rx="27" ry="18"/>
<text text-anchor="middle" x="390.5" y="-356.3" font-family="Times New Roman,serif" font-size="14.00">1</text>
</a>
</g>
</g>
<!-- http://example.org/1&#45;attrs -->
<g id="node4" class="node"><title>http://example.org/1&#45;attrs</title>
<polygon fill="none" stroke="gray" points="524,-276 461,-276 461,-227 530,-227 530,-270 524,-276"/>
<polyline fill="none" stroke="gray" points="524,-276 524,-270 "/>
<polyline fill="none" stroke="gray" points="530,-270 524,-270 "/>
<text text-anchor="start" x="471.5" y="-261.5" font-family="Times New Roman,serif" font-size="10.00">value:</text>
<text text-anchor="start" x="498.5" y="-261.5" font-family="Times New Roman,serif" font-size="10.00">1</text>
<text text-anchor="start" x="471.5" y="-248.5" font-family="Times New Roman,serif" font-size="10.00">type:</text>
<text text-anchor="start" x="498.5" y="-248.5" font-family="Times New Roman,serif" font-size="10.00">literal</text>
<text text-anchor="start" x="471.5" y="-235.5" font-family="Times New Roman,serif" font-size="10.00">line:</text>
<text text-anchor="start" x="498.5" y="-235.5" font-family="Times New Roman,serif" font-size="10.00">3</text>
</g>
<!-- http://example.org/1&#45;attrs&#45;&gt;http://example.org/1 -->
<g id="edge2" class="edge"><title>http://example.org/1&#45;attrs&#45;&gt;http://example.org/1</title>
<path fill="none" stroke="gray" stroke-dasharray="5,2" d="M496.447,-276.219C495.822,-291.47 492.562,-310.826 481.5,-324 465.39,-343.185 437.493,-351.885 416.821,-355.812"/>
</g>
<!-- http://example.org/4 -->
<g id="node5" class="node"><title>http://example.org/4</title>
<g id="a_node5"><a xlink:href="http://example.org/4" xlink:title="4">
<ellipse fill="#fffc87" stroke="#808080" cx="51.5" cy="-360" rx="27" ry="18"/>
<text text-anchor="middle" x="51.5" y="-356.3" font-family="Times New Roman,serif" font-size="14.00">4</text>
</a>
</g>
</g>
<!-- http://example.org/4&#45;attrs -->
<g id="node6" class="node"><title>http://example.org/4&#45;attrs</title>
<polygon fill="none" stroke="gray" points="63,-276 0,-276 0,-227 69,-227 69,-270 63,-276"/>
<polyline fill="none" stroke="gray" points="63,-276 63,-270 "/>
<polyline fill="none" stroke="gray" points="69,-270 63,-270 "/>
<text text-anchor="start" x="10.5" y="-261.5" font-family="Times New Roman,serif" font-size="10.00">value:</text>
<text text-anchor="start" x="37.5" y="-261.5" font-family="Times New Roman,serif" font-size="10.00">4</text>
<text text-anchor="start" x="10.5" y="-248.5" font-family="Times New Roman,serif" font-size="10.00">type:</text>
<text text-anchor="start" x="37.5" y="-248.5" font-family="Times New Roman,serif" font-size="10.00">literal</text>
<text text-anchor="start" x="10.5" y="-235.5" font-family="Times New Roman,serif" font-size="10.00">line:</text>
<text text-anchor="start" x="37.5" y="-235.5" font-family="Times New Roman,serif" font-size="10.00">3</text>
</g>
<!-- http://example.org/4&#45;attrs&#45;&gt;http://example.org/4 -->
<g id="edge3" class="edge"><title>http://example.org/4&#45;attrs&#45;&gt;http://example.org/4</title>
<path fill="none" stroke="gray" stroke-dasharray="5,2" d="M38.2729,-276.136C41.4618,-296.113 45.9522,-324.245 48.794,-342.048"/>
</g>
<!-- http://example.org/2 -->
<g id="node7" class="node"><title>http://example.org/2</title>
<g id="a_node7"><a xlink:href="http://example.org/2" xlink:title="2">
<ellipse fill="#fffc87" stroke="#808080" cx="1861.5" cy="-360" rx="27" ry="18"/>
<text text-anchor="middle" x="1861.5" y="-356.3" font-family="Times New Roman,serif" font-size="14.00">2</text>
</a>
</g>
</g>
<!-- http://example.org/2&#45;attrs -->
<g id="node8" class="node"><title>http://example.org/2&#45;attrs</title>
<polygon fill="none" stroke="gray" points="2100,-276 2037,-276 2037,-227 2106,-227 2106,-270 2100,-276"/>
<polyline fill="none" stroke="gray" points="2100,-276 2100,-270 "/>
<polyline fill="none" stroke="gray" points="2106,-270 2100,-270 "/>
<text text-anchor="start" x="2047.5" y="-261.5" font-family="Times New Roman,serif" font-size="10.00">value:</text>
<text text-anchor="start" x="2074.5" y="-261.5" font-family="Times New Roman,serif" font-size="10.00">2</text>
<text text-anchor="start" x="2047.5" y="-248.5" font-family="Times New Roman,serif" font-size="10.00">type:</text>
<text text-anchor="start" x="2074.5" y="-248.5" font-family="Times New Roman,serif" font-size="10.00">literal</text>
<text text-anchor="start" x="2047.5" y="-235.5" font-family="Times New Roman,serif" font-size="10.00">line:</text>
<text text-anchor="start" x="2074.5" y="-235.5" font-family="Times New Roman,serif" font-size="10.00">4</text>
</g>
<!-- http://example.org/2&#45;attrs&#45;&gt;http://example.org/2 -->
<g id="edge4" class="edge"><title>http://example.org/2&#45;attrs&#45;&gt;http://example.org/2</title>
<path fill="none" stroke="gray" stroke-dasharray="5,2" d="M2073.25,-276.268C2073.04,-291.939 2069.95,-311.76 2057.5,-324 2033.96,-347.147 1936.44,-355.237 1888.44,-357.853"/>
</g>
<!-- http://example.org/matrix#1 -->
<g id="node9" class="node"><title>http://example.org/matrix#1</title>
<g id="a_node9"><a xlink:href="http://example.org/matrix#1" xlink:title="matrix#1">
<ellipse fill="#fffc87" stroke="#808080" cx="1139.5" cy="-130" rx="42.4939" ry="18"/>
<text text-anchor="middle" x="1139.5" y="-126.3" font-family="Times New Roman,serif" font-size="14.00">matrix#1</text>
</a>
</g>
</g>
<!-- http://example.org/matrix0#1 -->
<g id="node11" class="node"><title>http://example.org/matrix0#1</title>
<g id="a_node11"><a xlink:href="http://example.org/matrix0#1" xlink:title="matrix0#1">
<ellipse fill="#fffc87" stroke="#808080" cx="340.5" cy="-251.5" rx="46.5926" ry="18"/>
<text text-anchor="middle" x="340.5" y="-247.8" font-family="Times New Roman,serif" font-size="14.00">matrix0#1</text>
</a>
</g>
</g>
<!-- http://example.org/matrix#1&#45;&gt;http://example.org/matrix0#1 -->
<g id="edge10" class="edge"><title>http://example.org/matrix#1&#45;&gt;http://example.org/matrix0#1</title>
<path fill="none" stroke="black" d="M1118.65,-146.056C1109.78,-151.704 1099.05,-157.578 1088.5,-161 1008.66,-186.893 984.01,-170.539 900.5,-179 700.83,-199.231 649.706,-195.508 451.5,-227 430.875,-230.277 408.296,-234.87 388.918,-239.127"/>
<polygon fill="black" stroke="black" points="388.103,-235.723 379.104,-241.314 389.626,-242.555 388.103,-235.723"/>
<text text-anchor="middle" x="998" y="-197.8" font-family="Times New Roman,serif" font-size="14.00">put [0]</text>
<text text-anchor="middle" x="998" y="-182.8" font-family="Times New Roman,serif" font-size="14.00">ckpt: 2018&#45;06&#45;10T17:30:49.490979</text>
</g>
<!-- http://example.org/matrix1#1 -->
<g id="node13" class="node"><title>http://example.org/matrix1#1</title>
<g id="a_node13"><a xlink:href="http://example.org/matrix1#1" xlink:title="matrix1#1">
<ellipse fill="#fffc87" stroke="#808080" cx="1425.5" cy="-251.5" rx="46.5926" ry="18"/>
<text text-anchor="middle" x="1425.5" y="-247.8" font-family="Times New Roman,serif" font-size="14.00">matrix1#1</text>
</a>
</g>
</g>
<!-- http://example.org/matrix#1&#45;&gt;http://example.org/matrix1#1 -->
<g id="edge15" class="edge"><title>http://example.org/matrix#1&#45;&gt;http://example.org/matrix1#1</title>
<path fill="none" stroke="black" d="M1179.96,-135.254C1214.42,-140.614 1263.72,-152.573 1298.5,-179 1311.07,-188.548 1305.29,-198.996 1317.5,-209 1334.38,-222.833 1356.38,-232.399 1376.12,-238.829"/>
<polygon fill="black" stroke="black" points="1375.31,-242.241 1385.9,-241.825 1377.36,-235.548 1375.31,-242.241"/>
<text text-anchor="middle" x="1415" y="-197.8" font-family="Times New Roman,serif" font-size="14.00">put [1]</text>
<text text-anchor="middle" x="1415" y="-182.8" font-family="Times New Roman,serif" font-size="14.00">ckpt: 2018&#45;06&#45;10T17:30:49.490979</text>
</g>
<!-- http://example.org/matrix2#1 -->
<g id="node16" class="node"><title>http://example.org/matrix2#1</title>
<g id="a_node16"><a xlink:href="http://example.org/matrix2#1" xlink:title="matrix2#1">
<ellipse fill="#fffc87" stroke="#808080" cx="1102.5" cy="-251.5" rx="46.5926" ry="18"/>
<text text-anchor="middle" x="1102.5" y="-247.8" font-family="Times New Roman,serif" font-size="14.00">matrix2#1</text>
</a>
</g>
</g>
<!-- http://example.org/matrix#1&#45;&gt;http://example.org/matrix2#1 -->
<g id="edge20" class="edge"><title>http://example.org/matrix#1&#45;&gt;http://example.org/matrix2#1</title>
<path fill="none" stroke="black" d="M1123.61,-146.8C1115.97,-155.507 1107.6,-166.972 1103.5,-179 1098.72,-192.999 1098.18,-209.456 1098.96,-223.05"/>
<polygon fill="black" stroke="black" points="1095.49,-223.564 1099.81,-233.236 1102.46,-222.978 1095.49,-223.564"/>
<text text-anchor="middle" x="1201" y="-197.8" font-family="Times New Roman,serif" font-size="14.00">put [2]</text>
<text text-anchor="middle" x="1201" y="-182.8" font-family="Times New Roman,serif" font-size="14.00">ckpt: 2018&#45;06&#45;10T17:30:49.490979</text>
</g>
<!-- http://example.org/matrix#1&#45;attrs -->
<g id="node10" class="node"><title>http://example.org/matrix#1&#45;attrs</title>
<polygon fill="none" stroke="gray" points="1225.5,-62 1047.5,-62 1047.5,-0 1231.5,-0 1231.5,-56 1225.5,-62"/>
<polyline fill="none" stroke="gray" points="1225.5,-62 1225.5,-56 "/>
<polyline fill="none" stroke="gray" points="1231.5,-56 1225.5,-56 "/>
<text text-anchor="start" x="1057.5" y="-48" font-family="Times New Roman,serif" font-size="10.00">value:</text>
<text text-anchor="start" x="1084.5" y="-48" font-family="Times New Roman,serif" font-size="10.00">[[0, 1, 4], [10000, 0, 2], [2, 10000, 0]]</text>
<text text-anchor="start" x="1057.5" y="-35" font-family="Times New Roman,serif" font-size="10.00">type:</text>
<text text-anchor="start" x="1084.5" y="-35" font-family="Times New Roman,serif" font-size="10.00">list</text>
<text text-anchor="start" x="1057.5" y="-22" font-family="Times New Roman,serif" font-size="10.00">label:</text>
<text text-anchor="start" x="1084.5" y="-22" font-family="Times New Roman,serif" font-size="10.00">[[0, 1, 4], [m, 0, 2], [2, m, 0]]</text>
<text text-anchor="start" x="1057.5" y="-9" font-family="Times New Roman,serif" font-size="10.00">line:</text>
<text text-anchor="start" x="1084.5" y="-9" font-family="Times New Roman,serif" font-size="10.00">2</text>
</g>
<!-- http://example.org/matrix#1&#45;attrs&#45;&gt;http://example.org/matrix#1 -->
<g id="edge5" class="edge"><title>http://example.org/matrix#1&#45;attrs&#45;&gt;http://example.org/matrix#1</title>
<path fill="none" stroke="gray" stroke-dasharray="5,2" d="M1139.5,-62.1597C1139.5,-78.5103 1139.5,-98.1223 1139.5,-111.859"/>
</g>
<!-- http://example.org/matrix0#1&#45;&gt;http://example.org/0 -->
<g id="edge7" class="edge"><title>http://example.org/matrix0#1&#45;&gt;http://example.org/0</title>
<path fill="none" stroke="black" d="M379.275,-261.592C408.837,-269.003 450.318,-280.439 485.5,-294 513.691,-304.866 517.745,-314.729 546.5,-324 604.654,-342.749 675.365,-351.927 717.558,-356.044"/>
<polygon fill="black" stroke="black" points="717.364,-359.541 727.645,-356.985 718.014,-352.572 717.364,-359.541"/>
<text text-anchor="middle" x="644" y="-312.8" font-family="Times New Roman,serif" font-size="14.00">put [0]</text>
<text text-anchor="middle" x="644" y="-297.8" font-family="Times New Roman,serif" font-size="14.00">ckpt: 2018&#45;06&#45;10T17:30:49.490979</text>
</g>
<!-- http://example.org/matrix0#1&#45;&gt;http://example.org/1 -->
<g id="edge8" class="edge"><title>http://example.org/matrix0#1&#45;&gt;http://example.org/1</title>
<path fill="none" stroke="black" d="M313.451,-266.214C303.026,-273.03 292.248,-282.333 286.5,-294 280.607,-305.961 278.719,-313.172 286.5,-324 301.607,-345.023 329.98,-353.589 353.278,-356.999"/>
<polygon fill="black" stroke="black" points="352.882,-360.477 363.229,-358.198 353.719,-353.527 352.882,-360.477"/>
<text text-anchor="middle" x="384" y="-312.8" font-family="Times New Roman,serif" font-size="14.00">put [1]</text>
<text text-anchor="middle" x="384" y="-297.8" font-family="Times New Roman,serif" font-size="14.00">ckpt: 2018&#45;06&#45;10T17:30:49.490979</text>
</g>
<!-- http://example.org/matrix0#1&#45;&gt;http://example.org/4 -->
<g id="edge9" class="edge"><title>http://example.org/matrix0#1&#45;&gt;http://example.org/4</title>
<path fill="none" stroke="black" d="M294.427,-254.831C229.458,-258.954 115.186,-269.53 82.5,-294 70.138,-303.255 62.4884,-318.71 57.8817,-332.229"/>
<polygon fill="black" stroke="black" points="54.4552,-331.469 54.9244,-342.054 61.1581,-333.487 54.4552,-331.469"/>
<text text-anchor="middle" x="180" y="-312.8" font-family="Times New Roman,serif" font-size="14.00">put [2]</text>
<text text-anchor="middle" x="180" y="-297.8" font-family="Times New Roman,serif" font-size="14.00">ckpt: 2018&#45;06&#45;10T17:30:49.490979</text>
</g>
<!-- http://example.org/matrix0#1&#45;attrs -->
<g id="node12" class="node"><title>http://example.org/matrix0#1&#45;attrs</title>
<polygon fill="none" stroke="gray" points="372.5,-161 302.5,-161 302.5,-99 378.5,-99 378.5,-155 372.5,-161"/>
<polyline fill="none" stroke="gray" points="372.5,-161 372.5,-155 "/>
<polyline fill="none" stroke="gray" points="378.5,-155 372.5,-155 "/>
<text text-anchor="start" x="312.5" y="-147" font-family="Times New Roman,serif" font-size="10.00">value:</text>
<text text-anchor="start" x="339.5" y="-147" font-family="Times New Roman,serif" font-size="10.00">[0, 1, 4]</text>
<text text-anchor="start" x="312.5" y="-134" font-family="Times New Roman,serif" font-size="10.00">type:</text>
<text text-anchor="start" x="339.5" y="-134" font-family="Times New Roman,serif" font-size="10.00">list</text>
<text text-anchor="start" x="312.5" y="-121" font-family="Times New Roman,serif" font-size="10.00">label:</text>
<text text-anchor="start" x="339.5" y="-121" font-family="Times New Roman,serif" font-size="10.00">[0, 1, 4]</text>
<text text-anchor="start" x="312.5" y="-108" font-family="Times New Roman,serif" font-size="10.00">line:</text>
<text text-anchor="start" x="339.5" y="-108" font-family="Times New Roman,serif" font-size="10.00">3</text>
</g>
<!-- http://example.org/matrix0#1&#45;attrs&#45;&gt;http://example.org/matrix0#1 -->
<g id="edge6" class="edge"><title>http://example.org/matrix0#1&#45;attrs&#45;&gt;http://example.org/matrix0#1</title>
<path fill="none" stroke="gray" stroke-dasharray="5,2" d="M340.5,-161.155C340.5,-183.972 340.5,-214.492 340.5,-233.307"/>
</g>
<!-- http://example.org/matrix1#1&#45;&gt;http://example.org/0 -->
<g id="edge13" class="edge"><title>http://example.org/matrix1#1&#45;&gt;http://example.org/0</title>
<path fill="none" stroke="black" d="M1380.26,-256.516C1268.99,-266.427 990.675,-291.439 986.5,-294 973.047,-302.253 980.662,-315.291 967.5,-324 939.226,-342.708 844.516,-352.455 791.406,-356.563"/>
<polygon fill="black" stroke="black" points="791.083,-353.077 781.371,-357.31 791.603,-360.058 791.083,-353.077"/>
<text text-anchor="middle" x="1084" y="-312.8" font-family="Times New Roman,serif" font-size="14.00">put [1]</text>
<text text-anchor="middle" x="1084" y="-297.8" font-family="Times New Roman,serif" font-size="14.00">ckpt: 2018&#45;06&#45;10T17:30:49.490979</text>
</g>
<!-- http://example.org/matrix1#1&#45;&gt;http://example.org/2 -->
<g id="edge14" class="edge"><title>http://example.org/matrix1#1&#45;&gt;http://example.org/2</title>
<path fill="none" stroke="black" d="M1471.82,-254.343C1573.86,-258.799 1811.2,-271.482 1839.5,-294 1850.9,-303.073 1856.43,-318.313 1859.1,-331.756"/>
<polygon fill="black" stroke="black" points="1855.69,-332.651 1860.68,-342 1862.61,-331.583 1855.69,-332.651"/>
<text text-anchor="middle" x="1954" y="-312.8" font-family="Times New Roman,serif" font-size="14.00">put [2]</text>
<text text-anchor="middle" x="1954" y="-297.8" font-family="Times New Roman,serif" font-size="14.00">ckpt: 2018&#45;06&#45;10T17:30:49.490979</text>
</g>
<!-- http://example.org/m -->
<g id="node15" class="node"><title>http://example.org/m</title>
<ellipse fill="none" stroke="black" cx="1316.5" cy="-360" rx="85.2851" ry="18"/>
<text text-anchor="middle" x="1316.5" y="-356.3" font-family="Times New Roman,serif" font-size="14.00">http://example.org/m</text>
</g>
<!-- http://example.org/matrix1#1&#45;&gt;http://example.org/m -->
<g id="edge12" class="edge"><title>http://example.org/matrix1#1&#45;&gt;http://example.org/m</title>
<path fill="none" stroke="black" d="M1424.37,-269.574C1422.45,-285.498 1417.3,-308.989 1403.5,-324 1396.81,-331.281 1388.39,-337.077 1379.45,-341.684"/>
<polygon fill="black" stroke="black" points="1377.96,-338.514 1370.37,-345.904 1380.91,-344.861 1377.96,-338.514"/>
<text text-anchor="middle" x="1516" y="-312.8" font-family="Times New Roman,serif" font-size="14.00">put [0]</text>
<text text-anchor="middle" x="1516" y="-297.8" font-family="Times New Roman,serif" font-size="14.00">ckpt: 2018&#45;06&#45;10T17:30:49.490979</text>
</g>
<!-- http://example.org/matrix1#1&#45;attrs -->
<g id="node14" class="node"><title>http://example.org/matrix1#1&#45;attrs</title>
<polygon fill="none" stroke="gray" points="1571.5,-161 1483.5,-161 1483.5,-99 1577.5,-99 1577.5,-155 1571.5,-161"/>
<polyline fill="none" stroke="gray" points="1571.5,-161 1571.5,-155 "/>
<polyline fill="none" stroke="gray" points="1577.5,-155 1571.5,-155 "/>
<text text-anchor="start" x="1493.5" y="-147" font-family="Times New Roman,serif" font-size="10.00">value:</text>
<text text-anchor="start" x="1520.5" y="-147" font-family="Times New Roman,serif" font-size="10.00">[10000, 0, 2]</text>
<text text-anchor="start" x="1493.5" y="-134" font-family="Times New Roman,serif" font-size="10.00">type:</text>
<text text-anchor="start" x="1520.5" y="-134" font-family="Times New Roman,serif" font-size="10.00">list</text>
<text text-anchor="start" x="1493.5" y="-121" font-family="Times New Roman,serif" font-size="10.00">label:</text>
<text text-anchor="start" x="1520.5" y="-121" font-family="Times New Roman,serif" font-size="10.00">[m, 0, 2]</text>
<text text-anchor="start" x="1493.5" y="-108" font-family="Times New Roman,serif" font-size="10.00">line:</text>
<text text-anchor="start" x="1520.5" y="-108" font-family="Times New Roman,serif" font-size="10.00">4</text>
</g>
<!-- http://example.org/matrix1#1&#45;attrs&#45;&gt;http://example.org/matrix1#1 -->
<g id="edge11" class="edge"><title>http://example.org/matrix1#1&#45;attrs&#45;&gt;http://example.org/matrix1#1</title>
<path fill="none" stroke="gray" stroke-dasharray="5,2" d="M1531.52,-161.08C1530.57,-176.804 1526.96,-195.525 1516.5,-209 1503.83,-225.32 1483.27,-235.435 1464.9,-241.587"/>
</g>
<!-- http://example.org/matrix2#1&#45;&gt;http://example.org/0 -->
<g id="edge19" class="edge"><title>http://example.org/matrix2#1&#45;&gt;http://example.org/0</title>
<path fill="none" stroke="black" d="M1055.64,-252.203C974.825,-252.67 813.888,-258.218 772.5,-294 761.736,-303.306 757.135,-318.422 755.272,-331.737"/>
<polygon fill="black" stroke="black" points="751.769,-331.594 754.299,-341.883 758.737,-332.263 751.769,-331.594"/>
<text text-anchor="middle" x="870" y="-312.8" font-family="Times New Roman,serif" font-size="14.00">put [2]</text>
<text text-anchor="middle" x="870" y="-297.8" font-family="Times New Roman,serif" font-size="14.00">ckpt: 2018&#45;06&#45;10T17:30:49.490979</text>
</g>
<!-- http://example.org/matrix2#1&#45;&gt;http://example.org/2 -->
<g id="edge17" class="edge"><title>http://example.org/matrix2#1&#45;&gt;http://example.org/2</title>
<path fill="none" stroke="black" d="M1147.36,-256.66C1200.4,-261.529 1291.34,-269.725 1369.5,-276 1424.58,-280.422 1568.87,-267.772 1617.5,-294 1632.29,-301.975 1626.06,-315.407 1640.5,-324 1670.86,-342.068 1769.63,-352.129 1824.28,-356.441"/>
<polygon fill="black" stroke="black" points="1824.35,-359.956 1834.59,-357.227 1824.88,-352.976 1824.35,-359.956"/>
<text text-anchor="middle" x="1738" y="-312.8" font-family="Times New Roman,serif" font-size="14.00">put [0]</text>
<text text-anchor="middle" x="1738" y="-297.8" font-family="Times New Roman,serif" font-size="14.00">ckpt: 2018&#45;06&#45;10T17:30:49.490979</text>
</g>
<!-- http://example.org/matrix2#1&#45;&gt;http://example.org/m -->
<g id="edge18" class="edge"><title>http://example.org/matrix2#1&#45;&gt;http://example.org/m</title>
<path fill="none" stroke="black" d="M1135.74,-264.217C1152.02,-271.108 1171.16,-281.037 1185.5,-294 1197.21,-304.583 1191.98,-314.392 1204.5,-324 1216.12,-332.918 1230.05,-339.588 1244.07,-344.568"/>
<polygon fill="black" stroke="black" points="1243.18,-347.958 1253.77,-347.753 1245.36,-341.307 1243.18,-347.958"/>
<text text-anchor="middle" x="1302" y="-312.8" font-family="Times New Roman,serif" font-size="14.00">put [1]</text>
<text text-anchor="middle" x="1302" y="-297.8" font-family="Times New Roman,serif" font-size="14.00">ckpt: 2018&#45;06&#45;10T17:30:49.490979</text>
</g>
<!-- http://example.org/matrix2#1&#45;attrs -->
<g id="node17" class="node"><title>http://example.org/matrix2#1&#45;attrs</title>
<polygon fill="none" stroke="gray" points="1073.5,-161 985.5,-161 985.5,-99 1079.5,-99 1079.5,-155 1073.5,-161"/>
<polyline fill="none" stroke="gray" points="1073.5,-161 1073.5,-155 "/>
<polyline fill="none" stroke="gray" points="1079.5,-155 1073.5,-155 "/>
<text text-anchor="start" x="995.5" y="-147" font-family="Times New Roman,serif" font-size="10.00">value:</text>
<text text-anchor="start" x="1022.5" y="-147" font-family="Times New Roman,serif" font-size="10.00">[2, 10000, 0]</text>
<text text-anchor="start" x="995.5" y="-134" font-family="Times New Roman,serif" font-size="10.00">type:</text>
<text text-anchor="start" x="1022.5" y="-134" font-family="Times New Roman,serif" font-size="10.00">list</text>
<text text-anchor="start" x="995.5" y="-121" font-family="Times New Roman,serif" font-size="10.00">label:</text>
<text text-anchor="start" x="1022.5" y="-121" font-family="Times New Roman,serif" font-size="10.00">[2, m, 0]</text>
<text text-anchor="start" x="995.5" y="-108" font-family="Times New Roman,serif" font-size="10.00">line:</text>
<text text-anchor="start" x="1022.5" y="-108" font-family="Times New Roman,serif" font-size="10.00">5</text>
</g>
<!-- http://example.org/matrix2#1&#45;attrs&#45;&gt;http://example.org/matrix2#1 -->
<g id="edge16" class="edge"><title>http://example.org/matrix2#1&#45;attrs&#45;&gt;http://example.org/matrix2#1</title>
<path fill="none" stroke="gray" stroke-dasharray="5,2" d="M1050.16,-161.155C1063.61,-184.11 1081.62,-214.862 1092.63,-233.648"/>
</g>
</g>
</svg>
