<?xml version="1.0" encoding="UTF-8" standalone="no"?>
<!DOCTYPE svg PUBLIC "-//W3C//DTD SVG 1.1//EN"
 "http://www.w3.org/Graphics/SVG/1.1/DTD/svg11.dtd">
<!-- Generated by graphviz version 2.38.0 (20140413.2041)
 -->
<!-- Title: PROV Pages: 1 -->
<svg width="604pt" height="427pt"
 viewBox="0.00 0.00 604.00 427.00" xmlns="http://www.w3.org/2000/svg" xmlns:xlink="http://www.w3.org/1999/xlink">
<g id="graph0" class="graph" transform="scale(1 1) rotate(0) translate(4 423)">
<title>PROV</title>
<polygon fill="white" stroke="none" points="-4,4 -4,-423 600,-423 600,4 -4,4"/>
<!-- http://example.org/2 -->
<g id="node1" class="node"><title>http://example.org/2</title>
<g id="a_node1"><a xlink:href="http://example.org/2" xlink:title="2">
<ellipse fill="#fffc87" stroke="#808080" cx="104.5" cy="-401" rx="27" ry="18"/>
<text text-anchor="middle" x="104.5" y="-397.3" font-family="Times New Roman,serif" font-size="14.00">2</text>
</a>
</g>
</g>
<!-- &#45;attrs0 -->
<g id="node2" class="node"><title>&#45;attrs0</title>
<polygon fill="none" stroke="gray" points="169,-320 0,-320 0,-271 175,-271 175,-314 169,-320"/>
<polyline fill="none" stroke="gray" points="169,-320 169,-314 "/>
<polyline fill="none" stroke="gray" points="175,-314 169,-314 "/>
<text text-anchor="start" x="10.5" y="-305.5" font-family="Times New Roman,serif" font-size="10.00">value:</text>
<text text-anchor="start" x="59.5" y="-305.5" font-family="Times New Roman,serif" font-size="10.00">2</text>
<text text-anchor="start" x="10.5" y="-292.5" font-family="Times New Roman,serif" font-size="10.00">type:</text>
<text text-anchor="start" x="59.5" y="-292.5" font-family="Times New Roman,serif" font-size="10.00">literal</text>
<text text-anchor="start" x="10.5" y="-279.5" font-family="Times New Roman,serif" font-size="10.00">checkpoint:</text>
<text text-anchor="start" x="59.5" y="-279.5" font-family="Times New Roman,serif" font-size="10.00">2018&#45;03&#45;12 13:12:14.598330</text>
</g>
<!-- &#45;attrs0&#45;&gt;http://example.org/2 -->
<g id="edge1" class="edge"><title>&#45;attrs0&#45;&gt;http://example.org/2</title>
<path fill="none" stroke="gray" stroke-dasharray="5,2" d="M91.4001,-320.245C94.537,-339.343 98.8699,-365.723 101.678,-382.822"/>
</g>
<!-- http://example.org/0 -->
<g id="node3" class="node"><title>http://example.org/0</title>
<g id="a_node3"><a xlink:href="http://example.org/0" xlink:title="0">
<ellipse fill="#fffc87" stroke="#808080" cx="446.5" cy="-401" rx="27" ry="18"/>
<text text-anchor="middle" x="446.5" y="-397.3" font-family="Times New Roman,serif" font-size="14.00">0</text>
</a>
</g>
</g>
<!-- &#45;attrs1 -->
<g id="node4" class="node"><title>&#45;attrs1</title>
<polygon fill="none" stroke="gray" points="590,-320 421,-320 421,-271 596,-271 596,-314 590,-320"/>
<polyline fill="none" stroke="gray" points="590,-320 590,-314 "/>
<polyline fill="none" stroke="gray" points="596,-314 590,-314 "/>
<text text-anchor="start" x="431.5" y="-305.5" font-family="Times New Roman,serif" font-size="10.00">value:</text>
<text text-anchor="start" x="480.5" y="-305.5" font-family="Times New Roman,serif" font-size="10.00">0</text>
<text text-anchor="start" x="431.5" y="-292.5" font-family="Times New Roman,serif" font-size="10.00">type:</text>
<text text-anchor="start" x="480.5" y="-292.5" font-family="Times New Roman,serif" font-size="10.00">literal</text>
<text text-anchor="start" x="431.5" y="-279.5" font-family="Times New Roman,serif" font-size="10.00">checkpoint:</text>
<text text-anchor="start" x="480.5" y="-279.5" font-family="Times New Roman,serif" font-size="10.00">2018&#45;03&#45;12 13:12:14.598330</text>
</g>
<!-- &#45;attrs1&#45;&gt;http://example.org/0 -->
<g id="edge2" class="edge"><title>&#45;attrs1&#45;&gt;http://example.org/0</title>
<path fill="none" stroke="gray" stroke-dasharray="5,2" d="M507.864,-320.3C506.508,-334.268 503.031,-351.725 494.5,-365 487.921,-375.238 477.208,-383.474 467.571,-389.379"/>
</g>
<!-- http://example.org/list -->
<g id="node5" class="node"><title>http://example.org/list</title>
<g id="a_node5"><a xlink:href="http://example.org/list" xlink:title="list">
<ellipse fill="#fffc87" stroke="#808080" cx="252.5" cy="-295.5" rx="27" ry="18"/>
<text text-anchor="middle" x="252.5" y="-291.8" font-family="Times New Roman,serif" font-size="14.00">list</text>
</a>
</g>
</g>
<!-- http://example.org/list&#45;&gt;http://example.org/2 -->
<g id="edge4" class="edge"><title>http://example.org/list&#45;&gt;http://example.org/2</title>
<path fill="none" stroke="black" d="M228.948,-304.683C196.89,-315.889 143.063,-334.972 139.5,-338 128.278,-347.537 119.92,-361.627 114.191,-373.966"/>
<polygon fill="black" stroke="black" points="110.885,-372.796 110.156,-383.366 117.317,-375.557 110.885,-372.796"/>
<text text-anchor="middle" x="194" y="-358.6" font-family="Times New Roman,serif" font-size="8.00">der&#45;ins</text>
<text text-anchor="middle" x="194" y="-349.6" font-family="Times New Roman,serif" font-size="8.00">[0]</text>
<text text-anchor="middle" x="194" y="-340.6" font-family="Times New Roman,serif" font-size="8.00">2018&#45;03&#45;12T13:12:14.598330</text>
</g>
<!-- http://example.org/list&#45;&gt;http://example.org/0 -->
<g id="edge6" class="edge"><title>http://example.org/list&#45;&gt;http://example.org/0</title>
<path fill="none" stroke="black" d="M278.219,-301.623C301.988,-307.354 337.329,-318.498 362.5,-338 374.099,-346.987 370.524,-355.261 381.5,-365 391.237,-373.639 403.478,-380.933 414.705,-386.588"/>
<polygon fill="black" stroke="black" points="413.287,-389.79 423.819,-390.947 416.308,-383.475 413.287,-389.79"/>
<text text-anchor="middle" x="436" y="-358.6" font-family="Times New Roman,serif" font-size="8.00">der&#45;ins</text>
<text text-anchor="middle" x="436" y="-349.6" font-family="Times New Roman,serif" font-size="8.00">[2]</text>
<text text-anchor="middle" x="436" y="-340.6" font-family="Times New Roman,serif" font-size="8.00">2018&#45;03&#45;12T13:12:14.598330</text>
</g>
<!-- http://example.org/m -->
<g id="node7" class="node"><title>http://example.org/m</title>
<ellipse fill="none" stroke="black" cx="252.5" cy="-401" rx="85.2851" ry="18"/>
<text text-anchor="middle" x="252.5" y="-397.3" font-family="Times New Roman,serif" font-size="14.00">http://example.org/m</text>
</g>
<!-- http://example.org/list&#45;&gt;http://example.org/m -->
<g id="edge5" class="edge"><title>http://example.org/list&#45;&gt;http://example.org/m</title>
<path fill="none" stroke="black" d="M252.5,-313.591C252.5,-329.697 252.5,-354.091 252.5,-372.858"/>
<polygon fill="black" stroke="black" points="249,-372.884 252.5,-382.884 256,-372.884 249,-372.884"/>
<text text-anchor="middle" x="307" y="-358.6" font-family="Times New Roman,serif" font-size="8.00">der&#45;ins</text>
<text text-anchor="middle" x="307" y="-349.6" font-family="Times New Roman,serif" font-size="8.00">[1]</text>
<text text-anchor="middle" x="307" y="-340.6" font-family="Times New Roman,serif" font-size="8.00">2018&#45;03&#45;12T13:12:14.598330</text>
</g>
<!-- &#45;attrs2 -->
<g id="node6" class="node"><title>&#45;attrs2</title>
<polygon fill="none" stroke="gray" points="210,-234 41,-234 41,-172 216,-172 216,-228 210,-234"/>
<polyline fill="none" stroke="gray" points="210,-234 210,-228 "/>
<polyline fill="none" stroke="gray" points="216,-228 210,-228 "/>
<text text-anchor="start" x="51.5" y="-220" font-family="Times New Roman,serif" font-size="10.00">value:</text>
<text text-anchor="start" x="100.5" y="-220" font-family="Times New Roman,serif" font-size="10.00">[2, 10000, 0]</text>
<text text-anchor="start" x="51.5" y="-207" font-family="Times New Roman,serif" font-size="10.00">type:</text>
<text text-anchor="start" x="100.5" y="-207" font-family="Times New Roman,serif" font-size="10.00">list</text>
<text text-anchor="start" x="51.5" y="-194" font-family="Times New Roman,serif" font-size="10.00">label:</text>
<text text-anchor="start" x="100.5" y="-194" font-family="Times New Roman,serif" font-size="10.00">[2, m, 0]</text>
<text text-anchor="start" x="51.5" y="-181" font-family="Times New Roman,serif" font-size="10.00">checkpoint:</text>
<text text-anchor="start" x="100.5" y="-181" font-family="Times New Roman,serif" font-size="10.00">2018&#45;03&#45;12 13:12:14.598330</text>
</g>
<!-- &#45;attrs2&#45;&gt;http://example.org/list -->
<g id="edge3" class="edge"><title>&#45;attrs2&#45;&gt;http://example.org/list</title>
<path fill="none" stroke="gray" stroke-dasharray="5,2" d="M169.79,-234.135C191.912,-250.281 218.009,-269.327 234.884,-281.643"/>
</g>
<!-- http://example.org/lastrow -->
<g id="node8" class="node"><title>http://example.org/lastrow</title>
<g id="a_node8"><a xlink:href="http://example.org/lastrow" xlink:title="lastrow">
<ellipse fill="#fffc87" stroke="#808080" cx="264.5" cy="-117" rx="37.0935" ry="18"/>
<text text-anchor="middle" x="264.5" y="-113.3" font-family="Times New Roman,serif" font-size="14.00">lastrow</text>
</a>
</g>
</g>
<!-- http://example.org/lastrow&#45;&gt;http://example.org/list -->
<g id="edge8" class="edge"><title>http://example.org/lastrow&#45;&gt;http://example.org/list</title>
<path fill="none" stroke="#f0f0f0" d="M263.328,-135.245C261.234,-166.035 256.839,-230.677 254.34,-267.434"/>
<polygon fill="#f0f0f0" stroke="#f0f0f0" points="250.846,-267.231 253.66,-277.445 257.83,-267.705 250.846,-267.231"/>
<text text-anchor="middle" x="316" y="-205.6" font-family="Times New Roman,serif" font-size="8.00" fill="#f0f0f0">der ref</text>
<text text-anchor="middle" x="316" y="-196.6" font-family="Times New Roman,serif" font-size="8.00" fill="#f0f0f0">2018&#45;03&#45;12T13:12:14.676462</text>
</g>
<!-- http://example.org/assign2 -->
<g id="node10" class="node"><title>http://example.org/assign2</title>
<g id="a_node10"><a xlink:href="http://example.org/assign2" xlink:title="assign2">
<polygon fill="#fafafa" stroke="#f0f0f0" points="437.5,-221 379.5,-221 379.5,-185 437.5,-185 437.5,-221"/>
<text text-anchor="middle" x="408.5" y="-199.3" font-family="Times New Roman,serif" font-size="14.00" fill="#f0f0f0">assign2</text>
</a>
</g>
</g>
<!-- http://example.org/lastrow&#45;&gt;http://example.org/assign2 -->
<g id="edge10" class="edge"><title>http://example.org/lastrow&#45;&gt;http://example.org/assign2</title>
<path fill="none" stroke="#f0f0f0" d="M289.866,-130.51C310.576,-140.972 340.413,-156.617 365.5,-172 369.167,-174.248 372.944,-176.689 376.668,-179.174"/>
<polygon fill="#f0f0f0" stroke="#f0f0f0" points="374.946,-182.236 385.178,-184.983 378.892,-176.454 374.946,-182.236"/>
<text text-anchor="middle" x="302.436" y="-120.425" font-family="Times New Roman,serif" font-size="8.00" fill="#f0f0f0">gen</text>
</g>
<!-- &#45;attrs3 -->
<g id="node9" class="node"><title>&#45;attrs3</title>
<polygon fill="none" stroke="gray" points="346,-62 177,-62 177,-0 352,-0 352,-56 346,-62"/>
<polyline fill="none" stroke="gray" points="346,-62 346,-56 "/>
<polyline fill="none" stroke="gray" points="352,-56 346,-56 "/>
<text text-anchor="start" x="187.5" y="-48" font-family="Times New Roman,serif" font-size="10.00">value:</text>
<text text-anchor="start" x="236.5" y="-48" font-family="Times New Roman,serif" font-size="10.00">[2, 10000, 0]</text>
<text text-anchor="start" x="187.5" y="-35" font-family="Times New Roman,serif" font-size="10.00">type:</text>
<text text-anchor="start" x="236.5" y="-35" font-family="Times New Roman,serif" font-size="10.00">name</text>
<text text-anchor="start" x="187.5" y="-22" font-family="Times New Roman,serif" font-size="10.00">label:</text>
<text text-anchor="start" x="236.5" y="-22" font-family="Times New Roman,serif" font-size="10.00">lastrow</text>
<text text-anchor="start" x="187.5" y="-9" font-family="Times New Roman,serif" font-size="10.00">checkpoint:</text>
<text text-anchor="start" x="236.5" y="-9" font-family="Times New Roman,serif" font-size="10.00">2018&#45;03&#45;12 13:12:14.676462</text>
</g>
<!-- &#45;attrs3&#45;&gt;http://example.org/lastrow -->
<g id="edge7" class="edge"><title>&#45;attrs3&#45;&gt;http://example.org/lastrow</title>
<path fill="none" stroke="gray" stroke-dasharray="5,2" d="M264.5,-62.3259C264.5,-74.5443 264.5,-88.1945 264.5,-98.6716"/>
</g>
<!-- http://example.org/assign2&#45;&gt;http://example.org/list -->
<g id="edge9" class="edge"><title>http://example.org/assign2&#45;&gt;http://example.org/list</title>
<path fill="none" stroke="#f0f0f0" d="M385.176,-221.014C378.887,-225.396 372.017,-230.001 365.5,-234 338.161,-250.775 305.785,-267.84 282.711,-279.55"/>
<polygon fill="#f0f0f0" stroke="#f0f0f0" points="281.096,-276.444 273.741,-284.07 284.246,-282.696 281.096,-276.444"/>
<text text-anchor="middle" x="386.419" y="-234.063" font-family="Times New Roman,serif" font-size="8.00" fill="#f0f0f0">use</text>
</g>
</g>
</svg>
