<?xml version="1.0" encoding="UTF-8" standalone="no"?>
<!DOCTYPE svg PUBLIC "-//W3C//DTD SVG 1.1//EN"
 "http://www.w3.org/Graphics/SVG/1.1/DTD/svg11.dtd">
<!-- Generated by graphviz version 2.38.0 (20140413.2041)
 -->
<!-- Title: PROV Pages: 1 -->
<svg width="1121pt" height="552pt"
 viewBox="0.00 0.00 1120.64 552.00" xmlns="http://www.w3.org/2000/svg" xmlns:xlink="http://www.w3.org/1999/xlink">
<g id="graph0" class="graph" transform="scale(1 1) rotate(0) translate(4 548)">
<title>PROV</title>
<polygon fill="white" stroke="none" points="-4,4 -4,-548 1116.64,-548 1116.64,4 -4,4"/>
<!-- http://example.org/1 -->
<g id="node1" class="node"><title>http://example.org/1</title>
<g id="a_node1"><a xlink:href="http://example.org/1" xlink:title="1">
<ellipse fill="#fffc87" stroke="#808080" cx="200.5" cy="-526" rx="27" ry="18"/>
<text text-anchor="middle" x="200.5" y="-522.3" font-family="Times New Roman,serif" font-size="14.00">1</text>
</a>
</g>
</g>
<!-- &#45;attrs0 -->
<g id="node2" class="node"><title>&#45;attrs0</title>
<polygon fill="none" stroke="gray" points="169,-445 0,-445 0,-396 175,-396 175,-439 169,-445"/>
<polyline fill="none" stroke="gray" points="169,-445 169,-439 "/>
<polyline fill="none" stroke="gray" points="175,-439 169,-439 "/>
<text text-anchor="start" x="10.5" y="-430.5" font-family="Times New Roman,serif" font-size="10.00">value:</text>
<text text-anchor="start" x="59.5" y="-430.5" font-family="Times New Roman,serif" font-size="10.00">1</text>
<text text-anchor="start" x="10.5" y="-417.5" font-family="Times New Roman,serif" font-size="10.00">type:</text>
<text text-anchor="start" x="59.5" y="-417.5" font-family="Times New Roman,serif" font-size="10.00">literal</text>
<text text-anchor="start" x="10.5" y="-404.5" font-family="Times New Roman,serif" font-size="10.00">checkpoint:</text>
<text text-anchor="start" x="59.5" y="-404.5" font-family="Times New Roman,serif" font-size="10.00">2018&#45;03&#45;10 05:21:28.995980</text>
</g>
<!-- &#45;attrs0&#45;&gt;http://example.org/1 -->
<g id="edge1" class="edge"><title>&#45;attrs0&#45;&gt;http://example.org/1</title>
<path fill="none" stroke="gray" stroke-dasharray="5,2" d="M113.424,-445.245C135.579,-465.537 166.708,-494.049 185.122,-510.915"/>
</g>
<!-- http://example.org/4 -->
<g id="node3" class="node"><title>http://example.org/4</title>
<g id="a_node3"><a xlink:href="http://example.org/4" xlink:title="4">
<ellipse fill="#fffc87" stroke="#808080" cx="363.5" cy="-526" rx="27" ry="18"/>
<text text-anchor="middle" x="363.5" y="-522.3" font-family="Times New Roman,serif" font-size="14.00">4</text>
</a>
</g>
</g>
<!-- &#45;attrs1 -->
<g id="node4" class="node"><title>&#45;attrs1</title>
<polygon fill="none" stroke="gray" points="362,-445 193,-445 193,-396 368,-396 368,-439 362,-445"/>
<polyline fill="none" stroke="gray" points="362,-445 362,-439 "/>
<polyline fill="none" stroke="gray" points="368,-439 362,-439 "/>
<text text-anchor="start" x="203.5" y="-430.5" font-family="Times New Roman,serif" font-size="10.00">value:</text>
<text text-anchor="start" x="252.5" y="-430.5" font-family="Times New Roman,serif" font-size="10.00">4</text>
<text text-anchor="start" x="203.5" y="-417.5" font-family="Times New Roman,serif" font-size="10.00">type:</text>
<text text-anchor="start" x="252.5" y="-417.5" font-family="Times New Roman,serif" font-size="10.00">literal</text>
<text text-anchor="start" x="203.5" y="-404.5" font-family="Times New Roman,serif" font-size="10.00">checkpoint:</text>
<text text-anchor="start" x="252.5" y="-404.5" font-family="Times New Roman,serif" font-size="10.00">2018&#45;03&#45;10 05:21:28.995980</text>
</g>
<!-- &#45;attrs1&#45;&gt;http://example.org/4 -->
<g id="edge2" class="edge"><title>&#45;attrs1&#45;&gt;http://example.org/4</title>
<path fill="none" stroke="gray" stroke-dasharray="5,2" d="M280.334,-445.177C281.366,-459.445 284.785,-477.259 294.5,-490 305.414,-504.313 323.808,-513.231 338.86,-518.481"/>
</g>
<!-- http://example.org/matrix -->
<g id="node5" class="node"><title>http://example.org/matrix</title>
<g id="a_node5"><a xlink:href="http://example.org/matrix" xlink:title="matrix">
<ellipse fill="#fffc87" stroke="#808080" cx="602.5" cy="-302" rx="33.2948" ry="18"/>
<text text-anchor="middle" x="602.5" y="-298.3" font-family="Times New Roman,serif" font-size="14.00">matrix</text>
</a>
</g>
</g>
<!-- http://example.org/list0 -->
<g id="node7" class="node"><title>http://example.org/list0</title>
<g id="a_node7"><a xlink:href="http://example.org/list0" xlink:title="list0">
<ellipse fill="#fffc87" stroke="#808080" cx="445.5" cy="-420.5" rx="27" ry="18"/>
<text text-anchor="middle" x="445.5" y="-416.8" font-family="Times New Roman,serif" font-size="14.00">list0</text>
</a>
</g>
</g>
<!-- http://example.org/matrix&#45;&gt;http://example.org/list0 -->
<g id="edge8" class="edge"><title>http://example.org/matrix&#45;&gt;http://example.org/list0</title>
<path fill="none" stroke="black" d="M577.645,-313.962C564.542,-319.702 548.183,-326.806 533.5,-333 514.033,-341.213 505.74,-337.485 489.5,-351 475.641,-362.533 464.669,-379.581 457.147,-393.784"/>
<polygon fill="black" stroke="black" points="453.85,-392.551 452.499,-403.059 460.108,-395.687 453.85,-392.551"/>
<text text-anchor="middle" x="544" y="-371.6" font-family="Times New Roman,serif" font-size="8.00">der&#45;ins</text>
<text text-anchor="middle" x="544" y="-362.6" font-family="Times New Roman,serif" font-size="8.00">[0]</text>
<text text-anchor="middle" x="544" y="-353.6" font-family="Times New Roman,serif" font-size="8.00">2018&#45;03&#45;10T05:21:28.995980</text>
</g>
<!-- http://example.org/list1 -->
<g id="node10" class="node"><title>http://example.org/list1</title>
<g id="a_node10"><a xlink:href="http://example.org/list1" xlink:title="list1">
<ellipse fill="#fffc87" stroke="#808080" cx="841.5" cy="-420.5" rx="27" ry="18"/>
<text text-anchor="middle" x="841.5" y="-416.8" font-family="Times New Roman,serif" font-size="14.00">list1</text>
</a>
</g>
</g>
<!-- http://example.org/matrix&#45;&gt;http://example.org/list1 -->
<g id="edge13" class="edge"><title>http://example.org/matrix&#45;&gt;http://example.org/list1</title>
<path fill="none" stroke="black" d="M631.019,-311.451C654.394,-319.275 687.567,-332.501 712.5,-351 725.16,-360.393 722.663,-368.851 735.5,-378 756.896,-393.249 784.657,-403.852 806.401,-410.522"/>
<polygon fill="black" stroke="black" points="805.65,-413.949 816.23,-413.398 807.615,-407.23 805.65,-413.949"/>
<text text-anchor="middle" x="790" y="-371.6" font-family="Times New Roman,serif" font-size="8.00">der&#45;ins</text>
<text text-anchor="middle" x="790" y="-362.6" font-family="Times New Roman,serif" font-size="8.00">[1]</text>
<text text-anchor="middle" x="790" y="-353.6" font-family="Times New Roman,serif" font-size="8.00">2018&#45;03&#45;10T05:21:28.995980</text>
</g>
<!-- http://example.org/lastrow -->
<g id="node14" class="node"><title>http://example.org/lastrow</title>
<ellipse fill="none" stroke="black" cx="602.5" cy="-420.5" rx="104.782" ry="18"/>
<text text-anchor="middle" x="602.5" y="-416.8" font-family="Times New Roman,serif" font-size="14.00">http://example.org/lastrow</text>
</g>
<!-- http://example.org/matrix&#45;&gt;http://example.org/lastrow -->
<g id="edge14" class="edge"><title>http://example.org/matrix&#45;&gt;http://example.org/lastrow</title>
<path fill="none" stroke="black" d="M602.5,-320.19C602.5,-339.119 602.5,-369.817 602.5,-392.078"/>
<polygon fill="black" stroke="black" points="599,-392.239 602.5,-402.239 606,-392.24 599,-392.239"/>
<text text-anchor="middle" x="657" y="-371.6" font-family="Times New Roman,serif" font-size="8.00">der&#45;ins</text>
<text text-anchor="middle" x="657" y="-362.6" font-family="Times New Roman,serif" font-size="8.00">[2]</text>
<text text-anchor="middle" x="657" y="-353.6" font-family="Times New Roman,serif" font-size="8.00">2018&#45;03&#45;10T05:21:28.995980</text>
</g>
<!-- &#45;attrs2 -->
<g id="node6" class="node"><title>&#45;attrs2</title>
<polygon fill="none" stroke="gray" points="404.5,-234 204.5,-234 204.5,-172 410.5,-172 410.5,-228 404.5,-234"/>
<polyline fill="none" stroke="gray" points="404.5,-234 404.5,-228 "/>
<polyline fill="none" stroke="gray" points="410.5,-228 404.5,-228 "/>
<text text-anchor="start" x="214.5" y="-220" font-family="Times New Roman,serif" font-size="10.00">value:</text>
<text text-anchor="start" x="263.5" y="-220" font-family="Times New Roman,serif" font-size="10.00">[[0, 1, 4], [10000, 0, 2], [2, 10000, 0]]</text>
<text text-anchor="start" x="214.5" y="-207" font-family="Times New Roman,serif" font-size="10.00">type:</text>
<text text-anchor="start" x="263.5" y="-207" font-family="Times New Roman,serif" font-size="10.00">list</text>
<text text-anchor="start" x="214.5" y="-194" font-family="Times New Roman,serif" font-size="10.00">label:</text>
<text text-anchor="start" x="263.5" y="-194" font-family="Times New Roman,serif" font-size="10.00">[[0, 1, 4], [m, 0, 2], lastrow]</text>
<text text-anchor="start" x="214.5" y="-181" font-family="Times New Roman,serif" font-size="10.00">checkpoint:</text>
<text text-anchor="start" x="263.5" y="-181" font-family="Times New Roman,serif" font-size="10.00">2018&#45;03&#45;10 05:21:28.995980</text>
</g>
<!-- &#45;attrs2&#45;&gt;http://example.org/matrix -->
<g id="edge3" class="edge"><title>&#45;attrs2&#45;&gt;http://example.org/matrix</title>
<path fill="none" stroke="gray" stroke-dasharray="5,2" d="M377.074,-234.073C394.906,-241.002 414.217,-247.842 432.5,-253 476.383,-265.381 489.85,-257.82 533.5,-271 549.131,-275.72 565.948,-282.983 579.067,-289.18"/>
</g>
<!-- http://example.org/list0&#45;&gt;http://example.org/1 -->
<g id="edge6" class="edge"><title>http://example.org/list0&#45;&gt;http://example.org/1</title>
<path fill="none" stroke="black" d="M422.302,-429.802C408.968,-434.472 391.867,-440.293 376.5,-445 347.429,-453.905 338.624,-451.447 310.5,-463 280.869,-475.171 249.225,-493.648 227.521,-507.267"/>
<polygon fill="black" stroke="black" points="225.422,-504.454 218.862,-512.773 229.179,-510.36 225.422,-504.454"/>
<text text-anchor="middle" x="365" y="-483.6" font-family="Times New Roman,serif" font-size="8.00">der&#45;ins</text>
<text text-anchor="middle" x="365" y="-474.6" font-family="Times New Roman,serif" font-size="8.00">[1]</text>
<text text-anchor="middle" x="365" y="-465.6" font-family="Times New Roman,serif" font-size="8.00">2018&#45;03&#45;10T05:21:28.995980</text>
</g>
<!-- http://example.org/list0&#45;&gt;http://example.org/4 -->
<g id="edge7" class="edge"><title>http://example.org/list0&#45;&gt;http://example.org/4</title>
<path fill="none" stroke="black" d="M443.494,-438.608C440.989,-453.543 435.468,-475.101 423.5,-490 416.157,-499.142 405.736,-506.388 395.634,-511.86"/>
<polygon fill="black" stroke="black" points="393.934,-508.797 386.545,-516.391 397.056,-515.062 393.934,-508.797"/>
<text text-anchor="middle" x="492" y="-483.6" font-family="Times New Roman,serif" font-size="8.00">der&#45;ins</text>
<text text-anchor="middle" x="492" y="-474.6" font-family="Times New Roman,serif" font-size="8.00">[2]</text>
<text text-anchor="middle" x="492" y="-465.6" font-family="Times New Roman,serif" font-size="8.00">2018&#45;03&#45;10T05:21:28.995980</text>
</g>
<!-- http://example.org/0 -->
<g id="node9" class="node"><title>http://example.org/0</title>
<ellipse fill="none" stroke="black" cx="617.5" cy="-526" rx="83.3857" ry="18"/>
<text text-anchor="middle" x="617.5" y="-522.3" font-family="Times New Roman,serif" font-size="14.00">http://example.org/0</text>
</g>
<!-- http://example.org/list0&#45;&gt;http://example.org/0 -->
<g id="edge5" class="edge"><title>http://example.org/list0&#45;&gt;http://example.org/0</title>
<path fill="none" stroke="black" d="M464.752,-433.187C472.023,-437.287 480.479,-441.69 488.5,-445 515.024,-455.945 525.669,-448.621 550.5,-463 565.46,-471.663 565.843,-478.225 578.5,-490 582.58,-493.795 586.94,-497.778 591.213,-501.642"/>
<polygon fill="black" stroke="black" points="588.953,-504.317 598.73,-508.4 593.633,-499.111 588.953,-504.317"/>
<text text-anchor="middle" x="633" y="-483.6" font-family="Times New Roman,serif" font-size="8.00">der&#45;ins</text>
<text text-anchor="middle" x="633" y="-474.6" font-family="Times New Roman,serif" font-size="8.00">[0]</text>
<text text-anchor="middle" x="633" y="-465.6" font-family="Times New Roman,serif" font-size="8.00">2018&#45;03&#45;10T05:21:28.995980</text>
</g>
<!-- &#45;attrs3 -->
<g id="node8" class="node"><title>&#45;attrs3</title>
<polygon fill="none" stroke="gray" points="519,-333 350,-333 350,-271 525,-271 525,-327 519,-333"/>
<polyline fill="none" stroke="gray" points="519,-333 519,-327 "/>
<polyline fill="none" stroke="gray" points="525,-327 519,-327 "/>
<text text-anchor="start" x="360.5" y="-319" font-family="Times New Roman,serif" font-size="10.00">value:</text>
<text text-anchor="start" x="409.5" y="-319" font-family="Times New Roman,serif" font-size="10.00">[0, 1, 4]</text>
<text text-anchor="start" x="360.5" y="-306" font-family="Times New Roman,serif" font-size="10.00">type:</text>
<text text-anchor="start" x="409.5" y="-306" font-family="Times New Roman,serif" font-size="10.00">list</text>
<text text-anchor="start" x="360.5" y="-293" font-family="Times New Roman,serif" font-size="10.00">label:</text>
<text text-anchor="start" x="409.5" y="-293" font-family="Times New Roman,serif" font-size="10.00">[0, 1, 4]</text>
<text text-anchor="start" x="360.5" y="-280" font-family="Times New Roman,serif" font-size="10.00">checkpoint:</text>
<text text-anchor="start" x="409.5" y="-280" font-family="Times New Roman,serif" font-size="10.00">2018&#45;03&#45;10 05:21:28.995980</text>
</g>
<!-- &#45;attrs3&#45;&gt;http://example.org/list0 -->
<g id="edge4" class="edge"><title>&#45;attrs3&#45;&gt;http://example.org/list0</title>
<path fill="none" stroke="gray" stroke-dasharray="5,2" d="M439.56,-333.002C441.069,-354.98 443.065,-384.038 444.315,-402.249"/>
</g>
<!-- http://example.org/list1&#45;&gt;http://example.org/0 -->
<g id="edge11" class="edge"><title>http://example.org/list1&#45;&gt;http://example.org/0</title>
<path fill="none" stroke="black" d="M817.016,-428.689C793.66,-435.962 757.796,-448.223 728.5,-463 709.019,-472.826 706.402,-479.102 687.5,-490 678.672,-495.09 669.008,-500.202 659.756,-504.885"/>
<polygon fill="black" stroke="black" points="658.074,-501.813 650.688,-509.41 661.199,-508.077 658.074,-501.813"/>
<text text-anchor="middle" x="783" y="-483.6" font-family="Times New Roman,serif" font-size="8.00">der&#45;ins</text>
<text text-anchor="middle" x="783" y="-474.6" font-family="Times New Roman,serif" font-size="8.00">[1]</text>
<text text-anchor="middle" x="783" y="-465.6" font-family="Times New Roman,serif" font-size="8.00">2018&#45;03&#45;10T05:21:28.995980</text>
</g>
<!-- http://example.org/m -->
<g id="node12" class="node"><title>http://example.org/m</title>
<ellipse fill="none" stroke="black" cx="1027.5" cy="-526" rx="85.2851" ry="18"/>
<text text-anchor="middle" x="1027.5" y="-522.3" font-family="Times New Roman,serif" font-size="14.00">http://example.org/m</text>
</g>
<!-- http://example.org/list1&#45;&gt;http://example.org/m -->
<g id="edge10" class="edge"><title>http://example.org/list1&#45;&gt;http://example.org/m</title>
<path fill="none" stroke="black" d="M866.411,-427.902C890.078,-434.605 926.157,-446.468 954.5,-463 972.39,-473.435 990.152,-488.392 1003.68,-501.002"/>
<polygon fill="black" stroke="black" points="1001.47,-503.731 1011.12,-508.103 1006.3,-498.667 1001.47,-503.731"/>
<text text-anchor="middle" x="1044" y="-483.6" font-family="Times New Roman,serif" font-size="8.00">der&#45;ins</text>
<text text-anchor="middle" x="1044" y="-474.6" font-family="Times New Roman,serif" font-size="8.00">[0]</text>
<text text-anchor="middle" x="1044" y="-465.6" font-family="Times New Roman,serif" font-size="8.00">2018&#45;03&#45;10T05:21:28.995980</text>
</g>
<!-- http://example.org/2 -->
<g id="node13" class="node"><title>http://example.org/2</title>
<ellipse fill="none" stroke="black" cx="841.5" cy="-526" rx="83.3857" ry="18"/>
<text text-anchor="middle" x="841.5" y="-522.3" font-family="Times New Roman,serif" font-size="14.00">http://example.org/2</text>
</g>
<!-- http://example.org/list1&#45;&gt;http://example.org/2 -->
<g id="edge12" class="edge"><title>http://example.org/list1&#45;&gt;http://example.org/2</title>
<path fill="none" stroke="black" d="M841.5,-438.591C841.5,-454.697 841.5,-479.091 841.5,-497.858"/>
<polygon fill="black" stroke="black" points="838,-497.884 841.5,-507.884 845,-497.884 838,-497.884"/>
<text text-anchor="middle" x="896" y="-483.6" font-family="Times New Roman,serif" font-size="8.00">der&#45;ins</text>
<text text-anchor="middle" x="896" y="-474.6" font-family="Times New Roman,serif" font-size="8.00">[2]</text>
<text text-anchor="middle" x="896" y="-465.6" font-family="Times New Roman,serif" font-size="8.00">2018&#45;03&#45;10T05:21:28.995980</text>
</g>
<!-- &#45;attrs4 -->
<g id="node11" class="node"><title>&#45;attrs4</title>
<polygon fill="none" stroke="gray" points="940,-333 771,-333 771,-271 946,-271 946,-327 940,-333"/>
<polyline fill="none" stroke="gray" points="940,-333 940,-327 "/>
<polyline fill="none" stroke="gray" points="946,-327 940,-327 "/>
<text text-anchor="start" x="781.5" y="-319" font-family="Times New Roman,serif" font-size="10.00">value:</text>
<text text-anchor="start" x="830.5" y="-319" font-family="Times New Roman,serif" font-size="10.00">[10000, 0, 2]</text>
<text text-anchor="start" x="781.5" y="-306" font-family="Times New Roman,serif" font-size="10.00">type:</text>
<text text-anchor="start" x="830.5" y="-306" font-family="Times New Roman,serif" font-size="10.00">list</text>
<text text-anchor="start" x="781.5" y="-293" font-family="Times New Roman,serif" font-size="10.00">label:</text>
<text text-anchor="start" x="830.5" y="-293" font-family="Times New Roman,serif" font-size="10.00">[m, 0, 2]</text>
<text text-anchor="start" x="781.5" y="-280" font-family="Times New Roman,serif" font-size="10.00">checkpoint:</text>
<text text-anchor="start" x="830.5" y="-280" font-family="Times New Roman,serif" font-size="10.00">2018&#45;03&#45;10 05:21:28.995980</text>
</g>
<!-- &#45;attrs4&#45;&gt;http://example.org/list1 -->
<g id="edge9" class="edge"><title>&#45;attrs4&#45;&gt;http://example.org/list1</title>
<path fill="none" stroke="gray" stroke-dasharray="5,2" d="M854.122,-333.002C850.915,-354.98 846.675,-384.038 844.017,-402.249"/>
</g>
<!-- http://example.org/dist -->
<g id="node15" class="node"><title>http://example.org/dist</title>
<g id="a_node15"><a xlink:href="http://example.org/dist" xlink:title="dist">
<ellipse fill="#fffc87" stroke="#808080" cx="489.5" cy="-117" rx="27" ry="18"/>
<text text-anchor="middle" x="489.5" y="-113.3" font-family="Times New Roman,serif" font-size="14.00">dist</text>
</a>
</g>
</g>
<!-- http://example.org/dist&#45;&gt;http://example.org/matrix -->
<g id="edge16" class="edge"><title>http://example.org/dist&#45;&gt;http://example.org/matrix</title>
<path fill="none" stroke="#f0f0f0" d="M476.846,-132.93C469.012,-143.189 459.678,-157.524 455.5,-172 447.859,-198.475 440.594,-210.824 455.5,-234 457.162,-236.584 525.435,-267.027 568.342,-285.977"/>
<polygon fill="#f0f0f0" stroke="#f0f0f0" points="567.041,-289.228 577.603,-290.062 569.866,-282.823 567.041,-289.228"/>
<text text-anchor="middle" x="510" y="-205.6" font-family="Times New Roman,serif" font-size="8.00" fill="#f0f0f0">der ref</text>
<text text-anchor="middle" x="510" y="-196.6" font-family="Times New Roman,serif" font-size="8.00" fill="#f0f0f0">2018&#45;03&#45;10T05:21:29.142871</text>
</g>
<!-- http://example.org/assign3 -->
<g id="node17" class="node"><title>http://example.org/assign3</title>
<g id="a_node17"><a xlink:href="http://example.org/assign3" xlink:title="assign3">
<polygon fill="#fafafa" stroke="#f0f0f0" points="631.5,-221 573.5,-221 573.5,-185 631.5,-185 631.5,-221"/>
<text text-anchor="middle" x="602.5" y="-199.3" font-family="Times New Roman,serif" font-size="14.00" fill="#f0f0f0">assign3</text>
</a>
</g>
</g>
<!-- http://example.org/dist&#45;&gt;http://example.org/assign3 -->
<g id="edge22" class="edge"><title>http://example.org/dist&#45;&gt;http://example.org/assign3</title>
<path fill="none" stroke="#f0f0f0" d="M507.156,-131.125C524.287,-143.859 550.651,-163.458 571.318,-178.82"/>
<polygon fill="#f0f0f0" stroke="#f0f0f0" points="569.383,-181.743 579.497,-184.9 573.559,-176.125 569.383,-181.743"/>
<text text-anchor="middle" x="520.925" y="-123.274" font-family="Times New Roman,serif" font-size="8.00" fill="#f0f0f0">gen</text>
</g>
<!-- &#45;attrs5 -->
<g id="node16" class="node"><title>&#45;attrs5</title>
<polygon fill="none" stroke="gray" points="586.5,-62 386.5,-62 386.5,-0 592.5,-0 592.5,-56 586.5,-62"/>
<polyline fill="none" stroke="gray" points="586.5,-62 586.5,-56 "/>
<polyline fill="none" stroke="gray" points="592.5,-56 586.5,-56 "/>
<text text-anchor="start" x="396.5" y="-48" font-family="Times New Roman,serif" font-size="10.00">value:</text>
<text text-anchor="start" x="445.5" y="-48" font-family="Times New Roman,serif" font-size="10.00">[[0, 1, 4], [10000, 0, 2], [2, 10000, 0]]</text>
<text text-anchor="start" x="396.5" y="-35" font-family="Times New Roman,serif" font-size="10.00">type:</text>
<text text-anchor="start" x="445.5" y="-35" font-family="Times New Roman,serif" font-size="10.00">name</text>
<text text-anchor="start" x="396.5" y="-22" font-family="Times New Roman,serif" font-size="10.00">label:</text>
<text text-anchor="start" x="445.5" y="-22" font-family="Times New Roman,serif" font-size="10.00">dist</text>
<text text-anchor="start" x="396.5" y="-9" font-family="Times New Roman,serif" font-size="10.00">checkpoint:</text>
<text text-anchor="start" x="445.5" y="-9" font-family="Times New Roman,serif" font-size="10.00">2018&#45;03&#45;10 05:21:29.142871</text>
</g>
<!-- &#45;attrs5&#45;&gt;http://example.org/dist -->
<g id="edge15" class="edge"><title>&#45;attrs5&#45;&gt;http://example.org/dist</title>
<path fill="none" stroke="gray" stroke-dasharray="5,2" d="M489.5,-62.3259C489.5,-74.5443 489.5,-88.1945 489.5,-98.6716"/>
</g>
<!-- http://example.org/assign3&#45;&gt;http://example.org/matrix -->
<g id="edge19" class="edge"><title>http://example.org/assign3&#45;&gt;http://example.org/matrix</title>
<path fill="none" stroke="#f0f0f0" d="M602.5,-221.342C602.5,-235.825 602.5,-256.737 602.5,-273.501"/>
<polygon fill="#f0f0f0" stroke="#f0f0f0" points="599,-273.808 602.5,-283.808 606,-273.809 599,-273.808"/>
<text text-anchor="middle" x="615.49" y="-226.942" font-family="Times New Roman,serif" font-size="8.00" fill="#f0f0f0">use</text>
</g>
<!-- http://example.org/result -->
<g id="node18" class="node"><title>http://example.org/result</title>
<g id="a_node18"><a xlink:href="http://example.org/result" xlink:title="result">
<ellipse fill="#fffc87" stroke="#808080" cx="735.5" cy="-117" rx="30.5947" ry="18"/>
<text text-anchor="middle" x="735.5" y="-113.3" font-family="Times New Roman,serif" font-size="14.00">result</text>
</a>
</g>
</g>
<!-- http://example.org/result&#45;&gt;http://example.org/matrix -->
<g id="edge18" class="edge"><title>http://example.org/result&#45;&gt;http://example.org/matrix</title>
<path fill="none" stroke="#f0f0f0" d="M717.621,-131.867C705.157,-142.098 688.651,-156.826 676.5,-172 674.659,-174.299 637.823,-238.902 616.831,-275.792"/>
<polygon fill="#f0f0f0" stroke="#f0f0f0" points="613.769,-274.097 611.867,-284.52 619.853,-277.558 613.769,-274.097"/>
<text text-anchor="middle" x="731" y="-205.6" font-family="Times New Roman,serif" font-size="8.00" fill="#f0f0f0">der ref</text>
<text text-anchor="middle" x="731" y="-196.6" font-family="Times New Roman,serif" font-size="8.00" fill="#f0f0f0">2018&#45;03&#45;10T05:21:29.142871</text>
</g>
<!-- http://example.org/assign4 -->
<g id="node20" class="node"><title>http://example.org/assign4</title>
<g id="a_node20"><a xlink:href="http://example.org/assign4" xlink:title="assign4">
<polygon fill="#fafafa" stroke="#f0f0f0" points="852.5,-221 794.5,-221 794.5,-185 852.5,-185 852.5,-221"/>
<text text-anchor="middle" x="823.5" y="-199.3" font-family="Times New Roman,serif" font-size="14.00" fill="#f0f0f0">assign4</text>
</a>
</g>
</g>
<!-- http://example.org/result&#45;&gt;http://example.org/assign4 -->
<g id="edge21" class="edge"><title>http://example.org/result&#45;&gt;http://example.org/assign4</title>
<path fill="none" stroke="#f0f0f0" d="M750.828,-132.632C763.828,-145.04 782.741,-163.094 798.015,-177.673"/>
<polygon fill="#f0f0f0" stroke="#f0f0f0" points="795.969,-180.559 805.619,-184.932 800.802,-175.495 795.969,-180.559"/>
<text text-anchor="middle" x="765.223" y="-126.514" font-family="Times New Roman,serif" font-size="8.00" fill="#f0f0f0">gen</text>
</g>
<!-- &#45;attrs6 -->
<g id="node19" class="node"><title>&#45;attrs6</title>
<polygon fill="none" stroke="gray" points="832.5,-62 632.5,-62 632.5,-0 838.5,-0 838.5,-56 832.5,-62"/>
<polyline fill="none" stroke="gray" points="832.5,-62 832.5,-56 "/>
<polyline fill="none" stroke="gray" points="838.5,-56 832.5,-56 "/>
<text text-anchor="start" x="642.5" y="-48" font-family="Times New Roman,serif" font-size="10.00">value:</text>
<text text-anchor="start" x="691.5" y="-48" font-family="Times New Roman,serif" font-size="10.00">[[0, 1, 4], [10000, 0, 2], [2, 10000, 0]]</text>
<text text-anchor="start" x="642.5" y="-35" font-family="Times New Roman,serif" font-size="10.00">type:</text>
<text text-anchor="start" x="691.5" y="-35" font-family="Times New Roman,serif" font-size="10.00">name</text>
<text text-anchor="start" x="642.5" y="-22" font-family="Times New Roman,serif" font-size="10.00">label:</text>
<text text-anchor="start" x="691.5" y="-22" font-family="Times New Roman,serif" font-size="10.00">result</text>
<text text-anchor="start" x="642.5" y="-9" font-family="Times New Roman,serif" font-size="10.00">checkpoint:</text>
<text text-anchor="start" x="691.5" y="-9" font-family="Times New Roman,serif" font-size="10.00">2018&#45;03&#45;10 05:21:29.142871</text>
</g>
<!-- &#45;attrs6&#45;&gt;http://example.org/result -->
<g id="edge17" class="edge"><title>&#45;attrs6&#45;&gt;http://example.org/result</title>
<path fill="none" stroke="gray" stroke-dasharray="5,2" d="M735.5,-62.3259C735.5,-74.5443 735.5,-88.1945 735.5,-98.6716"/>
</g>
<!-- http://example.org/assign4&#45;&gt;http://example.org/matrix -->
<g id="edge20" class="edge"><title>http://example.org/assign4&#45;&gt;http://example.org/matrix</title>
<path fill="none" stroke="#f0f0f0" d="M800.962,-221.294C794.553,-225.771 787.427,-230.353 780.5,-234 734.564,-258.183 677.915,-277.933 641.037,-289.573"/>
<polygon fill="#f0f0f0" stroke="#f0f0f0" points="639.693,-286.326 631.185,-292.639 641.773,-293.01 639.693,-286.326"/>
<text text-anchor="middle" x="802.19" y="-234.343" font-family="Times New Roman,serif" font-size="8.00" fill="#f0f0f0">use</text>
</g>
</g>
</svg>
