<?xml version="1.0" encoding="UTF-8" standalone="no"?>
<!DOCTYPE svg PUBLIC "-//W3C//DTD SVG 1.1//EN"
 "http://www.w3.org/Graphics/SVG/1.1/DTD/svg11.dtd">
<!-- Generated by graphviz version 2.38.0 (20140413.2041)
 -->
<!-- Title: PROV Pages: 1 -->
<svg width="795pt" height="341pt"
 viewBox="0.00 0.00 794.64 341.00" xmlns="http://www.w3.org/2000/svg" xmlns:xlink="http://www.w3.org/1999/xlink">
<g id="graph0" class="graph" transform="scale(1 1) rotate(0) translate(4 337)">
<title>PROV</title>
<polygon fill="white" stroke="none" points="-4,4 -4,-337 790.642,-337 790.642,4 -4,4"/>
<!-- http://example.org/1 -->
<g id="node1" class="node"><title>http://example.org/1</title>
<g id="a_node1"><a xlink:href="http://example.org/1" xlink:title="1">
<ellipse fill="#fffc87" stroke="#808080" cx="55.5" cy="-315" rx="27" ry="18"/>
<text text-anchor="middle" x="55.5" y="-311.3" font-family="Times New Roman,serif" font-size="14.00">1</text>
</a>
</g>
</g>
<!-- &#45;attrs0 -->
<g id="node2" class="node"><title>&#45;attrs0</title>
<polygon fill="none" stroke="gray" points="63,-234 0,-234 0,-198 69,-198 69,-228 63,-234"/>
<polyline fill="none" stroke="gray" points="63,-234 63,-228 "/>
<polyline fill="none" stroke="gray" points="69,-228 63,-228 "/>
<text text-anchor="start" x="10.5" y="-220" font-family="Times New Roman,serif" font-size="10.00">value:</text>
<text text-anchor="start" x="37.5" y="-220" font-family="Times New Roman,serif" font-size="10.00">1</text>
<text text-anchor="start" x="10.5" y="-207" font-family="Times New Roman,serif" font-size="10.00">type:</text>
<text text-anchor="start" x="37.5" y="-207" font-family="Times New Roman,serif" font-size="10.00">literal</text>
</g>
<!-- &#45;attrs0&#45;&gt;http://example.org/1 -->
<g id="edge1" class="edge"><title>&#45;attrs0&#45;&gt;http://example.org/1</title>
<path fill="none" stroke="gray" stroke-dasharray="5,2" d="M38.2544,-234.342C42.1004,-252.107 48.0403,-279.543 51.8485,-297.133"/>
</g>
<!-- http://example.org/4 -->
<g id="node3" class="node"><title>http://example.org/4</title>
<g id="a_node3"><a xlink:href="http://example.org/4" xlink:title="4">
<ellipse fill="#fffc87" stroke="#808080" cx="168.5" cy="-315" rx="27" ry="18"/>
<text text-anchor="middle" x="168.5" y="-311.3" font-family="Times New Roman,serif" font-size="14.00">4</text>
</a>
</g>
</g>
<!-- &#45;attrs1 -->
<g id="node4" class="node"><title>&#45;attrs1</title>
<polygon fill="none" stroke="gray" points="150,-234 87,-234 87,-198 156,-198 156,-228 150,-234"/>
<polyline fill="none" stroke="gray" points="150,-234 150,-228 "/>
<polyline fill="none" stroke="gray" points="156,-228 150,-228 "/>
<text text-anchor="start" x="97.5" y="-220" font-family="Times New Roman,serif" font-size="10.00">value:</text>
<text text-anchor="start" x="124.5" y="-220" font-family="Times New Roman,serif" font-size="10.00">4</text>
<text text-anchor="start" x="97.5" y="-207" font-family="Times New Roman,serif" font-size="10.00">type:</text>
<text text-anchor="start" x="124.5" y="-207" font-family="Times New Roman,serif" font-size="10.00">literal</text>
</g>
<!-- &#45;attrs1&#45;&gt;http://example.org/4 -->
<g id="edge2" class="edge"><title>&#45;attrs1&#45;&gt;http://example.org/4</title>
<path fill="none" stroke="gray" stroke-dasharray="5,2" d="M123.299,-234.134C125.199,-247.064 129.009,-264.922 136.5,-279 140.6,-286.704 146.791,-294.029 152.638,-299.968"/>
</g>
<!-- http://example.org/matrix -->
<g id="node5" class="node"><title>http://example.org/matrix</title>
<g id="a_node5"><a xlink:href="http://example.org/matrix" xlink:title="matrix">
<ellipse fill="#fffc87" stroke="#808080" cx="371.5" cy="-110.5" rx="33.2948" ry="18"/>
<text text-anchor="middle" x="371.5" y="-106.8" font-family="Times New Roman,serif" font-size="14.00">matrix</text>
</a>
</g>
</g>
<!-- http://example.org/matrix0 -->
<g id="node7" class="node"><title>http://example.org/matrix0</title>
<g id="a_node7"><a xlink:href="http://example.org/matrix0" xlink:title="matrix0">
<ellipse fill="#fffc87" stroke="#808080" cx="211.5" cy="-216" rx="37.8943" ry="18"/>
<text text-anchor="middle" x="211.5" y="-212.3" font-family="Times New Roman,serif" font-size="14.00">matrix0</text>
</a>
</g>
</g>
<!-- http://example.org/matrix&#45;&gt;http://example.org/matrix0 -->
<g id="edge8" class="edge"><title>http://example.org/matrix&#45;&gt;http://example.org/matrix0</title>
<path fill="none" stroke="black" d="M350.91,-124.819C323.137,-142.785 273.478,-174.908 241.538,-195.569"/>
<polygon fill="black" stroke="black" points="239.527,-192.702 233.032,-201.072 243.329,-198.579 239.527,-192.702"/>
<text text-anchor="middle" x="318" y="-173.6" font-family="Times New Roman,serif" font-size="8.00">der&#45;put</text>
<text text-anchor="middle" x="318" y="-164.6" font-family="Times New Roman,serif" font-size="8.00">[0]</text>
<text text-anchor="middle" x="318" y="-155.6" font-family="Times New Roman,serif" font-size="8.00">4</text>
</g>
<!-- http://example.org/matrix1 -->
<g id="node10" class="node"><title>http://example.org/matrix1</title>
<g id="a_node10"><a xlink:href="http://example.org/matrix1" xlink:title="matrix1">
<ellipse fill="#fffc87" stroke="#808080" cx="531.5" cy="-216" rx="37.8943" ry="18"/>
<text text-anchor="middle" x="531.5" y="-212.3" font-family="Times New Roman,serif" font-size="14.00">matrix1</text>
</a>
</g>
</g>
<!-- http://example.org/matrix&#45;&gt;http://example.org/matrix1 -->
<g id="edge13" class="edge"><title>http://example.org/matrix&#45;&gt;http://example.org/matrix1</title>
<path fill="none" stroke="black" d="M392.09,-124.819C419.863,-142.785 469.522,-174.908 501.462,-195.569"/>
<polygon fill="black" stroke="black" points="499.671,-198.579 509.968,-201.072 503.473,-192.702 499.671,-198.579"/>
<text text-anchor="middle" x="487" y="-173.6" font-family="Times New Roman,serif" font-size="8.00">der&#45;put</text>
<text text-anchor="middle" x="487" y="-164.6" font-family="Times New Roman,serif" font-size="8.00">[1]</text>
<text text-anchor="middle" x="487" y="-155.6" font-family="Times New Roman,serif" font-size="8.00">4</text>
</g>
<!-- http://example.org/lastrow -->
<g id="node14" class="node"><title>http://example.org/lastrow</title>
<ellipse fill="none" stroke="black" cx="371.5" cy="-216" rx="104.782" ry="18"/>
<text text-anchor="middle" x="371.5" y="-212.3" font-family="Times New Roman,serif" font-size="14.00">http://example.org/lastrow</text>
</g>
<!-- http://example.org/matrix&#45;&gt;http://example.org/lastrow -->
<g id="edge14" class="edge"><title>http://example.org/matrix&#45;&gt;http://example.org/lastrow</title>
<path fill="none" stroke="black" d="M371.5,-128.591C371.5,-144.697 371.5,-169.091 371.5,-187.858"/>
<polygon fill="black" stroke="black" points="368,-187.884 371.5,-197.884 375,-187.884 368,-187.884"/>
<text text-anchor="middle" x="384" y="-173.6" font-family="Times New Roman,serif" font-size="8.00">der&#45;put</text>
<text text-anchor="middle" x="384" y="-164.6" font-family="Times New Roman,serif" font-size="8.00">[2]</text>
<text text-anchor="middle" x="384" y="-155.6" font-family="Times New Roman,serif" font-size="8.00">4</text>
</g>
<!-- &#45;attrs2 -->
<g id="node6" class="node"><title>&#45;attrs2</title>
<polygon fill="none" stroke="gray" points="457.5,-49 279.5,-49 279.5,-0 463.5,-0 463.5,-43 457.5,-49"/>
<polyline fill="none" stroke="gray" points="457.5,-49 457.5,-43 "/>
<polyline fill="none" stroke="gray" points="463.5,-43 457.5,-43 "/>
<text text-anchor="start" x="289.5" y="-34.5" font-family="Times New Roman,serif" font-size="10.00">value:</text>
<text text-anchor="start" x="316.5" y="-34.5" font-family="Times New Roman,serif" font-size="10.00">[[0, 1, 4], [10000, 0, 2], [2, 10000, 0]]</text>
<text text-anchor="start" x="289.5" y="-21.5" font-family="Times New Roman,serif" font-size="10.00">type:</text>
<text text-anchor="start" x="316.5" y="-21.5" font-family="Times New Roman,serif" font-size="10.00">list</text>
<text text-anchor="start" x="289.5" y="-8.5" font-family="Times New Roman,serif" font-size="10.00">label:</text>
<text text-anchor="start" x="316.5" y="-8.5" font-family="Times New Roman,serif" font-size="10.00">[[0, 1, 4], [m, 0, 2], lastrow]</text>
</g>
<!-- &#45;attrs2&#45;&gt;http://example.org/matrix -->
<g id="edge3" class="edge"><title>&#45;attrs2&#45;&gt;http://example.org/matrix</title>
<path fill="none" stroke="gray" stroke-dasharray="5,2" d="M371.5,-49.3463C371.5,-63.0245 371.5,-79.8835 371.5,-92.2701"/>
</g>
<!-- http://example.org/matrix0&#45;&gt;http://example.org/1 -->
<g id="edge6" class="edge"><title>http://example.org/matrix0&#45;&gt;http://example.org/1</title>
<path fill="none" stroke="black" d="M189.48,-230.692C161.775,-247.919 114.154,-277.529 83.7807,-296.415"/>
<polygon fill="black" stroke="black" points="81.5935,-293.654 74.9495,-301.906 85.2898,-299.598 81.5935,-293.654"/>
<text text-anchor="middle" x="164" y="-272.6" font-family="Times New Roman,serif" font-size="8.00">der&#45;put</text>
<text text-anchor="middle" x="164" y="-263.6" font-family="Times New Roman,serif" font-size="8.00">[1]</text>
<text text-anchor="middle" x="164" y="-254.6" font-family="Times New Roman,serif" font-size="8.00">4</text>
</g>
<!-- http://example.org/matrix0&#45;&gt;http://example.org/4 -->
<g id="edge7" class="edge"><title>http://example.org/matrix0&#45;&gt;http://example.org/4</title>
<path fill="none" stroke="black" d="M205.224,-233.754C200.397,-246.331 193.406,-263.908 186.5,-279 185.034,-282.204 183.428,-285.537 181.799,-288.817"/>
<polygon fill="black" stroke="black" points="178.658,-287.272 177.239,-297.771 184.896,-290.448 178.658,-287.272"/>
<text text-anchor="middle" x="210" y="-272.6" font-family="Times New Roman,serif" font-size="8.00">der&#45;put</text>
<text text-anchor="middle" x="210" y="-263.6" font-family="Times New Roman,serif" font-size="8.00">[2]</text>
<text text-anchor="middle" x="210" y="-254.6" font-family="Times New Roman,serif" font-size="8.00">4</text>
</g>
<!-- http://example.org/0 -->
<g id="node9" class="node"><title>http://example.org/0</title>
<ellipse fill="none" stroke="black" cx="316.5" cy="-315" rx="83.3857" ry="18"/>
<text text-anchor="middle" x="316.5" y="-311.3" font-family="Times New Roman,serif" font-size="14.00">http://example.org/0</text>
</g>
<!-- http://example.org/matrix0&#45;&gt;http://example.org/0 -->
<g id="edge5" class="edge"><title>http://example.org/matrix0&#45;&gt;http://example.org/0</title>
<path fill="none" stroke="black" d="M228.37,-232.585C245.259,-248.187 271.461,-272.393 290.91,-290.36"/>
<polygon fill="black" stroke="black" points="288.541,-292.936 298.261,-297.151 293.291,-287.794 288.541,-292.936"/>
<text text-anchor="middle" x="288" y="-272.6" font-family="Times New Roman,serif" font-size="8.00">der&#45;put</text>
<text text-anchor="middle" x="288" y="-263.6" font-family="Times New Roman,serif" font-size="8.00">[0]</text>
<text text-anchor="middle" x="288" y="-254.6" font-family="Times New Roman,serif" font-size="8.00">4</text>
</g>
<!-- &#45;attrs3 -->
<g id="node8" class="node"><title>&#45;attrs3</title>
<polygon fill="none" stroke="gray" points="243.5,-135 173.5,-135 173.5,-86 249.5,-86 249.5,-129 243.5,-135"/>
<polyline fill="none" stroke="gray" points="243.5,-135 243.5,-129 "/>
<polyline fill="none" stroke="gray" points="249.5,-129 243.5,-129 "/>
<text text-anchor="start" x="183.5" y="-120.5" font-family="Times New Roman,serif" font-size="10.00">value:</text>
<text text-anchor="start" x="210.5" y="-120.5" font-family="Times New Roman,serif" font-size="10.00">[0, 1, 4]</text>
<text text-anchor="start" x="183.5" y="-107.5" font-family="Times New Roman,serif" font-size="10.00">type:</text>
<text text-anchor="start" x="210.5" y="-107.5" font-family="Times New Roman,serif" font-size="10.00">list</text>
<text text-anchor="start" x="183.5" y="-94.5" font-family="Times New Roman,serif" font-size="10.00">label:</text>
<text text-anchor="start" x="210.5" y="-94.5" font-family="Times New Roman,serif" font-size="10.00">[0, 1, 4]</text>
</g>
<!-- &#45;attrs3&#45;&gt;http://example.org/matrix0 -->
<g id="edge4" class="edge"><title>&#45;attrs3&#45;&gt;http://example.org/matrix0</title>
<path fill="none" stroke="gray" stroke-dasharray="5,2" d="M211.5,-135.245C211.5,-154.343 211.5,-180.723 211.5,-197.822"/>
</g>
<!-- http://example.org/matrix1&#45;&gt;http://example.org/0 -->
<g id="edge11" class="edge"><title>http://example.org/matrix1&#45;&gt;http://example.org/0</title>
<path fill="none" stroke="black" d="M505.137,-228.894C468.992,-245.201 403.588,-274.709 360.094,-294.332"/>
<polygon fill="black" stroke="black" points="358.57,-291.18 350.894,-298.483 361.449,-297.56 358.57,-291.18"/>
<text text-anchor="middle" x="462" y="-272.6" font-family="Times New Roman,serif" font-size="8.00">der&#45;put</text>
<text text-anchor="middle" x="462" y="-263.6" font-family="Times New Roman,serif" font-size="8.00">[1]</text>
<text text-anchor="middle" x="462" y="-254.6" font-family="Times New Roman,serif" font-size="8.00">4</text>
</g>
<!-- http://example.org/m -->
<g id="node12" class="node"><title>http://example.org/m</title>
<ellipse fill="none" stroke="black" cx="701.5" cy="-315" rx="85.2851" ry="18"/>
<text text-anchor="middle" x="701.5" y="-311.3" font-family="Times New Roman,serif" font-size="14.00">http://example.org/m</text>
</g>
<!-- http://example.org/matrix1&#45;&gt;http://example.org/m -->
<g id="edge10" class="edge"><title>http://example.org/matrix1&#45;&gt;http://example.org/m</title>
<path fill="none" stroke="black" d="M554.781,-230.284C583.042,-246.409 631.052,-273.803 664.423,-292.845"/>
<polygon fill="black" stroke="black" points="662.999,-296.061 673.419,-297.977 666.468,-289.981 662.999,-296.061"/>
<text text-anchor="middle" x="649" y="-272.6" font-family="Times New Roman,serif" font-size="8.00">der&#45;put</text>
<text text-anchor="middle" x="649" y="-263.6" font-family="Times New Roman,serif" font-size="8.00">[0]</text>
<text text-anchor="middle" x="649" y="-254.6" font-family="Times New Roman,serif" font-size="8.00">4</text>
</g>
<!-- http://example.org/2 -->
<g id="node13" class="node"><title>http://example.org/2</title>
<ellipse fill="none" stroke="black" cx="515.5" cy="-315" rx="83.3857" ry="18"/>
<text text-anchor="middle" x="515.5" y="-311.3" font-family="Times New Roman,serif" font-size="14.00">http://example.org/2</text>
</g>
<!-- http://example.org/matrix1&#45;&gt;http://example.org/2 -->
<g id="edge12" class="edge"><title>http://example.org/matrix1&#45;&gt;http://example.org/2</title>
<path fill="none" stroke="black" d="M528.64,-234.342C526.251,-248.825 522.801,-269.737 520.036,-286.501"/>
<polygon fill="black" stroke="black" points="516.51,-286.372 518.336,-296.808 523.417,-287.511 516.51,-286.372"/>
<text text-anchor="middle" x="537" y="-272.6" font-family="Times New Roman,serif" font-size="8.00">der&#45;put</text>
<text text-anchor="middle" x="537" y="-263.6" font-family="Times New Roman,serif" font-size="8.00">[2]</text>
<text text-anchor="middle" x="537" y="-254.6" font-family="Times New Roman,serif" font-size="8.00">4</text>
</g>
<!-- &#45;attrs4 -->
<g id="node11" class="node"><title>&#45;attrs4</title>
<polygon fill="none" stroke="gray" points="572.5,-135 484.5,-135 484.5,-86 578.5,-86 578.5,-129 572.5,-135"/>
<polyline fill="none" stroke="gray" points="572.5,-135 572.5,-129 "/>
<polyline fill="none" stroke="gray" points="578.5,-129 572.5,-129 "/>
<text text-anchor="start" x="494.5" y="-120.5" font-family="Times New Roman,serif" font-size="10.00">value:</text>
<text text-anchor="start" x="521.5" y="-120.5" font-family="Times New Roman,serif" font-size="10.00">[10000, 0, 2]</text>
<text text-anchor="start" x="494.5" y="-107.5" font-family="Times New Roman,serif" font-size="10.00">type:</text>
<text text-anchor="start" x="521.5" y="-107.5" font-family="Times New Roman,serif" font-size="10.00">list</text>
<text text-anchor="start" x="494.5" y="-94.5" font-family="Times New Roman,serif" font-size="10.00">label:</text>
<text text-anchor="start" x="521.5" y="-94.5" font-family="Times New Roman,serif" font-size="10.00">[m, 0, 2]</text>
</g>
<!-- &#45;attrs4&#45;&gt;http://example.org/matrix1 -->
<g id="edge9" class="edge"><title>&#45;attrs4&#45;&gt;http://example.org/matrix1</title>
<path fill="none" stroke="gray" stroke-dasharray="5,2" d="M531.5,-135.245C531.5,-154.343 531.5,-180.723 531.5,-197.822"/>
</g>
</g>
</svg>
