<?xml version="1.0" encoding="UTF-8" standalone="no"?>
<!DOCTYPE svg PUBLIC "-//W3C//DTD SVG 1.1//EN"
 "http://www.w3.org/Graphics/SVG/1.1/DTD/svg11.dtd">
<!-- Generated by graphviz version 2.38.0 (20140413.2041)
 -->
<!-- Title: PROV Pages: 1 -->
<svg width="1121pt" height="552pt"
 viewBox="0.00 0.00 1120.64 552.00" xmlns="http://www.w3.org/2000/svg" xmlns:xlink="http://www.w3.org/1999/xlink">
<g id="graph0" class="graph" transform="scale(1 1) rotate(0) translate(4 548)">
<title>PROV</title>
<polygon fill="white" stroke="none" points="-4,4 -4,-548 1116.64,-548 1116.64,4 -4,4"/>
<!-- http://example.org/1 -->
<g id="node1" class="node"><title>http://example.org/1</title>
<g id="a_node1"><a xlink:href="http://example.org/1" xlink:title="1">
<ellipse fill="#fffc87" stroke="#808080" cx="200.5" cy="-526" rx="27" ry="18"/>
<text text-anchor="middle" x="200.5" y="-522.3" font-family="Times New Roman,serif" font-size="14.00">1</text>
</a>
</g>
</g>
<!-- &#45;attrs0 -->
<g id="node2" class="node"><title>&#45;attrs0</title>
<polygon fill="none" stroke="gray" points="169,-445 0,-445 0,-396 175,-396 175,-439 169,-445"/>
<polyline fill="none" stroke="gray" points="169,-445 169,-439 "/>
<polyline fill="none" stroke="gray" points="175,-439 169,-439 "/>
<text text-anchor="start" x="10.5" y="-430.5" font-family="Times New Roman,serif" font-size="10.00">value:</text>
<text text-anchor="start" x="59.5" y="-430.5" font-family="Times New Roman,serif" font-size="10.00">1</text>
<text text-anchor="start" x="10.5" y="-417.5" font-family="Times New Roman,serif" font-size="10.00">type:</text>
<text text-anchor="start" x="59.5" y="-417.5" font-family="Times New Roman,serif" font-size="10.00">literal</text>
<text text-anchor="start" x="10.5" y="-404.5" font-family="Times New Roman,serif" font-size="10.00">checkpoint:</text>
<text text-anchor="start" x="59.5" y="-404.5" font-family="Times New Roman,serif" font-size="10.00">2018&#45;03&#45;12 13:12:14.848356</text>
</g>
<!-- &#45;attrs0&#45;&gt;http://example.org/1 -->
<g id="edge1" class="edge"><title>&#45;attrs0&#45;&gt;http://example.org/1</title>
<path fill="none" stroke="gray" stroke-dasharray="5,2" d="M113.424,-445.245C135.579,-465.537 166.708,-494.049 185.122,-510.915"/>
</g>
<!-- http://example.org/4 -->
<g id="node3" class="node"><title>http://example.org/4</title>
<g id="a_node3"><a xlink:href="http://example.org/4" xlink:title="4">
<ellipse fill="#fffc87" stroke="#808080" cx="363.5" cy="-526" rx="27" ry="18"/>
<text text-anchor="middle" x="363.5" y="-522.3" font-family="Times New Roman,serif" font-size="14.00">4</text>
</a>
</g>
</g>
<!-- &#45;attrs1 -->
<g id="node4" class="node"><title>&#45;attrs1</title>
<polygon fill="none" stroke="gray" points="362,-445 193,-445 193,-396 368,-396 368,-439 362,-445"/>
<polyline fill="none" stroke="gray" points="362,-445 362,-439 "/>
<polyline fill="none" stroke="gray" points="368,-439 362,-439 "/>
<text text-anchor="start" x="203.5" y="-430.5" font-family="Times New Roman,serif" font-size="10.00">value:</text>
<text text-anchor="start" x="252.5" y="-430.5" font-family="Times New Roman,serif" font-size="10.00">4</text>
<text text-anchor="start" x="203.5" y="-417.5" font-family="Times New Roman,serif" font-size="10.00">type:</text>
<text text-anchor="start" x="252.5" y="-417.5" font-family="Times New Roman,serif" font-size="10.00">literal</text>
<text text-anchor="start" x="203.5" y="-404.5" font-family="Times New Roman,serif" font-size="10.00">checkpoint:</text>
<text text-anchor="start" x="252.5" y="-404.5" font-family="Times New Roman,serif" font-size="10.00">2018&#45;03&#45;12 13:12:14.848356</text>
</g>
<!-- &#45;attrs1&#45;&gt;http://example.org/4 -->
<g id="edge2" class="edge"><title>&#45;attrs1&#45;&gt;http://example.org/4</title>
<path fill="none" stroke="gray" stroke-dasharray="5,2" d="M280.334,-445.177C281.366,-459.445 284.785,-477.259 294.5,-490 305.414,-504.313 323.808,-513.231 338.86,-518.481"/>
</g>
<!-- http://example.org/matrix -->
<g id="node5" class="node"><title>http://example.org/matrix</title>
<g id="a_node5"><a xlink:href="http://example.org/matrix" xlink:title="matrix">
<ellipse fill="#fffc87" stroke="#808080" cx="607.5" cy="-302" rx="33.2948" ry="18"/>
<text text-anchor="middle" x="607.5" y="-298.3" font-family="Times New Roman,serif" font-size="14.00">matrix</text>
</a>
</g>
</g>
<!-- http://example.org/matrix0 -->
<g id="node7" class="node"><title>http://example.org/matrix0</title>
<g id="a_node7"><a xlink:href="http://example.org/matrix0" xlink:title="matrix0">
<ellipse fill="#fffc87" stroke="#808080" cx="445.5" cy="-420.5" rx="37.8943" ry="18"/>
<text text-anchor="middle" x="445.5" y="-416.8" font-family="Times New Roman,serif" font-size="14.00">matrix0</text>
</a>
</g>
</g>
<!-- http://example.org/matrix&#45;&gt;http://example.org/matrix0 -->
<g id="edge8" class="edge"><title>http://example.org/matrix&#45;&gt;http://example.org/matrix0</title>
<path fill="none" stroke="black" d="M582.645,-313.962C569.542,-319.702 553.183,-326.806 538.5,-333 519.033,-341.213 511.073,-337.895 494.5,-351 479.823,-362.606 467.575,-379.726 458.996,-393.946"/>
<polygon fill="black" stroke="black" points="455.862,-392.374 453.899,-402.786 461.926,-395.871 455.862,-392.374"/>
<text text-anchor="middle" x="549" y="-371.6" font-family="Times New Roman,serif" font-size="8.00">der&#45;ins</text>
<text text-anchor="middle" x="549" y="-362.6" font-family="Times New Roman,serif" font-size="8.00">[0]</text>
<text text-anchor="middle" x="549" y="-353.6" font-family="Times New Roman,serif" font-size="8.00">2018&#45;03&#45;12T13:12:14.848356</text>
</g>
<!-- http://example.org/matrix1 -->
<g id="node10" class="node"><title>http://example.org/matrix1</title>
<g id="a_node10"><a xlink:href="http://example.org/matrix1" xlink:title="matrix1">
<ellipse fill="#fffc87" stroke="#808080" cx="841.5" cy="-420.5" rx="37.8943" ry="18"/>
<text text-anchor="middle" x="841.5" y="-416.8" font-family="Times New Roman,serif" font-size="14.00">matrix1</text>
</a>
</g>
</g>
<!-- http://example.org/matrix&#45;&gt;http://example.org/matrix1 -->
<g id="edge13" class="edge"><title>http://example.org/matrix&#45;&gt;http://example.org/matrix1</title>
<path fill="none" stroke="black" d="M636.481,-310.859C660.13,-318.33 693.448,-331.37 717.5,-351 728.868,-360.278 724.971,-368.923 736.5,-378 754.632,-392.276 778.294,-402.199 798.565,-408.753"/>
<polygon fill="black" stroke="black" points="797.618,-412.123 808.205,-411.704 799.668,-405.43 797.618,-412.123"/>
<text text-anchor="middle" x="791" y="-371.6" font-family="Times New Roman,serif" font-size="8.00">der&#45;ins</text>
<text text-anchor="middle" x="791" y="-362.6" font-family="Times New Roman,serif" font-size="8.00">[1]</text>
<text text-anchor="middle" x="791" y="-353.6" font-family="Times New Roman,serif" font-size="8.00">2018&#45;03&#45;12T13:12:14.848356</text>
</g>
<!-- http://example.org/lastrow -->
<g id="node14" class="node"><title>http://example.org/lastrow</title>
<ellipse fill="none" stroke="black" cx="607.5" cy="-420.5" rx="104.782" ry="18"/>
<text text-anchor="middle" x="607.5" y="-416.8" font-family="Times New Roman,serif" font-size="14.00">http://example.org/lastrow</text>
</g>
<!-- http://example.org/matrix&#45;&gt;http://example.org/lastrow -->
<g id="edge14" class="edge"><title>http://example.org/matrix&#45;&gt;http://example.org/lastrow</title>
<path fill="none" stroke="black" d="M607.5,-320.19C607.5,-339.119 607.5,-369.817 607.5,-392.078"/>
<polygon fill="black" stroke="black" points="604,-392.239 607.5,-402.239 611,-392.24 604,-392.239"/>
<text text-anchor="middle" x="662" y="-371.6" font-family="Times New Roman,serif" font-size="8.00">der&#45;ins</text>
<text text-anchor="middle" x="662" y="-362.6" font-family="Times New Roman,serif" font-size="8.00">[2]</text>
<text text-anchor="middle" x="662" y="-353.6" font-family="Times New Roman,serif" font-size="8.00">2018&#45;03&#45;12T13:12:14.848356</text>
</g>
<!-- &#45;attrs2 -->
<g id="node6" class="node"><title>&#45;attrs2</title>
<polygon fill="none" stroke="gray" points="409.5,-234 209.5,-234 209.5,-172 415.5,-172 415.5,-228 409.5,-234"/>
<polyline fill="none" stroke="gray" points="409.5,-234 409.5,-228 "/>
<polyline fill="none" stroke="gray" points="415.5,-228 409.5,-228 "/>
<text text-anchor="start" x="219.5" y="-220" font-family="Times New Roman,serif" font-size="10.00">value:</text>
<text text-anchor="start" x="268.5" y="-220" font-family="Times New Roman,serif" font-size="10.00">[[0, 1, 4], [10000, 0, 2], [2, 10000, 0]]</text>
<text text-anchor="start" x="219.5" y="-207" font-family="Times New Roman,serif" font-size="10.00">type:</text>
<text text-anchor="start" x="268.5" y="-207" font-family="Times New Roman,serif" font-size="10.00">list</text>
<text text-anchor="start" x="219.5" y="-194" font-family="Times New Roman,serif" font-size="10.00">label:</text>
<text text-anchor="start" x="268.5" y="-194" font-family="Times New Roman,serif" font-size="10.00">[[0, 1, 4], [m, 0, 2], lastrow]</text>
<text text-anchor="start" x="219.5" y="-181" font-family="Times New Roman,serif" font-size="10.00">checkpoint:</text>
<text text-anchor="start" x="268.5" y="-181" font-family="Times New Roman,serif" font-size="10.00">2018&#45;03&#45;12 13:12:14.848356</text>
</g>
<!-- &#45;attrs2&#45;&gt;http://example.org/matrix -->
<g id="edge3" class="edge"><title>&#45;attrs2&#45;&gt;http://example.org/matrix</title>
<path fill="none" stroke="gray" stroke-dasharray="5,2" d="M382.074,-234.073C399.906,-241.002 419.217,-247.842 437.5,-253 481.383,-265.381 494.85,-257.82 538.5,-271 554.131,-275.72 570.948,-282.983 584.067,-289.18"/>
</g>
<!-- http://example.org/matrix0&#45;&gt;http://example.org/1 -->
<g id="edge6" class="edge"><title>http://example.org/matrix0&#45;&gt;http://example.org/1</title>
<path fill="none" stroke="black" d="M416.083,-431.968C403.89,-436.189 389.568,-440.997 376.5,-445 347.429,-453.905 338.624,-451.447 310.5,-463 280.869,-475.171 249.225,-493.648 227.521,-507.267"/>
<polygon fill="black" stroke="black" points="225.422,-504.454 218.862,-512.773 229.179,-510.36 225.422,-504.454"/>
<text text-anchor="middle" x="365" y="-483.6" font-family="Times New Roman,serif" font-size="8.00">der&#45;ins</text>
<text text-anchor="middle" x="365" y="-474.6" font-family="Times New Roman,serif" font-size="8.00">[1]</text>
<text text-anchor="middle" x="365" y="-465.6" font-family="Times New Roman,serif" font-size="8.00">2018&#45;03&#45;12T13:12:14.848356</text>
</g>
<!-- http://example.org/matrix0&#45;&gt;http://example.org/4 -->
<g id="edge7" class="edge"><title>http://example.org/matrix0&#45;&gt;http://example.org/4</title>
<path fill="none" stroke="black" d="M443.494,-438.608C440.989,-453.543 435.468,-475.101 423.5,-490 416.157,-499.142 405.736,-506.388 395.634,-511.86"/>
<polygon fill="black" stroke="black" points="393.934,-508.797 386.545,-516.391 397.056,-515.062 393.934,-508.797"/>
<text text-anchor="middle" x="492" y="-483.6" font-family="Times New Roman,serif" font-size="8.00">der&#45;ins</text>
<text text-anchor="middle" x="492" y="-474.6" font-family="Times New Roman,serif" font-size="8.00">[2]</text>
<text text-anchor="middle" x="492" y="-465.6" font-family="Times New Roman,serif" font-size="8.00">2018&#45;03&#45;12T13:12:14.848356</text>
</g>
<!-- http://example.org/0 -->
<g id="node9" class="node"><title>http://example.org/0</title>
<ellipse fill="none" stroke="black" cx="617.5" cy="-526" rx="83.3857" ry="18"/>
<text text-anchor="middle" x="617.5" y="-522.3" font-family="Times New Roman,serif" font-size="14.00">http://example.org/0</text>
</g>
<!-- http://example.org/matrix0&#45;&gt;http://example.org/0 -->
<g id="edge5" class="edge"><title>http://example.org/matrix0&#45;&gt;http://example.org/0</title>
<path fill="none" stroke="black" d="M470.094,-434.416C477.513,-438.073 485.747,-441.898 493.5,-445 518.166,-454.868 527.667,-449.42 550.5,-463 565.358,-471.837 565.843,-478.225 578.5,-490 582.58,-493.795 586.94,-497.778 591.213,-501.642"/>
<polygon fill="black" stroke="black" points="588.953,-504.317 598.73,-508.4 593.633,-499.111 588.953,-504.317"/>
<text text-anchor="middle" x="633" y="-483.6" font-family="Times New Roman,serif" font-size="8.00">der&#45;ins</text>
<text text-anchor="middle" x="633" y="-474.6" font-family="Times New Roman,serif" font-size="8.00">[0]</text>
<text text-anchor="middle" x="633" y="-465.6" font-family="Times New Roman,serif" font-size="8.00">2018&#45;03&#45;12T13:12:14.848356</text>
</g>
<!-- &#45;attrs3 -->
<g id="node8" class="node"><title>&#45;attrs3</title>
<polygon fill="none" stroke="gray" points="524,-333 355,-333 355,-271 530,-271 530,-327 524,-333"/>
<polyline fill="none" stroke="gray" points="524,-333 524,-327 "/>
<polyline fill="none" stroke="gray" points="530,-327 524,-327 "/>
<text text-anchor="start" x="365.5" y="-319" font-family="Times New Roman,serif" font-size="10.00">value:</text>
<text text-anchor="start" x="414.5" y="-319" font-family="Times New Roman,serif" font-size="10.00">[0, 1, 4]</text>
<text text-anchor="start" x="365.5" y="-306" font-family="Times New Roman,serif" font-size="10.00">type:</text>
<text text-anchor="start" x="414.5" y="-306" font-family="Times New Roman,serif" font-size="10.00">list</text>
<text text-anchor="start" x="365.5" y="-293" font-family="Times New Roman,serif" font-size="10.00">label:</text>
<text text-anchor="start" x="414.5" y="-293" font-family="Times New Roman,serif" font-size="10.00">[0, 1, 4]</text>
<text text-anchor="start" x="365.5" y="-280" font-family="Times New Roman,serif" font-size="10.00">checkpoint:</text>
<text text-anchor="start" x="414.5" y="-280" font-family="Times New Roman,serif" font-size="10.00">2018&#45;03&#45;12 13:12:14.848356</text>
</g>
<!-- &#45;attrs3&#45;&gt;http://example.org/matrix0 -->
<g id="edge4" class="edge"><title>&#45;attrs3&#45;&gt;http://example.org/matrix0</title>
<path fill="none" stroke="gray" stroke-dasharray="5,2" d="M443.273,-333.002C443.839,-354.98 444.587,-384.038 445.056,-402.249"/>
</g>
<!-- http://example.org/matrix1&#45;&gt;http://example.org/0 -->
<g id="edge11" class="edge"><title>http://example.org/matrix1&#45;&gt;http://example.org/0</title>
<path fill="none" stroke="black" d="M810.483,-430.752C787.316,-438.169 755.184,-449.541 728.5,-463 709.019,-472.826 706.402,-479.102 687.5,-490 678.672,-495.09 669.008,-500.202 659.756,-504.885"/>
<polygon fill="black" stroke="black" points="658.074,-501.813 650.688,-509.41 661.199,-508.077 658.074,-501.813"/>
<text text-anchor="middle" x="783" y="-483.6" font-family="Times New Roman,serif" font-size="8.00">der&#45;ins</text>
<text text-anchor="middle" x="783" y="-474.6" font-family="Times New Roman,serif" font-size="8.00">[1]</text>
<text text-anchor="middle" x="783" y="-465.6" font-family="Times New Roman,serif" font-size="8.00">2018&#45;03&#45;12T13:12:14.848356</text>
</g>
<!-- http://example.org/m -->
<g id="node12" class="node"><title>http://example.org/m</title>
<ellipse fill="none" stroke="black" cx="1027.5" cy="-526" rx="85.2851" ry="18"/>
<text text-anchor="middle" x="1027.5" y="-522.3" font-family="Times New Roman,serif" font-size="14.00">http://example.org/m</text>
</g>
<!-- http://example.org/matrix1&#45;&gt;http://example.org/m -->
<g id="edge10" class="edge"><title>http://example.org/matrix1&#45;&gt;http://example.org/m</title>
<path fill="none" stroke="black" d="M874.012,-430.112C897.351,-437.072 929.046,-448.153 954.5,-463 972.39,-473.435 990.152,-488.392 1003.68,-501.002"/>
<polygon fill="black" stroke="black" points="1001.47,-503.731 1011.12,-508.103 1006.3,-498.667 1001.47,-503.731"/>
<text text-anchor="middle" x="1044" y="-483.6" font-family="Times New Roman,serif" font-size="8.00">der&#45;ins</text>
<text text-anchor="middle" x="1044" y="-474.6" font-family="Times New Roman,serif" font-size="8.00">[0]</text>
<text text-anchor="middle" x="1044" y="-465.6" font-family="Times New Roman,serif" font-size="8.00">2018&#45;03&#45;12T13:12:14.848356</text>
</g>
<!-- http://example.org/2 -->
<g id="node13" class="node"><title>http://example.org/2</title>
<ellipse fill="none" stroke="black" cx="841.5" cy="-526" rx="83.3857" ry="18"/>
<text text-anchor="middle" x="841.5" y="-522.3" font-family="Times New Roman,serif" font-size="14.00">http://example.org/2</text>
</g>
<!-- http://example.org/matrix1&#45;&gt;http://example.org/2 -->
<g id="edge12" class="edge"><title>http://example.org/matrix1&#45;&gt;http://example.org/2</title>
<path fill="none" stroke="black" d="M841.5,-438.591C841.5,-454.697 841.5,-479.091 841.5,-497.858"/>
<polygon fill="black" stroke="black" points="838,-497.884 841.5,-507.884 845,-497.884 838,-497.884"/>
<text text-anchor="middle" x="896" y="-483.6" font-family="Times New Roman,serif" font-size="8.00">der&#45;ins</text>
<text text-anchor="middle" x="896" y="-474.6" font-family="Times New Roman,serif" font-size="8.00">[2]</text>
<text text-anchor="middle" x="896" y="-465.6" font-family="Times New Roman,serif" font-size="8.00">2018&#45;03&#45;12T13:12:14.848356</text>
</g>
<!-- &#45;attrs4 -->
<g id="node11" class="node"><title>&#45;attrs4</title>
<polygon fill="none" stroke="gray" points="945,-333 776,-333 776,-271 951,-271 951,-327 945,-333"/>
<polyline fill="none" stroke="gray" points="945,-333 945,-327 "/>
<polyline fill="none" stroke="gray" points="951,-327 945,-327 "/>
<text text-anchor="start" x="786.5" y="-319" font-family="Times New Roman,serif" font-size="10.00">value:</text>
<text text-anchor="start" x="835.5" y="-319" font-family="Times New Roman,serif" font-size="10.00">[10000, 0, 2]</text>
<text text-anchor="start" x="786.5" y="-306" font-family="Times New Roman,serif" font-size="10.00">type:</text>
<text text-anchor="start" x="835.5" y="-306" font-family="Times New Roman,serif" font-size="10.00">list</text>
<text text-anchor="start" x="786.5" y="-293" font-family="Times New Roman,serif" font-size="10.00">label:</text>
<text text-anchor="start" x="835.5" y="-293" font-family="Times New Roman,serif" font-size="10.00">[m, 0, 2]</text>
<text text-anchor="start" x="786.5" y="-280" font-family="Times New Roman,serif" font-size="10.00">checkpoint:</text>
<text text-anchor="start" x="835.5" y="-280" font-family="Times New Roman,serif" font-size="10.00">2018&#45;03&#45;12 13:12:14.848356</text>
</g>
<!-- &#45;attrs4&#45;&gt;http://example.org/matrix1 -->
<g id="edge9" class="edge"><title>&#45;attrs4&#45;&gt;http://example.org/matrix1</title>
<path fill="none" stroke="gray" stroke-dasharray="5,2" d="M857.887,-333.296C855.345,-346.958 852.29,-363.295 849.5,-378 847.968,-386.074 846.246,-395.027 844.792,-402.544"/>
</g>
<!-- http://example.org/dist -->
<g id="node15" class="node"><title>http://example.org/dist</title>
<g id="a_node15"><a xlink:href="http://example.org/dist" xlink:title="dist">
<ellipse fill="#fffc87" stroke="#808080" cx="494.5" cy="-117" rx="27" ry="18"/>
<text text-anchor="middle" x="494.5" y="-113.3" font-family="Times New Roman,serif" font-size="14.00">dist</text>
</a>
</g>
</g>
<!-- http://example.org/dist&#45;&gt;http://example.org/matrix -->
<g id="edge16" class="edge"><title>http://example.org/dist&#45;&gt;http://example.org/matrix</title>
<path fill="none" stroke="#f0f0f0" d="M481.846,-132.93C474.012,-143.189 464.678,-157.524 460.5,-172 452.859,-198.475 445.594,-210.824 460.5,-234 462.162,-236.584 530.435,-267.027 573.342,-285.977"/>
<polygon fill="#f0f0f0" stroke="#f0f0f0" points="572.041,-289.228 582.603,-290.062 574.866,-282.823 572.041,-289.228"/>
<text text-anchor="middle" x="515" y="-205.6" font-family="Times New Roman,serif" font-size="8.00" fill="#f0f0f0">der ref</text>
<text text-anchor="middle" x="515" y="-196.6" font-family="Times New Roman,serif" font-size="8.00" fill="#f0f0f0">2018&#45;03&#45;12T13:12:14.972212</text>
</g>
<!-- http://example.org/assign3 -->
<g id="node17" class="node"><title>http://example.org/assign3</title>
<g id="a_node17"><a xlink:href="http://example.org/assign3" xlink:title="assign3">
<polygon fill="#fafafa" stroke="#f0f0f0" points="636.5,-221 578.5,-221 578.5,-185 636.5,-185 636.5,-221"/>
<text text-anchor="middle" x="607.5" y="-199.3" font-family="Times New Roman,serif" font-size="14.00" fill="#f0f0f0">assign3</text>
</a>
</g>
</g>
<!-- http://example.org/dist&#45;&gt;http://example.org/assign3 -->
<g id="edge22" class="edge"><title>http://example.org/dist&#45;&gt;http://example.org/assign3</title>
<path fill="none" stroke="#f0f0f0" d="M512.156,-131.125C529.287,-143.859 555.651,-163.458 576.318,-178.82"/>
<polygon fill="#f0f0f0" stroke="#f0f0f0" points="574.383,-181.743 584.497,-184.9 578.559,-176.125 574.383,-181.743"/>
<text text-anchor="middle" x="525.925" y="-123.274" font-family="Times New Roman,serif" font-size="8.00" fill="#f0f0f0">gen</text>
</g>
<!-- &#45;attrs5 -->
<g id="node16" class="node"><title>&#45;attrs5</title>
<polygon fill="none" stroke="gray" points="591.5,-62 391.5,-62 391.5,-0 597.5,-0 597.5,-56 591.5,-62"/>
<polyline fill="none" stroke="gray" points="591.5,-62 591.5,-56 "/>
<polyline fill="none" stroke="gray" points="597.5,-56 591.5,-56 "/>
<text text-anchor="start" x="401.5" y="-48" font-family="Times New Roman,serif" font-size="10.00">value:</text>
<text text-anchor="start" x="450.5" y="-48" font-family="Times New Roman,serif" font-size="10.00">[[0, 1, 4], [10000, 0, 2], [2, 10000, 0]]</text>
<text text-anchor="start" x="401.5" y="-35" font-family="Times New Roman,serif" font-size="10.00">type:</text>
<text text-anchor="start" x="450.5" y="-35" font-family="Times New Roman,serif" font-size="10.00">name</text>
<text text-anchor="start" x="401.5" y="-22" font-family="Times New Roman,serif" font-size="10.00">label:</text>
<text text-anchor="start" x="450.5" y="-22" font-family="Times New Roman,serif" font-size="10.00">dist</text>
<text text-anchor="start" x="401.5" y="-9" font-family="Times New Roman,serif" font-size="10.00">checkpoint:</text>
<text text-anchor="start" x="450.5" y="-9" font-family="Times New Roman,serif" font-size="10.00">2018&#45;03&#45;12 13:12:14.972212</text>
</g>
<!-- &#45;attrs5&#45;&gt;http://example.org/dist -->
<g id="edge15" class="edge"><title>&#45;attrs5&#45;&gt;http://example.org/dist</title>
<path fill="none" stroke="gray" stroke-dasharray="5,2" d="M494.5,-62.3259C494.5,-74.5443 494.5,-88.1945 494.5,-98.6716"/>
</g>
<!-- http://example.org/assign3&#45;&gt;http://example.org/matrix -->
<g id="edge20" class="edge"><title>http://example.org/assign3&#45;&gt;http://example.org/matrix</title>
<path fill="none" stroke="#f0f0f0" d="M607.5,-221.342C607.5,-235.825 607.5,-256.737 607.5,-273.501"/>
<polygon fill="#f0f0f0" stroke="#f0f0f0" points="604,-273.808 607.5,-283.808 611,-273.809 604,-273.808"/>
<text text-anchor="middle" x="620.49" y="-226.942" font-family="Times New Roman,serif" font-size="8.00" fill="#f0f0f0">use</text>
</g>
<!-- http://example.org/result -->
<g id="node18" class="node"><title>http://example.org/result</title>
<g id="a_node18"><a xlink:href="http://example.org/result" xlink:title="result">
<ellipse fill="#fffc87" stroke="#808080" cx="740.5" cy="-117" rx="30.5947" ry="18"/>
<text text-anchor="middle" x="740.5" y="-113.3" font-family="Times New Roman,serif" font-size="14.00">result</text>
</a>
</g>
</g>
<!-- http://example.org/result&#45;&gt;http://example.org/matrix -->
<g id="edge18" class="edge"><title>http://example.org/result&#45;&gt;http://example.org/matrix</title>
<path fill="none" stroke="#f0f0f0" d="M722.621,-131.867C710.157,-142.098 693.651,-156.826 681.5,-172 679.659,-174.299 642.823,-238.902 621.831,-275.792"/>
<polygon fill="#f0f0f0" stroke="#f0f0f0" points="618.769,-274.097 616.867,-284.52 624.853,-277.558 618.769,-274.097"/>
<text text-anchor="middle" x="736" y="-205.6" font-family="Times New Roman,serif" font-size="8.00" fill="#f0f0f0">der ref</text>
<text text-anchor="middle" x="736" y="-196.6" font-family="Times New Roman,serif" font-size="8.00" fill="#f0f0f0">2018&#45;03&#45;12T13:12:14.972212</text>
</g>
<!-- http://example.org/assign4 -->
<g id="node20" class="node"><title>http://example.org/assign4</title>
<g id="a_node20"><a xlink:href="http://example.org/assign4" xlink:title="assign4">
<polygon fill="#fafafa" stroke="#f0f0f0" points="857.5,-221 799.5,-221 799.5,-185 857.5,-185 857.5,-221"/>
<text text-anchor="middle" x="828.5" y="-199.3" font-family="Times New Roman,serif" font-size="14.00" fill="#f0f0f0">assign4</text>
</a>
</g>
</g>
<!-- http://example.org/result&#45;&gt;http://example.org/assign4 -->
<g id="edge21" class="edge"><title>http://example.org/result&#45;&gt;http://example.org/assign4</title>
<path fill="none" stroke="#f0f0f0" d="M755.828,-132.632C768.828,-145.04 787.741,-163.094 803.015,-177.673"/>
<polygon fill="#f0f0f0" stroke="#f0f0f0" points="800.969,-180.559 810.619,-184.932 805.802,-175.495 800.969,-180.559"/>
<text text-anchor="middle" x="770.223" y="-126.514" font-family="Times New Roman,serif" font-size="8.00" fill="#f0f0f0">gen</text>
</g>
<!-- &#45;attrs6 -->
<g id="node19" class="node"><title>&#45;attrs6</title>
<polygon fill="none" stroke="gray" points="837.5,-62 637.5,-62 637.5,-0 843.5,-0 843.5,-56 837.5,-62"/>
<polyline fill="none" stroke="gray" points="837.5,-62 837.5,-56 "/>
<polyline fill="none" stroke="gray" points="843.5,-56 837.5,-56 "/>
<text text-anchor="start" x="647.5" y="-48" font-family="Times New Roman,serif" font-size="10.00">value:</text>
<text text-anchor="start" x="696.5" y="-48" font-family="Times New Roman,serif" font-size="10.00">[[0, 1, 4], [10000, 0, 2], [2, 10000, 0]]</text>
<text text-anchor="start" x="647.5" y="-35" font-family="Times New Roman,serif" font-size="10.00">type:</text>
<text text-anchor="start" x="696.5" y="-35" font-family="Times New Roman,serif" font-size="10.00">name</text>
<text text-anchor="start" x="647.5" y="-22" font-family="Times New Roman,serif" font-size="10.00">label:</text>
<text text-anchor="start" x="696.5" y="-22" font-family="Times New Roman,serif" font-size="10.00">result</text>
<text text-anchor="start" x="647.5" y="-9" font-family="Times New Roman,serif" font-size="10.00">checkpoint:</text>
<text text-anchor="start" x="696.5" y="-9" font-family="Times New Roman,serif" font-size="10.00">2018&#45;03&#45;12 13:12:14.972212</text>
</g>
<!-- &#45;attrs6&#45;&gt;http://example.org/result -->
<g id="edge17" class="edge"><title>&#45;attrs6&#45;&gt;http://example.org/result</title>
<path fill="none" stroke="gray" stroke-dasharray="5,2" d="M740.5,-62.3259C740.5,-74.5443 740.5,-88.1945 740.5,-98.6716"/>
</g>
<!-- http://example.org/assign4&#45;&gt;http://example.org/matrix -->
<g id="edge19" class="edge"><title>http://example.org/assign4&#45;&gt;http://example.org/matrix</title>
<path fill="none" stroke="#f0f0f0" d="M805.962,-221.294C799.553,-225.771 792.427,-230.353 785.5,-234 739.564,-258.183 682.915,-277.933 646.037,-289.573"/>
<polygon fill="#f0f0f0" stroke="#f0f0f0" points="644.693,-286.326 636.185,-292.639 646.773,-293.01 644.693,-286.326"/>
<text text-anchor="middle" x="807.19" y="-234.343" font-family="Times New Roman,serif" font-size="8.00" fill="#f0f0f0">use</text>
</g>
</g>
</svg>
