<?xml version="1.0" encoding="UTF-8" standalone="no"?>
<!DOCTYPE svg PUBLIC "-//W3C//DTD SVG 1.1//EN"
 "http://www.w3.org/Graphics/SVG/1.1/DTD/svg11.dtd">
<!-- Generated by graphviz version 2.38.0 (20140413.2041)
 -->
<!-- Title: PROV Pages: 1 -->
<svg width="623pt" height="529pt"
 viewBox="0.00 0.00 622.58 529.00" xmlns="http://www.w3.org/2000/svg" xmlns:xlink="http://www.w3.org/1999/xlink">
<g id="graph0" class="graph" transform="scale(1 1) rotate(0) translate(4 525)">
<title>PROV</title>
<polygon fill="white" stroke="none" points="-4,4 -4,-525 618.582,-525 618.582,4 -4,4"/>
<!-- http://example.org/dist@k#2 -->
<g id="node1" class="node"><title>http://example.org/dist@k#2</title>
<g id="a_node1"><a xlink:href="http://example.org/dist@k#2" xlink:title="dist@k#2">
<ellipse fill="#fffc87" stroke="#808080" cx="287.291" cy="-323" rx="46.2923" ry="18"/>
<text text-anchor="middle" x="287.291" y="-319.3" font-family="Times New Roman,serif" font-size="14.00">dist@k#2</text>
</a>
</g>
</g>
<!-- http://example.org/access21 -->
<g id="node3" class="node"><title>http://example.org/access21</title>
<g id="a_node3"><a xlink:href="http://example.org/access21" xlink:title="access21">
<polygon fill="#fafafa" stroke="#f0f0f0" points="351.291,-431 283.291,-431 283.291,-395 351.291,-395 351.291,-431"/>
<text text-anchor="middle" x="317.291" y="-409.3" font-family="Times New Roman,serif" font-size="14.00" fill="#f0f0f0">access21</text>
</a>
</g>
</g>
<!-- http://example.org/dist@k#2&#45;&gt;http://example.org/access21 -->
<g id="edge12" class="edge"><title>http://example.org/dist@k#2&#45;&gt;http://example.org/access21</title>
<path fill="none" stroke="#f0f0f0" d="M293.075,-340.967C297.322,-353.426 303.179,-370.606 308.069,-384.95"/>
<polygon fill="#f0f0f0" stroke="#f0f0f0" points="304.882,-386.449 311.422,-394.785 311.508,-384.19 304.882,-386.449"/>
<text text-anchor="middle" x="311.791" y="-370.6" font-family="Times New Roman,serif" font-size="8.00" fill="#f0f0f0">gen</text>
<text text-anchor="middle" x="311.791" y="-361.6" font-family="Times New Roman,serif" font-size="8.00" fill="#f0f0f0">39</text>
</g>
<!-- bn0 -->
<g id="node4" class="node"><title>bn0</title>
<ellipse fill="#f0f0f0" stroke="#f0f0f0" cx="261.291" cy="-413" rx="1.8" ry="1.8"/>
</g>
<!-- http://example.org/dist@k#2&#45;&gt;bn0 -->
<g id="edge2" class="edge"><title>http://example.org/dist@k#2&#45;&gt;bn0</title>
<path fill="none" stroke="#f0f0f0" d="M274.547,-340.611C270.929,-346.171 267.402,-352.592 265.291,-359 258.823,-378.632 260.611,-404.486 261.159,-410.643"/>
<text text-anchor="middle" x="278.791" y="-370.6" font-family="Times New Roman,serif" font-size="8.00" fill="#f0f0f0">der ac&#45;r</text>
<text text-anchor="middle" x="278.791" y="-361.6" font-family="Times New Roman,serif" font-size="8.00" fill="#f0f0f0">39</text>
</g>
<!-- &#45;attrs0 -->
<g id="node2" class="node"><title>&#45;attrs0</title>
<polygon fill="none" stroke="gray" points="245.291,-251 157.291,-251 157.291,-189 251.291,-189 251.291,-245 245.291,-251"/>
<polyline fill="none" stroke="gray" points="245.291,-251 245.291,-245 "/>
<polyline fill="none" stroke="gray" points="251.291,-245 245.291,-245 "/>
<text text-anchor="start" x="167.291" y="-237" font-family="Times New Roman,serif" font-size="10.00">value:</text>
<text text-anchor="start" x="194.291" y="-237" font-family="Times New Roman,serif" font-size="10.00">[10000, 0, 2]</text>
<text text-anchor="start" x="167.291" y="-224" font-family="Times New Roman,serif" font-size="10.00">type:</text>
<text text-anchor="start" x="194.291" y="-224" font-family="Times New Roman,serif" font-size="10.00">access</text>
<text text-anchor="start" x="167.291" y="-211" font-family="Times New Roman,serif" font-size="10.00">label:</text>
<text text-anchor="start" x="194.291" y="-211" font-family="Times New Roman,serif" font-size="10.00">dist[k]</text>
<text text-anchor="start" x="167.291" y="-198" font-family="Times New Roman,serif" font-size="10.00">line:</text>
<text text-anchor="start" x="194.291" y="-198" font-family="Times New Roman,serif" font-size="10.00">9</text>
</g>
<!-- &#45;attrs0&#45;&gt;http://example.org/dist@k#2 -->
<g id="edge1" class="edge"><title>&#45;attrs0&#45;&gt;http://example.org/dist@k#2</title>
<path fill="none" stroke="gray" stroke-dasharray="5,2" d="M228.969,-251.03C243.687,-268.94 261.802,-290.984 273.902,-305.708"/>
</g>
<!-- http://example.org/dist -->
<g id="node5" class="node"><title>http://example.org/dist</title>
<ellipse fill="none" stroke="black" cx="320.291" cy="-503" rx="91.784" ry="18"/>
<text text-anchor="middle" x="320.291" y="-499.3" font-family="Times New Roman,serif" font-size="14.00">http://example.org/dist</text>
</g>
<!-- http://example.org/access21&#45;&gt;http://example.org/dist -->
<g id="edge5" class="edge"><title>http://example.org/access21&#45;&gt;http://example.org/dist</title>
<path fill="none" stroke="#f0f0f0" d="M317.883,-431.386C318.305,-443.76 318.88,-460.631 319.363,-474.78"/>
<polygon fill="#f0f0f0" stroke="#f0f0f0" points="315.871,-475.075 319.709,-484.95 322.867,-474.836 315.871,-475.075"/>
<text text-anchor="middle" x="331.122" y="-436.539" font-family="Times New Roman,serif" font-size="8.00" fill="#f0f0f0">use</text>
</g>
<!-- http://example.org/matrix1 -->
<g id="node6" class="node"><title>http://example.org/matrix1</title>
<ellipse fill="none" stroke="black" cx="105.291" cy="-503" rx="105.082" ry="18"/>
<text text-anchor="middle" x="105.291" y="-499.3" font-family="Times New Roman,serif" font-size="14.00">http://example.org/matrix1</text>
</g>
<!-- http://example.org/access21&#45;&gt;http://example.org/matrix1 -->
<g id="edge9" class="edge"><title>http://example.org/access21&#45;&gt;http://example.org/matrix1</title>
<path fill="none" stroke="#f0f0f0" d="M286.625,-431.029C265.987,-442.101 237.957,-456.396 212.291,-467 197.473,-473.122 181.164,-478.914 165.842,-483.96"/>
<polygon fill="#f0f0f0" stroke="#f0f0f0" points="164.379,-480.755 155.942,-487.163 166.534,-487.415 164.379,-480.755"/>
<text text-anchor="middle" x="256.791" y="-460.6" font-family="Times New Roman,serif" font-size="8.00" fill="#f0f0f0">use</text>
<text text-anchor="middle" x="256.791" y="-451.6" font-family="Times New Roman,serif" font-size="8.00" fill="#f0f0f0">39</text>
</g>
<!-- http://example.org/k#2 -->
<g id="node7" class="node"><title>http://example.org/k#2</title>
<ellipse fill="none" stroke="black" cx="522.291" cy="-503" rx="92.0841" ry="18"/>
<text text-anchor="middle" x="522.291" y="-499.3" font-family="Times New Roman,serif" font-size="14.00">http://example.org/k#2</text>
</g>
<!-- http://example.org/access21&#45;&gt;http://example.org/k#2 -->
<g id="edge6" class="edge"><title>http://example.org/access21&#45;&gt;http://example.org/k#2</title>
<path fill="none" stroke="#f0f0f0" d="M351.603,-428.729C385.858,-443.434 438.708,-466.121 476.521,-482.353"/>
<polygon fill="#f0f0f0" stroke="#f0f0f0" points="475.221,-485.603 485.79,-486.332 477.982,-479.171 475.221,-485.603"/>
<text text-anchor="middle" x="363.619" y="-417.851" font-family="Times New Roman,serif" font-size="8.00" fill="#f0f0f0">use</text>
</g>
<!-- bn0&#45;&gt;http://example.org/dist -->
<g id="edge3" class="edge"><title>bn0&#45;&gt;http://example.org/dist</title>
<path fill="none" stroke="#f0f0f0" stroke-dasharray="5,2" d="M261.316,-414.824C261.51,-420.018 263.117,-448.58 275.291,-467 278.151,-471.327 281.725,-475.349 285.602,-479.01"/>
<polygon fill="#f0f0f0" stroke="#f0f0f0" points="283.441,-481.767 293.323,-485.59 287.982,-476.44 283.441,-481.767"/>
</g>
<!-- bn0&#45;&gt;http://example.org/matrix1 -->
<g id="edge4" class="edge"><title>bn0&#45;&gt;http://example.org/matrix1</title>
<path fill="none" stroke="#f0f0f0" d="M260.294,-414.562C251.476,-419.536 186.079,-456.427 143.094,-480.675"/>
<polygon fill="#f0f0f0" stroke="#f0f0f0" points="141.28,-477.68 134.29,-485.641 144.72,-483.776 141.28,-477.68"/>
<text text-anchor="middle" x="202.791" y="-456.1" font-family="Times New Roman,serif" font-size="8.00" fill="#f0f0f0">[1]</text>
</g>
<!-- http://example.org/distk#2 -->
<g id="node8" class="node"><title>http://example.org/distk#2</title>
<g id="a_node8"><a xlink:href="http://example.org/distk#2" xlink:title="distk#2">
<ellipse fill="#fffc87" stroke="#808080" cx="303.291" cy="-117" rx="37.8943" ry="18"/>
<text text-anchor="middle" x="303.291" y="-113.3" font-family="Times New Roman,serif" font-size="14.00">distk#2</text>
</a>
</g>
</g>
<!-- http://example.org/distk#2&#45;&gt;http://example.org/dist@k#2 -->
<g id="edge8" class="edge"><title>http://example.org/distk#2&#45;&gt;http://example.org/dist@k#2</title>
<path fill="none" stroke="#f0f0f0" d="M301.445,-135.203C299.94,-149.573 297.819,-170.608 296.291,-189 293.258,-225.487 290.537,-267.67 288.9,-294.575"/>
<polygon fill="#f0f0f0" stroke="#f0f0f0" points="285.393,-294.579 288.287,-304.771 292.381,-294.999 285.393,-294.579"/>
<text text-anchor="middle" x="307.791" y="-222.6" font-family="Times New Roman,serif" font-size="8.00" fill="#f0f0f0">der ref</text>
<text text-anchor="middle" x="307.791" y="-213.6" font-family="Times New Roman,serif" font-size="8.00" fill="#f0f0f0">40</text>
</g>
<!-- http://example.org/assign12 -->
<g id="node10" class="node"><title>http://example.org/assign12</title>
<g id="a_node10"><a xlink:href="http://example.org/assign12" xlink:title="assign12">
<polygon fill="#fafafa" stroke="#f0f0f0" points="393.791,-238 328.791,-238 328.791,-202 393.791,-202 393.791,-238"/>
<text text-anchor="middle" x="361.291" y="-216.3" font-family="Times New Roman,serif" font-size="14.00" fill="#f0f0f0">assign12</text>
</a>
</g>
</g>
<!-- http://example.org/distk#2&#45;&gt;http://example.org/assign12 -->
<g id="edge11" class="edge"><title>http://example.org/distk#2&#45;&gt;http://example.org/assign12</title>
<path fill="none" stroke="#f0f0f0" d="M312.868,-134.678C322.006,-150.591 335.907,-174.797 346.474,-193.198"/>
<polygon fill="#f0f0f0" stroke="#f0f0f0" points="343.49,-195.031 351.505,-201.96 349.56,-191.545 343.49,-195.031"/>
<text text-anchor="middle" x="338.791" y="-164.6" font-family="Times New Roman,serif" font-size="8.00" fill="#f0f0f0">gen</text>
<text text-anchor="middle" x="338.791" y="-155.6" font-family="Times New Roman,serif" font-size="8.00" fill="#f0f0f0">40</text>
</g>
<!-- &#45;attrs1 -->
<g id="node9" class="node"><title>&#45;attrs1</title>
<polygon fill="none" stroke="gray" points="344.291,-62 256.291,-62 256.291,-0 350.291,-0 350.291,-56 344.291,-62"/>
<polyline fill="none" stroke="gray" points="344.291,-62 344.291,-56 "/>
<polyline fill="none" stroke="gray" points="350.291,-56 344.291,-56 "/>
<text text-anchor="start" x="266.291" y="-48" font-family="Times New Roman,serif" font-size="10.00">value:</text>
<text text-anchor="start" x="293.291" y="-48" font-family="Times New Roman,serif" font-size="10.00">[10000, 0, 2]</text>
<text text-anchor="start" x="266.291" y="-35" font-family="Times New Roman,serif" font-size="10.00">type:</text>
<text text-anchor="start" x="293.291" y="-35" font-family="Times New Roman,serif" font-size="10.00">name</text>
<text text-anchor="start" x="266.291" y="-22" font-family="Times New Roman,serif" font-size="10.00">label:</text>
<text text-anchor="start" x="293.291" y="-22" font-family="Times New Roman,serif" font-size="10.00">distk</text>
<text text-anchor="start" x="266.291" y="-9" font-family="Times New Roman,serif" font-size="10.00">line:</text>
<text text-anchor="start" x="293.291" y="-9" font-family="Times New Roman,serif" font-size="10.00">9</text>
</g>
<!-- &#45;attrs1&#45;&gt;http://example.org/distk#2 -->
<g id="edge7" class="edge"><title>&#45;attrs1&#45;&gt;http://example.org/distk#2</title>
<path fill="none" stroke="gray" stroke-dasharray="5,2" d="M303.291,-62.3259C303.291,-74.5443 303.291,-88.1945 303.291,-98.6716"/>
</g>
<!-- http://example.org/assign12&#45;&gt;http://example.org/dist@k#2 -->
<g id="edge10" class="edge"><title>http://example.org/assign12&#45;&gt;http://example.org/dist@k#2</title>
<path fill="none" stroke="#f0f0f0" d="M348.738,-238.133C336.902,-254.288 319.025,-278.687 305.6,-297.01"/>
<polygon fill="#f0f0f0" stroke="#f0f0f0" points="302.5,-295.319 299.413,-305.454 308.147,-299.456 302.5,-295.319"/>
<text text-anchor="middle" x="329.791" y="-280.6" font-family="Times New Roman,serif" font-size="8.00" fill="#f0f0f0">use</text>
<text text-anchor="middle" x="329.791" y="-271.6" font-family="Times New Roman,serif" font-size="8.00" fill="#f0f0f0">40</text>
</g>
</g>
</svg>
