<?xml version="1.0" encoding="UTF-8" standalone="no"?>
<!DOCTYPE svg PUBLIC "-//W3C//DTD SVG 1.1//EN"
 "http://www.w3.org/Graphics/SVG/1.1/DTD/svg11.dtd">
<!-- Generated by graphviz version 2.38.0 (20140413.2041)
 -->
<!-- Title: PROV Pages: 1 -->
<svg width="659pt" height="592pt"
 viewBox="0.00 0.00 658.68 592.00" xmlns="http://www.w3.org/2000/svg" xmlns:xlink="http://www.w3.org/1999/xlink">
<g id="graph0" class="graph" transform="scale(1 1) rotate(0) translate(4 588)">
<title>PROV</title>
<polygon fill="white" stroke="none" points="-4,4 -4,-588 654.682,-588 654.682,4 -4,4"/>
<!-- http://example.org/dist@k#1 -->
<g id="node1" class="node"><title>http://example.org/dist@k#1</title>
<g id="a_node1"><a xlink:href="http://example.org/dist@k#1" xlink:title="dist@k#1">
<ellipse fill="#fffc87" stroke="#808080" cx="260.39" cy="-347" rx="46.2923" ry="18"/>
<text text-anchor="middle" x="260.39" y="-343.3" font-family="Times New Roman,serif" font-size="14.00">dist@k#1</text>
</a>
</g>
</g>
<!-- http://example.org/access2 -->
<g id="node3" class="node"><title>http://example.org/access2</title>
<g id="a_node3"><a xlink:href="http://example.org/access2" xlink:title="access2">
<polygon fill="#fafafa" stroke="#f0f0f0" points="414.89,-482 353.89,-482 353.89,-446 414.89,-446 414.89,-482"/>
<text text-anchor="middle" x="384.39" y="-460.3" font-family="Times New Roman,serif" font-size="14.00" fill="#f0f0f0">access2</text>
</a>
</g>
</g>
<!-- http://example.org/dist@k#1&#45;&gt;http://example.org/access2 -->
<g id="edge11" class="edge"><title>http://example.org/dist@k#1&#45;&gt;http://example.org/access2</title>
<path fill="none" stroke="#f0f0f0" d="M303.164,-354.167C322.638,-359.012 344.589,-367.642 359.39,-383 373.02,-397.143 379.227,-418.614 382.049,-435.752"/>
<polygon fill="#f0f0f0" stroke="#f0f0f0" points="378.594,-436.32 383.405,-445.759 385.531,-435.38 378.594,-436.32"/>
<text text-anchor="middle" x="476.89" y="-409.3" font-family="Times New Roman,serif" font-size="14.00" fill="#f0f0f0">gen</text>
<text text-anchor="middle" x="476.89" y="-394.3" font-family="Times New Roman,serif" font-size="14.00" fill="#f0f0f0">ckpt: 2018&#45;06&#45;09T21:11:08.482507</text>
</g>
<!-- bn0 -->
<g id="node4" class="node"><title>bn0</title>
<ellipse fill="#f0f0f0" stroke="#f0f0f0" cx="145.39" cy="-464" rx="1.8" ry="1.8"/>
</g>
<!-- http://example.org/dist@k#1&#45;&gt;bn0 -->
<g id="edge2" class="edge"><title>http://example.org/dist@k#1&#45;&gt;bn0</title>
<path fill="none" stroke="#f0f0f0" d="M217.933,-354.161C199.063,-359 178.07,-367.627 164.39,-383 141.994,-408.168 144.743,-454.921 145.31,-462.072"/>
<text text-anchor="middle" x="261.89" y="-416.8" font-family="Times New Roman,serif" font-size="14.00" fill="#f0f0f0">der ref</text>
<text text-anchor="middle" x="261.89" y="-401.8" font-family="Times New Roman,serif" font-size="14.00" fill="#f0f0f0">ac&#45;read</text>
<text text-anchor="middle" x="261.89" y="-386.8" font-family="Times New Roman,serif" font-size="14.00" fill="#f0f0f0">ckpt: 2018&#45;06&#45;09T21:11:08.482507</text>
</g>
<!-- http://example.org/dist@k#1&#45;attrs -->
<g id="node2" class="node"><title>http://example.org/dist@k#1&#45;attrs</title>
<polygon fill="none" stroke="gray" points="218.39,-263 148.39,-263 148.39,-201 224.39,-201 224.39,-257 218.39,-263"/>
<polyline fill="none" stroke="gray" points="218.39,-263 218.39,-257 "/>
<polyline fill="none" stroke="gray" points="224.39,-257 218.39,-257 "/>
<text text-anchor="start" x="158.39" y="-249" font-family="Times New Roman,serif" font-size="10.00">value:</text>
<text text-anchor="start" x="185.39" y="-249" font-family="Times New Roman,serif" font-size="10.00">[0, 1, 4]</text>
<text text-anchor="start" x="158.39" y="-236" font-family="Times New Roman,serif" font-size="10.00">type:</text>
<text text-anchor="start" x="185.39" y="-236" font-family="Times New Roman,serif" font-size="10.00">access</text>
<text text-anchor="start" x="158.39" y="-223" font-family="Times New Roman,serif" font-size="10.00">label:</text>
<text text-anchor="start" x="185.39" y="-223" font-family="Times New Roman,serif" font-size="10.00">dist[k]</text>
<text text-anchor="start" x="158.39" y="-210" font-family="Times New Roman,serif" font-size="10.00">line:</text>
<text text-anchor="start" x="185.39" y="-210" font-family="Times New Roman,serif" font-size="10.00">9</text>
</g>
<!-- http://example.org/dist@k#1&#45;attrs&#45;&gt;http://example.org/dist@k#1 -->
<g id="edge1" class="edge"><title>http://example.org/dist@k#1&#45;attrs&#45;&gt;http://example.org/dist@k#1</title>
<path fill="none" stroke="gray" stroke-dasharray="5,2" d="M206.22,-263.282C220.092,-284.463 238.099,-311.962 249.453,-329.3"/>
</g>
<!-- http://example.org/dist#1 -->
<g id="node5" class="node"><title>http://example.org/dist#1</title>
<ellipse fill="none" stroke="black" cx="347.39" cy="-566" rx="100.983" ry="18"/>
<text text-anchor="middle" x="347.39" y="-562.3" font-family="Times New Roman,serif" font-size="14.00">http://example.org/dist#1</text>
</g>
<!-- http://example.org/access2&#45;&gt;http://example.org/dist#1 -->
<g id="edge5" class="edge"><title>http://example.org/access2&#45;&gt;http://example.org/dist#1</title>
<path fill="none" stroke="#f0f0f0" d="M384.074,-482.203C383.285,-495.691 380.956,-514.678 374.39,-530 372.987,-533.273 371.206,-536.51 369.229,-539.616"/>
<polygon fill="#f0f0f0" stroke="#f0f0f0" points="366.247,-537.769 363.293,-547.944 371.947,-541.832 366.247,-537.769"/>
<text text-anchor="middle" x="396.526" y="-488.667" font-family="Times New Roman,serif" font-size="8.00" fill="#f0f0f0">use</text>
</g>
<!-- http://example.org/matrix0#1 -->
<g id="node6" class="node"><title>http://example.org/matrix0#1</title>
<ellipse fill="none" stroke="black" cx="114.39" cy="-566" rx="114.28" ry="18"/>
<text text-anchor="middle" x="114.39" y="-562.3" font-family="Times New Roman,serif" font-size="14.00">http://example.org/matrix0#1</text>
</g>
<!-- http://example.org/access2&#45;&gt;http://example.org/matrix0#1 -->
<g id="edge10" class="edge"><title>http://example.org/access2&#45;&gt;http://example.org/matrix0#1</title>
<path fill="none" stroke="#f0f0f0" d="M353.726,-464.161C311.173,-464.272 232.961,-469.179 175.39,-500 157.877,-509.376 142.59,-525.691 131.7,-539.629"/>
<polygon fill="#f0f0f0" stroke="#f0f0f0" points="128.689,-537.812 125.507,-547.917 134.297,-542.002 128.689,-537.812"/>
<text text-anchor="middle" x="272.89" y="-518.8" font-family="Times New Roman,serif" font-size="14.00" fill="#f0f0f0">use</text>
<text text-anchor="middle" x="272.89" y="-503.8" font-family="Times New Roman,serif" font-size="14.00" fill="#f0f0f0">ckpt: 2018&#45;06&#45;09T21:11:08.482507</text>
</g>
<!-- http://example.org/k#1 -->
<g id="node7" class="node"><title>http://example.org/k#1</title>
<ellipse fill="none" stroke="black" cx="558.39" cy="-566" rx="92.0841" ry="18"/>
<text text-anchor="middle" x="558.39" y="-562.3" font-family="Times New Roman,serif" font-size="14.00">http://example.org/k#1</text>
</g>
<!-- http://example.org/access2&#45;&gt;http://example.org/k#1 -->
<g id="edge6" class="edge"><title>http://example.org/access2&#45;&gt;http://example.org/k#1</title>
<path fill="none" stroke="#f0f0f0" d="M414.302,-482.191C443.839,-499.166 489.096,-525.176 520.993,-543.508"/>
<polygon fill="#f0f0f0" stroke="#f0f0f0" points="519.607,-546.748 530.021,-548.696 523.095,-540.678 519.607,-546.748"/>
<text text-anchor="middle" x="427.277" y="-472.765" font-family="Times New Roman,serif" font-size="8.00" fill="#f0f0f0">use</text>
</g>
<!-- bn0&#45;&gt;http://example.org/dist#1 -->
<g id="edge3" class="edge"><title>bn0&#45;&gt;http://example.org/dist#1</title>
<path fill="none" stroke="#f0f0f0" stroke-dasharray="5,2" d="M145.23,-466.114C144.292,-473.116 140.189,-511.331 159.39,-530 163.44,-533.938 216.337,-543.584 264.989,-551.754"/>
<polygon fill="#f0f0f0" stroke="#f0f0f0" points="264.527,-555.225 274.967,-553.419 265.679,-548.321 264.527,-555.225"/>
</g>
<!-- bn0&#45;&gt;http://example.org/matrix0#1 -->
<g id="edge4" class="edge"><title>bn0&#45;&gt;http://example.org/matrix0#1</title>
<path fill="none" stroke="#f0f0f0" d="M144.398,-465.718C139.946,-469.012 121.739,-483.235 115.39,-500 110.922,-511.798 110.165,-525.686 110.731,-537.589"/>
<polygon fill="#f0f0f0" stroke="#f0f0f0" points="107.265,-538.157 111.553,-547.846 114.242,-537.598 107.265,-538.157"/>
<text text-anchor="middle" x="123.39" y="-511.3" font-family="Times New Roman,serif" font-size="14.00" fill="#f0f0f0">[0]</text>
</g>
<!-- http://example.org/distk#1 -->
<g id="node8" class="node"><title>http://example.org/distk#1</title>
<g id="a_node8"><a xlink:href="http://example.org/distk#1" xlink:title="distk#1">
<ellipse fill="#fffc87" stroke="#808080" cx="276.39" cy="-117" rx="37.8943" ry="18"/>
<text text-anchor="middle" x="276.39" y="-113.3" font-family="Times New Roman,serif" font-size="14.00">distk#1</text>
</a>
</g>
</g>
<!-- http://example.org/distk#1&#45;&gt;http://example.org/dist@k#1 -->
<g id="edge8" class="edge"><title>http://example.org/distk#1&#45;&gt;http://example.org/dist@k#1</title>
<path fill="none" stroke="#f0f0f0" d="M274.831,-135.159C273.333,-151.937 271.058,-178.213 269.39,-201 266.402,-241.819 263.586,-289.149 261.924,-318.336"/>
<polygon fill="#f0f0f0" stroke="#f0f0f0" points="258.415,-318.401 261.346,-328.582 265.404,-318.795 258.415,-318.401"/>
<text text-anchor="middle" x="366.89" y="-235.8" font-family="Times New Roman,serif" font-size="14.00" fill="#f0f0f0">der ref</text>
<text text-anchor="middle" x="366.89" y="-220.8" font-family="Times New Roman,serif" font-size="14.00" fill="#f0f0f0">ckpt: 2018&#45;06&#45;09T21:11:08.483499</text>
</g>
<!-- http://example.org/assign6 -->
<g id="node10" class="node"><title>http://example.org/assign6</title>
<g id="a_node10"><a xlink:href="http://example.org/assign6" xlink:title="assign6">
<polygon fill="#fafafa" stroke="#f0f0f0" points="531.39,-250 473.39,-250 473.39,-214 531.39,-214 531.39,-250"/>
<text text-anchor="middle" x="502.39" y="-228.3" font-family="Times New Roman,serif" font-size="14.00" fill="#f0f0f0">assign6</text>
</a>
</g>
</g>
<!-- http://example.org/distk#1&#45;&gt;http://example.org/assign6 -->
<g id="edge12" class="edge"><title>http://example.org/distk#1&#45;&gt;http://example.org/assign6</title>
<path fill="none" stroke="#f0f0f0" d="M304.768,-128.975C341.43,-143.577 406.788,-171.058 459.39,-201 463.128,-203.128 466.951,-205.492 470.7,-207.933"/>
<polygon fill="#f0f0f0" stroke="#f0f0f0" points="468.992,-211.003 479.24,-213.693 472.906,-205.199 468.992,-211.003"/>
<text text-anchor="middle" x="522.89" y="-171.8" font-family="Times New Roman,serif" font-size="14.00" fill="#f0f0f0">gen</text>
<text text-anchor="middle" x="522.89" y="-156.8" font-family="Times New Roman,serif" font-size="14.00" fill="#f0f0f0">ckpt: 2018&#45;06&#45;09T21:11:08.483499</text>
</g>
<!-- http://example.org/distk#1&#45;attrs -->
<g id="node9" class="node"><title>http://example.org/distk#1&#45;attrs</title>
<polygon fill="none" stroke="gray" points="308.39,-62 238.39,-62 238.39,-0 314.39,-0 314.39,-56 308.39,-62"/>
<polyline fill="none" stroke="gray" points="308.39,-62 308.39,-56 "/>
<polyline fill="none" stroke="gray" points="314.39,-56 308.39,-56 "/>
<text text-anchor="start" x="248.39" y="-48" font-family="Times New Roman,serif" font-size="10.00">value:</text>
<text text-anchor="start" x="275.39" y="-48" font-family="Times New Roman,serif" font-size="10.00">[0, 1, 4]</text>
<text text-anchor="start" x="248.39" y="-35" font-family="Times New Roman,serif" font-size="10.00">type:</text>
<text text-anchor="start" x="275.39" y="-35" font-family="Times New Roman,serif" font-size="10.00">name</text>
<text text-anchor="start" x="248.39" y="-22" font-family="Times New Roman,serif" font-size="10.00">label:</text>
<text text-anchor="start" x="275.39" y="-22" font-family="Times New Roman,serif" font-size="10.00">distk</text>
<text text-anchor="start" x="248.39" y="-9" font-family="Times New Roman,serif" font-size="10.00">line:</text>
<text text-anchor="start" x="275.39" y="-9" font-family="Times New Roman,serif" font-size="10.00">9</text>
</g>
<!-- http://example.org/distk#1&#45;attrs&#45;&gt;http://example.org/distk#1 -->
<g id="edge7" class="edge"><title>http://example.org/distk#1&#45;attrs&#45;&gt;http://example.org/distk#1</title>
<path fill="none" stroke="gray" stroke-dasharray="5,2" d="M276.39,-62.3259C276.39,-74.5443 276.39,-88.1945 276.39,-98.6716"/>
</g>
<!-- http://example.org/assign6&#45;&gt;http://example.org/dist@k#1 -->
<g id="edge9" class="edge"><title>http://example.org/assign6&#45;&gt;http://example.org/dist@k#1</title>
<path fill="none" stroke="#f0f0f0" d="M479.765,-250.133C473.356,-254.61 466.252,-259.232 459.39,-263 407.749,-291.356 344.392,-316.217 303.241,-331.163"/>
<polygon fill="#f0f0f0" stroke="#f0f0f0" points="302.014,-327.884 293.79,-334.563 304.384,-334.471 302.014,-327.884"/>
<text text-anchor="middle" x="519.89" y="-299.8" font-family="Times New Roman,serif" font-size="14.00" fill="#f0f0f0">use</text>
<text text-anchor="middle" x="519.89" y="-284.8" font-family="Times New Roman,serif" font-size="14.00" fill="#f0f0f0">ckpt: 2018&#45;06&#45;09T21:11:08.483499</text>
</g>
</g>
</svg>
