<?xml version="1.0" encoding="UTF-8" standalone="no"?>
<!DOCTYPE svg PUBLIC "-//W3C//DTD SVG 1.1//EN"
 "http://www.w3.org/Graphics/SVG/1.1/DTD/svg11.dtd">
<!-- Generated by graphviz version 2.38.0 (20140413.2041)
 -->
<!-- Title: PROV Pages: 1 -->
<svg width="1040pt" height="469pt"
 viewBox="0.00 0.00 1039.74 469.00" xmlns="http://www.w3.org/2000/svg" xmlns:xlink="http://www.w3.org/1999/xlink">
<g id="graph0" class="graph" transform="scale(1 1) rotate(0) translate(4 465)">
<title>PROV</title>
<polygon fill="white" stroke="none" points="-4,4 -4,-465 1035.74,-465 1035.74,4 -4,4"/>
<!-- http://example.org/range_nodes -->
<g id="node1" class="node"><title>http://example.org/range_nodes</title>
<g id="a_node1"><a xlink:href="http://example.org/range_nodes" xlink:title="range_nodes">
<ellipse fill="#fffc87" stroke="#808080" cx="436" cy="-254" rx="57.3905" ry="18"/>
<text text-anchor="middle" x="436" y="-250.3" font-family="Times New Roman,serif" font-size="14.00">range_nodes</text>
</a>
</g>
</g>
<!-- http://example.org/v_range -->
<g id="node9" class="node"><title>http://example.org/v_range</title>
<g id="a_node9"><a xlink:href="http://example.org/v_range" xlink:title="v_range">
<ellipse fill="#fffc87" stroke="#808080" cx="329" cy="-344" rx="39.7935" ry="18"/>
<text text-anchor="middle" x="329" y="-340.3" font-family="Times New Roman,serif" font-size="14.00">v_range</text>
</a>
</g>
</g>
<!-- http://example.org/range_nodes&#45;&gt;http://example.org/v_range -->
<g id="edge12" class="edge"><title>http://example.org/range_nodes&#45;&gt;http://example.org/v_range</title>
<path fill="none" stroke="black" d="M384.816,-262.18C352.458,-267.887 314.929,-277.07 305,-290 298.406,-298.587 301.541,-309.275 307.414,-318.799"/>
<polygon fill="black" stroke="black" points="304.709,-321.032 313.377,-327.124 310.4,-316.956 304.709,-321.032"/>
<text text-anchor="middle" x="359.5" y="-301.6" font-family="Times New Roman,serif" font-size="8.00">defined</text>
<text text-anchor="middle" x="359.5" y="-292.6" font-family="Times New Roman,serif" font-size="8.00">2018&#45;03&#45;19T17:24:05.642349</text>
</g>
<!-- http://example.org/call2 -->
<g id="node11" class="node"><title>http://example.org/call2</title>
<g id="a_node11"><a xlink:href="http://example.org/call2" xlink:title="call2">
<polygon fill="#fafafa" stroke="#f0f0f0" points="958,-362 904,-362 904,-326 958,-326 958,-362"/>
<text text-anchor="middle" x="931" y="-340.3" font-family="Times New Roman,serif" font-size="14.00" fill="#f0f0f0">call2</text>
</a>
</g>
</g>
<!-- http://example.org/range_nodes&#45;&gt;http://example.org/call2 -->
<g id="edge15" class="edge"><title>http://example.org/range_nodes&#45;&gt;http://example.org/call2</title>
<path fill="none" stroke="#f0f0f0" d="M492.17,-257.631C578.239,-262.967 747.34,-278.62 894.126,-326.135"/>
<polygon fill="#f0f0f0" stroke="#f0f0f0" points="893.168,-329.504 903.761,-329.311 895.36,-322.856 893.168,-329.504"/>
<text text-anchor="middle" x="500.541" y="-243.284" font-family="Times New Roman,serif" font-size="8.00" fill="#f0f0f0">gen</text>
</g>
<!-- &#45;attrs0 -->
<g id="node2" class="node"><title>&#45;attrs0</title>
<polygon fill="none" stroke="gray" points="382,-182 290,-182 290,-146 388,-146 388,-176 382,-182"/>
<polyline fill="none" stroke="gray" points="382,-182 382,-176 "/>
<polyline fill="none" stroke="gray" points="388,-176 382,-176 "/>
<text text-anchor="start" x="300" y="-168" font-family="Times New Roman,serif" font-size="10.00">type:</text>
<text text-anchor="start" x="324" y="-168" font-family="Times New Roman,serif" font-size="10.00">eval</text>
<text text-anchor="start" x="300" y="-155" font-family="Times New Roman,serif" font-size="10.00">label:</text>
<text text-anchor="start" x="324" y="-155" font-family="Times New Roman,serif" font-size="10.00">range(nodes)</text>
</g>
<!-- &#45;attrs0&#45;&gt;http://example.org/range_nodes -->
<g id="edge1" class="edge"><title>&#45;attrs0&#45;&gt;http://example.org/range_nodes</title>
<path fill="none" stroke="gray" stroke-dasharray="5,2" d="M358.164,-182.386C375.611,-198.214 401.171,-221.403 418.184,-236.837"/>
</g>
<!-- http://example.org/v0#2 -->
<g id="node3" class="node"><title>http://example.org/v0#2</title>
<g id="a_node3"><a xlink:href="http://example.org/v0#2" xlink:title="v0#2">
<ellipse fill="#fffc87" stroke="#808080" cx="90" cy="-443" rx="28.6953" ry="18"/>
<text text-anchor="middle" x="90" y="-439.3" font-family="Times New Roman,serif" font-size="14.00">v0#2</text>
</a>
</g>
</g>
<!-- http://example.org/v0#2&#45;&gt;http://example.org/range_nodes -->
<g id="edge7" class="edge"><title>http://example.org/v0#2&#45;&gt;http://example.org/range_nodes</title>
<path fill="none" stroke="black" stroke-dasharray="5,2" d="M85.6552,-425.041C80.3707,-400.089 74.8843,-353.48 99,-326 134.044,-286.068 282.835,-267.362 370.561,-259.655"/>
<polygon fill="black" stroke="black" points="371.017,-263.129 380.683,-258.791 370.421,-256.154 371.017,-263.129"/>
<text text-anchor="middle" x="153.5" y="-351.1" font-family="Times New Roman,serif" font-size="8.00">der&#45;ins&#45;e</text>
<text text-anchor="middle" x="153.5" y="-342.1" font-family="Times New Roman,serif" font-size="8.00">[0]</text>
<text text-anchor="middle" x="153.5" y="-333.1" font-family="Times New Roman,serif" font-size="8.00">2018&#45;03&#45;19T17:24:05.642349</text>
</g>
<!-- &#45;attrs1 -->
<g id="node4" class="node"><title>&#45;attrs1</title>
<polygon fill="none" stroke="gray" points="48,-362 0,-362 0,-326 54,-326 54,-356 48,-362"/>
<polyline fill="none" stroke="gray" points="48,-362 48,-356 "/>
<polyline fill="none" stroke="gray" points="54,-356 48,-356 "/>
<text text-anchor="start" x="14" y="-341" font-family="Times New Roman,serif" font-size="10.00">repr:</text>
<text text-anchor="start" x="35" y="-341" font-family="Times New Roman,serif" font-size="10.00">0</text>
</g>
<!-- &#45;attrs1&#45;&gt;http://example.org/v0#2 -->
<g id="edge2" class="edge"><title>&#45;attrs1&#45;&gt;http://example.org/v0#2</title>
<path fill="none" stroke="gray" stroke-dasharray="5,2" d="M38.2631,-362.342C50.0135,-380.433 68.279,-408.557 79.6696,-426.094"/>
</g>
<!-- http://example.org/v1#2 -->
<g id="node5" class="node"><title>http://example.org/v1#2</title>
<g id="a_node5"><a xlink:href="http://example.org/v1#2" xlink:title="v1#2">
<ellipse fill="#fffc87" stroke="#808080" cx="304" cy="-443" rx="28.6953" ry="18"/>
<text text-anchor="middle" x="304" y="-439.3" font-family="Times New Roman,serif" font-size="14.00">v1#2</text>
</a>
</g>
</g>
<!-- http://example.org/v1#2&#45;&gt;http://example.org/range_nodes -->
<g id="edge9" class="edge"><title>http://example.org/v1#2&#45;&gt;http://example.org/range_nodes</title>
<path fill="none" stroke="black" stroke-dasharray="5,2" d="M332.717,-442.317C390.729,-442.279 518.7,-438.532 546,-407 580.081,-367.635 571.774,-331.249 540,-290 529.939,-276.939 514.796,-268.709 499.156,-263.536"/>
<polygon fill="black" stroke="black" points="499.975,-260.129 489.395,-260.695 498.018,-266.85 499.975,-260.129"/>
<text text-anchor="middle" x="622.5" y="-351.1" font-family="Times New Roman,serif" font-size="8.00">der&#45;ins&#45;e</text>
<text text-anchor="middle" x="622.5" y="-342.1" font-family="Times New Roman,serif" font-size="8.00">[1]</text>
<text text-anchor="middle" x="622.5" y="-333.1" font-family="Times New Roman,serif" font-size="8.00">2018&#45;03&#45;19T17:24:05.642349</text>
</g>
<!-- &#45;attrs2 -->
<g id="node6" class="node"><title>&#45;attrs2</title>
<polygon fill="none" stroke="gray" points="265,-362 217,-362 217,-326 271,-326 271,-356 265,-362"/>
<polyline fill="none" stroke="gray" points="265,-362 265,-356 "/>
<polyline fill="none" stroke="gray" points="271,-356 265,-356 "/>
<text text-anchor="start" x="231" y="-341" font-family="Times New Roman,serif" font-size="10.00">repr:</text>
<text text-anchor="start" x="252" y="-341" font-family="Times New Roman,serif" font-size="10.00">1</text>
</g>
<!-- &#45;attrs2&#45;&gt;http://example.org/v1#2 -->
<g id="edge3" class="edge"><title>&#45;attrs2&#45;&gt;http://example.org/v1#2</title>
<path fill="none" stroke="gray" stroke-dasharray="5,2" d="M216.726,-356.52C212.158,-358.389 207.455,-360.275 203,-362 180.974,-370.525 166.581,-360.677 153,-380 146.1,-389.818 145.534,-397.605 153,-407 168.027,-425.908 236.219,-435.508 275.632,-439.557"/>
</g>
<!-- http://example.org/v2#2 -->
<g id="node7" class="node"><title>http://example.org/v2#2</title>
<g id="a_node7"><a xlink:href="http://example.org/v2#2" xlink:title="v2#2">
<ellipse fill="#fffc87" stroke="#808080" cx="705" cy="-443" rx="28.6953" ry="18"/>
<text text-anchor="middle" x="705" y="-439.3" font-family="Times New Roman,serif" font-size="14.00">v2#2</text>
</a>
</g>
</g>
<!-- http://example.org/v2#2&#45;&gt;http://example.org/range_nodes -->
<g id="edge11" class="edge"><title>http://example.org/v2#2&#45;&gt;http://example.org/range_nodes</title>
<path fill="none" stroke="black" stroke-dasharray="5,2" d="M706.522,-424.616C707.713,-399.555 706.006,-353.294 681,-326 635.869,-276.74 558.848,-260.881 503.194,-256.164"/>
<polygon fill="black" stroke="black" points="503.297,-252.662 493.064,-255.407 502.775,-259.642 503.297,-252.662"/>
<text text-anchor="middle" x="755.5" y="-351.1" font-family="Times New Roman,serif" font-size="8.00">der&#45;ins&#45;e</text>
<text text-anchor="middle" x="755.5" y="-342.1" font-family="Times New Roman,serif" font-size="8.00">[2]</text>
<text text-anchor="middle" x="755.5" y="-333.1" font-family="Times New Roman,serif" font-size="8.00">2018&#45;03&#45;19T17:24:05.642349</text>
</g>
<!-- &#45;attrs3 -->
<g id="node8" class="node"><title>&#45;attrs3</title>
<polygon fill="none" stroke="gray" points="880,-362 832,-362 832,-326 886,-326 886,-356 880,-362"/>
<polyline fill="none" stroke="gray" points="880,-362 880,-356 "/>
<polyline fill="none" stroke="gray" points="886,-356 880,-356 "/>
<text text-anchor="start" x="846" y="-341" font-family="Times New Roman,serif" font-size="10.00">repr:</text>
<text text-anchor="start" x="867" y="-341" font-family="Times New Roman,serif" font-size="10.00">2</text>
</g>
<!-- &#45;attrs3&#45;&gt;http://example.org/v2#2 -->
<g id="edge4" class="edge"><title>&#45;attrs3&#45;&gt;http://example.org/v2#2</title>
<path fill="none" stroke="gray" stroke-dasharray="5,2" d="M831.822,-362.118C801.082,-381.481 751.777,-412.537 724.585,-429.664"/>
</g>
<!-- http://example.org/v_range&#45;&gt;http://example.org/range_nodes -->
<g id="edge13" class="edge"><title>http://example.org/v_range&#45;&gt;http://example.org/range_nodes</title>
<path fill="none" stroke="black" d="M363.997,-335.311C380.915,-330.058 400.439,-321.522 414,-308 421.149,-300.871 426.086,-291.08 429.441,-281.853"/>
<polygon fill="black" stroke="black" points="432.812,-282.803 432.492,-272.213 426.138,-280.691 432.812,-282.803"/>
<text text-anchor="middle" x="481.5" y="-301.6" font-family="Times New Roman,serif" font-size="8.00">def by</text>
<text text-anchor="middle" x="481.5" y="-292.6" font-family="Times New Roman,serif" font-size="8.00">2018&#45;03&#45;19T17:24:05.642349</text>
</g>
<!-- http://example.org/v_range&#45;&gt;http://example.org/v0#2 -->
<g id="edge6" class="edge"><title>http://example.org/v_range&#45;&gt;http://example.org/v0#2</title>
<path fill="none" stroke="black" d="M299.407,-356.006C293.055,-358.16 286.344,-360.281 280,-362 240.207,-372.783 227.327,-364.807 189,-380 162.188,-390.628 134.612,-408.582 115.396,-422.443"/>
<polygon fill="black" stroke="black" points="113.169,-419.736 107.188,-428.482 117.317,-425.375 113.169,-419.736"/>
<text text-anchor="middle" x="243.5" y="-400.6" font-family="Times New Roman,serif" font-size="8.00">der&#45;ins&#45;v</text>
<text text-anchor="middle" x="243.5" y="-391.6" font-family="Times New Roman,serif" font-size="8.00">[0]</text>
<text text-anchor="middle" x="243.5" y="-382.6" font-family="Times New Roman,serif" font-size="8.00">2018&#45;03&#45;19T17:24:05.642349</text>
</g>
<!-- http://example.org/v_range&#45;&gt;http://example.org/v1#2 -->
<g id="edge8" class="edge"><title>http://example.org/v_range&#45;&gt;http://example.org/v1#2</title>
<path fill="none" stroke="black" d="M315.111,-361.029C311.06,-366.655 307.148,-373.261 305,-380 301.457,-391.115 300.734,-403.93 301.079,-415.013"/>
<polygon fill="black" stroke="black" points="297.585,-415.226 301.679,-424.997 304.573,-414.805 297.585,-415.226"/>
<text text-anchor="middle" x="359.5" y="-400.6" font-family="Times New Roman,serif" font-size="8.00">der&#45;ins&#45;v</text>
<text text-anchor="middle" x="359.5" y="-391.6" font-family="Times New Roman,serif" font-size="8.00">[1]</text>
<text text-anchor="middle" x="359.5" y="-382.6" font-family="Times New Roman,serif" font-size="8.00">2018&#45;03&#45;19T17:24:05.642349</text>
</g>
<!-- http://example.org/v_range&#45;&gt;http://example.org/v2#2 -->
<g id="edge10" class="edge"><title>http://example.org/v_range&#45;&gt;http://example.org/v2#2</title>
<path fill="none" stroke="black" d="M362.698,-353.693C433.31,-371.91 596.25,-413.945 668.901,-432.687"/>
<polygon fill="black" stroke="black" points="668.386,-436.169 678.943,-435.278 670.135,-429.391 668.386,-436.169"/>
<text text-anchor="middle" x="616.5" y="-400.6" font-family="Times New Roman,serif" font-size="8.00">der&#45;ins&#45;v</text>
<text text-anchor="middle" x="616.5" y="-391.6" font-family="Times New Roman,serif" font-size="8.00">[2]</text>
<text text-anchor="middle" x="616.5" y="-382.6" font-family="Times New Roman,serif" font-size="8.00">2018&#45;03&#45;19T17:24:05.642349</text>
</g>
<!-- &#45;attrs4 -->
<g id="node10" class="node"><title>&#45;attrs4</title>
<polygon fill="none" stroke="gray" points="108,-272 44,-272 44,-236 114,-236 114,-266 108,-272"/>
<polyline fill="none" stroke="gray" points="108,-272 108,-266 "/>
<polyline fill="none" stroke="gray" points="114,-266 108,-266 "/>
<text text-anchor="start" x="54" y="-251" font-family="Times New Roman,serif" font-size="10.00">repr:</text>
<text text-anchor="start" x="75" y="-251" font-family="Times New Roman,serif" font-size="10.00">[0, 1, 2]</text>
</g>
<!-- &#45;attrs4&#45;&gt;http://example.org/v_range -->
<g id="edge5" class="edge"><title>&#45;attrs4&#45;&gt;http://example.org/v_range</title>
<path fill="none" stroke="gray" stroke-dasharray="5,2" d="M89.8803,-272.108C98.6151,-284.281 112.033,-299.865 128,-308 188.613,-338.884 213.701,-310.762 280,-326 286.494,-327.493 293.328,-329.543 299.763,-331.703"/>
</g>
<!-- http://example.org/nodes -->
<g id="node12" class="node"><title>http://example.org/nodes</title>
<ellipse fill="none" stroke="black" cx="931" cy="-443" rx="100.983" ry="18"/>
<text text-anchor="middle" x="931" y="-439.3" font-family="Times New Roman,serif" font-size="14.00">http://example.org/nodes</text>
</g>
<!-- http://example.org/call2&#45;&gt;http://example.org/nodes -->
<g id="edge14" class="edge"><title>http://example.org/call2&#45;&gt;http://example.org/nodes</title>
<path fill="none" stroke="#f0f0f0" d="M931,-362.342C931,-376.825 931,-397.737 931,-414.501"/>
<polygon fill="#f0f0f0" stroke="#f0f0f0" points="927.5,-414.808 931,-424.808 934.5,-414.809 927.5,-414.808"/>
<text text-anchor="middle" x="943.99" y="-367.942" font-family="Times New Roman,serif" font-size="8.00" fill="#f0f0f0">use</text>
</g>
<!-- http://example.org/indexes -->
<g id="node13" class="node"><title>http://example.org/indexes</title>
<g id="a_node13"><a xlink:href="http://example.org/indexes" xlink:title="indexes">
<ellipse fill="#fffc87" stroke="#808080" cx="416" cy="-91" rx="38.1938" ry="18"/>
<text text-anchor="middle" x="416" y="-87.3" font-family="Times New Roman,serif" font-size="14.00">indexes</text>
</a>
</g>
</g>
<!-- http://example.org/indexes&#45;&gt;http://example.org/range_nodes -->
<g id="edge18" class="edge"><title>http://example.org/indexes&#45;&gt;http://example.org/range_nodes</title>
<path fill="none" stroke="#f0f0f0" d="M418.14,-109.23C421.614,-137.192 428.505,-192.667 432.638,-225.936"/>
<polygon fill="#f0f0f0" stroke="#f0f0f0" points="429.169,-226.402 433.875,-235.894 436.115,-225.539 429.169,-226.402"/>
<text text-anchor="middle" x="431.956" y="-113.171" font-family="Times New Roman,serif" font-size="8.00" fill="#f0f0f0">der</text>
</g>
<!-- http://example.org/indexes&#45;&gt;http://example.org/v_range -->
<g id="edge17" class="edge"><title>http://example.org/indexes&#45;&gt;http://example.org/v_range</title>
<path fill="none" stroke="black" d="M379.939,-97.3468C349.397,-103.745 306.605,-117.424 281,-146 232.688,-199.917 261.199,-245.656 298,-308 300.338,-311.96 303.159,-315.882 306.135,-319.588"/>
<polygon fill="black" stroke="black" points="303.592,-321.998 312.771,-327.289 308.895,-317.429 303.592,-321.998"/>
<text text-anchor="middle" x="311.5" y="-211.6" font-family="Times New Roman,serif" font-size="8.00">access</text>
<text text-anchor="middle" x="311.5" y="-202.6" font-family="Times New Roman,serif" font-size="8.00">2018&#45;03&#45;19T17:24:05.642850</text>
</g>
<!-- http://example.org/assign6 -->
<g id="node15" class="node"><title>http://example.org/assign6</title>
<g id="a_node15"><a xlink:href="http://example.org/assign6" xlink:title="assign6">
<polygon fill="#fafafa" stroke="#f0f0f0" points="502,-182 444,-182 444,-146 502,-146 502,-182"/>
<text text-anchor="middle" x="473" y="-160.3" font-family="Times New Roman,serif" font-size="14.00" fill="#f0f0f0">assign6</text>
</a>
</g>
</g>
<!-- http://example.org/indexes&#45;&gt;http://example.org/assign6 -->
<g id="edge20" class="edge"><title>http://example.org/indexes&#45;&gt;http://example.org/assign6</title>
<path fill="none" stroke="#f0f0f0" d="M428.934,-108.111C436.017,-116.933 444.949,-128.06 452.917,-137.985"/>
<polygon fill="#f0f0f0" stroke="#f0f0f0" points="450.332,-140.356 459.322,-145.963 455.791,-135.974 450.332,-140.356"/>
<text text-anchor="middle" x="443.759" y="-103.927" font-family="Times New Roman,serif" font-size="8.00" fill="#f0f0f0">gen</text>
</g>
<!-- &#45;attrs5 -->
<g id="node14" class="node"><title>&#45;attrs5</title>
<polygon fill="none" stroke="gray" points="447.5,-36 378.5,-36 378.5,-0 453.5,-0 453.5,-30 447.5,-36"/>
<polyline fill="none" stroke="gray" points="447.5,-36 447.5,-30 "/>
<polyline fill="none" stroke="gray" points="453.5,-30 447.5,-30 "/>
<text text-anchor="start" x="389" y="-22" font-family="Times New Roman,serif" font-size="10.00">type:</text>
<text text-anchor="start" x="413" y="-22" font-family="Times New Roman,serif" font-size="10.00">name</text>
<text text-anchor="start" x="389" y="-9" font-family="Times New Roman,serif" font-size="10.00">label:</text>
<text text-anchor="start" x="413" y="-9" font-family="Times New Roman,serif" font-size="10.00">indexes</text>
</g>
<!-- &#45;attrs5&#45;&gt;http://example.org/indexes -->
<g id="edge16" class="edge"><title>&#45;attrs5&#45;&gt;http://example.org/indexes</title>
<path fill="none" stroke="gray" stroke-dasharray="5,2" d="M416,-36.1871C416,-47.3501 416,-61.8398 416,-72.9712"/>
</g>
<!-- http://example.org/assign6&#45;&gt;http://example.org/range_nodes -->
<g id="edge19" class="edge"><title>http://example.org/assign6&#45;&gt;http://example.org/range_nodes</title>
<path fill="none" stroke="#f0f0f0" d="M465.69,-182.386C460.385,-195.002 453.115,-212.295 447.096,-226.609"/>
<polygon fill="#f0f0f0" stroke="#f0f0f0" points="443.818,-225.375 443.169,-235.95 450.271,-228.088 443.818,-225.375"/>
<text text-anchor="middle" x="474.758" y="-192.435" font-family="Times New Roman,serif" font-size="8.00" fill="#f0f0f0">use</text>
</g>
</g>
</svg>
