<?xml version="1.0" encoding="UTF-8" standalone="no"?>
<!DOCTYPE svg PUBLIC "-//W3C//DTD SVG 1.1//EN"
 "http://www.w3.org/Graphics/SVG/1.1/DTD/svg11.dtd">
<!-- Generated by graphviz version 2.38.0 (20140413.2041)
 -->
<!-- Title: PROV Pages: 1 -->
<svg width="441pt" height="452pt"
 viewBox="0.00 0.00 440.63 452.00" xmlns="http://www.w3.org/2000/svg" xmlns:xlink="http://www.w3.org/1999/xlink">
<g id="graph0" class="graph" transform="scale(1 1) rotate(0) translate(4 448)">
<title>PROV</title>
<polygon fill="white" stroke="none" points="-4,4 -4,-448 436.634,-448 436.634,4 -4,4"/>
<!-- http://example.org/dist_ai#2 -->
<g id="node1" class="node"><title>http://example.org/dist_ai#2</title>
<g id="a_node1"><a xlink:href="http://example.org/dist_ai#2" xlink:title="dist_ai#2">
<ellipse fill="#fffc87" stroke="#808080" cx="235.942" cy="-254" rx="44.393" ry="18"/>
<text text-anchor="middle" x="235.942" y="-250.3" font-family="Times New Roman,serif" font-size="14.00">dist_ai#2</text>
</a>
</g>
</g>
<!-- http://example.org/vlist -->
<g id="node3" class="node"><title>http://example.org/vlist</title>
<ellipse fill="none" stroke="black" cx="92.9418" cy="-353" rx="92.8835" ry="18"/>
<text text-anchor="middle" x="92.9418" y="-349.3" font-family="Times New Roman,serif" font-size="14.00">http://example.org/vlist</text>
</g>
<!-- http://example.org/dist_ai#2&#45;&gt;http://example.org/vlist -->
<g id="edge2" class="edge"><title>http://example.org/dist_ai#2&#45;&gt;http://example.org/vlist</title>
<path fill="none" stroke="black" d="M194.843,-260.636C172.752,-265.402 146.18,-274.124 126.942,-290 115.735,-299.248 107.623,-313.198 102.14,-325.525"/>
<polygon fill="black" stroke="black" points="98.8348,-324.361 98.2971,-334.942 105.316,-327.005 98.8348,-324.361"/>
<text text-anchor="middle" x="181.442" y="-310.6" font-family="Times New Roman,serif" font-size="8.00">part</text>
<text text-anchor="middle" x="181.442" y="-301.6" font-family="Times New Roman,serif" font-size="8.00">vmatrix[2]</text>
<text text-anchor="middle" x="181.442" y="-292.6" font-family="Times New Roman,serif" font-size="8.00">2018&#45;03&#45;10T05:14:54.724116</text>
</g>
<!-- http://example.org/access13 -->
<g id="node4" class="node"><title>http://example.org/access13</title>
<g id="a_node4"><a xlink:href="http://example.org/access13" xlink:title="access13">
<polygon fill="#fafafa" stroke="#f0f0f0" points="277.942,-371 209.942,-371 209.942,-335 277.942,-335 277.942,-371"/>
<text text-anchor="middle" x="243.942" y="-349.3" font-family="Times New Roman,serif" font-size="14.00" fill="#f0f0f0">access13</text>
</a>
</g>
</g>
<!-- http://example.org/dist_ai#2&#45;&gt;http://example.org/access13 -->
<g id="edge5" class="edge"><title>http://example.org/dist_ai#2&#45;&gt;http://example.org/access13</title>
<path fill="none" stroke="#f0f0f0" d="M237.372,-272.342C238.566,-286.825 240.291,-307.737 241.674,-324.501"/>
<polygon fill="#f0f0f0" stroke="#f0f0f0" points="238.214,-325.13 242.524,-334.808 245.19,-324.555 238.214,-325.13"/>
<text text-anchor="middle" x="250.935" y="-276.849" font-family="Times New Roman,serif" font-size="8.00" fill="#f0f0f0">gen</text>
</g>
<!-- &#45;attrs0 -->
<g id="node2" class="node"><title>&#45;attrs0</title>
<polygon fill="none" stroke="gray" points="265.942,-182 199.942,-182 199.942,-146 271.942,-146 271.942,-176 265.942,-182"/>
<polyline fill="none" stroke="gray" points="265.942,-182 265.942,-176 "/>
<polyline fill="none" stroke="gray" points="271.942,-176 265.942,-176 "/>
<text text-anchor="start" x="209.942" y="-168" font-family="Times New Roman,serif" font-size="10.00">type:</text>
<text text-anchor="start" x="233.942" y="-168" font-family="Times New Roman,serif" font-size="10.00">access</text>
<text text-anchor="start" x="209.942" y="-155" font-family="Times New Roman,serif" font-size="10.00">label:</text>
<text text-anchor="start" x="233.942" y="-155" font-family="Times New Roman,serif" font-size="10.00">dist[i]</text>
</g>
<!-- &#45;attrs0&#45;&gt;http://example.org/dist_ai#2 -->
<g id="edge1" class="edge"><title>&#45;attrs0&#45;&gt;http://example.org/dist_ai#2</title>
<path fill="none" stroke="gray" stroke-dasharray="5,2" d="M235.942,-182.386C235.942,-197.914 235.942,-220.525 235.942,-235.95"/>
</g>
<!-- http://example.org/dist -->
<g id="node5" class="node"><title>http://example.org/dist</title>
<ellipse fill="none" stroke="black" cx="143.942" cy="-426" rx="91.784" ry="18"/>
<text text-anchor="middle" x="143.942" y="-422.3" font-family="Times New Roman,serif" font-size="14.00">http://example.org/dist</text>
</g>
<!-- http://example.org/access13&#45;&gt;http://example.org/dist -->
<g id="edge3" class="edge"><title>http://example.org/access13&#45;&gt;http://example.org/dist</title>
<path fill="none" stroke="#f0f0f0" d="M219.989,-371.006C206.658,-380.471 189.899,-392.37 175.509,-402.587"/>
<polygon fill="#f0f0f0" stroke="#f0f0f0" points="173.481,-399.734 167.354,-408.377 177.534,-405.442 173.481,-399.734"/>
<text text-anchor="middle" x="221.394" y="-384.04" font-family="Times New Roman,serif" font-size="8.00" fill="#f0f0f0">use</text>
</g>
<!-- http://example.org/i#3 -->
<g id="node6" class="node"><title>http://example.org/i#3</title>
<ellipse fill="none" stroke="black" cx="342.942" cy="-426" rx="89.8845" ry="18"/>
<text text-anchor="middle" x="342.942" y="-422.3" font-family="Times New Roman,serif" font-size="14.00">http://example.org/i#3</text>
</g>
<!-- http://example.org/access13&#45;&gt;http://example.org/i#3 -->
<g id="edge4" class="edge"><title>http://example.org/access13&#45;&gt;http://example.org/i#3</title>
<path fill="none" stroke="#f0f0f0" d="M267.655,-371.006C280.729,-380.383 297.134,-392.148 311.29,-402.3"/>
<polygon fill="#f0f0f0" stroke="#f0f0f0" points="309.598,-405.394 319.764,-408.377 313.677,-399.705 309.598,-405.394"/>
<text text-anchor="middle" x="281.32" y="-362.921" font-family="Times New Roman,serif" font-size="8.00" fill="#f0f0f0">use</text>
</g>
<!-- http://example.org/disti#2 -->
<g id="node7" class="node"><title>http://example.org/disti#2</title>
<g id="a_node7"><a xlink:href="http://example.org/disti#2" xlink:title="disti#2">
<ellipse fill="#fffc87" stroke="#808080" cx="148.942" cy="-91" rx="35.194" ry="18"/>
<text text-anchor="middle" x="148.942" y="-87.3" font-family="Times New Roman,serif" font-size="14.00">disti#2</text>
</a>
</g>
</g>
<!-- http://example.org/disti#2&#45;&gt;http://example.org/dist_ai#2 -->
<g id="edge8" class="edge"><title>http://example.org/disti#2&#45;&gt;http://example.org/dist_ai#2</title>
<path fill="none" stroke="#f0f0f0" d="M183.175,-95.501C214.536,-100.727 259.274,-113.725 280.942,-146 298.649,-172.376 277.485,-206.841 258.608,-229.432"/>
<polygon fill="#f0f0f0" stroke="#f0f0f0" points="255.78,-227.349 251.833,-237.181 261.05,-231.956 255.78,-227.349"/>
<text text-anchor="middle" x="192.918" y="-82.1961" font-family="Times New Roman,serif" font-size="8.00" fill="#f0f0f0">der</text>
</g>
<!-- http://example.org/disti#2&#45;&gt;http://example.org/vlist -->
<g id="edge7" class="edge"><title>http://example.org/disti#2&#45;&gt;http://example.org/vlist</title>
<path fill="none" stroke="black" d="M134.678,-107.686C117.913,-127.464 91.4249,-163.334 83.9418,-200 75.1464,-243.095 81.5855,-294.379 87.1716,-325.004"/>
<polygon fill="black" stroke="black" points="83.755,-325.771 89.0856,-334.927 90.6283,-324.445 83.755,-325.771"/>
<text text-anchor="middle" x="138.442" y="-211.6" font-family="Times New Roman,serif" font-size="8.00">access</text>
<text text-anchor="middle" x="138.442" y="-202.6" font-family="Times New Roman,serif" font-size="8.00">2018&#45;03&#45;10T05:14:54.724116</text>
</g>
<!-- http://example.org/assign10 -->
<g id="node9" class="node"><title>http://example.org/assign10</title>
<g id="a_node9"><a xlink:href="http://example.org/assign10" xlink:title="assign10">
<polygon fill="#fafafa" stroke="#f0f0f0" points="181.442,-182 116.442,-182 116.442,-146 181.442,-146 181.442,-182"/>
<text text-anchor="middle" x="148.942" y="-160.3" font-family="Times New Roman,serif" font-size="14.00" fill="#f0f0f0">assign10</text>
</a>
</g>
</g>
<!-- http://example.org/disti#2&#45;&gt;http://example.org/assign10 -->
<g id="edge10" class="edge"><title>http://example.org/disti#2&#45;&gt;http://example.org/assign10</title>
<path fill="none" stroke="#f0f0f0" d="M148.942,-109.187C148.942,-117.211 148.942,-126.953 148.942,-135.931"/>
<polygon fill="#f0f0f0" stroke="#f0f0f0" points="145.442,-135.971 148.942,-145.971 152.442,-135.971 145.442,-135.971"/>
<text text-anchor="middle" x="161.932" y="-114.787" font-family="Times New Roman,serif" font-size="8.00" fill="#f0f0f0">gen</text>
</g>
<!-- &#45;attrs1 -->
<g id="node8" class="node"><title>&#45;attrs1</title>
<polygon fill="none" stroke="gray" points="175.942,-36 115.942,-36 115.942,-0 181.942,-0 181.942,-30 175.942,-36"/>
<polyline fill="none" stroke="gray" points="175.942,-36 175.942,-30 "/>
<polyline fill="none" stroke="gray" points="181.942,-30 175.942,-30 "/>
<text text-anchor="start" x="125.942" y="-22" font-family="Times New Roman,serif" font-size="10.00">type:</text>
<text text-anchor="start" x="149.942" y="-22" font-family="Times New Roman,serif" font-size="10.00">name</text>
<text text-anchor="start" x="125.942" y="-9" font-family="Times New Roman,serif" font-size="10.00">label:</text>
<text text-anchor="start" x="149.942" y="-9" font-family="Times New Roman,serif" font-size="10.00">disti</text>
</g>
<!-- &#45;attrs1&#45;&gt;http://example.org/disti#2 -->
<g id="edge6" class="edge"><title>&#45;attrs1&#45;&gt;http://example.org/disti#2</title>
<path fill="none" stroke="gray" stroke-dasharray="5,2" d="M148.942,-36.1871C148.942,-47.3501 148.942,-61.8398 148.942,-72.9712"/>
</g>
<!-- http://example.org/assign10&#45;&gt;http://example.org/dist_ai#2 -->
<g id="edge9" class="edge"><title>http://example.org/assign10&#45;&gt;http://example.org/dist_ai#2</title>
<path fill="none" stroke="#f0f0f0" d="M175.516,-182.163C182.829,-187.46 190.51,-193.596 196.942,-200 205.285,-208.307 213.232,-218.516 219.749,-227.748"/>
<polygon fill="#f0f0f0" stroke="#f0f0f0" points="216.995,-229.923 225.525,-236.207 222.776,-225.975 216.995,-229.923"/>
<text text-anchor="middle" x="189.243" y="-174.214" font-family="Times New Roman,serif" font-size="8.00" fill="#f0f0f0">use</text>
</g>
</g>
</svg>
