<?xml version="1.0" encoding="UTF-8" standalone="no"?>
<!DOCTYPE svg PUBLIC "-//W3C//DTD SVG 1.1//EN"
 "http://www.w3.org/Graphics/SVG/1.1/DTD/svg11.dtd">
<!-- Generated by graphviz version 2.38.0 (20140413.2041)
 -->
<!-- Title: PROV Pages: 1 -->
<svg width="437pt" height="461pt"
 viewBox="0.00 0.00 437.03 461.00" xmlns="http://www.w3.org/2000/svg" xmlns:xlink="http://www.w3.org/1999/xlink">
<g id="graph0" class="graph" transform="scale(1 1) rotate(0) translate(4 457)">
<title>PROV</title>
<polygon fill="white" stroke="none" points="-4,4 -4,-457 433.034,-457 433.034,4 -4,4"/>
<!-- http://example.org/result_a0 -->
<g id="node1" class="node"><title>http://example.org/result_a0</title>
<g id="a_node1"><a xlink:href="http://example.org/result_a0" xlink:title="result_a0">
<ellipse fill="#fafafa" stroke="#f0f0f0" cx="158.841" cy="-263" rx="43.5923" ry="18"/>
<text text-anchor="middle" x="158.841" y="-259.3" font-family="Times New Roman,serif" font-size="14.00" fill="#f0f0f0">result_a0</text>
</a>
</g>
</g>
<!-- http://example.org/row0 -->
<g id="node2" class="node"><title>http://example.org/row0</title>
<ellipse fill="none" stroke="black" cx="96.8414" cy="-362" rx="96.6831" ry="18"/>
<text text-anchor="middle" x="96.8414" y="-358.3" font-family="Times New Roman,serif" font-size="14.00">http://example.org/row0</text>
</g>
<!-- http://example.org/result_a0&#45;&gt;http://example.org/row0 -->
<g id="edge1" class="edge"><title>http://example.org/result_a0&#45;&gt;http://example.org/row0</title>
<path fill="none" stroke="black" d="M132.544,-277.568C124.112,-283.138 115.501,-290.335 109.841,-299 103.118,-309.293 99.788,-322.418 98.1692,-333.939"/>
<polygon fill="black" stroke="black" points="94.6825,-333.63 97.1156,-343.942 101.644,-334.364 94.6825,-333.63"/>
<text text-anchor="middle" x="164.341" y="-319.6" font-family="Times New Roman,serif" font-size="8.00">part</text>
<text text-anchor="middle" x="164.341" y="-310.6" font-family="Times New Roman,serif" font-size="8.00">vmatrix[0]</text>
<text text-anchor="middle" x="164.341" y="-301.6" font-family="Times New Roman,serif" font-size="8.00">2018&#45;03&#45;10T05:14:59.829482</text>
</g>
<!-- http://example.org/access58 -->
<g id="node3" class="node"><title>http://example.org/access58</title>
<g id="a_node3"><a xlink:href="http://example.org/access58" xlink:title="access58">
<polygon fill="#fafafa" stroke="#f0f0f0" points="279.841,-380 211.841,-380 211.841,-344 279.841,-344 279.841,-380"/>
<text text-anchor="middle" x="245.841" y="-358.3" font-family="Times New Roman,serif" font-size="14.00" fill="#f0f0f0">access58</text>
</a>
</g>
</g>
<!-- http://example.org/result_a0&#45;&gt;http://example.org/access58 -->
<g id="edge4" class="edge"><title>http://example.org/result_a0&#45;&gt;http://example.org/access58</title>
<path fill="none" stroke="#f0f0f0" d="M188.367,-276.451C199.044,-282.093 210.508,-289.627 218.841,-299 227.71,-308.976 234.027,-322.32 238.309,-334.073"/>
<polygon fill="#f0f0f0" stroke="#f0f0f0" points="235.088,-335.479 241.562,-343.867 241.732,-333.273 235.088,-335.479"/>
<text text-anchor="middle" x="201.156" y="-266.712" font-family="Times New Roman,serif" font-size="8.00" fill="#f0f0f0">gen</text>
</g>
<!-- http://example.org/result -->
<g id="node4" class="node"><title>http://example.org/result</title>
<ellipse fill="none" stroke="black" cx="146.841" cy="-435" rx="98.2828" ry="18"/>
<text text-anchor="middle" x="146.841" y="-431.3" font-family="Times New Roman,serif" font-size="14.00">http://example.org/result</text>
</g>
<!-- http://example.org/access58&#45;&gt;http://example.org/result -->
<g id="edge2" class="edge"><title>http://example.org/access58&#45;&gt;http://example.org/result</title>
<path fill="none" stroke="#f0f0f0" d="M222.128,-380.006C209.054,-389.383 192.649,-401.148 178.493,-411.3"/>
<polygon fill="#f0f0f0" stroke="#f0f0f0" points="176.106,-408.705 170.019,-417.377 180.185,-414.394 176.106,-408.705"/>
<text text-anchor="middle" x="223.604" y="-393.033" font-family="Times New Roman,serif" font-size="8.00" fill="#f0f0f0">use</text>
</g>
<!-- http://example.org/0 -->
<g id="node5" class="node"><title>http://example.org/0</title>
<ellipse fill="none" stroke="black" cx="345.841" cy="-435" rx="83.3857" ry="18"/>
<text text-anchor="middle" x="345.841" y="-431.3" font-family="Times New Roman,serif" font-size="14.00">http://example.org/0</text>
</g>
<!-- http://example.org/access58&#45;&gt;http://example.org/0 -->
<g id="edge3" class="edge"><title>http://example.org/access58&#45;&gt;http://example.org/0</title>
<path fill="none" stroke="#f0f0f0" d="M269.794,-380.006C283.222,-389.54 300.127,-401.543 314.587,-411.809"/>
<polygon fill="#f0f0f0" stroke="#f0f0f0" points="312.593,-414.686 322.773,-417.621 316.645,-408.978 312.593,-414.686"/>
<text text-anchor="middle" x="283.43" y="-371.856" font-family="Times New Roman,serif" font-size="8.00" fill="#f0f0f0">use</text>
</g>
<!-- http://example.org/result_a02 -->
<g id="node6" class="node"><title>http://example.org/result_a02</title>
<g id="a_node6"><a xlink:href="http://example.org/result_a02" xlink:title="result_a02">
<ellipse fill="#fafafa" stroke="#f0f0f0" cx="169.841" cy="-91" rx="48.1917" ry="18"/>
<text text-anchor="middle" x="169.841" y="-87.3" font-family="Times New Roman,serif" font-size="14.00" fill="#f0f0f0">result_a02</text>
</a>
</g>
</g>
<!-- http://example.org/vsum#3 -->
<g id="node7" class="node"><title>http://example.org/vsum#3</title>
<ellipse fill="none" stroke="black" cx="107.841" cy="-190" rx="107.482" ry="18"/>
<text text-anchor="middle" x="107.841" y="-186.3" font-family="Times New Roman,serif" font-size="14.00">http://example.org/vsum#3</text>
</g>
<!-- http://example.org/result_a02&#45;&gt;http://example.org/vsum#3 -->
<g id="edge5" class="edge"><title>http://example.org/result_a02&#45;&gt;http://example.org/vsum#3</title>
<path fill="none" stroke="black" d="M145.879,-106.805C138.552,-112.35 131.06,-119.217 125.841,-127 118.911,-137.335 114.607,-150.365 111.954,-161.81"/>
<polygon fill="black" stroke="black" points="108.495,-161.259 109.954,-171.753 115.357,-162.639 108.495,-161.259"/>
<text text-anchor="middle" x="180.341" y="-147.6" font-family="Times New Roman,serif" font-size="8.00">part</text>
<text text-anchor="middle" x="180.341" y="-138.6" font-family="Times New Roman,serif" font-size="8.00">row0[2]</text>
<text text-anchor="middle" x="180.341" y="-129.6" font-family="Times New Roman,serif" font-size="8.00">2018&#45;03&#45;10T05:14:59.829482</text>
</g>
<!-- http://example.org/access59 -->
<g id="node8" class="node"><title>http://example.org/access59</title>
<g id="a_node8"><a xlink:href="http://example.org/access59" xlink:title="access59">
<polygon fill="#fafafa" stroke="#f0f0f0" points="300.841,-208 232.841,-208 232.841,-172 300.841,-172 300.841,-208"/>
<text text-anchor="middle" x="266.841" y="-186.3" font-family="Times New Roman,serif" font-size="14.00" fill="#f0f0f0">access59</text>
</a>
</g>
</g>
<!-- http://example.org/result_a02&#45;&gt;http://example.org/access59 -->
<g id="edge8" class="edge"><title>http://example.org/result_a02&#45;&gt;http://example.org/access59</title>
<path fill="none" stroke="#f0f0f0" d="M201.827,-104.472C213.259,-110.079 225.589,-117.584 234.841,-127 244.592,-136.922 252.034,-150.419 257.277,-162.287"/>
<polygon fill="#f0f0f0" stroke="#f0f0f0" points="254.129,-163.838 261.165,-171.759 260.605,-161.179 254.129,-163.838"/>
<text text-anchor="middle" x="214.369" y="-94.3442" font-family="Times New Roman,serif" font-size="8.00" fill="#f0f0f0">gen</text>
</g>
<!-- http://example.org/access59&#45;&gt;http://example.org/result_a0 -->
<g id="edge6" class="edge"><title>http://example.org/access59&#45;&gt;http://example.org/result_a0</title>
<path fill="none" stroke="#f0f0f0" d="M240.973,-208.006C225.598,-218.114 206.002,-230.996 189.807,-241.643"/>
<polygon fill="#f0f0f0" stroke="#f0f0f0" points="187.642,-238.877 181.209,-247.295 191.488,-244.727 187.642,-238.877"/>
<text text-anchor="middle" x="241.842" y="-221.081" font-family="Times New Roman,serif" font-size="8.00" fill="#f0f0f0">use</text>
</g>
<!-- http://example.org/2 -->
<g id="node9" class="node"><title>http://example.org/2</title>
<ellipse fill="none" stroke="black" cx="303.841" cy="-263" rx="83.3857" ry="18"/>
<text text-anchor="middle" x="303.841" y="-259.3" font-family="Times New Roman,serif" font-size="14.00">http://example.org/2</text>
</g>
<!-- http://example.org/access59&#45;&gt;http://example.org/2 -->
<g id="edge7" class="edge"><title>http://example.org/access59&#45;&gt;http://example.org/2</title>
<path fill="none" stroke="#f0f0f0" d="M275.798,-208.187C280.161,-216.559 285.499,-226.803 290.343,-236.097"/>
<polygon fill="#f0f0f0" stroke="#f0f0f0" points="287.242,-237.721 294.967,-244.971 293.45,-234.486 287.242,-237.721"/>
<text text-anchor="middle" x="290.784" y="-206.935" font-family="Times New Roman,serif" font-size="8.00" fill="#f0f0f0">use</text>
</g>
<!-- http://example.org/print1 -->
<g id="node10" class="node"><title>http://example.org/print1</title>
<g id="a_node10"><a xlink:href="http://example.org/print1" xlink:title="print1">
<polygon fill="#fafafa" stroke="#f0f0f0" points="196.841,-36 142.841,-36 142.841,-0 196.841,-0 196.841,-36"/>
<text text-anchor="middle" x="169.841" y="-14.3" font-family="Times New Roman,serif" font-size="14.00" fill="#f0f0f0">print1</text>
</a>
</g>
</g>
<!-- http://example.org/print1&#45;&gt;http://example.org/result_a02 -->
<g id="edge9" class="edge"><title>http://example.org/print1&#45;&gt;http://example.org/result_a02</title>
<path fill="none" stroke="#f0f0f0" d="M169.841,-36.1871C169.841,-44.2105 169.841,-53.9525 169.841,-62.9309"/>
<polygon fill="#f0f0f0" stroke="#f0f0f0" points="166.342,-62.9711 169.841,-72.9712 173.342,-62.9712 166.342,-62.9711"/>
<text text-anchor="middle" x="182.832" y="-41.7871" font-family="Times New Roman,serif" font-size="8.00" fill="#f0f0f0">use</text>
</g>
</g>
</svg>
