<?xml version="1.0" encoding="UTF-8" standalone="no"?>
<!DOCTYPE svg PUBLIC "-//W3C//DTD SVG 1.1//EN"
 "http://www.w3.org/Graphics/SVG/1.1/DTD/svg11.dtd">
<!-- Generated by graphviz version 2.38.0 (20140413.2041)
 -->
<!-- Title: PROV Pages: 1 -->
<svg width="437pt" height="461pt"
 viewBox="0.00 0.00 437.03 461.00" xmlns="http://www.w3.org/2000/svg" xmlns:xlink="http://www.w3.org/1999/xlink">
<g id="graph0" class="graph" transform="scale(1 1) rotate(0) translate(4 457)">
<title>PROV</title>
<polygon fill="white" stroke="none" points="-4,4 -4,-457 433.034,-457 433.034,4 -4,4"/>
<!-- http://example.org/result@0 -->
<g id="node1" class="node"><title>http://example.org/result@0</title>
<g id="a_node1"><a xlink:href="http://example.org/result@0" xlink:title="result@0">
<ellipse fill="#fafafa" stroke="#f0f0f0" cx="158.841" cy="-263" rx="42.7926" ry="18"/>
<text text-anchor="middle" x="158.841" y="-259.3" font-family="Times New Roman,serif" font-size="14.00" fill="#f0f0f0">result@0</text>
</a>
</g>
</g>
<!-- http://example.org/row0 -->
<g id="node2" class="node"><title>http://example.org/row0</title>
<ellipse fill="none" stroke="black" cx="96.8414" cy="-362" rx="96.6831" ry="18"/>
<text text-anchor="middle" x="96.8414" y="-358.3" font-family="Times New Roman,serif" font-size="14.00">http://example.org/row0</text>
</g>
<!-- http://example.org/result@0&#45;&gt;http://example.org/row0 -->
<g id="edge1" class="edge"><title>http://example.org/result@0&#45;&gt;http://example.org/row0</title>
<path fill="none" stroke="black" d="M132.799,-277.4C124.286,-282.992 115.558,-290.248 109.841,-299 103.118,-309.293 99.788,-322.418 98.1692,-333.939"/>
<polygon fill="black" stroke="black" points="94.6825,-333.63 97.1156,-343.942 101.644,-334.364 94.6825,-333.63"/>
<text text-anchor="middle" x="164.341" y="-319.6" font-family="Times New Roman,serif" font-size="8.00">part</text>
<text text-anchor="middle" x="164.341" y="-310.6" font-family="Times New Roman,serif" font-size="8.00">vmatrix[0]</text>
<text text-anchor="middle" x="164.341" y="-301.6" font-family="Times New Roman,serif" font-size="8.00">2018&#45;03&#45;19T17:24:15.480989</text>
</g>
<!-- http://example.org/access58 -->
<g id="node3" class="node"><title>http://example.org/access58</title>
<g id="a_node3"><a xlink:href="http://example.org/access58" xlink:title="access58">
<polygon fill="#fafafa" stroke="#f0f0f0" points="279.841,-380 211.841,-380 211.841,-344 279.841,-344 279.841,-380"/>
<text text-anchor="middle" x="245.841" y="-358.3" font-family="Times New Roman,serif" font-size="14.00" fill="#f0f0f0">access58</text>
</a>
</g>
</g>
<!-- http://example.org/result@0&#45;&gt;http://example.org/access58 -->
<g id="edge4" class="edge"><title>http://example.org/result@0&#45;&gt;http://example.org/access58</title>
<path fill="none" stroke="#f0f0f0" d="M188.059,-276.289C198.823,-281.948 210.428,-289.537 218.841,-299 227.71,-308.976 234.027,-322.32 238.309,-334.073"/>
<polygon fill="#f0f0f0" stroke="#f0f0f0" points="235.088,-335.479 241.562,-343.867 241.732,-333.273 235.088,-335.479"/>
<text text-anchor="middle" x="200.832" y="-266.524" font-family="Times New Roman,serif" font-size="8.00" fill="#f0f0f0">gen</text>
</g>
<!-- http://example.org/result -->
<g id="node4" class="node"><title>http://example.org/result</title>
<ellipse fill="none" stroke="black" cx="146.841" cy="-435" rx="98.2828" ry="18"/>
<text text-anchor="middle" x="146.841" y="-431.3" font-family="Times New Roman,serif" font-size="14.00">http://example.org/result</text>
</g>
<!-- http://example.org/access58&#45;&gt;http://example.org/result -->
<g id="edge2" class="edge"><title>http://example.org/access58&#45;&gt;http://example.org/result</title>
<path fill="none" stroke="#f0f0f0" d="M222.128,-380.006C209.054,-389.383 192.649,-401.148 178.493,-411.3"/>
<polygon fill="#f0f0f0" stroke="#f0f0f0" points="176.106,-408.705 170.019,-417.377 180.185,-414.394 176.106,-408.705"/>
<text text-anchor="middle" x="223.604" y="-393.033" font-family="Times New Roman,serif" font-size="8.00" fill="#f0f0f0">use</text>
</g>
<!-- http://example.org/0 -->
<g id="node5" class="node"><title>http://example.org/0</title>
<ellipse fill="none" stroke="black" cx="345.841" cy="-435" rx="83.3857" ry="18"/>
<text text-anchor="middle" x="345.841" y="-431.3" font-family="Times New Roman,serif" font-size="14.00">http://example.org/0</text>
</g>
<!-- http://example.org/access58&#45;&gt;http://example.org/0 -->
<g id="edge3" class="edge"><title>http://example.org/access58&#45;&gt;http://example.org/0</title>
<path fill="none" stroke="#f0f0f0" d="M269.794,-380.006C283.222,-389.54 300.127,-401.543 314.587,-411.809"/>
<polygon fill="#f0f0f0" stroke="#f0f0f0" points="312.593,-414.686 322.773,-417.621 316.645,-408.978 312.593,-414.686"/>
<text text-anchor="middle" x="283.43" y="-371.856" font-family="Times New Roman,serif" font-size="8.00" fill="#f0f0f0">use</text>
</g>
<!-- http://example.org/result@0@2 -->
<g id="node6" class="node"><title>http://example.org/result@0@2</title>
<g id="a_node6"><a xlink:href="http://example.org/result@0@2" xlink:title="result@0@2">
<ellipse fill="#fafafa" stroke="#f0f0f0" cx="169.841" cy="-91" rx="55.7903" ry="18"/>
<text text-anchor="middle" x="169.841" y="-87.3" font-family="Times New Roman,serif" font-size="14.00" fill="#f0f0f0">result@0@2</text>
</a>
</g>
</g>
<!-- http://example.org/vsum#3 -->
<g id="node7" class="node"><title>http://example.org/vsum#3</title>
<ellipse fill="none" stroke="black" cx="107.841" cy="-190" rx="107.482" ry="18"/>
<text text-anchor="middle" x="107.841" y="-186.3" font-family="Times New Roman,serif" font-size="14.00">http://example.org/vsum#3</text>
</g>
<!-- http://example.org/result@0@2&#45;&gt;http://example.org/vsum#3 -->
<g id="edge5" class="edge"><title>http://example.org/result@0@2&#45;&gt;http://example.org/vsum#3</title>
<path fill="none" stroke="black" d="M144.963,-107.505C137.932,-112.924 130.843,-119.542 125.841,-127 118.911,-137.335 114.607,-150.365 111.954,-161.81"/>
<polygon fill="black" stroke="black" points="108.495,-161.259 109.954,-171.753 115.357,-162.639 108.495,-161.259"/>
<text text-anchor="middle" x="180.341" y="-147.6" font-family="Times New Roman,serif" font-size="8.00">part</text>
<text text-anchor="middle" x="180.341" y="-138.6" font-family="Times New Roman,serif" font-size="8.00">row0[2]</text>
<text text-anchor="middle" x="180.341" y="-129.6" font-family="Times New Roman,serif" font-size="8.00">2018&#45;03&#45;19T17:24:15.480989</text>
</g>
<!-- http://example.org/access59 -->
<g id="node8" class="node"><title>http://example.org/access59</title>
<g id="a_node8"><a xlink:href="http://example.org/access59" xlink:title="access59">
<polygon fill="#fafafa" stroke="#f0f0f0" points="300.841,-208 232.841,-208 232.841,-172 300.841,-172 300.841,-208"/>
<text text-anchor="middle" x="266.841" y="-186.3" font-family="Times New Roman,serif" font-size="14.00" fill="#f0f0f0">access59</text>
</a>
</g>
</g>
<!-- http://example.org/result@0@2&#45;&gt;http://example.org/access59 -->
<g id="edge8" class="edge"><title>http://example.org/result@0@2&#45;&gt;http://example.org/access59</title>
<path fill="none" stroke="#f0f0f0" d="M203.833,-105.471C214.685,-110.96 226.128,-118.133 234.841,-127 244.592,-136.922 252.034,-150.419 257.277,-162.287"/>
<polygon fill="#f0f0f0" stroke="#f0f0f0" points="254.129,-163.838 261.165,-171.759 260.605,-161.179 254.129,-163.838"/>
<text text-anchor="middle" x="216.474" y="-95.4962" font-family="Times New Roman,serif" font-size="8.00" fill="#f0f0f0">gen</text>
</g>
<!-- http://example.org/access59&#45;&gt;http://example.org/result@0 -->
<g id="edge6" class="edge"><title>http://example.org/access59&#45;&gt;http://example.org/result@0</title>
<path fill="none" stroke="#f0f0f0" d="M240.973,-208.006C225.493,-218.183 205.733,-231.173 189.475,-241.861"/>
<polygon fill="#f0f0f0" stroke="#f0f0f0" points="187.286,-239.112 180.852,-247.53 191.131,-244.961 187.286,-239.112"/>
<text text-anchor="middle" x="241.842" y="-221.081" font-family="Times New Roman,serif" font-size="8.00" fill="#f0f0f0">use</text>
</g>
<!-- http://example.org/2 -->
<g id="node9" class="node"><title>http://example.org/2</title>
<ellipse fill="none" stroke="black" cx="302.841" cy="-263" rx="83.3857" ry="18"/>
<text text-anchor="middle" x="302.841" y="-259.3" font-family="Times New Roman,serif" font-size="14.00">http://example.org/2</text>
</g>
<!-- http://example.org/access59&#45;&gt;http://example.org/2 -->
<g id="edge7" class="edge"><title>http://example.org/access59&#45;&gt;http://example.org/2</title>
<path fill="none" stroke="#f0f0f0" d="M275.556,-208.187C279.757,-216.472 284.887,-226.59 289.56,-235.807"/>
<polygon fill="#f0f0f0" stroke="#f0f0f0" points="286.563,-237.635 294.207,-244.971 292.806,-234.469 286.563,-237.635"/>
<text text-anchor="middle" x="290.534" y="-207.102" font-family="Times New Roman,serif" font-size="8.00" fill="#f0f0f0">use</text>
</g>
<!-- http://example.org/print1 -->
<g id="node10" class="node"><title>http://example.org/print1</title>
<g id="a_node10"><a xlink:href="http://example.org/print1" xlink:title="print1">
<polygon fill="#fafafa" stroke="#f0f0f0" points="196.841,-36 142.841,-36 142.841,-0 196.841,-0 196.841,-36"/>
<text text-anchor="middle" x="169.841" y="-14.3" font-family="Times New Roman,serif" font-size="14.00" fill="#f0f0f0">print1</text>
</a>
</g>
</g>
<!-- http://example.org/print1&#45;&gt;http://example.org/result@0@2 -->
<g id="edge9" class="edge"><title>http://example.org/print1&#45;&gt;http://example.org/result@0@2</title>
<path fill="none" stroke="#f0f0f0" d="M169.841,-36.1871C169.841,-44.2105 169.841,-53.9525 169.841,-62.9309"/>
<polygon fill="#f0f0f0" stroke="#f0f0f0" points="166.342,-62.9711 169.841,-72.9712 173.342,-62.9712 166.342,-62.9711"/>
<text text-anchor="middle" x="182.832" y="-41.7871" font-family="Times New Roman,serif" font-size="8.00" fill="#f0f0f0">use</text>
</g>
</g>
</svg>
