<?xml version="1.0" encoding="UTF-8" standalone="no"?>
<!DOCTYPE svg PUBLIC "-//W3C//DTD SVG 1.1//EN"
 "http://www.w3.org/Graphics/SVG/1.1/DTD/svg11.dtd">
<!-- Generated by graphviz version 2.38.0 (20140413.2041)
 -->
<!-- Title: PROV Pages: 1 -->
<svg width="577pt" height="305pt"
 viewBox="0.00 0.00 577.00 305.00" xmlns="http://www.w3.org/2000/svg" xmlns:xlink="http://www.w3.org/1999/xlink">
<g id="graph0" class="graph" transform="scale(1 1) rotate(0) translate(4 301)">
<title>PROV</title>
<polygon fill="white" stroke="none" points="-4,4 -4,-301 573,-301 573,4 -4,4"/>
<!-- http://example.org/dist -->
<g id="node1" class="node"><title>http://example.org/dist</title>
<g id="a_node1"><a xlink:href="http://example.org/dist" xlink:title="dist">
<ellipse fill="#fffc87" stroke="#808080" cx="86" cy="-104" rx="27" ry="18"/>
<text text-anchor="middle" x="86" y="-100.3" font-family="Times New Roman,serif" font-size="14.00">dist</text>
</a>
</g>
</g>
<!-- http://example.org/vmatrix -->
<g id="node3" class="node"><title>http://example.org/vmatrix</title>
<ellipse fill="none" stroke="black" cx="262" cy="-206" rx="105.082" ry="18"/>
<text text-anchor="middle" x="262" y="-202.3" font-family="Times New Roman,serif" font-size="14.00">http://example.org/vmatrix</text>
</g>
<!-- http://example.org/dist&#45;&gt;http://example.org/vmatrix -->
<g id="edge2" class="edge"><title>http://example.org/dist&#45;&gt;http://example.org/vmatrix</title>
<path fill="none" stroke="black" d="M90.5428,-121.968C95.4003,-136.831 104.57,-157.894 120,-170 133.276,-180.416 149.228,-187.782 165.573,-192.981"/>
<polygon fill="black" stroke="black" points="164.645,-196.356 175.225,-195.798 166.606,-189.636 164.645,-196.356"/>
<text text-anchor="middle" x="201.5" y="-158.8" font-family="Times New Roman,serif" font-size="14.00">access</text>
<text text-anchor="middle" x="201.5" y="-143.8" font-family="Times New Roman,serif" font-size="14.00">2018&#45;03&#45;25T18:49:55.038545</text>
</g>
<!-- http://example.org/assign2 -->
<g id="node4" class="node"><title>http://example.org/assign2</title>
<g id="a_node4"><a xlink:href="http://example.org/assign2" xlink:title="assign2">
<polygon fill="#fafafa" stroke="#f0f0f0" points="58,-224 0,-224 0,-188 58,-188 58,-224"/>
<text text-anchor="middle" x="29" y="-202.3" font-family="Times New Roman,serif" font-size="14.00" fill="#f0f0f0">assign2</text>
</a>
</g>
</g>
<!-- http://example.org/dist&#45;&gt;http://example.org/assign2 -->
<g id="edge10" class="edge"><title>http://example.org/dist&#45;&gt;http://example.org/assign2</title>
<path fill="none" stroke="#f0f0f0" d="M76.842,-121.067C67.904,-136.747 54.1606,-160.859 43.6934,-179.222"/>
<polygon fill="#f0f0f0" stroke="#f0f0f0" points="40.619,-177.548 38.7076,-187.969 46.7004,-181.015 40.619,-177.548"/>
<text text-anchor="middle" x="84.4137" y="-132.115" font-family="Times New Roman,serif" font-size="8.00" fill="#f0f0f0">gen</text>
</g>
<!-- http://example.org/matrix -->
<g id="node5" class="node"><title>http://example.org/matrix</title>
<ellipse fill="none" stroke="black" cx="284" cy="-279" rx="100.983" ry="18"/>
<text text-anchor="middle" x="284" y="-275.3" font-family="Times New Roman,serif" font-size="14.00">http://example.org/matrix</text>
</g>
<!-- http://example.org/dist&#45;&gt;http://example.org/matrix -->
<g id="edge3" class="edge"><title>http://example.org/dist&#45;&gt;http://example.org/matrix</title>
<path fill="none" stroke="#f0f0f0" d="M87.2782,-122.086C88.8474,-135.68 92.3242,-154.866 100,-170 114.525,-198.638 121.7,-205.577 148,-224 170.226,-239.569 197.583,-251.548 221.919,-260.221"/>
<polygon fill="#f0f0f0" stroke="#f0f0f0" points="220.837,-263.55 231.432,-263.501 223.119,-256.932 220.837,-263.55"/>
<text text-anchor="middle" x="101.1" y="-126.015" font-family="Times New Roman,serif" font-size="8.00" fill="#f0f0f0">der</text>
</g>
<!-- http://example.org/dist&#45;attrs -->
<g id="node2" class="node"><title>http://example.org/dist&#45;attrs</title>
<polygon fill="none" stroke="gray" points="113,-49 53,-49 53,-0 119,-0 119,-43 113,-49"/>
<polyline fill="none" stroke="gray" points="113,-49 113,-43 "/>
<polyline fill="none" stroke="gray" points="119,-43 113,-43 "/>
<text text-anchor="start" x="63" y="-34.5" font-family="Times New Roman,serif" font-size="10.00">type:</text>
<text text-anchor="start" x="87" y="-34.5" font-family="Times New Roman,serif" font-size="10.00">name</text>
<text text-anchor="start" x="63" y="-21.5" font-family="Times New Roman,serif" font-size="10.00">label:</text>
<text text-anchor="start" x="87" y="-21.5" font-family="Times New Roman,serif" font-size="10.00">dist</text>
<text text-anchor="start" x="63" y="-8.5" font-family="Times New Roman,serif" font-size="10.00">line:</text>
<text text-anchor="start" x="87" y="-8.5" font-family="Times New Roman,serif" font-size="10.00">2</text>
</g>
<!-- http://example.org/dist&#45;attrs&#45;&gt;http://example.org/dist -->
<g id="edge1" class="edge"><title>http://example.org/dist&#45;attrs&#45;&gt;http://example.org/dist</title>
<path fill="none" stroke="gray" stroke-dasharray="5,2" d="M86,-49.1737C86,-60.9254 86,-74.869 86,-85.6196"/>
</g>
<!-- http://example.org/assign2&#45;&gt;http://example.org/matrix -->
<g id="edge8" class="edge"><title>http://example.org/assign2&#45;&gt;http://example.org/matrix</title>
<path fill="none" stroke="#f0f0f0" d="M45.1031,-224.039C52.6204,-230.992 62.0896,-238.451 72,-243 104.94,-258.12 143.413,-266.804 178.475,-271.76"/>
<polygon fill="#f0f0f0" stroke="#f0f0f0" points="178.377,-275.278 188.75,-273.121 179.296,-268.338 178.377,-275.278"/>
<text text-anchor="middle" x="59.3861" y="-217.557" font-family="Times New Roman,serif" font-size="8.00" fill="#f0f0f0">use</text>
</g>
<!-- http://example.org/result -->
<g id="node6" class="node"><title>http://example.org/result</title>
<g id="a_node6"><a xlink:href="http://example.org/result" xlink:title="result">
<ellipse fill="#fffc87" stroke="#808080" cx="483" cy="-104" rx="30.5947" ry="18"/>
<text text-anchor="middle" x="483" y="-100.3" font-family="Times New Roman,serif" font-size="14.00">result</text>
</a>
</g>
</g>
<!-- http://example.org/result&#45;&gt;http://example.org/vmatrix -->
<g id="edge5" class="edge"><title>http://example.org/result&#45;&gt;http://example.org/vmatrix</title>
<path fill="none" stroke="black" d="M452.183,-104.224C414.62,-104.728 350.643,-110.401 306,-140 301.962,-142.677 288.832,-162.439 277.958,-179.477"/>
<polygon fill="black" stroke="black" points="274.932,-177.713 272.537,-188.034 280.845,-181.459 274.932,-177.713"/>
<text text-anchor="middle" x="387.5" y="-158.8" font-family="Times New Roman,serif" font-size="14.00">access</text>
<text text-anchor="middle" x="387.5" y="-143.8" font-family="Times New Roman,serif" font-size="14.00">2018&#45;03&#45;25T18:49:55.038545</text>
</g>
<!-- http://example.org/result&#45;&gt;http://example.org/matrix -->
<g id="edge6" class="edge"><title>http://example.org/result&#45;&gt;http://example.org/matrix</title>
<path fill="none" stroke="#f0f0f0" d="M482.998,-122.275C482.182,-136.34 479.095,-156.074 469,-170 437.409,-213.578 382.41,-242.401 340.566,-259.224"/>
<polygon fill="#f0f0f0" stroke="#f0f0f0" points="339.089,-256.044 331.045,-262.939 341.633,-262.565 339.089,-256.044"/>
<text text-anchor="middle" x="495.411" y="-128.796" font-family="Times New Roman,serif" font-size="8.00" fill="#f0f0f0">der</text>
</g>
<!-- http://example.org/assign3 -->
<g id="node8" class="node"><title>http://example.org/assign3</title>
<g id="a_node8"><a xlink:href="http://example.org/assign3" xlink:title="assign3">
<polygon fill="#fafafa" stroke="#f0f0f0" points="569,-224 511,-224 511,-188 569,-188 569,-224"/>
<text text-anchor="middle" x="540" y="-202.3" font-family="Times New Roman,serif" font-size="14.00" fill="#f0f0f0">assign3</text>
</a>
</g>
</g>
<!-- http://example.org/result&#45;&gt;http://example.org/assign3 -->
<g id="edge9" class="edge"><title>http://example.org/result&#45;&gt;http://example.org/assign3</title>
<path fill="none" stroke="#f0f0f0" d="M492.412,-121.513C501.298,-137.102 514.765,-160.729 525.108,-178.874"/>
<polygon fill="#f0f0f0" stroke="#f0f0f0" points="522.198,-180.837 530.191,-187.792 528.28,-177.371 522.198,-180.837"/>
<text text-anchor="middle" x="507.412" y="-119.696" font-family="Times New Roman,serif" font-size="8.00" fill="#f0f0f0">gen</text>
</g>
<!-- http://example.org/result&#45;attrs -->
<g id="node7" class="node"><title>http://example.org/result&#45;attrs</title>
<polygon fill="none" stroke="gray" points="510.5,-49 449.5,-49 449.5,-0 516.5,-0 516.5,-43 510.5,-49"/>
<polyline fill="none" stroke="gray" points="510.5,-49 510.5,-43 "/>
<polyline fill="none" stroke="gray" points="516.5,-43 510.5,-43 "/>
<text text-anchor="start" x="460" y="-34.5" font-family="Times New Roman,serif" font-size="10.00">type:</text>
<text text-anchor="start" x="484" y="-34.5" font-family="Times New Roman,serif" font-size="10.00">name</text>
<text text-anchor="start" x="460" y="-21.5" font-family="Times New Roman,serif" font-size="10.00">label:</text>
<text text-anchor="start" x="484" y="-21.5" font-family="Times New Roman,serif" font-size="10.00">result</text>
<text text-anchor="start" x="460" y="-8.5" font-family="Times New Roman,serif" font-size="10.00">line:</text>
<text text-anchor="start" x="484" y="-8.5" font-family="Times New Roman,serif" font-size="10.00">2</text>
</g>
<!-- http://example.org/result&#45;attrs&#45;&gt;http://example.org/result -->
<g id="edge4" class="edge"><title>http://example.org/result&#45;attrs&#45;&gt;http://example.org/result</title>
<path fill="none" stroke="gray" stroke-dasharray="5,2" d="M483,-49.1737C483,-60.9254 483,-74.869 483,-85.6196"/>
</g>
<!-- http://example.org/assign3&#45;&gt;http://example.org/matrix -->
<g id="edge7" class="edge"><title>http://example.org/assign3&#45;&gt;http://example.org/matrix</title>
<path fill="none" stroke="#f0f0f0" d="M523.898,-224.043C516.382,-230.996 506.912,-238.455 497,-243 463.826,-258.212 425.067,-266.915 389.773,-271.861"/>
<polygon fill="#f0f0f0" stroke="#f0f0f0" points="388.891,-268.446 379.431,-273.218 389.802,-275.387 388.891,-268.446"/>
<text text-anchor="middle" x="527.072" y="-236.803" font-family="Times New Roman,serif" font-size="8.00" fill="#f0f0f0">use</text>
</g>
</g>
</svg>
