<?xml version="1.0" encoding="UTF-8" standalone="no"?>
<!DOCTYPE svg PUBLIC "-//W3C//DTD SVG 1.1//EN"
 "http://www.w3.org/Graphics/SVG/1.1/DTD/svg11.dtd">
<!-- Generated by graphviz version 2.38.0 (20140413.2041)
 -->
<!-- Title: PROV Pages: 1 -->
<svg width="469pt" height="280pt"
 viewBox="0.00 0.00 469.00 280.00" xmlns="http://www.w3.org/2000/svg" xmlns:xlink="http://www.w3.org/1999/xlink">
<g id="graph0" class="graph" transform="scale(1 1) rotate(0) translate(4 276)">
<title>PROV</title>
<polygon fill="white" stroke="none" points="-4,4 -4,-276 465,-276 465,4 -4,4"/>
<!-- http://example.org/dist -->
<g id="node1" class="node"><title>http://example.org/dist</title>
<g id="a_node1"><a xlink:href="http://example.org/dist" xlink:title="dist">
<ellipse fill="#fffc87" stroke="#808080" cx="86" cy="-91" rx="27" ry="18"/>
<text text-anchor="middle" x="86" y="-87.3" font-family="Times New Roman,serif" font-size="14.00">dist</text>
</a>
</g>
</g>
<!-- http://example.org/vmatrix -->
<g id="node3" class="node"><title>http://example.org/vmatrix</title>
<ellipse fill="none" stroke="black" cx="230" cy="-181" rx="105.082" ry="18"/>
<text text-anchor="middle" x="230" y="-177.3" font-family="Times New Roman,serif" font-size="14.00">http://example.org/vmatrix</text>
</g>
<!-- http://example.org/dist&#45;&gt;http://example.org/vmatrix -->
<g id="edge2" class="edge"><title>http://example.org/dist&#45;&gt;http://example.org/vmatrix</title>
<path fill="none" stroke="black" d="M92.8939,-108.55C98.5682,-120.28 107.682,-135.553 120,-145 130.038,-152.699 141.815,-158.729 153.861,-163.445"/>
<polygon fill="black" stroke="black" points="152.958,-166.84 163.552,-166.952 155.34,-160.258 152.958,-166.84"/>
<text text-anchor="middle" x="174.5" y="-138.6" font-family="Times New Roman,serif" font-size="8.00">access</text>
<text text-anchor="middle" x="174.5" y="-129.6" font-family="Times New Roman,serif" font-size="8.00">2018&#45;03&#45;19T17:24:04.896772</text>
</g>
<!-- http://example.org/assign3 -->
<g id="node4" class="node"><title>http://example.org/assign3</title>
<g id="a_node4"><a xlink:href="http://example.org/assign3" xlink:title="assign3">
<polygon fill="#fafafa" stroke="#f0f0f0" points="58,-199 0,-199 0,-163 58,-163 58,-199"/>
<text text-anchor="middle" x="29" y="-177.3" font-family="Times New Roman,serif" font-size="14.00" fill="#f0f0f0">assign3</text>
</a>
</g>
</g>
<!-- http://example.org/dist&#45;&gt;http://example.org/assign3 -->
<g id="edge9" class="edge"><title>http://example.org/dist&#45;&gt;http://example.org/assign3</title>
<path fill="none" stroke="#f0f0f0" d="M75.8095,-107.733C67.4043,-120.709 55.3145,-139.374 45.5271,-154.485"/>
<polygon fill="#f0f0f0" stroke="#f0f0f0" points="42.5746,-152.605 40.0757,-162.901 48.4499,-156.41 42.5746,-152.605"/>
<text text-anchor="middle" x="82.6352" y="-119.19" font-family="Times New Roman,serif" font-size="8.00" fill="#f0f0f0">gen</text>
</g>
<!-- http://example.org/matrix -->
<g id="node5" class="node"><title>http://example.org/matrix</title>
<ellipse fill="none" stroke="black" cx="230" cy="-254" rx="100.983" ry="18"/>
<text text-anchor="middle" x="230" y="-250.3" font-family="Times New Roman,serif" font-size="14.00">http://example.org/matrix</text>
</g>
<!-- http://example.org/dist&#45;&gt;http://example.org/matrix -->
<g id="edge3" class="edge"><title>http://example.org/dist&#45;&gt;http://example.org/matrix</title>
<path fill="none" stroke="#f0f0f0" d="M86.487,-109.261C88.0155,-132.307 93.9123,-173.211 116,-199 129.588,-214.865 148.877,-226.405 167.732,-234.639"/>
<polygon fill="#f0f0f0" stroke="#f0f0f0" points="166.642,-237.975 177.222,-238.535 169.3,-231.499 166.642,-237.975"/>
<text text-anchor="middle" x="100.041" y="-113.787" font-family="Times New Roman,serif" font-size="8.00" fill="#f0f0f0">der</text>
</g>
<!-- &#45;attrs0 -->
<g id="node2" class="node"><title>&#45;attrs0</title>
<polygon fill="none" stroke="gray" points="113,-36 53,-36 53,-0 119,-0 119,-30 113,-36"/>
<polyline fill="none" stroke="gray" points="113,-36 113,-30 "/>
<polyline fill="none" stroke="gray" points="119,-30 113,-30 "/>
<text text-anchor="start" x="63" y="-22" font-family="Times New Roman,serif" font-size="10.00">type:</text>
<text text-anchor="start" x="87" y="-22" font-family="Times New Roman,serif" font-size="10.00">name</text>
<text text-anchor="start" x="63" y="-9" font-family="Times New Roman,serif" font-size="10.00">label:</text>
<text text-anchor="start" x="87" y="-9" font-family="Times New Roman,serif" font-size="10.00">dist</text>
</g>
<!-- &#45;attrs0&#45;&gt;http://example.org/dist -->
<g id="edge1" class="edge"><title>&#45;attrs0&#45;&gt;http://example.org/dist</title>
<path fill="none" stroke="gray" stroke-dasharray="5,2" d="M86,-36.1871C86,-47.3501 86,-61.8398 86,-72.9712"/>
</g>
<!-- http://example.org/assign3&#45;&gt;http://example.org/matrix -->
<g id="edge8" class="edge"><title>http://example.org/assign3&#45;&gt;http://example.org/matrix</title>
<path fill="none" stroke="#f0f0f0" d="M45.6297,-199.156C53.1013,-205.957 62.3917,-213.269 72,-218 92.9688,-228.324 116.994,-235.634 139.875,-240.799"/>
<polygon fill="#f0f0f0" stroke="#f0f0f0" points="139.433,-244.284 149.944,-242.954 140.898,-237.439 139.433,-244.284"/>
<text text-anchor="middle" x="59.8806" y="-192.575" font-family="Times New Roman,serif" font-size="8.00" fill="#f0f0f0">use</text>
</g>
<!-- http://example.org/result -->
<g id="node6" class="node"><title>http://example.org/result</title>
<g id="a_node6"><a xlink:href="http://example.org/result" xlink:title="result">
<ellipse fill="#fffc87" stroke="#808080" cx="375" cy="-91" rx="30.5947" ry="18"/>
<text text-anchor="middle" x="375" y="-87.3" font-family="Times New Roman,serif" font-size="14.00">result</text>
</a>
</g>
</g>
<!-- http://example.org/result&#45;&gt;http://example.org/vmatrix -->
<g id="edge5" class="edge"><title>http://example.org/result&#45;&gt;http://example.org/vmatrix</title>
<path fill="none" stroke="black" d="M344.674,-93.3612C317.374,-96.1161 277.706,-104.121 252,-127 244.349,-133.81 239.295,-143.698 235.986,-153.094"/>
<polygon fill="black" stroke="black" points="232.557,-152.344 233.04,-162.928 239.263,-154.353 232.557,-152.344"/>
<text text-anchor="middle" x="306.5" y="-138.6" font-family="Times New Roman,serif" font-size="8.00">access</text>
<text text-anchor="middle" x="306.5" y="-129.6" font-family="Times New Roman,serif" font-size="8.00">2018&#45;03&#45;19T17:24:04.896772</text>
</g>
<!-- http://example.org/result&#45;&gt;http://example.org/matrix -->
<g id="edge6" class="edge"><title>http://example.org/result&#45;&gt;http://example.org/matrix</title>
<path fill="none" stroke="#f0f0f0" d="M374.361,-109.298C372.628,-132.386 366.36,-173.336 344,-199 330.153,-214.893 310.604,-226.468 291.597,-234.726"/>
<polygon fill="#f0f0f0" stroke="#f0f0f0" points="290.265,-231.489 282.338,-238.518 292.918,-237.967 290.265,-231.489"/>
<text text-anchor="middle" x="386.628" y="-116.031" font-family="Times New Roman,serif" font-size="8.00" fill="#f0f0f0">der</text>
</g>
<!-- http://example.org/assign4 -->
<g id="node8" class="node"><title>http://example.org/assign4</title>
<g id="a_node8"><a xlink:href="http://example.org/assign4" xlink:title="assign4">
<polygon fill="#fafafa" stroke="#f0f0f0" points="461,-199 403,-199 403,-163 461,-163 461,-199"/>
<text text-anchor="middle" x="432" y="-177.3" font-family="Times New Roman,serif" font-size="14.00" fill="#f0f0f0">assign4</text>
</a>
</g>
</g>
<!-- http://example.org/result&#45;&gt;http://example.org/assign4 -->
<g id="edge10" class="edge"><title>http://example.org/result&#45;&gt;http://example.org/assign4</title>
<path fill="none" stroke="#f0f0f0" d="M385.455,-108.141C393.759,-120.961 405.535,-139.142 415.164,-154.008"/>
<polygon fill="#f0f0f0" stroke="#f0f0f0" points="412.458,-156.268 420.832,-162.758 418.333,-152.462 412.458,-156.268"/>
<text text-anchor="middle" x="400.435" y="-105.473" font-family="Times New Roman,serif" font-size="8.00" fill="#f0f0f0">gen</text>
</g>
<!-- &#45;attrs1 -->
<g id="node7" class="node"><title>&#45;attrs1</title>
<polygon fill="none" stroke="gray" points="402.5,-36 341.5,-36 341.5,-0 408.5,-0 408.5,-30 402.5,-36"/>
<polyline fill="none" stroke="gray" points="402.5,-36 402.5,-30 "/>
<polyline fill="none" stroke="gray" points="408.5,-30 402.5,-30 "/>
<text text-anchor="start" x="352" y="-22" font-family="Times New Roman,serif" font-size="10.00">type:</text>
<text text-anchor="start" x="376" y="-22" font-family="Times New Roman,serif" font-size="10.00">name</text>
<text text-anchor="start" x="352" y="-9" font-family="Times New Roman,serif" font-size="10.00">label:</text>
<text text-anchor="start" x="376" y="-9" font-family="Times New Roman,serif" font-size="10.00">result</text>
</g>
<!-- &#45;attrs1&#45;&gt;http://example.org/result -->
<g id="edge4" class="edge"><title>&#45;attrs1&#45;&gt;http://example.org/result</title>
<path fill="none" stroke="gray" stroke-dasharray="5,2" d="M375,-36.1871C375,-47.3501 375,-61.8398 375,-72.9712"/>
</g>
<!-- http://example.org/assign4&#45;&gt;http://example.org/matrix -->
<g id="edge7" class="edge"><title>http://example.org/assign4&#45;&gt;http://example.org/matrix</title>
<path fill="none" stroke="#f0f0f0" d="M415.373,-199.162C407.902,-205.965 398.611,-213.276 389,-218 367.803,-228.419 343.503,-235.765 320.385,-240.934"/>
<polygon fill="#f0f0f0" stroke="#f0f0f0" points="319.617,-237.519 310.561,-243.019 321.07,-244.367 319.617,-237.519"/>
<text text-anchor="middle" x="418.446" y="-211.944" font-family="Times New Roman,serif" font-size="8.00" fill="#f0f0f0">use</text>
</g>
</g>
</svg>
