<?xml version="1.0" encoding="UTF-8" standalone="no"?>
<!DOCTYPE svg PUBLIC "-//W3C//DTD SVG 1.1//EN"
 "http://www.w3.org/Graphics/SVG/1.1/DTD/svg11.dtd">
<!-- Generated by graphviz version 2.38.0 (20140413.2041)
 -->
<!-- Title: PROV Pages: 1 -->
<svg width="1152pt" height="480pt"
 viewBox="0.00 0.00 1152.00 480.24" xmlns="http://www.w3.org/2000/svg" xmlns:xlink="http://www.w3.org/1999/xlink">
<g id="graph0" class="graph" transform="scale(0.879563 0.879563) rotate(0) translate(4 542)">
<title>PROV</title>
<polygon fill="white" stroke="none" points="-4,4 -4,-542 1305.74,-542 1305.74,4 -4,4"/>
<!-- http://example.org/range_nodes -->
<g id="node1" class="node"><title>http://example.org/range_nodes</title>
<g id="a_node1"><a xlink:href="http://example.org/range_nodes" xlink:title="range_nodes">
<ellipse fill="#fffc87" stroke="#808080" cx="544" cy="-292" rx="57.3905" ry="18"/>
<text text-anchor="middle" x="544" y="-288.3" font-family="Times New Roman,serif" font-size="14.00">range_nodes</text>
</a>
</g>
</g>
<!-- http://example.org/v_range -->
<g id="node9" class="node"><title>http://example.org/v_range</title>
<g id="a_node9"><a xlink:href="http://example.org/v_range" xlink:title="v_range">
<ellipse fill="#fffc87" stroke="#808080" cx="383" cy="-398.5" rx="39.7935" ry="18"/>
<text text-anchor="middle" x="383" y="-394.8" font-family="Times New Roman,serif" font-size="14.00">v_range</text>
</a>
</g>
</g>
<!-- http://example.org/range_nodes&#45;&gt;http://example.org/v_range -->
<g id="edge12" class="edge"><title>http://example.org/range_nodes&#45;&gt;http://example.org/v_range</title>
<path fill="none" stroke="black" d="M487.881,-295.936C439.573,-299.777 375.163,-308.493 359,-328 348.344,-340.861 354.85,-358.731 363.759,-373.13"/>
<polygon fill="black" stroke="black" points="360.974,-375.26 369.484,-381.571 366.767,-371.33 360.974,-375.26"/>
<text text-anchor="middle" x="440.5" y="-346.8" font-family="Times New Roman,serif" font-size="14.00">defined</text>
<text text-anchor="middle" x="440.5" y="-331.8" font-family="Times New Roman,serif" font-size="14.00">2018&#45;06&#45;09T21:04:14.688020</text>
</g>
<!-- http://example.org/call2 -->
<g id="node11" class="node"><title>http://example.org/call2</title>
<g id="a_node11"><a xlink:href="http://example.org/call2" xlink:title="call2">
<polygon fill="#fafafa" stroke="#f0f0f0" points="1228,-416.5 1174,-416.5 1174,-380.5 1228,-380.5 1228,-416.5"/>
<text text-anchor="middle" x="1201" y="-394.8" font-family="Times New Roman,serif" font-size="14.00" fill="#f0f0f0">call2</text>
</a>
</g>
</g>
<!-- http://example.org/range_nodes&#45;&gt;http://example.org/call2 -->
<g id="edge15" class="edge"><title>http://example.org/range_nodes&#45;&gt;http://example.org/call2</title>
<path fill="none" stroke="#f0f0f0" d="M599.926,-295.953C676.037,-300.439 816.353,-310.37 935,-328 1038.29,-343.348 1067.72,-338.038 1165,-376 1165.2,-376.079 1165.41,-376.16 1165.61,-376.241"/>
<polygon fill="#f0f0f0" stroke="#f0f0f0" points="1164.23,-379.457 1174.77,-380.5 1167.18,-373.11 1164.23,-379.457"/>
<text text-anchor="middle" x="608.206" y="-281.545" font-family="Times New Roman,serif" font-size="8.00" fill="#f0f0f0">gen</text>
</g>
<!-- http://example.org/range_nodes&#45;attrs -->
<g id="node2" class="node"><title>http://example.org/range_nodes&#45;attrs</title>
<polygon fill="none" stroke="gray" points="490,-208 398,-208 398,-159 496,-159 496,-202 490,-208"/>
<polyline fill="none" stroke="gray" points="490,-208 490,-202 "/>
<polyline fill="none" stroke="gray" points="496,-202 490,-202 "/>
<text text-anchor="start" x="408" y="-193.5" font-family="Times New Roman,serif" font-size="10.00">type:</text>
<text text-anchor="start" x="432" y="-193.5" font-family="Times New Roman,serif" font-size="10.00">eval</text>
<text text-anchor="start" x="408" y="-180.5" font-family="Times New Roman,serif" font-size="10.00">label:</text>
<text text-anchor="start" x="432" y="-180.5" font-family="Times New Roman,serif" font-size="10.00">range(nodes)</text>
<text text-anchor="start" x="408" y="-167.5" font-family="Times New Roman,serif" font-size="10.00">line:</text>
<text text-anchor="start" x="432" y="-167.5" font-family="Times New Roman,serif" font-size="10.00">7</text>
</g>
<!-- http://example.org/range_nodes&#45;attrs&#45;&gt;http://example.org/range_nodes -->
<g id="edge1" class="edge"><title>http://example.org/range_nodes&#45;attrs&#45;&gt;http://example.org/range_nodes</title>
<path fill="none" stroke="gray" stroke-dasharray="5,2" d="M467.429,-208.265C479.622,-222.302 495.506,-240.335 510,-256 515.638,-262.094 521.942,-268.651 527.576,-274.424"/>
</g>
<!-- http://example.org/v0#2 -->
<g id="node3" class="node"><title>http://example.org/v0#2</title>
<g id="a_node3"><a xlink:href="http://example.org/v0#2" xlink:title="v0#2">
<ellipse fill="#fffc87" stroke="#808080" cx="90" cy="-520" rx="28.6953" ry="18"/>
<text text-anchor="middle" x="90" y="-516.3" font-family="Times New Roman,serif" font-size="14.00">v0#2</text>
</a>
</g>
</g>
<!-- http://example.org/v0#2&#45;&gt;http://example.org/range_nodes -->
<g id="edge7" class="edge"><title>http://example.org/v0#2&#45;&gt;http://example.org/range_nodes</title>
<path fill="none" stroke="black" stroke-dasharray="5,2" d="M85.1393,-501.99C77.8241,-472.407 67.9163,-411.273 99,-376 147.938,-320.467 365.792,-301.72 477.484,-295.69"/>
<polygon fill="black" stroke="black" points="477.821,-299.177 487.625,-295.162 477.457,-292.187 477.821,-299.177"/>
<text text-anchor="middle" x="180.5" y="-409.8" font-family="Times New Roman,serif" font-size="14.00">der&#45;ins&#45;e</text>
<text text-anchor="middle" x="180.5" y="-394.8" font-family="Times New Roman,serif" font-size="14.00">[0]</text>
<text text-anchor="middle" x="180.5" y="-379.8" font-family="Times New Roman,serif" font-size="14.00">2018&#45;06&#45;09T21:04:14.688020</text>
</g>
<!-- http://example.org/v0#2&#45;attrs -->
<g id="node4" class="node"><title>http://example.org/v0#2&#45;attrs</title>
<polygon fill="none" stroke="gray" points="48,-416.5 0,-416.5 0,-380.5 54,-380.5 54,-410.5 48,-416.5"/>
<polyline fill="none" stroke="gray" points="48,-416.5 48,-410.5 "/>
<polyline fill="none" stroke="gray" points="54,-410.5 48,-410.5 "/>
<text text-anchor="start" x="14" y="-395.5" font-family="Times New Roman,serif" font-size="10.00">repr:</text>
<text text-anchor="start" x="35" y="-395.5" font-family="Times New Roman,serif" font-size="10.00">0</text>
</g>
<!-- http://example.org/v0#2&#45;attrs&#45;&gt;http://example.org/v0#2 -->
<g id="edge2" class="edge"><title>http://example.org/v0#2&#45;attrs&#45;&gt;http://example.org/v0#2</title>
<path fill="none" stroke="gray" stroke-dasharray="5,2" d="M36.0264,-416.621C48.1388,-439.597 69.5014,-480.118 81.3948,-502.678"/>
</g>
<!-- http://example.org/v1#2 -->
<g id="node5" class="node"><title>http://example.org/v1#2</title>
<g id="a_node5"><a xlink:href="http://example.org/v1#2" xlink:title="v1#2">
<ellipse fill="#fffc87" stroke="#808080" cx="358" cy="-520" rx="28.6953" ry="18"/>
<text text-anchor="middle" x="358" y="-516.3" font-family="Times New Roman,serif" font-size="14.00">v1#2</text>
</a>
</g>
</g>
<!-- http://example.org/v1#2&#45;&gt;http://example.org/range_nodes -->
<g id="edge9" class="edge"><title>http://example.org/v1#2&#45;&gt;http://example.org/range_nodes</title>
<path fill="none" stroke="black" stroke-dasharray="5,2" d="M386.609,-518.294C466.331,-516.035 686.564,-507.686 708,-484 731.263,-458.294 728.015,-354.782 706,-328 693.52,-312.817 648.228,-303.872 608.698,-298.83"/>
<polygon fill="black" stroke="black" points="608.878,-295.327 598.531,-297.601 608.038,-302.276 608.878,-295.327"/>
<text text-anchor="middle" x="806.5" y="-409.8" font-family="Times New Roman,serif" font-size="14.00">der&#45;ins&#45;e</text>
<text text-anchor="middle" x="806.5" y="-394.8" font-family="Times New Roman,serif" font-size="14.00">[1]</text>
<text text-anchor="middle" x="806.5" y="-379.8" font-family="Times New Roman,serif" font-size="14.00">2018&#45;06&#45;09T21:04:14.688020</text>
</g>
<!-- http://example.org/v1#2&#45;attrs -->
<g id="node6" class="node"><title>http://example.org/v1#2&#45;attrs</title>
<polygon fill="none" stroke="gray" points="319,-416.5 271,-416.5 271,-380.5 325,-380.5 325,-410.5 319,-416.5"/>
<polyline fill="none" stroke="gray" points="319,-416.5 319,-410.5 "/>
<polyline fill="none" stroke="gray" points="325,-410.5 319,-410.5 "/>
<text text-anchor="start" x="285" y="-395.5" font-family="Times New Roman,serif" font-size="10.00">repr:</text>
<text text-anchor="start" x="306" y="-395.5" font-family="Times New Roman,serif" font-size="10.00">1</text>
</g>
<!-- http://example.org/v1#2&#45;attrs&#45;&gt;http://example.org/v1#2 -->
<g id="edge3" class="edge"><title>http://example.org/v1#2&#45;attrs&#45;&gt;http://example.org/v1#2</title>
<path fill="none" stroke="gray" stroke-dasharray="5,2" d="M270.731,-415.285C266.245,-417.446 261.567,-419.45 257,-421 212.579,-436.075 183.209,-403.113 153,-439 140.12,-454.301 140.103,-468.714 153,-484 175.235,-510.353 278.406,-516.866 329.364,-518.474"/>
</g>
<!-- http://example.org/v2#2 -->
<g id="node7" class="node"><title>http://example.org/v2#2</title>
<g id="a_node7"><a xlink:href="http://example.org/v2#2" xlink:title="v2#2">
<ellipse fill="#fffc87" stroke="#808080" cx="921" cy="-520" rx="28.6953" ry="18"/>
<text text-anchor="middle" x="921" y="-516.3" font-family="Times New Roman,serif" font-size="14.00">v2#2</text>
</a>
</g>
</g>
<!-- http://example.org/v2#2&#45;&gt;http://example.org/range_nodes -->
<g id="edge11" class="edge"><title>http://example.org/v2#2&#45;&gt;http://example.org/range_nodes</title>
<path fill="none" stroke="black" stroke-dasharray="5,2" d="M922.743,-501.981C924.777,-472.384 924.42,-411.23 892,-376 854.134,-334.853 697.373,-310.527 607.703,-299.715"/>
<polygon fill="black" stroke="black" points="607.987,-296.225 597.645,-298.525 607.164,-303.176 607.987,-296.225"/>
<text text-anchor="middle" x="997.5" y="-409.8" font-family="Times New Roman,serif" font-size="14.00">der&#45;ins&#45;e</text>
<text text-anchor="middle" x="997.5" y="-394.8" font-family="Times New Roman,serif" font-size="14.00">[2]</text>
<text text-anchor="middle" x="997.5" y="-379.8" font-family="Times New Roman,serif" font-size="14.00">2018&#45;06&#45;09T21:04:14.688020</text>
</g>
<!-- http://example.org/v2#2&#45;attrs -->
<g id="node8" class="node"><title>http://example.org/v2#2&#45;attrs</title>
<polygon fill="none" stroke="gray" points="1150,-416.5 1102,-416.5 1102,-380.5 1156,-380.5 1156,-410.5 1150,-416.5"/>
<polyline fill="none" stroke="gray" points="1150,-416.5 1150,-410.5 "/>
<polyline fill="none" stroke="gray" points="1156,-410.5 1150,-410.5 "/>
<text text-anchor="start" x="1116" y="-395.5" font-family="Times New Roman,serif" font-size="10.00">repr:</text>
<text text-anchor="start" x="1137" y="-395.5" font-family="Times New Roman,serif" font-size="10.00">2</text>
</g>
<!-- http://example.org/v2#2&#45;attrs&#45;&gt;http://example.org/v2#2 -->
<g id="edge4" class="edge"><title>http://example.org/v2#2&#45;attrs&#45;&gt;http://example.org/v2#2</title>
<path fill="none" stroke="gray" stroke-dasharray="5,2" d="M1101.81,-415.123C1059.52,-439.416 978.961,-485.701 941.323,-507.324"/>
</g>
<!-- http://example.org/v_range&#45;&gt;http://example.org/range_nodes -->
<g id="edge13" class="edge"><title>http://example.org/v_range&#45;&gt;http://example.org/range_nodes</title>
<path fill="none" stroke="black" d="M422.296,-395.976C453.134,-392.737 495.195,-383.51 522,-358 532.419,-348.085 537.903,-333.065 540.791,-319.961"/>
<polygon fill="black" stroke="black" points="544.257,-320.46 542.594,-309.997 537.369,-319.214 544.257,-320.46"/>
<text text-anchor="middle" x="620.5" y="-346.8" font-family="Times New Roman,serif" font-size="14.00">def by</text>
<text text-anchor="middle" x="620.5" y="-331.8" font-family="Times New Roman,serif" font-size="14.00">2018&#45;06&#45;09T21:04:14.688020</text>
</g>
<!-- http://example.org/v_range&#45;&gt;http://example.org/v0#2 -->
<g id="edge6" class="edge"><title>http://example.org/v_range&#45;&gt;http://example.org/v0#2</title>
<path fill="none" stroke="black" d="M357.574,-412.327C350.137,-415.617 341.883,-418.835 334,-421 270.955,-438.318 248.126,-413.321 188,-439 157.425,-452.058 128.743,-477.645 110.406,-496.379"/>
<polygon fill="black" stroke="black" points="107.573,-494.278 103.205,-503.931 112.639,-499.109 107.573,-494.278"/>
<text text-anchor="middle" x="269.5" y="-472.8" font-family="Times New Roman,serif" font-size="14.00">der&#45;ins&#45;v</text>
<text text-anchor="middle" x="269.5" y="-457.8" font-family="Times New Roman,serif" font-size="14.00">[0]</text>
<text text-anchor="middle" x="269.5" y="-442.8" font-family="Times New Roman,serif" font-size="14.00">2018&#45;06&#45;09T21:04:14.688020</text>
</g>
<!-- http://example.org/v_range&#45;&gt;http://example.org/v1#2 -->
<g id="edge8" class="edge"><title>http://example.org/v_range&#45;&gt;http://example.org/v1#2</title>
<path fill="none" stroke="black" d="M370.351,-415.87C365.862,-422.646 361.344,-430.824 359,-439 354.116,-456.032 353.851,-475.954 354.815,-491.656"/>
<polygon fill="black" stroke="black" points="351.338,-492.082 355.636,-501.766 358.315,-491.515 351.338,-492.082"/>
<text text-anchor="middle" x="440.5" y="-472.8" font-family="Times New Roman,serif" font-size="14.00">der&#45;ins&#45;v</text>
<text text-anchor="middle" x="440.5" y="-457.8" font-family="Times New Roman,serif" font-size="14.00">[1]</text>
<text text-anchor="middle" x="440.5" y="-442.8" font-family="Times New Roman,serif" font-size="14.00">2018&#45;06&#45;09T21:04:14.688020</text>
</g>
<!-- http://example.org/v_range&#45;&gt;http://example.org/v2#2 -->
<g id="edge10" class="edge"><title>http://example.org/v_range&#45;&gt;http://example.org/v2#2</title>
<path fill="none" stroke="black" d="M417.005,-407.875C480.907,-423.522 623.353,-457.96 744,-484 792.212,-494.406 848.077,-505.252 883.942,-512.06"/>
<polygon fill="black" stroke="black" points="883.475,-515.534 893.952,-513.954 884.777,-508.656 883.475,-515.534"/>
<text text-anchor="middle" x="825.5" y="-472.8" font-family="Times New Roman,serif" font-size="14.00">der&#45;ins&#45;v</text>
<text text-anchor="middle" x="825.5" y="-457.8" font-family="Times New Roman,serif" font-size="14.00">[2]</text>
<text text-anchor="middle" x="825.5" y="-442.8" font-family="Times New Roman,serif" font-size="14.00">2018&#45;06&#45;09T21:04:14.688020</text>
</g>
<!-- http://example.org/v_range&#45;attrs -->
<g id="node10" class="node"><title>http://example.org/v_range&#45;attrs</title>
<polygon fill="none" stroke="gray" points="135,-310 71,-310 71,-274 141,-274 141,-304 135,-310"/>
<polyline fill="none" stroke="gray" points="135,-310 135,-304 "/>
<polyline fill="none" stroke="gray" points="141,-304 135,-304 "/>
<text text-anchor="start" x="81" y="-289" font-family="Times New Roman,serif" font-size="10.00">repr:</text>
<text text-anchor="start" x="102" y="-289" font-family="Times New Roman,serif" font-size="10.00">[0, 1, 2]</text>
</g>
<!-- http://example.org/v_range&#45;attrs&#45;&gt;http://example.org/v_range -->
<g id="edge5" class="edge"><title>http://example.org/v_range&#45;attrs&#45;&gt;http://example.org/v_range</title>
<path fill="none" stroke="gray" stroke-dasharray="5,2" d="M113.794,-310.057C121.794,-325.417 135.787,-347.189 155,-358 224.683,-397.21 256.666,-355.688 334,-376 341.907,-378.077 350.168,-381.266 357.605,-384.558"/>
</g>
<!-- http://example.org/nodes -->
<g id="node12" class="node"><title>http://example.org/nodes</title>
<ellipse fill="none" stroke="black" cx="1201" cy="-520" rx="100.983" ry="18"/>
<text text-anchor="middle" x="1201" y="-516.3" font-family="Times New Roman,serif" font-size="14.00">http://example.org/nodes</text>
</g>
<!-- http://example.org/call2&#45;&gt;http://example.org/nodes -->
<g id="edge14" class="edge"><title>http://example.org/call2&#45;&gt;http://example.org/nodes</title>
<path fill="none" stroke="#f0f0f0" d="M1201,-416.621C1201,-436.233 1201,-468.628 1201,-491.724"/>
<polygon fill="#f0f0f0" stroke="#f0f0f0" points="1197.5,-491.91 1201,-501.91 1204.5,-491.91 1197.5,-491.91"/>
<text text-anchor="middle" x="1213.99" y="-422.221" font-family="Times New Roman,serif" font-size="8.00" fill="#f0f0f0">use</text>
</g>
<!-- http://example.org/indexes -->
<g id="node13" class="node"><title>http://example.org/indexes</title>
<g id="a_node13"><a xlink:href="http://example.org/indexes" xlink:title="indexes">
<ellipse fill="#fffc87" stroke="#808080" cx="524" cy="-104" rx="38.1938" ry="18"/>
<text text-anchor="middle" x="524" y="-100.3" font-family="Times New Roman,serif" font-size="14.00">indexes</text>
</a>
</g>
</g>
<!-- http://example.org/indexes&#45;&gt;http://example.org/range_nodes -->
<g id="edge18" class="edge"><title>http://example.org/indexes&#45;&gt;http://example.org/range_nodes</title>
<path fill="none" stroke="#f0f0f0" d="M525.846,-122.165C529.328,-154.554 536.894,-224.913 541.075,-263.8"/>
<polygon fill="#f0f0f0" stroke="#f0f0f0" points="537.61,-264.308 542.159,-273.876 544.57,-263.56 537.61,-264.308"/>
<text text-anchor="middle" x="539.563" y="-126.333" font-family="Times New Roman,serif" font-size="8.00" fill="#f0f0f0">der</text>
</g>
<!-- http://example.org/indexes&#45;&gt;http://example.org/v_range -->
<g id="edge17" class="edge"><title>http://example.org/indexes&#45;&gt;http://example.org/v_range</title>
<path fill="none" stroke="black" d="M489.692,-112.074C439.11,-124.685 347.246,-156.539 317,-226 294.339,-278.043 335.057,-340.586 362.003,-373.895"/>
<polygon fill="black" stroke="black" points="359.421,-376.264 368.51,-381.71 364.801,-371.785 359.421,-376.264"/>
<text text-anchor="middle" x="398.5" y="-244.8" font-family="Times New Roman,serif" font-size="14.00">access</text>
<text text-anchor="middle" x="398.5" y="-229.8" font-family="Times New Roman,serif" font-size="14.00">2018&#45;06&#45;09T21:04:14.688020</text>
</g>
<!-- http://example.org/assign5 -->
<g id="node15" class="node"><title>http://example.org/assign5</title>
<g id="a_node15"><a xlink:href="http://example.org/assign5" xlink:title="assign5">
<polygon fill="#fafafa" stroke="#f0f0f0" points="610,-201.5 552,-201.5 552,-165.5 610,-165.5 610,-201.5"/>
<text text-anchor="middle" x="581" y="-179.8" font-family="Times New Roman,serif" font-size="14.00" fill="#f0f0f0">assign5</text>
</a>
</g>
</g>
<!-- http://example.org/indexes&#45;&gt;http://example.org/assign5 -->
<g id="edge20" class="edge"><title>http://example.org/indexes&#45;&gt;http://example.org/assign5</title>
<path fill="none" stroke="#f0f0f0" d="M536.088,-121.436C543.714,-131.804 553.718,-145.407 562.349,-157.141"/>
<polygon fill="#f0f0f0" stroke="#f0f0f0" points="559.592,-159.3 568.337,-165.282 565.231,-155.153 559.592,-159.3"/>
<text text-anchor="middle" x="550.997" y="-117.881" font-family="Times New Roman,serif" font-size="8.00" fill="#f0f0f0">gen</text>
</g>
<!-- http://example.org/indexes&#45;attrs -->
<g id="node14" class="node"><title>http://example.org/indexes&#45;attrs</title>
<polygon fill="none" stroke="gray" points="555.5,-49 486.5,-49 486.5,-0 561.5,-0 561.5,-43 555.5,-49"/>
<polyline fill="none" stroke="gray" points="555.5,-49 555.5,-43 "/>
<polyline fill="none" stroke="gray" points="561.5,-43 555.5,-43 "/>
<text text-anchor="start" x="497" y="-34.5" font-family="Times New Roman,serif" font-size="10.00">type:</text>
<text text-anchor="start" x="521" y="-34.5" font-family="Times New Roman,serif" font-size="10.00">name</text>
<text text-anchor="start" x="497" y="-21.5" font-family="Times New Roman,serif" font-size="10.00">label:</text>
<text text-anchor="start" x="521" y="-21.5" font-family="Times New Roman,serif" font-size="10.00">indexes</text>
<text text-anchor="start" x="497" y="-8.5" font-family="Times New Roman,serif" font-size="10.00">line:</text>
<text text-anchor="start" x="521" y="-8.5" font-family="Times New Roman,serif" font-size="10.00">7</text>
</g>
<!-- http://example.org/indexes&#45;attrs&#45;&gt;http://example.org/indexes -->
<g id="edge16" class="edge"><title>http://example.org/indexes&#45;attrs&#45;&gt;http://example.org/indexes</title>
<path fill="none" stroke="gray" stroke-dasharray="5,2" d="M524,-49.1737C524,-60.9254 524,-74.869 524,-85.6196"/>
</g>
<!-- http://example.org/assign5&#45;&gt;http://example.org/range_nodes -->
<g id="edge19" class="edge"><title>http://example.org/assign5&#45;&gt;http://example.org/range_nodes</title>
<path fill="none" stroke="#f0f0f0" d="M575.055,-201.611C569.176,-218.535 560.092,-244.68 553.265,-264.331"/>
<polygon fill="#f0f0f0" stroke="#f0f0f0" points="549.906,-263.337 549.93,-273.931 556.518,-265.634 549.906,-263.337"/>
<text text-anchor="middle" x="584.865" y="-211.059" font-family="Times New Roman,serif" font-size="8.00" fill="#f0f0f0">use</text>
</g>
</g>
</svg>
