<?xml version="1.0" encoding="UTF-8" standalone="no"?>
<!DOCTYPE svg PUBLIC "-//W3C//DTD SVG 1.1//EN"
 "http://www.w3.org/Graphics/SVG/1.1/DTD/svg11.dtd">
<!-- Generated by graphviz version 2.38.0 (20140413.2041)
 -->
<!-- Title: PROV Pages: 1 -->
<svg width="492pt" height="508pt"
 viewBox="0.00 0.00 492.13 508.00" xmlns="http://www.w3.org/2000/svg" xmlns:xlink="http://www.w3.org/1999/xlink">
<g id="graph0" class="graph" transform="scale(1 1) rotate(0) translate(4 504)">
<title>PROV</title>
<polygon fill="white" stroke="none" points="-4,4 -4,-504 488.133,-504 488.133,4 -4,4"/>
<!-- http://example.org/dist@k#1 -->
<g id="node1" class="node"><title>http://example.org/dist@k#1</title>
<g id="a_node1"><a xlink:href="http://example.org/dist@k#1" xlink:title="dist@k#1">
<ellipse fill="#fffc87" stroke="#808080" cx="282.841" cy="-292" rx="46.2923" ry="18"/>
<text text-anchor="middle" x="282.841" y="-288.3" font-family="Times New Roman,serif" font-size="14.00">dist@k#1</text>
</a>
</g>
</g>
<!-- http://example.org/row0 -->
<g id="node3" class="node"><title>http://example.org/row0</title>
<ellipse fill="none" stroke="black" cx="96.8414" cy="-409" rx="96.6831" ry="18"/>
<text text-anchor="middle" x="96.8414" y="-405.3" font-family="Times New Roman,serif" font-size="14.00">http://example.org/row0</text>
</g>
<!-- http://example.org/dist@k#1&#45;&gt;http://example.org/row0 -->
<g id="edge2" class="edge"><title>http://example.org/dist@k#1&#45;&gt;http://example.org/row0</title>
<path fill="none" stroke="black" d="M238.495,-297.284C195.984,-302.28 135.835,-311.966 118.841,-328 104.612,-341.426 99.2888,-363.122 97.4266,-380.535"/>
<polygon fill="black" stroke="black" points="93.9212,-380.478 96.6658,-390.711 100.902,-381 93.9212,-380.478"/>
<text text-anchor="middle" x="200.341" y="-361.8" font-family="Times New Roman,serif" font-size="14.00">part</text>
<text text-anchor="middle" x="200.341" y="-346.8" font-family="Times New Roman,serif" font-size="14.00">vmatrix[0]</text>
<text text-anchor="middle" x="200.341" y="-331.8" font-family="Times New Roman,serif" font-size="14.00">2018&#45;06&#45;10T17:26:42.206668</text>
</g>
<!-- http://example.org/access2 -->
<g id="node4" class="node"><title>http://example.org/access2</title>
<g id="a_node4"><a xlink:href="http://example.org/access2" xlink:title="access2">
<polygon fill="#fafafa" stroke="#f0f0f0" points="321.341,-427 260.341,-427 260.341,-391 321.341,-391 321.341,-427"/>
<text text-anchor="middle" x="290.841" y="-405.3" font-family="Times New Roman,serif" font-size="14.00" fill="#f0f0f0">access2</text>
</a>
</g>
</g>
<!-- http://example.org/dist@k#1&#45;&gt;http://example.org/access2 -->
<g id="edge5" class="edge"><title>http://example.org/dist@k#1&#45;&gt;http://example.org/access2</title>
<path fill="none" stroke="#f0f0f0" d="M284.056,-310.466C285.35,-329.064 287.416,-358.756 288.928,-380.499"/>
<polygon fill="#f0f0f0" stroke="#f0f0f0" points="285.456,-381.013 289.641,-390.746 292.439,-380.528 285.456,-381.013"/>
<text text-anchor="middle" x="297.536" y="-315.146" font-family="Times New Roman,serif" font-size="8.00" fill="#f0f0f0">gen</text>
</g>
<!-- http://example.org/dist@k#1&#45;attrs -->
<g id="node2" class="node"><title>http://example.org/dist@k#1&#45;attrs</title>
<polygon fill="none" stroke="gray" points="312.841,-208 246.841,-208 246.841,-159 318.841,-159 318.841,-202 312.841,-208"/>
<polyline fill="none" stroke="gray" points="312.841,-208 312.841,-202 "/>
<polyline fill="none" stroke="gray" points="318.841,-202 312.841,-202 "/>
<text text-anchor="start" x="256.841" y="-193.5" font-family="Times New Roman,serif" font-size="10.00">type:</text>
<text text-anchor="start" x="280.841" y="-193.5" font-family="Times New Roman,serif" font-size="10.00">access</text>
<text text-anchor="start" x="256.841" y="-180.5" font-family="Times New Roman,serif" font-size="10.00">label:</text>
<text text-anchor="start" x="280.841" y="-180.5" font-family="Times New Roman,serif" font-size="10.00">dist[k]</text>
<text text-anchor="start" x="256.841" y="-167.5" font-family="Times New Roman,serif" font-size="10.00">line:</text>
<text text-anchor="start" x="280.841" y="-167.5" font-family="Times New Roman,serif" font-size="10.00">9</text>
</g>
<!-- http://example.org/dist@k#1&#45;attrs&#45;&gt;http://example.org/dist@k#1 -->
<g id="edge1" class="edge"><title>http://example.org/dist@k#1&#45;attrs&#45;&gt;http://example.org/dist@k#1</title>
<path fill="none" stroke="gray" stroke-dasharray="5,2" d="M282.841,-208.136C282.841,-227.991 282.841,-255.9 282.841,-273.719"/>
</g>
<!-- http://example.org/dist -->
<g id="node5" class="node"><title>http://example.org/dist</title>
<ellipse fill="none" stroke="black" cx="189.841" cy="-482" rx="91.784" ry="18"/>
<text text-anchor="middle" x="189.841" y="-478.3" font-family="Times New Roman,serif" font-size="14.00">http://example.org/dist</text>
</g>
<!-- http://example.org/access2&#45;&gt;http://example.org/dist -->
<g id="edge3" class="edge"><title>http://example.org/access2&#45;&gt;http://example.org/dist</title>
<path fill="none" stroke="#f0f0f0" d="M266.649,-427.006C253.185,-436.471 236.258,-448.37 221.724,-458.587"/>
<polygon fill="#f0f0f0" stroke="#f0f0f0" points="219.656,-455.763 213.488,-464.377 223.681,-461.49 219.656,-455.763"/>
<text text-anchor="middle" x="267.984" y="-440.047" font-family="Times New Roman,serif" font-size="8.00" fill="#f0f0f0">use</text>
</g>
<!-- http://example.org/k#1 -->
<g id="node6" class="node"><title>http://example.org/k#1</title>
<ellipse fill="none" stroke="black" cx="391.841" cy="-482" rx="92.0841" ry="18"/>
<text text-anchor="middle" x="391.841" y="-478.3" font-family="Times New Roman,serif" font-size="14.00">http://example.org/k#1</text>
</g>
<!-- http://example.org/access2&#45;&gt;http://example.org/k#1 -->
<g id="edge4" class="edge"><title>http://example.org/access2&#45;&gt;http://example.org/k#1</title>
<path fill="none" stroke="#f0f0f0" d="M315.033,-427.006C328.498,-436.471 345.424,-448.37 359.958,-458.587"/>
<polygon fill="#f0f0f0" stroke="#f0f0f0" points="358.002,-461.49 368.195,-464.377 362.027,-455.763 358.002,-461.49"/>
<text text-anchor="middle" x="328.64" y="-418.792" font-family="Times New Roman,serif" font-size="8.00" fill="#f0f0f0">use</text>
</g>
<!-- http://example.org/distk#1 -->
<g id="node7" class="node"><title>http://example.org/distk#1</title>
<g id="a_node7"><a xlink:href="http://example.org/distk#1" xlink:title="distk#1">
<ellipse fill="#fffc87" stroke="#808080" cx="199.841" cy="-104" rx="37.8943" ry="18"/>
<text text-anchor="middle" x="199.841" y="-100.3" font-family="Times New Roman,serif" font-size="14.00">distk#1</text>
</a>
</g>
</g>
<!-- http://example.org/distk#1&#45;&gt;http://example.org/dist@k#1 -->
<g id="edge8" class="edge"><title>http://example.org/distk#1&#45;&gt;http://example.org/dist@k#1</title>
<path fill="none" stroke="#f0f0f0" d="M236.017,-109.37C266.249,-115.142 307.573,-128.452 327.841,-159 350.283,-192.825 324.03,-238.961 303.237,-266.775"/>
<polygon fill="#f0f0f0" stroke="#f0f0f0" points="300.387,-264.739 297.02,-274.785 305.917,-269.031 300.387,-264.739"/>
<text text-anchor="middle" x="246.027" y="-96.2982" font-family="Times New Roman,serif" font-size="8.00" fill="#f0f0f0">der</text>
</g>
<!-- http://example.org/distk#1&#45;&gt;http://example.org/row0 -->
<g id="edge7" class="edge"><title>http://example.org/distk#1&#45;&gt;http://example.org/row0</title>
<path fill="none" stroke="black" d="M177.283,-118.819C147.712,-138.418 97.2161,-177.376 76.8414,-226 55.1132,-277.854 72.9561,-344.933 86.0624,-381.447"/>
<polygon fill="black" stroke="black" points="82.8154,-382.756 89.5966,-390.897 89.3719,-380.304 82.8154,-382.756"/>
<text text-anchor="middle" x="158.341" y="-244.8" font-family="Times New Roman,serif" font-size="14.00">access</text>
<text text-anchor="middle" x="158.341" y="-229.8" font-family="Times New Roman,serif" font-size="14.00">2018&#45;06&#45;10T17:26:42.206668</text>
</g>
<!-- http://example.org/assign6 -->
<g id="node9" class="node"><title>http://example.org/assign6</title>
<g id="a_node9"><a xlink:href="http://example.org/assign6" xlink:title="assign6">
<polygon fill="#fafafa" stroke="#f0f0f0" points="228.841,-201.5 170.841,-201.5 170.841,-165.5 228.841,-165.5 228.841,-201.5"/>
<text text-anchor="middle" x="199.841" y="-179.8" font-family="Times New Roman,serif" font-size="14.00" fill="#f0f0f0">assign6</text>
</a>
</g>
</g>
<!-- http://example.org/distk#1&#45;&gt;http://example.org/assign6 -->
<g id="edge10" class="edge"><title>http://example.org/distk#1&#45;&gt;http://example.org/assign6</title>
<path fill="none" stroke="#f0f0f0" d="M199.841,-122.2C199.841,-131.932 199.841,-144.324 199.841,-155.34"/>
<polygon fill="#f0f0f0" stroke="#f0f0f0" points="196.342,-155.348 199.841,-165.348 203.342,-155.348 196.342,-155.348"/>
<text text-anchor="middle" x="212.832" y="-127.8" font-family="Times New Roman,serif" font-size="8.00" fill="#f0f0f0">gen</text>
</g>
<!-- http://example.org/distk#1&#45;attrs -->
<g id="node8" class="node"><title>http://example.org/distk#1&#45;attrs</title>
<polygon fill="none" stroke="gray" points="226.841,-49 166.841,-49 166.841,-0 232.841,-0 232.841,-43 226.841,-49"/>
<polyline fill="none" stroke="gray" points="226.841,-49 226.841,-43 "/>
<polyline fill="none" stroke="gray" points="232.841,-43 226.841,-43 "/>
<text text-anchor="start" x="176.841" y="-34.5" font-family="Times New Roman,serif" font-size="10.00">type:</text>
<text text-anchor="start" x="200.841" y="-34.5" font-family="Times New Roman,serif" font-size="10.00">name</text>
<text text-anchor="start" x="176.841" y="-21.5" font-family="Times New Roman,serif" font-size="10.00">label:</text>
<text text-anchor="start" x="200.841" y="-21.5" font-family="Times New Roman,serif" font-size="10.00">distk</text>
<text text-anchor="start" x="176.841" y="-8.5" font-family="Times New Roman,serif" font-size="10.00">line:</text>
<text text-anchor="start" x="200.841" y="-8.5" font-family="Times New Roman,serif" font-size="10.00">9</text>
</g>
<!-- http://example.org/distk#1&#45;attrs&#45;&gt;http://example.org/distk#1 -->
<g id="edge6" class="edge"><title>http://example.org/distk#1&#45;attrs&#45;&gt;http://example.org/distk#1</title>
<path fill="none" stroke="gray" stroke-dasharray="5,2" d="M199.841,-49.1737C199.841,-60.9254 199.841,-74.869 199.841,-85.6196"/>
</g>
<!-- http://example.org/assign6&#45;&gt;http://example.org/dist@k#1 -->
<g id="edge9" class="edge"><title>http://example.org/assign6&#45;&gt;http://example.org/dist@k#1</title>
<path fill="none" stroke="#f0f0f0" d="M220.271,-201.615C228.121,-208.722 236.864,-217.328 243.841,-226 253.571,-238.093 262.613,-252.839 269.536,-265.227"/>
<polygon fill="#f0f0f0" stroke="#f0f0f0" points="266.541,-267.045 274.394,-274.158 272.69,-263.701 266.541,-267.045"/>
<text text-anchor="middle" x="234.572" y="-195.19" font-family="Times New Roman,serif" font-size="8.00" fill="#f0f0f0">use</text>
</g>
</g>
</svg>
