<?xml version="1.0" encoding="UTF-8" standalone="no"?>
<!DOCTYPE svg PUBLIC "-//W3C//DTD SVG 1.1//EN"
 "http://www.w3.org/Graphics/SVG/1.1/DTD/svg11.dtd">
<!-- Generated by graphviz version 2.38.0 (20140413.2041)
 -->
<!-- Title: PROV Pages: 1 -->
<svg width="1152pt" height="203pt"
 viewBox="0.00 0.00 1152.00 202.72" xmlns="http://www.w3.org/2000/svg" xmlns:xlink="http://www.w3.org/1999/xlink">
<g id="graph0" class="graph" transform="scale(0.785729 0.785729) rotate(0) translate(4 254)">
<title>PROV</title>
<polygon fill="white" stroke="none" points="-4,4 -4,-254 1462.15,-254 1462.15,4 -4,4"/>
<!-- http://example.org/disti_ak11 -->
<g id="node1" class="node"><title>http://example.org/disti_ak11</title>
<g id="a_node1"><a xlink:href="http://example.org/disti_ak11" xlink:title="disti_ak11">
<ellipse fill="#fffc87" stroke="#808080" cx="635.487" cy="-126" rx="48.1917" ry="18"/>
<text text-anchor="middle" x="635.487" y="-122.3" font-family="Times New Roman,serif" font-size="14.00">disti_ak11</text>
</a>
</g>
</g>
<!-- http://example.org/disti1_3 -->
<g id="node10" class="node"><title>http://example.org/disti1_3</title>
<g id="a_node10"><a xlink:href="http://example.org/disti1_3" xlink:title="disti1_3">
<ellipse fill="#fffc87" stroke="#808080" cx="507.891" cy="-175" rx="39.7935" ry="18"/>
<text text-anchor="middle" x="507.891" y="-171.3" font-family="Times New Roman,serif" font-size="14.00">disti1_3</text>
</a>
</g>
</g>
<!-- http://example.org/disti_ak11&#45;&gt;http://example.org/disti1_3 -->
<g id="edge19" class="edge"><title>http://example.org/disti_ak11&#45;&gt;http://example.org/disti1_3</title>
<path fill="none" stroke="black" d="M601.488,-138.874C585.205,-145.227 565.444,-152.937 548.365,-159.6"/>
<polygon fill="black" stroke="black" points="546.709,-156.489 538.665,-163.384 549.254,-163.01 546.709,-156.489"/>
<text text-anchor="middle" x="599.222" y="-151.802" font-family="Times New Roman,serif" font-size="8.00">der</text>
</g>
<!-- &#45;attrs0 -->
<g id="node2" class="node"><title>&#45;attrs0</title>
<polygon fill="none" stroke="gray" points="797.582,-144 719.582,-144 719.582,-108 803.582,-108 803.582,-138 797.582,-144"/>
<polyline fill="none" stroke="gray" points="797.582,-144 797.582,-138 "/>
<polyline fill="none" stroke="gray" points="803.582,-138 797.582,-138 "/>
<text text-anchor="start" x="729.582" y="-130" font-family="Times New Roman,serif" font-size="10.00">value:</text>
<text text-anchor="start" x="756.582" y="-130" font-family="Times New Roman,serif" font-size="10.00">&quot;1&quot;</text>
<text text-anchor="start" x="729.582" y="-117" font-family="Times New Roman,serif" font-size="10.00">type:</text>
<text text-anchor="start" x="756.582" y="-117" font-family="Times New Roman,serif" font-size="10.00">&quot;access&quot;</text>
</g>
<!-- &#45;attrs0&#45;&gt;http://example.org/disti_ak11 -->
<g id="edge1" class="edge"><title>&#45;attrs0&#45;&gt;http://example.org/disti_ak11</title>
<path fill="none" stroke="gray" stroke-dasharray="5,2" d="M719.26,-126C707.838,-126 695.358,-126 683.632,-126"/>
</g>
<!-- http://example.org/dist12_0 -->
<g id="node3" class="node"><title>http://example.org/dist12_0</title>
<g id="a_node3"><a xlink:href="http://example.org/dist12_0" xlink:title="dist12_0">
<ellipse fill="#fffc87" stroke="#808080" cx="247.5" cy="-65" rx="42.4939" ry="18"/>
<text text-anchor="middle" x="247.5" y="-61.3" font-family="Times New Roman,serif" font-size="14.00">dist12_0</text>
</a>
</g>
</g>
<!-- http://example.org/list12_0 -->
<g id="node26" class="node"><title>http://example.org/list12_0</title>
<g id="a_node26"><a xlink:href="http://example.org/list12_0" xlink:title="list12_0">
<ellipse fill="#fffc87" stroke="#808080" cx="129" cy="-70" rx="38.9931" ry="18"/>
<text text-anchor="middle" x="129" y="-66.3" font-family="Times New Roman,serif" font-size="14.00">list12_0</text>
</a>
</g>
</g>
<!-- http://example.org/dist12_0&#45;&gt;http://example.org/list12_0 -->
<g id="edge26" class="edge"><title>http://example.org/dist12_0&#45;&gt;http://example.org/list12_0</title>
<path fill="none" stroke="black" d="M205.426,-66.7628C196.573,-67.1428 187.139,-67.5477 178.047,-67.9379"/>
<polygon fill="black" stroke="black" points="177.817,-64.4444 167.976,-68.3701 178.117,-71.438 177.817,-64.4444"/>
<text text-anchor="middle" x="198.49" y="-78.1628" font-family="Times New Roman,serif" font-size="8.00">der</text>
</g>
<!-- &#45;attrs1 -->
<g id="node4" class="node"><title>&#45;attrs1</title>
<polygon fill="none" stroke="gray" points="415.196,-130 334.196,-130 334.196,-94 421.196,-94 421.196,-124 415.196,-130"/>
<polyline fill="none" stroke="gray" points="415.196,-130 415.196,-124 "/>
<polyline fill="none" stroke="gray" points="421.196,-124 415.196,-124 "/>
<text text-anchor="start" x="344.696" y="-116" font-family="Times New Roman,serif" font-size="10.00">value:</text>
<text text-anchor="start" x="371.696" y="-116" font-family="Times New Roman,serif" font-size="10.00">&quot;2&quot;</text>
<text text-anchor="start" x="344.696" y="-103" font-family="Times New Roman,serif" font-size="10.00">type:</text>
<text text-anchor="start" x="371.696" y="-103" font-family="Times New Roman,serif" font-size="10.00">&quot;number&quot;</text>
</g>
<!-- &#45;attrs1&#45;&gt;http://example.org/dist12_0 -->
<g id="edge2" class="edge"><title>&#45;attrs1&#45;&gt;http://example.org/dist12_0</title>
<path fill="none" stroke="gray" stroke-dasharray="5,2" d="M334.008,-96.3497C316.382,-89.8874 296.315,-82.5303 280.053,-76.568"/>
</g>
<!-- http://example.org/dist_ak2_1 -->
<g id="node5" class="node"><title>http://example.org/dist_ak2_1</title>
<g id="a_node5"><a xlink:href="http://example.org/dist_ak2_1" xlink:title="dist_ak2_1">
<ellipse fill="#fffc87" stroke="#808080" cx="377.696" cy="-58" rx="50.8918" ry="18"/>
<text text-anchor="middle" x="377.696" y="-54.3" font-family="Times New Roman,serif" font-size="14.00">dist_ak2_1</text>
</a>
</g>
</g>
<!-- http://example.org/dist_ak2_1&#45;&gt;http://example.org/dist12_0 -->
<g id="edge17" class="edge"><title>http://example.org/dist_ak2_1&#45;&gt;http://example.org/dist12_0</title>
<path fill="none" stroke="black" d="M327.498,-60.6864C318.367,-61.185 308.808,-61.7069 299.62,-62.2086"/>
<polygon fill="black" stroke="black" points="299.242,-58.724 289.447,-62.7641 299.623,-65.7136 299.242,-58.724"/>
<text text-anchor="middle" x="320.718" y="-72.1663" font-family="Times New Roman,serif" font-size="8.00">der</text>
</g>
<!-- &#45;attrs2 -->
<g id="node6" class="node"><title>&#45;attrs2</title>
<polygon fill="none" stroke="gray" points="545.391,-117 464.391,-117 464.391,-81 551.391,-81 551.391,-111 545.391,-117"/>
<polyline fill="none" stroke="gray" points="545.391,-117 545.391,-111 "/>
<polyline fill="none" stroke="gray" points="551.391,-111 545.391,-111 "/>
<text text-anchor="start" x="474.891" y="-103" font-family="Times New Roman,serif" font-size="10.00">value:</text>
<text text-anchor="start" x="501.891" y="-103" font-family="Times New Roman,serif" font-size="10.00">&quot;2&quot;</text>
<text text-anchor="start" x="474.891" y="-90" font-family="Times New Roman,serif" font-size="10.00">type:</text>
<text text-anchor="start" x="501.891" y="-90" font-family="Times New Roman,serif" font-size="10.00">&quot;number&quot;</text>
</g>
<!-- &#45;attrs2&#45;&gt;http://example.org/dist_ak2_1 -->
<g id="edge3" class="edge"><title>&#45;attrs2&#45;&gt;http://example.org/dist_ak2_1</title>
<path fill="none" stroke="gray" stroke-dasharray="5,2" d="M464.204,-85.3476C448.617,-80.3625 431.121,-74.7671 416.036,-69.9424"/>
</g>
<!-- http://example.org/result02_1 -->
<g id="node7" class="node"><title>http://example.org/result02_1</title>
<g id="a_node7"><a xlink:href="http://example.org/result02_1" xlink:title="result02_1">
<ellipse fill="#fffc87" stroke="#808080" cx="996.678" cy="-126" rx="48.1917" ry="18"/>
<text text-anchor="middle" x="996.678" y="-122.3" font-family="Times New Roman,serif" font-size="14.00">result02_1</text>
</a>
</g>
</g>
<!-- http://example.org/ikj11 -->
<g id="node8" class="node"><title>http://example.org/ikj11</title>
<g id="a_node8"><a xlink:href="http://example.org/ikj11" xlink:title="ikj11">
<ellipse fill="#fffc87" stroke="#808080" cx="876.082" cy="-99" rx="27.8951" ry="18"/>
<text text-anchor="middle" x="876.082" y="-95.3" font-family="Times New Roman,serif" font-size="14.00">ikj11</text>
</a>
</g>
</g>
<!-- http://example.org/result02_1&#45;&gt;http://example.org/ikj11 -->
<g id="edge4" class="edge"><title>http://example.org/result02_1&#45;&gt;http://example.org/ikj11</title>
<path fill="none" stroke="black" d="M955.196,-116.784C941.293,-113.618 925.851,-110.103 912.392,-107.039"/>
<polygon fill="black" stroke="black" points="913.072,-103.604 902.545,-104.797 911.518,-110.429 913.072,-103.604"/>
<text text-anchor="middle" x="944.999" y="-125.885" font-family="Times New Roman,serif" font-size="8.00">der</text>
</g>
<!-- http://example.org/sum11 -->
<g id="node20" class="node"><title>http://example.org/sum11</title>
<g id="a_node20"><a xlink:href="http://example.org/sum11" xlink:title="sum11">
<ellipse fill="#fffc87" stroke="#808080" cx="761.582" cy="-72" rx="34.394" ry="18"/>
<text text-anchor="middle" x="761.582" y="-68.3" font-family="Times New Roman,serif" font-size="14.00">sum11</text>
</a>
</g>
</g>
<!-- http://example.org/ikj11&#45;&gt;http://example.org/sum11 -->
<g id="edge24" class="edge"><title>http://example.org/ikj11&#45;&gt;http://example.org/sum11</title>
<path fill="none" stroke="black" d="M849.554,-92.8733C835.834,-89.5804 818.596,-85.4433 803.093,-81.7225"/>
<polygon fill="black" stroke="black" points="803.751,-78.281 793.21,-79.3506 802.117,-85.0877 803.751,-78.281"/>
<text text-anchor="middle" x="839.23" y="-101.855" font-family="Times New Roman,serif" font-size="8.00">der</text>
</g>
<!-- http://example.org/distk2_1 -->
<g id="node9" class="node"><title>http://example.org/distk2_1</title>
<g id="a_node9"><a xlink:href="http://example.org/distk2_1" xlink:title="distk2_1">
<ellipse fill="#fffc87" stroke="#808080" cx="507.891" cy="-45" rx="42.4939" ry="18"/>
<text text-anchor="middle" x="507.891" y="-41.3" font-family="Times New Roman,serif" font-size="14.00">distk2_1</text>
</a>
</g>
</g>
<!-- http://example.org/distk2_1&#45;&gt;http://example.org/dist_ak2_1 -->
<g id="edge5" class="edge"><title>http://example.org/distk2_1&#45;&gt;http://example.org/dist_ak2_1</title>
<path fill="none" stroke="black" d="M466.681,-49.0776C457.209,-50.0382 446.924,-51.0811 436.838,-52.1039"/>
<polygon fill="black" stroke="black" points="436.451,-48.6251 426.855,-53.1162 437.158,-55.5894 436.451,-48.6251"/>
<text text-anchor="middle" x="460.53" y="-60.8584" font-family="Times New Roman,serif" font-size="8.00">der</text>
</g>
<!-- http://example.org/dist_ai1_3 -->
<g id="node13" class="node"><title>http://example.org/dist_ai1_3</title>
<g id="a_node13"><a xlink:href="http://example.org/dist_ai1_3" xlink:title="dist_ai1_3">
<ellipse fill="#fffc87" stroke="#808080" cx="377.696" cy="-175" rx="48.1917" ry="18"/>
<text text-anchor="middle" x="377.696" y="-171.3" font-family="Times New Roman,serif" font-size="14.00">dist_ai1_3</text>
</a>
</g>
</g>
<!-- http://example.org/disti1_3&#45;&gt;http://example.org/dist_ai1_3 -->
<g id="edge30" class="edge"><title>http://example.org/disti1_3&#45;&gt;http://example.org/dist_ai1_3</title>
<path fill="none" stroke="black" d="M468.08,-175C458.028,-175 446.987,-175 436.199,-175"/>
<polygon fill="black" stroke="black" points="435.973,-171.5 425.973,-175 435.973,-178.5 435.973,-171.5"/>
<text text-anchor="middle" x="460.58" y="-186.09" font-family="Times New Roman,serif" font-size="8.00">der</text>
</g>
<!-- &#45;attrs3 -->
<g id="node11" class="node"><title>&#45;attrs3</title>
<polygon fill="none" stroke="gray" points="672.987,-198 591.987,-198 591.987,-162 678.987,-162 678.987,-192 672.987,-198"/>
<polyline fill="none" stroke="gray" points="672.987,-198 672.987,-192 "/>
<polyline fill="none" stroke="gray" points="678.987,-192 672.987,-192 "/>
<text text-anchor="start" x="602.487" y="-184" font-family="Times New Roman,serif" font-size="10.00">value:</text>
<text text-anchor="start" x="629.487" y="-184" font-family="Times New Roman,serif" font-size="10.00">&quot;1&quot;</text>
<text text-anchor="start" x="602.487" y="-171" font-family="Times New Roman,serif" font-size="10.00">type:</text>
<text text-anchor="start" x="629.487" y="-171" font-family="Times New Roman,serif" font-size="10.00">&quot;number&quot;</text>
</g>
<!-- &#45;attrs3&#45;&gt;http://example.org/disti1_3 -->
<g id="edge6" class="edge"><title>&#45;attrs3&#45;&gt;http://example.org/disti1_3</title>
<path fill="none" stroke="gray" stroke-dasharray="5,2" d="M591.966,-178.307C577.59,-177.735 561.627,-177.099 547.567,-176.54"/>
</g>
<!-- http://example.org/distk_aj11 -->
<g id="node12" class="node"><title>http://example.org/distk_aj11</title>
<g id="a_node12"><a xlink:href="http://example.org/distk_aj11" xlink:title="distk_aj11">
<ellipse fill="#fffc87" stroke="#808080" cx="635.487" cy="-18" rx="48.1917" ry="18"/>
<text text-anchor="middle" x="635.487" y="-14.3" font-family="Times New Roman,serif" font-size="14.00">distk_aj11</text>
</a>
</g>
</g>
<!-- http://example.org/distk_aj11&#45;&gt;http://example.org/distk2_1 -->
<g id="edge7" class="edge"><title>http://example.org/distk_aj11&#45;&gt;http://example.org/distk2_1</title>
<path fill="none" stroke="black" d="M593.362,-26.8408C581.401,-29.4121 568.245,-32.2404 555.949,-34.8837"/>
<polygon fill="black" stroke="black" points="554.909,-31.5272 545.868,-37.0508 556.38,-38.3708 554.909,-31.5272"/>
<text text-anchor="middle" x="588.76" y="-39.2173" font-family="Times New Roman,serif" font-size="8.00">der</text>
</g>
<!-- http://example.org/dist01_0 -->
<g id="node14" class="node"><title>http://example.org/dist01_0</title>
<g id="a_node14"><a xlink:href="http://example.org/dist01_0" xlink:title="dist01_0">
<ellipse fill="#fffc87" stroke="#808080" cx="247.5" cy="-178" rx="42.4939" ry="18"/>
<text text-anchor="middle" x="247.5" y="-174.3" font-family="Times New Roman,serif" font-size="14.00">dist01_0</text>
</a>
</g>
</g>
<!-- http://example.org/dist_ai1_3&#45;&gt;http://example.org/dist01_0 -->
<g id="edge8" class="edge"><title>http://example.org/dist_ai1_3&#45;&gt;http://example.org/dist01_0</title>
<path fill="none" stroke="black" d="M329.688,-176.1C320.036,-176.326 309.825,-176.565 300.023,-176.794"/>
<polygon fill="black" stroke="black" points="299.912,-173.296 289.997,-177.029 300.076,-180.294 299.912,-173.296"/>
<text text-anchor="middle" x="322.494" y="-187.362" font-family="Times New Roman,serif" font-size="8.00">der</text>
</g>
<!-- http://example.org/list01_0 -->
<g id="node16" class="node"><title>http://example.org/list01_0</title>
<g id="a_node16"><a xlink:href="http://example.org/list01_0" xlink:title="list01_0">
<ellipse fill="#fffc87" stroke="#808080" cx="129" cy="-178" rx="38.9931" ry="18"/>
<text text-anchor="middle" x="129" y="-174.3" font-family="Times New Roman,serif" font-size="14.00">list01_0</text>
</a>
</g>
</g>
<!-- http://example.org/dist01_0&#45;&gt;http://example.org/list01_0 -->
<g id="edge25" class="edge"><title>http://example.org/dist01_0&#45;&gt;http://example.org/list01_0</title>
<path fill="none" stroke="black" d="M205.098,-178C196.449,-178 187.258,-178 178.381,-178"/>
<polygon fill="black" stroke="black" points="178.157,-174.5 168.157,-178 178.157,-181.5 178.157,-174.5"/>
<text text-anchor="middle" x="197.598" y="-189.09" font-family="Times New Roman,serif" font-size="8.00">der</text>
</g>
<!-- &#45;attrs4 -->
<g id="node15" class="node"><title>&#45;attrs4</title>
<polygon fill="none" stroke="gray" points="672.987,-90 591.987,-90 591.987,-54 678.987,-54 678.987,-84 672.987,-90"/>
<polyline fill="none" stroke="gray" points="672.987,-90 672.987,-84 "/>
<polyline fill="none" stroke="gray" points="678.987,-84 672.987,-84 "/>
<text text-anchor="start" x="602.487" y="-76" font-family="Times New Roman,serif" font-size="10.00">value:</text>
<text text-anchor="start" x="629.487" y="-76" font-family="Times New Roman,serif" font-size="10.00">&quot;2&quot;</text>
<text text-anchor="start" x="602.487" y="-63" font-family="Times New Roman,serif" font-size="10.00">type:</text>
<text text-anchor="start" x="629.487" y="-63" font-family="Times New Roman,serif" font-size="10.00">&quot;number&quot;</text>
</g>
<!-- &#45;attrs4&#45;&gt;http://example.org/distk2_1 -->
<g id="edge9" class="edge"><title>&#45;attrs4&#45;&gt;http://example.org/distk2_1</title>
<path fill="none" stroke="gray" stroke-dasharray="5,2" d="M591.966,-62.859C577.021,-59.6463 560.36,-56.0646 545.905,-52.9571"/>
</g>
<!-- http://example.org/n1 -->
<g id="node17" class="node"><title>http://example.org/n1</title>
<g id="a_node17"><a xlink:href="http://example.org/n1" xlink:title="n1">
<ellipse fill="#fffc87" stroke="#808080" cx="27" cy="-191" rx="27" ry="18"/>
<text text-anchor="middle" x="27" y="-187.3" font-family="Times New Roman,serif" font-size="14.00">n1</text>
</a>
</g>
</g>
<!-- http://example.org/list01_0&#45;&gt;http://example.org/n1 -->
<g id="edge10" class="edge"><title>http://example.org/list01_0&#45;&gt;http://example.org/n1</title>
<path fill="none" stroke="black" d="M91.3315,-182.767C82.357,-183.934 72.7644,-185.181 63.8298,-186.342"/>
<polygon fill="black" stroke="black" points="63.1853,-182.896 53.72,-187.656 64.0878,-189.838 63.1853,-182.896"/>
<text text-anchor="middle" x="85.5688" y="-194.716" font-family="Times New Roman,serif" font-size="8.00">der</text>
</g>
<!-- &#45;attrs5 -->
<g id="node18" class="node"><title>&#45;attrs5</title>
<polygon fill="none" stroke="gray" points="1029.68,-90 957.678,-90 957.678,-54 1035.68,-54 1035.68,-84 1029.68,-90"/>
<polyline fill="none" stroke="gray" points="1029.68,-90 1029.68,-84 "/>
<polyline fill="none" stroke="gray" points="1035.68,-84 1029.68,-84 "/>
<text text-anchor="start" x="967.678" y="-76" font-family="Times New Roman,serif" font-size="10.00">value:</text>
<text text-anchor="start" x="994.678" y="-76" font-family="Times New Roman,serif" font-size="10.00">&quot;3&quot;</text>
<text text-anchor="start" x="967.678" y="-63" font-family="Times New Roman,serif" font-size="10.00">type:</text>
<text text-anchor="start" x="994.678" y="-63" font-family="Times New Roman,serif" font-size="10.00">&quot;name&quot;</text>
</g>
<!-- &#45;attrs5&#45;&gt;http://example.org/ikj11 -->
<g id="edge11" class="edge"><title>&#45;attrs5&#45;&gt;http://example.org/ikj11</title>
<path fill="none" stroke="gray" stroke-dasharray="5,2" d="M957.501,-80.6916C939.625,-84.7614 918.802,-89.5019 902.825,-93.1393"/>
</g>
<!-- &#45;attrs6 -->
<g id="node19" class="node"><title>&#45;attrs6</title>
<polygon fill="none" stroke="gray" points="1173.97,-171 1095.97,-171 1095.97,-135 1179.97,-135 1179.97,-165 1173.97,-171"/>
<polyline fill="none" stroke="gray" points="1173.97,-171 1173.97,-165 "/>
<polyline fill="none" stroke="gray" points="1179.97,-165 1173.97,-165 "/>
<text text-anchor="start" x="1105.97" y="-157" font-family="Times New Roman,serif" font-size="10.00">value:</text>
<text text-anchor="start" x="1132.97" y="-157" font-family="Times New Roman,serif" font-size="10.00">&quot;3&quot;</text>
<text text-anchor="start" x="1105.97" y="-144" font-family="Times New Roman,serif" font-size="10.00">type:</text>
<text text-anchor="start" x="1132.97" y="-144" font-family="Times New Roman,serif" font-size="10.00">&quot;access&quot;</text>
</g>
<!-- &#45;attrs6&#45;&gt;http://example.org/result02_1 -->
<g id="edge12" class="edge"><title>&#45;attrs6&#45;&gt;http://example.org/result02_1</title>
<path fill="none" stroke="gray" stroke-dasharray="5,2" d="M1095.93,-145.045C1078.28,-141.623 1057.65,-137.625 1039.87,-134.179"/>
</g>
<!-- http://example.org/sum11&#45;&gt;http://example.org/disti_ak11 -->
<g id="edge13" class="edge"><title>http://example.org/sum11&#45;&gt;http://example.org/disti_ak11</title>
<path fill="none" stroke="black" d="M734.568,-83.3202C717.909,-90.5694 695.946,-100.126 677.028,-108.359"/>
<polygon fill="black" stroke="black" points="675.513,-105.201 667.74,-112.4 678.306,-111.619 675.513,-105.201"/>
<text text-anchor="middle" x="732.874" y="-96.3242" font-family="Times New Roman,serif" font-size="8.00">der</text>
</g>
<!-- http://example.org/sum11&#45;&gt;http://example.org/distk_aj11 -->
<g id="edge21" class="edge"><title>http://example.org/sum11&#45;&gt;http://example.org/distk_aj11</title>
<path fill="none" stroke="black" d="M734.568,-60.6798C717.909,-53.4306 695.946,-43.8737 677.028,-35.6414"/>
<polygon fill="black" stroke="black" points="678.306,-32.3806 667.74,-31.5998 675.513,-38.7992 678.306,-32.3806"/>
<text text-anchor="middle" x="722.508" y="-67.6988" font-family="Times New Roman,serif" font-size="8.00">der</text>
</g>
<!-- http://example.org/n2 -->
<g id="node21" class="node"><title>http://example.org/n2</title>
<g id="a_node21"><a xlink:href="http://example.org/n2" xlink:title="n2">
<ellipse fill="#fffc87" stroke="#808080" cx="27" cy="-110" rx="27" ry="18"/>
<text text-anchor="middle" x="27" y="-106.3" font-family="Times New Roman,serif" font-size="14.00">n2</text>
</a>
</g>
</g>
<!-- &#45;attrs7 -->
<g id="node22" class="node"><title>&#45;attrs7</title>
<polygon fill="none" stroke="gray" points="162,-142 90,-142 90,-106 168,-106 168,-136 162,-142"/>
<polyline fill="none" stroke="gray" points="162,-142 162,-136 "/>
<polyline fill="none" stroke="gray" points="168,-136 162,-136 "/>
<text text-anchor="start" x="100" y="-128" font-family="Times New Roman,serif" font-size="10.00">value:</text>
<text text-anchor="start" x="127" y="-128" font-family="Times New Roman,serif" font-size="10.00">&quot;2&quot;</text>
<text text-anchor="start" x="100" y="-115" font-family="Times New Roman,serif" font-size="10.00">type:</text>
<text text-anchor="start" x="127" y="-115" font-family="Times New Roman,serif" font-size="10.00">&quot;literal&quot;</text>
</g>
<!-- &#45;attrs7&#45;&gt;http://example.org/n2 -->
<g id="edge14" class="edge"><title>&#45;attrs7&#45;&gt;http://example.org/n2</title>
<path fill="none" stroke="gray" stroke-dasharray="5,2" d="M89.909,-118.667C77.7661,-116.967 64.6281,-115.128 53.5922,-113.583"/>
</g>
<!-- &#45;attrs8 -->
<g id="node23" class="node"><title>&#45;attrs8</title>
<polygon fill="none" stroke="gray" points="906.582,-63 839.582,-63 839.582,-27 912.582,-27 912.582,-57 906.582,-63"/>
<polyline fill="none" stroke="gray" points="906.582,-63 906.582,-57 "/>
<polyline fill="none" stroke="gray" points="912.582,-57 906.582,-57 "/>
<text text-anchor="start" x="850.082" y="-49" font-family="Times New Roman,serif" font-size="10.00">value:</text>
<text text-anchor="start" x="877.082" y="-49" font-family="Times New Roman,serif" font-size="10.00">&quot;3&quot;</text>
<text text-anchor="start" x="850.082" y="-36" font-family="Times New Roman,serif" font-size="10.00">type:</text>
<text text-anchor="start" x="877.082" y="-36" font-family="Times New Roman,serif" font-size="10.00">&quot;sum&quot;</text>
</g>
<!-- &#45;attrs8&#45;&gt;http://example.org/sum11 -->
<g id="edge15" class="edge"><title>&#45;attrs8&#45;&gt;http://example.org/sum11</title>
<path fill="none" stroke="gray" stroke-dasharray="5,2" d="M839.487,-53.543C824.681,-57.0964 807.658,-61.1818 793.398,-64.6043"/>
</g>
<!-- http://example.org/result_a02_0 -->
<g id="node24" class="node"><title>http://example.org/result_a02_0</title>
<g id="a_node24"><a xlink:href="http://example.org/result_a02_0" xlink:title="result_a02_0">
<ellipse fill="#fffc87" stroke="#808080" cx="1137.97" cy="-99" rx="57.3905" ry="18"/>
<text text-anchor="middle" x="1137.97" y="-95.3" font-family="Times New Roman,serif" font-size="14.00">result_a02_0</text>
</a>
</g>
</g>
<!-- http://example.org/result_a02_0&#45;&gt;http://example.org/result02_1 -->
<g id="edge16" class="edge"><title>http://example.org/result_a02_0&#45;&gt;http://example.org/result02_1</title>
<path fill="none" stroke="black" d="M1088.64,-108.368C1076.12,-110.795 1062.58,-113.42 1049.86,-115.884"/>
<polygon fill="black" stroke="black" points="1049.03,-112.48 1039.88,-117.819 1050.37,-119.352 1049.03,-112.48"/>
<text text-anchor="middle" x="1083.75" y="-120.648" font-family="Times New Roman,serif" font-size="8.00">der</text>
</g>
<!-- &#45;attrs9 -->
<g id="node25" class="node"><title>&#45;attrs9</title>
<polygon fill="none" stroke="gray" points="415.196,-247 334.196,-247 334.196,-211 421.196,-211 421.196,-241 415.196,-247"/>
<polyline fill="none" stroke="gray" points="415.196,-247 415.196,-241 "/>
<polyline fill="none" stroke="gray" points="421.196,-241 415.196,-241 "/>
<text text-anchor="start" x="344.696" y="-233" font-family="Times New Roman,serif" font-size="10.00">value:</text>
<text text-anchor="start" x="371.696" y="-233" font-family="Times New Roman,serif" font-size="10.00">&quot;1&quot;</text>
<text text-anchor="start" x="344.696" y="-220" font-family="Times New Roman,serif" font-size="10.00">type:</text>
<text text-anchor="start" x="371.696" y="-220" font-family="Times New Roman,serif" font-size="10.00">&quot;number&quot;</text>
</g>
<!-- &#45;attrs9&#45;&gt;http://example.org/dist01_0 -->
<g id="edge18" class="edge"><title>&#45;attrs9&#45;&gt;http://example.org/dist01_0</title>
<path fill="none" stroke="gray" stroke-dasharray="5,2" d="M334.008,-212.018C315.945,-204.832 295.319,-196.626 278.85,-190.074"/>
</g>
<!-- http://example.org/list12_0&#45;&gt;http://example.org/n2 -->
<g id="edge20" class="edge"><title>http://example.org/list12_0&#45;&gt;http://example.org/n2</title>
<path fill="none" stroke="black" d="M99.0759,-81.5697C86.8777,-86.4489 72.631,-92.1476 60.1089,-97.1565"/>
<polygon fill="black" stroke="black" points="58.4931,-94.0331 50.5082,-100.997 61.0928,-100.532 58.4931,-94.0331"/>
<text text-anchor="middle" x="96.9368" y="-94.5164" font-family="Times New Roman,serif" font-size="8.00">der</text>
</g>
<!-- http://example.org/result_a020 -->
<g id="node27" class="node"><title>http://example.org/result_a020</title>
<g id="a_node27"><a xlink:href="http://example.org/result_a020" xlink:title="result_a020">
<ellipse fill="#fffc87" stroke="#808080" cx="1283.16" cy="-126" rx="51.9908" ry="18"/>
<text text-anchor="middle" x="1283.16" y="-122.3" font-family="Times New Roman,serif" font-size="14.00">result_a020</text>
</a>
</g>
</g>
<!-- http://example.org/result_a020&#45;&gt;http://example.org/result_a02_0 -->
<g id="edge22" class="edge"><title>http://example.org/result_a020&#45;&gt;http://example.org/result_a02_0</title>
<path fill="none" stroke="black" d="M1237.25,-117.531C1224.7,-115.165 1210.87,-112.558 1197.65,-110.066"/>
<polygon fill="black" stroke="black" points="1198.17,-106.602 1187.7,-108.188 1196.87,-113.48 1198.17,-106.602"/>
<text text-anchor="middle" x="1227.47" y="-127.007" font-family="Times New Roman,serif" font-size="8.00">der</text>
</g>
<!-- &#45;attrs10 -->
<g id="node28" class="node"><title>&#45;attrs10</title>
<polygon fill="none" stroke="gray" points="797.582,-36 719.582,-36 719.582,-0 803.582,-0 803.582,-30 797.582,-36"/>
<polyline fill="none" stroke="gray" points="797.582,-36 797.582,-30 "/>
<polyline fill="none" stroke="gray" points="803.582,-30 797.582,-30 "/>
<text text-anchor="start" x="729.582" y="-22" font-family="Times New Roman,serif" font-size="10.00">value:</text>
<text text-anchor="start" x="756.582" y="-22" font-family="Times New Roman,serif" font-size="10.00">&quot;2&quot;</text>
<text text-anchor="start" x="729.582" y="-9" font-family="Times New Roman,serif" font-size="10.00">type:</text>
<text text-anchor="start" x="756.582" y="-9" font-family="Times New Roman,serif" font-size="10.00">&quot;access&quot;</text>
</g>
<!-- &#45;attrs10&#45;&gt;http://example.org/distk_aj11 -->
<g id="edge23" class="edge"><title>&#45;attrs10&#45;&gt;http://example.org/distk_aj11</title>
<path fill="none" stroke="gray" stroke-dasharray="5,2" d="M719.26,-18C707.838,-18 695.358,-18 683.632,-18"/>
</g>
<!-- &#45;attrs11 -->
<g id="node29" class="node"><title>&#45;attrs11</title>
<polygon fill="none" stroke="gray" points="1320.66,-90 1239.66,-90 1239.66,-54 1326.66,-54 1326.66,-84 1320.66,-90"/>
<polyline fill="none" stroke="gray" points="1320.66,-90 1320.66,-84 "/>
<polyline fill="none" stroke="gray" points="1326.66,-84 1320.66,-84 "/>
<text text-anchor="start" x="1250.16" y="-76" font-family="Times New Roman,serif" font-size="10.00">value:</text>
<text text-anchor="start" x="1277.16" y="-76" font-family="Times New Roman,serif" font-size="10.00">&quot;3&quot;</text>
<text text-anchor="start" x="1250.16" y="-63" font-family="Times New Roman,serif" font-size="10.00">type:</text>
<text text-anchor="start" x="1277.16" y="-63" font-family="Times New Roman,serif" font-size="10.00">&quot;number&quot;</text>
</g>
<!-- &#45;attrs11&#45;&gt;http://example.org/result_a02_0 -->
<g id="edge27" class="edge"><title>&#45;attrs11&#45;&gt;http://example.org/result_a02_0</title>
<path fill="none" stroke="gray" stroke-dasharray="5,2" d="M1239.59,-80.0278C1223.18,-83.1212 1204.33,-86.676 1187.41,-89.8662"/>
</g>
<!-- &#45;attrs12 -->
<g id="node30" class="node"><title>&#45;attrs12</title>
<polygon fill="none" stroke="gray" points="285,-250 204,-250 204,-214 291,-214 291,-244 285,-250"/>
<polyline fill="none" stroke="gray" points="285,-250 285,-244 "/>
<polyline fill="none" stroke="gray" points="291,-244 285,-244 "/>
<text text-anchor="start" x="214.5" y="-236" font-family="Times New Roman,serif" font-size="10.00">value:</text>
<text text-anchor="start" x="241.5" y="-236" font-family="Times New Roman,serif" font-size="10.00">&quot;1&quot;</text>
<text text-anchor="start" x="214.5" y="-223" font-family="Times New Roman,serif" font-size="10.00">type:</text>
<text text-anchor="start" x="241.5" y="-223" font-family="Times New Roman,serif" font-size="10.00">&quot;number&quot;</text>
</g>
<!-- &#45;attrs12&#45;&gt;http://example.org/list01_0 -->
<g id="edge28" class="edge"><title>&#45;attrs12&#45;&gt;http://example.org/list01_0</title>
<path fill="none" stroke="gray" stroke-dasharray="5,2" d="M207.383,-213.869C190.857,-206.209 172.021,-197.477 157.07,-190.547"/>
</g>
<!-- &#45;attrs13 -->
<g id="node31" class="node"><title>&#45;attrs13</title>
<polygon fill="none" stroke="gray" points="162,-250 90,-250 90,-214 168,-214 168,-244 162,-250"/>
<polyline fill="none" stroke="gray" points="162,-250 162,-244 "/>
<polyline fill="none" stroke="gray" points="168,-244 162,-244 "/>
<text text-anchor="start" x="100" y="-236" font-family="Times New Roman,serif" font-size="10.00">value:</text>
<text text-anchor="start" x="127" y="-236" font-family="Times New Roman,serif" font-size="10.00">&quot;1&quot;</text>
<text text-anchor="start" x="100" y="-223" font-family="Times New Roman,serif" font-size="10.00">type:</text>
<text text-anchor="start" x="127" y="-223" font-family="Times New Roman,serif" font-size="10.00">&quot;literal&quot;</text>
</g>
<!-- &#45;attrs13&#45;&gt;http://example.org/n1 -->
<g id="edge29" class="edge"><title>&#45;attrs13&#45;&gt;http://example.org/n1</title>
<path fill="none" stroke="gray" stroke-dasharray="5,2" d="M89.909,-216.383C76.5518,-210.906 61.9906,-204.936 50.3476,-200.163"/>
</g>
<!-- &#45;attrs14 -->
<g id="node32" class="node"><title>&#45;attrs14</title>
<polygon fill="none" stroke="gray" points="545.391,-247 464.391,-247 464.391,-211 551.391,-211 551.391,-241 545.391,-247"/>
<polyline fill="none" stroke="gray" points="545.391,-247 545.391,-241 "/>
<polyline fill="none" stroke="gray" points="551.391,-241 545.391,-241 "/>
<text text-anchor="start" x="474.891" y="-233" font-family="Times New Roman,serif" font-size="10.00">value:</text>
<text text-anchor="start" x="501.891" y="-233" font-family="Times New Roman,serif" font-size="10.00">&quot;1&quot;</text>
<text text-anchor="start" x="474.891" y="-220" font-family="Times New Roman,serif" font-size="10.00">type:</text>
<text text-anchor="start" x="501.891" y="-220" font-family="Times New Roman,serif" font-size="10.00">&quot;number&quot;</text>
</g>
<!-- &#45;attrs14&#45;&gt;http://example.org/dist_ai1_3 -->
<g id="edge31" class="edge"><title>&#45;attrs14&#45;&gt;http://example.org/dist_ai1_3</title>
<path fill="none" stroke="gray" stroke-dasharray="5,2" d="M464.204,-211.019C446.577,-203.594 426.511,-195.141 410.248,-188.291"/>
</g>
<!-- &#45;attrs15 -->
<g id="node33" class="node"><title>&#45;attrs15</title>
<polygon fill="none" stroke="gray" points="1452.15,-144 1371.15,-144 1371.15,-108 1458.15,-108 1458.15,-138 1452.15,-144"/>
<polyline fill="none" stroke="gray" points="1452.15,-144 1452.15,-138 "/>
<polyline fill="none" stroke="gray" points="1458.15,-138 1452.15,-138 "/>
<text text-anchor="start" x="1381.65" y="-130" font-family="Times New Roman,serif" font-size="10.00">value:</text>
<text text-anchor="start" x="1408.65" y="-130" font-family="Times New Roman,serif" font-size="10.00">&quot;3&quot;</text>
<text text-anchor="start" x="1381.65" y="-117" font-family="Times New Roman,serif" font-size="10.00">type:</text>
<text text-anchor="start" x="1408.65" y="-117" font-family="Times New Roman,serif" font-size="10.00">&quot;number&quot;</text>
</g>
<!-- &#45;attrs15&#45;&gt;http://example.org/result_a020 -->
<g id="edge32" class="edge"><title>&#45;attrs15&#45;&gt;http://example.org/result_a020</title>
<path fill="none" stroke="gray" stroke-dasharray="5,2" d="M1370.89,-126C1359.55,-126 1347.18,-126 1335.43,-126"/>
</g>
<!-- &#45;attrs16 -->
<g id="node34" class="node"><title>&#45;attrs16</title>
<polygon fill="none" stroke="gray" points="285,-137 204,-137 204,-101 291,-101 291,-131 285,-137"/>
<polyline fill="none" stroke="gray" points="285,-137 285,-131 "/>
<polyline fill="none" stroke="gray" points="291,-131 285,-131 "/>
<text text-anchor="start" x="214.5" y="-123" font-family="Times New Roman,serif" font-size="10.00">value:</text>
<text text-anchor="start" x="241.5" y="-123" font-family="Times New Roman,serif" font-size="10.00">&quot;2&quot;</text>
<text text-anchor="start" x="214.5" y="-110" font-family="Times New Roman,serif" font-size="10.00">type:</text>
<text text-anchor="start" x="241.5" y="-110" font-family="Times New Roman,serif" font-size="10.00">&quot;number&quot;</text>
</g>
<!-- &#45;attrs16&#45;&gt;http://example.org/list12_0 -->
<g id="edge33" class="edge"><title>&#45;attrs16&#45;&gt;http://example.org/list12_0</title>
<path fill="none" stroke="gray" stroke-dasharray="5,2" d="M203.781,-101.032C188.715,-94.6957 172.154,-87.73 158.546,-82.0063"/>
</g>
</g>
</svg>
